<svg
  version="1.2"
  xmlns="http://www.w3.org/2000/svg"
  viewBox="0 0 800 800"
  penrose="0"
>
  <penrose>
    <croppedViewBox>
      118.80213043974084 0.30827979037439945 650.5938358657971 671.7759607544511
    </croppedViewBox>
  </penrose>
  <g
    transform="rotate(0, 444.0990483726394, 336.1962601676)translate(118.80213043974084, 0.30827979037439945)"
  >
    <svg
      xmlns="http://www.w3.org/2000/svg"
      xmlns:xlink="http://www.w3.org/1999/xlink"
      viewBox="0 0 874.58 820.84"
      width="650.5938358657971"
      height="671.7759607544511"
      preserveAspectRatio=""
    >
      <defs>
        <linearGradient
          id="tree-venn-3d__linear-gradient--inject-1"
          x1="214.17"
          y1="30.72"
          x2="996.08"
          y2="1361.33"
          gradientUnits="userSpaceOnUse"
        >
          <stop offset="0.14" stop-color="#dbdbdb" stop-opacity="0" />
          <stop offset="0.88" />
        </linearGradient>
      </defs>
      <title>shadow</title>
      <g id="tree-venn-3d__Layer_2--inject-1" data-name="Layer 2">
        <g id="tree-venn-3d__Layer_1-2--inject-1" data-name="Layer 1">
          <ellipse
            cx="437.29"
            cy="410.42"
            rx="437.29"
            ry="410.42"
            opacity="0.3"
            fill="url(#tree-venn-3d__linear-gradient--inject-1)"
          />
        </g>
      </g>
    </svg>
    <title>`A`.shadow</title>
  </g>
  <g
    transform="rotate(0, 425.9429413252218, 305.33087818699005)translate(123.3411572015952, 2.7290940633634477)"
  >
    <svg
      xmlns="http://www.w3.org/2000/svg"
      xmlns:xlink="http://www.w3.org/1999/xlink"
      viewBox="0 0 829.57 829.57"
      width="605.2035682472532"
      height="605.2035682472532"
      preserveAspectRatio=""
    >
      <defs>
        <radialGradient
          id="tree-venn-3d__radial-gradient--inject-2"
          cx="388.77"
          cy="378.93"
          fx="227.19844299493337"
          fy="199.3018850052363"
          r="571.68"
          gradientUnits="userSpaceOnUse"
        >
          <stop offset="0.14" stop-color="#dbdbdb" />
          <stop offset="0.29" stop-color="#bdbdbd" />
          <stop offset="0.6" stop-color="#707070" />
          <stop offset="0.72" stop-color="#525252" />
          <stop offset="0.76" stop-color="#656565" />
          <stop offset="0.84" stop-color="#959595" />
          <stop offset="0.96" stop-color="#e2e2e2" />
          <stop offset="1" stop-color="#fff" />
        </radialGradient>
      </defs>
      <title>shading</title>
      <g id="tree-venn-3d__Layer_2--inject-2" data-name="Layer 2">
        <g id="tree-venn-3d__Layer_1-2--inject-2" data-name="Layer 1">
          <circle
            cx="414.78"
            cy="414.78"
            r="414.78"
            fill="url(#tree-venn-3d__radial-gradient--inject-2)"
          />
        </g>
      </g>
    </svg>
    <title>`A`.shading</title>
  </g>
  <circle
    fill="#7e289b"
    fill-opacity="0.5"
    cx="425.9429413252218"
    cy="305.33087818699005"
    stroke="none"
    r="302.6017841236266"
  >
    <title>`A`.shape</title>
  </circle>
  <g
    transform="rotate(0, 507.98321722264075, 487.2806083611702)translate(393.88845389841265, 369.47113181243236)"
  >
    <svg
      xmlns="http://www.w3.org/2000/svg"
      xmlns:xlink="http://www.w3.org/1999/xlink"
      viewBox="0 0 874.58 820.84"
      width="228.1895266484562"
      height="235.61895309747572"
      preserveAspectRatio=""
    >
      <defs>
        <linearGradient
          id="tree-venn-3d__linear-gradient--inject-3"
          x1="214.17"
          y1="30.72"
          x2="996.08"
          y2="1361.33"
          gradientUnits="userSpaceOnUse"
        >
          <stop offset="0.14" stop-color="#dbdbdb" stop-opacity="0" />
          <stop offset="0.88" />
        </linearGradient>
      </defs>
      <title>shadow</title>
      <g id="tree-venn-3d__Layer_2--inject-3" data-name="Layer 2">
        <g id="tree-venn-3d__Layer_1-2--inject-3" data-name="Layer 1">
          <ellipse
            cx="437.29"
            cy="410.42"
            rx="437.29"
            ry="410.42"
            opacity="0.3"
            fill="url(#tree-venn-3d__linear-gradient--inject-3)"
          />
        </g>
      </g>
    </svg>
    <title>`C`.shadow</title>
  </g>
  <g
    transform="rotate(0, 501.6151374091954, 476.4548726783132)translate(395.4804738517739, 370.3202091208917)"
  >
    <svg
      xmlns="http://www.w3.org/2000/svg"
      xmlns:xlink="http://www.w3.org/1999/xlink"
      viewBox="0 0 829.57 829.57"
      width="212.26932711484298"
      height="212.26932711484298"
      preserveAspectRatio=""
    >
      <defs>
        <radialGradient
          id="tree-venn-3d__radial-gradient--inject-4"
          cx="388.77"
          cy="378.93"
          fx="227.19844299493337"
          fy="199.3018850052363"
          r="571.68"
          gradientUnits="userSpaceOnUse"
        >
          <stop offset="0.14" stop-color="#dbdbdb" />
          <stop offset="0.29" stop-color="#bdbdbd" />
          <stop offset="0.6" stop-color="#707070" />
          <stop offset="0.72" stop-color="#525252" />
          <stop offset="0.76" stop-color="#656565" />
          <stop offset="0.84" stop-color="#959595" />
          <stop offset="0.96" stop-color="#e2e2e2" />
          <stop offset="1" stop-color="#fff" />
        </radialGradient>
      </defs>
      <title>shading</title>
      <g id="tree-venn-3d__Layer_2--inject-4" data-name="Layer 2">
        <g id="tree-venn-3d__Layer_1-2--inject-4" data-name="Layer 1">
          <circle
            cx="414.78"
            cy="414.78"
            r="414.78"
            fill="url(#tree-venn-3d__radial-gradient--inject-4)"
          />
        </g>
      </g>
    </svg>
    <title>`C`.shading</title>
  </g>
  <g
    transform="rotate(0, 425.9429413252218, 305.33087818699005)translate(365.42258450049644, 244.81052136226472)"
  >
    <title>`A`.text</title>
    <svg
      style="font-size: 16px"
      xmlns="http://www.w3.org/2000/svg"
      width="121.04071364945065"
      height="121.04071364945065"
      role="img"
      focusable="false"
      viewBox="0 -716 750 716"
    >
      <g
        stroke="none"
        fill="#ffffff"
        stroke-width="0"
        transform="scale(1,-1)"
        fill-opacity="1"
      >
        <g data-mml-node="math">
          <g data-mml-node="mi">
            <path
              data-c="1D434"
              d="M208 74Q208 50 254 46Q272 46 272 35Q272 34 270 22Q267 8 264 4T251 0Q249 0 239 0T205 1T141 2Q70 2 50 0H42Q35 7 35 11Q37 38 48 46H62Q132 49 164 96Q170 102 345 401T523 704Q530 716 547 716H555H572Q578 707 578 706L606 383Q634 60 636 57Q641 46 701 46Q726 46 726 36Q726 34 723 22Q720 7 718 4T704 0Q701 0 690 0T651 1T578 2Q484 2 455 0H443Q437 6 437 9T439 27Q443 40 445 43L449 46H469Q523 49 533 63L521 213H283L249 155Q208 86 208 74ZM516 260Q516 271 504 416T490 562L463 519Q447 492 400 412L310 260L413 259Q516 259 516 260Z"
            />
          </g>
        </g>
      </g>
    </svg>
  </g>
  <circle
    fill="#4951bb"
    fill-opacity="0.5"
    cx="501.6151374091954"
    cy="476.4548726783132"
    stroke="none"
    r="106.13466355742149"
  >
    <title>`C`.shape</title>
  </circle>
  <g
    transform="rotate(0, 506.81317083484777, 419.549731511704)translate(485.19702951340224, 397.2298088449091)"
  >
    <svg
      xmlns="http://www.w3.org/2000/svg"
      xmlns:xlink="http://www.w3.org/1999/xlink"
      viewBox="0 0 874.58 820.84"
      width="43.23228264289104"
      height="44.63984533358983"
      preserveAspectRatio=""
    >
      <defs>
        <linearGradient
          id="tree-venn-3d__linear-gradient--inject-5"
          x1="214.17"
          y1="30.72"
          x2="996.08"
          y2="1361.33"
          gradientUnits="userSpaceOnUse"
        >
          <stop offset="0.14" stop-color="#dbdbdb" stop-opacity="0" />
          <stop offset="0.88" />
        </linearGradient>
      </defs>
      <title>shadow</title>
      <g id="tree-venn-3d__Layer_2--inject-5" data-name="Layer 2">
        <g id="tree-venn-3d__Layer_1-2--inject-5" data-name="Layer 1">
          <ellipse
            cx="437.29"
            cy="410.42"
            rx="437.29"
            ry="410.42"
            opacity="0.3"
            fill="url(#tree-venn-3d__linear-gradient--inject-5)"
          />
        </g>
      </g>
    </svg>
    <title>`F`.shadow</title>
  </g>
  <g
    transform="rotate(0, 505.60668852853456, 417.4987115909715)translate(485.4986500899806, 397.3906731524175)"
  >
    <svg
      xmlns="http://www.w3.org/2000/svg"
      xmlns:xlink="http://www.w3.org/1999/xlink"
      viewBox="0 0 829.57 829.57"
      width="40.21607687710795"
      height="40.21607687710795"
      preserveAspectRatio=""
    >
      <defs>
        <radialGradient
          id="tree-venn-3d__radial-gradient--inject-6"
          cx="388.77"
          cy="378.93"
          fx="227.19844299493337"
          fy="199.3018850052363"
          r="571.68"
          gradientUnits="userSpaceOnUse"
        >
          <stop offset="0.14" stop-color="#dbdbdb" />
          <stop offset="0.29" stop-color="#bdbdbd" />
          <stop offset="0.6" stop-color="#707070" />
          <stop offset="0.72" stop-color="#525252" />
          <stop offset="0.76" stop-color="#656565" />
          <stop offset="0.84" stop-color="#959595" />
          <stop offset="0.96" stop-color="#e2e2e2" />
          <stop offset="1" stop-color="#fff" />
        </radialGradient>
      </defs>
      <title>shading</title>
      <g id="tree-venn-3d__Layer_2--inject-6" data-name="Layer 2">
        <g id="tree-venn-3d__Layer_1-2--inject-6" data-name="Layer 1">
          <circle
            cx="414.78"
            cy="414.78"
            r="414.78"
            fill="url(#tree-venn-3d__radial-gradient--inject-6)"
          />
        </g>
      </g>
    </svg>
    <title>`F`.shading</title>
  </g>
  <g
    transform="rotate(0, 501.6151374091954, 476.4548726783132)translate(480.3882046977111, 455.2279399668289)"
  >
    <title>`C`.text</title>
    <svg
      style="font-size: 16px"
      xmlns="http://www.w3.org/2000/svg"
      width="42.4538654229686"
      height="42.4538654229686"
      role="img"
      focusable="false"
      viewBox="0 -705 760 727"
    >
      <g
        stroke="none"
        fill="#ffffff"
        stroke-width="0"
        transform="scale(1,-1)"
        fill-opacity="1"
      >
        <g data-mml-node="math">
          <g data-mml-node="mi">
            <path
              data-c="1D436"
              d="M50 252Q50 367 117 473T286 641T490 704Q580 704 633 653Q642 643 648 636T656 626L657 623Q660 623 684 649Q691 655 699 663T715 679T725 690L740 705H746Q760 705 760 698Q760 694 728 561Q692 422 692 421Q690 416 687 415T669 413H653Q647 419 647 422Q647 423 648 429T650 449T651 481Q651 552 619 605T510 659Q484 659 454 652T382 628T299 572T226 479Q194 422 175 346T156 222Q156 108 232 58Q280 24 350 24Q441 24 512 92T606 240Q610 253 612 255T628 257Q648 257 648 248Q648 243 647 239Q618 132 523 55T319 -22Q206 -22 128 53T50 252Z"
            />
          </g>
        </g>
      </g>
    </svg>
  </g>
  <circle
    fill="#a85f3b"
    fill-opacity="0.5"
    cx="505.60668852853456"
    cy="417.4987115909715"
    stroke="none"
    r="20.108038438553976"
  >
    <title>`F`.shape</title>
  </circle>
  <g
    transform="rotate(0, 505.60668852853456, 417.4987115909715)translate(501.58508084082376, 413.4771039032607)"
  >
    <title>`F`.text</title>
    <svg
      style="font-size: 16px"
      xmlns="http://www.w3.org/2000/svg"
      width="8.04321537542159"
      height="8.04321537542159"
      role="img"
      focusable="false"
      viewBox="0 -680 749 680"
    >
      <g
        stroke="none"
        fill="#ffffff"
        stroke-width="0"
        transform="scale(1,-1)"
        fill-opacity="1"
      >
        <g data-mml-node="math">
          <g data-mml-node="mi">
            <path
              data-c="1D439"
              d="M48 1Q31 1 31 11Q31 13 34 25Q38 41 42 43T65 46Q92 46 125 49Q139 52 144 61Q146 66 215 342T285 622Q285 629 281 629Q273 632 228 634H197Q191 640 191 642T193 659Q197 676 203 680H742Q749 676 749 669Q749 664 736 557T722 447Q720 440 702 440H690Q683 445 683 453Q683 454 686 477T689 530Q689 560 682 579T663 610T626 626T575 633T503 634H480Q398 633 393 631Q388 629 386 623Q385 622 352 492L320 363H375Q378 363 398 363T426 364T448 367T472 374T489 386Q502 398 511 419T524 457T529 475Q532 480 548 480H560Q567 475 567 470Q567 467 536 339T502 207Q500 200 482 200H470Q463 206 463 212Q463 215 468 234T473 274Q473 303 453 310T364 317H309L277 190Q245 66 245 60Q245 46 334 46H359Q365 40 365 39T363 19Q359 6 353 0H336Q295 2 185 2Q120 2 86 2T48 1Z"
            />
          </g>
        </g>
      </g>
    </svg>
  </g>
  <g
    transform="rotate(0, 266.4591581403568, 427.0453345017259)translate(161.19416406869473, 318.35310806493993)"
  >
    <svg
      xmlns="http://www.w3.org/2000/svg"
      xmlns:xlink="http://www.w3.org/1999/xlink"
      viewBox="0 0 874.58 820.84"
      width="210.52998814332415"
      height="217.38445287357195"
      preserveAspectRatio=""
    >
      <defs>
        <linearGradient
          id="tree-venn-3d__linear-gradient--inject-7"
          x1="214.17"
          y1="30.72"
          x2="996.08"
          y2="1361.33"
          gradientUnits="userSpaceOnUse"
        >
          <stop offset="0.14" stop-color="#dbdbdb" stop-opacity="0" />
          <stop offset="0.88" />
        </linearGradient>
      </defs>
      <title>shadow</title>
      <g id="tree-venn-3d__Layer_2--inject-7" data-name="Layer 2">
        <g id="tree-venn-3d__Layer_1-2--inject-7" data-name="Layer 1">
          <ellipse
            cx="437.29"
            cy="410.42"
            rx="437.29"
            ry="410.42"
            opacity="0.3"
            fill="url(#tree-venn-3d__linear-gradient--inject-7)"
          />
        </g>
      </g>
    </svg>
    <title>`B`.shadow</title>
  </g>
  <g
    transform="rotate(0, 260.5839026572873, 417.0574001805077)translate(162.6629779394621, 319.13647546268254)"
  >
    <svg
      xmlns="http://www.w3.org/2000/svg"
      xmlns:xlink="http://www.w3.org/1999/xlink"
      viewBox="0 0 829.57 829.57"
      width="195.84184943565037"
      height="195.84184943565037"
      preserveAspectRatio=""
    >
      <defs>
        <radialGradient
          id="tree-venn-3d__radial-gradient--inject-8"
          cx="388.77"
          cy="378.93"
          fx="227.19844299493337"
          fy="199.3018850052363"
          r="571.68"
          gradientUnits="userSpaceOnUse"
        >
          <stop offset="0.14" stop-color="#dbdbdb" />
          <stop offset="0.29" stop-color="#bdbdbd" />
          <stop offset="0.6" stop-color="#707070" />
          <stop offset="0.72" stop-color="#525252" />
          <stop offset="0.76" stop-color="#656565" />
          <stop offset="0.84" stop-color="#959595" />
          <stop offset="0.96" stop-color="#e2e2e2" />
          <stop offset="1" stop-color="#fff" />
        </radialGradient>
      </defs>
      <title>shading</title>
      <g id="tree-venn-3d__Layer_2--inject-8" data-name="Layer 2">
        <g id="tree-venn-3d__Layer_1-2--inject-8" data-name="Layer 1">
          <circle
            cx="414.78"
            cy="414.78"
            r="414.78"
            fill="url(#tree-venn-3d__radial-gradient--inject-8)"
          />
        </g>
      </g>
    </svg>
    <title>`B`.shading</title>
  </g>
  <circle
    fill="#d87795"
    fill-opacity="0.5"
    cx="260.5839026572873"
    cy="417.0574001805077"
    stroke="none"
    r="97.92092471782519"
  >
    <title>`B`.shape</title>
  </circle>
  <g
    transform="rotate(0, 260.5839026572873, 417.0574001805077)translate(240.99971771372225, 397.4732152369427)"
  >
    <title>`B`.text</title>
    <svg
      style="font-size: 16px"
      xmlns="http://www.w3.org/2000/svg"
      width="39.168369887130076"
      height="39.168369887130076"
      role="img"
      focusable="false"
      viewBox="0 -683 759 683"
    >
      <g
        stroke="none"
        fill="#ffffff"
        stroke-width="0"
        transform="scale(1,-1)"
        fill-opacity="1"
      >
        <g data-mml-node="math">
          <g data-mml-node="mi">
            <path
              data-c="1D435"
              d="M231 637Q204 637 199 638T194 649Q194 676 205 682Q206 683 335 683Q594 683 608 681Q671 671 713 636T756 544Q756 480 698 429T565 360L555 357Q619 348 660 311T702 219Q702 146 630 78T453 1Q446 0 242 0Q42 0 39 2Q35 5 35 10Q35 17 37 24Q42 43 47 45Q51 46 62 46H68Q95 46 128 49Q142 52 147 61Q150 65 219 339T288 628Q288 635 231 637ZM649 544Q649 574 634 600T585 634Q578 636 493 637Q473 637 451 637T416 636H403Q388 635 384 626Q382 622 352 506Q352 503 351 500L320 374H401Q482 374 494 376Q554 386 601 434T649 544ZM595 229Q595 273 572 302T512 336Q506 337 429 337Q311 337 310 336Q310 334 293 263T258 122L240 52Q240 48 252 48T333 46Q422 46 429 47Q491 54 543 105T595 229Z"
            />
          </g>
        </g>
      </g>
    </svg>
  </g>
  <g
    transform="rotate(0, 319.75977404258583, 401.3238669448222)translate(284.7210385759913, 365.14433543978043)"
  >
    <svg
      xmlns="http://www.w3.org/2000/svg"
      xmlns:xlink="http://www.w3.org/1999/xlink"
      viewBox="0 0 874.58 820.84"
      width="70.07747093318908"
      height="72.3590630100836"
      preserveAspectRatio=""
    >
      <defs>
        <linearGradient
          id="tree-venn-3d__linear-gradient--inject-9"
          x1="214.17"
          y1="30.72"
          x2="996.08"
          y2="1361.33"
          gradientUnits="userSpaceOnUse"
        >
          <stop offset="0.14" stop-color="#dbdbdb" stop-opacity="0" />
          <stop offset="0.88" />
        </linearGradient>
      </defs>
      <title>shadow</title>
      <g id="tree-venn-3d__Layer_2--inject-9" data-name="Layer 2">
        <g id="tree-venn-3d__Layer_1-2--inject-9" data-name="Layer 1">
          <ellipse
            cx="437.29"
            cy="410.42"
            rx="437.29"
            ry="410.42"
            opacity="0.3"
            fill="url(#tree-venn-3d__linear-gradient--inject-9)"
          />
        </g>
      </g>
    </svg>
    <title>`D`.shadow</title>
  </g>
  <g
    transform="rotate(0, 317.8041236909619, 397.99926134706163)translate(285.2099511638972, 365.40508881999693)"
  >
    <svg
      xmlns="http://www.w3.org/2000/svg"
      xmlns:xlink="http://www.w3.org/1999/xlink"
      viewBox="0 0 829.57 829.57"
      width="65.18834505412937"
      height="65.18834505412937"
      preserveAspectRatio=""
    >
      <defs>
        <radialGradient
          id="tree-venn-3d__radial-gradient--inject-10"
          cx="388.77"
          cy="378.93"
          fx="227.19844299493337"
          fy="199.3018850052363"
          r="571.68"
          gradientUnits="userSpaceOnUse"
        >
          <stop offset="0.14" stop-color="#dbdbdb" />
          <stop offset="0.29" stop-color="#bdbdbd" />
          <stop offset="0.6" stop-color="#707070" />
          <stop offset="0.72" stop-color="#525252" />
          <stop offset="0.76" stop-color="#656565" />
          <stop offset="0.84" stop-color="#959595" />
          <stop offset="0.96" stop-color="#e2e2e2" />
          <stop offset="1" stop-color="#fff" />
        </radialGradient>
      </defs>
      <title>shading</title>
      <g id="tree-venn-3d__Layer_2--inject-10" data-name="Layer 2">
        <g id="tree-venn-3d__Layer_1-2--inject-10" data-name="Layer 1">
          <circle
            cx="414.78"
            cy="414.78"
            r="414.78"
            fill="url(#tree-venn-3d__radial-gradient--inject-10)"
          />
        </g>
      </g>
    </svg>
    <title>`D`.shading</title>
  </g>
  <circle
    fill="#43be2d"
    fill-opacity="0.5"
    cx="317.8041236909619"
    cy="397.99926134706163"
    stroke="none"
    r="32.594172527064686"
  >
    <title>`D`.shape</title>
  </circle>
  <g
    transform="rotate(0, 317.8041236909619, 397.99926134706163)translate(311.28528918554895, 391.4804268416487)"
  >
    <title>`D`.text</title>
    <svg
      style="font-size: 16px"
      xmlns="http://www.w3.org/2000/svg"
      width="13.037669010825875"
      height="13.037669010825875"
      role="img"
      focusable="false"
      viewBox="0 -683 828 683"
    >
      <g
        stroke="none"
        fill="#ffffff"
        stroke-width="0"
        transform="scale(1,-1)"
        fill-opacity="1"
      >
        <g data-mml-node="math">
          <g data-mml-node="mi">
            <path
              data-c="1D437"
              d="M287 628Q287 635 230 637Q207 637 200 638T193 647Q193 655 197 667T204 682Q206 683 403 683Q570 682 590 682T630 676Q702 659 752 597T803 431Q803 275 696 151T444 3L430 1L236 0H125H72Q48 0 41 2T33 11Q33 13 36 25Q40 41 44 43T67 46Q94 46 127 49Q141 52 146 61Q149 65 218 339T287 628ZM703 469Q703 507 692 537T666 584T629 613T590 629T555 636Q553 636 541 636T512 636T479 637H436Q392 637 386 627Q384 623 313 339T242 52Q242 48 253 48T330 47Q335 47 349 47T373 46Q499 46 581 128Q617 164 640 212T683 339T703 469Z"
            />
          </g>
        </g>
      </g>
    </svg>
  </g>
  <g
    transform="rotate(0, 277.89865753228423, 486.453433436234)translate(252.2622017065653, 459.98230230456136)"
  >
    <svg
      xmlns="http://www.w3.org/2000/svg"
      xmlns:xlink="http://www.w3.org/1999/xlink"
      viewBox="0 0 874.58 820.84"
      width="51.2729116514379"
      height="52.94226226334519"
      preserveAspectRatio=""
    >
      <defs>
        <linearGradient
          id="tree-venn-3d__linear-gradient--inject-11"
          x1="214.17"
          y1="30.72"
          x2="996.08"
          y2="1361.33"
          gradientUnits="userSpaceOnUse"
        >
          <stop offset="0.14" stop-color="#dbdbdb" stop-opacity="0" />
          <stop offset="0.88" />
        </linearGradient>
      </defs>
      <title>shadow</title>
      <g id="tree-venn-3d__Layer_2--inject-11" data-name="Layer 2">
        <g id="tree-venn-3d__Layer_1-2--inject-11" data-name="Layer 1">
          <ellipse
            cx="437.29"
            cy="410.42"
            rx="437.29"
            ry="410.42"
            opacity="0.3"
            fill="url(#tree-venn-3d__linear-gradient--inject-11)"
          />
        </g>
      </g>
    </svg>
    <title>`E`.shadow</title>
  </g>
  <g
    transform="rotate(0, 276.46778557922084, 484.02095111602625)translate(252.6199196948311, 460.17308523163655)"
  >
    <svg
      xmlns="http://www.w3.org/2000/svg"
      xmlns:xlink="http://www.w3.org/1999/xlink"
      viewBox="0 0 829.57 829.57"
      width="47.695731768779446"
      height="47.695731768779446"
      preserveAspectRatio=""
    >
      <defs>
        <radialGradient
          id="tree-venn-3d__radial-gradient--inject-12"
          cx="388.77"
          cy="378.93"
          fx="227.19844299493337"
          fy="199.3018850052363"
          r="571.68"
          gradientUnits="userSpaceOnUse"
        >
          <stop offset="0.14" stop-color="#dbdbdb" />
          <stop offset="0.29" stop-color="#bdbdbd" />
          <stop offset="0.6" stop-color="#707070" />
          <stop offset="0.72" stop-color="#525252" />
          <stop offset="0.76" stop-color="#656565" />
          <stop offset="0.84" stop-color="#959595" />
          <stop offset="0.96" stop-color="#e2e2e2" />
          <stop offset="1" stop-color="#fff" />
        </radialGradient>
      </defs>
      <title>shading</title>
      <g id="tree-venn-3d__Layer_2--inject-12" data-name="Layer 2">
        <g id="tree-venn-3d__Layer_1-2--inject-12" data-name="Layer 1">
          <circle
            cx="414.78"
            cy="414.78"
            r="414.78"
            fill="url(#tree-venn-3d__radial-gradient--inject-12)"
          />
        </g>
      </g>
    </svg>
    <title>`E`.shading</title>
  </g>
  <circle
    fill="#9acb40"
    fill-opacity="0.5"
    cx="276.46778557922084"
    cy="484.02095111602625"
    stroke="none"
    r="23.847865884389723"
  >
    <title>`E`.shape</title>
  </circle>
  <g
    transform="rotate(0, 276.46778557922084, 484.02095111602625)translate(271.6982124023429, 479.2513779391483)"
  >
    <title>`E`.text</title>
    <svg
      style="font-size: 16px"
      xmlns="http://www.w3.org/2000/svg"
      width="9.53914635375589"
      height="9.53914635375589"
      role="img"
      focusable="false"
      viewBox="0 -680 764 680"
    >
      <g
        stroke="none"
        fill="#ffffff"
        stroke-width="0"
        transform="scale(1,-1)"
        fill-opacity="1"
      >
        <g data-mml-node="math">
          <g data-mml-node="mi">
            <path
              data-c="1D438"
              d="M492 213Q472 213 472 226Q472 230 477 250T482 285Q482 316 461 323T364 330H312Q311 328 277 192T243 52Q243 48 254 48T334 46Q428 46 458 48T518 61Q567 77 599 117T670 248Q680 270 683 272Q690 274 698 274Q718 274 718 261Q613 7 608 2Q605 0 322 0H133Q31 0 31 11Q31 13 34 25Q38 41 42 43T65 46Q92 46 125 49Q139 52 144 61Q146 66 215 342T285 622Q285 629 281 629Q273 632 228 634H197Q191 640 191 642T193 659Q197 676 203 680H757Q764 676 764 669Q764 664 751 557T737 447Q735 440 717 440H705Q698 445 698 453L701 476Q704 500 704 528Q704 558 697 578T678 609T643 625T596 632T532 634H485Q397 633 392 631Q388 629 386 622Q385 619 355 499T324 377Q347 376 372 376H398Q464 376 489 391T534 472Q538 488 540 490T557 493Q562 493 565 493T570 492T572 491T574 487T577 483L544 351Q511 218 508 216Q505 213 492 213Z"
            />
          </g>
        </g>
      </g>
    </svg>
  </g>
  <g
    transform="rotate(0, 467.6495061323212, 406.4105046363711)translate(445.51972563121393, 383.5602196538324)"
  >
    <svg
      xmlns="http://www.w3.org/2000/svg"
      xmlns:xlink="http://www.w3.org/1999/xlink"
      viewBox="0 0 874.58 820.84"
      width="44.25956100221462"
      height="45.70056996507743"
      preserveAspectRatio=""
    >
      <defs>
        <linearGradient
          id="tree-venn-3d__linear-gradient--inject-13"
          x1="214.17"
          y1="30.72"
          x2="996.08"
          y2="1361.33"
          gradientUnits="userSpaceOnUse"
        >
          <stop offset="0.14" stop-color="#dbdbdb" stop-opacity="0" />
          <stop offset="0.88" />
        </linearGradient>
      </defs>
      <title>shadow</title>
      <g id="tree-venn-3d__Layer_2--inject-13" data-name="Layer 2">
        <g id="tree-venn-3d__Layer_1-2--inject-13" data-name="Layer 1">
          <ellipse
            cx="437.29"
            cy="410.42"
            rx="437.29"
            ry="410.42"
            opacity="0.3"
            fill="url(#tree-venn-3d__linear-gradient--inject-13)"
          />
        </g>
      </g>
    </svg>
    <title>`G`.shadow</title>
  </g>
  <g
    transform="rotate(0, 466.4143555927246, 404.31074871905673)translate(445.82851326611313, 383.7249063924453)"
  >
    <svg
      xmlns="http://www.w3.org/2000/svg"
      xmlns:xlink="http://www.w3.org/1999/xlink"
      viewBox="0 0 829.57 829.57"
      width="41.171684653222904"
      height="41.171684653222904"
      preserveAspectRatio=""
    >
      <defs>
        <radialGradient
          id="tree-venn-3d__radial-gradient--inject-14"
          cx="388.77"
          cy="378.93"
          fx="227.19844299493337"
          fy="199.3018850052363"
          r="571.68"
          gradientUnits="userSpaceOnUse"
        >
          <stop offset="0.14" stop-color="#dbdbdb" />
          <stop offset="0.29" stop-color="#bdbdbd" />
          <stop offset="0.6" stop-color="#707070" />
          <stop offset="0.72" stop-color="#525252" />
          <stop offset="0.76" stop-color="#656565" />
          <stop offset="0.84" stop-color="#959595" />
          <stop offset="0.96" stop-color="#e2e2e2" />
          <stop offset="1" stop-color="#fff" />
        </radialGradient>
      </defs>
      <title>shading</title>
      <g id="tree-venn-3d__Layer_2--inject-14" data-name="Layer 2">
        <g id="tree-venn-3d__Layer_1-2--inject-14" data-name="Layer 1">
          <circle
            cx="414.78"
            cy="414.78"
            r="414.78"
            fill="url(#tree-venn-3d__radial-gradient--inject-14)"
          />
        </g>
      </g>
    </svg>
    <title>`G`.shading</title>
  </g>
  <circle
    fill="#5487c2"
    fill-opacity="0.5"
    cx="466.4143555927246"
    cy="404.31074871905673"
    stroke="none"
    r="20.585842326611452"
  >
    <title>`G`.shape</title>
  </circle>
  <g
    transform="rotate(0, 466.4143555927246, 404.31074871905673)translate(462.2971871274023, 400.19358025373447)"
  >
    <title>`G`.text</title>
    <svg
      style="font-size: 16px"
      xmlns="http://www.w3.org/2000/svg"
      width="8.23433693064458"
      height="8.23433693064458"
      role="img"
      focusable="false"
      viewBox="0 -705 786 727"
    >
      <g
        stroke="none"
        fill="#ffffff"
        stroke-width="0"
        transform="scale(1,-1)"
        fill-opacity="1"
      >
        <g data-mml-node="math">
          <g data-mml-node="mi">
            <path
              data-c="1D43A"
              d="M50 252Q50 367 117 473T286 641T490 704Q580 704 633 653Q642 643 648 636T656 626L657 623Q660 623 684 649Q691 655 699 663T715 679T725 690L740 705H746Q760 705 760 698Q760 694 728 561Q692 422 692 421Q690 416 687 415T669 413H653Q647 419 647 422Q647 423 648 429T650 449T651 481Q651 552 619 605T510 659Q492 659 471 656T418 643T357 615T294 567T236 496T189 394T158 260Q156 242 156 221Q156 173 170 136T206 79T256 45T308 28T353 24Q407 24 452 47T514 106Q517 114 529 161T541 214Q541 222 528 224T468 227H431Q425 233 425 235T427 254Q431 267 437 273H454Q494 271 594 271Q634 271 659 271T695 272T707 272Q721 272 721 263Q721 261 719 249Q714 230 709 228Q706 227 694 227Q674 227 653 224Q646 221 643 215T629 164Q620 131 614 108Q589 6 586 3Q584 1 581 1Q571 1 553 21T530 52Q530 53 528 52T522 47Q448 -22 322 -22Q201 -22 126 55T50 252Z"
            />
          </g>
        </g>
      </g>
    </svg>
  </g>
</svg>
