<?xml version="1.0" encoding="utf-8"?>
<!-- Generator: Adobe Illustrator 24.0.1, SVG Export Plug-In . SVG Version: 6.00 Build 0)  -->
<svg version="1.1" xmlns="http://www.w3.org/2000/svg" xmlns:xlink="http://www.w3.org/1999/xlink" x="0px" y="0px" viewBox="0 0 240 100.5287628" style="enable-background:new 0 0 240 100.5287628;" xml:space="preserve">
<style type="text/css">
	.st0{fill:#8C90C1;fill-opacity:0.2;stroke:#000000;stroke-width:0.2134903;}
	.st1{fill:#8C90C1;fill-opacity:0.2;stroke:#000000;stroke-width:0.2134159;}
	.st2{fill:#8C90C1;fill-opacity:0.2;stroke:#000000;stroke-width:0.2134168;}
	.st3{fill:#8C90C1;fill-opacity:0.2;stroke:#000000;stroke-width:0.2135129;}
	.st4{fill:#DEEBDE;}
	.st5{fill:#EBF7EB;}
	.st6{fill:#8C90C1;fill-opacity:0.2;stroke:#000000;stroke-width:0.2141906;}
</style>
<g id="Layer_1">
</g>
<g id="Layer_2">
	<g>
		<g transform="translate(0,0)">
			<circle class="st0" cx="44.4537468" cy="67.892746" r="19.9434814">
			<title>C.shape</title>
			<desc>Circle representing C.shape</desc>
			</circle>
		</g>
		<g transform="translate(0,0)">
			<g pointer-events="bounding-box" transform="translate(543.1917693453581,469.2358504779801)">
				<g transform="matrix(1 0 0 -1 0 0)">
					<path d="M-498.4446716,387.6750793c0,0.4401855,0.1282349,0.8631592,0.3847046,1.2689209
						c0.2564697,0.4057312,0.5799255,0.7272644,0.9703369,0.9645996c0.3904419,0.2373352,0.7808838,0.3579102,1.1713257,0.3617249
						c0.3445129,0,0.6181946-0.0975952,0.8210754-0.2928162c0.0344238-0.0382996,0.0631409-0.0708313,0.0861206-0.0976257
						c0.0229492-0.0267944,0.038269-0.045929,0.045929-0.0574036l0.0057373-0.0172424
						c0.0114746,0,0.0631714,0.0497742,0.1550293,0.149292c0.0267944,0.0229797,0.0555115,0.0497742,0.0861206,0.0803833
						c0.0306396,0.0306396,0.0612488,0.0612488,0.0918579,0.0918579c0.0306396,0.0306396,0.0497742,0.0516968,0.0574341,0.0631714
						l0.0861206,0.0861206h0.0344543c0.0535889,0,0.0803833-0.0133972,0.0803833-0.0401917
						c0-0.0153198-0.0612488-0.2774963-0.1837463-0.7866211c-0.1377869-0.5320435-0.2066956-0.7999878-0.2066956-0.803833
						c-0.0076599-0.0191345-0.0172119-0.0306091-0.028717-0.0344543c-0.0114746-0.0038147-0.045929-0.0076599-0.1033325-0.0114746
						h-0.0918579c-0.0229797,0.0229797-0.0344543,0.0401917-0.0344543,0.0516663
						c0,0.0038452,0.0018921,0.0172424,0.0057373,0.0401917c0.0038147,0.0229797,0.0076599,0.0612488,0.0114746,0.1148376
						c0.0038452,0.0535889,0.0057373,0.1148376,0.0057373,0.1837463c0,0.271759-0.0612488,0.5090942-0.1837158,0.7119751
						c-0.1224976,0.2028809-0.3311157,0.3062134-0.6258545,0.3100586c-0.0995178,0-0.2066956-0.0133972-0.3215332-0.0401917
						s-0.252655-0.0727539-0.4134216-0.1378174s-0.3196106-0.1722412-0.4765625-0.3215332
						c-0.1569214-0.149292-0.2966614-0.3272705-0.4191284-0.5339661c-0.1224976-0.2182007-0.2200928-0.4727478-0.2928467-0.7636719
						c-0.0727234-0.2908936-0.1090698-0.5282288-0.1090698-0.7119751c0-0.4363708,0.1454468-0.7502441,0.4363708-0.9416199
						c0.1837158-0.1301575,0.4095764-0.1952209,0.6775208-0.1952209c0.3483276,0,0.6583862,0.130127,0.9301453,0.3904419
						c0.2717896,0.2602844,0.4516907,0.5435486,0.5397339,0.849762c0.0152893,0.0497742,0.0267944,0.0784607,0.0344543,0.0861206
						c0.0076294,0.0076599,0.038269,0.0114746,0.0918579,0.0114746c0.0765381,0,0.1148376-0.0172119,0.1148376-0.0516663
						c0-0.0191345-0.0019226-0.0363464-0.0057373-0.0516663c-0.1110229-0.4095764-0.3483276-0.7617493-0.7119751-1.056488
						s-0.7540894-0.4421082-1.1713257-0.4421082c-0.4325256,0-0.7980957,0.1435547-1.0966492,0.4306335
						C-498.2953796,386.8195496-498.4446716,387.2004089-498.4446716,387.6750793z"/>
				</g>
			</g>
		</g>
		<g transform="translate(0,0)">
			<circle class="st0" cx="52.1908836" cy="66.6980896" r="7.8432155">
			<title>B.shape</title>
			<desc>Circle representing B.shape</desc>
			</circle>
		</g>
		<g transform="translate(0,0)">
			<g pointer-events="bounding-box" transform="translate(580.2042453262245,395.4409166935311)">
				<g transform="matrix(1 0 0 -1 0 0)">
					<path d="M-526.4230957,331.8926697c-0.0971069,0-0.1546631,0.0018005-0.1726074,0.0054016
						c-0.0180054,0.0036011-0.0269775,0.0233765-0.0269775,0.0593567c0,0.0971069,0.0197754,0.1564331,0.0593262,0.1780396
						c0.0036011,0.0035706,0.2373657,0.0053711,0.701355,0.0053711c0.9315186,0,1.4224854-0.0035706,1.4728394-0.0107727
						c0.2265625-0.0359802,0.4154053-0.1168823,0.5664673-0.2427673s0.2283936-0.2913513,0.2319946-0.4963379
						c0-0.2301941-0.1043091-0.4370117-0.3129272-0.6204224c-0.2086182-0.1834412-0.4478149-0.3075256-0.7175293-0.3722534
						l-0.0539551-0.0162048c0.2301636-0.0323486,0.4190063-0.1150818,0.5664673-0.2481689
						c0.1474609-0.1330566,0.2230225-0.2985229,0.2265625-0.4963379c0-0.2625427-0.1294556-0.5161133-0.3884277-0.7606812
						s-0.5772705-0.3830566-0.954895-0.4154053c-0.0251465-0.0036011-0.4046021-0.0054016-1.1383667-0.0054016
						c-0.7192993,0-1.0843506,0.0036011-1.0951538,0.0107727c-0.0144043,0.0108032-0.0216064,0.025177-0.0216064,0.0431824
						c0,0.025177,0.0036011,0.050354,0.0108032,0.075531c0.0180054,0.0683289,0.0359497,0.1060791,0.0539551,0.1132812
						c0.0144043,0.0036011,0.0413818,0.0054016,0.0809326,0.0054016h0.0323486c0.0971069,0,0.2050171,0.0054016,0.3237305,0.0161743
						c0.050354,0.0108032,0.0845337,0.0323792,0.102478,0.0647583c0.0108032,0.0143738,0.1402588,0.5143127,0.3884277,1.4997864
						s0.3722534,1.505188,0.3722534,1.5591431C-526.1156006,331.8692932-526.2180786,331.885498-526.4230957,331.8926697z
						 M-524.1679688,331.3909607c0,0.1078796-0.0269775,0.2085876-0.0809326,0.3020935
						c-0.0539551,0.0935364-0.1420898,0.1546631-0.2643433,0.1834412c-0.0252075,0.0072021-0.1906128,0.0126038-0.4963379,0.0161743
						c-0.0719604,0-0.1474609,0-0.2266235,0c-0.0791016,0-0.1420288-0.0018005-0.1887817-0.0053711h-0.0701904
						c-0.053894-0.0036011-0.0880737-0.0216064-0.102478-0.0539551c-0.0072021-0.0144043-0.0647583-0.2301941-0.1726685-0.6473999
						c0-0.0108032-0.00177-0.0215759-0.0053711-0.0323792l-0.1672363-0.6797485h0.4370117
						c0.2913208,0,0.4585571,0.0035706,0.501709,0.0107727c0.2158203,0.0359802,0.4082031,0.1402588,0.5772705,0.3128967
						C-524.2578735,330.9701538-524.1715698,331.1679688-524.1679688,331.3909607z M-524.4592896,329.6915283
						c0,0.1582642-0.0413818,0.2895203-0.1240845,0.3938293c-0.0827637,0.1043091-0.1906738,0.1654358-0.3237305,0.1834412
						c-0.0215454,0.0036011-0.1708374,0.0054016-0.4477539,0.0054016c-0.4244385,0-0.6384277-0.0018005-0.6420288-0.0054016
						c0-0.0072021-0.0305786-0.1384888-0.0917358-0.3938293c-0.0610962-0.2553711-0.1240845-0.5089417-0.1887817-0.7607117
						l-0.0971069-0.377655c0-0.0143738,0.0215454-0.0215759,0.0646973-0.0215759s0.1888428-0.0035706,0.4370117-0.0107727
						c0.3201294,0,0.4927368,0.0018005,0.5179443,0.0054016c0.2229614,0.025177,0.4279785,0.1294556,0.6149902,0.3128967
						S-524.4592896,329.4289856-524.4592896,329.6915283z"/>
				</g>
			</g>
		</g>
		<g transform="translate(0,0)">
			<circle class="st0" cx="41.6478462" cy="71.0551071" r="28.4554539">
			<title>A.shape</title>
			<desc>Circle representing A.shape</desc>
			</circle>
		</g>
		<g transform="translate(0,0)">
			<g pointer-events="bounding-box" transform="translate(504.20701331101645,531.0224924293525)">
				<g transform="matrix(1 0 0 -1 0 0)">
					<path d="M-466.8980713,435.3091736c0-0.0904846,0.0867004-0.14328,0.2601318-0.1583557
						c0.0678711,0,0.1018066-0.020752,0.1018066-0.0622253c0-0.0037537-0.0037537-0.0282593-0.011322-0.0735168
						c-0.0112915-0.0527954-0.0226135-0.086731-0.033905-0.1018066c-0.011322-0.0150757-0.0358276-0.0226135-0.0735474-0.0226135
						c-0.0075378,0-0.0301514,0-0.0678406,0c-0.0377197,0-0.1018066,0.0018921-0.1922913,0.0056458
						c-0.0905151,0.0037842-0.2111511,0.0056763-0.361969,0.0056763c-0.2677002,0-0.4392395-0.0037842-0.5146484-0.011322
						h-0.0452576c-0.0263977,0.0263977-0.0395813,0.0471191-0.0395813,0.0622253
						c0.0075378,0.1017761,0.0320435,0.1677551,0.0735168,0.197937h0.0791931
						c0.263916,0.0112915,0.4562073,0.1055603,0.5768433,0.2827759c0.022644,0.0226135,0.3638611,0.5975952,1.0236816,1.7249451
						c0.65979,1.1273499,0.9953613,1.6985474,1.0066833,1.713623c0.0263977,0.0452576,0.0716248,0.0678711,0.1357422,0.0678711
						h0.0452271h0.0961609c0.0226135-0.0339355,0.0339355-0.0527649,0.0339355-0.0565491l0.1583557-1.8267517
						c0.1055603-1.2178345,0.1621094-1.8323975,0.1696472-1.8437195c0.0188599-0.0414734,0.1413879-0.0621948,0.3676147-0.0621948
						c0.0942688,0,0.1413879-0.0188599,0.1413879-0.0565491c0-0.0075684-0.0056458-0.0339355-0.0169678-0.0791931
						c-0.011322-0.0565491-0.0207214-0.0904846-0.0282593-0.1018066c-0.0075684-0.0112915-0.0339355-0.0188293-0.0791931-0.0226135
						c-0.011322,0-0.0376892,0-0.0791626,0s-0.1150208,0.0018921-0.2205811,0.0056458
						c-0.1055603,0.0037842-0.2431946,0.0056763-0.4128418,0.0056763c-0.3544312,0-0.5863037-0.0037842-0.6956482-0.011322
						h-0.0678711c-0.0226135,0.0226135-0.0339355,0.0395813-0.0339355,0.0509033s0.0037842,0.0452271,0.011322,0.1018066
						c0.0150757,0.0490112,0.0263977,0.0791626,0.0339355,0.0904846l0.0226135,0.0169678h0.1130981
						c0.2036133,0.0112915,0.3242798,0.0433655,0.361969,0.0961304l-0.0678711,0.8483276h-1.3460083l-0.1922913-0.3280029
						C-466.8208008,435.5071106-466.8980713,435.3544006-466.8980713,435.3091736z M-465.1561584,436.3611145
						c0,0.0414734-0.022644,0.3355408-0.0678711,0.8822632c-0.0452576,0.5466919-0.0716553,0.8219299-0.0791931,0.8257141
						l-0.1526794-0.2431946c-0.0603333-0.1018066-0.1791077-0.3035278-0.3563232-0.6051636l-0.5090027-0.8596191
						l0.5825195-0.0056763C-465.3503418,436.3554382-465.1561584,436.3573303-465.1561584,436.3611145z"/>
				</g>
			</g>
		</g>
	</g>
	<g>
		<g>
			<g transform="translate(0,0)">
				<circle class="st1" cx="86.2419052" cy="43.2015724" r="10.0092516">
				<title>C.shape</title>
				<desc>Circle representing C.shape</desc>
				</circle>
			</g>
			<g transform="translate(0,0)">
				<g pointer-events="bounding-box" transform="translate(561.9227519194092,509.6792343482574)">
					<g transform="matrix(1 0 0 -1 0 0)">
						<path d="M-474.7020569,462.628418c0,0.4400635,0.1281738,0.8628845,0.384552,1.2684937
							s0.5797119,0.7270203,0.9700012,0.9642639c0.3903198,0.2372437,0.7806091,0.3577881,1.1708984,0.3616028
							c0.3443909,0,0.617981-0.0975647,0.8208008-0.2927246c0.0344238-0.038269,0.0631409-0.0708008,0.0860901-0.0975647
							c0.0229492-0.0267944,0.038269-0.045929,0.045929-0.0574036l0.0057373-0.0172119
							c0.0114746,0,0.0631409,0.0497437,0.1549683,0.149231c0.0267944,0.0229492,0.055481,0.0497437,0.0860901,0.0803528
							s0.0612183,0.0612183,0.0918274,0.0918274s0.0497437,0.0516663,0.0574036,0.0631409l0.0860901,0.0860901h0.0344543
							c0.0535583,0,0.0803528-0.0133972,0.0803528-0.0401611c0-0.0153198-0.0612183-0.2774353-0.1836853-0.7863464
							c-0.1377563-0.5318909-0.2066345-0.7997437-0.2066345-0.8035583
							c-0.0076294-0.0191345-0.0172119-0.0306091-0.0286865-0.0344543c-0.0114746-0.0038147-0.045929-0.0076599-0.103302-0.0114746
							h-0.0918579c-0.0229492,0.0229492-0.0344238,0.0401917-0.0344238,0.0516663
							c0,0.0038147,0.0019226,0.0172119,0.0057373,0.0401611c0.0038147,0.0229797,0.0076599,0.0612183,0.0114746,0.1148071
							c0.0038147,0.0535583,0.0057373,0.1147766,0.0057373,0.1836548c0,0.271698-0.0612183,0.5089417-0.1836548,0.711731
							c-0.122467,0.2028198-0.3309937,0.3061218-0.6256409,0.3099365c-0.0994873,0-0.2066345-0.0133667-0.3214111-0.0401611
							c-0.1148071-0.0267944-0.2525635-0.0726929-0.413269-0.1377563s-0.319519-0.1721802-0.4764099-0.3214111
							s-0.2965393-0.327179-0.4189758-0.5338135c-0.122467-0.2181091-0.2200317-0.4725647-0.2927246-0.7633667
							c-0.0727234-0.2908325-0.1090698-0.5280762-0.1090698-0.711731c0-0.4362183,0.1454163-0.75,0.4362183-0.9413147
							c0.1836853-0.1300964,0.4094238-0.1951599,0.6772766-0.1951599c0.3482056,0,0.6581726,0.1300964,0.9298401,0.3903198
							c0.271698,0.2601929,0.4515381,0.543335,0.5395508,0.8494568c0.0152893,0.0497437,0.0267639,0.0784607,0.0344238,0.0861206
							c0.0076599,0.0076294,0.038269,0.0114746,0.0918274,0.0114746c0.0765381,0,0.1148071-0.0172424,0.1148071-0.0516663
							c0-0.0191345-0.0019226-0.0363464-0.0057373-0.0516663c-0.1109619-0.4094238-0.3482056-0.7614746-0.711731-1.0560913
							c-0.3635254-0.2946472-0.7538147-0.4419556-1.1708984-0.4419556c-0.4324036,0-0.797821,0.1434937-1.096283,0.430481
							C-474.5528259,461.7731934-474.7020569,462.1539307-474.7020569,462.628418z"/>
					</g>
				</g>
			</g>
			<g transform="translate(0,0)">
				<circle class="st1" cx="91.462677" cy="11.7475185" r="5.0515122">
				<title>B.shape</title>
				<desc>Circle representing B.shape</desc>
				</circle>
			</g>
			<g transform="translate(0,0)">
				<g pointer-events="bounding-box" transform="translate(572.5184829068555,347.14813354303317)">
					<g transform="matrix(1 0 0 -1 0 0)">
						<path d="M-481.9046936,337.0412903c-0.0970764,0-0.1546021,0.0018005-0.1725769,0.0054016
							s-0.0269775,0.0233765-0.0269775,0.0593262c0,0.0970764,0.0197754,0.1564026,0.0593262,0.1779785
							c0.0036011,0.0036011,0.2373047,0.0053711,0.7011108,0.0053711c0.9312134,0,1.4219666-0.0035706,1.4723206-0.0107727
							c0.2265015-0.0359497,0.4152527-0.1168518,0.5662537-0.2426758c0.1510315-0.1258545,0.2283325-0.2912292,0.2319031-0.4961853
							c0-0.2301025-0.104248-0.4368286-0.3127747-0.6202087c-0.2085571-0.1833496-0.4476318-0.3074036-0.7172852-0.3721008
							l-0.0539246-0.0162048c0.2301025-0.0323486,0.4188538-0.1150513,0.5662537-0.2480774
							c0.1474304-0.1330261,0.2229309-0.2984009,0.226532-0.4961548c0-0.2624817-0.1294556-0.5159302-0.3883057-0.760437
							c-0.2588806-0.2444763-0.5770874-0.3829041-0.9545898-0.4152527c-0.025177-0.0036011-0.40448-0.0054016-1.1379395-0.0054016
							c-0.7190857,0-1.0840149,0.0036011-1.0948181,0.0107727c-0.0143738,0.0108032-0.0215454,0.025177-0.0215454,0.0431519
							c0,0.025177,0.0035706,0.050354,0.0107727,0.0755005c0.0179749,0.0683289,0.0359497,0.1060791,0.0539246,0.1132507
							c0.0143738,0.0036011,0.0413513,0.0054016,0.0809021,0.0054016h0.0323486
							c0.0970764,0,0.2049561,0.0054016,0.3236084,0.0161743c0.0503235,0.0108032,0.0844727,0.0323792,0.1024475,0.0647278
							c0.0108032,0.0143738,0.1402283,0.5141296,0.3883057,1.4992676s0.3721313,1.5046997,0.3721313,1.5586243
							C-481.59729,337.0179138-481.6997681,337.0341187-481.9046936,337.0412903z M-479.6503906,336.5397339
							c0,0.1078796-0.026947,0.2085266-0.0808716,0.3020325c-0.0539551,0.0934753-0.1420288,0.1546021-0.2642822,0.1833496
							c-0.025177,0.0072021-0.1905518,0.0125732-0.4961548,0.0161743c-0.0718994,0-0.1474304,0-0.2265015,0
							c-0.0791016,0-0.1420288-0.0018005-0.1887817-0.0053711h-0.0700989
							c-0.0539246-0.0036011-0.0880737-0.0215759-0.102478-0.0539551c-0.0071716-0.0143738-0.0646973-0.2301025-0.1725769-0.6471558
							c0-0.0108032-0.0018005-0.0215759-0.0054016-0.0323792l-0.1671753-0.6795044h0.4368591
							c0.2911987,0,0.4584045,0.0035706,0.5015564,0.0107727c0.2156982,0.0359497,0.4080505,0.1402283,0.5770569,0.3128052
							C-479.7402649,336.1190796-479.6539612,336.3168335-479.6503906,336.5397339z M-479.9416199,334.8409119
							c0,0.1582031-0.0413208,0.2894287-0.1240234,0.3937073c-0.0827026,0.104248-0.1905518,0.1653748-0.3235779,0.1833496
							c-0.0215759,0.0036011-0.1708069,0.0054016-0.4476318,0.0054016c-0.4242554,0-0.6381836-0.0018005-0.6417847-0.0054016
							c0-0.0071716-0.0305786-0.1384277-0.0916748-0.3936768c-0.0611267-0.2552795-0.124054-0.5087585-0.1887817-0.760437
							l-0.0970764-0.377533c0-0.0143738,0.0215759-0.0215454,0.0647278-0.0215454s0.1887512-0.0036011,0.4368286-0.0108032
							c0.3200073,0,0.4925842,0.0018005,0.5177612,0.0054016c0.2229004,0.025177,0.4278564,0.129425,0.6148071,0.3128052
							C-480.0350952,334.3555298-479.9416199,334.5784607-479.9416199,334.8409119z"/>
					</g>
				</g>
			</g>
			<g transform="translate(0,0)">
				<circle class="st1" cx="84.0234909" cy="29.3778572" r="28.4554577">
				<title>A.shape</title>
				<desc>Circle representing A.shape</desc>
				</circle>
			</g>
			<g transform="translate(0,0)">
				<g pointer-events="bounding-box" transform="translate(455.6350927266437,500.959570282448)">
					<g transform="matrix(1 0 0 -1 0 0)">
						<path d="M-390.2135315,454.8082886c0-0.0904541,0.0866699-0.143219,0.2600403-0.1582947
							c0.0678711,0,0.1017761-0.020752,0.1017761-0.0621948c0-0.0037842-0.0037537-0.0282593-0.0112915-0.0734863
							c-0.011322-0.0527954-0.0226135-0.0867004-0.0339355-0.1017761c-0.0112915-0.0150757-0.0357971-0.0226135-0.0734863-0.0226135
							c-0.0075378,0-0.0301514,0-0.0678406,0s-0.1017761,0.0018921-0.1922302,0.0056458
							c-0.0904541,0.0037842-0.2110596,0.0056458-0.3618469,0.0056458c-0.2675781,0-0.4390869-0.0037537-0.5144653-0.0112915
							h-0.0452271c-0.0263977,0.0263672-0.0395813,0.0471191-0.0395813,0.0621948
							c0.0075378,0.1017456,0.0320435,0.1677246,0.0735168,0.197876h0.0791321
							c0.2638245,0.0112915,0.4560547,0.1055298,0.5766602,0.2826843c0.0226135,0.0226135,0.363739,0.5973816,1.0233154,1.7243347
							s0.9950256,1.6979675,1.0063477,1.7130432c0.0263672,0.0452271,0.0715942,0.0678406,0.1356812,0.0678406h0.0452271h0.0960999
							c0.0226135-0.0339355,0.0339355-0.0527649,0.0339355-0.0565491l0.1582947-1.8261108
							c0.1055298-1.2174072,0.1620789-1.8317566,0.1696167-1.8430481c0.0188293-0.0414734,0.1413269-0.0621948,0.3674622-0.0621948
							c0.0942383,0,0.1413574-0.0188599,0.1413574-0.0565491c0-0.0075378-0.0056763-0.033905-0.0169678-0.0791321
							c-0.011322-0.0565491-0.0207214-0.0904846-0.0282593-0.1017761c-0.0075378-0.011322-0.0339355-0.0188599-0.0791626-0.0226135
							c-0.0112915,0-0.0376892,0-0.0791626,0c-0.0414429,0-0.1149292,0.0018921-0.2204895,0.0056458
							c-0.1055298,0.0037842-0.243103,0.0056458-0.4126892,0.0056458c-0.3543091,0-0.5860901-0.0037537-0.6954041-0.0112915
							h-0.0678406c-0.0226135,0.0226135-0.0339355,0.0395813-0.0339355,0.0508728
							c0,0.011322,0.0037842,0.0452271,0.011322,0.1017761c0.0150757,0.0489807,0.0263977,0.0791321,0.0339355,0.0904541
							l0.0226135,0.0169678h0.1130676c0.2035217,0.0112915,0.3241272,0.043335,0.3618164,0.0960999l-0.0678406,0.848053h-1.3455505
							l-0.1922302-0.3279114C-390.1362915,455.0061646-390.2135315,454.8535156-390.2135315,454.8082886z M-388.472229,455.8598633
							c0,0.0414429-0.0226135,0.3354492-0.0678406,0.881958s-0.0716248,0.8216553-0.0791626,0.8254089l-0.1526489-0.243103
							c-0.0603027-0.1017456-0.1790161-0.3034058-0.3561707-0.6049194l-0.5088196-0.8593445l0.5823059-0.0056763
							C-388.6663513,455.854187-388.472229,455.8560791-388.472229,455.8598633z"/>
					</g>
				</g>
			</g>
		</g>
	</g>
	<g>
		<g transform="translate(0,0)">
			<circle class="st2" cx="212.2357025" cy="67.2763977" r="20.2557812">
			<title>C.shape</title>
			<desc>Circle representing C.shape</desc>
			</circle>
		</g>
		<g transform="translate(0,0)">
			<g pointer-events="bounding-box" transform="translate(533.1718574127748,371.4786134345333)">
				<g transform="matrix(1 0 0 -1 0 0)">
					<path d="M-328.2267151,305.4040222c-0.1033325,0-0.1645508,0.0019226-0.1836853,0.0057373
						c-0.0191345,0.0038452-0.028717,0.0248718-0.028717,0.0631409c0,0.1033325,0.0210571,0.1664734,0.0631714,0.1894531
						c0.0038147,0.0038147,0.2525635,0.0057373,0.7462463,0.0057373c0.9912109,0,1.5136108-0.0038452,1.5671997-0.0114746
						c0.2410889-0.038269,0.4420166-0.1243896,0.6027527-0.2583313s0.2430115-0.3099976,0.2468262-0.5281372
						c0-0.2449341-0.1109619-0.4649963-0.3329468-0.6601562c-0.2219543-0.1951904-0.4764709-0.3272095-0.7634888-0.3961182
						l-0.0574036-0.0172119c0.2449341-0.0344238,0.4458313-0.122467,0.6027527-0.2640686s0.2372742-0.317627,0.2411194-0.5281372
						c0-0.2793579-0.1377869-0.5491638-0.4133301-0.8094177c-0.2755432-0.2602234-0.6142578-0.4075623-1.0160828-0.4420166
						c-0.0267944-0.0038147-0.430542-0.0057373-1.2112427-0.0057373c-0.7654114,0-1.1538696,0.0038452-1.1653442,0.0114746
						c-0.0153198,0.0115051-0.0229797,0.0267944-0.0229797,0.045929c0,0.0267944,0.0038452,0.0535889,0.0115051,0.0803833
						c0.0191345,0.0726929,0.038269,0.1128845,0.0574036,0.1205444c0.0152893,0.0038147,0.0440063,0.0057373,0.0860901,0.0057373
						h0.0344543c0.1033325,0,0.2181396,0.0057373,0.3444214,0.0172119c0.0535889,0.0115051,0.0899353,0.0344543,0.1090698,0.0689087
						c0.0115051,0.0152893,0.1492615,0.5472412,0.4133301,1.5958557s0.3960876,1.6016235,0.3960876,1.6590271
						C-327.8995056,305.3791504-328.0085754,305.3963623-328.2267151,305.4040222z M-325.8271484,304.8701477
						c0,0.1148071-0.028717,0.2219849-0.0861206,0.3214722c-0.0574036,0.0995178-0.1511536,0.1645508-0.2812805,0.1951904
						c-0.0267944,0.0076294-0.2028198,0.0133972-0.5281372,0.0172119c-0.0765381,0-0.1568909,0-0.2410889,0
						s-0.1511841-0.0019226-0.2009277-0.0057373h-0.0746155c-0.0574036-0.0038452-0.0937805-0.0229797-0.1090698-0.0574036
						c-0.0076599-0.0153198-0.0689087-0.2449341-0.1837158-0.6888733c0-0.0114746-0.0018921-0.0229492-0.0057373-0.0344543
						l-0.177948-0.7232971h0.4649658c0.3099976,0,0.4879761,0.0038147,0.5338745,0.0114746
						c0.2296448,0.038269,0.4343872,0.1492615,0.6142578,0.3329468
						C-325.922821,304.4223938-325.8309937,304.6328735-325.8271484,304.8701477z M-326.137146,303.0618896
						c0,0.1683655-0.0440063,0.308075-0.132019,0.4190369c-0.0880432,0.1109924-0.2028503,0.1760559-0.3444519,0.1951904
						c-0.0229492,0.0038147-0.1817627,0.0057373-0.4764709,0.0057373c-0.4515686,0-0.6792908-0.0019226-0.6831055-0.0057373
						c0-0.0076599-0.0325317-0.1473389-0.0975952-0.4190674s-0.132019-0.5415344-0.2009277-0.8094177l-0.1033325-0.401825
						c0-0.0153198,0.0229797-0.0229797,0.0689087-0.0229797c0.0458984,0,0.2008972-0.0038147,0.4649658-0.0114746
						c0.3406067,0,0.5243225,0.0019226,0.5510864,0.0057373c0.2373047,0.0267944,0.4554443,0.1377869,0.6544495,0.3329468
						C-326.2366333,302.5452271-326.137146,302.7825012-326.137146,303.0618896z"/>
					<g transform="translate(1037,0)">
						<path d="M-1360.2783203,303.7392578c0,0.0497437,0.0267334,0.0880127,0.0803223,0.1148071h3.6567383
							c0.057373-0.0306091,0.0861816-0.0688782,0.0861816-0.1148071c0-0.0420837-0.0268555-0.0784607-0.0804443-0.1090698
							l-1.8254395-0.0057373h-1.8255615C-1360.2476807,303.6435852-1360.2783203,303.6818542-1360.2783203,303.7392578z
							 M-1360.2783203,302.6255798c0,0.0574036,0.0306396,0.0957031,0.0917969,0.1148376h3.651001
							c0.0535889-0.038269,0.0804443-0.0765686,0.0804443-0.1148376c0-0.0497437-0.0288086-0.0880127-0.0861816-0.1148071
							h-3.6567383C-1360.2515869,302.5375671-1360.2783203,302.5758362-1360.2783203,302.6255798z"/>
					</g>
					<g transform="translate(2093,0)">
						<path d="M-2410.2507324,303.1939087c0,0.440094,0.1281738,0.8630066,0.3845215,1.2686768
							c0.2565918,0.4056396,0.579834,0.7271118,0.9702148,0.964386s0.7807617,0.3578491,1.1711426,0.3616638
							c0.3444824,0,0.6179199-0.0975952,0.8208008-0.2927551c0.0344238-0.038269,0.0632324-0.0708008,0.0861816-0.0975952
							s0.0383301-0.045929,0.0458984-0.0574036l0.0056152-0.0172424c0.0114746,0,0.0632324,0.0497742,0.1550293,0.1492615
							c0.0268555,0.0229797,0.0556641,0.0497742,0.0861816,0.0803833s0.0612793,0.0612183,0.0917969,0.0918274
							c0.0307617,0.0306396,0.0498047,0.0516663,0.057373,0.0631714l0.0861816,0.0860901h0.0344238
							c0.0537109,0,0.0803223-0.0133972,0.0803223-0.0401917c0-0.0152893-0.0610352-0.2774353-0.1835938-0.786438
							c-0.1376953-0.5319519-0.2067871-0.7998657-0.2067871-0.8036804
							c-0.0075684-0.0191345-0.0170898-0.0306091-0.0285645-0.0344543
							c-0.0114746-0.0038147-0.0458984-0.0076294-0.1032715-0.0114746h-0.092041
							c-0.0229492,0.0229797-0.0344238,0.0401917-0.0344238,0.0516663c0,0.0038147,0.0019531,0.0172119,0.0058594,0.0401917
							c0.0039062,0.0229492,0.0075684,0.0612183,0.0114746,0.1148071s0.0056152,0.1148071,0.0056152,0.1836853
							c0,0.2717285-0.0610352,0.5090027-0.1835938,0.711853c-0.1225586,0.2028198-0.3310547,0.3061523-0.6257324,0.309967
							c-0.0996094,0-0.206543-0.0133972-0.3215332-0.0401611c-0.1147461-0.0267944-0.2524414-0.0727234-0.4133301-0.1377869
							c-0.1606445-0.0650635-0.3195801-0.1722107-0.4763184-0.3214722
							c-0.1569824-0.1492615-0.2966309-0.3272095-0.4191895-0.5338745
							c-0.1223145-0.2181396-0.2199707-0.4726257-0.2927246-0.7634888s-0.1091309-0.5281372-0.1091309-0.7118225
							c0-0.4362793,0.1455078-0.7500916,0.4362793-0.9414673c0.1838379-0.1300964,0.409668-0.1951599,0.6774902-0.1951599
							c0.3481445,0,0.6582031,0.1300964,0.9299316,0.3903503c0.2717285,0.2602234,0.4516602,0.5434265,0.5395508,0.8496094
							c0.0153809,0.0497437,0.0268555,0.0784302,0.0344238,0.0860901c0.0078125,0.0076599,0.0383301,0.0114746,0.092041,0.0114746
							c0.076416,0,0.1147461-0.0172119,0.1147461-0.0516357c0-0.0191345-0.0019531-0.036377-0.0058594-0.0516663
							c-0.1108398-0.4095154-0.3481445-0.7615967-0.7116699-1.0562744s-0.7539062-0.4420166-1.1711426-0.4420166
							c-0.432373,0-0.7978516,0.1434937-1.0964355,0.430542
							C-2410.1015625,302.338562-2410.2507324,302.7193604-2410.2507324,303.1939087z"/>
					</g>
				</g>
			</g>
		</g>
		<g transform="translate(0,0)">
			<circle class="st2" cx="212.2357788" cy="67.2761536" r="20.255724">
			<title>B.shape</title>
			<desc>Circle representing B.shape</desc>
			</circle>
		</g>
		<g transform="translate(0,0)">
			<circle class="st2" cx="211.1504211" cy="71.0551071" r="28.4554558">
			<title>A.shape</title>
			<desc>Circle representing A.shape</desc>
			</circle>
		</g>
		<g transform="translate(0,0)">
			<g pointer-events="bounding-box" transform="translate(551.5166083438521,496.0414026034488)">
				<g transform="matrix(1 0 0 -1 0 0)">
					<path d="M-344.1158142,400.2119446c0-0.0904541,0.0867004-0.143219,0.2600708-0.1582947
						c0.0678406,0,0.1017761-0.020752,0.1017761-0.0621948c0-0.0037842-0.0037842-0.0282593-0.011322-0.0734863
						c-0.0112915-0.0527954-0.0226135-0.0867004-0.033905-0.1017761c-0.011322-0.0150757-0.0358276-0.0226135-0.0735168-0.0226135
						c-0.0075378,0-0.0301514,0-0.0678406,0s-0.1017761,0.0018921-0.1922302,0.0056458
						c-0.0904541,0.0037842-0.2110596,0.0056458-0.3618164,0.0056458c-0.2676086,0-0.4390869-0.0037537-0.5144958-0.0112915
						h-0.0452271c-0.0263672,0.0263672-0.0395508,0.0471191-0.0395508,0.0621948
						c0.0075378,0.1017456,0.0320129,0.1677246,0.0734863,0.197876h0.0791626
						c0.2638245,0.0112915,0.4560547,0.1055298,0.5766602,0.2826843c0.0226135,0.0226135,0.3637085,0.5973816,1.0232849,1.7243347
						c0.6596069,1.1269531,0.9950562,1.6979675,1.0063477,1.7130432c0.0263977,0.0452271,0.0716248,0.0678406,0.1357117,0.0678406
						h0.0452271h0.0960999c0.0226135-0.033905,0.033905-0.0527649,0.033905-0.0565186l0.1583252-1.8261108
						c0.1055298-1.2174377,0.1620483-1.8317871,0.1695862-1.8430786c0.0188599-0.0414734,0.1413574-0.0621948,0.3674927-0.0621948
						c0.0942383,0,0.1413574-0.0188599,0.1413574-0.0565491c0-0.0075378-0.0056763-0.033905-0.0169678-0.0791321
						c-0.011322-0.0565491-0.0207214-0.0904846-0.0282593-0.1017761c-0.0075378-0.011322-0.0339355-0.0188599-0.0791626-0.0226135
						c-0.011322,0-0.0376892,0-0.0791626,0c-0.0414429,0-0.1149597,0.0018921-0.2204895,0.0056458
						c-0.1055298,0.0037842-0.243103,0.0056458-0.4127197,0.0056458c-0.3542786,0-0.5860901-0.0037537-0.6953735-0.0112915
						h-0.0678406c-0.0226135,0.0226135-0.0339355,0.0395813-0.0339355,0.0508728c0,0.011322,0.0037842,0.0452271,0.011322,0.1017761
						c0.0150757,0.0489807,0.0263672,0.0791321,0.033905,0.0904541l0.0226135,0.0169678h0.1130676
						c0.2035522,0.0112915,0.3241577,0.043335,0.3618469,0.0960999l-0.0678406,0.848053h-1.3455811l-0.1921997-0.3279114
						C-344.0385437,400.4098206-344.1158142,400.2571716-344.1158142,400.2119446z M-342.3744812,401.2635193
						c0,0.0414429-0.022644,0.3354492-0.0678711,0.881958s-0.0715942,0.8216553-0.0791321,0.8254395l-0.1526489-0.243103
						c-0.0603027-0.1017761-0.1790466-0.3034363-0.3561707-0.60495l-0.5088501-0.8593445l0.5823364-0.0056458
						C-342.5686035,401.2578735-342.3744812,401.2597351-342.3744812,401.2635193z"/>
				</g>
			</g>
		</g>
	</g>
	<g>
		<g transform="translate(0,0)">
			<circle class="st3" cx="133.3711395" cy="71.9356995" r="9.191288">
			<title>C.shape</title>
			<desc>Circle representing C.shape</desc>
			</circle>
		</g>
		<g transform="translate(0,0)">
			<g pointer-events="bounding-box" transform="translate(578.0338270047179,456.2308673562131)">
				<g transform="matrix(1 0 0 -1 0 0)">
					<path d="M-444.2099304,380.4331665c0,0.4402466,0.1282654,0.8632507,0.3847351,1.269043
						c0.2565002,0.4057922,0.5799866,0.727356,0.970459,0.9647217c0.3904724,0.2373352,0.7809448,0.3579407,1.1714478,0.3617554
						c0.3445129,0,0.6182556-0.0976257,0.8211365-0.2928467c0.0344543-0.0382996,0.0631714-0.0708313,0.0861511-0.0976257
						c0.0229492-0.0267944,0.038269-0.045929,0.045929-0.0574341l0.0057373-0.0172119
						c0.0114746,0,0.0631714,0.0497742,0.1550598,0.149292c0.0267944,0.0229797,0.055481,0.0497742,0.0861206,0.0803833
						c0.0306396,0.0306396,0.0612488,0.0612488,0.0918884,0.0918884c0.0306091,0.0306396,0.0497437,0.0516663,0.0574036,0.0631714
						l0.0861511,0.0861206h0.0344543c0.0535889,0,0.0803833-0.0133972,0.0803833-0.0401917
						c0-0.0153198-0.0612488-0.2775574-0.1837463-0.7866821c-0.1378174-0.532135-0.2067261-0.8001099-0.2067261-0.8039246
						c-0.0076599-0.019165-0.0172424-0.0306396-0.028717-0.0344543c-0.0114746-0.0038452-0.045929-0.0076599-0.103363-0.0115051
						h-0.0918884c-0.0229492,0.0229797-0.0344543,0.0401917-0.0344543,0.0516968
						c0,0.0038147,0.0019226,0.0172119,0.0057678,0.0401917c0.0038147,0.0229492,0.0076294,0.0612488,0.0114746,0.1148376
						c0.0038147,0.0535889,0.0057373,0.1148376,0.0057373,0.1837463c0,0.2718201-0.0612488,0.5091553-0.1837463,0.7120667
						c-0.1224976,0.2028809-0.3311462,0.3062439-0.6259155,0.3100891c-0.0995483,0-0.2067261-0.0133972-0.3215637-0.0401917
						c-0.1148682-0.026825-0.2526855-0.0727539-0.4134521-0.1378174c-0.1607971-0.065094-0.3196716-0.1722717-0.4766235-0.3215942
						c-0.1569519-0.149292-0.2966919-0.327301-0.4191895-0.5340271c-0.1224976-0.2182007-0.2201233-0.4727783-0.2928467-0.7637329
						c-0.0727539-0.2909546-0.1091003-0.5282898-0.1091003-0.7120361c0-0.4364319,0.1454468-0.7503357,0.4364014-0.9417419
						c0.1837463-0.1301575,0.4096375-0.1952515,0.6776123-0.1952515c0.3483582,0,0.6584473,0.1301575,0.9302368,0.3904724
						c0.2718201,0.2603149,0.4517517,0.5436096,0.5397949,0.849884c0.0152893,0.0497437,0.0267944,0.0784607,0.0344543,0.0861206
						s0.038269,0.0115051,0.0918579,0.0115051c0.0765686,0,0.1148682-0.0172424,0.1148682-0.0516968
						c0-0.0191345-0.0019226-0.036377-0.0057678-0.0516663c-0.1109924-0.4096375-0.3483582-0.7618408-0.7120361-1.0566101
						s-0.7541504-0.4421387-1.1714478-0.4421387c-0.4325867,0-0.7981567,0.1435547-1.0967712,0.4306641
						S-444.2099304,379.9584656-444.2099304,380.4331665z"/>
				</g>
			</g>
		</g>
		<g transform="translate(0,0)">
			<circle class="st3" cx="128.7591858" cy="67.5571289" r="19.8516598">
			<title>B.shape</title>
			<desc>Circle representing B.shape</desc>
			</circle>
		</g>
		<g transform="translate(0,0)">
			<g pointer-events="bounding-box" transform="translate(568.0617779483289,360.6770138775214)">
				<g transform="matrix(1 0 0 -1 0 0)">
					<path d="M-435.2346802,307.5395508c-0.0971375,0-0.1546936,0.0018005-0.1726685,0.0054016
						s-0.0269775,0.0233765-0.0269775,0.0593567c0,0.0971069,0.0197754,0.1564636,0.0593567,0.1780396
						c0.0036011,0.0036011,0.2373962,0.0054016,0.701416,0.0054016c0.9316406,0,1.4226379-0.0036011,1.4729919-0.0108032
						c0.226593-0.0359802,0.4154358-0.1169128,0.5665283-0.2427979c0.151062-0.125885,0.2283936-0.2913513,0.2319946-0.4963989
						c0-0.2301941-0.1043091-0.4370422-0.3129272-0.6204834c-0.2086487-0.1834412-0.4478455-0.3075256-0.7176208-0.3722839
						l-0.0539551-0.0161743c0.2302246-0.0323792,0.4190674-0.1151123,0.5665283-0.2481995
						c0.1474915-0.1330872,0.2230225-0.2985535,0.2266235-0.4963989c0-0.2625732-0.1294861-0.5161743-0.3884888-0.7607727
						c-0.2589722-0.2445984-0.577301-0.3830872-0.9550171-0.4154663c-0.025177-0.0036011-0.4046631-0.0054016-1.1384583-0.0054016
						c-0.7193909,0-1.0845032,0.0036011-1.0952759,0.0108032c-0.0144043,0.0108032-0.0216064,0.025177-0.0216064,0.0431519
						c0,0.0252075,0.0036011,0.0503845,0.0108032,0.0755615c0.0179749,0.0683289,0.0359802,0.1061096,0.0539551,0.1132812
						c0.0144043,0.0036011,0.0413818,0.0054016,0.0809326,0.0054016h0.0323792c0.0971069,0,0.2050171,0.0054016,0.3237305,0.0162048
						c0.050354,0.0107727,0.0845337,0.0323486,0.1025085,0.0647278c0.0108032,0.0144043,0.1402893,0.5143738,0.3884888,1.4999695
						s0.3722839,1.5053711,0.3722839,1.5593262C-434.9271545,307.5161743-435.0296631,307.5323486-435.2346802,307.5395508z
						 M-432.9793396,307.0377502c0,0.1079102-0.0269775,0.2086487-0.0809326,0.3021545
						c-0.0539551,0.0935364-0.1420898,0.1546936-0.2644043,0.1834717c-0.025177,0.0071716-0.1906433,0.0125732-0.4963684,0.0161743
						c-0.0719604,0-0.1474915,0-0.2266235,0s-0.1420898-0.0018005-0.1888428-0.0054016h-0.0701599
						c-0.0539551-0.0036011-0.0881042-0.0215759-0.1025085-0.0539551c-0.0072021-0.0143738-0.0647278-0.2301941-0.1726379-0.6474609
						c0-0.0108032-0.0018005-0.0215759-0.0054016-0.0323792l-0.1672668-0.6798401h0.4370422
						c0.2913513,0,0.4586182,0.0036011,0.50177,0.0108032c0.2158203,0.0359497,0.4082642,0.1402893,0.5773315,0.3129272
						C-433.0692749,306.6169128-432.9829407,306.8147583-432.9793396,307.0377502z M-433.2707214,305.3381653
						c0,0.1582642-0.0413513,0.2895508-0.1240845,0.3938599c-0.0827332,0.1043396-0.1906433,0.1654663-0.3237305,0.1834717
						c-0.0215759,0.0036011-0.1708679,0.0053711-0.4478455,0.0053711c-0.4244385,0-0.6384583-0.00177-0.6420593-0.0053711
						c0-0.0072021-0.0305786-0.1384888-0.0917358-0.3938904c-0.0611572-0.2553711-0.1240845-0.5089722-0.1888428-0.7607727
						l-0.0971069-0.3776855c0-0.0143738,0.0215759-0.0215759,0.0647278-0.0215759
						c0.0431824,0,0.1888428-0.0036011,0.4370422-0.0108032c0.3201599,0,0.4927979,0.0018005,0.5179749,0.0054016
						c0.2230225,0.025177,0.4280396,0.1294861,0.6151123,0.3129578
						C-433.3642273,304.8525696-433.2707214,305.075592-433.2707214,305.3381653z"/>
				</g>
			</g>
		</g>
		<g transform="translate(0,0)">
			<circle class="st3" cx="126.3991394" cy="71.0551071" r="28.4554558">
			<title>A.shape</title>
			<desc>Circle representing A.shape</desc>
			</circle>
		</g>
		<g transform="translate(0,0)">
			<g pointer-events="bounding-box" transform="translate(456.5726653908889,513.8532895857193)">
				<g transform="matrix(1 0 0 -1 0 0)">
					<path d="M-347.7975159,424.7906189c0-0.0905151,0.086731-0.1433105,0.2601624-0.1583862
						c0.0678711,0,0.1018372-0.0207214,0.1018372-0.0622253c0-0.0037537-0.0037842-0.0282593-0.011322-0.0735168
						c-0.011322-0.0527954-0.022644-0.086731-0.0339355-0.1018066c-0.011322-0.0150757-0.0358276-0.022644-0.0735474-0.022644
						c-0.0075378,0-0.0301514,0-0.0678711,0c-0.0376892,0-0.1018066,0.0018921-0.1922913,0.0056763
						c-0.0905151,0.0037537-0.2111816,0.0056458-0.3619995,0.0056458c-0.2677307,0-0.4393005-0.0037537-0.5147095-0.011322
						h-0.0452576c-0.0263977,0.0263977-0.0395813,0.0471497-0.0395813,0.0622253
						c0.0075378,0.1018066,0.0320435,0.1678162,0.0735168,0.1979675h0.0791931
						c0.2639465,0.011322,0.4562683,0.1055908,0.5769348,0.2828064c0.0226135,0.022644,0.3638611,0.5976868,1.0237427,1.7251282
						c0.6599121,1.1274719,0.9954834,1.6987305,1.0068054,1.7138367c0.0263977,0.0452271,0.0716553,0.0678711,0.1357422,0.0678711
						h0.0452576h0.0961609c0.0226135-0.0339355,0.0339355-0.0527954,0.0339355-0.0565796l0.1583557-1.8269348
						c0.1055908-1.2179565,0.1621704-1.8325806,0.1697083-1.8439026c0.0188293-0.0414734,0.1413879-0.0622253,0.3676453-0.0622253
						c0.0942688,0,0.1413879-0.0188599,0.1413879-0.0565491c0-0.0075378-0.0056458-0.0339355-0.0169678-0.0791931
						c-0.0112915-0.0565491-0.0207214-0.0905151-0.0282593-0.1018066c-0.0075378-0.011322-0.0339355-0.0188599-0.0791931-0.022644
						c-0.011322,0-0.0377197,0-0.0791931,0s-0.1149902,0.0018921-0.2205811,0.0056763
						c-0.1055908,0.0037537-0.2432251,0.0056458-0.4129028,0.0056458c-0.3544617,0-0.5863647-0.0037537-0.6957092-0.011322
						h-0.0678711c-0.022644,0.022644-0.0339355,0.0396118-0.0339355,0.0509033c0,0.011322,0.0037537,0.0452576,0.0112915,0.1018372
						c0.0151062,0.0490112,0.0263977,0.0791626,0.0339661,0.0904846l0.0226135,0.0169678h0.1131287
						c0.2036133,0.011322,0.3242798,0.0433655,0.3619995,0.0961609l-0.0679016,0.8484192h-1.3461609l-0.1922913-0.328064
						C-347.7202148,424.9885864-347.7975159,424.8358459-347.7975159,424.7906189z M-346.0554199,425.8426514
						c0,0.0414734-0.022644,0.3356018-0.0678711,0.8823547c-0.0452576,0.5467834-0.0716553,0.822052-0.0791931,0.8258057
						l-0.15271-0.2432251c-0.0603333-0.1018066-0.1791077-0.3035278-0.3563538-0.6051941l-0.5090637-0.8597412l0.5826111-0.0056458
						C-346.2496338,425.8370056-346.0554199,425.8388977-346.0554199,425.8426514z"/>
				</g>
			</g>
		</g>
	</g>
	<g>
		<polyline class="st4" points="0.7130902,37.2879906 0.7130902,1.0740032 1.7090924,1.0740032 1.7090924,37.2879906 		"/>
		<polyline class="st4" points="1.7090924,1.0740032 53.009079,1.0740032 53.009079,2.0700054 1.7090924,2.0700054 		"/>
		<rect x="1.7090924" y="2.0700054" class="st5" width="51.2999878" height="35.2179871"/>
		<polyline class="st4" points="0.7130902,37.2879906 54.0060883,37.2879906 54.0060883,38.2839928 0.7130902,38.2839928 		"/>
		<polyline class="st4" points="53.0100861,37.2879906 53.0100861,1.0740032 54.0060883,1.0740032 54.0060883,37.2879906 		"/>
		<path d="M15.0182657,6.2991009l-0.0557556,0.8681946h-0.8522644v0.724823h0.8044739
			c-0.0238953,0.358429-0.0477905,0.6690674-0.0557556,0.9398804c-0.0079651,0.2548828-0.0159302,0.4779053-0.0159302,0.6611023
			c0,0.2628479,0.0238953,0.4938354,0.0637207,0.6929626c0.0477905,0.1911621,0.1194763,0.3504639,0.2230225,0.4699402
			c0.0955811,0.1194763,0.2150574,0.2150574,0.366394,0.270813s0.3265686,0.087616,0.5336618,0.087616
			c0.1991272,0,0.4062195-0.0398254,0.6133118-0.1274414c0.2150574-0.087616,0.4301147-0.2070923,0.6451721-0.358429
			l-0.2787781-0.7327881c-0.183197,0.1354065-0.3504639,0.2469177-0.4938354,0.3265686
			c-0.1433716,0.0716858-0.2628479,0.1115112-0.3504639,0.1115112l-0.2230234-0.0637207l-0.1274414-0.1991272
			c-0.0238953-0.087616-0.0477905-0.2070923-0.0557556-0.358429c-0.0079651-0.1433716-0.0159302-0.3186035-0.0159302-0.5177307
			s0.0079651-0.4062195,0.0238953-0.6133118c0.0238953-0.1991272,0.0318604-0.3982544,0.0398254-0.5894165h1.1549387v-0.724823
			h-1.1230783l0.0796509-0.7168579l0.0557556-0.1513367l0.0318613-0.1672668L15.0182657,6.2991009z M12.4271097,8.6249065h-1.537262
			c0.0159302-0.1354065,0.0477905-0.2548828,0.087616-0.358429s0.0955811-0.1991272,0.1672668-0.270813l0.2389526-0.1752319
			c0.087616-0.0398254,0.1911621-0.0637207,0.3026733-0.0637207s0.2150574,0.0238953,0.3026733,0.0716858
			c0.0955811,0.0477905,0.1752319,0.1115112,0.2389526,0.1911621c0.0637207,0.0716858,0.1115112,0.1672668,0.1433716,0.270813
			C12.4111795,8.393919,12.4271097,8.5054302,12.4271097,8.6249065z M11.7341471,7.0876446
			c-0.2548828,0-0.4938354,0.0477905-0.7009277,0.1354065c-0.2230225,0.0955811-0.4062195,0.2309875-0.5575562,0.3982544
			c-0.1593018,0.1672668-0.2867432,0.3823242-0.366394,0.6212769c-0.0955811,0.2548828-0.1354065,0.5256958-0.1354065,0.8363342
			c0,0.3026733,0.0477905,0.5734863,0.1354065,0.812439c0.0955811,0.2389526,0.2230225,0.4380798,0.3902893,0.6133118
			c0.1672668,0.1593018,0.358429,0.2867432,0.5894165,0.3823242c0.2309875,0.0796509,0.4779053,0.1274414,0.7407532,0.1274414
			c0.5655212,0,1.0354614-0.2230225,1.4098206-0.6690674l-0.4938354-0.4938354
			c-0.1194763,0.1513367-0.2548828,0.2628479-0.4221497,0.3345337c-0.1593018,0.0796509-0.3265686,0.1194763-0.4938354,0.1194763
			c-0.1115112,0-0.2230225-0.0238953-0.3345337-0.0557556c-0.1035461-0.0477905-0.2070923-0.1035461-0.2867432-0.1911621
			c-0.0955811-0.087616-0.1672668-0.1911621-0.2230225-0.3186035c-0.0637207-0.1274414-0.1035461-0.2787781-0.1274414-0.4619751
			h2.4373169l0.0159302-0.183197l0.0079651-0.1911621c0-0.2947083-0.0398254-0.5575562-0.1194763-0.7885437
			c-0.087616-0.2309875-0.1991272-0.4141846-0.3424988-0.5734863c-0.1433716-0.1433716-0.3106384-0.2628479-0.5018005-0.3345337
			C12.1642618,7.12747,11.9571695,7.0876446,11.7341471,7.0876446z M8.7288065,7.2071209L9.230607,6.5380535
			C9.04741,6.2991009,8.8164225,6.1159039,8.5615396,5.9884624C8.2907267,5.861021,8.0119486,5.7973003,7.7092752,5.7973003
			c-0.2389526,0-0.45401,0.0398254-0.6611023,0.1035461c-0.1911621,0.0796509-0.366394,0.1752319-0.5097656,0.3026733
			s-0.2548828,0.270813-0.3345337,0.4460449c-0.0796509,0.1593018-0.1194763,0.3424988-0.1194763,0.541626
			c0,0.1593018,0.0238953,0.3106384,0.0716858,0.45401c0.0557556,0.1433716,0.1354065,0.2787781,0.2548828,0.4062195
			c0.1115112,0.1274414,0.2548828,0.2469177,0.4301147,0.358429S7.23137,8.6249065,7.4782877,8.7284527
			C7.6694498,8.8001385,7.8287516,8.8718243,7.956193,8.9435101c0.1194763,0.0716858,0.2230225,0.1354065,0.2867432,0.2070923
			l0.1593018,0.1991272l0.0477905,0.2150574c0,0.2389526-0.0716858,0.4141846-0.2070923,0.5256958
			c-0.1354065,0.1194763-0.3265686,0.1752319-0.5734863,0.1752319c-0.1354065,0-0.2548828-0.0159302-0.366394-0.0477905
			c-0.1035461-0.0238953-0.2070923-0.0637207-0.2947083-0.1115112L6.7614298,9.931181l-0.183197-0.1991272l-0.0557556-0.087616
			L6.4906168,9.5807171L6.4428263,9.5169964L6.3711405,9.485136l-0.45401,0.7965088
			c0.2309875,0.2469177,0.4779053,0.4301147,0.7646484,0.5575562c0.270813,0.1274414,0.5814514,0.1911621,0.9159851,0.1911621
			c0.3186035,0,0.5894165-0.0477905,0.812439-0.1274414c0.2230225-0.0955811,0.4062195-0.2070923,0.5495911-0.3504639
			c0.1354065-0.1354065,0.2389526-0.3026733,0.3026733-0.4779053c0.0637207-0.1911621,0.0955811-0.3743591,0.0955811-0.5575562
			c0-0.1593018-0.0159302-0.3106384-0.0637207-0.4460449C9.2624674,8.935545,9.1907816,8.8001385,9.0872355,8.6806622
			S8.8482828,8.4417095,8.6889811,8.3301983C8.5137491,8.2186871,8.3066568,8.1151409,8.0597391,8.0115948
			c-0.2150574-0.087616-0.3902893-0.1672668-0.5177307-0.2389526C7.3986368,7.7009563,7.2950907,7.6213055,7.2154398,7.5496197
			L7.048173,7.3186321L7.0083475,7.0796795L7.048173,6.8725872l0.1274414-0.1752319l0.1911621-0.1274414
			c0.0716858-0.0238953,0.1593018-0.0398254,0.2548828-0.0398254c0.2150574,0,0.4062195,0.0398254,0.5575562,0.1354065
			C8.3385172,6.7451458,8.4659586,6.856657,8.5535746,6.9920635l0.0318604,0.0716858l0.0238953,0.0716858l0.0318604,0.0557556
			L8.7288065,7.2071209z"/>
		<path d="M48.7145233,7.0478191L48.7463837,7.12747l0.5336609-0.2628479
			c-0.0637207-0.1513367-0.1513367-0.2787781-0.2548828-0.4062195c-0.1035461-0.1115112-0.2309875-0.2150574-0.358429-0.3026733
			c-0.1433716-0.087616-0.2867432-0.1513367-0.4460449-0.1991272c-0.1513367-0.0477905-0.3106384-0.0716858-0.4779053-0.0716858
			c-0.1991272,0-0.4141846,0.0398254-0.6212769,0.1274414c-0.2230225,0.0796509-0.4221497,0.2150574-0.6133118,0.4141846
			s-0.3424988,0.4619751-0.4619751,0.7805786c-0.1194763,0.3345337-0.1752319,0.7407532-0.1752319,1.2266235
			c0,0.4380798,0.0477905,0.8204041,0.1513367,1.1390076s0.2389526,0.5814514,0.4301147,0.7885437
			c0.1752319,0.2070923,0.3823242,0.358429,0.6053467,0.4619751c0.2150574,0.0955811,0.4699402,0.1433716,0.7566833,0.1433716
			c0.1274414,0,0.2548828-0.0159302,0.3743591-0.0477905c0.1274414-0.0398254,0.2548828-0.087616,0.3823242-0.1593018
			c0.1194763-0.0716858,0.2389526-0.1513367,0.3504639-0.2548828s0.2070923-0.2150574,0.2867432-0.3504639l-0.4141846-0.270813
			c-0.1115112,0.183197-0.2548828,0.3345337-0.4460449,0.4460449c-0.1752319,0.1035461-0.366394,0.1593018-0.5655212,0.1593018
			c-0.1911621,0-0.3743591-0.0477905-0.5336609-0.1513367c-0.1752319-0.1035461-0.3186035-0.2469177-0.4460449-0.4221497
			c-0.1194763-0.1911621-0.2150574-0.4062195-0.2867432-0.6690674c-0.0716858-0.2548828-0.1035461-0.541626-0.1035461-0.8522644
			c0-0.3265686,0.0318604-0.6133118,0.1035461-0.8681946s0.1672668-0.4699402,0.2867432-0.6531372
			c0.1194763-0.1752319,0.2628479-0.3106384,0.4221497-0.3982544c0.1593018-0.0955811,0.3265686-0.1433716,0.5097656-0.1433716
			c0.1911621,0,0.3743591,0.0477905,0.541626,0.1593018c0.1672668,0.0955811,0.3106384,0.2389526,0.4141846,0.4141846
			L48.7145233,7.0478191z M40.0116119,10.7276897c0-0.1991272-0.0557556-0.358429-0.1672668-0.4779053
			s-0.2389526-0.183197-0.3743591-0.183197s-0.2548828,0.0477905-0.3345337,0.1354065
			c-0.0955811,0.087616-0.1354065,0.1991272-0.1354065,0.3345337l0.0637207,0.1911621l0.1354065,0.1433716l0.1433716,0.1274414
			l0.0637207,0.1513367c0,0.1035461-0.0477905,0.2309875-0.1433716,0.3902893
			c-0.1035461,0.1593018-0.2230225,0.3106384-0.3743591,0.4460449l0.270813,0.2389526
			C39.7248688,11.6436749,40.0116119,11.1498394,40.0116119,10.7276897z M34.5211639,8.4496746h0.812439
			c0.2309875,0,0.4380798,0.0238953,0.5973816,0.0716858c0.1752319,0.0477905,0.3026733,0.1194763,0.3982544,0.2150574
			c0.1035461,0.087616,0.1752319,0.1991272,0.2230225,0.3186035s0.0796509,0.2548828,0.087616,0.4062195
			c-0.0238953,0.270813-0.1194763,0.4938354-0.2787781,0.6770325c-0.1752319,0.1752319-0.4699402,0.2628479-0.8920898,0.2628479
			h-0.9478455V8.4496746z M34.5211639,6.3946819h0.8681946c0.1991272,0,0.358429,0.0238953,0.4938354,0.0637207
			s0.2389526,0.0955811,0.3265686,0.1752319c0.087616,0.0637207,0.1513367,0.1513367,0.183197,0.2469177
			c0.0477905,0.0955811,0.0716858,0.1991272,0.0796509,0.3106384c-0.0079651,0.1115112-0.0398254,0.2150574-0.0796509,0.3186035
			c-0.0398254,0.0955811-0.1115112,0.1752319-0.1911621,0.2469177c-0.0955811,0.0716858-0.2070923,0.1194763-0.3504639,0.1672668
			c-0.1433716,0.0318604-0.3265686,0.0557556-0.5495911,0.0557556h-0.7805786V6.3946819z M33.9715729,5.9247417v4.9622498h1.4018555
			c0.6451721,0,1.1151123-0.1274414,1.4098206-0.3823242s0.4460449-0.5894165,0.4460449-1.0115662
			c0-0.1354065-0.0238953-0.270813-0.0637207-0.4062195c-0.0398254-0.1274414-0.1035461-0.2469177-0.1911621-0.358429
			s-0.183197-0.2150574-0.2947083-0.2947083c-0.1194763-0.0955811-0.2469177-0.1593018-0.3823242-0.2070923
			c0.2309875-0.087616,0.4141846-0.2309875,0.541626-0.4380798s0.1911621-0.4301147,0.1911621-0.6611023
			c0-0.1752319-0.0318604-0.3345337-0.1035461-0.4779053c-0.0716858-0.1513367-0.1672668-0.2787781-0.2947083-0.3902893
			s-0.2947083-0.1991272-0.5097656-0.2469177c-0.2070923-0.0637207-0.45401-0.087616-0.7407532-0.087616H33.9715729z
			 M28.0564747,10.7276897c0-0.1991272-0.0557556-0.358429-0.1672668-0.4779053s-0.2389526-0.183197-0.3743591-0.183197
			s-0.2548828,0.0477905-0.3345337,0.1354065c-0.0955811,0.087616-0.1354065,0.1991272-0.1354065,0.3345337l0.0637207,0.1911621
			l0.1354065,0.1433716l0.1433716,0.1274414l0.0637207,0.1513367c0,0.1035461-0.0477905,0.2309875-0.1433716,0.3902893
			c-0.1035461,0.1593018-0.2230225,0.3106384-0.3743591,0.4460449l0.270813,0.2389526
			C27.7697315,11.6436749,28.0564747,11.1498394,28.0564747,10.7276897z M24.2307301,9.0072308h-1.3381348l0.637207-1.8956909
			L24.2307301,9.0072308z M21.7535877,10.8869915h0.5495911l0.4779053-1.449646h1.5770874l0.5495911,1.449646h0.5734863
			l-1.9116211-5.0498657h-0.0637207L21.7535877,10.8869915z"/>
		<path d="M6.6260233,19.4086895h0.812439c0.2309875,0,0.4380798,0.0238953,0.5973816,0.0716858
			c0.1752319,0.0477905,0.3026733,0.1194763,0.3982544,0.2150574c0.1035461,0.087616,0.1752319,0.1991272,0.2230225,0.3186035
			s0.0796509,0.2548828,0.087616,0.4062195c-0.0238953,0.270813-0.1194763,0.4938354-0.2787781,0.6770325
			c-0.1752319,0.1752319-0.4699402,0.2628479-0.8920898,0.2628479H6.6260233V19.4086895z M6.6260233,17.3536968h0.8681946
			c0.1991272,0,0.358429,0.0238953,0.4938354,0.0637207s0.2389526,0.0955811,0.3265686,0.1752319
			c0.087616,0.0637207,0.1513367,0.1513367,0.183197,0.2469177c0.0477905,0.0955811,0.0716858,0.1991272,0.0796509,0.3106384
			c-0.0079651,0.1115112-0.0398254,0.2150574-0.0796509,0.3186035c-0.0398254,0.0955811-0.1115112,0.1752319-0.1911621,0.2469177
			c-0.0955811,0.0716858-0.2070923,0.1194763-0.3504639,0.1672668c-0.1433716,0.0318604-0.3265686,0.0557556-0.5495911,0.0557556
			H6.6260233V17.3536968z M6.0764322,16.8837566v4.9622498h1.4018555c0.6451721,0,1.1151123-0.1274414,1.4098206-0.3823242
			s0.4460449-0.5894165,0.4460449-1.0115662c0-0.1354065-0.0238953-0.270813-0.0637207-0.4062195
			c-0.0398254-0.1274414-0.1035461-0.2469177-0.1911621-0.358429s-0.183197-0.2150574-0.2947083-0.2947083
			c-0.1194763-0.0955811-0.2469177-0.1593018-0.3823242-0.2070923c0.2309875-0.087616,0.4141846-0.2309875,0.541626-0.4380798
			s0.1911621-0.4301147,0.1911621-0.6611023c0-0.1752319-0.0318604-0.3345337-0.1035461-0.4779053
			C8.959794,17.457243,8.864213,17.3298016,8.7367716,17.2182903s-0.2947083-0.1991272-0.5097656-0.2469177
			c-0.2070923-0.0637207-0.45401-0.087616-0.7407532-0.087616H6.0764322z"/>
		<path d="M19.0337086,21.7822857v-0.3982544h-2.3098755c-0.7726145,0-1.5292978-0.6929626-1.5292978-1.5850525
			c0-0.8442993,0.6611023-1.5850525,1.5292978-1.5850525h2.3098755v-0.3982544h-2.2780151
			c-1.1071482,0-1.9594126,0.9239502-1.9594126,1.9833069s0.8522644,1.9833069,1.9594126,1.9833069H19.0337086z"/>
		<path d="M26.2717152,19.9662457h-1.3381348l0.637207-1.8956909L26.2717152,19.9662457z M23.7945728,21.8460064h0.5495911
			l0.4779053-1.449646h1.5770874l0.5495911,1.449646h0.5734863l-1.9116211-5.0498657h-0.0637207L23.7945728,21.8460064z"/>
		<path d="M8.864213,28.9658184l0.0318604,0.0796509l0.5336609-0.2628479
			c-0.0637207-0.1513367-0.1513367-0.2787781-0.2548828-0.4062195c-0.1035461-0.1115112-0.2309875-0.2150574-0.358429-0.3026733
			c-0.1433716-0.087616-0.2867432-0.1513367-0.4460449-0.1991272c-0.1513367-0.0477905-0.3106384-0.0716858-0.4779053-0.0716858
			c-0.1991272,0-0.4141846,0.0398254-0.6212769,0.1274414c-0.2230225,0.0796509-0.4221497,0.2150574-0.6133118,0.4141846
			s-0.3424988,0.4619751-0.4619751,0.7805786c-0.1194763,0.3345337-0.1752319,0.7407532-0.1752319,1.2266235
			c0,0.4380798,0.0477905,0.8204041,0.1513367,1.1390076s0.2389526,0.5814495,0.4301147,0.7885418
			c0.1752319,0.2070923,0.3823242,0.358429,0.6053467,0.4619751c0.2150574,0.0955811,0.4699402,0.1433716,0.7566833,0.1433716
			c0.1274414,0,0.2548828-0.0159302,0.3743591-0.0477905c0.1274414-0.0398254,0.2548828-0.087616,0.3823242-0.1593018
			c0.1194763-0.0716858,0.2389526-0.1513367,0.3504639-0.2548828s0.2070923-0.2150574,0.2867432-0.3504639l-0.4141846-0.2708111
			c-0.1115112,0.183197-0.2548828,0.3345318-0.4460449,0.446043c-0.1752319,0.1035461-0.366394,0.1593018-0.5655212,0.1593018
			c-0.1911621,0-0.3743591-0.0477905-0.5336609-0.1513367c-0.1752319-0.1035461-0.3186035-0.2469177-0.4460449-0.4221478
			c-0.1194763-0.1911621-0.2150574-0.4062195-0.2867432-0.6690674c-0.0716858-0.2548828-0.1035461-0.541626-0.1035461-0.8522644
			c0-0.3265686,0.0318604-0.6133118,0.1035461-0.8681946s0.1672668-0.4699402,0.2867432-0.6531372
			c0.1194763-0.1752319,0.2628479-0.3106384,0.4221497-0.3982544c0.1593018-0.0955811,0.3265686-0.1433716,0.5097656-0.1433716
			c0.1911621,0,0.3743591,0.0477905,0.541626,0.1593018c0.1672668,0.0955811,0.3106384,0.2389526,0.4141846,0.4141846
			L8.864213,28.9658184z"/>
		<path d="M19.0337086,32.7412682v-0.3982544h-2.3098755c-0.7726145,0-1.5292978-0.6929607-1.5292978-1.5850506
			c0-0.8442993,0.6611023-1.5850525,1.5292978-1.5850525h2.3098755v-0.3982544h-2.2780151
			c-1.1071482,0-1.9594126,0.9239502-1.9594126,1.9833069s0.8522644,1.983305,1.9594126,1.983305H19.0337086z"/>
		<path d="M26.2717152,30.92523h-1.3381348l0.637207-1.8956909L26.2717152,30.92523z M23.7945728,32.8049889h0.5495911
			l0.4779053-1.4496441h1.5770874l0.5495911,1.4496441h0.5734863l-1.9116211-5.0498638h-0.0637207L23.7945728,32.8049889z"/>
	</g>
	<g>
		<g transform="translate(0,0)">
			<circle class="st6" cx="174.0242462" cy="19.7591" r="12.6081829">
			<title>C.shape</title>
			<desc>Circle representing C.shape</desc>
			</circle>
		</g>
		<g transform="translate(0,0)">
			<g pointer-events="bounding-box" transform="translate(597.3640076770437,286.52002719691495)">
				<g transform="matrix(1 0 0 -1 0 0)">
					<path d="M-419.6069031,271.1018066c0,0.4416199,0.1286316,0.8659973,0.3859558,1.2730713
						c0.2572937,0.407074,0.5818176,0.7296753,0.9735413,0.9677734c0.3916931,0.2380981,0.7834167,0.3590698,1.1751404,0.362915
						c0.3456421,0,0.6202087-0.0979309,0.823761-0.2937927c0.0345764-0.0383911,0.0633545-0.0710449,0.0863953-0.0979309
						s0.0384216-0.0460815,0.0461121-0.0576172l0.0057373-0.0172729c0.0115356,0,0.063385,0.0499268,0.1555481,0.1497803
						c0.026886,0.0230408,0.0556946,0.0499268,0.0863953,0.080658c0.0307312,0.0307007,0.0614624,0.0614319,0.0921631,0.0921631
						c0.0307312,0.0307312,0.0499268,0.0518494,0.0576172,0.0633545l0.0864258,0.0864258h0.0345459
						c0.053772,0,0.080658-0.0134583,0.080658-0.0403442c0-0.0153503-0.0614624-0.2784119-0.1843567-0.7891846
						c-0.1382446-0.5338135-0.2073669-0.8026428-0.2073669-0.806488c-0.0076904-0.0191956-0.0172729-0.0307007-0.0288086-0.0345459
						c-0.0115051-0.0038452-0.0460815-0.0076904-0.1036987-0.0115356h-0.0921631
						c-0.0230408,0.0230408-0.0345459,0.0403442-0.0345459,0.0518494c0,0.0038452,0.0019226,0.0172729,0.0057373,0.0403137
						c0.0038452,0.0230408,0.0076904,0.0614624,0.0115356,0.1152344c0.0038452,0.0537415,0.0057678,0.1152039,0.0057678,0.1843262
						c0,0.2726746-0.0614624,0.5107727-0.1843567,0.7142944c-0.1228943,0.2035522-0.3321838,0.307251-0.6278992,0.3110962
						c-0.0998535,0-0.2073669-0.0134583-0.3225708-0.0403442c-0.1152344-0.026886-0.253479-0.0729675-0.4147644-0.1382446
						c-0.1613159-0.0652771-0.3206787-0.172821-0.4781189-0.3226013c-0.1574707-0.1497498-0.2976379-0.3283386-0.4205322-0.5357361
						c-0.1228943-0.2188721-0.2208252-0.4742737-0.2937927-0.7661438s-0.109436-0.5299683-0.109436-0.7142944
						c0-0.4378052,0.1459351-0.7527161,0.4377747-0.9447327c0.1843567-0.1305847,0.4109192-0.1958618,0.6797485-0.1958618
						c0.3494873,0,0.660553,0.1305542,0.9332275,0.3917236c0.2726746,0.2611389,0.4531555,0.5453186,0.5414734,0.8525391
						c0.0153809,0.0499268,0.026886,0.0787354,0.0345764,0.0864258c0.0076904,0.0076599,0.0383911,0.0115051,0.0921631,0.0115051
						c0.0768127,0,0.1152039-0.0172729,0.1152039-0.0518494c0-0.0191956-0.0018921-0.0364685-0.0057373-0.0518188
						c-0.1113892-0.4109192-0.3494873-0.7642517-0.714325-1.059967c-0.3648376-0.2956848-0.7565613-0.4435425-1.1751404-0.4435425
						c-0.43396,0-0.8007202,0.1440125-1.1002808,0.4320374
						C-419.4571228,270.2434692-419.6069031,270.6255798-419.6069031,271.1018066z"/>
				</g>
			</g>
		</g>
		<g transform="translate(0,0)">
			<circle class="st6" cx="163.9891968" cy="38.7319069" r="13.7629738">
			<title>B.shape</title>
			<desc>Circle representing B.shape</desc>
			</circle>
		</g>
		<g transform="translate(0,0)">
			<g pointer-events="bounding-box" transform="translate(556.4485259207174,421.2844490937246)">
				<g transform="matrix(1 0 0 -1 0 0)">
					<path d="M-386.3192139,379.2663879c-0.0974121,0-0.1551514,0.0018005-0.1731873,0.0054016
						c-0.0180664,0.0036011-0.0270691,0.023468-0.0270691,0.0595398c0,0.0974426,0.0198364,0.1569824,0.0595398,0.1786194
						c0.0036011,0.0036011,0.2381592,0.0054321,0.7036438,0.0054321c0.9345703,0,1.427124-0.0036316,1.4776611-0.0108337
						c0.2273254-0.0361023,0.4167786-0.1172791,0.5683289-0.2435913c0.1515503-0.1262817,0.229126-0.2922668,0.2327271-0.4979553
						c0-0.2309265-0.1046448-0.4384155-0.3139343-0.622467c-0.2092896-0.184021-0.4492493-0.3085022-0.7198792-0.3734741
						l-0.0541077-0.0162354c0.2309265-0.0324707,0.4203796-0.115448,0.5683289-0.2489624s0.2237244-0.2994995,0.2273254-0.4979858
						c0-0.2633972-0.1299133-0.5177917-0.3897095-0.7631836c-0.2598267-0.2453613-0.5791626-0.3843079-0.9580383-0.4167786
						c-0.0252686-0.0036011-0.4059753-0.0054016-1.1420898-0.0054016c-0.7216797,0-1.0879517,0.0036011-1.0987854,0.0108337
						c-0.0144043,0.0108032-0.021637,0.025238-0.021637,0.0432739c0,0.0252686,0.0036011,0.0505371,0.0108337,0.0758057
						c0.0180359,0.0685425,0.0360718,0.1064453,0.0541077,0.1136475c0.0144348,0.0036011,0.0415039,0.0054321,0.0812073,0.0054321
						h0.0324707c0.0974426,0,0.2056885,0.0054016,0.3247681,0.0162354c0.0505066,0.0108032,0.0847778,0.0324707,0.1028442,0.0649414
						c0.0108032,0.0144348,0.1407166,0.5160217,0.3897095,1.5047302c0.2489624,0.9887085,0.3734741,1.5101318,0.3734741,1.56427
						C-386.0106812,379.2429199-386.1135254,379.2591553-386.3192139,379.2663879z M-384.0567017,378.7630005
						c0,0.1082458-0.0270691,0.2092896-0.0812073,0.3031006c-0.0541077,0.0938416-0.1425171,0.1551819-0.2652283,0.1840515
						c-0.025238,0.0072021-0.1912231,0.0126343-0.4979553,0.0162354c-0.0721741,0-0.1479492,0-0.2273254,0
						s-0.1425476-0.0018005-0.1894531-0.0054321h-0.0703735c-0.0541077-0.0036011-0.0883789-0.021637-0.1028137-0.0541077
						c-0.0072327-0.0144348-0.0649719-0.230957-0.1732178-0.6495361c0-0.0108032-0.0018005-0.021637-0.0054016-0.0324707
						l-0.1678162-0.6820068h0.438446c0.2922668,0,0.460083,0.0036316,0.5033569,0.0108337
						c0.2165222,0.0361023,0.4095764,0.1407471,0.5791626,0.3139343
						C-384.1469116,378.3408203-384.0603333,378.5392761-384.0567017,378.7630005z M-384.348999,377.0580139
						c0,0.158783-0.0415039,0.2904663-0.1244812,0.3951111c-0.0830078,0.1046448-0.1912537,0.1659851-0.3247681,0.1840515
						c-0.021637,0.0036011-0.1713867,0.0054016-0.4492493,0.0054016c-0.4258118,0-0.6405029-0.0018005-0.644104-0.0054016
						c0-0.0072327-0.0306702-0.1389465-0.0920105-0.3951416c-0.0613708-0.2561951-0.1245117-0.5105896-0.1894531-0.7631836
						l-0.0974426-0.3788757c0-0.0144348,0.0216675-0.0216675,0.0649719-0.0216675s0.1894226-0.0036011,0.4384155-0.0108032
						c0.321167,0,0.4943542,0.0018005,0.5196228,0.0054016c0.2237244,0.0252686,0.4294128,0.1299133,0.6170349,0.3139343
						C-384.4428101,376.5708618-384.348999,376.7945862-384.348999,377.0580139z"/>
				</g>
			</g>
		</g>
		<g transform="translate(0,0)">
			<circle class="st6" cx="168.7747803" cy="29.3778591" r="28.5571766">
			<title>A.shape</title>
			<desc>Circle representing A.shape</desc>
			</circle>
		</g>
		<g transform="translate(0,0)">
			<g pointer-events="bounding-box" transform="translate(634.9332331925998,420.00631962462205)">
				<g transform="matrix(1 0 0 -1 0 0)">
					<path d="M-448.2415771,375.0317078c0-0.0907898,0.0870056-0.1437683,0.2610168-0.158905
						c0.0680847,0,0.1021423-0.0207825,0.1021423-0.0624084c0-0.0037842-0.0037842-0.0283508-0.0113525-0.073761
						c-0.0113525-0.052948-0.0227051-0.0870056-0.0340576-0.1021423c-0.011322-0.0151062-0.0359192-0.0226746-0.073761-0.0226746
						c-0.0075684,0-0.0302429,0-0.0680847,0c-0.0378113,0-0.1021423,0.0018921-0.1929016,0.0056763
						c-0.0907898,0.0037842-0.211853,0.0056763-0.3631592,0.0056763c-0.2685852,0-0.4406738-0.0037842-0.5163574-0.0113525
						h-0.0453796c-0.0264893,0.0264587-0.0397034,0.0472717-0.0397034,0.0624084
						c0.0075378,0.1021423,0.032135,0.168335,0.073761,0.1985779h0.0794373
						c0.2647705,0.0113525,0.4577026,0.1059265,0.5787354,0.2837219c0.0227051,0.0227051,0.3650513,0.5995789,1.0270386,1.7305908
						c0.6619568,1.1310425,0.9986267,1.7041321,1.0099792,1.7192688c0.0264893,0.0453796,0.0718689,0.0680847,0.1361694,0.0680847
						h0.0454102h0.0964661c0.0226746-0.0340271,0.0340271-0.052948,0.0340271-0.0567322l0.1588745-1.8327332
						c0.1059265-1.2218323,0.1626587-1.8384094,0.1702271-1.849762c0.0189209-0.041626,0.1418457-0.062439,0.3688354-0.062439
						c0.0945435,0,0.1418457-0.0188904,0.1418457-0.0567322c0-0.0075684-0.0056763-0.0340271-0.0170288-0.0794373
						c-0.0113525-0.0567322-0.020813-0.0907898-0.0283813-0.1021423c-0.0075684-0.011322-0.0340271-0.0188904-0.0794373-0.0226746
						c-0.0113525,0-0.0378113,0-0.0794373,0c-0.0415955,0-0.1153564,0.0018921-0.221283,0.0056763
						s-0.243988,0.0056763-0.4142151,0.0056763c-0.3555603,0-0.5881958-0.0037842-0.6979065-0.0113525h-0.0680847
						c-0.0227051,0.0226746-0.0340576,0.0397034-0.0340576,0.0510559s0.0037842,0.0454102,0.0113525,0.1021423
						c0.0151367,0.0491638,0.0264893,0.0794373,0.0340576,0.0907898l0.0226746,0.0169983h0.1134949
						c0.2042542,0.0113525,0.3253174,0.0435181,0.3631287,0.0964661l-0.0680847,0.8511353h-1.3504333l-0.1929321-0.3291016
						C-448.164032,375.2302856-448.2415771,375.0770874-448.2415771,375.0317078z M-446.493927,376.0870667
						c0,0.041626-0.0227051,0.3366699-0.0681152,0.8851624c-0.0453796,0.5485229-0.0718689,0.824646-0.0794373,0.8284302
						l-0.1531982-0.243988c-0.0605164-0.1021423-0.179657-0.3045044-0.3574524-0.6071167l-0.5106812-0.8624878l0.5844421-0.0056763
						C-446.6887512,376.0813904-446.493927,376.0832825-446.493927,376.0870667z"/>
				</g>
			</g>
		</g>
	</g>
</g>
</svg>
