<?xml version="1.0" encoding="utf-8"?>
<!-- Generator: Adobe Illustrator 24.0.1, SVG Export Plug-In . SVG Version: 6.00 Build 0)  -->
<svg version="1.1" id="Layer_1" xmlns="http://www.w3.org/2000/svg" xmlns:xlink="http://www.w3.org/1999/xlink" x="0px" y="0px"
viewBox="0 0 74.2313614 72.1616592"
	 style="enable-background:new 0 0 74.2313614 72.1616592;" xml:space="preserve">
<style type="text/css">
	.st0{opacity:0.102;fill:#1A1AE6;}
	.st1{fill:#9F92E7;}
	.st2{fill:#B6B8B7;}
	.st3{fill:#564C9E;}
	.st4{fill:none;stroke:#564C9E;stroke-width:1.068472;}
	.st5{fill:none;stroke:#666666;stroke-width:0.534236;}
	.st6{fill:#3F25CE;}
	.st7{fill:#6E726F;}
	.st8{fill:#666666;}
	.st9{fill:none;stroke:#000000;stroke-width:0.0356157;}
	.st10{fill:none;stroke:#6E726F;stroke-width:1.068472;}
	.st11{fill:none;stroke:#3F25CE;stroke-width:1.068472;}
</style>
<polyline class="st0" points="0,0 74.2313614,0 74.2313614,72.1616592 0,72.1616592 "/>
<g>
	<path class="st1" d="M30.5334759,14.5200081l-2.4121113-0.6303043l0.1800785-0.6891565l2.4121037,0.6302729 M34.6685257,15.6004982
		l-2.4121246-0.6302729l0.1800842-0.689188l2.4121132,0.6302729 M38.8035622,16.6810188l-2.4121132-0.6303043l0.180088-0.689188
		l2.4121284,0.6303043 M42.9386139,17.7615395L40.526516,17.131237l0.1800728-0.6891899l2.4121094,0.6303043 M47.0736618,18.8420296
		l-2.4121094-0.6303043l0.180069-0.6891556l2.4121284,0.6302719 M51.2087135,19.9225197l-2.4121094-0.6303043l0.180069-0.6891556
		l2.4121132,0.6303024 M55.3437653,21.0030403l-2.4121132-0.6303024l0.180088-0.689188l2.4120979,0.6303024 M59.478817,22.0835304
		l-2.4121284-0.6302719l0.180088-0.689188l2.4121246,0.6303043 M63.6138496,23.164053l-2.4120941-0.6303043l0.1800728-0.689188
		l2.4121094,0.6303043 M67.7489166,24.2445431l-2.4121246-0.6303043l0.1800842-0.6891575l2.4121094,0.6303043"/>
	<g>
		<polygon class="st1" points="25.4762764,12.8304453 29.2704792,12.3273067 28.0916882,13.5138254 28.5393524,15.1253662 		"/>
	</g>
	<path class="st2" d="M23.7858467,17.8833675l0.6311474-2.4118776l0.6891251,0.180337l-0.6311474,2.4118767 M22.7038898,22.0180283
		l0.6311455-2.4118786l0.6891193,0.1803379l-0.6311398,2.4118767 M21.6219311,26.1527195l0.6311474-2.4119091l0.6891098,0.1803379
		l-0.6311378,2.4118767 M20.5399742,30.2873802l0.6311321-2.4118767l0.6891251,0.1803055l-0.6311398,2.4119072
		 M19.4580021,34.4220428l0.6311378-2.4118805l0.6891193,0.1803055l-0.6311321,2.4118767 M18.3760357,38.5567017
		l0.6311474-2.4118767l0.6891174,0.180336l-0.6311455,2.4118767 M17.2940788,42.6913948l0.6311474-2.411911l0.6891174,0.1803055
		l-0.6311474,2.411911 M16.2121143,46.8260536l0.6311455-2.4118767l0.689127,0.1803055l-0.6311474,2.4119072 M15.1301565,50.9607162
		l0.6311388-2.4118805l0.6891174,0.180336l-0.6311388,2.4118805 M14.0481987,55.0954056l0.6311398-2.4119072l0.6891174,0.180336
		l-0.6311464,2.4118767"/>
	<g>
		<polygon class="st2" points="25.4762688,12.8304453 25.9780331,16.6248207 24.7919273,15.4456072 23.1802464,15.8927021 		"/>
	</g>
	<line class="st3" x1="56.7554398" y1="66.2551117" x2="27.5249901" y2="16.329649"/>
	<line class="st4" x1="56.7554398" y1="66.2551117" x2="27.5249901" y2="16.329649"/>
	<g>
		<polygon class="st3" points="25.4762764,12.8304138 30.0338116,16.3217812 27.5249901,16.329649 26.2902489,18.5135784 		"/>
	</g>
	<line class="st5" x1="56.7554398" y1="72.1616592" x2="56.7554398" y2="11.1539793"/>
	<line class="st5" x1="2.0016" y1="66.2551117" x2="74.2313614" y2="66.2551117"/>
	<g>
		<path class="st3" d="M26.9449463,7.2721052c0-0.0926971,0.0419445-0.1788068,0.1258373-0.2582974
			c0.0838928-0.0794592,0.1766148-0.1214209,0.2781792-0.1258545c0.0794735,0,0.152338,0.0397453,0.2185593,0.1192355
			c0.0662441,0.0794907,0.1015644,0.2053142,0.1059895,0.377533c0,0.1280403-0.041954,0.3819356-0.1258469,0.7616854
			c-0.0662365,0.2472448-0.1258392,0.4503727-0.1788292,0.609354c-0.0529919,0.1589184-0.1302662,0.3377562-0.2318134,0.5364513
			c-0.1015568,0.1986952-0.2229939,0.3488407-0.3642883,0.4504051c-0.1412926,0.1015635-0.300251,0.1523304-0.4768791,0.1523304
			c-0.1942863,0-0.3664818-0.0353117-0.5166187-0.1059666c-0.1501141-0.0706549-0.2583046-0.1655998-0.3245335-0.2848043
			c-0.0044193,0.0044022-0.0110378,0.013238-0.019865,0.0265074c-0.1810474,0.2428427-0.4018154,0.3642635-0.6623306,0.3642635
			c-0.114809,0-0.2251949-0.013238-0.3311691-0.0397453c-0.1059742-0.0264759-0.2097397-0.0684376-0.3112946-0.125824
			c-0.1015568-0.057416-0.1832485-0.1434946-0.2450676-0.2583284c-0.0618114-0.1148014-0.09272-0.2538948-0.09272-0.4172468
			c0-0.2384396,0.0750637-0.5608044,0.225193-0.9669991c0.1501293-0.4062567,0.227396-0.6645541,0.2318134-0.7749228
			c0-0.0044332,0-0.0088668,0-0.0132689c0-0.0397453,0-0.0662212,0-0.0794592c0-0.0132694-0.0088272-0.0287242-0.0264912-0.0463958
			c-0.017664-0.0176401-0.0419464-0.0264759-0.072855-0.0264759H24.123415c-0.1015472,0-0.1942768,0.0419621-0.2781773,0.1258235
			c-0.0838928,0.0839238-0.1501217,0.1744356-0.1986942,0.2715664c-0.0485744,0.0971622-0.0861015,0.1898904-0.1126022,0.2781858
			c-0.0264835,0.088295-0.0441475,0.1368756-0.0529823,0.1457114c-0.0088291,0.0088358-0.0441551,0.013238-0.1059666,0.013238
			h-0.0927296c-0.0264988-0.0264759-0.0397377-0.0463643-0.0397377-0.0596023c0-0.0264759,0.017664-0.088295,0.0529842-0.1854568
			C23.3308296,7.638617,23.3816109,7.526,23.4478474,7.3979602c0.0662289-0.1280403,0.1633759-0.2428427,0.2914238-0.3444071
			c0.1280479-0.1015639,0.2715588-0.1523304,0.4305077-0.1523304c0.189867,0,0.3355885,0.0551996,0.4371357,0.1655684
			c0.1015644,0.1104002,0.1523399,0.2384405,0.1523399,0.3841524c0,0.0794902-0.0728569,0.3179307-0.2185688,0.7153201
			c-0.1457119,0.3973904-0.2185669,0.7042685-0.2185669,0.9206352c0,0.2031288,0.0463638,0.3466234,0.1390839,0.4305162
			c0.0927296,0.0838928,0.2097473,0.1280403,0.3510342,0.1324739c0.1898746,0,0.3576603-0.1346912,0.5033722-0.4040089
			l0.0331268-0.0596342V9.0339155c0-0.013238,0-0.0331259,0-0.0596027c0-0.0264759,0.0022011-0.0441475,0.0066185-0.0529833
			c0.0044174-0.0088348,0.0066261-0.0242901,0.0066261-0.0463638s0.0022011-0.0419617,0.0066204-0.0596018
			c0.0044174-0.0176716,0.0110435-0.0463648,0.0198631-0.0861101c0.0088367-0.0397453,0.0154629-0.0772734,0.0198727-0.1126165
			c0.0044193-0.0353117,0.017664-0.088295,0.0397377-0.1589499c0.0220814-0.0706549,0.0397453-0.1412783,0.0529919-0.2119331
			c0.0132446-0.0706549,0.037529-0.1655998,0.072855-0.2848043c0.1280479-0.5033875,0.2008972-0.7749228,0.2185688-0.8146682
			c0.0573921-0.1192045,0.152338-0.1788378,0.2847958-0.1788378c0.0839005,0,0.1412945,0.0220737,0.1722107,0.0662522
			c0.0309029,0.0441475,0.0485744,0.0861096,0.0529766,0.1258235c0,0.0574169-0.0640202,0.3400044-0.1920605,0.847795
			c-0.1280632,0.5077896-0.1987114,0.7992134-0.211956,0.8742704C25.8896275,8.9301653,25.88521,9.0074081,25.88521,9.1134062
			V9.15977c0,0.0662212,0.0066185,0.1302576,0.0198727,0.1920757c0.0132465,0.0618191,0.0551929,0.125824,0.1258392,0.1920767
			c0.0706463,0.0662212,0.170002,0.1015329,0.2980499,0.1059666c0.3134975,0,0.5629826-0.2693501,0.7484398-0.8080492
			c0.0397377-0.1015644,0.0838928-0.24506,0.1324577-0.4305162c0.0485725-0.1854572,0.0750732-0.3178997,0.0794754-0.3973904
			c0-0.1457119-0.0287018-0.2605138-0.0860939-0.3444066c-0.0574017-0.0838928-0.1147957-0.1545477-0.1722126-0.2119641
			C26.9736462,7.4001765,26.9449463,7.3383579,26.9449463,7.2721052z"/>
	</g>
	<g>
		<path class="st6" d="M13.862711,49.6604843c0-0.1103363-0.0419388-0.1655045-0.1258078-0.1655045
			c-0.1059351,0-0.2162962,0.064003-0.3310595,0.1920128c-0.1147709,0.1280098-0.2096777,0.3244247-0.2847109,0.5892792
			c-0.0044184,0.0044327-0.0088282,0.0110207-0.0132456,0.0198555c-0.0044107,0.0088387-0.0066195,0.0154572-0.0066195,0.0198593
			c0,0.0044327-0.0044174,0.0088348-0.0132456,0.0132675c-0.0088282,0.0044022-0.0154476,0.006588-0.019865,0.006588
			c-0.0044098,0-0.013238,0-0.0264835,0c-0.0132465,0-0.0308943,0-0.0529757,0h-0.0926895
			c-0.0264835-0.026474-0.0397301-0.0463333-0.0397301-0.0595703c0-0.0309105,0.0176563-0.0949135,0.0529757-0.1920128
			c0.0353041-0.0970993,0.0882797-0.2118721,0.1589031-0.3443146c0.0706234-0.132412,0.1677389-0.2449646,0.291338-0.3376923
			c0.1235905-0.0926666,0.2626371-0.1412468,0.4171295-0.145649c0.1854029,0,0.3288584,0.0529823,0.4303837,0.1589165
			c0.1015253,0.105938,0.1544924,0.2295113,0.1589108,0.3707886c0,0.0750275-0.0066195,0.132412-0.0198574,0.1721268
			c0,0.0265083-0.0331182,0.1236076-0.0993242,0.2913628c-0.0662127,0.1677208-0.1346273,0.3641701-0.2052507,0.5892754
			c-0.070632,0.2251091-0.1103611,0.4215584-0.1191893,0.5892792c0,0.1192055,0.0110369,0.2163048,0.033103,0.2913628
			c0.0573931,0.1897964,0.1964312,0.2846794,0.4171371,0.2846794c0.1633215,0,0.3156204-0.0750275,0.4568682-0.2251091
			c0.1412468-0.1500816,0.2516079-0.3244247,0.3310595-0.5230904c0.0794592-0.1986313,0.1434555-0.3818092,0.1920128-0.54953
			c0.0485582-0.1677551,0.0728331-0.2891464,0.0728331-0.3641701c0-0.1015358-0.0176487-0.1898308-0.052968-0.2648544
			c-0.0353041-0.075058-0.0750332-0.1324425-0.1191807-0.1721573c-0.0441399-0.0397148-0.0838699-0.0794601-0.119174-0.119175
			c-0.0353193-0.0397453-0.0529747-0.088295-0.0529747-0.1456795c0-0.0970993,0.0419378-0.1876106,0.1258078-0.2714729
			c0.0838614-0.0838623,0.1743574-0.1257935,0.2714653-0.1257935c0.083869,0,0.1589108,0.0397148,0.2251234,0.119175
			c0.066206,0.0794601,0.1015253,0.2074699,0.1059361,0.3840256c0,0.1192055-0.0264845,0.3023834-0.0794516,0.5495644
			c-0.0529757,0.2472153-0.1346359,0.5230904-0.2449894,0.8276596c-0.1103535,0.3045654-0.2670546,0.5672035-0.4701052,0.787941
			c-0.2030506,0.2207069-0.4369946,0.3332596-0.7018566,0.3376617c-0.2825022,0-0.5076256-0.0728378-0.6753569-0.2184868
			c-0.1633282-0.1412468-0.2449894-0.3509331-0.2449894-0.6290245c0-0.1368446,0.0176563-0.2780914,0.0529757-0.4237404
			c0.0353117-0.1456833,0.1258001-0.4039154,0.2714653-0.7747078C13.8141537,49.9209366,13.862711,49.7399445,13.862711,49.6604843z
			"/>
	</g>
	<g>
		<path class="st7" d="M66.0841446,18.9903641c0-0.0352802,0.0198441-0.1036549,0.0595398-0.2051258
			c0.0396957-0.1014404,0.0948334-0.2161179,0.1654129-0.3440323c0.0705795-0.1279163,0.1676102-0.2381916,0.2911301-0.3308258
			c0.123497-0.0926342,0.253624-0.1411533,0.3903656-0.1455555c0.2028885,0,0.3550644,0.0551376,0.4565048,0.1654129
			c0.1014557,0.1102753,0.1521912,0.2403755,0.1521912,0.3903656c0,0.0793953-0.0749969,0.3263912-0.224968,0.7410164
			c-0.1499557,0.4146233-0.2249527,0.7255917-0.2249527,0.9329033c0,0.1896725,0.0308762,0.321991,0.0926361,0.3969841
			c0.0617523,0.074995,0.1543884,0.1146774,0.2778854,0.119112c0.123497,0.0044022,0.2403793-0.0330963,0.3506699-0.1124916
			c0.1102753-0.0793972,0.1918716-0.1543922,0.2448044-0.2249527l0.0727615-0.1124916
			c0.0088425-0.0176411,0.0926361-0.352869,0.2514343-1.0056839c0.1323166-0.5293007,0.2117157-0.8380527,0.2381897-0.9262848
			c0.0264587-0.0882015,0.0573196-0.1521759,0.0926208-0.1918583c0.0749893-0.0661583,0.1543732-0.0992527,0.238205-0.0992527
			c0.0749588,0,0.1300964,0.0220413,0.1653976,0.0661583c0.0352783,0.044117,0.0529327,0.0860157,0.0529327,0.1257305
			l-0.5028381,2.1039677c-0.0044174,0.0220737-0.0066223,0.057354-0.0066223,0.1058731
			c0,0.1102753,0.0154266,0.183054,0.0463181,0.2183342c0.0308762,0.0352802,0.077179,0.0551376,0.1389389,0.0595398
			c0.0970383-0.0132065,0.1742325-0.081583,0.2315674-0.2050953c0.0573425-0.1235142,0.123497-0.3175888,0.198494-0.5822239
			c0.0088196-0.0352802,0.0529251-0.0529518,0.1323166-0.0529518c0.0838013,0,0.1257172,0.0198574,0.1257172,0.0595722
			c-0.0044174,0.0220413-0.0088196,0.0529194-0.0132217,0.0926037c-0.0044174,0.0397129-0.0242615,0.1102734-0.0595551,0.2117443
			c-0.0352859,0.1014404-0.0727768,0.1962605-0.1124802,0.2844925c-0.0396957,0.088232-0.0948334,0.1720314-0.1654129,0.2514286
			c-0.0705719,0.0793972-0.1499557,0.1345348-0.2381897,0.1653824c-0.0352936,0.0088348-0.0882034,0.013237-0.1587906,0.013237
			c-0.2911148,0-0.491806-0.1235123-0.6020813-0.3705082c-0.0088196,0.0044022-0.0330811,0.0264759-0.0727768,0.0661583
			c-0.0397034,0.0397148-0.0793991,0.0727787-0.1190948,0.0992546c-0.0397034,0.0264759-0.0882187,0.0595398-0.1455536,0.0992546
			c-0.0573425,0.0396824-0.121315,0.0661583-0.1918793,0.0793648c-0.0705719,0.0132389-0.1455688,0.0242901-0.224968,0.0330944
			c-0.1940689,0-0.3661041-0.0396824-0.5160599-0.1190796c-0.2293701-0.1367512-0.3440475-0.3705387-0.3440475-0.7013321
			c0-0.2514286,0.077179-0.5800381,0.2315674-0.9858265c0.1543808-0.4058189,0.231575-0.6638355,0.231575-0.7741108
			c0-0.0044346,0-0.0088367,0-0.0132389c0-0.0397129,0-0.0661583,0-0.0793953c0-0.0132389-0.0088348-0.0286942-0.026474-0.0463028
			c-0.0176239-0.0176716-0.0419006-0.0264759-0.0727615-0.0264759h-0.0264816c-0.1014557,0-0.1940842,0.0418987-0.2778854,0.1256981
			s-0.1499786,0.1742172-0.1984787,0.271286c-0.0485306,0.0970364-0.0860291,0.1896725-0.1124878,0.277874
			c-0.0264664,0.088232-0.0441055,0.1367512-0.0529404,0.1455555c-0.0088043,0.0088348-0.0440979,0.013237-0.1058426,0.013237
			h-0.0926361C66.0973816,19.023428,66.0841446,19.003603,66.0841446,18.9903641z"/>
	</g>
	<g>
		<path class="st8" d="M4.7815413,7.0524693c-0.1537199,0-0.2350917-0.0090227-0.2441382-0.0271316
			c-0.004519-0.0090232-0.0067825-0.0271006-0.0067825-0.0542321c0-0.1084952,0.0248756-0.1831155,0.074604-0.2237973
			C4.6142635,6.7427812,4.6526971,6.7405334,4.720511,6.7405334c0.1853552,0.0090232,0.4927878,0.0135503,0.9222817,0.0135503
			c0.1537199,0,0.2961302,0,0.4272456,0c0.1311078,0,0.2328281-0.0022483,0.3051686-0.0067754
			c0.0723333-0.0045271,0.1175423-0.0045271,0.1356349,0c0.0723252,0,0.1084957,0.0226045,0.1084957,0.0678139
			c0,0.0090227-0.0045195,0.0406818-0.0135579,0.094945c-0.0226126,0.0768681-0.045217,0.122077-0.0678139,0.1356273H6.5244002
			c-0.0090466,0-0.0203409,0-0.0339069,0s-0.0293875,0-0.0474725,0c-0.0180855,0-0.0384264,0.0022478-0.0610385,0.0067749
			c-0.0226045,0.0045276-0.0429454,0.0045276-0.0610309,0C6.1446271,7.0569968,6.0316043,7.0637717,5.9818759,7.0728259
			C5.9321475,7.0818491,5.891458,7.1067328,5.859807,7.1474147C5.8552876,7.1564689,5.7919931,7.3938165,5.6699162,7.8594885
			C5.5478549,8.32516,5.4257936,8.813405,5.3037167,9.3242865c-0.1220613,0.5108805-0.1898823,0.8115463-0.2034483,0.9019642
			c-0.0090308,0.0632868-0.0135579,0.1288204-0.0135579,0.1966343c0,0.244154,0.0700769,0.4362926,0.2102313,0.5764465
			c0.1401463,0.1401539,0.3345561,0.2102156,0.5832062,0.2102156c0.3029132,0,0.6058183-0.1017199,0.9087315-0.3051605
			c0.3029051-0.2034407,0.5244389-0.5108814,0.6645932-0.9222898l0.3458505-1.3630772
			C8.0118179,7.7509928,8.1180658,7.298871,8.1180658,7.2626853c0-0.1220455-0.1446815-0.1921387-0.434021-0.210216
			c-0.1085033,0-0.1627588-0.0248523-0.1627588-0.0745883c0-0.0090547,0.0045195-0.0361547,0.0135579-0.0813642
			c0.0180931-0.072372,0.031651-0.1153016,0.0406976-0.1288829c0.0090389-0.0135503,0.0316434-0.0226045,0.0678139-0.0271006
			c0.0135655,0,0.0858908,0.0022478,0.2170143,0.0067749c0.1311078,0.0045271,0.3209829,0.0090232,0.5696478,0.0135503
			c0.2305727,0,0.406889-0.0022478,0.5289583-0.0067749C9.0810375,6.7495565,9.146595,6.7473083,9.1556339,6.7473083
			c0.0678215,0,0.1017275,0.0226045,0.1017275,0.0678139c0,0.0994411-0.0180845,0.1672859-0.0542469,0.2034407
			C9.1895409,7.0411673,9.1398201,7.0524693,9.0539131,7.0524693C8.7329226,7.0705466,8.5317383,7.160965,8.4503584,7.3237548
			C8.4413118,7.3463593,8.328289,7.7826204,8.1112833,8.6325693C7.9259195,9.3966274,7.8128891,9.8464699,7.7721996,9.9820967
			c-0.1491852,0.4520903-0.409153,0.820569-0.7798796,1.1054049c-0.370719,0.2848358-0.7550035,0.4294863-1.1528621,0.4340134
			c-0.4159279,0-0.7482204-0.1265736-0.9968858-0.3797808c-0.2486577-0.2531462-0.375246-0.5538111-0.3797655-0.9019337v-0.1084948
			c0-0.0813951,0.1243329-0.6194077,0.3729825-1.614007c0.2215414-0.9087391,0.3323007-1.3766589,0.3323007-1.403791
			C5.1680899,7.0818491,5.0392375,7.0615239,4.7815413,7.0524693z"/>
	</g>
	<rect x="56.5773659" y="66.0770187" class="st9" width="0.3561617" height="0.3561773"/>
	<line class="st7" x1="56.7554398" y1="66.2551117" x2="66.812439" y2="27.8227386"/>
	<line class="st10" x1="56.7554398" y1="66.2551117" x2="66.812439" y2="27.8227386"/>
	<g>
		<polygon class="st7" points="67.8389587,23.8999786 68.5916061,29.5915737 66.8124542,27.8227386 64.3949432,28.4933815 		"/>
	</g>
	<line class="st6" x1="56.7554398" y1="66.2551117" x2="18.3158875" y2="56.2106781"/>
	<line class="st11" x1="56.7554398" y1="66.2551117" x2="18.3158875" y2="56.2106781"/>
	<g>
		<polygon class="st6" points="14.3927622,55.1855736 20.0840816,54.4309158 18.3158875,56.2107086 18.987381,58.6279869 		"/>
	</g>
</g>
</svg>
