<?xml version="1.0" encoding="utf-8"?>
<!-- Generator: Adobe Illustrator 24.0.1, SVG Export Plug-In . SVG Version: 6.00 Build 0)  -->
<svg version="1.1" xmlns="http://www.w3.org/2000/svg" xmlns:xlink="http://www.w3.org/1999/xlink" x="0px" y="0px"
viewBox="0 0 237.0162201 74.5179672"
	 style="enable-background:new 0 0 237.0162201 74.5179672;" xml:space="preserve">
<style type="text/css">
	.st0{clip-path:url(#SVGID_2_);}
	.st1{clip-path:url(#SVGID_4_);}
	.st2{clip-path:url(#SVGID_6_);}
	.st3{clip-path:url(#SVGID_8_);}
	.st4{clip-path:url(#SVGID_10_);}
	.st5{clip-path:url(#SVGID_12_);}
	.st6{clip-path:url(#SVGID_14_);}
	.st7{clip-path:url(#SVGID_16_);}
	.st8{clip-path:url(#SVGID_18_);}
	.st9{clip-path:url(#SVGID_20_);}
	.st10{clip-path:url(#SVGID_22_);}
	.st11{clip-path:url(#SVGID_24_);}
	.st12{clip-path:url(#SVGID_26_);}
	.st13{opacity:0.3;fill:url(#SVGID_27_);enable-background:new    ;}
	.st14{fill:url(#SVGID_28_);}
	.st15{fill:#9BDA32;fill-opacity:0.5;}
	.st16{opacity:0.3;fill:url(#SVGID_29_);enable-background:new    ;}
	.st17{fill:url(#SVGID_30_);}
	.st18{opacity:0.3;fill:url(#SVGID_31_);enable-background:new    ;}
	.st19{fill:url(#SVGID_32_);}
	.st20{fill:#FFFFFF;}
	.st21{fill:#D2836A;fill-opacity:0.5;}
	.st22{opacity:0.3;fill:url(#SVGID_33_);enable-background:new    ;}
	.st23{fill:url(#SVGID_34_);}
	.st24{opacity:0.3;fill:url(#SVGID_35_);enable-background:new    ;}
	.st25{fill:url(#SVGID_36_);}
	.st26{fill:#4DAF2D;fill-opacity:0.5;}
	.st27{fill:#953551;fill-opacity:0.5;}
	.st28{fill:#D83589;fill-opacity:0.5;}
	.st29{opacity:0.3;fill:url(#SVGID_37_);enable-background:new    ;}
	.st30{fill:url(#SVGID_38_);}
	.st31{opacity:0.3;fill:url(#SVGID_39_);enable-background:new    ;}
	.st32{fill:url(#SVGID_40_);}
	.st33{fill:#D0AEC4;fill-opacity:0.5;}
	.st34{fill:#CA2C50;fill-opacity:0.5;}
</style>
<g id="Layer_1">
</g>
<g id="Layer_2">
	<g id="Layer_1_1_">
		<g>
			<line x1="176.2216034" y1="66.4521942" x2="174.2138672" y2="44.6508255"/>
			<polyline points="176.4464722,66.4314804 174.438736,44.6300964 173.9889984,44.6715279 175.9967346,66.4729004 			"/>
			<g>
				<defs>
					
						<rect id="SVGID_1_" x="172.2720337" y="41.2279739" transform="matrix(0.9957868 -0.0916987 0.0916987 0.9957868 -3.2530441 16.1484203)" width="3.6671724" height="4.4937515"/>
				</defs>
				<clipPath id="SVGID_2_">
					<use xlink:href="#SVGID_1_"  style="overflow:visible;"/>
				</clipPath>
				<polygon class="st0" points="173.8995209,41.237442 176.1375122,45.5441551 174.2138672,44.6508255 172.4857941,45.8803635 				
					"/>
			</g>
			<line x1="155.217926" y1="54.5723419" x2="166.0379944" y2="42.0311623"/>
			<polyline points="155.3889008,54.719841 166.2089691,42.1786575 165.8670197,41.8836479 155.046936,54.4248276 			"/>
			<g>
				<defs>
					
						<rect id="SVGID_3_" x="164.5626984" y="39.3033638" transform="matrix(0.6532693 -0.7571256 0.7571256 0.6532693 26.6921444 140.5592346)" width="4.4937024" height="3.6671913"/>
				</defs>
				<clipPath id="SVGID_4_">
					<use xlink:href="#SVGID_3_"  style="overflow:visible;"/>
				</clipPath>
				<polygon class="st1" points="168.2772675,39.43573 166.7300415,44.0358963 166.0379944,42.0311623 163.9534454,41.6403198 				
					"/>
			</g>
			<line x1="211.8676605" y1="66.7008286" x2="213.9400177" y2="44.1990089"/>
			<polyline points="212.092514,66.7215347 214.1648712,44.2197151 213.7151489,44.1782837 211.6427917,66.6801071 			"/>
			<g>
				<defs>
					
						<rect id="SVGID_5_" x="211.8013306" y="41.1893272" transform="matrix(0.0916987 -0.9957868 0.9957868 0.0916987 151.5785065 252.2241974)" width="4.4936724" height="3.6673374"/>
				</defs>
				<clipPath id="SVGID_6_">
					<use xlink:href="#SVGID_5_"  style="overflow:visible;"/>
				</clipPath>
				<polygon class="st2" points="214.2542114,40.7856293 215.6680756,45.4285507 213.9400177,44.1990089 212.0162048,45.092186 				
					"/>
			</g>
			<line x1="232.8822784" y1="54.5650597" x2="221.7758789" y2="41.6876717"/>
			<polyline points="233.0532684,54.4175606 221.9468689,41.5401726 221.6048737,41.8351479 232.7112732,54.7125359 			"/>
			<g>
				<defs>
					
						<rect id="SVGID_7_" x="219.1708374" y="38.5465202" transform="matrix(0.757223 -0.6531564 0.6531564 0.757223 27.0103111 154.2541962)" width="3.6672924" height="4.4938116"/>
				</defs>
				<clipPath id="SVGID_8_">
					<use xlink:href="#SVGID_7_"  style="overflow:visible;"/>
				</clipPath>
				<polygon class="st3" points="219.5369263,39.0919228 223.8605804,41.2973022 221.7758789,41.6876717 221.0835114,43.6924019 
									"/>
			</g>
			<line x1="175.4217072" y1="30.6652031" x2="187.6847992" y2="13.7379665"/>
			<polyline points="175.6045837,30.7976742 187.8676605,13.8704386 187.5019379,13.6054754 175.2388458,30.532711 			"/>
			<g>
				<defs>
					
						<rect id="SVGID_9_" x="186.1308594" y="10.9478922" transform="matrix(0.5866956 -0.8098076 0.8098076 0.5866956 67.5067749 157.8323822)" width="4.4937239" height="3.6672671"/>
				</defs>
				<clipPath id="SVGID_10_">
					<use xlink:href="#SVGID_9_"  style="overflow:visible;"/>
				</clipPath>
				<polygon class="st4" points="189.6958771,10.9619999 188.5444031,15.6768198 187.6847992,13.7379665 185.5746002,13.5252838 
									"/>
			</g>
			<line x1="212.8238525" y1="30.8503304" x2="200.4293213" y2="13.7385998"/>
			<polyline points="213.0067291,30.7178593 200.6121979,13.6061287 200.2464447,13.8710518 212.640976,30.9827824 			"/>
			<g>
				<defs>
					
						<rect id="SVGID_11_" x="197.9026947" y="10.5353336" transform="matrix(0.8098532 -0.5866325 0.5866325 0.8098532 30.4807663 119.6023254)" width="3.6672559" height="4.4937305"/>
				</defs>
				<clipPath id="SVGID_12_">
					<use xlink:href="#SVGID_11_"  style="overflow:visible;"/>
				</clipPath>
				<polygon class="st5" points="198.4184113,10.9626331 202.5393677,13.5262337 200.4293213,13.7385998 199.5694122,15.677454 				
					"/>
			</g>
			<g>
				<defs>
					<rect id="SVGID_13_" x="174.8934021" y="68.4954071" width="3.350512" height="3.4308028"/>
				</defs>
				<clipPath id="SVGID_14_">
					<use xlink:href="#SVGID_13_"  style="overflow:visible;"/>
				</clipPath>
				<path class="st6" d="M175.2726898,70.5874023c0-0.2894897,0.0842438-0.5675812,0.2529144-0.8344193
					c0.1686554-0.2668457,0.3813324-0.4782639,0.6380463-0.6342545c0.2566986-0.1561432,0.5135803-0.2353287,0.7702789-0.2378616
					c0.2264557,0,0.4065247,0.0641403,0.5398712,0.1925735l0.0566864,0.0641327l0.0300903,0.0376968l0.0037994,0.0113983
					c0.0075989,0,0.0414886-0.0327835,0.1019897-0.0981827l0.0565338-0.0528946l0.0605011-0.0603409l0.0376892-0.0414886
					l0.0566864-0.056694h0.022644c0.0351715,0,0.0529022,0.0088654,0.0529022,0.0264435
					c0,0.0099792-0.04039,0.1824417-0.1208344,0.5172195c-0.0905762,0.3498306-0.1358795,0.5260849-0.1358795,0.5286179
					l-0.0189972,0.0226517c-0.0074463,0.002533-0.0300903,0.0049057-0.0679474,0.0074387h-0.0603333l-0.022644-0.0338898
					l0.0037994-0.0264435c0.0023804-0.0150452,0.0049133-0.0402298,0.0074463-0.0755386
					c0.002533-0.0351562,0.0037994-0.0755386,0.0037994-0.1208344c0-0.1786346-0.0402222-0.3347855-0.1208344-0.4681244
					c-0.0804443-0.1333466-0.2177429-0.2012787-0.4114227-0.2038116c-0.0454559,0-0.0943909,0.0037994-0.1472778,0.0112381
					c-0.0529022,0.0076065-0.1195679,0.0239182-0.2001801,0.0490952c-0.0804443,0.025177-0.1572571,0.0603333-0.2302551,0.1057892
					c-0.0730133,0.0452881-0.1523438,0.105629-0.2378693,0.1811676c-0.0855103,0.0755386-0.1585236,0.164856-0.2190094,0.2681122
					c-0.0603485,0.103096-0.1195679,0.2315292-0.1773682,0.3849792c-0.0579681,0.1536179-0.0969238,0.3222733-0.1170349,0.5059738
					c-0.0050659,0.0452957-0.0075989,0.0943832-0.0075989,0.1472778c0,0.1208344,0.0175781,0.2277298,0.052887,0.3208466
					c0.0351562,0.0931168,0.0804443,0.164856,0.1358795,0.2152176c0.0554199,0.0503616,0.1183014,0.0931168,0.1887665,0.1284332
					c0.0704803,0.0351562,0.1358795,0.0565414,0.1963806,0.0641403c0.0603333,0.0075989,0.1170197,0.0125122,0.1699219,0.0150452
					c0.1358795,0,0.2605133-0.0288239,0.3737335-0.0867844c0.1132355-0.0579605,0.1912994-0.1320801,0.2340698-0.2228165
					c0.0075989-0.0201187,0.0264435-0.0893173,0.0566864-0.2076187c0.0300903-0.1183014,0.0452881-0.184967,0.0452881-0.2000122
					c0-0.0201111-0.0164642-0.0327835-0.0490875-0.0378494c-0.0327759-0.0050659-0.1083221-0.0087128-0.2266235-0.0112457
					h-0.1396637l-0.0226593-0.0302505c0-0.0050659,0.002533-0.0289764,0.0076141-0.0717392
					c0.009964-0.0327759,0.022644-0.056694,0.0376892-0.0717316h0.0641327
					c0.1007233,0.0050659,0.2769775,0.0075989,0.5286255,0.0075989c0.100708,0,0.1824341,0,0.2454529,0
					c0.0628815,0,0.1081696-0.0012665,0.1358795-0.0037994h0.0452881c0.0353241,0,0.0529022,0.0112381,0.0529022,0.0338898
					c0,0.0050659-0.002533,0.0228043-0.0075989,0.0528946c-0.0125122,0.047821-0.025177,0.0742722-0.0376892,0.0793381
					c-0.0076141,0.002533-0.0264587,0.0037994-0.0567017,0.0037994c-0.050354,0-0.1019897,0.0037994-0.1547241,0.0112457
					l-0.0378418,0.03405c-0.0074463,0.0150452-0.025177,0.0791779-0.0527344,0.1925659
					c-0.022644,0.0829849-0.0416565,0.1534576-0.0567017,0.2114182c-0.0628662,0.2567062-0.0981903,0.3887863-0.1057892,0.3963852
					l-0.0188446,0.0075989c-0.025177,0-0.0603333-0.025177-0.1056213-0.0755386
					c-0.0453033-0.050354-0.0742798-0.0893173-0.0869446-0.1170273h-0.0074463l-0.022644,0.0188446
					c-0.1862335,0.1737213-0.4380341,0.2605057-0.7550812,0.2605057c-0.3046875,0-0.5512695-0.0969162-0.740036-0.2907562
					C175.3708801,71.1372452,175.2752228,70.8894043,175.2726898,70.5874023z"/>
			</g>
			<g>
				<defs>
					<rect id="SVGID_15_" x="151.216217" y="55.6427269" width="3.3896282" height="3.2102015"/>
				</defs>
				<clipPath id="SVGID_16_">
					<use xlink:href="#SVGID_15_"  style="overflow:visible;"/>
				</clipPath>
				<path class="st7" d="M151.6890869,58.4658852c-0.0424347,0-0.0636597-0.0125084-0.0636597-0.0375328
					c0-0.0049095,0.0037994-0.0223274,0.0112457-0.0522575c0.0099792-0.0399094,0.0199585-0.062397,0.0299225-0.0673065
					c0.0099792-0.0049095,0.0386505-0.008709,0.0859985-0.0112419c0.0673065,0,0.1420593-0.0038033,0.2243958-0.0112457
					c0.0348511-0.0074425,0.0585938-0.0223274,0.071106-0.0448151c0.0049133-0.0125122,0.0934448-0.3628159,0.2654266-1.0509071
					c0.1721344-0.6880913,0.2593994-1.0371284,0.2617798-1.0471039l-0.0148926-0.0261307
					c-0.0199585-0.0074425-0.0859985-0.0137787-0.1982727-0.0188446h-0.115921l-0.0223236-0.0297737
					c0-0.0050659,0.0023651-0.0262871,0.007431-0.0636597c0.0099792-0.0424423,0.0223389-0.068573,0.037384-0.0785522h2.0156555
					l0.0262909,0.0411758c0,0.0125122-0.0163116,0.1520309-0.0486145,0.4188728
					c-0.0324707,0.2668457-0.0498962,0.4038315-0.0524292,0.411274c-0.0048981,0.0175781-0.0299225,0.0262871-0.0747375,0.0262871
					h-0.0449829l-0.026123-0.0486183c0-0.002533,0.0037994-0.0324631,0.0112457-0.0897903
					c0.007431-0.0573273,0.0112305-0.1233673,0.0112305-0.1982727c0-0.074749-0.0086975-0.1358757-0.0262756-0.1832275
					c-0.0174255-0.0473518-0.0410309-0.0859909-0.0709534-0.1159248c-0.0299377-0.0299301-0.0760193-0.049881-0.1384125-0.0597
					c-0.0623932-0.0101357-0.1259003-0.0186882-0.1906738-0.0262909c-0.0649261-0.0074425-0.1545563-0.008709-0.2693787-0.0037994
					h-0.0859833c-0.2044525,0.002533-0.3129272,0.0063324-0.3252869,0.0114021l-0.0262909,0.0297737
					c-0.0023651,0.002533-0.0448151,0.1658058-0.1269989,0.4899788l-0.1197205,0.4823761h0.2057037
					c0.0074463,0,0.0361176,0,0.0859985,0s0.0847168-0.0012665,0.1046753-0.0037994
					c0.0199585-0.0023766,0.047348-0.006176,0.0823517-0.0110855c0.0348358-0.0050697,0.0647736-0.0137787,0.0896301-0.0262909
					l0.0636597-0.0448151c0.0323181-0.0299301,0.0598755-0.071106,0.0821991-0.1233673
					c0.0224915-0.0524178,0.0386353-0.0997696,0.0486145-0.1422119c0.0099792-0.0422821,0.0163116-0.0647697,0.018692-0.0673027
					c0.0075989-0.0125122,0.031189-0.0186882,0.071106-0.0186882h0.0448151l0.0262909,0.0373764
					c0,0.0074425-0.0386505,0.1708717-0.115921,0.4899788c-0.0772858,0.3191032-0.1197357,0.4836426-0.1271667,0.493618
					c-0.0050659,0.0174217-0.0299377,0.0261307-0.0749054,0.0261307h-0.0448303l-0.026123-0.0448151
					c0-0.0074425,0.0061798-0.0348396,0.018692-0.0823517c0.0125122-0.047348,0.0186768-0.0972328,0.0186768-0.1494942
					c0-0.0723724-0.0248566-0.1171913-0.0747375-0.1346092c-0.0498962-0.0174217-0.1609039-0.0262909-0.3328857-0.0262909h-0.205719
					l-0.1197205,0.4750938c-0.0796509,0.3091278-0.1195679,0.4711342-0.1195679,0.4861794
					c0,0.0348396,0.1108551,0.0522614,0.3327332,0.0522614h0.0935822l0.0224915,0.0261269
					c0,0.0025368-0.002533,0.0273972-0.0075989,0.0749092c-0.0099792,0.0323067-0.0223389,0.0560608-0.0373688,0.0709457h-0.0635071
					c-0.1023102-0.0049095-0.290451-0.0074425-0.5647278-0.0074425c-0.1620026,0-0.2855377,0-0.3702545,0
					C151.7464142,58.4620857,151.6990662,58.4633522,151.6890869,58.4658852z"/>
			</g>
			<g>
				<defs>
					<rect id="SVGID_17_" x="209.8127289" y="68.6110153" width="3.4605753" height="3.2102015"/>
				</defs>
				<clipPath id="SVGID_18_">
					<use xlink:href="#SVGID_17_"  style="overflow:visible;"/>
				</clipPath>
				<path class="st8" d="M211.9534912,70.6414032c-0.0497284,0-0.0747528-0.0163116-0.0747528-0.0486145
					c0-0.0099792,0.0063324-0.0399094,0.018692-0.089798c0.0123444-0.049881,0.018692-0.0935898,0.018692-0.1309662
					c0-0.0772781-0.0262909-0.1246338-0.0785522-0.1420517s-0.1732483-0.0261307-0.3626556-0.0261307h-0.1944733
					c-0.002533,0.0049133-0.0462494,0.1768951-0.1308136,0.5161133c-0.0848846,0.3390579-0.1273193,0.5135727-0.1273193,0.5235519
					l0.0411682,0.0148849c0.0275574,0,0.1270142,0.002533,0.2993164,0.0074387c0.234375,0,0.3889465-0.0023727,0.4636841-0.0074387
					c0.0747528-0.0049133,0.1495056-0.021225,0.2242432-0.0486221c0.1222687-0.0399017,0.2232971-0.1097412,0.3031158-0.2093582
					c0.0794983-0.0997696,0.1681824-0.2630386,0.2654114-0.489975c0.0250244-0.0547943,0.0411835-0.0847244,0.0484619-0.0897903
					l0.0563812-0.0074463c0.0497284,0,0.0747528,0.0161514,0.0747528,0.0486145
					c-0.2619324,0.6333008-0.3990784,0.9562073-0.411438,0.9685593c-0.0075989,0.0050659-0.3639221,0.0075989-1.0695953,0.0075989
					h-0.7069397c-0.2543182,0-0.3813324-0.0137787-0.3813324-0.0411758c0-0.0050659,0.0037994-0.0224838,0.0110779-0.0524139
					c0.0101471-0.0399094,0.0199585-0.0622406,0.0300903-0.0673065c0.0098267-0.0049057,0.0386505-0.0087128,0.0858459-0.0112457
					c0.0674591,0,0.1421967-0.0036392,0.2245483-0.0112381c0.0348511-0.0074463,0.0585938-0.0223312,0.0709534-0.0448227
					c0.0050659-0.0125122,0.0934296-0.3628082,0.2654114-1.0509033c0.1723022-0.6880951,0.2593994-1.0371246,0.2619476-1.0471039
					l-0.0148926-0.0261307c-0.0199585-0.0075989-0.0861511-0.0137787-0.1982727-0.0186844h-0.115921l-0.0224915-0.0299301
					c0-0.0050735,0.002533-0.0262909,0.0075989-0.0636673c0.0098267-0.0422821,0.0224915-0.068573,0.037384-0.0785446h2.0717163
					l0.0262909,0.0411758c0,0.0125046-0.0161591,0.1520233-0.0487823,0.418869
					c-0.0323029,0.2666855-0.0497284,0.4038315-0.0522614,0.4114304c-0.0050659,0.0174179-0.0297699,0.0261307-0.0747375,0.0261307
					h-0.0449829l-0.0259705-0.0486145l0.0110779-0.0859909c0.0076141-0.0598679,0.0110931-0.1246338,0.0110931-0.1944733
					c0-0.0749054-0.0085449-0.137146-0.0259705-0.187027c-0.0174255-0.0498886-0.0411835-0.0885315-0.0712585-0.1159286
					c-0.0297852-0.0273972-0.0734863-0.047348-0.1308136-0.0598602s-0.115921-0.0212173-0.1757812-0.0261307
					c-0.0598602-0.0050659-0.139679-0.0074387-0.2394562-0.0074387h-0.1757812
					c-0.2191772,0.0023727-0.3350983,0.0061722-0.3477631,0.0110855l-0.022171,0.0337296
					c-0.002533,0.0074463-0.0411835,0.1607361-0.115921,0.4600449c-0.0750732,0.2991562-0.1137085,0.4511795-0.115921,0.4562531
					c0.0573273,0.0023727,0.1168671,0.0036392,0.1792603,0.0036392h0.0972443c0.1646881,0,0.2780762-0.0186844,0.3404694-0.0560608
					c0.0624084-0.0373764,0.1184692-0.1384125,0.1681824-0.302948c0.0101471-0.0399094,0.0174255-0.0622406,0.0224915-0.0673065
					c0.0050659-0.0049133,0.0262909-0.0087128,0.0636597-0.0112457h0.0297852l0.0186768,0.0037994l0.0075989,0.0038071
					l0.0072937,0.0148849l0.0113983,0.0150452l-0.1235199,0.4936218c-0.0823517,0.3316116-0.1270142,0.499794-0.134613,0.5048599
					C212.0057526,70.6376038,211.9861145,70.6414032,211.9534912,70.6414032z"/>
			</g>
			<g>
				<defs>
					<rect id="SVGID_19_" x="233.3820648" y="55.6386108" width="3.6341424" height="3.2236624"/>
				</defs>
				<clipPath id="SVGID_20_">
					<use xlink:href="#SVGID_19_"  style="overflow:visible;"/>
				</clipPath>
				<path class="st9" d="M236.2833099,56.7161179c0-0.0951767-0.0136261-0.1803741-0.0411835-0.2554398
					s-0.0601807-0.133976-0.0975494-0.1764183c-0.0376892-0.0425987-0.0839386-0.0788651-0.1390381-0.1089554
					c-0.0551147-0.0300865-0.1038971-0.0500412-0.1463318-0.0600204c-0.0427551-0.0101318-0.0864716-0.0188446-0.1314392-0.0262871
					c-0.0050659,0-0.0224915,0-0.0525818,0s-0.0665131,0-0.108963,0c-0.0427551,0-0.0839233-0.0012665-0.1238403-0.0037994
					h-0.1615295c-0.1102142,0-0.1729279,0.0125084-0.1878204,0.0375328
					c-0.0050659,0.0099754-0.096283,0.3705711-0.2742767,1.0814667c-0.1776886,0.7110558-0.2663727,1.0702248-0.2663727,1.0778275
					l0.0411682,0.0150452c0.0275574,0,0.1238403,0.0011101,0.2891846,0.003643c0.0123444,0,0.0364227,0,0.0712585,0
					c0.0351562,0,0.0652466,0.0012665,0.090271,0.0037994c0.3154602,0,0.5758057-0.1026192,0.7810516-0.3078575
					c0.0899506-0.090271,0.1640625-0.1954231,0.2213898-0.315464c0.0576477-0.1201973,0.111496-0.2791939,0.1615295-0.4769936
					C236.2582855,57.0064011,236.2833099,56.8437614,236.2833099,56.7161179z M234.7212067,56.118927
					c0-0.0174179-0.0712738-0.0286636-0.2141113-0.0337296c-0.0573273,0-0.0950165-0.0012665-0.112442-0.0038033
					l-0.0262909-0.0337296c0-0.0201111,0.0047455-0.0451355,0.0148926-0.075222
					c0.0101318-0.0299339,0.0186768-0.0487785,0.0262756-0.056221c0.0050812-0.002533,0.2540283-0.0037994,0.7471771-0.0037994
					c0.4180756,0.002533,0.6524506,0.0037994,0.7024994,0.0037994c0.0500336,0,0.1000824,0.0074425,0.1501312,0.0224876
					c0.1802063,0.0425987,0.3328705,0.1414185,0.4579773,0.2966156c0.1254272,0.1551971,0.1890869,0.3631287,0.1916351,0.6234818
					c0,0.3905258-0.1339874,0.7409859-0.4019318,1.0513802c-0.2676392,0.3103943-0.5830994,0.4956779-0.9460754,0.5558586
					l-0.0525665,0.0074425l-0.7288055,0.0037994h-0.4168091h-0.1988983c-0.0601807,0-0.0988312-0.002533-0.1165619-0.0074425
					l-0.0297699-0.0338898c0-0.0050659,0.0037994-0.0224876,0.0110779-0.052578
					c0.0101471-0.0400658,0.0199585-0.0625534,0.0300903-0.0676193c0.0101318-0.0049095,0.0389557-0.0087128,0.0864716-0.0112457
					c0.0674591,0,0.1425323-0.0037994,0.2251892-0.0112419c0.0351562-0.0074425,0.0589142-0.0224876,0.0712738-0.0451355
					c0.0075989-0.0099754,0.0978699-0.3579025,0.2704773-1.0439377
					C234.6347351,56.518322,234.7212067,56.1564598,234.7212067,56.118927z"/>
			</g>
			<g>
				<defs>
					<rect id="SVGID_21_" x="171.532608" y="32.0043297" width="3.350512" height="3.4308028"/>
				</defs>
				<clipPath id="SVGID_22_">
					<use xlink:href="#SVGID_21_"  style="overflow:visible;"/>
				</clipPath>
				<path class="st10" d="M171.9609833,34.0963211c0-0.2894897,0.0843964-0.5675774,0.2528992-0.8344193
					c0.1686554-0.2668457,0.3813477-0.47826,0.6380463-0.6342506c0.2568665-0.156147,0.5135803-0.2353287,0.7702942-0.2378616
					c0.2264557,0,0.4065094,0.0641365,0.539856,0.1925697l0.0567017,0.0641403l0.0300903,0.0378456l0.0037994,0.0112457
					c0.0075989,0,0.0414886-0.0327797,0.1019897-0.0981865l0.0566864-0.0527344l0.0603333-0.0604973l0.0376892-0.0414886
					l0.0567017-0.056694h0.022644c0.0351562,0,0.0529022,0.0088654,0.0529022,0.0264473
					c0,0.0101318-0.04039,0.1824341-0.1208344,0.5172157c-0.0905914,0.3498268-0.1358795,0.5260849-0.1358795,0.5286217
					l-0.0190125,0.022644c-0.007431,0.002533-0.0300751,0.0050697-0.0679321,0.0076027h-0.0603333l-0.022644-0.03405
					l0.0037994-0.0264473c0.002533-0.0150452,0.0048981-0.0402222,0.0074463-0.0755386
					c0.002533-0.0351562,0.0037994-0.0755386,0.0037994-0.1208305c0-0.1786346-0.0402374-0.3347816-0.1208344-0.4681244
					c-0.0804596-0.1333427-0.2177582-0.2012825-0.411438-0.2038155c-0.0655518,0-0.1360321,0.008709-0.2114105,0.0264473
					c-0.0755463,0.0175781-0.1661224,0.0478249-0.2719116,0.0905838c-0.1056366,0.0427589-0.210144,0.1132278-0.3134003,0.2114143
					c-0.1031036,0.0981865-0.1949463,0.2152176-0.2755585,0.3510933c-0.0806122,0.1434784-0.1447449,0.3108711-0.1925659,0.5021744
					c-0.0478363,0.1913033-0.0717468,0.3472939-0.0717468,0.4681244c0,0.2869568,0.0956573,0.4933052,0.2869568,0.6192055
					c0.1208344,0.0855141,0.2693787,0.1284332,0.4454803,0.1284332c0.2291565,0,0.4329681-0.0856743,0.6116028-0.2568665
					c0.1787872-0.1710358,0.2970886-0.3574295,0.3548889-0.558712c0.0101471-0.0327797,0.017746-0.0516243,0.0226593-0.056694
					c0.0050659-0.0050659,0.025177-0.0074425,0.0604858-0.0074425c0.0503693,0,0.0755463,0.0112457,0.0755463,0.0338898
					l-0.0037994,0.03405c-0.0730133,0.2692184-0.2291565,0.5009041-0.4681244,0.6945839
					c-0.2391357,0.19384-0.4958496,0.2907562-0.7702942,0.2907562c-0.2844238,0-0.5248108-0.0943832-0.7210236-0.2831535
					C172.0591583,34.6588326,171.9609833,34.4084587,171.9609833,34.0963211z"/>
			</g>
			<g>
				<defs>
					<rect id="SVGID_23_" x="213.2026672" y="32.1110687" width="3.4032474" height="3.223979"/>
				</defs>
				<clipPath id="SVGID_24_">
					<use xlink:href="#SVGID_23_"  style="overflow:visible;"/>
				</clipPath>
				<path class="st11" d="M215.712738,34.0899887c0-0.1100655-0.0288239-0.2014389-0.0861511-0.274128
					c-0.0576477-0.0726891-0.1327057-0.1151314-0.2255096-0.1276436c-0.0148773-0.002533-0.1187744-0.0037994-0.3116608-0.0037994
					c-0.2955017,0-0.4443665,0.0012665-0.4468994,0.0037994c0,0.0049095-0.021225,0.0964432-0.0639801,0.274128
					c-0.04245,0.1776848-0.0864716,0.3542633-0.1314392,0.5295715l-0.0674744,0.262886
					c0,0.0099754,0.0148926,0.0150414,0.0449829,0.0150414s0.1314392,0.0025368,0.3043823,0.0074463
					c0.2226562,0,0.3430023-0.0012703,0.3604279-0.003643c0.1551971-0.0175781,0.2980499-0.0901108,0.4282227-0.2179108
					C215.6478119,34.4280968,215.712738,34.2727394,215.712738,34.0899887z M215.9157562,32.9070053
					c0-0.0750618-0.0189972-0.1452179-0.056366-0.2103043c-0.0376892-0.0650902-0.0991364-0.1076889-0.184021-0.1278
					c-0.017746-0.0049095-0.1327057-0.0087128-0.3455505-0.0112457c-0.0500488,0-0.1026306,0-0.1577301,0
					c-0.0551147,0-0.0991364,0.0012665-0.1314392,0.0037994h-0.0487823
					c-0.0376892,0.0025368-0.0614471,0.0150452-0.071579,0.0375328c-0.0050659,0.0099792-0.0449829,0.1602669-0.1200409,0.4507065
					l-0.0037994,0.0224876l-0.1165619,0.4733505h0.3043823c0.2026978,0,0.3192596-0.002533,0.34935-0.0076027
					c0.1501312-0.0250206,0.2841034-0.0975533,0.4016113-0.2177505
					C215.8530579,33.1999817,215.9132233,33.0622025,215.9157562,32.9070053z M214.3457336,32.5576553
					c-0.0674591,0-0.1076813-0.0012665-0.1200409-0.0037994l-0.0189972-0.0411758
					c0-0.0676231,0.0139313-0.1089554,0.0414886-0.1240005c0.002533-0.002533,0.1650238-0.0037994,0.4880829-0.0037994
					c0.6486664,0,0.9904022,0.002533,1.0252533,0.0076027c0.1577301,0.0250206,0.2894897,0.081398,0.3946381,0.168972
					c0.1051483,0.0875778,0.1589966,0.2028656,0.1612091,0.3455505c0,0.1602669-0.072525,0.3042183-0.2175903,0.4318619
					c-0.1453705,0.1278-0.3119659,0.2141075-0.4994812,0.259243l-0.0376892,0.0112419
					c0.1602631,0.0224876,0.2917175,0.0801315,0.3943329,0.1727753s0.1551971,0.2077751,0.1577301,0.3455505
					c0,0.1827545-0.090271,0.359169-0.2704926,0.5295715c-0.1802063,0.1700821-0.4016113,0.2665253-0.6648102,0.2891731
					c-0.0174103,0.0023727-0.2815704,0.003643-0.79245,0.003643c-0.5007477,0-0.7547607-0.0023766-0.7623749-0.0074463
					l-0.0148773-0.0300865l0.0075989-0.052578c0.0123596-0.0475082,0.0250244-0.0737991,0.0373688-0.0788651l0.0563812-0.0037994
					h0.0224915c0.0677795,0,0.1428375-0.003643,0.2255096-0.0112457c0.0348358-0.0074425,0.0585938-0.0224876,0.0712585-0.0449753
					c0.0075989-0.0101357,0.0975647-0.3580627,0.2704926-1.0440941c0.1726227-0.6860352,0.259079-1.0478973,0.259079-1.0854301
					C214.559845,32.573967,214.4885864,32.5627251,214.3457336,32.5576553z"/>
			</g>
			<g>
				<defs>
					<rect id="SVGID_25_" x="192.4263916" y="3.2526708" width="3.2608778" height="3.3788593"/>
				</defs>
				<clipPath id="SVGID_26_">
					<use xlink:href="#SVGID_25_"  style="overflow:visible;"/>
				</clipPath>
				<path class="st12" d="M194.5801392,5.283217c0-0.0272384-0.0148773-0.2206011-0.0446625-0.5799298
					c-0.0297699-0.3594866-0.0470276-0.5404968-0.0520935-0.5430307l-0.1004028,0.1599479
					c-0.0395966,0.066988-0.1176605,0.1995387-0.2342224,0.3978109l-0.3346252,0.5652018l0.3829193,0.0038009
					C194.4524994,5.2870178,194.5801392,5.2857509,194.5801392,5.283217z M193.434845,5.9749522
					c0,0.0593863,0.0570221,0.0940681,0.1710358,0.1040449c0.0446625,0,0.0669861,0.0136194,0.0669861,0.0408583
					c0,0.0025339-0.002533,0.0186868-0.007431,0.0483007c-0.0074463,0.0348406-0.0148926,0.0570111-0.0223389,0.0669885
					l-0.0482941,0.0148859h-0.0446625c-0.0248566,0-0.0669861-0.001267-0.1263733-0.0036421
					c-0.0595398-0.0025339-0.1388855-0.0038009-0.2380219-0.0038009c-0.1759491,0-0.2888641,0.0025339-0.3384247,0.007443
					h-0.0297699l-0.0259705-0.0408578c0.0048981-0.066988,0.0210571-0.1103797,0.0482941-0.1301756h0.0521088
					c0.1735687-0.007443,0.299942-0.0693636,0.3792725-0.1859193c0.0148926-0.0148864,0.2392883-0.3929019,0.6730499-1.1340466
					c0.4337616-0.741303,0.6543579-1.1167846,0.6618042-1.1267614c0.0174255-0.029614,0.0471954-0.0445004,0.089325-0.0445004
					h0.0296173h0.0633392l0.0223236,0.0370572l0.1040497,1.2010343c0.0693665,0.8006897,0.1065826,1.2048354,0.111496,1.2122784
					c0.0124969,0.0272388,0.0929565,0.0408578,0.2418213,0.0408578c0.0619202,0,0.0929565,0.0123525,0.0929565,0.0372157
					c0,0.0049095-0.0037994,0.0223293-0.0112457,0.0519433c-0.0074463,0.0372157-0.0136261,0.059545-0.0185242,0.0669885
					c-0.0050659,0.007443-0.0223389,0.0123525-0.0521088,0.0148859h-0.0520935c-0.0272522,0-0.0755463-0.001267-0.1449127-0.0036421
					c-0.069519-0.0025339-0.1599426-0.0038009-0.2714386-0.0038009c-0.2331085,0-0.3856049,0.0025339-0.4573517,0.007443h-0.0446625
					l-0.0223236-0.0334148c0-0.007443,0.002533-0.0297723,0.0074463-0.066988
					c0.0099792-0.0321479,0.0172577-0.0521016,0.0223236-0.059545l0.0148926-0.0110855h0.0742645
					c0.1339722-0.007443,0.2131653-0.0285053,0.2380219-0.0631871l-0.0446625-0.5577588h-0.8849335l-0.1263733,0.215692
					C193.4856873,5.8447766,193.434845,5.9451795,193.434845,5.9749522z"/>
			</g>
		</g>
		<g>
			<g transform="translate(0,0)">
				<g transform="translate(314.54359731341356,242.67214487270957)">
					<title>shadow</title>
					<g id="Layer_2_28_">
						<g id="Layer_1-2_27_">
							
								<linearGradient id="SVGID_27_" gradientUnits="userSpaceOnUse" x1="-1842.0673828" y1="-699.1730957" x2="-1639.2410889" y2="-354.0148621" gradientTransform="matrix(0.3345 0 0 0.3345 398.3294983 -2.8434839)">
								<stop  offset="0.14" style="stop-color:#DBDBDB;stop-opacity:0"/>
								<stop  offset="0.88" style="stop-color:#000000"/>
							</linearGradient>
							<ellipse class="st13" cx="-198.4811859" cy="-203.7695923" rx="37.9500008" ry="35.6154099"/>
						</g>
					</g>
				</g>
			</g>
			<g transform="translate(0,0)">
				<g transform="translate(316.5844912310977,243.76062027718152)">
					<title>shading</title>
					<g id="Layer_2_27_">
						<g id="Layer_1-2_26_">
							
								<radialGradient id="SVGID_28_" cx="-1836.2062988" cy="-588.1296997" r="148.292923" fx="-1878.1176758" fy="-634.7249756" gradientTransform="matrix(0.328 0 0 0.328 397.4160156 -18.5940151)" gradientUnits="userSpaceOnUse">
								<stop  offset="0.14" style="stop-color:#DBDBDB"/>
								<stop  offset="0.29" style="stop-color:#BDBDBD"/>
								<stop  offset="0.6" style="stop-color:#707070"/>
								<stop  offset="0.72" style="stop-color:#525252"/>
								<stop  offset="0.76" style="stop-color:#656565"/>
								<stop  offset="0.84" style="stop-color:#959595"/>
								<stop  offset="0.96" style="stop-color:#E2E2E2"/>
								<stop  offset="1" style="stop-color:#FFFFFF"/>
							</radialGradient>
							<circle class="st14" cx="-202.6385345" cy="-208.4407501" r="35.3041344"/>
						</g>
					</g>
				</g>
			</g>
			<g transform="translate(0,0)">
				<circle class="st15" cx="113.9240494" cy="35.3041382" r="35.3041382">
				<title>A.shape</title>
				<desc>Circle representing A.shape</desc>
				</circle>
			</g>
			<g transform="translate(0,0)">
				<g transform="translate(434.15887819411944,260.87899358647786)">
					<title>shadow</title>
					<g id="Layer_2_26_">
						<g id="Layer_1-2_25_">
							
								<linearGradient id="SVGID_29_" gradientUnits="userSpaceOnUse" x1="-5181.0605469" y1="-1374.2658691" x2="-4978.234375" y2="-1029.1075439" gradientTransform="matrix(0.1306 0 0 0.1306 358.8667297 -74.5265656)">
								<stop  offset="0.14" style="stop-color:#DBDBDB;stop-opacity:0"/>
								<stop  offset="0.88" style="stop-color:#000000"/>
							</linearGradient>
							<ellipse class="st16" cx="-310.2067871" cy="-241.1182709" rx="14.8116531" ry="13.903759"/>
						</g>
					</g>
				</g>
			</g>
			<g transform="translate(0,0)">
				<g transform="translate(434.9555163152905,261.30386672351153)">
					<title>shading</title>
					<g id="Layer_2_25_">
						<g id="Layer_1-2_24_">
							
								<radialGradient id="SVGID_30_" cx="-5236.2124023" cy="-1277.1226807" r="148.292923" fx="-5278.1240234" fy="-1323.7178955" gradientTransform="matrix(0.128 0 0 0.128 357.5594788 -80.6728897)" gradientUnits="userSpaceOnUse">
								<stop  offset="0.14" style="stop-color:#DBDBDB"/>
								<stop  offset="0.29" style="stop-color:#BDBDBD"/>
								<stop  offset="0.6" style="stop-color:#707070"/>
								<stop  offset="0.72" style="stop-color:#525252"/>
								<stop  offset="0.76" style="stop-color:#656565"/>
								<stop  offset="0.84" style="stop-color:#959595"/>
								<stop  offset="0.96" style="stop-color:#E2E2E2"/>
								<stop  offset="1" style="stop-color:#FFFFFF"/>
							</radialGradient>
							<circle class="st17" cx="-311.8343506" cy="-242.9633789" r="13.7740593"/>
						</g>
					</g>
				</g>
			</g>
			<g transform="translate(0,0)">
				<g transform="translate(327.423838043486,305.1506625312729)">
					<title>shadow</title>
					<g id="Layer_2_24_">
						<g id="Layer_1-2_23_">
							
								<linearGradient id="SVGID_31_" gradientUnits="userSpaceOnUse" x1="-4362.3476562" y1="-1625.3250732" x2="-4159.5214844" y2="-1280.1668701" gradientTransform="matrix(0.1306 0 0 0.1306 330.9920349 -74.5239944)">
								<stop  offset="0.14" style="stop-color:#DBDBDB;stop-opacity:0"/>
								<stop  offset="0.88" style="stop-color:#000000"/>
							</linearGradient>
							<ellipse class="st18" cx="-231.1586304" cy="-273.9059448" rx="14.8116531" ry="13.903759"/>
						</g>
					</g>
				</g>
			</g>
			<g transform="translate(0,0)">
				<g transform="translate(328.2204900622805,305.5755430803633)">
					<title>shading</title>
					<g id="Layer_2_23_">
						<g id="Layer_1-2_22_">
							
								<radialGradient id="SVGID_32_" cx="-4405.1450195" cy="-1533.2669678" r="148.292923" fx="-4447.0566406" fy="-1579.8621826" gradientTransform="matrix(0.128 0 0 0.128 330.2312012 -80.673912)" gradientUnits="userSpaceOnUse">
								<stop  offset="0.14" style="stop-color:#DBDBDB"/>
								<stop  offset="0.29" style="stop-color:#BDBDBD"/>
								<stop  offset="0.6" style="stop-color:#707070"/>
								<stop  offset="0.72" style="stop-color:#525252"/>
								<stop  offset="0.76" style="stop-color:#656565"/>
								<stop  offset="0.84" style="stop-color:#959595"/>
								<stop  offset="0.96" style="stop-color:#E2E2E2"/>
								<stop  offset="1" style="stop-color:#FFFFFF"/>
							</radialGradient>
							<circle class="st19" cx="-232.7862396" cy="-275.7510376" r="13.7740593"/>
						</g>
					</g>
				</g>
			</g>
			<g transform="translate(0,0)">
				<g pointer-events="bounding-box" transform="translate(445.35652925927013,410.24274408143714)">
					<g transform="matrix(1 0 0 -1 0 0)">
						<path class="st20" d="M-327.734375,352.8267517c0-0.3112793,0.2853394-0.4928589,0.881958-0.5447388
							c0.2334595,0,0.3372192-0.0778198,0.3372192-0.2075195c0,0,0-0.1037598-0.0259399-0.2593994
							c-0.0259399-0.1815796-0.0778198-0.2853394-0.1037598-0.3372192s-0.1296997-0.0778198-0.2593994-0.0778198
							c-0.0259399,0-0.1037598,0-0.2334595,0s-0.3372192,0-0.6484985,0.0259399
							c-0.3112793,0-0.7263184,0.0259399-1.2451172,0.0259399c-0.9078674,0-1.5044861,0-1.7638855-0.0259399h-0.1556396
							c-0.0778198,0.0778198-0.1296997,0.1556396-0.1296997,0.2075195c0.0259399,0.3372192,0.1037598,0.5706787,0.2593994,0.6744385
							h0.2593994c0.9078979,0.0259399,1.556366,0.3631592,1.971405,0.9597778
							c0.0778198,0.0778198,1.2451172,2.0492554,3.527832,5.9143066c2.2827148,3.8650208,3.3981323,5.8364563,3.4500122,5.8883362
							c0.0778198,0.1556396,0.2334595,0.2334595,0.4669189,0.2334595h0.1556396h0.3371887
							c0.0778198-0.1037598,0.1037598-0.1815796,0.1037598-0.1815796l0.5447388-6.2774353
							c0.3631592-4.1763306,0.5447388-6.3034058,0.5706787-6.3293457c0.0518799-0.1296997,0.4928589-0.2075195,1.2710571-0.2075195
							c0.3112793,0,0.4928589-0.0518799,0.4928589-0.1815796c0-0.0259399-0.0259399-0.1037598-0.0518799-0.2593994
							c-0.0259399-0.1815796-0.0778198-0.3112793-0.1037598-0.3372192s-0.1037598-0.0518799-0.2593994-0.0778198
							c-0.0259399,0-0.1296997,0-0.2593994,0s-0.3890991,0-0.7522583,0.0259399
							c-0.3631592,0-0.8300781,0.0259399-1.4266968,0.0259399c-1.2191467,0-2.0232849,0-2.3864441-0.0259399h-0.2334595
							c-0.0778198,0.0778198-0.1037598,0.1296997-0.1037598,0.1815796s0,0.1556396,0.0259399,0.3372192
							c0.0518799,0.1556396,0.0778198,0.2593994,0.1037598,0.3112793l0.0778198,0.0518799h0.3631592
							c0.7003784,0.0259399,1.1154175,0.1556396,1.2451172,0.3372192l-0.2334595,2.9052734h-4.6173096l-0.6484985-1.1154175
							C-327.4749756,353.5011902-327.734375,352.9823914-327.734375,352.8267517z M-321.7422485,356.4324036
							c0,0.1296997-0.0778198,1.1413574-0.2334595,3.0349731c-0.1556396,1.8676453-0.2334595,2.8274231-0.2593994,2.8274231
							l-0.5187988-0.8300781c-0.2075195-0.3372192-0.6225586-1.0375977-1.2191772-2.0751648l-1.7379761-2.9571533
							l1.9973755-0.0259399C-322.416687,356.4064636-321.7422485,356.4324036-321.7422485,356.4324036z"/>
					</g>
				</g>
			</g>
			<g transform="translate(0,0)">
				<circle class="st21" cx="123.1326981" cy="18.3394756" r="13.7740612">
				<title>C.shape</title>
				<desc>Circle representing C.shape</desc>
				</circle>
			</g>
			<g transform="translate(0,0)">
				<g transform="translate(497.6194192322101,308.0357765932873)">
					<title>shadow</title>
					<g id="Layer_2_22_">
						<g id="Layer_1-2_21_">
							
								<linearGradient id="SVGID_33_" gradientUnits="userSpaceOnUse" x1="-16795.5664062" y1="-4548.2758789" x2="-16592.7402344" y2="-4203.1176758" gradientTransform="matrix(0.0405477 0 0 0.0405477 311.2511292 -106.1667404)">
								<stop  offset="0.14" style="stop-color:#DBDBDB;stop-opacity:0"/>
								<stop  offset="0.88" style="stop-color:#000000"/>
							</linearGradient>
							<ellipse class="st22" cx="-367.4260559" cy="-286.6001587" rx="4.5913534" ry="4.3060155"/>
						</g>
					</g>
				</g>
			</g>
			<g transform="translate(0,0)">
				<g transform="translate(497.866830545587,308.16772912990155)">
					<title>shading</title>
					<g id="Layer_2_21_">
						<g id="Layer_1-2_20_">
							
								<radialGradient id="SVGID_34_" cx="-17072.7773438" cy="-4512.9794922" r="148.292923" fx="-17114.6894531" fy="-4559.574707" gradientTransform="matrix(0.0397653 0 0 0.0397653 310.7130127 -108.0763855)" gradientUnits="userSpaceOnUse">
								<stop  offset="0.14" style="stop-color:#DBDBDB"/>
								<stop  offset="0.29" style="stop-color:#BDBDBD"/>
								<stop  offset="0.6" style="stop-color:#707070"/>
								<stop  offset="0.72" style="stop-color:#525252"/>
								<stop  offset="0.76" style="stop-color:#656565"/>
								<stop  offset="0.84" style="stop-color:#959595"/>
								<stop  offset="0.96" style="stop-color:#E2E2E2"/>
								<stop  offset="1" style="stop-color:#FFFFFF"/>
							</radialGradient>
							<circle class="st23" cx="-367.9205627" cy="-287.1648254" r="4.2800751"/>
						</g>
					</g>
				</g>
			</g>
			<g transform="translate(0,0)">
				<g transform="translate(478.34008262885095,270.445517166435)">
					<title>shadow</title>
					<g id="Layer_2_20_">
						<g id="Layer_1-2_19_">
							
								<linearGradient id="SVGID_35_" gradientUnits="userSpaceOnUse" x1="-16410.0644531" y1="-3862.8620605" x2="-16207.2382812" y2="-3517.7038574" gradientTransform="matrix(0.0405343 0 0 0.0405343 309.6786194 -106.171402)">
								<stop  offset="0.14" style="stop-color:#DBDBDB;stop-opacity:0"/>
								<stop  offset="0.88" style="stop-color:#000000"/>
							</linearGradient>
							<ellipse class="st24" cx="-353.1477356" cy="-258.7607727" rx="4.5913534" ry="4.3060155"/>
						</g>
					</g>
				</g>
			</g>
			<g transform="translate(0,0)">
				<g transform="translate(478.5874124193326,270.5774262242257)">
					<title>shading</title>
					<g id="Layer_2_19_">
						<g id="Layer_1-2_18_">
							
								<radialGradient id="SVGID_36_" cx="-16680.4589844" cy="-3814.0720215" r="148.292923" fx="-16722.3710938" fy="-3860.6672363" gradientTransform="matrix(0.0397522 0 0 0.0397522 309.1708679 -108.080452)" gradientUnits="userSpaceOnUse">
								<stop  offset="0.14" style="stop-color:#DBDBDB"/>
								<stop  offset="0.29" style="stop-color:#BDBDBD"/>
								<stop  offset="0.6" style="stop-color:#707070"/>
								<stop  offset="0.72" style="stop-color:#525252"/>
								<stop  offset="0.76" style="stop-color:#656565"/>
								<stop  offset="0.84" style="stop-color:#959595"/>
								<stop  offset="0.96" style="stop-color:#E2E2E2"/>
								<stop  offset="1" style="stop-color:#FFFFFF"/>
							</radialGradient>
							<circle class="st25" cx="-353.6421814" cy="-259.3253784" r="4.2800751"/>
						</g>
					</g>
				</g>
			</g>
			<g transform="translate(0,0)">
				<g pointer-events="bounding-box" transform="translate(449.2802095653401,314.20386159670545)">
					<g transform="matrix(1 0 0 -1 0 0)">
						<path class="st20" d="M-335.2834778,291.7130127c0,0.5706787,0.1815796,1.1413574,0.5187988,1.6860657
							c0.3372192,0.5447388,0.7781982,0.9597778,1.2710571,1.2710571s1.0375977,0.4669189,1.5563965,0.4669189
							c0.4669189,0,0.8041077-0.1296997,1.089447-0.3890991c0.0259399-0.0518799,0.0778198-0.0778198,0.1037598-0.1296997
							c0.0259399-0.0259399,0.0518799-0.0518799,0.0518799-0.0778198v-0.0259399
							c0.0259399,0,0.0778198,0.0778198,0.2075195,0.2075195c0.0259399,0.0259399,0.0778198,0.0778198,0.1037598,0.1037598
							c0.0518799,0.0518799,0.0778198,0.0778198,0.1296997,0.1296997s0.0778198,0.0778198,0.0778198,0.0778198l0.1296997,0.1037598
							h0.0518799c0.0778198,0,0.1037598-0.0259399,0.1037598-0.0518799s-0.0778198-0.3631592-0.2334595-1.0375977
							c-0.1815796-0.7003784-0.2853394-1.0635071-0.2853394-1.0635071c0-0.0259399-0.0259399-0.0518799-0.0259399-0.0518799
							s-0.0518799,0-0.1296997-0.0259399h-0.1296997c-0.0259399,0.0259399-0.0518799,0.0518799-0.0518799,0.0778198
							c0,0,0,0.0259399,0,0.0518799s0,0.0778198,0.0259399,0.1556396c0,0.0777893,0,0.1556091,0,0.233429
							c0,0.3631592-0.0778198,0.6744385-0.2334595,0.9338379s-0.4409485,0.4150391-0.8300476,0.4150391
							c-0.1296997,0-0.2853394-0.0259399-0.4150391-0.0518799s-0.3372192-0.1037598-0.5447388-0.1815796
							s-0.4150391-0.2334595-0.6225586-0.4150391s-0.4150391-0.4150391-0.5706787-0.7003784
							s-0.2853394-0.6225281-0.3890991-1.0116272s-0.1556396-0.7003784-0.1556396-0.9338379
							c0-0.5706787,0.1815796-0.9857178,0.5706787-1.2451172c0.2334595-0.1815796,0.5447388-0.2593994,0.881958-0.2593994
							c0.4669189,0,0.881958,0.1815796,1.2191772,0.5187988s0.5965881,0.7263184,0.7003479,1.1154175
							c0.0259399,0.0778198,0.0259399,0.1037598,0.0518799,0.1037598s0.0518799,0.0259399,0.1296997,0.0259399
							c0.1037598,0,0.1556396-0.0259399,0.1556396-0.0778198c0-0.0259399,0-0.0518799,0-0.0778198
							c-0.1556396-0.5447388-0.4668884-1.0116577-0.9338074-1.4007568
							c-0.4928589-0.3890991-0.9857178-0.5966187-1.5563965-0.5966187s-1.0635376,0.1815796-1.4526367,0.5706787
							C-335.0759583,290.5975952-335.2834778,291.0904541-335.2834778,291.7130127z"/>
					</g>
				</g>
			</g>
			<g transform="translate(0,0)">
				<circle class="st26" cx="129.9548798" cy="21.0112858" r="4.2800751">
				<title>G.shape</title>
				<desc>Circle representing G.shape</desc>
				</circle>
			</g>
			<g transform="translate(0,0)">
				<g pointer-events="bounding-box" transform="translate(509.8957297967235,320.54657625091204)">
					<g transform="matrix(1 0 0 -1 0 0)">
						<path class="st20" d="M-380.8498535,299.3156738c0,0.1815796,0.0518799,0.3631592,0.1556396,0.5187988
							s0.2334595,0.2853394,0.3890991,0.3890991s0.3372192,0.1556396,0.4928589,0.1556396
							c0.1296997,0,0.2593994-0.0518799,0.3372192-0.1296997c0.0259399-0.0259399,0.0259399-0.0259399,0.0259399-0.0518799
							l0.0259399-0.0259399l0,0c0,0,0.0259399,0.0259399,0.0518799,0.0518799l0.0259399,0.0259399l0.0259399,0.0259399
							l0.0259399,0.0259399l0.0259399,0.0259399h0.0259399c0.0259399,0,0.0259399,0,0.0259399-0.0259399
							c0,0-0.0259399-0.1037598-0.0778198-0.3112793c-0.0259399-0.1815796-0.0518799-0.2853394-0.0518799-0.2853394s0,0,0-0.0259399
							s-0.0259399,0-0.0518799,0h-0.0259399l-0.0259399,0.0259399c0,0,0,0,0,0.0259399c0,0,0,0.0259399,0,0.0518799
							s0,0.0518799,0,0.0778198c0,0.1037598-0.0259399,0.2075195-0.0778198,0.2853394s-0.1296997,0.1296997-0.2593994,0.1296997
							c-0.0259399,0-0.0518799,0-0.1037598,0c-0.0259399,0-0.0778198-0.0259399-0.1296997-0.0259399
							c0-0.0259399-0.0518799-0.0518799-0.1037598-0.0778198s-0.1037598-0.0778198-0.1556396-0.1296997
							s-0.1037598-0.1037598-0.1296997-0.1556396c-0.0259399-0.0778198-0.0778198-0.1556396-0.1037598-0.2334595
							c-0.0518799-0.1037598-0.0778198-0.2075195-0.0778198-0.3372192c0-0.0259399,0-0.0518799,0-0.1037598
							c0-0.0777893,0-0.1296692,0.0259399-0.207489c0.0259399-0.0518799,0.0518799-0.1037598,0.0778198-0.1296997
							s0.0778198-0.0518799,0.1296997-0.0778198c0.0259399,0,0.0778198,0,0.1037598-0.0259399c0.0259399,0,0.0778198,0,0.1037598,0
							c0.0778198,0,0.1556396,0.0259399,0.2334595,0.0518799s0.1296997,0.0778198,0.1556396,0.1296997
							c0,0,0.0259399,0.0518799,0.0259399,0.1296997c0.0259399,0.0778198,0.0259399,0.1037292,0.0259399,0.1296692
							c0,0,0,0.0259399-0.0259399,0.0259399s-0.0778198,0-0.1296997,0h-0.0778198l-0.0259399,0.0259399c0,0,0,0.0259399,0,0.0518799
							s0.0259399,0.0259399,0.0259399,0.0518799h0.0518799c0.0518799,0,0.1815796,0,0.3372192,0
							c0.0518799,0,0.1037598,0,0.1556396,0s0.0778198,0,0.0778198,0c0.0259399,0,0.0259399,0,0.0259399,0
							c0.0259399,0,0.0259399,0,0.0259399-0.0259399v-0.0259399c-0.0259399-0.0518799-0.0259399-0.0518799-0.0259399-0.0518799
							h-0.0259399c-0.0259399,0-0.0518799,0-0.1037598,0c0,0-0.0259399,0-0.0259399-0.0259399
							c0,0-0.0259399-0.0518494-0.0259399-0.1296692c-0.0259399-0.0518799-0.0259399-0.1037598-0.0518799-0.1296997
							c-0.0259399-0.1815796-0.0518799-0.2593994-0.0518799-0.2593994l0,0c-0.0259399,0-0.0259399,0.0259399-0.0778198,0.0518799
							c-0.0259399,0.0259399-0.0518799,0.0518799-0.0518799,0.0778198l0,0c0,0,0,0-0.0259399,0
							c-0.1296997-0.1296997-0.2853394-0.1815796-0.4669189-0.1815796s-0.3372192,0.0518799-0.4669189,0.1815796
							C-380.7979736,298.9525452-380.8498535,299.1081848-380.8498535,299.3156738z"/>
					</g>
				</g>
			</g>
			<g transform="translate(0,0)">
				<circle class="st27" cx="124.9484863" cy="11.2579012" r="4.2800751">
				<title>F.shape</title>
				<desc>Circle representing F.shape</desc>
				</circle>
			</g>
			<g transform="translate(0,0)">
				<g pointer-events="bounding-box" transform="translate(490.7561055096019,283.1693056403216)">
					<g transform="matrix(1 0 0 -1 0 0)">
						<path class="st20" d="M-366.6750183,271.0374146c-0.0259399,0-0.0518799,0-0.0518799,0.0259399v0.0259399
							c0,0.0259399,0.0259399,0.0518799,0.0259399,0.0518799s0.0259399,0,0.0518799,0c0.0518799,0,0.1037598,0,0.1556396,0
							c0.0259399,0,0.0518799,0.0259399,0.0518799,0.0259399s0.0518799,0.2334595,0.1815796,0.7003784
							s0.1815796,0.7003784,0.1815796,0.7003784v0.0259399c-0.0259399,0-0.0518799,0-0.1296997,0h-0.1037598l-0.0259399,0.0259399
							c0,0,0,0.0259399,0,0.0518799s0.0259399,0.0518799,0.0259399,0.0518799h1.348877l0.0259399-0.0259399
							c0,0,0-0.1037598-0.0259399-0.2853394s-0.0259399-0.2334595-0.0259399-0.2593994c-0.0259399,0-0.0259399,0-0.0518799,0
							h-0.0518799l-0.0259399,0.0259399c0,0,0,0.0259399,0,0.0518799s0,0.0778198,0,0.1296997s0,0.0778198-0.0259399,0.1296997
							c0.0259399,0.0259399,0.0259399,0.0518799,0,0.0778198s-0.0518799,0.0259399-0.1037598,0.0518799
							c-0.0518799,0-0.0778198,0-0.1296997,0.0259399c-0.0518799,0-0.1037598,0-0.1815796,0h-0.0518799
							c-0.1296997,0-0.2075195,0-0.2075195,0s-0.0259399,0-0.0259399-0.0259399c0,0-0.0259399-0.1037598-0.0778198-0.3372192
							l-0.0778198-0.3372192h0.1296997c0,0,0.0259399,0,0.0518799,0s0.0518799,0,0.0778198,0s0.0259399,0,0.0518799,0
							s0.0518799,0,0.0518799,0.0259399c0.0259399,0,0.0259399,0.0259399,0.0518799,0.0259399
							c0.0259399,0.0259399,0.0518799,0.0518799,0.0518799,0.0778198c0.0259399,0.0518799,0.0259399,0.0778198,0.0518799,0.1037598
							c0,0.0259399,0,0.0518799,0,0.0518799s0.0259399,0,0.0518799,0h0.0259399l0.0259399-0.0259399
							c0,0-0.0259399-0.1037598-0.0778198-0.3372192s-0.0778198-0.2853394-0.1037598-0.3112793
							c0,0-0.0259399-0.0259399-0.0518799-0.0259399h-0.0259399c0,0.0259399,0,0.0259399,0,0.0518799c0,0,0,0.0259399,0,0.0518799
							s0,0.0518799,0,0.1037598s-0.0259399,0.0778198-0.0518799,0.0778198s-0.0778198,0.0259399-0.2075195,0.0259399h-0.1296997
							l-0.0778198-0.3112793c-0.0518799-0.2075195-0.0778198-0.3112793-0.0778198-0.3372192
							s0.0778198-0.0259399,0.2334595-0.0259399h0.0518799c0-0.0259399,0-0.0259399,0-0.0259399s0-0.0259399,0-0.0518799
							s0-0.0259399-0.0259399-0.0518799h-0.0518799c-0.0778198,0-0.1815796,0-0.3890991,0c-0.1037598,0-0.1815796,0-0.2593994,0
							S-366.6750183,271.0633545-366.6750183,271.0374146z"/>
					</g>
				</g>
			</g>
			<g transform="translate(0,0)">
				<circle class="st28" cx="95.4289322" cy="29.8308334" r="13.7740612">
				<title>B.shape</title>
				<desc>Circle representing B.shape</desc>
				</circle>
			</g>
			<g transform="translate(0,0)">
				<g transform="translate(358.52988099068534,369.63353779280914)">
					<title>shadow</title>
					<g id="Layer_2_18_">
						<g id="Layer_1-2_17_">
							
								<linearGradient id="SVGID_37_" gradientUnits="userSpaceOnUse" x1="-13979.6103516" y1="-5674.418457" x2="-13776.7832031" y2="-5329.2602539" gradientTransform="matrix(0.0405396 0 0 0.0405396 299.9681091 -106.1695938)">
								<stop  offset="0.14" style="stop-color:#DBDBDB;stop-opacity:0"/>
								<stop  offset="0.88" style="stop-color:#000000"/>
							</linearGradient>
							<ellipse class="st29" cx="-264.4161377" cy="-332.219574" rx="4.5913534" ry="4.3060155"/>
						</g>
					</g>
				</g>
			</g>
			<g transform="translate(0,0)">
				<g transform="translate(358.77724329816465,369.76546419297705)">
					<title>shading</title>
					<g id="Layer_2_17_">
						<g id="Layer_1-2_16_">
							
								<radialGradient id="SVGID_38_" cx="-14206.8984375" cy="-5661.2768555" r="148.292923" fx="-14248.8095703" fy="-5707.8720703" gradientTransform="matrix(0.0397574 0 0 0.0397574 299.6477356 -108.0788193)" gradientUnits="userSpaceOnUse">
								<stop  offset="0.14" style="stop-color:#DBDBDB"/>
								<stop  offset="0.29" style="stop-color:#BDBDBD"/>
								<stop  offset="0.6" style="stop-color:#707070"/>
								<stop  offset="0.72" style="stop-color:#525252"/>
								<stop  offset="0.76" style="stop-color:#656565"/>
								<stop  offset="0.84" style="stop-color:#959595"/>
								<stop  offset="0.96" style="stop-color:#E2E2E2"/>
								<stop  offset="1" style="stop-color:#FFFFFF"/>
							</radialGradient>
							<circle class="st30" cx="-264.910614" cy="-332.7842102" r="4.2800751"/>
						</g>
					</g>
				</g>
			</g>
			<g transform="translate(0,0)">
				<g transform="translate(337.95560717409296,332.7159629001166)">
					<title>shadow</title>
					<g id="Layer_2_16_">
						<g id="Layer_1-2_15_">
							
								<linearGradient id="SVGID_39_" gradientUnits="userSpaceOnUse" x1="-13559.3427734" y1="-4998.8305664" x2="-13356.5166016" y2="-4653.6723633" gradientTransform="matrix(0.0405496 0 0 0.0405496 298.3039246 -106.1660385)">
								<stop  offset="0.14" style="stop-color:#DBDBDB;stop-opacity:0"/>
								<stop  offset="0.88" style="stop-color:#000000"/>
							</linearGradient>
							<ellipse class="st31" cx="-249.1787872" cy="-304.8783569" rx="4.5913534" ry="4.3060155"/>
						</g>
					</g>
				</g>
			</g>
			<g transform="translate(0,0)">
				<g transform="translate(338.20303054922033,332.84792186965643)">
					<title>shading</title>
					<g id="Layer_2_15_">
						<g id="Layer_1-2_14_">
							
								<radialGradient id="SVGID_40_" cx="-13779.1601562" cy="-4972.3999023" r="148.292923" fx="-13821.0712891" fy="-5018.9951172" gradientTransform="matrix(0.0397672 0 0 0.0397672 298.015564 -108.075798)" gradientUnits="userSpaceOnUse">
								<stop  offset="0.14" style="stop-color:#DBDBDB"/>
								<stop  offset="0.29" style="stop-color:#BDBDBD"/>
								<stop  offset="0.6" style="stop-color:#707070"/>
								<stop  offset="0.72" style="stop-color:#525252"/>
								<stop  offset="0.76" style="stop-color:#656565"/>
								<stop  offset="0.84" style="stop-color:#959595"/>
								<stop  offset="0.96" style="stop-color:#E2E2E2"/>
								<stop  offset="1" style="stop-color:#FFFFFF"/>
							</radialGradient>
							<circle class="st32" cx="-249.6733093" cy="-305.4430237" r="4.2800751"/>
						</g>
					</g>
				</g>
			</g>
			<g transform="translate(0,0)">
				<g pointer-events="bounding-box" transform="translate(393.09696293108743,331.4654749021811)">
					<g transform="matrix(1 0 0 -1 0 0)">
						<path class="st20" d="M-292.3511353,307.7394714c-0.1556396,0-0.2334595,0-0.2593994,0
							s-0.0518799,0.0259399-0.0518799,0.0778198c0,0.1556396,0.0259399,0.2334595,0.0778198,0.2593994c0,0,0.3631592,0,1.0375977,0
							c1.3748169,0,2.1270447,0,2.1789246-0.0259399c0.3372192-0.0518799,0.6225586-0.1815796,0.8300781-0.3631592
							s0.3372192-0.440979,0.3372192-0.7263184c0-0.3372192-0.1556396-0.6484985-0.4669189-0.9338379
							s-0.6744385-0.4669189-1.0635071-0.5447388l-0.0778198-0.0259399
							c0.3372192-0.0518799,0.6225281-0.1815796,0.8300476-0.3631592s0.3372192-0.440979,0.3372192-0.7263184
							c0-0.3890991-0.1815796-0.7781982-0.5706787-1.1413269c-0.3890686-0.3631592-0.8559875-0.5706787-1.4266663-0.6225586
							c-0.0259399,0-0.5966187,0-1.6860962,0c-1.0635376,0-1.6082764,0-1.6342163,0.0259399
							s-0.0259399,0.0259399-0.0259399,0.0518799s0,0.0778198,0.0259399,0.1037598
							c0.0778198,0.1556396,0.1037598,0.2075195,0.1296997,0.2075195s0.0518799,0,0.1296997,0h0.0518799
							c0.1556396,0,0.3112793,0,0.4928589,0.0259399c0.0778198,0.0259399,0.1296997,0.0518799,0.1556396,0.1037598
							c0.0259399,0.0259399,0.2075195,0.7522278,0.5706787,2.2308044s0.5447388,2.230835,0.5447388,2.3086548
							C-291.9101562,307.7135315-292.039856,307.7394714-292.3511353,307.7394714z M-289.0049133,306.9872131
							c0,0.1556396-0.0518799,0.3112793-0.1296997,0.440979s-0.2075195,0.2334595-0.3890686,0.2853394
							c-0.0259399,0-0.2853394,0.0259399-0.7263184,0.0259399c-0.1037598,0-0.2075195,0-0.3372192,0s-0.2075195,0-0.2853394,0
							h-0.1037598c-0.0778198,0-0.1296997-0.0259399-0.1556396-0.0778198c0-0.0259399-0.1037598-0.3372192-0.2593994-0.9597778
							c0-0.0259399,0-0.0259399,0-0.0518799l-0.2593994-1.0116577h0.6484985c0.440979,0,0.6744385,0,0.7522583,0.0259399
							c0.3112793,0.0518799,0.5966187,0.2075195,0.8559875,0.4669189
							C-289.134613,306.3646545-289.0049133,306.6759338-289.0049133,306.9872131z M-289.4458923,304.4710388
							c0,0.2334595-0.0518799,0.440979-0.1815491,0.5966187c-0.1296997,0.1556396-0.2853394,0.2334595-0.4928589,0.2853394
							c-0.0259399,0-0.2593994,0-0.6744385,0c-0.6225586,0-0.9597778,0-0.9597778,0s-0.0518799-0.2075195-0.1296997-0.5966187
							c-0.1037598-0.3890991-0.1815796-0.7522583-0.2853394-1.1413574l-0.1037598-0.5706482
							c0-0.0259399,0.0259399-0.0259399,0.1037598-0.0259399s0.2853394,0,0.6484985-0.0259399c0.4669189,0,0.7263184,0,0.7781982,0
							c0.3372192,0.0259399,0.6484985,0.1815796,0.9078979,0.4668884
							C-289.5755615,303.7447205-289.4458923,304.0819397-289.4458923,304.4710388z"/>
					</g>
				</g>
			</g>
			<g transform="translate(0,0)">
				<circle class="st33" cx="93.8725433" cy="36.9902267" r="4.2800751">
				<title>E.shape</title>
				<desc>Circle representing E.shape</desc>
				</circle>
			</g>
			<g transform="translate(0,0)">
				<g pointer-events="bounding-box" transform="translate(371.35314042907885,381.89148014434454)">
					<g transform="matrix(1 0 0 -1 0 0)">
						<path class="st20" d="M-277.1555481,344.6959534c-0.0518799,0-0.0518799,0-0.0518799,0.0259399c0,0,0,0.0259399,0,0.0518799
							s0,0.0518799,0,0.0778198c0,0.0518799-0.0259399,0.0778198-0.0518799,0.1037598
							c-0.0259399,0-0.1037598,0.0259399-0.2334595,0.0259399h-0.1296997c0,0-0.0259399-0.1296997-0.0778198-0.3372192
							c-0.0518799-0.2334595-0.0778198-0.3372192-0.0778198-0.3631592s0,0,0.0259399,0s0.0778198,0,0.2075195,0
							c0.1556396,0,0.2593994,0,0.3112793,0s0.1037598,0.0259399,0.1556396,0.0259399
							c0.0518799,0.0259399,0.1296997,0.0778198,0.1815796,0.1556396s0.1037598,0.1815796,0.1815796,0.3372192
							c0.0259399,0.0259399,0.0259399,0.0259399,0.0259399,0.0518799h0.0259399c0.0259399,0,0.0518799,0,0.0518799-0.0259399
							c-0.1815796-0.4150391-0.2593994-0.6484985-0.2853394-0.6484985c0,0-0.2334595,0-0.7003784,0h-0.4669189
							c-0.1815796,0-0.2593994,0-0.2593994,0.0259399v0.0259399c0,0.0259399,0.0259399,0.0518799,0.0259399,0.0518799
							s0.0259399,0,0.0518799,0c0.0518799,0,0.1037598,0,0.1556396,0c0.0259399,0,0.0518799,0.0259399,0.0518799,0.0259399
							s0.0518799,0.2334595,0.1815796,0.7003784s0.1815796,0.7003479,0.1815796,0.7003479v0.0259399
							c-0.0259399,0-0.0518799,0-0.1296997,0h-0.1037598l-0.0259399,0.0259399c0,0,0,0.0259399,0,0.0518799
							s0.0259399,0.0518799,0.0259399,0.0518799h1.3748169l0.0259399-0.0259399c0,0,0-0.1037598-0.0259399-0.2853394
							c-0.0259399-0.1815491-0.0259399-0.2593689-0.0259399-0.2853088c0,0,0,0-0.0518799,0h-0.0259399l-0.0259399,0.0259399
							v0.0518799c0,0.0518799,0,0.0778198,0,0.1296692c0,0.0518799,0,0.1037598-0.0259399,0.1296997
							c0.0259399,0.0259399,0,0.0518799,0,0.0778198s-0.0518799,0.0259399-0.1037598,0.0259399
							c-0.0259399,0-0.0778198,0.0259399-0.1296997,0.0259399s-0.1037598,0-0.1556396,0h-0.1037598
							c-0.1556396,0-0.2334595,0-0.2334595,0s0,0-0.0259399-0.0259399c0,0-0.0259399-0.1037598-0.0778198-0.3112488
							c-0.0259399-0.1815796-0.0518799-0.2853394-0.0518799-0.2853394c0.0259399,0,0.0778198,0,0.1296997,0h0.0518799
							c0.1037598,0,0.1815796,0,0.2334595,0.0259399s0.0778198,0.1037598,0.1037598,0.2075195
							c0,0.0259399,0,0.0518799,0.0259399,0.0518799c0,0,0.0259399,0,0.0518799,0h0.0259399l0,0l0,0l0,0l0,0l-0.0778198-0.3631592
							c-0.0518799-0.2075195-0.1037598-0.3372192-0.1037598-0.3372192S-277.1296082,344.6959534-277.1555481,344.6959534z"/>
					</g>
				</g>
			</g>
			<g transform="translate(0,0)">
				<circle class="st34" cx="88.5289383" cy="27.3924828" r="4.2800751">
				<title>D.shape</title>
				<desc>Circle representing D.shape</desc>
				</circle>
			</g>
			<g transform="translate(0,0)">
				<g pointer-events="bounding-box" transform="translate(350.9064321952727,345.2135589682399)">
					<g transform="matrix(1 0 0 -1 0 0)">
						<path class="st20" d="M-262.6092834,318.5698242c0,0-0.0518799,0.0259399-0.1296997,0.0259399
							c-0.0259399,0-0.0518799,0-0.0778198,0s-0.0259399,0-0.0259399,0.0259399v0.0259399
							c0,0.0259399,0,0.0259399,0.0259399,0.0259399c0,0,0.1815796,0,0.4928589,0c0.2853394,0,0.440979,0,0.4669189,0
							s0.0778198,0,0.1037598-0.0259399c0.1296997,0,0.2075195-0.0518799,0.3112793-0.1556396
							c0.0778198-0.1037598,0.1296997-0.2334595,0.1296997-0.4150391c0-0.2593994-0.0778198-0.4928589-0.2593994-0.7003784
							s-0.4150391-0.3372192-0.6484985-0.3631592h-0.0259399h-0.4928589h-0.2853394h-0.1296997
							c-0.0518799,0-0.0778198,0-0.0778198,0s-0.0259399,0-0.0259399,0.0259399v0.0259399
							c0,0.0259399,0.0259399,0.0518799,0.0259399,0.0518799s0.0259399,0,0.0518799,0c0.0518799,0,0.1037598,0,0.1556396,0
							c0.0259399,0,0.0518799,0.0259399,0.0518799,0.0259399s0.0518799,0.2334595,0.1815796,0.7003784
							S-262.6092834,318.5438843-262.6092834,318.5698242z M-261.5716858,318.1547852c0,0.0518799,0,0.1296997-0.0259399,0.1815796
							s-0.0518799,0.0778198-0.0778198,0.1037598s-0.0518799,0.0778198-0.0778198,0.0778198
							c-0.0518799,0.0259399-0.0778198,0.0518799-0.1037598,0.0518799s-0.0518799,0-0.0778198,0.0259399h-0.0259399
							c0,0-0.0518799,0-0.0778198,0s-0.0518799,0-0.0778198,0h-0.1296997c-0.0778198,0-0.1037598,0-0.1296997-0.0259399
							c0,0-0.0518799-0.2334595-0.1815796-0.7263184s-0.1556396-0.7003784-0.1556396-0.7263184c0,0,0,0,0.0259399,0
							s0.0778198,0,0.1815796,0c0,0,0.0259399,0,0.0518799,0s0.0518799,0,0.0518799,0
							c0.2075195,0,0.3890991,0.0778198,0.5187988,0.2075195c0.0778198,0.0518799,0.1037598,0.1296997,0.1556396,0.2075195
							s0.0778198,0.1815796,0.1037598,0.3112793S-261.5716858,318.0769653-261.5716858,318.1547852z"/>
					</g>
				</g>
			</g>
		</g>
		<g>
			<g transform="translate(0,0)">
				<circle class="st15" cx="35.3040619" cy="35.7080345" r="35.3040619">
				<title>A.shape</title>
				<desc>Circle representing A.shape</desc>
				</circle>
			</g>
			<g transform="translate(0,0)">
				<g pointer-events="bounding-box" transform="translate(416.69054123870274,292.1137447059722)">
					<g transform="matrix(1 0 0 -1 0 0)">
						<path d="M-383.6397705,259.1031799c0-0.0695801,0.0667114-0.110199,0.2001038-0.1217957
							c0.0521851,0,0.0782776-0.0159302,0.0782776-0.0478516c0-0.0028992-0.0028992-0.0217285-0.0086975-0.0565491
							c-0.0086975-0.0405884-0.017395-0.0666809-0.0260925-0.0782776c-0.0086975-0.0116272-0.0275574-0.0174255-0.0565491-0.0174255
							c-0.0057983,0-0.0231934,0-0.0521851,0c-0.0290222,0-0.0783081,0.0014648-0.1479187,0.004364
							c-0.0695801,0.0028992-0.162384,0.004364-0.2783813,0.004364c-0.2059021,0-0.3378601-0.0029297-0.3958435-0.008728h-0.0348206
							c-0.0202942,0.0203247-0.030426,0.0362549-0.030426,0.0478516c0.0057983,0.0783081,0.0246277,0.1290588,0.0565491,0.1522522
							h0.0608826c0.2030029,0.0086975,0.3508911,0.0812073,0.4436951,0.2174988
							c0.017395,0.017395,0.2798462,0.4596558,0.7873535,1.3267517c0.5074768,0.8670959,0.7655945,1.306427,0.774292,1.3180237
							c0.0202942,0.0348206,0.0550842,0.0522156,0.1044006,0.0522156h0.03479h0.0739441
							c0.017395-0.0260925,0.026123-0.0406189,0.026123-0.0435181l0.1217957-1.4050293
							c0.0811768-0.936676,0.1246948-1.4093933,0.1304932-1.4180908c0.0144958-0.0318909,0.1087341-0.0478516,0.2827454-0.0478516
							c0.0725098,0,0.1087341-0.0144958,0.1087341-0.0434875c0-0.0057983-0.0043335-0.0260925-0.013031-0.0609131
							c-0.0086975-0.0434875-0.0159607-0.0695801-0.021759-0.0782776s-0.0260925-0.0145264-0.0608826-0.0174255
							c-0.008728,0-0.0290222,0-0.0609131,0s-0.0884399,0.0014648-0.1696472,0.004364s-0.1870422,0.004364-0.3175354,0.004364
							c-0.2726135,0-0.4509583-0.0029297-0.5350647-0.008728h-0.0521851c-0.017395,0.0174255-0.026123,0.0304565-0.026123,0.0391541
							s0.0029297,0.0348206,0.008728,0.0783081c0.0115967,0.0376892,0.0202942,0.0609131,0.0260925,0.0696106l0.017395,0.013031
							h0.0870056c0.1565857,0.0086975,0.2493896,0.0333557,0.2783813,0.0739441l-0.0521851,0.6524963h-1.0353088
							l-0.1478882-0.2522888C-383.5803223,259.2554321-383.6397705,259.1380005-383.6397705,259.1031799z M-382.2999878,259.9122925
							c0,0.0318909-0.017395,0.2580872-0.0521851,0.6785889c-0.0348206,0.4205017-0.0551147,0.6322021-0.0609131,0.6351013
							l-0.1174316-0.1870728c-0.0464172-0.0782776-0.1377563-0.233429-0.2740479-0.4654236l-0.39151-0.6611938l0.4480591-0.004364
							C-382.4493408,259.9079285-382.2999878,259.9093933-382.2999878,259.9122925z"/>
					</g>
				</g>
			</g>
			<g transform="translate(0,0)">
				<circle class="st21" cx="53.6440735" cy="40.0160866" r="14.9290934">
				<title>C.shape</title>
				<desc>Circle representing C.shape</desc>
				</circle>
			</g>
			<g transform="translate(0,0)">
				<g pointer-events="bounding-box" transform="translate(475.0346432304404,319.65936862455794)">
					<g transform="matrix(1 0 0 -1 0 0)">
						<path d="M-427.2495728,280.1092529c0,0.338623,0.0986328,0.6640015,0.295929,0.9761353
							c0.1972656,0.3121033,0.4460754,0.5594482,0.7464294,0.7420044c0.3003235,0.1825562,0.6006775,0.2753296,0.9010315,0.2782593
							c0.2649841,0,0.4755249-0.0750732,0.6315918-0.2252502c0.0264893-0.0294495,0.048584-0.0544739,0.0662537-0.0751038
							c0.0176697-0.0205994,0.0294495-0.0353088,0.0353394-0.0441589l0.0043945-0.0132446
							c0.0088501,0,0.048584,0.038269,0.1192627,0.1148376c0.0206299,0.0176697,0.0426941,0.038269,0.0662537,0.0618286
							s0.0471191,0.0471191,0.0706787,0.0706787s0.038269,0.0397339,0.0441589,0.048584l0.0662537,0.0662537h0.0264893
							c0.0412292,0,0.0618591-0.0103149,0.0618591-0.0309143c0-0.0117798-0.0471191-0.213501-0.1413574-0.6051025
							c-0.1059875-0.4093018-0.1589966-0.6154175-0.1589966-0.6183472c-0.0058899-0.01474-0.0132446-0.0235596-0.0220947-0.0265198
							c-0.0088196-0.0029297-0.0353088-0.0058899-0.0794983-0.0088196h-0.0706482
							c-0.0176697,0.0176697-0.0265198,0.0309143-0.0265198,0.0397339c0,0.0029602,0.0014648,0.0132751,0.004425,0.0309143
							c0.0029297,0.0176697,0.0058899,0.0471191,0.0088196,0.0883484c0.0029602,0.0412292,0.004425,0.0883484,0.004425,0.1413269
							c0,0.2090759-0.0471191,0.3916321-0.1413269,0.547699c-0.0942383,0.1560669-0.2546997,0.2355652-0.4814453,0.2384949
							c-0.0765381,0-0.1589966-0.0102844-0.247345-0.0309143c-0.0883179-0.0205994-0.1943359-0.0559387-0.3179932-0.1059875
							c-0.1236877-0.0500793-0.2458801-0.1325073-0.3666077-0.247345s-0.2281799-0.25177-0.3224182-0.4107666
							c-0.0942383-0.1678467-0.1693115-0.3636475-0.2252502-0.5874329s-0.0839233-0.4063416-0.0839233-0.547699
							c0-0.3356628,0.1118774-0.5771179,0.3356628-0.7243347c0.1413574-0.1001282,0.3150635-0.150177,0.5212097-0.150177
							c0.2679443,0,0.5064392,0.1001282,0.7155151,0.300354c0.2090454,0.2002258,0.3474426,0.4181213,0.4151611,0.6536865
							c0.0117798,0.038269,0.0206299,0.0603638,0.0265198,0.0662537c0.0058899,0.0058594,0.0294189,0.0088196,0.0706482,0.0088196
							c0.0588989,0,0.0883484-0.0132446,0.0883484-0.0397644c0-0.0147095-0.0014648-0.0279541-0.004425-0.0397339
							c-0.0853882-0.3150635-0.2679443-0.585968-0.5476685-0.8126831c-0.2797241-0.2267456-0.5800781-0.3401184-0.9010315-0.3401184
							c-0.3327332,0-0.6139526,0.1104431-0.8435974,0.3312683
							C-427.1347351,279.4511719-427.2495728,279.7441406-427.2495728,280.1092529z"/>
					</g>
				</g>
			</g>
			<g transform="translate(0,0)">
				<circle class="st26" cx="57.5533371" cy="47.51894" r="5.1904988">
				<title>G.shape</title>
				<desc>Circle representing G.shape</desc>
				</circle>
			</g>
			<g transform="translate(0,0)">
				<g pointer-events="bounding-box" transform="translate(506.33615836143315,351.5584092012867)">
					<g transform="matrix(1 0 0 -1 0 0)">
						<path d="M-450.3395081,303.5814514c0,0.3385925,0.0986633,0.6639709,0.295929,0.9761047
							c0.1972961,0.3121033,0.446106,0.5594482,0.74646,0.7420044c0.3003235,0.1825562,0.6006775,0.2753296,0.901001,0.2782593
							c0.2650146,0,0.4755554-0.0750732,0.6316223-0.2252502c0.0264893-0.0294495,0.048584-0.0544739,0.0662537-0.0750732
							c0.0176697-0.0206299,0.0294495-0.0353394,0.0353088-0.0441895l0.004425-0.0132446
							c0.0088501,0,0.048584,0.0382996,0.1192627,0.1148376c0.0205994,0.0176697,0.0426941,0.038269,0.0662537,0.0618286
							s0.0471191,0.0471191,0.0706787,0.0706787c0.0235291,0.0235596,0.038269,0.0397644,0.0441589,0.048584l0.0662537,0.0662537
							h0.0264893c0.0412292,0,0.0618286-0.0103149,0.0618286-0.0309143c0-0.0117798-0.0470886-0.2134705-0.1413269-0.6051025
							c-0.1059875-0.4093018-0.1589966-0.6154175-0.1589966-0.6183472c-0.0058899-0.01474-0.0132446-0.0235596-0.0220947-0.0265198
							c-0.0088196-0.0029297-0.0353394-0.0058899-0.0794983-0.0088196h-0.0706787
							c-0.0176697,0.0176697-0.0264893,0.0309143-0.0264893,0.0397644c0,0.0029297,0.0014648,0.0132446,0.004425,0.0309143
							c0.0029297,0.0176697,0.0058899,0.0470886,0.0088196,0.0883179c0.0029602,0.0412292,0.004425,0.0883484,0.004425,0.1413574
							c0,0.2090454-0.0471191,0.3916016-0.1413269,0.5476685c-0.0942383,0.1560669-0.2547302,0.2355652-0.4814453,0.2384949
							c-0.053009,0-0.1104126-0.0043945-0.1722412-0.0132446c-0.0618591-0.0088196-0.1398926-0.0279541-0.2341003-0.0574036
							c-0.0942383-0.0294495-0.1840515-0.0706787-0.2694397-0.1236877
							c-0.0853882-0.0529785-0.1781311-0.1236572-0.2782593-0.2120056
							c-0.1000977-0.0883179-0.1854858-0.1928711-0.2561646-0.3135681c-0.0706787-0.1207275-0.1398621-0.2709045-0.2075806-0.450531
							s-0.1133728-0.3768921-0.1369324-0.5918579c-0.0058899-0.0529785-0.0088196-0.1104126-0.0088196-0.1722412
							c0-0.1413269,0.0205994-0.2664795,0.0618286-0.3754272s0.0942383-0.1928711,0.1589966-0.25177
							c0.0647888-0.0588684,0.1383972-0.1089478,0.2208557-0.1501465c0.082428-0.0412292,0.1589966-0.0662537,0.2296753-0.0751038
							c0.0706482-0.0088196,0.1369019-0.0147095,0.1987305-0.0176697c0.1590271,0,0.3047791,0.0338745,0.4372864,0.101593
							s0.2237854,0.1546021,0.2738342,0.2605896c0.0088196,0.0235596,0.0309143,0.1045227,0.0662537,0.2429199
							s0.053009,0.2164307,0.053009,0.2341003c0,0.0235596-0.019165,0.038269-0.0574341,0.0441589
							s-0.1266174,0.0103149-0.2650146,0.0132446h-0.1634216c-0.0176697,0.0176697-0.0264893,0.0294495-0.0264893,0.0353394
							s0.0029297,0.0338745,0.0088196,0.0839233c0.0117798,0.038269,0.0265198,0.0662537,0.0441895,0.0839233h0.0750732
							c0.1177979-0.0058899,0.3239136-0.0088501,0.6183472-0.0088501c0.1177979,0,0.213501,0,0.2871094,0
							s0.1266174,0.0014954,0.1589966,0.004425c0.0323792,0.0029602,0.0500488,0.0029602,0.053009,0
							c0.0412292,0,0.0618286-0.0132446,0.0618286-0.0397339c0-0.0058899-0.0029602-0.0265198-0.0088501-0.0618591
							c-0.0147095-0.0559387-0.0294189-0.086853-0.0441589-0.0927429c-0.0088196-0.0029297-0.0309143-0.004425-0.0662537-0.004425
							c-0.0588989,0-0.1192322-0.0043945-0.1810913-0.0132446c-0.0205994-0.0088196-0.0353394-0.0220947-0.0441589-0.0397339
							c-0.0088196-0.0176697-0.0294495-0.0927734-0.0618286-0.2252808c-0.0265198-0.097168-0.048584-0.1795959-0.0662537-0.2473145
							c-0.0736084-0.300354-0.1148376-0.4549561-0.1236877-0.4637756c-0.0058899-0.0058899-0.0132446-0.0088501-0.0220642-0.0088501
							c-0.0294495,0-0.0706787,0.0294495-0.1236877,0.0883484c-0.0529785,0.0588989-0.086853,0.1045227-0.1015625,0.1369324
							c0,0.0029297-0.0029602,0.0029297-0.0088501,0c-0.0058899-0.0029602-0.0147095-0.0103149-0.0264893-0.0220947
							c-0.2178955-0.203186-0.5123596-0.3047485-0.8833618-0.3047485c-0.3562927,0-0.6448669,0.1133423-0.8656921,0.3400879
							C-450.2246704,302.9380493-450.3365479,303.2280884-450.3395081,303.5814514z"/>
					</g>
				</g>
			</g>
			<g transform="translate(0,0)">
				<circle class="st27" cx="60.2608871" cy="34.7682152" r="5.2047791">
				<title>F.shape</title>
				<desc>Circle representing F.shape</desc>
				</circle>
			</g>
			<g transform="translate(0,0)">
				<g pointer-events="bounding-box" transform="translate(517.0325361536994,303.1568424087916)">
					<g transform="matrix(1 0 0 -1 0 0)">
						<path d="M-458.1007996,267.1109314c-0.0495911,0-0.0743713,0.0145569-0.0743713,0.0437317
							c0,0.0058289,0.004364,0.0262451,0.0131226,0.0612488c0.0116577,0.0466614,0.0233154,0.072937,0.0350037,0.0787659
							c0.0116577,0.0058289,0.0451965,0.0101929,0.1006165,0.0131226c0.0787354,0,0.1662598,0.004364,0.2624817,0.0131226
							c0.0408325,0.0087585,0.0685425,0.0262451,0.0831299,0.0524902c0.0058289,0.0145874,0.109375,0.4243774,0.3106384,1.2293701
							c0.2012329,0.8049927,0.3033142,1.2133484,0.3062439,1.2250061c0,0.0204163-0.0058289,0.0306396-0.0174866,0.0306396
							c-0.0233459,0.008728-0.100647,0.0160217-0.2318726,0.0218506h-0.1356506
							c-0.0174866,0.0175171-0.0262451,0.0291748-0.0262451,0.0350037s0.0029297,0.0306396,0.0087585,0.0743713
							c0.0116577,0.0495911,0.0262451,0.0802307,0.0437622,0.0918884h2.3580933
							c0.0204163-0.0116577,0.0306396-0.02771,0.0306396-0.0481262c0-0.0145874-0.0189514-0.1779175-0.0568848-0.4899902
							c-0.0379028-0.3121033-0.0583191-0.4725037-0.0612488-0.4812622
							c-0.0058289-0.0204163-0.0350037-0.0306091-0.0874939-0.0306091h-0.0524902
							c-0.0204163,0.0145569-0.0306396,0.0335388-0.0306396,0.0568542c0,0.0029297,0.0043945,0.0379333,0.0131226,0.105011
							c0.0087585,0.0670776,0.0131226,0.1443787,0.0131226,0.2318726s-0.0101929,0.1589661-0.0306091,0.214386
							c-0.0204163,0.0553894-0.0481262,0.1006165-0.0831299,0.1356201s-0.0889587,0.0583191-0.1618652,0.0699768
							c-0.072937,0.0116882-0.1473083,0.0218811-0.2231445,0.0306396s-0.1808167,0.0101929-0.3150024,0.004364h-0.1006165
							c-0.2391663-0.0028992-0.3660278-0.0072937-0.3806152-0.0131226s-0.0247803-0.0174866-0.0306396-0.0350037
							c-0.0028992-0.0028992-0.0524902-0.1939392-0.1487427-0.5731201l-0.1399841-0.5643616h0.2406006
							c0.0087585,0,0.0422974,0,0.100647,0c0.0583191,0,0.0991516,0.0014648,0.1224976,0.004364
							c0.0233154,0.0029297,0.0554199,0.0072937,0.0962524,0.0131226s0.0758362,0.0160522,0.1049805,0.0306396
							c0.0291748,0.0145874,0.0539551,0.032074,0.0743713,0.0524902c0.0379333,0.0350037,0.0700073,0.0831299,0.0962524,0.1443787
							c0.0262756,0.0612488,0.0452271,0.1166687,0.0568848,0.1662598c0.0116577,0.0495605,0.0189514,0.0758362,0.0218811,0.0787354
							c0.0087585,0.0145874,0.036438,0.0218811,0.0831299,0.0218811h0.0524902
							c0.0204163-0.0145874,0.0306396-0.0291748,0.0306396-0.0437622c0-0.008728-0.0452271-0.1997681-0.1356506-0.5731201
							c-0.0903931-0.3733215-0.1399841-0.5658264-0.1487427-0.5774841
							c-0.0058289-0.0204163-0.0350037-0.0306396-0.0874939-0.0306396h-0.0524902
							c-0.0204163,0.0175171-0.0306396,0.0350037-0.0306396,0.0524902c0,0.0087585,0.0072937,0.040863,0.0218811,0.0962524
							c0.0145874,0.0554199,0.0218811,0.1137695,0.0218811,0.1750183c0,0.0845642-0.0291748,0.137085-0.0875244,0.1575012
							c-0.0583191,0.0204163-0.1881104,0.0306091-0.3893738,0.0306091h-0.2406006l-0.1400146-0.555603
							c-0.0933228-0.3616943-0.1399841-0.5512695-0.1399841-0.5687561c0-0.0408325,0.1297913-0.0612488,0.3893738-0.0612488
							h0.109375c0.0174866-0.0175171,0.0262451-0.02771,0.0262451-0.0306396c0-0.0028992-0.0029297-0.032074-0.0087585-0.0874939
							c-0.0116577-0.0379028-0.0262451-0.0656128-0.0437622-0.0831299h-0.0743713
							c-0.1195679,0.0058289-0.3397827,0.0087585-0.660614,0.0087585c-0.1895752,0-0.3339539,0-0.433136,0
							C-458.0337219,267.1152954-458.0891418,267.1138306-458.1007996,267.1109314z"/>
					</g>
				</g>
			</g>
			<g transform="translate(0,0)">
				<circle class="st28" cx="22.7951756" cy="50.3133316" r="14.9594431">
				<title>B.shape</title>
				<desc>Circle representing B.shape</desc>
				</circle>
			</g>
			<g transform="translate(0,0)">
				<g pointer-events="bounding-box" transform="translate(389.15739814014444,353.8287646357909)">
					<g transform="matrix(1 0 0 -1 0 0)">
						<path d="M-363.2228699,307.1769714c-0.0791016,0-0.125946,0.0014648-0.1405945,0.004364
							c-0.0146484,0.0029297-0.0219727,0.019043-0.0219727,0.0483398c0,0.0791016,0.0161133,0.1274109,0.0483398,0.144989
							c0.0029297,0.0029297,0.1932983,0.0043945,0.571167,0.0043945c0.758667,0,1.1584778-0.0029297,1.1994934-0.0087891
							c0.1845398-0.0292664,0.3383179-0.0951843,0.4613342-0.1976929c0.1230164-0.1025391,0.1860046-0.2372742,0.1889343-0.4042358
							c0-0.1874695-0.0849304-0.355896-0.2548218-0.5052795s-0.3646851-0.2504272-0.5843811-0.3031616l-0.0439453-0.0131836
							c0.1874695-0.0263672,0.3412476-0.09375,0.4613647-0.2021179c0.1200867-0.1083679,0.1815796-0.243103,0.1845093-0.4042053
							c0-0.2138367-0.1054382-0.4203491-0.3163452-0.6195374c-0.2108765-0.1991882-0.4701233-0.3119507-0.7776794-0.3383179
							c-0.0205078-0.0029297-0.3295288-0.0043945-0.927063-0.0043945c-0.5858459,0-0.8831482,0.0029297-0.8919373,0.0087891
							c-0.0117188,0.0087891-0.0175781,0.0205078-0.0175781,0.0351562c0,0.0205078,0.0029297,0.0410156,0.0087891,0.0615234
							c0.0146484,0.0556335,0.0292969,0.0863953,0.0439453,0.0922546c0.0117188,0.0029297,0.0336609,0.0043945,0.0658875,0.0043945
							h0.0263672c0.0791016,0,0.1669617,0.0043945,0.2636414,0.0131836
							c0.0409851,0.0087891,0.0688171,0.0263672,0.0834656,0.0527344c0.0087891,0.0117188,0.1142273,0.4188538,0.3163452,1.2214355
							c0.2021179,0.8026123,0.3031616,1.2258606,0.3031616,1.2698059
							C-362.9724426,307.1579285-363.0559082,307.1711121-363.2228699,307.1769714z M-361.3862915,306.7683411
							c0,0.0878601-0.0219727,0.1698914-0.065918,0.2460327c-0.0439453,0.0761719-0.1156921,0.1259766-0.2153015,0.1494141
							c-0.0204773,0.0058594-0.1552429,0.0102539-0.4042053,0.0131836c-0.0585938,0-0.1200867,0-0.1845398,0
							s-0.1156921-0.0014648-0.1537781-0.0043945h-0.0571289c-0.0439148-0.0029297-0.0717468-0.0175781-0.0834656-0.0439453
							c-0.0058594-0.0117188-0.0527344-0.1874695-0.1405945-0.5272522c0-0.0087891-0.0014648-0.0175781-0.0043945-0.0263672
							l-0.1362305-0.5536194h0.355896c0.2372742,0,0.3734741,0.0029297,0.4086304,0.0087891
							c0.1757507,0.0292969,0.3324585,0.1142578,0.4701233,0.2548523S-361.3892212,306.586731-361.3862915,306.7683411z
							 M-361.6235657,305.3843079c0,0.1289062-0.0336914,0.2358093-0.1010437,0.3207397
							c-0.0673828,0.0849609-0.1552429,0.1347656-0.2636414,0.1493835
							c-0.0175476,0.0029297-0.1391296,0.0043945-0.3646545,0.0043945c-0.3456421,0-0.519928-0.0014648-0.5228577-0.0043945
							c0-0.0058594-0.0249023-0.1127625-0.074707-0.3207397c-0.0498047-0.2079468-0.1010437-0.4144592-0.1537781-0.6195068
							l-0.079071-0.3075562c0-0.0117188,0.0175476-0.0175781,0.0527039-0.0175781s0.1537781-0.0029297,0.355896-0.0087891
							c0.2607117,0,0.4013062,0.0014648,0.421814,0.0043945c0.1816101,0.0205078,0.3485718,0.1054382,0.500885,0.2548523
							C-361.699707,304.9888916-361.6235657,305.1705017-361.6235657,305.3843079z"/>
					</g>
				</g>
			</g>
			<g transform="translate(0,0)">
				<circle class="st33" cx="21.6758976" cy="58.7265816" r="5.1919284">
				<title>E.shape</title>
				<desc>Circle representing E.shape</desc>
				</circle>
			</g>
			<g transform="translate(0,0)">
				<g pointer-events="bounding-box" transform="translate(370.4908388959009,394.5463253955671)">
					<g transform="matrix(1 0 0 -1 0 0)">
						<path d="M-348.320343,335.2852173c-0.0583496,0-0.0875244,0.0189514-0.0875244,0.0568848
							c0,0.0116577,0.0072937,0.0466614,0.0218811,0.1049805c0.0145874,0.0583496,0.0218811,0.109375,0.0218811,0.1531372
							c0,0.0904236-0.0306091,0.1458435-0.0918579,0.1662598c-0.0612793,0.0204163-0.2027283,0.0306091-0.424408,0.0306091
							h-0.2275085c-0.0028992-0.0058289-0.0539551-0.2070923-0.1531067-0.6037598
							c-0.0991821-0.3966675-0.1487732-0.6008301-0.1487732-0.6125183c0-0.0116577,0.0160522-0.0174866,0.0481262-0.0174866
							c0.0321045,0,0.1487732-0.0029297,0.3500061-0.0087585c0.2742004,0,0.4550171,0.0029297,0.542511,0.0087585
							c0.0875244,0.0058289,0.1750183,0.0247803,0.2625122,0.0568848c0.1429138,0.0466614,0.2610474,0.1283264,0.3544006,0.2449951
							c0.0933228,0.1166687,0.1968689,0.3077087,0.3106079,0.5731506c0.0291748,0.0641479,0.0481262,0.0991516,0.0568848,0.1049805
							c0.0204163,0.0058289,0.0422974,0.0087585,0.0656128,0.0087585c0.0583496,0,0.0875244-0.0189514,0.0875244-0.0568848
							c-0.3062744-0.7408447-0.4666748-1.1185608-0.4812622-1.1331482c-0.0087585-0.0058289-0.4258423-0.008728-1.2512817-0.008728
							h-0.8268738c-0.2975159,0-0.4462585,0.0160217-0.4462585,0.0481262c0,0.0058289,0.004364,0.0262451,0.0131226,0.0612488
							c0.0116577,0.0466614,0.0233154,0.0729065,0.0350037,0.0787354c0.0116577,0.0058289,0.0451965,0.0102234,0.1006165,0.0131226
							c0.0787354,0,0.1662598,0.0043945,0.2625122,0.0131226c0.0408325,0.0087585,0.0685425,0.0262756,0.0831299,0.0525208
							c0.0058289,0.0145874,0.109375,0.4243774,0.3106079,1.2294006c0.2012634,0.8049927,0.3033447,1.2133484,0.3062744,1.2250061
							c0,0.0204163-0.0058289,0.0306396-0.0175171,0.0306396c-0.0233154,0.008728-0.1006165,0.0160217-0.2318726,0.0218811
							h-0.1356201c-0.0175171,0.0174866-0.0262451,0.0291443-0.0262451,0.0349731
							c0,0.0058594,0.0028992,0.0306396,0.008728,0.0744019c0.0116882,0.0495605,0.0262756,0.0802002,0.0437622,0.0918579h2.4237976
							c0.0204163-0.0116577,0.0306091-0.02771,0.0306091-0.0481262c0-0.0145874-0.0189514-0.1779175-0.0568542-0.4899902
							c-0.0379333-0.3121033-0.0583496-0.4725342-0.0612488-0.4812622
							c-0.0058594-0.0204163-0.0350037-0.0306396-0.0875244-0.0306396h-0.0524902
							c-0.0204163,0.0145874-0.0306396,0.0335388-0.0306396,0.0568848l0.0131531,0.1006165
							c0.008728,0.0700073,0.0131226,0.1458435,0.0131226,0.2275085c0,0.0874939-0.0102234,0.1604309-0.0306396,0.21875
							c-0.0204163,0.0583496-0.0481262,0.1035461-0.0831299,0.1356201
							c-0.0350037,0.0321045-0.0860291,0.0554199-0.1531372,0.0700073
							c-0.0670776,0.0145874-0.1356201,0.0248108-0.2056274,0.0306396
							c-0.0699768,0.0058289-0.1633301,0.0087585-0.2799988,0.0087585h-0.2056274
							c-0.2566528-0.0029297-0.3923035-0.0072937-0.4068909-0.0131531
							c-0.0116577-0.0058289-0.0204163-0.0189514-0.0262451-0.0393677
							c-0.0028992-0.0087585-0.0481262-0.1881104-0.1356201-0.5381165s-0.1327209-0.5279541-0.1356201-0.533783
							c0.0670776-0.0028992,0.137085-0.004364,0.2099915-0.004364h0.1137695c0.1925049,0,0.3251953,0.0218811,0.3981323,0.0656128
							c0.0729065,0.0437622,0.1385193,0.1618958,0.1968689,0.3544006c0.0116577,0.0466614,0.0204163,0.0729065,0.0262451,0.0787354
							s0.0306396,0.0102234,0.0743713,0.0131226c0.0145874,0,0.0262451,0,0.0350037,0s0.0160522-0.0014343,0.0218811-0.004364
							s0.0087585-0.004364,0.0087585-0.004364s0.0028992-0.0058289,0.008728-0.0175171
							c0.0058594-0.0116577,0.0102234-0.0174866,0.0131531-0.0174866l-0.1443787-0.5775146
							c-0.0962524-0.3879395-0.1487732-0.5848083-0.1575012-0.5906372
							C-348.2590942,335.2895813-348.2824402,335.2852173-348.320343,335.2852173z"/>
					</g>
				</g>
			</g>
			<g transform="translate(0,0)">
				<circle class="st34" cx="14.7716246" cy="47.6599503" r="5.2195568">
				<title>D.shape</title>
				<desc>Circle representing D.shape</desc>
				</circle>
			</g>
			<g transform="translate(0,0)">
				<g pointer-events="bounding-box" transform="translate(343.3127684440684,352.2282190866435)">
					<g transform="matrix(1 0 0 -1 0 0)">
						<path d="M-329.259613,305.9597473c0,0.0205078-0.0834656,0.0336914-0.2504272,0.0395508
							c-0.0673523,0-0.1112671,0.0014648-0.1317749,0.0043945s-0.0307617,0.0161133-0.0307617,0.0395203
							c0,0.0234375,0.0058594,0.0527344,0.0175781,0.0878906c0.0117188,0.0351257,0.0219727,0.0570984,0.0307617,0.0658875
							c0.0058594,0.0029297,0.2972717,0.0043945,0.8742371,0.0043945c0.4890747-0.0029297,0.7629395-0.0043945,0.8215027-0.0043945
							s0.117157-0.0087891,0.1757202-0.0263672c0.2108765-0.0497742,0.3895264-0.1654663,0.5359802-0.3470459
							c0.1464233-0.1815796,0.2210999-0.4246826,0.2240295-0.7292786c0-0.4568787-0.1566772-0.8669128-0.4700623-1.230072
							s-0.6824036-0.579895-1.1070557-0.650177l-0.0615234-0.0087891l-0.8522644-0.0043945h-0.4876404h-0.2328186
							c-0.0703125,0-0.1156921,0.0029297-0.1362,0.0087891s-0.0322266,0.019043-0.0351562,0.0395203
							c0,0.0058594,0.0043945,0.0263672,0.0131836,0.0615234c0.0117188,0.0468445,0.0234375,0.0732117,0.0351562,0.079071
							s0.0453796,0.0102539,0.1010437,0.0131836c0.079071,0,0.1669312,0.0043945,0.2635803,0.0131836
							c0.0410156,0.0087891,0.0688171,0.0263367,0.0834656,0.0527039c0.0087891,0.0117188,0.1142273,0.4188232,0.3163147,1.221283
							C-329.3606567,305.4926147-329.259613,305.9158325-329.259613,305.9597473z M-327.4320679,305.261261
							c0,0.1112671-0.0161133,0.2108459-0.0483398,0.2987061c-0.032196,0.0878906-0.070282,0.1567078-0.1141968,0.2064819
							c-0.0439453,0.0498047-0.098114,0.0922546-0.1625671,0.1274109c-0.0644226,0.0351562-0.1215515,0.0585632-0.1713257,0.070282
							s-0.1010437,0.0219727-0.1537476,0.0307617c-0.0058594,0-0.0263672,0-0.0615234,0c-0.0351257,0-0.0776062,0-0.1273804,0
							c-0.0498047,0-0.098114,0.0014648-0.144989,0.0043945h-0.1889038c-0.1288757,0-0.2020874-0.0146484-0.2196655-0.0439453
							c-0.0058594-0.0117188-0.1127319-0.4334412-0.3206787-1.2652283
							c-0.2079468-0.8317566-0.3119202-1.2520142-0.3119202-1.2608032c0-0.0117188,0.0161133-0.0175781,0.0483093-0.0175781
							c0.0322266,0,0.144989-0.0014648,0.3382874-0.0043945c0.0146484,0,0.04245,0,0.0834656,0
							s0.0761414-0.0014648,0.1054382-0.0043945c0.3690186,0,0.6736145,0.1200867,0.9137573,0.3602295
							c0.1054382,0.1054382,0.1918335,0.2284546,0.2592163,0.3690186c0.0673523,0.1405945,0.1303101,0.3265686,0.1889038,0.5579224
							C-327.4613647,304.9215088-327.4320679,305.1118774-327.4320679,305.261261z"/>
					</g>
				</g>
			</g>
		</g>
	</g>
</g>
</svg>
