<svg xmlns="http://www.w3.org/2000/svg" viewBox="0 0 19.32 18.84">
  <title>Asset 2</title>
  <g id="Layer_2" data-name="Layer 2">
    <g id="geometry">
      <g id="PByPPU.tif">
        <path d="M18,18.24a.6.6,0,0,1-.29.56c-.22.11-.35,0-.51-.16-1.2-1-2.46-1.87-3.63-2.88a11.79,11.79,0,0,0-1.48-1c-1-.62-2-1.26-3-1.85a44.4,44.4,0,0,0-4.3-2,11.79,11.79,0,0,0-2.1-.65A9.82,9.82,0,0,0,.52,9.74.54.54,0,0,1,0,9.18c0-.34.3-.48.57-.53A32.82,32.82,0,0,0,4.1,7.72c1.37-.39,2.66-1,4-1.48A21,21,0,0,0,10.8,4.9c1.52-.85,3-1.71,4.51-2.62,1-.63,2-1.36,3-2.05A1,1,0,0,1,18.81,0a.46.46,0,0,1,.48.65,1.11,1.11,0,0,1-.34.46c-1.12,1-2.4,1.68-3.58,2.55-.2.15-.29.25-.16.47A6.88,6.88,0,0,1,16,7.67a13.77,13.77,0,0,1-.22,2.9c-.14.62-.23,1.26-.37,1.89a4.09,4.09,0,0,1-1.08,2c-.18.19-.17.27,0,.45a14.56,14.56,0,0,0,1.91,1.48c.56.4,1,1,1.57,1.32C18,17.87,17.9,18.1,18,18.24Zm-5.63-4.75c.19-.42-.13-.69-.15-1a20.91,20.91,0,0,1,0-2.72A14.9,14.9,0,0,1,13,5.44c0-.09.15-.18,0-.28s-.19,0-.29.06c-.52.29-1,.59-1.55.86A32,32,0,0,1,7.3,7.79c-.73.27-1.46.53-2.2.77a4,4,0,0,0-1.81.72A30.24,30.24,0,0,1,12.36,13.49Z"/>
      </g>
    </g>
  </g>
</svg>
