<svg xmlns="http://www.w3.org/2000/svg" version="1.2" width="800" height="700" viewBox="0 0 800 700"><desc>This diagram was created with Penrose (https://penrose.ink) on 2019-10-11. If you have any suggestions on making this diagram more accessible, please contact us.
</desc><g transform="translate(0,0)"><g transform="translate(200,150)"><svg xmlns="http://www.w3.org/2000/svg" version="1.1" xmlns:xlink="http://www.w3.org/1999/xlink" width="400" height="400">
<title>Ideal-triangle hyperbolic tiling</title>

<!--

import Data.List (intersperse)
import Text.Printf (printf)

{- ~~~~~~~~~~~~~~~~~~~~~~~~~~~~~~~~~~~~~~~~~~~~~~~~~~~~~~~~~~
~~~ Parameters
~~~~~~~~~~~~~~~~~~~~~~~~~~~~~~~~~~~~~~~~~~~~~~~~~~~~~~~~~~~ -}

output_path = "/tmp/hyperbolic.svg" :: FilePath

width = 800
background_fill = "white"

(xmin, xmax) = (-1, 1)
(ymin, ymax) = (-1, 1)

{- ~~~~~~~~~~~~~~~~~~~~~~~~~~~~~~~~~~~~~~~~~~~~~~~~~~~~~~~~~~
~~~ Declarations
~~~~~~~~~~~~~~~~~~~~~~~~~~~~~~~~~~~~~~~~~~~~~~~~~~~~~~~~~~ -}

type Point = (Double, Double)

data PathPart = PathPart String
 {- For commands in an SVG <path>. -}

header = unlines $
   ["<?xml version=\"1.0\" encoding=\"UTF-8\" standalone=\"no\"?>",
    "<!DOCTYPE svg PUBLIC \"-//W3C//DTD SVG 1.1//EN\"",
    "  \"http://www.w3.org/Graphics/SVG/1.1/DTD/svg11.dtd\">",
    "<svg",
    "    xmlns=\"http://www.w3.org/2000/svg\" version=\"1.1\"",
    "    xmlns:xlink=\"http://www.w3.org/1999/xlink\"",
    "    width='" ++ show width ++ "' height='" ++ show height ++ "'>\n"]
footer = "\n\n</svg>\n"

height = (ymax - ymin) * width/(xmax - xmin) :: Double

{- ~~~~~~~~~~~~~~~~~~~~~~~~~~~~~~~~~~~~~~~~~~~~~~~~~~~~~~~~~~
~~~ IO
~~~~~~~~~~~~~~~~~~~~~~~~~~~~~~~~~~~~~~~~~~~~~~~~~~~~~~~~~~~ -}

main = writeFile output_path svg

{- ~~~~~~~~~~~~~~~~~~~~~~~~~~~~~~~~~~~~~~~~~~~~~~~~~~~~~~~~~~~
~~~ Geometry
~~~~~~~~~~~~~~~~~~~~~~~~~~~~~~~~~~~~~~~~~~~~~~~~~~~~~~~~~~~ -}

content = unlines $ [unitcircle, primeTri, subTrisSymbol] ++
              map subTrisUse [0, 1/6, 1/3, 1/2, 2/3, 5/6]
  where unitcircle = svgcirc (0, 0) 1 "black"
        p θ = polar $ 1/4 - θ

        primeTri = hypTriangle (p 0 1) (p (1/3) 1) (p (2/3) 1) "black"

        subTrisSymbol :: String
        subTrisSymbol = unlines $
            "<symbol id='subTris'>" :
            (map ("  " ++) $ f recdepth 0 (1/6)) ++
            ["</symbol>"]
          where f 0 θ1 θ2 = [t θ1 θm θ2 $ color 0]
                  where θm = ((θ1 + θ2)/2)
                f n θ1 θ2 = (if even n then t θ1 θm θ2 (color n) else []) :
                    f (n - 1) θ1 θm ++ f (n - 1) θm θ2
                  where θm = ((θ1 + θ2)/2)
                t θ1 θ2 θ3 c = hypTriangle (p θ1 1) (p θ2 1) (p θ3 1) c
                color n | even n == even recdepth = "black"
                        | otherwise               = "white"
                recdepth = 6

        subTrisUse θ = printf "<use xlink:href='#subTris' transform='rotate(%d %g,%g)'/>"
            (floor (θ * 360) :: Int) (svgx 0) (svgy 0)

hypTriangle :: Point -> Point -> Point -> String -> String
hypTriangle p1 p2 p3 fill = svgpath
   [pathMoveto p1, hypSeg p1 p2, hypSeg p2 p3, hypSeg p3 p1]
   "none" fill

hypSeg :: Point -> Point -> PathPart
{- The hyperbolic segment connecting the two points in the
Poincaré disc model. -}
hypSeg p1' p2' | r > 40    = pathLineto p2'
               | otherwise = pathArc p2' r sweep
  where (cx, cy) = discCenter p1 p2
        r = dist (cx, cy) p1
        sweep = negateIf flipped $ if midy ≈≈ cy
              then cx < midx
              else midy > cy
          where midx = (x1 + x2) / 2
                midy = (y1 + y2) / 2

        ((x1, y1), (x2, y2)) = (p1, p2)
        (p1, p2, flipped) =
            if xa < xb then
              (p1', p2', False)
            else if xb < xa then
              (p2', p1', True)
            else if ya > yb then
              (p1', p2', False)
            else
              (p2', p1', True)
          where (xa, ya) = p1'
                (xb, yb) = p2'

discCenter :: Point -> Point -> Point
{- Given two points in the Poincaré disc model of the hyperbolic
plane, finds the center of the circle containing the geodesic
that connects them. -}
discCenter (x1, y1) (x2, y2) =
   (-(y1*a + y1^2*y2 + x1^2*y2 + y2)/b,
     (x1*a + y1^2*x2 + x1^2*x2 + x2)/b)
  where a = -y2^2 - x2^2 - 1
        b = 2*(x2*y1 - x1*y2)

dist :: Point -> Point -> Double
{- Euclidean distance. -}
dist (x1, y1) (x2, y2) = sqrt $ (x1 - x2)^2 + (y1 - y2)^2

polar :: Double -> Double -> Point
{- Converts a polar point (the angle being given in revolutions)
to a Cartesian point. -}
polar θ r = (r * cos (θ * 2 * pi), r * sin (θ * 2 * pi))

{- ~~~~~~~~~~~~~~~~~~~~~~~~~~~~~~~~~~~~~~~~~~~~~~~~~~~~~~~~~~
~~~ SVG
~~~~~~~~~~~~~~~~~~~~~~~~~~~~~~~~~~~~~~~~~~~~~~~~~~~~~~~~~~~ -}

svg = header ++ background ++ "\n" ++ content ++ footer

background = printf
    "<rect x='0' y='0' width='%d' height='%d' fill='%s'/>\n"
    (ceiling width :: Int) (ceiling height :: Int) background_fill

svgcirc :: Point -> Double -> String -> String
svgcirc (x, y) r s = printf
    "<circle cx='%g' cy='%g' r='%g' stroke='%s' fill='none'/>"
    (svgx x) (svgy y) (svgd r) s

svgpath :: [PathPart] -> String -> String -> String
svgpath ps = printf "<path d='%s' stroke='%s' fill='%s'/>" d
  where d = concat $ intersperse " " $ map f ps
        f (PathPart s) = s

pathMoveto, pathLineto :: Point -> PathPart
pathMoveto (x, y) = PathPart $ printf "M%g,%g" (svgx x) (svgy y)
pathLineto (x, y) = PathPart $ printf "L%g,%g" (svgx x) (svgy y)

pathArc :: Point -> Double -> Bool -> PathPart
pathArc (x, y) r sweep = PathPart $ printf "A%g,%g 0 0,%d %g,%g"
    (svgd r) (svgd r) (if sweep then 1 else 0 :: Int)
    (svgx x) (svgy y)

svgx x = (x - xmin)/(xmax - xmin) * width
svgy y = (y - ymin)/(ymin - ymax) * height + height
svgd d = d / (xmax - xmin) * width

{- ~~~~~~~~~~~~~~~~~~~~~~~~~~~~~~~~~~~~~~~~~~~~~~~~~~~~~~~~~~
~~~ Utility
~~~~~~~~~~~~~~~~~~~~~~~~~~~~~~~~~~~~~~~~~~~~~~~~~~~~~~~~~~ -}

negateIf True  a = not a
negateIf False a = a

(≈≈) :: RealFrac a => a -> a -> Bool
a ≈≈ b = abs (a - b) < 1e-6

infix 4 ≈≈

-->

<rect x="0" y="0" width="800" height="800" fill="white"></rect>

<circle cx="400.0" cy="400.0" r="400.0" stroke="black" fill="none"></circle>
<path d="M400.0,0.0 A692.8203230275509,692.8203230275509 0 0,0 746.4101615137755,599.9999999999999 A692.8203230275508,692.8203230275508 0 0,0 53.58983848622461,600.0000000000001 A692.8203230275512,692.8203230275512 0 0,0 400.0,0.0" stroke="none" fill="black"></path>
<symbol id="subTris">
  <path d="M400.0,0.0 A107.17967697244902,107.17967697244902 0 0,0 600.0,53.589838486224494 A107.17967697244914,107.17967697244914 0 0,0 746.4101615137754,200.0 A230.9401076758503,230.9401076758503 0 0,1 400.0,0.0" stroke="none" fill="black"></path>
  
  <path d="M400.0,0.0 A26.217385126095177,26.217385126095177 0 0,0 452.2104768880207,3.4220554504757956 A26.217385126095007,26.217385126095007 0 0,0 503.5276180410083,13.629669484372698 A52.66099903495838,52.66099903495838 0 0,1 400.0,0.0" stroke="none" fill="black"></path>
  
  <path d="M400.0,0.0 A6.5455688541241255,6.5455688541241255 0 0,0 413.08763312871054,0.21416500945372263 A6.54556885412412,6.54556885412412 0 0,0 426.16125169205725,0.8564307045586474 A13.094644165189193,13.094644165189193 0 0,1 400.0,0.0" stroke="none" fill="black"></path>
  
  <path d="M400.0,0.0 A1.6362553003155522,1.6362553003155522 0 0,0 403.2724558415749,1.3386433039613621e-2 A1.636255300310666,1.636255300310666 0 0,0 406.5446926505947,5.3544836175206e-2 A3.272565361515705,3.272565361515705 0 0,1 400.0,0.0" stroke="none" fill="black"></path>
  <path d="M406.5446926505947,5.3544836175206e-2 A1.6362553003171607,1.6362553003171607 0 0,0 409.81649140916494,0.1204725215183089 A1.6362553003116735,1.6362553003116735 0 0,0 413.08763312871054,0.21416500945372263 A3.27256536151432,3.27256536151432 0 0,1 406.5446926505947,5.3544836175206e-2" stroke="none" fill="black"></path>
  
  <path d="M413.08763312871054,0.21416500945372263 A1.63625530031086,1.63625530031086 0 0,0 416.3578988646334,0.33461602894055886 A1.6362553003120328,1.6362553003120328 0 0,0 419.62706973096726,0.48181751793106287 A3.272565361518134,3.272565361518134 0 0,1 413.08763312871054,0.21416500945372263" stroke="none" fill="black"></path>
  <path d="M419.62706973096726,0.48181751793106287 A1.6362553003100089,1.6362553003100089 0 0,0 422.89492691502755,0.6557596239110808 A1.636255300319396,1.636255300319396 0 0,0 426.16125169205725,0.8564307045586474 A3.2725653615200176,3.2725653615200176 0 0,1 419.62706973096726,0.48181751793106287" stroke="none" fill="black"></path>
  <path d="M426.16125169205725,0.8564307045586474 A6.545568854125633,6.545568854125633 0 0,0 439.20685613182434,1.9261093311213244 A6.5455688541234816,6.5455688541234816 0 0,0 452.2104768880207,3.4220554504757956 A13.094644165189306,13.094644165189306 0 0,1 426.16125169205725,0.8564307045586474" stroke="none" fill="black"></path>
  
  <path d="M426.16125169205725,0.8564307045586474 A1.63625530031661,1.63625530031661 0 0,0 429.425825439867,1.0838173285238781 A1.636255300317338,1.636255300317338 0 0,0 432.6884296534673,1.3379042763278903 A3.272565361519574,3.272565361519574 0 0,1 426.16125169205725,0.8564307045586474" stroke="none" fill="black"></path>
  <path d="M432.6884296534673,1.3379042763278903 A1.6362553003170102,1.6362553003170102 0 0,0 435.948845959694,1.6186745413808694 A1.6362553003181057,1.6362553003181057 0 0,0 439.20685613182434,1.9261093311213244 A3.272565361520177,3.272565361520177 0 0,1 432.6884296534673,1.3379042763278903" stroke="none" fill="black"></path>
  
  <path d="M439.20685613182434,1.9261093311213244 A1.6362553003120381,1.6362553003120381 0 0,0 442.4622421041831,2.2601880682727824 A1.636255300319262,1.636255300319262 0 0,0 445.7147859867386,2.6208883922222412 A3.2725653615195625,3.2725653615195625 0 0,1 439.20685613182434,1.9261093311213244" stroke="none" fill="black"></path>
  <path d="M445.7147859867386,2.6208883922222412 A1.6362553003174733,1.6362553003174733 0 0,0 448.9642700796865,3.0081861605159474 A1.6362553003199867,1.6362553003199867 0 0,0 452.2104768880207,3.4220554504757956 A3.272565361517284,3.272565361517284 0 0,1 445.7147859867386,2.6208883922222412" stroke="none" fill="black"></path>
  
  <path d="M452.2104768880207,3.4220554504757956 A6.545568854125332,6.545568854125332 0 0,0 465.15818935783557,5.342667166048386 A6.545568854123853,6.545568854123853 0 0,0 478.03612880645136,7.685887838707799 A13.094644165188974,13.094644165188974 0 0,1 452.2104768880207,3.4220554504757956" stroke="none" fill="black"></path>
  
  <path d="M452.2104768880207,3.4220554504757956 A1.6362553003148261,1.6362553003148261 0 0,0 455.45318913609066,3.862468560934076 A1.6362553003123466,1.6362553003123466 0 0,0 458.6921897821447,4.3293960140875924 A3.2725653615149133,3.2725653615149133 0 0,1 452.2104768880207,3.4220554504757956" stroke="none" fill="black"></path>
  <path d="M458.6921897821447,4.3293960140875924 A1.6362553003154807,1.6362553003154807 0 0,0 461.9272620328564,4.82280655747104 A1.6362553003143159,1.6362553003143159 0 0,0 465.15818935783557,5.342667166048386 A3.272565361517514,3.272565361517514 0 0,1 458.6921897821447,4.3293960140875924" stroke="none" fill="black"></path>
  
  <path d="M465.15818935783557,5.342667166048386 A1.636255300314266,1.636255300314266 0 0,0 468.3847555041205,5.888943044423513 A1.6362553003123368,1.6362553003123368 0 0,0 471.6067445106532,6.461597629169091 A3.2725653615172616,3.2725653615172616 0 0,1 465.15818935783557,5.342667166048386" stroke="none" fill="black"></path>
  <path d="M471.6067445106532,6.461597629169091 A1.6362553003138487,1.6362553003138487 0 0,0 474.8239407227328,7.060592591273689 A1.6362553003160771,1.6362553003160771 0 0,0 478.03612880645136,7.685887838707799 A3.272565361518967,3.272565361518967 0 0,1 471.6067445106532,6.461597629169091" stroke="none" fill="black"></path>
  <path d="M478.03612880645136,7.685887838707799 A6.545568854125354,6.545568854125354 0 0,0 490.8305052137493,10.449208289066519 A6.545568854124914,6.545568854124914 0 0,0 503.5276180410083,13.629669484372698 A13.094644165188866,13.094644165188866 0 0,1 478.03612880645136,7.685887838707799" stroke="none" fill="black"></path>
  
  <path d="M478.03612880645136,7.685887838707799 A1.6362553003178002,1.6362553003178002 0 0,0 481.2430937631051,8.337441519106505 A1.6362553003162268,1.6362553003162268 0 0,0 484.444620943586,9.015210022571182 A3.2725653615169383,3.2725653615169383 0 0,1 478.03612880645136,7.685887838707799" stroke="none" fill="black"></path>
  <path d="M484.444620943586,9.015210022571182 A1.636255300314752,1.636255300314752 0 0,0 487.6404960627479,9.71914798458863 A1.6362553003109834,1.6362553003109834 0 0,0 490.8305052137493,10.449208289066519 A3.2725653615169583,3.2725653615169583 0 0,1 484.444620943586,9.015210022571182" stroke="none" fill="black"></path>
  
  <path d="M490.8305052137493,10.449208289066519 A1.636255300313331,1.636255300313331 0 0,0 494.01443488237067,11.205342071488303 A1.636255300310669,1.636255300310669 0 0,0 497.1920719613056,11.987498722182409 A3.2725653615158605,3.2725653615158605 0 0,1 490.8305052137493,10.449208289066519" stroke="none" fill="black"></path>
  <path d="M497.1920719613056,11.987498722182409 A1.6362553003170923,1.6362553003170923 0 0,0 500.36320376442393,12.795625889710891 A1.6362553003148765,1.6362553003148765 0 0,0 503.5276180410083,13.629669484372698 A3.272565361515861,3.272565361515861 0 0,1 497.1920719613056,11.987498722182409" stroke="none" fill="black"></path>
  <path d="M503.5276180410083,13.629669484372698 A26.217385126095,26.217385126095 0 0,0 553.073372946036,30.448186995485344 A26.217385126095433,26.217385126095433 0 0,0 600.0,53.589838486224494 A52.66099903495828,52.66099903495828 0 0,1 503.5276180410083,13.629669484372698" stroke="none" fill="black"></path>
  
  <path d="M503.5276180410083,13.629669484372698 A6.545568854123468,6.545568854123468 0 0,0 516.1138709017849,17.223865707116374 A6.545568854124709,6.545568854124709 0 0,0 528.5757861212646,21.2279482019577 A13.094644165188871,13.094644165188871 0 0,1 503.5276180410083,13.629669484372698" stroke="none" fill="black"></path>
  
  <path d="M503.5276180410083,13.629669484372698 A1.6362553003140368,1.6362553003140368 0 0,0 506.6851029899594,14.489573681824027 A1.6362553003155356,1.6362553003155356 0 0,0 509.8354472739729,15.375280926815208 A3.2725653615173775,3.2725653615173775 0 0,1 503.5276180410083,13.629669484372698" stroke="none" fill="black"></path>
  <path d="M509.8354472739729,15.375280926815208 A1.6362553003181242,1.6362553003181242 0 0,0 512.9784400336849,16.286731937042532 A1.6362553003131841,1.6362553003131841 0 0,0 516.1138709017849,17.223865707116374 A3.272565361515488,3.272565361515488 0 0,1 509.8354472739729,15.375280926815208" stroke="none" fill="black"></path>
  
  <path d="M516.1138709017849,17.223865707116374 A1.6362553003180573,1.6362553003180573 0 0,0 519.2415300170959,18.186619512644597 A1.6362553003133526,1.6362553003133526 0 0,0 522.3612080386214,19.174928914430325 A3.2725653615166306,3.2725653615166306 0 0,1 516.1138709017849,17.223865707116374" stroke="none" fill="black"></path>
  <path d="M522.3612080386214,19.174928914430325 A1.636255300314376,1.636255300314376 0 0,0 525.4726961595567,20.188727762785334 A1.6362553003198634,1.6362553003198634 0 0,0 528.5757861212646,21.2279482019577 A3.2725653615171315,3.2725653615171315 0 0,1 522.3612080386214,19.174928914430325" stroke="none" fill="black"></path>
  <path d="M528.5757861212646,21.2279482019577 A6.545568854124214,6.545568854124214 0 0,0 540.9000191684935,25.637629297069793 A6.545568854124928,6.545568854124928 0 0,0 553.073372946036,30.448186995485344 A13.094644165189278,13.094644165189278 0 0,1 528.5757861212646,21.2279482019577" stroke="none" fill="black"></path>
  
  <path d="M528.5757861212646,21.2279482019577 A1.6362553003160691,1.6362553003160691 0 0,0 531.6702702272155,22.29252067467337 A1.6362553003150038,1.6362553003150038 0 0,0 534.755941356888,23.38237392679173 A3.2725653615181565,3.2725653615181565 0 0,1 528.5757861212646,21.2279482019577" stroke="none" fill="black"></path>
  <path d="M534.755941356888,23.38237392679173 A1.6362553003089388,1.6362553003089388 0 0,0 537.8325929796322,24.49743501207479 A1.6362553003175906,1.6362553003175906 0 0,0 540.9000191684935,25.637629297069793 A3.2725653615173966,3.2725653615173966 0 0,1 534.755941356888,23.38237392679173" stroke="none" fill="black"></path>
  
  <path d="M540.9000191684935,25.637629297069793 A1.6362553003116571,1.6362553003116571 0 0,0 543.9580146139953,26.80288046610451 A1.6362553003159623,1.6362553003159623 0 0,0 547.0063746378814,27.993110526395185 A3.2725653615164085,3.2725653615164085 0 0,1 540.9000191684935,25.637629297069793" stroke="none" fill="black"></path>
  <path d="M547.0063746378814,27.993110526395185 A1.636255300317331,1.636255300317331 0 0,0 550.0448952068152,29.208239813266914 A1.636255300313965,1.636255300313965 0 0,0 553.073372946036,30.448186995485344 A3.272565361516755,3.272565361516755 0 0,1 547.0063746378814,27.993110526395185" stroke="none" fill="black"></path>
  
  <path d="M553.073372946036,30.448186995485344 A6.545568854125124,6.545568854125124 0 0,0 565.0828119217579,35.65447003152963 A6.545568854124357,6.545568854124357 0 0,0 576.9154760876005,41.25090338692473 A13.094644165188804,13.094644165188804 0 0,1 553.073372946036,30.448186995485344" stroke="none" fill="black"></path>
  
  <path d="M553.073372946036,30.448186995485344 A1.636255300316785,1.636255300316785 0 0,0 556.0916051529712,31.712869080700898 A1.6362553003156588,1.6362553003156588 0 0,0 559.0993898108044,33.002201421003406 A3.2725653615172754,3.2725653615172754 0 0,1 553.073372946036,30.448186995485344" stroke="none" fill="black"></path>
  <path d="M559.0993898108044,33.002201421003406 A1.6362553003143894,1.6362553003143894 0 0,0 562.096525601996,34.316097718587685 A1.6362553003154658,1.6362553003154658 0 0,0 565.0828119217579,35.65447003152963 A3.2725653615172634,3.2725653615172634 0 0,1 559.0993898108044,33.002201421003406" stroke="none" fill="black"></path>
  
  <path d="M565.0828119217579,35.65447003152963 A1.6362553003094975,1.6362553003094975 0 0,0 568.058048891481,37.017228779672564 A1.636255300310914,1.636255300310914 0 0,0 571.0220373721129,38.404282750622656 A3.272565361514336,3.272565361514336 0 0,1 565.0828119217579,35.65447003152963" stroke="none" fill="black"></path>
  <path d="M571.0220373721129,38.404282750622656 A1.6362553003209803,1.6362553003209803 0 0,0 573.9745789774869,39.815539105854555 A1.6362553003142062,1.6362553003142062 0 0,0 576.9154760876005,41.25090338692473 A3.2725653615174446,3.2725653615174446 0 0,1 571.0220373721129,38.404282750622656" stroke="none" fill="black"></path>
  <path d="M576.9154760876005,41.25090338692473 A6.54556885412463,6.54556885412463 0 0,0 588.5586947303991,47.231494260657996 A6.545568854124699,6.545568854124699 0 0,0 600.0,53.589838486224494 A13.094644165188985,13.094644165188985 0 0,1 576.9154760876005,41.25090338692473" stroke="none" fill="black"></path>
  
  <path d="M576.9154760876005,41.25090338692473 A1.636255300314408,1.636255300314408 0 0,0 579.8445318618427,42.71027952179395 A1.6362553003173574,1.6362553003173574 0 0,0 582.7615502521681,44.193569831257605 A3.2725653615200168,3.2725653615200168 0 0,1 576.9154760876005,41.25090338692473" stroke="none" fill="black"></path>
  <path d="M582.7615502521681,44.193569831257605 A1.6362553003147113,1.6362553003147113 0 0,0 585.6663360162206,45.700675035483755 A1.6362553003167992,1.6362553003167992 0 0,0 588.5586947303991,47.231494260657996 A3.2725653615183883,3.2725653615183883 0 0,1 582.7615502521681,44.193569831257605" stroke="none" fill="black"></path>
  
  <path d="M588.5586947303991,47.231494260657996 A1.6362553003155538,1.6362553003155538 0 0,0 591.4384328028723,48.785925045734984 A1.636255300315356,1.636255300315356 0 0,0 594.3053574865361,50.36386334929648 A3.272565361517726,3.272565361517726 0 0,1 588.5586947303991,47.231494260657996" stroke="none" fill="black"></path>
  <path d="M594.3053574865361,50.36386334929648 A1.6362553003158629,1.6362553003158629 0 0,0 597.1592768919137,51.96520355651546 A1.6362553003164848,1.6362553003164848 0 0,0 600.0,53.589838486224494 A3.2725653615157393,3.2725653615157393 0 0,1 594.3053574865361,50.36386334929648" stroke="none" fill="black"></path>
  
  <path d="M600.0,53.589838486224494 A26.217385126095248,26.217385126095248 0 0,0 643.5045716034882,82.65866388350594 A26.21738512609535,26.21738512609535 0 0,0 682.842712474619,117.15728752538098 A52.66099903495842,52.66099903495842 0 0,1 600.0,53.589838486224494" stroke="none" fill="black"></path>
  
  <path d="M600.0,53.589838486224494 A6.545568854123597,6.545568854123597 0 0,0 611.2271402601472,60.31912738936842 A6.54556885412339,6.54556885412339 0 0,0 622.2280932078409,67.41215507898187 A13.094644165188967,13.094644165188967 0 0,1 600.0,53.589838486224494" stroke="none" fill="black"></path>
  
  <path d="M600.0,53.589838486224494 A1.636255300315622,1.636255300315622 0 0,0 602.8273366750468,55.23765939809027 A1.6362553003137503,1.6362553003137503 0 0,0 605.6410976772886,56.90855599989118 A3.27256536151845,3.27256536151845 0 0,1 600.0,53.589838486224494" stroke="none" fill="black"></path>
  <path d="M605.6410976772886,56.90855599989118 A1.6362553003169527,1.6362553003169527 0 0,0 608.4410946756094,58.60241645489987 A1.6362553003091338,1.6362553003091338 0 0,0 611.2271402601472,60.31912738936842 A3.272565361516358,3.272565361516358 0 0,1 605.6410976772886,56.90855599989118" stroke="none" fill="black"></path>
  
  <path d="M611.2271402601472,60.31912738936842 A1.6362553003145348,1.6362553003145348 0 0,0 613.9990479548389,62.05857390011715 A1.6362553003174285,1.6362553003174285 0 0,0 616.7566322299006,63.82063956222487 A3.2725653615159627,3.2725653615159627 0 0,1 611.2271402601472,60.31912738936842" stroke="none" fill="black"></path>
  <path d="M616.7566322299006,63.82063956222487 A1.6362553003176759,1.6362553003176759 0 0,0 619.4997085142463,65.60520643682128 A1.6362553003127223,1.6362553003127223 0 0,0 622.2280932078409,67.41215507898187 A3.272565361516649,3.272565361516649 0 0,1 616.7566322299006,63.82063956222487" stroke="none" fill="black"></path>
  <path d="M622.2280932078409,67.41215507898187 A6.545568854124989,6.545568854124989 0 0,0 632.9910787471208,74.86132616335385 A6.545568854124009,6.545568854124009 0 0,0 643.5045716034882,82.65866388350594 A13.094644165188885,13.094644165188885 0 0,1 622.2280932078409,67.41215507898187" stroke="none" fill="black"></path>
  
  <path d="M622.2280932078409,67.41215507898187 A1.636255300313965,1.636255300313965 0 0,0 624.9416036939892,69.24136454572147 A1.636255300314388,1.636255300314388 0 0,0 627.6400583515593,71.09271240408998 A3.272565361517542,3.272565361517542 0 0,1 622.2280932078409,67.41215507898187" stroke="none" fill="black"></path>
  <path d="M627.6400583515593,71.09271240408998 A1.636255300317128,1.636255300317128 0 0,0 630.3232765671382,72.96607473936649 A1.6362553003208178,1.6362553003208178 0 0,0 632.9910787471208,74.86132616335385 A3.2725653615189763,3.2725653615189763 0 0,1 627.6400583515593,71.09271240408998" stroke="none" fill="black"></path>
  
  <path d="M632.9910787471208,74.86132616335385 A1.6362553003189233,1.6362553003189233 0 0,0 635.6432863297313,76.7783398227707 A1.636255300318214,1.636255300318214 0 0,0 638.2797217969734,78.71698740774207 A3.2725653615174375,3.2725653615174375 0 0,1 632.9910787471208,74.86132616335385" stroke="none" fill="black"></path>
  <path d="M638.2797217969734,78.71698740774207 A1.636255300317717,1.636255300317717 0 0,0 640.9002086865128,80.67713916038747 A1.6362553003143816,1.6362553003143816 0 0,0 643.5045716034882,82.65866388350594 A3.272565361519717,3.272565361519717 0 0,1 638.2797217969734,78.71698740774207" stroke="none" fill="black"></path>
  
  <path d="M643.5045716034882,82.65866388350594 A6.545568854124009,6.545568854124009 0 0,0 653.7573136654582,90.79581865490525 A6.545568854124063,6.545568854124063 0 0,0 663.7383260400276,99.264077008409 A13.094644165189154,13.094644165189154 0 0,1 643.5045716034882,82.65866388350594" stroke="none" fill="black"></path>
  
  <path d="M643.5045716034882,82.65866388350594 A1.6362553003154288,1.6362553003154288 0 0,0 646.0926362322507,84.66142894935751 A1.6362553003122398,1.6362553003122398 0 0,0 648.664229348031,86.68530030853981 A3.2725653615167034,3.2725653615167034 0 0,1 643.5045716034882,82.65866388350594" stroke="none" fill="black"></path>
  <path d="M648.664229348031,86.68530030853981 A1.6362553003223774,1.6362553003223774 0 0,0 651.2191788285337,88.73014249896084 A1.636255300314773,1.636255300314773 0 0,0 653.7573136654582,90.79581865490525 A3.2725653615163033,3.2725653615163033 0 0,1 648.664229348031,86.68530030853981" stroke="none" fill="black"></path>
  
  <path d="M653.7573136654582,90.79581865490525 A1.6362553003198703,1.6362553003198703 0 0,0 656.2784639759443,92.88219051619512 A1.6362553003135807,1.6362553003135807 0 0,0 658.782461013943,94.98911843744474 A3.272565361517427,3.272565361517427 0 0,1 653.7573136654582,90.79581865490525" stroke="none" fill="black"></path>
  <path d="M658.782461013943,94.98911843744474 A1.6362553003083078,1.6362553003083078 0 0,0 661.2691371815107,97.11646139740628 A1.6362553003178766,1.6362553003178766 0 0,0 663.7383260400276,99.264077008409 A3.2725653615186214,3.2725653615186214 0 0,1 658.782461013943,94.98911843744474" stroke="none" fill="black"></path>
  <path d="M663.7383260400276,99.264077008409 A6.545568854124241,6.545568854124241 0 0,0 673.4369208091484,108.05437092086572 A6.545568854123989,6.545568854123989 0 0,0 682.842712474619,117.15728752538098 A13.094644165189534,13.094644165189534 0 0,1 663.7383260400276,99.264077008409" stroke="none" fill="black"></path>
  
  <path d="M663.7383260400276,99.264077008409 A1.6362553003161446,1.6362553003161446 0 0,0 666.1898623213369,101.43182152589054 A1.6362553003130214,1.6362553003130214 0 0,0 668.6235819388073,103.61954985801628 A3.272565361518103,3.272565361518103 0 0,1 663.7383260400276,99.264077008409" stroke="none" fill="black"></path>
  <path d="M668.6235819388073,103.61954985801628 A1.6362553003152498,1.6362553003152498 0 0,0 671.0393219983155,105.82711557539244 A1.6362553003178997,1.6362553003178997 0 0,0 673.4369208091484,108.05437092086572 A3.2725653615162353,3.2725653615162353 0 0,1 668.6235819388073,103.61954985801628" stroke="none" fill="black"></path>
  
  <path d="M673.4369208091484,108.05437092086572 A1.6362553003142508,1.6362553003142508 0 0,0 675.8162178948269,110.3011668194132 A1.6362553003181026,1.6362553003181026 0 0,0 678.1770540038445,112.56735288812081 A3.2725653615186907,3.2725653615186907 0 0,1 673.4369208091484,108.05437092086572" stroke="none" fill="black"></path>
  <path d="M678.1770540038445,112.56735288812081 A1.6362553003145015,1.6362553003145015 0 0,0 680.5192711203297,114.85277744624807 A1.6362553003141795,1.6362553003141795 0 0,0 682.842712474619,117.15728752538098 A3.272565361517853,3.272565361517853 0 0,1 678.1770540038445,112.56735288812081" stroke="none" fill="black"></path>
  <path d="M682.842712474619,117.15728752538098 A26.217385126095238,26.217385126095238 0 0,0 717.341336116494,156.49542839651167 A26.217385126095298,26.217385126095298 0 0,0 746.4101615137754,200.0 A52.66099903495836,52.66099903495836 0 0,1 682.842712474619,117.15728752538098" stroke="none" fill="black"></path>
  
  <path d="M682.842712474619,117.15728752538098 A6.545568854124366,6.545568854124366 0 0,0 691.9456290791343,126.56307919085145 A6.545568854123671,6.545568854123671 0 0,0 700.735922991591,136.26167395997243 A13.094644165188898,13.094644165188898 0 0,1 682.842712474619,117.15728752538098" stroke="none" fill="black"></path>
  
  <path d="M682.842712474619,117.15728752538098 A1.6362553003119524,1.6362553003119524 0 0,0 685.1472225537519,119.48072887967032 A1.6362553003173976,1.6362553003173976 0 0,0 687.4326471118792,121.82294599615534 A3.2725653615163157,3.2725653615163157 0 0,1 682.842712474619,117.15728752538098" stroke="none" fill="black"></path>
  <path d="M687.4326471118792,121.82294599615534 A1.6362553003133908,1.6362553003133908 0 0,0 689.6988331805868,124.18378210517324 A1.6362553003141649,1.6362553003141649 0 0,0 691.9456290791343,126.56307919085145 A3.2725653615163317,3.2725653615163317 0 0,1 687.4326471118792,121.82294599615534" stroke="none" fill="black"></path>
  
  <path d="M691.9456290791343,126.56307919085145 A1.6362553003139169,1.6362553003139169 0 0,0 694.1728844246074,128.96067800168453 A1.6362553003143625,1.6362553003143625 0 0,0 696.3804501419837,131.37641806119268 A3.2725653615187413,3.2725653615187413 0 0,1 691.9456290791343,126.56307919085145" stroke="none" fill="black"></path>
  <path d="M696.3804501419837,131.37641806119268 A1.6362553003192706,1.6362553003192706 0 0,0 698.5681784741095,133.81013767866307 A1.6362553003141365,1.6362553003141365 0 0,0 700.735922991591,136.26167395997243 A3.2725653615163712,3.2725653615163712 0 0,1 696.3804501419837,131.37641806119268" stroke="none" fill="black"></path>
  <path d="M700.735922991591,136.26167395997243 A6.545568854125033,6.545568854125033 0 0,0 709.2041813450948,146.24268633454176 A6.545568854123982,6.545568854123982 0 0,0 717.341336116494,156.49542839651167 A13.094644165189088,13.094644165189088 0 0,1 700.735922991591,136.26167395997243" stroke="none" fill="black"></path>
  
  <path d="M700.735922991591,136.26167395997243 A1.6362553003186504,1.6362553003186504 0 0,0 702.8835386025938,138.7308628184893 A1.63625530031213,1.63625530031213 0 0,0 705.0108815625553,141.21753898605698 A3.2725653615170733,3.2725653615170733 0 0,1 700.735922991591,136.26167395997243" stroke="none" fill="black"></path>
  <path d="M705.0108815625553,141.21753898605698 A1.636255300312794,1.636255300312794 0 0,0 707.1178094838049,143.7215360240557 A1.6362553003117892,1.6362553003117892 0 0,0 709.2041813450948,146.24268633454176 A3.2725653615178416,3.2725653615178416 0 0,1 705.0108815625553,141.21753898605698" stroke="none" fill="black"></path>
  
  <path d="M709.2041813450948,146.24268633454176 A1.6362553003137776,1.6362553003137776 0 0,0 711.2698575010392,148.7808211714663 A1.6362553003147196,1.6362553003147196 0 0,0 713.3146996914602,151.33577065196903 A3.2725653615168597,3.2725653615168597 0 0,1 709.2041813450948,146.24268633454176" stroke="none" fill="black"></path>
  <path d="M713.3146996914602,151.33577065196903 A1.6362553003150397,1.6362553003150397 0 0,0 715.3385710506425,153.9073637677493 A1.6362553003213451,1.6362553003213451 0 0,0 717.341336116494,156.49542839651167 A3.2725653615199324,3.2725653615199324 0 0,1 713.3146996914602,151.33577065196903" stroke="none" fill="black"></path>
  
  <path d="M717.341336116494,156.49542839651167 A6.545568854123326,6.545568854123326 0 0,0 725.1386738366461,167.0089212528792 A6.54556885412583,6.54556885412583 0 0,0 732.5878449210181,177.77190679215914 A13.09464416518871,13.09464416518871 0 0,1 717.341336116494,156.49542839651167" stroke="none" fill="black"></path>
  
  <path d="M717.341336116494,156.49542839651167 A1.6362553003112983,1.6362553003112983 0 0,0 719.3228608396125,159.09979131348723 A1.6362553003104776,1.6362553003104776 0 0,0 721.2830125922579,161.72027820302674 A3.2725653615165022,3.2725653615165022 0 0,1 717.341336116494,156.49542839651167" stroke="none" fill="black"></path>
  <path d="M721.2830125922579,161.72027820302674 A1.6362553003140152,1.6362553003140152 0 0,0 723.2216601772293,164.35671367026873 A1.6362553003126425,1.6362553003126425 0 0,0 725.1386738366461,167.0089212528792 A3.2725653615167176,3.2725653615167176 0 0,1 721.2830125922579,161.72027820302674" stroke="none" fill="black"></path>
  
  <path d="M725.1386738366461,167.0089212528792 A1.6362553003128655,1.6362553003128655 0 0,0 727.0339252606335,169.67672343286176 A1.6362553003171985,1.6362553003171985 0 0,0 728.90728759591,172.35994164844067 A3.272565361519529,3.272565361519529 0 0,1 725.1386738366461,167.0089212528792" stroke="none" fill="black"></path>
  <path d="M728.90728759591,172.35994164844067 A1.6362553003176363,1.6362553003176363 0 0,0 730.7586354542785,175.05839630601065 A1.6362553003174563,1.6362553003174563 0 0,0 732.5878449210181,177.77190679215914 A3.27256536151906,3.27256536151906 0 0,1 728.90728759591,172.35994164844067" stroke="none" fill="black"></path>
  <path d="M732.5878449210181,177.77190679215914 A6.545568854125654,6.545568854125654 0 0,0 739.6808726106315,188.77285973985283 A6.5455688541247365,6.5455688541247365 0 0,0 746.4101615137754,200.0 A13.094644165188834,13.094644165188834 0 0,1 732.5878449210181,177.77190679215914" stroke="none" fill="black"></path>
  
  <path d="M732.5878449210181,177.77190679215914 A1.6362553003141342,1.6362553003141342 0 0,0 734.3947935631787,180.50029148575368 A1.6362553003184233,1.6362553003184233 0 0,0 736.1793604377751,183.24336777009933 A3.272565361518895,3.272565361518895 0 0,1 732.5878449210181,177.77190679215914" stroke="none" fill="black"></path>
  <path d="M736.1793604377751,183.24336777009933 A1.636255300312895,1.636255300312895 0 0,0 737.9414260998828,186.00095204516117 A1.6362553003146947,1.6362553003146947 0 0,0 739.6808726106315,188.77285973985283 A3.272565361516412,3.272565361516412 0 0,1 736.1793604377751,183.24336777009933" stroke="none" fill="black"></path>
  
  <path d="M739.6808726106315,188.77285973985283 A1.6362553003147744,1.6362553003147744 0 0,0 741.3975835451001,191.5589053243906 A1.6362553003130191,1.6362553003130191 0 0,0 743.0914440001088,194.3589023227114 A3.272565361518377,3.272565361518377 0 0,1 739.6808726106315,188.77285973985283" stroke="none" fill="black"></path>
  <path d="M743.0914440001088,194.3589023227114 A1.6362553003110256,1.6362553003110256 0 0,0 744.7623406019097,197.1726633249532 A1.6362553003166955,1.6362553003166955 0 0,0 746.4101615137754,200.0 A3.2725653615176147,3.2725653615176147 0 0,1 743.0914440001088,194.3589023227114" stroke="none" fill="black"></path>
</symbol>

<use xlink:href="#subTris" transform="rotate(0 400.0,400.0)"></use>
<use xlink:href="#subTris" transform="rotate(60 400.0,400.0)"></use>
<use xlink:href="#subTris" transform="rotate(120 400.0,400.0)"></use>
<use xlink:href="#subTris" transform="rotate(180 400.0,400.0)"></use>
<use xlink:href="#subTris" transform="rotate(240 400.0,400.0)"></use>
<use xlink:href="#subTris" transform="rotate(300 400.0,400.0)"></use>


</svg></g></g><g transform="translate(0,0)"><circle cx="400" cy="350" r="200" fill="#0000ff" fill-opacity="0.1" stroke="#000000" stroke-opacity="1" stroke-dasharray="" stroke-width="1"><title>G.disk</title><desc>Circle representing G.disk</desc></circle></g><g transform="translate(0,0)"><g><marker id="theta.shape-leftArrowhead" markerUnits="strokeWidth" markerWidth="30" markerHeight="14" viewBox="0 0 30 14" refX="25" refY="7" orient="auto-start-reverse"><path d="M29.05 7 19.1 11.06 21.46 7 19.1 2.94 29.05 7z" fill="#8082b0" fill-opacity="1"></path></marker><marker id="theta.shape-rightArrowhead" markerUnits="strokeWidth" markerWidth="30" markerHeight="14" viewBox="0 0 30 14" refX="25" refY="7" orient="auto-start-reverse"><path d="M29.05 7 19.1 11.06 21.46 7 19.1 2.94 29.05 7z" fill="#8082b0" fill-opacity="1"></path></marker><path stroke="#8082b0" fill="#ffffff" stroke-width="1.5" stroke-opacity="1" fill-opacity="1" d="M276.1063330170725 427.8568420958461L276.5928217625545 427.02855145576126 L277.0799221755522 426.1858322459823 L277.5673888870393 425.3285715383253 L278.05496831104443 424.4566631941825 L278.5423986956302 423.57000828637325 L279.02941019396076 422.66851552724256 L279.5157249563622 421.7521017021098 L280.00105724425146 420.82069210708806 L280.4851135667782 419.87422099021626 L280.9675928409839 418.9126319947641 L281.44818657623557 417.9358786034867 L281.92657908363844 416.9439245825279 L282.4024477110703 415.93674442359054 L282.8754631044104 414.9143237829141 L283.34528949546177 413.876659915527 L283.81158501697763 412.82376210316784 L284.274002045114 411.75565207420277 L284.7321875695282 410.6723644138039 L285.1857835912374 409.573946962596 L285.6344275482337 408.46046120192807 L286.0777527687344 407.3319826238828 L286.51538895181335 406.18860108410126 L286.9469626750275 405.0304211354724 L287.3720979285105 403.8575623407215 L287.7904166748606 402.6701595619219 L288.20153943399987 401.46836322496017 L288.605085892029 400.2523395569995 L289.0006755329455 399.022270795014 L289.3879282919352 397.7783553635066 L289.7664652287917 396.52080801957817 L290.135909219857 395.24985996358083 L290.49588566672594 393.9657589136716 L290.8460232197992 392.66876914267664 L291.18595451462846 391.35917147578533 L291.5153169188486 390.03726324771736 L291.83375328736196 388.7033582181425 L292.1409127233104 387.3577864442829 L292.4364513422561 386.0008941097905 L292.7200330368851 384.63304330916844 L292.9913302394576 383.25461178719047 L293.2500246791462 381.86599263297023 L293.4958081313432 380.4675939285388 L293.7283831559691 379.0598383520019 L293.94746382178073 377.64316273557085 L294.15277641366987 376.21801757898595 L294.34406011994326 374.7848665190828 L294.521067696605 373.34418575648175 L294.68356610570174 371.89646344061373 L294.83133712485983 370.44219901452664 L294.96417792522374 368.981902521142 L295.08190161511163 367.5160938728532 L295.08190161723917 367.5160938681723 L296.8775297471524 367.682740549462 L298.68868898947284 367.916137208407 L300.5123577413851 368.2183433457698 L302.3452999094049 368.59126871000245 L304.18407107032914 369.0366505619093 L306.0250271871131 369.556030778471 L307.86433599867775 370.1507330998014 L309.69799116504225 370.8218408527643 L311.5218292051593 371.5701755096605 L313.33154921494395 372.39627645925094 L315.1227352980536 373.30038237887845 L316.8908815831376 374.28241459936424 L318.63141963995326 375.3419628476586 L320.33974804462775 376.478273735107 L322.0112637833604 377.6902423312036 L323.6413951260548 378.97640712372845 L325.22563554890644 380.3349486165595 L326.75957823995645 381.76369175698073 L328.23895068606873 383.2601123162326 L329.6596488154487 384.8213472720438 L331.0177701581463 386.44420916201886 L332.3096454889731 388.1252042944203 L333.53186843343434 389.8605546206842 L334.6813225475789 391.6462229946545 L335.75520542651105 393.47794146971245 L336.75104945250854 395.35124221923513 L336.75104945250854 395.35124221923513 L335.20249185640427 396.1347366000062 L333.6673360331764 396.91380034604964 L332.14573235764044 397.68829979262375 L330.6378227612713 398.45810502104337 L329.1437407743915 399.2230899194751 L327.66361157745405 399.9831322376752 L326.1975520610977 400.73811363569814 L324.74567089464665 401.48791972661536 L323.3080686027122 402.2324401132981 L321.884837649552 402.971568419332 L320.4760625308329 403.7052023141423 L319.0818198724386 404.43324353242053 L317.7021785359616 405.1555978879559 L316.3371997305136 405.8721752819832 L314.98693713048897 406.58288970617025 L313.6514369989145 407.28765924037623 L312.3307383160194 407.986406045321 L311.02487291266056 408.6790563503131 L309.73386560824224 409.36554043619054 L308.45773435277056 410.045792613636 L307.1964903726884 410.7197511970321 L305.95013832014234 411.3873584740283 L304.7186764253367 412.048560670995 L303.5020966516381 412.7033079145433 L302.30038485310047 413.35155418929224 L301.11352093408743 413.99325729206817 L299.9414790106782 414.62837878272063 L298.7842275735503 415.2568839317425 L297.6417296520434 415.87874166488007 L296.51394297911565 416.4939245049213 L295.40082015691576 417.1024085108474 L294.30230882270286 417.704173214533 L293.218351814856 418.299201555179 L292.148887338727 418.88747981165886 L291.09384913209954 419.4689975329569 L290.05316663002924 420.0437474668765 L289.02676512884784 420.61172548718844 L288.01456594912946 421.17293051939146 L287.0164865974226 421.72736446524846 L286.0324409265668 422.2750321262611 L285.0623392944197 422.81594112623975 L284.10608872083367 423.35010183312033 L283.16359304273027 423.87752728017745 L282.23475306713004 424.3982330867753 L281.31946672200763 424.91223737879534 L280.4176292048496 425.41956070887244 L279.5291331288041 425.9202259765676 L278.65386866631826 426.41425834859893 L277.7917236901725 426.90168517924775 L276.9425839118247 427.3825359310511 L276.1063330169907 427.8568420958863Z" marker-start="" marker-end=""><title>theta.shape</title></path></g></g><g transform="translate(0,0)"><g><marker id="w.shape-leftArrowhead" markerUnits="strokeWidth" markerWidth="22.5" markerHeight="10.5" viewBox="0 0 30 14" refX="25" refY="7" orient="auto-start-reverse"><path d="M29.05 7 19.1 11.06 21.46 7 19.1 2.94 29.05 7z" fill="#242985" fill-opacity="1"></path></marker><marker id="w.shape-rightArrowhead" markerUnits="strokeWidth" markerWidth="22.5" markerHeight="10.5" viewBox="0 0 30 14" refX="25" refY="7" orient="auto-start-reverse"><path d="M29.05 7 19.1 11.06 21.46 7 19.1 2.94 29.05 7z" fill="#242985" fill-opacity="1"></path></marker><path stroke="#242985" fill="#000000" stroke-width="2" stroke-opacity="1" fill-opacity="0" d="M276.1063330170725 427.8568420958461L278.85856210332497 425.1548766517968 L281.73202829705053 422.25985965205655 L284.72332746643815 419.16248373730406 L287.8275961094018 415.85388442589664 L291.03840308522336 412.32583898113836 L294.3476628825558 408.5709874229766 L297.74557745652976 404.583072847534 L301.22061382658285 400.3571966089663 L304.75952437830125 395.8900821591068 L308.3474160666995 391.1803395293972 L311.96787340692737 386.2287207107978 L315.6031382309259 381.0383547063022 L319.2343467073056 375.61494998377316 L322.84182115386966 369.9669516340991 L326.40541087613235 364.105640911609 L329.9048728678018 358.04516612434253 L333.32027999214336 351.8024961018789 L336.6324415374847 345.39729065329453 L339.82331911112016 338.8516863851486 L342.876419962274 332.1900007213908 L345.77715017874647 325.4383616092466 L348.51311183694503 318.6242748109532 L351.0743310189695 311.776144468823 L353.4534074273709 304.9227654346921 L355.64558080129075 298.0928074122046 L357.64871406905564 291.31431113819843 L359.4631977439978 284.6142156394517 L361.0917840970668 278.0179331949961 L362.53936281495817 271.5489852787977 L363.81269197938593 265.22870879464983 L364.920099208508 259.07603771460566" marker-start="" marker-end="url(#w.shape-rightArrowhead)"><title>w.shape</title></path></g></g><g transform="translate(0,0)"><g><marker id="t.shape-leftArrowhead" markerUnits="strokeWidth" markerWidth="30" markerHeight="14" viewBox="0 0 30 14" refX="25" refY="7" orient="auto-start-reverse"><path d="M29.05 7 19.1 11.06 21.46 7 19.1 2.94 29.05 7z" fill="#000000" fill-opacity="0"></path></marker><marker id="t.shape-rightArrowhead" markerUnits="strokeWidth" markerWidth="30" markerHeight="14" viewBox="0 0 30 14" refX="25" refY="7" orient="auto-start-reverse"><path d="M29.05 7 19.1 11.06 21.46 7 19.1 2.94 29.05 7z" fill="#000000" fill-opacity="0"></path></marker><path stroke="#000000" fill="#0000ff" stroke-width="0" stroke-opacity="0" fill-opacity="0.2" d="M276.1063330170725 427.8568420958461L281.18057261526894 425.0789713874192 L286.7133870144629 422.08925171341434 L292.7246974668657 418.88689292380667 L299.23050890389914 415.4744620392087 L306.241818149682 411.8583404237858 L313.76348988306773 408.04909884386325 L321.7931559393366 404.061748976692 L330.3202068188287 399.91583037449874 L339.32495448211114 395.6352970380168 L348.778050315966 391.2481782642966 L358.6402392748823 386.78600422262934 L368.8625189117981 382.28300673419625 L379.38674966809356 377.7751279164332 L390.1467312979542 373.2988907910084 L401.06972232142857 368.89020333691803 L412.07833920992726 364.58317773939797 L423.09273491463983 360.40904763266013 L434.03292775648447 356.395257356834 L444.8211360220629 352.5647797791531 L455.38397332990996 348.93569574355337 L465.65437493283684 345.5210423606776 L475.57315312097364 342.32891295949986 L485.09011640187305 339.36277181314256 L494.1647268283105 336.6219337725378 L502.76630750761046 334.102153342629 L510.8738437615561 331.79626889155617 L518.4754439822219 329.69485406479896 L525.5675390200181 327.78683812777376 L532.1539025098004 326.06006794260446 L538.2445705081666 324.50179499344637 L543.8547293458904 323.0990802010288 L543.8547293464853 323.0990802007797 L543.1235924044813 322.0592076395747 L542.4058421017671 320.9978015011772 L541.7024882841372 319.9153917159003 L541.0145244241206 318.812568891148 L540.3429232148426 317.6899837081412 L539.6886321592131 316.54834594078017 L539.0525691915653 315.3884230917359 L538.4356183698904 314.21103864499617 L537.838625677322 313.01706993840435 L537.2623949714907 311.807445664149 L536.707684119766 310.5831430096211 L536.175201357225 309.34518445545916 L535.6656019024408 308.09463425188295 L535.1794848638776 306.83259459847994 L534.7173904668523 305.560201556385 L534.2797976277081 304.2786207252002 L533.8671218981041 302.98904271997515 L533.4797137982134 301.6926784860504 L533.117857553226 300.39075449149954 L532.7817702429272 299.0845078382677 L532.4716013693869 297.7751813338557 L532.1874328430033 296.4640185655385 L531.9292793824047 295.15225901863835 L531.6970893191019 293.8411332793036 L531.490745793388 292.5318583606172 L531.310068323866 291.2256331887014 L531.1548147292289 289.9236342828624 L531.024683377566 288.62701166077704 L530.919315735574 287.3368849963448 L530.8382991876481 286.05434005417135 L530.7811700929392 284.78042542080027 L530.7811700912945 284.7804254181767 L525.5909243484465 287.4710390378545 L519.9490820347544 290.406019920356 L513.840155610209 293.5960660700571 L507.25327346402025 297.04980666566894 L500.18321843676944 300.77322718903906 L492.6314462560466 304.769078472417 L484.6070224415652 309.03629854851283 L476.12740733053545 313.5694828444727 L467.21901459460173 318.3584433248089 L457.9174708524762 323.3878995143972 L448.26751417113894 328.63734282129434 L438.3224879751238 334.0811094036127 L428.1434135059966 339.6886856804126 L417.79765643666366 345.4252549026193 L407.35723816272144 351.2524742425357 L396.89687536038207 357.1294516676904 L386.4918580856267 363.01387298697676 L376.21589307793573 368.86321453233955 L366.13904252153094 374.63596818946917 L356.3258787486915 380.29280426298186 L346.83395374978954 385.7976041382597 L337.71265213103317 391.11830786447103 L329.00246164458724 396.22753963453385 L320.7346611364129 401.1029941237313 L312.93139566510786 405.72758615886835 L305.6060854386242 410.0893830111824 L298.7641004836967 414.18135123243246 L292.40362663771066 418.00095770523484 L286.5166494965053 421.5496675457547 L281.0899896588904 424.832380355831 L276.1063330176143 427.856842095546Z" marker-start="" marker-end=""><title>t.shape</title></path></g></g><g transform="translate(0,0)"><g transform="translate(536.9574639412396,270.05789219216354)" width="7.647412300109863" height="9.445066452026367" pointer-events="bounding-box"><svg xmlns:xlink="http://www.w3.org/1999/xlink" width="7.647412300109863" height="9.445066452026367" viewBox="0 -516.6 469.5 621.5" role="img" focusable="false" xmlns="http://www.w3.org/2000/svg" style="vertical-align: -0.244ex;"><g stroke="none" fill="#000000" stroke-width="0" transform="matrix(1 0 0 -1 0 0)"><path stroke-width="1" d="M131 289Q131 321 147 354T203 415T300 442Q362 442 390 415T419 355Q419 323 402 308T364 292Q351 292 340 300T328 326Q328 342 337 354T354 372T367 378Q368 378 368 379Q368 382 361 388T336 399T297 405Q249 405 227 379T204 326Q204 301 223 291T278 274T330 259Q396 230 396 163Q396 135 385 107T352 51T289 7T195 -10Q118 -10 86 19T53 87Q53 126 74 143T118 160Q133 160 146 151T160 120Q160 94 142 76T111 58Q109 57 108 57T107 55Q108 52 115 47T146 34T201 27Q237 27 263 38T301 66T318 97T323 122Q323 150 302 164T254 181T195 196T148 231Q131 256 131 289Z"></path></g></svg></g></g><g transform="translate(0,0)"><circle cx="530.7811700912945" cy="284.7804254181767" r="3" fill="#242985" fill-opacity="1" stroke="#242985" stroke-opacity="1" stroke-dasharray="" stroke-width="1"><title>s.shape</title><desc>Circle representing s.shape</desc></circle></g><g transform="translate(0,0)"><g transform="translate(549.5785733978464,308.3596802908066)" width="8.552311897277832" height="9.478799819946289" pointer-events="bounding-box"><svg xmlns:xlink="http://www.w3.org/1999/xlink" width="8.552311897277832" height="9.478799819946289" viewBox="0 -516.6 451.5 621.5" role="img" focusable="false" xmlns="http://www.w3.org/2000/svg" style="vertical-align: -0.244ex;"><g stroke="none" fill="#000000" stroke-width="0" transform="matrix(1 0 0 -1 0 0)"><path stroke-width="1" d="M21 287Q22 290 23 295T28 317T38 348T53 381T73 411T99 433T132 442Q161 442 183 430T214 408T225 388Q227 382 228 382T236 389Q284 441 347 441H350Q398 441 422 400Q430 381 430 363Q430 333 417 315T391 292T366 288Q346 288 334 299T322 328Q322 376 378 392Q356 405 342 405Q286 405 239 331Q229 315 224 298T190 165Q156 25 151 16Q138 -11 108 -11Q95 -11 87 -5T76 7T74 17Q74 30 114 189T154 366Q154 405 128 405Q107 405 92 377T68 316T57 280Q55 278 41 278H27Q21 284 21 287Z"></path></g></svg></g></g><g transform="translate(0,0)"><g transform="translate(277.41207203730715,263.0634535151732)" width="8.925230026245117" height="13.293785095214844" pointer-events="bounding-box"><svg xmlns:xlink="http://www.w3.org/1999/xlink" width="8.925230026245117" height="13.293785095214844" viewBox="0 -516.6 460.5 775.9" role="img" focusable="false" xmlns="http://www.w3.org/2000/svg" style="vertical-align: -0.602ex;"><g stroke="none" fill="#000000" stroke-width="0" transform="matrix(1 0 0 -1 0 0)"><path stroke-width="1" d="M33 157Q33 258 109 349T280 441Q340 441 372 389Q373 390 377 395T388 406T404 418Q438 442 450 442Q454 442 457 439T460 434Q460 425 391 149Q320 -135 320 -139Q320 -147 365 -148H390Q396 -156 396 -157T393 -175Q389 -188 383 -194H370Q339 -192 262 -192Q234 -192 211 -192T174 -192T157 -193Q143 -193 143 -185Q143 -182 145 -170Q149 -154 152 -151T172 -148Q220 -148 230 -141Q238 -136 258 -53T279 32Q279 33 272 29Q224 -10 172 -10Q117 -10 75 30T33 157ZM352 326Q329 405 277 405Q242 405 210 374T160 293Q131 214 119 129Q119 126 119 118T118 106Q118 61 136 44T179 26Q233 26 290 98L298 109L352 326Z"></path></g></svg></g></g><g transform="translate(0,0)"><g transform="translate(280.50454926463107,411.20673375844376)" width="11.203567504882812" height="13.300216674804688" pointer-events="bounding-box"><svg xmlns:xlink="http://www.w3.org/1999/xlink" width="11.203567504882812" height="13.300216674804688" viewBox="-38.5 -516.6 542 775.9" role="img" focusable="false" xmlns="http://www.w3.org/2000/svg" style="vertical-align: -0.602ex; margin-left: -0.089ex;"><g stroke="none" fill="#000000" stroke-width="0" transform="matrix(1 0 0 -1 0 0)"><path stroke-width="1" d="M23 287Q24 290 25 295T30 317T40 348T55 381T75 411T101 433T134 442Q209 442 230 378L240 387Q302 442 358 442Q423 442 460 395T497 281Q497 173 421 82T249 -10Q227 -10 210 -4Q199 1 187 11T168 28L161 36Q160 35 139 -51T118 -138Q118 -144 126 -145T163 -148H188Q194 -155 194 -157T191 -175Q188 -187 185 -190T172 -194Q170 -194 161 -194T127 -193T65 -192Q-5 -192 -24 -194H-32Q-39 -187 -39 -183Q-37 -156 -26 -148H-6Q28 -147 33 -136Q36 -130 94 103T155 350Q156 355 156 364Q156 405 131 405Q109 405 94 377T71 316T59 280Q57 278 43 278H29Q23 284 23 287ZM178 102Q200 26 252 26Q282 26 310 49T356 107Q374 141 392 215T411 325V331Q411 405 350 405Q339 405 328 402T306 393T286 380T269 365T254 350T243 336T235 326L232 322Q232 321 229 308T218 264T204 212Q178 106 178 102Z"></path></g></svg></g></g><g transform="translate(0,0)"><g transform="translate(296.6797302197284,338.49627776123765)" width="17.471782684326172" height="9.468465805053711" pointer-events="bounding-box"><svg xmlns:xlink="http://www.w3.org/1999/xlink" width="17.471782684326172" height="9.468465805053711" viewBox="0 -516.6 878.5 621.5" role="img" focusable="false" xmlns="http://www.w3.org/2000/svg" style="vertical-align: -0.244ex;"><g stroke="none" fill="#000000" stroke-width="0" transform="matrix(1 0 0 -1 0 0)"><path stroke-width="1" d="M21 287Q22 293 24 303T36 341T56 388T88 425T132 442T175 435T205 417T221 395T229 376L231 369Q231 367 232 367L243 378Q303 442 384 442Q401 442 415 440T441 433T460 423T475 411T485 398T493 385T497 373T500 364T502 357L510 367Q573 442 659 442Q713 442 746 415T780 336Q780 285 742 178T704 50Q705 36 709 31T724 26Q752 26 776 56T815 138Q818 149 821 151T837 153Q857 153 857 145Q857 144 853 130Q845 101 831 73T785 17T716 -10Q669 -10 648 17T627 73Q627 92 663 193T700 345Q700 404 656 404H651Q565 404 506 303L499 291L466 157Q433 26 428 16Q415 -11 385 -11Q372 -11 364 -4T353 8T350 18Q350 29 384 161L420 307Q423 322 423 345Q423 404 379 404H374Q288 404 229 303L222 291L189 157Q156 26 151 16Q138 -11 108 -11Q95 -11 87 -5T76 7T74 17Q74 30 112 181Q151 335 151 342Q154 357 154 369Q154 405 129 405Q107 405 92 377T69 316T57 280Q55 278 41 278H27Q21 284 21 287Z"></path></g></svg></g></g><g transform="translate(0,0)"><circle cx="295.4156215618915" cy="353.2305106637645" r="3" fill="#242985" fill-opacity="1" stroke="#242985" stroke-opacity="1" stroke-dasharray="" stroke-width="1"><title>m.shape</title><desc>Circle representing m.shape</desc></circle></g><g transform="translate(0,0)"><g><marker id="h.perpMark-leftArrowhead" markerUnits="strokeWidth" markerWidth="30" markerHeight="14" viewBox="0 0 30 14" refX="25" refY="7" orient="auto-start-reverse"><path d="M29.05 7 19.1 11.06 21.46 7 19.1 2.94 29.05 7z" fill="#8082b0" fill-opacity="1"></path></marker><marker id="h.perpMark-rightArrowhead" markerUnits="strokeWidth" markerWidth="30" markerHeight="14" viewBox="0 0 30 14" refX="25" refY="7" orient="auto-start-reverse"><path d="M29.05 7 19.1 11.06 21.46 7 19.1 2.94 29.05 7z" fill="#8082b0" fill-opacity="1"></path></marker><path stroke="#8082b0" fill="#ffffff" stroke-width="1.5" stroke-opacity="1" fill-opacity="1" d="M295.4139399713116 363.23051052237713L285.4179180737169 363.51254992176365 L285.41959966429675 353.51255006315097 L295.4156215618915 353.2305106637645Z" marker-start="" marker-end=""><title>h.perpMark</title></path></g></g><g transform="translate(0,0)"><g><marker id="h.shape-leftArrowhead" markerUnits="strokeWidth" markerWidth="22.5" markerHeight="10.5" viewBox="0 0 30 14" refX="25" refY="7" orient="auto-start-reverse"><path d="M29.05 7 19.1 11.06 21.46 7 19.1 2.94 29.05 7z" fill="#242985" fill-opacity="1"></path></marker><marker id="h.shape-rightArrowhead" markerUnits="strokeWidth" markerWidth="22.5" markerHeight="10.5" viewBox="0 0 30 14" refX="25" refY="7" orient="auto-start-reverse"><path d="M29.05 7 19.1 11.06 21.46 7 19.1 2.94 29.05 7z" fill="#242985" fill-opacity="1"></path></marker><path stroke="#242985" fill="#000000" stroke-width="2" stroke-opacity="1" fill-opacity="0" d="M295.4156215618915 353.2305106637645L289.68475791658335 353.3920994911069 L284.2032675001936 353.547265769565 L278.97187845768946 353.69590753046595 L273.989704132718 353.837972337626 L269.2543989122862 353.9734536144851 L264.76231974704126 354.1023866062235 L260.50868919009133 354.2248441115662 L256.4877563618644 354.3409321067166 L252.6929528452869 354.4507853690704 L249.1170411132446 354.5545631921567 L245.7522536638191 354.6524452666121 L242.59042156952785 354.74462778569807 L239.62309162213637 354.83131981854535 L236.84163166729283 354.9127399803729 L234.23732407051472 354.98911341665934 L231.80144753872753 355.0606691077689 L229.52534774309325 355.12763749187724 L227.4004973545417 355.1902483971275 L225.4185462196308 355.2487292686572 L223.57136247799446 355.3033036722969 L221.85106546065293 355.354190054168 L220.25005121751627 355.4016007339045 L218.76101150866702 355.44574110860333 L217.37694706296628 355.4868090446884 L216.09117586397105 355.5249944355037 L214.89733717114535 355.560478903474 L213.78939192723473 355.5934356269864 L212.76162014316841 355.62402927363047 L211.80861579205717 355.6524160230279 L210.9252796853916 355.67874366409836 L210.10681074857038 355.70315175321684" marker-start="" marker-end="url(#h.shape-rightArrowhead)"><title>h.shape</title></path></g></g><g transform="translate(0,0)"><g><marker id="b.shape-leftArrowhead" markerUnits="strokeWidth" markerWidth="30" markerHeight="14" viewBox="0 0 30 14" refX="25" refY="7" orient="auto-start-reverse"><path d="M29.05 7 19.1 11.06 21.46 7 19.1 2.94 29.05 7z" fill="#242985" fill-opacity="1"></path></marker><marker id="b.shape-rightArrowhead" markerUnits="strokeWidth" markerWidth="30" markerHeight="14" viewBox="0 0 30 14" refX="25" refY="7" orient="auto-start-reverse"><path d="M29.05 7 19.1 11.06 21.46 7 19.1 2.94 29.05 7z" fill="#242985" fill-opacity="1"></path></marker><path stroke="#242985" fill="#000000" stroke-width="2" stroke-opacity="1" fill-opacity="0" d="M276.1063330170725 427.8568420958461L281.18057261526894 425.0789713874192 L286.7133870144629 422.08925171341434 L292.7246974668657 418.88689292380667 L299.23050890389914 415.4744620392087 L306.241818149682 411.8583404237858 L313.76348988306773 408.04909884386325 L321.7931559393366 404.061748976692 L330.3202068188287 399.91583037449874 L339.32495448211114 395.6352970380168 L348.778050315966 391.2481782642966 L358.6402392748823 386.78600422262934 L368.8625189117981 382.28300673419625 L379.38674966809356 377.7751279164332 L390.1467312979542 373.2988907910084 L401.06972232142857 368.89020333691803 L412.07833920992726 364.58317773939797 L423.09273491463983 360.40904763266013 L434.03292775648447 356.395257356834 L444.8211360220629 352.5647797791531 L455.38397332990996 348.93569574355337 L465.65437493283684 345.5210423606776 L475.57315312097364 342.32891295949986 L485.09011640187305 339.36277181314256 L494.1647268283105 336.6219337725378 L502.76630750761046 334.102153342629 L510.8738437615561 331.79626889155617 L518.4754439822219 329.69485406479896 L525.5675390200181 327.78683812777376 L532.1539025098004 326.06006794260446 L538.2445705081666 324.50179499344637 L543.8547293458904 323.0990802010288" marker-start="" marker-end=""><title>b.shape</title></path></g></g><g transform="translate(0,0)"><circle cx="543.8547293464853" cy="323.0990802007797" r="3" fill="#242985" fill-opacity="1" stroke="#242985" stroke-opacity="1" stroke-dasharray="" stroke-width="1"><title>r.shape</title><desc>Circle representing r.shape</desc></circle></g><g transform="translate(0,0)"><g><marker id="a.shape-leftArrowhead" markerUnits="strokeWidth" markerWidth="30" markerHeight="14" viewBox="0 0 30 14" refX="25" refY="7" orient="auto-start-reverse"><path d="M29.05 7 19.1 11.06 21.46 7 19.1 2.94 29.05 7z" fill="#242985" fill-opacity="1"></path></marker><marker id="a.shape-rightArrowhead" markerUnits="strokeWidth" markerWidth="30" markerHeight="14" viewBox="0 0 30 14" refX="25" refY="7" orient="auto-start-reverse"><path d="M29.05 7 19.1 11.06 21.46 7 19.1 2.94 29.05 7z" fill="#242985" fill-opacity="1"></path></marker><path stroke="#242985" fill="#000000" stroke-width="2" stroke-opacity="1" fill-opacity="0" d="M276.1063330170725 427.8568420958461L278.0117835738601 424.5344854467178 L279.91516609848344 420.9867854365261 L281.79969248221454 417.2089931650015 L283.64680394296806 413.19854105128036 L285.4363709042066 408.95544511164576 L287.14698696164214 404.48269088580776 L288.75636072810494 399.7865796994347 L290.2418032677848 394.8770092430889 L291.5808014255504 389.7676614492102 L292.75165913293705 384.4760719491649 L293.7341805043196 379.0235594194758 L294.5103612110511 373.4350000208634 L295.06504931867823 367.7384416447004 L295.386534497502 361.9645641151692 L295.4670260019728 356.14600374521564 L295.3029853388647 350.3165723148946 L294.8952888172133 344.51041015467797 L294.24920732100946 338.76111926834494 L293.3742043191402 333.10092443098887 L292.2835667137201 327.5599076501102 L290.993895026567 322.16535463721243 L289.5244883161603 316.9412419423063 L287.8966642766784 311.90788149314426 L286.13305595944075 307.08172694579537 L284.25692380665686 302.4753348824583 L282.291515973812 298.09746456956924 L280.259502275402 293.9532933733959 L278.1824986147281 290.0447212326931 L276.08069043852726 286.37073662944795 L273.97255635429144 282.9278178187691 L271.87468705025435 279.7103460639235" marker-start="" marker-end=""><title>a.shape</title></path></g></g><g transform="translate(0,0)"><circle cx="271.8746870504297" cy="279.7103460627806" r="3" fill="#242985" fill-opacity="1" stroke="#242985" stroke-opacity="1" stroke-dasharray="" stroke-width="1"><title>q.shape</title><desc>Circle representing q.shape</desc></circle></g><g transform="translate(0,0)"><circle cx="276.1063330170725" cy="427.8568420958461" r="3" fill="#242985" fill-opacity="1" stroke="#242985" stroke-opacity="1" stroke-dasharray="" stroke-width="1"><title>p.shape</title><desc>Circle representing p.shape</desc></circle></g></svg>