<svg version="1.2" xmlns="http://www.w3.org/2000/svg" viewBox="0 0 400 400">
  <circle
    fill="#4951bb"
    fill-opacity="0.5"
    cx="200"
    cy="200"
    stroke="none"
    r="29.999999999999996"
  >
    <title>`o`.shape</title>
  </circle>
  <g
    transform="rotate(0, 204.7620993240971, 192.20635261783303)translate(204.7620993240971, 192.20635261783303)"
    font-size="12pt"
    string="o"
  >
    <title>`o`.text</title>
    <svg
      style="font-size: 12pt"
      xmlns="http://www.w3.org/2000/svg"
      width="8.5651"
      height="17.66"
      role="img"
      focusable="false"
      viewBox="0 -750 485 1000"
    >
      <g
        stroke="none"
        fill="#000000"
        stroke-width="0"
        transform="scale(1,-1)"
        fill-opacity="1"
      >
        <g data-mml-node="math">
          <g data-mml-node="mtable">
            <g data-mml-node="mtr">
              <g data-mml-node="mtd">
                <g data-mml-node="mi">
                  <path
                    data-c="1D45C"
                    d="M201 -11Q126 -11 80 38T34 156Q34 221 64 279T146 380Q222 441 301 441Q333 441 341 440Q354 437 367 433T402 417T438 387T464 338T476 268Q476 161 390 75T201 -11ZM121 120Q121 70 147 48T206 26Q250 26 289 58T351 142Q360 163 374 216T388 308Q388 352 370 375Q346 405 306 405Q243 405 195 347Q158 303 140 230T121 120Z"
                  ></path>
                </g>
              </g>
            </g>
          </g>
        </g>
      </g>
    </svg>
  </g>
</svg>
