<svg version="1.2" xmlns="http://www.w3.org/2000/svg" viewBox="0 0 400 400">
  <circle
    fill="#4951bb"
    fill-opacity="0.5"
    cx="200"
    cy="200"
    stroke="none"
    r="29.999999999999996"
  >
    <title>`o`.shape</title>
  </circle>
  <g
    transform="rotate(0, 204.7620993240971, 192.20635261783303)translate(204.7620993240971, 192.20635261783303)"
    string="o"
  >
    <title>`o`.text</title>
    <svg
      xmlns="http://www.w3.org/2000/svg"
      width="8.5651"
      height="17.66"
      role="img"
      focusable="false"
      viewBox="0.60044 -7.78806 7.80572 7.98232"
    >
      <path
        stroke="none"
        fill="#000000"
        stroke-width="0"
        d="M3.54966 0.19426Q2.22516 0.19426 1.4127999999999998-0.6710799999999999T0.60044-2.7549599999999996Q0.60044-3.9028599999999996 1.13024-4.92714T2.57836-6.7108Q3.92052-7.78806 5.315659999999999-7.78806 5.88078-7.78806 6.02206-7.7703999999999995 6.251639999999999-7.71742 6.4812199999999995-7.64678T7.09932-7.3642199999999995 7.735079999999999-6.83442 8.194239999999999-5.96908 8.40616-4.73288Q8.40616-2.84326 6.8873999999999995-1.3244999999999998T3.54966 0.19426ZM2.13686-2.1191999999999998Q2.13686-1.2362 2.5960199999999998-0.84768T3.6379599999999996-0.45915999999999996Q4.415-0.45915999999999996 5.103739999999999-1.0242799999999999T6.198659999999999-2.50772Q6.3576-2.87858 6.604839999999999-3.8145599999999997T6.852079999999999-5.439279999999999Q6.852079999999999-6.21632 6.534199999999999-6.6225 6.110359999999999-7.152299999999999 5.40396-7.152299999999999 4.291379999999999-7.152299999999999 3.4436999999999998-6.128019999999999 2.7902799999999996-5.35098 2.4724-4.0618T2.13686-2.1191999999999998Z"
        fill-opacity="1"
      ></path>
    </svg>
  </g>
</svg>
