<?xml version="1.0" encoding="UTF-8"?>
<!DOCTYPE svg PUBLIC "-//W3C//DTD SVG 1.1//EN"
    "http://www.w3.org/Graphics/SVG/1.1/DTD/svg11.dtd">
<svg xmlns="http://www.w3.org/2000/svg" height="500.0000" stroke-opacity="1" viewBox="0 0 500 500" font-size="1" width="500.0000" xmlns:xlink="http://www.w3.org/1999/xlink" stroke="rgb(0,0,0)" version="1.1">
  <defs>
  </defs>
  <defs>
  </defs>
  <g stroke-linejoin="miter" stroke-opacity="1.0" fill-opacity="1.0" opacity="5.0e-2" stroke="rgb(0,0,0)" stroke-width="1.9955597254657247" fill="rgb(255,0,0)" stroke-linecap="butt" stroke-miterlimit="10.0">
    <path d="M 243.2832,377.4845 c 0.0000,-29.0820 -23.5756,-52.6576 -52.6576 -52.6576c -29.0820,-0.0000 -52.6576,23.5756 -52.6576 52.6576c -0.0000,29.0820 23.5756,52.6576 52.6576 52.6576c 29.0820,0.0000 52.6576,-23.5756 52.6576 -52.6576Z"/>
  </g>
  <defs>
  </defs>
  <g stroke-linejoin="miter" stroke-opacity="1.0" fill-opacity="1.0" opacity="5.0e-2" stroke="rgb(0,0,0)" stroke-width="1.9955597254657247" fill="rgb(255,0,0)" stroke-linecap="butt" stroke-miterlimit="10.0">
    <path d="M 436.6053,128.4634 c 0.0000,-27.4152 -22.2244,-49.6395 -49.6395 -49.6395c -27.4152,-0.0000 -49.6395,22.2244 -49.6395 49.6395c -0.0000,27.4152 22.2244,49.6395 49.6395 49.6395c 27.4152,0.0000 49.6395,-22.2244 49.6395 -49.6395Z"/>
  </g>
  <defs>
  </defs>
  <g stroke-linejoin="miter" stroke-opacity="1.0" fill-opacity="1.0" opacity="5.0e-2" stroke="rgb(0,0,0)" stroke-width="1.9955597254657247" fill="rgb(255,0,0)" stroke-linecap="butt" stroke-miterlimit="10.0">
    <path d="M 187.7819,211.6362 c 0.0000,-29.7648 -24.1291,-53.8940 -53.8940 -53.8940c -29.7648,-0.0000 -53.8940,24.1291 -53.8940 53.8940c -0.0000,29.7648 24.1291,53.8940 53.8940 53.8940c 29.7648,0.0000 53.8940,-24.1291 53.8940 -53.8940Z"/>
  </g>
  <defs>
  </defs>
  <g stroke-linejoin="miter" stroke-opacity="1.0" fill-opacity="1.0" opacity="5.0e-2" stroke="rgb(0,0,0)" stroke-width="1.9955597254657247" fill="rgb(255,0,0)" stroke-linecap="butt" stroke-miterlimit="10.0">
    <path d="M 199.4777,365.1884 c 0.0000,-37.2703 -30.2135,-67.4838 -67.4838 -67.4838c -37.2703,-0.0000 -67.4838,30.2135 -67.4838 67.4838c -0.0000,37.2703 30.2135,67.4838 67.4838 67.4838c 37.2703,0.0000 67.4838,-30.2135 67.4838 -67.4838Z"/>
  </g>
  <defs>
  </defs>
  <g stroke-linejoin="miter" stroke-opacity="1.0" fill-opacity="1.0" opacity="5.0e-2" stroke="rgb(0,0,0)" stroke-width="1.9955597254657247" fill="rgb(255,0,0)" stroke-linecap="butt" stroke-miterlimit="10.0">
    <path d="M 220.8532,184.8451 c 0.0000,-45.8863 -37.1982,-83.0845 -83.0845 -83.0845c -45.8863,-0.0000 -83.0845,37.1982 -83.0845 83.0845c -0.0000,45.8863 37.1982,83.0845 83.0845 83.0845c 45.8863,0.0000 83.0845,-37.1982 83.0845 -83.0845Z"/>
  </g>
  <defs>
  </defs>
  <g stroke-linejoin="miter" stroke-opacity="1.0" fill-opacity="1.0" opacity="5.0e-2" stroke="rgb(0,0,0)" stroke-width="1.9955597254657247" fill="rgb(255,0,0)" stroke-linecap="butt" stroke-miterlimit="10.0">
    <path d="M 421.6534,366.2613 c 0.0000,-63.0175 -51.0858,-114.1033 -114.1033 -114.1033c -63.0175,-0.0000 -114.1033,51.0858 -114.1033 114.1033c -0.0000,63.0175 51.0858,114.1033 114.1033 114.1033c 63.0175,0.0000 114.1033,-51.0858 114.1033 -114.1033Z"/>
  </g>
  <defs>
  </defs>
  <g stroke-linejoin="miter" stroke-opacity="1.0" fill-opacity="1.0" opacity="5.0e-2" stroke="rgb(0,0,0)" stroke-width="1.9955597254657247" fill="rgb(255,0,0)" stroke-linecap="butt" stroke-miterlimit="10.0">
    <path d="M 355.3152,354.8237 c 0.0000,-25.4140 -20.6021,-46.0162 -46.0162 -46.0162c -25.4140,-0.0000 -46.0162,20.6021 -46.0162 46.0162c -0.0000,25.4140 20.6021,46.0162 46.0162 46.0162c 25.4140,0.0000 46.0162,-20.6021 46.0162 -46.0162Z"/>
  </g>
  <defs>
  </defs>
  <g stroke-linejoin="miter" stroke-opacity="1.0" fill-opacity="1.0" opacity="5.0e-2" stroke="rgb(0,0,0)" stroke-width="1.9955597254657247" fill="rgb(255,0,0)" stroke-linecap="butt" stroke-miterlimit="10.0">
    <path d="M 283.9289,119.2008 c 0.0000,-32.0609 -25.9905,-58.0514 -58.0514 -58.0514c -32.0609,-0.0000 -58.0514,25.9905 -58.0514 58.0514c -0.0000,32.0609 25.9905,58.0514 58.0514 58.0514c 32.0609,0.0000 58.0514,-25.9905 58.0514 -58.0514Z"/>
  </g>
  <defs>
  </defs>
  <g stroke-linejoin="miter" stroke-opacity="1.0" fill-opacity="1.0" opacity="5.0e-2" stroke="rgb(0,0,0)" stroke-width="1.9955597254657247" fill="rgb(255,0,0)" stroke-linecap="butt" stroke-miterlimit="10.0">
    <path d="M 346.6113,126.8207 c 0.0000,-22.8562 -18.5286,-41.3848 -41.3848 -41.3848c -22.8562,-0.0000 -41.3848,18.5286 -41.3848 41.3848c -0.0000,22.8562 18.5286,41.3848 41.3848 41.3848c 22.8562,0.0000 41.3848,-18.5286 41.3848 -41.3848Z"/>
  </g>
  <defs>
  </defs>
  <g stroke-linejoin="miter" stroke-opacity="1.0" fill-opacity="1.0" opacity="5.0e-2" stroke="rgb(0,0,0)" stroke-width="1.9955597254657247" fill="rgb(255,0,0)" stroke-linecap="butt" stroke-miterlimit="10.0">
    <path d="M 445.1355,220.0620 c 0.0000,-37.8472 -30.6812,-68.5284 -68.5284 -68.5284c -37.8472,-0.0000 -68.5284,30.6812 -68.5284 68.5284c -0.0000,37.8472 30.6812,68.5284 68.5284 68.5284c 37.8472,0.0000 68.5284,-30.6812 68.5284 -68.5284Z"/>
  </g>
  <defs>
  </defs>
  <g stroke-linejoin="miter" stroke-opacity="1.0" fill-opacity="1.0" opacity="5.0e-2" stroke="rgb(0,0,0)" stroke-width="1.9955597254657247" fill="rgb(255,0,0)" stroke-linecap="butt" stroke-miterlimit="10.0">
    <path d="M 220.2401,144.6771 c 0.0000,-16.6588 -13.5047,-30.1635 -30.1635 -30.1635c -16.6588,-0.0000 -30.1635,13.5047 -30.1635 30.1635c -0.0000,16.6588 13.5047,30.1635 30.1635 30.1635c 16.6588,0.0000 30.1635,-13.5047 30.1635 -30.1635Z"/>
  </g>
  <defs>
  </defs>
  <g stroke-linejoin="miter" stroke-opacity="1.0" fill-opacity="1.0" opacity="5.0e-2" stroke="rgb(0,0,0)" stroke-width="1.9955597254657247" fill="rgb(255,0,0)" stroke-linecap="butt" stroke-miterlimit="10.0">
    <path d="M 378.5752,384.0778 c 0.0000,-45.4722 -36.8625,-82.3348 -82.3348 -82.3348c -45.4722,-0.0000 -82.3348,36.8625 -82.3348 82.3348c -0.0000,45.4722 36.8625,82.3348 82.3348 82.3348c 45.4722,0.0000 82.3348,-36.8625 82.3348 -82.3348Z"/>
  </g>
  <defs>
  </defs>
  <g stroke-linejoin="miter" stroke-opacity="1.0" fill-opacity="1.0" opacity="5.0e-2" stroke="rgb(0,0,0)" stroke-width="1.9955597254657247" fill="rgb(255,0,0)" stroke-linecap="butt" stroke-miterlimit="10.0">
    <path d="M 314.1631,182.0756 c 0.0000,-21.7342 -17.6190,-39.3532 -39.3532 -39.3532c -21.7342,-0.0000 -39.3532,17.6190 -39.3532 39.3532c -0.0000,21.7342 17.6190,39.3532 39.3532 39.3532c 21.7342,0.0000 39.3532,-17.6190 39.3532 -39.3532Z"/>
  </g>
  <defs>
  </defs>
  <g stroke-linejoin="miter" stroke-opacity="1.0" fill-opacity="1.0" opacity="5.0e-2" stroke="rgb(0,0,0)" stroke-width="1.9955597254657247" fill="rgb(255,0,0)" stroke-linecap="butt" stroke-miterlimit="10.0">
    <path d="M 257.3008,121.7792 c 0.0000,-38.0496 -30.8453,-68.8949 -68.8949 -68.8949c -38.0496,-0.0000 -68.8949,30.8453 -68.8949 68.8949c -0.0000,38.0496 30.8453,68.8949 68.8949 68.8949c 38.0496,0.0000 68.8949,-30.8453 68.8949 -68.8949Z"/>
  </g>
  <defs>
  </defs>
  <g stroke-linejoin="miter" stroke-opacity="1.0" fill-opacity="1.0" opacity="5.0e-2" stroke="rgb(0,0,0)" stroke-width="1.9955597254657247" fill="rgb(255,0,0)" stroke-linecap="butt" stroke-miterlimit="10.0">
    <path d="M 332.1177,359.1731 c 0.0000,-27.3035 -22.1339,-49.4374 -49.4374 -49.4374c -27.3035,-0.0000 -49.4374,22.1339 -49.4374 49.4374c -0.0000,27.3035 22.1339,49.4374 49.4374 49.4374c 27.3035,0.0000 49.4374,-22.1339 49.4374 -49.4374Z"/>
  </g>
  <defs>
  </defs>
  <g stroke-linejoin="miter" stroke-opacity="1.0" fill-opacity="1.0" opacity="5.0e-2" stroke="rgb(0,0,0)" stroke-width="1.9955597254657247" fill="rgb(255,0,0)" stroke-linecap="butt" stroke-miterlimit="10.0">
    <path d="M 467.8321,223.6702 c 0.0000,-49.0683 -39.7777,-88.8460 -88.8460 -88.8460c -49.0683,-0.0000 -88.8460,39.7777 -88.8460 88.8460c -0.0000,49.0683 39.7777,88.8460 88.8460 88.8460c 49.0683,0.0000 88.8460,-39.7777 88.8460 -88.8460Z"/>
  </g>
  <defs>
  </defs>
  <g stroke-linejoin="miter" stroke-opacity="1.0" fill-opacity="1.0" opacity="5.0e-2" stroke="rgb(0,0,0)" stroke-width="1.9955597254657247" fill="rgb(255,0,0)" stroke-linecap="butt" stroke-miterlimit="10.0">
    <path d="M 270.7856,209.9113 c 0.0000,-62.8293 -50.9332,-113.7625 -113.7625 -113.7625c -62.8293,-0.0000 -113.7625,50.9332 -113.7625 113.7625c -0.0000,62.8293 50.9332,113.7625 113.7625 113.7625c 62.8293,0.0000 113.7625,-50.9332 113.7625 -113.7625Z"/>
  </g>
  <defs>
  </defs>
  <g stroke-linejoin="miter" stroke-opacity="1.0" fill-opacity="1.0" opacity="5.0e-2" stroke="rgb(0,0,0)" stroke-width="1.9955597254657247" fill="rgb(255,0,0)" stroke-linecap="butt" stroke-miterlimit="10.0">
    <path d="M 401.0297,180.0675 c 0.0000,-58.3128 -47.2719,-105.5847 -105.5847 -105.5847c -58.3128,-0.0000 -105.5847,47.2719 -105.5847 105.5847c -0.0000,58.3128 47.2719,105.5847 105.5847 105.5847c 58.3128,0.0000 105.5847,-47.2719 105.5847 -105.5847Z"/>
  </g>
  <defs>
  </defs>
  <g stroke-linejoin="miter" stroke-opacity="1.0" fill-opacity="1.0" opacity="5.0e-2" stroke="rgb(0,0,0)" stroke-width="1.9955597254657247" fill="rgb(255,0,0)" stroke-linecap="butt" stroke-miterlimit="10.0">
    <path d="M 149.0678,323.3385 c 0.0000,-21.9782 -17.8169,-39.7951 -39.7951 -39.7951c -21.9782,-0.0000 -39.7951,17.8169 -39.7951 39.7951c -0.0000,21.9782 17.8169,39.7951 39.7951 39.7951c 21.9782,0.0000 39.7951,-17.8169 39.7951 -39.7951Z"/>
  </g>
  <defs>
  </defs>
  <g stroke-linejoin="miter" stroke-opacity="1.0" fill-opacity="1.0" opacity="5.0e-2" stroke="rgb(0,0,0)" stroke-width="1.9955597254657247" fill="rgb(255,0,0)" stroke-linecap="butt" stroke-miterlimit="10.0">
    <path d="M 335.9344,207.0215 c 0.0000,-58.9951 -47.8250,-106.8200 -106.8200 -106.8200c -58.9951,-0.0000 -106.8200,47.8250 -106.8200 106.8200c -0.0000,58.9951 47.8250,106.8200 106.8200 106.8200c 58.9951,0.0000 106.8200,-47.8250 106.8200 -106.8200Z"/>
  </g>
  <defs>
  </defs>
  <g stroke-linejoin="miter" stroke-opacity="1.0" fill-opacity="1.0" opacity="5.0e-2" stroke="rgb(0,0,0)" stroke-width="1.9955597254657247" fill="rgb(255,0,0)" stroke-linecap="butt" stroke-miterlimit="10.0">
    <path d="M 350.4871,264.5482 c 0.0000,-48.2299 -39.0981,-87.3280 -87.3280 -87.3280c -48.2299,-0.0000 -87.3280,39.0981 -87.3280 87.3280c -0.0000,48.2299 39.0981,87.3280 87.3280 87.3280c 48.2299,0.0000 87.3280,-39.0981 87.3280 -87.3280Z"/>
  </g>
  <defs>
  </defs>
  <g stroke-linejoin="miter" stroke-opacity="1.0" fill-opacity="1.0" opacity="5.0e-2" stroke="rgb(0,0,0)" stroke-width="1.9955597254657247" fill="rgb(255,0,0)" stroke-linecap="butt" stroke-miterlimit="10.0">
    <path d="M 392.4450,140.2941 c 0.0000,-42.7733 -34.6746,-77.4480 -77.4480 -77.4480c -42.7733,-0.0000 -77.4480,34.6746 -77.4480 77.4480c -0.0000,42.7733 34.6746,77.4480 77.4480 77.4480c 42.7733,0.0000 77.4480,-34.6746 77.4480 -77.4480Z"/>
  </g>
  <defs>
  </defs>
  <g stroke-linejoin="miter" stroke-opacity="1.0" fill-opacity="1.0" opacity="5.0e-2" stroke="rgb(0,0,0)" stroke-width="1.9955597254657247" fill="rgb(255,0,0)" stroke-linecap="butt" stroke-miterlimit="10.0">
    <path d="M 427.7221,378.6821 c 0.0000,-60.0239 -48.6590,-108.6830 -108.6830 -108.6830c -60.0239,-0.0000 -108.6830,48.6590 -108.6830 108.6830c -0.0000,60.0239 48.6590,108.6830 108.6830 108.6830c 60.0239,0.0000 108.6830,-48.6590 108.6830 -108.6830Z"/>
  </g>
  <defs>
  </defs>
  <g stroke-linejoin="miter" stroke-opacity="1.0" fill-opacity="1.0" opacity="5.0e-2" stroke="rgb(0,0,0)" stroke-width="1.9955597254657247" fill="rgb(255,0,0)" stroke-linecap="butt" stroke-miterlimit="10.0">
    <path d="M 197.1585,94.0814 c 0.0000,-34.6316 -28.0744,-62.7060 -62.7060 -62.7060c -34.6316,-0.0000 -62.7060,28.0744 -62.7060 62.7060c -0.0000,34.6316 28.0744,62.7060 62.7060 62.7060c 34.6316,0.0000 62.7060,-28.0744 62.7060 -62.7060Z"/>
  </g>
  <defs>
  </defs>
  <g stroke-linejoin="miter" stroke-opacity="1.0" fill-opacity="1.0" opacity="5.0e-2" stroke="rgb(0,0,0)" stroke-width="1.9955597254657247" fill="rgb(255,0,0)" stroke-linecap="butt" stroke-miterlimit="10.0">
    <path d="M 231.0366,217.2237 c 0.0000,-59.7459 -48.4336,-108.1796 -108.1796 -108.1796c -59.7459,-0.0000 -108.1796,48.4336 -108.1796 108.1796c -0.0000,59.7459 48.4336,108.1796 108.1796 108.1796c 59.7459,0.0000 108.1796,-48.4336 108.1796 -108.1796Z"/>
  </g>
  <defs>
  </defs>
  <g stroke-linejoin="miter" stroke-opacity="1.0" fill-opacity="1.0" opacity="5.0e-2" stroke="rgb(0,0,0)" stroke-width="1.9955597254657247" fill="rgb(255,0,0)" stroke-linecap="butt" stroke-miterlimit="10.0">
    <path d="M 309.7862,126.4672 c 0.0000,-18.8597 -15.2888,-34.1486 -34.1486 -34.1486c -18.8597,-0.0000 -34.1486,15.2888 -34.1486 34.1486c -0.0000,18.8597 15.2888,34.1486 34.1486 34.1486c 18.8597,0.0000 34.1486,-15.2888 34.1486 -34.1486Z"/>
  </g>
  <defs>
  </defs>
  <g stroke-linejoin="miter" stroke-opacity="1.0" fill-opacity="1.0" opacity="5.0e-2" stroke="rgb(0,0,0)" stroke-width="1.9955597254657247" fill="rgb(255,0,0)" stroke-linecap="butt" stroke-miterlimit="10.0">
    <path d="M 206.7005,183.3132 c 0.0000,-21.2900 -17.2589,-38.5489 -38.5489 -38.5489c -21.2900,-0.0000 -38.5489,17.2589 -38.5489 38.5489c -0.0000,21.2900 17.2589,38.5489 38.5489 38.5489c 21.2900,0.0000 38.5489,-17.2589 38.5489 -38.5489Z"/>
  </g>
  <defs>
  </defs>
  <g stroke-linejoin="miter" stroke-opacity="1.0" fill-opacity="1.0" opacity="5.0e-2" stroke="rgb(0,0,0)" stroke-width="1.9955597254657247" fill="rgb(255,0,0)" stroke-linecap="butt" stroke-miterlimit="10.0">
    <path d="M 464.8147,175.8859 c 0.0000,-31.9656 -25.9132,-57.8789 -57.8789 -57.8789c -31.9656,-0.0000 -57.8789,25.9132 -57.8789 57.8789c -0.0000,31.9656 25.9132,57.8789 57.8789 57.8789c 31.9656,0.0000 57.8789,-25.9132 57.8789 -57.8789Z"/>
  </g>
  <defs>
  </defs>
  <g stroke-linejoin="miter" stroke-opacity="1.0" fill-opacity="1.0" opacity="5.0e-2" stroke="rgb(0,0,0)" stroke-width="1.9955597254657247" fill="rgb(255,0,0)" stroke-linecap="butt" stroke-miterlimit="10.0">
    <path d="M 327.2522,309.4441 c 0.0000,-25.2117 -20.4381,-45.6499 -45.6499 -45.6499c -25.2117,-0.0000 -45.6499,20.4381 -45.6499 45.6499c -0.0000,25.2117 20.4381,45.6499 45.6499 45.6499c 25.2117,0.0000 45.6499,-20.4381 45.6499 -45.6499Z"/>
  </g>
  <defs>
  </defs>
  <g stroke-linejoin="miter" stroke-opacity="1.0" fill-opacity="1.0" opacity="5.0e-2" stroke="rgb(0,0,0)" stroke-width="1.9955597254657247" fill="rgb(255,0,0)" stroke-linecap="butt" stroke-miterlimit="10.0">
    <path d="M 390.7029,233.3442 c 0.0000,-16.9848 -13.7689,-30.7537 -30.7537 -30.7537c -16.9848,-0.0000 -30.7537,13.7689 -30.7537 30.7537c -0.0000,16.9848 13.7689,30.7537 30.7537 30.7537c 16.9848,0.0000 30.7537,-13.7689 30.7537 -30.7537Z"/>
  </g>
  <defs>
  </defs>
  <g stroke-linejoin="miter" stroke-opacity="1.0" fill-opacity="1.0" opacity="5.0e-2" stroke="rgb(0,0,0)" stroke-width="1.9955597254657247" fill="rgb(255,0,0)" stroke-linecap="butt" stroke-miterlimit="10.0">
    <path d="M 342.3694,290.6348 c 0.0000,-30.7029 -24.8896,-55.5925 -55.5925 -55.5925c -30.7029,-0.0000 -55.5925,24.8896 -55.5925 55.5925c -0.0000,30.7029 24.8896,55.5925 55.5925 55.5925c 30.7029,0.0000 55.5925,-24.8896 55.5925 -55.5925Z"/>
  </g>
  <defs>
  </defs>
  <g stroke-linejoin="miter" stroke-opacity="1.0" fill-opacity="1.0" opacity="5.0e-2" stroke="rgb(0,0,0)" stroke-width="1.9955597254657247" fill="rgb(255,0,0)" stroke-linecap="butt" stroke-miterlimit="10.0">
    <path d="M 273.5820,287.9714 c 0.0000,-38.9950 -31.6117,-70.6067 -70.6067 -70.6067c -38.9950,-0.0000 -70.6067,31.6117 -70.6067 70.6067c -0.0000,38.9950 31.6117,70.6067 70.6067 70.6067c 38.9950,0.0000 70.6067,-31.6117 70.6067 -70.6067Z"/>
  </g>
  <defs>
  </defs>
  <g stroke-linejoin="miter" stroke-opacity="1.0" fill-opacity="1.0" opacity="5.0e-2" stroke="rgb(0,0,0)" stroke-width="1.9955597254657247" fill="rgb(255,0,0)" stroke-linecap="butt" stroke-miterlimit="10.0">
    <path d="M 248.8346,352.9407 c 0.0000,-61.4481 -49.8135,-111.2616 -111.2616 -111.2616c -61.4481,-0.0000 -111.2616,49.8135 -111.2616 111.2616c -0.0000,61.4481 49.8135,111.2616 111.2616 111.2616c 61.4481,0.0000 111.2616,-49.8135 111.2616 -111.2616Z"/>
  </g>
  <defs>
  </defs>
  <g stroke-linejoin="miter" stroke-opacity="1.0" fill-opacity="1.0" opacity="5.0e-2" stroke="rgb(0,0,0)" stroke-width="1.9955597254657247" fill="rgb(255,0,0)" stroke-linecap="butt" stroke-miterlimit="10.0">
    <path d="M 409.5242,160.9428 c 0.0000,-20.7467 -16.8185,-37.5652 -37.5652 -37.5652c -20.7467,-0.0000 -37.5652,16.8185 -37.5652 37.5652c -0.0000,20.7467 16.8185,37.5652 37.5652 37.5652c 20.7467,0.0000 37.5652,-16.8185 37.5652 -37.5652Z"/>
  </g>
  <defs>
  </defs>
  <g stroke-linejoin="miter" stroke-opacity="1.0" fill-opacity="1.0" opacity="5.0e-2" stroke="rgb(0,0,0)" stroke-width="1.9955597254657247" fill="rgb(255,0,0)" stroke-linecap="butt" stroke-miterlimit="10.0">
    <path d="M 194.9440,180.0250 c 0.0000,-30.8727 -25.0273,-55.9000 -55.9000 -55.9000c -30.8727,-0.0000 -55.9000,25.0273 -55.9000 55.9000c -0.0000,30.8727 25.0273,55.9000 55.9000 55.9000c 30.8727,0.0000 55.9000,-25.0273 55.9000 -55.9000Z"/>
  </g>
  <defs>
  </defs>
  <g stroke-linejoin="miter" stroke-opacity="1.0" fill-opacity="1.0" opacity="5.0e-2" stroke="rgb(0,0,0)" stroke-width="1.9955597254657247" fill="rgb(255,0,0)" stroke-linecap="butt" stroke-miterlimit="10.0">
    <path d="M 355.2270,139.6335 c 0.0000,-65.9513 -53.4641,-119.4153 -119.4153 -119.4153c -65.9513,-0.0000 -119.4153,53.4641 -119.4153 119.4153c -0.0000,65.9513 53.4641,119.4153 119.4153 119.4153c 65.9513,0.0000 119.4153,-53.4641 119.4153 -119.4153Z"/>
  </g>
  <defs>
  </defs>
  <g stroke-linejoin="miter" stroke-opacity="1.0" fill-opacity="1.0" opacity="5.0e-2" stroke="rgb(0,0,0)" stroke-width="1.9955597254657247" fill="rgb(255,0,0)" stroke-linecap="butt" stroke-miterlimit="10.0">
    <path d="M 146.1684,112.2548 c 0.0000,-17.9907 -14.5844,-32.5751 -32.5751 -32.5751c -17.9907,-0.0000 -32.5751,14.5844 -32.5751 32.5751c -0.0000,17.9907 14.5844,32.5751 32.5751 32.5751c 17.9907,0.0000 32.5751,-14.5844 32.5751 -32.5751Z"/>
  </g>
  <defs>
  </defs>
  <g stroke-linejoin="miter" stroke-opacity="1.0" fill-opacity="1.0" opacity="5.0e-2" stroke="rgb(0,0,0)" stroke-width="1.9955597254657247" fill="rgb(255,0,0)" stroke-linecap="butt" stroke-miterlimit="10.0">
    <path d="M 348.1231,324.4516 c 0.0000,-62.2085 -50.4300,-112.6385 -112.6385 -112.6385c -62.2085,-0.0000 -112.6385,50.4300 -112.6385 112.6385c -0.0000,62.2085 50.4300,112.6385 112.6385 112.6385c 62.2085,0.0000 112.6385,-50.4300 112.6385 -112.6385Z"/>
  </g>
  <defs>
  </defs>
  <g stroke-linejoin="miter" stroke-opacity="1.0" fill-opacity="1.0" opacity="5.0e-2" stroke="rgb(0,0,0)" stroke-width="1.9955597254657247" fill="rgb(255,0,0)" stroke-linecap="butt" stroke-miterlimit="10.0">
    <path d="M 234.6842,304.8961 c 0.0000,-29.8897 -24.2304,-54.1200 -54.1200 -54.1200c -29.8897,-0.0000 -54.1200,24.2304 -54.1200 54.1200c -0.0000,29.8897 24.2304,54.1200 54.1200 54.1200c 29.8897,0.0000 54.1200,-24.2304 54.1200 -54.1200Z"/>
  </g>
  <defs>
  </defs>
  <g stroke-linejoin="miter" stroke-opacity="1.0" fill-opacity="1.0" opacity="5.0e-2" stroke="rgb(0,0,0)" stroke-width="1.9955597254657247" fill="rgb(255,0,0)" stroke-linecap="butt" stroke-miterlimit="10.0">
    <path d="M 476.4485,148.0090 c 0.0000,-63.3625 -51.3655,-114.7280 -114.7280 -114.7280c -63.3625,-0.0000 -114.7280,51.3655 -114.7280 114.7280c -0.0000,63.3625 51.3655,114.7280 114.7280 114.7280c 63.3625,0.0000 114.7280,-51.3655 114.7280 -114.7280Z"/>
  </g>
  <defs>
  </defs>
  <g stroke-linejoin="miter" stroke-opacity="1.0" fill-opacity="1.0" opacity="5.0e-2" stroke="rgb(0,0,0)" stroke-width="1.9955597254657247" fill="rgb(255,0,0)" stroke-linecap="butt" stroke-miterlimit="10.0">
    <path d="M 384.6538,260.3714 c 0.0000,-40.2295 -32.6125,-72.8420 -72.8420 -72.8420c -40.2295,-0.0000 -72.8420,32.6125 -72.8420 72.8420c -0.0000,40.2295 32.6125,72.8420 72.8420 72.8420c 40.2295,0.0000 72.8420,-32.6125 72.8420 -72.8420Z"/>
  </g>
  <defs>
  </defs>
  <g stroke-linejoin="miter" stroke-opacity="1.0" fill-opacity="1.0" opacity="5.0e-2" stroke="rgb(0,0,0)" stroke-width="1.9955597254657247" fill="rgb(255,0,0)" stroke-linecap="butt" stroke-miterlimit="10.0">
    <path d="M 258.8348,245.2084 c 0.0000,-59.6207 -48.3321,-107.9529 -107.9529 -107.9529c -59.6207,-0.0000 -107.9529,48.3321 -107.9529 107.9529c -0.0000,59.6207 48.3321,107.9529 107.9529 107.9529c 59.6207,0.0000 107.9529,-48.3321 107.9529 -107.9529Z"/>
  </g>
  <defs>
  </defs>
  <g stroke-linejoin="miter" stroke-opacity="1.0" fill-opacity="1.0" opacity="5.0e-2" stroke="rgb(0,0,0)" stroke-width="1.9955597254657247" fill="rgb(255,0,0)" stroke-linecap="butt" stroke-miterlimit="10.0">
    <path d="M 216.6410,221.2243 c 0.0000,-40.7355 -33.0227,-73.7582 -73.7582 -73.7582c -40.7355,-0.0000 -73.7582,33.0227 -73.7582 73.7582c -0.0000,40.7355 33.0227,73.7582 73.7582 73.7582c 40.7355,0.0000 73.7582,-33.0227 73.7582 -73.7582Z"/>
  </g>
  <defs>
  </defs>
  <g stroke-linejoin="miter" stroke-opacity="1.0" fill-opacity="1.0" opacity="5.0e-2" stroke="rgb(0,0,0)" stroke-width="1.9955597254657247" fill="rgb(255,0,0)" stroke-linecap="butt" stroke-miterlimit="10.0">
    <path d="M 360.7064,356.9456 c 0.0000,-52.0212 -42.1715,-94.1928 -94.1928 -94.1928c -52.0212,-0.0000 -94.1928,42.1715 -94.1928 94.1928c -0.0000,52.0212 42.1715,94.1928 94.1928 94.1928c 52.0212,0.0000 94.1928,-42.1715 94.1928 -94.1928Z"/>
  </g>
  <defs>
  </defs>
  <g stroke-linejoin="miter" stroke-opacity="1.0" fill-opacity="1.0" opacity="5.0e-2" stroke="rgb(0,0,0)" stroke-width="1.9955597254657247" fill="rgb(255,0,0)" stroke-linecap="butt" stroke-miterlimit="10.0">
    <path d="M 239.9209,377.1497 c 0.0000,-23.0512 -18.6867,-41.7378 -41.7378 -41.7378c -23.0512,-0.0000 -41.7378,18.6867 -41.7378 41.7378c -0.0000,23.0512 18.6867,41.7378 41.7378 41.7378c 23.0512,0.0000 41.7378,-18.6867 41.7378 -41.7378Z"/>
  </g>
  <defs>
  </defs>
  <g stroke-linejoin="miter" stroke-opacity="1.0" fill-opacity="1.0" opacity="5.0e-2" stroke="rgb(0,0,0)" stroke-width="1.9955597254657247" fill="rgb(255,0,0)" stroke-linecap="butt" stroke-miterlimit="10.0">
    <path d="M 200.7681,146.4943 c 0.0000,-33.8194 -27.4160,-61.2354 -61.2354 -61.2354c -33.8194,-0.0000 -61.2354,27.4160 -61.2354 61.2354c -0.0000,33.8194 27.4160,61.2354 61.2354 61.2354c 33.8194,0.0000 61.2354,-27.4160 61.2354 -61.2354Z"/>
  </g>
  <defs>
  </defs>
  <g stroke-linejoin="miter" stroke-opacity="1.0" fill-opacity="1.0" opacity="5.0e-2" stroke="rgb(0,0,0)" stroke-width="1.9955597254657247" fill="rgb(255,0,0)" stroke-linecap="butt" stroke-miterlimit="10.0">
    <path d="M 447.0181,277.2923 c 0.0000,-61.1561 -49.5768,-110.7330 -110.7330 -110.7330c -61.1561,-0.0000 -110.7330,49.5768 -110.7330 110.7330c -0.0000,61.1561 49.5768,110.7330 110.7330 110.7330c 61.1561,0.0000 110.7330,-49.5768 110.7330 -110.7330Z"/>
  </g>
  <defs>
  </defs>
  <g stroke-linejoin="miter" stroke-opacity="1.0" fill-opacity="1.0" opacity="5.0e-2" stroke="rgb(0,0,0)" stroke-width="1.9955597254657247" fill="rgb(255,0,0)" stroke-linecap="butt" stroke-miterlimit="10.0">
    <path d="M 225.7968,255.7349 c 0.0000,-56.8552 -46.0903,-102.9455 -102.9455 -102.9455c -56.8552,-0.0000 -102.9455,46.0903 -102.9455 102.9455c -0.0000,56.8552 46.0903,102.9455 102.9455 102.9455c 56.8552,0.0000 102.9455,-46.0903 102.9455 -102.9455Z"/>
  </g>
  <defs>
  </defs>
  <g stroke-linejoin="miter" stroke-opacity="1.0" fill-opacity="1.0" opacity="5.0e-2" stroke="rgb(0,0,0)" stroke-width="1.9955597254657247" fill="rgb(255,0,0)" stroke-linecap="butt" stroke-miterlimit="10.0">
    <path d="M 183.7971,316.4588 c 0.0000,-38.3336 -31.0755,-69.4092 -69.4092 -69.4092c -38.3336,-0.0000 -69.4092,31.0755 -69.4092 69.4092c -0.0000,38.3336 31.0755,69.4092 69.4092 69.4092c 38.3336,0.0000 69.4092,-31.0755 69.4092 -69.4092Z"/>
  </g>
  <defs>
  </defs>
  <g stroke-linejoin="miter" stroke-opacity="1.0" fill-opacity="1.0" opacity="5.0e-2" stroke="rgb(0,0,0)" stroke-width="1.9955597254657247" fill="rgb(255,0,0)" stroke-linecap="butt" stroke-miterlimit="10.0">
    <path d="M 364.1912,245.7157 c 0.0000,-21.0854 -17.0931,-38.1784 -38.1784 -38.1784c -21.0854,-0.0000 -38.1784,17.0931 -38.1784 38.1784c -0.0000,21.0854 17.0931,38.1784 38.1784 38.1784c 21.0854,0.0000 38.1784,-17.0931 38.1784 -38.1784Z"/>
  </g>
  <defs>
  </defs>
  <g stroke-linejoin="miter" stroke-opacity="1.0" fill-opacity="1.0" opacity="5.0e-2" stroke="rgb(0,0,0)" stroke-width="1.9955597254657247" fill="rgb(255,0,0)" stroke-linecap="butt" stroke-miterlimit="10.0">
    <path d="M 308.0433,154.8070 c 0.0000,-51.6974 -41.9091,-93.6065 -93.6065 -93.6065c -51.6974,-0.0000 -93.6065,41.9091 -93.6065 93.6065c -0.0000,51.6974 41.9091,93.6065 93.6065 93.6065c 51.6974,0.0000 93.6065,-41.9091 93.6065 -93.6065Z"/>
  </g>
  <defs>
  </defs>
  <g stroke-linejoin="miter" stroke-opacity="1.0" fill-opacity="1.0" opacity="5.0e-2" stroke="rgb(0,0,0)" stroke-width="1.9955597254657247" fill="rgb(255,0,0)" stroke-linecap="butt" stroke-miterlimit="10.0">
    <path d="M 227.8121,326.9310 c 0.0000,-24.3911 -19.7729,-44.1639 -44.1639 -44.1639c -24.3911,-0.0000 -44.1639,19.7729 -44.1639 44.1639c -0.0000,24.3911 19.7729,44.1639 44.1639 44.1639c 24.3911,0.0000 44.1639,-19.7729 44.1639 -44.1639Z"/>
  </g>
  <defs>
  </defs>
  <g stroke-linejoin="miter" stroke-opacity="1.0" fill-opacity="1.0" opacity="5.0e-2" stroke="rgb(0,0,0)" stroke-width="1.9955597254657247" fill="rgb(255,0,0)" stroke-linecap="butt" stroke-miterlimit="10.0">
    <path d="M 345.3929,144.6095 c 0.0000,-32.4070 -26.2710,-58.6780 -58.6780 -58.6780c -32.4070,-0.0000 -58.6780,26.2710 -58.6780 58.6780c -0.0000,32.4070 26.2710,58.6780 58.6780 58.6780c 32.4070,0.0000 58.6780,-26.2710 58.6780 -58.6780Z"/>
  </g>
  <defs>
  </defs>
  <g stroke-linejoin="miter" stroke-opacity="1.0" fill-opacity="1.0" opacity="5.0e-2" stroke="rgb(0,0,0)" stroke-width="1.9955597254657247" fill="rgb(255,0,0)" stroke-linecap="butt" stroke-miterlimit="10.0">
    <path d="M 199.3783,133.0292 c 0.0000,-31.9747 -25.9206,-57.8953 -57.8953 -57.8953c -31.9747,-0.0000 -57.8953,25.9206 -57.8953 57.8953c -0.0000,31.9747 25.9206,57.8953 57.8953 57.8953c 31.9747,0.0000 57.8953,-25.9206 57.8953 -57.8953Z"/>
  </g>
  <defs>
  </defs>
  <g stroke-linejoin="miter" stroke-opacity="1.0" fill-opacity="1.0" opacity="5.0e-2" stroke="rgb(0,0,0)" stroke-width="1.9955597254657247" fill="rgb(255,0,0)" stroke-linecap="butt" stroke-miterlimit="10.0">
    <path d="M 173.7814,197.8638 c 0.0000,-21.5294 -17.4530,-38.9824 -38.9824 -38.9824c -21.5294,-0.0000 -38.9824,17.4530 -38.9824 38.9824c -0.0000,21.5294 17.4530,38.9824 38.9824 38.9824c 21.5294,0.0000 38.9824,-17.4530 38.9824 -38.9824Z"/>
  </g>
  <defs>
  </defs>
  <g stroke-linejoin="miter" stroke-opacity="1.0" fill-opacity="1.0" opacity="5.0e-2" stroke="rgb(0,0,0)" stroke-width="1.9955597254657247" fill="rgb(255,0,0)" stroke-linecap="butt" stroke-miterlimit="10.0">
    <path d="M 259.8868,340.4792 c 0.0000,-53.4572 -43.3356,-96.7928 -96.7928 -96.7928c -53.4572,-0.0000 -96.7928,43.3356 -96.7928 96.7928c -0.0000,53.4572 43.3356,96.7928 96.7928 96.7928c 53.4572,0.0000 96.7928,-43.3356 96.7928 -96.7928Z"/>
  </g>
  <defs>
  </defs>
  <g stroke-linejoin="miter" stroke-opacity="1.0" fill-opacity="1.0" opacity="5.0e-2" stroke="rgb(0,0,0)" stroke-width="1.9955597254657247" fill="rgb(255,0,0)" stroke-linecap="butt" stroke-miterlimit="10.0">
    <path d="M 348.8566,300.7494 c 0.0000,-28.7563 -23.3116,-52.0680 -52.0680 -52.0680c -28.7563,-0.0000 -52.0680,23.3116 -52.0680 52.0680c -0.0000,28.7563 23.3116,52.0680 52.0680 52.0680c 28.7563,0.0000 52.0680,-23.3116 52.0680 -52.0680Z"/>
  </g>
  <defs>
  </defs>
  <g stroke-linejoin="miter" stroke-opacity="1.0" fill-opacity="1.0" opacity="5.0e-2" stroke="rgb(0,0,0)" stroke-width="1.9955597254657247" fill="rgb(255,0,0)" stroke-linecap="butt" stroke-miterlimit="10.0">
    <path d="M 142.1213,174.1808 c 0.0000,-19.7533 -16.0132,-35.7666 -35.7666 -35.7666c -19.7533,-0.0000 -35.7666,16.0132 -35.7666 35.7666c -0.0000,19.7533 16.0132,35.7666 35.7666 35.7666c 19.7533,0.0000 35.7666,-16.0132 35.7666 -35.7666Z"/>
  </g>
  <defs>
  </defs>
  <g stroke-linejoin="miter" stroke-opacity="1.0" fill-opacity="1.0" opacity="5.0e-2" stroke="rgb(0,0,0)" stroke-width="1.9955597254657247" fill="rgb(255,0,0)" stroke-linecap="butt" stroke-miterlimit="10.0">
    <path d="M 286.4517,164.9630 c 0.0000,-31.1859 -25.2811,-56.4670 -56.4670 -56.4670c -31.1859,-0.0000 -56.4670,25.2811 -56.4670 56.4670c -0.0000,31.1859 25.2811,56.4670 56.4670 56.4670c 31.1859,0.0000 56.4670,-25.2811 56.4670 -56.4670Z"/>
  </g>
  <defs>
  </defs>
  <g stroke-linejoin="miter" stroke-opacity="1.0" fill-opacity="1.0" opacity="5.0e-2" stroke="rgb(0,0,0)" stroke-width="1.9955597254657247" fill="rgb(255,0,0)" stroke-linecap="butt" stroke-miterlimit="10.0">
    <path d="M 440.3139,139.9278 c 0.0000,-19.8534 -16.0943,-35.9477 -35.9477 -35.9477c -19.8534,-0.0000 -35.9477,16.0943 -35.9477 35.9477c -0.0000,19.8534 16.0943,35.9477 35.9477 35.9477c 19.8534,0.0000 35.9477,-16.0943 35.9477 -35.9477Z"/>
  </g>
  <defs>
  </defs>
  <g stroke-linejoin="miter" stroke-opacity="1.0" fill-opacity="1.0" opacity="5.0e-2" stroke="rgb(0,0,0)" stroke-width="1.9955597254657247" fill="rgb(255,0,0)" stroke-linecap="butt" stroke-miterlimit="10.0">
    <path d="M 325.9827,127.5930 c 0.0000,-29.1357 -23.6192,-52.7549 -52.7549 -52.7549c -29.1357,-0.0000 -52.7549,23.6192 -52.7549 52.7549c -0.0000,29.1357 23.6192,52.7549 52.7549 52.7549c 29.1357,0.0000 52.7549,-23.6192 52.7549 -52.7549Z"/>
  </g>
  <defs>
  </defs>
  <g stroke-linejoin="miter" stroke-opacity="1.0" fill-opacity="1.0" opacity="5.0e-2" stroke="rgb(0,0,0)" stroke-width="1.9955597254657247" fill="rgb(255,0,0)" stroke-linecap="butt" stroke-miterlimit="10.0">
    <path d="M 371.4196,243.1798 c 0.0000,-35.9518 -29.1447,-65.0966 -65.0966 -65.0966c -35.9518,-0.0000 -65.0966,29.1447 -65.0966 65.0966c -0.0000,35.9518 29.1447,65.0966 65.0966 65.0966c 35.9518,0.0000 65.0966,-29.1447 65.0966 -65.0966Z"/>
  </g>
  <defs>
  </defs>
  <g stroke-linejoin="miter" stroke-opacity="1.0" fill-opacity="1.0" opacity="5.0e-2" stroke="rgb(0,0,0)" stroke-width="1.9955597254657247" fill="rgb(255,0,0)" stroke-linecap="butt" stroke-miterlimit="10.0">
    <path d="M 310.3697,144.5849 c 0.0000,-42.6721 -34.5926,-77.2647 -77.2647 -77.2647c -42.6721,-0.0000 -77.2647,34.5926 -77.2647 77.2647c -0.0000,42.6721 34.5926,77.2647 77.2647 77.2647c 42.6721,0.0000 77.2647,-34.5926 77.2647 -77.2647Z"/>
  </g>
  <defs>
  </defs>
  <g stroke-linejoin="miter" stroke-opacity="1.0" fill-opacity="1.0" opacity="5.0e-2" stroke="rgb(0,0,0)" stroke-width="1.9955597254657247" fill="rgb(255,0,0)" stroke-linecap="butt" stroke-miterlimit="10.0">
    <path d="M 306.7419,335.3718 c 0.0000,-16.8372 -13.6492,-30.4864 -30.4864 -30.4864c -16.8372,-0.0000 -30.4864,13.6492 -30.4864 30.4864c -0.0000,16.8372 13.6492,30.4864 30.4864 30.4864c 16.8372,0.0000 30.4864,-13.6492 30.4864 -30.4864Z"/>
  </g>
  <defs>
  </defs>
  <g stroke-linejoin="miter" stroke-opacity="1.0" fill-opacity="1.0" opacity="5.0e-2" stroke="rgb(0,0,0)" stroke-width="1.9955597254657247" fill="rgb(255,0,0)" stroke-linecap="butt" stroke-miterlimit="10.0">
    <path d="M 445.9861,377.5305 c 0.0000,-61.5401 -49.8881,-111.4281 -111.4281 -111.4281c -61.5401,-0.0000 -111.4281,49.8881 -111.4281 111.4281c -0.0000,61.5401 49.8881,111.4281 111.4281 111.4281c 61.5401,0.0000 111.4281,-49.8881 111.4281 -111.4281Z"/>
  </g>
  <defs>
  </defs>
  <g stroke-linejoin="miter" stroke-opacity="1.0" fill-opacity="1.0" opacity="5.0e-2" stroke="rgb(0,0,0)" stroke-width="1.9955597254657247" fill="rgb(255,0,0)" stroke-linecap="butt" stroke-miterlimit="10.0">
    <path d="M 175.4445,377.4460 c 0.0000,-32.9377 -26.7013,-59.6390 -59.6390 -59.6390c -32.9377,-0.0000 -59.6390,26.7013 -59.6390 59.6390c -0.0000,32.9377 26.7013,59.6390 59.6390 59.6390c 32.9377,0.0000 59.6390,-26.7013 59.6390 -59.6390Z"/>
  </g>
  <defs>
  </defs>
  <g stroke-linejoin="miter" stroke-opacity="1.0" fill-opacity="1.0" opacity="5.0e-2" stroke="rgb(0,0,0)" stroke-width="1.9955597254657247" fill="rgb(255,0,0)" stroke-linecap="butt" stroke-miterlimit="10.0">
    <path d="M 323.2587,311.6118 c 0.0000,-59.6219 -48.3331,-107.9549 -107.9549 -107.9549c -59.6219,-0.0000 -107.9549,48.3331 -107.9549 107.9549c -0.0000,59.6219 48.3331,107.9549 107.9549 107.9549c 59.6219,0.0000 107.9549,-48.3331 107.9549 -107.9549Z"/>
  </g>
  <defs>
  </defs>
  <g stroke-linejoin="miter" stroke-opacity="1.0" fill-opacity="1.0" opacity="5.0e-2" stroke="rgb(0,0,0)" stroke-width="1.9955597254657247" fill="rgb(255,0,0)" stroke-linecap="butt" stroke-miterlimit="10.0">
    <path d="M 365.9220,216.5042 c 0.0000,-38.6694 -31.3478,-70.0172 -70.0172 -70.0172c -38.6694,-0.0000 -70.0172,31.3478 -70.0172 70.0172c -0.0000,38.6694 31.3478,70.0172 70.0172 70.0172c 38.6694,0.0000 70.0172,-31.3478 70.0172 -70.0172Z"/>
  </g>
  <defs>
  </defs>
  <g stroke-linejoin="miter" stroke-opacity="1.0" fill-opacity="1.0" opacity="5.0e-2" stroke="rgb(0,0,0)" stroke-width="1.9955597254657247" fill="rgb(255,0,0)" stroke-linecap="butt" stroke-miterlimit="10.0">
    <path d="M 419.0686,305.5324 c 0.0000,-42.4187 -34.3872,-76.8059 -76.8059 -76.8059c -42.4187,-0.0000 -76.8059,34.3872 -76.8059 76.8059c -0.0000,42.4187 34.3872,76.8059 76.8059 76.8059c 42.4187,0.0000 76.8059,-34.3872 76.8059 -76.8059Z"/>
  </g>
  <defs>
  </defs>
  <g stroke-linejoin="miter" stroke-opacity="1.0" fill-opacity="1.0" opacity="5.0e-2" stroke="rgb(0,0,0)" stroke-width="1.9955597254657247" fill="rgb(255,0,0)" stroke-linecap="butt" stroke-miterlimit="10.0">
    <path d="M 386.5737,291.0254 c 0.0000,-62.8040 -50.9127,-113.7167 -113.7167 -113.7167c -62.8040,-0.0000 -113.7167,50.9127 -113.7167 113.7167c -0.0000,62.8040 50.9127,113.7167 113.7167 113.7167c 62.8040,0.0000 113.7167,-50.9127 113.7167 -113.7167Z"/>
  </g>
  <defs>
  </defs>
  <g stroke-linejoin="miter" stroke-opacity="1.0" fill-opacity="1.0" opacity="5.0e-2" stroke="rgb(0,0,0)" stroke-width="1.9955597254657247" fill="rgb(255,0,0)" stroke-linecap="butt" stroke-miterlimit="10.0">
    <path d="M 415.6540,114.7649 c 0.0000,-16.8620 -13.6693,-30.5313 -30.5313 -30.5313c -16.8620,-0.0000 -30.5313,13.6693 -30.5313 30.5313c -0.0000,16.8620 13.6693,30.5313 30.5313 30.5313c 16.8620,0.0000 30.5313,-13.6693 30.5313 -30.5313Z"/>
  </g>
  <defs>
  </defs>
  <g stroke-linejoin="miter" stroke-opacity="1.0" fill-opacity="1.0" opacity="5.0e-2" stroke="rgb(0,0,0)" stroke-width="1.9955597254657247" fill="rgb(255,0,0)" stroke-linecap="butt" stroke-miterlimit="10.0">
    <path d="M 214.9703,242.7156 c 0.0000,-48.0915 -38.9859,-87.0774 -87.0774 -87.0774c -48.0915,-0.0000 -87.0774,38.9859 -87.0774 87.0774c -0.0000,48.0915 38.9859,87.0774 87.0774 87.0774c 48.0915,0.0000 87.0774,-38.9859 87.0774 -87.0774Z"/>
  </g>
  <defs>
  </defs>
  <g stroke-linejoin="miter" stroke-opacity="1.0" fill-opacity="1.0" opacity="5.0e-2" stroke="rgb(0,0,0)" stroke-width="1.9955597254657247" fill="rgb(255,0,0)" stroke-linecap="butt" stroke-miterlimit="10.0">
    <path d="M 194.6488,359.3905 c 0.0000,-18.0151 -14.6042,-32.6193 -32.6193 -32.6193c -18.0151,-0.0000 -32.6193,14.6042 -32.6193 32.6193c -0.0000,18.0151 14.6042,32.6193 32.6193 32.6193c 18.0151,0.0000 32.6193,-14.6042 32.6193 -32.6193Z"/>
  </g>
  <defs>
  </defs>
  <g stroke-linejoin="miter" stroke-opacity="1.0" fill-opacity="1.0" opacity="5.0e-2" stroke="rgb(0,0,0)" stroke-width="1.9955597254657247" fill="rgb(255,0,0)" stroke-linecap="butt" stroke-miterlimit="10.0">
    <path d="M 429.0122,333.1361 c 0.0000,-26.7070 -21.6503,-48.3573 -48.3573 -48.3573c -26.7070,-0.0000 -48.3573,21.6503 -48.3573 48.3573c -0.0000,26.7070 21.6503,48.3573 48.3573 48.3573c 26.7070,0.0000 48.3573,-21.6503 48.3573 -48.3573Z"/>
  </g>
  <defs>
  </defs>
  <g stroke-linejoin="miter" stroke-opacity="1.0" fill-opacity="1.0" opacity="5.0e-2" stroke="rgb(0,0,0)" stroke-width="1.9955597254657247" fill="rgb(255,0,0)" stroke-linecap="butt" stroke-miterlimit="10.0">
    <path d="M 329.3786,184.7700 c 0.0000,-22.3207 -18.0945,-40.4153 -40.4153 -40.4153c -22.3207,-0.0000 -40.4153,18.0945 -40.4153 40.4153c -0.0000,22.3207 18.0945,40.4153 40.4153 40.4153c 22.3207,0.0000 40.4153,-18.0945 40.4153 -40.4153Z"/>
  </g>
  <defs>
  </defs>
  <g stroke-linejoin="miter" stroke-opacity="1.0" fill-opacity="1.0" opacity="5.0e-2" stroke="rgb(0,0,0)" stroke-width="1.9955597254657247" fill="rgb(255,0,0)" stroke-linecap="butt" stroke-miterlimit="10.0">
    <path d="M 221.2683,274.9392 c 0.0000,-24.5260 -19.8823,-44.4083 -44.4083 -44.4083c -24.5260,-0.0000 -44.4083,19.8823 -44.4083 44.4083c -0.0000,24.5260 19.8823,44.4083 44.4083 44.4083c 24.5260,0.0000 44.4083,-19.8823 44.4083 -44.4083Z"/>
  </g>
  <defs>
  </defs>
  <g stroke-linejoin="miter" stroke-opacity="1.0" fill-opacity="1.0" opacity="5.0e-2" stroke="rgb(0,0,0)" stroke-width="1.9955597254657247" fill="rgb(255,0,0)" stroke-linecap="butt" stroke-miterlimit="10.0">
    <path d="M 206.7382,302.6780 c 0.0000,-37.5702 -30.4567,-68.0269 -68.0269 -68.0269c -37.5702,-0.0000 -68.0269,30.4567 -68.0269 68.0269c -0.0000,37.5702 30.4567,68.0269 68.0269 68.0269c 37.5702,0.0000 68.0269,-30.4567 68.0269 -68.0269Z"/>
  </g>
  <defs>
  </defs>
  <g stroke-linejoin="miter" stroke-opacity="1.0" fill-opacity="1.0" opacity="5.0e-2" stroke="rgb(0,0,0)" stroke-width="1.9955597254657247" fill="rgb(255,0,0)" stroke-linecap="butt" stroke-miterlimit="10.0">
    <path d="M 382.8761,331.4689 c 0.0000,-38.0975 -30.8841,-68.9816 -68.9816 -68.9816c -38.0975,-0.0000 -68.9816,30.8841 -68.9816 68.9816c -0.0000,38.0975 30.8841,68.9816 68.9816 68.9816c 38.0975,0.0000 68.9816,-30.8841 68.9816 -68.9816Z"/>
  </g>
  <defs>
  </defs>
  <g stroke-linejoin="miter" stroke-opacity="1.0" fill-opacity="1.0" opacity="5.0e-2" stroke="rgb(0,0,0)" stroke-width="1.9955597254657247" fill="rgb(255,0,0)" stroke-linecap="butt" stroke-miterlimit="10.0">
    <path d="M 381.1755,345.2228 c 0.0000,-33.5626 -27.2079,-60.7705 -60.7705 -60.7705c -33.5626,-0.0000 -60.7705,27.2079 -60.7705 60.7705c -0.0000,33.5626 27.2079,60.7705 60.7705 60.7705c 33.5626,0.0000 60.7705,-27.2079 60.7705 -60.7705Z"/>
  </g>
  <defs>
  </defs>
  <g stroke-linejoin="miter" stroke-opacity="1.0" fill-opacity="1.0" opacity="5.0e-2" stroke="rgb(0,0,0)" stroke-width="1.9955597254657247" fill="rgb(255,0,0)" stroke-linecap="butt" stroke-miterlimit="10.0">
    <path d="M 172.4346,147.0429 c 0.0000,-26.0239 -21.0966,-47.1205 -47.1205 -47.1205c -26.0239,-0.0000 -47.1205,21.0966 -47.1205 47.1205c -0.0000,26.0239 21.0966,47.1205 47.1205 47.1205c 26.0239,0.0000 47.1205,-21.0966 47.1205 -47.1205Z"/>
  </g>
  <defs>
  </defs>
  <g stroke-linejoin="miter" stroke-opacity="1.0" fill-opacity="1.0" opacity="5.0e-2" stroke="rgb(0,0,0)" stroke-width="1.9955597254657247" fill="rgb(255,0,0)" stroke-linecap="butt" stroke-miterlimit="10.0">
    <path d="M 321.5661,243.1542 c 0.0000,-58.4739 -47.4025,-105.8764 -105.8764 -105.8764c -58.4739,-0.0000 -105.8764,47.4025 -105.8764 105.8764c -0.0000,58.4739 47.4025,105.8764 105.8764 105.8764c 58.4739,0.0000 105.8764,-47.4025 105.8764 -105.8764Z"/>
  </g>
  <defs>
  </defs>
  <g stroke-linejoin="miter" stroke-opacity="1.0" fill-opacity="1.0" opacity="5.0e-2" stroke="rgb(0,0,0)" stroke-width="1.9955597254657247" fill="rgb(255,0,0)" stroke-linecap="butt" stroke-miterlimit="10.0">
    <path d="M 415.5763,121.4629 c 0.0000,-41.1543 -33.3621,-74.5164 -74.5164 -74.5164c -41.1543,-0.0000 -74.5164,33.3621 -74.5164 74.5164c -0.0000,41.1543 33.3621,74.5164 74.5164 74.5164c 41.1543,0.0000 74.5164,-33.3621 74.5164 -74.5164Z"/>
  </g>
  <defs>
  </defs>
  <g stroke-linejoin="miter" stroke-opacity="1.0" fill-opacity="1.0" opacity="5.0e-2" stroke="rgb(0,0,0)" stroke-width="1.9955597254657247" fill="rgb(255,0,0)" stroke-linecap="butt" stroke-miterlimit="10.0">
    <path d="M 365.6232,331.1574 c 0.0000,-19.0605 -15.4516,-34.5120 -34.5120 -34.5120c -19.0605,-0.0000 -34.5120,15.4516 -34.5120 34.5120c -0.0000,19.0605 15.4516,34.5120 34.5120 34.5120c 19.0605,0.0000 34.5120,-15.4516 34.5120 -34.5120Z"/>
  </g>
  <defs>
  </defs>
  <g stroke-linejoin="miter" stroke-opacity="1.0" fill-opacity="1.0" opacity="5.0e-2" stroke="rgb(0,0,0)" stroke-width="1.9955597254657247" fill="rgb(255,0,0)" stroke-linecap="butt" stroke-miterlimit="10.0">
    <path d="M 292.5178,180.5828 c 0.0000,-35.4703 -28.7544,-64.2247 -64.2247 -64.2247c -35.4703,-0.0000 -64.2247,28.7544 -64.2247 64.2247c -0.0000,35.4703 28.7544,64.2247 64.2247 64.2247c 35.4703,0.0000 64.2247,-28.7544 64.2247 -64.2247Z"/>
  </g>
  <defs>
  </defs>
  <g stroke-linejoin="miter" stroke-opacity="1.0" fill-opacity="1.0" opacity="5.0e-2" stroke="rgb(0,0,0)" stroke-width="1.9955597254657247" fill="rgb(255,0,0)" stroke-linecap="butt" stroke-miterlimit="10.0">
    <path d="M 293.6736,257.4169 c 0.0000,-46.0177 -37.3047,-83.3225 -83.3225 -83.3225c -46.0177,-0.0000 -83.3225,37.3047 -83.3225 83.3225c -0.0000,46.0177 37.3047,83.3225 83.3225 83.3225c 46.0177,0.0000 83.3225,-37.3047 83.3225 -83.3225Z"/>
  </g>
  <defs>
  </defs>
  <g stroke-linejoin="miter" stroke-opacity="1.0" fill-opacity="1.0" opacity="5.0e-2" stroke="rgb(0,0,0)" stroke-width="1.9955597254657247" fill="rgb(255,0,0)" stroke-linecap="butt" stroke-miterlimit="10.0">
    <path d="M 466.6042,154.8593 c 0.0000,-45.0878 -36.5509,-81.6387 -81.6387 -81.6387c -45.0878,-0.0000 -81.6387,36.5509 -81.6387 81.6387c -0.0000,45.0878 36.5509,81.6387 81.6387 81.6387c 45.0878,0.0000 81.6387,-36.5509 81.6387 -81.6387Z"/>
  </g>
  <defs>
  </defs>
  <g stroke-linejoin="miter" stroke-opacity="1.0" fill-opacity="1.0" opacity="5.0e-2" stroke="rgb(0,0,0)" stroke-width="1.9955597254657247" fill="rgb(255,0,0)" stroke-linecap="butt" stroke-miterlimit="10.0">
    <path d="M 316.6273,235.2198 c 0.0000,-59.1789 -47.9740,-107.1529 -107.1529 -107.1529c -59.1789,-0.0000 -107.1529,47.9740 -107.1529 107.1529c -0.0000,59.1789 47.9740,107.1529 107.1529 107.1529c 59.1789,0.0000 107.1529,-47.9740 107.1529 -107.1529Z"/>
  </g>
  <defs>
  </defs>
  <g stroke-linejoin="miter" stroke-opacity="1.0" fill-opacity="1.0" opacity="5.0e-2" stroke="rgb(0,0,0)" stroke-width="1.9955597254657247" fill="rgb(255,0,0)" stroke-linecap="butt" stroke-miterlimit="10.0">
    <path d="M 251.6743,303.0073 c 0.0000,-17.4455 -14.1424,-31.5878 -31.5878 -31.5878c -17.4455,-0.0000 -31.5878,14.1424 -31.5878 31.5878c -0.0000,17.4455 14.1424,31.5878 31.5878 31.5878c 17.4455,0.0000 31.5878,-14.1424 31.5878 -31.5878Z"/>
  </g>
  <defs>
  </defs>
  <g stroke-linejoin="miter" stroke-opacity="1.0" fill-opacity="1.0" opacity="5.0e-2" stroke="rgb(0,0,0)" stroke-width="1.9955597254657247" fill="rgb(255,0,0)" stroke-linecap="butt" stroke-miterlimit="10.0">
    <path d="M 248.6268,225.0258 c 0.0000,-55.2933 -44.8241,-100.1174 -100.1174 -100.1174c -55.2933,-0.0000 -100.1174,44.8241 -100.1174 100.1174c -0.0000,55.2933 44.8241,100.1174 100.1174 100.1174c 55.2933,0.0000 100.1174,-44.8241 100.1174 -100.1174Z"/>
  </g>
  <defs>
  </defs>
  <g stroke-linejoin="miter" stroke-opacity="1.0" fill-opacity="1.0" opacity="5.0e-2" stroke="rgb(0,0,0)" stroke-width="1.9955597254657247" fill="rgb(255,0,0)" stroke-linecap="butt" stroke-miterlimit="10.0">
    <path d="M 402.5614,254.5847 c 0.0000,-30.7580 -24.9343,-55.6922 -55.6922 -55.6922c -30.7580,-0.0000 -55.6922,24.9343 -55.6922 55.6922c -0.0000,30.7580 24.9343,55.6922 55.6922 55.6922c 30.7580,0.0000 55.6922,-24.9343 55.6922 -55.6922Z"/>
  </g>
  <defs>
  </defs>
  <g stroke-linejoin="miter" stroke-opacity="1.0" fill-opacity="1.0" opacity="5.0e-2" stroke="rgb(0,0,0)" stroke-width="1.9955597254657247" fill="rgb(255,0,0)" stroke-linecap="butt" stroke-miterlimit="10.0">
    <path d="M 266.9524,388.0721 c 0.0000,-35.6095 -28.8672,-64.4767 -64.4767 -64.4767c -35.6095,-0.0000 -64.4767,28.8672 -64.4767 64.4767c -0.0000,35.6095 28.8672,64.4767 64.4767 64.4767c 35.6095,0.0000 64.4767,-28.8672 64.4767 -64.4767Z"/>
  </g>
  <defs>
  </defs>
  <g stroke-linejoin="miter" stroke-opacity="1.0" fill-opacity="1.0" opacity="5.0e-2" stroke="rgb(0,0,0)" stroke-width="1.9955597254657247" fill="rgb(255,0,0)" stroke-linecap="butt" stroke-miterlimit="10.0">
    <path d="M 401.4830,123.7261 c 0.0000,-64.1249 -51.9835,-116.1084 -116.1084 -116.1084c -64.1249,-0.0000 -116.1084,51.9835 -116.1084 116.1084c -0.0000,64.1249 51.9835,116.1084 116.1084 116.1084c 64.1249,0.0000 116.1084,-51.9835 116.1084 -116.1084Z"/>
  </g>
  <defs>
  </defs>
  <g stroke-linejoin="miter" stroke-opacity="1.0" fill-opacity="1.0" opacity="5.0e-2" stroke="rgb(0,0,0)" stroke-width="1.9955597254657247" fill="rgb(255,0,0)" stroke-linecap="butt" stroke-miterlimit="10.0">
    <path d="M 231.3301,374.7618 c 0.0000,-29.5275 -23.9368,-53.4643 -53.4643 -53.4643c -29.5275,-0.0000 -53.4643,23.9368 -53.4643 53.4643c -0.0000,29.5275 23.9368,53.4643 53.4643 53.4643c 29.5275,0.0000 53.4643,-23.9368 53.4643 -53.4643Z"/>
  </g>
  <defs>
  </defs>
  <g stroke-linejoin="miter" stroke-opacity="1.0" fill-opacity="1.0" opacity="5.0e-2" stroke="rgb(0,0,0)" stroke-width="1.9955597254657247" fill="rgb(255,0,0)" stroke-linecap="butt" stroke-miterlimit="10.0">
    <path d="M 248.7233,106.3167 c 0.0000,-19.4428 -15.7615,-35.2043 -35.2043 -35.2043c -19.4428,-0.0000 -35.2043,15.7615 -35.2043 35.2043c -0.0000,19.4428 15.7615,35.2043 35.2043 35.2043c 19.4428,0.0000 35.2043,-15.7615 35.2043 -35.2043Z"/>
  </g>
  <defs>
  </defs>
  <g stroke-linejoin="miter" stroke-opacity="1.0" fill-opacity="1.0" opacity="5.0e-2" stroke="rgb(0,0,0)" stroke-width="1.9955597254657247" fill="rgb(255,0,0)" stroke-linecap="butt" stroke-miterlimit="10.0">
    <path d="M 208.0634,357.9412 c 0.0000,-27.6255 -22.3949,-50.0205 -50.0205 -50.0205c -27.6255,-0.0000 -50.0205,22.3949 -50.0205 50.0205c -0.0000,27.6255 22.3949,50.0205 50.0205 50.0205c 27.6255,0.0000 50.0205,-22.3949 50.0205 -50.0205Z"/>
  </g>
  <defs>
  </defs>
  <g stroke-linejoin="miter" stroke-opacity="1.0" fill-opacity="1.0" opacity="5.0e-2" stroke="rgb(0,0,0)" stroke-width="1.9955597254657247" fill="rgb(255,0,0)" stroke-linecap="butt" stroke-miterlimit="10.0">
    <path d="M 316.2764,166.7094 c 0.0000,-66.2196 -53.6816,-119.9012 -119.9012 -119.9012c -66.2196,-0.0000 -119.9012,53.6816 -119.9012 119.9012c -0.0000,66.2196 53.6816,119.9012 119.9012 119.9012c 66.2196,0.0000 119.9012,-53.6816 119.9012 -119.9012Z"/>
  </g>
  <defs>
  </defs>
  <g stroke-linejoin="miter" stroke-opacity="1.0" fill-opacity="1.0" opacity="5.0e-2" stroke="rgb(0,0,0)" stroke-width="1.9955597254657247" fill="rgb(255,0,0)" stroke-linecap="butt" stroke-miterlimit="10.0">
    <path d="M 410.6494,91.8393 c 0.0000,-33.1450 -26.8693,-60.0143 -60.0143 -60.0143c -33.1450,-0.0000 -60.0143,26.8693 -60.0143 60.0143c -0.0000,33.1450 26.8693,60.0143 60.0143 60.0143c 33.1450,0.0000 60.0143,-26.8693 60.0143 -60.0143Z"/>
  </g>
  <defs>
  </defs>
  <g stroke-linejoin="miter" stroke-opacity="1.0" fill-opacity="1.0" opacity="5.0e-2" stroke="rgb(0,0,0)" stroke-width="1.9955597254657247" fill="rgb(255,0,0)" stroke-linecap="butt" stroke-miterlimit="10.0">
    <path d="M 237.1744,117.6319 c 0.0000,-64.1831 -52.0307,-116.2139 -116.2139 -116.2139c -64.1831,-0.0000 -116.2139,52.0307 -116.2139 116.2139c -0.0000,64.1831 52.0307,116.2139 116.2139 116.2139c 64.1831,0.0000 116.2139,-52.0307 116.2139 -116.2139Z"/>
  </g>
  <defs>
  </defs>
  <g stroke-linejoin="miter" stroke-opacity="1.0" fill-opacity="1.0" opacity="5.0e-2" stroke="rgb(0,0,0)" stroke-width="1.9955597254657247" fill="rgb(255,0,0)" stroke-linecap="butt" stroke-miterlimit="10.0">
    <path d="M 478.0253,190.0861 c 0.0000,-52.0308 -42.1793,-94.2101 -94.2101 -94.2101c -52.0308,-0.0000 -94.2101,42.1793 -94.2101 94.2101c -0.0000,52.0308 42.1793,94.2101 94.2101 94.2101c 52.0308,0.0000 94.2101,-42.1793 94.2101 -94.2101Z"/>
  </g>
  <defs>
  </defs>
  <g stroke-linejoin="miter" stroke-opacity="1.0" fill-opacity="1.0" opacity="5.0e-2" stroke="rgb(0,0,0)" stroke-width="1.9955597254657247" fill="rgb(255,0,0)" stroke-linecap="butt" stroke-miterlimit="10.0">
    <path d="M 474.4615,382.6258 c 0.0000,-64.2116 -52.0538,-116.2654 -116.2654 -116.2654c -64.2116,-0.0000 -116.2654,52.0538 -116.2654 116.2654c -0.0000,64.2116 52.0538,116.2654 116.2654 116.2654c 64.2116,0.0000 116.2654,-52.0538 116.2654 -116.2654Z"/>
  </g>
  <defs>
  </defs>
  <g stroke-linejoin="miter" stroke-opacity="1.0" fill-opacity="1.0" opacity="5.0e-2" stroke="rgb(0,0,0)" stroke-width="1.9955597254657247" fill="rgb(255,0,0)" stroke-linecap="butt" stroke-miterlimit="10.0">
    <path d="M 244.3494,351.0410 c 0.0000,-40.5335 -32.8589,-73.3925 -73.3925 -73.3925c -40.5335,-0.0000 -73.3925,32.8589 -73.3925 73.3925c -0.0000,40.5335 32.8589,73.3925 73.3925 73.3925c 40.5335,0.0000 73.3925,-32.8589 73.3925 -73.3925Z"/>
  </g>
  <defs>
  </defs>
  <g stroke-linejoin="miter" stroke-opacity="1.0" fill-opacity="1.0" opacity="5.0e-2" stroke="rgb(0,0,0)" stroke-width="1.9955597254657247" fill="rgb(255,0,0)" stroke-linecap="butt" stroke-miterlimit="10.0">
    <path d="M 293.2911,101.5359 c 0.0000,-39.5672 -32.0755,-71.6427 -71.6427 -71.6427c -39.5672,-0.0000 -71.6427,32.0755 -71.6427 71.6427c -0.0000,39.5672 32.0755,71.6427 71.6427 71.6427c 39.5672,0.0000 71.6427,-32.0755 71.6427 -71.6427Z"/>
  </g>
  <defs>
  </defs>
  <g stroke-linejoin="miter" stroke-opacity="1.0" fill-opacity="1.0" opacity="5.0e-2" stroke="rgb(0,0,0)" stroke-width="1.9955597254657247" fill="rgb(255,0,0)" stroke-linecap="butt" stroke-miterlimit="10.0">
    <path d="M 217.7180,180.9350 c 0.0000,-42.8776 -34.7592,-77.6368 -77.6368 -77.6368c -42.8776,-0.0000 -77.6368,34.7592 -77.6368 77.6368c -0.0000,42.8776 34.7592,77.6368 77.6368 77.6368c 42.8776,0.0000 77.6368,-34.7592 77.6368 -77.6368Z"/>
  </g>
  <defs>
  </defs>
  <g stroke-linejoin="miter" stroke-opacity="1.0" fill-opacity="1.0" opacity="5.0e-2" stroke="rgb(0,0,0)" stroke-width="1.9955597254657247" fill="rgb(255,0,0)" stroke-linecap="butt" stroke-miterlimit="10.0">
    <path d="M 477.4137,206.0910 c 0.0000,-46.1508 -37.4126,-83.5634 -83.5634 -83.5634c -46.1508,-0.0000 -83.5634,37.4126 -83.5634 83.5634c -0.0000,46.1508 37.4126,83.5634 83.5634 83.5634c 46.1508,0.0000 83.5634,-37.4126 83.5634 -83.5634Z"/>
  </g>
  <defs>
  </defs>
  <g stroke-linejoin="miter" stroke-opacity="1.0" fill-opacity="1.0" opacity="5.0e-2" stroke="rgb(0,0,0)" stroke-width="1.9955597254657247" fill="rgb(255,0,0)" stroke-linecap="butt" stroke-miterlimit="10.0">
    <path d="M 157.4802,168.5082 c 0.0000,-27.8499 -22.5768,-50.4267 -50.4267 -50.4267c -27.8499,-0.0000 -50.4267,22.5768 -50.4267 50.4267c -0.0000,27.8499 22.5768,50.4267 50.4267 50.4267c 27.8499,0.0000 50.4267,-22.5768 50.4267 -50.4267Z"/>
  </g>
  <defs>
  </defs>
  <g stroke-linejoin="miter" stroke-opacity="1.0" fill-opacity="1.0" opacity="5.0e-2" stroke="rgb(0,0,0)" stroke-width="1.9955597254657247" fill="rgb(255,0,0)" stroke-linecap="butt" stroke-miterlimit="10.0">
    <path d="M 372.6071,119.4152 c 0.0000,-51.3118 -41.5964,-92.9082 -92.9082 -92.9082c -51.3118,-0.0000 -92.9082,41.5964 -92.9082 92.9082c -0.0000,51.3118 41.5964,92.9082 92.9082 92.9082c 51.3118,0.0000 92.9082,-41.5964 92.9082 -92.9082Z"/>
  </g>
  <defs>
  </defs>
  <g stroke-linejoin="miter" stroke-opacity="1.0" fill-opacity="1.0" opacity="5.0e-2" stroke="rgb(0,0,0)" stroke-width="1.9955597254657247" fill="rgb(255,0,0)" stroke-linecap="butt" stroke-miterlimit="10.0">
    <path d="M 446.5614,368.0088 c 0.0000,-46.6116 -37.7861,-84.3977 -84.3977 -84.3977c -46.6116,-0.0000 -84.3977,37.7861 -84.3977 84.3977c -0.0000,46.6116 37.7861,84.3977 84.3977 84.3977c 46.6116,0.0000 84.3977,-37.7861 84.3977 -84.3977Z"/>
  </g>
  <defs>
  </defs>
  <g stroke-linejoin="miter" stroke-opacity="1.0" fill-opacity="1.0" opacity="5.0e-2" stroke="rgb(0,0,0)" stroke-width="1.9955597254657247" fill="rgb(255,0,0)" stroke-linecap="butt" stroke-miterlimit="10.0">
    <path d="M 319.5008,300.1684 c 0.0000,-29.1909 -23.6639,-52.8548 -52.8548 -52.8548c -29.1909,-0.0000 -52.8548,23.6639 -52.8548 52.8548c -0.0000,29.1909 23.6639,52.8548 52.8548 52.8548c 29.1909,0.0000 52.8548,-23.6639 52.8548 -52.8548Z"/>
  </g>
  <defs>
  </defs>
  <g stroke-linejoin="miter" stroke-opacity="1.0" fill-opacity="1.0" opacity="5.0e-2" stroke="rgb(0,0,0)" stroke-width="1.9955597254657247" fill="rgb(255,0,0)" stroke-linecap="butt" stroke-miterlimit="10.0">
    <path d="M 390.3586,241.1636 c 0.0000,-26.3839 -21.3883,-47.7722 -47.7722 -47.7722c -26.3839,-0.0000 -47.7722,21.3883 -47.7722 47.7722c -0.0000,26.3839 21.3883,47.7722 47.7722 47.7722c 26.3839,0.0000 47.7722,-21.3883 47.7722 -47.7722Z"/>
  </g>
  <defs>
  </defs>
  <g stroke-linejoin="miter" stroke-opacity="1.0" fill-opacity="1.0" opacity="5.0e-2" stroke="rgb(0,0,0)" stroke-width="1.9955597254657247" fill="rgb(255,0,0)" stroke-linecap="butt" stroke-miterlimit="10.0">
    <path d="M 500.0000,228.8801 c 0.0000,-65.9159 -53.4354,-119.3513 -119.3513 -119.3513c -65.9159,-0.0000 -119.3513,53.4354 -119.3513 119.3513c -0.0000,65.9159 53.4354,119.3513 119.3513 119.3513c 65.9159,0.0000 119.3513,-53.4354 119.3513 -119.3513Z"/>
  </g>
  <defs>
  </defs>
  <g stroke-linejoin="miter" stroke-opacity="1.0" fill-opacity="1.0" opacity="5.0e-2" stroke="rgb(0,0,0)" stroke-width="1.9955597254657247" fill="rgb(255,0,0)" stroke-linecap="butt" stroke-miterlimit="10.0">
    <path d="M 381.5747,354.3019 c 0.0000,-24.0225 -19.4741,-43.4966 -43.4966 -43.4966c -24.0225,-0.0000 -43.4966,19.4741 -43.4966 43.4966c -0.0000,24.0225 19.4741,43.4966 43.4966 43.4966c 24.0225,0.0000 43.4966,-19.4741 43.4966 -43.4966Z"/>
  </g>
  <defs>
  </defs>
  <g stroke-linejoin="miter" stroke-opacity="1.0" fill-opacity="1.0" opacity="5.0e-2" stroke="rgb(0,0,0)" stroke-width="1.9955597254657247" fill="rgb(255,0,0)" stroke-linecap="butt" stroke-miterlimit="10.0">
    <path d="M 465.3380,107.6678 c 0.0000,-34.8421 -28.2451,-63.0873 -63.0873 -63.0873c -34.8421,-0.0000 -63.0873,28.2451 -63.0873 63.0873c -0.0000,34.8421 28.2451,63.0873 63.0873 63.0873c 34.8421,0.0000 63.0873,-28.2451 63.0873 -63.0873Z"/>
  </g>
  <defs>
  </defs>
  <g stroke-linejoin="miter" stroke-opacity="1.0" fill-opacity="1.0" opacity="5.0e-2" stroke="rgb(0,0,0)" stroke-width="1.9955597254657247" fill="rgb(255,0,0)" stroke-linecap="butt" stroke-miterlimit="10.0">
    <path d="M 226.3210,163.4138 c 0.0000,-62.4968 -50.6637,-113.1605 -113.1605 -113.1605c -62.4968,-0.0000 -113.1605,50.6637 -113.1605 113.1605c -0.0000,62.4968 50.6637,113.1605 113.1605 113.1605c 62.4968,0.0000 113.1605,-50.6637 113.1605 -113.1605Z"/>
  </g>
  <defs>
  </defs>
  <g stroke-linejoin="miter" stroke-opacity="1.0" fill-opacity="1.0" opacity="5.0e-2" stroke="rgb(0,0,0)" stroke-width="1.9955597254657247" fill="rgb(255,0,0)" stroke-linecap="butt" stroke-miterlimit="10.0">
    <path d="M 444.4809,263.6998 c 0.0000,-22.3274 -18.0999,-40.4272 -40.4272 -40.4272c -22.3274,-0.0000 -40.4272,18.0999 -40.4272 40.4272c -0.0000,22.3274 18.0999,40.4272 40.4272 40.4272c 22.3274,0.0000 40.4272,-18.0999 40.4272 -40.4272Z"/>
  </g>
  <defs>
  </defs>
  <g stroke-linejoin="miter" stroke-opacity="1.0" fill-opacity="1.0" opacity="5.0e-2" stroke="rgb(0,0,0)" stroke-width="1.9955597254657247" fill="rgb(255,0,0)" stroke-linecap="butt" stroke-miterlimit="10.0">
    <path d="M 439.7340,330.1258 c 0.0000,-25.8865 -20.9852,-46.8717 -46.8717 -46.8717c -25.8865,-0.0000 -46.8717,20.9852 -46.8717 46.8717c -0.0000,25.8865 20.9852,46.8717 46.8717 46.8717c 25.8865,0.0000 46.8717,-20.9852 46.8717 -46.8717Z"/>
  </g>
  <defs>
  </defs>
  <g stroke-linejoin="miter" stroke-opacity="1.0" fill-opacity="1.0" opacity="5.0e-2" stroke="rgb(0,0,0)" stroke-width="1.9955597254657247" fill="rgb(255,0,0)" stroke-linecap="butt" stroke-miterlimit="10.0">
    <path d="M 421.4476,120.4186 c 0.0000,-26.7453 -21.6814,-48.4267 -48.4267 -48.4267c -26.7453,-0.0000 -48.4267,21.6814 -48.4267 48.4267c -0.0000,26.7453 21.6814,48.4267 48.4267 48.4267c 26.7453,0.0000 48.4267,-21.6814 48.4267 -48.4267Z"/>
  </g>
  <defs>
  </defs>
  <g stroke-linejoin="miter" stroke-opacity="1.0" fill-opacity="1.0" opacity="5.0e-2" stroke="rgb(0,0,0)" stroke-width="1.9955597254657247" fill="rgb(255,0,0)" stroke-linecap="butt" stroke-miterlimit="10.0">
    <path d="M 194.7501,106.1985 c 0.0000,-45.8894 -37.2007,-83.0901 -83.0901 -83.0901c -45.8894,-0.0000 -83.0901,37.2007 -83.0901 83.0901c -0.0000,45.8894 37.2007,83.0901 83.0901 83.0901c 45.8894,0.0000 83.0901,-37.2007 83.0901 -83.0901Z"/>
  </g>
  <defs>
  </defs>
  <g stroke-linejoin="miter" stroke-opacity="1.0" fill-opacity="1.0" opacity="5.0e-2" stroke="rgb(0,0,0)" stroke-width="1.9955597254657247" fill="rgb(255,0,0)" stroke-linecap="butt" stroke-miterlimit="10.0">
    <path d="M 234.4338,268.8751 c 0.0000,-50.8863 -41.2515,-92.1379 -92.1379 -92.1379c -50.8863,-0.0000 -92.1379,41.2515 -92.1379 92.1379c -0.0000,50.8863 41.2515,92.1379 92.1379 92.1379c 50.8863,0.0000 92.1379,-41.2515 92.1379 -92.1379Z"/>
  </g>
  <defs>
  </defs>
  <g stroke-linejoin="miter" stroke-opacity="1.0" fill-opacity="1.0" opacity="5.0e-2" stroke="rgb(0,0,0)" stroke-width="1.9955597254657247" fill="rgb(255,0,0)" stroke-linecap="butt" stroke-miterlimit="10.0">
    <path d="M 440.5603,298.1093 c 0.0000,-44.1280 -35.7728,-79.9009 -79.9009 -79.9009c -44.1280,-0.0000 -79.9009,35.7728 -79.9009 79.9009c -0.0000,44.1280 35.7728,79.9009 79.9009 79.9009c 44.1280,0.0000 79.9009,-35.7728 79.9009 -79.9009Z"/>
  </g>
  <defs>
  </defs>
  <g stroke-linejoin="miter" stroke-opacity="1.0" fill-opacity="1.0" opacity="5.0e-2" stroke="rgb(0,0,0)" stroke-width="1.9955597254657247" fill="rgb(255,0,0)" stroke-linecap="butt" stroke-miterlimit="10.0">
    <path d="M 326.4315,112.9316 c 0.0000,-52.2301 -42.3409,-94.5710 -94.5710 -94.5710c -52.2301,-0.0000 -94.5710,42.3409 -94.5710 94.5710c -0.0000,52.2301 42.3409,94.5710 94.5710 94.5710c 52.2301,0.0000 94.5710,-42.3409 94.5710 -94.5710Z"/>
  </g>
  <defs>
  </defs>
  <g stroke-linejoin="miter" stroke-opacity="1.0" fill-opacity="1.0" opacity="5.0e-2" stroke="rgb(0,0,0)" stroke-width="1.9955597254657247" fill="rgb(255,0,0)" stroke-linecap="butt" stroke-miterlimit="10.0">
    <path d="M 452.9507,361.7234 c 0.0000,-31.7481 -25.7369,-57.4850 -57.4850 -57.4850c -31.7481,-0.0000 -57.4850,25.7369 -57.4850 57.4850c -0.0000,31.7481 25.7369,57.4850 57.4850 57.4850c 31.7481,0.0000 57.4850,-25.7369 57.4850 -57.4850Z"/>
  </g>
  <defs>
  </defs>
  <g stroke-linejoin="miter" stroke-opacity="1.0" fill-opacity="1.0" opacity="5.0e-2" stroke="rgb(0,0,0)" stroke-width="1.9955597254657247" fill="rgb(255,0,0)" stroke-linecap="butt" stroke-miterlimit="10.0">
    <path d="M 468.0203,308.9317 c 0.0000,-47.0460 -38.1384,-85.1844 -85.1844 -85.1844c -47.0460,-0.0000 -85.1844,38.1384 -85.1844 85.1844c -0.0000,47.0460 38.1384,85.1844 85.1844 85.1844c 47.0460,0.0000 85.1844,-38.1384 85.1844 -85.1844Z"/>
  </g>
  <defs>
  </defs>
  <g stroke-linejoin="miter" stroke-opacity="1.0" fill-opacity="1.0" opacity="5.0e-2" stroke="rgb(0,0,0)" stroke-width="1.9955597254657247" fill="rgb(255,0,0)" stroke-linecap="butt" stroke-miterlimit="10.0">
    <path d="M 477.7926,237.3047 c 0.0000,-43.3064 -35.1068,-78.4132 -78.4132 -78.4132c -43.3064,-0.0000 -78.4132,35.1068 -78.4132 78.4132c -0.0000,43.3064 35.1068,78.4132 78.4132 78.4132c 43.3064,0.0000 78.4132,-35.1068 78.4132 -78.4132Z"/>
  </g>
  <defs>
  </defs>
  <g stroke-linejoin="miter" stroke-opacity="1.0" fill-opacity="1.0" opacity="5.0e-2" stroke="rgb(0,0,0)" stroke-width="1.9955597254657247" fill="rgb(255,0,0)" stroke-linecap="butt" stroke-miterlimit="10.0">
    <path d="M 291.4458,270.1114 c 0.0000,-42.0307 -34.0726,-76.1034 -76.1034 -76.1034c -42.0307,-0.0000 -76.1034,34.0726 -76.1034 76.1034c -0.0000,42.0307 34.0726,76.1034 76.1034 76.1034c 42.0307,0.0000 76.1034,-34.0726 76.1034 -76.1034Z"/>
  </g>
  <defs>
  </defs>
  <g stroke-linejoin="miter" stroke-opacity="1.0" fill-opacity="1.0" opacity="5.0e-2" stroke="rgb(0,0,0)" stroke-width="1.9955597254657247" fill="rgb(255,0,0)" stroke-linecap="butt" stroke-miterlimit="10.0">
    <path d="M 255.4412,217.5140 c 0.0000,-49.7402 -40.3224,-90.0626 -90.0626 -90.0626c -49.7402,-0.0000 -90.0626,40.3224 -90.0626 90.0626c -0.0000,49.7402 40.3224,90.0626 90.0626 90.0626c 49.7402,0.0000 90.0626,-40.3224 90.0626 -90.0626Z"/>
  </g>
  <defs>
  </defs>
  <g stroke-linejoin="miter" stroke-opacity="1.0" fill-opacity="1.0" opacity="5.0e-2" stroke="rgb(0,0,0)" stroke-width="1.9955597254657247" fill="rgb(255,0,0)" stroke-linecap="butt" stroke-miterlimit="10.0">
    <path d="M 148.7708,157.6528 c 0.0000,-23.5399 -19.0828,-42.6227 -42.6227 -42.6227c -23.5399,-0.0000 -42.6227,19.0828 -42.6227 42.6227c -0.0000,23.5399 19.0828,42.6227 42.6227 42.6227c 23.5399,0.0000 42.6227,-19.0828 42.6227 -42.6227Z"/>
  </g>
  <defs>
  </defs>
  <g stroke-linejoin="miter" stroke-opacity="1.0" fill-opacity="1.0" opacity="5.0e-2" stroke="rgb(0,0,0)" stroke-width="1.9955597254657247" fill="rgb(255,0,0)" stroke-linecap="butt" stroke-miterlimit="10.0">
    <path d="M 213.3758,309.2379 c 0.0000,-42.5917 -34.5274,-77.1192 -77.1192 -77.1192c -42.5917,-0.0000 -77.1192,34.5274 -77.1192 77.1192c -0.0000,42.5917 34.5274,77.1192 77.1192 77.1192c 42.5917,0.0000 77.1192,-34.5274 77.1192 -77.1192Z"/>
  </g>
  <defs>
  </defs>
  <g stroke-linejoin="miter" stroke-opacity="1.0" fill-opacity="1.0" opacity="5.0e-2" stroke="rgb(0,0,0)" stroke-width="1.9955597254657247" fill="rgb(255,0,0)" stroke-linecap="butt" stroke-miterlimit="10.0">
    <path d="M 355.5367,180.5838 c 0.0000,-48.6461 -39.4354,-88.0815 -88.0815 -88.0815c -48.6461,-0.0000 -88.0815,39.4354 -88.0815 88.0815c -0.0000,48.6461 39.4354,88.0815 88.0815 88.0815c 48.6461,0.0000 88.0815,-39.4354 88.0815 -88.0815Z"/>
  </g>
  <defs>
  </defs>
  <g stroke-linejoin="miter" stroke-opacity="1.0" fill-opacity="1.0" opacity="5.0e-2" stroke="rgb(0,0,0)" stroke-width="1.9955597254657247" fill="rgb(255,0,0)" stroke-linecap="butt" stroke-miterlimit="10.0">
    <path d="M 460.4365,251.1776 c 0.0000,-51.9260 -42.0943,-94.0204 -94.0204 -94.0204c -51.9260,-0.0000 -94.0204,42.0943 -94.0204 94.0204c -0.0000,51.9260 42.0943,94.0204 94.0204 94.0204c 51.9260,0.0000 94.0204,-42.0943 94.0204 -94.0204Z"/>
  </g>
  <defs>
  </defs>
  <g stroke-linejoin="miter" stroke-opacity="1.0" fill-opacity="1.0" opacity="5.0e-2" stroke="rgb(0,0,0)" stroke-width="1.9955597254657247" fill="rgb(255,0,0)" stroke-linecap="butt" stroke-miterlimit="10.0">
    <path d="M 354.5483,386.7096 c 0.0000,-40.4669 -32.8049,-73.2718 -73.2718 -73.2718c -40.4669,-0.0000 -73.2718,32.8049 -73.2718 73.2718c -0.0000,40.4669 32.8049,73.2718 73.2718 73.2718c 40.4669,0.0000 73.2718,-32.8049 73.2718 -73.2718Z"/>
  </g>
  <defs>
  </defs>
  <g stroke-linejoin="miter" stroke-opacity="1.0" fill-opacity="1.0" opacity="5.0e-2" stroke="rgb(0,0,0)" stroke-width="1.9955597254657247" fill="rgb(255,0,0)" stroke-linecap="butt" stroke-miterlimit="10.0">
    <path d="M 224.9228,370.9811 c 0.0000,-24.7192 -20.0389,-44.7581 -44.7581 -44.7581c -24.7192,-0.0000 -44.7581,20.0389 -44.7581 44.7581c -0.0000,24.7192 20.0389,44.7581 44.7581 44.7581c 24.7192,0.0000 44.7581,-20.0389 44.7581 -44.7581Z"/>
  </g>
  <defs>
  </defs>
  <g stroke-linejoin="miter" stroke-opacity="1.0" fill-opacity="1.0" opacity="5.0e-2" stroke="rgb(0,0,0)" stroke-width="1.9955597254657247" fill="rgb(255,0,0)" stroke-linecap="butt" stroke-miterlimit="10.0">
    <path d="M 281.1814,284.2368 c 0.0000,-19.0706 -15.4598,-34.5304 -34.5304 -34.5304c -19.0706,-0.0000 -34.5304,15.4598 -34.5304 34.5304c -0.0000,19.0706 15.4598,34.5304 34.5304 34.5304c 19.0706,0.0000 34.5304,-15.4598 34.5304 -34.5304Z"/>
  </g>
  <defs>
  </defs>
  <g stroke-linejoin="miter" stroke-opacity="1.0" fill-opacity="1.0" opacity="5.0e-2" stroke="rgb(0,0,0)" stroke-width="1.9955597254657247" fill="rgb(255,0,0)" stroke-linecap="butt" stroke-miterlimit="10.0">
    <path d="M 334.2979,388.1384 c 0.0000,-41.8081 -33.8921,-75.7002 -75.7002 -75.7002c -41.8081,-0.0000 -75.7002,33.8921 -75.7002 75.7002c -0.0000,41.8081 33.8921,75.7002 75.7002 75.7002c 41.8081,0.0000 75.7002,-33.8921 75.7002 -75.7002Z"/>
  </g>
  <defs>
  </defs>
  <g stroke-linejoin="miter" stroke-opacity="1.0" fill-opacity="1.0" opacity="5.0e-2" stroke="rgb(0,0,0)" stroke-width="1.9955597254657247" fill="rgb(255,0,0)" stroke-linecap="butt" stroke-miterlimit="10.0">
    <path d="M 456.6975,156.7099 c 0.0000,-37.9590 -30.7719,-68.7309 -68.7309 -68.7309c -37.9590,-0.0000 -68.7309,30.7719 -68.7309 68.7309c -0.0000,37.9590 30.7719,68.7309 68.7309 68.7309c 37.9590,0.0000 68.7309,-30.7719 68.7309 -68.7309Z"/>
  </g>
  <defs>
  </defs>
  <g stroke-linejoin="miter" stroke-opacity="1.0" fill-opacity="1.0" opacity="5.0e-2" stroke="rgb(0,0,0)" stroke-width="1.9955597254657247" fill="rgb(255,0,0)" stroke-linecap="butt" stroke-miterlimit="10.0">
    <path d="M 346.2080,159.0741 c 0.0000,-52.7185 -42.7368,-95.4552 -95.4552 -95.4552c -52.7185,-0.0000 -95.4552,42.7368 -95.4552 95.4552c -0.0000,52.7185 42.7368,95.4552 95.4552 95.4552c 52.7185,0.0000 95.4552,-42.7368 95.4552 -95.4552Z"/>
  </g>
  <defs>
  </defs>
  <g stroke-linejoin="miter" stroke-opacity="1.0" fill-opacity="1.0" opacity="5.0e-2" stroke="rgb(0,0,0)" stroke-width="1.9955597254657247" fill="rgb(255,0,0)" stroke-linecap="butt" stroke-miterlimit="10.0">
    <path d="M 410.8432,305.0399 c 0.0000,-19.0778 -15.4656,-34.5433 -34.5433 -34.5433c -19.0778,-0.0000 -34.5433,15.4656 -34.5433 34.5433c -0.0000,19.0778 15.4656,34.5433 34.5433 34.5433c 19.0778,0.0000 34.5433,-15.4656 34.5433 -34.5433Z"/>
  </g>
  <defs>
  </defs>
  <g stroke-linejoin="miter" stroke-opacity="1.0" fill-opacity="1.0" opacity="5.0e-2" stroke="rgb(0,0,0)" stroke-width="1.9955597254657247" fill="rgb(255,0,0)" stroke-linecap="butt" stroke-miterlimit="10.0">
    <path d="M 245.7215,88.7591 c 0.0000,-48.4079 -39.2424,-87.6503 -87.6503 -87.6503c -48.4079,-0.0000 -87.6503,39.2424 -87.6503 87.6503c -0.0000,48.4079 39.2424,87.6503 87.6503 87.6503c 48.4079,0.0000 87.6503,-39.2424 87.6503 -87.6503Z"/>
  </g>
  <defs>
  </defs>
  <g stroke-linejoin="miter" stroke-opacity="1.0" fill-opacity="1.0" opacity="5.0e-2" stroke="rgb(0,0,0)" stroke-width="1.9955597254657247" fill="rgb(255,0,0)" stroke-linecap="butt" stroke-miterlimit="10.0">
    <path d="M 349.0361,110.5691 c 0.0000,-37.7578 -30.6087,-68.3665 -68.3665 -68.3665c -37.7578,-0.0000 -68.3665,30.6087 -68.3665 68.3665c -0.0000,37.7578 30.6087,68.3665 68.3665 68.3665c 37.7578,0.0000 68.3665,-30.6087 68.3665 -68.3665Z"/>
  </g>
  <defs>
  </defs>
  <g stroke-linejoin="miter" stroke-opacity="1.0" fill-opacity="1.0" opacity="5.0e-2" stroke="rgb(0,0,0)" stroke-width="1.9955597254657247" fill="rgb(255,0,0)" stroke-linecap="butt" stroke-miterlimit="10.0">
    <path d="M 448.9633,141.9192 c 0.0000,-31.7741 -25.7580,-57.5322 -57.5322 -57.5322c -31.7741,-0.0000 -57.5322,25.7580 -57.5322 57.5322c -0.0000,31.7741 25.7580,57.5322 57.5322 57.5322c 31.7741,0.0000 57.5322,-25.7580 57.5322 -57.5322Z"/>
  </g>
  <defs>
  </defs>
  <g stroke-linejoin="miter" stroke-opacity="1.0" fill-opacity="1.0" opacity="5.0e-2" stroke="rgb(0,0,0)" stroke-width="1.9955597254657247" fill="rgb(255,0,0)" stroke-linecap="butt" stroke-miterlimit="10.0">
    <path d="M 275.1877,314.3861 c 0.0000,-20.6673 -16.7542,-37.4215 -37.4215 -37.4215c -20.6673,-0.0000 -37.4215,16.7542 -37.4215 37.4215c -0.0000,20.6673 16.7542,37.4215 37.4215 37.4215c 20.6673,0.0000 37.4215,-16.7542 37.4215 -37.4215Z"/>
  </g>
  <defs>
  </defs>
  <g stroke-linejoin="miter" stroke-opacity="1.0" fill-opacity="1.0" opacity="5.0e-2" stroke="rgb(0,0,0)" stroke-width="1.9955597254657247" fill="rgb(255,0,0)" stroke-linecap="butt" stroke-miterlimit="10.0">
    <path d="M 463.2910,160.9002 c 0.0000,-52.2755 -42.3776,-94.6531 -94.6531 -94.6531c -52.2755,-0.0000 -94.6531,42.3776 -94.6531 94.6531c -0.0000,52.2755 42.3776,94.6531 94.6531 94.6531c 52.2755,0.0000 94.6531,-42.3776 94.6531 -94.6531Z"/>
  </g>
  <defs>
  </defs>
  <g stroke-linejoin="miter" stroke-opacity="1.0" fill-opacity="1.0" opacity="5.0e-2" stroke="rgb(0,0,0)" stroke-width="1.9955597254657247" fill="rgb(255,0,0)" stroke-linecap="butt" stroke-miterlimit="10.0">
    <path d="M 329.0821,296.3994 c 0.0000,-39.9073 -32.3512,-72.2585 -72.2585 -72.2585c -39.9073,-0.0000 -72.2585,32.3512 -72.2585 72.2585c -0.0000,39.9073 32.3512,72.2585 72.2585 72.2585c 39.9073,0.0000 72.2585,-32.3512 72.2585 -72.2585Z"/>
  </g>
  <defs>
  </defs>
  <g stroke-linejoin="miter" stroke-opacity="1.0" fill-opacity="1.0" opacity="5.0e-2" stroke="rgb(0,0,0)" stroke-width="1.9955597254657247" fill="rgb(255,0,0)" stroke-linecap="butt" stroke-miterlimit="10.0">
    <path d="M 392.0832,385.4247 c 0.0000,-52.6263 -42.6621,-95.2884 -95.2884 -95.2884c -52.6263,-0.0000 -95.2884,42.6621 -95.2884 95.2884c -0.0000,52.6263 42.6621,95.2884 95.2884 95.2884c 52.6263,0.0000 95.2884,-42.6621 95.2884 -95.2884Z"/>
  </g>
  <defs>
  </defs>
  <g stroke-linejoin="miter" stroke-opacity="1.0" fill-opacity="1.0" opacity="5.0e-2" stroke="rgb(0,0,0)" stroke-width="1.9955597254657247" fill="rgb(255,0,0)" stroke-linecap="butt" stroke-miterlimit="10.0">
    <path d="M 180.3863,299.2797 c 0.0000,-33.6337 -27.2655,-60.8992 -60.8992 -60.8992c -33.6337,-0.0000 -60.8992,27.2655 -60.8992 60.8992c -0.0000,33.6337 27.2655,60.8992 60.8992 60.8992c 33.6337,0.0000 60.8992,-27.2655 60.8992 -60.8992Z"/>
  </g>
  <defs>
  </defs>
  <g stroke-linejoin="miter" stroke-opacity="1.0" fill-opacity="1.0" opacity="5.0e-2" stroke="rgb(0,0,0)" stroke-width="1.9955597254657247" fill="rgb(255,0,0)" stroke-linecap="butt" stroke-miterlimit="10.0">
    <path d="M 449.3655,337.7452 c 0.0000,-60.0761 -48.7013,-108.7775 -108.7775 -108.7775c -60.0761,-0.0000 -108.7775,48.7013 -108.7775 108.7775c -0.0000,60.0761 48.7013,108.7775 108.7775 108.7775c 60.0761,0.0000 108.7775,-48.7013 108.7775 -108.7775Z"/>
  </g>
  <defs>
  </defs>
  <g stroke-linejoin="miter" stroke-opacity="1.0" fill-opacity="1.0" opacity="5.0e-2" stroke="rgb(0,0,0)" stroke-width="1.9955597254657247" fill="rgb(255,0,0)" stroke-linecap="butt" stroke-miterlimit="10.0">
    <path d="M 370.5263,96.7664 c 0.0000,-48.2615 -39.1236,-87.3851 -87.3851 -87.3851c -48.2615,-0.0000 -87.3851,39.1236 -87.3851 87.3851c -0.0000,48.2615 39.1236,87.3851 87.3851 87.3851c 48.2615,0.0000 87.3851,-39.1236 87.3851 -87.3851Z"/>
  </g>
  <defs>
  </defs>
  <g stroke-linejoin="miter" stroke-opacity="1.0" fill-opacity="1.0" opacity="5.0e-2" stroke="rgb(0,0,0)" stroke-width="1.9955597254657247" fill="rgb(255,0,0)" stroke-linecap="butt" stroke-miterlimit="10.0">
    <path d="M 264.0259,279.9743 c 0.0000,-36.6222 -29.6882,-66.3104 -66.3104 -66.3104c -36.6222,-0.0000 -66.3104,29.6882 -66.3104 66.3104c -0.0000,36.6222 29.6882,66.3104 66.3104 66.3104c 36.6222,0.0000 66.3104,-29.6882 66.3104 -66.3104Z"/>
  </g>
  <defs>
  </defs>
  <g stroke-linejoin="miter" stroke-opacity="1.0" fill-opacity="1.0" opacity="5.0e-2" stroke="rgb(0,0,0)" stroke-width="1.9955597254657247" fill="rgb(255,0,0)" stroke-linecap="butt" stroke-miterlimit="10.0">
    <path d="M 466.0676,130.6406 c 0.0000,-59.4492 -48.1931,-107.6424 -107.6424 -107.6424c -59.4492,-0.0000 -107.6424,48.1931 -107.6424 107.6424c -0.0000,59.4492 48.1931,107.6424 107.6424 107.6424c 59.4492,0.0000 107.6424,-48.1931 107.6424 -107.6424Z"/>
  </g>
  <defs>
  </defs>
  <g stroke-linejoin="miter" stroke-opacity="1.0" fill-opacity="1.0" opacity="5.0e-2" stroke="rgb(0,0,0)" stroke-width="1.9955597254657247" fill="rgb(255,0,0)" stroke-linecap="butt" stroke-miterlimit="10.0">
    <path d="M 403.4941,314.9557 c 0.0000,-27.6223 -22.3923,-50.0147 -50.0147 -50.0147c -27.6223,-0.0000 -50.0147,22.3923 -50.0147 50.0147c -0.0000,27.6223 22.3923,50.0147 50.0147 50.0147c 27.6223,0.0000 50.0147,-22.3923 50.0147 -50.0147Z"/>
  </g>
  <defs>
  </defs>
  <g stroke-linejoin="miter" stroke-opacity="1.0" fill-opacity="1.0" opacity="5.0e-2" stroke="rgb(0,0,0)" stroke-width="1.9955597254657247" fill="rgb(255,0,0)" stroke-linecap="butt" stroke-miterlimit="10.0">
    <path d="M 401.3401,273.1811 c 0.0000,-58.5040 -47.4268,-105.9308 -105.9308 -105.9308c -58.5040,-0.0000 -105.9308,47.4268 -105.9308 105.9308c -0.0000,58.5040 47.4268,105.9308 105.9308 105.9308c 58.5040,0.0000 105.9308,-47.4268 105.9308 -105.9308Z"/>
  </g>
  <defs>
  </defs>
  <g stroke-linejoin="miter" stroke-opacity="1.0" fill-opacity="1.0" opacity="5.0e-2" stroke="rgb(0,0,0)" stroke-width="1.9955597254657247" fill="rgb(255,0,0)" stroke-linecap="butt" stroke-miterlimit="10.0">
    <path d="M 271.1238,317.1523 c 0.0000,-34.8690 -28.2669,-63.1359 -63.1359 -63.1359c -34.8690,-0.0000 -63.1359,28.2669 -63.1359 63.1359c -0.0000,34.8690 28.2669,63.1359 63.1359 63.1359c 34.8690,0.0000 63.1359,-28.2669 63.1359 -63.1359Z"/>
  </g>
  <defs>
  </defs>
  <g stroke-linejoin="miter" stroke-opacity="1.0" fill-opacity="1.0" opacity="5.0e-2" stroke="rgb(0,0,0)" stroke-width="1.9955597254657247" fill="rgb(255,0,0)" stroke-linecap="butt" stroke-miterlimit="10.0">
    <path d="M 236.7669,148.6392 c 0.0000,-38.3359 -31.0774,-69.4132 -69.4132 -69.4132c -38.3359,-0.0000 -69.4132,31.0774 -69.4132 69.4132c -0.0000,38.3359 31.0774,69.4132 69.4132 69.4132c 38.3359,0.0000 69.4132,-31.0774 69.4132 -69.4132Z"/>
  </g>
  <defs>
  </defs>
  <g stroke-linejoin="miter" stroke-opacity="1.0" fill-opacity="1.0" opacity="5.0e-2" stroke="rgb(0,0,0)" stroke-width="1.9955597254657247" fill="rgb(255,0,0)" stroke-linecap="butt" stroke-miterlimit="10.0">
    <path d="M 141.0345,179.4655 c 0.0000,-19.1780 -15.5469,-34.7249 -34.7249 -34.7249c -19.1780,-0.0000 -34.7249,15.5469 -34.7249 34.7249c -0.0000,19.1780 15.5469,34.7249 34.7249 34.7249c 19.1780,0.0000 34.7249,-15.5469 34.7249 -34.7249Z"/>
  </g>
  <defs>
  </defs>
  <g stroke-linejoin="miter" stroke-opacity="1.0" fill-opacity="1.0" opacity="5.0e-2" stroke="rgb(0,0,0)" stroke-width="1.9955597254657247" fill="rgb(255,0,0)" stroke-linecap="butt" stroke-miterlimit="10.0">
    <path d="M 191.2334,198.7466 c 0.0000,-21.6310 -17.5354,-39.1664 -39.1664 -39.1664c -21.6310,-0.0000 -39.1664,17.5354 -39.1664 39.1664c -0.0000,21.6310 17.5354,39.1664 39.1664 39.1664c 21.6310,0.0000 39.1664,-17.5354 39.1664 -39.1664Z"/>
  </g>
  <defs>
  </defs>
  <g stroke-linejoin="miter" stroke-opacity="1.0" fill-opacity="1.0" opacity="5.0e-2" stroke="rgb(0,0,0)" stroke-width="1.9955597254657247" fill="rgb(255,0,0)" stroke-linecap="butt" stroke-miterlimit="10.0">
    <path d="M 490.5110,113.2172 c 0.0000,-49.5939 -40.2038,-89.7977 -89.7977 -89.7977c -49.5939,-0.0000 -89.7977,40.2038 -89.7977 89.7977c -0.0000,49.5939 40.2038,89.7977 89.7977 89.7977c 49.5939,0.0000 89.7977,-40.2038 89.7977 -89.7977Z"/>
  </g>
  <defs>
  </defs>
  <g stroke-linejoin="miter" stroke-opacity="1.0" fill-opacity="1.0" opacity="5.0e-2" stroke="rgb(0,0,0)" stroke-width="1.9955597254657247" fill="rgb(255,0,0)" stroke-linecap="butt" stroke-miterlimit="10.0">
    <path d="M 467.4316,328.8862 c 0.0000,-36.6106 -29.6788,-66.2894 -66.2894 -66.2894c -36.6106,-0.0000 -66.2894,29.6788 -66.2894 66.2894c -0.0000,36.6106 29.6788,66.2894 66.2894 66.2894c 36.6106,0.0000 66.2894,-29.6788 66.2894 -66.2894Z"/>
  </g>
  <defs>
  </defs>
  <g stroke-linejoin="miter" stroke-opacity="1.0" fill-opacity="1.0" opacity="5.0e-2" stroke="rgb(0,0,0)" stroke-width="1.9955597254657247" fill="rgb(255,0,0)" stroke-linecap="butt" stroke-miterlimit="10.0">
    <path d="M 353.3566,190.0915 c 0.0000,-19.3317 -15.6715,-35.0032 -35.0032 -35.0032c -19.3317,-0.0000 -35.0032,15.6715 -35.0032 35.0032c -0.0000,19.3317 15.6715,35.0032 35.0032 35.0032c 19.3317,0.0000 35.0032,-15.6715 35.0032 -35.0032Z"/>
  </g>
  <defs>
  </defs>
  <g stroke-linejoin="miter" stroke-opacity="1.0" fill-opacity="1.0" opacity="5.0e-2" stroke="rgb(0,0,0)" stroke-width="1.9955597254657247" fill="rgb(255,0,0)" stroke-linecap="butt" stroke-miterlimit="10.0">
    <path d="M 487.6530,126.9801 c 0.0000,-58.8438 -47.7023,-106.5460 -106.5460 -106.5460c -58.8438,-0.0000 -106.5460,47.7023 -106.5460 106.5460c -0.0000,58.8438 47.7023,106.5460 106.5460 106.5460c 58.8438,0.0000 106.5460,-47.7023 106.5460 -106.5460Z"/>
  </g>
  <defs>
  </defs>
  <g stroke-linejoin="miter" stroke-opacity="1.0" fill-opacity="1.0" opacity="5.0e-2" stroke="rgb(0,0,0)" stroke-width="1.9955597254657247" fill="rgb(255,0,0)" stroke-linecap="butt" stroke-miterlimit="10.0">
    <path d="M 414.8829,235.4392 c 0.0000,-32.1068 -26.0277,-58.1345 -58.1345 -58.1345c -32.1068,-0.0000 -58.1345,26.0277 -58.1345 58.1345c -0.0000,32.1068 26.0277,58.1345 58.1345 58.1345c 32.1068,0.0000 58.1345,-26.0277 58.1345 -58.1345Z"/>
  </g>
  <defs>
  </defs>
  <g stroke-linejoin="miter" stroke-opacity="1.0" fill-opacity="1.0" opacity="5.0e-2" stroke="rgb(0,0,0)" stroke-width="1.9955597254657247" fill="rgb(255,0,0)" stroke-linecap="butt" stroke-miterlimit="10.0">
    <path d="M 416.4582,348.4478 c 0.0000,-57.4981 -46.6114,-104.1096 -104.1096 -104.1096c -57.4981,-0.0000 -104.1096,46.6114 -104.1096 104.1096c -0.0000,57.4981 46.6114,104.1096 104.1096 104.1096c 57.4981,0.0000 104.1096,-46.6114 104.1096 -104.1096Z"/>
  </g>
  <defs>
  </defs>
  <g stroke-linejoin="miter" stroke-opacity="1.0" fill-opacity="1.0" opacity="5.0e-2" stroke="rgb(0,0,0)" stroke-width="1.9955597254657247" fill="rgb(255,0,0)" stroke-linecap="butt" stroke-miterlimit="10.0">
    <path d="M 304.4535,201.7559 c 0.0000,-19.0043 -15.4060,-34.4103 -34.4103 -34.4103c -19.0043,-0.0000 -34.4103,15.4060 -34.4103 34.4103c -0.0000,19.0043 15.4060,34.4103 34.4103 34.4103c 19.0043,0.0000 34.4103,-15.4060 34.4103 -34.4103Z"/>
  </g>
  <defs>
  </defs>
  <g stroke-linejoin="miter" stroke-opacity="1.0" fill-opacity="1.0" opacity="5.0e-2" stroke="rgb(0,0,0)" stroke-width="1.9955597254657247" fill="rgb(255,0,0)" stroke-linecap="butt" stroke-miterlimit="10.0">
    <path d="M 303.5251,220.1844 c 0.0000,-50.2311 -40.7204,-90.9515 -90.9515 -90.9515c -50.2311,-0.0000 -90.9515,40.7204 -90.9515 90.9515c -0.0000,50.2311 40.7204,90.9515 90.9515 90.9515c 50.2311,0.0000 90.9515,-40.7204 90.9515 -90.9515Z"/>
  </g>
  <defs>
  </defs>
  <g stroke-linejoin="miter" stroke-opacity="1.0" fill-opacity="1.0" opacity="5.0e-2" stroke="rgb(0,0,0)" stroke-width="1.9955597254657247" fill="rgb(255,0,0)" stroke-linecap="butt" stroke-miterlimit="10.0">
    <path d="M 343.0039,227.8021 c 0.0000,-41.4704 -33.6184,-75.0887 -75.0887 -75.0887c -41.4704,-0.0000 -75.0887,33.6184 -75.0887 75.0887c -0.0000,41.4704 33.6184,75.0887 75.0887 75.0887c 41.4704,0.0000 75.0887,-33.6184 75.0887 -75.0887Z"/>
  </g>
  <defs>
  </defs>
  <g stroke-linejoin="miter" stroke-opacity="1.0" fill-opacity="1.0" opacity="5.0e-2" stroke="rgb(0,0,0)" stroke-width="1.9955597254657247" fill="rgb(255,0,0)" stroke-linecap="butt" stroke-miterlimit="10.0">
    <path d="M 353.6470,321.9027 c 0.0000,-59.9768 -48.6208,-108.5976 -108.5976 -108.5976c -59.9768,-0.0000 -108.5976,48.6208 -108.5976 108.5976c -0.0000,59.9768 48.6208,108.5976 108.5976 108.5976c 59.9768,0.0000 108.5976,-48.6208 108.5976 -108.5976Z"/>
  </g>
  <defs>
  </defs>
  <g stroke-linejoin="miter" stroke-opacity="1.0" fill-opacity="1.0" opacity="0.5" stroke="rgb(0,0,0)" stroke-width="1.9955597254657247" fill="rgb(0,128,0)" stroke-linecap="butt" stroke-miterlimit="10.0">
    <path d="M 353.6470,321.9027 c 0.0000,-59.9768 -48.6208,-108.5976 -108.5976 -108.5976c -59.9768,-0.0000 -108.5976,48.6208 -108.5976 108.5976c -0.0000,59.9768 48.6208,108.5976 108.5976 108.5976c 59.9768,0.0000 108.5976,-48.6208 108.5976 -108.5976Z"/>
  </g>
  <defs>
  </defs>
  <g stroke-linejoin="miter" stroke-opacity="1.0" fill-opacity="0.0" opacity="0.5" stroke="rgb(0,0,0)" stroke-width="1.9955597254657247" fill="rgb(0,0,0)" stroke-linecap="butt" stroke-miterlimit="10.0">
    <path d="M 407.1419,389.2958 l -0.0000,-300.9989 h -300.9989 l -0.0000,300.9989 Z"/>
  </g>
</svg>