<svg version="1.2" xmlns="http://www.w3.org/2000/svg" viewBox="0 0 800 700">
  <g
    transform="rotate(0, 467.50214562328097, 169.9254018810982)translate(467.50214562328097, 169.9254018810982)"
    font-size="13.5px"
    string="X"
  >
    <title>`X`.text</title>
    <svg
      style="font-size: 13.5px"
      xmlns="http://www.w3.org/2000/svg"
      width="16.32432"
      height="19.16"
      role="img"
      focusable="false"
      viewBox="0 -750 852 1000"
    >
      <g
        stroke="none"
        fill="#000000"
        stroke-width="0"
        transform="scale(1,-1)"
        fill-opacity="1"
      >
        <g data-mml-node="math">
          <g data-mml-node="mtable">
            <g data-mml-node="mtr">
              <g data-mml-node="mtd">
                <g data-mml-node="mi">
                  <path
                    data-c="1D44B"
                    d="M42 0H40Q26 0 26 11Q26 15 29 27Q33 41 36 43T55 46Q141 49 190 98Q200 108 306 224T411 342Q302 620 297 625Q288 636 234 637H206Q200 643 200 645T202 664Q206 677 212 683H226Q260 681 347 681Q380 681 408 681T453 682T473 682Q490 682 490 671Q490 670 488 658Q484 643 481 640T465 637Q434 634 411 620L488 426L541 485Q646 598 646 610Q646 628 622 635Q617 635 609 637Q594 637 594 648Q594 650 596 664Q600 677 606 683H618Q619 683 643 683T697 681T738 680Q828 680 837 683H845Q852 676 852 672Q850 647 840 637H824Q790 636 763 628T722 611T698 593L687 584Q687 585 592 480L505 384Q505 383 536 304T601 142T638 56Q648 47 699 46Q734 46 734 37Q734 35 732 23Q728 7 725 4T711 1Q708 1 678 1T589 2Q528 2 496 2T461 1Q444 1 444 10Q444 11 446 25Q448 35 450 39T455 44T464 46T480 47T506 54Q523 62 523 64Q522 64 476 181L429 299Q241 95 236 84Q232 76 232 72Q232 53 261 47Q262 47 267 47T273 46Q276 46 277 46T280 45T283 42T284 35Q284 26 282 19Q279 6 276 4T261 1Q258 1 243 1T201 2T142 2Q64 2 42 0Z"
                  ></path>
                </g>
              </g>
            </g>
          </g>
        </g>
      </g>
    </svg>
  </g>
  <g style="solid">
    <path
      d="M 454.59547422085154 463.517271889851 L 278.4988162040579 527.2342898574743"
      stroke-opacity="1"
      stroke-width="1.75"
      stroke="#000000"
      stroke-linecap="butt"
    ></path>
    <title>`UT`.icon</title>
  </g>
  <g style="solid">
    <path
      d="M 454.59547422085154 463.517271889851 L 278.4988162040579 527.2342898574743"
      stroke-opacity="1"
      stroke-width="1.75"
      stroke="#000000"
      stroke-linecap="butt"
    ></path>
    <title>`UTS`.PQ</title>
  </g>
  <g style="solid">
    <path
      d="M 311.3665840248445 342.871720406114 L 454.59547422085154 463.517271889851"
      stroke-opacity="1"
      stroke-width="1.75"
      stroke="#000000"
      stroke-linecap="butt"
    ></path>
    <title>`UTS`.RP</title>
  </g>
  <g style="solid">
    <path
      d="M 454.59547422085154 463.517271889851 L 311.3665840248445 342.871720406114"
      stroke-opacity="1"
      stroke-width="1.75"
      stroke="#000000"
      stroke-linecap="butt"
    ></path>
    <title>`aUST`.side1</title>
  </g>
  <g style="solid">
    <path
      d="M 278.4988162040579 527.2342898574743 L 454.59547422085154 463.517271889851"
      stroke-opacity="1"
      stroke-width="1.75"
      stroke="#000000"
      stroke-linecap="butt"
    ></path>
    <title>`aTUS`.side1</title>
  </g>
  <g style="solid">
    <path
      d="M 454.59547422085154 463.517271889851 L 311.3665840248445 342.871720406114"
      stroke-opacity="1"
      stroke-width="1.75"
      stroke="#000000"
      stroke-linecap="butt"
    ></path>
    <title>`aTUS`.side2</title>
  </g>
  <g style="solid">
    <path
      d="M 454.59547422085154 463.517271889851 L 311.3665840248445 342.871720406114"
      stroke-opacity="1"
      stroke-width="1.75"
      stroke="#000000"
      stroke-linecap="butt"
    ></path>
    <title>`US`.icon</title>
  </g>
  <g style="solid">
    <path
      d="M 454.59547422085154 463.517271889851 L 278.4988162040579 527.2342898574743"
      stroke-opacity="1"
      stroke-width="1.75"
      stroke="#000000"
      stroke-linecap="butt"
    ></path>
    <title>`aUTS`.side1</title>
  </g>
  <circle
    fill="#000000"
    fill-opacity="1"
    cx="454.59547422085154"
    cy="463.517271889851"
    stroke="#000000"
    stroke-opacity="1"
    stroke-width="0"
    stroke-linecap="butt"
    r="4"
  >
    <title>`U`.icon</title>
  </circle>
  <g style="solid">
    <path
      d="M 278.4988162040579 527.2342898574743 L 311.3665840248445 342.871720406114"
      stroke-opacity="1"
      stroke-width="1.75"
      stroke="#000000"
      stroke-linecap="butt"
    ></path>
    <title>`UTS`.QR</title>
  </g>
  <g style="solid">
    <path
      d="M 311.3665840248445 342.871720406114 L 278.4988162040579 527.2342898574743"
      stroke-opacity="1"
      stroke-width="1.75"
      stroke="#000000"
      stroke-linecap="butt"
    ></path>
    <title>`ST`.icon</title>
  </g>
  <g style="solid">
    <path
      d="M 311.3665840248445 342.871720406114 L 278.4988162040579 527.2342898574743"
      stroke-opacity="1"
      stroke-width="1.75"
      stroke="#000000"
      stroke-linecap="butt"
    ></path>
    <title>`aUST`.side2</title>
  </g>
  <g style="solid">
    <path
      d="M 278.4988162040579 527.2342898574743 L 311.3665840248445 342.871720406114"
      stroke-opacity="1"
      stroke-width="1.75"
      stroke="#000000"
      stroke-linecap="butt"
    ></path>
    <title>`aUTS`.side2</title>
  </g>
  <circle
    fill="#000000"
    fill-opacity="1"
    cx="278.4988162040579"
    cy="527.2342898574743"
    stroke="#000000"
    stroke-opacity="1"
    stroke-width="0"
    stroke-linecap="butt"
    r="4"
  >
    <title>`T`.icon</title>
  </circle>
  <g
    transform="rotate(0, 468.5955128713689, 457.8911681271674)translate(468.5955128713689, 457.8911681271674)"
    font-size="13.5px"
    string="U"
  >
    <title>`U`.text</title>
    <svg
      style="font-size: 13.5px"
      xmlns="http://www.w3.org/2000/svg"
      width="14.69572"
      height="19.16"
      role="img"
      focusable="false"
      viewBox="0 -750 767 1000"
    >
      <g
        stroke="none"
        fill="#000000"
        stroke-width="0"
        transform="scale(1,-1)"
        fill-opacity="1"
      >
        <g data-mml-node="math">
          <g data-mml-node="mtable">
            <g data-mml-node="mtr">
              <g data-mml-node="mtd">
                <g data-mml-node="mi">
                  <path
                    data-c="1D448"
                    d="M107 637Q73 637 71 641Q70 643 70 649Q70 673 81 682Q83 683 98 683Q139 681 234 681Q268 681 297 681T342 682T362 682Q378 682 378 672Q378 670 376 658Q371 641 366 638H364Q362 638 359 638T352 638T343 637T334 637Q295 636 284 634T266 623Q265 621 238 518T184 302T154 169Q152 155 152 140Q152 86 183 55T269 24Q336 24 403 69T501 205L552 406Q599 598 599 606Q599 633 535 637Q511 637 511 648Q511 650 513 660Q517 676 519 679T529 683Q532 683 561 682T645 680Q696 680 723 681T752 682Q767 682 767 672Q767 650 759 642Q756 637 737 637Q666 633 648 597Q646 592 598 404Q557 235 548 205Q515 105 433 42T263 -22Q171 -22 116 34T60 167V183Q60 201 115 421Q164 622 164 628Q164 635 107 637Z"
                  ></path>
                </g>
              </g>
            </g>
          </g>
        </g>
      </g>
    </svg>
  </g>
  <g
    transform="rotate(0, 289.3756101745133, 536.0487874444485)translate(289.3756101745133, 536.0487874444485)"
    font-size="13.5px"
    string="T"
  >
    <title>`T`.text</title>
    <svg
      style="font-size: 13.5px"
      xmlns="http://www.w3.org/2000/svg"
      width="13.48864"
      height="19.16"
      role="img"
      focusable="false"
      viewBox="0 -750 704 1000"
    >
      <g
        stroke="none"
        fill="#000000"
        stroke-width="0"
        transform="scale(1,-1)"
        fill-opacity="1"
      >
        <g data-mml-node="math">
          <g data-mml-node="mtable">
            <g data-mml-node="mtr">
              <g data-mml-node="mtd">
                <g data-mml-node="mi">
                  <path
                    data-c="1D447"
                    d="M40 437Q21 437 21 445Q21 450 37 501T71 602L88 651Q93 669 101 677H569H659Q691 677 697 676T704 667Q704 661 687 553T668 444Q668 437 649 437Q640 437 637 437T631 442L629 445Q629 451 635 490T641 551Q641 586 628 604T573 629Q568 630 515 631Q469 631 457 630T439 622Q438 621 368 343T298 60Q298 48 386 46Q418 46 427 45T436 36Q436 31 433 22Q429 4 424 1L422 0Q419 0 415 0Q410 0 363 1T228 2Q99 2 64 0H49Q43 6 43 9T45 27Q49 40 55 46H83H94Q174 46 189 55Q190 56 191 56Q196 59 201 76T241 233Q258 301 269 344Q339 619 339 625Q339 630 310 630H279Q212 630 191 624Q146 614 121 583T67 467Q60 445 57 441T43 437H40Z"
                  ></path>
                </g>
              </g>
            </g>
          </g>
        </g>
      </g>
    </svg>
  </g>
  <g endArrowheadSize="1" stroke-width="1" startArrowheadSize="1">
    <filter id="`UTS`.icon-shadow" x="0" y="0" width="200%" height="200%">
      <feOffset result="offOut" in="SourceAlpha" dx="5" dy="5"></feOffset>
      <feGaussianBlur
        result="blurOut"
        in="offOut"
        stdDeviation="4"
      ></feGaussianBlur>
      <feBlend in="SourceGraphic" in2="blurOut" mode="normal"></feBlend>
      <feComponentTransfer>
        <feFuncA type="linear" slope="0.5"></feFuncA>
      </feComponentTransfer>
      <feMerge>
        <feMergeNode></feMergeNode>
        <feMergeNode in="SourceGraphic"></feMergeNode>
      </feMerge>
    </filter>
    <path
      stroke="none"
      fill="none"
      d="M 454.59547422085154 463.517271889851 L 278.4988162040579 527.2342898574743 L 311.3665840248445 342.871720406114 Z "
    ></path>
    <title>`UTS`.icon</title>
  </g>
  <g
    transform="rotate(0, 311.70235090663743, 309.7157531074162)translate(311.70235090663743, 309.7157531074162)"
    font-size="13.5px"
    string="S"
  >
    <title>`S`.text</title>
    <svg
      style="font-size: 13.5px"
      xmlns="http://www.w3.org/2000/svg"
      width="12.3582"
      height="19.16"
      role="img"
      focusable="false"
      viewBox="0 -750 645 1000"
    >
      <g
        stroke="none"
        fill="#000000"
        stroke-width="0"
        transform="scale(1,-1)"
        fill-opacity="1"
      >
        <g data-mml-node="math">
          <g data-mml-node="mtable">
            <g data-mml-node="mtr">
              <g data-mml-node="mtd">
                <g data-mml-node="mi">
                  <path
                    data-c="1D446"
                    d="M308 24Q367 24 416 76T466 197Q466 260 414 284Q308 311 278 321T236 341Q176 383 176 462Q176 523 208 573T273 648Q302 673 343 688T407 704H418H425Q521 704 564 640Q565 640 577 653T603 682T623 704Q624 704 627 704T632 705Q645 705 645 698T617 577T585 459T569 456Q549 456 549 465Q549 471 550 475Q550 478 551 494T553 520Q553 554 544 579T526 616T501 641Q465 662 419 662Q362 662 313 616T263 510Q263 480 278 458T319 427Q323 425 389 408T456 390Q490 379 522 342T554 242Q554 216 546 186Q541 164 528 137T492 78T426 18T332 -20Q320 -22 298 -22Q199 -22 144 33L134 44L106 13Q83 -14 78 -18T65 -22Q52 -22 52 -14Q52 -11 110 221Q112 227 130 227H143Q149 221 149 216Q149 214 148 207T144 186T142 153Q144 114 160 87T203 47T255 29T308 24Z"
                  ></path>
                </g>
              </g>
            </g>
          </g>
        </g>
      </g>
    </svg>
  </g>
  <circle
    fill="#000000"
    fill-opacity="1"
    cx="311.3665840248445"
    cy="342.871720406114"
    stroke="#000000"
    stroke-opacity="1"
    stroke-width="0"
    stroke-linecap="butt"
    r="4"
  >
    <title>`S`.icon</title>
  </circle>
  <g style="solid">
    <path
      d="M 458.58576531088033 199.87885210161758 L 559.3778200332707 357.7105076382381"
      stroke-opacity="1"
      stroke-width="1.75"
      stroke="#000000"
      stroke-linecap="butt"
    ></path>
    <title>`aXYZ`.side1</title>
  </g>
  <g style="solid">
    <path
      d="M 372.29552187997444 366.0830988215996 L 458.58576531088033 199.87885210161758"
      stroke-opacity="1"
      stroke-width="1.75"
      stroke="#000000"
      stroke-linecap="butt"
    ></path>
    <title>`aYZX`.side2</title>
  </g>
  <g style="solid">
    <path
      d="M 458.58576531088033 199.87885210161758 L 559.3778200332707 357.7105076382381"
      stroke-opacity="1"
      stroke-width="1.75"
      stroke="#000000"
      stroke-linecap="butt"
    ></path>
    <title>`XYZ`.PQ</title>
  </g>
  <g style="solid">
    <path
      d="M 372.29552187997444 366.0830988215996 L 458.58576531088033 199.87885210161758"
      stroke-opacity="1"
      stroke-width="1.75"
      stroke="#000000"
      stroke-linecap="butt"
    ></path>
    <title>`XYZ`.RP</title>
  </g>
  <g style="solid">
    <path
      d="M 458.58576531088033 199.87885210161758 L 559.3778200332707 357.7105076382381"
      stroke-opacity="1"
      stroke-width="1.75"
      stroke="#000000"
      stroke-linecap="butt"
    ></path>
    <title>`XY`.icon</title>
  </g>
  <g style="solid">
    <path
      d="M 372.29552187997444 366.0830988215996 L 458.58576531088033 199.87885210161758"
      stroke-opacity="1"
      stroke-width="1.75"
      stroke="#000000"
      stroke-linecap="butt"
    ></path>
    <title>`aZXY`.side1</title>
  </g>
  <g style="solid">
    <path
      d="M 458.58576531088033 199.87885210161758 L 559.3778200332707 357.7105076382381"
      stroke-opacity="1"
      stroke-width="1.75"
      stroke="#000000"
      stroke-linecap="butt"
    ></path>
    <title>`aZXY`.side2</title>
  </g>
  <g style="solid">
    <path
      d="M 458.58576531088033 199.87885210161758 L 372.29552187997444 366.0830988215996"
      stroke-opacity="1"
      stroke-width="1.75"
      stroke="#000000"
      stroke-linecap="butt"
    ></path>
    <title>`XZ`.icon</title>
  </g>
  <circle
    fill="#000000"
    fill-opacity="1"
    cx="458.58576531088033"
    cy="199.87885210161758"
    stroke="#000000"
    stroke-opacity="1"
    stroke-width="0"
    stroke-linecap="butt"
    r="4"
  >
    <title>`X`.icon</title>
  </circle>
  <g style="solid">
    <path
      d="M 559.3778200332707 357.7105076382381 L 372.29552187997444 366.0830988215996"
      stroke-opacity="1"
      stroke-width="1.75"
      stroke="#000000"
      stroke-linecap="butt"
    ></path>
    <title>`aXYZ`.side2</title>
  </g>
  <g style="solid">
    <path
      d="M 559.3778200332707 357.7105076382381 L 372.29552187997444 366.0830988215996"
      stroke-opacity="1"
      stroke-width="1.75"
      stroke="#000000"
      stroke-linecap="butt"
    ></path>
    <title>`aYZX`.side1</title>
  </g>
  <g style="solid">
    <path
      d="M 559.3778200332707 357.7105076382381 L 372.29552187997444 366.0830988215996"
      stroke-opacity="1"
      stroke-width="1.75"
      stroke="#000000"
      stroke-linecap="butt"
    ></path>
    <title>`XYZ`.QR</title>
  </g>
  <g style="solid">
    <path
      d="M 372.29552187997444 366.0830988215996 L 559.3778200332707 357.7105076382381"
      stroke-opacity="1"
      stroke-width="1.75"
      stroke="#000000"
      stroke-linecap="butt"
    ></path>
    <title>`ZY`.icon</title>
  </g>
  <circle
    fill="#000000"
    fill-opacity="1"
    cx="559.3778200332707"
    cy="357.7105076382381"
    stroke="#000000"
    stroke-opacity="1"
    stroke-width="0"
    stroke-linecap="butt"
    r="4"
  >
    <title>`Y`.icon</title>
  </circle>
  <circle
    fill="#000000"
    fill-opacity="1"
    cx="372.29552187997444"
    cy="366.0830988215996"
    stroke="#000000"
    stroke-opacity="1"
    stroke-width="0"
    stroke-linecap="butt"
    r="4"
  >
    <title>`Z`.icon</title>
  </circle>
  <g startArrowheadSize="1" endArrowheadSize="1">
    <filter id="`ZY`.tick-shadow" x="0" y="0" width="200%" height="200%">
      <feOffset result="offOut" in="SourceAlpha" dx="5" dy="5"></feOffset>
      <feGaussianBlur
        result="blurOut"
        in="offOut"
        stdDeviation="4"
      ></feGaussianBlur>
      <feBlend in="SourceGraphic" in2="blurOut" mode="normal"></feBlend>
      <feComponentTransfer>
        <feFuncA type="linear" slope="0.5"></feFuncA>
      </feComponentTransfer>
      <feMerge>
        <feMergeNode></feMergeNode>
        <feMergeNode in="SourceGraphic"></feMergeNode>
      </feMerge>
    </filter>
    <path
      stroke="#000000"
      fill="none"
      stroke-width="2"
      stroke-opacity="1"
      d="M 466.28375861570413 371.8868033272815 L 465.389583297541 351.9068031325562 M 481.2687587617481 371.2161718386591 L 480.3745834435849 351.23617164393386 M 451.2987584696602 372.55743481590383 L 450.40458315149704 352.5774346211786"
    ></path>
    <title>`ZY`.tick</title>
  </g>
  <g startArrowheadSize="1" endArrowheadSize="1">
    <filter id="`UT`.tick-shadow" x="0" y="0" width="200%" height="200%">
      <feOffset result="offOut" in="SourceAlpha" dx="5" dy="5"></feOffset>
      <feGaussianBlur
        result="blurOut"
        in="offOut"
        stdDeviation="4"
      ></feGaussianBlur>
      <feBlend in="SourceGraphic" in2="blurOut" mode="normal"></feBlend>
      <feComponentTransfer>
        <feFuncA type="linear" slope="0.5"></feFuncA>
      </feComponentTransfer>
      <feMerge>
        <feMergeNode></feMergeNode>
        <feMergeNode in="SourceGraphic"></feMergeNode>
      </feMerge>
    </filter>
    <path
      stroke="#000000"
      fill="none"
      stroke-width="2"
      stroke-opacity="1"
      d="M 363.14472297035695 485.97240317165114 L 369.94956745455244 504.7791585756742 M 349.0396564173397 491.0760365347977 L 355.8445009015352 509.8827919388208 M 377.24978952337426 480.86876980850457 L 384.05463400756975 499.67552521252765"
    ></path>
    <title>`UT`.tick</title>
  </g>
  <g startArrowheadSize="1" endArrowheadSize="1">
    <filter id="`XZ`.tick-shadow" x="0" y="0" width="200%" height="200%">
      <feOffset result="offOut" in="SourceAlpha" dx="5" dy="5"></feOffset>
      <feGaussianBlur
        result="blurOut"
        in="offOut"
        stdDeviation="4"
      ></feGaussianBlur>
      <feBlend in="SourceGraphic" in2="blurOut" mode="normal"></feBlend>
      <feComponentTransfer>
        <feFuncA type="linear" slope="0.5"></feFuncA>
      </feComponentTransfer>
      <feMerge>
        <feMergeNode></feMergeNode>
        <feMergeNode in="SourceGraphic"></feMergeNode>
      </feMerge>
    </filter>
    <path
      stroke="#000000"
      fill="none"
      stroke-width="2"
      stroke-opacity="1"
      d="M 403.1096477342631 285.02951747600997 L 420.85992277037866 294.24513972429395 M 410.02136442047606 271.71681119892327 L 427.7716394565917 280.93243344720725"
    ></path>
    <title>`XZ`.tick</title>
  </g>
  <g startArrowheadSize="1" endArrowheadSize="1">
    <filter id="`US`.tick-shadow" x="0" y="0" width="200%" height="200%">
      <feOffset result="offOut" in="SourceAlpha" dx="5" dy="5"></feOffset>
      <feGaussianBlur
        result="blurOut"
        in="offOut"
        stdDeviation="4"
      ></feGaussianBlur>
      <feBlend in="SourceGraphic" in2="blurOut" mode="normal"></feBlend>
      <feComponentTransfer>
        <feFuncA type="linear" slope="0.5"></feFuncA>
      </feComponentTransfer>
      <feMerge>
        <feMergeNode></feMergeNode>
        <feMergeNode in="SourceGraphic"></feMergeNode>
      </feMerge>
    </filter>
    <path
      stroke="#000000"
      fill="none"
      stroke-width="2"
      stroke-opacity="1"
      d="M 383.68717098913936 390.7144582082368 L 370.8024729781306 406.0110105794716 M 395.15958526756543 400.37798171649337 L 382.27488725655667 415.67453408772815"
    ></path>
    <title>`US`.tick</title>
  </g>
  <g
    transform="rotate(0, 379.4168012527091, 378.1366400776886)translate(379.4168012527091, 378.1366400776886)"
    font-size="13.5px"
    string="Z"
  >
    <title>`Z`.text</title>
    <svg
      style="font-size: 13.5px"
      xmlns="http://www.w3.org/2000/svg"
      width="13.85268"
      height="19.16"
      role="img"
      focusable="false"
      viewBox="0 -750 723 1000"
    >
      <g
        stroke="none"
        fill="#000000"
        stroke-width="0"
        transform="scale(1,-1)"
        fill-opacity="1"
      >
        <g data-mml-node="math">
          <g data-mml-node="mtable">
            <g data-mml-node="mtr">
              <g data-mml-node="mtd">
                <g data-mml-node="mi">
                  <path
                    data-c="1D44D"
                    d="M58 8Q58 23 64 35Q64 36 329 334T596 635L586 637Q575 637 512 637H500H476Q442 637 420 635T365 624T311 598T266 548T228 469Q227 466 226 463T224 458T223 453T222 450L221 448Q218 443 202 443Q185 443 182 453L214 561Q228 606 241 651Q249 679 253 681Q256 683 487 683H718Q723 678 723 675Q723 673 717 649Q189 54 188 52L185 49H274Q369 50 377 51Q452 60 500 100T579 247Q587 272 590 277T603 282H607Q628 282 628 271Q547 5 541 2Q538 0 300 0H124Q58 0 58 8Z"
                  ></path>
                </g>
              </g>
            </g>
          </g>
        </g>
      </g>
    </svg>
  </g>
  <g stroke-width="1" startArrowheadSize="1" endArrowheadSize="1">
    <filter id="`XYZ`.icon-shadow" x="0" y="0" width="200%" height="200%">
      <feOffset result="offOut" in="SourceAlpha" dx="5" dy="5"></feOffset>
      <feGaussianBlur
        result="blurOut"
        in="offOut"
        stdDeviation="4"
      ></feGaussianBlur>
      <feBlend in="SourceGraphic" in2="blurOut" mode="normal"></feBlend>
      <feComponentTransfer>
        <feFuncA type="linear" slope="0.5"></feFuncA>
      </feComponentTransfer>
      <feMerge>
        <feMergeNode></feMergeNode>
        <feMergeNode in="SourceGraphic"></feMergeNode>
      </feMerge>
    </filter>
    <path
      stroke="none"
      fill="none"
      d="M 458.58576531088033 199.87885210161758 L 559.3778200332707 357.7105076382381 L 372.29552187997444 366.0830988215996 Z "
    ></path>
    <title>`XYZ`.icon</title>
  </g>
  <g
    transform="rotate(0, 559.3779052081593, 324.55048133324186)translate(559.3779052081593, 324.55048133324186)"
    font-size="13.5px"
    string="Y"
  >
    <title>`Y`.text</title>
    <svg
      style="font-size: 13.5px"
      xmlns="http://www.w3.org/2000/svg"
      width="14.61908"
      height="19.16"
      role="img"
      focusable="false"
      viewBox="0 -750 763 1000"
    >
      <g
        stroke="none"
        fill="#000000"
        stroke-width="0"
        transform="scale(1,-1)"
        fill-opacity="1"
      >
        <g data-mml-node="math">
          <g data-mml-node="mtable">
            <g data-mml-node="mtr">
              <g data-mml-node="mtd">
                <g data-mml-node="mi">
                  <path
                    data-c="1D44C"
                    d="M66 637Q54 637 49 637T39 638T32 641T30 647T33 664T42 682Q44 683 56 683Q104 680 165 680Q288 680 306 683H316Q322 677 322 674T320 656Q316 643 310 637H298Q242 637 242 624Q242 619 292 477T343 333L346 336Q350 340 358 349T379 373T411 410T454 461Q546 568 561 587T577 618Q577 634 545 637Q528 637 528 647Q528 649 530 661Q533 676 535 679T549 683Q551 683 578 682T657 680Q684 680 713 681T746 682Q763 682 763 673Q763 669 760 657T755 643Q753 637 734 637Q662 632 617 587Q608 578 477 424L348 273L322 169Q295 62 295 57Q295 46 363 46Q379 46 384 45T390 35Q390 33 388 23Q384 6 382 4T366 1Q361 1 324 1T232 2Q170 2 138 2T102 1Q84 1 84 9Q84 14 87 24Q88 27 89 30T90 35T91 39T93 42T96 44T101 45T107 45T116 46T129 46Q168 47 180 50T198 63Q201 68 227 171L252 274L129 623Q128 624 127 625T125 627T122 629T118 631T113 633T105 634T96 635T83 636T66 637Z"
                  ></path>
                </g>
              </g>
            </g>
          </g>
        </g>
      </g>
    </svg>
  </g>
  <g startArrowheadSize="1" endArrowheadSize="1">
    <filter id="`ST`.tick-shadow" x="0" y="0" width="200%" height="200%">
      <feOffset result="offOut" in="SourceAlpha" dx="5" dy="5"></feOffset>
      <feGaussianBlur
        result="blurOut"
        in="offOut"
        stdDeviation="4"
      ></feGaussianBlur>
      <feBlend in="SourceGraphic" in2="blurOut" mode="normal"></feBlend>
      <feComponentTransfer>
        <feFuncA type="linear" slope="0.5"></feFuncA>
      </feComponentTransfer>
      <feMerge>
        <feMergeNode></feMergeNode>
        <feMergeNode in="SourceGraphic"></feMergeNode>
      </feMerge>
    </filter>
    <path
      stroke="#000000"
      fill="none"
      stroke-width="2"
      stroke-opacity="1"
      d="M 285.0879251717578 433.2978995372732 L 304.77747505714456 436.80811072631514"
    ></path>
    <title>`ST`.tick</title>
  </g>
  <g startArrowheadSize="1" endArrowheadSize="1">
    <filter id="`XY`.tick-shadow" x="0" y="0" width="200%" height="200%">
      <feOffset result="offOut" in="SourceAlpha" dx="5" dy="5"></feOffset>
      <feGaussianBlur
        result="blurOut"
        in="offOut"
        stdDeviation="4"
      ></feGaussianBlur>
      <feBlend in="SourceGraphic" in2="blurOut" mode="normal"></feBlend>
      <feComponentTransfer>
        <feFuncA type="linear" slope="0.5"></feFuncA>
      </feComponentTransfer>
      <feMerge>
        <feMergeNode></feMergeNode>
        <feMergeNode in="SourceGraphic"></feMergeNode>
      </feMerge>
    </filter>
    <path
      stroke="#000000"
      fill="none"
      stroke-width="2"
      stroke-opacity="1"
      d="M 500.553744444239 284.17687202456784 L 517.409840899912 273.41248771528785"
    ></path>
    <title>`XY`.tick</title>
  </g>
  <g startArrowheadSize="1" endArrowheadSize="1">
    <filter id="`aTUS`.mark-shadow" x="0" y="0" width="200%" height="200%">
      <feOffset result="offOut" in="SourceAlpha" dx="5" dy="5"></feOffset>
      <feGaussianBlur
        result="blurOut"
        in="offOut"
        stdDeviation="4"
      ></feGaussianBlur>
      <feBlend in="SourceGraphic" in2="blurOut" mode="normal"></feBlend>
      <feComponentTransfer>
        <feFuncA type="linear" slope="0.5"></feFuncA>
      </feComponentTransfer>
      <feMerge>
        <feMergeNode></feMergeNode>
        <feMergeNode in="SourceGraphic"></feMergeNode>
      </feMerge>
    </filter>
    <path
      stroke="#000000"
      fill="none"
      stroke-width="2"
      stroke-opacity="1"
      d="M 426.385341114817 473.7245386161442 A 30 30 0 0 1 431.65064566399946 444.1902248733379"
    ></path>
    <title>`aTUS`.mark</title>
  </g>
  <g startArrowheadSize="1" endArrowheadSize="1">
    <filter id="`aUTS`.mark-shadow" x="0" y="0" width="200%" height="200%">
      <feOffset result="offOut" in="SourceAlpha" dx="5" dy="5"></feOffset>
      <feGaussianBlur
        result="blurOut"
        in="offOut"
        stdDeviation="4"
      ></feGaussianBlur>
      <feBlend in="SourceGraphic" in2="blurOut" mode="normal"></feBlend>
      <feComponentTransfer>
        <feFuncA type="linear" slope="0.5"></feFuncA>
      </feComponentTransfer>
      <feMerge>
        <feMergeNode></feMergeNode>
        <feMergeNode in="SourceGraphic"></feMergeNode>
      </feMerge>
    </filter>
    <path
      stroke="#000000"
      fill="none"
      stroke-width="2"
      stroke-opacity="1"
      d="M 306.70894931009246 517.0270231311812 A 30 30 0 0 0 283.76413298762077 497.6999650293942 M 316.11232691631994 513.6246009237409 A 40 40 0 0 0 285.519238564264 487.8551901869812 M 325.5157045225474 510.22217871630073 A 50 50 0 0 0 287.2743441409072 478.01041534456806"
    ></path>
    <title>`aUTS`.mark</title>
  </g>
  <g startArrowheadSize="1" endArrowheadSize="1">
    <filter id="`aUST`.mark-shadow" x="0" y="0" width="200%" height="200%">
      <feOffset result="offOut" in="SourceAlpha" dx="5" dy="5"></feOffset>
      <feGaussianBlur
        result="blurOut"
        in="offOut"
        stdDeviation="4"
      ></feGaussianBlur>
      <feBlend in="SourceGraphic" in2="blurOut" mode="normal"></feBlend>
      <feComponentTransfer>
        <feFuncA type="linear" slope="0.5"></feFuncA>
      </feComponentTransfer>
      <feMerge>
        <feMergeNode></feMergeNode>
        <feMergeNode in="SourceGraphic"></feMergeNode>
      </feMerge>
    </filter>
    <path
      stroke="#000000"
      fill="none"
      stroke-width="2"
      stroke-opacity="1"
      d="M 334.3114125816966 362.19876742262704 A 30 30 0 0 1 306.10126724128156 372.4060452341941 M 341.9596886894075 368.64111636250874 A 40 40 0 0 1 304.3461616646383 382.25082007660717"
    ></path>
    <title>`aUST`.mark</title>
  </g>
  <g startArrowheadSize="1" endArrowheadSize="1">
    <filter id="`aYZX`.mark-shadow" x="0" y="0" width="200%" height="200%">
      <feOffset result="offOut" in="SourceAlpha" dx="5" dy="5"></feOffset>
      <feGaussianBlur
        result="blurOut"
        in="offOut"
        stdDeviation="4"
      ></feGaussianBlur>
      <feBlend in="SourceGraphic" in2="blurOut" mode="normal"></feBlend>
      <feComponentTransfer>
        <feFuncA type="linear" slope="0.5"></feFuncA>
      </feComponentTransfer>
      <feMerge>
        <feMergeNode></feMergeNode>
        <feMergeNode in="SourceGraphic"></feMergeNode>
      </feMerge>
    </filter>
    <path
      stroke="#000000"
      fill="none"
      stroke-width="2"
      stroke-opacity="1"
      d="M 402.26552217206233 364.74183584435485 A 30 30 0 0 0 386.11895525240044 339.4576862674262 M 412.25552216766545 364.2947481898274 A 40 40 0 0 0 390.72676632960656 330.5825488397718"
    ></path>
    <title>`aYZX`.mark</title>
  </g>
  <g startArrowheadSize="1" endArrowheadSize="1">
    <filter id="`aXYZ`.mark-shadow" x="0" y="0" width="200%" height="200%">
      <feOffset result="offOut" in="SourceAlpha" dx="5" dy="5"></feOffset>
      <feGaussianBlur
        result="blurOut"
        in="offOut"
        stdDeviation="4"
      ></feGaussianBlur>
      <feBlend in="SourceGraphic" in2="blurOut" mode="normal"></feBlend>
      <feComponentTransfer>
        <feFuncA type="linear" slope="0.5"></feFuncA>
      </feComponentTransfer>
      <feMerge>
        <feMergeNode></feMergeNode>
        <feMergeNode in="SourceGraphic"></feMergeNode>
      </feMerge>
    </filter>
    <path
      stroke="#000000"
      fill="none"
      stroke-width="2"
      stroke-opacity="1"
      d="M 543.2312435693507 332.42636295472863 A 30 30 0 0 0 529.4078197411828 359.05177061548284"
    ></path>
    <title>`aXYZ`.mark</title>
  </g>
  <g startArrowheadSize="1" endArrowheadSize="1">
    <filter id="`aZXY`.mark-shadow" x="0" y="0" width="200%" height="200%">
      <feOffset result="offOut" in="SourceAlpha" dx="5" dy="5"></feOffset>
      <feGaussianBlur
        result="blurOut"
        in="offOut"
        stdDeviation="4"
      ></feGaussianBlur>
      <feBlend in="SourceGraphic" in2="blurOut" mode="normal"></feBlend>
      <feComponentTransfer>
        <feFuncA type="linear" slope="0.5"></feFuncA>
      </feComponentTransfer>
      <feMerge>
        <feMergeNode></feMergeNode>
        <feMergeNode in="SourceGraphic"></feMergeNode>
      </feMerge>
    </filter>
    <path
      stroke="#000000"
      fill="none"
      stroke-width="2"
      stroke-opacity="1"
      d="M 444.76233193845434 226.504264655791 A 30 30 0 0 0 474.73234177480026 225.162996785127 M 440.15452086124816 235.37940208344537 A 40 40 0 0 0 480.1145338746165 233.5910449271142 M 435.546709784042 244.25453951109975 A 50 50 0 0 0 485.4967259744327 242.01909306910142"
    ></path>
    <title>`aZXY`.mark</title>
  </g>
</svg>
