<svg version="1.2" xmlns="http://www.w3.org/2000/svg" viewBox="0 0 800 700">
  <g>
    <path
      d="M 369.76323515627496 488.4912595891788 L 492.4793604326596 230.95379506887684"
      stroke-opacity="1"
      stroke-width="1.75"
      stroke="#000000"
      stroke-linecap="butt"
    ></path>
    <title>`aTUS`.side1</title>
  </g>
  <g>
    <path
      d="M 208.08730090031818 253.4472543449255 L 369.76323515627496 488.4912595891788"
      stroke-opacity="1"
      stroke-width="1.75"
      stroke="#000000"
      stroke-linecap="butt"
    ></path>
    <title>`ST`.icon</title>
  </g>
  <g>
    <path
      d="M 208.08730090031818 253.4472543449255 L 369.76323515627496 488.4912595891788"
      stroke-opacity="1"
      stroke-width="1.75"
      stroke="#000000"
      stroke-linecap="butt"
    ></path>
    <title>`aUST`.side2</title>
  </g>
  <g>
    <path
      d="M 492.4793604326596 230.95379506887684 L 369.76323515627496 488.4912595891788"
      stroke-opacity="1"
      stroke-width="1.75"
      stroke="#000000"
      stroke-linecap="butt"
    ></path>
    <title>`UT`.icon</title>
  </g>
  <g>
    <path
      d="M 492.4793604326596 230.95379506887684 L 369.76323515627496 488.4912595891788"
      stroke-opacity="1"
      stroke-width="1.75"
      stroke="#000000"
      stroke-linecap="butt"
    ></path>
    <title>`UTS`.PQ</title>
  </g>
  <g>
    <path
      d="M 369.76323515627496 488.4912595891788 L 208.08730090031818 253.4472543449255"
      stroke-opacity="1"
      stroke-width="1.75"
      stroke="#000000"
      stroke-linecap="butt"
    ></path>
    <title>`UTS`.QR</title>
  </g>
  <g>
    <path
      d="M 492.4793604326596 230.95379506887684 L 369.76323515627496 488.4912595891788"
      stroke-opacity="1"
      stroke-width="1.75"
      stroke="#000000"
      stroke-linecap="butt"
    ></path>
    <title>`aUTS`.side1</title>
  </g>
  <g>
    <path
      d="M 369.76323515627496 488.4912595891788 L 208.08730090031818 253.4472543449255"
      stroke-opacity="1"
      stroke-width="1.75"
      stroke="#000000"
      stroke-linecap="butt"
    ></path>
    <title>`aUTS`.side2</title>
  </g>
  <circle
    fill="#000000"
    fill-opacity="1"
    cx="369.76323515627496"
    cy="488.4912595891788"
    stroke="#000000"
    stroke-opacity="1"
    stroke-width="0"
    stroke-linecap="butt"
    r="4"
  >
    <title>`T`.icon</title>
  </circle>
  <g>
    <path
      d="M 492.4793604326596 230.95379506887684 L 208.08730090031818 253.4472543449255"
      stroke-opacity="1"
      stroke-width="1.75"
      stroke="#000000"
      stroke-linecap="butt"
    ></path>
    <title>`aTUS`.side2</title>
  </g>
  <g>
    <path
      d="M 492.4793604326596 230.95379506887684 L 208.08730090031818 253.4472543449255"
      stroke-opacity="1"
      stroke-width="1.75"
      stroke="#000000"
      stroke-linecap="butt"
    ></path>
    <title>`aUST`.side1</title>
  </g>
  <g>
    <path
      d="M 208.08730090031818 253.4472543449255 L 492.4793604326596 230.95379506887684"
      stroke-opacity="1"
      stroke-width="1.75"
      stroke="#000000"
      stroke-linecap="butt"
    ></path>
    <title>`UTS`.RP</title>
  </g>
  <g>
    <path
      d="M 492.4793604326596 230.95379506887684 L 208.08730090031818 253.4472543449255"
      stroke-opacity="1"
      stroke-width="1.75"
      stroke="#000000"
      stroke-linecap="butt"
    ></path>
    <title>`US`.icon</title>
  </g>
  <circle
    fill="#000000"
    fill-opacity="1"
    cx="492.4793604326596"
    cy="230.95379506887684"
    stroke="#000000"
    stroke-opacity="1"
    stroke-width="0"
    stroke-linecap="butt"
    r="4"
  >
    <title>`U`.icon</title>
  </circle>
  <circle
    fill="#000000"
    fill-opacity="1"
    cx="208.08730090031818"
    cy="253.4472543449255"
    stroke="#000000"
    stroke-opacity="1"
    stroke-width="0"
    stroke-linecap="butt"
    r="4"
  >
    <title>`S`.icon</title>
  </circle>
  <g>
    <path
      d="M 688.0891168693375 605.8500667391103 L 656.8083831808842 322.29001303364737"
      stroke-opacity="1"
      stroke-width="1.75"
      stroke="#000000"
      stroke-linecap="butt"
    ></path>
    <title>`aXYZ`.side1</title>
  </g>
  <g>
    <path
      d="M 426.8785247656616 491.15994386287514 L 688.0891168693375 605.8500667391103"
      stroke-opacity="1"
      stroke-width="1.75"
      stroke="#000000"
      stroke-linecap="butt"
    ></path>
    <title>`aZXY`.side1</title>
  </g>
  <g>
    <path
      d="M 688.0891168693375 605.8500667391103 L 656.8083831808842 322.29001303364737"
      stroke-opacity="1"
      stroke-width="1.75"
      stroke="#000000"
      stroke-linecap="butt"
    ></path>
    <title>`aZXY`.side2</title>
  </g>
  <g>
    <path
      d="M 688.0891168693375 605.8500667391103 L 656.8083831808842 322.29001303364737"
      stroke-opacity="1"
      stroke-width="1.75"
      stroke="#000000"
      stroke-linecap="butt"
    ></path>
    <title>`XY`.icon</title>
  </g>
  <g>
    <path
      d="M 688.0891168693375 605.8500667391103 L 656.8083831808842 322.29001303364737"
      stroke-opacity="1"
      stroke-width="1.75"
      stroke="#000000"
      stroke-linecap="butt"
    ></path>
    <title>`XYZ`.PQ</title>
  </g>
  <g>
    <path
      d="M 426.8785247656616 491.15994386287514 L 688.0891168693375 605.8500667391103"
      stroke-opacity="1"
      stroke-width="1.75"
      stroke="#000000"
      stroke-linecap="butt"
    ></path>
    <title>`XYZ`.RP</title>
  </g>
  <g>
    <path
      d="M 688.0891168693375 605.8500667391103 L 426.8785247656616 491.15994386287514"
      stroke-opacity="1"
      stroke-width="1.75"
      stroke="#000000"
      stroke-linecap="butt"
    ></path>
    <title>`XZ`.icon</title>
  </g>
  <g>
    <path
      d="M 426.8785247656616 491.15994386287514 L 688.0891168693375 605.8500667391103"
      stroke-opacity="1"
      stroke-width="1.75"
      stroke="#000000"
      stroke-linecap="butt"
    ></path>
    <title>`aYZX`.side2</title>
  </g>
  <circle
    fill="#000000"
    fill-opacity="1"
    cx="688.0891168693375"
    cy="605.8500667391103"
    stroke="#000000"
    stroke-opacity="1"
    stroke-width="0"
    stroke-linecap="butt"
    r="4"
  >
    <title>`X`.icon</title>
  </circle>
  <g>
    <path
      d="M 656.8083831808842 322.29001303364737 L 426.8785247656616 491.15994386287514"
      stroke-opacity="1"
      stroke-width="1.75"
      stroke="#000000"
      stroke-linecap="butt"
    ></path>
    <title>`aXYZ`.side2</title>
  </g>
  <g>
    <path
      d="M 656.8083831808842 322.29001303364737 L 426.8785247656616 491.15994386287514"
      stroke-opacity="1"
      stroke-width="1.75"
      stroke="#000000"
      stroke-linecap="butt"
    ></path>
    <title>`XYZ`.QR</title>
  </g>
  <g>
    <path
      d="M 426.8785247656616 491.15994386287514 L 656.8083831808842 322.29001303364737"
      stroke-opacity="1"
      stroke-width="1.75"
      stroke="#000000"
      stroke-linecap="butt"
    ></path>
    <title>`ZY`.icon</title>
  </g>
  <g>
    <path
      d="M 656.8083831808842 322.29001303364737 L 426.8785247656616 491.15994386287514"
      stroke-opacity="1"
      stroke-width="1.75"
      stroke="#000000"
      stroke-linecap="butt"
    ></path>
    <title>`aYZX`.side1</title>
  </g>
  <circle
    fill="#000000"
    fill-opacity="1"
    cx="656.8083831808842"
    cy="322.29001303364737"
    stroke="#000000"
    stroke-opacity="1"
    stroke-width="0"
    stroke-linecap="butt"
    r="4"
  >
    <title>`Y`.icon</title>
  </circle>
  <circle
    fill="#000000"
    fill-opacity="1"
    cx="426.8785247656616"
    cy="491.15994386287514"
    stroke="#000000"
    stroke-opacity="1"
    stroke-width="0"
    stroke-linecap="butt"
    r="4"
  >
    <title>`Z`.icon</title>
  </circle>
  <g
    transform="rotate(0, 475.6900661373743, 197.95121269625398)translate(475.6900661373743, 197.95121269625398)"
  >
    <title>`U`.text</title>
    <svg
      style="font-size: 13.5px"
      xmlns="http://www.w3.org/2000/svg"
      width="14.69572"
      height="19.16"
      role="img"
      focusable="false"
      viewBox="0 -750 767 1000"
    >
      <g
        stroke="none"
        fill="#000000"
        stroke-width="0"
        transform="scale(1,-1)"
        fill-opacity="1"
      >
        <g data-mml-node="math">
          <g data-mml-node="mtable">
            <g data-mml-node="mtr">
              <g data-mml-node="mtd">
                <g data-mml-node="mi">
                  <path
                    data-c="1D448"
                    d="M107 637Q73 637 71 641Q70 643 70 649Q70 673 81 682Q83 683 98 683Q139 681 234 681Q268 681 297 681T342 682T362 682Q378 682 378 672Q378 670 376 658Q371 641 366 638H364Q362 638 359 638T352 638T343 637T334 637Q295 636 284 634T266 623Q265 621 238 518T184 302T154 169Q152 155 152 140Q152 86 183 55T269 24Q336 24 403 69T501 205L552 406Q599 598 599 606Q599 633 535 637Q511 637 511 648Q511 650 513 660Q517 676 519 679T529 683Q532 683 561 682T645 680Q696 680 723 681T752 682Q767 682 767 672Q767 650 759 642Q756 637 737 637Q666 633 648 597Q646 592 598 404Q557 235 548 205Q515 105 433 42T263 -22Q171 -22 116 34T60 167V183Q60 201 115 421Q164 622 164 628Q164 635 107 637Z"
                  ></path>
                </g>
              </g>
            </g>
          </g>
        </g>
      </g>
    </svg>
  </g>
  <g
    transform="rotate(0, 206.126772318866, 216.04054099069916)translate(206.126772318866, 216.04054099069916)"
  >
    <title>`S`.text</title>
    <svg
      style="font-size: 13.5px"
      xmlns="http://www.w3.org/2000/svg"
      width="12.3582"
      height="19.16"
      role="img"
      focusable="false"
      viewBox="0 -750 645 1000"
    >
      <g
        stroke="none"
        fill="#000000"
        stroke-width="0"
        transform="scale(1,-1)"
        fill-opacity="1"
      >
        <g data-mml-node="math">
          <g data-mml-node="mtable">
            <g data-mml-node="mtr">
              <g data-mml-node="mtd">
                <g data-mml-node="mi">
                  <path
                    data-c="1D446"
                    d="M308 24Q367 24 416 76T466 197Q466 260 414 284Q308 311 278 321T236 341Q176 383 176 462Q176 523 208 573T273 648Q302 673 343 688T407 704H418H425Q521 704 564 640Q565 640 577 653T603 682T623 704Q624 704 627 704T632 705Q645 705 645 698T617 577T585 459T569 456Q549 456 549 465Q549 471 550 475Q550 478 551 494T553 520Q553 554 544 579T526 616T501 641Q465 662 419 662Q362 662 313 616T263 510Q263 480 278 458T319 427Q323 425 389 408T456 390Q490 379 522 342T554 242Q554 216 546 186Q541 164 528 137T492 78T426 18T332 -20Q320 -22 298 -22Q199 -22 144 33L134 44L106 13Q83 -14 78 -18T65 -22Q52 -22 52 -14Q52 -11 110 221Q112 227 130 227H143Q149 221 149 216Q149 214 148 207T144 186T142 153Q144 114 160 87T203 47T255 29T308 24Z"
                  ></path>
                </g>
              </g>
            </g>
          </g>
        </g>
      </g>
    </svg>
  </g>
  <g
    transform="rotate(0, 342.2745198285804, 488.4914156628049)translate(342.2745198285804, 488.4914156628049)"
  >
    <title>`T`.text</title>
    <svg
      style="font-size: 13.5px"
      xmlns="http://www.w3.org/2000/svg"
      width="13.48864"
      height="19.16"
      role="img"
      focusable="false"
      viewBox="0 -750 704 1000"
    >
      <g
        stroke="none"
        fill="#000000"
        stroke-width="0"
        transform="scale(1,-1)"
        fill-opacity="1"
      >
        <g data-mml-node="math">
          <g data-mml-node="mtable">
            <g data-mml-node="mtr">
              <g data-mml-node="mtd">
                <g data-mml-node="mi">
                  <path
                    data-c="1D447"
                    d="M40 437Q21 437 21 445Q21 450 37 501T71 602L88 651Q93 669 101 677H569H659Q691 677 697 676T704 667Q704 661 687 553T668 444Q668 437 649 437Q640 437 637 437T631 442L629 445Q629 451 635 490T641 551Q641 586 628 604T573 629Q568 630 515 631Q469 631 457 630T439 622Q438 621 368 343T298 60Q298 48 386 46Q418 46 427 45T436 36Q436 31 433 22Q429 4 424 1L422 0Q419 0 415 0Q410 0 363 1T228 2Q99 2 64 0H49Q43 6 43 9T45 27Q49 40 55 46H83H94Q174 46 189 55Q190 56 191 56Q196 59 201 76T241 233Q258 301 269 344Q339 619 339 625Q339 630 310 630H279Q212 630 191 624Q146 614 121 583T67 467Q60 445 57 441T43 437H40Z"
                  ></path>
                </g>
              </g>
            </g>
          </g>
        </g>
      </g>
    </svg>
  </g>
  <g
    transform="rotate(0, 413.0255111689617, 505.15996252533165)translate(413.0255111689617, 505.15996252533165)"
  >
    <title>`Z`.text</title>
    <svg
      style="font-size: 13.5px"
      xmlns="http://www.w3.org/2000/svg"
      width="13.85268"
      height="19.16"
      role="img"
      focusable="false"
      viewBox="0 -750 723 1000"
    >
      <g
        stroke="none"
        fill="#000000"
        stroke-width="0"
        transform="scale(1,-1)"
        fill-opacity="1"
      >
        <g data-mml-node="math">
          <g data-mml-node="mtable">
            <g data-mml-node="mtr">
              <g data-mml-node="mtd">
                <g data-mml-node="mi">
                  <path
                    data-c="1D44D"
                    d="M58 8Q58 23 64 35Q64 36 329 334T596 635L586 637Q575 637 512 637H500H476Q442 637 420 635T365 624T311 598T266 548T228 469Q227 466 226 463T224 458T223 453T222 450L221 448Q218 443 202 443Q185 443 182 453L214 561Q228 606 241 651Q249 679 253 681Q256 683 487 683H718Q723 678 723 675Q723 673 717 649Q189 54 188 52L185 49H274Q369 50 377 51Q452 60 500 100T579 247Q587 272 590 277T603 282H607Q628 282 628 271Q547 5 541 2Q538 0 300 0H124Q58 0 58 8Z"
                  ></path>
                </g>
              </g>
            </g>
          </g>
        </g>
      </g>
    </svg>
  </g>
  <g
    transform="rotate(0, 667.046301859233, 619.0309558549308)translate(667.046301859233, 619.0309558549308)"
  >
    <title>`X`.text</title>
    <svg
      style="font-size: 13.5px"
      xmlns="http://www.w3.org/2000/svg"
      width="16.32432"
      height="19.16"
      role="img"
      focusable="false"
      viewBox="0 -750 852 1000"
    >
      <g
        stroke="none"
        fill="#000000"
        stroke-width="0"
        transform="scale(1,-1)"
        fill-opacity="1"
      >
        <g data-mml-node="math">
          <g data-mml-node="mtable">
            <g data-mml-node="mtr">
              <g data-mml-node="mtd">
                <g data-mml-node="mi">
                  <path
                    data-c="1D44B"
                    d="M42 0H40Q26 0 26 11Q26 15 29 27Q33 41 36 43T55 46Q141 49 190 98Q200 108 306 224T411 342Q302 620 297 625Q288 636 234 637H206Q200 643 200 645T202 664Q206 677 212 683H226Q260 681 347 681Q380 681 408 681T453 682T473 682Q490 682 490 671Q490 670 488 658Q484 643 481 640T465 637Q434 634 411 620L488 426L541 485Q646 598 646 610Q646 628 622 635Q617 635 609 637Q594 637 594 648Q594 650 596 664Q600 677 606 683H618Q619 683 643 683T697 681T738 680Q828 680 837 683H845Q852 676 852 672Q850 647 840 637H824Q790 636 763 628T722 611T698 593L687 584Q687 585 592 480L505 384Q505 383 536 304T601 142T638 56Q648 47 699 46Q734 46 734 37Q734 35 732 23Q728 7 725 4T711 1Q708 1 678 1T589 2Q528 2 496 2T461 1Q444 1 444 10Q444 11 446 25Q448 35 450 39T455 44T464 46T480 47T506 54Q523 62 523 64Q522 64 476 181L429 299Q241 95 236 84Q232 76 232 72Q232 53 261 47Q262 47 267 47T273 46Q276 46 277 46T280 45T283 42T284 35Q284 26 282 19Q279 6 276 4T261 1Q258 1 243 1T201 2T142 2Q64 2 42 0Z"
                  ></path>
                </g>
              </g>
            </g>
          </g>
        </g>
      </g>
    </svg>
  </g>
  <g
    transform="rotate(0, 628.4636568429178, 300.37202912556364)translate(628.4636568429178, 300.37202912556364)"
  >
    <title>`Y`.text</title>
    <svg
      style="font-size: 13.5px"
      xmlns="http://www.w3.org/2000/svg"
      width="14.61908"
      height="19.16"
      role="img"
      focusable="false"
      viewBox="0 -750 763 1000"
    >
      <g
        stroke="none"
        fill="#000000"
        stroke-width="0"
        transform="scale(1,-1)"
        fill-opacity="1"
      >
        <g data-mml-node="math">
          <g data-mml-node="mtable">
            <g data-mml-node="mtr">
              <g data-mml-node="mtd">
                <g data-mml-node="mi">
                  <path
                    data-c="1D44C"
                    d="M66 637Q54 637 49 637T39 638T32 641T30 647T33 664T42 682Q44 683 56 683Q104 680 165 680Q288 680 306 683H316Q322 677 322 674T320 656Q316 643 310 637H298Q242 637 242 624Q242 619 292 477T343 333L346 336Q350 340 358 349T379 373T411 410T454 461Q546 568 561 587T577 618Q577 634 545 637Q528 637 528 647Q528 649 530 661Q533 676 535 679T549 683Q551 683 578 682T657 680Q684 680 713 681T746 682Q763 682 763 673Q763 669 760 657T755 643Q753 637 734 637Q662 632 617 587Q608 578 477 424L348 273L322 169Q295 62 295 57Q295 46 363 46Q379 46 384 45T390 35Q390 33 388 23Q384 6 382 4T366 1Q361 1 324 1T232 2Q170 2 138 2T102 1Q84 1 84 9Q84 14 87 24Q88 27 89 30T90 35T91 39T93 42T96 44T101 45T107 45T116 46T129 46Q168 47 180 50T198 63Q201 68 227 171L252 274L129 623Q128 624 127 625T125 627T122 629T118 631T113 633T105 634T96 635T83 636T66 637Z"
                  ></path>
                </g>
              </g>
            </g>
          </g>
        </g>
      </g>
    </svg>
  </g>
  <g>
    <filter id="`XZ`.tick-shadow" x="0" y="0" width="200%" height="200%">
      <feOffset result="offOut" in="SourceAlpha" dx="5" dy="5"></feOffset>
      <feGaussianBlur
        result="blurOut"
        in="offOut"
        stdDeviation="4"
      ></feGaussianBlur>
      <feBlend in="SourceGraphic" in2="blurOut" mode="normal"></feBlend>
      <feComponentTransfer>
        <feFuncA type="linear" slope="0.5"></feFuncA>
      </feComponentTransfer>
      <feMerge>
        <feMergeNode></feMergeNode>
        <feMergeNode in="SourceGraphic"></feMergeNode>
      </feMerge>
    </filter>
    <path
      stroke="#000000"
      fill="none"
      stroke-width="2"
      stroke-opacity="1"
      d="M 554.6368718964154 536.3335275399895 L 546.59634786484 554.6460900383145 M 568.3712937701591 542.363920563671 L 560.3307697385837 560.6764830619959"
    ></path>
    <title>`XZ`.tick</title>
  </g>
  <g>
    <filter id="`US`.tick-shadow" x="0" y="0" width="200%" height="200%">
      <feOffset result="offOut" in="SourceAlpha" dx="5" dy="5"></feOffset>
      <feGaussianBlur
        result="blurOut"
        in="offOut"
        stdDeviation="4"
      ></feGaussianBlur>
      <feBlend in="SourceGraphic" in2="blurOut" mode="normal"></feBlend>
      <feComponentTransfer>
        <feFuncA type="linear" slope="0.5"></feFuncA>
      </feComponentTransfer>
      <feMerge>
        <feMergeNode></feMergeNode>
        <feMergeNode in="SourceGraphic"></feMergeNode>
      </feMerge>
    </filter>
    <path
      stroke="#000000"
      fill="none"
      stroke-width="2"
      stroke-opacity="1"
      d="M 342.01821146365023 232.82300938520078 L 343.5951493344513 252.76074343170242 M 356.97151199852647 231.64030598209993 L 358.54844986932756 251.57804002860158"
    ></path>
    <title>`US`.tick</title>
  </g>
  <g>
    <filter id="`XYZ`.icon-shadow" x="0" y="0" width="200%" height="200%">
      <feOffset result="offOut" in="SourceAlpha" dx="5" dy="5"></feOffset>
      <feGaussianBlur
        result="blurOut"
        in="offOut"
        stdDeviation="4"
      ></feGaussianBlur>
      <feBlend in="SourceGraphic" in2="blurOut" mode="normal"></feBlend>
      <feComponentTransfer>
        <feFuncA type="linear" slope="0.5"></feFuncA>
      </feComponentTransfer>
      <feMerge>
        <feMergeNode></feMergeNode>
        <feMergeNode in="SourceGraphic"></feMergeNode>
      </feMerge>
    </filter>
    <path
      stroke="none"
      fill="none"
      d="M 688.0891168693375 605.8500667391103 L 656.8083831808842 322.29001303364737 L 426.8785247656616 491.15994386287514 Z "
    ></path>
    <title>`XYZ`.icon</title>
  </g>
  <g>
    <filter id="`UTS`.icon-shadow" x="0" y="0" width="200%" height="200%">
      <feOffset result="offOut" in="SourceAlpha" dx="5" dy="5"></feOffset>
      <feGaussianBlur
        result="blurOut"
        in="offOut"
        stdDeviation="4"
      ></feGaussianBlur>
      <feBlend in="SourceGraphic" in2="blurOut" mode="normal"></feBlend>
      <feComponentTransfer>
        <feFuncA type="linear" slope="0.5"></feFuncA>
      </feComponentTransfer>
      <feMerge>
        <feMergeNode></feMergeNode>
        <feMergeNode in="SourceGraphic"></feMergeNode>
      </feMerge>
    </filter>
    <path
      stroke="none"
      fill="none"
      d="M 492.4793604326596 230.95379506887684 L 369.76323515627496 488.4912595891788 L 208.08730090031818 253.4472543449255 Z "
    ></path>
    <title>`UTS`.icon</title>
  </g>
  <g>
    <filter id="`ZY`.tick-shadow" x="0" y="0" width="200%" height="200%">
      <feOffset result="offOut" in="SourceAlpha" dx="5" dy="5"></feOffset>
      <feGaussianBlur
        result="blurOut"
        in="offOut"
        stdDeviation="4"
      ></feGaussianBlur>
      <feBlend in="SourceGraphic" in2="blurOut" mode="normal"></feBlend>
      <feComponentTransfer>
        <feFuncA type="linear" slope="0.5"></feFuncA>
      </feComponentTransfer>
      <feMerge>
        <feMergeNode></feMergeNode>
        <feMergeNode in="SourceGraphic"></feMergeNode>
      </feMerge>
    </filter>
    <path
      stroke="#000000"
      fill="none"
      stroke-width="2"
      stroke-opacity="1"
      d="M 547.7628947217753 414.7847684091919 L 535.9240132247705 398.6651884873306 M 559.8525796631712 405.9056072864382 L 548.0136981661665 389.78602736457697 M 535.6732097803794 423.66392953194554 L 523.8343282833746 407.5443496100842"
    ></path>
    <title>`ZY`.tick</title>
  </g>
  <g>
    <filter id="`UT`.tick-shadow" x="0" y="0" width="200%" height="200%">
      <feOffset result="offOut" in="SourceAlpha" dx="5" dy="5"></feOffset>
      <feGaussianBlur
        result="blurOut"
        in="offOut"
        stdDeviation="4"
      ></feGaussianBlur>
      <feBlend in="SourceGraphic" in2="blurOut" mode="normal"></feBlend>
      <feComponentTransfer>
        <feFuncA type="linear" slope="0.5"></feFuncA>
      </feComponentTransfer>
      <feMerge>
        <feMergeNode></feMergeNode>
        <feMergeNode in="SourceGraphic"></feMergeNode>
      </feMerge>
    </filter>
    <path
      stroke="#000000"
      fill="none"
      stroke-width="2"
      stroke-opacity="1"
      d="M 422.09377136023545 355.4209276883599 L 440.1488242286991 364.02412696969577 M 415.6413718992335 368.96221733970765 L 433.6964247676972 377.56541662104354 M 428.54617082123735 341.8796380370121 L 446.60122368970104 350.48283731834806"
    ></path>
    <title>`UT`.tick</title>
  </g>
  <g>
    <filter id="`ST`.tick-shadow" x="0" y="0" width="200%" height="200%">
      <feOffset result="offOut" in="SourceAlpha" dx="5" dy="5"></feOffset>
      <feGaussianBlur
        result="blurOut"
        in="offOut"
        stdDeviation="4"
      ></feGaussianBlur>
      <feBlend in="SourceGraphic" in2="blurOut" mode="normal"></feBlend>
      <feComponentTransfer>
        <feFuncA type="linear" slope="0.5"></feFuncA>
      </feComponentTransfer>
      <feMerge>
        <feMergeNode></feMergeNode>
        <feMergeNode in="SourceGraphic"></feMergeNode>
      </feMerge>
    </filter>
    <path
      stroke="#000000"
      fill="none"
      stroke-width="2"
      stroke-opacity="1"
      d="M 280.6862105131571 376.6365247612871 L 297.1643255434361 365.30198917281723"
    ></path>
    <title>`ST`.tick</title>
  </g>
  <g>
    <filter id="`XY`.tick-shadow" x="0" y="0" width="200%" height="200%">
      <feOffset result="offOut" in="SourceAlpha" dx="5" dy="5"></feOffset>
      <feGaussianBlur
        result="blurOut"
        in="offOut"
        stdDeviation="4"
      ></feGaussianBlur>
      <feBlend in="SourceGraphic" in2="blurOut" mode="normal"></feBlend>
      <feComponentTransfer>
        <feFuncA type="linear" slope="0.5"></feFuncA>
      </feComponentTransfer>
      <feMerge>
        <feMergeNode></feMergeNode>
        <feMergeNode in="SourceGraphic"></feMergeNode>
      </feMerge>
    </filter>
    <path
      stroke="#000000"
      fill="none"
      stroke-width="2"
      stroke-opacity="1"
      d="M 682.3884532012621 462.97354831807627 L 662.5090468489597 465.1665314546814"
    ></path>
    <title>`XY`.tick</title>
  </g>
  <g>
    <filter id="`aTUS`.mark-shadow" x="0" y="0" width="200%" height="200%">
      <feOffset result="offOut" in="SourceAlpha" dx="5" dy="5"></feOffset>
      <feGaussianBlur
        result="blurOut"
        in="offOut"
        stdDeviation="4"
      ></feGaussianBlur>
      <feBlend in="SourceGraphic" in2="blurOut" mode="normal"></feBlend>
      <feComponentTransfer>
        <feFuncA type="linear" slope="0.5"></feFuncA>
      </feComponentTransfer>
      <feMerge>
        <feMergeNode></feMergeNode>
        <feMergeNode in="SourceGraphic"></feMergeNode>
      </feMerge>
    </filter>
    <path
      stroke="#000000"
      fill="none"
      stroke-width="2"
      stroke-opacity="1"
      d="M 479.5745615106557 258.0363743715724 A 30 30 0 0 1 462.5727593629071 233.31920187507853"
    ></path>
    <title>`aTUS`.mark</title>
  </g>
  <g>
    <filter id="`aUTS`.mark-shadow" x="0" y="0" width="200%" height="200%">
      <feOffset result="offOut" in="SourceAlpha" dx="5" dy="5"></feOffset>
      <feGaussianBlur
        result="blurOut"
        in="offOut"
        stdDeviation="4"
      ></feGaussianBlur>
      <feBlend in="SourceGraphic" in2="blurOut" mode="normal"></feBlend>
      <feComponentTransfer>
        <feFuncA type="linear" slope="0.5"></feFuncA>
      </feComponentTransfer>
      <feMerge>
        <feMergeNode></feMergeNode>
        <feMergeNode in="SourceGraphic"></feMergeNode>
      </feMerge>
    </filter>
    <path
      stroke="#000000"
      fill="none"
      stroke-width="2"
      stroke-opacity="1"
      d="M 382.6680340782788 461.40868028648333 A 30 30 0 0 0 352.7614317735702 463.7740870437603 M 386.9696337012268 452.38115388943936 A 40 40 0 0 0 347.09416400268094 455.5350295625607 M 391.27123332417483 443.3536274923954 A 50 50 0 0 0 341.42689623179166 447.295972081361"
    ></path>
    <title>`aUTS`.mark</title>
  </g>
  <g>
    <filter id="`aUST`.mark-shadow" x="0" y="0" width="200%" height="200%">
      <feOffset result="offOut" in="SourceAlpha" dx="5" dy="5"></feOffset>
      <feGaussianBlur
        result="blurOut"
        in="offOut"
        stdDeviation="4"
      ></feGaussianBlur>
      <feBlend in="SourceGraphic" in2="blurOut" mode="normal"></feBlend>
      <feComponentTransfer>
        <feFuncA type="linear" slope="0.5"></feFuncA>
      </feComponentTransfer>
      <feMerge>
        <feMergeNode></feMergeNode>
        <feMergeNode in="SourceGraphic"></feMergeNode>
      </feMerge>
    </filter>
    <path
      stroke="#000000"
      fill="none"
      stroke-width="2"
      stroke-opacity="1"
      d="M 237.99390197007065 251.08184753872382 A 30 30 0 0 1 225.08910428302295 278.164426890344 M 247.96276895225586 250.29337860657128 A 40 40 0 0 1 230.7563720539122 286.40348437154364"
    ></path>
    <title>`aUST`.mark</title>
  </g>
  <g>
    <filter id="`aYZX`.mark-shadow" x="0" y="0" width="200%" height="200%">
      <feOffset result="offOut" in="SourceAlpha" dx="5" dy="5"></feOffset>
      <feGaussianBlur
        result="blurOut"
        in="offOut"
        stdDeviation="4"
      ></feGaussianBlur>
      <feBlend in="SourceGraphic" in2="blurOut" mode="normal"></feBlend>
      <feComponentTransfer>
        <feFuncA type="linear" slope="0.5"></feFuncA>
      </feComponentTransfer>
      <feMerge>
        <feMergeNode></feMergeNode>
        <feMergeNode in="SourceGraphic"></feMergeNode>
      </feMerge>
    </filter>
    <path
      stroke="#000000"
      fill="none"
      stroke-width="2"
      stroke-opacity="1"
      d="M 451.0578946484535 473.4016216173678 A 30 30 0 0 1 454.34736851314904 503.2207299102381 M 459.11768457618274 467.4821808932499 A 40 40 0 0 1 463.50364972459323 507.2409919094647"
    ></path>
    <title>`aYZX`.mark</title>
  </g>
  <g>
    <filter id="`aXYZ`.mark-shadow" x="0" y="0" width="200%" height="200%">
      <feOffset result="offOut" in="SourceAlpha" dx="5" dy="5"></feOffset>
      <feGaussianBlur
        result="blurOut"
        in="offOut"
        stdDeviation="4"
      ></feGaussianBlur>
      <feBlend in="SourceGraphic" in2="blurOut" mode="normal"></feBlend>
      <feComponentTransfer>
        <feFuncA type="linear" slope="0.5"></feFuncA>
      </feComponentTransfer>
      <feMerge>
        <feMergeNode></feMergeNode>
        <feMergeNode in="SourceGraphic"></feMergeNode>
      </feMerge>
    </filter>
    <path
      stroke="#000000"
      fill="none"
      stroke-width="2"
      stroke-opacity="1"
      d="M 660.0978578857919 352.109122562101 A 30 30 0 0 1 632.6290132980923 340.0483352791546"
    ></path>
    <title>`aXYZ`.mark</title>
  </g>
  <g>
    <filter id="`aZXY`.mark-shadow" x="0" y="0" width="200%" height="200%">
      <feOffset result="offOut" in="SourceAlpha" dx="5" dy="5"></feOffset>
      <feGaussianBlur
        result="blurOut"
        in="offOut"
        stdDeviation="4"
      ></feGaussianBlur>
      <feBlend in="SourceGraphic" in2="blurOut" mode="normal"></feBlend>
      <feComponentTransfer>
        <feFuncA type="linear" slope="0.5"></feFuncA>
      </feComponentTransfer>
      <feMerge>
        <feMergeNode></feMergeNode>
        <feMergeNode in="SourceGraphic"></feMergeNode>
      </feMerge>
    </filter>
    <path
      stroke="#000000"
      fill="none"
      stroke-width="2"
      stroke-opacity="1"
      d="M 660.6202731218501 593.7892806917473 A 30 30 0 0 1 684.7996421644299 576.0309572106567 M 651.4639919104059 589.7690186925207 A 40 40 0 0 1 683.7031506006442 566.0912540754509 M 642.3077106989617 585.748756693294 A 50 50 0 0 1 682.6066590368586 556.1515509402452"
    ></path>
    <title>`aZXY`.mark</title>
  </g>
</svg>
