<?xml version="1.0" encoding="UTF-8"?>
<!DOCTYPE svg PUBLIC "-//W3C//DTD SVG 1.1//EN"
    "http://www.w3.org/Graphics/SVG/1.1/DTD/svg11.dtd">
<svg xmlns="http://www.w3.org/2000/svg" height="500.0000" stroke-opacity="1" viewBox="0 0 500 500" font-size="1" width="500.0000" xmlns:xlink="http://www.w3.org/1999/xlink" stroke="rgb(0,0,0)" version="1.1">
  <defs>
  </defs>
  <defs>
  </defs>
  <g stroke-linejoin="miter" stroke-opacity="1.0" fill-opacity="1.0" font-size="18.095101031291875px" stroke="rgb(0,0,0)" stroke-width="1.9186616385676478" fill="rgb(0,0,0)" stroke-linecap="butt" stroke-miterlimit="10.0">
    <text dominant-baseline="text-after-edge" transform="matrix(1.0000,0.0000,0.0000,1.0000,253.8901,226.1888)" stroke="none" text-anchor="start">x = -115.31, y = -19.12, r = 36.49
    </text>
  </g>
  <defs>
  </defs>
  <g stroke-linejoin="miter" stroke-opacity="1.0" fill-opacity="1.0" opacity="5.0e-2" stroke="rgb(0,0,0)" stroke-width="1.9186616385676478" fill="rgb(255,0,0)" stroke-linecap="butt" stroke-miterlimit="10.0">
    <path d="M 182.5798,243.4834 c 0.0000,-18.2346 -14.7821,-33.0166 -33.0166 -33.0166c -18.2346,-0.0000 -33.0166,14.7821 -33.0166 33.0166c -0.0000,18.2346 14.7821,33.0166 33.0166 33.0166c 18.2346,0.0000 33.0166,-14.7821 33.0166 -33.0166Z"/>
  </g>
  <defs>
  </defs>
  <g stroke-linejoin="miter" stroke-opacity="1.0" fill-opacity="1.0" font-size="18.095101031291875px" stroke="rgb(0,0,0)" stroke-width="1.9186616385676478" fill="rgb(0,0,0)" stroke-linecap="butt" stroke-miterlimit="10.0">
    <text dominant-baseline="text-before-edge" transform="matrix(1.0000,0.0000,0.0000,1.0000,253.8901,226.1888)" stroke="none" text-anchor="start">x = -174.62, y = 71.53, r = 63.75
    </text>
  </g>
  <defs>
  </defs>
  <g stroke-linejoin="miter" stroke-opacity="1.0" fill-opacity="1.0" opacity="5.0e-2" stroke="rgb(0,0,0)" stroke-width="1.9186616385676478" fill="rgb(255,0,0)" stroke-linecap="butt" stroke-miterlimit="10.0">
    <path d="M 153.5826,161.4742 c 0.0000,-31.8572 -25.8254,-57.6825 -57.6825 -57.6825c -31.8572,-0.0000 -57.6825,25.8254 -57.6825 57.6825c -0.0000,31.8572 25.8254,57.6825 57.6825 57.6825c 31.8572,0.0000 57.6825,-25.8254 57.6825 -57.6825Z"/>
  </g>
  <defs>
  </defs>
  <g stroke-linejoin="miter" stroke-opacity="1.0" fill-opacity="1.0" font-size="18.095101031291875px" stroke="rgb(0,0,0)" stroke-width="1.9186616385676478" fill="rgb(0,0,0)" stroke-linecap="butt" stroke-miterlimit="10.0">
    <text dominant-baseline="text-before-edge" transform="matrix(1.0000,0.0000,0.0000,1.0000,253.8901,226.1888)" stroke="none" text-anchor="end">x = 61.54, y = 59.53, r = 31.99
    </text>
  </g>
  <defs>
  </defs>
  <g stroke-linejoin="miter" stroke-opacity="1.0" fill-opacity="1.0" opacity="5.0e-2" stroke="rgb(0,0,0)" stroke-width="1.9186616385676478" fill="rgb(255,0,0)" stroke-linecap="butt" stroke-miterlimit="10.0">
    <path d="M 338.5139,172.3278 c 0.0000,-15.9844 -12.9579,-28.9423 -28.9423 -28.9423c -15.9844,-0.0000 -28.9423,12.9579 -28.9423 28.9423c -0.0000,15.9844 12.9579,28.9423 28.9423 28.9423c 15.9844,0.0000 28.9423,-12.9579 28.9423 -28.9423Z"/>
  </g>
  <defs>
  </defs>
  <g stroke-linejoin="miter" stroke-opacity="1.0" fill-opacity="1.0" font-size="18.095101031291875px" stroke="rgb(0,0,0)" stroke-width="1.9186616385676478" fill="rgb(0,0,0)" stroke-linecap="butt" stroke-miterlimit="10.0">
    <text dominant-baseline="text-after-edge" transform="matrix(1.0000,0.0000,0.0000,1.0000,253.8901,226.1888)" stroke="none" text-anchor="start">x = -182.65, y = -117.13, r = 59.8
    </text>
  </g>
  <defs>
  </defs>
  <g stroke-linejoin="miter" stroke-opacity="1.0" fill-opacity="1.0" opacity="0.5" stroke="rgb(0,0,0)" stroke-width="1.9186616385676478" fill="rgb(0,128,0)" stroke-linecap="butt" stroke-miterlimit="10.0">
    <path d="M 142.7450,332.1660 c 0.0000,-29.8829 -24.2249,-54.1079 -54.1079 -54.1079c -29.8829,-0.0000 -54.1079,24.2249 -54.1079 54.1079c -0.0000,29.8829 24.2249,54.1079 54.1079 54.1079c 29.8829,0.0000 54.1079,-24.2249 54.1079 -54.1079Z"/>
  </g>
  <defs>
  </defs>
  <g stroke-linejoin="miter" stroke-opacity="1.0" fill-opacity="1.0" font-size="18.095101031291875px" stroke="rgb(0,0,0)" stroke-width="1.9186616385676478" fill="rgb(0,0,0)" stroke-linecap="butt" stroke-miterlimit="10.0">
    <text dominant-baseline="text-after-edge" transform="matrix(1.0000,0.0000,0.0000,1.0000,253.8901,226.1888)" stroke="none" text-anchor="start">x = -183.53, y = -227.57, r = 75.07
    </text>
  </g>
  <defs>
  </defs>
  <g stroke-linejoin="miter" stroke-opacity="1.0" fill-opacity="1.0" opacity="0.5" stroke="rgb(0,0,0)" stroke-width="1.9186616385676478" fill="rgb(0,128,0)" stroke-linecap="butt" stroke-miterlimit="10.0">
    <path d="M 155.7585,432.0813 c 0.0000,-37.5105 -30.4082,-67.9187 -67.9187 -67.9187c -37.5105,-0.0000 -67.9187,30.4082 -67.9187 67.9187c -0.0000,37.5105 30.4082,67.9187 67.9187 67.9187c 37.5105,0.0000 67.9187,-30.4082 67.9187 -67.9187Z"/>
  </g>
  <defs>
  </defs>
  <g stroke-linejoin="miter" stroke-opacity="1.0" fill-opacity="0.0" opacity="0.5" stroke="rgb(0,0,0)" stroke-width="1.9186616385676478" fill="rgb(0,0,0)" stroke-linecap="butt" stroke-miterlimit="10.0">
    <path d="M 480.0789,452.3775 l -0.0000,-452.3775 h -452.3775 l -0.0000,452.3775 Z"/>
  </g>
</svg>