<?xml version="1.0" encoding="UTF-8"?>
<!DOCTYPE svg PUBLIC "-//W3C//DTD SVG 1.1//EN"
    "http://www.w3.org/Graphics/SVG/1.1/DTD/svg11.dtd">
<svg xmlns="http://www.w3.org/2000/svg" height="500.0000" stroke-opacity="1" viewBox="0 0 500 500" font-size="1" width="500.0000" xmlns:xlink="http://www.w3.org/1999/xlink" stroke="rgb(0,0,0)" version="1.1">
  <defs>
  </defs>
  <defs>
  </defs>
  <g stroke-linejoin="miter" stroke-opacity="1.0" fill-opacity="0.0" opacity="0.2" stroke="rgb(0,0,0)" stroke-width="0.8" fill="rgb(0,0,0)" stroke-linecap="butt" stroke-miterlimit="10.0">
    <path d="M 439.7628,474.3888 l -0.0000,-56.8750 h -56.8750 l -0.0000,56.8750 Z"/>
  </g>
  <defs>
  </defs>
  <g stroke-linejoin="miter" stroke-opacity="1.0" fill-opacity="1.0" opacity="0.4" stroke="rgb(0,0,0)" stroke-width="0.0" fill="rgb(0,128,0)" stroke-linecap="butt" stroke-miterlimit="10.0">
    <path d="M 418.5357,445.6606 c 0.0000,-8.8144 -7.1455,-15.9598 -15.9598 -15.9598c -8.8144,-0.0000 -15.9598,7.1455 -15.9598 15.9598c -0.0000,8.8144 7.1455,15.9598 15.9598 15.9598c 8.8144,0.0000 15.9598,-7.1455 15.9598 -15.9598Z"/>
  </g>
  <defs>
  </defs>
  <g stroke-linejoin="miter" stroke-opacity="1.0" fill-opacity="1.0" opacity="0.4" stroke="rgb(0,0,0)" stroke-width="0.0" fill="rgb(0,0,255)" stroke-linecap="butt" stroke-miterlimit="10.0">
    <path d="M 432.9754,424.6422 c 0.0000,-6.6590 -5.3982,-12.0573 -12.0573 -12.0573c -6.6590,-0.0000 -12.0573,5.3982 -12.0573 12.0573c -0.0000,6.6590 5.3982,12.0573 12.0573 12.0573c 6.6590,0.0000 12.0573,-5.3982 12.0573 -12.0573Z"/>
  </g>
  <defs>
  </defs>
  <g stroke-linejoin="miter" stroke-opacity="1.0" fill-opacity="0.0" opacity="0.2" stroke="rgb(0,0,0)" stroke-width="0.8" fill="rgb(0,0,0)" stroke-linecap="butt" stroke-miterlimit="10.0">
    <path d="M 356.7201,474.3888 l -0.0000,-56.8750 h -56.8750 l -0.0000,56.8750 Z"/>
  </g>
  <defs>
  </defs>
  <g stroke-linejoin="miter" stroke-opacity="1.0" fill-opacity="1.0" opacity="0.4" stroke="rgb(0,0,0)" stroke-width="0.0" fill="rgb(0,128,0)" stroke-linecap="butt" stroke-miterlimit="10.0">
    <path d="M 364.2647,456.7330 c 0.0000,-13.7460 -11.1434,-24.8894 -24.8894 -24.8894c -13.7460,-0.0000 -24.8894,11.1434 -24.8894 24.8894c -0.0000,13.7460 11.1434,24.8894 24.8894 24.8894c 13.7460,0.0000 24.8894,-11.1434 24.8894 -24.8894Z"/>
  </g>
  <defs>
  </defs>
  <g stroke-linejoin="miter" stroke-opacity="1.0" fill-opacity="1.0" opacity="0.4" stroke="rgb(0,0,0)" stroke-width="0.0" fill="rgb(0,0,255)" stroke-linecap="butt" stroke-miterlimit="10.0">
    <path d="M 371.8180,445.1138 c 0.0000,-14.0823 -11.4160,-25.4983 -25.4983 -25.4983c -14.0823,-0.0000 -25.4983,11.4160 -25.4983 25.4983c -0.0000,14.0823 11.4160,25.4983 25.4983 25.4983c 14.0823,0.0000 25.4983,-11.4160 25.4983 -25.4983Z"/>
  </g>
  <defs>
  </defs>
  <g stroke-linejoin="miter" stroke-opacity="1.0" fill-opacity="0.0" opacity="0.2" stroke="rgb(0,0,0)" stroke-width="0.8" fill="rgb(0,0,0)" stroke-linecap="butt" stroke-miterlimit="10.0">
    <path d="M 273.6773,474.3888 l -0.0000,-56.8750 h -56.8750 l -0.0000,56.8750 Z"/>
  </g>
  <defs>
  </defs>
  <g stroke-linejoin="miter" stroke-opacity="1.0" fill-opacity="1.0" opacity="0.15" stroke="rgb(0,0,0)" stroke-width="0.0" fill="rgb(255,0,0)" stroke-linecap="butt" stroke-miterlimit="10.0">
    <path d="M 281.8584,441.3884 c 0.0000,-12.6931 -10.2898,-22.9829 -22.9829 -22.9829c -12.6931,-0.0000 -22.9829,10.2898 -22.9829 22.9829c -0.0000,12.6931 10.2898,22.9829 22.9829 22.9829c 12.6931,0.0000 22.9829,-10.2898 22.9829 -22.9829Z"/>
  </g>
  <defs>
  </defs>
  <g stroke-linejoin="miter" stroke-opacity="1.0" fill-opacity="1.0" opacity="0.4" stroke="rgb(0,0,0)" stroke-width="0.0" fill="rgb(0,128,0)" stroke-linecap="butt" stroke-miterlimit="10.0">
    <path d="M 250.9549,437.4903 c 0.0000,-11.9849 -9.7157,-21.7007 -21.7007 -21.7007c -11.9849,-0.0000 -21.7007,9.7157 -21.7007 21.7007c -0.0000,11.9849 9.7157,21.7007 21.7007 21.7007c 11.9849,0.0000 21.7007,-9.7157 21.7007 -21.7007Z"/>
  </g>
  <defs>
  </defs>
  <g stroke-linejoin="miter" stroke-opacity="1.0" fill-opacity="1.0" opacity="0.4" stroke="rgb(0,0,0)" stroke-width="0.0" fill="rgb(0,0,255)" stroke-linecap="butt" stroke-miterlimit="10.0">
    <path d="M 230.5581,427.2809 c 0.0000,-5.7979 -4.7001,-10.4980 -10.4980 -10.4980c -5.7979,-0.0000 -10.4980,4.7001 -10.4980 10.4980c -0.0000,5.7979 4.7001,10.4980 10.4980 10.4980c 5.7979,0.0000 10.4980,-4.7001 10.4980 -10.4980Z"/>
  </g>
  <defs>
  </defs>
  <g stroke-linejoin="miter" stroke-opacity="1.0" fill-opacity="0.0" opacity="0.2" stroke="rgb(0,0,0)" stroke-width="0.8" fill="rgb(0,0,0)" stroke-linecap="butt" stroke-miterlimit="10.0">
    <path d="M 190.6346,474.3888 l -0.0000,-56.8750 h -56.8750 l -0.0000,56.8750 Z"/>
  </g>
  <defs>
  </defs>
  <g stroke-linejoin="miter" stroke-opacity="1.0" fill-opacity="1.0" opacity="0.4" stroke="rgb(0,0,0)" stroke-width="0.0" fill="rgb(0,128,0)" stroke-linecap="butt" stroke-miterlimit="10.0">
    <path d="M 195.0134,425.0730 c 0.0000,-9.2065 -7.4633,-16.6698 -16.6698 -16.6698c -9.2065,-0.0000 -16.6698,7.4633 -16.6698 16.6698c -0.0000,9.2065 7.4633,16.6698 16.6698 16.6698c 9.2065,0.0000 16.6698,-7.4633 16.6698 -16.6698Z"/>
  </g>
  <defs>
  </defs>
  <g stroke-linejoin="miter" stroke-opacity="1.0" fill-opacity="1.0" opacity="0.4" stroke="rgb(0,0,0)" stroke-width="0.0" fill="rgb(0,0,255)" stroke-linecap="butt" stroke-miterlimit="10.0">
    <path d="M 187.4797,429.8588 c 0.0000,-7.5168 -6.0935,-13.6103 -13.6103 -13.6103c -7.5168,-0.0000 -13.6103,6.0935 -13.6103 13.6103c -0.0000,7.5168 6.0935,13.6103 13.6103 13.6103c 7.5168,0.0000 13.6103,-6.0935 13.6103 -13.6103Z"/>
  </g>
  <defs>
  </defs>
  <g stroke-linejoin="miter" stroke-opacity="1.0" fill-opacity="0.0" opacity="0.2" stroke="rgb(0,0,0)" stroke-width="0.8" fill="rgb(0,0,0)" stroke-linecap="butt" stroke-miterlimit="10.0">
    <path d="M 107.5919,474.3888 l -0.0000,-56.8750 h -56.8750 l -0.0000,56.8750 Z"/>
  </g>
  <defs>
  </defs>
  <g stroke-linejoin="miter" stroke-opacity="1.0" fill-opacity="1.0" opacity="0.15" stroke="rgb(0,0,0)" stroke-width="0.0" fill="rgb(255,0,0)" stroke-linecap="butt" stroke-miterlimit="10.0">
    <path d="M 102.9350,467.3520 c 0.0000,-8.5699 -6.9472,-15.5171 -15.5171 -15.5171c -8.5699,-0.0000 -15.5171,6.9472 -15.5171 15.5171c -0.0000,8.5699 6.9472,15.5171 15.5171 15.5171c 8.5699,0.0000 15.5171,-6.9472 15.5171 -15.5171Z"/>
  </g>
  <defs>
  </defs>
  <g stroke-linejoin="miter" stroke-opacity="1.0" fill-opacity="1.0" opacity="0.4" stroke="rgb(0,0,0)" stroke-width="0.0" fill="rgb(0,128,0)" stroke-linecap="butt" stroke-miterlimit="10.0">
    <path d="M 84.2968,435.5247 c 0.0000,-5.8783 -4.7653,-10.6437 -10.6437 -10.6437c -5.8783,-0.0000 -10.6437,4.7653 -10.6437 10.6437c -0.0000,5.8783 4.7653,10.6437 10.6437 10.6437c 5.8783,0.0000 10.6437,-4.7653 10.6437 -10.6437Z"/>
  </g>
  <defs>
  </defs>
  <g stroke-linejoin="miter" stroke-opacity="1.0" fill-opacity="1.0" opacity="0.4" stroke="rgb(0,0,0)" stroke-width="0.0" fill="rgb(0,0,255)" stroke-linecap="butt" stroke-miterlimit="10.0">
    <path d="M 95.2076,432.2012 c 0.0000,-8.7664 -7.1066,-15.8731 -15.8731 -15.8731c -8.7664,-0.0000 -15.8731,7.1066 -15.8731 15.8731c -0.0000,8.7664 7.1066,15.8731 15.8731 15.8731c 8.7664,0.0000 15.8731,-7.1066 15.8731 -15.8731Z"/>
  </g>
  <defs>
  </defs>
  <g stroke-linejoin="miter" stroke-opacity="1.0" fill-opacity="0.0" opacity="0.2" stroke="rgb(0,0,0)" stroke-width="0.8" fill="rgb(0,0,0)" stroke-linecap="butt" stroke-miterlimit="10.0">
    <path d="M 439.7628,374.3888 l -0.0000,-56.8750 h -56.8750 l -0.0000,56.8750 Z"/>
  </g>
  <defs>
  </defs>
  <g stroke-linejoin="miter" stroke-opacity="1.0" fill-opacity="1.0" opacity="0.4" stroke="rgb(0,0,0)" stroke-width="0.0" fill="rgb(0,128,0)" stroke-linecap="butt" stroke-miterlimit="10.0">
    <path d="M 425.2625,325.6931 c 0.0000,-5.7546 -4.6650,-10.4196 -10.4196 -10.4196c -5.7546,-0.0000 -10.4196,4.6650 -10.4196 10.4196c -0.0000,5.7546 4.6650,10.4196 10.4196 10.4196c 5.7546,0.0000 10.4196,-4.6650 10.4196 -10.4196Z"/>
  </g>
  <defs>
  </defs>
  <g stroke-linejoin="miter" stroke-opacity="1.0" fill-opacity="1.0" opacity="0.4" stroke="rgb(0,0,0)" stroke-width="0.0" fill="rgb(0,0,255)" stroke-linecap="butt" stroke-miterlimit="10.0">
    <path d="M 425.9608,343.9012 c 0.0000,-12.2533 -9.9333,-22.1866 -22.1866 -22.1866c -12.2533,-0.0000 -22.1866,9.9333 -22.1866 22.1866c -0.0000,12.2533 9.9333,22.1866 22.1866 22.1866c 12.2533,0.0000 22.1866,-9.9333 22.1866 -22.1866Z"/>
  </g>
  <defs>
  </defs>
  <g stroke-linejoin="miter" stroke-opacity="1.0" fill-opacity="0.0" opacity="0.2" stroke="rgb(0,0,0)" stroke-width="0.8" fill="rgb(0,0,0)" stroke-linecap="butt" stroke-miterlimit="10.0">
    <path d="M 356.7201,374.3888 l -0.0000,-56.8750 h -56.8750 l -0.0000,56.8750 Z"/>
  </g>
  <defs>
  </defs>
  <g stroke-linejoin="miter" stroke-opacity="1.0" fill-opacity="1.0" opacity="0.4" stroke="rgb(0,0,0)" stroke-width="0.0" fill="rgb(0,128,0)" stroke-linecap="butt" stroke-miterlimit="10.0">
    <path d="M 360.3939,354.1260 c 0.0000,-14.0127 -11.3596,-25.3723 -25.3723 -25.3723c -14.0127,-0.0000 -25.3723,11.3596 -25.3723 25.3723c -0.0000,14.0127 11.3596,25.3723 25.3723 25.3723c 14.0127,0.0000 25.3723,-11.3596 25.3723 -25.3723Z"/>
  </g>
  <defs>
  </defs>
  <g stroke-linejoin="miter" stroke-opacity="1.0" fill-opacity="1.0" opacity="0.4" stroke="rgb(0,0,0)" stroke-width="0.0" fill="rgb(0,0,255)" stroke-linecap="butt" stroke-miterlimit="10.0">
    <path d="M 313.0678,357.7960 c 0.0000,-3.6637 -2.9700,-6.6337 -6.6337 -6.6337c -3.6637,-0.0000 -6.6337,2.9700 -6.6337 6.6337c -0.0000,3.6637 2.9700,6.6337 6.6337 6.6337c 3.6637,0.0000 6.6337,-2.9700 6.6337 -6.6337Z"/>
  </g>
  <defs>
  </defs>
  <g stroke-linejoin="miter" stroke-opacity="1.0" fill-opacity="0.0" opacity="0.2" stroke="rgb(0,0,0)" stroke-width="0.8" fill="rgb(0,0,0)" stroke-linecap="butt" stroke-miterlimit="10.0">
    <path d="M 273.6773,374.3888 l -0.0000,-56.8750 h -56.8750 l -0.0000,56.8750 Z"/>
  </g>
  <defs>
  </defs>
  <g stroke-linejoin="miter" stroke-opacity="1.0" fill-opacity="1.0" opacity="0.15" stroke="rgb(0,0,0)" stroke-width="0.0" fill="rgb(255,0,0)" stroke-linecap="butt" stroke-miterlimit="10.0">
    <path d="M 265.6337,345.7026 c 0.0000,-7.5398 -6.1122,-13.6520 -13.6520 -13.6520c -7.5398,-0.0000 -13.6520,6.1122 -13.6520 13.6520c -0.0000,7.5398 6.1122,13.6520 13.6520 13.6520c 7.5398,0.0000 13.6520,-6.1122 13.6520 -13.6520Z"/>
  </g>
  <defs>
  </defs>
  <g stroke-linejoin="miter" stroke-opacity="1.0" fill-opacity="1.0" opacity="0.15" stroke="rgb(0,0,0)" stroke-width="0.0" fill="rgb(255,0,0)" stroke-linecap="butt" stroke-miterlimit="10.0">
    <path d="M 286.7782,358.0674 c 0.0000,-9.3274 -7.5614,-16.8888 -16.8888 -16.8888c -9.3274,-0.0000 -16.8888,7.5614 -16.8888 16.8888c -0.0000,9.3274 7.5614,16.8888 16.8888 16.8888c 9.3274,0.0000 16.8888,-7.5614 16.8888 -16.8888Z"/>
  </g>
  <defs>
  </defs>
  <g stroke-linejoin="miter" stroke-opacity="1.0" fill-opacity="1.0" opacity="0.15" stroke="rgb(0,0,0)" stroke-width="0.0" fill="rgb(255,0,0)" stroke-linecap="butt" stroke-miterlimit="10.0">
    <path d="M 228.2556,367.5436 c 0.0000,-4.6717 -3.7872,-8.4589 -8.4589 -8.4589c -4.6717,-0.0000 -8.4589,3.7872 -8.4589 8.4589c -0.0000,4.6717 3.7872,8.4589 8.4589 8.4589c 4.6717,0.0000 8.4589,-3.7872 8.4589 -8.4589Z"/>
  </g>
  <defs>
  </defs>
  <g stroke-linejoin="miter" stroke-opacity="1.0" fill-opacity="1.0" opacity="0.15" stroke="rgb(0,0,0)" stroke-width="0.0" fill="rgb(255,0,0)" stroke-linecap="butt" stroke-miterlimit="10.0">
    <path d="M 275.2769,328.1210 c 0.0000,-8.8940 -7.2100,-16.1039 -16.1039 -16.1039c -8.8940,-0.0000 -16.1039,7.2100 -16.1039 16.1039c -0.0000,8.8940 7.2100,16.1039 16.1039 16.1039c 8.8940,0.0000 16.1039,-7.2100 16.1039 -16.1039Z"/>
  </g>
  <defs>
  </defs>
  <g stroke-linejoin="miter" stroke-opacity="1.0" fill-opacity="1.0" opacity="0.4" stroke="rgb(0,0,0)" stroke-width="0.0" fill="rgb(0,128,0)" stroke-linecap="butt" stroke-miterlimit="10.0">
    <path d="M 258.2696,346.7328 c 0.0000,-13.2881 -10.7722,-24.0603 -24.0603 -24.0603c -13.2881,-0.0000 -24.0603,10.7722 -24.0603 24.0603c -0.0000,13.2881 10.7722,24.0603 24.0603 24.0603c 13.2881,0.0000 24.0603,-10.7722 24.0603 -24.0603Z"/>
  </g>
  <defs>
  </defs>
  <g stroke-linejoin="miter" stroke-opacity="1.0" fill-opacity="1.0" opacity="0.4" stroke="rgb(0,0,0)" stroke-width="0.0" fill="rgb(0,0,255)" stroke-linecap="butt" stroke-miterlimit="10.0">
    <path d="M 226.8024,349.2076 c 0.0000,-4.4939 -3.6431,-8.1370 -8.1370 -8.1370c -4.4939,-0.0000 -8.1370,3.6431 -8.1370 8.1370c -0.0000,4.4939 3.6431,8.1370 8.1370 8.1370c 4.4939,0.0000 8.1370,-3.6431 8.1370 -8.1370Z"/>
  </g>
  <defs>
  </defs>
  <g stroke-linejoin="miter" stroke-opacity="1.0" fill-opacity="0.0" opacity="0.2" stroke="rgb(0,0,0)" stroke-width="0.8" fill="rgb(0,0,0)" stroke-linecap="butt" stroke-miterlimit="10.0">
    <path d="M 190.6346,374.3888 l -0.0000,-56.8750 h -56.8750 l -0.0000,56.8750 Z"/>
  </g>
  <defs>
  </defs>
  <g stroke-linejoin="miter" stroke-opacity="1.0" fill-opacity="1.0" opacity="0.4" stroke="rgb(0,0,0)" stroke-width="0.0" fill="rgb(0,128,0)" stroke-linecap="butt" stroke-miterlimit="10.0">
    <path d="M 178.5728,346.3094 c 0.0000,-5.3045 -4.3001,-9.6046 -9.6046 -9.6046c -5.3045,-0.0000 -9.6046,4.3001 -9.6046 9.6046c -0.0000,5.3045 4.3001,9.6046 9.6046 9.6046c 5.3045,0.0000 9.6046,-4.3001 9.6046 -9.6046Z"/>
  </g>
  <defs>
  </defs>
  <g stroke-linejoin="miter" stroke-opacity="1.0" fill-opacity="1.0" opacity="0.4" stroke="rgb(0,0,0)" stroke-width="0.0" fill="rgb(0,0,255)" stroke-linecap="butt" stroke-miterlimit="10.0">
    <path d="M 170.5233,348.3102 c 0.0000,-4.4829 -3.6341,-8.1170 -8.1170 -8.1170c -4.4829,-0.0000 -8.1170,3.6341 -8.1170 8.1170c -0.0000,4.4829 3.6341,8.1170 8.1170 8.1170c 4.4829,0.0000 8.1170,-3.6341 8.1170 -8.1170Z"/>
  </g>
  <defs>
  </defs>
  <g stroke-linejoin="miter" stroke-opacity="1.0" fill-opacity="0.0" opacity="0.2" stroke="rgb(0,0,0)" stroke-width="0.8" fill="rgb(0,0,0)" stroke-linecap="butt" stroke-miterlimit="10.0">
    <path d="M 107.5919,374.3888 l -0.0000,-56.8750 h -56.8750 l -0.0000,56.8750 Z"/>
  </g>
  <defs>
  </defs>
  <g stroke-linejoin="miter" stroke-opacity="1.0" fill-opacity="1.0" opacity="0.15" stroke="rgb(0,0,0)" stroke-width="0.0" fill="rgb(255,0,0)" stroke-linecap="butt" stroke-miterlimit="10.0">
    <path d="M 67.8698,359.5835 c 0.0000,-7.1601 -5.8044,-12.9644 -12.9644 -12.9644c -7.1601,-0.0000 -12.9644,5.8044 -12.9644 12.9644c -0.0000,7.1601 5.8044,12.9644 12.9644 12.9644c 7.1601,0.0000 12.9644,-5.8044 12.9644 -12.9644Z"/>
  </g>
  <defs>
  </defs>
  <g stroke-linejoin="miter" stroke-opacity="1.0" fill-opacity="1.0" opacity="0.4" stroke="rgb(0,0,0)" stroke-width="0.0" fill="rgb(0,128,0)" stroke-linecap="butt" stroke-miterlimit="10.0">
    <path d="M 108.2813,335.3745 c 0.0000,-5.0439 -4.0889,-9.1327 -9.1327 -9.1327c -5.0439,-0.0000 -9.1327,4.0889 -9.1327 9.1327c -0.0000,5.0439 4.0889,9.1327 9.1327 9.1327c 5.0439,0.0000 9.1327,-4.0889 9.1327 -9.1327Z"/>
  </g>
  <defs>
  </defs>
  <g stroke-linejoin="miter" stroke-opacity="1.0" fill-opacity="1.0" opacity="0.4" stroke="rgb(0,0,0)" stroke-width="0.0" fill="rgb(0,0,255)" stroke-linecap="butt" stroke-miterlimit="10.0">
    <path d="M 118.7224,349.6741 c 0.0000,-6.6730 -5.4096,-12.0826 -12.0826 -12.0826c -6.6730,-0.0000 -12.0826,5.4096 -12.0826 12.0826c -0.0000,6.6730 5.4096,12.0826 12.0826 12.0826c 6.6730,0.0000 12.0826,-5.4096 12.0826 -12.0826Z"/>
  </g>
  <defs>
  </defs>
  <g stroke-linejoin="miter" stroke-opacity="1.0" fill-opacity="0.0" opacity="0.2" stroke="rgb(0,0,0)" stroke-width="0.8" fill="rgb(0,0,0)" stroke-linecap="butt" stroke-miterlimit="10.0">
    <path d="M 439.7628,274.3888 l -0.0000,-56.8750 h -56.8750 l -0.0000,56.8750 Z"/>
  </g>
  <defs>
  </defs>
  <g stroke-linejoin="miter" stroke-opacity="1.0" fill-opacity="1.0" opacity="0.4" stroke="rgb(0,0,0)" stroke-width="0.0" fill="rgb(0,128,0)" stroke-linecap="butt" stroke-miterlimit="10.0">
    <path d="M 447.5807,260.7460 c 0.0000,-8.3332 -6.7554,-15.0886 -15.0886 -15.0886c -8.3332,-0.0000 -15.0886,6.7554 -15.0886 15.0886c -0.0000,8.3332 6.7554,15.0886 15.0886 15.0886c 8.3332,0.0000 15.0886,-6.7554 15.0886 -15.0886Z"/>
  </g>
  <defs>
  </defs>
  <g stroke-linejoin="miter" stroke-opacity="1.0" fill-opacity="1.0" opacity="0.4" stroke="rgb(0,0,0)" stroke-width="0.0" fill="rgb(0,0,255)" stroke-linecap="butt" stroke-miterlimit="10.0">
    <path d="M 422.0537,257.1308 c 0.0000,-3.9322 -3.1877,-7.1199 -7.1199 -7.1199c -3.9322,-0.0000 -7.1199,3.1877 -7.1199 7.1199c -0.0000,3.9322 3.1877,7.1199 7.1199 7.1199c 3.9322,0.0000 7.1199,-3.1877 7.1199 -7.1199Z"/>
  </g>
  <defs>
  </defs>
  <g stroke-linejoin="miter" stroke-opacity="1.0" fill-opacity="0.0" opacity="0.2" stroke="rgb(0,0,0)" stroke-width="0.8" fill="rgb(0,0,0)" stroke-linecap="butt" stroke-miterlimit="10.0">
    <path d="M 356.7201,274.3888 l -0.0000,-56.8750 h -56.8750 l -0.0000,56.8750 Z"/>
  </g>
  <defs>
  </defs>
  <g stroke-linejoin="miter" stroke-opacity="1.0" fill-opacity="1.0" opacity="0.4" stroke="rgb(0,0,0)" stroke-width="0.0" fill="rgb(0,128,0)" stroke-linecap="butt" stroke-miterlimit="10.0">
    <path d="M 346.3923,237.3571 c 0.0000,-10.6614 -8.6428,-19.3042 -19.3042 -19.3042c -10.6614,-0.0000 -19.3042,8.6428 -19.3042 19.3042c -0.0000,10.6614 8.6428,19.3042 19.3042 19.3042c 10.6614,0.0000 19.3042,-8.6428 19.3042 -19.3042Z"/>
  </g>
  <defs>
  </defs>
  <g stroke-linejoin="miter" stroke-opacity="1.0" fill-opacity="1.0" opacity="0.4" stroke="rgb(0,0,0)" stroke-width="0.0" fill="rgb(0,0,255)" stroke-linecap="butt" stroke-miterlimit="10.0">
    <path d="M 363.9281,223.7977 c 0.0000,-12.0260 -9.7490,-21.7750 -21.7750 -21.7750c -12.0260,-0.0000 -21.7750,9.7490 -21.7750 21.7750c -0.0000,12.0260 9.7490,21.7750 21.7750 21.7750c 12.0260,0.0000 21.7750,-9.7490 21.7750 -21.7750Z"/>
  </g>
  <defs>
  </defs>
  <g stroke-linejoin="miter" stroke-opacity="1.0" fill-opacity="0.0" opacity="0.2" stroke="rgb(0,0,0)" stroke-width="0.8" fill="rgb(0,0,0)" stroke-linecap="butt" stroke-miterlimit="10.0">
    <path d="M 273.6773,274.3888 l -0.0000,-56.8750 h -56.8750 l -0.0000,56.8750 Z"/>
  </g>
  <defs>
  </defs>
  <g stroke-linejoin="miter" stroke-opacity="1.0" fill-opacity="1.0" opacity="0.4" stroke="rgb(0,0,0)" stroke-width="0.0" fill="rgb(0,128,0)" stroke-linecap="butt" stroke-miterlimit="10.0">
    <path d="M 257.3156,270.2847 c 0.0000,-12.2829 -9.9572,-22.2401 -22.2401 -22.2401c -12.2829,-0.0000 -22.2401,9.9572 -22.2401 22.2401c -0.0000,12.2829 9.9572,22.2401 22.2401 22.2401c 12.2829,0.0000 22.2401,-9.9572 22.2401 -22.2401Z"/>
  </g>
  <defs>
  </defs>
  <g stroke-linejoin="miter" stroke-opacity="1.0" fill-opacity="1.0" opacity="0.4" stroke="rgb(0,0,0)" stroke-width="0.0" fill="rgb(0,0,255)" stroke-linecap="butt" stroke-miterlimit="10.0">
    <path d="M 266.5591,246.6566 c 0.0000,-8.0247 -6.5053,-14.5300 -14.5300 -14.5300c -8.0247,-0.0000 -14.5300,6.5053 -14.5300 14.5300c -0.0000,8.0247 6.5053,14.5300 14.5300 14.5300c 8.0247,0.0000 14.5300,-6.5053 14.5300 -14.5300Z"/>
  </g>
  <defs>
  </defs>
  <g stroke-linejoin="miter" stroke-opacity="1.0" fill-opacity="0.0" opacity="0.2" stroke="rgb(0,0,0)" stroke-width="0.8" fill="rgb(0,0,0)" stroke-linecap="butt" stroke-miterlimit="10.0">
    <path d="M 190.6346,274.3888 l -0.0000,-56.8750 h -56.8750 l -0.0000,56.8750 Z"/>
  </g>
  <defs>
  </defs>
  <g stroke-linejoin="miter" stroke-opacity="1.0" fill-opacity="1.0" opacity="0.4" stroke="rgb(0,0,0)" stroke-width="0.0" fill="rgb(0,128,0)" stroke-linecap="butt" stroke-miterlimit="10.0">
    <path d="M 143.5807,224.6935 c 0.0000,-4.1602 -3.3725,-7.5326 -7.5326 -7.5326c -4.1602,-0.0000 -7.5326,3.3725 -7.5326 7.5326c -0.0000,4.1602 3.3725,7.5326 7.5326 7.5326c 4.1602,0.0000 7.5326,-3.3725 7.5326 -7.5326Z"/>
  </g>
  <defs>
  </defs>
  <g stroke-linejoin="miter" stroke-opacity="1.0" fill-opacity="1.0" opacity="0.4" stroke="rgb(0,0,0)" stroke-width="0.0" fill="rgb(0,0,255)" stroke-linecap="butt" stroke-miterlimit="10.0">
    <path d="M 168.4750,226.5149 c 0.0000,-11.0003 -8.9175,-19.9178 -19.9178 -19.9178c -11.0003,-0.0000 -19.9178,8.9175 -19.9178 19.9178c -0.0000,11.0003 8.9175,19.9178 19.9178 19.9178c 11.0003,0.0000 19.9178,-8.9175 19.9178 -19.9178Z"/>
  </g>
  <defs>
  </defs>
  <g stroke-linejoin="miter" stroke-opacity="1.0" fill-opacity="0.0" opacity="0.2" stroke="rgb(0,0,0)" stroke-width="0.8" fill="rgb(0,0,0)" stroke-linecap="butt" stroke-miterlimit="10.0">
    <path d="M 107.5919,274.3888 l -0.0000,-56.8750 h -56.8750 l -0.0000,56.8750 Z"/>
  </g>
  <defs>
  </defs>
  <g stroke-linejoin="miter" stroke-opacity="1.0" fill-opacity="1.0" opacity="0.4" stroke="rgb(0,0,0)" stroke-width="0.0" fill="rgb(0,128,0)" stroke-linecap="butt" stroke-miterlimit="10.0">
    <path d="M 96.2157,233.6542 c 0.0000,-8.1602 -6.6151,-14.7753 -14.7753 -14.7753c -8.1602,-0.0000 -14.7753,6.6151 -14.7753 14.7753c -0.0000,8.1602 6.6151,14.7753 14.7753 14.7753c 8.1602,0.0000 14.7753,-6.6151 14.7753 -14.7753Z"/>
  </g>
  <defs>
  </defs>
  <g stroke-linejoin="miter" stroke-opacity="1.0" fill-opacity="1.0" opacity="0.4" stroke="rgb(0,0,0)" stroke-width="0.0" fill="rgb(0,0,255)" stroke-linecap="butt" stroke-miterlimit="10.0">
    <path d="M 93.3866,252.9123 c 0.0000,-4.6895 -3.8016,-8.4910 -8.4910 -8.4910c -4.6895,-0.0000 -8.4910,3.8016 -8.4910 8.4910c -0.0000,4.6895 3.8016,8.4910 8.4910 8.4910c 4.6895,0.0000 8.4910,-3.8016 8.4910 -8.4910Z"/>
  </g>
  <defs>
  </defs>
  <g stroke-linejoin="miter" stroke-opacity="1.0" fill-opacity="0.0" opacity="0.2" stroke="rgb(0,0,0)" stroke-width="0.8" fill="rgb(0,0,0)" stroke-linecap="butt" stroke-miterlimit="10.0">
    <path d="M 450.0723,174.3888 l -0.0000,-56.8750 h -56.8750 l -0.0000,56.8750 Z"/>
  </g>
  <defs>
  </defs>
  <g stroke-linejoin="miter" stroke-opacity="1.0" fill-opacity="1.0" opacity="0.15" stroke="rgb(0,0,0)" stroke-width="0.0" fill="rgb(255,0,0)" stroke-linecap="butt" stroke-miterlimit="10.0">
    <path d="M 426.7494,172.9059 c 0.0000,-14.9636 -12.1304,-27.0941 -27.0941 -27.0941c -14.9636,-0.0000 -27.0941,12.1304 -27.0941 27.0941c -0.0000,14.9636 12.1304,27.0941 27.0941 27.0941c 14.9636,0.0000 27.0941,-12.1304 27.0941 -27.0941Z"/>
  </g>
  <defs>
  </defs>
  <g stroke-linejoin="miter" stroke-opacity="1.0" fill-opacity="1.0" opacity="0.15" stroke="rgb(0,0,0)" stroke-width="0.0" fill="rgb(255,0,0)" stroke-linecap="butt" stroke-miterlimit="10.0">
    <path d="M 449.3549,164.3784 c 0.0000,-4.1664 -3.3775,-7.5439 -7.5439 -7.5439c -4.1664,-0.0000 -7.5439,3.3775 -7.5439 7.5439c -0.0000,4.1664 3.3775,7.5439 7.5439 7.5439c 4.1664,0.0000 7.5439,-3.3775 7.5439 -7.5439Z"/>
  </g>
  <defs>
  </defs>
  <g stroke-linejoin="miter" stroke-opacity="1.0" fill-opacity="1.0" opacity="0.4" stroke="rgb(0,0,0)" stroke-width="0.0" fill="rgb(0,128,0)" stroke-linecap="butt" stroke-miterlimit="10.0">
    <path d="M 446.3060,127.0685 c 0.0000,-9.2087 -7.4651,-16.6738 -16.6738 -16.6738c -9.2087,-0.0000 -16.6738,7.4651 -16.6738 16.6738c -0.0000,9.2087 7.4651,16.6738 16.6738 16.6738c 9.2087,0.0000 16.6738,-7.4651 16.6738 -16.6738Z"/>
  </g>
  <defs>
  </defs>
  <g stroke-linejoin="miter" stroke-opacity="1.0" fill-opacity="1.0" opacity="0.4" stroke="rgb(0,0,0)" stroke-width="0.0" fill="rgb(0,0,255)" stroke-linecap="butt" stroke-miterlimit="10.0">
    <path d="M 437.7391,123.7454 c 0.0000,-13.1142 -10.6312,-23.7454 -23.7454 -23.7454c -13.1142,-0.0000 -23.7454,10.6312 -23.7454 23.7454c -0.0000,13.1142 10.6312,23.7454 23.7454 23.7454c 13.1142,0.0000 23.7454,-10.6312 23.7454 -23.7454Z"/>
  </g>
  <defs>
  </defs>
  <g stroke-linejoin="miter" stroke-opacity="1.0" fill-opacity="0.0" opacity="0.2" stroke="rgb(0,0,0)" stroke-width="0.8" fill="rgb(0,0,0)" stroke-linecap="butt" stroke-miterlimit="10.0">
    <path d="M 356.7201,174.3888 l -0.0000,-56.8750 h -56.8750 l -0.0000,56.8750 Z"/>
  </g>
  <defs>
  </defs>
  <g stroke-linejoin="miter" stroke-opacity="1.0" fill-opacity="1.0" opacity="0.4" stroke="rgb(0,0,0)" stroke-width="0.0" fill="rgb(0,128,0)" stroke-linecap="butt" stroke-miterlimit="10.0">
    <path d="M 364.1222,153.8692 c 0.0000,-10.8131 -8.7658,-19.5789 -19.5789 -19.5789c -10.8131,-0.0000 -19.5789,8.7658 -19.5789 19.5789c -0.0000,10.8131 8.7658,19.5789 19.5789 19.5789c 10.8131,0.0000 19.5789,-8.7658 19.5789 -19.5789Z"/>
  </g>
  <defs>
  </defs>
  <g stroke-linejoin="miter" stroke-opacity="1.0" fill-opacity="1.0" opacity="0.4" stroke="rgb(0,0,0)" stroke-width="0.0" fill="rgb(0,0,255)" stroke-linecap="butt" stroke-miterlimit="10.0">
    <path d="M 340.5796,151.4335 c 0.0000,-4.7390 -3.8417,-8.5808 -8.5808 -8.5808c -4.7390,-0.0000 -8.5808,3.8417 -8.5808 8.5808c -0.0000,4.7390 3.8417,8.5808 8.5808 8.5808c 4.7390,0.0000 8.5808,-3.8417 8.5808 -8.5808Z"/>
  </g>
  <defs>
  </defs>
  <g stroke-linejoin="miter" stroke-opacity="1.0" fill-opacity="0.0" opacity="0.2" stroke="rgb(0,0,0)" stroke-width="0.8" fill="rgb(0,0,0)" stroke-linecap="butt" stroke-miterlimit="10.0">
    <path d="M 273.6773,174.3888 l -0.0000,-56.8750 h -56.8750 l -0.0000,56.8750 Z"/>
  </g>
  <defs>
  </defs>
  <g stroke-linejoin="miter" stroke-opacity="1.0" fill-opacity="1.0" opacity="0.15" stroke="rgb(0,0,0)" stroke-width="0.0" fill="rgb(255,0,0)" stroke-linecap="butt" stroke-miterlimit="10.0">
    <path d="M 278.5503,173.4055 c 0.0000,-9.9736 -8.0852,-18.0588 -18.0588 -18.0588c -9.9736,-0.0000 -18.0588,8.0852 -18.0588 18.0588c -0.0000,9.9736 8.0852,18.0588 18.0588 18.0588c 9.9736,0.0000 18.0588,-8.0852 18.0588 -18.0588Z"/>
  </g>
  <defs>
  </defs>
  <g stroke-linejoin="miter" stroke-opacity="1.0" fill-opacity="1.0" opacity="0.15" stroke="rgb(0,0,0)" stroke-width="0.0" fill="rgb(255,0,0)" stroke-linecap="butt" stroke-miterlimit="10.0">
    <path d="M 288.9552,161.0816 c 0.0000,-9.3183 -7.5539,-16.8722 -16.8722 -16.8722c -9.3183,-0.0000 -16.8722,7.5539 -16.8722 16.8722c -0.0000,9.3183 7.5539,16.8722 16.8722 16.8722c 9.3183,0.0000 16.8722,-7.5539 16.8722 -16.8722Z"/>
  </g>
  <defs>
  </defs>
  <g stroke-linejoin="miter" stroke-opacity="1.0" fill-opacity="1.0" opacity="0.15" stroke="rgb(0,0,0)" stroke-width="0.0" fill="rgb(255,0,0)" stroke-linecap="butt" stroke-miterlimit="10.0">
    <path d="M 251.5721,125.7376 c 0.0000,-12.4530 -10.0951,-22.5481 -22.5481 -22.5481c -12.4530,-0.0000 -22.5481,10.0951 -22.5481 22.5481c -0.0000,12.4530 10.0951,22.5481 22.5481 22.5481c 12.4530,0.0000 22.5481,-10.0951 22.5481 -22.5481Z"/>
  </g>
  <defs>
  </defs>
  <g stroke-linejoin="miter" stroke-opacity="1.0" fill-opacity="1.0" opacity="0.15" stroke="rgb(0,0,0)" stroke-width="0.0" fill="rgb(255,0,0)" stroke-linecap="butt" stroke-miterlimit="10.0">
    <path d="M 250.6730,122.2196 c 0.0000,-6.7600 -5.4801,-12.2401 -12.2401 -12.2401c -6.7600,-0.0000 -12.2401,5.4801 -12.2401 12.2401c -0.0000,6.7600 5.4801,12.2401 12.2401 12.2401c 6.7600,0.0000 12.2401,-5.4801 12.2401 -12.2401Z"/>
  </g>
  <defs>
  </defs>
  <g stroke-linejoin="miter" stroke-opacity="1.0" fill-opacity="1.0" opacity="0.15" stroke="rgb(0,0,0)" stroke-width="0.0" fill="rgb(255,0,0)" stroke-linecap="butt" stroke-miterlimit="10.0">
    <path d="M 245.4878,129.5676 c 0.0000,-4.5103 -3.6563,-8.1666 -8.1666 -8.1666c -4.5103,-0.0000 -8.1666,3.6563 -8.1666 8.1666c -0.0000,4.5103 3.6563,8.1666 8.1666 8.1666c 4.5103,0.0000 8.1666,-3.6563 8.1666 -8.1666Z"/>
  </g>
  <defs>
  </defs>
  <g stroke-linejoin="miter" stroke-opacity="1.0" fill-opacity="1.0" opacity="0.15" stroke="rgb(0,0,0)" stroke-width="0.0" fill="rgb(255,0,0)" stroke-linecap="butt" stroke-miterlimit="10.0">
    <path d="M 269.8296,166.7028 c 0.0000,-10.1987 -8.2677,-18.4664 -18.4664 -18.4664c -10.1987,-0.0000 -18.4664,8.2677 -18.4664 18.4664c -0.0000,10.1987 8.2677,18.4664 18.4664 18.4664c 10.1987,0.0000 18.4664,-8.2677 18.4664 -18.4664Z"/>
  </g>
  <defs>
  </defs>
  <g stroke-linejoin="miter" stroke-opacity="1.0" fill-opacity="1.0" opacity="0.4" stroke="rgb(0,0,0)" stroke-width="0.0" fill="rgb(0,128,0)" stroke-linecap="butt" stroke-miterlimit="10.0">
    <path d="M 289.5186,131.5477 c 0.0000,-12.9950 -10.5345,-23.5295 -23.5295 -23.5295c -12.9950,-0.0000 -23.5295,10.5345 -23.5295 23.5295c -0.0000,12.9950 10.5345,23.5295 23.5295 23.5295c 12.9950,0.0000 23.5295,-10.5345 23.5295 -23.5295Z"/>
  </g>
  <defs>
  </defs>
  <g stroke-linejoin="miter" stroke-opacity="1.0" fill-opacity="1.0" opacity="0.4" stroke="rgb(0,0,0)" stroke-width="0.0" fill="rgb(0,0,255)" stroke-linecap="butt" stroke-miterlimit="10.0">
    <path d="M 282.7791,128.9803 c 0.0000,-7.8615 -6.3730,-14.2345 -14.2345 -14.2345c -7.8615,-0.0000 -14.2345,6.3730 -14.2345 14.2345c -0.0000,7.8615 6.3730,14.2345 14.2345 14.2345c 7.8615,0.0000 14.2345,-6.3730 14.2345 -14.2345Z"/>
  </g>
  <defs>
  </defs>
  <g stroke-linejoin="miter" stroke-opacity="1.0" fill-opacity="0.0" opacity="0.2" stroke="rgb(0,0,0)" stroke-width="0.8" fill="rgb(0,0,0)" stroke-linecap="butt" stroke-miterlimit="10.0">
    <path d="M 190.6346,174.3888 l -0.0000,-56.8750 h -56.8750 l -0.0000,56.8750 Z"/>
  </g>
  <defs>
  </defs>
  <g stroke-linejoin="miter" stroke-opacity="1.0" fill-opacity="1.0" opacity="0.4" stroke="rgb(0,0,0)" stroke-width="0.0" fill="rgb(0,128,0)" stroke-linecap="butt" stroke-miterlimit="10.0">
    <path d="M 184.6214,165.5887 c 0.0000,-15.0697 -12.2164,-27.2861 -27.2861 -27.2861c -15.0697,-0.0000 -27.2861,12.2164 -27.2861 27.2861c -0.0000,15.0697 12.2164,27.2861 27.2861 27.2861c 15.0697,0.0000 27.2861,-12.2164 27.2861 -27.2861Z"/>
  </g>
  <defs>
  </defs>
  <g stroke-linejoin="miter" stroke-opacity="1.0" fill-opacity="1.0" opacity="0.4" stroke="rgb(0,0,0)" stroke-width="0.0" fill="rgb(0,0,255)" stroke-linecap="butt" stroke-miterlimit="10.0">
    <path d="M 161.6424,160.5307 c 0.0000,-8.4185 -6.8245,-15.2430 -15.2430 -15.2430c -8.4185,-0.0000 -15.2430,6.8245 -15.2430 15.2430c -0.0000,8.4185 6.8245,15.2430 15.2430 15.2430c 8.4185,0.0000 15.2430,-6.8245 15.2430 -15.2430Z"/>
  </g>
  <defs>
  </defs>
  <g stroke-linejoin="miter" stroke-opacity="1.0" fill-opacity="0.0" opacity="0.2" stroke="rgb(0,0,0)" stroke-width="0.8" fill="rgb(0,0,0)" stroke-linecap="butt" stroke-miterlimit="10.0">
    <path d="M 107.5919,174.3888 l -0.0000,-56.8750 h -56.8750 l -0.0000,56.8750 Z"/>
  </g>
  <defs>
  </defs>
  <g stroke-linejoin="miter" stroke-opacity="1.0" fill-opacity="1.0" opacity="0.4" stroke="rgb(0,0,0)" stroke-width="0.0" fill="rgb(0,128,0)" stroke-linecap="butt" stroke-miterlimit="10.0">
    <path d="M 114.9106,165.2419 c 0.0000,-12.8371 -10.4065,-23.2436 -23.2436 -23.2436c -12.8371,-0.0000 -23.2436,10.4065 -23.2436 23.2436c -0.0000,12.8371 10.4065,23.2436 23.2436 23.2436c 12.8371,0.0000 23.2436,-10.4065 23.2436 -23.2436Z"/>
  </g>
  <defs>
  </defs>
  <g stroke-linejoin="miter" stroke-opacity="1.0" fill-opacity="1.0" opacity="0.4" stroke="rgb(0,0,0)" stroke-width="0.0" fill="rgb(0,0,255)" stroke-linecap="butt" stroke-miterlimit="10.0">
    <path d="M 119.1802,165.5525 c 0.0000,-7.1804 -5.8209,-13.0014 -13.0014 -13.0014c -7.1804,-0.0000 -13.0014,5.8209 -13.0014 13.0014c -0.0000,7.1804 5.8209,13.0014 13.0014 13.0014c 7.1804,0.0000 13.0014,-5.8209 13.0014 -13.0014Z"/>
  </g>
  <defs>
  </defs>
  <g stroke-linejoin="miter" stroke-opacity="1.0" fill-opacity="0.0" opacity="0.2" stroke="rgb(0,0,0)" stroke-width="0.8" fill="rgb(0,0,0)" stroke-linecap="butt" stroke-miterlimit="10.0">
    <path d="M 446.4310,74.3888 l -0.0000,-56.8750 h -56.8750 l -0.0000,56.8750 Z"/>
  </g>
  <defs>
  </defs>
  <g stroke-linejoin="miter" stroke-opacity="1.0" fill-opacity="1.0" opacity="0.4" stroke="rgb(0,0,0)" stroke-width="0.0" fill="rgb(0,128,0)" stroke-linecap="butt" stroke-miterlimit="10.0">
    <path d="M 432.6996,33.6024 c 0.0000,-14.8063 -12.0028,-26.8091 -26.8091 -26.8091c -14.8063,-0.0000 -26.8091,12.0028 -26.8091 26.8091c -0.0000,14.8063 12.0028,26.8091 26.8091 26.8091c 14.8063,0.0000 26.8091,-12.0028 26.8091 -26.8091Z"/>
  </g>
  <defs>
  </defs>
  <g stroke-linejoin="miter" stroke-opacity="1.0" fill-opacity="1.0" opacity="0.4" stroke="rgb(0,0,0)" stroke-width="0.0" fill="rgb(0,0,255)" stroke-linecap="butt" stroke-miterlimit="10.0">
    <path d="M 425.3806,39.9769 c 0.0000,-9.7029 -7.8658,-17.5687 -17.5687 -17.5687c -9.7029,-0.0000 -17.5687,7.8658 -17.5687 17.5687c -0.0000,9.7029 7.8658,17.5687 17.5687 17.5687c 9.7029,0.0000 17.5687,-7.8658 17.5687 -17.5687Z"/>
  </g>
  <defs>
  </defs>
  <g stroke-linejoin="miter" stroke-opacity="1.0" fill-opacity="0.0" opacity="0.2" stroke="rgb(0,0,0)" stroke-width="0.8" fill="rgb(0,0,0)" stroke-linecap="butt" stroke-miterlimit="10.0">
    <path d="M 363.2401,74.3888 l -0.0000,-56.8750 h -56.8750 l -0.0000,56.8750 Z"/>
  </g>
  <defs>
  </defs>
  <g stroke-linejoin="miter" stroke-opacity="1.0" fill-opacity="1.0" opacity="0.4" stroke="rgb(0,0,0)" stroke-width="0.0" fill="rgb(0,128,0)" stroke-linecap="butt" stroke-miterlimit="10.0">
    <path d="M 340.3619,58.0771 c 0.0000,-9.9382 -8.0565,-17.9946 -17.9946 -17.9946c -9.9382,-0.0000 -17.9946,8.0565 -17.9946 17.9946c -0.0000,9.9382 8.0565,17.9946 17.9946 17.9946c 9.9382,0.0000 17.9946,-8.0565 17.9946 -17.9946Z"/>
  </g>
  <defs>
  </defs>
  <g stroke-linejoin="miter" stroke-opacity="1.0" fill-opacity="1.0" opacity="0.4" stroke="rgb(0,0,0)" stroke-width="0.0" fill="rgb(0,0,255)" stroke-linecap="butt" stroke-miterlimit="10.0">
    <path d="M 332.5587,46.2041 c 0.0000,-11.3708 -9.2178,-20.5886 -20.5886 -20.5886c -11.3708,-0.0000 -20.5886,9.2178 -20.5886 20.5886c -0.0000,11.3708 9.2178,20.5886 20.5886 20.5886c 11.3708,0.0000 20.5886,-9.2178 20.5886 -20.5886Z"/>
  </g>
  <defs>
  </defs>
  <g stroke-linejoin="miter" stroke-opacity="1.0" fill-opacity="0.0" opacity="0.2" stroke="rgb(0,0,0)" stroke-width="0.8" fill="rgb(0,0,0)" stroke-linecap="butt" stroke-miterlimit="10.0">
    <path d="M 275.5402,74.3888 l -0.0000,-56.8750 h -56.8750 l -0.0000,56.8750 Z"/>
  </g>
  <defs>
  </defs>
  <g stroke-linejoin="miter" stroke-opacity="1.0" fill-opacity="1.0" opacity="0.15" stroke="rgb(0,0,0)" stroke-width="0.0" fill="rgb(255,0,0)" stroke-linecap="butt" stroke-miterlimit="10.0">
    <path d="M 253.0122,20.3786 c 0.0000,-9.3328 -7.5657,-16.8985 -16.8985 -16.8985c -9.3328,-0.0000 -16.8985,7.5657 -16.8985 16.8985c -0.0000,9.3328 7.5657,16.8985 16.8985 16.8985c 9.3328,0.0000 16.8985,-7.5657 16.8985 -16.8985Z"/>
  </g>
  <defs>
  </defs>
  <g stroke-linejoin="miter" stroke-opacity="1.0" fill-opacity="1.0" opacity="0.4" stroke="rgb(0,0,0)" stroke-width="0.0" fill="rgb(0,128,0)" stroke-linecap="butt" stroke-miterlimit="10.0">
    <path d="M 278.0554,47.6725 c 0.0000,-5.5223 -4.4767,-9.9990 -9.9990 -9.9990c -5.5223,-0.0000 -9.9990,4.4767 -9.9990 9.9990c -0.0000,5.5223 4.4767,9.9990 9.9990 9.9990c 5.5223,0.0000 9.9990,-4.4767 9.9990 -9.9990Z"/>
  </g>
  <defs>
  </defs>
  <g stroke-linejoin="miter" stroke-opacity="1.0" fill-opacity="1.0" opacity="0.4" stroke="rgb(0,0,0)" stroke-width="0.0" fill="rgb(0,0,255)" stroke-linecap="butt" stroke-miterlimit="10.0">
    <path d="M 277.5497,65.8323 c 0.0000,-10.9326 -8.8626,-19.7952 -19.7952 -19.7952c -10.9326,-0.0000 -19.7952,8.8626 -19.7952 19.7952c -0.0000,10.9326 8.8626,19.7952 19.7952 19.7952c 10.9326,0.0000 19.7952,-8.8626 19.7952 -19.7952Z"/>
  </g>
  <defs>
  </defs>
  <g stroke-linejoin="miter" stroke-opacity="1.0" fill-opacity="0.0" opacity="0.2" stroke="rgb(0,0,0)" stroke-width="0.8" fill="rgb(0,0,0)" stroke-linecap="butt" stroke-miterlimit="10.0">
    <path d="M 192.4974,74.3888 l -0.0000,-56.8750 h -56.8750 l -0.0000,56.8750 Z"/>
  </g>
  <defs>
  </defs>
  <g stroke-linejoin="miter" stroke-opacity="1.0" fill-opacity="1.0" opacity="0.4" stroke="rgb(0,0,0)" stroke-width="0.0" fill="rgb(0,128,0)" stroke-linecap="butt" stroke-miterlimit="10.0">
    <path d="M 163.1341,59.2753 c 0.0000,-10.9631 -8.8874,-19.8505 -19.8505 -19.8505c -10.9631,-0.0000 -19.8505,8.8874 -19.8505 19.8505c -0.0000,10.9631 8.8874,19.8505 19.8505 19.8505c 10.9631,0.0000 19.8505,-8.8874 19.8505 -19.8505Z"/>
  </g>
  <defs>
  </defs>
  <g stroke-linejoin="miter" stroke-opacity="1.0" fill-opacity="1.0" opacity="0.4" stroke="rgb(0,0,0)" stroke-width="0.0" fill="rgb(0,0,255)" stroke-linecap="butt" stroke-miterlimit="10.0">
    <path d="M 164.1647,48.1257 c 0.0000,-7.3019 -5.9194,-13.2213 -13.2213 -13.2213c -7.3019,-0.0000 -13.2213,5.9194 -13.2213 13.2213c -0.0000,7.3019 5.9194,13.2213 13.2213 13.2213c 7.3019,0.0000 13.2213,-5.9194 13.2213 -13.2213Z"/>
  </g>
  <defs>
  </defs>
  <g stroke-linejoin="miter" stroke-opacity="1.0" fill-opacity="0.0" opacity="0.2" stroke="rgb(0,0,0)" stroke-width="0.8" fill="rgb(0,0,0)" stroke-linecap="butt" stroke-miterlimit="10.0">
    <path d="M 107.5919,74.3888 l -0.0000,-56.8750 h -56.8750 l -0.0000,56.8750 Z"/>
  </g>
  <defs>
  </defs>
  <g stroke-linejoin="miter" stroke-opacity="1.0" fill-opacity="1.0" opacity="0.15" stroke="rgb(0,0,0)" stroke-width="0.0" fill="rgb(255,0,0)" stroke-linecap="butt" stroke-miterlimit="10.0">
    <path d="M 98.0956,39.1797 c 0.0000,-6.5946 -5.3460,-11.9406 -11.9406 -11.9406c -6.5946,-0.0000 -11.9406,5.3460 -11.9406 11.9406c -0.0000,6.5946 5.3460,11.9406 11.9406 11.9406c 6.5946,0.0000 11.9406,-5.3460 11.9406 -11.9406Z"/>
  </g>
  <defs>
  </defs>
  <g stroke-linejoin="miter" stroke-opacity="1.0" fill-opacity="1.0" opacity="0.4" stroke="rgb(0,0,0)" stroke-width="0.0" fill="rgb(0,128,0)" stroke-linecap="butt" stroke-miterlimit="10.0">
    <path d="M 80.2652,37.8151 c 0.0000,-11.5836 -9.3904,-20.9740 -20.9740 -20.9740c -11.5836,-0.0000 -20.9740,9.3904 -20.9740 20.9740c -0.0000,11.5836 9.3904,20.9740 20.9740 20.9740c 11.5836,0.0000 20.9740,-9.3904 20.9740 -20.9740Z"/>
  </g>
  <defs>
  </defs>
  <g stroke-linejoin="miter" stroke-opacity="1.0" fill-opacity="1.0" opacity="0.4" stroke="rgb(0,0,0)" stroke-width="0.0" fill="rgb(0,0,255)" stroke-linecap="butt" stroke-miterlimit="10.0">
    <path d="M 82.4692,71.8371 c 0.0000,-13.3605 -10.8308,-24.1914 -24.1914 -24.1914c -13.3605,-0.0000 -24.1914,10.8308 -24.1914 24.1914c -0.0000,13.3605 10.8308,24.1914 24.1914 24.1914c 13.3605,0.0000 24.1914,-10.8308 24.1914 -24.1914Z"/>
  </g>
</svg>