<svg version="1.2" xmlns="http://www.w3.org/2000/svg" viewBox="0 0 800 700">
  <rect
    x="414.55699217127636"
    y="216.76320086828008"
    width="233.33333333333334"
    height="233.33333333333334"
    fill="#f2f5eb"
    fill-opacity="0.5"
    stroke="#000000"
    stroke-opacity="1"
    stroke-width="1"
    stroke-linecap="butt"
    rx="0"
    transform="rotate(0, 414.55699217127636, 216.76320086828008)"
  >
    <title>`Rm`.icon</title>
  </rect>
  <circle
    fill="#1a1ae6"
    fill-opacity="0.2"
    cx="522.953955759073"
    cy="308.49334619125045"
    stroke="#000000"
    stroke-opacity="1"
    stroke-width="1"
    stroke-linecap="butt"
    r="81.07540426396744"
  >
    <title>`B`.icon</title>
  </circle>
  <circle
    fill="#1a1ae6"
    fill-opacity="0.2"
    cx="519.7321473206804"
    cy="351.9722566320691"
    stroke="#000000"
    stroke-opacity="1"
    stroke-width="1.5"
    stroke-dasharray="7,5"
    stroke-linecap="butt"
    r="27.374910053441656"
  >
    <title>`V`.icon</title>
  </circle>
  <g
    transform="rotate(0, 522.3226288608289, 343.37311930214463)translate(522.3226288608289, 343.37311930214463)"
    font-size="12pt"
    string="V"
  >
    <title>`V`.text</title>
    <svg
      style="font-size: 12pt"
      xmlns="http://www.w3.org/2000/svg"
      width="13.58054"
      height="17.66"
      role="img"
      focusable="false"
      viewBox="0 -750 769 1000"
    >
      <g
        stroke="none"
        fill="#000000"
        stroke-width="0"
        transform="scale(1,-1)"
        fill-opacity="1"
      >
        <g data-mml-node="math">
          <g data-mml-node="mtable">
            <g data-mml-node="mtr">
              <g data-mml-node="mtd">
                <g data-mml-node="mi">
                  <path
                    data-c="1D449"
                    d="M52 648Q52 670 65 683H76Q118 680 181 680Q299 680 320 683H330Q336 677 336 674T334 656Q329 641 325 637H304Q282 635 274 635Q245 630 242 620Q242 618 271 369T301 118L374 235Q447 352 520 471T595 594Q599 601 599 609Q599 633 555 637Q537 637 537 648Q537 649 539 661Q542 675 545 679T558 683Q560 683 570 683T604 682T668 681Q737 681 755 683H762Q769 676 769 672Q769 655 760 640Q757 637 743 637Q730 636 719 635T698 630T682 623T670 615T660 608T652 599T645 592L452 282Q272 -9 266 -16Q263 -18 259 -21L241 -22H234Q216 -22 216 -15Q213 -9 177 305Q139 623 138 626Q133 637 76 637H59Q52 642 52 648Z"
                  ></path>
                </g>
              </g>
            </g>
          </g>
        </g>
      </g>
    </svg>
  </g>
  <rect
    x="14.556992171276377"
    y="216.76320086828008"
    width="233.33333333333334"
    height="233.33333333333334"
    fill="#f2f5eb"
    fill-opacity="0.5"
    stroke="#000000"
    stroke-opacity="1"
    stroke-width="1.5"
    stroke-linecap="butt"
    rx="0"
    transform="rotate(0, 14.556992171276377, 216.76320086828008)"
  >
    <title>`Rn`.icon</title>
  </rect>
  <g
    transform="rotate(0, 217.03560650460975, 227.93320086828007)translate(217.03560650460975, 227.93320086828007)"
    font-size="12pt"
    string="\mathbb{R}^n"
  >
    <title>`Rn`.text</title>
    <svg
      style="font-size: 12pt"
      xmlns="http://www.w3.org/2000/svg"
      width="21.709438"
      height="17.66"
      role="img"
      focusable="false"
      viewBox="0 -750 1229.3 1000"
    >
      <g
        stroke="none"
        fill="#000000"
        stroke-width="0"
        transform="scale(1,-1)"
        fill-opacity="1"
      >
        <g data-mml-node="math">
          <g data-mml-node="mtable">
            <g data-mml-node="mtr">
              <g data-mml-node="mtd">
                <g data-mml-node="msup">
                  <g data-mml-node="TeXAtom" data-mjx-texclass="ORD">
                    <g data-mml-node="mi">
                      <path
                        data-c="211D"
                        d="M17 665Q17 672 28 683H221Q415 681 439 677Q461 673 481 667T516 654T544 639T566 623T584 607T597 592T607 578T614 565T618 554L621 548Q626 530 626 497Q626 447 613 419Q578 348 473 326L455 321Q462 310 473 292T517 226T578 141T637 72T686 35Q705 30 705 16Q705 7 693 -1H510Q503 6 404 159L306 310H268V183Q270 67 271 59Q274 42 291 38Q295 37 319 35Q344 35 353 28Q362 17 353 3L346 -1H28Q16 5 16 16Q16 35 55 35Q96 38 101 52Q106 60 106 341T101 632Q95 645 55 648Q17 648 17 665ZM241 35Q238 42 237 45T235 78T233 163T233 337V621L237 635L244 648H133Q136 641 137 638T139 603T141 517T141 341Q141 131 140 89T134 37Q133 36 133 35H241ZM457 496Q457 540 449 570T425 615T400 634T377 643Q374 643 339 648Q300 648 281 635Q271 628 270 610T268 481V346H284Q327 346 375 352Q421 364 439 392T457 496ZM492 537T492 496T488 427T478 389T469 371T464 361Q464 360 465 360Q469 360 497 370Q593 400 593 495Q593 592 477 630L457 637L461 626Q474 611 488 561Q492 537 492 496ZM464 243Q411 317 410 317Q404 317 401 315Q384 315 370 312H346L526 35H619L606 50Q553 109 464 243Z"
                      ></path>
                    </g>
                  </g>
                  <g
                    data-mml-node="mi"
                    transform="translate(755,413) scale(0.707)"
                  >
                    <path
                      data-c="1D45B"
                      d="M21 287Q22 293 24 303T36 341T56 388T89 425T135 442Q171 442 195 424T225 390T231 369Q231 367 232 367L243 378Q304 442 382 442Q436 442 469 415T503 336T465 179T427 52Q427 26 444 26Q450 26 453 27Q482 32 505 65T540 145Q542 153 560 153Q580 153 580 145Q580 144 576 130Q568 101 554 73T508 17T439 -10Q392 -10 371 17T350 73Q350 92 386 193T423 345Q423 404 379 404H374Q288 404 229 303L222 291L189 157Q156 26 151 16Q138 -11 108 -11Q95 -11 87 -5T76 7T74 17Q74 30 112 180T152 343Q153 348 153 366Q153 405 129 405Q91 405 66 305Q60 285 60 284Q58 278 41 278H27Q21 284 21 287Z"
                    ></path>
                  </g>
                </g>
              </g>
            </g>
          </g>
        </g>
      </g>
    </svg>
  </g>
  <circle
    fill="#1a1ae6"
    fill-opacity="0.2"
    cx="148.75048374494366"
    cy="348.9961885562959"
    stroke="#000000"
    stroke-opacity="1"
    stroke-width="1"
    stroke-linecap="butt"
    r="89.08932301966837"
  >
    <title>`A`.icon</title>
  </circle>
  <circle
    fill="#1a1ae6"
    fill-opacity="0.2"
    cx="138.62440614347003"
    cy="343.62824269891956"
    stroke="#000000"
    stroke-opacity="1"
    stroke-width="1.5"
    stroke-dasharray="7,5"
    stroke-linecap="butt"
    r="63.0710151549676"
  >
    <title>`U`.icon</title>
  </circle>
  <g
    transform="rotate(0, 108.50423020395895, 340.5531823011892)translate(108.50423020395895, 340.5531823011892)"
    font-size="12pt"
    string="f^{-1}(V)"
  >
    <title>`U`.text</title>
    <svg
      style="font-size: 12pt"
      xmlns="http://www.w3.org/2000/svg"
      width="53.02984301966663"
      height="19.17"
      role="img"
      focusable="false"
      viewBox="0 -817 3136.7 1133.9"
    >
      <g
        stroke="none"
        fill="#000000"
        stroke-width="0"
        transform="scale(1,-1)"
        fill-opacity="1"
      >
        <g data-mml-node="math">
          <g data-mml-node="mtable">
            <g data-mml-node="mtr" transform="translate(0,-67)">
              <g data-mml-node="mtd">
                <g data-mml-node="msup">
                  <g data-mml-node="mi">
                    <path
                      data-c="1D453"
                      d="M118 -162Q120 -162 124 -164T135 -167T147 -168Q160 -168 171 -155T187 -126Q197 -99 221 27T267 267T289 382V385H242Q195 385 192 387Q188 390 188 397L195 425Q197 430 203 430T250 431Q298 431 298 432Q298 434 307 482T319 540Q356 705 465 705Q502 703 526 683T550 630Q550 594 529 578T487 561Q443 561 443 603Q443 622 454 636T478 657L487 662Q471 668 457 668Q445 668 434 658T419 630Q412 601 403 552T387 469T380 433Q380 431 435 431Q480 431 487 430T498 424Q499 420 496 407T491 391Q489 386 482 386T428 385H372L349 263Q301 15 282 -47Q255 -132 212 -173Q175 -205 139 -205Q107 -205 81 -186T55 -132Q55 -95 76 -78T118 -61Q162 -61 162 -103Q162 -122 151 -136T127 -157L118 -162Z"
                    ></path>
                  </g>
                  <g
                    data-mml-node="TeXAtom"
                    transform="translate(636,413) scale(0.707)"
                    data-mjx-texclass="ORD"
                  >
                    <g data-mml-node="mo">
                      <path
                        data-c="2212"
                        d="M84 237T84 250T98 270H679Q694 262 694 250T679 230H98Q84 237 84 250Z"
                      ></path>
                    </g>
                    <g data-mml-node="mn" transform="translate(778,0)">
                      <path
                        data-c="31"
                        d="M213 578L200 573Q186 568 160 563T102 556H83V602H102Q149 604 189 617T245 641T273 663Q275 666 285 666Q294 666 302 660V361L303 61Q310 54 315 52T339 48T401 46H427V0H416Q395 3 257 3Q121 3 100 0H88V46H114Q136 46 152 46T177 47T193 50T201 52T207 57T213 61V578Z"
                      ></path>
                    </g>
                  </g>
                </g>
                <g data-mml-node="mo" transform="translate(1589.7,0)">
                  <path
                    data-c="28"
                    d="M94 250Q94 319 104 381T127 488T164 576T202 643T244 695T277 729T302 750H315H319Q333 750 333 741Q333 738 316 720T275 667T226 581T184 443T167 250T184 58T225 -81T274 -167T316 -220T333 -241Q333 -250 318 -250H315H302L274 -226Q180 -141 137 -14T94 250Z"
                  ></path>
                </g>
                <g data-mml-node="mi" transform="translate(1978.7,0)">
                  <path
                    data-c="1D449"
                    d="M52 648Q52 670 65 683H76Q118 680 181 680Q299 680 320 683H330Q336 677 336 674T334 656Q329 641 325 637H304Q282 635 274 635Q245 630 242 620Q242 618 271 369T301 118L374 235Q447 352 520 471T595 594Q599 601 599 609Q599 633 555 637Q537 637 537 648Q537 649 539 661Q542 675 545 679T558 683Q560 683 570 683T604 682T668 681Q737 681 755 683H762Q769 676 769 672Q769 655 760 640Q757 637 743 637Q730 636 719 635T698 630T682 623T670 615T660 608T652 599T645 592L452 282Q272 -9 266 -16Q263 -18 259 -21L241 -22H234Q216 -22 216 -15Q213 -9 177 305Q139 623 138 626Q133 637 76 637H59Q52 642 52 648Z"
                  ></path>
                </g>
                <g data-mml-node="mo" transform="translate(2747.7,0)">
                  <path
                    data-c="29"
                    d="M60 749L64 750Q69 750 74 750H86L114 726Q208 641 251 514T294 250Q294 182 284 119T261 12T224 -76T186 -143T145 -194T113 -227T90 -246Q87 -249 86 -250H74Q66 -250 63 -250T58 -247T55 -238Q56 -237 66 -225Q221 -64 221 250T66 725Q56 737 55 738Q55 746 60 749Z"
                  ></path>
                </g>
              </g>
            </g>
          </g>
        </g>
      </g>
    </svg>
  </g>
  <g
    transform="rotate(0, 176.48419287372633, 399.671766234346)translate(176.48419287372633, 399.671766234346)"
    font-size="12pt"
    string="A"
  >
    <title>`A`.text</title>
    <svg
      style="font-size: 12pt"
      xmlns="http://www.w3.org/2000/svg"
      width="13.245"
      height="17.66"
      role="img"
      focusable="false"
      viewBox="0 -750 750 1000"
    >
      <g
        stroke="none"
        fill="#000000"
        stroke-width="0"
        transform="scale(1,-1)"
        fill-opacity="1"
      >
        <g data-mml-node="math">
          <g data-mml-node="mtable">
            <g data-mml-node="mtr">
              <g data-mml-node="mtd">
                <g data-mml-node="mi">
                  <path
                    data-c="1D434"
                    d="M208 74Q208 50 254 46Q272 46 272 35Q272 34 270 22Q267 8 264 4T251 0Q249 0 239 0T205 1T141 2Q70 2 50 0H42Q35 7 35 11Q37 38 48 46H62Q132 49 164 96Q170 102 345 401T523 704Q530 716 547 716H555H572Q578 707 578 706L606 383Q634 60 636 57Q641 46 701 46Q726 46 726 36Q726 34 723 22Q720 7 718 4T704 0Q701 0 690 0T651 1T578 2Q484 2 455 0H443Q437 6 437 9T439 27Q443 40 445 43L449 46H469Q523 49 533 63L521 213H283L249 155Q208 86 208 74ZM516 260Q516 271 504 416T490 562L463 519Q447 492 400 412L310 260L413 259Q516 259 516 260Z"
                  ></path>
                </g>
              </g>
            </g>
          </g>
        </g>
      </g>
    </svg>
  </g>
  <g
    transform="rotate(0, 550.4675750815384, 325.77480282841145)translate(550.4675750815384, 325.77480282841145)"
    font-size="12pt"
    string="B"
  >
    <title>`B`.text</title>
    <svg
      style="font-size: 12pt"
      xmlns="http://www.w3.org/2000/svg"
      width="13.403939999999999"
      height="17.66"
      role="img"
      focusable="false"
      viewBox="0 -750 759 1000"
    >
      <g
        stroke="none"
        fill="#000000"
        stroke-width="0"
        transform="scale(1,-1)"
        fill-opacity="1"
      >
        <g data-mml-node="math">
          <g data-mml-node="mtable">
            <g data-mml-node="mtr">
              <g data-mml-node="mtd">
                <g data-mml-node="mi">
                  <path
                    data-c="1D435"
                    d="M231 637Q204 637 199 638T194 649Q194 676 205 682Q206 683 335 683Q594 683 608 681Q671 671 713 636T756 544Q756 480 698 429T565 360L555 357Q619 348 660 311T702 219Q702 146 630 78T453 1Q446 0 242 0Q42 0 39 2Q35 5 35 10Q35 17 37 24Q42 43 47 45Q51 46 62 46H68Q95 46 128 49Q142 52 147 61Q150 65 219 339T288 628Q288 635 231 637ZM649 544Q649 574 634 600T585 634Q578 636 493 637Q473 637 451 637T416 636H403Q388 635 384 626Q382 622 352 506Q352 503 351 500L320 374H401Q482 374 494 376Q554 386 601 434T649 544ZM595 229Q595 273 572 302T512 336Q506 337 429 337Q311 337 310 336Q310 334 293 263T258 122L240 52Q240 48 252 48T333 46Q422 46 429 47Q491 54 543 105T595 229Z"
                  ></path>
                </g>
              </g>
            </g>
          </g>
        </g>
      </g>
    </svg>
  </g>
  <g>
    <marker
      id="423bf519-98d8-4245-ac6d-82a7fab2eeda-endArrowId"
      markerUnits="strokeWidth"
      markerWidth="9.95"
      markerHeight="8.12"
      viewBox="0 0 9.95 8.12"
      refX="2.36"
      refY="4.06"
      orient="auto-start-reverse"
    >
      <path
        d="M9.95 4.06 0 8.12 2.36 4.06 0 0 9.95 4.06z"
        fill="#000000"
        fill-opacity="1"
      ></path>
    </marker>
    <path
      d="M 267.89032550460973 333.42986753494677 L 379.37699217127636 333.42986753494677"
      stroke-opacity="1"
      stroke-width="2"
      stroke="#000000"
      stroke-linecap="butt"
      marker-end="url(#423bf519-98d8-4245-ac6d-82a7fab2eeda-endArrowId)"
    ></path>
    <title>`f`.icon</title>
  </g>
  <g
    transform="rotate(0, 326.36232424803063, 305.17097125378336)translate(326.36232424803063, 305.17097125378336)"
    font-size="12pt"
    string="f"
  >
    <title>`f`.text</title>
    <svg
      style="font-size: 12pt"
      xmlns="http://www.w3.org/2000/svg"
      width="9.713"
      height="17.66"
      role="img"
      focusable="false"
      viewBox="0 -750 550 1000"
    >
      <g
        stroke="none"
        fill="#000000"
        stroke-width="0"
        transform="scale(1,-1)"
        fill-opacity="1"
      >
        <g data-mml-node="math">
          <g data-mml-node="mtable">
            <g data-mml-node="mtr">
              <g data-mml-node="mtd">
                <g data-mml-node="mi">
                  <path
                    data-c="1D453"
                    d="M118 -162Q120 -162 124 -164T135 -167T147 -168Q160 -168 171 -155T187 -126Q197 -99 221 27T267 267T289 382V385H242Q195 385 192 387Q188 390 188 397L195 425Q197 430 203 430T250 431Q298 431 298 432Q298 434 307 482T319 540Q356 705 465 705Q502 703 526 683T550 630Q550 594 529 578T487 561Q443 561 443 603Q443 622 454 636T478 657L487 662Q471 668 457 668Q445 668 434 658T419 630Q412 601 403 552T387 469T380 433Q380 431 435 431Q480 431 487 430T498 424Q499 420 496 407T491 391Q489 386 482 386T428 385H372L349 263Q301 15 282 -47Q255 -132 212 -173Q175 -205 139 -205Q107 -205 81 -186T55 -132Q55 -95 76 -78T118 -61Q162 -61 162 -103Q162 -122 151 -136T127 -157L118 -162Z"
                  ></path>
                </g>
              </g>
            </g>
          </g>
        </g>
      </g>
    </svg>
  </g>
  <g
    transform="rotate(0, 615.3005115046097, 227.93320086828007)translate(615.3005115046097, 227.93320086828007)"
    font-size="12pt"
    string="\mathbb{R}^m"
  >
    <title>`Rm`.text</title>
    <svg
      style="font-size: 12pt"
      xmlns="http://www.w3.org/2000/svg"
      width="25.179627999999997"
      height="17.66"
      role="img"
      focusable="false"
      viewBox="0 -750 1425.8 1000"
    >
      <g
        stroke="none"
        fill="#000000"
        stroke-width="0"
        transform="scale(1,-1)"
        fill-opacity="1"
      >
        <g data-mml-node="math">
          <g data-mml-node="mtable">
            <g data-mml-node="mtr">
              <g data-mml-node="mtd">
                <g data-mml-node="msup">
                  <g data-mml-node="TeXAtom" data-mjx-texclass="ORD">
                    <g data-mml-node="mi">
                      <path
                        data-c="211D"
                        d="M17 665Q17 672 28 683H221Q415 681 439 677Q461 673 481 667T516 654T544 639T566 623T584 607T597 592T607 578T614 565T618 554L621 548Q626 530 626 497Q626 447 613 419Q578 348 473 326L455 321Q462 310 473 292T517 226T578 141T637 72T686 35Q705 30 705 16Q705 7 693 -1H510Q503 6 404 159L306 310H268V183Q270 67 271 59Q274 42 291 38Q295 37 319 35Q344 35 353 28Q362 17 353 3L346 -1H28Q16 5 16 16Q16 35 55 35Q96 38 101 52Q106 60 106 341T101 632Q95 645 55 648Q17 648 17 665ZM241 35Q238 42 237 45T235 78T233 163T233 337V621L237 635L244 648H133Q136 641 137 638T139 603T141 517T141 341Q141 131 140 89T134 37Q133 36 133 35H241ZM457 496Q457 540 449 570T425 615T400 634T377 643Q374 643 339 648Q300 648 281 635Q271 628 270 610T268 481V346H284Q327 346 375 352Q421 364 439 392T457 496ZM492 537T492 496T488 427T478 389T469 371T464 361Q464 360 465 360Q469 360 497 370Q593 400 593 495Q593 592 477 630L457 637L461 626Q474 611 488 561Q492 537 492 496ZM464 243Q411 317 410 317Q404 317 401 315Q384 315 370 312H346L526 35H619L606 50Q553 109 464 243Z"
                      ></path>
                    </g>
                  </g>
                  <g
                    data-mml-node="mi"
                    transform="translate(755,413) scale(0.707)"
                  >
                    <path
                      data-c="1D45A"
                      d="M21 287Q22 293 24 303T36 341T56 388T88 425T132 442T175 435T205 417T221 395T229 376L231 369Q231 367 232 367L243 378Q303 442 384 442Q401 442 415 440T441 433T460 423T475 411T485 398T493 385T497 373T500 364T502 357L510 367Q573 442 659 442Q713 442 746 415T780 336Q780 285 742 178T704 50Q705 36 709 31T724 26Q752 26 776 56T815 138Q818 149 821 151T837 153Q857 153 857 145Q857 144 853 130Q845 101 831 73T785 17T716 -10Q669 -10 648 17T627 73Q627 92 663 193T700 345Q700 404 656 404H651Q565 404 506 303L499 291L466 157Q433 26 428 16Q415 -11 385 -11Q372 -11 364 -4T353 8T350 18Q350 29 384 161L420 307Q423 322 423 345Q423 404 379 404H374Q288 404 229 303L222 291L189 157Q156 26 151 16Q138 -11 108 -11Q95 -11 87 -5T76 7T74 17Q74 30 112 181Q151 335 151 342Q154 357 154 369Q154 405 129 405Q107 405 92 377T69 316T57 280Q55 278 41 278H27Q21 284 21 287Z"
                    ></path>
                  </g>
                </g>
              </g>
            </g>
          </g>
        </g>
      </g>
    </svg>
  </g>
</svg>
