<svg version="1.2" xmlns="http://www.w3.org/2000/svg" viewBox="0 0 800 700">
  <g>
    <path
      d="M 387.4339093352423 271.26427187921587 L 405.89229999664144 176.45125447665873"
      stroke-opacity="1"
      stroke-width="2"
      stroke="#000000"
      stroke-linecap="butt"
    ></path>
    <title>`C4C5`.line1</title>
  </g>
  <g>
    <path
      d="M 551.3260649135616 381.1707782621796 L 635.8626156757573 354.5304386413836"
      stroke-opacity="1"
      stroke-width="2"
      stroke="#000000"
      stroke-linecap="butt"
    ></path>
    <title>`C2H3`.line1</title>
  </g>
  <g>
    <path
      d="M 551.3260649135616 381.1707782621796 L 560.353673537523 295.0868609442142"
      stroke-opacity="1"
      stroke-width="2"
      stroke="#000000"
      stroke-linecap="butt"
    ></path>
    <title>`C2H4`.line1</title>
  </g>
  <g>
    <path
      d="M 603.8331313670133 564.1964127349447 L 547.6249329037267 628.2363610653188"
      stroke-opacity="1"
      stroke-width="2"
      stroke="#000000"
      stroke-linecap="butt"
    ></path>
    <title>`N1H1`.line1</title>
  </g>
  <g>
    <path
      d="M 603.8331313670133 564.1964127349447 L 668.0794756194068 621.1337412302106"
      stroke-opacity="1"
      stroke-width="2"
      stroke="#000000"
      stroke-linecap="butt"
    ></path>
    <title>`N1H2`.line1</title>
  </g>
  <g>
    <path
      d="M 405.89229999664144 176.45125447665873 L 481.4776687687198 136.6066801681086"
      stroke-opacity="1"
      stroke-width="6"
      stroke="#000000"
      stroke-linecap="butt"
    ></path>
    <title>`C5O2`.line1</title>
  </g>
  <g>
    <path
      d="M 405.89229999664144 176.45125447665873 L 481.4776687687198 136.6066801681086"
      stroke-opacity="1"
      stroke-width="2"
      stroke="#ffffff"
      stroke-linecap="butt"
    ></path>
    <title>`C5O2`.line2</title>
  </g>
  <g>
    <path
      d="M 600.8071659223556 469.9774583737671 L 603.8331313670133 564.1964127349447"
      stroke-opacity="1"
      stroke-width="2"
      stroke="#000000"
      stroke-linecap="butt"
    ></path>
    <title>`C1N1`.line1</title>
  </g>
  <g>
    <path
      d="M 447.82326495569237 357.475262870573 L 387.4339093352423 271.26427187921587"
      stroke-opacity="1"
      stroke-width="2"
      stroke="#000000"
      stroke-linecap="butt"
    ></path>
    <title>`C3C4`.line1</title>
  </g>
  <g>
    <path
      d="M 447.82326495569237 357.475262870573 L 447.2915031198076 444.7016722118402"
      stroke-opacity="1"
      stroke-width="2"
      stroke="#000000"
      stroke-linecap="butt"
    ></path>
    <title>`C3H6`.line1</title>
  </g>
  <g>
    <path
      d="M 600.8071659223556 469.9774583737671 L 551.3260649135616 381.1707782621796"
      stroke-opacity="1"
      stroke-width="2"
      stroke="#000000"
      stroke-linecap="butt"
    ></path>
    <title>`C1C2`.line1</title>
  </g>
  <g>
    <path
      d="M 291.34359598296146 269.2420689189662 L 227.59133779623113 211.50857703974242"
      stroke-opacity="1"
      stroke-width="2"
      stroke="#000000"
      stroke-linecap="butt"
    ></path>
    <title>`N2H7`.line1</title>
  </g>
  <g>
    <path
      d="M 405.89229999664144 176.45125447665873 L 369.54563434528507 94.41845596454604"
      stroke-opacity="1"
      stroke-width="2"
      stroke="#000000"
      stroke-linecap="butt"
    ></path>
    <title>`C5O3`.line1</title>
  </g>
  <g>
    <path
      d="M 551.3260649135616 381.1707782621796 L 447.82326495569237 357.475262870573"
      stroke-opacity="1"
      stroke-width="2"
      stroke="#000000"
      stroke-linecap="butt"
    ></path>
    <title>`C2C3`.line1</title>
  </g>
  <g>
    <path
      d="M 387.4339093352423 271.26427187921587 L 291.34359598296146 269.2420689189662"
      stroke-opacity="1"
      stroke-width="2"
      stroke="#000000"
      stroke-linecap="butt"
    ></path>
    <title>`C4N2`.line1</title>
  </g>
  <g>
    <path
      d="M 369.54563434528507 94.41845596454604 L 344.0034112066529 15.00004195617197"
      stroke-opacity="1"
      stroke-width="2"
      stroke="#000000"
      stroke-linecap="butt"
    ></path>
    <title>`O3H9`.line1</title>
  </g>
  <g>
    <path
      d="M 291.34359598296146 269.2420689189662 L 225.87786209614984 325.3921893600404"
      stroke-opacity="1"
      stroke-width="2"
      stroke="#000000"
      stroke-linecap="butt"
    ></path>
    <title>`N2H8`.line1</title>
  </g>
  <g>
    <path
      d="M 447.82326495569237 357.475262870573 L 368.05456729193895 392.7759988993947"
      stroke-opacity="1"
      stroke-width="2"
      stroke="#000000"
      stroke-linecap="butt"
    ></path>
    <title>`C3H5`.line1</title>
  </g>
  <g>
    <path
      d="M 600.8071659223556 469.9774583737671 L 687.291140757527 470.6427147578743"
      stroke-opacity="1"
      stroke-width="6"
      stroke="#000000"
      stroke-linecap="butt"
    ></path>
    <title>`C1O1`.line1</title>
  </g>
  <g>
    <path
      d="M 600.8071659223556 469.9774583737671 L 687.291140757527 470.6427147578743"
      stroke-opacity="1"
      stroke-width="2"
      stroke="#ffffff"
      stroke-linecap="butt"
    ></path>
    <title>`C1O1`.line2</title>
  </g>
  <circle
    fill="#ffffff"
    fill-opacity="1"
    cx="687.291140757527"
    cy="470.6427147578743"
    stroke="none"
    r="15"
  >
    <title>`O1`.icon</title>
  </circle>
  <g
    transform="rotate(0, 680.553850757527, 461.8127147578743)translate(680.553850757527, 461.8127147578743)"
    font-size="12pt"
    string="O"
  >
    <title>`O1`.symbol</title>
    <svg
      style="font-size: 12pt"
      xmlns="http://www.w3.org/2000/svg"
      width="13.47458"
      height="17.66"
      role="img"
      focusable="false"
      viewBox="0 -750 763 1000"
    >
      <g
        stroke="none"
        fill="#000000"
        stroke-width="0"
        transform="scale(1,-1)"
        fill-opacity="1"
      >
        <g data-mml-node="math">
          <g data-mml-node="mtable">
            <g data-mml-node="mtr">
              <g data-mml-node="mtd">
                <g data-mml-node="mi">
                  <path
                    data-c="1D442"
                    d="M740 435Q740 320 676 213T511 42T304 -22Q207 -22 138 35T51 201Q50 209 50 244Q50 346 98 438T227 601Q351 704 476 704Q514 704 524 703Q621 689 680 617T740 435ZM637 476Q637 565 591 615T476 665Q396 665 322 605Q242 542 200 428T157 216Q157 126 200 73T314 19Q404 19 485 98T608 313Q637 408 637 476Z"
                  ></path>
                </g>
              </g>
            </g>
          </g>
        </g>
      </g>
    </svg>
  </g>
  <circle
    fill="#ffffff"
    fill-opacity="1"
    cx="603.8331313670133"
    cy="564.1964127349447"
    stroke="none"
    r="15"
  >
    <title>`N1`.icon</title>
  </circle>
  <g
    transform="rotate(0, 595.9920913670132, 555.3664127349447)translate(595.9920913670132, 555.3664127349447)"
    font-size="12pt"
    string="N"
  >
    <title>`N1`.symbol</title>
    <svg
      style="font-size: 12pt"
      xmlns="http://www.w3.org/2000/svg"
      width="15.68208"
      height="17.66"
      role="img"
      focusable="false"
      viewBox="0 -750 888 1000"
    >
      <g
        stroke="none"
        fill="#000000"
        stroke-width="0"
        transform="scale(1,-1)"
        fill-opacity="1"
      >
        <g data-mml-node="math">
          <g data-mml-node="mtable">
            <g data-mml-node="mtr">
              <g data-mml-node="mtd">
                <g data-mml-node="mi">
                  <path
                    data-c="1D441"
                    d="M234 637Q231 637 226 637Q201 637 196 638T191 649Q191 676 202 682Q204 683 299 683Q376 683 387 683T401 677Q612 181 616 168L670 381Q723 592 723 606Q723 633 659 637Q635 637 635 648Q635 650 637 660Q641 676 643 679T653 683Q656 683 684 682T767 680Q817 680 843 681T873 682Q888 682 888 672Q888 650 880 642Q878 637 858 637Q787 633 769 597L620 7Q618 0 599 0Q585 0 582 2Q579 5 453 305L326 604L261 344Q196 88 196 79Q201 46 268 46H278Q284 41 284 38T282 19Q278 6 272 0H259Q228 2 151 2Q123 2 100 2T63 2T46 1Q31 1 31 10Q31 14 34 26T39 40Q41 46 62 46Q130 49 150 85Q154 91 221 362L289 634Q287 635 234 637Z"
                  ></path>
                </g>
              </g>
            </g>
          </g>
        </g>
      </g>
    </svg>
  </g>
  <circle
    fill="#ffffff"
    fill-opacity="1"
    cx="481.4776687687198"
    cy="136.6066801681086"
    stroke="none"
    r="15"
  >
    <title>`O2`.icon</title>
  </circle>
  <g
    transform="rotate(0, 474.74037876871984, 127.7766801681086)translate(474.74037876871984, 127.7766801681086)"
    font-size="12pt"
    string="O"
  >
    <title>`O2`.symbol</title>
    <svg
      style="font-size: 12pt"
      xmlns="http://www.w3.org/2000/svg"
      width="13.47458"
      height="17.66"
      role="img"
      focusable="false"
      viewBox="0 -750 763 1000"
    >
      <g
        stroke="none"
        fill="#000000"
        stroke-width="0"
        transform="scale(1,-1)"
        fill-opacity="1"
      >
        <g data-mml-node="math">
          <g data-mml-node="mtable">
            <g data-mml-node="mtr">
              <g data-mml-node="mtd">
                <g data-mml-node="mi">
                  <path
                    data-c="1D442"
                    d="M740 435Q740 320 676 213T511 42T304 -22Q207 -22 138 35T51 201Q50 209 50 244Q50 346 98 438T227 601Q351 704 476 704Q514 704 524 703Q621 689 680 617T740 435ZM637 476Q637 565 591 615T476 665Q396 665 322 605Q242 542 200 428T157 216Q157 126 200 73T314 19Q404 19 485 98T608 313Q637 408 637 476Z"
                  ></path>
                </g>
              </g>
            </g>
          </g>
        </g>
      </g>
    </svg>
  </g>
  <circle
    fill="#ffffff"
    fill-opacity="1"
    cx="291.34359598296146"
    cy="269.2420689189662"
    stroke="none"
    r="15"
  >
    <title>`N2`.icon</title>
  </circle>
  <g
    transform="rotate(0, 283.50255598296144, 260.4120689189662)translate(283.50255598296144, 260.4120689189662)"
    font-size="12pt"
    string="N"
  >
    <title>`N2`.symbol</title>
    <svg
      style="font-size: 12pt"
      xmlns="http://www.w3.org/2000/svg"
      width="15.68208"
      height="17.66"
      role="img"
      focusable="false"
      viewBox="0 -750 888 1000"
    >
      <g
        stroke="none"
        fill="#000000"
        stroke-width="0"
        transform="scale(1,-1)"
        fill-opacity="1"
      >
        <g data-mml-node="math">
          <g data-mml-node="mtable">
            <g data-mml-node="mtr">
              <g data-mml-node="mtd">
                <g data-mml-node="mi">
                  <path
                    data-c="1D441"
                    d="M234 637Q231 637 226 637Q201 637 196 638T191 649Q191 676 202 682Q204 683 299 683Q376 683 387 683T401 677Q612 181 616 168L670 381Q723 592 723 606Q723 633 659 637Q635 637 635 648Q635 650 637 660Q641 676 643 679T653 683Q656 683 684 682T767 680Q817 680 843 681T873 682Q888 682 888 672Q888 650 880 642Q878 637 858 637Q787 633 769 597L620 7Q618 0 599 0Q585 0 582 2Q579 5 453 305L326 604L261 344Q196 88 196 79Q201 46 268 46H278Q284 41 284 38T282 19Q278 6 272 0H259Q228 2 151 2Q123 2 100 2T63 2T46 1Q31 1 31 10Q31 14 34 26T39 40Q41 46 62 46Q130 49 150 85Q154 91 221 362L289 634Q287 635 234 637Z"
                  ></path>
                </g>
              </g>
            </g>
          </g>
        </g>
      </g>
    </svg>
  </g>
  <circle
    fill="#ffffff"
    fill-opacity="1"
    cx="369.54563434528507"
    cy="94.41845596454604"
    stroke="none"
    r="15"
  >
    <title>`O3`.icon</title>
  </circle>
  <g
    transform="rotate(0, 362.8083443452851, 85.58845596454604)translate(362.8083443452851, 85.58845596454604)"
    font-size="12pt"
    string="O"
  >
    <title>`O3`.symbol</title>
    <svg
      style="font-size: 12pt"
      xmlns="http://www.w3.org/2000/svg"
      width="13.47458"
      height="17.66"
      role="img"
      focusable="false"
      viewBox="0 -750 763 1000"
    >
      <g
        stroke="none"
        fill="#000000"
        stroke-width="0"
        transform="scale(1,-1)"
        fill-opacity="1"
      >
        <g data-mml-node="math">
          <g data-mml-node="mtable">
            <g data-mml-node="mtr">
              <g data-mml-node="mtd">
                <g data-mml-node="mi">
                  <path
                    data-c="1D442"
                    d="M740 435Q740 320 676 213T511 42T304 -22Q207 -22 138 35T51 201Q50 209 50 244Q50 346 98 438T227 601Q351 704 476 704Q514 704 524 703Q621 689 680 617T740 435ZM637 476Q637 565 591 615T476 665Q396 665 322 605Q242 542 200 428T157 216Q157 126 200 73T314 19Q404 19 485 98T608 313Q637 408 637 476Z"
                  ></path>
                </g>
              </g>
            </g>
          </g>
        </g>
      </g>
    </svg>
  </g>
  <circle
    fill="#ffffff"
    fill-opacity="1"
    cx="547.6249329037267"
    cy="628.2363610653188"
    stroke="none"
    r="15"
  >
    <title>`H1`.icon</title>
  </circle>
  <g
    transform="rotate(0, 539.7838929037267, 619.4063610653187)translate(539.7838929037267, 619.4063610653187)"
    font-size="12pt"
    string="H"
  >
    <title>`H1`.symbol</title>
    <svg
      style="font-size: 12pt"
      xmlns="http://www.w3.org/2000/svg"
      width="15.68208"
      height="17.66"
      role="img"
      focusable="false"
      viewBox="0 -750 888 1000"
    >
      <g
        stroke="none"
        fill="#000000"
        stroke-width="0"
        transform="scale(1,-1)"
        fill-opacity="1"
      >
        <g data-mml-node="math">
          <g data-mml-node="mtable">
            <g data-mml-node="mtr">
              <g data-mml-node="mtd">
                <g data-mml-node="mi">
                  <path
                    data-c="1D43B"
                    d="M228 637Q194 637 192 641Q191 643 191 649Q191 673 202 682Q204 683 219 683Q260 681 355 681Q389 681 418 681T463 682T483 682Q499 682 499 672Q499 670 497 658Q492 641 487 638H485Q483 638 480 638T473 638T464 637T455 637Q416 636 405 634T387 623Q384 619 355 500Q348 474 340 442T328 395L324 380Q324 378 469 378H614L615 381Q615 384 646 504Q674 619 674 627T617 637Q594 637 587 639T580 648Q580 650 582 660Q586 677 588 679T604 682Q609 682 646 681T740 680Q802 680 835 681T871 682Q888 682 888 672Q888 645 876 638H874Q872 638 869 638T862 638T853 637T844 637Q805 636 794 634T776 623Q773 618 704 340T634 58Q634 51 638 51Q646 48 692 46H723Q729 38 729 37T726 19Q722 6 716 0H701Q664 2 567 2Q533 2 504 2T458 2T437 1Q420 1 420 10Q420 15 423 24Q428 43 433 45Q437 46 448 46H454Q481 46 514 49Q520 50 522 50T528 55T534 64T540 82T547 110T558 153Q565 181 569 198Q602 330 602 331T457 332H312L279 197Q245 63 245 58Q245 51 253 49T303 46H334Q340 38 340 37T337 19Q333 6 327 0H312Q275 2 178 2Q144 2 115 2T69 2T48 1Q31 1 31 10Q31 12 34 24Q39 43 44 45Q48 46 59 46H65Q92 46 125 49Q139 52 144 61Q147 65 216 339T285 628Q285 635 228 637Z"
                  ></path>
                </g>
              </g>
            </g>
          </g>
        </g>
      </g>
    </svg>
  </g>
  <circle
    fill="#ffffff"
    fill-opacity="1"
    cx="668.0794756194068"
    cy="621.1337412302106"
    stroke="none"
    r="15"
  >
    <title>`H2`.icon</title>
  </circle>
  <g
    transform="rotate(0, 660.2384356194068, 612.3037412302106)translate(660.2384356194068, 612.3037412302106)"
    font-size="12pt"
    string="H"
  >
    <title>`H2`.symbol</title>
    <svg
      style="font-size: 12pt"
      xmlns="http://www.w3.org/2000/svg"
      width="15.68208"
      height="17.66"
      role="img"
      focusable="false"
      viewBox="0 -750 888 1000"
    >
      <g
        stroke="none"
        fill="#000000"
        stroke-width="0"
        transform="scale(1,-1)"
        fill-opacity="1"
      >
        <g data-mml-node="math">
          <g data-mml-node="mtable">
            <g data-mml-node="mtr">
              <g data-mml-node="mtd">
                <g data-mml-node="mi">
                  <path
                    data-c="1D43B"
                    d="M228 637Q194 637 192 641Q191 643 191 649Q191 673 202 682Q204 683 219 683Q260 681 355 681Q389 681 418 681T463 682T483 682Q499 682 499 672Q499 670 497 658Q492 641 487 638H485Q483 638 480 638T473 638T464 637T455 637Q416 636 405 634T387 623Q384 619 355 500Q348 474 340 442T328 395L324 380Q324 378 469 378H614L615 381Q615 384 646 504Q674 619 674 627T617 637Q594 637 587 639T580 648Q580 650 582 660Q586 677 588 679T604 682Q609 682 646 681T740 680Q802 680 835 681T871 682Q888 682 888 672Q888 645 876 638H874Q872 638 869 638T862 638T853 637T844 637Q805 636 794 634T776 623Q773 618 704 340T634 58Q634 51 638 51Q646 48 692 46H723Q729 38 729 37T726 19Q722 6 716 0H701Q664 2 567 2Q533 2 504 2T458 2T437 1Q420 1 420 10Q420 15 423 24Q428 43 433 45Q437 46 448 46H454Q481 46 514 49Q520 50 522 50T528 55T534 64T540 82T547 110T558 153Q565 181 569 198Q602 330 602 331T457 332H312L279 197Q245 63 245 58Q245 51 253 49T303 46H334Q340 38 340 37T337 19Q333 6 327 0H312Q275 2 178 2Q144 2 115 2T69 2T48 1Q31 1 31 10Q31 12 34 24Q39 43 44 45Q48 46 59 46H65Q92 46 125 49Q139 52 144 61Q147 65 216 339T285 628Q285 635 228 637Z"
                  ></path>
                </g>
              </g>
            </g>
          </g>
        </g>
      </g>
    </svg>
  </g>
  <circle
    fill="#ffffff"
    fill-opacity="1"
    cx="635.8626156757573"
    cy="354.5304386413836"
    stroke="none"
    r="15"
  >
    <title>`H3`.icon</title>
  </circle>
  <g
    transform="rotate(0, 628.0215756757573, 345.70043864138364)translate(628.0215756757573, 345.70043864138364)"
    font-size="12pt"
    string="H"
  >
    <title>`H3`.symbol</title>
    <svg
      style="font-size: 12pt"
      xmlns="http://www.w3.org/2000/svg"
      width="15.68208"
      height="17.66"
      role="img"
      focusable="false"
      viewBox="0 -750 888 1000"
    >
      <g
        stroke="none"
        fill="#000000"
        stroke-width="0"
        transform="scale(1,-1)"
        fill-opacity="1"
      >
        <g data-mml-node="math">
          <g data-mml-node="mtable">
            <g data-mml-node="mtr">
              <g data-mml-node="mtd">
                <g data-mml-node="mi">
                  <path
                    data-c="1D43B"
                    d="M228 637Q194 637 192 641Q191 643 191 649Q191 673 202 682Q204 683 219 683Q260 681 355 681Q389 681 418 681T463 682T483 682Q499 682 499 672Q499 670 497 658Q492 641 487 638H485Q483 638 480 638T473 638T464 637T455 637Q416 636 405 634T387 623Q384 619 355 500Q348 474 340 442T328 395L324 380Q324 378 469 378H614L615 381Q615 384 646 504Q674 619 674 627T617 637Q594 637 587 639T580 648Q580 650 582 660Q586 677 588 679T604 682Q609 682 646 681T740 680Q802 680 835 681T871 682Q888 682 888 672Q888 645 876 638H874Q872 638 869 638T862 638T853 637T844 637Q805 636 794 634T776 623Q773 618 704 340T634 58Q634 51 638 51Q646 48 692 46H723Q729 38 729 37T726 19Q722 6 716 0H701Q664 2 567 2Q533 2 504 2T458 2T437 1Q420 1 420 10Q420 15 423 24Q428 43 433 45Q437 46 448 46H454Q481 46 514 49Q520 50 522 50T528 55T534 64T540 82T547 110T558 153Q565 181 569 198Q602 330 602 331T457 332H312L279 197Q245 63 245 58Q245 51 253 49T303 46H334Q340 38 340 37T337 19Q333 6 327 0H312Q275 2 178 2Q144 2 115 2T69 2T48 1Q31 1 31 10Q31 12 34 24Q39 43 44 45Q48 46 59 46H65Q92 46 125 49Q139 52 144 61Q147 65 216 339T285 628Q285 635 228 637Z"
                  ></path>
                </g>
              </g>
            </g>
          </g>
        </g>
      </g>
    </svg>
  </g>
  <circle
    fill="#ffffff"
    fill-opacity="1"
    cx="560.353673537523"
    cy="295.0868609442142"
    stroke="none"
    r="15"
  >
    <title>`H4`.icon</title>
  </circle>
  <g
    transform="rotate(0, 552.512633537523, 286.2568609442142)translate(552.512633537523, 286.2568609442142)"
    font-size="12pt"
    string="H"
  >
    <title>`H4`.symbol</title>
    <svg
      style="font-size: 12pt"
      xmlns="http://www.w3.org/2000/svg"
      width="15.68208"
      height="17.66"
      role="img"
      focusable="false"
      viewBox="0 -750 888 1000"
    >
      <g
        stroke="none"
        fill="#000000"
        stroke-width="0"
        transform="scale(1,-1)"
        fill-opacity="1"
      >
        <g data-mml-node="math">
          <g data-mml-node="mtable">
            <g data-mml-node="mtr">
              <g data-mml-node="mtd">
                <g data-mml-node="mi">
                  <path
                    data-c="1D43B"
                    d="M228 637Q194 637 192 641Q191 643 191 649Q191 673 202 682Q204 683 219 683Q260 681 355 681Q389 681 418 681T463 682T483 682Q499 682 499 672Q499 670 497 658Q492 641 487 638H485Q483 638 480 638T473 638T464 637T455 637Q416 636 405 634T387 623Q384 619 355 500Q348 474 340 442T328 395L324 380Q324 378 469 378H614L615 381Q615 384 646 504Q674 619 674 627T617 637Q594 637 587 639T580 648Q580 650 582 660Q586 677 588 679T604 682Q609 682 646 681T740 680Q802 680 835 681T871 682Q888 682 888 672Q888 645 876 638H874Q872 638 869 638T862 638T853 637T844 637Q805 636 794 634T776 623Q773 618 704 340T634 58Q634 51 638 51Q646 48 692 46H723Q729 38 729 37T726 19Q722 6 716 0H701Q664 2 567 2Q533 2 504 2T458 2T437 1Q420 1 420 10Q420 15 423 24Q428 43 433 45Q437 46 448 46H454Q481 46 514 49Q520 50 522 50T528 55T534 64T540 82T547 110T558 153Q565 181 569 198Q602 330 602 331T457 332H312L279 197Q245 63 245 58Q245 51 253 49T303 46H334Q340 38 340 37T337 19Q333 6 327 0H312Q275 2 178 2Q144 2 115 2T69 2T48 1Q31 1 31 10Q31 12 34 24Q39 43 44 45Q48 46 59 46H65Q92 46 125 49Q139 52 144 61Q147 65 216 339T285 628Q285 635 228 637Z"
                  ></path>
                </g>
              </g>
            </g>
          </g>
        </g>
      </g>
    </svg>
  </g>
  <circle
    fill="#ffffff"
    fill-opacity="1"
    cx="368.05456729193895"
    cy="392.7759988993947"
    stroke="none"
    r="15"
  >
    <title>`H5`.icon</title>
  </circle>
  <g
    transform="rotate(0, 360.21352729193893, 383.94599889939474)translate(360.21352729193893, 383.94599889939474)"
    font-size="12pt"
    string="H"
  >
    <title>`H5`.symbol</title>
    <svg
      style="font-size: 12pt"
      xmlns="http://www.w3.org/2000/svg"
      width="15.68208"
      height="17.66"
      role="img"
      focusable="false"
      viewBox="0 -750 888 1000"
    >
      <g
        stroke="none"
        fill="#000000"
        stroke-width="0"
        transform="scale(1,-1)"
        fill-opacity="1"
      >
        <g data-mml-node="math">
          <g data-mml-node="mtable">
            <g data-mml-node="mtr">
              <g data-mml-node="mtd">
                <g data-mml-node="mi">
                  <path
                    data-c="1D43B"
                    d="M228 637Q194 637 192 641Q191 643 191 649Q191 673 202 682Q204 683 219 683Q260 681 355 681Q389 681 418 681T463 682T483 682Q499 682 499 672Q499 670 497 658Q492 641 487 638H485Q483 638 480 638T473 638T464 637T455 637Q416 636 405 634T387 623Q384 619 355 500Q348 474 340 442T328 395L324 380Q324 378 469 378H614L615 381Q615 384 646 504Q674 619 674 627T617 637Q594 637 587 639T580 648Q580 650 582 660Q586 677 588 679T604 682Q609 682 646 681T740 680Q802 680 835 681T871 682Q888 682 888 672Q888 645 876 638H874Q872 638 869 638T862 638T853 637T844 637Q805 636 794 634T776 623Q773 618 704 340T634 58Q634 51 638 51Q646 48 692 46H723Q729 38 729 37T726 19Q722 6 716 0H701Q664 2 567 2Q533 2 504 2T458 2T437 1Q420 1 420 10Q420 15 423 24Q428 43 433 45Q437 46 448 46H454Q481 46 514 49Q520 50 522 50T528 55T534 64T540 82T547 110T558 153Q565 181 569 198Q602 330 602 331T457 332H312L279 197Q245 63 245 58Q245 51 253 49T303 46H334Q340 38 340 37T337 19Q333 6 327 0H312Q275 2 178 2Q144 2 115 2T69 2T48 1Q31 1 31 10Q31 12 34 24Q39 43 44 45Q48 46 59 46H65Q92 46 125 49Q139 52 144 61Q147 65 216 339T285 628Q285 635 228 637Z"
                  ></path>
                </g>
              </g>
            </g>
          </g>
        </g>
      </g>
    </svg>
  </g>
  <circle
    fill="#ffffff"
    fill-opacity="1"
    cx="600.8071659223556"
    cy="469.9774583737671"
    stroke="none"
    r="15"
  >
    <title>`C1`.icon</title>
  </circle>
  <g
    transform="rotate(0, 594.0963659223556, 461.1474583737671)translate(594.0963659223556, 461.1474583737671)"
    font-size="12pt"
    string="C"
  >
    <title>`C1`.symbol</title>
    <svg
      style="font-size: 12pt"
      xmlns="http://www.w3.org/2000/svg"
      width="13.4216"
      height="17.66"
      role="img"
      focusable="false"
      viewBox="0 -750 760 1000"
    >
      <g
        stroke="none"
        fill="#000000"
        stroke-width="0"
        transform="scale(1,-1)"
        fill-opacity="1"
      >
        <g data-mml-node="math">
          <g data-mml-node="mtable">
            <g data-mml-node="mtr">
              <g data-mml-node="mtd">
                <g data-mml-node="mi">
                  <path
                    data-c="1D436"
                    d="M50 252Q50 367 117 473T286 641T490 704Q580 704 633 653Q642 643 648 636T656 626L657 623Q660 623 684 649Q691 655 699 663T715 679T725 690L740 705H746Q760 705 760 698Q760 694 728 561Q692 422 692 421Q690 416 687 415T669 413H653Q647 419 647 422Q647 423 648 429T650 449T651 481Q651 552 619 605T510 659Q484 659 454 652T382 628T299 572T226 479Q194 422 175 346T156 222Q156 108 232 58Q280 24 350 24Q441 24 512 92T606 240Q610 253 612 255T628 257Q648 257 648 248Q648 243 647 239Q618 132 523 55T319 -22Q206 -22 128 53T50 252Z"
                  ></path>
                </g>
              </g>
            </g>
          </g>
        </g>
      </g>
    </svg>
  </g>
  <circle
    fill="#ffffff"
    fill-opacity="1"
    cx="447.2915031198076"
    cy="444.7016722118402"
    stroke="none"
    r="15"
  >
    <title>`H6`.icon</title>
  </circle>
  <g
    transform="rotate(0, 439.4504631198076, 435.87167221184023)translate(439.4504631198076, 435.87167221184023)"
    font-size="12pt"
    string="H"
  >
    <title>`H6`.symbol</title>
    <svg
      style="font-size: 12pt"
      xmlns="http://www.w3.org/2000/svg"
      width="15.68208"
      height="17.66"
      role="img"
      focusable="false"
      viewBox="0 -750 888 1000"
    >
      <g
        stroke="none"
        fill="#000000"
        stroke-width="0"
        transform="scale(1,-1)"
        fill-opacity="1"
      >
        <g data-mml-node="math">
          <g data-mml-node="mtable">
            <g data-mml-node="mtr">
              <g data-mml-node="mtd">
                <g data-mml-node="mi">
                  <path
                    data-c="1D43B"
                    d="M228 637Q194 637 192 641Q191 643 191 649Q191 673 202 682Q204 683 219 683Q260 681 355 681Q389 681 418 681T463 682T483 682Q499 682 499 672Q499 670 497 658Q492 641 487 638H485Q483 638 480 638T473 638T464 637T455 637Q416 636 405 634T387 623Q384 619 355 500Q348 474 340 442T328 395L324 380Q324 378 469 378H614L615 381Q615 384 646 504Q674 619 674 627T617 637Q594 637 587 639T580 648Q580 650 582 660Q586 677 588 679T604 682Q609 682 646 681T740 680Q802 680 835 681T871 682Q888 682 888 672Q888 645 876 638H874Q872 638 869 638T862 638T853 637T844 637Q805 636 794 634T776 623Q773 618 704 340T634 58Q634 51 638 51Q646 48 692 46H723Q729 38 729 37T726 19Q722 6 716 0H701Q664 2 567 2Q533 2 504 2T458 2T437 1Q420 1 420 10Q420 15 423 24Q428 43 433 45Q437 46 448 46H454Q481 46 514 49Q520 50 522 50T528 55T534 64T540 82T547 110T558 153Q565 181 569 198Q602 330 602 331T457 332H312L279 197Q245 63 245 58Q245 51 253 49T303 46H334Q340 38 340 37T337 19Q333 6 327 0H312Q275 2 178 2Q144 2 115 2T69 2T48 1Q31 1 31 10Q31 12 34 24Q39 43 44 45Q48 46 59 46H65Q92 46 125 49Q139 52 144 61Q147 65 216 339T285 628Q285 635 228 637Z"
                  ></path>
                </g>
              </g>
            </g>
          </g>
        </g>
      </g>
    </svg>
  </g>
  <circle
    fill="#ffffff"
    fill-opacity="1"
    cx="551.3260649135616"
    cy="381.1707782621796"
    stroke="none"
    r="15"
  >
    <title>`C2`.icon</title>
  </circle>
  <g
    transform="rotate(0, 544.6152649135616, 372.34077826217964)translate(544.6152649135616, 372.34077826217964)"
    font-size="12pt"
    string="C"
  >
    <title>`C2`.symbol</title>
    <svg
      style="font-size: 12pt"
      xmlns="http://www.w3.org/2000/svg"
      width="13.4216"
      height="17.66"
      role="img"
      focusable="false"
      viewBox="0 -750 760 1000"
    >
      <g
        stroke="none"
        fill="#000000"
        stroke-width="0"
        transform="scale(1,-1)"
        fill-opacity="1"
      >
        <g data-mml-node="math">
          <g data-mml-node="mtable">
            <g data-mml-node="mtr">
              <g data-mml-node="mtd">
                <g data-mml-node="mi">
                  <path
                    data-c="1D436"
                    d="M50 252Q50 367 117 473T286 641T490 704Q580 704 633 653Q642 643 648 636T656 626L657 623Q660 623 684 649Q691 655 699 663T715 679T725 690L740 705H746Q760 705 760 698Q760 694 728 561Q692 422 692 421Q690 416 687 415T669 413H653Q647 419 647 422Q647 423 648 429T650 449T651 481Q651 552 619 605T510 659Q484 659 454 652T382 628T299 572T226 479Q194 422 175 346T156 222Q156 108 232 58Q280 24 350 24Q441 24 512 92T606 240Q610 253 612 255T628 257Q648 257 648 248Q648 243 647 239Q618 132 523 55T319 -22Q206 -22 128 53T50 252Z"
                  ></path>
                </g>
              </g>
            </g>
          </g>
        </g>
      </g>
    </svg>
  </g>
  <circle
    fill="#ffffff"
    fill-opacity="1"
    cx="227.59133779623113"
    cy="211.50857703974242"
    stroke="none"
    r="15"
  >
    <title>`H7`.icon</title>
  </circle>
  <g
    transform="rotate(0, 219.75029779623114, 202.6785770397424)translate(219.75029779623114, 202.6785770397424)"
    font-size="12pt"
    string="H"
  >
    <title>`H7`.symbol</title>
    <svg
      style="font-size: 12pt"
      xmlns="http://www.w3.org/2000/svg"
      width="15.68208"
      height="17.66"
      role="img"
      focusable="false"
      viewBox="0 -750 888 1000"
    >
      <g
        stroke="none"
        fill="#000000"
        stroke-width="0"
        transform="scale(1,-1)"
        fill-opacity="1"
      >
        <g data-mml-node="math">
          <g data-mml-node="mtable">
            <g data-mml-node="mtr">
              <g data-mml-node="mtd">
                <g data-mml-node="mi">
                  <path
                    data-c="1D43B"
                    d="M228 637Q194 637 192 641Q191 643 191 649Q191 673 202 682Q204 683 219 683Q260 681 355 681Q389 681 418 681T463 682T483 682Q499 682 499 672Q499 670 497 658Q492 641 487 638H485Q483 638 480 638T473 638T464 637T455 637Q416 636 405 634T387 623Q384 619 355 500Q348 474 340 442T328 395L324 380Q324 378 469 378H614L615 381Q615 384 646 504Q674 619 674 627T617 637Q594 637 587 639T580 648Q580 650 582 660Q586 677 588 679T604 682Q609 682 646 681T740 680Q802 680 835 681T871 682Q888 682 888 672Q888 645 876 638H874Q872 638 869 638T862 638T853 637T844 637Q805 636 794 634T776 623Q773 618 704 340T634 58Q634 51 638 51Q646 48 692 46H723Q729 38 729 37T726 19Q722 6 716 0H701Q664 2 567 2Q533 2 504 2T458 2T437 1Q420 1 420 10Q420 15 423 24Q428 43 433 45Q437 46 448 46H454Q481 46 514 49Q520 50 522 50T528 55T534 64T540 82T547 110T558 153Q565 181 569 198Q602 330 602 331T457 332H312L279 197Q245 63 245 58Q245 51 253 49T303 46H334Q340 38 340 37T337 19Q333 6 327 0H312Q275 2 178 2Q144 2 115 2T69 2T48 1Q31 1 31 10Q31 12 34 24Q39 43 44 45Q48 46 59 46H65Q92 46 125 49Q139 52 144 61Q147 65 216 339T285 628Q285 635 228 637Z"
                  ></path>
                </g>
              </g>
            </g>
          </g>
        </g>
      </g>
    </svg>
  </g>
  <circle
    fill="#ffffff"
    fill-opacity="1"
    cx="447.82326495569237"
    cy="357.475262870573"
    stroke="none"
    r="15"
  >
    <title>`C3`.icon</title>
  </circle>
  <g
    transform="rotate(0, 441.11246495569236, 348.645262870573)translate(441.11246495569236, 348.645262870573)"
    font-size="12pt"
    string="C"
  >
    <title>`C3`.symbol</title>
    <svg
      style="font-size: 12pt"
      xmlns="http://www.w3.org/2000/svg"
      width="13.4216"
      height="17.66"
      role="img"
      focusable="false"
      viewBox="0 -750 760 1000"
    >
      <g
        stroke="none"
        fill="#000000"
        stroke-width="0"
        transform="scale(1,-1)"
        fill-opacity="1"
      >
        <g data-mml-node="math">
          <g data-mml-node="mtable">
            <g data-mml-node="mtr">
              <g data-mml-node="mtd">
                <g data-mml-node="mi">
                  <path
                    data-c="1D436"
                    d="M50 252Q50 367 117 473T286 641T490 704Q580 704 633 653Q642 643 648 636T656 626L657 623Q660 623 684 649Q691 655 699 663T715 679T725 690L740 705H746Q760 705 760 698Q760 694 728 561Q692 422 692 421Q690 416 687 415T669 413H653Q647 419 647 422Q647 423 648 429T650 449T651 481Q651 552 619 605T510 659Q484 659 454 652T382 628T299 572T226 479Q194 422 175 346T156 222Q156 108 232 58Q280 24 350 24Q441 24 512 92T606 240Q610 253 612 255T628 257Q648 257 648 248Q648 243 647 239Q618 132 523 55T319 -22Q206 -22 128 53T50 252Z"
                  ></path>
                </g>
              </g>
            </g>
          </g>
        </g>
      </g>
    </svg>
  </g>
  <circle
    fill="#ffffff"
    fill-opacity="1"
    cx="225.87786209614984"
    cy="325.3921893600404"
    stroke="none"
    r="15"
  >
    <title>`H8`.icon</title>
  </circle>
  <g
    transform="rotate(0, 218.03682209614985, 316.5621893600404)translate(218.03682209614985, 316.5621893600404)"
    font-size="12pt"
    string="H"
  >
    <title>`H8`.symbol</title>
    <svg
      style="font-size: 12pt"
      xmlns="http://www.w3.org/2000/svg"
      width="15.68208"
      height="17.66"
      role="img"
      focusable="false"
      viewBox="0 -750 888 1000"
    >
      <g
        stroke="none"
        fill="#000000"
        stroke-width="0"
        transform="scale(1,-1)"
        fill-opacity="1"
      >
        <g data-mml-node="math">
          <g data-mml-node="mtable">
            <g data-mml-node="mtr">
              <g data-mml-node="mtd">
                <g data-mml-node="mi">
                  <path
                    data-c="1D43B"
                    d="M228 637Q194 637 192 641Q191 643 191 649Q191 673 202 682Q204 683 219 683Q260 681 355 681Q389 681 418 681T463 682T483 682Q499 682 499 672Q499 670 497 658Q492 641 487 638H485Q483 638 480 638T473 638T464 637T455 637Q416 636 405 634T387 623Q384 619 355 500Q348 474 340 442T328 395L324 380Q324 378 469 378H614L615 381Q615 384 646 504Q674 619 674 627T617 637Q594 637 587 639T580 648Q580 650 582 660Q586 677 588 679T604 682Q609 682 646 681T740 680Q802 680 835 681T871 682Q888 682 888 672Q888 645 876 638H874Q872 638 869 638T862 638T853 637T844 637Q805 636 794 634T776 623Q773 618 704 340T634 58Q634 51 638 51Q646 48 692 46H723Q729 38 729 37T726 19Q722 6 716 0H701Q664 2 567 2Q533 2 504 2T458 2T437 1Q420 1 420 10Q420 15 423 24Q428 43 433 45Q437 46 448 46H454Q481 46 514 49Q520 50 522 50T528 55T534 64T540 82T547 110T558 153Q565 181 569 198Q602 330 602 331T457 332H312L279 197Q245 63 245 58Q245 51 253 49T303 46H334Q340 38 340 37T337 19Q333 6 327 0H312Q275 2 178 2Q144 2 115 2T69 2T48 1Q31 1 31 10Q31 12 34 24Q39 43 44 45Q48 46 59 46H65Q92 46 125 49Q139 52 144 61Q147 65 216 339T285 628Q285 635 228 637Z"
                  ></path>
                </g>
              </g>
            </g>
          </g>
        </g>
      </g>
    </svg>
  </g>
  <circle
    fill="#ffffff"
    fill-opacity="1"
    cx="387.4339093352423"
    cy="271.26427187921587"
    stroke="none"
    r="15"
  >
    <title>`C4`.icon</title>
  </circle>
  <g
    transform="rotate(0, 380.72310933524227, 262.4342718792159)translate(380.72310933524227, 262.4342718792159)"
    font-size="12pt"
    string="C"
  >
    <title>`C4`.symbol</title>
    <svg
      style="font-size: 12pt"
      xmlns="http://www.w3.org/2000/svg"
      width="13.4216"
      height="17.66"
      role="img"
      focusable="false"
      viewBox="0 -750 760 1000"
    >
      <g
        stroke="none"
        fill="#000000"
        stroke-width="0"
        transform="scale(1,-1)"
        fill-opacity="1"
      >
        <g data-mml-node="math">
          <g data-mml-node="mtable">
            <g data-mml-node="mtr">
              <g data-mml-node="mtd">
                <g data-mml-node="mi">
                  <path
                    data-c="1D436"
                    d="M50 252Q50 367 117 473T286 641T490 704Q580 704 633 653Q642 643 648 636T656 626L657 623Q660 623 684 649Q691 655 699 663T715 679T725 690L740 705H746Q760 705 760 698Q760 694 728 561Q692 422 692 421Q690 416 687 415T669 413H653Q647 419 647 422Q647 423 648 429T650 449T651 481Q651 552 619 605T510 659Q484 659 454 652T382 628T299 572T226 479Q194 422 175 346T156 222Q156 108 232 58Q280 24 350 24Q441 24 512 92T606 240Q610 253 612 255T628 257Q648 257 648 248Q648 243 647 239Q618 132 523 55T319 -22Q206 -22 128 53T50 252Z"
                  ></path>
                </g>
              </g>
            </g>
          </g>
        </g>
      </g>
    </svg>
  </g>
  <circle
    fill="#ffffff"
    fill-opacity="1"
    cx="344.0034112066529"
    cy="15.00004195617197"
    stroke="none"
    r="15"
  >
    <title>`H9`.icon</title>
  </circle>
  <g
    transform="rotate(0, 336.1623712066529, 6.1700419561719695)translate(336.1623712066529, 6.1700419561719695)"
    font-size="12pt"
    string="H"
  >
    <title>`H9`.symbol</title>
    <svg
      style="font-size: 12pt"
      xmlns="http://www.w3.org/2000/svg"
      width="15.68208"
      height="17.66"
      role="img"
      focusable="false"
      viewBox="0 -750 888 1000"
    >
      <g
        stroke="none"
        fill="#000000"
        stroke-width="0"
        transform="scale(1,-1)"
        fill-opacity="1"
      >
        <g data-mml-node="math">
          <g data-mml-node="mtable">
            <g data-mml-node="mtr">
              <g data-mml-node="mtd">
                <g data-mml-node="mi">
                  <path
                    data-c="1D43B"
                    d="M228 637Q194 637 192 641Q191 643 191 649Q191 673 202 682Q204 683 219 683Q260 681 355 681Q389 681 418 681T463 682T483 682Q499 682 499 672Q499 670 497 658Q492 641 487 638H485Q483 638 480 638T473 638T464 637T455 637Q416 636 405 634T387 623Q384 619 355 500Q348 474 340 442T328 395L324 380Q324 378 469 378H614L615 381Q615 384 646 504Q674 619 674 627T617 637Q594 637 587 639T580 648Q580 650 582 660Q586 677 588 679T604 682Q609 682 646 681T740 680Q802 680 835 681T871 682Q888 682 888 672Q888 645 876 638H874Q872 638 869 638T862 638T853 637T844 637Q805 636 794 634T776 623Q773 618 704 340T634 58Q634 51 638 51Q646 48 692 46H723Q729 38 729 37T726 19Q722 6 716 0H701Q664 2 567 2Q533 2 504 2T458 2T437 1Q420 1 420 10Q420 15 423 24Q428 43 433 45Q437 46 448 46H454Q481 46 514 49Q520 50 522 50T528 55T534 64T540 82T547 110T558 153Q565 181 569 198Q602 330 602 331T457 332H312L279 197Q245 63 245 58Q245 51 253 49T303 46H334Q340 38 340 37T337 19Q333 6 327 0H312Q275 2 178 2Q144 2 115 2T69 2T48 1Q31 1 31 10Q31 12 34 24Q39 43 44 45Q48 46 59 46H65Q92 46 125 49Q139 52 144 61Q147 65 216 339T285 628Q285 635 228 637Z"
                  ></path>
                </g>
              </g>
            </g>
          </g>
        </g>
      </g>
    </svg>
  </g>
  <circle
    fill="#ffffff"
    fill-opacity="1"
    cx="405.89229999664144"
    cy="176.45125447665873"
    stroke="none"
    r="15"
  >
    <title>`C5`.icon</title>
  </circle>
  <g
    transform="rotate(0, 399.18149999664143, 167.62125447665872)translate(399.18149999664143, 167.62125447665872)"
    font-size="12pt"
    string="C"
  >
    <title>`C5`.symbol</title>
    <svg
      style="font-size: 12pt"
      xmlns="http://www.w3.org/2000/svg"
      width="13.4216"
      height="17.66"
      role="img"
      focusable="false"
      viewBox="0 -750 760 1000"
    >
      <g
        stroke="none"
        fill="#000000"
        stroke-width="0"
        transform="scale(1,-1)"
        fill-opacity="1"
      >
        <g data-mml-node="math">
          <g data-mml-node="mtable">
            <g data-mml-node="mtr">
              <g data-mml-node="mtd">
                <g data-mml-node="mi">
                  <path
                    data-c="1D436"
                    d="M50 252Q50 367 117 473T286 641T490 704Q580 704 633 653Q642 643 648 636T656 626L657 623Q660 623 684 649Q691 655 699 663T715 679T725 690L740 705H746Q760 705 760 698Q760 694 728 561Q692 422 692 421Q690 416 687 415T669 413H653Q647 419 647 422Q647 423 648 429T650 449T651 481Q651 552 619 605T510 659Q484 659 454 652T382 628T299 572T226 479Q194 422 175 346T156 222Q156 108 232 58Q280 24 350 24Q441 24 512 92T606 240Q610 253 612 255T628 257Q648 257 648 248Q648 243 647 239Q618 132 523 55T319 -22Q206 -22 128 53T50 252Z"
                  ></path>
                </g>
              </g>
            </g>
          </g>
        </g>
      </g>
    </svg>
  </g>
</svg>
