<svg version="1.2" xmlns="http://www.w3.org/2000/svg" viewBox="0 0 240 200">
  <g>
    <path
      d="M 156 190 L 156 10"
      stroke-opacity="0.26666666666666666"
      stroke-width="0.35"
      stroke="#888888"
      stroke-linecap="butt"
    ></path>
    <title>global.gridX2</title>
  </g>
  <g>
    <path
      d="M 30 46 L 210 46"
      stroke-opacity="0.26666666666666666"
      stroke-width="0.35"
      stroke="#888888"
      stroke-linecap="butt"
    ></path>
    <title>global.gridY3</title>
  </g>
  <g>
    <path
      d="M 174 190 L 174 10"
      stroke-opacity="0.26666666666666666"
      stroke-width="0.35"
      stroke="#888888"
      stroke-linecap="butt"
    ></path>
    <title>global.gridX3</title>
  </g>
  <g>
    <path
      d="M 30 28 L 210 28"
      stroke-opacity="0.26666666666666666"
      stroke-width="0.35"
      stroke="#888888"
      stroke-linecap="butt"
    ></path>
    <title>global.gridY4</title>
  </g>
  <g>
    <path
      d="M 192 190 L 192 10"
      stroke-opacity="0.26666666666666666"
      stroke-width="0.35"
      stroke="#888888"
      stroke-linecap="butt"
    ></path>
    <title>global.gridX4</title>
  </g>
  <rect
    x="30"
    y="10"
    width="180"
    height="180"
    fill="#1b1f8a"
    fill-opacity="0.06666666666666667"
    stroke="none"
    rx="0"
    transform="rotate(0, 30, 10)"
  >
    <title>global.box</title>
  </rect>
  <g>
    <path
      d="M 102 190 L 102 10"
      stroke-opacity="0.26666666666666666"
      stroke-width="0.35"
      stroke="#888888"
      stroke-linecap="butt"
    ></path>
    <title>global.gridXn1</title>
  </g>
  <g>
    <path
      d="M 30 118 L 210 118"
      stroke-opacity="0.26666666666666666"
      stroke-width="0.35"
      stroke="#888888"
      stroke-linecap="butt"
    ></path>
    <title>global.gridYn1</title>
  </g>
  <g>
    <path
      d="M 84 190 L 84 10"
      stroke-opacity="0.26666666666666666"
      stroke-width="0.35"
      stroke="#888888"
      stroke-linecap="butt"
    ></path>
    <title>global.gridXn2</title>
  </g>
  <g>
    <path
      d="M 30 136 L 210 136"
      stroke-opacity="0.26666666666666666"
      stroke-width="0.35"
      stroke="#888888"
      stroke-linecap="butt"
    ></path>
    <title>global.gridYn2</title>
  </g>
  <g>
    <path
      d="M 66 190 L 66 10"
      stroke-opacity="0.26666666666666666"
      stroke-width="0.35"
      stroke="#888888"
      stroke-linecap="butt"
    ></path>
    <title>global.gridXn3</title>
  </g>
  <g>
    <path
      d="M 30 154 L 210 154"
      stroke-opacity="0.26666666666666666"
      stroke-width="0.35"
      stroke="#888888"
      stroke-linecap="butt"
    ></path>
    <title>global.gridYn3</title>
  </g>
  <g>
    <path
      d="M 48 190 L 48 10"
      stroke-opacity="0.26666666666666666"
      stroke-width="0.35"
      stroke="#888888"
      stroke-linecap="butt"
    ></path>
    <title>global.gridXn4</title>
  </g>
  <g>
    <marker
      id="f7b35bf0-1e9a-4e1d-b50a-a34ffea3a2e7-endArrowId"
      markerUnits="strokeWidth"
      markerWidth="4.98"
      markerHeight="4.06"
      viewBox="0 0 9.95 8.12"
      refX="2.36"
      refY="4.06"
      orient="auto-start-reverse"
    >
      <path
        d="M9.95 4.06 0 8.12 2.36 4.06 0 0 9.95 4.06z"
        fill="#888888"
        fill-opacity="1"
      ></path>
    </marker>
    <path
      d="M 30 100 L 207.53325 100"
      stroke-opacity="1"
      stroke-width="0.65"
      stroke="#888888"
      stroke-linecap="butt"
      marker-end="url(#f7b35bf0-1e9a-4e1d-b50a-a34ffea3a2e7-endArrowId)"
    ></path>
    <title>global.xAxis</title>
  </g>
  <g>
    <path
      d="M 30 172 L 210 172"
      stroke-opacity="0.26666666666666666"
      stroke-width="0.35"
      stroke="#888888"
      stroke-linecap="butt"
    ></path>
    <title>global.gridYn4</title>
  </g>
  <g>
    <marker
      id="9bd8c768-b436-4954-a8de-9a6ee044e967-endArrowId"
      markerUnits="strokeWidth"
      markerWidth="4.98"
      markerHeight="4.06"
      viewBox="0 0 9.95 8.12"
      refX="2.36"
      refY="4.06"
      orient="auto-start-reverse"
    >
      <path
        d="M9.95 4.06 0 8.12 2.36 4.06 0 0 9.95 4.06z"
        fill="#888888"
        fill-opacity="1"
      ></path>
    </marker>
    <path
      d="M 120 190 L 120 12.466750000000005"
      stroke-opacity="1"
      stroke-width="0.65"
      stroke="#888888"
      stroke-linecap="butt"
      marker-end="url(#9bd8c768-b436-4954-a8de-9a6ee044e967-endArrowId)"
    ></path>
    <title>global.yAxis</title>
  </g>
  <g>
    <path
      d="M 30 82 L 210 82"
      stroke-opacity="0.26666666666666666"
      stroke-width="0.35"
      stroke="#888888"
      stroke-linecap="butt"
    ></path>
    <title>global.gridY1</title>
  </g>
  <g>
    <path
      d="M 138 190 L 138 10"
      stroke-opacity="0.26666666666666666"
      stroke-width="0.35"
      stroke="#888888"
      stroke-linecap="butt"
    ></path>
    <title>global.gridX1</title>
  </g>
  <g>
    <path
      d="M 30 64 L 210 64"
      stroke-opacity="0.26666666666666666"
      stroke-width="0.35"
      stroke="#888888"
      stroke-linecap="butt"
    ></path>
    <title>global.gridY2</title>
  </g>
  <g
    transform="rotate(0, 111.995082, 136.66996500017498)translate(111.995082, 136.66996500017498)"
    font-size="7px"
    string="X_2"
  >
    <title>`X`.r2Label</title>
    <svg
      style="font-size: 7px"
      xmlns="http://www.w3.org/2000/svg"
      width="16.009835999999996"
      height="12.66"
      role="img"
      focusable="false"
      viewBox="0 -750 1264.6 1000"
    >
      <g
        stroke="none"
        fill="#33dd00"
        stroke-width="0"
        transform="scale(1,-1)"
        fill-opacity="1"
      >
        <g data-mml-node="math">
          <g data-mml-node="mtable">
            <g data-mml-node="mtr">
              <g data-mml-node="mtd">
                <g data-mml-node="msub">
                  <g data-mml-node="mi">
                    <path
                      data-c="1D44B"
                      d="M42 0H40Q26 0 26 11Q26 15 29 27Q33 41 36 43T55 46Q141 49 190 98Q200 108 306 224T411 342Q302 620 297 625Q288 636 234 637H206Q200 643 200 645T202 664Q206 677 212 683H226Q260 681 347 681Q380 681 408 681T453 682T473 682Q490 682 490 671Q490 670 488 658Q484 643 481 640T465 637Q434 634 411 620L488 426L541 485Q646 598 646 610Q646 628 622 635Q617 635 609 637Q594 637 594 648Q594 650 596 664Q600 677 606 683H618Q619 683 643 683T697 681T738 680Q828 680 837 683H845Q852 676 852 672Q850 647 840 637H824Q790 636 763 628T722 611T698 593L687 584Q687 585 592 480L505 384Q505 383 536 304T601 142T638 56Q648 47 699 46Q734 46 734 37Q734 35 732 23Q728 7 725 4T711 1Q708 1 678 1T589 2Q528 2 496 2T461 1Q444 1 444 10Q444 11 446 25Q448 35 450 39T455 44T464 46T480 47T506 54Q523 62 523 64Q522 64 476 181L429 299Q241 95 236 84Q232 76 232 72Q232 53 261 47Q262 47 267 47T273 46Q276 46 277 46T280 45T283 42T284 35Q284 26 282 19Q279 6 276 4T261 1Q258 1 243 1T201 2T142 2Q64 2 42 0Z"
                    ></path>
                  </g>
                  <g
                    data-mml-node="mn"
                    transform="translate(861,-150) scale(0.707)"
                  >
                    <path
                      data-c="32"
                      d="M109 429Q82 429 66 447T50 491Q50 562 103 614T235 666Q326 666 387 610T449 465Q449 422 429 383T381 315T301 241Q265 210 201 149L142 93L218 92Q375 92 385 97Q392 99 409 186V189H449V186Q448 183 436 95T421 3V0H50V19V31Q50 38 56 46T86 81Q115 113 136 137Q145 147 170 174T204 211T233 244T261 278T284 308T305 340T320 369T333 401T340 431T343 464Q343 527 309 573T212 619Q179 619 154 602T119 569T109 550Q109 549 114 549Q132 549 151 535T170 489Q170 464 154 447T109 429Z"
                    ></path>
                  </g>
                </g>
              </g>
            </g>
          </g>
        </g>
      </g>
    </svg>
  </g>
  <g>
    <marker
      id="17616ff0-0792-49de-ab4c-2c0fc2a1d182-endArrowId"
      markerUnits="strokeWidth"
      markerWidth="4.98"
      markerHeight="4.06"
      viewBox="0 0 9.95 8.12"
      refX="2.36"
      refY="4.06"
      orient="auto-start-reverse"
    >
      <path
        d="M9.95 4.06 0 8.12 2.36 4.06 0 0 9.95 4.06z"
        fill="#33dd00"
        fill-opacity="1"
      ></path>
    </marker>
    <path
      d="M 120 100 L 103.69717559492234 67.39435118984468"
      stroke-opacity="1"
      stroke-width="1"
      stroke="#33dd00"
      stroke-linecap="butt"
      marker-end="url(#17616ff0-0792-49de-ab4c-2c0fc2a1d182-endArrowId)"
    ></path>
    <title>`X`.row1</title>
  </g>
  <g>
    <marker
      id="ad844dc5-bfff-4ffe-8ce5-628ab88fe8f0-endArrowId"
      markerUnits="strokeWidth"
      markerWidth="4.98"
      markerHeight="4.06"
      viewBox="0 0 9.95 8.12"
      refX="2.36"
      refY="4.06"
      orient="auto-start-reverse"
    >
      <path
        d="M9.95 4.06 0 8.12 2.36 4.06 0 0 9.95 4.06z"
        fill="#33dd00"
        fill-opacity="1"
      ></path>
    </marker>
    <path
      d="M 120 100 L 120 132.20499999999998"
      stroke-opacity="1"
      stroke-width="1"
      stroke="#33dd00"
      stroke-linecap="butt"
      marker-end="url(#ad844dc5-bfff-4ffe-8ce5-628ab88fe8f0-endArrowId)"
    ></path>
    <title>`X`.row2</title>
  </g>
  <g
    transform="rotate(0, 90.86460083143768, 51.40903766287537)translate(90.86460083143768, 51.40903766287537)"
    font-size="7px"
    string="X_1"
  >
    <title>`X`.r1Label</title>
    <svg
      style="font-size: 7px"
      xmlns="http://www.w3.org/2000/svg"
      width="16.009835999999996"
      height="12.66"
      role="img"
      focusable="false"
      viewBox="0 -750 1264.6 1000"
    >
      <g
        stroke="none"
        fill="#33dd00"
        stroke-width="0"
        transform="scale(1,-1)"
        fill-opacity="1"
      >
        <g data-mml-node="math">
          <g data-mml-node="mtable">
            <g data-mml-node="mtr">
              <g data-mml-node="mtd">
                <g data-mml-node="msub">
                  <g data-mml-node="mi">
                    <path
                      data-c="1D44B"
                      d="M42 0H40Q26 0 26 11Q26 15 29 27Q33 41 36 43T55 46Q141 49 190 98Q200 108 306 224T411 342Q302 620 297 625Q288 636 234 637H206Q200 643 200 645T202 664Q206 677 212 683H226Q260 681 347 681Q380 681 408 681T453 682T473 682Q490 682 490 671Q490 670 488 658Q484 643 481 640T465 637Q434 634 411 620L488 426L541 485Q646 598 646 610Q646 628 622 635Q617 635 609 637Q594 637 594 648Q594 650 596 664Q600 677 606 683H618Q619 683 643 683T697 681T738 680Q828 680 837 683H845Q852 676 852 672Q850 647 840 637H824Q790 636 763 628T722 611T698 593L687 584Q687 585 592 480L505 384Q505 383 536 304T601 142T638 56Q648 47 699 46Q734 46 734 37Q734 35 732 23Q728 7 725 4T711 1Q708 1 678 1T589 2Q528 2 496 2T461 1Q444 1 444 10Q444 11 446 25Q448 35 450 39T455 44T464 46T480 47T506 54Q523 62 523 64Q522 64 476 181L429 299Q241 95 236 84Q232 76 232 72Q232 53 261 47Q262 47 267 47T273 46Q276 46 277 46T280 45T283 42T284 35Q284 26 282 19Q279 6 276 4T261 1Q258 1 243 1T201 2T142 2Q64 2 42 0Z"
                    ></path>
                  </g>
                  <g
                    data-mml-node="mn"
                    transform="translate(861,-150) scale(0.707)"
                  >
                    <path
                      data-c="31"
                      d="M213 578L200 573Q186 568 160 563T102 556H83V602H102Q149 604 189 617T245 641T273 663Q275 666 285 666Q294 666 302 660V361L303 61Q310 54 315 52T339 48T401 46H427V0H416Q395 3 257 3Q121 3 100 0H88V46H114Q136 46 152 46T177 47T193 50T201 52T207 57T213 61V578Z"
                    ></path>
                  </g>
                </g>
              </g>
            </g>
          </g>
        </g>
      </g>
    </svg>
  </g>
  <g
    transform="rotate(0, 134.68907316856232, 51.40903766287537)translate(134.68907316856232, 51.40903766287537)"
    font-size="7px"
    string="Y_2"
  >
    <title>`Y`.r2Label</title>
    <svg
      style="font-size: 7px"
      xmlns="http://www.w3.org/2000/svg"
      width="12.882816"
      height="12.66"
      role="img"
      focusable="false"
      viewBox="0 -750 1017.6 1000"
    >
      <g
        stroke="none"
        fill="#4400cc"
        stroke-width="0"
        transform="scale(1,-1)"
        fill-opacity="1"
      >
        <g data-mml-node="math">
          <g data-mml-node="mtable">
            <g data-mml-node="mtr">
              <g data-mml-node="mtd">
                <g data-mml-node="msub">
                  <g data-mml-node="mi">
                    <path
                      data-c="1D44C"
                      d="M66 637Q54 637 49 637T39 638T32 641T30 647T33 664T42 682Q44 683 56 683Q104 680 165 680Q288 680 306 683H316Q322 677 322 674T320 656Q316 643 310 637H298Q242 637 242 624Q242 619 292 477T343 333L346 336Q350 340 358 349T379 373T411 410T454 461Q546 568 561 587T577 618Q577 634 545 637Q528 637 528 647Q528 649 530 661Q533 676 535 679T549 683Q551 683 578 682T657 680Q684 680 713 681T746 682Q763 682 763 673Q763 669 760 657T755 643Q753 637 734 637Q662 632 617 587Q608 578 477 424L348 273L322 169Q295 62 295 57Q295 46 363 46Q379 46 384 45T390 35Q390 33 388 23Q384 6 382 4T366 1Q361 1 324 1T232 2Q170 2 138 2T102 1Q84 1 84 9Q84 14 87 24Q88 27 89 30T90 35T91 39T93 42T96 44T101 45T107 45T116 46T129 46Q168 47 180 50T198 63Q201 68 227 171L252 274L129 623Q128 624 127 625T125 627T122 629T118 631T113 633T105 634T96 635T83 636T66 637Z"
                    ></path>
                  </g>
                  <g
                    data-mml-node="mn"
                    transform="translate(614,-150) scale(0.707)"
                  >
                    <path
                      data-c="32"
                      d="M109 429Q82 429 66 447T50 491Q50 562 103 614T235 666Q326 666 387 610T449 465Q449 422 429 383T381 315T301 241Q265 210 201 149L142 93L218 92Q375 92 385 97Q392 99 409 186V189H449V186Q448 183 436 95T421 3V0H50V19V31Q50 38 56 46T86 81Q115 113 136 137Q145 147 170 174T204 211T233 244T261 278T284 308T305 340T320 369T333 401T340 431T343 464Q343 527 309 573T212 619Q179 619 154 602T119 569T109 550Q109 549 114 549Q132 549 151 535T170 489Q170 464 154 447T109 429Z"
                    ></path>
                  </g>
                </g>
              </g>
            </g>
          </g>
        </g>
      </g>
    </svg>
  </g>
  <g>
    <marker
      id="05d4ea8f-a912-4075-84b9-ca6b670eaf44-endArrowId"
      markerUnits="strokeWidth"
      markerWidth="4.98"
      markerHeight="4.06"
      viewBox="0 0 9.95 8.12"
      refX="2.36"
      refY="4.06"
      orient="auto-start-reverse"
    >
      <path
        d="M9.95 4.06 0 8.12 2.36 4.06 0 0 9.95 4.06z"
        fill="#4400cc"
        fill-opacity="1"
      ></path>
    </marker>
    <path
      d="M 120 100 L 152.60564881015532 83.69717559492234"
      stroke-opacity="1"
      stroke-width="1"
      stroke="#4400cc"
      stroke-linecap="butt"
      marker-end="url(#05d4ea8f-a912-4075-84b9-ca6b670eaf44-endArrowId)"
    ></path>
    <title>`Y`.row1</title>
  </g>
  <g>
    <marker
      id="a47ff2e1-3a19-4182-8fd6-c21f8221268f-endArrowId"
      markerUnits="strokeWidth"
      markerWidth="4.98"
      markerHeight="4.06"
      viewBox="0 0 9.95 8.12"
      refX="2.36"
      refY="4.06"
      orient="auto-start-reverse"
    >
      <path
        d="M9.95 4.06 0 8.12 2.36 4.06 0 0 9.95 4.06z"
        fill="#4400cc"
        fill-opacity="1"
      ></path>
    </marker>
    <path
      d="M 120 100 L 136.30282440507767 67.39435118984468"
      stroke-opacity="1"
      stroke-width="1"
      stroke="#4400cc"
      stroke-linecap="butt"
      marker-end="url(#a47ff2e1-3a19-4182-8fd6-c21f8221268f-endArrowId)"
    ></path>
    <title>`Y`.row2</title>
  </g>
  <g
    transform="rotate(0, 155.81955433712463, 72.53951883143769)translate(155.81955433712463, 72.53951883143769)"
    font-size="7px"
    string="Y_1"
  >
    <title>`Y`.r1Label</title>
    <svg
      style="font-size: 7px"
      xmlns="http://www.w3.org/2000/svg"
      width="12.882816"
      height="12.66"
      role="img"
      focusable="false"
      viewBox="0 -750 1017.6 1000"
    >
      <g
        stroke="none"
        fill="#4400cc"
        stroke-width="0"
        transform="scale(1,-1)"
        fill-opacity="1"
      >
        <g data-mml-node="math">
          <g data-mml-node="mtable">
            <g data-mml-node="mtr">
              <g data-mml-node="mtd">
                <g data-mml-node="msub">
                  <g data-mml-node="mi">
                    <path
                      data-c="1D44C"
                      d="M66 637Q54 637 49 637T39 638T32 641T30 647T33 664T42 682Q44 683 56 683Q104 680 165 680Q288 680 306 683H316Q322 677 322 674T320 656Q316 643 310 637H298Q242 637 242 624Q242 619 292 477T343 333L346 336Q350 340 358 349T379 373T411 410T454 461Q546 568 561 587T577 618Q577 634 545 637Q528 637 528 647Q528 649 530 661Q533 676 535 679T549 683Q551 683 578 682T657 680Q684 680 713 681T746 682Q763 682 763 673Q763 669 760 657T755 643Q753 637 734 637Q662 632 617 587Q608 578 477 424L348 273L322 169Q295 62 295 57Q295 46 363 46Q379 46 384 45T390 35Q390 33 388 23Q384 6 382 4T366 1Q361 1 324 1T232 2Q170 2 138 2T102 1Q84 1 84 9Q84 14 87 24Q88 27 89 30T90 35T91 39T93 42T96 44T101 45T107 45T116 46T129 46Q168 47 180 50T198 63Q201 68 227 171L252 274L129 623Q128 624 127 625T125 627T122 629T118 631T113 633T105 634T96 635T83 636T66 637Z"
                    ></path>
                  </g>
                  <g
                    data-mml-node="mn"
                    transform="translate(614,-150) scale(0.707)"
                  >
                    <path
                      data-c="31"
                      d="M213 578L200 573Q186 568 160 563T102 556H83V602H102Q149 604 189 617T245 641T273 663Q275 666 285 666Q294 666 302 660V361L303 61Q310 54 315 52T339 48T401 46H427V0H416Q395 3 257 3Q121 3 100 0H88V46H114Q136 46 152 46T177 47T193 50T201 52T207 57T213 61V578Z"
                    ></path>
                  </g>
                </g>
              </g>
            </g>
          </g>
        </g>
      </g>
    </svg>
  </g>
  <g
    transform="rotate(0, 94.35084, 172.66998250004374)translate(94.35084, 172.66998250004374)"
    font-size="7px"
    string="(X\odot Y)_2"
  >
    <title>`Z`.r2Label</title>
    <svg
      style="font-size: 7px"
      xmlns="http://www.w3.org/2000/svg"
      width="51.29832"
      height="12.66"
      role="img"
      focusable="false"
      viewBox="0 -750 4052 1000"
    >
      <g
        stroke="none"
        fill="#aaaaaa"
        stroke-width="0"
        transform="scale(1,-1)"
        fill-opacity="1"
      >
        <g data-mml-node="math">
          <g data-mml-node="mtable">
            <g data-mml-node="mtr">
              <g data-mml-node="mtd">
                <g data-mml-node="mo">
                  <path
                    data-c="28"
                    d="M94 250Q94 319 104 381T127 488T164 576T202 643T244 695T277 729T302 750H315H319Q333 750 333 741Q333 738 316 720T275 667T226 581T184 443T167 250T184 58T225 -81T274 -167T316 -220T333 -241Q333 -250 318 -250H315H302L274 -226Q180 -141 137 -14T94 250Z"
                  ></path>
                </g>
                <g data-mml-node="mi" transform="translate(389,0)">
                  <path
                    data-c="1D44B"
                    d="M42 0H40Q26 0 26 11Q26 15 29 27Q33 41 36 43T55 46Q141 49 190 98Q200 108 306 224T411 342Q302 620 297 625Q288 636 234 637H206Q200 643 200 645T202 664Q206 677 212 683H226Q260 681 347 681Q380 681 408 681T453 682T473 682Q490 682 490 671Q490 670 488 658Q484 643 481 640T465 637Q434 634 411 620L488 426L541 485Q646 598 646 610Q646 628 622 635Q617 635 609 637Q594 637 594 648Q594 650 596 664Q600 677 606 683H618Q619 683 643 683T697 681T738 680Q828 680 837 683H845Q852 676 852 672Q850 647 840 637H824Q790 636 763 628T722 611T698 593L687 584Q687 585 592 480L505 384Q505 383 536 304T601 142T638 56Q648 47 699 46Q734 46 734 37Q734 35 732 23Q728 7 725 4T711 1Q708 1 678 1T589 2Q528 2 496 2T461 1Q444 1 444 10Q444 11 446 25Q448 35 450 39T455 44T464 46T480 47T506 54Q523 62 523 64Q522 64 476 181L429 299Q241 95 236 84Q232 76 232 72Q232 53 261 47Q262 47 267 47T273 46Q276 46 277 46T280 45T283 42T284 35Q284 26 282 19Q279 6 276 4T261 1Q258 1 243 1T201 2T142 2Q64 2 42 0Z"
                  ></path>
                </g>
                <g data-mml-node="mo" transform="translate(1463.2,0)">
                  <path
                    data-c="2299"
                    d="M56 250Q56 394 156 488T384 583Q530 583 626 485T722 250Q722 110 625 14T390 -83Q249 -83 153 14T56 250ZM682 250Q682 322 649 387T546 497T381 542Q272 542 184 459T95 250Q95 132 178 45T389 -42Q515 -42 598 45T682 250ZM311 250Q311 285 332 304T375 328Q376 328 382 328T392 329Q424 326 445 305T466 250Q466 217 445 195T389 172Q354 172 333 195T311 250Z"
                  ></path>
                </g>
                <g data-mml-node="mi" transform="translate(2463.4,0)">
                  <path
                    data-c="1D44C"
                    d="M66 637Q54 637 49 637T39 638T32 641T30 647T33 664T42 682Q44 683 56 683Q104 680 165 680Q288 680 306 683H316Q322 677 322 674T320 656Q316 643 310 637H298Q242 637 242 624Q242 619 292 477T343 333L346 336Q350 340 358 349T379 373T411 410T454 461Q546 568 561 587T577 618Q577 634 545 637Q528 637 528 647Q528 649 530 661Q533 676 535 679T549 683Q551 683 578 682T657 680Q684 680 713 681T746 682Q763 682 763 673Q763 669 760 657T755 643Q753 637 734 637Q662 632 617 587Q608 578 477 424L348 273L322 169Q295 62 295 57Q295 46 363 46Q379 46 384 45T390 35Q390 33 388 23Q384 6 382 4T366 1Q361 1 324 1T232 2Q170 2 138 2T102 1Q84 1 84 9Q84 14 87 24Q88 27 89 30T90 35T91 39T93 42T96 44T101 45T107 45T116 46T129 46Q168 47 180 50T198 63Q201 68 227 171L252 274L129 623Q128 624 127 625T125 627T122 629T118 631T113 633T105 634T96 635T83 636T66 637Z"
                  ></path>
                </g>
                <g data-mml-node="msub" transform="translate(3226.4,0)">
                  <g data-mml-node="mo">
                    <path
                      data-c="29"
                      d="M60 749L64 750Q69 750 74 750H86L114 726Q208 641 251 514T294 250Q294 182 284 119T261 12T224 -76T186 -143T145 -194T113 -227T90 -246Q87 -249 86 -250H74Q66 -250 63 -250T58 -247T55 -238Q56 -237 66 -225Q221 -64 221 250T66 725Q56 737 55 738Q55 746 60 749Z"
                    ></path>
                  </g>
                  <g
                    data-mml-node="mn"
                    transform="translate(422,-150) scale(0.707)"
                  >
                    <path
                      data-c="32"
                      d="M109 429Q82 429 66 447T50 491Q50 562 103 614T235 666Q326 666 387 610T449 465Q449 422 429 383T381 315T301 241Q265 210 201 149L142 93L218 92Q375 92 385 97Q392 99 409 186V189H449V186Q448 183 436 95T421 3V0H50V19V31Q50 38 56 46T86 81Q115 113 136 137Q145 147 170 174T204 211T233 244T261 278T284 308T305 340T320 369T333 401T340 431T343 464Q343 527 309 573T212 619Q179 619 154 602T119 569T109 550Q109 549 114 549Q132 549 151 535T170 489Q170 464 154 447T109 429Z"
                    ></path>
                  </g>
                </g>
              </g>
            </g>
          </g>
        </g>
      </g>
    </svg>
  </g>
  <g>
    <marker
      id="ce7e1f65-6ea4-4777-879c-5f9d651ecea6-endArrowId"
      markerUnits="strokeWidth"
      markerWidth="4.98"
      markerHeight="4.06"
      viewBox="0 0 9.95 8.12"
      refX="2.36"
      refY="4.06"
      orient="auto-start-reverse"
    >
      <path
        d="M9.95 4.06 0 8.12 2.36 4.06 0 0 9.95 4.06z"
        fill="#aaaaaa"
        fill-opacity="1"
      ></path>
    </marker>
    <path
      d="M 120 100 L 86.68347023460295 66.68347023460295"
      stroke-opacity="1"
      stroke-width="1"
      stroke="#aaaaaa"
      stroke-linecap="butt"
      marker-end="url(#ce7e1f65-6ea4-4777-879c-5f9d651ecea6-endArrowId)"
    ></path>
    <title>`Z`.row1</title>
  </g>
  <g>
    <marker
      id="9019c93e-972e-4fdb-b5f5-62b2683b58a8-endArrowId"
      markerUnits="strokeWidth"
      markerWidth="4.98"
      markerHeight="4.06"
      viewBox="0 0 9.95 8.12"
      refX="2.36"
      refY="4.06"
      orient="auto-start-reverse"
    >
      <path
        d="M9.95 4.06 0 8.12 2.36 4.06 0 0 9.95 4.06z"
        fill="#aaaaaa"
        fill-opacity="1"
      ></path>
    </marker>
    <path
      d="M 120 100 L 120 168.20499999999998"
      stroke-opacity="1"
      stroke-width="1"
      stroke="#aaaaaa"
      stroke-linecap="butt"
      marker-end="url(#9019c93e-972e-4fdb-b5f5-62b2683b58a8-endArrowId)"
    ></path>
    <title>`Z`.row2</title>
  </g>
  <g
    transform="rotate(0, 53.4011100316323, 52.720270031632296)translate(53.4011100316323, 52.720270031632296)"
    font-size="7px"
    string="(X\odot Y)_1"
  >
    <title>`Z`.r1Label</title>
    <svg
      style="font-size: 7px"
      xmlns="http://www.w3.org/2000/svg"
      width="51.29832"
      height="12.66"
      role="img"
      focusable="false"
      viewBox="0 -750 4052 1000"
    >
      <g
        stroke="none"
        fill="#aaaaaa"
        stroke-width="0"
        transform="scale(1,-1)"
        fill-opacity="1"
      >
        <g data-mml-node="math">
          <g data-mml-node="mtable">
            <g data-mml-node="mtr">
              <g data-mml-node="mtd">
                <g data-mml-node="mo">
                  <path
                    data-c="28"
                    d="M94 250Q94 319 104 381T127 488T164 576T202 643T244 695T277 729T302 750H315H319Q333 750 333 741Q333 738 316 720T275 667T226 581T184 443T167 250T184 58T225 -81T274 -167T316 -220T333 -241Q333 -250 318 -250H315H302L274 -226Q180 -141 137 -14T94 250Z"
                  ></path>
                </g>
                <g data-mml-node="mi" transform="translate(389,0)">
                  <path
                    data-c="1D44B"
                    d="M42 0H40Q26 0 26 11Q26 15 29 27Q33 41 36 43T55 46Q141 49 190 98Q200 108 306 224T411 342Q302 620 297 625Q288 636 234 637H206Q200 643 200 645T202 664Q206 677 212 683H226Q260 681 347 681Q380 681 408 681T453 682T473 682Q490 682 490 671Q490 670 488 658Q484 643 481 640T465 637Q434 634 411 620L488 426L541 485Q646 598 646 610Q646 628 622 635Q617 635 609 637Q594 637 594 648Q594 650 596 664Q600 677 606 683H618Q619 683 643 683T697 681T738 680Q828 680 837 683H845Q852 676 852 672Q850 647 840 637H824Q790 636 763 628T722 611T698 593L687 584Q687 585 592 480L505 384Q505 383 536 304T601 142T638 56Q648 47 699 46Q734 46 734 37Q734 35 732 23Q728 7 725 4T711 1Q708 1 678 1T589 2Q528 2 496 2T461 1Q444 1 444 10Q444 11 446 25Q448 35 450 39T455 44T464 46T480 47T506 54Q523 62 523 64Q522 64 476 181L429 299Q241 95 236 84Q232 76 232 72Q232 53 261 47Q262 47 267 47T273 46Q276 46 277 46T280 45T283 42T284 35Q284 26 282 19Q279 6 276 4T261 1Q258 1 243 1T201 2T142 2Q64 2 42 0Z"
                  ></path>
                </g>
                <g data-mml-node="mo" transform="translate(1463.2,0)">
                  <path
                    data-c="2299"
                    d="M56 250Q56 394 156 488T384 583Q530 583 626 485T722 250Q722 110 625 14T390 -83Q249 -83 153 14T56 250ZM682 250Q682 322 649 387T546 497T381 542Q272 542 184 459T95 250Q95 132 178 45T389 -42Q515 -42 598 45T682 250ZM311 250Q311 285 332 304T375 328Q376 328 382 328T392 329Q424 326 445 305T466 250Q466 217 445 195T389 172Q354 172 333 195T311 250Z"
                  ></path>
                </g>
                <g data-mml-node="mi" transform="translate(2463.4,0)">
                  <path
                    data-c="1D44C"
                    d="M66 637Q54 637 49 637T39 638T32 641T30 647T33 664T42 682Q44 683 56 683Q104 680 165 680Q288 680 306 683H316Q322 677 322 674T320 656Q316 643 310 637H298Q242 637 242 624Q242 619 292 477T343 333L346 336Q350 340 358 349T379 373T411 410T454 461Q546 568 561 587T577 618Q577 634 545 637Q528 637 528 647Q528 649 530 661Q533 676 535 679T549 683Q551 683 578 682T657 680Q684 680 713 681T746 682Q763 682 763 673Q763 669 760 657T755 643Q753 637 734 637Q662 632 617 587Q608 578 477 424L348 273L322 169Q295 62 295 57Q295 46 363 46Q379 46 384 45T390 35Q390 33 388 23Q384 6 382 4T366 1Q361 1 324 1T232 2Q170 2 138 2T102 1Q84 1 84 9Q84 14 87 24Q88 27 89 30T90 35T91 39T93 42T96 44T101 45T107 45T116 46T129 46Q168 47 180 50T198 63Q201 68 227 171L252 274L129 623Q128 624 127 625T125 627T122 629T118 631T113 633T105 634T96 635T83 636T66 637Z"
                  ></path>
                </g>
                <g data-mml-node="msub" transform="translate(3226.4,0)">
                  <g data-mml-node="mo">
                    <path
                      data-c="29"
                      d="M60 749L64 750Q69 750 74 750H86L114 726Q208 641 251 514T294 250Q294 182 284 119T261 12T224 -76T186 -143T145 -194T113 -227T90 -246Q87 -249 86 -250H74Q66 -250 63 -250T58 -247T55 -238Q56 -237 66 -225Q221 -64 221 250T66 725Q56 737 55 738Q55 746 60 749Z"
                    ></path>
                  </g>
                  <g
                    data-mml-node="mn"
                    transform="translate(422,-150) scale(0.707)"
                  >
                    <path
                      data-c="31"
                      d="M213 578L200 573Q186 568 160 563T102 556H83V602H102Q149 604 189 617T245 641T273 663Q275 666 285 666Q294 666 302 660V361L303 61Q310 54 315 52T339 48T401 46H427V0H416Q395 3 257 3Q121 3 100 0H88V46H114Q136 46 152 46T177 47T193 50T201 52T207 57T213 61V578Z"
                    ></path>
                  </g>
                </g>
              </g>
            </g>
          </g>
        </g>
      </g>
    </svg>
  </g>
</svg>
