<svg version="1.2" xmlns="http://www.w3.org/2000/svg" viewBox="0 0 240 200">
  <g>
    <path
      d="M 156 190 L 156 10"
      stroke-opacity="0.26666666666666666"
      stroke-width="0.35"
      stroke="#888888"
      stroke-linecap="butt"
    ></path>
    <title>global.gridX2</title>
  </g>
  <g>
    <path
      d="M 30 46 L 210 46"
      stroke-opacity="0.26666666666666666"
      stroke-width="0.35"
      stroke="#888888"
      stroke-linecap="butt"
    ></path>
    <title>global.gridY3</title>
  </g>
  <g>
    <path
      d="M 174 190 L 174 10"
      stroke-opacity="0.26666666666666666"
      stroke-width="0.35"
      stroke="#888888"
      stroke-linecap="butt"
    ></path>
    <title>global.gridX3</title>
  </g>
  <g>
    <path
      d="M 30 28 L 210 28"
      stroke-opacity="0.26666666666666666"
      stroke-width="0.35"
      stroke="#888888"
      stroke-linecap="butt"
    ></path>
    <title>global.gridY4</title>
  </g>
  <g>
    <path
      d="M 192 190 L 192 10"
      stroke-opacity="0.26666666666666666"
      stroke-width="0.35"
      stroke="#888888"
      stroke-linecap="butt"
    ></path>
    <title>global.gridX4</title>
  </g>
  <rect
    x="30"
    y="10"
    width="180"
    height="180"
    fill="#1b1f8a"
    fill-opacity="0.06666666666666667"
    stroke="none"
    rx="0"
    transform="rotate(0, 30, 10)"
  >
    <title>global.box</title>
  </rect>
  <g>
    <path
      d="M 102 190 L 102 10"
      stroke-opacity="0.26666666666666666"
      stroke-width="0.35"
      stroke="#888888"
      stroke-linecap="butt"
    ></path>
    <title>global.gridXn1</title>
  </g>
  <g>
    <path
      d="M 30 118 L 210 118"
      stroke-opacity="0.26666666666666666"
      stroke-width="0.35"
      stroke="#888888"
      stroke-linecap="butt"
    ></path>
    <title>global.gridYn1</title>
  </g>
  <g>
    <path
      d="M 84 190 L 84 10"
      stroke-opacity="0.26666666666666666"
      stroke-width="0.35"
      stroke="#888888"
      stroke-linecap="butt"
    ></path>
    <title>global.gridXn2</title>
  </g>
  <g>
    <path
      d="M 30 136 L 210 136"
      stroke-opacity="0.26666666666666666"
      stroke-width="0.35"
      stroke="#888888"
      stroke-linecap="butt"
    ></path>
    <title>global.gridYn2</title>
  </g>
  <g>
    <path
      d="M 66 190 L 66 10"
      stroke-opacity="0.26666666666666666"
      stroke-width="0.35"
      stroke="#888888"
      stroke-linecap="butt"
    ></path>
    <title>global.gridXn3</title>
  </g>
  <g>
    <path
      d="M 30 154 L 210 154"
      stroke-opacity="0.26666666666666666"
      stroke-width="0.35"
      stroke="#888888"
      stroke-linecap="butt"
    ></path>
    <title>global.gridYn3</title>
  </g>
  <g>
    <path
      d="M 48 190 L 48 10"
      stroke-opacity="0.26666666666666666"
      stroke-width="0.35"
      stroke="#888888"
      stroke-linecap="butt"
    ></path>
    <title>global.gridXn4</title>
  </g>
  <g>
    <marker
      id="33d3e03d-fb36-419c-9d8f-f0137a13c7d0-endArrowId"
      markerUnits="strokeWidth"
      markerWidth="4.98"
      markerHeight="4.06"
      viewBox="0 0 9.95 8.12"
      refX="2.36"
      refY="4.06"
      orient="auto-start-reverse"
    >
      <path
        d="M9.95 4.06 0 8.12 2.36 4.06 0 0 9.95 4.06z"
        fill="#888888"
        fill-opacity="1"
      ></path>
    </marker>
    <path
      d="M 30 100 L 207.53325 100"
      stroke-opacity="1"
      stroke-width="0.65"
      stroke="#888888"
      stroke-linecap="butt"
      marker-end="url(#33d3e03d-fb36-419c-9d8f-f0137a13c7d0-endArrowId)"
    ></path>
    <title>global.xAxis</title>
  </g>
  <g>
    <path
      d="M 30 172 L 210 172"
      stroke-opacity="0.26666666666666666"
      stroke-width="0.35"
      stroke="#888888"
      stroke-linecap="butt"
    ></path>
    <title>global.gridYn4</title>
  </g>
  <g>
    <marker
      id="415354a2-fbc0-4062-a9e1-0735cfe1b1cc-endArrowId"
      markerUnits="strokeWidth"
      markerWidth="4.98"
      markerHeight="4.06"
      viewBox="0 0 9.95 8.12"
      refX="2.36"
      refY="4.06"
      orient="auto-start-reverse"
    >
      <path
        d="M9.95 4.06 0 8.12 2.36 4.06 0 0 9.95 4.06z"
        fill="#888888"
        fill-opacity="1"
      ></path>
    </marker>
    <path
      d="M 120 190 L 120 12.466750000000005"
      stroke-opacity="1"
      stroke-width="0.65"
      stroke="#888888"
      stroke-linecap="butt"
      marker-end="url(#415354a2-fbc0-4062-a9e1-0735cfe1b1cc-endArrowId)"
    ></path>
    <title>global.yAxis</title>
  </g>
  <g>
    <path
      d="M 30 82 L 210 82"
      stroke-opacity="0.26666666666666666"
      stroke-width="0.35"
      stroke="#888888"
      stroke-linecap="butt"
    ></path>
    <title>global.gridY1</title>
  </g>
  <g>
    <path
      d="M 138 190 L 138 10"
      stroke-opacity="0.26666666666666666"
      stroke-width="0.35"
      stroke="#888888"
      stroke-linecap="butt"
    ></path>
    <title>global.gridX1</title>
  </g>
  <g>
    <path
      d="M 30 64 L 210 64"
      stroke-opacity="0.26666666666666666"
      stroke-width="0.35"
      stroke="#888888"
      stroke-linecap="butt"
    ></path>
    <title>global.gridY2</title>
  </g>
  <g
    transform="rotate(0, 112.488822, 118.66993000069999)translate(112.488822, 118.66993000069999)"
    font-size="7px"
    string="A_2"
  >
    <title>`A`.r2Label</title>
    <svg
      style="font-size: 7px"
      xmlns="http://www.w3.org/2000/svg"
      width="15.022355999999998"
      height="12.66"
      role="img"
      focusable="false"
      viewBox="0 -750 1186.6 1000"
    >
      <g
        stroke="none"
        fill="#ff0000"
        stroke-width="0"
        transform="scale(1,-1)"
        fill-opacity="1"
      >
        <g data-mml-node="math">
          <g data-mml-node="mtable">
            <g data-mml-node="mtr">
              <g data-mml-node="mtd">
                <g data-mml-node="msub">
                  <g data-mml-node="mi">
                    <path
                      data-c="1D434"
                      d="M208 74Q208 50 254 46Q272 46 272 35Q272 34 270 22Q267 8 264 4T251 0Q249 0 239 0T205 1T141 2Q70 2 50 0H42Q35 7 35 11Q37 38 48 46H62Q132 49 164 96Q170 102 345 401T523 704Q530 716 547 716H555H572Q578 707 578 706L606 383Q634 60 636 57Q641 46 701 46Q726 46 726 36Q726 34 723 22Q720 7 718 4T704 0Q701 0 690 0T651 1T578 2Q484 2 455 0H443Q437 6 437 9T439 27Q443 40 445 43L449 46H469Q523 49 533 63L521 213H283L249 155Q208 86 208 74ZM516 260Q516 271 504 416T490 562L463 519Q447 492 400 412L310 260L413 259Q516 259 516 260Z"
                    ></path>
                  </g>
                  <g
                    data-mml-node="mn"
                    transform="translate(783,-150) scale(0.707)"
                  >
                    <path
                      data-c="32"
                      d="M109 429Q82 429 66 447T50 491Q50 562 103 614T235 666Q326 666 387 610T449 465Q449 422 429 383T381 315T301 241Q265 210 201 149L142 93L218 92Q375 92 385 97Q392 99 409 186V189H449V186Q448 183 436 95T421 3V0H50V19V31Q50 38 56 46T86 81Q115 113 136 137Q145 147 170 174T204 211T233 244T261 278T284 308T305 340T320 369T333 401T340 431T343 464Q343 527 309 573T212 619Q179 619 154 602T119 569T109 550Q109 549 114 549Q132 549 151 535T170 489Q170 464 154 447T109 429Z"
                    ></path>
                  </g>
                </g>
              </g>
            </g>
          </g>
        </g>
      </g>
    </svg>
  </g>
  <g>
    <marker
      id="c5bee250-7016-469b-b4a1-ed59483b6366-endArrowId"
      markerUnits="strokeWidth"
      markerWidth="4.98"
      markerHeight="4.06"
      viewBox="0 0 9.95 8.12"
      refX="2.36"
      refY="4.06"
      orient="auto-start-reverse"
    >
      <path
        d="M9.95 4.06 0 8.12 2.36 4.06 0 0 9.95 4.06z"
        fill="#ff0000"
        fill-opacity="1"
      ></path>
    </marker>
    <path
      d="M 120 100 L 104.68347023460295 84.68347023460295"
      stroke-opacity="1"
      stroke-width="1"
      stroke="#ff0000"
      stroke-linecap="butt"
      marker-end="url(#c5bee250-7016-469b-b4a1-ed59483b6366-endArrowId)"
    ></path>
    <title>`A`.row1</title>
  </g>
  <g>
    <marker
      id="f9b28281-274d-4226-8ad0-1b8d1eab759b-endArrowId"
      markerUnits="strokeWidth"
      markerWidth="4.98"
      markerHeight="4.06"
      viewBox="0 0 9.95 8.12"
      refX="2.36"
      refY="4.06"
      orient="auto-start-reverse"
    >
      <path
        d="M9.95 4.06 0 8.12 2.36 4.06 0 0 9.95 4.06z"
        fill="#ff0000"
        fill-opacity="1"
      ></path>
    </marker>
    <path
      d="M 120 100 L 120 114.205"
      stroke-opacity="1"
      stroke-width="1"
      stroke="#ff0000"
      stroke-linecap="butt"
      marker-end="url(#f9b28281-274d-4226-8ad0-1b8d1eab759b-endArrowId)"
    ></path>
    <title>`A`.row2</title>
  </g>
  <g
    transform="rotate(0, 89.53910953144668, 70.72028753144669)translate(89.53910953144668, 70.72028753144669)"
    font-size="7px"
    string="A_1"
  >
    <title>`A`.r1Label</title>
    <svg
      style="font-size: 7px"
      xmlns="http://www.w3.org/2000/svg"
      width="15.022355999999998"
      height="12.66"
      role="img"
      focusable="false"
      viewBox="0 -750 1186.6 1000"
    >
      <g
        stroke="none"
        fill="#ff0000"
        stroke-width="0"
        transform="scale(1,-1)"
        fill-opacity="1"
      >
        <g data-mml-node="math">
          <g data-mml-node="mtable">
            <g data-mml-node="mtr">
              <g data-mml-node="mtd">
                <g data-mml-node="msub">
                  <g data-mml-node="mi">
                    <path
                      data-c="1D434"
                      d="M208 74Q208 50 254 46Q272 46 272 35Q272 34 270 22Q267 8 264 4T251 0Q249 0 239 0T205 1T141 2Q70 2 50 0H42Q35 7 35 11Q37 38 48 46H62Q132 49 164 96Q170 102 345 401T523 704Q530 716 547 716H555H572Q578 707 578 706L606 383Q634 60 636 57Q641 46 701 46Q726 46 726 36Q726 34 723 22Q720 7 718 4T704 0Q701 0 690 0T651 1T578 2Q484 2 455 0H443Q437 6 437 9T439 27Q443 40 445 43L449 46H469Q523 49 533 63L521 213H283L249 155Q208 86 208 74ZM516 260Q516 271 504 416T490 562L463 519Q447 492 400 412L310 260L413 259Q516 259 516 260Z"
                    ></path>
                  </g>
                  <g
                    data-mml-node="mn"
                    transform="translate(783,-150) scale(0.707)"
                  >
                    <path
                      data-c="31"
                      d="M213 578L200 573Q186 568 160 563T102 556H83V602H102Q149 604 189 617T245 641T273 663Q275 666 285 666Q294 666 302 660V361L303 61Q310 54 315 52T339 48T401 46H427V0H416Q395 3 257 3Q121 3 100 0H88V46H114Q136 46 152 46T177 47T193 50T201 52T207 57T213 61V578Z"
                    ></path>
                  </g>
                </g>
              </g>
            </g>
          </g>
        </g>
      </g>
    </svg>
  </g>
  <g
    transform="rotate(0, 134.74480816233321, 115.77471246855332)translate(134.74480816233321, 115.77471246855332)"
    font-size="7px"
    string="A^\mathsf{T}_2"
  >
    <title>`AT`.r2Label</title>
    <svg
      style="font-size: 7px"
      xmlns="http://www.w3.org/2000/svg"
      width="16.40980861244019"
      height="14.35"
      role="img"
      focusable="false"
      viewBox="0 -824.7 1314.5 1149.5"
    >
      <g
        stroke="none"
        fill="#ff0000"
        stroke-width="0"
        transform="scale(1,-1)"
        fill-opacity="0.4666666666666667"
      >
        <g data-mml-node="math">
          <g data-mml-node="mtable">
            <g data-mml-node="mtr" transform="translate(0,-74.7)">
              <g data-mml-node="mtd">
                <g data-mml-node="msubsup">
                  <g data-mml-node="mi">
                    <path
                      data-c="1D434"
                      d="M208 74Q208 50 254 46Q272 46 272 35Q272 34 270 22Q267 8 264 4T251 0Q249 0 239 0T205 1T141 2Q70 2 50 0H42Q35 7 35 11Q37 38 48 46H62Q132 49 164 96Q170 102 345 401T523 704Q530 716 547 716H555H572Q578 707 578 706L606 383Q634 60 636 57Q641 46 701 46Q726 46 726 36Q726 34 723 22Q720 7 718 4T704 0Q701 0 690 0T651 1T578 2Q484 2 455 0H443Q437 6 437 9T439 27Q443 40 445 43L449 46H469Q523 49 533 63L521 213H283L249 155Q208 86 208 74ZM516 260Q516 271 504 416T490 562L463 519Q447 492 400 412L310 260L413 259Q516 259 516 260Z"
                    ></path>
                  </g>
                  <g
                    data-mml-node="TeXAtom"
                    transform="translate(783,413) scale(0.707)"
                    data-mjx-texclass="ORD"
                  >
                    <g data-mml-node="mi">
                      <path
                        data-c="1D5B3"
                        d="M36 608V688H644V608H518L392 609V0H288V609L162 608H36Z"
                      ></path>
                    </g>
                  </g>
                  <g
                    data-mml-node="mn"
                    transform="translate(783,-247) scale(0.707)"
                  >
                    <path
                      data-c="32"
                      d="M109 429Q82 429 66 447T50 491Q50 562 103 614T235 666Q326 666 387 610T449 465Q449 422 429 383T381 315T301 241Q265 210 201 149L142 93L218 92Q375 92 385 97Q392 99 409 186V189H449V186Q448 183 436 95T421 3V0H50V19V31Q50 38 56 46T86 81Q115 113 136 137Q145 147 170 174T204 211T233 244T261 278T284 308T305 340T320 369T333 401T340 431T343 464Q343 527 309 573T212 619Q179 619 154 602T119 569T109 550Q109 549 114 549Q132 549 151 535T170 489Q170 464 154 447T109 429Z"
                    ></path>
                  </g>
                </g>
              </g>
            </g>
          </g>
        </g>
      </g>
    </svg>
  </g>
  <g>
    <marker
      id="a4e6ddd0-7ae4-4cf6-9423-09c25448b5c8-endArrowId"
      markerUnits="strokeWidth"
      markerWidth="4.98"
      markerHeight="4.06"
      viewBox="0 0 9.95 8.12"
      refX="2.36"
      refY="4.06"
      orient="auto-start-reverse"
    >
      <path
        d="M9.95 4.06 0 8.12 2.36 4.06 0 0 9.95 4.06z"
        fill="#ff0000"
        fill-opacity="0.4666666666666667"
      ></path>
    </marker>
    <path
      d="M 120 100 L 105.795 100"
      stroke-opacity="0.4666666666666667"
      stroke-width="1"
      stroke="#ff0000"
      stroke-linecap="butt"
      marker-end="url(#a4e6ddd0-7ae4-4cf6-9423-09c25448b5c8-endArrowId)"
    ></path>
    <title>`AT`.row1</title>
  </g>
  <g>
    <marker
      id="21585ae3-d834-44ad-9c54-adb3c0edf13d-endArrowId"
      markerUnits="strokeWidth"
      markerWidth="4.98"
      markerHeight="4.06"
      viewBox="0 0 9.95 8.12"
      refX="2.36"
      refY="4.06"
      orient="auto-start-reverse"
    >
      <path
        d="M9.95 4.06 0 8.12 2.36 4.06 0 0 9.95 4.06z"
        fill="#ff0000"
        fill-opacity="0.4666666666666667"
      ></path>
    </marker>
    <path
      d="M 120 100 L 135.31652976539706 115.31652976539705"
      stroke-opacity="0.4666666666666667"
      stroke-width="1"
      stroke="#ff0000"
      stroke-linecap="butt"
      marker-end="url(#21585ae3-d834-44ad-9c54-adb3c0edf13d-endArrowId)"
    ></path>
    <title>`AT`.row2</title>
  </g>
  <g
    transform="rotate(0, 86.79516569307991, 92.825)translate(86.79516569307991, 92.825)"
    font-size="7px"
    string="A^\mathsf{T}_1"
  >
    <title>`AT`.r1Label</title>
    <svg
      style="font-size: 7px"
      xmlns="http://www.w3.org/2000/svg"
      width="16.40980861244019"
      height="14.35"
      role="img"
      focusable="false"
      viewBox="0 -824.7 1314.5 1149.5"
    >
      <g
        stroke="none"
        fill="#ff0000"
        stroke-width="0"
        transform="scale(1,-1)"
        fill-opacity="0.4666666666666667"
      >
        <g data-mml-node="math">
          <g data-mml-node="mtable">
            <g data-mml-node="mtr" transform="translate(0,-74.7)">
              <g data-mml-node="mtd">
                <g data-mml-node="msubsup">
                  <g data-mml-node="mi">
                    <path
                      data-c="1D434"
                      d="M208 74Q208 50 254 46Q272 46 272 35Q272 34 270 22Q267 8 264 4T251 0Q249 0 239 0T205 1T141 2Q70 2 50 0H42Q35 7 35 11Q37 38 48 46H62Q132 49 164 96Q170 102 345 401T523 704Q530 716 547 716H555H572Q578 707 578 706L606 383Q634 60 636 57Q641 46 701 46Q726 46 726 36Q726 34 723 22Q720 7 718 4T704 0Q701 0 690 0T651 1T578 2Q484 2 455 0H443Q437 6 437 9T439 27Q443 40 445 43L449 46H469Q523 49 533 63L521 213H283L249 155Q208 86 208 74ZM516 260Q516 271 504 416T490 562L463 519Q447 492 400 412L310 260L413 259Q516 259 516 260Z"
                    ></path>
                  </g>
                  <g
                    data-mml-node="TeXAtom"
                    transform="translate(783,413) scale(0.707)"
                    data-mjx-texclass="ORD"
                  >
                    <g data-mml-node="mi">
                      <path
                        data-c="1D5B3"
                        d="M36 608V688H644V608H518L392 609V0H288V609L162 608H36Z"
                      ></path>
                    </g>
                  </g>
                  <g
                    data-mml-node="mn"
                    transform="translate(783,-247) scale(0.707)"
                  >
                    <path
                      data-c="31"
                      d="M213 578L200 573Q186 568 160 563T102 556H83V602H102Q149 604 189 617T245 641T273 663Q275 666 285 666Q294 666 302 660V361L303 61Q310 54 315 52T339 48T401 46H427V0H416Q395 3 257 3Q121 3 100 0H88V46H114Q136 46 152 46T177 47T193 50T201 52T207 57T213 61V578Z"
                    ></path>
                  </g>
                </g>
              </g>
            </g>
          </g>
        </g>
      </g>
    </svg>
  </g>
</svg>
