<svg version="1.2" xmlns="http://www.w3.org/2000/svg" viewBox="0 0 800 700">
  <g
    transform="rotate(0, 360.90201039399506, 307.51972490486844)translate(360.90201039399506, 307.51972490486844)"
    string="G"
  >
    <title>`G`.text</title>
    <svg
      xmlns="http://www.w3.org/2000/svg"
      width="15.05976"
      height="19.16"
      role="img"
      focusable="false"
      viewBox="0.958 -13.5078 13.6036 13.929319999999999"
    >
      <path
        stroke="none"
        fill="#000000"
        stroke-width="0"
        d="M0.958-4.82832Q0.958-7.03172 2.24172-9.06268T5.47976-12.28156 9.3884-13.48864Q11.1128-13.48864 12.12828-12.51148 12.30072-12.31988 12.41568-12.18576T12.56896-11.99416L12.58812-11.93668Q12.6456-11.93668 13.10544-12.43484 13.239559999999999-12.5498 13.39284-12.70308T13.6994-13.00964 13.891-13.2204L14.1784-13.5078H14.29336Q14.5616-13.5078 14.5616-13.37368 14.5616-13.297039999999999 13.94848-10.74876 13.25872-8.08552 13.25872-8.06636 13.2204-7.97056 13.16292-7.9514T12.81804-7.91308H12.51148Q12.39652-8.02804 12.39652-8.08552 12.39652-8.10468 12.41568-8.21964T12.454-8.60284 12.47316-9.21596Q12.47316-10.57632 11.86004-11.5918T9.7716-12.62644Q9.42672-12.62644 9.02436-12.56896T8.00888-12.31988 6.84012-11.7834 5.63304-10.86372 4.52176-9.50336 3.62124-7.54904 3.02728-4.9816Q2.98896-4.63672 2.98896-4.23436 2.98896-3.31468 3.2572-2.60576T3.94696-1.51364 4.90496-0.8622 5.90128-0.53648 6.76348-0.45984Q7.79812-0.45984 8.66032-0.90052T9.84824-2.03096Q9.90572-2.18424 10.13564-3.08476T10.36556-4.10024Q10.36556-4.25352 10.11648-4.29184T8.96688-4.34932H8.25796Q8.143-4.46428 8.143-4.5026T8.18132-4.86664Q8.25796-5.11572 8.37292-5.2306799999999996H8.69864Q9.46504-5.19236 11.38104-5.19236 12.14744-5.19236 12.62644-5.19236T13.3162-5.21152 13.54612-5.21152Q13.81436-5.21152 13.81436-5.03908 13.81436-5.00076 13.77604-4.77084 13.68024-4.4068 13.58444-4.36848 13.52696-4.34932 13.297039999999999-4.34932 12.91384-4.34932 12.51148-4.29184 12.37736-4.23436 12.31988-4.1194T12.05164-3.14224Q11.879199999999999-2.50996 11.76424-2.06928 11.28524-0.11496 11.22776-0.05748 11.18944-0.01916 11.13196-0.01916 10.94036-0.01916 10.59548-0.40236T10.1548-0.99632Q10.1548-1.01548 10.11648-0.99632T10.00152-0.90052Q8.58368 0.42152 6.16952 0.42152 3.85116 0.42152 2.41416-1.0538T0.958-4.82832Z"
        fill-opacity="1"
      ></path>
    </svg>
  </g>
  <g startArrowheadSize="1" stroke-width="1" endArrowheadSize="1">
    <filter id="`DEF`.icon-shadow" x="0" y="0" width="200%" height="200%">
      <feOffset result="offOut" in="SourceAlpha" dx="5" dy="5"></feOffset>
      <feGaussianBlur
        result="blurOut"
        in="offOut"
        stdDeviation="4"
      ></feGaussianBlur>
      <feBlend in="SourceGraphic" in2="blurOut" mode="normal"></feBlend>
      <feComponentTransfer>
        <feFuncA type="linear" slope="0.5"></feFuncA>
      </feComponentTransfer>
      <feMerge>
        <feMergeNode></feMergeNode>
        <feMergeNode in="SourceGraphic"></feMergeNode>
      </feMerge>
    </filter>
    <path
      stroke="none"
      fill="none"
      d="M 320.43639205527984 524.2617301788948 L 476.1069593978824 231.71536821046737 L 222.42791042142326 367.750178937384 Z "
    ></path>
    <title>`DEF`.icon</title>
  </g>
  <g
    transform="rotate(0, 332.0134550741077, 532.1339132344114)translate(332.0134550741077, 532.1339132344114)"
    string="D"
  >
    <title>`D`.text</title>
    <svg
      xmlns="http://www.w3.org/2000/svg"
      width="15.86448"
      height="19.16"
      role="img"
      focusable="false"
      viewBox="0.63228 -13.08628 14.7532 13.08628"
    >
      <path
        stroke="none"
        fill="#000000"
        stroke-width="0"
        d="M5.49892-12.03248Q5.49892-12.1666 4.4068-12.20492 3.96612-12.20492 3.832-12.22408T3.69788-12.39652Q3.69788-12.5498 3.77452-12.77972T3.90864-13.06712Q3.94696-13.08628 7.72148-13.08628 10.9212-13.06712 11.3044-13.06712T12.0708-12.95216Q13.45032-12.62644 14.40832-11.43852T15.38548-8.25796Q15.38548-5.269 13.33536-2.89316T8.50704-0.05748L8.2388-0.01916 4.52176 0H2.395 1.37952Q0.91968 0 0.78556-0.03832T0.63228-0.21076Q0.63228-0.24908 0.68976-0.479 0.7664-0.78556 0.84304-0.82388T1.28372-0.88136Q1.80104-0.88136 2.43332-0.93884 2.70156-0.99632 2.79736-1.16876 2.85484-1.2454 4.17688-6.49524T5.49892-12.03248ZM13.46948-8.98604Q13.46948-9.71412 13.25872-10.28892T12.76056-11.18944 12.05164-11.74508 11.3044-12.05164 10.6338-12.18576Q10.59548-12.18576 10.36556-12.18576T9.80992-12.18576 9.17764-12.20492H8.35376Q7.51072-12.20492 7.39576-12.01332 7.35744-11.93668 5.99708-6.49524T4.63672-0.99632Q4.63672-0.91968 4.84748-0.91968T6.3228-0.90052Q6.4186-0.90052 6.68684-0.90052T7.14668-0.88136Q9.56084-0.88136 11.13196-2.45248 11.82172-3.14224 12.2624-4.06192T13.08628-6.49524 13.46948-8.98604Z"
        fill-opacity="1"
      ></path>
    </svg>
  </g>
  <g
    transform="rotate(0, 487.57416824839027, 204.52399315365298)translate(487.57416824839027, 204.52399315365298)"
    string="E"
  >
    <title>`E`.text</title>
    <svg
      xmlns="http://www.w3.org/2000/svg"
      width="14.63824"
      height="19.16"
      role="img"
      focusable="false"
      viewBox="0.59396 -13.0288 14.04428 13.0288"
    >
      <path
        stroke="none"
        fill="#000000"
        stroke-width="0"
        d="M9.42672-4.08108Q9.04352-4.08108 9.04352-4.33016 9.04352-4.4068 9.13932-4.79T9.23512-5.4606Q9.23512-6.05456 8.83276-6.18868T6.97424-6.3228H5.97792Q5.95876-6.28448 5.30732-3.67872T4.65588-0.99632Q4.65588-0.91968 4.86664-0.91968T6.39944-0.88136Q8.20048-0.88136 8.77528-0.91968T9.92488-1.16876Q10.86372-1.47532 11.47684-2.24172T12.8372-4.75168Q13.0288-5.1732 13.08628-5.21152 13.2204-5.24984 13.37368-5.24984 13.75688-5.24984 13.75688-5.00076 11.74508-0.13412 11.64928-0.03832 11.5918 0 6.16952 0H2.54828Q0.59396 0 0.59396-0.21076 0.59396-0.24908 0.65144-0.479 0.72808-0.78556 0.80472-0.82388T1.2454-0.88136Q1.76272-0.88136 2.395-0.93884 2.66324-0.99632 2.75904-1.16876 2.79736-1.26456 4.1194-6.55272T5.4606-11.91752Q5.4606-12.05164 5.38396-12.05164 5.2306799999999996-12.10912 4.36848-12.14744H3.77452Q3.65956-12.2624 3.65956-12.30072T3.69788-12.62644Q3.77452-12.95216 3.88948-13.0288H14.50412Q14.63824-12.95216 14.63824-12.81804 14.63824-12.72224 14.38916-10.67212T14.12092-8.56452Q14.0826-8.4304 13.73772-8.4304H13.5078Q13.37368-8.5262 13.37368-8.67948L13.43116-9.12016Q13.48864-9.58 13.48864-10.11648 13.48864-10.69128 13.35452-11.07448T12.99048-11.66844 12.31988-11.975 11.41936-12.10912 10.19312-12.14744H9.2926Q7.60652-12.12828 7.51072-12.08996 7.43408-12.05164 7.39576-11.91752 7.3766-11.86004 6.8018-9.56084T6.20784-7.22332Q6.6485199999999995-7.20416 7.12752-7.20416H7.62568Q8.89024-7.20416 9.36924-7.49156T10.23144-9.04352Q10.30808-9.35008 10.3464-9.3884T10.67212-9.44588Q10.76792-9.44588 10.8254-9.44588T10.9212-9.42672 10.95952-9.40756 10.99784-9.33092 11.05532-9.25428L10.42304-6.72516Q9.79076-4.17688 9.73328-4.13856 9.6758-4.08108 9.42672-4.08108Z"
        fill-opacity="1"
      ></path>
    </svg>
  </g>
  <g
    transform="rotate(0, 194.10324351704097, 347.73444373382443)translate(194.10324351704097, 347.73444373382443)"
    string="F"
  >
    <title>`F`.text</title>
    <svg
      xmlns="http://www.w3.org/2000/svg"
      width="14.35084"
      height="19.16"
      role="img"
      focusable="false"
      viewBox="0.59396 -13.0288 13.756879999999999 13.0288"
    >
      <path
        stroke="none"
        fill="#000000"
        stroke-width="0"
        d="M0.91968-0.01916Q0.59396-0.01916 0.59396-0.21076 0.59396-0.24908 0.65144-0.479 0.72808-0.78556 0.80472-0.82388T1.2454-0.88136Q1.76272-0.88136 2.395-0.93884 2.66324-0.99632 2.75904-1.16876 2.79736-1.26456 4.1194-6.55272T5.4606-11.91752Q5.4606-12.05164 5.38396-12.05164 5.2306799999999996-12.10912 4.36848-12.14744H3.77452Q3.65956-12.2624 3.65956-12.30072T3.69788-12.62644Q3.77452-12.95216 3.88948-13.0288H14.21672Q14.35084-12.95216 14.35084-12.81804 14.35084-12.72224 14.10176-10.67212T13.83352-8.56452Q13.7952-8.4304 13.45032-8.4304H13.2204Q13.08628-8.5262 13.08628-8.67948 13.08628-8.69864 13.14376-9.13932T13.20124-10.1548Q13.20124-10.7296 13.06712-11.09364T12.70308-11.6876 11.99416-11.99416 11.017-12.12828 9.63748-12.14744H9.1968Q7.62568-12.12828 7.52988-12.08996 7.43408-12.05164 7.39576-11.93668 7.3766-11.91752 6.74432-9.42672L6.1312-6.95508H7.185Q7.24248-6.95508 7.62568-6.95508T8.16216-6.97424 8.58368-7.03172 9.04352-7.16584 9.36924-7.39576Q9.61832-7.62568 9.79076-8.02804T10.03984-8.75612 10.13564-9.100999999999999Q10.19312-9.1968 10.49968-9.1968H10.7296Q10.86372-9.100999999999999 10.86372-9.0052 10.86372-8.94772 10.26976-6.49524T9.61832-3.96612Q9.58-3.832 9.23512-3.832H9.0052Q8.87108-3.94696 8.87108-4.06192 8.87108-4.1194 8.96688-4.48344T9.06268-5.24984Q9.06268-5.80548 8.67948-5.9395999999999995T6.97424-6.07372H5.92044L5.30732-3.6404Q4.6942-1.26456 4.6942-1.1496 4.6942-0.88136 6.39944-0.88136H6.87844Q6.9934-0.7664 6.9934-0.74724T6.95508-0.36404Q6.87844-0.11496 6.76348 0H6.43776Q5.6522-0.03832 3.5446-0.03832 2.2992-0.03832 1.64776-0.03832T0.91968-0.01916Z"
        fill-opacity="1"
      ></path>
    </svg>
  </g>
  <g style="solid">
    <path
      d="M 320.43639205527984 524.2617301788948 L 476.1069593978824 231.71536821046737"
      stroke-opacity="1"
      stroke-width="1.75"
      stroke="#000000"
      stroke-linecap="butt"
    ></path>
    <title>`DEF`.PQ</title>
  </g>
  <g style="solid">
    <path
      d="M 222.42791042142326 367.750178937384 L 320.43639205527984 524.2617301788948"
      stroke-opacity="1"
      stroke-width="1.75"
      stroke="#000000"
      stroke-linecap="butt"
    ></path>
    <title>`DEF`.RP</title>
  </g>
  <circle
    fill="#000000"
    fill-opacity="1"
    cx="320.43639205527984"
    cy="524.2617301788948"
    stroke="#000000"
    stroke-opacity="1"
    stroke-width="0"
    stroke-linecap="butt"
    r="4"
  >
    <title>`D`.icon</title>
  </circle>
  <g style="solid">
    <path
      d="M 476.1069593978824 231.71536821046737 L 222.42791042142326 367.750178937384"
      stroke-opacity="1"
      stroke-width="1.75"
      stroke="#000000"
      stroke-linecap="butt"
    ></path>
    <title>`DEF`.QR</title>
  </g>
  <circle
    fill="#000000"
    fill-opacity="1"
    cx="476.1069593978824"
    cy="231.71536821046737"
    stroke="#000000"
    stroke-opacity="1"
    stroke-width="0"
    stroke-linecap="butt"
    r="4"
  >
    <title>`E`.icon</title>
  </circle>
  <g style="solid">
    <path
      d="M 271.4321512383516 446.0059545581394 L 222.42791042142326 367.750178937384"
      stroke-opacity="1"
      stroke-width="1.75"
      stroke="#000000"
      stroke-linecap="butt"
    ></path>
    <title>`GJF`.QR</title>
  </g>
  <g style="solid">
    <path
      d="M 222.42791042142326 367.750178937384 L 349.2674349096528 299.7327735739257"
      stroke-opacity="1"
      stroke-width="1.75"
      stroke="#000000"
      stroke-linecap="butt"
    ></path>
    <title>`GJF`.RP</title>
  </g>
  <g style="solid">
    <path
      d="M 349.2674349096528 299.7327735739257 L 222.42791042142326 367.750178937384"
      stroke-opacity="1"
      stroke-width="1.75"
      stroke="#000000"
      stroke-linecap="butt"
    ></path>
    <title>`aGFJ`.side1</title>
  </g>
  <g style="solid">
    <path
      d="M 222.42791042142326 367.750178937384 L 271.4321512383516 446.0059545581394"
      stroke-opacity="1"
      stroke-width="1.75"
      stroke="#000000"
      stroke-linecap="butt"
    ></path>
    <title>`aGFJ`.side2</title>
  </g>
  <circle
    fill="#000000"
    fill-opacity="1"
    cx="222.42791042142326"
    cy="367.750178937384"
    stroke="#000000"
    stroke-opacity="1"
    stroke-width="0"
    stroke-linecap="butt"
    r="4"
  >
    <title>`F`.icon</title>
  </circle>
  <g
    transform="rotate(0, 274.9028049955386, 300.5814791034782)translate(274.9028049955386, 300.5814791034782)"
    string="K"
  >
    <title>`K`.text</title>
    <svg
      xmlns="http://www.w3.org/2000/svg"
      width="17.03324"
      height="19.16"
      role="img"
      focusable="false"
      viewBox="0.59396 -13.08628 16.43928 13.08628"
    >
      <path
        stroke="none"
        fill="#000000"
        stroke-width="0"
        d="M5.4606-12.03248Q5.4606-12.1666 4.36848-12.20492 3.9278-12.20492 3.79368-12.22408T3.65956-12.39652Q3.65956-12.43484 3.69788-12.66476 3.81284-13.04796 3.88948-13.06712 3.9278-13.08628 4.10024-13.08628H4.19604Q4.9816-13.04796 6.8018-13.04796 7.45324-13.04796 8.00888-13.04796T8.87108-13.06712 9.25428-13.06712Q9.58-13.06712 9.58-12.91384 9.58-12.81804 9.52252-12.6456 9.50336-12.60728 9.50336-12.53064T9.4842-12.41568 9.44588-12.33904 9.3884-12.28156 9.31176-12.24324 9.17764-12.22408 9.0052-12.20492 8.73696-12.20492Q7.97056-12.18576 7.7598-12.14744T7.41492-11.93668L5.86296-5.8438Q5.88212-5.8438 9.3884-8.60284T12.99048-11.43852Q13.25872-11.70676 13.25872-11.879199999999999 13.25872-12.1666 12.77972-12.20492 12.47316-12.20492 12.47316-12.41568 12.47316-12.454 12.53064-12.68392T12.62644-12.97132Q12.68392-13.06712 12.95216-13.06712 13.0288-13.06712 13.62276-13.04796T15.15556-13.0288Q15.59624-13.0288 16.07524-13.04796T16.65004-13.06712Q17.03324-13.06712 17.03324-12.87552 17.03324-12.454 16.87996-12.30072 16.82248-12.20492 16.51592-12.20492 15.07892-12.10912 13.91016-11.22776 13.6036-11.03616 12.56896-10.23144T10.65296-8.7178L9.75244-8.00888 9.92488-7.58736Q10.09732-7.16584 10.461359999999999-6.30364T11.13196-4.67504Q12.56896-1.28372 12.66476-1.16876 12.70308-1.13044 12.76056-1.09212 13.0288-0.90052 13.73772-0.88136H14.14008Q14.25504-0.72808 14.25504-0.70892T14.19756-0.36404Q14.12092-0.11496 14.00596 0H13.7952Q13.0288-0.05748 11.975-0.05748 9.63748-0.05748 9.35008 0H9.15848Q9.04352-0.11496 9.04352-0.17244T9.08184-0.51732Q9.15848-0.7664 9.1968-0.82388T9.40756-0.88136H9.46504Q10.42304-0.88136 10.42304-1.36036 10.42304-1.437 9.90572-2.70156T9.2926-4.13856L8.18132-6.78264 6.87844-5.76716 5.57556-4.75168 5.13488-2.9697999999999998Q4.6942-1.20708 4.6942-1.11128 4.6942-0.97716 4.84748-0.93884T5.80548-0.88136H6.39944Q6.5144-0.70892 6.5144-0.6706 6.5144-0.36404 6.38028-0.0958 6.28448 0 6.07372 0 6.01624 0 5.3648-0.01916T3.4488-0.03832Q2.26088-0.03832 1.6286-0.03832T0.93884-0.01916Q0.59396-0.01916 0.59396-0.21076 0.59396-0.24908 0.65144-0.479 0.72808-0.78556 0.80472-0.82388T1.2454-0.88136Q1.76272-0.88136 2.395-0.93884 2.66324-0.99632 2.75904-1.16876 2.81652-1.2454 4.13856-6.49524T5.4606-12.03248Z"
        fill-opacity="1"
      ></path>
    </svg>
  </g>
  <g
    transform="rotate(0, 245.48406237827078, 448.2449567767268)translate(245.48406237827078, 448.2449567767268)"
    string="J"
  >
    <title>`J`.text</title>
    <svg
      xmlns="http://www.w3.org/2000/svg"
      width="12.12828"
      height="19.16"
      role="img"
      focusable="false"
      viewBox="1.09212 -13.08628 11.03616 13.5078"
    >
      <path
        stroke="none"
        fill="#000000"
        stroke-width="0"
        d="M8.56452-11.975Q8.56452-12.20492 6.78264-12.20492H6.30364Q6.18868-12.30072 6.18868-12.3582T6.227-12.72224Q6.30364-12.97132 6.4186-13.08628H6.74432Q7.52988-13.04796 9.54168-13.04796 10.36556-13.04796 10.88288-13.04796T11.5918-13.06712 11.86004-13.06712Q12.12828-13.06712 12.12828-12.87552 12.12828-12.8372 12.0708-12.60728 11.99416-12.30072 11.93668-12.2624T11.57264-12.20492Q10.57632-12.20492 10.4422-11.93668 10.36556-11.6876 9.25428-7.20416 8.0472-2.45248 8.02804-2.43332 7.60652-1.22624 6.38028-0.40236T3.7362 0.42152Q2.62492 0.42152 1.85852-0.15328T1.09212-1.68608Q1.09212-2.4908 1.5328-2.91232T2.52912-3.33384Q3.39132-3.33384 3.48712-2.4908 3.48712-1.87768 3.14224-1.5328T2.35668-1.07296Q2.2034-1.03464 2.2034-1.01548T2.33752-0.84304Q2.83568-0.2874 3.77452-0.2874 4.5026-0.2874 5.19236-0.90052T6.20784-2.4908Q6.28448-2.72072 7.41492-7.2808T8.56452-11.975Z"
        fill-opacity="1"
      ></path>
    </svg>
  </g>
  <g stroke-width="1" startArrowheadSize="1" endArrowheadSize="1">
    <filter id="`GJF`.icon-shadow" x="0" y="0" width="200%" height="200%">
      <feOffset result="offOut" in="SourceAlpha" dx="5" dy="5"></feOffset>
      <feGaussianBlur
        result="blurOut"
        in="offOut"
        stdDeviation="4"
      ></feGaussianBlur>
      <feBlend in="SourceGraphic" in2="blurOut" mode="normal"></feBlend>
      <feComponentTransfer>
        <feFuncA type="linear" slope="0.5"></feFuncA>
      </feComponentTransfer>
      <feMerge>
        <feMergeNode></feMergeNode>
        <feMergeNode in="SourceGraphic"></feMergeNode>
      </feMerge>
    </filter>
    <path
      stroke="none"
      fill="none"
      d="M 349.2674349096528 299.7327735739257 L 271.4321512383516 446.0059545581394 L 222.42791042142326 367.750178937384 Z "
    ></path>
    <title>`GJF`.icon</title>
  </g>
  <g style="solid">
    <path
      d="M 349.2674349096528 299.7327735739257 L 271.4321512383516 446.0059545581394"
      stroke-opacity="1"
      stroke-width="1.75"
      stroke="#000000"
      stroke-linecap="butt"
    ></path>
    <title>`GJF`.PQ</title>
  </g>
  <circle
    fill="#000000"
    fill-opacity="1"
    cx="349.2674349096528"
    cy="299.7327735739257"
    stroke="#000000"
    stroke-opacity="1"
    stroke-width="0"
    stroke-linecap="butt"
    r="4"
  >
    <title>`G`.icon</title>
  </circle>
  <circle
    fill="#000000"
    fill-opacity="1"
    cx="271.4321512383516"
    cy="446.0059545581394"
    stroke="#000000"
    stroke-opacity="1"
    stroke-width="0"
    stroke-linecap="butt"
    r="4"
  >
    <title>`J`.icon</title>
  </circle>
  <g
    transform="rotate(0, 215.91594369966106, 398.54106952235213)translate(215.91594369966106, 398.54106952235213)"
    string="H"
  >
    <title>`H`.text</title>
    <svg
      xmlns="http://www.w3.org/2000/svg"
      width="17.01408"
      height="19.16"
      role="img"
      focusable="false"
      viewBox="0.59396 -13.08628 16.42012 13.08628"
    >
      <path
        stroke="none"
        fill="#000000"
        stroke-width="0"
        d="M4.36848-12.20492Q3.71704-12.20492 3.67872-12.28156 3.65956-12.31988 3.65956-12.43484 3.65956-12.89468 3.87032-13.06712 3.90864-13.08628 4.19604-13.08628 4.9816-13.04796 6.8018-13.04796 7.45324-13.04796 8.00888-13.04796T8.87108-13.06712 9.25428-13.06712Q9.56084-13.06712 9.56084-12.87552 9.56084-12.8372 9.52252-12.60728 9.42672-12.28156 9.33092-12.22408H9.2926Q9.25428-12.22408 9.1968-12.22408T9.06268-12.22408 8.89024-12.20492 8.7178-12.20492Q7.97056-12.18576 7.7598-12.14744T7.41492-11.93668Q7.35744-11.86004 6.8018-9.58 6.66768-9.08184 6.5144-8.46872T6.28448-7.5682L6.20784-7.2808Q6.20784-7.24248 8.98604-7.24248H11.76424L11.7834-7.29996Q11.7834-7.35744 12.37736-9.65664 12.91384-11.86004 12.91384-12.01332T11.82172-12.20492Q11.38104-12.20492 11.24692-12.24324T11.1128-12.41568Q11.1128-12.454 11.15112-12.6456 11.22776-12.97132 11.26608-13.00964T11.57264-13.06712Q11.66844-13.06712 12.37736-13.04796T14.1784-13.0288Q15.36632-13.0288 15.9986-13.04796T16.68836-13.06712Q17.01408-13.06712 17.01408-12.87552 17.01408-12.3582 16.78416-12.22408H16.74584Q16.70752-12.22408 16.65004-12.22408T16.51592-12.22408 16.34348-12.20492 16.17104-12.20492Q15.4238-12.18576 15.21304-12.14744T14.86816-11.93668Q14.81068-11.84088 13.48864-6.5144T12.14744-1.11128Q12.14744-0.97716 12.22408-0.97716 12.37736-0.91968 13.25872-0.88136H13.85268Q13.96764-0.72808 13.96764-0.70892T13.91016-0.36404Q13.83352-0.11496 13.71856 0H13.43116Q12.72224-0.03832 10.86372-0.03832 10.21228-0.03832 9.65664-0.03832T8.77528-0.03832 8.37292-0.01916Q8.0472-0.01916 8.0472-0.1916 8.0472-0.2874 8.10468-0.45984 8.20048-0.82388 8.29628-0.8622 8.37292-0.88136 8.58368-0.88136H8.69864Q9.21596-0.88136 9.84824-0.93884 9.9632-0.958 10.00152-0.958T10.11648-1.0538 10.23144-1.22624 10.3464-1.57112 10.48052-2.1076 10.69128-2.93148Q10.8254-3.46796 10.90204-3.79368 11.53432-6.3228 11.53432-6.34196T8.75612-6.36112H5.97792L5.34564-3.77452Q4.6942-1.20708 4.6942-1.11128 4.6942-0.97716 4.84748-0.93884T5.80548-0.88136H6.39944Q6.5144-0.72808 6.5144-0.70892T6.45692-0.36404Q6.38028-0.11496 6.26532 0H5.97792Q5.269-0.03832 3.41048-0.03832 2.75904-0.03832 2.2034-0.03832T1.32204-0.03832 0.91968-0.01916Q0.59396-0.01916 0.59396-0.1916 0.59396-0.22992 0.65144-0.45984 0.74724-0.82388 0.84304-0.8622 0.91968-0.88136 1.13044-0.88136H1.2454Q1.76272-0.88136 2.395-0.93884 2.66324-0.99632 2.75904-1.16876 2.81652-1.2454 4.13856-6.49524T5.4606-12.03248Q5.4606-12.1666 4.36848-12.20492Z"
        fill-opacity="1"
      ></path>
    </svg>
  </g>
  <g style="solid">
    <path
      d="M 349.2674349096528 299.7327735739257 L 271.4321512383516 446.0059545581394"
      stroke-opacity="1"
      stroke-width="1.75"
      stroke="#000000"
      stroke-linecap="butt"
    ></path>
    <title>`GJ`.icon</title>
  </g>
  <g style="solid">
    <path
      d="M 246.93003082988741 406.87806674776175 L 285.8476726655381 333.7414762556549"
      stroke-opacity="1"
      stroke-width="1.75"
      stroke="#000000"
      stroke-linecap="butt"
    ></path>
    <title>`HK`.icon</title>
  </g>
  <circle
    fill="#000000"
    fill-opacity="1"
    cx="246.93003082988741"
    cy="406.87806674776175"
    stroke="#000000"
    stroke-opacity="1"
    stroke-width="0"
    stroke-linecap="butt"
    r="4"
  >
    <title>`H`.icon</title>
  </circle>
  <circle
    fill="#000000"
    fill-opacity="1"
    cx="285.8476726655381"
    cy="333.7414762556549"
    stroke="#000000"
    stroke-opacity="1"
    stroke-width="0"
    stroke-linecap="butt"
    r="4"
  >
    <title>`K`.icon</title>
  </circle>
</svg>
