<svg version="1.2" xmlns="http://www.w3.org/2000/svg" viewBox="0 0 800 700">
  <g style="solid">
    <marker
      id="automator-LemongrassOyster4884-startArrowId"
      markerUnits="strokeWidth"
      markerWidth="6.47"
      markerHeight="5.28"
      viewBox="0 0 9.95 8.12"
      refX="2.36"
      refY="4.06"
      orient="auto-start-reverse"
    >
      <path
        d="M9.95 4.06 0 8.12 2.36 4.06 0 0 9.95 4.06z"
        fill="#000000"
        fill-opacity="1"
      ></path>
    </marker>
    <marker
      id="automator-LemongrassOyster4884-endArrowId"
      markerUnits="strokeWidth"
      markerWidth="6.47"
      markerHeight="5.28"
      viewBox="0 0 9.95 8.12"
      refX="2.36"
      refY="4.06"
      orient="auto-start-reverse"
    >
      <path
        d="M9.95 4.06 0 8.12 2.36 4.06 0 0 9.95 4.06z"
        fill="#000000"
        fill-opacity="1"
      ></path>
    </marker>
    <path
      d="M 652.3272288836795 407.92309472109287 L 64.06027475891472 572.8838956981072"
      stroke-opacity="1"
      stroke-width="1.75"
      stroke="#000000"
      stroke-linecap="butt"
      marker-start="url(#automator-LemongrassOyster4884-startArrowId)"
      marker-end="url(#automator-LemongrassOyster4884-endArrowId)"
    ></path>
    <title>`JK`.icon</title>
  </g>
  <g
    transform="rotate(0, 598.2872752552084, 389.55945482267214)translate(598.2872752552084, 389.55945482267214)"
    font-size="13.5px"
    string="J"
  >
    <title>`J`.text</title>
    <svg
      style="font-size: 13.5px"
      xmlns="http://www.w3.org/2000/svg"
      width="12.12828"
      height="19.16"
      role="img"
      focusable="false"
      viewBox="0 -750 633 1000"
    >
      <g
        stroke="none"
        fill="#000000"
        stroke-width="0"
        transform="scale(1,-1)"
        fill-opacity="1"
      >
        <g data-mml-node="math">
          <g data-mml-node="mtable">
            <g data-mml-node="mtr">
              <g data-mml-node="mtd">
                <g data-mml-node="mi">
                  <path
                    data-c="1D43D"
                    d="M447 625Q447 637 354 637H329Q323 642 323 645T325 664Q329 677 335 683H352Q393 681 498 681Q541 681 568 681T605 682T619 682Q633 682 633 672Q633 670 630 658Q626 642 623 640T604 637Q552 637 545 623Q541 610 483 376Q420 128 419 127Q397 64 333 21T195 -22Q137 -22 97 8T57 88Q57 130 80 152T132 174Q177 174 182 130Q182 98 164 80T123 56Q115 54 115 53T122 44Q148 15 197 15Q235 15 271 47T324 130Q328 142 387 380T447 625Z"
                  ></path>
                </g>
              </g>
            </g>
          </g>
        </g>
      </g>
    </svg>
  </g>
  <g
    transform="rotate(0, 108.2616617950831, 562.4804028381108)translate(108.2616617950831, 562.4804028381108)"
    font-size="13.5px"
    string="K"
  >
    <title>`K`.text</title>
    <svg
      style="font-size: 13.5px"
      xmlns="http://www.w3.org/2000/svg"
      width="17.03324"
      height="19.16"
      role="img"
      focusable="false"
      viewBox="0 -750 889 1000"
    >
      <g
        stroke="none"
        fill="#000000"
        stroke-width="0"
        transform="scale(1,-1)"
        fill-opacity="1"
      >
        <g data-mml-node="math">
          <g data-mml-node="mtable">
            <g data-mml-node="mtr">
              <g data-mml-node="mtd">
                <g data-mml-node="mi">
                  <path
                    data-c="1D43E"
                    d="M285 628Q285 635 228 637Q205 637 198 638T191 647Q191 649 193 661Q199 681 203 682Q205 683 214 683H219Q260 681 355 681Q389 681 418 681T463 682T483 682Q500 682 500 674Q500 669 497 660Q496 658 496 654T495 648T493 644T490 641T486 639T479 638T470 637T456 637Q416 636 405 634T387 623L306 305Q307 305 490 449T678 597Q692 611 692 620Q692 635 667 637Q651 637 651 648Q651 650 654 662T659 677Q662 682 676 682Q680 682 711 681T791 680Q814 680 839 681T869 682Q889 682 889 672Q889 650 881 642Q878 637 862 637Q787 632 726 586Q710 576 656 534T556 455L509 418L518 396Q527 374 546 329T581 244Q656 67 661 61Q663 59 666 57Q680 47 717 46H738Q744 38 744 37T741 19Q737 6 731 0H720Q680 3 625 3Q503 3 488 0H478Q472 6 472 9T474 27Q478 40 480 43T491 46H494Q544 46 544 71Q544 75 517 141T485 216L427 354L359 301L291 248L268 155Q245 63 245 58Q245 51 253 49T303 46H334Q340 37 340 35Q340 19 333 5Q328 0 317 0Q314 0 280 1T180 2Q118 2 85 2T49 1Q31 1 31 11Q31 13 34 25Q38 41 42 43T65 46Q92 46 125 49Q139 52 144 61Q147 65 216 339T285 628Z"
                  ></path>
                </g>
              </g>
            </g>
          </g>
        </g>
      </g>
    </svg>
  </g>
  <g
    transform="rotate(0, 438.3056181040613, 220.51923957516877)translate(438.3056181040613, 220.51923957516877)"
    font-size="13.5px"
    string="M"
  >
    <title>`M`.text</title>
    <svg
      style="font-size: 13.5px"
      xmlns="http://www.w3.org/2000/svg"
      width="20.13716"
      height="19.16"
      role="img"
      focusable="false"
      viewBox="0 -750 1051 1000"
    >
      <g
        stroke="none"
        fill="#000000"
        stroke-width="0"
        transform="scale(1,-1)"
        fill-opacity="1"
      >
        <g data-mml-node="math">
          <g data-mml-node="mtable">
            <g data-mml-node="mtr">
              <g data-mml-node="mtd">
                <g data-mml-node="mi">
                  <path
                    data-c="1D440"
                    d="M289 629Q289 635 232 637Q208 637 201 638T194 648Q194 649 196 659Q197 662 198 666T199 671T201 676T203 679T207 681T212 683T220 683T232 684Q238 684 262 684T307 683Q386 683 398 683T414 678Q415 674 451 396L487 117L510 154Q534 190 574 254T662 394Q837 673 839 675Q840 676 842 678T846 681L852 683H948Q965 683 988 683T1017 684Q1051 684 1051 673Q1051 668 1048 656T1045 643Q1041 637 1008 637Q968 636 957 634T939 623Q936 618 867 340T797 59Q797 55 798 54T805 50T822 48T855 46H886Q892 37 892 35Q892 19 885 5Q880 0 869 0Q864 0 828 1T736 2Q675 2 644 2T609 1Q592 1 592 11Q592 13 594 25Q598 41 602 43T625 46Q652 46 685 49Q699 52 704 61Q706 65 742 207T813 490T848 631L654 322Q458 10 453 5Q451 4 449 3Q444 0 433 0Q418 0 415 7Q413 11 374 317L335 624L267 354Q200 88 200 79Q206 46 272 46H282Q288 41 289 37T286 19Q282 3 278 1Q274 0 267 0Q265 0 255 0T221 1T157 2Q127 2 95 1T58 0Q43 0 39 2T35 11Q35 13 38 25T43 40Q45 46 65 46Q135 46 154 86Q158 92 223 354T289 629Z"
                  ></path>
                </g>
              </g>
            </g>
          </g>
        </g>
      </g>
    </svg>
  </g>
  <g
    transform="rotate(0, 401.3005622713966, 239.4233235216218)translate(401.3005622713966, 239.4233235216218)"
    font-size="13.5px"
    string="L"
  >
    <title>`L`.text</title>
    <svg
      style="font-size: 13.5px"
      xmlns="http://www.w3.org/2000/svg"
      width="13.04796"
      height="19.16"
      role="img"
      focusable="false"
      viewBox="0 -750 681 1000"
    >
      <g
        stroke="none"
        fill="#000000"
        stroke-width="0"
        transform="scale(1,-1)"
        fill-opacity="1"
      >
        <g data-mml-node="math">
          <g data-mml-node="mtable">
            <g data-mml-node="mtr">
              <g data-mml-node="mtd">
                <g data-mml-node="mi">
                  <path
                    data-c="1D43F"
                    d="M228 637Q194 637 192 641Q191 643 191 649Q191 673 202 682Q204 683 217 683Q271 680 344 680Q485 680 506 683H518Q524 677 524 674T522 656Q517 641 513 637H475Q406 636 394 628Q387 624 380 600T313 336Q297 271 279 198T252 88L243 52Q243 48 252 48T311 46H328Q360 46 379 47T428 54T478 72T522 106T564 161Q580 191 594 228T611 270Q616 273 628 273H641Q647 264 647 262T627 203T583 83T557 9Q555 4 553 3T537 0T494 -1Q483 -1 418 -1T294 0H116Q32 0 32 10Q32 17 34 24Q39 43 44 45Q48 46 59 46H65Q92 46 125 49Q139 52 144 61Q147 65 216 339T285 628Q285 635 228 637Z"
                  ></path>
                </g>
              </g>
            </g>
          </g>
        </g>
      </g>
    </svg>
  </g>
  <circle
    fill="#000000"
    fill-opacity="1"
    cx="389.314524462104"
    cy="265.8176216461241"
    stroke="#000000"
    stroke-opacity="1"
    stroke-width="0"
    stroke-linecap="butt"
    r="4"
  >
    <title>`L`.icon</title>
  </circle>
  <g style="solid">
    <path
      d="M 94.26167280713184 564.4148719364853 L 472.1359691975795 242.59408020559988"
      stroke-opacity="1"
      stroke-width="1.75"
      stroke="#000000"
      stroke-linecap="butt"
    ></path>
    <title>`JKM`.side2</title>
  </g>
  <circle
    fill="#000000"
    fill-opacity="1"
    cx="472.1359691975795"
    cy="242.59408020559988"
    stroke="#000000"
    stroke-opacity="1"
    stroke-width="0"
    stroke-linecap="butt"
    r="4"
  >
    <title>`M`.icon</title>
  </circle>
  <circle
    fill="#000000"
    fill-opacity="1"
    cx="670.7977464637138"
    cy="186.88833839219333"
    stroke="#000000"
    stroke-opacity="1"
    stroke-width="0"
    stroke-linecap="butt"
    r="4"
  >
    <title>`N`.icon</title>
  </circle>
  <g style="solid">
    <marker
      id="automator-LemongrassOyster4884-startArrowId"
      markerUnits="strokeWidth"
      markerWidth="6.47"
      markerHeight="5.28"
      viewBox="0 0 9.95 8.12"
      refX="2.36"
      refY="4.06"
      orient="auto-start-reverse"
    >
      <path
        d="M9.95 4.06 0 8.12 2.36 4.06 0 0 9.95 4.06z"
        fill="#000000"
        fill-opacity="1"
      ></path>
    </marker>
    <marker
      id="automator-LemongrassOyster4884-endArrowId"
      markerUnits="strokeWidth"
      markerWidth="6.47"
      markerHeight="5.28"
      viewBox="0 0 9.95 8.12"
      refX="2.36"
      refY="4.06"
      orient="auto-start-reverse"
    >
      <path
        d="M9.95 4.06 0 8.12 2.36 4.06 0 0 9.95 4.06z"
        fill="#000000"
        fill-opacity="1"
      ></path>
    </marker>
    <path
      d="M 70.38198288046704 584.7522719446262 L 496.0156515110949 222.25668668128128"
      stroke-opacity="1"
      stroke-width="1.75"
      stroke="#000000"
      stroke-linecap="butt"
      marker-start="url(#automator-LemongrassOyster4884-startArrowId)"
      marker-end="url(#automator-LemongrassOyster4884-endArrowId)"
    ></path>
    <title>`KM`.icon</title>
  </g>
  <g style="solid">
    <marker
      id="automator-LemongrassOyster4884-startArrowId"
      markerUnits="strokeWidth"
      markerWidth="6.47"
      markerHeight="5.28"
      viewBox="0 0 9.95 8.12"
      refX="2.36"
      refY="4.06"
      orient="auto-start-reverse"
    >
      <path
        d="M9.95 4.06 0 8.12 2.36 4.06 0 0 9.95 4.06z"
        fill="#000000"
        fill-opacity="1"
      ></path>
    </marker>
    <marker
      id="automator-LemongrassOyster4884-endArrowId"
      markerUnits="strokeWidth"
      markerWidth="6.47"
      markerHeight="5.28"
      viewBox="0 0 9.95 8.12"
      refX="2.36"
      refY="4.06"
      orient="auto-start-reverse"
    >
      <path
        d="M9.95 4.06 0 8.12 2.36 4.06 0 0 9.95 4.06z"
        fill="#000000"
        fill-opacity="1"
      ></path>
    </marker>
    <path
      d="M 700.9992582537077 178.41968558291248 L 359.1130223007369 274.28627175549053"
      stroke-opacity="1"
      stroke-width="1.75"
      stroke="#000000"
      stroke-linecap="butt"
      marker-start="url(#automator-LemongrassOyster4884-startArrowId)"
      marker-end="url(#automator-LemongrassOyster4884-endArrowId)"
    ></path>
    <title>`NL`.icon</title>
  </g>
  <g
    transform="rotate(0, 645.1477182374181, 197.90742756107562)translate(645.1477182374181, 197.90742756107562)"
    font-size="13.5px"
    string="N"
  >
    <title>`N`.text</title>
    <svg
      style="font-size: 13.5px"
      xmlns="http://www.w3.org/2000/svg"
      width="17.01408"
      height="19.16"
      role="img"
      focusable="false"
      viewBox="0 -750 888 1000"
    >
      <g
        stroke="none"
        fill="#000000"
        stroke-width="0"
        transform="scale(1,-1)"
        fill-opacity="1"
      >
        <g data-mml-node="math">
          <g data-mml-node="mtable">
            <g data-mml-node="mtr">
              <g data-mml-node="mtd">
                <g data-mml-node="mi">
                  <path
                    data-c="1D441"
                    d="M234 637Q231 637 226 637Q201 637 196 638T191 649Q191 676 202 682Q204 683 299 683Q376 683 387 683T401 677Q612 181 616 168L670 381Q723 592 723 606Q723 633 659 637Q635 637 635 648Q635 650 637 660Q641 676 643 679T653 683Q656 683 684 682T767 680Q817 680 843 681T873 682Q888 682 888 672Q888 650 880 642Q878 637 858 637Q787 633 769 597L620 7Q618 0 599 0Q585 0 582 2Q579 5 453 305L326 604L261 344Q196 88 196 79Q201 46 268 46H278Q284 41 284 38T282 19Q278 6 272 0H259Q228 2 151 2Q123 2 100 2T63 2T46 1Q31 1 31 10Q31 14 34 26T39 40Q41 46 62 46Q130 49 150 85Q154 91 221 362L289 634Q287 635 234 637Z"
                  ></path>
                </g>
              </g>
            </g>
          </g>
        </g>
      </g>
    </svg>
  </g>
  <g style="solid">
    <path
      d="M 622.1258212068687 416.3921211827482 L 94.26167280713184 564.4148719364853"
      stroke-opacity="1"
      stroke-width="1.75"
      stroke="#000000"
      stroke-linecap="butt"
    ></path>
    <title>`JKM`.side1</title>
  </g>
  <circle
    fill="#000000"
    fill-opacity="1"
    cx="622.1258212068687"
    cy="416.3921211827482"
    stroke="#000000"
    stroke-opacity="1"
    stroke-width="0"
    stroke-linecap="butt"
    r="4"
  >
    <title>`J`.icon</title>
  </circle>
  <circle
    fill="#000000"
    fill-opacity="1"
    cx="94.26167280713184"
    cy="564.4148719364853"
    stroke="#000000"
    stroke-opacity="1"
    stroke-width="0"
    stroke-linecap="butt"
    r="4"
  >
    <title>`K`.icon</title>
  </circle>
  <g startArrowheadSize="1" endArrowheadSize="1">
    <filter id="`JK`.tick1-shadow" x="0" y="0" width="200%" height="200%">
      <feOffset result="offOut" in="SourceAlpha" dx="5" dy="5"></feOffset>
      <feGaussianBlur
        result="blurOut"
        in="offOut"
        stdDeviation="4"
      ></feGaussianBlur>
      <feBlend in="SourceGraphic" in2="blurOut" mode="normal"></feBlend>
      <feComponentTransfer>
        <feFuncA type="linear" slope="0.5"></feFuncA>
      </feComponentTransfer>
      <feMerge>
        <feMergeNode></feMergeNode>
        <feMergeNode in="SourceGraphic"></feMergeNode>
      </feMerge>
    </filter>
    <path
      stroke="#000000"
      fill="none"
      stroke-width="2"
      stroke-opacity="1"
      d="M 375.62906362353175 500.20195884552675 L 358.1937518212971 490.4034952096 L 367.99221545722384 472.96818340736536"
    ></path>
    <title>`JK`.tick1</title>
  </g>
  <g startArrowheadSize="1" endArrowheadSize="1">
    <filter id="`NL`.tick1-shadow" x="0" y="0" width="200%" height="200%">
      <feOffset result="offOut" in="SourceAlpha" dx="5" dy="5"></feOffset>
      <feGaussianBlur
        result="blurOut"
        in="offOut"
        stdDeviation="4"
      ></feGaussianBlur>
      <feBlend in="SourceGraphic" in2="blurOut" mode="normal"></feBlend>
      <feComponentTransfer>
        <feFuncA type="linear" slope="0.5"></feFuncA>
      </feComponentTransfer>
      <feMerge>
        <feMergeNode></feMergeNode>
        <feMergeNode in="SourceGraphic"></feMergeNode>
      </feMerge>
    </filter>
    <path
      stroke="#000000"
      fill="none"
      stroke-width="2"
      stroke-opacity="1"
      d="M 547.4913307167734 236.15165780727133 L 530.0561402772223 226.35297866920152 L 539.8548194152921 208.91778822965045"
    ></path>
    <title>`NL`.tick1</title>
  </g>
</svg>
