<svg version="1.2" xmlns="http://www.w3.org/2000/svg" viewBox="0 0 800 700">
  <g style="solid">
    <marker
      id="`JK`.icon-startArrowId"
      markerUnits="strokeWidth"
      markerWidth="6.47"
      markerHeight="5.28"
      viewBox="0 0 9.95 8.12"
      refX="2.36"
      refY="4.06"
      orient="auto-start-reverse"
    >
      <path
        d="M9.95 4.06 0 8.12 2.36 4.06 0 0 9.95 4.06z"
        fill="#000000"
        fill-opacity="1"
      ></path>
    </marker>
    <marker
      id="`JK`.icon-endArrowId"
      markerUnits="strokeWidth"
      markerWidth="6.47"
      markerHeight="5.28"
      viewBox="0 0 9.95 8.12"
      refX="2.36"
      refY="4.06"
      orient="auto-start-reverse"
    >
      <path
        d="M9.95 4.06 0 8.12 2.36 4.06 0 0 9.95 4.06z"
        fill="#000000"
        fill-opacity="1"
      ></path>
    </marker>
    <path
      d="M 658.2631867093322 327.73255755595426 L 321.5426518456114 479.2428650863718"
      stroke-opacity="1"
      stroke-width="1.75"
      stroke="#000000"
      stroke-linecap="butt"
      marker-start="url(#`JK`.icon-startArrowId)"
      marker-end="url(#`JK`.icon-endArrowId)"
    ></path>
    <title>`JK`.icon</title>
  </g>
  <g
    transform="rotate(0, 635.45826839638, 308.7050628009783)translate(635.45826839638, 308.7050628009783)"
    string="J"
  >
    <title>`J`.text</title>
    <svg
      xmlns="http://www.w3.org/2000/svg"
      width="12.12828"
      height="19.16"
      role="img"
      focusable="false"
      viewBox="1.09212 -13.08628 11.03616 13.5078"
    >
      <path
        stroke="none"
        fill="#000000"
        stroke-width="0"
        d="M8.56452-11.975Q8.56452-12.20492 6.78264-12.20492H6.30364Q6.18868-12.30072 6.18868-12.3582T6.227-12.72224Q6.30364-12.97132 6.4186-13.08628H6.74432Q7.52988-13.04796 9.54168-13.04796 10.36556-13.04796 10.88288-13.04796T11.5918-13.06712 11.86004-13.06712Q12.12828-13.06712 12.12828-12.87552 12.12828-12.8372 12.0708-12.60728 11.99416-12.30072 11.93668-12.2624T11.57264-12.20492Q10.57632-12.20492 10.4422-11.93668 10.36556-11.6876 9.25428-7.20416 8.0472-2.45248 8.02804-2.43332 7.60652-1.22624 6.38028-0.40236T3.7362 0.42152Q2.62492 0.42152 1.85852-0.15328T1.09212-1.68608Q1.09212-2.4908 1.5328-2.91232T2.52912-3.33384Q3.39132-3.33384 3.48712-2.4908 3.48712-1.87768 3.14224-1.5328T2.35668-1.07296Q2.2034-1.03464 2.2034-1.01548T2.33752-0.84304Q2.83568-0.2874 3.77452-0.2874 4.5026-0.2874 5.19236-0.90052T6.20784-2.4908Q6.28448-2.72072 7.41492-7.2808T8.56452-11.975Z"
        fill-opacity="1"
      ></path>
    </svg>
  </g>
  <g
    transform="rotate(0, 347.87867478380605, 480.37045819222567)translate(347.87867478380605, 480.37045819222567)"
    string="K"
  >
    <title>`K`.text</title>
    <svg
      xmlns="http://www.w3.org/2000/svg"
      width="17.03324"
      height="19.16"
      role="img"
      focusable="false"
      viewBox="0.59396 -13.08628 16.43928 13.08628"
    >
      <path
        stroke="none"
        fill="#000000"
        stroke-width="0"
        d="M5.4606-12.03248Q5.4606-12.1666 4.36848-12.20492 3.9278-12.20492 3.79368-12.22408T3.65956-12.39652Q3.65956-12.43484 3.69788-12.66476 3.81284-13.04796 3.88948-13.06712 3.9278-13.08628 4.10024-13.08628H4.19604Q4.9816-13.04796 6.8018-13.04796 7.45324-13.04796 8.00888-13.04796T8.87108-13.06712 9.25428-13.06712Q9.58-13.06712 9.58-12.91384 9.58-12.81804 9.52252-12.6456 9.50336-12.60728 9.50336-12.53064T9.4842-12.41568 9.44588-12.33904 9.3884-12.28156 9.31176-12.24324 9.17764-12.22408 9.0052-12.20492 8.73696-12.20492Q7.97056-12.18576 7.7598-12.14744T7.41492-11.93668L5.86296-5.8438Q5.88212-5.8438 9.3884-8.60284T12.99048-11.43852Q13.25872-11.70676 13.25872-11.879199999999999 13.25872-12.1666 12.77972-12.20492 12.47316-12.20492 12.47316-12.41568 12.47316-12.454 12.53064-12.68392T12.62644-12.97132Q12.68392-13.06712 12.95216-13.06712 13.0288-13.06712 13.62276-13.04796T15.15556-13.0288Q15.59624-13.0288 16.07524-13.04796T16.65004-13.06712Q17.03324-13.06712 17.03324-12.87552 17.03324-12.454 16.87996-12.30072 16.82248-12.20492 16.51592-12.20492 15.07892-12.10912 13.91016-11.22776 13.6036-11.03616 12.56896-10.23144T10.65296-8.7178L9.75244-8.00888 9.92488-7.58736Q10.09732-7.16584 10.461359999999999-6.30364T11.13196-4.67504Q12.56896-1.28372 12.66476-1.16876 12.70308-1.13044 12.76056-1.09212 13.0288-0.90052 13.73772-0.88136H14.14008Q14.25504-0.72808 14.25504-0.70892T14.19756-0.36404Q14.12092-0.11496 14.00596 0H13.7952Q13.0288-0.05748 11.975-0.05748 9.63748-0.05748 9.35008 0H9.15848Q9.04352-0.11496 9.04352-0.17244T9.08184-0.51732Q9.15848-0.7664 9.1968-0.82388T9.40756-0.88136H9.46504Q10.42304-0.88136 10.42304-1.36036 10.42304-1.437 9.90572-2.70156T9.2926-4.13856L8.18132-6.78264 6.87844-5.76716 5.57556-4.75168 5.13488-2.9697999999999998Q4.6942-1.20708 4.6942-1.11128 4.6942-0.97716 4.84748-0.93884T5.80548-0.88136H6.39944Q6.5144-0.70892 6.5144-0.6706 6.5144-0.36404 6.38028-0.0958 6.28448 0 6.07372 0 6.01624 0 5.3648-0.01916T3.4488-0.03832Q2.26088-0.03832 1.6286-0.03832T0.93884-0.01916Q0.59396-0.01916 0.59396-0.21076 0.59396-0.24908 0.65144-0.479 0.72808-0.78556 0.80472-0.82388T1.2454-0.88136Q1.76272-0.88136 2.395-0.93884 2.66324-0.99632 2.75904-1.16876 2.81652-1.2454 4.13856-6.49524T5.4606-12.03248Z"
        fill-opacity="1"
      ></path>
    </svg>
  </g>
  <g
    transform="rotate(0, 482.7914327500898, 237.95422077623914)translate(482.7914327500898, 237.95422077623914)"
    string="M"
  >
    <title>`M`.text</title>
    <svg
      xmlns="http://www.w3.org/2000/svg"
      width="20.13716"
      height="19.16"
      role="img"
      focusable="false"
      viewBox="0.6706 -13.10544 19.46656 13.10544"
    >
      <path
        stroke="none"
        fill="#000000"
        stroke-width="0"
        d="M5.53724-12.05164Q5.53724-12.1666 4.44512-12.20492 3.98528-12.20492 3.85116-12.22408T3.71704-12.41568Q3.71704-12.43484 3.75536-12.62644 3.77452-12.68392 3.79368-12.76056T3.81284-12.85636 3.85116-12.95216 3.88948-13.00964 3.96612-13.04796 4.06192-13.08628 4.2152-13.08628 4.44512-13.10544Q4.56008-13.10544 5.01992-13.10544T5.88212-13.08628Q7.39576-13.08628 7.62568-13.08628T7.93224-12.99048Q7.9514-12.91384 8.64116-7.58736L9.33092-2.24172 9.7716-2.95064Q10.23144-3.6404 10.99784-4.86664T12.68392-7.54904Q16.03692-12.89468 16.07524-12.933 16.0944-12.95216 16.13272-12.99048T16.20936-13.04796L16.32432-13.08628H18.16368Q18.4894-13.08628 18.93008-13.08628T19.48572-13.10544Q20.13716-13.10544 20.13716-12.89468 20.13716-12.79888 20.07968-12.56896T20.0222-12.31988Q19.94556-12.20492 19.31328-12.20492 18.54688-12.18576 18.33612-12.14744T17.99124-11.93668Q17.93376-11.84088 16.61172-6.5144T15.27052-1.13044Q15.27052-1.0538 15.28968-1.03464T15.4238-0.958 15.74952-0.91968 16.3818-0.88136H16.97576Q17.09072-0.70892 17.09072-0.6706 17.09072-0.36404 16.9566-0.0958 16.8608 0 16.65004 0 16.55424 0 15.86448-0.01916T14.10176-0.03832Q12.933-0.03832 12.33904-0.03832T11.66844-0.01916Q11.34272-0.01916 11.34272-0.21076 11.34272-0.24908 11.38104-0.479 11.45768-0.78556 11.53432-0.82388T11.975-0.88136Q12.49232-0.88136 13.1246-0.93884 13.39284-0.99632 13.48864-1.16876 13.52696-1.2454 14.21672-3.96612T15.57708-9.3884 16.24768-12.08996L12.53064-6.16952Q8.77528-0.1916 8.67948-0.0958 8.64116-0.07664 8.60284-0.05748 8.50704 0 8.29628 0 8.00888 0 7.9514-0.13412 7.91308-0.21076 7.16584-6.07372L6.4186-11.95584 5.11572-6.78264Q3.832-1.68608 3.832-1.51364 3.94696-0.88136 5.21152-0.88136H5.40312Q5.51808-0.78556 5.53724-0.70892T5.47976-0.36404Q5.40312-0.05748 5.32648-0.01916 5.24984 0 5.11572 0 5.0774 0 4.8858 0T4.23436-0.01916 3.00812-0.03832Q2.43332-0.03832 1.8202-0.01916T1.11128 0Q0.82388 0 0.74724-0.03832T0.6706-0.21076Q0.6706-0.24908 0.72808-0.479T0.82388-0.7664Q0.8622-0.88136 1.2454-0.88136 2.5866-0.88136 2.95064-1.64776 3.02728-1.76272 4.27268-6.78264T5.53724-12.05164Z"
        fill-opacity="1"
      ></path>
    </svg>
  </g>
  <g
    transform="rotate(0, 114.06975373009561, 451.876413631131)translate(114.06975373009561, 451.876413631131)"
    string="L"
  >
    <title>`L`.text</title>
    <svg
      xmlns="http://www.w3.org/2000/svg"
      width="13.04796"
      height="19.16"
      role="img"
      focusable="false"
      viewBox="0.61312 -13.08628 11.7834 13.10544"
    >
      <path
        stroke="none"
        fill="#000000"
        stroke-width="0"
        d="M4.36848-12.20492Q3.71704-12.20492 3.67872-12.28156 3.65956-12.31988 3.65956-12.43484 3.65956-12.89468 3.87032-13.06712 3.90864-13.08628 4.15772-13.08628 5.19236-13.0288 6.59104-13.0288 9.2926-13.0288 9.69496-13.08628H9.92488Q10.03984-12.97132 10.03984-12.91384T10.00152-12.56896Q9.90572-12.28156 9.82908-12.20492H9.100999999999999Q7.77896-12.18576 7.54904-12.03248 7.41492-11.95584 7.2808-11.496T5.99708-6.43776Q5.69052-5.19236 5.34564-3.79368T4.82832-1.68608L4.65588-0.99632Q4.65588-0.91968 4.82832-0.91968T5.95876-0.88136H6.28448Q6.8976-0.88136 7.26164-0.90052T8.20048-1.03464 9.15848-1.37952 10.00152-2.03096 10.80624-3.08476Q11.1128-3.65956 11.38104-4.36848T11.70676-5.1732Q11.80256-5.2306799999999996 12.03248-5.2306799999999996H12.28156Q12.39652-5.05824 12.39652-5.01992T12.01332-3.88948 11.17028-1.59028 10.67212-0.17244Q10.6338-0.07664 10.59548-0.05748T10.28892 0 9.46504 0.01916Q9.25428 0.01916 8.00888 0.01916T5.63304 0H2.22256Q0.61312 0 0.61312-0.1916 0.61312-0.32572 0.65144-0.45984 0.74724-0.82388 0.84304-0.8622 0.91968-0.88136 1.13044-0.88136H1.2454Q1.76272-0.88136 2.395-0.93884 2.66324-0.99632 2.75904-1.16876 2.81652-1.2454 4.13856-6.49524T5.4606-12.03248Q5.4606-12.1666 4.36848-12.20492Z"
        fill-opacity="1"
      ></path>
    </svg>
  </g>
  <circle
    fill="#000000"
    fill-opacity="1"
    cx="118.8525761992708"
    cy="437.8765454774957"
    stroke="#000000"
    stroke-opacity="1"
    stroke-width="0"
    stroke-linecap="butt"
    r="4"
  >
    <title>`L`.icon</title>
  </circle>
  <g style="solid">
    <path
      d="M 350.1467563519246 466.3722016677071 L 492.8531792199756 271.10579528790583"
      stroke-opacity="1"
      stroke-width="1.75"
      stroke="#000000"
      stroke-linecap="butt"
    ></path>
    <title>`JKM`.side2</title>
  </g>
  <circle
    fill="#000000"
    fill-opacity="1"
    cx="492.8531792199756"
    cy="271.10579528790583"
    stroke="#000000"
    stroke-opacity="1"
    stroke-width="0"
    stroke-linecap="butt"
    r="4"
  >
    <title>`M`.icon</title>
  </circle>
  <circle
    fill="#000000"
    fill-opacity="1"
    cx="607.1411870029766"
    cy="220.1435864739065"
    stroke="#000000"
    stroke-opacity="1"
    stroke-width="0"
    stroke-linecap="butt"
    r="4"
  >
    <title>`N`.icon</title>
  </circle>
  <g style="solid">
    <marker
      id="`KM`.icon-startArrowId"
      markerUnits="strokeWidth"
      markerWidth="6.47"
      markerHeight="5.28"
      viewBox="0 0 9.95 8.12"
      refX="2.36"
      refY="4.06"
      orient="auto-start-reverse"
    >
      <path
        d="M9.95 4.06 0 8.12 2.36 4.06 0 0 9.95 4.06z"
        fill="#000000"
        fill-opacity="1"
      ></path>
    </marker>
    <marker
      id="`KM`.icon-endArrowId"
      markerUnits="strokeWidth"
      markerWidth="6.47"
      markerHeight="5.28"
      viewBox="0 0 9.95 8.12"
      refX="2.36"
      refY="4.06"
      orient="auto-start-reverse"
    >
      <path
        d="M9.95 4.06 0 8.12 2.36 4.06 0 0 9.95 4.06z"
        fill="#000000"
        fill-opacity="1"
      ></path>
    </marker>
    <path
      d="M 331.63908310437955 491.6964076345346 L 511.3608465670385 245.78159739475802"
      stroke-opacity="1"
      stroke-width="1.75"
      stroke="#000000"
      stroke-linecap="butt"
      marker-start="url(#`KM`.icon-startArrowId)"
      marker-end="url(#`KM`.icon-endArrowId)"
    ></path>
    <title>`KM`.icon</title>
  </g>
  <g style="solid">
    <marker
      id="`NL`.icon-startArrowId"
      markerUnits="strokeWidth"
      markerWidth="6.47"
      markerHeight="5.28"
      viewBox="0 0 9.95 8.12"
      refX="2.36"
      refY="4.06"
      orient="auto-start-reverse"
    >
      <path
        d="M9.95 4.06 0 8.12 2.36 4.06 0 0 9.95 4.06z"
        fill="#000000"
        fill-opacity="1"
      ></path>
    </marker>
    <marker
      id="`NL`.icon-endArrowId"
      markerUnits="strokeWidth"
      markerWidth="6.47"
      markerHeight="5.28"
      viewBox="0 0 9.95 8.12"
      refX="2.36"
      refY="4.06"
      orient="auto-start-reverse"
    >
      <path
        d="M9.95 4.06 0 8.12 2.36 4.06 0 0 9.95 4.06z"
        fill="#000000"
        fill-opacity="1"
      ></path>
    </marker>
    <path
      d="M 635.7885347672418 207.36943680440743 L 90.20523756814498 450.65069107443315"
      stroke-opacity="1"
      stroke-width="1.75"
      stroke="#000000"
      stroke-linecap="butt"
      marker-start="url(#`NL`.icon-startArrowId)"
      marker-end="url(#`NL`.icon-endArrowId)"
    ></path>
    <title>`NL`.icon</title>
  </g>
  <g
    transform="rotate(0, 595.9625244397635, 234.15321749272783)translate(595.9625244397635, 234.15321749272783)"
    string="N"
  >
    <title>`N`.text</title>
    <svg
      xmlns="http://www.w3.org/2000/svg"
      width="17.01408"
      height="19.16"
      role="img"
      focusable="false"
      viewBox="0.59396 -13.08628 16.42012 13.08628"
    >
      <path
        stroke="none"
        fill="#000000"
        stroke-width="0"
        d="M4.48344-12.20492Q4.42596-12.20492 4.33016-12.20492 3.85116-12.20492 3.75536-12.22408T3.65956-12.43484Q3.65956-12.95216 3.87032-13.06712 3.90864-13.08628 5.72884-13.08628 7.20416-13.08628 7.41492-13.08628T7.68316-12.97132Q11.72592-3.46796 11.80256-3.21888L12.8372-7.29996Q13.85268-11.34272 13.85268-11.61096 13.85268-12.12828 12.62644-12.20492 12.1666-12.20492 12.1666-12.41568 12.1666-12.454 12.20492-12.6456 12.28156-12.95216 12.31988-13.00964T12.51148-13.08628Q12.56896-13.08628 13.10544-13.06712T14.69572-13.0288Q15.65372-13.0288 16.15188-13.04796T16.726679999999998-13.06712Q17.01408-13.06712 17.01408-12.87552 17.01408-12.454 16.8608-12.30072 16.82248-12.20492 16.43928-12.20492 15.07892-12.12828 14.73404-11.43852L11.879199999999999-0.13412Q11.84088 0 11.47684 0 11.2086 0 11.15112-0.03832 11.09364-0.0958 8.67948-5.8438L6.24616-11.57264 5.00076-6.59104Q3.75536-1.68608 3.75536-1.51364 3.85116-0.88136 5.13488-0.88136H5.32648Q5.44144-0.78556 5.44144-0.72808T5.40312-0.36404Q5.32648-0.11496 5.21152 0H4.96244Q4.36848-0.03832 2.89316-0.03832 2.35668-0.03832 1.916-0.03832T1.20708-0.03832 0.88136-0.01916Q0.59396-0.01916 0.59396-0.1916 0.59396-0.26824 0.65144-0.49816T0.74724-0.7664Q0.78556-0.88136 1.18792-0.88136 2.4908-0.93884 2.874-1.6286 2.95064-1.74356 4.23436-6.93592L5.53724-12.14744Q5.49892-12.1666 4.48344-12.20492Z"
        fill-opacity="1"
      ></path>
    </svg>
  </g>
  <g style="solid">
    <path
      d="M 629.6590730836631 340.60322507795183 L 350.1467563519246 466.3722016677071"
      stroke-opacity="1"
      stroke-width="1.75"
      stroke="#000000"
      stroke-linecap="butt"
    ></path>
    <title>`JKM`.side1</title>
  </g>
  <circle
    fill="#000000"
    fill-opacity="1"
    cx="629.6590730836631"
    cy="340.60322507795183"
    stroke="#000000"
    stroke-opacity="1"
    stroke-width="0"
    stroke-linecap="butt"
    r="4"
  >
    <title>`J`.icon</title>
  </circle>
  <circle
    fill="#000000"
    fill-opacity="1"
    cx="350.1467563519246"
    cy="466.3722016677071"
    stroke="#000000"
    stroke-opacity="1"
    stroke-width="0"
    stroke-linecap="butt"
    r="4"
  >
    <title>`K`.icon</title>
  </circle>
  <g startArrowheadSize="1" endArrowheadSize="1">
    <filter id="`JK`.tick1-shadow" x="0" y="0" width="200%" height="200%">
      <feOffset result="offOut" in="SourceAlpha" dx="5" dy="5"></feOffset>
      <feGaussianBlur
        result="blurOut"
        in="offOut"
        stdDeviation="4"
      ></feGaussianBlur>
      <feBlend in="SourceGraphic" in2="blurOut" mode="normal"></feBlend>
      <feComponentTransfer>
        <feFuncA type="linear" slope="0.5"></feFuncA>
      </feComponentTransfer>
      <feMerge>
        <feMergeNode></feMergeNode>
        <feMergeNode in="SourceGraphic"></feMergeNode>
      </feMerge>
    </filter>
    <path
      stroke="#000000"
      fill="none"
      stroke-width="2"
      stroke-opacity="1"
      d="M 508.6026252263784 410.58143930622754 L 489.9029192774718 403.48771132116303 L 496.9966472625363 384.7880053722564"
    ></path>
    <title>`JK`.tick1</title>
  </g>
  <g startArrowheadSize="1" endArrowheadSize="1">
    <filter id="`NL`.tick1-shadow" x="0" y="0" width="200%" height="200%">
      <feOffset result="offOut" in="SourceAlpha" dx="5" dy="5"></feOffset>
      <feGaussianBlur
        result="blurOut"
        in="offOut"
        stdDeviation="4"
      ></feGaussianBlur>
      <feBlend in="SourceGraphic" in2="blurOut" mode="normal"></feBlend>
      <feComponentTransfer>
        <feFuncA type="linear" slope="0.5"></feFuncA>
      </feComponentTransfer>
      <feMerge>
        <feMergeNode></feMergeNode>
        <feMergeNode in="SourceGraphic"></feMergeNode>
      </feMerge>
    </filter>
    <path
      stroke="#000000"
      fill="none"
      stroke-width="2"
      stroke-opacity="1"
      d="M 381.67256797307635 336.1668017499182 L 362.99688616769345 329.01006393942026 L 370.1536239781914 310.33438213403736"
    ></path>
    <title>`NL`.tick1</title>
  </g>
</svg>
