<svg version="1.2" xmlns="http://www.w3.org/2000/svg" viewBox="0 0 240 200">
  <g>
    <path
      d="M 156 190 L 156 10"
      stroke-opacity="0.26666666666666666"
      stroke-width="0.35"
      stroke="#888888"
      stroke-linecap="butt"
    ></path>
    <title>global.gridX2</title>
  </g>
  <g>
    <path
      d="M 30 46 L 210 46"
      stroke-opacity="0.26666666666666666"
      stroke-width="0.35"
      stroke="#888888"
      stroke-linecap="butt"
    ></path>
    <title>global.gridY3</title>
  </g>
  <g>
    <path
      d="M 174 190 L 174 10"
      stroke-opacity="0.26666666666666666"
      stroke-width="0.35"
      stroke="#888888"
      stroke-linecap="butt"
    ></path>
    <title>global.gridX3</title>
  </g>
  <g>
    <path
      d="M 30 28 L 210 28"
      stroke-opacity="0.26666666666666666"
      stroke-width="0.35"
      stroke="#888888"
      stroke-linecap="butt"
    ></path>
    <title>global.gridY4</title>
  </g>
  <g>
    <path
      d="M 192 190 L 192 10"
      stroke-opacity="0.26666666666666666"
      stroke-width="0.35"
      stroke="#888888"
      stroke-linecap="butt"
    ></path>
    <title>global.gridX4</title>
  </g>
  <rect
    x="30"
    y="10"
    width="180"
    height="180"
    fill="#1b1f8a"
    fill-opacity="0.06666666666666667"
    stroke="none"
    rx="0"
    transform="rotate(0, 30, 10)"
  >
    <title>global.box</title>
  </rect>
  <g>
    <path
      d="M 102 190 L 102 10"
      stroke-opacity="0.26666666666666666"
      stroke-width="0.35"
      stroke="#888888"
      stroke-linecap="butt"
    ></path>
    <title>global.gridXn1</title>
  </g>
  <g>
    <path
      d="M 30 118 L 210 118"
      stroke-opacity="0.26666666666666666"
      stroke-width="0.35"
      stroke="#888888"
      stroke-linecap="butt"
    ></path>
    <title>global.gridYn1</title>
  </g>
  <g>
    <path
      d="M 84 190 L 84 10"
      stroke-opacity="0.26666666666666666"
      stroke-width="0.35"
      stroke="#888888"
      stroke-linecap="butt"
    ></path>
    <title>global.gridXn2</title>
  </g>
  <g>
    <path
      d="M 30 136 L 210 136"
      stroke-opacity="0.26666666666666666"
      stroke-width="0.35"
      stroke="#888888"
      stroke-linecap="butt"
    ></path>
    <title>global.gridYn2</title>
  </g>
  <g>
    <path
      d="M 66 190 L 66 10"
      stroke-opacity="0.26666666666666666"
      stroke-width="0.35"
      stroke="#888888"
      stroke-linecap="butt"
    ></path>
    <title>global.gridXn3</title>
  </g>
  <g>
    <path
      d="M 30 154 L 210 154"
      stroke-opacity="0.26666666666666666"
      stroke-width="0.35"
      stroke="#888888"
      stroke-linecap="butt"
    ></path>
    <title>global.gridYn3</title>
  </g>
  <g>
    <path
      d="M 48 190 L 48 10"
      stroke-opacity="0.26666666666666666"
      stroke-width="0.35"
      stroke="#888888"
      stroke-linecap="butt"
    ></path>
    <title>global.gridXn4</title>
  </g>
  <g>
    <marker
      id="automator-DoesNotMatter-endArrowId"
      markerUnits="strokeWidth"
      markerWidth="4.98"
      markerHeight="4.06"
      viewBox="0 0 9.95 8.12"
      refX="2.36"
      refY="4.06"
      orient="auto-start-reverse"
    >
      <path
        d="M9.95 4.06 0 8.12 2.36 4.06 0 0 9.95 4.06z"
        fill="#888888"
        fill-opacity="1"
      ></path>
    </marker>
    <path
      d="M 30 100 L 207.53325 100"
      stroke-opacity="1"
      stroke-width="0.65"
      stroke="#888888"
      stroke-linecap="butt"
      marker-end="url(#automator-DoesNotMatter-endArrowId)"
    ></path>
    <title>global.xAxis</title>
  </g>
  <g>
    <path
      d="M 30 172 L 210 172"
      stroke-opacity="0.26666666666666666"
      stroke-width="0.35"
      stroke="#888888"
      stroke-linecap="butt"
    ></path>
    <title>global.gridYn4</title>
  </g>
  <g>
    <marker
      id="automator-DoesNotMatter-endArrowId"
      markerUnits="strokeWidth"
      markerWidth="4.98"
      markerHeight="4.06"
      viewBox="0 0 9.95 8.12"
      refX="2.36"
      refY="4.06"
      orient="auto-start-reverse"
    >
      <path
        d="M9.95 4.06 0 8.12 2.36 4.06 0 0 9.95 4.06z"
        fill="#888888"
        fill-opacity="1"
      ></path>
    </marker>
    <path
      d="M 120 190 L 120 12.466750000000005"
      stroke-opacity="1"
      stroke-width="0.65"
      stroke="#888888"
      stroke-linecap="butt"
      marker-end="url(#automator-DoesNotMatter-endArrowId)"
    ></path>
    <title>global.yAxis</title>
  </g>
  <g>
    <path
      d="M 30 82 L 210 82"
      stroke-opacity="0.26666666666666666"
      stroke-width="0.35"
      stroke="#888888"
      stroke-linecap="butt"
    ></path>
    <title>global.gridY1</title>
  </g>
  <g>
    <path
      d="M 138 190 L 138 10"
      stroke-opacity="0.26666666666666666"
      stroke-width="0.35"
      stroke="#888888"
      stroke-linecap="butt"
    ></path>
    <title>global.gridX1</title>
  </g>
  <g>
    <path
      d="M 30 64 L 210 64"
      stroke-opacity="0.26666666666666666"
      stroke-width="0.35"
      stroke="#888888"
      stroke-linecap="butt"
    ></path>
    <title>global.gridY2</title>
  </g>
  <g>
    <marker
      id="automator-DoesNotMatter-endArrowId"
      markerUnits="strokeWidth"
      markerWidth="7.46"
      markerHeight="6.09"
      viewBox="0 0 9.95 8.12"
      refX="2.36"
      refY="4.06"
      orient="auto-start-reverse"
    >
      <path
        d="M9.95 4.06 0 8.12 2.36 4.06 0 0 9.95 4.06z"
        fill="#aaaaaa"
        fill-opacity="1"
      ></path>
    </marker>
    <path
      d="M 120 100 L 16.736446300518168 31.157630867012116"
      stroke-opacity="1"
      stroke-width="1"
      stroke="#aaaaaa"
      stroke-linecap="butt"
      marker-end="url(#automator-DoesNotMatter-endArrowId)"
    ></path>
    <title>`r`.icon</title>
  </g>
  <g>
    <marker
      id="automator-DoesNotMatter-endArrowId"
      markerUnits="strokeWidth"
      markerWidth="7.46"
      markerHeight="6.09"
      viewBox="0 0 9.95 8.12"
      refX="2.36"
      refY="4.06"
      orient="auto-start-reverse"
    >
      <path
        d="M9.95 4.06 0 8.12 2.36 4.06 0 0 9.95 4.06z"
        fill="#00aa00"
        fill-opacity="1"
      ></path>
    </marker>
    <path
      d="M 120 100 L 70.73644630051817 67.15763086701212"
      stroke-opacity="1"
      stroke-width="1"
      stroke="#00aa00"
      stroke-linecap="butt"
      marker-end="url(#automator-DoesNotMatter-endArrowId)"
    ></path>
    <title>`u`.icon</title>
  </g>
  <g
    transform="rotate(0, 146.25048802864845, 64.67862197135155)translate(146.25048802864845, 64.67862197135155)"
    font-size="7px"
    string="c"
  >
    <title>`c`.labelText</title>
    <svg
      style="font-size: 7px"
      xmlns="http://www.w3.org/2000/svg"
      width="5.48178"
      height="12.66"
      role="img"
      focusable="false"
      viewBox="0 -750 433 1000"
    >
      <g
        stroke="none"
        fill="#ff6600"
        stroke-width="0"
        transform="scale(1,-1)"
        fill-opacity="0.2"
      >
        <g data-mml-node="math">
          <g data-mml-node="mtable">
            <g data-mml-node="mtr">
              <g data-mml-node="mtd">
                <g data-mml-node="mi">
                  <path
                    data-c="1D450"
                    d="M34 159Q34 268 120 355T306 442Q362 442 394 418T427 355Q427 326 408 306T360 285Q341 285 330 295T319 325T330 359T352 380T366 386H367Q367 388 361 392T340 400T306 404Q276 404 249 390Q228 381 206 359Q162 315 142 235T121 119Q121 73 147 50Q169 26 205 26H209Q321 26 394 111Q403 121 406 121Q410 121 419 112T429 98T420 83T391 55T346 25T282 0T202 -11Q127 -11 81 37T34 159Z"
                  ></path>
                </g>
              </g>
            </g>
          </g>
        </g>
      </g>
    </svg>
  </g>
  <circle
    fill="#ff6600"
    fill-opacity="0.2"
    cx="120"
    cy="100"
    stroke="none"
    r="36"
  >
    <title>`c`.icon</title>
  </circle>
  <g
    transform="rotate(0, 56.55490409343645, 53.7871093956243)translate(56.55490409343645, 53.7871093956243)"
    font-size="7px"
    string="u"
  >
    <title>`u`.labelText</title>
    <svg
      style="font-size: 7px"
      xmlns="http://www.w3.org/2000/svg"
      width="7.2415199999999995"
      height="12.66"
      role="img"
      focusable="false"
      viewBox="0 -750 572 1000"
    >
      <g
        stroke="none"
        fill="#00aa00"
        stroke-width="0"
        transform="scale(1,-1)"
        fill-opacity="1"
      >
        <g data-mml-node="math">
          <g data-mml-node="mtable">
            <g data-mml-node="mtr">
              <g data-mml-node="mtd">
                <g data-mml-node="mi">
                  <path
                    data-c="1D462"
                    d="M21 287Q21 295 30 318T55 370T99 420T158 442Q204 442 227 417T250 358Q250 340 216 246T182 105Q182 62 196 45T238 27T291 44T328 78L339 95Q341 99 377 247Q407 367 413 387T427 416Q444 431 463 431Q480 431 488 421T496 402L420 84Q419 79 419 68Q419 43 426 35T447 26Q469 29 482 57T512 145Q514 153 532 153Q551 153 551 144Q550 139 549 130T540 98T523 55T498 17T462 -8Q454 -10 438 -10Q372 -10 347 46Q345 45 336 36T318 21T296 6T267 -6T233 -11Q189 -11 155 7Q103 38 103 113Q103 170 138 262T173 379Q173 380 173 381Q173 390 173 393T169 400T158 404H154Q131 404 112 385T82 344T65 302T57 280Q55 278 41 278H27Q21 284 21 287Z"
                  ></path>
                </g>
              </g>
            </g>
          </g>
        </g>
      </g>
    </svg>
  </g>
  <g
    transform="rotate(0, -0.1250974081105678, 17.252104011031314)translate(-0.1250974081105678, 17.252104011031314)"
    font-size="7px"
    string="c\vec{u}"
  >
    <title>`r`.labelText</title>
    <svg
      style="font-size: 7px"
      xmlns="http://www.w3.org/2000/svg"
      width="12.601506849315069"
      height="13.73"
      role="img"
      focusable="false"
      viewBox="0 -797.5 1005 1095"
    >
      <g
        stroke="none"
        fill="#aaaaaa"
        stroke-width="0"
        transform="scale(1,-1)"
        fill-opacity="1"
      >
        <g data-mml-node="math">
          <g data-mml-node="mtable">
            <g data-mml-node="mtr" transform="translate(0,-47.5)">
              <g data-mml-node="mtd">
                <g data-mml-node="mi">
                  <path
                    data-c="1D450"
                    d="M34 159Q34 268 120 355T306 442Q362 442 394 418T427 355Q427 326 408 306T360 285Q341 285 330 295T319 325T330 359T352 380T366 386H367Q367 388 361 392T340 400T306 404Q276 404 249 390Q228 381 206 359Q162 315 142 235T121 119Q121 73 147 50Q169 26 205 26H209Q321 26 394 111Q403 121 406 121Q410 121 419 112T429 98T420 83T391 55T346 25T282 0T202 -11Q127 -11 81 37T34 159Z"
                  ></path>
                </g>
                <g
                  data-mml-node="TeXAtom"
                  data-mjx-texclass="ORD"
                  transform="translate(433,0)"
                >
                  <g data-mml-node="mover">
                    <g data-mml-node="mi">
                      <path
                        data-c="1D462"
                        d="M21 287Q21 295 30 318T55 370T99 420T158 442Q204 442 227 417T250 358Q250 340 216 246T182 105Q182 62 196 45T238 27T291 44T328 78L339 95Q341 99 377 247Q407 367 413 387T427 416Q444 431 463 431Q480 431 488 421T496 402L420 84Q419 79 419 68Q419 43 426 35T447 26Q469 29 482 57T512 145Q514 153 532 153Q551 153 551 144Q550 139 549 130T540 98T523 55T498 17T462 -8Q454 -10 438 -10Q372 -10 347 46Q345 45 336 36T318 21T296 6T267 -6T233 -11Q189 -11 155 7Q103 38 103 113Q103 170 138 262T173 379Q173 380 173 381Q173 390 173 393T169 400T158 404H154Q131 404 112 385T82 344T65 302T57 280Q55 278 41 278H27Q21 284 21 287Z"
                      ></path>
                    </g>
                    <g
                      data-mml-node="mo"
                      transform="translate(313.8,31) translate(-250 0)"
                    >
                      <path
                        data-c="20D7"
                        d="M377 694Q377 702 382 708T397 714Q404 714 409 709Q414 705 419 690Q429 653 460 633Q471 626 471 615Q471 606 468 603T454 594Q411 572 379 531Q377 529 374 525T369 519T364 517T357 516Q350 516 344 521T337 536Q337 555 384 595H213L42 596Q29 605 29 615Q29 622 42 635H401Q377 673 377 694Z"
                      ></path>
                    </g>
                  </g>
                </g>
              </g>
            </g>
          </g>
        </g>
      </g>
    </svg>
  </g>
</svg>
