<?xml version="1.0" encoding="UTF-8"?>
<!DOCTYPE svg PUBLIC "-//W3C//DTD SVG 1.1//EN"
    "http://www.w3.org/Graphics/SVG/1.1/DTD/svg11.dtd">
<svg xmlns="http://www.w3.org/2000/svg" height="500.0000" stroke-opacity="1" viewBox="0 0 500 500" font-size="1" width="500.0000" xmlns:xlink="http://www.w3.org/1999/xlink" stroke="rgb(0,0,0)" version="1.1">
  <defs>
  </defs>
  <defs>
  </defs>
  <g stroke-linejoin="miter" stroke-opacity="1.0" fill-opacity="0.0" stroke="rgb(0,0,0)" stroke-width="1.6329704417724904" fill="rgb(0,0,0)" stroke-linecap="butt" stroke-miterlimit="10.0">
    <path d="M 499.9722,250.0139 c 0.0000,-92.0372 -74.6109,-166.6481 -166.6481 -166.6481c -92.0372,-0.0000 -166.6481,74.6109 -166.6481 166.6481c -0.0000,92.0372 74.6109,166.6481 166.6481 166.6481c 92.0372,0.0000 166.6481,-74.6109 166.6481 -166.6481Z"/>
  </g>
  <defs>
  </defs>
  <g stroke-linejoin="miter" stroke-opacity="1.0" fill-opacity="0.0" stroke="rgb(0,0,0)" stroke-width="1.6329704417724904" fill="rgb(0,0,0)" stroke-linecap="butt" stroke-miterlimit="10.0">
    <path d="M 333.3241,250.0139 c 0.0000,-92.0372 -74.6109,-166.6481 -166.6481 -166.6481c -92.0372,-0.0000 -166.6481,74.6109 -166.6481 166.6481c -0.0000,92.0372 74.6109,166.6481 166.6481 166.6481c 92.0372,0.0000 166.6481,-74.6109 166.6481 -166.6481Z"/>
  </g>
  <defs>
  </defs>
  <g stroke-linejoin="miter" stroke-opacity="1.0" fill-opacity="1.0" stroke="rgb(0,0,0)" stroke-width="0.0" fill="rgb(255,0,0)" stroke-linecap="butt" stroke-miterlimit="10.0">
    <path d="M 250.0000,105.6924 c -79.7066,46.0186 -107.0161,147.9390 -60.9974 227.6456c 14.6264,25.3337 35.6637,46.3710 60.9974 60.9974c 79.7066,-46.0186 107.0161,-147.9390 60.9974 -227.6456c -14.6264,-25.3337 -35.6637,-46.3710 -60.9974 -60.9974Z"/>
  </g>
  <defs>
  </defs>
  <g stroke-linejoin="miter" stroke-opacity="1.0" fill-opacity="0.0" stroke="rgb(0,0,255)" stroke-width="5.0" fill="rgb(0,0,0)" stroke-linecap="butt" stroke-miterlimit="10.0">
    <path d="M 250.0000,105.6924 c -79.7066,46.0186 -107.0161,147.9390 -60.9974 227.6456c 14.6264,25.3337 35.6637,46.3710 60.9974 60.9974"/>
  </g>
  <defs>
  </defs>
  <g stroke-linejoin="miter" stroke-opacity="1.0" fill-opacity="0.0" stroke="rgb(0,0,255)" stroke-width="5.0" fill="rgb(0,0,0)" stroke-linecap="butt" stroke-miterlimit="10.0">
    <path d="M 250.0000,105.6924 c -79.7066,-46.0186 -181.6270,-18.7091 -227.6456 60.9974c -46.0186,79.7066 -18.7091,181.6270 60.9974 227.6456c 51.5611,29.7688 115.0870,29.7688 166.6481 -0.0000"/>
  </g>
  <defs>
  </defs>
  <g stroke-linejoin="miter" stroke-opacity="1.0" fill-opacity="0.0" stroke="rgb(0,128,0)" stroke-width="5.0" fill="rgb(0,0,0)" stroke-linecap="butt" stroke-miterlimit="10.0">
    <path d="M 250.0000,105.6924 c 79.7066,46.0186 107.0161,147.9390 60.9974 227.6456c -14.6264,25.3337 -35.6637,46.3710 -60.9974 60.9974"/>
  </g>
  <defs>
  </defs>
  <g stroke-linejoin="miter" stroke-opacity="1.0" fill-opacity="0.0" stroke="rgb(0,128,0)" stroke-width="5.0" fill="rgb(0,0,0)" stroke-linecap="butt" stroke-miterlimit="10.0">
    <path d="M 250.0000,105.6924 c 79.7066,-46.0186 181.6270,-18.7091 227.6456 60.9974c 46.0186,79.7066 18.7091,181.6270 -60.9974 227.6456c -51.5611,29.7688 -115.0870,29.7688 -166.6481 -0.0000"/>
  </g>
</svg>