<?xml version="1.0" encoding="UTF-8"?>
<!DOCTYPE svg PUBLIC "-//W3C//DTD SVG 1.1//EN"
    "http://www.w3.org/Graphics/SVG/1.1/DTD/svg11.dtd">
<svg xmlns="http://www.w3.org/2000/svg" height="500.0000" stroke-opacity="1" viewBox="0 0 500 500" font-size="1" width="500.0000" xmlns:xlink="http://www.w3.org/1999/xlink" stroke="rgb(0,0,0)" version="1.1">
  <defs>
  </defs>
  <defs>
  </defs>
  <g stroke-linejoin="miter" stroke-opacity="1.0" fill-opacity="1.0" stroke="rgb(0,0,0)" stroke-width="0.0" fill="rgb(255,0,0)" stroke-linecap="butt" stroke-miterlimit="10.0">
    <path d="M 250.0000,105.6624 c -79.7154,46.0237 -107.0280,147.9555 -61.0042 227.6709c 14.6281,25.3365 35.6677,46.3762 61.0042 61.0042c 79.7154,-46.0237 107.0280,-147.9555 61.0042 -227.6709c -14.6281,-25.3365 -35.6677,-46.3762 -61.0042 -61.0042Z"/>
  </g>
  <defs>
  </defs>
  <g stroke-linejoin="miter" stroke-opacity="1.0" fill-opacity="0.0" stroke="rgb(0,0,0)" stroke-width="1.632993161855452" fill="rgb(0,0,0)" stroke-linecap="butt" stroke-miterlimit="10.0">
    <path d="M 500.0000,250.0000 c 0.0000,-92.0475 -74.6192,-166.6667 -166.6667 -166.6667c -92.0475,-0.0000 -166.6667,74.6192 -166.6667 166.6667c -0.0000,92.0475 74.6192,166.6667 166.6667 166.6667c 92.0475,0.0000 166.6667,-74.6192 166.6667 -166.6667Z"/>
  </g>
  <defs>
  </defs>
  <g stroke-linejoin="miter" stroke-opacity="1.0" fill-opacity="0.0" stroke="rgb(0,0,0)" stroke-width="1.632993161855452" fill="rgb(0,0,0)" stroke-linecap="butt" stroke-miterlimit="10.0">
    <path d="M 333.3333,250.0000 c 0.0000,-92.0475 -74.6192,-166.6667 -166.6667 -166.6667c -92.0475,-0.0000 -166.6667,74.6192 -166.6667 166.6667c -0.0000,92.0475 74.6192,166.6667 166.6667 166.6667c 92.0475,0.0000 166.6667,-74.6192 166.6667 -166.6667Z"/>
  </g>
</svg>