<svg version="1.2" xmlns="http://www.w3.org/2000/svg" viewBox="0 0 240 180">
  <rect
    x="0"
    y="0"
    width="240"
    height="180"
    fill="none"
    stroke="#000000"
    stroke-opacity="0.2"
    stroke-width="1"
    stroke-linecap="butt"
    rx="0"
    transform="rotate(0, 0, 0)"
  >
    <title>Global.box</title>
  </rect>
  <g>
    <marker
      id="`c`.icon-endArrowId"
      markerUnits="strokeWidth"
      markerWidth="4.98"
      markerHeight="4.06"
      viewBox="0 0 9.95 8.12"
      refX="2.36"
      refY="4.06"
      orient="auto-start-reverse"
    >
      <path
        d="M9.95 4.06 0 8.12 2.36 4.06 0 0 9.95 4.06z"
        fill="#000000"
        fill-opacity="1"
      ></path>
    </marker>
    <path
      d="M 120 90 L 66.22428338079143 100.18068653707469"
      stroke-opacity="1"
      stroke-width="1.5"
      stroke="#000000"
      stroke-linecap="round"
      marker-end="url(#`c`.icon-endArrowId)"
    ></path>
    <title>`c`.icon</title>
  </g>
  <g
    transform="rotate(0, 54.50130526318235, 96.90362150953625)translate(54.50130526318235, 96.90362150953625)"
    font-size="4.5px"
    string="c"
    font-family="Linux Libertine"
  >
    <title>`c`.labelText</title>
    <svg
      style="font-size: 4.5px"
      xmlns="http://www.w3.org/2000/svg"
      width="4.39928"
      height="10.16"
      role="img"
      focusable="false"
      viewBox="0 -750 433 1000"
    >
      <g
        stroke="none"
        fill="#000000"
        stroke-width="0"
        transform="scale(1,-1)"
        fill-opacity="1"
      >
        <g data-mml-node="math">
          <g data-mml-node="mtable">
            <g data-mml-node="mtr">
              <g data-mml-node="mtd">
                <g data-mml-node="mi">
                  <path
                    data-c="1D450"
                    d="M34 159Q34 268 120 355T306 442Q362 442 394 418T427 355Q427 326 408 306T360 285Q341 285 330 295T319 325T330 359T352 380T366 386H367Q367 388 361 392T340 400T306 404Q276 404 249 390Q228 381 206 359Q162 315 142 235T121 119Q121 73 147 50Q169 26 205 26H209Q321 26 394 111Q403 121 406 121Q410 121 419 112T429 98T420 83T391 55T346 25T282 0T202 -11Q127 -11 81 37T34 159Z"
                  ></path>
                </g>
              </g>
            </g>
          </g>
        </g>
      </g>
    </svg>
  </g>
  <g>
    <marker
      id="`b`.icon-endArrowId"
      markerUnits="strokeWidth"
      markerWidth="4.98"
      markerHeight="4.06"
      viewBox="0 0 9.95 8.12"
      refX="2.36"
      refY="4.06"
      orient="auto-start-reverse"
    >
      <path
        d="M9.95 4.06 0 8.12 2.36 4.06 0 0 9.95 4.06z"
        fill="#000000"
        fill-opacity="1"
      ></path>
    </marker>
    <path
      d="M 120 90 L 113.36318042151044 158.47680654236092"
      stroke-opacity="1"
      stroke-width="1.5"
      stroke="#000000"
      stroke-linecap="round"
      marker-end="url(#`b`.icon-endArrowId)"
    ></path>
    <title>`b`.icon</title>
  </g>
  <g endArrowheadSize="1" startArrowheadSize="1" stroke-width="1">
    <filter id="`v`.icon-shadow" x="0" y="0" width="200%" height="200%">
      <feOffset result="offOut" in="SourceAlpha" dx="5" dy="5"></feOffset>
      <feGaussianBlur
        result="blurOut"
        in="offOut"
        stdDeviation="4"
      ></feGaussianBlur>
      <feBlend in="SourceGraphic" in2="blurOut" mode="normal"></feBlend>
      <feComponentTransfer>
        <feFuncA type="linear" slope="0.5"></feFuncA>
      </feComponentTransfer>
      <feMerge>
        <feMergeNode></feMergeNode>
        <feMergeNode in="SourceGraphic"></feMergeNode>
      </feMerge>
    </filter>
    <path
      stroke="none"
      fill="#cc008a"
      fill-opacity="0.2"
      d="M 120 90 L 112.81403258822043 164.1427568516376 L 53.445166014188445 175.3823247951308 L 60.631133425968024 101.2395679434932 Z "
    ></path>
    <title>`v`.icon</title>
  </g>
  <g>
    <marker
      id="`a`.icon-endArrowId"
      markerUnits="strokeWidth"
      markerWidth="4.98"
      markerHeight="4.06"
      viewBox="0 0 9.95 8.12"
      refX="2.36"
      refY="4.06"
      orient="auto-start-reverse"
    >
      <path
        d="M9.95 4.06 0 8.12 2.36 4.06 0 0 9.95 4.06z"
        fill="#000000"
        fill-opacity="1"
      ></path>
    </marker>
    <path
      d="M 120 90 L 181.97638611835146 29.305072871841496"
      stroke-opacity="1"
      stroke-width="1.5"
      stroke="#000000"
      stroke-linecap="round"
      marker-end="url(#`a`.icon-endArrowId)"
    ></path>
    <title>`a`.icon</title>
  </g>
  <g endArrowheadSize="1" startArrowheadSize="1" stroke-width="1">
    <filter id="`u`.icon-shadow" x="0" y="0" width="200%" height="200%">
      <feOffset result="offOut" in="SourceAlpha" dx="5" dy="5"></feOffset>
      <feGaussianBlur
        result="blurOut"
        in="offOut"
        stdDeviation="4"
      ></feGaussianBlur>
      <feBlend in="SourceGraphic" in2="blurOut" mode="normal"></feBlend>
      <feComponentTransfer>
        <feFuncA type="linear" slope="0.5"></feFuncA>
      </feComponentTransfer>
      <feMerge>
        <feMergeNode></feMergeNode>
        <feMergeNode in="SourceGraphic"></feMergeNode>
      </feMerge>
    </filter>
    <path
      stroke="none"
      fill="#70cc00"
      fill-opacity="0.2"
      d="M 120 90 L 186.04341799490055 25.322133258298066 L 178.857450583121 99.46489010993568 L 112.81403258822043 164.1427568516376 Z "
    ></path>
    <title>`u`.icon</title>
  </g>
  <g
    transform="rotate(0, 110.24883800969135, 163.04410040799863)translate(110.24883800969135, 163.04410040799863)"
    font-size="4.5px"
    string="b"
    font-family="Linux Libertine"
  >
    <title>`b`.labelText</title>
    <svg
      style="font-size: 4.5px"
      xmlns="http://www.w3.org/2000/svg"
      width="4.35864"
      height="10.16"
      role="img"
      focusable="false"
      viewBox="0 -750 429 1000"
    >
      <g
        stroke="none"
        fill="#000000"
        stroke-width="0"
        transform="scale(1,-1)"
        fill-opacity="1"
      >
        <g data-mml-node="math">
          <g data-mml-node="mtable">
            <g data-mml-node="mtr">
              <g data-mml-node="mtd">
                <g data-mml-node="mi">
                  <path
                    data-c="1D44F"
                    d="M73 647Q73 657 77 670T89 683Q90 683 161 688T234 694Q246 694 246 685T212 542Q204 508 195 472T180 418L176 399Q176 396 182 402Q231 442 283 442Q345 442 383 396T422 280Q422 169 343 79T173 -11Q123 -11 82 27T40 150V159Q40 180 48 217T97 414Q147 611 147 623T109 637Q104 637 101 637H96Q86 637 83 637T76 640T73 647ZM336 325V331Q336 405 275 405Q258 405 240 397T207 376T181 352T163 330L157 322L136 236Q114 150 114 114Q114 66 138 42Q154 26 178 26Q211 26 245 58Q270 81 285 114T318 219Q336 291 336 325Z"
                  ></path>
                </g>
              </g>
            </g>
          </g>
        </g>
      </g>
    </svg>
  </g>
  <g
    transform="rotate(0, 186.21391542947563, 17.44340568154196)translate(186.21391542947563, 17.44340568154196)"
    font-size="4.5px"
    string="a"
    font-family="Linux Libertine"
  >
    <title>`a`.labelText</title>
    <svg
      style="font-size: 4.5px"
      xmlns="http://www.w3.org/2000/svg"
      width="5.37464"
      height="10.16"
      role="img"
      focusable="false"
      viewBox="0 -750 529 1000"
    >
      <g
        stroke="none"
        fill="#000000"
        stroke-width="0"
        transform="scale(1,-1)"
        fill-opacity="1"
      >
        <g data-mml-node="math">
          <g data-mml-node="mtable">
            <g data-mml-node="mtr">
              <g data-mml-node="mtd">
                <g data-mml-node="mi">
                  <path
                    data-c="1D44E"
                    d="M33 157Q33 258 109 349T280 441Q331 441 370 392Q386 422 416 422Q429 422 439 414T449 394Q449 381 412 234T374 68Q374 43 381 35T402 26Q411 27 422 35Q443 55 463 131Q469 151 473 152Q475 153 483 153H487Q506 153 506 144Q506 138 501 117T481 63T449 13Q436 0 417 -8Q409 -10 393 -10Q359 -10 336 5T306 36L300 51Q299 52 296 50Q294 48 292 46Q233 -10 172 -10Q117 -10 75 30T33 157ZM351 328Q351 334 346 350T323 385T277 405Q242 405 210 374T160 293Q131 214 119 129Q119 126 119 118T118 106Q118 61 136 44T179 26Q217 26 254 59T298 110Q300 114 325 217T351 328Z"
                  ></path>
                </g>
              </g>
            </g>
          </g>
        </g>
      </g>
    </svg>
  </g>
  <g endArrowheadSize="1" startArrowheadSize="0.5">
    <marker
      id="`u`.marker-startArrowId"
      markerUnits="strokeWidth"
      markerWidth="4.98"
      markerHeight="4.06"
      viewBox="0 0 9.95 8.12"
      refX="2.36"
      refY="4.06"
      orient="auto-start-reverse"
    >
      <path
        d="M9.95 4.06 0 8.12 2.36 4.06 0 0 9.95 4.06z"
        fill="#70cc00"
        fill-opacity="1"
      ></path>
    </marker>
    <filter id="`u`.marker-shadow" x="0" y="0" width="200%" height="200%">
      <feOffset result="offOut" in="SourceAlpha" dx="5" dy="5"></feOffset>
      <feGaussianBlur
        result="blurOut"
        in="offOut"
        stdDeviation="4"
      ></feGaussianBlur>
      <feBlend in="SourceGraphic" in2="blurOut" mode="normal"></feBlend>
      <feComponentTransfer>
        <feFuncA type="linear" slope="0.5"></feFuncA>
      </feComponentTransfer>
      <feMerge>
        <feMergeNode></feMergeNode>
        <feMergeNode in="SourceGraphic"></feMergeNode>
      </feMerge>
    </filter>
    <path
      stroke="#70cc00"
      fill="none"
      stroke-width="1.125"
      stroke-opacity="1"
      d="M 157.81720967109584 78.83043213893625 A 17.97889668909862 17.97889668909862 0 0 0 141.04024091202515 110.63445797099943"
      marker-start="url(#`u`.marker-startArrowId)"
    ></path>
    <title>`u`.marker</title>
  </g>
  <g
    transform="rotate(0, 138.9161732915605, 89.65244505496784)translate(138.9161732915605, 89.65244505496784)"
    font-size="4.5px"
    string="a \wedge b"
    font-family="Linux Libertine"
  >
    <title>`u`.labelText</title>
    <svg
      style="font-size: 4.5px"
      xmlns="http://www.w3.org/2000/svg"
      width="21.025104000000002"
      height="10.16"
      role="img"
      focusable="false"
      viewBox="0 -750 2069.4 1000"
    >
      <g
        stroke="none"
        fill="#70cc00"
        stroke-width="0"
        transform="scale(1,-1)"
        fill-opacity="1"
      >
        <g data-mml-node="math">
          <g data-mml-node="mtable">
            <g data-mml-node="mtr">
              <g data-mml-node="mtd">
                <g data-mml-node="mi">
                  <path
                    data-c="1D44E"
                    d="M33 157Q33 258 109 349T280 441Q331 441 370 392Q386 422 416 422Q429 422 439 414T449 394Q449 381 412 234T374 68Q374 43 381 35T402 26Q411 27 422 35Q443 55 463 131Q469 151 473 152Q475 153 483 153H487Q506 153 506 144Q506 138 501 117T481 63T449 13Q436 0 417 -8Q409 -10 393 -10Q359 -10 336 5T306 36L300 51Q299 52 296 50Q294 48 292 46Q233 -10 172 -10Q117 -10 75 30T33 157ZM351 328Q351 334 346 350T323 385T277 405Q242 405 210 374T160 293Q131 214 119 129Q119 126 119 118T118 106Q118 61 136 44T179 26Q217 26 254 59T298 110Q300 114 325 217T351 328Z"
                  ></path>
                </g>
                <g data-mml-node="mo" transform="translate(751.2,0)">
                  <path
                    data-c="2227"
                    d="M318 591Q325 598 333 598Q344 598 348 591Q349 590 414 445T545 151T611 -4Q609 -22 591 -22Q588 -22 586 -21T581 -20T577 -17T575 -13T572 -9T570 -4L333 528L96 -4Q87 -20 80 -21Q78 -22 75 -22Q57 -22 55 -4Q55 2 120 150T251 444T318 591Z"
                  ></path>
                </g>
                <g data-mml-node="mi" transform="translate(1640.4,0)">
                  <path
                    data-c="1D44F"
                    d="M73 647Q73 657 77 670T89 683Q90 683 161 688T234 694Q246 694 246 685T212 542Q204 508 195 472T180 418L176 399Q176 396 182 402Q231 442 283 442Q345 442 383 396T422 280Q422 169 343 79T173 -11Q123 -11 82 27T40 150V159Q40 180 48 217T97 414Q147 611 147 623T109 637Q104 637 101 637H96Q86 637 83 637T76 640T73 647ZM336 325V331Q336 405 275 405Q258 405 240 397T207 376T181 352T163 330L157 322L136 236Q114 150 114 114Q114 66 138 42Q154 26 178 26Q211 26 245 58Q270 81 285 114T318 219Q336 291 336 325Z"
                  ></path>
                </g>
              </g>
            </g>
          </g>
        </g>
      </g>
    </svg>
  </g>
  <g startArrowheadSize="0.5" endArrowheadSize="1">
    <marker
      id="`v`.marker-startArrowId"
      markerUnits="strokeWidth"
      markerWidth="4.98"
      markerHeight="4.06"
      viewBox="0 0 9.95 8.12"
      refX="2.36"
      refY="4.06"
      orient="auto-start-reverse"
    >
      <path
        d="M9.95 4.06 0 8.12 2.36 4.06 0 0 9.95 4.06z"
        fill="#cc008a"
        fill-opacity="1"
      ></path>
    </marker>
    <filter id="`v`.marker-shadow" x="0" y="0" width="200%" height="200%">
      <feOffset result="offOut" in="SourceAlpha" dx="5" dy="5"></feOffset>
      <feGaussianBlur
        result="blurOut"
        in="offOut"
        stdDeviation="4"
      ></feGaussianBlur>
      <feBlend in="SourceGraphic" in2="blurOut" mode="normal"></feBlend>
      <feComponentTransfer>
        <feFuncA type="linear" slope="0.5"></feFuncA>
      </feComponentTransfer>
      <feMerge>
        <feMergeNode></feMergeNode>
        <feMergeNode in="SourceGraphic"></feMergeNode>
      </feMerge>
    </filter>
    <path
      stroke="#cc008a"
      fill="none"
      stroke-width="1.125"
      stroke-opacity="1"
      d="M 100.61126926992958 149.43309643539385 A 21.752886641243943 21.752886641243943 0 0 0 72.83389674425888 115.94922835973698"
      marker-start="url(#`v`.marker-startArrowId)"
    ></path>
    <title>`v`.marker</title>
  </g>
  <g
    transform="rotate(0, 76.69771100709421, 127.6111623975654)translate(76.69771100709421, 127.6111623975654)"
    font-size="4.5px"
    string="b \wedge c"
    font-family="Linux Libertine"
  >
    <title>`v`.labelText</title>
    <svg
      style="font-size: 4.5px"
      xmlns="http://www.w3.org/2000/svg"
      width="20.049744"
      height="10.16"
      role="img"
      focusable="false"
      viewBox="0 -750 1973.4 1000"
    >
      <g
        stroke="none"
        fill="#cc008a"
        stroke-width="0"
        transform="scale(1,-1)"
        fill-opacity="1"
      >
        <g data-mml-node="math">
          <g data-mml-node="mtable">
            <g data-mml-node="mtr">
              <g data-mml-node="mtd">
                <g data-mml-node="mi">
                  <path
                    data-c="1D44F"
                    d="M73 647Q73 657 77 670T89 683Q90 683 161 688T234 694Q246 694 246 685T212 542Q204 508 195 472T180 418L176 399Q176 396 182 402Q231 442 283 442Q345 442 383 396T422 280Q422 169 343 79T173 -11Q123 -11 82 27T40 150V159Q40 180 48 217T97 414Q147 611 147 623T109 637Q104 637 101 637H96Q86 637 83 637T76 640T73 647ZM336 325V331Q336 405 275 405Q258 405 240 397T207 376T181 352T163 330L157 322L136 236Q114 150 114 114Q114 66 138 42Q154 26 178 26Q211 26 245 58Q270 81 285 114T318 219Q336 291 336 325Z"
                  ></path>
                </g>
                <g data-mml-node="mo" transform="translate(651.2,0)">
                  <path
                    data-c="2227"
                    d="M318 591Q325 598 333 598Q344 598 348 591Q349 590 414 445T545 151T611 -4Q609 -22 591 -22Q588 -22 586 -21T581 -20T577 -17T575 -13T572 -9T570 -4L333 528L96 -4Q87 -20 80 -21Q78 -22 75 -22Q57 -22 55 -4Q55 2 120 150T251 444T318 591Z"
                  ></path>
                </g>
                <g data-mml-node="mi" transform="translate(1540.4,0)">
                  <path
                    data-c="1D450"
                    d="M34 159Q34 268 120 355T306 442Q362 442 394 418T427 355Q427 326 408 306T360 285Q341 285 330 295T319 325T330 359T352 380T366 386H367Q367 388 361 392T340 400T306 404Q276 404 249 390Q228 381 206 359Q162 315 142 235T121 119Q121 73 147 50Q169 26 205 26H209Q321 26 394 111Q403 121 406 121Q410 121 419 112T429 98T420 83T391 55T346 25T282 0T202 -11Q127 -11 81 37T34 159Z"
                  ></path>
                </g>
              </g>
            </g>
          </g>
        </g>
      </g>
    </svg>
  </g>
</svg>
