<svg
  version="1.2"
  xmlns="http://www.w3.org/2000/svg"
  viewBox="0 0 800 700"
  penrose="0"
>
  <penrose>
    <croppedViewBox>
      129.57268990644457 39.81747287678405 513.1553439823775 507.2028577189952
    </croppedViewBox>
  </penrose>
  <g>
    <path
      d="M 460.7627579961599 392.18249583435784 L 429.3446906394368 472.39504083722085"
      stroke-opacity="1"
      stroke-width="6"
      stroke="#000000"
      stroke-linecap="butt"
    />
    <title>`C1O1`.icon</title>
  </g>
  <circle
    fill="#ffffff"
    fill-opacity="1"
    cx="429.3446906394368"
    cy="472.39504083722085"
    stroke="none"
    r="15"
  >
    <title>`O1`.icon</title>
  </circle>
  <g
    transform="rotate(0, 429.3446906394368, 472.39504083722085)translate(423.2406906394368, 466.58704083722085)"
  >
    <title>`O1`.symbol</title>
    <svg
      style="font-size: 16px"
      xmlns="http://www.w3.org/2000/svg"
      width="12.208"
      height="11.616"
      role="img"
      focusable="false"
      viewBox="0 -704 763 726"
    >
      <g
        stroke="none"
        fill="#000000"
        stroke-width="0"
        transform="scale(1,-1)"
        fill-opacity="1"
      >
        <g data-mml-node="math">
          <g data-mml-node="mi">
            <path
              data-c="1D442"
              d="M740 435Q740 320 676 213T511 42T304 -22Q207 -22 138 35T51 201Q50 209 50 244Q50 346 98 438T227 601Q351 704 476 704Q514 704 524 703Q621 689 680 617T740 435ZM637 476Q637 565 591 615T476 665Q396 665 322 605Q242 542 200 428T157 216Q157 126 200 73T314 19Q404 19 485 98T608 313Q637 408 637 476Z"
            />
          </g>
        </g>
      </g>
    </svg>
  </g>
  <g>
    <path
      d="M 460.7627579961599 392.18249583435784 L 541.9922083507396 446.92009797819753"
      stroke-opacity="1"
      stroke-width="2"
      stroke="#000000"
      stroke-linecap="butt"
    />
    <title>`C1N1`.icon</title>
  </g>
  <g>
    <path
      d="M 541.9922083507396 446.92009797819753 L 558.8709093649188 532.0203305957792"
      stroke-opacity="1"
      stroke-width="2"
      stroke="#000000"
      stroke-linecap="butt"
    />
    <title>`N1H2`.icon</title>
  </g>
  <g>
    <path
      d="M 541.9922083507396 446.92009797819753 L 627.7280338888221 439.5432381021061"
      stroke-opacity="1"
      stroke-width="2"
      stroke="#000000"
      stroke-linecap="butt"
    />
    <title>`N1H1`.icon</title>
  </g>
  <circle
    fill="#ffffff"
    fill-opacity="1"
    cx="541.9922083507396"
    cy="446.92009797819753"
    stroke="none"
    r="15"
  >
    <title>`N1`.icon</title>
  </circle>
  <g
    transform="rotate(0, 541.9922083507396, 446.92009797819753)translate(534.8882083507395, 441.45609797819753)"
  >
    <title>`N1`.symbol</title>
    <svg
      style="font-size: 16px"
      xmlns="http://www.w3.org/2000/svg"
      width="14.208"
      height="10.928"
      role="img"
      focusable="false"
      viewBox="0 -683 888 683"
    >
      <g
        stroke="none"
        fill="#000000"
        stroke-width="0"
        transform="scale(1,-1)"
        fill-opacity="1"
      >
        <g data-mml-node="math">
          <g data-mml-node="mi">
            <path
              data-c="1D441"
              d="M234 637Q231 637 226 637Q201 637 196 638T191 649Q191 676 202 682Q204 683 299 683Q376 683 387 683T401 677Q612 181 616 168L670 381Q723 592 723 606Q723 633 659 637Q635 637 635 648Q635 650 637 660Q641 676 643 679T653 683Q656 683 684 682T767 680Q817 680 843 681T873 682Q888 682 888 672Q888 650 880 642Q878 637 858 637Q787 633 769 597L620 7Q618 0 599 0Q585 0 582 2Q579 5 453 305L326 604L261 344Q196 88 196 79Q201 46 268 46H278Q284 41 284 38T282 19Q278 6 272 0H259Q228 2 151 2Q123 2 100 2T63 2T46 1Q31 1 31 10Q31 14 34 26T39 40Q41 46 62 46Q130 49 150 85Q154 91 221 362L289 634Q287 635 234 637Z"
            />
          </g>
        </g>
      </g>
    </svg>
  </g>
  <g>
    <path
      d="M 323.89067472108513 342.6826795586272 L 305.2969997940248 428.99774030216315"
      stroke-opacity="1"
      stroke-width="6"
      stroke="#000000"
      stroke-linecap="butt"
    />
    <title>`C5O2`.icon</title>
  </g>
  <circle
    fill="#ffffff"
    fill-opacity="1"
    cx="305.2969997940248"
    cy="428.99774030216315"
    stroke="none"
    r="15"
  >
    <title>`O2`.icon</title>
  </circle>
  <g
    transform="rotate(0, 305.2969997940248, 428.99774030216315)translate(299.19299979402484, 423.18974030216316)"
  >
    <title>`O2`.symbol</title>
    <svg
      style="font-size: 16px"
      xmlns="http://www.w3.org/2000/svg"
      width="12.208"
      height="11.616"
      role="img"
      focusable="false"
      viewBox="0 -704 763 726"
    >
      <g
        stroke="none"
        fill="#000000"
        stroke-width="0"
        transform="scale(1,-1)"
        fill-opacity="1"
      >
        <g data-mml-node="math">
          <g data-mml-node="mi">
            <path
              data-c="1D442"
              d="M740 435Q740 320 676 213T511 42T304 -22Q207 -22 138 35T51 201Q50 209 50 244Q50 346 98 438T227 601Q351 704 476 704Q514 704 524 703Q621 689 680 617T740 435ZM637 476Q637 565 591 615T476 665Q396 665 322 605Q242 542 200 428T157 216Q157 126 200 73T314 19Q404 19 485 98T608 313Q637 408 637 476Z"
            />
          </g>
        </g>
      </g>
    </svg>
  </g>
  <g>
    <path
      d="M 395.7785529725291 126.8929921501585 L 444.60447194256903 54.81747287678405"
      stroke-opacity="1"
      stroke-width="2"
      stroke="#000000"
      stroke-linecap="butt"
    />
    <title>`N2H7`.icon</title>
  </g>
  <g>
    <path
      d="M 395.7785529725291 126.8929921501585 L 332.37215440356 66.65799901171567"
      stroke-opacity="1"
      stroke-width="2"
      stroke="#000000"
      stroke-linecap="butt"
    />
    <title>`N2H8`.icon</title>
  </g>
  <g>
    <path
      d="M 400.01601660363394 230.81977736686054 L 395.7785529725291 126.8929921501585"
      stroke-opacity="1"
      stroke-width="2"
      stroke="#000000"
      stroke-linecap="butt"
    />
    <title>`C4N2`.icon</title>
  </g>
  <circle
    fill="#ffffff"
    fill-opacity="1"
    cx="395.7785529725291"
    cy="126.8929921501585"
    stroke="none"
    r="15"
  >
    <title>`N2`.icon</title>
  </circle>
  <g
    transform="rotate(0, 395.7785529725291, 126.8929921501585)translate(388.6745529725291, 121.4289921501585)"
  >
    <title>`N2`.symbol</title>
    <svg
      style="font-size: 16px"
      xmlns="http://www.w3.org/2000/svg"
      width="14.208"
      height="10.928"
      role="img"
      focusable="false"
      viewBox="0 -683 888 683"
    >
      <g
        stroke="none"
        fill="#000000"
        stroke-width="0"
        transform="scale(1,-1)"
        fill-opacity="1"
      >
        <g data-mml-node="math">
          <g data-mml-node="mi">
            <path
              data-c="1D441"
              d="M234 637Q231 637 226 637Q201 637 196 638T191 649Q191 676 202 682Q204 683 299 683Q376 683 387 683T401 677Q612 181 616 168L670 381Q723 592 723 606Q723 633 659 637Q635 637 635 648Q635 650 637 660Q641 676 643 679T653 683Q656 683 684 682T767 680Q817 680 843 681T873 682Q888 682 888 672Q888 650 880 642Q878 637 858 637Q787 633 769 597L620 7Q618 0 599 0Q585 0 582 2Q579 5 453 305L326 604L261 344Q196 88 196 79Q201 46 268 46H278Q284 41 284 38T282 19Q278 6 272 0H259Q228 2 151 2Q123 2 100 2T63 2T46 1Q31 1 31 10Q31 14 34 26T39 40Q41 46 62 46Q130 49 150 85Q154 91 221 362L289 634Q287 635 234 637Z"
            />
          </g>
        </g>
      </g>
    </svg>
  </g>
  <g>
    <path
      d="M 323.89067472108513 342.6826795586272 L 227.67251392884148 357.7750786905427"
      stroke-opacity="1"
      stroke-width="2"
      stroke="#000000"
      stroke-linecap="butt"
    />
    <title>`C5O3`.icon</title>
  </g>
  <g>
    <path
      d="M 227.67251392884148 357.7750786905427 L 144.57268990644457 373.9664386130031"
      stroke-opacity="1"
      stroke-width="2"
      stroke="#000000"
      stroke-linecap="butt"
    />
    <title>`O3H9`.icon</title>
  </g>
  <circle
    fill="#ffffff"
    fill-opacity="1"
    cx="227.67251392884148"
    cy="357.7750786905427"
    stroke="none"
    r="15"
  >
    <title>`O3`.icon</title>
  </circle>
  <g
    transform="rotate(0, 227.67251392884148, 357.7750786905427)translate(221.56851392884147, 351.96707869054273)"
  >
    <title>`O3`.symbol</title>
    <svg
      style="font-size: 16px"
      xmlns="http://www.w3.org/2000/svg"
      width="12.208"
      height="11.616"
      role="img"
      focusable="false"
      viewBox="0 -704 763 726"
    >
      <g
        stroke="none"
        fill="#000000"
        stroke-width="0"
        transform="scale(1,-1)"
        fill-opacity="1"
      >
        <g data-mml-node="math">
          <g data-mml-node="mi">
            <path
              data-c="1D442"
              d="M740 435Q740 320 676 213T511 42T304 -22Q207 -22 138 35T51 201Q50 209 50 244Q50 346 98 438T227 601Q351 704 476 704Q514 704 524 703Q621 689 680 617T740 435ZM637 476Q637 565 591 615T476 665Q396 665 322 605Q242 542 200 428T157 216Q157 126 200 73T314 19Q404 19 485 98T608 313Q637 408 637 476Z"
            />
          </g>
        </g>
      </g>
    </svg>
  </g>
  <circle
    fill="#ffffff"
    fill-opacity="1"
    cx="627.7280338888221"
    cy="439.5432381021061"
    stroke="none"
    r="15"
  >
    <title>`H1`.icon</title>
  </circle>
  <g
    transform="rotate(0, 627.7280338888221, 439.5432381021061)translate(620.624033888822, 434.0792381021061)"
  >
    <title>`H1`.symbol</title>
    <svg
      style="font-size: 16px"
      xmlns="http://www.w3.org/2000/svg"
      width="14.208"
      height="10.928"
      role="img"
      focusable="false"
      viewBox="0 -683 888 683"
    >
      <g
        stroke="none"
        fill="#000000"
        stroke-width="0"
        transform="scale(1,-1)"
        fill-opacity="1"
      >
        <g data-mml-node="math">
          <g data-mml-node="mi">
            <path
              data-c="1D43B"
              d="M228 637Q194 637 192 641Q191 643 191 649Q191 673 202 682Q204 683 219 683Q260 681 355 681Q389 681 418 681T463 682T483 682Q499 682 499 672Q499 670 497 658Q492 641 487 638H485Q483 638 480 638T473 638T464 637T455 637Q416 636 405 634T387 623Q384 619 355 500Q348 474 340 442T328 395L324 380Q324 378 469 378H614L615 381Q615 384 646 504Q674 619 674 627T617 637Q594 637 587 639T580 648Q580 650 582 660Q586 677 588 679T604 682Q609 682 646 681T740 680Q802 680 835 681T871 682Q888 682 888 672Q888 645 876 638H874Q872 638 869 638T862 638T853 637T844 637Q805 636 794 634T776 623Q773 618 704 340T634 58Q634 51 638 51Q646 48 692 46H723Q729 38 729 37T726 19Q722 6 716 0H701Q664 2 567 2Q533 2 504 2T458 2T437 1Q420 1 420 10Q420 15 423 24Q428 43 433 45Q437 46 448 46H454Q481 46 514 49Q520 50 522 50T528 55T534 64T540 82T547 110T558 153Q565 181 569 198Q602 330 602 331T457 332H312L279 197Q245 63 245 58Q245 51 253 49T303 46H334Q340 38 340 37T337 19Q333 6 327 0H312Q275 2 178 2Q144 2 115 2T69 2T48 1Q31 1 31 10Q31 12 34 24Q39 43 44 45Q48 46 59 46H65Q92 46 125 49Q139 52 144 61Q147 65 216 339T285 628Q285 635 228 637Z"
            />
          </g>
        </g>
      </g>
    </svg>
  </g>
  <circle
    fill="#ffffff"
    fill-opacity="1"
    cx="558.8709093649188"
    cy="532.0203305957792"
    stroke="none"
    r="15"
  >
    <title>`H2`.icon</title>
  </circle>
  <g
    transform="rotate(0, 558.8709093649188, 532.0203305957792)translate(551.7669093649188, 526.5563305957792)"
  >
    <title>`H2`.symbol</title>
    <svg
      style="font-size: 16px"
      xmlns="http://www.w3.org/2000/svg"
      width="14.208"
      height="10.928"
      role="img"
      focusable="false"
      viewBox="0 -683 888 683"
    >
      <g
        stroke="none"
        fill="#000000"
        stroke-width="0"
        transform="scale(1,-1)"
        fill-opacity="1"
      >
        <g data-mml-node="math">
          <g data-mml-node="mi">
            <path
              data-c="1D43B"
              d="M228 637Q194 637 192 641Q191 643 191 649Q191 673 202 682Q204 683 219 683Q260 681 355 681Q389 681 418 681T463 682T483 682Q499 682 499 672Q499 670 497 658Q492 641 487 638H485Q483 638 480 638T473 638T464 637T455 637Q416 636 405 634T387 623Q384 619 355 500Q348 474 340 442T328 395L324 380Q324 378 469 378H614L615 381Q615 384 646 504Q674 619 674 627T617 637Q594 637 587 639T580 648Q580 650 582 660Q586 677 588 679T604 682Q609 682 646 681T740 680Q802 680 835 681T871 682Q888 682 888 672Q888 645 876 638H874Q872 638 869 638T862 638T853 637T844 637Q805 636 794 634T776 623Q773 618 704 340T634 58Q634 51 638 51Q646 48 692 46H723Q729 38 729 37T726 19Q722 6 716 0H701Q664 2 567 2Q533 2 504 2T458 2T437 1Q420 1 420 10Q420 15 423 24Q428 43 433 45Q437 46 448 46H454Q481 46 514 49Q520 50 522 50T528 55T534 64T540 82T547 110T558 153Q565 181 569 198Q602 330 602 331T457 332H312L279 197Q245 63 245 58Q245 51 253 49T303 46H334Q340 38 340 37T337 19Q333 6 327 0H312Q275 2 178 2Q144 2 115 2T69 2T48 1Q31 1 31 10Q31 12 34 24Q39 43 44 45Q48 46 59 46H65Q92 46 125 49Q139 52 144 61Q147 65 216 339T285 628Q285 635 228 637Z"
            />
          </g>
        </g>
      </g>
    </svg>
  </g>
  <g>
    <path
      d="M 401.27645396067294 301.4428204302123 L 304.08085509384523 277.66500779358955"
      stroke-opacity="1"
      stroke-width="2"
      stroke="#000000"
      stroke-linecap="butt"
    />
    <title>`C2H3`.icon</title>
  </g>
  <circle
    fill="#ffffff"
    fill-opacity="1"
    cx="304.08085509384523"
    cy="277.66500779358955"
    stroke="none"
    r="15"
  >
    <title>`H3`.icon</title>
  </circle>
  <g
    transform="rotate(0, 304.08085509384523, 277.66500779358955)translate(296.97685509384524, 272.20100779358955)"
  >
    <title>`H3`.symbol</title>
    <svg
      style="font-size: 16px"
      xmlns="http://www.w3.org/2000/svg"
      width="14.208"
      height="10.928"
      role="img"
      focusable="false"
      viewBox="0 -683 888 683"
    >
      <g
        stroke="none"
        fill="#000000"
        stroke-width="0"
        transform="scale(1,-1)"
        fill-opacity="1"
      >
        <g data-mml-node="math">
          <g data-mml-node="mi">
            <path
              data-c="1D43B"
              d="M228 637Q194 637 192 641Q191 643 191 649Q191 673 202 682Q204 683 219 683Q260 681 355 681Q389 681 418 681T463 682T483 682Q499 682 499 672Q499 670 497 658Q492 641 487 638H485Q483 638 480 638T473 638T464 637T455 637Q416 636 405 634T387 623Q384 619 355 500Q348 474 340 442T328 395L324 380Q324 378 469 378H614L615 381Q615 384 646 504Q674 619 674 627T617 637Q594 637 587 639T580 648Q580 650 582 660Q586 677 588 679T604 682Q609 682 646 681T740 680Q802 680 835 681T871 682Q888 682 888 672Q888 645 876 638H874Q872 638 869 638T862 638T853 637T844 637Q805 636 794 634T776 623Q773 618 704 340T634 58Q634 51 638 51Q646 48 692 46H723Q729 38 729 37T726 19Q722 6 716 0H701Q664 2 567 2Q533 2 504 2T458 2T437 1Q420 1 420 10Q420 15 423 24Q428 43 433 45Q437 46 448 46H454Q481 46 514 49Q520 50 522 50T528 55T534 64T540 82T547 110T558 153Q565 181 569 198Q602 330 602 331T457 332H312L279 197Q245 63 245 58Q245 51 253 49T303 46H334Q340 38 340 37T337 19Q333 6 327 0H312Q275 2 178 2Q144 2 115 2T69 2T48 1Q31 1 31 10Q31 12 34 24Q39 43 44 45Q48 46 59 46H65Q92 46 125 49Q139 52 144 61Q147 65 216 339T285 628Q285 635 228 637Z"
            />
          </g>
        </g>
      </g>
    </svg>
  </g>
  <g>
    <path
      d="M 401.27645396067294 301.4428204302123 L 333.24922731354866 214.7096040715031"
      stroke-opacity="1"
      stroke-width="2"
      stroke="#000000"
      stroke-linecap="butt"
    />
    <title>`C2H4`.icon</title>
  </g>
  <circle
    fill="#ffffff"
    fill-opacity="1"
    cx="333.24922731354866"
    cy="214.7096040715031"
    stroke="none"
    r="15"
  >
    <title>`H4`.icon</title>
  </circle>
  <g
    transform="rotate(0, 333.24922731354866, 214.7096040715031)translate(326.1452273135487, 209.2456040715031)"
  >
    <title>`H4`.symbol</title>
    <svg
      style="font-size: 16px"
      xmlns="http://www.w3.org/2000/svg"
      width="14.208"
      height="10.928"
      role="img"
      focusable="false"
      viewBox="0 -683 888 683"
    >
      <g
        stroke="none"
        fill="#000000"
        stroke-width="0"
        transform="scale(1,-1)"
        fill-opacity="1"
      >
        <g data-mml-node="math">
          <g data-mml-node="mi">
            <path
              data-c="1D43B"
              d="M228 637Q194 637 192 641Q191 643 191 649Q191 673 202 682Q204 683 219 683Q260 681 355 681Q389 681 418 681T463 682T483 682Q499 682 499 672Q499 670 497 658Q492 641 487 638H485Q483 638 480 638T473 638T464 637T455 637Q416 636 405 634T387 623Q384 619 355 500Q348 474 340 442T328 395L324 380Q324 378 469 378H614L615 381Q615 384 646 504Q674 619 674 627T617 637Q594 637 587 639T580 648Q580 650 582 660Q586 677 588 679T604 682Q609 682 646 681T740 680Q802 680 835 681T871 682Q888 682 888 672Q888 645 876 638H874Q872 638 869 638T862 638T853 637T844 637Q805 636 794 634T776 623Q773 618 704 340T634 58Q634 51 638 51Q646 48 692 46H723Q729 38 729 37T726 19Q722 6 716 0H701Q664 2 567 2Q533 2 504 2T458 2T437 1Q420 1 420 10Q420 15 423 24Q428 43 433 45Q437 46 448 46H454Q481 46 514 49Q520 50 522 50T528 55T534 64T540 82T547 110T558 153Q565 181 569 198Q602 330 602 331T457 332H312L279 197Q245 63 245 58Q245 51 253 49T303 46H334Q340 38 340 37T337 19Q333 6 327 0H312Q275 2 178 2Q144 2 115 2T69 2T48 1Q31 1 31 10Q31 12 34 24Q39 43 44 45Q48 46 59 46H65Q92 46 125 49Q139 52 144 61Q147 65 216 339T285 628Q285 635 228 637Z"
            />
          </g>
        </g>
      </g>
    </svg>
  </g>
  <g>
    <path
      d="M 483.0912030033023 250.76961404900297 L 566.7989299863332 276.9354457509638"
      stroke-opacity="1"
      stroke-width="2"
      stroke="#000000"
      stroke-linecap="butt"
    />
    <title>`C3H5`.icon</title>
  </g>
  <circle
    fill="#ffffff"
    fill-opacity="1"
    cx="566.7989299863332"
    cy="276.9354457509638"
    stroke="none"
    r="15"
  >
    <title>`H5`.icon</title>
  </circle>
  <g
    transform="rotate(0, 566.7989299863332, 276.9354457509638)translate(559.6949299863331, 271.4714457509638)"
  >
    <title>`H5`.symbol</title>
    <svg
      style="font-size: 16px"
      xmlns="http://www.w3.org/2000/svg"
      width="14.208"
      height="10.928"
      role="img"
      focusable="false"
      viewBox="0 -683 888 683"
    >
      <g
        stroke="none"
        fill="#000000"
        stroke-width="0"
        transform="scale(1,-1)"
        fill-opacity="1"
      >
        <g data-mml-node="math">
          <g data-mml-node="mi">
            <path
              data-c="1D43B"
              d="M228 637Q194 637 192 641Q191 643 191 649Q191 673 202 682Q204 683 219 683Q260 681 355 681Q389 681 418 681T463 682T483 682Q499 682 499 672Q499 670 497 658Q492 641 487 638H485Q483 638 480 638T473 638T464 637T455 637Q416 636 405 634T387 623Q384 619 355 500Q348 474 340 442T328 395L324 380Q324 378 469 378H614L615 381Q615 384 646 504Q674 619 674 627T617 637Q594 637 587 639T580 648Q580 650 582 660Q586 677 588 679T604 682Q609 682 646 681T740 680Q802 680 835 681T871 682Q888 682 888 672Q888 645 876 638H874Q872 638 869 638T862 638T853 637T844 637Q805 636 794 634T776 623Q773 618 704 340T634 58Q634 51 638 51Q646 48 692 46H723Q729 38 729 37T726 19Q722 6 716 0H701Q664 2 567 2Q533 2 504 2T458 2T437 1Q420 1 420 10Q420 15 423 24Q428 43 433 45Q437 46 448 46H454Q481 46 514 49Q520 50 522 50T528 55T534 64T540 82T547 110T558 153Q565 181 569 198Q602 330 602 331T457 332H312L279 197Q245 63 245 58Q245 51 253 49T303 46H334Q340 38 340 37T337 19Q333 6 327 0H312Q275 2 178 2Q144 2 115 2T69 2T48 1Q31 1 31 10Q31 12 34 24Q39 43 44 45Q48 46 59 46H65Q92 46 125 49Q139 52 144 61Q147 65 216 339T285 628Q285 635 228 637Z"
            />
          </g>
        </g>
      </g>
    </svg>
  </g>
  <g>
    <path
      d="M 460.7627579961599 392.18249583435784 L 401.27645396067294 301.4428204302123"
      stroke-opacity="1"
      stroke-width="2"
      stroke="#000000"
      stroke-linecap="butt"
    />
    <title>`C1C2`.icon</title>
  </g>
  <circle
    fill="#ffffff"
    fill-opacity="1"
    cx="460.7627579961599"
    cy="392.18249583435784"
    stroke="none"
    r="15"
  >
    <title>`C1`.icon</title>
  </circle>
  <g
    transform="rotate(0, 460.7627579961599, 392.18249583435784)translate(454.6827579961599, 386.36649583435786)"
  >
    <title>`C1`.symbol</title>
    <svg
      style="font-size: 16px"
      xmlns="http://www.w3.org/2000/svg"
      width="12.16"
      height="11.632"
      role="img"
      focusable="false"
      viewBox="0 -705 760 727"
    >
      <g
        stroke="none"
        fill="#000000"
        stroke-width="0"
        transform="scale(1,-1)"
        fill-opacity="1"
      >
        <g data-mml-node="math">
          <g data-mml-node="mi">
            <path
              data-c="1D436"
              d="M50 252Q50 367 117 473T286 641T490 704Q580 704 633 653Q642 643 648 636T656 626L657 623Q660 623 684 649Q691 655 699 663T715 679T725 690L740 705H746Q760 705 760 698Q760 694 728 561Q692 422 692 421Q690 416 687 415T669 413H653Q647 419 647 422Q647 423 648 429T650 449T651 481Q651 552 619 605T510 659Q484 659 454 652T382 628T299 572T226 479Q194 422 175 346T156 222Q156 108 232 58Q280 24 350 24Q441 24 512 92T606 240Q610 253 612 255T628 257Q648 257 648 248Q648 243 647 239Q618 132 523 55T319 -22Q206 -22 128 53T50 252Z"
            />
          </g>
        </g>
      </g>
    </svg>
  </g>
  <g>
    <path
      d="M 483.0912030033023 250.76961404900297 L 537.8546245686347 180.724914649243"
      stroke-opacity="1"
      stroke-width="2"
      stroke="#000000"
      stroke-linecap="butt"
    />
    <title>`C3H6`.icon</title>
  </g>
  <circle
    fill="#ffffff"
    fill-opacity="1"
    cx="537.8546245686347"
    cy="180.724914649243"
    stroke="none"
    r="15"
  >
    <title>`H6`.icon</title>
  </circle>
  <g
    transform="rotate(0, 537.8546245686347, 180.724914649243)translate(530.7506245686346, 175.260914649243)"
  >
    <title>`H6`.symbol</title>
    <svg
      style="font-size: 16px"
      xmlns="http://www.w3.org/2000/svg"
      width="14.208"
      height="10.928"
      role="img"
      focusable="false"
      viewBox="0 -683 888 683"
    >
      <g
        stroke="none"
        fill="#000000"
        stroke-width="0"
        transform="scale(1,-1)"
        fill-opacity="1"
      >
        <g data-mml-node="math">
          <g data-mml-node="mi">
            <path
              data-c="1D43B"
              d="M228 637Q194 637 192 641Q191 643 191 649Q191 673 202 682Q204 683 219 683Q260 681 355 681Q389 681 418 681T463 682T483 682Q499 682 499 672Q499 670 497 658Q492 641 487 638H485Q483 638 480 638T473 638T464 637T455 637Q416 636 405 634T387 623Q384 619 355 500Q348 474 340 442T328 395L324 380Q324 378 469 378H614L615 381Q615 384 646 504Q674 619 674 627T617 637Q594 637 587 639T580 648Q580 650 582 660Q586 677 588 679T604 682Q609 682 646 681T740 680Q802 680 835 681T871 682Q888 682 888 672Q888 645 876 638H874Q872 638 869 638T862 638T853 637T844 637Q805 636 794 634T776 623Q773 618 704 340T634 58Q634 51 638 51Q646 48 692 46H723Q729 38 729 37T726 19Q722 6 716 0H701Q664 2 567 2Q533 2 504 2T458 2T437 1Q420 1 420 10Q420 15 423 24Q428 43 433 45Q437 46 448 46H454Q481 46 514 49Q520 50 522 50T528 55T534 64T540 82T547 110T558 153Q565 181 569 198Q602 330 602 331T457 332H312L279 197Q245 63 245 58Q245 51 253 49T303 46H334Q340 38 340 37T337 19Q333 6 327 0H312Q275 2 178 2Q144 2 115 2T69 2T48 1Q31 1 31 10Q31 12 34 24Q39 43 44 45Q48 46 59 46H65Q92 46 125 49Q139 52 144 61Q147 65 216 339T285 628Q285 635 228 637Z"
            />
          </g>
        </g>
      </g>
    </svg>
  </g>
  <g>
    <path
      d="M 401.27645396067294 301.4428204302123 L 483.0912030033023 250.76961404900297"
      stroke-opacity="1"
      stroke-width="2"
      stroke="#000000"
      stroke-linecap="butt"
    />
    <title>`C2C3`.icon</title>
  </g>
  <circle
    fill="#ffffff"
    fill-opacity="1"
    cx="401.27645396067294"
    cy="301.4428204302123"
    stroke="none"
    r="15"
  >
    <title>`C2`.icon</title>
  </circle>
  <g
    transform="rotate(0, 401.27645396067294, 301.4428204302123)translate(395.19645396067295, 295.6268204302123)"
  >
    <title>`C2`.symbol</title>
    <svg
      style="font-size: 16px"
      xmlns="http://www.w3.org/2000/svg"
      width="12.16"
      height="11.632"
      role="img"
      focusable="false"
      viewBox="0 -705 760 727"
    >
      <g
        stroke="none"
        fill="#000000"
        stroke-width="0"
        transform="scale(1,-1)"
        fill-opacity="1"
      >
        <g data-mml-node="math">
          <g data-mml-node="mi">
            <path
              data-c="1D436"
              d="M50 252Q50 367 117 473T286 641T490 704Q580 704 633 653Q642 643 648 636T656 626L657 623Q660 623 684 649Q691 655 699 663T715 679T725 690L740 705H746Q760 705 760 698Q760 694 728 561Q692 422 692 421Q690 416 687 415T669 413H653Q647 419 647 422Q647 423 648 429T650 449T651 481Q651 552 619 605T510 659Q484 659 454 652T382 628T299 572T226 479Q194 422 175 346T156 222Q156 108 232 58Q280 24 350 24Q441 24 512 92T606 240Q610 253 612 255T628 257Q648 257 648 248Q648 243 647 239Q618 132 523 55T319 -22Q206 -22 128 53T50 252Z"
            />
          </g>
        </g>
      </g>
    </svg>
  </g>
  <circle
    fill="#ffffff"
    fill-opacity="1"
    cx="444.60447194256903"
    cy="54.81747287678405"
    stroke="none"
    r="15"
  >
    <title>`H7`.icon</title>
  </circle>
  <g
    transform="rotate(0, 444.60447194256903, 54.81747287678405)translate(437.50047194256905, 49.35347287678405)"
  >
    <title>`H7`.symbol</title>
    <svg
      style="font-size: 16px"
      xmlns="http://www.w3.org/2000/svg"
      width="14.208"
      height="10.928"
      role="img"
      focusable="false"
      viewBox="0 -683 888 683"
    >
      <g
        stroke="none"
        fill="#000000"
        stroke-width="0"
        transform="scale(1,-1)"
        fill-opacity="1"
      >
        <g data-mml-node="math">
          <g data-mml-node="mi">
            <path
              data-c="1D43B"
              d="M228 637Q194 637 192 641Q191 643 191 649Q191 673 202 682Q204 683 219 683Q260 681 355 681Q389 681 418 681T463 682T483 682Q499 682 499 672Q499 670 497 658Q492 641 487 638H485Q483 638 480 638T473 638T464 637T455 637Q416 636 405 634T387 623Q384 619 355 500Q348 474 340 442T328 395L324 380Q324 378 469 378H614L615 381Q615 384 646 504Q674 619 674 627T617 637Q594 637 587 639T580 648Q580 650 582 660Q586 677 588 679T604 682Q609 682 646 681T740 680Q802 680 835 681T871 682Q888 682 888 672Q888 645 876 638H874Q872 638 869 638T862 638T853 637T844 637Q805 636 794 634T776 623Q773 618 704 340T634 58Q634 51 638 51Q646 48 692 46H723Q729 38 729 37T726 19Q722 6 716 0H701Q664 2 567 2Q533 2 504 2T458 2T437 1Q420 1 420 10Q420 15 423 24Q428 43 433 45Q437 46 448 46H454Q481 46 514 49Q520 50 522 50T528 55T534 64T540 82T547 110T558 153Q565 181 569 198Q602 330 602 331T457 332H312L279 197Q245 63 245 58Q245 51 253 49T303 46H334Q340 38 340 37T337 19Q333 6 327 0H312Q275 2 178 2Q144 2 115 2T69 2T48 1Q31 1 31 10Q31 12 34 24Q39 43 44 45Q48 46 59 46H65Q92 46 125 49Q139 52 144 61Q147 65 216 339T285 628Q285 635 228 637Z"
            />
          </g>
        </g>
      </g>
    </svg>
  </g>
  <g>
    <path
      d="M 483.0912030033023 250.76961404900297 L 400.01601660363394 230.81977736686054"
      stroke-opacity="1"
      stroke-width="2"
      stroke="#000000"
      stroke-linecap="butt"
    />
    <title>`C3C4`.icon</title>
  </g>
  <circle
    fill="#ffffff"
    fill-opacity="1"
    cx="483.0912030033023"
    cy="250.76961404900297"
    stroke="none"
    r="15"
  >
    <title>`C3`.icon</title>
  </circle>
  <g
    transform="rotate(0, 483.0912030033023, 250.76961404900297)translate(477.01120300330234, 244.95361404900297)"
  >
    <title>`C3`.symbol</title>
    <svg
      style="font-size: 16px"
      xmlns="http://www.w3.org/2000/svg"
      width="12.16"
      height="11.632"
      role="img"
      focusable="false"
      viewBox="0 -705 760 727"
    >
      <g
        stroke="none"
        fill="#000000"
        stroke-width="0"
        transform="scale(1,-1)"
        fill-opacity="1"
      >
        <g data-mml-node="math">
          <g data-mml-node="mi">
            <path
              data-c="1D436"
              d="M50 252Q50 367 117 473T286 641T490 704Q580 704 633 653Q642 643 648 636T656 626L657 623Q660 623 684 649Q691 655 699 663T715 679T725 690L740 705H746Q760 705 760 698Q760 694 728 561Q692 422 692 421Q690 416 687 415T669 413H653Q647 419 647 422Q647 423 648 429T650 449T651 481Q651 552 619 605T510 659Q484 659 454 652T382 628T299 572T226 479Q194 422 175 346T156 222Q156 108 232 58Q280 24 350 24Q441 24 512 92T606 240Q610 253 612 255T628 257Q648 257 648 248Q648 243 647 239Q618 132 523 55T319 -22Q206 -22 128 53T50 252Z"
            />
          </g>
        </g>
      </g>
    </svg>
  </g>
  <circle
    fill="#ffffff"
    fill-opacity="1"
    cx="332.37215440356"
    cy="66.65799901171567"
    stroke="none"
    r="15"
  >
    <title>`H8`.icon</title>
  </circle>
  <g
    transform="rotate(0, 332.37215440356, 66.65799901171567)translate(325.26815440356, 61.193999011715675)"
  >
    <title>`H8`.symbol</title>
    <svg
      style="font-size: 16px"
      xmlns="http://www.w3.org/2000/svg"
      width="14.208"
      height="10.928"
      role="img"
      focusable="false"
      viewBox="0 -683 888 683"
    >
      <g
        stroke="none"
        fill="#000000"
        stroke-width="0"
        transform="scale(1,-1)"
        fill-opacity="1"
      >
        <g data-mml-node="math">
          <g data-mml-node="mi">
            <path
              data-c="1D43B"
              d="M228 637Q194 637 192 641Q191 643 191 649Q191 673 202 682Q204 683 219 683Q260 681 355 681Q389 681 418 681T463 682T483 682Q499 682 499 672Q499 670 497 658Q492 641 487 638H485Q483 638 480 638T473 638T464 637T455 637Q416 636 405 634T387 623Q384 619 355 500Q348 474 340 442T328 395L324 380Q324 378 469 378H614L615 381Q615 384 646 504Q674 619 674 627T617 637Q594 637 587 639T580 648Q580 650 582 660Q586 677 588 679T604 682Q609 682 646 681T740 680Q802 680 835 681T871 682Q888 682 888 672Q888 645 876 638H874Q872 638 869 638T862 638T853 637T844 637Q805 636 794 634T776 623Q773 618 704 340T634 58Q634 51 638 51Q646 48 692 46H723Q729 38 729 37T726 19Q722 6 716 0H701Q664 2 567 2Q533 2 504 2T458 2T437 1Q420 1 420 10Q420 15 423 24Q428 43 433 45Q437 46 448 46H454Q481 46 514 49Q520 50 522 50T528 55T534 64T540 82T547 110T558 153Q565 181 569 198Q602 330 602 331T457 332H312L279 197Q245 63 245 58Q245 51 253 49T303 46H334Q340 38 340 37T337 19Q333 6 327 0H312Q275 2 178 2Q144 2 115 2T69 2T48 1Q31 1 31 10Q31 12 34 24Q39 43 44 45Q48 46 59 46H65Q92 46 125 49Q139 52 144 61Q147 65 216 339T285 628Q285 635 228 637Z"
            />
          </g>
        </g>
      </g>
    </svg>
  </g>
  <g>
    <path
      d="M 460.7627579961599 392.18249583435784 L 429.3446906394368 472.39504083722085"
      stroke-opacity="1"
      stroke-width="2"
      stroke="#ffffff"
      stroke-linecap="butt"
    />
    <title>`C1O1`.line2</title>
  </g>
  <g>
    <path
      d="M 400.01601660363394 230.81977736686054 L 323.89067472108513 342.6826795586272"
      stroke-opacity="1"
      stroke-width="2"
      stroke="#000000"
      stroke-linecap="butt"
    />
    <title>`C4C5`.icon</title>
  </g>
  <circle
    fill="#ffffff"
    fill-opacity="1"
    cx="400.01601660363394"
    cy="230.81977736686054"
    stroke="none"
    r="15"
  >
    <title>`C4`.icon</title>
  </circle>
  <g
    transform="rotate(0, 400.01601660363394, 230.81977736686054)translate(393.93601660363396, 225.00377736686053)"
  >
    <title>`C4`.symbol</title>
    <svg
      style="font-size: 16px"
      xmlns="http://www.w3.org/2000/svg"
      width="12.16"
      height="11.632"
      role="img"
      focusable="false"
      viewBox="0 -705 760 727"
    >
      <g
        stroke="none"
        fill="#000000"
        stroke-width="0"
        transform="scale(1,-1)"
        fill-opacity="1"
      >
        <g data-mml-node="math">
          <g data-mml-node="mi">
            <path
              data-c="1D436"
              d="M50 252Q50 367 117 473T286 641T490 704Q580 704 633 653Q642 643 648 636T656 626L657 623Q660 623 684 649Q691 655 699 663T715 679T725 690L740 705H746Q760 705 760 698Q760 694 728 561Q692 422 692 421Q690 416 687 415T669 413H653Q647 419 647 422Q647 423 648 429T650 449T651 481Q651 552 619 605T510 659Q484 659 454 652T382 628T299 572T226 479Q194 422 175 346T156 222Q156 108 232 58Q280 24 350 24Q441 24 512 92T606 240Q610 253 612 255T628 257Q648 257 648 248Q648 243 647 239Q618 132 523 55T319 -22Q206 -22 128 53T50 252Z"
            />
          </g>
        </g>
      </g>
    </svg>
  </g>
  <circle
    fill="#ffffff"
    fill-opacity="1"
    cx="144.57268990644457"
    cy="373.9664386130031"
    stroke="none"
    r="15"
  >
    <title>`H9`.icon</title>
  </circle>
  <g
    transform="rotate(0, 144.57268990644457, 373.9664386130031)translate(137.46868990644455, 368.5024386130031)"
  >
    <title>`H9`.symbol</title>
    <svg
      style="font-size: 16px"
      xmlns="http://www.w3.org/2000/svg"
      width="14.208"
      height="10.928"
      role="img"
      focusable="false"
      viewBox="0 -683 888 683"
    >
      <g
        stroke="none"
        fill="#000000"
        stroke-width="0"
        transform="scale(1,-1)"
        fill-opacity="1"
      >
        <g data-mml-node="math">
          <g data-mml-node="mi">
            <path
              data-c="1D43B"
              d="M228 637Q194 637 192 641Q191 643 191 649Q191 673 202 682Q204 683 219 683Q260 681 355 681Q389 681 418 681T463 682T483 682Q499 682 499 672Q499 670 497 658Q492 641 487 638H485Q483 638 480 638T473 638T464 637T455 637Q416 636 405 634T387 623Q384 619 355 500Q348 474 340 442T328 395L324 380Q324 378 469 378H614L615 381Q615 384 646 504Q674 619 674 627T617 637Q594 637 587 639T580 648Q580 650 582 660Q586 677 588 679T604 682Q609 682 646 681T740 680Q802 680 835 681T871 682Q888 682 888 672Q888 645 876 638H874Q872 638 869 638T862 638T853 637T844 637Q805 636 794 634T776 623Q773 618 704 340T634 58Q634 51 638 51Q646 48 692 46H723Q729 38 729 37T726 19Q722 6 716 0H701Q664 2 567 2Q533 2 504 2T458 2T437 1Q420 1 420 10Q420 15 423 24Q428 43 433 45Q437 46 448 46H454Q481 46 514 49Q520 50 522 50T528 55T534 64T540 82T547 110T558 153Q565 181 569 198Q602 330 602 331T457 332H312L279 197Q245 63 245 58Q245 51 253 49T303 46H334Q340 38 340 37T337 19Q333 6 327 0H312Q275 2 178 2Q144 2 115 2T69 2T48 1Q31 1 31 10Q31 12 34 24Q39 43 44 45Q48 46 59 46H65Q92 46 125 49Q139 52 144 61Q147 65 216 339T285 628Q285 635 228 637Z"
            />
          </g>
        </g>
      </g>
    </svg>
  </g>
  <circle
    fill="#ffffff"
    fill-opacity="1"
    cx="323.89067472108513"
    cy="342.6826795586272"
    stroke="none"
    r="15"
  >
    <title>`C5`.icon</title>
  </circle>
  <g
    transform="rotate(0, 323.89067472108513, 342.6826795586272)translate(317.81067472108515, 336.86667955862725)"
  >
    <title>`C5`.symbol</title>
    <svg
      style="font-size: 16px"
      xmlns="http://www.w3.org/2000/svg"
      width="12.16"
      height="11.632"
      role="img"
      focusable="false"
      viewBox="0 -705 760 727"
    >
      <g
        stroke="none"
        fill="#000000"
        stroke-width="0"
        transform="scale(1,-1)"
        fill-opacity="1"
      >
        <g data-mml-node="math">
          <g data-mml-node="mi">
            <path
              data-c="1D436"
              d="M50 252Q50 367 117 473T286 641T490 704Q580 704 633 653Q642 643 648 636T656 626L657 623Q660 623 684 649Q691 655 699 663T715 679T725 690L740 705H746Q760 705 760 698Q760 694 728 561Q692 422 692 421Q690 416 687 415T669 413H653Q647 419 647 422Q647 423 648 429T650 449T651 481Q651 552 619 605T510 659Q484 659 454 652T382 628T299 572T226 479Q194 422 175 346T156 222Q156 108 232 58Q280 24 350 24Q441 24 512 92T606 240Q610 253 612 255T628 257Q648 257 648 248Q648 243 647 239Q618 132 523 55T319 -22Q206 -22 128 53T50 252Z"
            />
          </g>
        </g>
      </g>
    </svg>
  </g>
  <g>
    <path
      d="M 323.89067472108513 342.6826795586272 L 305.2969997940248 428.99774030216315"
      stroke-opacity="1"
      stroke-width="2"
      stroke="#ffffff"
      stroke-linecap="butt"
    />
    <title>`C5O2`.line2</title>
  </g>
</svg>
