<?xml version="1.0" encoding="utf-8"?>
<!-- Generator: Adobe Illustrator 23.1.1, SVG Export Plug-In . SVG Version: 6.00 Build 0)  -->
<svg version="1.1" id="Layer_1" xmlns="http://www.w3.org/2000/svg" xmlns:xlink="http://www.w3.org/1999/xlink" x="0px" y="0px"
	 width="123.38px" height="123.38px" viewBox="0 0 123.38 123.38" style="enable-background:new 0 0 123.38 123.38;"
	 xml:space="preserve">
<style type="text/css">
	.st0{opacity:0.65;}
	.st1{opacity:0.5;fill:url(#SVGID_1_);}
	.st2{opacity:0.08;}
	.st3{clip-path:url(#SVGID_3_);fill:none;stroke:#1B1F8A;stroke-width:0.299;stroke-miterlimit:10;}
	.st4{fill:none;stroke:#8C8FC5;stroke-width:0.8417;stroke-linecap:round;stroke-miterlimit:3.3;}
</style>
<g>
	<g class="st0">
		<radialGradient id="SVGID_1_" cx="61.6883" cy="61.6883" r="60.0833" gradientUnits="userSpaceOnUse">
			<stop  offset="0" style="stop-color:#1B1F8A;stop-opacity:0"/>
			<stop  offset="0.25" style="stop-color:#1B1F8A;stop-opacity:0.01"/>
			<stop  offset="0.375" style="stop-color:#1B1F8A;stop-opacity:0.01"/>
			<stop  offset="0.5" style="stop-color:#1B1F8A;stop-opacity:0.03"/>
			<stop  offset="0.625" style="stop-color:#1B1F8A;stop-opacity:0.06"/>
			<stop  offset="0.75" style="stop-color:#1B1F8A;stop-opacity:0.13"/>
			<stop  offset="0.875" style="stop-color:#1B1F8A;stop-opacity:0.35"/>
			<stop  offset="1" style="stop-color:#1B1F8A"/>
		</radialGradient>
		<path class="st1" d="M121.77,61.69c0-15.94-6.33-31.22-17.6-42.49C92.91,7.94,77.62,1.6,61.69,1.6S30.47,7.94,19.2,19.2
			C7.94,30.47,1.6,45.75,1.6,61.69s6.33,31.22,17.6,42.49c11.27,11.27,26.55,17.6,42.49,17.6s31.22-6.33,42.49-17.6
			C115.44,92.91,121.77,77.62,121.77,61.69z"/>
	</g>
	<g>
		<g class="st2">
			<defs>
				<circle id="SVGID_2_" class="st2" cx="61.69" cy="61.69" r="60.08"/>
			</defs>
			<clipPath id="SVGID_3_">
				<use xlink:href="#SVGID_2_"  style="overflow:visible;"/>
			</clipPath>
			<circle class="st3" cx="137.85" cy="61.69" r="47.07"/>
			<circle class="st3" cx="108.76" cy="108.76" r="29.09"/>
			<circle class="st3" cx="61.69" cy="137.85" r="47.07"/>
			<circle class="st3" cx="119.87" cy="79.67" r="11.11"/>
			<circle class="st3" cx="123.31" cy="61.69" r="14.55"/>
			<circle class="st3" cx="108.76" cy="99.77" r="8.99"/>
			<circle class="st3" cx="99.77" cy="108.76" r="8.99"/>
			<circle class="st3" cx="114.32" cy="90.78" r="5.56"/>
			<circle class="st3" cx="61.69" cy="123.31" r="14.55"/>
			<circle class="st3" cx="79.67" cy="119.87" r="11.11"/>
			<circle class="st3" cx="81.08" cy="118.46" r="3.7"/>
			<circle class="st3" cx="76.23" cy="119.87" r="3.43"/>
			<circle class="st3" cx="90.78" cy="114.32" r="5.56"/>
			<circle class="st3" cx="85.22" cy="116.8" r="2.48"/>
			<circle class="st3" cx="-14.48" cy="61.69" r="47.07"/>
			<circle class="st3" cx="14.62" cy="108.76" r="29.09"/>
			<circle class="st3" cx="3.5" cy="79.67" r="11.11"/>
			<circle class="st3" cx="0.07" cy="61.69" r="14.55"/>
			<circle class="st3" cx="14.62" cy="99.77" r="8.99"/>
			<circle class="st3" cx="23.61" cy="108.76" r="8.99"/>
			<circle class="st3" cx="9.06" cy="90.78" r="5.56"/>
			<circle class="st3" cx="43.71" cy="119.87" r="11.11"/>
			<circle class="st3" cx="42.29" cy="118.46" r="3.7"/>
			<circle class="st3" cx="47.14" cy="119.87" r="3.43"/>
			<circle class="st3" cx="32.6" cy="114.32" r="5.56"/>
			<circle class="st3" cx="38.15" cy="116.8" r="2.48"/>
			<circle class="st3" cx="108.76" cy="14.62" r="29.09"/>
			<circle class="st3" cx="61.69" cy="-14.48" r="47.07"/>
			<circle class="st3" cx="119.87" cy="43.71" r="11.11"/>
			<circle class="st3" cx="108.76" cy="23.61" r="8.99"/>
			<circle class="st3" cx="99.77" cy="14.62" r="8.99"/>
			<circle class="st3" cx="114.32" cy="32.6" r="5.56"/>
			<circle class="st3" cx="61.69" cy="0.07" r="14.55"/>
			<circle class="st3" cx="79.67" cy="3.5" r="11.11"/>
			<circle class="st3" cx="81.08" cy="4.92" r="3.7"/>
			<circle class="st3" cx="76.23" cy="3.5" r="3.43"/>
			<circle class="st3" cx="90.78" cy="9.06" r="5.56"/>
			<circle class="st3" cx="85.22" cy="6.57" r="2.48"/>
			<circle class="st3" cx="14.62" cy="14.62" r="29.09"/>
			<circle class="st3" cx="3.5" cy="43.71" r="11.11"/>
			<circle class="st3" cx="14.62" cy="23.61" r="8.99"/>
			<circle class="st3" cx="23.61" cy="14.62" r="8.99"/>
			<circle class="st3" cx="9.06" cy="32.6" r="5.56"/>
			<circle class="st3" cx="43.71" cy="3.5" r="11.11"/>
			<circle class="st3" cx="42.29" cy="4.92" r="3.7"/>
			<circle class="st3" cx="47.14" cy="3.5" r="3.43"/>
			<circle class="st3" cx="32.6" cy="9.06" r="5.56"/>
			<circle class="st3" cx="38.15" cy="6.57" r="2.48"/>
			<circle class="st3" cx="119.87" cy="76.23" r="3.43"/>
			<circle class="st3" cx="118.46" cy="81.08" r="3.7"/>
			<circle class="st3" cx="118.3" cy="81.25" r="1.28"/>
			<circle class="st3" cx="118.81" cy="79.67" r="1.06"/>
			<circle class="st3" cx="116.8" cy="85.22" r="2.48"/>
			<circle class="st3" cx="117.75" cy="82.74" r="0.95"/>
			<circle class="st3" cx="121.77" cy="61.69" r="4.97"/>
			<circle class="st3" cx="121.36" cy="67.99" r="3.89"/>
			<circle class="st3" cx="121.54" cy="63.87" r="1.35"/>
			<circle class="st3" cx="121.59" cy="61.69" r="1.72"/>
			<circle class="st3" cx="121.36" cy="66.78" r="1.2"/>
			<circle class="st3" cx="121.19" cy="68.56" r="1.31"/>
			<circle class="st3" cx="121.46" cy="65.39" r="0.71"/>
			<circle class="st3" cx="120.65" cy="72.32" r="2.03"/>
			<circle class="st3" cx="120.7" cy="71.88" r="0.67"/>
			<circle class="st3" cx="120.53" cy="72.8" r="0.66"/>
			<circle class="st3" cx="120.97" cy="70.13" r="0.89"/>
			<circle class="st3" cx="119.87" cy="47.14" r="3.43"/>
			<circle class="st3" cx="118.46" cy="42.29" r="3.7"/>
			<circle class="st3" cx="118.3" cy="42.13" r="1.28"/>
			<circle class="st3" cx="118.81" cy="43.71" r="1.06"/>
			<circle class="st3" cx="116.8" cy="38.15" r="2.48"/>
			<circle class="st3" cx="117.75" cy="40.64" r="0.95"/>
			<circle class="st3" cx="121.36" cy="55.39" r="3.89"/>
			<circle class="st3" cx="121.54" cy="59.51" r="1.35"/>
			<circle class="st3" cx="121.36" cy="56.59" r="1.2"/>
			<circle class="st3" cx="121.19" cy="54.82" r="1.31"/>
			<circle class="st3" cx="121.46" cy="57.98" r="0.71"/>
			<circle class="st3" cx="120.65" cy="51.06" r="2.03"/>
			<circle class="st3" cx="120.7" cy="51.5" r="0.67"/>
			<circle class="st3" cx="120.53" cy="50.58" r="0.66"/>
			<circle class="st3" cx="120.97" cy="53.25" r="0.89"/>
			<circle class="st3" cx="101.89" cy="106.14" r="2.62"/>
			<circle class="st3" cx="98.82" cy="108.76" r="3.07"/>
			<circle class="st3" cx="101.21" cy="106.67" r="0.8"/>
			<circle class="st3" cx="102.1" cy="105.88" r="0.89"/>
			<circle class="st3" cx="99.77" cy="107.9" r="0.86"/>
			<circle class="st3" cx="98.71" cy="108.76" r="1.06"/>
			<circle class="st3" cx="95.75" cy="110.98" r="2.22"/>
			<circle class="st3" cx="96.25" cy="110.59" r="0.7"/>
			<circle class="st3" cx="95.42" cy="111.17" r="0.74"/>
			<circle class="st3" cx="97.65" cy="109.57" r="0.81"/>
			<circle class="st3" cx="108.76" cy="98.82" r="3.07"/>
			<circle class="st3" cx="106.14" cy="101.89" r="2.62"/>
			<circle class="st3" cx="110.98" cy="95.75" r="2.22"/>
			<circle class="st3" cx="108.76" cy="98.71" r="1.06"/>
			<circle class="st3" cx="107.9" cy="99.77" r="0.86"/>
			<circle class="st3" cx="109.57" cy="97.65" r="0.81"/>
			<circle class="st3" cx="105.88" cy="102.1" r="0.89"/>
			<circle class="st3" cx="106.67" cy="101.21" r="0.8"/>
			<circle class="st3" cx="104.04" cy="104.04" r="1.46"/>
			<circle class="st3" cx="102.9" cy="105.14" r="0.62"/>
			<circle class="st3" cx="105.14" cy="102.9" r="0.62"/>
			<circle class="st3" cx="113.43" cy="91.88" r="1.78"/>
			<circle class="st3" cx="114.67" cy="89.65" r="1.82"/>
			<circle class="st3" cx="113.33" cy="92" r="0.61"/>
			<circle class="st3" cx="114.71" cy="89.53" r="0.63"/>
			<circle class="st3" cx="115.63" cy="87.71" r="1.17"/>
			<circle class="st3" cx="111.17" cy="95.42" r="0.74"/>
			<circle class="st3" cx="110.59" cy="96.25" r="0.7"/>
			<circle class="st3" cx="112.32" cy="93.66" r="1.1"/>
			<circle class="st3" cx="67.99" cy="121.36" r="3.89"/>
			<circle class="st3" cx="61.69" cy="121.77" r="4.97"/>
			<circle class="st3" cx="72.32" cy="120.65" r="2.03"/>
			<circle class="st3" cx="68.56" cy="121.19" r="1.31"/>
			<circle class="st3" cx="66.78" cy="121.36" r="1.2"/>
			<circle class="st3" cx="70.13" cy="120.97" r="0.89"/>
			<circle class="st3" cx="61.69" cy="121.59" r="1.72"/>
			<circle class="st3" cx="63.87" cy="121.54" r="1.35"/>
			<circle class="st3" cx="65.39" cy="121.46" r="0.71"/>
			<circle class="st3" cx="55.39" cy="121.36" r="3.89"/>
			<circle class="st3" cx="51.06" cy="120.65" r="2.03"/>
			<circle class="st3" cx="54.82" cy="121.19" r="1.31"/>
			<circle class="st3" cx="56.59" cy="121.36" r="1.2"/>
			<circle class="st3" cx="53.25" cy="120.97" r="0.89"/>
			<circle class="st3" cx="59.51" cy="121.54" r="1.35"/>
			<circle class="st3" cx="57.98" cy="121.46" r="0.71"/>
			<circle class="st3" cx="79.67" cy="118.81" r="1.06"/>
			<circle class="st3" cx="81.25" cy="118.3" r="1.28"/>
			<circle class="st3" cx="82.74" cy="117.75" r="0.95"/>
			<circle class="st3" cx="75.87" cy="119.87" r="1.17"/>
			<circle class="st3" cx="77.38" cy="119.48" r="1.02"/>
			<circle class="st3" cx="72.8" cy="120.53" r="0.66"/>
			<circle class="st3" cx="71.88" cy="120.7" r="0.67"/>
			<circle class="st3" cx="74.47" cy="120.19" r="0.83"/>
			<circle class="st3" cx="89.65" cy="114.67" r="1.82"/>
			<circle class="st3" cx="91.88" cy="113.43" r="1.78"/>
			<circle class="st3" cx="87.71" cy="115.63" r="1.17"/>
			<circle class="st3" cx="89.53" cy="114.71" r="0.63"/>
			<circle class="st3" cx="92" cy="113.33" r="0.61"/>
			<circle class="st3" cx="93.66" cy="112.32" r="1.1"/>
			<circle class="st3" cx="85.64" cy="116.57" r="0.82"/>
			<circle class="st3" cx="84.59" cy="117.02" r="0.79"/>
			<circle class="st3" cx="3.5" cy="76.23" r="3.43"/>
			<circle class="st3" cx="4.92" cy="81.08" r="3.7"/>
			<circle class="st3" cx="5.08" cy="81.25" r="1.28"/>
			<circle class="st3" cx="4.56" cy="79.67" r="1.06"/>
			<circle class="st3" cx="6.57" cy="85.22" r="2.48"/>
			<circle class="st3" cx="5.63" cy="82.74" r="0.95"/>
			<circle class="st3" cx="1.6" cy="61.69" r="4.97"/>
			<circle class="st3" cx="2.02" cy="67.99" r="3.89"/>
			<circle class="st3" cx="1.84" cy="63.87" r="1.35"/>
			<circle class="st3" cx="1.79" cy="61.69" r="1.72"/>
			<circle class="st3" cx="2.02" cy="66.78" r="1.2"/>
			<circle class="st3" cx="2.19" cy="68.56" r="1.31"/>
			<circle class="st3" cx="1.92" cy="65.39" r="0.71"/>
			<circle class="st3" cx="2.73" cy="72.32" r="2.03"/>
			<circle class="st3" cx="2.68" cy="71.88" r="0.67"/>
			<circle class="st3" cx="2.85" cy="72.8" r="0.66"/>
			<circle class="st3" cx="2.4" cy="70.13" r="0.89"/>
			<circle class="st3" cx="3.5" cy="47.14" r="3.43"/>
			<circle class="st3" cx="4.92" cy="42.29" r="3.7"/>
			<circle class="st3" cx="5.08" cy="42.13" r="1.28"/>
			<circle class="st3" cx="4.56" cy="43.71" r="1.06"/>
			<circle class="st3" cx="6.57" cy="38.15" r="2.48"/>
			<circle class="st3" cx="5.63" cy="40.64" r="0.95"/>
			<circle class="st3" cx="2.02" cy="55.39" r="3.89"/>
			<circle class="st3" cx="1.84" cy="59.51" r="1.35"/>
			<circle class="st3" cx="2.02" cy="56.59" r="1.2"/>
			<circle class="st3" cx="2.19" cy="54.82" r="1.31"/>
			<circle class="st3" cx="1.92" cy="57.98" r="0.71"/>
			<circle class="st3" cx="2.73" cy="51.06" r="2.03"/>
			<circle class="st3" cx="2.68" cy="51.5" r="0.67"/>
			<circle class="st3" cx="2.85" cy="50.58" r="0.66"/>
			<circle class="st3" cx="2.4" cy="53.25" r="0.89"/>
			<circle class="st3" cx="21.48" cy="106.14" r="2.62"/>
			<circle class="st3" cx="24.55" cy="108.76" r="3.07"/>
			<circle class="st3" cx="22.16" cy="106.67" r="0.8"/>
			<circle class="st3" cx="21.27" cy="105.88" r="0.89"/>
			<circle class="st3" cx="23.61" cy="107.9" r="0.86"/>
			<circle class="st3" cx="24.67" cy="108.76" r="1.06"/>
			<circle class="st3" cx="27.63" cy="110.98" r="2.22"/>
			<circle class="st3" cx="27.12" cy="110.59" r="0.7"/>
			<circle class="st3" cx="27.96" cy="111.17" r="0.74"/>
			<circle class="st3" cx="25.73" cy="109.57" r="0.81"/>
			<circle class="st3" cx="14.62" cy="98.82" r="3.07"/>
			<circle class="st3" cx="17.24" cy="101.89" r="2.62"/>
			<circle class="st3" cx="12.39" cy="95.75" r="2.22"/>
			<circle class="st3" cx="14.62" cy="98.71" r="1.06"/>
			<circle class="st3" cx="15.47" cy="99.77" r="0.86"/>
			<circle class="st3" cx="13.8" cy="97.65" r="0.81"/>
			<circle class="st3" cx="17.5" cy="102.1" r="0.89"/>
			<circle class="st3" cx="16.7" cy="101.21" r="0.8"/>
			<circle class="st3" cx="19.34" cy="104.04" r="1.46"/>
			<circle class="st3" cx="20.48" cy="105.14" r="0.62"/>
			<circle class="st3" cx="18.24" cy="102.9" r="0.62"/>
			<circle class="st3" cx="9.95" cy="91.88" r="1.78"/>
			<circle class="st3" cx="8.71" cy="89.65" r="1.82"/>
			<circle class="st3" cx="10.05" cy="92" r="0.61"/>
			<circle class="st3" cx="8.67" cy="89.53" r="0.63"/>
			<circle class="st3" cx="7.75" cy="87.71" r="1.17"/>
			<circle class="st3" cx="12.21" cy="95.42" r="0.74"/>
			<circle class="st3" cx="12.79" cy="96.25" r="0.7"/>
			<circle class="st3" cx="11.05" cy="93.66" r="1.1"/>
			<circle class="st3" cx="43.71" cy="118.81" r="1.06"/>
			<circle class="st3" cx="42.13" cy="118.3" r="1.28"/>
			<circle class="st3" cx="40.64" cy="117.75" r="0.95"/>
			<circle class="st3" cx="47.5" cy="119.87" r="1.17"/>
			<circle class="st3" cx="46" cy="119.48" r="1.02"/>
			<circle class="st3" cx="50.58" cy="120.53" r="0.66"/>
			<circle class="st3" cx="51.5" cy="120.7" r="0.67"/>
			<circle class="st3" cx="48.91" cy="120.19" r="0.83"/>
			<circle class="st3" cx="33.72" cy="114.67" r="1.82"/>
			<circle class="st3" cx="31.49" cy="113.43" r="1.78"/>
			<circle class="st3" cx="35.67" cy="115.63" r="1.17"/>
			<circle class="st3" cx="33.85" cy="114.71" r="0.63"/>
			<circle class="st3" cx="31.37" cy="113.33" r="0.61"/>
			<circle class="st3" cx="29.71" cy="112.32" r="1.1"/>
			<circle class="st3" cx="37.74" cy="116.57" r="0.82"/>
			<circle class="st3" cx="38.79" cy="117.02" r="0.79"/>
			<circle class="st3" cx="101.89" cy="17.24" r="2.62"/>
			<circle class="st3" cx="98.82" cy="14.62" r="3.07"/>
			<circle class="st3" cx="101.21" cy="16.7" r="0.8"/>
			<circle class="st3" cx="102.1" cy="17.5" r="0.89"/>
			<circle class="st3" cx="99.77" cy="15.47" r="0.86"/>
			<circle class="st3" cx="98.71" cy="14.62" r="1.06"/>
			<circle class="st3" cx="95.75" cy="12.39" r="2.22"/>
			<circle class="st3" cx="96.25" cy="12.79" r="0.7"/>
			<circle class="st3" cx="95.42" cy="12.21" r="0.74"/>
			<circle class="st3" cx="97.65" cy="13.8" r="0.81"/>
			<circle class="st3" cx="108.76" cy="24.55" r="3.07"/>
			<circle class="st3" cx="106.14" cy="21.48" r="2.62"/>
			<circle class="st3" cx="110.98" cy="27.63" r="2.22"/>
			<circle class="st3" cx="108.76" cy="24.67" r="1.06"/>
			<circle class="st3" cx="107.9" cy="23.61" r="0.86"/>
			<circle class="st3" cx="109.57" cy="25.73" r="0.81"/>
			<circle class="st3" cx="105.88" cy="21.27" r="0.89"/>
			<circle class="st3" cx="106.67" cy="22.16" r="0.8"/>
			<circle class="st3" cx="104.04" cy="19.34" r="1.46"/>
			<circle class="st3" cx="102.9" cy="18.24" r="0.62"/>
			<circle class="st3" cx="105.14" cy="20.48" r="0.62"/>
			<circle class="st3" cx="113.43" cy="31.49" r="1.78"/>
			<circle class="st3" cx="114.67" cy="33.72" r="1.82"/>
			<circle class="st3" cx="113.33" cy="31.37" r="0.61"/>
			<circle class="st3" cx="114.71" cy="33.85" r="0.63"/>
			<circle class="st3" cx="115.63" cy="35.67" r="1.17"/>
			<circle class="st3" cx="111.17" cy="27.96" r="0.74"/>
			<circle class="st3" cx="110.59" cy="27.12" r="0.7"/>
			<circle class="st3" cx="112.32" cy="29.71" r="1.1"/>
			<circle class="st3" cx="67.99" cy="2.02" r="3.89"/>
			<circle class="st3" cx="61.69" cy="1.6" r="4.97"/>
			<circle class="st3" cx="72.32" cy="2.73" r="2.03"/>
			<circle class="st3" cx="68.56" cy="2.19" r="1.31"/>
			<circle class="st3" cx="66.78" cy="2.02" r="1.2"/>
			<circle class="st3" cx="70.13" cy="2.4" r="0.89"/>
			<circle class="st3" cx="61.69" cy="1.79" r="1.72"/>
			<circle class="st3" cx="63.87" cy="1.84" r="1.35"/>
			<circle class="st3" cx="65.39" cy="1.92" r="0.71"/>
			<circle class="st3" cx="55.39" cy="2.02" r="3.89"/>
			<circle class="st3" cx="51.06" cy="2.73" r="2.03"/>
			<circle class="st3" cx="54.82" cy="2.19" r="1.31"/>
			<circle class="st3" cx="56.59" cy="2.02" r="1.2"/>
			<circle class="st3" cx="53.25" cy="2.4" r="0.89"/>
			<circle class="st3" cx="59.51" cy="1.84" r="1.35"/>
			<circle class="st3" cx="57.98" cy="1.92" r="0.71"/>
			<circle class="st3" cx="79.67" cy="4.56" r="1.06"/>
			<circle class="st3" cx="81.25" cy="5.08" r="1.28"/>
			<circle class="st3" cx="82.74" cy="5.63" r="0.95"/>
			<circle class="st3" cx="75.87" cy="3.5" r="1.17"/>
			<circle class="st3" cx="77.38" cy="3.89" r="1.02"/>
			<circle class="st3" cx="72.8" cy="2.85" r="0.66"/>
			<circle class="st3" cx="71.88" cy="2.68" r="0.67"/>
			<circle class="st3" cx="74.47" cy="3.18" r="0.83"/>
			<circle class="st3" cx="119.87" cy="75.87" r="1.17"/>
			<circle class="st3" cx="119.48" cy="77.38" r="1.02"/>
			<circle class="st3" cx="120.19" cy="74.47" r="0.83"/>
			<circle class="st3" cx="3.5" cy="75.87" r="1.17"/>
			<circle class="st3" cx="3.89" cy="77.38" r="1.02"/>
			<circle class="st3" cx="3.18" cy="74.47" r="0.83"/>
			<circle class="st3" cx="119.87" cy="47.5" r="1.17"/>
			<circle class="st3" cx="119.48" cy="46" r="1.02"/>
			<circle class="st3" cx="120.19" cy="48.91" r="0.83"/>
			<circle class="st3" cx="3.5" cy="47.5" r="1.17"/>
			<circle class="st3" cx="3.89" cy="46" r="1.02"/>
			<circle class="st3" cx="3.18" cy="48.91" r="0.83"/>
			<circle class="st3" cx="89.65" cy="8.71" r="1.82"/>
			<circle class="st3" cx="91.88" cy="9.95" r="1.78"/>
			<circle class="st3" cx="87.71" cy="7.75" r="1.17"/>
			<circle class="st3" cx="89.53" cy="8.67" r="0.63"/>
			<circle class="st3" cx="92" cy="10.05" r="0.61"/>
			<circle class="st3" cx="93.66" cy="11.05" r="1.1"/>
			<circle class="st3" cx="85.64" cy="6.8" r="0.82"/>
			<circle class="st3" cx="84.59" cy="6.36" r="0.79"/>
			<circle class="st3" cx="116.57" cy="37.74" r="0.82"/>
			<circle class="st3" cx="117.02" cy="38.79" r="0.79"/>
			<circle class="st3" cx="6.8" cy="85.64" r="0.82"/>
			<circle class="st3" cx="6.36" cy="84.59" r="0.79"/>
			<circle class="st3" cx="6.8" cy="37.74" r="0.82"/>
			<circle class="st3" cx="6.36" cy="38.79" r="0.79"/>
			<circle class="st3" cx="116.57" cy="85.64" r="0.82"/>
			<circle class="st3" cx="117.02" cy="84.59" r="0.79"/>
			<circle class="st3" cx="21.48" cy="17.24" r="2.62"/>
			<circle class="st3" cx="24.55" cy="14.62" r="3.07"/>
			<circle class="st3" cx="22.16" cy="16.7" r="0.8"/>
			<circle class="st3" cx="21.27" cy="17.5" r="0.89"/>
			<circle class="st3" cx="23.61" cy="15.47" r="0.86"/>
			<circle class="st3" cx="24.67" cy="14.62" r="1.06"/>
			<circle class="st3" cx="27.63" cy="12.39" r="2.22"/>
			<circle class="st3" cx="27.12" cy="12.79" r="0.7"/>
			<circle class="st3" cx="27.96" cy="12.21" r="0.74"/>
			<circle class="st3" cx="25.73" cy="13.8" r="0.81"/>
			<circle class="st3" cx="14.62" cy="24.55" r="3.07"/>
			<circle class="st3" cx="17.24" cy="21.48" r="2.62"/>
			<circle class="st3" cx="12.39" cy="27.63" r="2.22"/>
			<circle class="st3" cx="14.62" cy="24.67" r="1.06"/>
			<circle class="st3" cx="15.47" cy="23.61" r="0.86"/>
			<circle class="st3" cx="13.8" cy="25.73" r="0.81"/>
			<circle class="st3" cx="17.5" cy="21.27" r="0.89"/>
			<circle class="st3" cx="16.7" cy="22.16" r="0.8"/>
			<circle class="st3" cx="19.34" cy="19.34" r="1.46"/>
			<circle class="st3" cx="20.48" cy="18.24" r="0.62"/>
			<circle class="st3" cx="18.24" cy="20.48" r="0.62"/>
			<circle class="st3" cx="9.95" cy="31.49" r="1.78"/>
			<circle class="st3" cx="8.71" cy="33.72" r="1.82"/>
			<circle class="st3" cx="10.05" cy="31.37" r="0.61"/>
			<circle class="st3" cx="8.67" cy="33.85" r="0.63"/>
			<circle class="st3" cx="7.75" cy="35.67" r="1.17"/>
			<circle class="st3" cx="12.21" cy="27.96" r="0.74"/>
			<circle class="st3" cx="12.79" cy="27.12" r="0.7"/>
			<circle class="st3" cx="11.05" cy="29.71" r="1.1"/>
			<circle class="st3" cx="43.71" cy="4.56" r="1.06"/>
			<circle class="st3" cx="42.13" cy="5.08" r="1.28"/>
			<circle class="st3" cx="40.64" cy="5.63" r="0.95"/>
			<circle class="st3" cx="47.5" cy="3.5" r="1.17"/>
			<circle class="st3" cx="46" cy="3.89" r="1.02"/>
			<circle class="st3" cx="50.58" cy="2.85" r="0.66"/>
			<circle class="st3" cx="51.5" cy="2.68" r="0.67"/>
			<circle class="st3" cx="48.91" cy="3.18" r="0.83"/>
			<circle class="st3" cx="33.72" cy="8.71" r="1.82"/>
			<circle class="st3" cx="31.49" cy="9.95" r="1.78"/>
			<circle class="st3" cx="35.67" cy="7.75" r="1.17"/>
			<circle class="st3" cx="33.85" cy="8.67" r="0.63"/>
			<circle class="st3" cx="31.37" cy="10.05" r="0.61"/>
			<circle class="st3" cx="29.71" cy="11.05" r="1.1"/>
			<circle class="st3" cx="37.74" cy="6.8" r="0.82"/>
			<circle class="st3" cx="38.79" cy="6.36" r="0.79"/>
			<line class="st3" x1="1.6" y1="61.69" x2="121.77" y2="61.69"/>
			<line class="st3" x1="61.69" y1="121.77" x2="61.69" y2="1.6"/>
		</g>
		<circle class="st4" cx="61.69" cy="61.69" r="60.08"/>
	</g>
</g>
</svg>
