<svg
  version="1.2"
  xmlns="http://www.w3.org/2000/svg"
  viewBox="0 0 1920 1080"
  penrose="0"
>
  <penrose>
    <croppedViewBox>
      -982.6584774442731 -420 2902.658477444273 1920
    </croppedViewBox>
  </penrose>
  <g transform="rotate(0, 960, 540)translate(0, -420)">
    <!--?xml version="1.0" encoding="UTF-8"?--><svg
      id="ngon__uuid-13f44100-e7bf-4255-a26a-98b4ffa546e6--inject-103"
      xmlns="http://www.w3.org/2000/svg"
      width="1920"
      height="1920"
      xmlns:xlink="http://www.w3.org/1999/xlink"
      viewBox="0 0 1920 1920"
      preserveAspectRatio="none"
    >
      <defs>
        <radialGradient
          id="ngon__uuid-66f72e6f-882c-4b2a-accc-e37df73e5141--inject-103"
          cx="960"
          cy="960"
          fx="960"
          fy="960"
          r="1352.8455844"
          gradientUnits="userSpaceOnUse"
        >
          <stop offset=".1477348" stop-color="gray" />
          <stop offset=".8133731" stop-color="#262626" />
        </radialGradient>
      </defs>
      <rect
        width="1920"
        height="1920"
        style="
          fill: url(#ngon__uuid-66f72e6f-882c-4b2a-accc-e37df73e5141--inject-103);
        "
      />
    </svg>
    <title>canvas.background</title>
  </g>
  <g stroke-linejoin="round">
    <filter id="ngon__`P_3`.icon-shadow" x="0" y="0" width="200%" height="200%">
      <feOffset result="offOut" in="SourceAlpha" dx="5" dy="5" />
      <feGaussianBlur result="blurOut" in="offOut" stdDeviation="4" />
      <feBlend in="SourceGraphic" in2="blurOut" mode="normal" />
      <feComponentTransfer>
        <feFuncA type="linear" slope="0.5" />
      </feComponentTransfer>
      <feMerge>
        <feMergeNode />
        <feMergeNode in="SourceGraphic" />
      </feMerge>
    </filter>
    <path
      fill="none"
      stroke="#888888"
      stroke-opacity="1"
      stroke-width="5"
      stroke-linecap="butt"
      d="M -429.17468328602786 408.7499985566244 L -440 390 L -559.0784938536938 596.2500014433756 L -364.2227780021949 596.2499985566245 L -375.04809471616704 577.5 L -526.6025387117775 577.5 Z  M -559.0784938536938 596.2500014433756 L -569.9038105676659 615 L -331.7468228602788 615 L -429.17468328602786 446.2500014433756 L -440 465 L -364.2227780021949 596.2499985566245 Z  M -331.7468228602788 615 L -310.0961894323343 615.0000000000001 L -429.17468328602786 408.7499985566244 L -526.6025387117775 577.5 L -504.95190528383296 577.5 L -429.17468328602786 446.2500014433756 Z "
    />
    <title>`P_3`.icon</title>
  </g>
  <g stroke-linejoin="round">
    <filter id="ngon__`P_5`.icon-shadow" x="0" y="0" width="200%" height="200%">
      <feOffset result="offOut" in="SourceAlpha" dx="5" dy="5" />
      <feGaussianBlur result="blurOut" in="offOut" stdDeviation="4" />
      <feBlend in="SourceGraphic" in2="blurOut" mode="normal" />
      <feComponentTransfer>
        <feFuncA type="linear" slope="0.5" />
      </feComponentTransfer>
      <feMerge>
        <feMergeNode />
        <feMergeNode in="SourceGraphic" />
      </feMerge>
    </filter>
    <path
      fill="none"
      stroke="#888888"
      stroke-opacity="1"
      stroke-width="5"
      stroke-linecap="butt"
      d="M 385.8071580817839 408.7499978733732 L 360 390 L 243.1486806375109 474.8974529703847 L 284.0167043828966 600.676274578121 L 315.91610607806456 600.676274578121 L 278.8133040436635 486.4855915737728 Z  M 243.1486806375109 474.8974529703847 L 217.341522555727 493.6474508437579 L 261.97475492192905 631.014415308136 L 394.2264366877355 631.0144084262272 L 404.08389392193544 600.676274578121 L 284.0167043828966 600.676274578121 Z  M 261.97475492192905 631.014415308136 L 271.832212156129 661.352549156242 L 416.26838614870303 661.3525491562422 L 457.13639680392043 535.5737232952522 L 431.32923872213655 516.823725421879 L 394.2264366877355 631.0144084262272 Z  M 416.26838614870303 661.3525491562422 L 448.16778784387094 661.3525491562422 L 492.80102021007315 523.985584691864 L 385.8071580817839 446.2500021266268 L 360 465 L 457.13639680392043 535.5737232952522 Z  M 492.80102021007315 523.985584691864 L 502.65847744427305 493.6474508437579 L 385.8071580817839 408.7499978733732 L 278.8133040436635 486.4855915737728 L 288.67076127786345 516.823725421879 L 385.8071580817839 446.2500021266268 Z "
    />
    <title>`P_5`.icon</title>
  </g>
  <g stroke-linejoin="round">
    <filter id="ngon__`P_4`.icon-shadow" x="0" y="0" width="200%" height="200%">
      <feOffset result="offOut" in="SourceAlpha" dx="5" dy="5" />
      <feGaussianBlur result="blurOut" in="offOut" stdDeviation="4" />
      <feBlend in="SourceGraphic" in2="blurOut" mode="normal" />
      <feComponentTransfer>
        <feFuncA type="linear" slope="0.5" />
      </feComponentTransfer>
      <feMerge>
        <feMergeNode />
        <feMergeNode in="SourceGraphic" />
      </feMerge>
    </filter>
    <path
      fill="none"
      stroke="#888888"
      stroke-opacity="1"
      stroke-width="5"
      stroke-linecap="butt"
      d="M -21.250001767766776 408.7499982322332 L -40 390 L -171.2500017677669 521.2500017677668 L -58.749998232233224 633.7499982322332 L -40 615 L -133.7499982322331 521.2500017677668 Z  M -171.2500017677669 521.2500017677668 L -190 540 L -58.749998232233224 671.2500017677668 L 53.749998232233224 558.7499982322332 L 35 540 L -58.749998232233224 633.7499982322332 Z  M -58.749998232233224 671.2500017677668 L -40 690 L 91.25000176776678 558.7499982322332 L -21.250001767766776 446.2500017677668 L -40 465 L 53.749998232233224 558.7499982322332 Z  M 91.25000176776678 558.7499982322332 L 110 540 L -21.250001767766776 408.7499982322332 L -133.7499982322331 521.2500017677668 L -115 540 L -21.250001767766776 446.2500017677668 Z "
    />
    <title>`P_4`.icon</title>
  </g>
  <g stroke-linejoin="round">
    <filter
      id="ngon__`P_12`.icon-shadow"
      x="0"
      y="0"
      width="200%"
      height="200%"
    >
      <feOffset result="offOut" in="SourceAlpha" dx="5" dy="5" />
      <feGaussianBlur result="blurOut" in="offOut" stdDeviation="4" />
      <feBlend in="SourceGraphic" in2="blurOut" mode="normal" />
      <feComponentTransfer>
        <feFuncA type="linear" slope="0.5" />
      </feComponentTransfer>
      <feMerge>
        <feMergeNode />
        <feMergeNode in="SourceGraphic" />
      </feMerge>
    </filter>
    <path
      fill="none"
      stroke="#888888"
      stroke-opacity="1"
      stroke-width="5"
      stroke-linecap="butt"
      d="M 29.975934617499775 -291.25000482962776 L -40 -310 L -45.024065382500225 -308.6538057380378 L -86.20191011346105 -267.4759346174998 L -104.95190528383296 -197.5 L -26.274060552872356 -276.1778447309606 Z  M -45.024065382500225 -308.6538057380378 L -115 -289.9038105676658 L -118.67787112053816 -286.22593944712764 L -133.7499951703719 -229.97593461749977 L -115 -160 L -86.20191011346105 -267.4759346174998 Z  M -118.67787112053816 -286.22593944712764 L -169.90381056766591 -235 L -171.2500048296281 -229.97593461749977 L -156.17784473096071 -173.72593944712764 L -104.95190528383296 -122.5 L -133.7499951703719 -229.97593461749977 Z  M -171.2500048296281 -229.97593461749977 L -190 -160 L -188.65380573803782 -154.97593461749977 L -147.4759346174999 -113.79808988653906 L -77.5 -95.04809471616704 L -156.17784473096071 -173.72593944712764 Z  M -188.65380573803782 -154.97593461749977 L -169.90381056766591 -85 L -166.22593944712776 -81.32212887946184 L -109.97593461749989 -66.25000482962798 L -40 -85 L -147.4759346174999 -113.79808988653906 Z  M -166.22593944712776 -81.32212887946184 L -115 -30.0961894323342 L -109.97593461749989 -28.749995170372017 L -53.72593944712753 -43.822155269039285 L -2.5 -95.04809471616704 L -109.97593461749989 -66.25000482962798 Z  M -109.97593461749989 -28.749995170372017 L -40 -10 L -34.975934617499775 -11.346194261962182 L 6.201910113460599 -52.524065382500225 L 24.951905283832843 -122.5 L -53.72593944712753 -43.822155269039285 Z  M -34.975934617499775 -11.346194261962182 L 35 -30.0961894323342 L 38.67787112053827 -33.77406055287213 L 53.74999517037202 -90.02406538250023 L 35 -160 L 6.201910113460599 -52.524065382500225 Z  M 38.67787112053827 -33.77406055287213 L 89.9038105676658 -84.99999999999989 L 91.25000482962776 -90.02406538250023 L 76.17784473096071 -146.27406055287247 L 24.951905283832957 -197.5 L 53.74999517037202 -90.02406538250023 Z  M 91.25000482962776 -90.02406538250023 L 110 -160 L 108.65380573803782 -165.02406538250023 L 67.47593461749977 -206.2019101134606 L -2.5 -224.95190528383284 L 76.17784473096071 -146.27406055287247 Z  M 108.65380573803782 -165.02406538250023 L 89.9038105676658 -235 L 86.22593944712787 -238.67787112053816 L 29.975934617499775 -253.74999517037202 L -40 -235 L 67.47593461749977 -206.2019101134606 Z  M 86.22593944712787 -238.67787112053816 L 35.000000000000114 -289.9038105676657 L 29.975934617499775 -291.25000482962776 L -26.274060552872356 -276.1778447309606 L -77.5 -224.95190528383296 L 29.975934617499775 -253.74999517037202 Z "
    />
    <title>`P_12`.icon</title>
  </g>
  <g stroke-linejoin="round">
    <filter
      id="ngon__`P_10`.icon-shadow"
      x="0"
      y="0"
      width="200%"
      height="200%"
    >
      <feOffset result="offOut" in="SourceAlpha" dx="5" dy="5" />
      <feGaussianBlur result="blurOut" in="offOut" stdDeviation="4" />
      <feBlend in="SourceGraphic" in2="blurOut" mode="normal" />
      <feComponentTransfer>
        <feFuncA type="linear" slope="0.5" />
      </feComponentTransfer>
      <feMerge>
        <feMergeNode />
        <feMergeNode in="SourceGraphic" />
      </feMerge>
    </filter>
    <path
      fill="none"
      stroke="#888888"
      stroke-opacity="1"
      stroke-width="5"
      stroke-linecap="butt"
      d="M -782.2934461274529 -291.2500040450841 L -840 -310 L -870.4612339713237 -300.10254511115807 L -911.3292387221366 -243.852536066075 L -911.3292387221366 -183.17627457812102 L -848.4192822550742 -269.7644012770138 Z  M -870.4612339713237 -300.10254511115807 L -928.1677878438709 -281.35254915624216 L -946.9938657774119 -255.44067585513494 L -946.9938503889978 -185.91185212077175 L -911.3292387221366 -136.82372542187898 L -911.3292387221366 -243.852536066075 Z  M -946.9938657774119 -255.44067585513494 L -982.6584774442731 -206.35254915624216 L -982.6584774442731 -174.32371233171193 L -941.7904477944826 -118.07372137679488 L -884.0838939219354 -99.32372542187898 L -946.9938503889978 -185.91185212077175 Z  M -982.6584774442731 -174.32371233171193 L -982.6584774442731 -113.64745084375795 L -963.8323995107321 -87.73557754265073 L -897.7065538725471 -66.2500040450841 L -840 -85 L -941.7904477944826 -118.07372137679488 Z  M -963.8323995107321 -87.73557754265073 L -928.1677878438709 -38.64745084375795 L -897.7065538725471 -28.749995954915903 L -831.5807177449258 -50.2355987229862 L -795.9161060780646 -99.32372542187898 L -897.7065538725471 -66.2500040450841 Z  M -897.7065538725471 -28.749995954915903 L -840 -10 L -809.5387660286763 -19.897454888841935 L -768.6707612778634 -76.147463933925 L -768.6707612778634 -136.82372542187898 L -831.5807177449258 -50.2355987229862 Z  M -809.5387660286763 -19.897454888841935 L -751.8322121561291 -38.64745084375784 L -733.0061342225881 -64.55932414486506 L -733.0061496110022 -134.08814787922825 L -768.6707612778634 -183.17627457812102 L -768.6707612778634 -76.147463933925 Z  M -733.0061342225881 -64.55932414486506 L -697.3415225557269 -113.64745084375784 L -697.3415225557269 -145.67628766828807 L -738.2095522055174 -201.92627862320512 L -795.9161060780646 -220.67627457812102 L -733.0061496110022 -134.08814787922825 Z  M -697.3415225557269 -145.67628766828807 L -697.3415225557269 -206.35254915624205 L -716.1676004892679 -232.26442245734927 L -782.2934461274529 -253.7499959549159 L -840 -235 L -738.2095522055174 -201.92627862320512 Z  M -716.1676004892679 -232.26442245734927 L -751.8322121561291 -281.35254915624205 L -782.2934461274529 -291.2500040450841 L -848.4192822550742 -269.7644012770138 L -884.0838939219354 -220.67627457812102 L -782.2934461274529 -253.7499959549159 Z "
    />
    <title>`P_10`.icon</title>
  </g>
  <g stroke-linejoin="round">
    <filter id="ngon__`P_8`.icon-shadow" x="0" y="0" width="200%" height="200%">
      <feOffset result="offOut" in="SourceAlpha" dx="5" dy="5" />
      <feGaussianBlur result="blurOut" in="offOut" stdDeviation="4" />
      <feBlend in="SourceGraphic" in2="blurOut" mode="normal" />
      <feComponentTransfer>
        <feFuncA type="linear" slope="0.5" />
      </feComponentTransfer>
      <feMerge>
        <feMergeNode />
        <feMergeNode in="SourceGraphic" />
      </feMerge>
    </filter>
    <path
      fill="none"
      stroke="#888888"
      stroke-opacity="1"
      stroke-width="5"
      stroke-linecap="butt"
      d="M 5.266496408691864 58.74999673359321 L -40 40 L -100.79952076929021 65.18398608842472 L -133.7499967335932 144.73350359130814 L -115 190 L -74.28301185539794 91.7004950023171 Z  M -100.79952076929021 65.18398608842472 L -146.06601717798208 83.93398282201787 L -171.2500032664068 144.73350359130814 L -138.29950499768302 224.2830118553979 L -93.03300858899115 243.03300858899104 L -133.7499967335932 144.73350359130814 Z  M -171.2500032664068 144.73350359130814 L -190 190 L -164.81601391157528 250.79952076929027 L -85.26649640869186 283.74999673359315 L -40 265 L -138.29950499768302 224.2830118553979 Z  M -164.81601391157528 250.79952076929027 L -146.06601717798208 296.06601717798213 L -85.26649640869186 321.25000326640685 L -5.716988144602169 288.2995049976829 L 13.033008588991038 243.0330085889911 L -85.26649640869186 283.74999673359315 Z  M -85.26649640869186 321.25000326640685 L -40 340 L 20.79952076929021 314.8160139115753 L 53.74999673359321 235.2664964086918 L 35 190 L -5.716988144602169 288.2995049976829 Z  M 20.79952076929021 314.8160139115753 L 66.06601717798208 296.06601717798213 L 91.2500032664068 235.2664964086918 L 58.29950499768279 155.71698814460217 L 13.033008588991038 136.96699141100896 L 53.74999673359321 235.2664964086918 Z  M 91.2500032664068 235.2664964086918 L 110 190 L 84.8160139115754 129.20047923070973 L 5.266496408691864 96.25000326640685 L -40 115 L 58.29950499768279 155.71698814460217 Z  M 84.8160139115754 129.20047923070973 L 66.06601717798219 83.93398282201792 L 5.266496408691864 58.74999673359321 L -74.28301185539794 91.7004950023171 L -93.03300858899115 136.96699141100896 L 5.266496408691864 96.25000326640685 Z "
    />
    <title>`P_8`.icon</title>
  </g>
  <g stroke-linejoin="round">
    <filter id="ngon__`P_7`.icon-shadow" x="0" y="0" width="200%" height="200%">
      <feOffset result="offOut" in="SourceAlpha" dx="5" dy="5" />
      <feGaussianBlur result="blurOut" in="offOut" stdDeviation="4" />
      <feBlend in="SourceGraphic" in2="blurOut" mode="normal" />
      <feComponentTransfer>
        <feFuncA type="linear" slope="0.5" />
      </feComponentTransfer>
      <feMerge>
        <feMergeNode />
        <feMergeNode in="SourceGraphic" />
      </feMerge>
    </filter>
    <path
      fill="none"
      stroke="#888888"
      stroke-opacity="1"
      stroke-width="5"
      stroke-linecap="butt"
      d="M -401.06522979663464 58.74999711904434 L -440 40 L -518.3399521668391 77.72653260214565 L -540.0632903873491 172.9027426916856 L -513.1195934136367 206.6890700467236 L -489.02126706944455 101.10740376434109 Z  M -518.3399521668391 77.72653260214565 L -557.2747223702045 96.47652972118999 L -576.6230927116158 181.24727899719323 L -515.755615124438 257.5726650926814 L -472.54128043381684 257.5726650926814 L -540.0632903873491 172.9027426916856 Z  M -576.6230927116158 181.24727899719323 L -586.2391868272734 223.37814009344714 L -532.026257841346 291.35900283032487 L -434.4024165398955 291.3589924477194 L -407.45871956618316 257.5726650926814 L -515.755615124438 257.5726650926814 Z  M -532.026257841346 291.35900283032487 L -505.0825608676337 325.14533018536287 L -418.1317738229875 325.14533018536287 L -357.2643124707056 248.8199311429775 L -366.8804065863633 206.6890700467236 L -434.4024165398955 291.3589924477194 Z  M -418.1317738229875 325.14533018536287 L -374.9174391323663 325.14533018536287 L -320.7045101464389 257.1644674484852 L -342.4278686115324 161.98826197963933 L -381.36263881489776 143.238264860595 L -357.2643124707056 248.8199311429775 Z  M -320.7045101464389 257.1644674484852 L -293.76081317272656 223.3781400934472 L -313.10918351413784 138.6073908174439 L -401.06522979663464 96.25000288095566 L -440 115 L -342.4278686115324 161.98826197963933 Z  M -313.10918351413784 138.6073908174439 L -322.7252776297955 96.47652972118999 L -401.06522979663464 58.74999711904434 L -489.02126706944455 101.10740376434109 L -498.63736118510224 143.238264860595 L -401.06522979663464 96.25000288095566 Z "
    />
    <title>`P_7`.icon</title>
  </g>
  <g stroke-linejoin="round">
    <filter
      id="ngon__`P_11`.icon-shadow"
      x="0"
      y="0"
      width="200%"
      height="200%"
    >
      <feOffset result="offOut" in="SourceAlpha" dx="5" dy="5" />
      <feGaussianBlur result="blurOut" in="offOut" stdDeviation="4" />
      <feBlend in="SourceGraphic" in2="blurOut" mode="normal" />
      <feComponentTransfer>
        <feFuncA type="linear" slope="0.5" />
      </feComponentTransfer>
      <feMerge>
        <feMergeNode />
        <feMergeNode in="SourceGraphic" />
      </feMerge>
    </filter>
    <path
      fill="none"
      stroke="#888888"
      stroke-opacity="1"
      stroke-width="5"
      stroke-linecap="butt"
      d="M -376.14337938128483 -291.25000443683086 L -440 -310 L -457.2395019996245 -304.9380254878463 L -498.7509966440225 -257.031180855799 L -508.22239965158883 -191.15612597514144 L -436.9654665475757 -273.3910105416778 Z  M -457.2395019996245 -304.9380254878463 L -521.0961226183397 -286.18802992467715 L -532.8622045415837 -272.60924752962217 L -541.8835004206983 -209.86463683776662 L -514.2366081410701 -149.3263871295036 L -498.7509966440225 -257.031180855799 Z  M -532.8622045415837 -272.60924752962217 L -576.4447993031777 -222.31225195028298 L -579.0018132745736 -204.52782913966485 L -552.6687126882161 -146.866422950431 L -496.6812180765694 -110.8854449541036 L -541.8835004206983 -209.86463683776662 Z  M -579.0018132745736 -204.52782913966485 L -588.4732162821399 -138.6527742590073 L -581.009328432767 -122.30913961647025 L -527.6824047563082 -88.03802697891274 L -461.1299417631071 -88.03802697891274 L -552.6687126882161 -146.866422950431 Z  M -581.009328432767 -122.30913961647025 L -553.3624361531388 -61.77088990820721 L -538.2473781378612 -52.05703195415276 L -474.85755284853985 -52.05704898258534 L -418.8700582368929 -88.03802697891274 L -527.6824047563082 -88.03802697891274 Z  M -538.2473781378612 -52.05703195415276 L -482.2598835262145 -16.076053957825366 L -464.2925794669866 -16.076053957825366 L -410.9656742030588 -50.34719524584057 L -383.3187819234306 -110.8854449541036 L -474.85755284853985 -52.05704898258534 Z  M -464.2925794669866 -16.076053957825366 L -397.7401164737855 -16.076053957825366 L -382.6250584585082 -25.789911911879813 L -356.2919888513634 -83.45133224884603 L -365.76339185892994 -149.3263871295036 L -410.9656742030588 -50.34719524584057 Z  M -382.6250584585082 -25.789911911879813 L -326.6375638468612 -61.77088990820721 L -319.1736759974883 -78.11452455074414 L -328.19500558681716 -140.85913039580225 L -371.77760034841117 -191.15612597514144 L -356.2919888513634 -83.45133224884603 Z  M -319.1736759974883 -78.11452455074414 L -291.5267837178601 -138.65277425900717 L -294.0837976892558 -156.4371970696253 L -335.5953180721151 -204.3440193991695 L -399.4519386908303 -223.09401496233863 L -328.19500558681716 -140.85913039580225 Z  M -294.0837976892558 -156.4371970696253 L -303.55520069682234 -222.31225195028287 L -315.3212826200663 -235.89103434533797 L -376.14337938128483 -253.74999556316914 L -440 -235 L -335.5953180721151 -204.3440193991695 Z  M -315.3212826200663 -235.89103434533797 L -358.9038773816603 -286.18802992467715 L -376.14337938128483 -291.25000443683086 L -436.9654665475757 -273.3910105416778 L -480.5480613091697 -223.09401496233863 L -376.14337938128483 -253.74999556316914 Z "
    />
    <title>`P_11`.icon</title>
  </g>
  <g stroke-linejoin="round">
    <filter id="ngon__`P_2`.icon-shadow" x="0" y="0" width="200%" height="200%">
      <feOffset result="offOut" in="SourceAlpha" dx="5" dy="5" />
      <feGaussianBlur result="blurOut" in="offOut" stdDeviation="4" />
      <feBlend in="SourceGraphic" in2="blurOut" mode="normal" />
      <feComponentTransfer>
        <feFuncA type="linear" slope="0.5" />
      </feComponentTransfer>
      <feMerge>
        <feMergeNode />
        <feMergeNode in="SourceGraphic" />
      </feMerge>
    </filter>
    <path
      fill="none"
      stroke="#888888"
      stroke-opacity="1"
      stroke-width="5"
      stroke-linecap="butt"
      d="M -829.1746832860279 408.7499985566244 L -840 390 L -959.0784938536938 596.2500014433756 L -764.2227780021949 596.2499985566245 L -775.048094716167 577.5 L -926.6025387117775 577.5 Z  M -959.0784938536938 596.2500014433756 L -969.9038105676659 615 L -731.7468228602788 615 L -829.1746832860279 446.2500014433756 L -840 465 L -764.2227780021949 596.2499985566245 Z  M -731.7468228602788 615 L -710.0961894323343 615.0000000000001 L -829.1746832860279 408.7499985566244 L -926.6025387117775 577.5 L -904.951905283833 577.5 L -829.1746832860279 446.2500014433756 Z "
    />
    <title>`P_2`.icon</title>
  </g>
  <g stroke-linejoin="round">
    <filter id="ngon__`P_1`.icon-shadow" x="0" y="0" width="200%" height="200%">
      <feOffset result="offOut" in="SourceAlpha" dx="5" dy="5" />
      <feGaussianBlur result="blurOut" in="offOut" stdDeviation="4" />
      <feBlend in="SourceGraphic" in2="blurOut" mode="normal" />
      <feComponentTransfer>
        <feFuncA type="linear" slope="0.5" />
      </feComponentTransfer>
      <feMerge>
        <feMergeNode />
        <feMergeNode in="SourceGraphic" />
      </feMerge>
    </filter>
    <path
      fill="none"
      stroke="#888888"
      stroke-opacity="1"
      stroke-width="5"
      stroke-linecap="butt"
      d="M 370.82531671397226 758.7499985566244 L 360 740 L 240.92150614630646 946.2500014433756 L 435.7772219978051 946.2499985566245 L 424.95190528383284 927.5 L 273.39746128822264 927.5 Z  M 240.92150614630646 946.2500014433756 L 230.0961894323342 965 L 468.2531771397214 965 L 370.82531671397226 796.2500014433756 L 360 815 L 435.7772219978051 946.2499985566245 Z  M 468.2531771397214 965 L 489.9038105676658 965 L 370.82531671397226 758.7499985566244 L 273.39746128822264 927.5 L 295.04809471616704 927.5 L 370.82531671397226 796.2500014433756 Z "
    />
    <title>`P_1`.icon</title>
  </g>
  <g stroke-linejoin="round">
    <filter id="ngon__`P_9`.icon-shadow" x="0" y="0" width="200%" height="200%">
      <feOffset result="offOut" in="SourceAlpha" dx="5" dy="5" />
      <feGaussianBlur result="blurOut" in="offOut" stdDeviation="4" />
      <feBlend in="SourceGraphic" in2="blurOut" mode="normal" />
      <feComponentTransfer>
        <feFuncA type="linear" slope="0.5" />
      </feComponentTransfer>
      <feMerge>
        <feMergeNode />
        <feMergeNode in="SourceGraphic" />
      </feMerge>
    </filter>
    <path
      fill="none"
      stroke="#888888"
      stroke-opacity="1"
      stroke-width="5"
      stroke-linecap="butt"
      d="M 411.51519157341795 58.74999634524522 L 360 40 L 315.0970501204371 56.34333718690806 L 276.6197958932231 122.98792391895569 L 286.13941852408436 176.97638667498023 L 339.2015901821444 85.07000940327896 Z  M 315.0970501204371 56.34333718690806 L 263.5818585470191 75.09333353215328 L 239.68949795680373 116.47611598716276 L 253.05252577361034 192.26153358922068 L 295.04809471616704 227.5 L 276.6197958932231 122.98792391895569 Z  M 239.68949795680373 116.47611598716276 L 212.27883704816884 163.95277334996047 L 220.57656680147295 211.01153724397545 L 279.52716743330507 260.47694655894315 L 334.34848925057486 260.47694655894315 L 253.05252577361034 192.26153358922068 Z  M 220.57656680147295 211.01153724397545 L 230.0961894323342 265 L 266.701409558593 295.71542670710693 L 343.65594180686844 295.7154129697225 L 385.65151074942514 260.47694655894315 L 279.52716743330507 260.47694655894315 Z  M 266.701409558593 295.71542670710693 L 308.6969785011497 330.95389311788625 L 356.4816996815805 330.95389311788625 L 415.4322826529716 281.4884627560246 L 424.95190528383284 227.50000000000006 L 343.65594180686844 295.7154129697225 Z  M 356.4816996815805 330.95389311788625 L 411.3030214988503 330.95389311788625 L 447.9082416251091 300.23846641077944 L 461.27124238455053 224.45304403777794 L 433.86058147591564 176.97638667498023 L 415.4322826529716 281.4884627560246 Z  M 447.9082416251091 300.23846641077944 L 489.9038105676658 265.00000000000006 L 498.2015403209699 217.94123610598507 L 459.7242622999084 151.2966631113219 L 408.2090707264905 132.54666676607667 L 461.27124238455053 224.45304403777794 Z  M 498.2015403209699 217.94123610598507 L 507.7211629518312 163.95277334996052 L 483.8288023616158 122.56999089495105 L 411.51519157341795 96.25000365475478 L 360 115 L 459.7242622999084 151.2966631113219 Z  M 483.8288023616158 122.56999089495105 L 456.41814145298093 75.09333353215334 L 411.51519157341795 58.74999634524522 L 339.2015901821444 85.07000940327896 L 311.7909292735095 132.54666676607667 L 411.51519157341795 96.25000365475478 Z "
    />
    <title>`P_9`.icon</title>
  </g>
  <g stroke-linejoin="round">
    <filter id="ngon__`P_6`.icon-shadow" x="0" y="0" width="200%" height="200%">
      <feOffset result="offOut" in="SourceAlpha" dx="5" dy="5" />
      <feGaussianBlur result="blurOut" in="offOut" stdDeviation="4" />
      <feBlend in="SourceGraphic" in2="blurOut" mode="normal" />
      <feComponentTransfer>
        <feFuncA type="linear" slope="0.5" />
      </feComponentTransfer>
      <feMerge>
        <feMergeNode />
        <feMergeNode in="SourceGraphic" />
      </feMerge>
    </filter>
    <path
      fill="none"
      stroke="#888888"
      stroke-opacity="1"
      stroke-width="5"
      stroke-linecap="butt"
      d="M -807.52405168821 58.74999750000029 L -840 40 L -937.4278622558759 96.25000249999971 L -937.427853595623 208.7500024999997 L -904.951905283833 227.5 L -904.951905283833 115.00000499999936 Z  M -937.4278622558759 96.25000249999971 L -969.9038105676659 115 L -969.9038105676659 227.50000499999936 L -872.47594831179 283.7499975000003 L -840 265 L -937.427853595623 208.7500024999997 Z  M -969.9038105676659 227.50000499999936 L -969.9038105676659 265 L -872.47594831179 321.2500024999997 L -775.048094716167 264.9999950000007 L -775.048094716167 227.50000000000006 L -872.47594831179 283.7499975000003 Z  M -872.47594831179 321.2500024999997 L -840 340 L -742.5721377441243 283.74999750000035 L -742.572146404377 171.2499975000003 L -775.048094716167 152.5 L -775.048094716167 264.9999950000007 Z  M -742.5721377441243 283.74999750000035 L -710.0961894323343 265.00000000000006 L -710.0961894323341 152.49999500000064 L -807.52405168821 96.25000249999971 L -840 115 L -742.572146404377 171.2499975000003 Z  M -710.0961894323341 152.49999500000064 L -710.0961894323341 115 L -807.52405168821 58.74999750000029 L -904.951905283833 115.00000499999936 L -904.951905283833 152.5 L -807.52405168821 96.25000249999971 Z "
    />
    <title>`P_6`.icon</title>
  </g>
  <g style="filter: drop-shadow(0px 50px 20px #0008)">
    <g>
      <filter
        id="ngon__logo.pentagon-shadow"
        x="0"
        y="0"
        width="200%"
        height="200%"
      >
        <feOffset result="offOut" in="SourceAlpha" dx="5" dy="5" />
        <feGaussianBlur result="blurOut" in="offOut" stdDeviation="4" />
        <feBlend in="SourceGraphic" in2="blurOut" mode="normal" />
        <feComponentTransfer>
          <feFuncA type="linear" slope="0.5" />
        </feComponentTransfer>
        <feMerge>
          <feMergeNode />
          <feMergeNode in="SourceGraphic" />
        </feMerge>
      </filter>
      <path
        fill="#3fb4f7"
        fill-opacity="0.7333333333333333"
        stroke="#555555"
        stroke-opacity="1"
        stroke-width="6"
        stroke-linecap="butt"
        d="M 1038.2817162908466 186.87499605055012 L 960 130 L 705.4119355875428 314.96905591821826 L 791.234783863333 579.104581810931 L 887.996306594172 579.104581810931 L 813.5946218284166 350.11974146926286 Z  M 705.4119355875428 314.96905591821826 L 627.1302192966963 371.8440519687684 L 724.3742067722073 671.1302713114255 L 1002.1027384804008 671.1302585307371 L 1032.003693405828 579.104581810931 L 791.234783863333 579.104581810931 Z  M 724.3742067722073 671.1302713114255 L 754.2751616976343 763.1559480312316 L 1068.9633155715264 763.1559480312317 L 1154.7861395370028 499.0204142396191 L 1076.5044232461564 442.145418189069 L 1002.1027384804008 671.1302585307371 Z  M 1068.9633155715264 763.1559480312317 L 1165.7248383023655 763.1559480312317 L 1262.9688257778766 463.8697286885745 L 1038.2817162908466 300.62500394944993 L 960 357.5 L 1154.7861395370028 499.0204142396191 Z  M 1262.9688257778766 463.8697286885745 L 1292.8697807033038 371.84405196876844 L 1038.2817162908466 186.87499605055012 L 813.5946218284166 350.11974146926286 L 843.4955767538437 442.14541818906895 L 1038.2817162908466 300.62500394944993 Z "
      />
      <title>logo.pentagon</title>
    </g>
    <text
      fill="#ffffff"
      fill-opacity="1"
      stroke="#555555"
      stroke-opacity="1"
      stroke-width="12"
      transform="rotate(0, 960, 855)"
      style="
        font:
          condensed 600 172px HelveticaNeue-CondensedBold,
          Helvetica,
          Arial,
          Geneva,
          Tahoma,
          sans-serif;
      "
      x="960"
      y="913.5"
      width="684.103515625"
      height="121"
      font-size-adjust=""
      alignment-baseline="alphabetic"
      dominant-baseline="alphabetic"
      ascent="119"
      descent="2"
      text-anchor="middle"
      visibility=""
      paint-order="stroke"
    >
      <title>logo.labelText</title>
      Penrose
    </text>
    <title>logo.icon</title>
  </g>
  <g>
    <clipPath id="ngon__registry3:0:mask-clip">
      <polygon
        fill="#c63a39"
        fill-opacity="0.5"
        stroke="none"
        transform="scale(1)"
        points="960,130,1292.8697807033036,371.8440519687684,1165.7248383023657,763.1559480312316,754.2751616976344,763.1559480312317,627.1302192966962,371.84405196876844"
      >
        <title>3:0:mask</title>
      </polygon>
    </clipPath>
    <g clip-path="url(#ngon__registry3:0:mask-clip)">
      <g style="filter: blur(10px)">
        <filter
          id="ngon__`P_3`.glow-shadow"
          x="0"
          y="0"
          width="200%"
          height="200%"
        >
          <feOffset result="offOut" in="SourceAlpha" dx="5" dy="5" />
          <feGaussianBlur result="blurOut" in="offOut" stdDeviation="4" />
          <feBlend in="SourceGraphic" in2="blurOut" mode="normal" />
          <feComponentTransfer>
            <feFuncA type="linear" slope="0.5" />
          </feComponentTransfer>
          <feMerge>
            <feMergeNode />
            <feMergeNode in="SourceGraphic" />
          </feMerge>
        </filter>
        <path
          fill="none"
          stroke="#ffffff"
          stroke-opacity="0.7333333333333333"
          stroke-width="5"
          stroke-linecap="butt"
          d="M -429.17468328602786 408.7499985566244 L -440 390 L -559.0784938536938 596.2500014433756 L -364.2227780021949 596.2499985566245 L -375.04809471616704 577.5 L -526.6025387117775 577.5 Z  M -559.0784938536938 596.2500014433756 L -569.9038105676659 615 L -331.7468228602788 615 L -429.17468328602786 446.2500014433756 L -440 465 L -364.2227780021949 596.2499985566245 Z  M -331.7468228602788 615 L -310.0961894323343 615.0000000000001 L -429.17468328602786 408.7499985566244 L -526.6025387117775 577.5 L -504.95190528383296 577.5 L -429.17468328602786 446.2500014433756 Z "
        />
        <title>`P_3`.glow</title>
      </g>
    </g>
    <g clip-path="url(#ngon__registry3:0:mask-clip)">
      <g style="filter: blur(10px)">
        <filter
          id="ngon__`P_5`.glow-shadow"
          x="0"
          y="0"
          width="200%"
          height="200%"
        >
          <feOffset result="offOut" in="SourceAlpha" dx="5" dy="5" />
          <feGaussianBlur result="blurOut" in="offOut" stdDeviation="4" />
          <feBlend in="SourceGraphic" in2="blurOut" mode="normal" />
          <feComponentTransfer>
            <feFuncA type="linear" slope="0.5" />
          </feComponentTransfer>
          <feMerge>
            <feMergeNode />
            <feMergeNode in="SourceGraphic" />
          </feMerge>
        </filter>
        <path
          fill="none"
          stroke="#ffffff"
          stroke-opacity="0.7333333333333333"
          stroke-width="5"
          stroke-linecap="butt"
          d="M 385.8071580817839 408.7499978733732 L 360 390 L 243.1486806375109 474.8974529703847 L 284.0167043828966 600.676274578121 L 315.91610607806456 600.676274578121 L 278.8133040436635 486.4855915737728 Z  M 243.1486806375109 474.8974529703847 L 217.341522555727 493.6474508437579 L 261.97475492192905 631.014415308136 L 394.2264366877355 631.0144084262272 L 404.08389392193544 600.676274578121 L 284.0167043828966 600.676274578121 Z  M 261.97475492192905 631.014415308136 L 271.832212156129 661.352549156242 L 416.26838614870303 661.3525491562422 L 457.13639680392043 535.5737232952522 L 431.32923872213655 516.823725421879 L 394.2264366877355 631.0144084262272 Z  M 416.26838614870303 661.3525491562422 L 448.16778784387094 661.3525491562422 L 492.80102021007315 523.985584691864 L 385.8071580817839 446.2500021266268 L 360 465 L 457.13639680392043 535.5737232952522 Z  M 492.80102021007315 523.985584691864 L 502.65847744427305 493.6474508437579 L 385.8071580817839 408.7499978733732 L 278.8133040436635 486.4855915737728 L 288.67076127786345 516.823725421879 L 385.8071580817839 446.2500021266268 Z "
        />
        <title>`P_5`.glow</title>
      </g>
    </g>
    <g clip-path="url(#ngon__registry3:0:mask-clip)">
      <g style="filter: blur(10px)">
        <filter
          id="ngon__`P_4`.glow-shadow"
          x="0"
          y="0"
          width="200%"
          height="200%"
        >
          <feOffset result="offOut" in="SourceAlpha" dx="5" dy="5" />
          <feGaussianBlur result="blurOut" in="offOut" stdDeviation="4" />
          <feBlend in="SourceGraphic" in2="blurOut" mode="normal" />
          <feComponentTransfer>
            <feFuncA type="linear" slope="0.5" />
          </feComponentTransfer>
          <feMerge>
            <feMergeNode />
            <feMergeNode in="SourceGraphic" />
          </feMerge>
        </filter>
        <path
          fill="none"
          stroke="#ffffff"
          stroke-opacity="0.7333333333333333"
          stroke-width="5"
          stroke-linecap="butt"
          d="M -21.250001767766776 408.7499982322332 L -40 390 L -171.2500017677669 521.2500017677668 L -58.749998232233224 633.7499982322332 L -40 615 L -133.7499982322331 521.2500017677668 Z  M -171.2500017677669 521.2500017677668 L -190 540 L -58.749998232233224 671.2500017677668 L 53.749998232233224 558.7499982322332 L 35 540 L -58.749998232233224 633.7499982322332 Z  M -58.749998232233224 671.2500017677668 L -40 690 L 91.25000176776678 558.7499982322332 L -21.250001767766776 446.2500017677668 L -40 465 L 53.749998232233224 558.7499982322332 Z  M 91.25000176776678 558.7499982322332 L 110 540 L -21.250001767766776 408.7499982322332 L -133.7499982322331 521.2500017677668 L -115 540 L -21.250001767766776 446.2500017677668 Z "
        />
        <title>`P_4`.glow</title>
      </g>
    </g>
    <g clip-path="url(#ngon__registry3:0:mask-clip)">
      <g style="filter: blur(10px)">
        <filter
          id="ngon__`P_12`.glow-shadow"
          x="0"
          y="0"
          width="200%"
          height="200%"
        >
          <feOffset result="offOut" in="SourceAlpha" dx="5" dy="5" />
          <feGaussianBlur result="blurOut" in="offOut" stdDeviation="4" />
          <feBlend in="SourceGraphic" in2="blurOut" mode="normal" />
          <feComponentTransfer>
            <feFuncA type="linear" slope="0.5" />
          </feComponentTransfer>
          <feMerge>
            <feMergeNode />
            <feMergeNode in="SourceGraphic" />
          </feMerge>
        </filter>
        <path
          fill="none"
          stroke="#ffffff"
          stroke-opacity="0.7333333333333333"
          stroke-width="5"
          stroke-linecap="butt"
          d="M 29.975934617499775 -291.25000482962776 L -40 -310 L -45.024065382500225 -308.6538057380378 L -86.20191011346105 -267.4759346174998 L -104.95190528383296 -197.5 L -26.274060552872356 -276.1778447309606 Z  M -45.024065382500225 -308.6538057380378 L -115 -289.9038105676658 L -118.67787112053816 -286.22593944712764 L -133.7499951703719 -229.97593461749977 L -115 -160 L -86.20191011346105 -267.4759346174998 Z  M -118.67787112053816 -286.22593944712764 L -169.90381056766591 -235 L -171.2500048296281 -229.97593461749977 L -156.17784473096071 -173.72593944712764 L -104.95190528383296 -122.5 L -133.7499951703719 -229.97593461749977 Z  M -171.2500048296281 -229.97593461749977 L -190 -160 L -188.65380573803782 -154.97593461749977 L -147.4759346174999 -113.79808988653906 L -77.5 -95.04809471616704 L -156.17784473096071 -173.72593944712764 Z  M -188.65380573803782 -154.97593461749977 L -169.90381056766591 -85 L -166.22593944712776 -81.32212887946184 L -109.97593461749989 -66.25000482962798 L -40 -85 L -147.4759346174999 -113.79808988653906 Z  M -166.22593944712776 -81.32212887946184 L -115 -30.0961894323342 L -109.97593461749989 -28.749995170372017 L -53.72593944712753 -43.822155269039285 L -2.5 -95.04809471616704 L -109.97593461749989 -66.25000482962798 Z  M -109.97593461749989 -28.749995170372017 L -40 -10 L -34.975934617499775 -11.346194261962182 L 6.201910113460599 -52.524065382500225 L 24.951905283832843 -122.5 L -53.72593944712753 -43.822155269039285 Z  M -34.975934617499775 -11.346194261962182 L 35 -30.0961894323342 L 38.67787112053827 -33.77406055287213 L 53.74999517037202 -90.02406538250023 L 35 -160 L 6.201910113460599 -52.524065382500225 Z  M 38.67787112053827 -33.77406055287213 L 89.9038105676658 -84.99999999999989 L 91.25000482962776 -90.02406538250023 L 76.17784473096071 -146.27406055287247 L 24.951905283832957 -197.5 L 53.74999517037202 -90.02406538250023 Z  M 91.25000482962776 -90.02406538250023 L 110 -160 L 108.65380573803782 -165.02406538250023 L 67.47593461749977 -206.2019101134606 L -2.5 -224.95190528383284 L 76.17784473096071 -146.27406055287247 Z  M 108.65380573803782 -165.02406538250023 L 89.9038105676658 -235 L 86.22593944712787 -238.67787112053816 L 29.975934617499775 -253.74999517037202 L -40 -235 L 67.47593461749977 -206.2019101134606 Z  M 86.22593944712787 -238.67787112053816 L 35.000000000000114 -289.9038105676657 L 29.975934617499775 -291.25000482962776 L -26.274060552872356 -276.1778447309606 L -77.5 -224.95190528383296 L 29.975934617499775 -253.74999517037202 Z "
        />
        <title>`P_12`.glow</title>
      </g>
    </g>
    <g clip-path="url(#ngon__registry3:0:mask-clip)">
      <g style="filter: blur(10px)">
        <filter
          id="ngon__`P_10`.glow-shadow"
          x="0"
          y="0"
          width="200%"
          height="200%"
        >
          <feOffset result="offOut" in="SourceAlpha" dx="5" dy="5" />
          <feGaussianBlur result="blurOut" in="offOut" stdDeviation="4" />
          <feBlend in="SourceGraphic" in2="blurOut" mode="normal" />
          <feComponentTransfer>
            <feFuncA type="linear" slope="0.5" />
          </feComponentTransfer>
          <feMerge>
            <feMergeNode />
            <feMergeNode in="SourceGraphic" />
          </feMerge>
        </filter>
        <path
          fill="none"
          stroke="#ffffff"
          stroke-opacity="0.7333333333333333"
          stroke-width="5"
          stroke-linecap="butt"
          d="M -782.2934461274529 -291.2500040450841 L -840 -310 L -870.4612339713237 -300.10254511115807 L -911.3292387221366 -243.852536066075 L -911.3292387221366 -183.17627457812102 L -848.4192822550742 -269.7644012770138 Z  M -870.4612339713237 -300.10254511115807 L -928.1677878438709 -281.35254915624216 L -946.9938657774119 -255.44067585513494 L -946.9938503889978 -185.91185212077175 L -911.3292387221366 -136.82372542187898 L -911.3292387221366 -243.852536066075 Z  M -946.9938657774119 -255.44067585513494 L -982.6584774442731 -206.35254915624216 L -982.6584774442731 -174.32371233171193 L -941.7904477944826 -118.07372137679488 L -884.0838939219354 -99.32372542187898 L -946.9938503889978 -185.91185212077175 Z  M -982.6584774442731 -174.32371233171193 L -982.6584774442731 -113.64745084375795 L -963.8323995107321 -87.73557754265073 L -897.7065538725471 -66.2500040450841 L -840 -85 L -941.7904477944826 -118.07372137679488 Z  M -963.8323995107321 -87.73557754265073 L -928.1677878438709 -38.64745084375795 L -897.7065538725471 -28.749995954915903 L -831.5807177449258 -50.2355987229862 L -795.9161060780646 -99.32372542187898 L -897.7065538725471 -66.2500040450841 Z  M -897.7065538725471 -28.749995954915903 L -840 -10 L -809.5387660286763 -19.897454888841935 L -768.6707612778634 -76.147463933925 L -768.6707612778634 -136.82372542187898 L -831.5807177449258 -50.2355987229862 Z  M -809.5387660286763 -19.897454888841935 L -751.8322121561291 -38.64745084375784 L -733.0061342225881 -64.55932414486506 L -733.0061496110022 -134.08814787922825 L -768.6707612778634 -183.17627457812102 L -768.6707612778634 -76.147463933925 Z  M -733.0061342225881 -64.55932414486506 L -697.3415225557269 -113.64745084375784 L -697.3415225557269 -145.67628766828807 L -738.2095522055174 -201.92627862320512 L -795.9161060780646 -220.67627457812102 L -733.0061496110022 -134.08814787922825 Z  M -697.3415225557269 -145.67628766828807 L -697.3415225557269 -206.35254915624205 L -716.1676004892679 -232.26442245734927 L -782.2934461274529 -253.7499959549159 L -840 -235 L -738.2095522055174 -201.92627862320512 Z  M -716.1676004892679 -232.26442245734927 L -751.8322121561291 -281.35254915624205 L -782.2934461274529 -291.2500040450841 L -848.4192822550742 -269.7644012770138 L -884.0838939219354 -220.67627457812102 L -782.2934461274529 -253.7499959549159 Z "
        />
        <title>`P_10`.glow</title>
      </g>
    </g>
    <g clip-path="url(#ngon__registry3:0:mask-clip)">
      <g style="filter: blur(10px)">
        <filter
          id="ngon__`P_1`.glow-shadow"
          x="0"
          y="0"
          width="200%"
          height="200%"
        >
          <feOffset result="offOut" in="SourceAlpha" dx="5" dy="5" />
          <feGaussianBlur result="blurOut" in="offOut" stdDeviation="4" />
          <feBlend in="SourceGraphic" in2="blurOut" mode="normal" />
          <feComponentTransfer>
            <feFuncA type="linear" slope="0.5" />
          </feComponentTransfer>
          <feMerge>
            <feMergeNode />
            <feMergeNode in="SourceGraphic" />
          </feMerge>
        </filter>
        <path
          fill="none"
          stroke="#ffffff"
          stroke-opacity="0.7333333333333333"
          stroke-width="5"
          stroke-linecap="butt"
          d="M 370.82531671397226 758.7499985566244 L 360 740 L 240.92150614630646 946.2500014433756 L 435.7772219978051 946.2499985566245 L 424.95190528383284 927.5 L 273.39746128822264 927.5 Z  M 240.92150614630646 946.2500014433756 L 230.0961894323342 965 L 468.2531771397214 965 L 370.82531671397226 796.2500014433756 L 360 815 L 435.7772219978051 946.2499985566245 Z  M 468.2531771397214 965 L 489.9038105676658 965 L 370.82531671397226 758.7499985566244 L 273.39746128822264 927.5 L 295.04809471616704 927.5 L 370.82531671397226 796.2500014433756 Z "
        />
        <title>`P_1`.glow</title>
      </g>
    </g>
    <g clip-path="url(#ngon__registry3:0:mask-clip)">
      <g style="filter: blur(10px)">
        <filter
          id="ngon__`P_2`.glow-shadow"
          x="0"
          y="0"
          width="200%"
          height="200%"
        >
          <feOffset result="offOut" in="SourceAlpha" dx="5" dy="5" />
          <feGaussianBlur result="blurOut" in="offOut" stdDeviation="4" />
          <feBlend in="SourceGraphic" in2="blurOut" mode="normal" />
          <feComponentTransfer>
            <feFuncA type="linear" slope="0.5" />
          </feComponentTransfer>
          <feMerge>
            <feMergeNode />
            <feMergeNode in="SourceGraphic" />
          </feMerge>
        </filter>
        <path
          fill="none"
          stroke="#ffffff"
          stroke-opacity="0.7333333333333333"
          stroke-width="5"
          stroke-linecap="butt"
          d="M -829.1746832860279 408.7499985566244 L -840 390 L -959.0784938536938 596.2500014433756 L -764.2227780021949 596.2499985566245 L -775.048094716167 577.5 L -926.6025387117775 577.5 Z  M -959.0784938536938 596.2500014433756 L -969.9038105676659 615 L -731.7468228602788 615 L -829.1746832860279 446.2500014433756 L -840 465 L -764.2227780021949 596.2499985566245 Z  M -731.7468228602788 615 L -710.0961894323343 615.0000000000001 L -829.1746832860279 408.7499985566244 L -926.6025387117775 577.5 L -904.951905283833 577.5 L -829.1746832860279 446.2500014433756 Z "
        />
        <title>`P_2`.glow</title>
      </g>
    </g>
    <g clip-path="url(#ngon__registry3:0:mask-clip)">
      <g style="filter: blur(10px)">
        <filter
          id="ngon__`P_6`.glow-shadow"
          x="0"
          y="0"
          width="200%"
          height="200%"
        >
          <feOffset result="offOut" in="SourceAlpha" dx="5" dy="5" />
          <feGaussianBlur result="blurOut" in="offOut" stdDeviation="4" />
          <feBlend in="SourceGraphic" in2="blurOut" mode="normal" />
          <feComponentTransfer>
            <feFuncA type="linear" slope="0.5" />
          </feComponentTransfer>
          <feMerge>
            <feMergeNode />
            <feMergeNode in="SourceGraphic" />
          </feMerge>
        </filter>
        <path
          fill="none"
          stroke="#ffffff"
          stroke-opacity="0.7333333333333333"
          stroke-width="5"
          stroke-linecap="butt"
          d="M -807.52405168821 58.74999750000029 L -840 40 L -937.4278622558759 96.25000249999971 L -937.427853595623 208.7500024999997 L -904.951905283833 227.5 L -904.951905283833 115.00000499999936 Z  M -937.4278622558759 96.25000249999971 L -969.9038105676659 115 L -969.9038105676659 227.50000499999936 L -872.47594831179 283.7499975000003 L -840 265 L -937.427853595623 208.7500024999997 Z  M -969.9038105676659 227.50000499999936 L -969.9038105676659 265 L -872.47594831179 321.2500024999997 L -775.048094716167 264.9999950000007 L -775.048094716167 227.50000000000006 L -872.47594831179 283.7499975000003 Z  M -872.47594831179 321.2500024999997 L -840 340 L -742.5721377441243 283.74999750000035 L -742.572146404377 171.2499975000003 L -775.048094716167 152.5 L -775.048094716167 264.9999950000007 Z  M -742.5721377441243 283.74999750000035 L -710.0961894323343 265.00000000000006 L -710.0961894323341 152.49999500000064 L -807.52405168821 96.25000249999971 L -840 115 L -742.572146404377 171.2499975000003 Z  M -710.0961894323341 152.49999500000064 L -710.0961894323341 115 L -807.52405168821 58.74999750000029 L -904.951905283833 115.00000499999936 L -904.951905283833 152.5 L -807.52405168821 96.25000249999971 Z "
        />
        <title>`P_6`.glow</title>
      </g>
    </g>
    <g clip-path="url(#ngon__registry3:0:mask-clip)">
      <g style="filter: blur(10px)">
        <filter
          id="ngon__`P_7`.glow-shadow"
          x="0"
          y="0"
          width="200%"
          height="200%"
        >
          <feOffset result="offOut" in="SourceAlpha" dx="5" dy="5" />
          <feGaussianBlur result="blurOut" in="offOut" stdDeviation="4" />
          <feBlend in="SourceGraphic" in2="blurOut" mode="normal" />
          <feComponentTransfer>
            <feFuncA type="linear" slope="0.5" />
          </feComponentTransfer>
          <feMerge>
            <feMergeNode />
            <feMergeNode in="SourceGraphic" />
          </feMerge>
        </filter>
        <path
          fill="none"
          stroke="#ffffff"
          stroke-opacity="0.7333333333333333"
          stroke-width="5"
          stroke-linecap="butt"
          d="M -401.06522979663464 58.74999711904434 L -440 40 L -518.3399521668391 77.72653260214565 L -540.0632903873491 172.9027426916856 L -513.1195934136367 206.6890700467236 L -489.02126706944455 101.10740376434109 Z  M -518.3399521668391 77.72653260214565 L -557.2747223702045 96.47652972118999 L -576.6230927116158 181.24727899719323 L -515.755615124438 257.5726650926814 L -472.54128043381684 257.5726650926814 L -540.0632903873491 172.9027426916856 Z  M -576.6230927116158 181.24727899719323 L -586.2391868272734 223.37814009344714 L -532.026257841346 291.35900283032487 L -434.4024165398955 291.3589924477194 L -407.45871956618316 257.5726650926814 L -515.755615124438 257.5726650926814 Z  M -532.026257841346 291.35900283032487 L -505.0825608676337 325.14533018536287 L -418.1317738229875 325.14533018536287 L -357.2643124707056 248.8199311429775 L -366.8804065863633 206.6890700467236 L -434.4024165398955 291.3589924477194 Z  M -418.1317738229875 325.14533018536287 L -374.9174391323663 325.14533018536287 L -320.7045101464389 257.1644674484852 L -342.4278686115324 161.98826197963933 L -381.36263881489776 143.238264860595 L -357.2643124707056 248.8199311429775 Z  M -320.7045101464389 257.1644674484852 L -293.76081317272656 223.3781400934472 L -313.10918351413784 138.6073908174439 L -401.06522979663464 96.25000288095566 L -440 115 L -342.4278686115324 161.98826197963933 Z  M -313.10918351413784 138.6073908174439 L -322.7252776297955 96.47652972118999 L -401.06522979663464 58.74999711904434 L -489.02126706944455 101.10740376434109 L -498.63736118510224 143.238264860595 L -401.06522979663464 96.25000288095566 Z "
        />
        <title>`P_7`.glow</title>
      </g>
    </g>
    <g clip-path="url(#ngon__registry3:0:mask-clip)">
      <g style="filter: blur(10px)">
        <filter
          id="ngon__`P_8`.glow-shadow"
          x="0"
          y="0"
          width="200%"
          height="200%"
        >
          <feOffset result="offOut" in="SourceAlpha" dx="5" dy="5" />
          <feGaussianBlur result="blurOut" in="offOut" stdDeviation="4" />
          <feBlend in="SourceGraphic" in2="blurOut" mode="normal" />
          <feComponentTransfer>
            <feFuncA type="linear" slope="0.5" />
          </feComponentTransfer>
          <feMerge>
            <feMergeNode />
            <feMergeNode in="SourceGraphic" />
          </feMerge>
        </filter>
        <path
          fill="none"
          stroke="#ffffff"
          stroke-opacity="0.7333333333333333"
          stroke-width="5"
          stroke-linecap="butt"
          d="M 5.266496408691864 58.74999673359321 L -40 40 L -100.79952076929021 65.18398608842472 L -133.7499967335932 144.73350359130814 L -115 190 L -74.28301185539794 91.7004950023171 Z  M -100.79952076929021 65.18398608842472 L -146.06601717798208 83.93398282201787 L -171.2500032664068 144.73350359130814 L -138.29950499768302 224.2830118553979 L -93.03300858899115 243.03300858899104 L -133.7499967335932 144.73350359130814 Z  M -171.2500032664068 144.73350359130814 L -190 190 L -164.81601391157528 250.79952076929027 L -85.26649640869186 283.74999673359315 L -40 265 L -138.29950499768302 224.2830118553979 Z  M -164.81601391157528 250.79952076929027 L -146.06601717798208 296.06601717798213 L -85.26649640869186 321.25000326640685 L -5.716988144602169 288.2995049976829 L 13.033008588991038 243.0330085889911 L -85.26649640869186 283.74999673359315 Z  M -85.26649640869186 321.25000326640685 L -40 340 L 20.79952076929021 314.8160139115753 L 53.74999673359321 235.2664964086918 L 35 190 L -5.716988144602169 288.2995049976829 Z  M 20.79952076929021 314.8160139115753 L 66.06601717798208 296.06601717798213 L 91.2500032664068 235.2664964086918 L 58.29950499768279 155.71698814460217 L 13.033008588991038 136.96699141100896 L 53.74999673359321 235.2664964086918 Z  M 91.2500032664068 235.2664964086918 L 110 190 L 84.8160139115754 129.20047923070973 L 5.266496408691864 96.25000326640685 L -40 115 L 58.29950499768279 155.71698814460217 Z  M 84.8160139115754 129.20047923070973 L 66.06601717798219 83.93398282201792 L 5.266496408691864 58.74999673359321 L -74.28301185539794 91.7004950023171 L -93.03300858899115 136.96699141100896 L 5.266496408691864 96.25000326640685 Z "
        />
        <title>`P_8`.glow</title>
      </g>
    </g>
    <g clip-path="url(#ngon__registry3:0:mask-clip)">
      <g style="filter: blur(10px)">
        <filter
          id="ngon__`P_9`.glow-shadow"
          x="0"
          y="0"
          width="200%"
          height="200%"
        >
          <feOffset result="offOut" in="SourceAlpha" dx="5" dy="5" />
          <feGaussianBlur result="blurOut" in="offOut" stdDeviation="4" />
          <feBlend in="SourceGraphic" in2="blurOut" mode="normal" />
          <feComponentTransfer>
            <feFuncA type="linear" slope="0.5" />
          </feComponentTransfer>
          <feMerge>
            <feMergeNode />
            <feMergeNode in="SourceGraphic" />
          </feMerge>
        </filter>
        <path
          fill="none"
          stroke="#ffffff"
          stroke-opacity="0.7333333333333333"
          stroke-width="5"
          stroke-linecap="butt"
          d="M 411.51519157341795 58.74999634524522 L 360 40 L 315.0970501204371 56.34333718690806 L 276.6197958932231 122.98792391895569 L 286.13941852408436 176.97638667498023 L 339.2015901821444 85.07000940327896 Z  M 315.0970501204371 56.34333718690806 L 263.5818585470191 75.09333353215328 L 239.68949795680373 116.47611598716276 L 253.05252577361034 192.26153358922068 L 295.04809471616704 227.5 L 276.6197958932231 122.98792391895569 Z  M 239.68949795680373 116.47611598716276 L 212.27883704816884 163.95277334996047 L 220.57656680147295 211.01153724397545 L 279.52716743330507 260.47694655894315 L 334.34848925057486 260.47694655894315 L 253.05252577361034 192.26153358922068 Z  M 220.57656680147295 211.01153724397545 L 230.0961894323342 265 L 266.701409558593 295.71542670710693 L 343.65594180686844 295.7154129697225 L 385.65151074942514 260.47694655894315 L 279.52716743330507 260.47694655894315 Z  M 266.701409558593 295.71542670710693 L 308.6969785011497 330.95389311788625 L 356.4816996815805 330.95389311788625 L 415.4322826529716 281.4884627560246 L 424.95190528383284 227.50000000000006 L 343.65594180686844 295.7154129697225 Z  M 356.4816996815805 330.95389311788625 L 411.3030214988503 330.95389311788625 L 447.9082416251091 300.23846641077944 L 461.27124238455053 224.45304403777794 L 433.86058147591564 176.97638667498023 L 415.4322826529716 281.4884627560246 Z  M 447.9082416251091 300.23846641077944 L 489.9038105676658 265.00000000000006 L 498.2015403209699 217.94123610598507 L 459.7242622999084 151.2966631113219 L 408.2090707264905 132.54666676607667 L 461.27124238455053 224.45304403777794 Z  M 498.2015403209699 217.94123610598507 L 507.7211629518312 163.95277334996052 L 483.8288023616158 122.56999089495105 L 411.51519157341795 96.25000365475478 L 360 115 L 459.7242622999084 151.2966631113219 Z  M 483.8288023616158 122.56999089495105 L 456.41814145298093 75.09333353215334 L 411.51519157341795 58.74999634524522 L 339.2015901821444 85.07000940327896 L 311.7909292735095 132.54666676607667 L 411.51519157341795 96.25000365475478 Z "
        />
        <title>`P_9`.glow</title>
      </g>
    </g>
    <g clip-path="url(#ngon__registry3:0:mask-clip)">
      <g style="filter: blur(10px)">
        <filter
          id="ngon__`P_11`.glow-shadow"
          x="0"
          y="0"
          width="200%"
          height="200%"
        >
          <feOffset result="offOut" in="SourceAlpha" dx="5" dy="5" />
          <feGaussianBlur result="blurOut" in="offOut" stdDeviation="4" />
          <feBlend in="SourceGraphic" in2="blurOut" mode="normal" />
          <feComponentTransfer>
            <feFuncA type="linear" slope="0.5" />
          </feComponentTransfer>
          <feMerge>
            <feMergeNode />
            <feMergeNode in="SourceGraphic" />
          </feMerge>
        </filter>
        <path
          fill="none"
          stroke="#ffffff"
          stroke-opacity="0.7333333333333333"
          stroke-width="5"
          stroke-linecap="butt"
          d="M -376.14337938128483 -291.25000443683086 L -440 -310 L -457.2395019996245 -304.9380254878463 L -498.7509966440225 -257.031180855799 L -508.22239965158883 -191.15612597514144 L -436.9654665475757 -273.3910105416778 Z  M -457.2395019996245 -304.9380254878463 L -521.0961226183397 -286.18802992467715 L -532.8622045415837 -272.60924752962217 L -541.8835004206983 -209.86463683776662 L -514.2366081410701 -149.3263871295036 L -498.7509966440225 -257.031180855799 Z  M -532.8622045415837 -272.60924752962217 L -576.4447993031777 -222.31225195028298 L -579.0018132745736 -204.52782913966485 L -552.6687126882161 -146.866422950431 L -496.6812180765694 -110.8854449541036 L -541.8835004206983 -209.86463683776662 Z  M -579.0018132745736 -204.52782913966485 L -588.4732162821399 -138.6527742590073 L -581.009328432767 -122.30913961647025 L -527.6824047563082 -88.03802697891274 L -461.1299417631071 -88.03802697891274 L -552.6687126882161 -146.866422950431 Z  M -581.009328432767 -122.30913961647025 L -553.3624361531388 -61.77088990820721 L -538.2473781378612 -52.05703195415276 L -474.85755284853985 -52.05704898258534 L -418.8700582368929 -88.03802697891274 L -527.6824047563082 -88.03802697891274 Z  M -538.2473781378612 -52.05703195415276 L -482.2598835262145 -16.076053957825366 L -464.2925794669866 -16.076053957825366 L -410.9656742030588 -50.34719524584057 L -383.3187819234306 -110.8854449541036 L -474.85755284853985 -52.05704898258534 Z  M -464.2925794669866 -16.076053957825366 L -397.7401164737855 -16.076053957825366 L -382.6250584585082 -25.789911911879813 L -356.2919888513634 -83.45133224884603 L -365.76339185892994 -149.3263871295036 L -410.9656742030588 -50.34719524584057 Z  M -382.6250584585082 -25.789911911879813 L -326.6375638468612 -61.77088990820721 L -319.1736759974883 -78.11452455074414 L -328.19500558681716 -140.85913039580225 L -371.77760034841117 -191.15612597514144 L -356.2919888513634 -83.45133224884603 Z  M -319.1736759974883 -78.11452455074414 L -291.5267837178601 -138.65277425900717 L -294.0837976892558 -156.4371970696253 L -335.5953180721151 -204.3440193991695 L -399.4519386908303 -223.09401496233863 L -328.19500558681716 -140.85913039580225 Z  M -294.0837976892558 -156.4371970696253 L -303.55520069682234 -222.31225195028287 L -315.3212826200663 -235.89103434533797 L -376.14337938128483 -253.74999556316914 L -440 -235 L -335.5953180721151 -204.3440193991695 Z  M -315.3212826200663 -235.89103434533797 L -358.9038773816603 -286.18802992467715 L -376.14337938128483 -291.25000443683086 L -436.9654665475757 -273.3910105416778 L -480.5480613091697 -223.09401496233863 L -376.14337938128483 -253.74999556316914 Z "
        />
        <title>`P_11`.glow</title>
      </g>
    </g>
    <title>3:0:clipGroup</title>
  </g>
</svg>
