<svg
  version="1.2"
  xmlns="http://www.w3.org/2000/svg"
  viewBox="0 0 1920 1080"
  penrose="0"
>
  <penrose><croppedViewBox>0 -420 1920 1920</croppedViewBox></penrose>
  <g transform="rotate(0, 960, 540)translate(0, -420)">
    <!--?xml version="1.0" encoding="UTF-8"?--><svg
      id="ngon__uuid-13f44100-e7bf-4255-a26a-98b4ffa546e6--inject-103"
      xmlns="http://www.w3.org/2000/svg"
      width="1920"
      height="1920"
      xmlns:xlink="http://www.w3.org/1999/xlink"
      viewBox="0 0 1920 1920"
      preserveAspectRatio="none"
    >
      <defs>
        <radialGradient
          id="ngon__uuid-66f72e6f-882c-4b2a-accc-e37df73e5141--inject-103"
          cx="960"
          cy="960"
          fx="960"
          fy="960"
          r="1352.8455844"
          gradientUnits="userSpaceOnUse"
        >
          <stop offset=".1477348" stop-color="gray" />
          <stop offset=".8133731" stop-color="#262626" />
        </radialGradient>
      </defs>
      <rect
        width="1920"
        height="1920"
        style="
          fill: url(#ngon__uuid-66f72e6f-882c-4b2a-accc-e37df73e5141--inject-103);
        "
      />
    </svg>
    <title>canvas.background</title>
  </g>
  <g stroke-linejoin="round">
    <filter id="ngon__`P_3`.icon-shadow" x="0" y="0" width="200%" height="200%">
      <feOffset result="offOut" in="SourceAlpha" dx="5" dy="5" />
      <feGaussianBlur result="blurOut" in="offOut" stdDeviation="4" />
      <feBlend in="SourceGraphic" in2="blurOut" mode="normal" />
      <feComponentTransfer>
        <feFuncA type="linear" slope="0.5" />
      </feComponentTransfer>
      <feMerge>
        <feMergeNode />
        <feMergeNode in="SourceGraphic" />
      </feMerge>
    </filter>
    <path
      fill="none"
      stroke="#888888"
      stroke-opacity="1"
      stroke-width="5"
      stroke-linecap="butt"
      d="M 1170.8253167139721 758.7499985566244 L 1160 740 L 1040.9215061463065 946.2500014433756 L 1235.777221997805 946.2499985566245 L 1224.951905283833 927.5 L 1073.3974612882228 927.5 Z  M 1040.9215061463065 946.2500014433756 L 1030.096189432334 965 L 1268.2531771397214 965 L 1170.8253167139721 796.2500014433756 L 1160 815 L 1235.777221997805 946.2499985566245 Z  M 1268.2531771397214 965 L 1289.903810567666 965 L 1170.8253167139721 758.7499985566244 L 1073.3974612882228 927.5 L 1095.048094716167 927.5 L 1170.8253167139721 796.2500014433756 Z "
    />
    <title>`P_3`.icon</title>
  </g>
  <g stroke-linejoin="round">
    <filter id="ngon__`P_5`.icon-shadow" x="0" y="0" width="200%" height="200%">
      <feOffset result="offOut" in="SourceAlpha" dx="5" dy="5" />
      <feGaussianBlur result="blurOut" in="offOut" stdDeviation="4" />
      <feBlend in="SourceGraphic" in2="blurOut" mode="normal" />
      <feComponentTransfer>
        <feFuncA type="linear" slope="0.5" />
      </feComponentTransfer>
      <feMerge>
        <feMergeNode />
        <feMergeNode in="SourceGraphic" />
      </feMerge>
    </filter>
    <path
      fill="none"
      stroke="#888888"
      stroke-opacity="1"
      stroke-width="5"
      stroke-linecap="butt"
      d="M 385.8071580817839 408.7499978733732 L 360 390 L 243.1486806375109 474.8974529703847 L 284.0167043828966 600.676274578121 L 315.91610607806456 600.676274578121 L 278.8133040436635 486.4855915737728 Z  M 243.1486806375109 474.8974529703847 L 217.341522555727 493.6474508437579 L 261.97475492192905 631.014415308136 L 394.2264366877355 631.0144084262272 L 404.08389392193544 600.676274578121 L 284.0167043828966 600.676274578121 Z  M 261.97475492192905 631.014415308136 L 271.832212156129 661.352549156242 L 416.26838614870303 661.3525491562422 L 457.13639680392043 535.5737232952522 L 431.32923872213655 516.823725421879 L 394.2264366877355 631.0144084262272 Z  M 416.26838614870303 661.3525491562422 L 448.16778784387094 661.3525491562422 L 492.80102021007315 523.985584691864 L 385.8071580817839 446.2500021266268 L 360 465 L 457.13639680392043 535.5737232952522 Z  M 492.80102021007315 523.985584691864 L 502.65847744427305 493.6474508437579 L 385.8071580817839 408.7499978733732 L 278.8133040436635 486.4855915737728 L 288.67076127786345 516.823725421879 L 385.8071580817839 446.2500021266268 Z "
    />
    <title>`P_5`.icon</title>
  </g>
  <g stroke-linejoin="round">
    <filter id="ngon__`P_4`.icon-shadow" x="0" y="0" width="200%" height="200%">
      <feOffset result="offOut" in="SourceAlpha" dx="5" dy="5" />
      <feGaussianBlur result="blurOut" in="offOut" stdDeviation="4" />
      <feBlend in="SourceGraphic" in2="blurOut" mode="normal" />
      <feComponentTransfer>
        <feFuncA type="linear" slope="0.5" />
      </feComponentTransfer>
      <feMerge>
        <feMergeNode />
        <feMergeNode in="SourceGraphic" />
      </feMerge>
    </filter>
    <path
      fill="none"
      stroke="#888888"
      stroke-opacity="1"
      stroke-width="5"
      stroke-linecap="butt"
      d="M 1578.7499982322333 758.7499982322332 L 1560 740 L 1428.7499982322333 871.2500017677668 L 1541.2500017677667 983.7499982322332 L 1560 965 L 1466.2500017677667 871.2500017677668 Z  M 1428.7499982322333 871.2500017677668 L 1410 890 L 1541.2500017677667 1021.2500017677668 L 1653.7499982322333 908.7499982322332 L 1635 890 L 1541.2500017677667 983.7499982322332 Z  M 1541.2500017677667 1021.2500017677668 L 1560 1040 L 1691.2500017677667 908.7499982322332 L 1578.7499982322333 796.2500017677668 L 1560 815 L 1653.7499982322333 908.7499982322332 Z  M 1691.2500017677667 908.7499982322332 L 1710 890 L 1578.7499982322333 758.7499982322332 L 1466.2500017677667 871.2500017677668 L 1485 890 L 1578.7499982322333 796.2500017677668 Z "
    />
    <title>`P_4`.icon</title>
  </g>
  <g stroke-linejoin="round">
    <filter
      id="ngon__`P_12`.icon-shadow"
      x="0"
      y="0"
      width="200%"
      height="200%"
    >
      <feOffset result="offOut" in="SourceAlpha" dx="5" dy="5" />
      <feGaussianBlur result="blurOut" in="offOut" stdDeviation="4" />
      <feBlend in="SourceGraphic" in2="blurOut" mode="normal" />
      <feComponentTransfer>
        <feFuncA type="linear" slope="0.5" />
      </feComponentTransfer>
      <feMerge>
        <feMergeNode />
        <feMergeNode in="SourceGraphic" />
      </feMerge>
    </filter>
    <path
      fill="none"
      stroke="#888888"
      stroke-opacity="1"
      stroke-width="5"
      stroke-linecap="butt"
      d="M 1629.9759346174997 58.74999517037219 L 1560 40 L 1554.9759346174997 41.34619426196207 L 1513.798089886539 82.52406538250017 L 1495.048094716167 152.5 L 1573.7259394471278 73.82215526903946 Z  M 1554.9759346174997 41.34619426196207 L 1485 60.0961894323342 L 1481.322128879462 63.774060552872356 L 1466.2500048296279 120.02406538250017 L 1485 190 L 1513.798089886539 82.52406538250017 Z  M 1481.322128879462 63.774060552872356 L 1430.096189432334 115 L 1428.7499951703721 120.02406538250017 L 1443.8221552690393 176.27406055287236 L 1495.048094716167 227.5 L 1466.2500048296279 120.02406538250017 Z  M 1428.7499951703721 120.02406538250017 L 1410 190 L 1411.3461942619622 195.02406538250017 L 1452.5240653825003 236.20191011346077 L 1522.5 254.9519052838329 L 1443.8221552690393 176.27406055287236 Z  M 1411.3461942619622 195.02406538250017 L 1430.096189432334 265 L 1433.7740605528722 268.67787112053816 L 1490.0240653825003 283.74999517037213 L 1560 265 L 1452.5240653825003 236.20191011346077 Z  M 1433.7740605528722 268.67787112053816 L 1485 319.9038105676658 L 1490.0240653825003 321.25000482962787 L 1546.2740605528725 306.1778447309606 L 1597.5 254.9519052838329 L 1490.0240653825003 283.74999517037213 Z  M 1490.0240653825003 321.25000482962787 L 1560 340 L 1565.0240653825003 338.65380573803793 L 1606.2019101134606 297.47593461749983 L 1624.9519052838327 227.50000000000006 L 1546.2740605528725 306.1778447309606 Z  M 1565.0240653825003 338.65380573803793 L 1635 319.9038105676658 L 1638.6778711205382 316.22593944712776 L 1653.7499951703721 259.97593461749983 L 1635 190 L 1606.2019101134606 297.47593461749983 Z  M 1638.6778711205382 316.22593944712776 L 1689.903810567666 265.00000000000006 L 1691.2500048296279 259.9759346174998 L 1676.1778447309607 203.7259394471276 L 1624.951905283833 152.5 L 1653.7499951703721 259.97593461749983 Z  M 1691.2500048296279 259.9759346174998 L 1710 190 L 1708.6538057380378 184.97593461749983 L 1667.4759346174997 143.79808988653934 L 1597.5 125.04809471616716 L 1676.1778447309607 203.7259394471276 Z  M 1708.6538057380378 184.97593461749983 L 1689.903810567666 115 L 1686.225939447128 111.32212887946184 L 1629.9759346174997 96.25000482962787 L 1560 115 L 1667.4759346174997 143.79808988653934 Z  M 1686.225939447128 111.32212887946184 L 1635 60.096189432334256 L 1629.9759346174997 58.74999517037219 L 1573.7259394471278 73.82215526903946 L 1522.5 125.0480947161671 L 1629.9759346174997 96.25000482962787 Z "
    />
    <title>`P_12`.icon</title>
  </g>
  <g stroke-linejoin="round">
    <filter
      id="ngon__`P_10`.icon-shadow"
      x="0"
      y="0"
      width="200%"
      height="200%"
    >
      <feOffset result="offOut" in="SourceAlpha" dx="5" dy="5" />
      <feGaussianBlur result="blurOut" in="offOut" stdDeviation="4" />
      <feBlend in="SourceGraphic" in2="blurOut" mode="normal" />
      <feComponentTransfer>
        <feFuncA type="linear" slope="0.5" />
      </feComponentTransfer>
      <feMerge>
        <feMergeNode />
        <feMergeNode in="SourceGraphic" />
      </feMerge>
    </filter>
    <path
      fill="none"
      stroke="#888888"
      stroke-opacity="1"
      stroke-width="5"
      stroke-linecap="butt"
      d="M 817.7065538725473 58.7499959549159 L 760 40 L 729.5387660286763 49.89745488884205 L 688.6707612778636 106.147463933925 L 688.6707612778634 166.82372542187892 L 751.5807177449256 80.23559872298603 Z  M 729.5387660286763 49.89745488884205 L 671.832212156129 68.6474508437579 L 653.0061342225881 94.559324144865 L 653.0061496110023 164.0881478792282 L 688.6707612778634 213.17627457812102 L 688.6707612778636 106.147463933925 Z  M 653.0061342225881 94.559324144865 L 617.341522555727 143.6474508437579 L 617.341522555727 175.67628766828818 L 658.2095522055172 231.92627862320512 L 715.9161060780646 250.67627457812102 L 653.0061496110023 164.0881478792282 Z  M 617.341522555727 175.67628766828818 L 617.3415225557269 236.3525491562421 L 636.1676004892679 262.26442245734927 L 702.2934461274527 283.74999595491585 L 760 265 L 658.2095522055172 231.92627862320512 Z  M 636.1676004892679 262.26442245734927 L 671.832212156129 311.3525491562421 L 702.2934461274527 321.2500040450841 L 768.4192822550744 299.7644012770139 L 804.0838939219354 250.67627457812108 L 702.2934461274527 283.74999595491585 Z  M 702.2934461274527 321.2500040450841 L 760 340 L 790.4612339713237 330.10254511115795 L 831.3292387221364 273.852536066075 L 831.3292387221366 213.17627457812108 L 768.4192822550744 299.7644012770139 Z  M 790.4612339713237 330.10254511115795 L 848.167787843871 311.3525491562421 L 866.993865777412 285.44067585513505 L 866.9938503889975 215.91185212077187 L 831.3292387221366 166.82372542187898 L 831.3292387221364 273.852536066075 Z  M 866.993865777412 285.44067585513505 L 902.658477444273 236.35254915624216 L 902.658477444273 204.32371233171182 L 861.7904477944827 148.07372137679488 L 804.0838939219354 129.32372542187898 L 866.9938503889975 215.91185212077187 Z  M 902.658477444273 204.32371233171182 L 902.6584774442731 143.6474508437579 L 883.8323995107321 117.73557754265073 L 817.7065538725473 96.25000404508415 L 760 115 L 861.7904477944827 148.07372137679488 Z  M 883.8323995107321 117.73557754265073 L 848.167787843871 68.6474508437579 L 817.7065538725473 58.7499959549159 L 751.5807177449256 80.23559872298603 L 715.9161060780646 129.32372542187892 L 817.7065538725473 96.25000404508415 Z "
    />
    <title>`P_10`.icon</title>
  </g>
  <g stroke-linejoin="round">
    <filter id="ngon__`P_8`.icon-shadow" x="0" y="0" width="200%" height="200%">
      <feOffset result="offOut" in="SourceAlpha" dx="5" dy="5" />
      <feGaussianBlur result="blurOut" in="offOut" stdDeviation="4" />
      <feBlend in="SourceGraphic" in2="blurOut" mode="normal" />
      <feComponentTransfer>
        <feFuncA type="linear" slope="0.5" />
      </feComponentTransfer>
      <feMerge>
        <feMergeNode />
        <feMergeNode in="SourceGraphic" />
      </feMerge>
    </filter>
    <path
      fill="none"
      stroke="#888888"
      stroke-opacity="1"
      stroke-width="5"
      stroke-linecap="butt"
      d="M 1605.2664964086919 408.7499967335932 L 1560 390 L 1499.2004792307098 415.1839860884247 L 1466.2500032664068 494.7335035913082 L 1485 540 L 1525.716988144602 441.7004950023171 Z  M 1499.2004792307098 415.1839860884247 L 1453.933982822018 433.93398282201787 L 1428.7499967335932 494.7335035913082 L 1461.7004950023172 574.283011855398 L 1506.966991411009 593.033008588991 L 1466.2500032664068 494.7335035913082 Z  M 1428.7499967335932 494.7335035913082 L 1410 540 L 1435.1839860884247 600.7995207692903 L 1514.7335035913081 633.7499967335932 L 1560 615 L 1461.7004950023172 574.283011855398 Z  M 1435.1839860884247 600.7995207692903 L 1453.933982822018 646.0660171779821 L 1514.7335035913081 671.2500032664068 L 1594.283011855398 638.2995049976829 L 1613.033008588991 593.033008588991 L 1514.7335035913081 633.7499967335932 Z  M 1514.7335035913081 671.2500032664068 L 1560 690 L 1620.7995207692902 664.8160139115753 L 1653.7499967335932 585.2664964086919 L 1635 540 L 1594.283011855398 638.2995049976829 Z  M 1620.7995207692902 664.8160139115753 L 1666.066017177982 646.0660171779822 L 1691.2500032664068 585.2664964086919 L 1658.299504997683 505.7169881446021 L 1613.033008588991 486.96699141100896 L 1653.7499967335932 585.2664964086919 Z  M 1691.2500032664068 585.2664964086919 L 1710 540 L 1684.8160139115753 479.20047923070973 L 1605.2664964086919 446.25000326640685 L 1560 465 L 1658.299504997683 505.7169881446021 Z  M 1684.8160139115753 479.20047923070973 L 1666.0660171779823 433.9339828220179 L 1605.2664964086919 408.7499967335932 L 1525.716988144602 441.7004950023171 L 1506.966991411009 486.96699141100896 L 1605.2664964086919 446.25000326640685 Z "
    />
    <title>`P_8`.icon</title>
  </g>
  <g stroke-linejoin="round">
    <filter id="ngon__`P_7`.icon-shadow" x="0" y="0" width="200%" height="200%">
      <feOffset result="offOut" in="SourceAlpha" dx="5" dy="5" />
      <feGaussianBlur result="blurOut" in="offOut" stdDeviation="4" />
      <feBlend in="SourceGraphic" in2="blurOut" mode="normal" />
      <feComponentTransfer>
        <feFuncA type="linear" slope="0.5" />
      </feComponentTransfer>
      <feMerge>
        <feMergeNode />
        <feMergeNode in="SourceGraphic" />
      </feMerge>
    </filter>
    <path
      fill="none"
      stroke="#888888"
      stroke-opacity="1"
      stroke-width="5"
      stroke-linecap="butt"
      d="M 1198.9347702033651 408.74999711904434 L 1160 390 L 1081.660047833161 427.7265326021456 L 1059.9367096126507 522.9027426916856 L 1086.8804065863633 556.6890700467236 L 1110.9787329305555 451.10740376434103 Z  M 1081.660047833161 427.7265326021456 L 1042.7252776297955 446.47652972119 L 1023.3769072883842 531.2472789971932 L 1084.244384875562 607.5726650926814 L 1127.4587195661832 607.5726650926814 L 1059.9367096126507 522.9027426916856 Z  M 1023.3769072883842 531.2472789971932 L 1013.7608131727264 573.3781400934472 L 1067.9737421586537 641.3590028303248 L 1165.5975834601045 641.3589924477194 L 1192.5412804338168 607.5726650926814 L 1084.244384875562 607.5726650926814 Z  M 1067.9737421586537 641.3590028303248 L 1094.9174391323663 675.1453301853628 L 1181.8682261770125 675.1453301853628 L 1242.7356875292946 598.8199311429776 L 1233.1195934136367 556.6890700467236 L 1165.5975834601045 641.3589924477194 Z  M 1181.8682261770125 675.1453301853628 L 1225.0825608676337 675.1453301853628 L 1279.295489853561 607.1644674484852 L 1257.5721313884674 511.98826197963933 L 1218.6373611851022 493.238264860595 L 1242.7356875292946 598.8199311429776 Z  M 1279.295489853561 607.1644674484852 L 1306.2391868272734 573.3781400934472 L 1286.8908164858622 488.6073908174439 L 1198.9347702033651 446.25000288095566 L 1160 465 L 1257.5721313884674 511.98826197963933 Z  M 1286.8908164858622 488.6073908174439 L 1277.2747223702045 446.47652972119 L 1198.9347702033651 408.74999711904434 L 1110.9787329305555 451.10740376434103 L 1101.3626388148978 493.238264860595 L 1198.9347702033651 446.25000288095566 Z "
    />
    <title>`P_7`.icon</title>
  </g>
  <g stroke-linejoin="round">
    <filter
      id="ngon__`P_11`.icon-shadow"
      x="0"
      y="0"
      width="200%"
      height="200%"
    >
      <feOffset result="offOut" in="SourceAlpha" dx="5" dy="5" />
      <feGaussianBlur result="blurOut" in="offOut" stdDeviation="4" />
      <feBlend in="SourceGraphic" in2="blurOut" mode="normal" />
      <feComponentTransfer>
        <feFuncA type="linear" slope="0.5" />
      </feComponentTransfer>
      <feMerge>
        <feMergeNode />
        <feMergeNode in="SourceGraphic" />
      </feMerge>
    </filter>
    <path
      fill="none"
      stroke="#888888"
      stroke-opacity="1"
      stroke-width="5"
      stroke-linecap="butt"
      d="M 1223.8566206187152 58.749995563169136 L 1160 40 L 1142.7604980003755 45.06197451215371 L 1101.2490033559773 92.96881914420089 L 1091.7776003484112 158.8438740248585 L 1163.0345334524243 76.6089894583223 Z  M 1142.7604980003755 45.06197451215371 L 1078.9038773816603 63.81197007532285 L 1067.1377954584163 77.39075247037789 L 1058.116499579302 140.1353631622332 L 1085.76339185893 200.67361287049636 L 1101.2490033559773 92.96881914420089 Z  M 1067.1377954584163 77.39075247037789 L 1023.5552006968222 127.68774804971702 L 1020.9981867254263 145.47217086033515 L 1047.3312873117839 203.13357704956883 L 1103.3187819234306 239.1145550458964 L 1058.116499579302 140.1353631622332 Z  M 1020.9981867254263 145.47217086033515 L 1011.5267837178601 211.34722574099277 L 1018.9906715672331 227.69086038352958 L 1072.3175952436918 261.9619730210873 L 1138.8700582368929 261.9619730210873 L 1047.3312873117839 203.13357704956883 Z  M 1018.9906715672331 227.69086038352958 L 1046.6375638468612 288.22911009179273 L 1061.7526218621388 297.942968045847 L 1125.1424471514604 297.9429510174149 L 1181.1299417631071 261.9619730210873 L 1072.3175952436918 261.9619730210873 Z  M 1061.7526218621388 297.942968045847 L 1117.7401164737855 333.92394604217463 L 1135.7074205330134 333.92394604217463 L 1189.0343257969412 299.65280475415955 L 1216.6812180765694 239.1145550458964 L 1125.1424471514604 297.9429510174149 Z  M 1135.7074205330134 333.92394604217463 L 1202.2598835262145 333.92394604217463 L 1217.374941541492 324.2100880881203 L 1243.7080111486362 266.548667751154 L 1234.23660814107 200.6736128704964 L 1189.0343257969412 299.65280475415955 Z  M 1217.374941541492 324.2100880881203 L 1273.3624361531388 288.2291100917928 L 1280.8263240025117 271.8854754492559 L 1271.8049944131828 209.14086960419775 L 1228.2223996515888 158.84387402485856 L 1243.7080111486362 266.548667751154 Z  M 1280.8263240025117 271.8854754492559 L 1308.47321628214 211.34722574099277 L 1305.916202310744 193.5628029303747 L 1264.4046819278851 145.65598060083056 L 1200.5480613091697 126.90598503766142 L 1271.8049944131828 209.14086960419775 Z  M 1305.916202310744 193.5628029303747 L 1296.4447993031777 127.68774804971707 L 1284.6787173799337 114.10896565466203 L 1223.8566206187152 96.25000443683086 L 1160 115 L 1264.4046819278851 145.65598060083056 Z  M 1284.6787173799337 114.10896565466203 L 1241.0961226183397 63.81197007532285 L 1223.8566206187152 58.749995563169136 L 1163.0345334524243 76.6089894583223 L 1119.4519386908303 126.90598503766142 L 1223.8566206187152 96.25000443683086 Z "
    />
    <title>`P_11`.icon</title>
  </g>
  <g stroke-linejoin="round">
    <filter id="ngon__`P_2`.icon-shadow" x="0" y="0" width="200%" height="200%">
      <feOffset result="offOut" in="SourceAlpha" dx="5" dy="5" />
      <feGaussianBlur result="blurOut" in="offOut" stdDeviation="4" />
      <feBlend in="SourceGraphic" in2="blurOut" mode="normal" />
      <feComponentTransfer>
        <feFuncA type="linear" slope="0.5" />
      </feComponentTransfer>
      <feMerge>
        <feMergeNode />
        <feMergeNode in="SourceGraphic" />
      </feMerge>
    </filter>
    <path
      fill="none"
      stroke="#888888"
      stroke-opacity="1"
      stroke-width="5"
      stroke-linecap="butt"
      d="M 770.8253167139721 758.7499985566244 L 760 740 L 640.9215061463065 946.2500014433756 L 835.7772219978051 946.2499985566245 L 824.951905283833 927.5 L 673.3974612882226 927.5 Z  M 640.9215061463065 946.2500014433756 L 630.0961894323342 965 L 868.2531771397214 965 L 770.8253167139721 796.2500014433756 L 760 815 L 835.7772219978051 946.2499985566245 Z  M 868.2531771397214 965 L 889.9038105676658 965 L 770.8253167139721 758.7499985566244 L 673.3974612882226 927.5 L 695.048094716167 927.5 L 770.8253167139721 796.2500014433756 Z "
    />
    <title>`P_2`.icon</title>
  </g>
  <g stroke-linejoin="round">
    <filter id="ngon__`P_1`.icon-shadow" x="0" y="0" width="200%" height="200%">
      <feOffset result="offOut" in="SourceAlpha" dx="5" dy="5" />
      <feGaussianBlur result="blurOut" in="offOut" stdDeviation="4" />
      <feBlend in="SourceGraphic" in2="blurOut" mode="normal" />
      <feComponentTransfer>
        <feFuncA type="linear" slope="0.5" />
      </feComponentTransfer>
      <feMerge>
        <feMergeNode />
        <feMergeNode in="SourceGraphic" />
      </feMerge>
    </filter>
    <path
      fill="none"
      stroke="#888888"
      stroke-opacity="1"
      stroke-width="5"
      stroke-linecap="butt"
      d="M 370.82531671397226 758.7499985566244 L 360 740 L 240.92150614630646 946.2500014433756 L 435.7772219978051 946.2499985566245 L 424.95190528383284 927.5 L 273.39746128822264 927.5 Z  M 240.92150614630646 946.2500014433756 L 230.0961894323342 965 L 468.2531771397214 965 L 370.82531671397226 796.2500014433756 L 360 815 L 435.7772219978051 946.2499985566245 Z  M 468.2531771397214 965 L 489.9038105676658 965 L 370.82531671397226 758.7499985566244 L 273.39746128822264 927.5 L 295.04809471616704 927.5 L 370.82531671397226 796.2500014433756 Z "
    />
    <title>`P_1`.icon</title>
  </g>
  <g stroke-linejoin="round">
    <filter id="ngon__`P_9`.icon-shadow" x="0" y="0" width="200%" height="200%">
      <feOffset result="offOut" in="SourceAlpha" dx="5" dy="5" />
      <feGaussianBlur result="blurOut" in="offOut" stdDeviation="4" />
      <feBlend in="SourceGraphic" in2="blurOut" mode="normal" />
      <feComponentTransfer>
        <feFuncA type="linear" slope="0.5" />
      </feComponentTransfer>
      <feMerge>
        <feMergeNode />
        <feMergeNode in="SourceGraphic" />
      </feMerge>
    </filter>
    <path
      fill="none"
      stroke="#888888"
      stroke-opacity="1"
      stroke-width="5"
      stroke-linecap="butt"
      d="M 411.51519157341795 58.74999634524522 L 360 40 L 315.0970501204371 56.34333718690806 L 276.6197958932231 122.98792391895569 L 286.13941852408436 176.97638667498023 L 339.2015901821444 85.07000940327896 Z  M 315.0970501204371 56.34333718690806 L 263.5818585470191 75.09333353215328 L 239.68949795680373 116.47611598716276 L 253.05252577361034 192.26153358922068 L 295.04809471616704 227.5 L 276.6197958932231 122.98792391895569 Z  M 239.68949795680373 116.47611598716276 L 212.27883704816884 163.95277334996047 L 220.57656680147295 211.01153724397545 L 279.52716743330507 260.47694655894315 L 334.34848925057486 260.47694655894315 L 253.05252577361034 192.26153358922068 Z  M 220.57656680147295 211.01153724397545 L 230.0961894323342 265 L 266.701409558593 295.71542670710693 L 343.65594180686844 295.7154129697225 L 385.65151074942514 260.47694655894315 L 279.52716743330507 260.47694655894315 Z  M 266.701409558593 295.71542670710693 L 308.6969785011497 330.95389311788625 L 356.4816996815805 330.95389311788625 L 415.4322826529716 281.4884627560246 L 424.95190528383284 227.50000000000006 L 343.65594180686844 295.7154129697225 Z  M 356.4816996815805 330.95389311788625 L 411.3030214988503 330.95389311788625 L 447.9082416251091 300.23846641077944 L 461.27124238455053 224.45304403777794 L 433.86058147591564 176.97638667498023 L 415.4322826529716 281.4884627560246 Z  M 447.9082416251091 300.23846641077944 L 489.9038105676658 265.00000000000006 L 498.2015403209699 217.94123610598507 L 459.7242622999084 151.2966631113219 L 408.2090707264905 132.54666676607667 L 461.27124238455053 224.45304403777794 Z  M 498.2015403209699 217.94123610598507 L 507.7211629518312 163.95277334996052 L 483.8288023616158 122.56999089495105 L 411.51519157341795 96.25000365475478 L 360 115 L 459.7242622999084 151.2966631113219 Z  M 483.8288023616158 122.56999089495105 L 456.41814145298093 75.09333353215334 L 411.51519157341795 58.74999634524522 L 339.2015901821444 85.07000940327896 L 311.7909292735095 132.54666676607667 L 411.51519157341795 96.25000365475478 Z "
    />
    <title>`P_9`.icon</title>
  </g>
  <g stroke-linejoin="round">
    <filter id="ngon__`P_6`.icon-shadow" x="0" y="0" width="200%" height="200%">
      <feOffset result="offOut" in="SourceAlpha" dx="5" dy="5" />
      <feGaussianBlur result="blurOut" in="offOut" stdDeviation="4" />
      <feBlend in="SourceGraphic" in2="blurOut" mode="normal" />
      <feComponentTransfer>
        <feFuncA type="linear" slope="0.5" />
      </feComponentTransfer>
      <feMerge>
        <feMergeNode />
        <feMergeNode in="SourceGraphic" />
      </feMerge>
    </filter>
    <path
      fill="none"
      stroke="#888888"
      stroke-opacity="1"
      stroke-width="5"
      stroke-linecap="butt"
      d="M 792.47594831179 408.7499975000003 L 760 390 L 662.5721377441241 446.25000249999965 L 662.5721464043771 558.7500024999996 L 695.048094716167 577.5 L 695.048094716167 465.0000049999993 Z  M 662.5721377441241 446.25000249999965 L 630.0961894323342 465 L 630.0961894323342 577.5000049999993 L 727.52405168821 633.7499975000003 L 760 615 L 662.5721464043771 558.7500024999996 Z  M 630.0961894323342 577.5000049999993 L 630.0961894323342 615 L 727.52405168821 671.2500024999997 L 824.951905283833 614.9999950000007 L 824.951905283833 577.5 L 727.52405168821 633.7499975000003 Z  M 727.52405168821 671.2500024999997 L 760 690 L 857.4278622558758 633.7499975000004 L 857.4278535956229 521.2499975000003 L 824.951905283833 502.5 L 824.951905283833 614.9999950000007 Z  M 857.4278622558758 633.7499975000004 L 889.9038105676658 615.0000000000001 L 889.9038105676658 502.49999500000064 L 792.47594831179 446.2500024999997 L 760 465 L 857.4278535956229 521.2499975000003 Z  M 889.9038105676658 502.49999500000064 L 889.9038105676658 465 L 792.47594831179 408.7499975000003 L 695.048094716167 465.0000049999993 L 695.048094716167 502.5 L 792.47594831179 446.2500024999997 Z "
    />
    <title>`P_6`.icon</title>
  </g>
  <g style="filter: drop-shadow(0px 50px 20px #0008)">
    <g>
      <filter
        id="ngon__logo.pentagon-shadow"
        x="0"
        y="0"
        width="200%"
        height="200%"
      >
        <feOffset result="offOut" in="SourceAlpha" dx="5" dy="5" />
        <feGaussianBlur result="blurOut" in="offOut" stdDeviation="4" />
        <feBlend in="SourceGraphic" in2="blurOut" mode="normal" />
        <feComponentTransfer>
          <feFuncA type="linear" slope="0.5" />
        </feComponentTransfer>
        <feMerge>
          <feMergeNode />
          <feMergeNode in="SourceGraphic" />
        </feMerge>
      </filter>
      <path
        fill="#3fb4f7"
        fill-opacity="0.7333333333333333"
        stroke="#555555"
        stroke-opacity="1"
        stroke-width="6"
        stroke-linecap="butt"
        d="M 1038.2817162908466 186.87499605055012 L 960 130 L 705.4119355875428 314.96905591821826 L 791.234783863333 579.104581810931 L 887.996306594172 579.104581810931 L 813.5946218284166 350.11974146926286 Z  M 705.4119355875428 314.96905591821826 L 627.1302192966963 371.8440519687684 L 724.3742067722073 671.1302713114255 L 1002.1027384804008 671.1302585307371 L 1032.003693405828 579.104581810931 L 791.234783863333 579.104581810931 Z  M 724.3742067722073 671.1302713114255 L 754.2751616976343 763.1559480312316 L 1068.9633155715264 763.1559480312317 L 1154.7861395370028 499.0204142396191 L 1076.5044232461564 442.145418189069 L 1002.1027384804008 671.1302585307371 Z  M 1068.9633155715264 763.1559480312317 L 1165.7248383023655 763.1559480312317 L 1262.9688257778766 463.8697286885745 L 1038.2817162908466 300.62500394944993 L 960 357.5 L 1154.7861395370028 499.0204142396191 Z  M 1262.9688257778766 463.8697286885745 L 1292.8697807033038 371.84405196876844 L 1038.2817162908466 186.87499605055012 L 813.5946218284166 350.11974146926286 L 843.4955767538437 442.14541818906895 L 1038.2817162908466 300.62500394944993 Z "
      />
      <title>logo.pentagon</title>
    </g>
    <text
      fill="#ffffff"
      fill-opacity="1"
      stroke="#555555"
      stroke-opacity="1"
      stroke-width="12"
      transform="rotate(0, 960, 855)"
      style="
        font:
          condensed 600 172px HelveticaNeue-CondensedBold,
          Helvetica,
          Arial,
          Geneva,
          Tahoma,
          sans-serif;
      "
      x="960"
      y="913.5"
      width="684.103515625"
      height="121"
      font-size-adjust=""
      alignment-baseline="alphabetic"
      dominant-baseline="alphabetic"
      ascent="119"
      descent="2"
      text-anchor="middle"
      visibility=""
      paint-order="stroke"
    >
      <title>logo.labelText</title>
      Penrose
    </text>
    <title>logo.icon</title>
  </g>
  <g>
    <clipPath id="ngon__registry3:0:mask-clip">
      <polygon
        fill="#c63a39"
        fill-opacity="0.5"
        stroke="none"
        transform="scale(1)"
        points="960,130,1292.8697807033036,371.8440519687684,1165.7248383023657,763.1559480312316,754.2751616976344,763.1559480312317,627.1302192966962,371.84405196876844"
      >
        <title>3:0:mask</title>
      </polygon>
    </clipPath>
    <g clip-path="url(#ngon__registry3:0:mask-clip)">
      <g style="filter: blur(10px)">
        <filter
          id="ngon__`P_3`.glow-shadow"
          x="0"
          y="0"
          width="200%"
          height="200%"
        >
          <feOffset result="offOut" in="SourceAlpha" dx="5" dy="5" />
          <feGaussianBlur result="blurOut" in="offOut" stdDeviation="4" />
          <feBlend in="SourceGraphic" in2="blurOut" mode="normal" />
          <feComponentTransfer>
            <feFuncA type="linear" slope="0.5" />
          </feComponentTransfer>
          <feMerge>
            <feMergeNode />
            <feMergeNode in="SourceGraphic" />
          </feMerge>
        </filter>
        <path
          fill="none"
          stroke="#ffffff"
          stroke-opacity="0.7333333333333333"
          stroke-width="5"
          stroke-linecap="butt"
          d="M 1170.8253167139721 758.7499985566244 L 1160 740 L 1040.9215061463065 946.2500014433756 L 1235.777221997805 946.2499985566245 L 1224.951905283833 927.5 L 1073.3974612882228 927.5 Z  M 1040.9215061463065 946.2500014433756 L 1030.096189432334 965 L 1268.2531771397214 965 L 1170.8253167139721 796.2500014433756 L 1160 815 L 1235.777221997805 946.2499985566245 Z  M 1268.2531771397214 965 L 1289.903810567666 965 L 1170.8253167139721 758.7499985566244 L 1073.3974612882228 927.5 L 1095.048094716167 927.5 L 1170.8253167139721 796.2500014433756 Z "
        />
        <title>`P_3`.glow</title>
      </g>
    </g>
    <g clip-path="url(#ngon__registry3:0:mask-clip)">
      <g style="filter: blur(10px)">
        <filter
          id="ngon__`P_5`.glow-shadow"
          x="0"
          y="0"
          width="200%"
          height="200%"
        >
          <feOffset result="offOut" in="SourceAlpha" dx="5" dy="5" />
          <feGaussianBlur result="blurOut" in="offOut" stdDeviation="4" />
          <feBlend in="SourceGraphic" in2="blurOut" mode="normal" />
          <feComponentTransfer>
            <feFuncA type="linear" slope="0.5" />
          </feComponentTransfer>
          <feMerge>
            <feMergeNode />
            <feMergeNode in="SourceGraphic" />
          </feMerge>
        </filter>
        <path
          fill="none"
          stroke="#ffffff"
          stroke-opacity="0.7333333333333333"
          stroke-width="5"
          stroke-linecap="butt"
          d="M 385.8071580817839 408.7499978733732 L 360 390 L 243.1486806375109 474.8974529703847 L 284.0167043828966 600.676274578121 L 315.91610607806456 600.676274578121 L 278.8133040436635 486.4855915737728 Z  M 243.1486806375109 474.8974529703847 L 217.341522555727 493.6474508437579 L 261.97475492192905 631.014415308136 L 394.2264366877355 631.0144084262272 L 404.08389392193544 600.676274578121 L 284.0167043828966 600.676274578121 Z  M 261.97475492192905 631.014415308136 L 271.832212156129 661.352549156242 L 416.26838614870303 661.3525491562422 L 457.13639680392043 535.5737232952522 L 431.32923872213655 516.823725421879 L 394.2264366877355 631.0144084262272 Z  M 416.26838614870303 661.3525491562422 L 448.16778784387094 661.3525491562422 L 492.80102021007315 523.985584691864 L 385.8071580817839 446.2500021266268 L 360 465 L 457.13639680392043 535.5737232952522 Z  M 492.80102021007315 523.985584691864 L 502.65847744427305 493.6474508437579 L 385.8071580817839 408.7499978733732 L 278.8133040436635 486.4855915737728 L 288.67076127786345 516.823725421879 L 385.8071580817839 446.2500021266268 Z "
        />
        <title>`P_5`.glow</title>
      </g>
    </g>
    <g clip-path="url(#ngon__registry3:0:mask-clip)">
      <g style="filter: blur(10px)">
        <filter
          id="ngon__`P_4`.glow-shadow"
          x="0"
          y="0"
          width="200%"
          height="200%"
        >
          <feOffset result="offOut" in="SourceAlpha" dx="5" dy="5" />
          <feGaussianBlur result="blurOut" in="offOut" stdDeviation="4" />
          <feBlend in="SourceGraphic" in2="blurOut" mode="normal" />
          <feComponentTransfer>
            <feFuncA type="linear" slope="0.5" />
          </feComponentTransfer>
          <feMerge>
            <feMergeNode />
            <feMergeNode in="SourceGraphic" />
          </feMerge>
        </filter>
        <path
          fill="none"
          stroke="#ffffff"
          stroke-opacity="0.7333333333333333"
          stroke-width="5"
          stroke-linecap="butt"
          d="M 1578.7499982322333 758.7499982322332 L 1560 740 L 1428.7499982322333 871.2500017677668 L 1541.2500017677667 983.7499982322332 L 1560 965 L 1466.2500017677667 871.2500017677668 Z  M 1428.7499982322333 871.2500017677668 L 1410 890 L 1541.2500017677667 1021.2500017677668 L 1653.7499982322333 908.7499982322332 L 1635 890 L 1541.2500017677667 983.7499982322332 Z  M 1541.2500017677667 1021.2500017677668 L 1560 1040 L 1691.2500017677667 908.7499982322332 L 1578.7499982322333 796.2500017677668 L 1560 815 L 1653.7499982322333 908.7499982322332 Z  M 1691.2500017677667 908.7499982322332 L 1710 890 L 1578.7499982322333 758.7499982322332 L 1466.2500017677667 871.2500017677668 L 1485 890 L 1578.7499982322333 796.2500017677668 Z "
        />
        <title>`P_4`.glow</title>
      </g>
    </g>
    <g clip-path="url(#ngon__registry3:0:mask-clip)">
      <g style="filter: blur(10px)">
        <filter
          id="ngon__`P_12`.glow-shadow"
          x="0"
          y="0"
          width="200%"
          height="200%"
        >
          <feOffset result="offOut" in="SourceAlpha" dx="5" dy="5" />
          <feGaussianBlur result="blurOut" in="offOut" stdDeviation="4" />
          <feBlend in="SourceGraphic" in2="blurOut" mode="normal" />
          <feComponentTransfer>
            <feFuncA type="linear" slope="0.5" />
          </feComponentTransfer>
          <feMerge>
            <feMergeNode />
            <feMergeNode in="SourceGraphic" />
          </feMerge>
        </filter>
        <path
          fill="none"
          stroke="#ffffff"
          stroke-opacity="0.7333333333333333"
          stroke-width="5"
          stroke-linecap="butt"
          d="M 1629.9759346174997 58.74999517037219 L 1560 40 L 1554.9759346174997 41.34619426196207 L 1513.798089886539 82.52406538250017 L 1495.048094716167 152.5 L 1573.7259394471278 73.82215526903946 Z  M 1554.9759346174997 41.34619426196207 L 1485 60.0961894323342 L 1481.322128879462 63.774060552872356 L 1466.2500048296279 120.02406538250017 L 1485 190 L 1513.798089886539 82.52406538250017 Z  M 1481.322128879462 63.774060552872356 L 1430.096189432334 115 L 1428.7499951703721 120.02406538250017 L 1443.8221552690393 176.27406055287236 L 1495.048094716167 227.5 L 1466.2500048296279 120.02406538250017 Z  M 1428.7499951703721 120.02406538250017 L 1410 190 L 1411.3461942619622 195.02406538250017 L 1452.5240653825003 236.20191011346077 L 1522.5 254.9519052838329 L 1443.8221552690393 176.27406055287236 Z  M 1411.3461942619622 195.02406538250017 L 1430.096189432334 265 L 1433.7740605528722 268.67787112053816 L 1490.0240653825003 283.74999517037213 L 1560 265 L 1452.5240653825003 236.20191011346077 Z  M 1433.7740605528722 268.67787112053816 L 1485 319.9038105676658 L 1490.0240653825003 321.25000482962787 L 1546.2740605528725 306.1778447309606 L 1597.5 254.9519052838329 L 1490.0240653825003 283.74999517037213 Z  M 1490.0240653825003 321.25000482962787 L 1560 340 L 1565.0240653825003 338.65380573803793 L 1606.2019101134606 297.47593461749983 L 1624.9519052838327 227.50000000000006 L 1546.2740605528725 306.1778447309606 Z  M 1565.0240653825003 338.65380573803793 L 1635 319.9038105676658 L 1638.6778711205382 316.22593944712776 L 1653.7499951703721 259.97593461749983 L 1635 190 L 1606.2019101134606 297.47593461749983 Z  M 1638.6778711205382 316.22593944712776 L 1689.903810567666 265.00000000000006 L 1691.2500048296279 259.9759346174998 L 1676.1778447309607 203.7259394471276 L 1624.951905283833 152.5 L 1653.7499951703721 259.97593461749983 Z  M 1691.2500048296279 259.9759346174998 L 1710 190 L 1708.6538057380378 184.97593461749983 L 1667.4759346174997 143.79808988653934 L 1597.5 125.04809471616716 L 1676.1778447309607 203.7259394471276 Z  M 1708.6538057380378 184.97593461749983 L 1689.903810567666 115 L 1686.225939447128 111.32212887946184 L 1629.9759346174997 96.25000482962787 L 1560 115 L 1667.4759346174997 143.79808988653934 Z  M 1686.225939447128 111.32212887946184 L 1635 60.096189432334256 L 1629.9759346174997 58.74999517037219 L 1573.7259394471278 73.82215526903946 L 1522.5 125.0480947161671 L 1629.9759346174997 96.25000482962787 Z "
        />
        <title>`P_12`.glow</title>
      </g>
    </g>
    <g clip-path="url(#ngon__registry3:0:mask-clip)">
      <g style="filter: blur(10px)">
        <filter
          id="ngon__`P_10`.glow-shadow"
          x="0"
          y="0"
          width="200%"
          height="200%"
        >
          <feOffset result="offOut" in="SourceAlpha" dx="5" dy="5" />
          <feGaussianBlur result="blurOut" in="offOut" stdDeviation="4" />
          <feBlend in="SourceGraphic" in2="blurOut" mode="normal" />
          <feComponentTransfer>
            <feFuncA type="linear" slope="0.5" />
          </feComponentTransfer>
          <feMerge>
            <feMergeNode />
            <feMergeNode in="SourceGraphic" />
          </feMerge>
        </filter>
        <path
          fill="none"
          stroke="#ffffff"
          stroke-opacity="0.7333333333333333"
          stroke-width="5"
          stroke-linecap="butt"
          d="M 817.7065538725473 58.7499959549159 L 760 40 L 729.5387660286763 49.89745488884205 L 688.6707612778636 106.147463933925 L 688.6707612778634 166.82372542187892 L 751.5807177449256 80.23559872298603 Z  M 729.5387660286763 49.89745488884205 L 671.832212156129 68.6474508437579 L 653.0061342225881 94.559324144865 L 653.0061496110023 164.0881478792282 L 688.6707612778634 213.17627457812102 L 688.6707612778636 106.147463933925 Z  M 653.0061342225881 94.559324144865 L 617.341522555727 143.6474508437579 L 617.341522555727 175.67628766828818 L 658.2095522055172 231.92627862320512 L 715.9161060780646 250.67627457812102 L 653.0061496110023 164.0881478792282 Z  M 617.341522555727 175.67628766828818 L 617.3415225557269 236.3525491562421 L 636.1676004892679 262.26442245734927 L 702.2934461274527 283.74999595491585 L 760 265 L 658.2095522055172 231.92627862320512 Z  M 636.1676004892679 262.26442245734927 L 671.832212156129 311.3525491562421 L 702.2934461274527 321.2500040450841 L 768.4192822550744 299.7644012770139 L 804.0838939219354 250.67627457812108 L 702.2934461274527 283.74999595491585 Z  M 702.2934461274527 321.2500040450841 L 760 340 L 790.4612339713237 330.10254511115795 L 831.3292387221364 273.852536066075 L 831.3292387221366 213.17627457812108 L 768.4192822550744 299.7644012770139 Z  M 790.4612339713237 330.10254511115795 L 848.167787843871 311.3525491562421 L 866.993865777412 285.44067585513505 L 866.9938503889975 215.91185212077187 L 831.3292387221366 166.82372542187898 L 831.3292387221364 273.852536066075 Z  M 866.993865777412 285.44067585513505 L 902.658477444273 236.35254915624216 L 902.658477444273 204.32371233171182 L 861.7904477944827 148.07372137679488 L 804.0838939219354 129.32372542187898 L 866.9938503889975 215.91185212077187 Z  M 902.658477444273 204.32371233171182 L 902.6584774442731 143.6474508437579 L 883.8323995107321 117.73557754265073 L 817.7065538725473 96.25000404508415 L 760 115 L 861.7904477944827 148.07372137679488 Z  M 883.8323995107321 117.73557754265073 L 848.167787843871 68.6474508437579 L 817.7065538725473 58.7499959549159 L 751.5807177449256 80.23559872298603 L 715.9161060780646 129.32372542187892 L 817.7065538725473 96.25000404508415 Z "
        />
        <title>`P_10`.glow</title>
      </g>
    </g>
    <g clip-path="url(#ngon__registry3:0:mask-clip)">
      <g style="filter: blur(10px)">
        <filter
          id="ngon__`P_1`.glow-shadow"
          x="0"
          y="0"
          width="200%"
          height="200%"
        >
          <feOffset result="offOut" in="SourceAlpha" dx="5" dy="5" />
          <feGaussianBlur result="blurOut" in="offOut" stdDeviation="4" />
          <feBlend in="SourceGraphic" in2="blurOut" mode="normal" />
          <feComponentTransfer>
            <feFuncA type="linear" slope="0.5" />
          </feComponentTransfer>
          <feMerge>
            <feMergeNode />
            <feMergeNode in="SourceGraphic" />
          </feMerge>
        </filter>
        <path
          fill="none"
          stroke="#ffffff"
          stroke-opacity="0.7333333333333333"
          stroke-width="5"
          stroke-linecap="butt"
          d="M 370.82531671397226 758.7499985566244 L 360 740 L 240.92150614630646 946.2500014433756 L 435.7772219978051 946.2499985566245 L 424.95190528383284 927.5 L 273.39746128822264 927.5 Z  M 240.92150614630646 946.2500014433756 L 230.0961894323342 965 L 468.2531771397214 965 L 370.82531671397226 796.2500014433756 L 360 815 L 435.7772219978051 946.2499985566245 Z  M 468.2531771397214 965 L 489.9038105676658 965 L 370.82531671397226 758.7499985566244 L 273.39746128822264 927.5 L 295.04809471616704 927.5 L 370.82531671397226 796.2500014433756 Z "
        />
        <title>`P_1`.glow</title>
      </g>
    </g>
    <g clip-path="url(#ngon__registry3:0:mask-clip)">
      <g style="filter: blur(10px)">
        <filter
          id="ngon__`P_2`.glow-shadow"
          x="0"
          y="0"
          width="200%"
          height="200%"
        >
          <feOffset result="offOut" in="SourceAlpha" dx="5" dy="5" />
          <feGaussianBlur result="blurOut" in="offOut" stdDeviation="4" />
          <feBlend in="SourceGraphic" in2="blurOut" mode="normal" />
          <feComponentTransfer>
            <feFuncA type="linear" slope="0.5" />
          </feComponentTransfer>
          <feMerge>
            <feMergeNode />
            <feMergeNode in="SourceGraphic" />
          </feMerge>
        </filter>
        <path
          fill="none"
          stroke="#ffffff"
          stroke-opacity="0.7333333333333333"
          stroke-width="5"
          stroke-linecap="butt"
          d="M 770.8253167139721 758.7499985566244 L 760 740 L 640.9215061463065 946.2500014433756 L 835.7772219978051 946.2499985566245 L 824.951905283833 927.5 L 673.3974612882226 927.5 Z  M 640.9215061463065 946.2500014433756 L 630.0961894323342 965 L 868.2531771397214 965 L 770.8253167139721 796.2500014433756 L 760 815 L 835.7772219978051 946.2499985566245 Z  M 868.2531771397214 965 L 889.9038105676658 965 L 770.8253167139721 758.7499985566244 L 673.3974612882226 927.5 L 695.048094716167 927.5 L 770.8253167139721 796.2500014433756 Z "
        />
        <title>`P_2`.glow</title>
      </g>
    </g>
    <g clip-path="url(#ngon__registry3:0:mask-clip)">
      <g style="filter: blur(10px)">
        <filter
          id="ngon__`P_6`.glow-shadow"
          x="0"
          y="0"
          width="200%"
          height="200%"
        >
          <feOffset result="offOut" in="SourceAlpha" dx="5" dy="5" />
          <feGaussianBlur result="blurOut" in="offOut" stdDeviation="4" />
          <feBlend in="SourceGraphic" in2="blurOut" mode="normal" />
          <feComponentTransfer>
            <feFuncA type="linear" slope="0.5" />
          </feComponentTransfer>
          <feMerge>
            <feMergeNode />
            <feMergeNode in="SourceGraphic" />
          </feMerge>
        </filter>
        <path
          fill="none"
          stroke="#ffffff"
          stroke-opacity="0.7333333333333333"
          stroke-width="5"
          stroke-linecap="butt"
          d="M 792.47594831179 408.7499975000003 L 760 390 L 662.5721377441241 446.25000249999965 L 662.5721464043771 558.7500024999996 L 695.048094716167 577.5 L 695.048094716167 465.0000049999993 Z  M 662.5721377441241 446.25000249999965 L 630.0961894323342 465 L 630.0961894323342 577.5000049999993 L 727.52405168821 633.7499975000003 L 760 615 L 662.5721464043771 558.7500024999996 Z  M 630.0961894323342 577.5000049999993 L 630.0961894323342 615 L 727.52405168821 671.2500024999997 L 824.951905283833 614.9999950000007 L 824.951905283833 577.5 L 727.52405168821 633.7499975000003 Z  M 727.52405168821 671.2500024999997 L 760 690 L 857.4278622558758 633.7499975000004 L 857.4278535956229 521.2499975000003 L 824.951905283833 502.5 L 824.951905283833 614.9999950000007 Z  M 857.4278622558758 633.7499975000004 L 889.9038105676658 615.0000000000001 L 889.9038105676658 502.49999500000064 L 792.47594831179 446.2500024999997 L 760 465 L 857.4278535956229 521.2499975000003 Z  M 889.9038105676658 502.49999500000064 L 889.9038105676658 465 L 792.47594831179 408.7499975000003 L 695.048094716167 465.0000049999993 L 695.048094716167 502.5 L 792.47594831179 446.2500024999997 Z "
        />
        <title>`P_6`.glow</title>
      </g>
    </g>
    <g clip-path="url(#ngon__registry3:0:mask-clip)">
      <g style="filter: blur(10px)">
        <filter
          id="ngon__`P_7`.glow-shadow"
          x="0"
          y="0"
          width="200%"
          height="200%"
        >
          <feOffset result="offOut" in="SourceAlpha" dx="5" dy="5" />
          <feGaussianBlur result="blurOut" in="offOut" stdDeviation="4" />
          <feBlend in="SourceGraphic" in2="blurOut" mode="normal" />
          <feComponentTransfer>
            <feFuncA type="linear" slope="0.5" />
          </feComponentTransfer>
          <feMerge>
            <feMergeNode />
            <feMergeNode in="SourceGraphic" />
          </feMerge>
        </filter>
        <path
          fill="none"
          stroke="#ffffff"
          stroke-opacity="0.7333333333333333"
          stroke-width="5"
          stroke-linecap="butt"
          d="M 1198.9347702033651 408.74999711904434 L 1160 390 L 1081.660047833161 427.7265326021456 L 1059.9367096126507 522.9027426916856 L 1086.8804065863633 556.6890700467236 L 1110.9787329305555 451.10740376434103 Z  M 1081.660047833161 427.7265326021456 L 1042.7252776297955 446.47652972119 L 1023.3769072883842 531.2472789971932 L 1084.244384875562 607.5726650926814 L 1127.4587195661832 607.5726650926814 L 1059.9367096126507 522.9027426916856 Z  M 1023.3769072883842 531.2472789971932 L 1013.7608131727264 573.3781400934472 L 1067.9737421586537 641.3590028303248 L 1165.5975834601045 641.3589924477194 L 1192.5412804338168 607.5726650926814 L 1084.244384875562 607.5726650926814 Z  M 1067.9737421586537 641.3590028303248 L 1094.9174391323663 675.1453301853628 L 1181.8682261770125 675.1453301853628 L 1242.7356875292946 598.8199311429776 L 1233.1195934136367 556.6890700467236 L 1165.5975834601045 641.3589924477194 Z  M 1181.8682261770125 675.1453301853628 L 1225.0825608676337 675.1453301853628 L 1279.295489853561 607.1644674484852 L 1257.5721313884674 511.98826197963933 L 1218.6373611851022 493.238264860595 L 1242.7356875292946 598.8199311429776 Z  M 1279.295489853561 607.1644674484852 L 1306.2391868272734 573.3781400934472 L 1286.8908164858622 488.6073908174439 L 1198.9347702033651 446.25000288095566 L 1160 465 L 1257.5721313884674 511.98826197963933 Z  M 1286.8908164858622 488.6073908174439 L 1277.2747223702045 446.47652972119 L 1198.9347702033651 408.74999711904434 L 1110.9787329305555 451.10740376434103 L 1101.3626388148978 493.238264860595 L 1198.9347702033651 446.25000288095566 Z "
        />
        <title>`P_7`.glow</title>
      </g>
    </g>
    <g clip-path="url(#ngon__registry3:0:mask-clip)">
      <g style="filter: blur(10px)">
        <filter
          id="ngon__`P_8`.glow-shadow"
          x="0"
          y="0"
          width="200%"
          height="200%"
        >
          <feOffset result="offOut" in="SourceAlpha" dx="5" dy="5" />
          <feGaussianBlur result="blurOut" in="offOut" stdDeviation="4" />
          <feBlend in="SourceGraphic" in2="blurOut" mode="normal" />
          <feComponentTransfer>
            <feFuncA type="linear" slope="0.5" />
          </feComponentTransfer>
          <feMerge>
            <feMergeNode />
            <feMergeNode in="SourceGraphic" />
          </feMerge>
        </filter>
        <path
          fill="none"
          stroke="#ffffff"
          stroke-opacity="0.7333333333333333"
          stroke-width="5"
          stroke-linecap="butt"
          d="M 1605.2664964086919 408.7499967335932 L 1560 390 L 1499.2004792307098 415.1839860884247 L 1466.2500032664068 494.7335035913082 L 1485 540 L 1525.716988144602 441.7004950023171 Z  M 1499.2004792307098 415.1839860884247 L 1453.933982822018 433.93398282201787 L 1428.7499967335932 494.7335035913082 L 1461.7004950023172 574.283011855398 L 1506.966991411009 593.033008588991 L 1466.2500032664068 494.7335035913082 Z  M 1428.7499967335932 494.7335035913082 L 1410 540 L 1435.1839860884247 600.7995207692903 L 1514.7335035913081 633.7499967335932 L 1560 615 L 1461.7004950023172 574.283011855398 Z  M 1435.1839860884247 600.7995207692903 L 1453.933982822018 646.0660171779821 L 1514.7335035913081 671.2500032664068 L 1594.283011855398 638.2995049976829 L 1613.033008588991 593.033008588991 L 1514.7335035913081 633.7499967335932 Z  M 1514.7335035913081 671.2500032664068 L 1560 690 L 1620.7995207692902 664.8160139115753 L 1653.7499967335932 585.2664964086919 L 1635 540 L 1594.283011855398 638.2995049976829 Z  M 1620.7995207692902 664.8160139115753 L 1666.066017177982 646.0660171779822 L 1691.2500032664068 585.2664964086919 L 1658.299504997683 505.7169881446021 L 1613.033008588991 486.96699141100896 L 1653.7499967335932 585.2664964086919 Z  M 1691.2500032664068 585.2664964086919 L 1710 540 L 1684.8160139115753 479.20047923070973 L 1605.2664964086919 446.25000326640685 L 1560 465 L 1658.299504997683 505.7169881446021 Z  M 1684.8160139115753 479.20047923070973 L 1666.0660171779823 433.9339828220179 L 1605.2664964086919 408.7499967335932 L 1525.716988144602 441.7004950023171 L 1506.966991411009 486.96699141100896 L 1605.2664964086919 446.25000326640685 Z "
        />
        <title>`P_8`.glow</title>
      </g>
    </g>
    <g clip-path="url(#ngon__registry3:0:mask-clip)">
      <g style="filter: blur(10px)">
        <filter
          id="ngon__`P_9`.glow-shadow"
          x="0"
          y="0"
          width="200%"
          height="200%"
        >
          <feOffset result="offOut" in="SourceAlpha" dx="5" dy="5" />
          <feGaussianBlur result="blurOut" in="offOut" stdDeviation="4" />
          <feBlend in="SourceGraphic" in2="blurOut" mode="normal" />
          <feComponentTransfer>
            <feFuncA type="linear" slope="0.5" />
          </feComponentTransfer>
          <feMerge>
            <feMergeNode />
            <feMergeNode in="SourceGraphic" />
          </feMerge>
        </filter>
        <path
          fill="none"
          stroke="#ffffff"
          stroke-opacity="0.7333333333333333"
          stroke-width="5"
          stroke-linecap="butt"
          d="M 411.51519157341795 58.74999634524522 L 360 40 L 315.0970501204371 56.34333718690806 L 276.6197958932231 122.98792391895569 L 286.13941852408436 176.97638667498023 L 339.2015901821444 85.07000940327896 Z  M 315.0970501204371 56.34333718690806 L 263.5818585470191 75.09333353215328 L 239.68949795680373 116.47611598716276 L 253.05252577361034 192.26153358922068 L 295.04809471616704 227.5 L 276.6197958932231 122.98792391895569 Z  M 239.68949795680373 116.47611598716276 L 212.27883704816884 163.95277334996047 L 220.57656680147295 211.01153724397545 L 279.52716743330507 260.47694655894315 L 334.34848925057486 260.47694655894315 L 253.05252577361034 192.26153358922068 Z  M 220.57656680147295 211.01153724397545 L 230.0961894323342 265 L 266.701409558593 295.71542670710693 L 343.65594180686844 295.7154129697225 L 385.65151074942514 260.47694655894315 L 279.52716743330507 260.47694655894315 Z  M 266.701409558593 295.71542670710693 L 308.6969785011497 330.95389311788625 L 356.4816996815805 330.95389311788625 L 415.4322826529716 281.4884627560246 L 424.95190528383284 227.50000000000006 L 343.65594180686844 295.7154129697225 Z  M 356.4816996815805 330.95389311788625 L 411.3030214988503 330.95389311788625 L 447.9082416251091 300.23846641077944 L 461.27124238455053 224.45304403777794 L 433.86058147591564 176.97638667498023 L 415.4322826529716 281.4884627560246 Z  M 447.9082416251091 300.23846641077944 L 489.9038105676658 265.00000000000006 L 498.2015403209699 217.94123610598507 L 459.7242622999084 151.2966631113219 L 408.2090707264905 132.54666676607667 L 461.27124238455053 224.45304403777794 Z  M 498.2015403209699 217.94123610598507 L 507.7211629518312 163.95277334996052 L 483.8288023616158 122.56999089495105 L 411.51519157341795 96.25000365475478 L 360 115 L 459.7242622999084 151.2966631113219 Z  M 483.8288023616158 122.56999089495105 L 456.41814145298093 75.09333353215334 L 411.51519157341795 58.74999634524522 L 339.2015901821444 85.07000940327896 L 311.7909292735095 132.54666676607667 L 411.51519157341795 96.25000365475478 Z "
        />
        <title>`P_9`.glow</title>
      </g>
    </g>
    <g clip-path="url(#ngon__registry3:0:mask-clip)">
      <g style="filter: blur(10px)">
        <filter
          id="ngon__`P_11`.glow-shadow"
          x="0"
          y="0"
          width="200%"
          height="200%"
        >
          <feOffset result="offOut" in="SourceAlpha" dx="5" dy="5" />
          <feGaussianBlur result="blurOut" in="offOut" stdDeviation="4" />
          <feBlend in="SourceGraphic" in2="blurOut" mode="normal" />
          <feComponentTransfer>
            <feFuncA type="linear" slope="0.5" />
          </feComponentTransfer>
          <feMerge>
            <feMergeNode />
            <feMergeNode in="SourceGraphic" />
          </feMerge>
        </filter>
        <path
          fill="none"
          stroke="#ffffff"
          stroke-opacity="0.7333333333333333"
          stroke-width="5"
          stroke-linecap="butt"
          d="M 1223.8566206187152 58.749995563169136 L 1160 40 L 1142.7604980003755 45.06197451215371 L 1101.2490033559773 92.96881914420089 L 1091.7776003484112 158.8438740248585 L 1163.0345334524243 76.6089894583223 Z  M 1142.7604980003755 45.06197451215371 L 1078.9038773816603 63.81197007532285 L 1067.1377954584163 77.39075247037789 L 1058.116499579302 140.1353631622332 L 1085.76339185893 200.67361287049636 L 1101.2490033559773 92.96881914420089 Z  M 1067.1377954584163 77.39075247037789 L 1023.5552006968222 127.68774804971702 L 1020.9981867254263 145.47217086033515 L 1047.3312873117839 203.13357704956883 L 1103.3187819234306 239.1145550458964 L 1058.116499579302 140.1353631622332 Z  M 1020.9981867254263 145.47217086033515 L 1011.5267837178601 211.34722574099277 L 1018.9906715672331 227.69086038352958 L 1072.3175952436918 261.9619730210873 L 1138.8700582368929 261.9619730210873 L 1047.3312873117839 203.13357704956883 Z  M 1018.9906715672331 227.69086038352958 L 1046.6375638468612 288.22911009179273 L 1061.7526218621388 297.942968045847 L 1125.1424471514604 297.9429510174149 L 1181.1299417631071 261.9619730210873 L 1072.3175952436918 261.9619730210873 Z  M 1061.7526218621388 297.942968045847 L 1117.7401164737855 333.92394604217463 L 1135.7074205330134 333.92394604217463 L 1189.0343257969412 299.65280475415955 L 1216.6812180765694 239.1145550458964 L 1125.1424471514604 297.9429510174149 Z  M 1135.7074205330134 333.92394604217463 L 1202.2598835262145 333.92394604217463 L 1217.374941541492 324.2100880881203 L 1243.7080111486362 266.548667751154 L 1234.23660814107 200.6736128704964 L 1189.0343257969412 299.65280475415955 Z  M 1217.374941541492 324.2100880881203 L 1273.3624361531388 288.2291100917928 L 1280.8263240025117 271.8854754492559 L 1271.8049944131828 209.14086960419775 L 1228.2223996515888 158.84387402485856 L 1243.7080111486362 266.548667751154 Z  M 1280.8263240025117 271.8854754492559 L 1308.47321628214 211.34722574099277 L 1305.916202310744 193.5628029303747 L 1264.4046819278851 145.65598060083056 L 1200.5480613091697 126.90598503766142 L 1271.8049944131828 209.14086960419775 Z  M 1305.916202310744 193.5628029303747 L 1296.4447993031777 127.68774804971707 L 1284.6787173799337 114.10896565466203 L 1223.8566206187152 96.25000443683086 L 1160 115 L 1264.4046819278851 145.65598060083056 Z  M 1284.6787173799337 114.10896565466203 L 1241.0961226183397 63.81197007532285 L 1223.8566206187152 58.749995563169136 L 1163.0345334524243 76.6089894583223 L 1119.4519386908303 126.90598503766142 L 1223.8566206187152 96.25000443683086 Z "
        />
        <title>`P_11`.glow</title>
      </g>
    </g>
    <title>3:0:clipGroup</title>
  </g>
</svg>
