<svg
  version="1.2"
  xmlns="http://www.w3.org/2000/svg"
  viewBox="0 0 800 250"
  penrose="0"
>
  <penrose>
    <croppedViewBox>15 9.8168 779.3923101204883 230.1832</croppedViewBox>
  </penrose>
  <text
    fill="#000000"
    fill-opacity="1"
    stroke="none"
    transform="rotate(-90, 20, 85)"
    style="font: bold 18px monospace"
    x="20"
    y="90"
    width="33.673828125"
    height="10"
    font-size-adjust=""
    alignment-baseline="alphabetic"
    dominant-baseline="alphabetic"
    ascent="10"
    descent="0"
    text-anchor="middle"
    visibility=""
  >
    <title>global.ccwLabel</title>
    ccw
  </text>
  <text
    fill="#000000"
    fill-opacity="1"
    stroke="none"
    transform="rotate(-90, 20, 205)"
    style="font: bold 18px monospace"
    x="20"
    y="210"
    width="22.8369140625"
    height="10"
    font-size-adjust=""
    alignment-baseline="alphabetic"
    dominant-baseline="alphabetic"
    ascent="10"
    descent="0"
    text-anchor="middle"
    visibility=""
  >
    <title>global.cwLabel</title>
    cw
  </text>
  <g transform="rotate(0, 415, 20)translate(402.0568, 9.8168)">
    <title>3:4:nSides</title>
    <svg
      style="font-size: 24px"
      xmlns="http://www.w3.org/2000/svg"
      width="25.886400000000002"
      height="20.3664"
      role="img"
      focusable="false"
      viewBox="0 -683 1078.6 848.6"
    >
      <g
        stroke="none"
        fill="#000000"
        stroke-width="0"
        transform="scale(1,-1)"
        fill-opacity="1"
      >
        <g data-mml-node="math">
          <g data-mml-node="msub">
            <g data-mml-node="mi">
              <path
                data-c="1D443"
                d="M287 628Q287 635 230 637Q206 637 199 638T192 648Q192 649 194 659Q200 679 203 681T397 683Q587 682 600 680Q664 669 707 631T751 530Q751 453 685 389Q616 321 507 303Q500 302 402 301H307L277 182Q247 66 247 59Q247 55 248 54T255 50T272 48T305 46H336Q342 37 342 35Q342 19 335 5Q330 0 319 0Q316 0 282 1T182 2Q120 2 87 2T51 1Q33 1 33 11Q33 13 36 25Q40 41 44 43T67 46Q94 46 127 49Q141 52 146 61Q149 65 218 339T287 628ZM645 554Q645 567 643 575T634 597T609 619T560 635Q553 636 480 637Q463 637 445 637T416 636T404 636Q391 635 386 627Q384 621 367 550T332 412T314 344Q314 342 395 342H407H430Q542 342 590 392Q617 419 631 471T645 554Z"
              />
            </g>
            <g data-mml-node="mn" transform="translate(675,-150) scale(0.707)">
              <path
                data-c="35"
                d="M164 157Q164 133 148 117T109 101H102Q148 22 224 22Q294 22 326 82Q345 115 345 210Q345 313 318 349Q292 382 260 382H254Q176 382 136 314Q132 307 129 306T114 304Q97 304 95 310Q93 314 93 485V614Q93 664 98 664Q100 666 102 666Q103 666 123 658T178 642T253 634Q324 634 389 662Q397 666 402 666Q410 666 410 648V635Q328 538 205 538Q174 538 149 544L139 546V374Q158 388 169 396T205 412T256 420Q337 420 393 355T449 201Q449 109 385 44T229 -22Q148 -22 99 32T50 154Q50 178 61 192T84 210T107 214Q132 214 148 197T164 157Z"
              />
            </g>
          </g>
        </g>
      </g>
    </svg>
  </g>
  <g transform="rotate(0, 245, 20)translate(232.0568, 9.8168)">
    <title>3:2:nSides</title>
    <svg
      style="font-size: 24px"
      xmlns="http://www.w3.org/2000/svg"
      width="25.886400000000002"
      height="20.3664"
      role="img"
      focusable="false"
      viewBox="0 -683 1078.6 848.6"
    >
      <g
        stroke="none"
        fill="#000000"
        stroke-width="0"
        transform="scale(1,-1)"
        fill-opacity="1"
      >
        <g data-mml-node="math">
          <g data-mml-node="msub">
            <g data-mml-node="mi">
              <path
                data-c="1D443"
                d="M287 628Q287 635 230 637Q206 637 199 638T192 648Q192 649 194 659Q200 679 203 681T397 683Q587 682 600 680Q664 669 707 631T751 530Q751 453 685 389Q616 321 507 303Q500 302 402 301H307L277 182Q247 66 247 59Q247 55 248 54T255 50T272 48T305 46H336Q342 37 342 35Q342 19 335 5Q330 0 319 0Q316 0 282 1T182 2Q120 2 87 2T51 1Q33 1 33 11Q33 13 36 25Q40 41 44 43T67 46Q94 46 127 49Q141 52 146 61Q149 65 218 339T287 628ZM645 554Q645 567 643 575T634 597T609 619T560 635Q553 636 480 637Q463 637 445 637T416 636T404 636Q391 635 386 627Q384 621 367 550T332 412T314 344Q314 342 395 342H407H430Q542 342 590 392Q617 419 631 471T645 554Z"
              />
            </g>
            <g data-mml-node="mn" transform="translate(675,-150) scale(0.707)">
              <path
                data-c="33"
                d="M127 463Q100 463 85 480T69 524Q69 579 117 622T233 665Q268 665 277 664Q351 652 390 611T430 522Q430 470 396 421T302 350L299 348Q299 347 308 345T337 336T375 315Q457 262 457 175Q457 96 395 37T238 -22Q158 -22 100 21T42 130Q42 158 60 175T105 193Q133 193 151 175T169 130Q169 119 166 110T159 94T148 82T136 74T126 70T118 67L114 66Q165 21 238 21Q293 21 321 74Q338 107 338 175V195Q338 290 274 322Q259 328 213 329L171 330L168 332Q166 335 166 348Q166 366 174 366Q202 366 232 371Q266 376 294 413T322 525V533Q322 590 287 612Q265 626 240 626Q208 626 181 615T143 592T132 580H135Q138 579 143 578T153 573T165 566T175 555T183 540T186 520Q186 498 172 481T127 463Z"
              />
            </g>
          </g>
        </g>
      </g>
    </svg>
  </g>
  <g transform="rotate(0, 160, 20)translate(147.0568, 10.004000000000001)">
    <title>3:1:nSides</title>
    <svg
      style="font-size: 24px"
      xmlns="http://www.w3.org/2000/svg"
      width="25.886400000000002"
      height="19.991999999999997"
      role="img"
      focusable="false"
      viewBox="0 -683 1078.6 833"
    >
      <g
        stroke="none"
        fill="#000000"
        stroke-width="0"
        transform="scale(1,-1)"
        fill-opacity="1"
      >
        <g data-mml-node="math">
          <g data-mml-node="msub">
            <g data-mml-node="mi">
              <path
                data-c="1D443"
                d="M287 628Q287 635 230 637Q206 637 199 638T192 648Q192 649 194 659Q200 679 203 681T397 683Q587 682 600 680Q664 669 707 631T751 530Q751 453 685 389Q616 321 507 303Q500 302 402 301H307L277 182Q247 66 247 59Q247 55 248 54T255 50T272 48T305 46H336Q342 37 342 35Q342 19 335 5Q330 0 319 0Q316 0 282 1T182 2Q120 2 87 2T51 1Q33 1 33 11Q33 13 36 25Q40 41 44 43T67 46Q94 46 127 49Q141 52 146 61Q149 65 218 339T287 628ZM645 554Q645 567 643 575T634 597T609 619T560 635Q553 636 480 637Q463 637 445 637T416 636T404 636Q391 635 386 627Q384 621 367 550T332 412T314 344Q314 342 395 342H407H430Q542 342 590 392Q617 419 631 471T645 554Z"
              />
            </g>
            <g data-mml-node="mn" transform="translate(675,-150) scale(0.707)">
              <path
                data-c="32"
                d="M109 429Q82 429 66 447T50 491Q50 562 103 614T235 666Q326 666 387 610T449 465Q449 422 429 383T381 315T301 241Q265 210 201 149L142 93L218 92Q375 92 385 97Q392 99 409 186V189H449V186Q448 183 436 95T421 3V0H50V19V31Q50 38 56 46T86 81Q115 113 136 137Q145 147 170 174T204 211T233 244T261 278T284 308T305 340T320 369T333 401T340 431T343 464Q343 527 309 573T212 619Q179 619 154 602T119 569T109 550Q109 549 114 549Q132 549 151 535T170 489Q170 464 154 447T109 429Z"
              />
            </g>
          </g>
        </g>
      </g>
    </svg>
  </g>
  <g
    transform="rotate(0, 75, 20)translate(62.056799999999996, 10.004000000000001)"
  >
    <title>3:0:nSides</title>
    <svg
      style="font-size: 24px"
      xmlns="http://www.w3.org/2000/svg"
      width="25.886400000000002"
      height="19.991999999999997"
      role="img"
      focusable="false"
      viewBox="0 -683 1078.6 833"
    >
      <g
        stroke="none"
        fill="#000000"
        stroke-width="0"
        transform="scale(1,-1)"
        fill-opacity="1"
      >
        <g data-mml-node="math">
          <g data-mml-node="msub">
            <g data-mml-node="mi">
              <path
                data-c="1D443"
                d="M287 628Q287 635 230 637Q206 637 199 638T192 648Q192 649 194 659Q200 679 203 681T397 683Q587 682 600 680Q664 669 707 631T751 530Q751 453 685 389Q616 321 507 303Q500 302 402 301H307L277 182Q247 66 247 59Q247 55 248 54T255 50T272 48T305 46H336Q342 37 342 35Q342 19 335 5Q330 0 319 0Q316 0 282 1T182 2Q120 2 87 2T51 1Q33 1 33 11Q33 13 36 25Q40 41 44 43T67 46Q94 46 127 49Q141 52 146 61Q149 65 218 339T287 628ZM645 554Q645 567 643 575T634 597T609 619T560 635Q553 636 480 637Q463 637 445 637T416 636T404 636Q391 635 386 627Q384 621 367 550T332 412T314 344Q314 342 395 342H407H430Q542 342 590 392Q617 419 631 471T645 554Z"
              />
            </g>
            <g data-mml-node="mn" transform="translate(675,-150) scale(0.707)">
              <path
                data-c="31"
                d="M213 578L200 573Q186 568 160 563T102 556H83V602H102Q149 604 189 617T245 641T273 663Q275 666 285 666Q294 666 302 660V361L303 61Q310 54 315 52T339 48T401 46H427V0H416Q395 3 257 3Q121 3 100 0H88V46H114Q136 46 152 46T177 47T193 50T201 52T207 57T213 61V578Z"
              />
            </g>
          </g>
        </g>
      </g>
    </svg>
  </g>
  <g transform="rotate(0, 330, 20)translate(317.0568, 10.004000000000001)">
    <title>3:3:nSides</title>
    <svg
      style="font-size: 24px"
      xmlns="http://www.w3.org/2000/svg"
      width="25.886400000000002"
      height="19.991999999999997"
      role="img"
      focusable="false"
      viewBox="0 -683 1078.6 833"
    >
      <g
        stroke="none"
        fill="#000000"
        stroke-width="0"
        transform="scale(1,-1)"
        fill-opacity="1"
      >
        <g data-mml-node="math">
          <g data-mml-node="msub">
            <g data-mml-node="mi">
              <path
                data-c="1D443"
                d="M287 628Q287 635 230 637Q206 637 199 638T192 648Q192 649 194 659Q200 679 203 681T397 683Q587 682 600 680Q664 669 707 631T751 530Q751 453 685 389Q616 321 507 303Q500 302 402 301H307L277 182Q247 66 247 59Q247 55 248 54T255 50T272 48T305 46H336Q342 37 342 35Q342 19 335 5Q330 0 319 0Q316 0 282 1T182 2Q120 2 87 2T51 1Q33 1 33 11Q33 13 36 25Q40 41 44 43T67 46Q94 46 127 49Q141 52 146 61Q149 65 218 339T287 628ZM645 554Q645 567 643 575T634 597T609 619T560 635Q553 636 480 637Q463 637 445 637T416 636T404 636Q391 635 386 627Q384 621 367 550T332 412T314 344Q314 342 395 342H407H430Q542 342 590 392Q617 419 631 471T645 554Z"
              />
            </g>
            <g data-mml-node="mn" transform="translate(675,-150) scale(0.707)">
              <path
                data-c="34"
                d="M462 0Q444 3 333 3Q217 3 199 0H190V46H221Q241 46 248 46T265 48T279 53T286 61Q287 63 287 115V165H28V211L179 442Q332 674 334 675Q336 677 355 677H373L379 671V211H471V165H379V114Q379 73 379 66T385 54Q393 47 442 46H471V0H462ZM293 211V545L74 212L183 211H293Z"
              />
            </g>
          </g>
        </g>
      </g>
    </svg>
  </g>
  <g transform="rotate(0, 500, 20)translate(487.0568, 9.8168)">
    <title>3:5:nSides</title>
    <svg
      style="font-size: 24px"
      xmlns="http://www.w3.org/2000/svg"
      width="25.886400000000002"
      height="20.3664"
      role="img"
      focusable="false"
      viewBox="0 -683 1078.6 848.6"
    >
      <g
        stroke="none"
        fill="#000000"
        stroke-width="0"
        transform="scale(1,-1)"
        fill-opacity="1"
      >
        <g data-mml-node="math">
          <g data-mml-node="msub">
            <g data-mml-node="mi">
              <path
                data-c="1D443"
                d="M287 628Q287 635 230 637Q206 637 199 638T192 648Q192 649 194 659Q200 679 203 681T397 683Q587 682 600 680Q664 669 707 631T751 530Q751 453 685 389Q616 321 507 303Q500 302 402 301H307L277 182Q247 66 247 59Q247 55 248 54T255 50T272 48T305 46H336Q342 37 342 35Q342 19 335 5Q330 0 319 0Q316 0 282 1T182 2Q120 2 87 2T51 1Q33 1 33 11Q33 13 36 25Q40 41 44 43T67 46Q94 46 127 49Q141 52 146 61Q149 65 218 339T287 628ZM645 554Q645 567 643 575T634 597T609 619T560 635Q553 636 480 637Q463 637 445 637T416 636T404 636Q391 635 386 627Q384 621 367 550T332 412T314 344Q314 342 395 342H407H430Q542 342 590 392Q617 419 631 471T645 554Z"
              />
            </g>
            <g data-mml-node="mn" transform="translate(675,-150) scale(0.707)">
              <path
                data-c="36"
                d="M42 313Q42 476 123 571T303 666Q372 666 402 630T432 550Q432 525 418 510T379 495Q356 495 341 509T326 548Q326 592 373 601Q351 623 311 626Q240 626 194 566Q147 500 147 364L148 360Q153 366 156 373Q197 433 263 433H267Q313 433 348 414Q372 400 396 374T435 317Q456 268 456 210V192Q456 169 451 149Q440 90 387 34T253 -22Q225 -22 199 -14T143 16T92 75T56 172T42 313ZM257 397Q227 397 205 380T171 335T154 278T148 216Q148 133 160 97T198 39Q222 21 251 21Q302 21 329 59Q342 77 347 104T352 209Q352 289 347 316T329 361Q302 397 257 397Z"
              />
            </g>
          </g>
        </g>
      </g>
    </svg>
  </g>
  <g transform="rotate(0, 585, 20)translate(572.0568, 9.8168)">
    <title>3:6:nSides</title>
    <svg
      style="font-size: 24px"
      xmlns="http://www.w3.org/2000/svg"
      width="25.886400000000002"
      height="20.3664"
      role="img"
      focusable="false"
      viewBox="0 -683 1078.6 848.6"
    >
      <g
        stroke="none"
        fill="#000000"
        stroke-width="0"
        transform="scale(1,-1)"
        fill-opacity="1"
      >
        <g data-mml-node="math">
          <g data-mml-node="msub">
            <g data-mml-node="mi">
              <path
                data-c="1D443"
                d="M287 628Q287 635 230 637Q206 637 199 638T192 648Q192 649 194 659Q200 679 203 681T397 683Q587 682 600 680Q664 669 707 631T751 530Q751 453 685 389Q616 321 507 303Q500 302 402 301H307L277 182Q247 66 247 59Q247 55 248 54T255 50T272 48T305 46H336Q342 37 342 35Q342 19 335 5Q330 0 319 0Q316 0 282 1T182 2Q120 2 87 2T51 1Q33 1 33 11Q33 13 36 25Q40 41 44 43T67 46Q94 46 127 49Q141 52 146 61Q149 65 218 339T287 628ZM645 554Q645 567 643 575T634 597T609 619T560 635Q553 636 480 637Q463 637 445 637T416 636T404 636Q391 635 386 627Q384 621 367 550T332 412T314 344Q314 342 395 342H407H430Q542 342 590 392Q617 419 631 471T645 554Z"
              />
            </g>
            <g data-mml-node="mn" transform="translate(675,-150) scale(0.707)">
              <path
                data-c="37"
                d="M55 458Q56 460 72 567L88 674Q88 676 108 676H128V672Q128 662 143 655T195 646T364 644H485V605L417 512Q408 500 387 472T360 435T339 403T319 367T305 330T292 284T284 230T278 162T275 80Q275 66 275 52T274 28V19Q270 2 255 -10T221 -22Q210 -22 200 -19T179 0T168 40Q168 198 265 368Q285 400 349 489L395 552H302Q128 552 119 546Q113 543 108 522T98 479L95 458V455H55V458Z"
              />
            </g>
          </g>
        </g>
      </g>
    </svg>
  </g>
  <g transform="rotate(0, 755, 20)translate(742.0568, 9.8168)">
    <title>3:8:nSides</title>
    <svg
      style="font-size: 24px"
      xmlns="http://www.w3.org/2000/svg"
      width="25.886400000000002"
      height="20.3664"
      role="img"
      focusable="false"
      viewBox="0 -683 1078.6 848.6"
    >
      <g
        stroke="none"
        fill="#000000"
        stroke-width="0"
        transform="scale(1,-1)"
        fill-opacity="1"
      >
        <g data-mml-node="math">
          <g data-mml-node="msub">
            <g data-mml-node="mi">
              <path
                data-c="1D443"
                d="M287 628Q287 635 230 637Q206 637 199 638T192 648Q192 649 194 659Q200 679 203 681T397 683Q587 682 600 680Q664 669 707 631T751 530Q751 453 685 389Q616 321 507 303Q500 302 402 301H307L277 182Q247 66 247 59Q247 55 248 54T255 50T272 48T305 46H336Q342 37 342 35Q342 19 335 5Q330 0 319 0Q316 0 282 1T182 2Q120 2 87 2T51 1Q33 1 33 11Q33 13 36 25Q40 41 44 43T67 46Q94 46 127 49Q141 52 146 61Q149 65 218 339T287 628ZM645 554Q645 567 643 575T634 597T609 619T560 635Q553 636 480 637Q463 637 445 637T416 636T404 636Q391 635 386 627Q384 621 367 550T332 412T314 344Q314 342 395 342H407H430Q542 342 590 392Q617 419 631 471T645 554Z"
              />
            </g>
            <g data-mml-node="mn" transform="translate(675,-150) scale(0.707)">
              <path
                data-c="39"
                d="M352 287Q304 211 232 211Q154 211 104 270T44 396Q42 412 42 436V444Q42 537 111 606Q171 666 243 666Q245 666 249 666T257 665H261Q273 665 286 663T323 651T370 619T413 560Q456 472 456 334Q456 194 396 97Q361 41 312 10T208 -22Q147 -22 108 7T68 93T121 149Q143 149 158 135T173 96Q173 78 164 65T148 49T135 44L131 43Q131 41 138 37T164 27T206 22H212Q272 22 313 86Q352 142 352 280V287ZM244 248Q292 248 321 297T351 430Q351 508 343 542Q341 552 337 562T323 588T293 615T246 625Q208 625 181 598Q160 576 154 546T147 441Q147 358 152 329T172 282Q197 248 244 248Z"
              />
            </g>
          </g>
        </g>
      </g>
    </svg>
  </g>
  <g transform="rotate(0, 670, 20)translate(657.0568, 9.8168)">
    <title>3:7:nSides</title>
    <svg
      style="font-size: 24px"
      xmlns="http://www.w3.org/2000/svg"
      width="25.886400000000002"
      height="20.3664"
      role="img"
      focusable="false"
      viewBox="0 -683 1078.6 848.6"
    >
      <g
        stroke="none"
        fill="#000000"
        stroke-width="0"
        transform="scale(1,-1)"
        fill-opacity="1"
      >
        <g data-mml-node="math">
          <g data-mml-node="msub">
            <g data-mml-node="mi">
              <path
                data-c="1D443"
                d="M287 628Q287 635 230 637Q206 637 199 638T192 648Q192 649 194 659Q200 679 203 681T397 683Q587 682 600 680Q664 669 707 631T751 530Q751 453 685 389Q616 321 507 303Q500 302 402 301H307L277 182Q247 66 247 59Q247 55 248 54T255 50T272 48T305 46H336Q342 37 342 35Q342 19 335 5Q330 0 319 0Q316 0 282 1T182 2Q120 2 87 2T51 1Q33 1 33 11Q33 13 36 25Q40 41 44 43T67 46Q94 46 127 49Q141 52 146 61Q149 65 218 339T287 628ZM645 554Q645 567 643 575T634 597T609 619T560 635Q553 636 480 637Q463 637 445 637T416 636T404 636Q391 635 386 627Q384 621 367 550T332 412T314 344Q314 342 395 342H407H430Q542 342 590 392Q617 419 631 471T645 554Z"
              />
            </g>
            <g data-mml-node="mn" transform="translate(675,-150) scale(0.707)">
              <path
                data-c="38"
                d="M70 417T70 494T124 618T248 666Q319 666 374 624T429 515Q429 485 418 459T392 417T361 389T335 371T324 363L338 354Q352 344 366 334T382 323Q457 264 457 174Q457 95 399 37T249 -22Q159 -22 101 29T43 155Q43 263 172 335L154 348Q133 361 127 368Q70 417 70 494ZM286 386L292 390Q298 394 301 396T311 403T323 413T334 425T345 438T355 454T364 471T369 491T371 513Q371 556 342 586T275 624Q268 625 242 625Q201 625 165 599T128 534Q128 511 141 492T167 463T217 431Q224 426 228 424L286 386ZM250 21Q308 21 350 55T392 137Q392 154 387 169T375 194T353 216T330 234T301 253T274 270Q260 279 244 289T218 306L210 311Q204 311 181 294T133 239T107 157Q107 98 150 60T250 21Z"
              />
            </g>
          </g>
        </g>
      </g>
    </svg>
  </g>
  <path
    fill="#000000"
    fill-opacity="0.06666666666666667"
    stroke="#000000"
    stroke-opacity="0.5333333333333333"
    stroke-width="1.5"
    stroke-linecap="butt"
    d="M 77.88675051261504 44.999998556624746 L 75 40 L 43.24573436123751 95.00000144337525 L 95.20725858830383 94.99999855662475 L 92.32050807568879 90 L 51.90599089908113 90 Z  M 43.24573436123751 95.00000144337525 L 40.35898384862247 100 L 103.86751512614745 100.00000000000001 L 77.88675051261504 55.000001443375254 L 75 60 L 95.20725858830383 94.99999855662475 Z  M 103.86751512614745 100.00000000000001 L 109.64101615137753 100.00000000000001 L 77.88675051261504 44.999998556624746 L 51.90599089908113 90 L 57.67949192431121 90 L 77.88675051261504 55.000001443375254 Z "
    opacity="0.25"
  >
    <title>`P_1`.ccw</title>
  </path>
  <path
    fill="#000000"
    fill-opacity="0.06666666666666667"
    stroke="#000000"
    stroke-opacity="0.5333333333333333"
    stroke-width="1.5"
    stroke-linecap="butt"
    d="M 72.11324948738496 164.99999855662475 L 75 160 L 106.75426563876249 215.00000144337525 L 54.79274141169617 214.99999855662475 L 57.67949192431121 210 L 98.09400910091887 210 Z  M 106.75426563876249 215.00000144337525 L 109.64101615137753 220 L 46.13248487385255 220 L 72.11324948738496 175.00000144337525 L 75 180 L 54.79274141169617 214.99999855662475 Z  M 46.13248487385255 220 L 40.35898384862247 220 L 72.11324948738496 164.99999855662475 L 98.09400910091887 210 L 92.32050807568879 210 L 72.11324948738496 175.00000144337525 Z "
    opacity="0.25"
  >
    <title>`P_1`.cw</title>
  </path>
  <path
    fill="#000000"
    fill-opacity="0.06666666666666667"
    stroke="#000000"
    stroke-opacity="0.5333333333333333"
    stroke-width="1.5"
    stroke-linecap="butt"
    d="M 162.88675051261504 44.999998556624746 L 160 40 L 128.2457343612375 95.00000144337525 L 180.2072585883038 94.99999855662475 L 177.32050807568876 90 L 136.90599089908113 90 Z  M 128.2457343612375 95.00000144337525 L 125.35898384862247 100 L 188.86751512614745 100.00000000000001 L 162.88675051261504 55.000001443375254 L 160 60 L 180.2072585883038 94.99999855662475 Z  M 188.86751512614745 100.00000000000001 L 194.64101615137753 100.00000000000001 L 162.88675051261504 44.999998556624746 L 136.90599089908113 90 L 142.6794919243112 90 L 162.88675051261504 55.000001443375254 Z "
    opacity="0.25"
  >
    <title>`P_2`.ccw</title>
  </path>
  <path
    fill="#000000"
    fill-opacity="0.06666666666666667"
    stroke="#000000"
    stroke-opacity="0.5333333333333333"
    stroke-width="1.5"
    stroke-linecap="butt"
    d="M 157.11324948738496 164.99999855662475 L 160 160 L 191.75426563876252 215.00000144337525 L 139.79274141169617 214.99999855662475 L 142.6794919243112 210 L 183.09400910091884 210 Z  M 191.75426563876252 215.00000144337525 L 194.64101615137756 220 L 131.13248487385255 220 L 157.11324948738496 175.00000144337525 L 160 180 L 139.79274141169617 214.99999855662475 Z  M 131.13248487385255 220 L 125.35898384862247 220 L 157.11324948738496 164.99999855662475 L 183.09400910091884 210 L 177.32050807568876 210 L 157.11324948738496 175.00000144337525 Z "
    opacity="0.25"
  >
    <title>`P_2`.cw</title>
  </path>
  <path
    fill="#000000"
    fill-opacity="0.06666666666666667"
    stroke="#000000"
    stroke-opacity="0.5333333333333333"
    stroke-width="1.5"
    stroke-linecap="butt"
    d="M 247.88675051261504 44.999998556624746 L 245 40 L 213.24573436123748 95.00000144337525 L 265.20725858830383 94.99999855662475 L 262.32050807568874 90 L 221.90599089908116 90 Z  M 213.24573436123748 95.00000144337525 L 210.35898384862244 100 L 273.86751512614745 100.00000000000001 L 247.88675051261504 55.000001443375254 L 245 60 L 265.20725858830383 94.99999855662475 Z  M 273.86751512614745 100.00000000000001 L 279.6410161513775 100.00000000000001 L 247.88675051261504 44.999998556624746 L 221.90599089908116 90 L 227.67949192431124 90 L 247.88675051261504 55.000001443375254 Z "
  >
    <title>`P_3`.ccw</title>
  </path>
  <path
    fill="#000000"
    fill-opacity="0.06666666666666667"
    stroke="#000000"
    stroke-opacity="0.5333333333333333"
    stroke-width="1.5"
    stroke-linecap="butt"
    d="M 242.11324948738496 164.99999855662475 L 245 160 L 276.7542656387625 215.00000144337525 L 224.7927414116962 214.99999855662475 L 227.67949192431124 210 L 268.0940091009188 210 Z  M 276.7542656387625 215.00000144337525 L 279.6410161513776 220 L 216.13248487385255 220 L 242.11324948738496 175.00000144337525 L 245 180 L 224.7927414116962 214.99999855662475 Z  M 216.13248487385255 220 L 210.35898384862247 220 L 242.11324948738496 164.99999855662475 L 268.0940091009188 210 L 262.32050807568874 210 L 242.11324948738496 175.00000144337525 Z "
  >
    <title>`P_3`.cw</title>
  </path>
  <path
    fill="#000000"
    fill-opacity="0.06666666666666667"
    stroke="#000000"
    stroke-opacity="0.5333333333333333"
    stroke-width="1.5"
    stroke-linecap="butt"
    d="M 334.9999982322337 44.99999823223368 L 330 40 L 294.9999982322337 75.00000176776632 L 325.0000017677663 104.99999823223368 L 330 100 L 305.0000017677663 75.00000176776632 Z  M 294.9999982322337 75.00000176776632 L 290 80 L 325.0000017677663 115.00000176776632 L 354.9999982322337 84.99999823223368 L 350 80 L 325.0000017677663 104.99999823223368 Z  M 325.0000017677663 115.00000176776632 L 330 120 L 365.0000017677663 84.99999823223368 L 334.9999982322337 55.00000176776632 L 330 60 L 354.9999982322337 84.99999823223368 Z  M 365.0000017677663 84.99999823223368 L 370 80 L 334.9999982322337 44.99999823223368 L 305.0000017677663 75.00000176776632 L 310 80 L 334.9999982322337 55.00000176776632 Z "
  >
    <title>`P_4`.ccw</title>
  </path>
  <path
    fill="#000000"
    fill-opacity="0.06666666666666667"
    stroke="#000000"
    stroke-opacity="0.5333333333333333"
    stroke-width="1.5"
    stroke-linecap="butt"
    d="M 325.0000017677663 164.99999823223368 L 330 160 L 365.0000017677663 195.00000176776632 L 334.9999982322337 224.99999823223368 L 330 220 L 354.9999982322337 195.00000176776632 Z  M 365.0000017677663 195.00000176776632 L 370 200 L 334.9999982322337 235.00000176776632 L 305.0000017677663 204.99999823223368 L 310 200 L 334.9999982322337 224.99999823223368 Z  M 334.9999982322337 235.00000176776632 L 330 240 L 294.9999982322337 204.99999823223368 L 325.0000017677663 175.00000176776632 L 330 180 L 305.0000017677663 204.99999823223368 Z  M 294.9999982322337 204.99999823223368 L 290 200 L 325.0000017677663 164.99999823223368 L 354.9999982322337 195.00000176776632 L 350 200 L 325.0000017677663 175.00000176776632 Z "
  >
    <title>`P_4`.cw</title>
  </path>
  <path
    fill="#000000"
    fill-opacity="0.06666666666666667"
    stroke="#000000"
    stroke-opacity="0.5333333333333333"
    stroke-width="1.5"
    stroke-linecap="butt"
    d="M 421.88190667530614 44.999997873373886 L 415 40 L 383.8396460235 62.639322351628216 L 394.7377904886626 96.18033988749895 L 403.2442949541505 96.18033988749895 L 393.3502152315348 65.72949360970492 Z  M 383.8396460235 62.639322351628216 L 376.95773934819385 67.63932022500211 L 388.8599354657389 104.27051327220175 L 424.12705060328733 104.27050639029508 L 426.7557050458495 96.18033988749895 L 394.7377904886626 96.18033988749895 Z  M 388.8599354657389 104.27051327220175 L 391.4885899083011 112.36067977499789 L 430.004905626211 112.36067977499789 L 440.9030370012092 78.81965798587494 L 434.0211303259031 73.81966011250105 L 424.12705060328733 104.27050639029508 Z  M 430.004905626211 112.36067977499789 L 438.5114100916989 112.36067977499789 L 450.413606209244 75.72948672779825 L 421.88190667530614 55.000002126626114 L 415 60 L 440.9030370012092 78.81965798587494 Z  M 450.413606209244 75.72948672779825 L 453.04226065180615 67.63932022500211 L 421.88190667530614 44.999997873373886 L 393.3502152315348 65.72949360970492 L 395.9788696740969 73.81966011250105 L 421.88190667530614 55.000002126626114 Z "
  >
    <title>`P_5`.ccw</title>
  </path>
  <path
    fill="#000000"
    fill-opacity="0.06666666666666667"
    stroke="#000000"
    stroke-opacity="0.5333333333333333"
    stroke-width="1.5"
    stroke-linecap="butt"
    d="M 408.11809332469386 164.9999978733739 L 415 160 L 446.1603539765 182.6393223516282 L 435.2622095113374 216.18033988749895 L 426.7557050458495 216.18033988749895 L 436.6497847684652 185.72949360970492 Z  M 446.1603539765 182.6393223516282 L 453.04226065180615 187.6393202250021 L 441.1400645342611 224.27051327220175 L 405.87294939671267 224.27050639029508 L 403.2442949541505 216.18033988749895 L 435.2622095113374 216.18033988749895 Z  M 441.1400645342611 224.27051327220175 L 438.51141009169896 232.3606797749979 L 399.995094373789 232.3606797749979 L 389.0969629987908 198.81965798587493 L 395.9788696740969 193.81966011250105 L 405.87294939671267 224.27050639029508 Z  M 399.995094373789 232.3606797749979 L 391.4885899083011 232.3606797749979 L 379.586393790756 195.72948672779825 L 408.11809332469386 175.0000021266261 L 415 180 L 389.0969629987908 198.81965798587493 Z  M 379.586393790756 195.72948672779825 L 376.95773934819385 187.6393202250021 L 408.11809332469386 164.9999978733739 L 436.6497847684652 185.72949360970492 L 434.0211303259031 193.81966011250105 L 408.11809332469386 175.0000021266261 Z "
  >
    <title>`P_5`.cw</title>
  </path>
  <path
    fill="#000000"
    fill-opacity="0.06666666666666667"
    stroke="#000000"
    stroke-opacity="0.5333333333333333"
    stroke-width="1.5"
    stroke-linecap="butt"
    d="M 508.6602497077195 44.99999750000126 L 500 40 L 474.019233556342 55.00000249999874 L 474.0192422165917 85.00000249999874 L 482.6794919243112 90 L 482.67949192431126 60.0000049999975 Z  M 474.019233556342 55.00000249999874 L 465.3589838486225 60 L 465.3589838486224 90.00000499999749 L 491.3397502922805 104.99999750000126 L 500 100 L 474.0192422165917 85.00000249999874 Z  M 465.3589838486224 90.00000499999749 L 465.3589838486224 100 L 491.3397502922805 115.00000249999876 L 517.3205080756887 99.99999500000251 L 517.3205080756887 90 L 491.3397502922805 104.99999750000126 Z  M 491.3397502922805 115.00000249999876 L 500 120 L 525.980766443658 104.99999750000126 L 525.9807577834083 74.99999750000126 L 517.3205080756887 70 L 517.3205080756887 99.99999500000251 Z  M 525.980766443658 104.99999750000126 L 534.6410161513775 100.00000000000001 L 534.6410161513775 69.9999950000025 L 508.6602497077195 55.00000249999874 L 500 60 L 525.9807577834083 74.99999750000126 Z  M 534.6410161513775 69.9999950000025 L 534.6410161513775 60 L 508.6602497077195 44.99999750000126 L 482.67949192431126 60.0000049999975 L 482.67949192431126 70 L 508.6602497077195 55.00000249999874 Z "
  >
    <title>`P_6`.ccw</title>
  </path>
  <path
    fill="#000000"
    fill-opacity="0.06666666666666667"
    stroke="#000000"
    stroke-opacity="0.5333333333333333"
    stroke-width="1.5"
    stroke-linecap="butt"
    d="M 491.3397502922805 164.99999750000126 L 500 160 L 525.980766443658 175.00000249999874 L 525.9807577834083 205.00000249999874 L 517.3205080756887 210 L 517.3205080756887 180.0000049999975 Z  M 525.980766443658 175.00000249999874 L 534.6410161513775 180 L 534.6410161513776 210.0000049999975 L 508.6602497077195 224.99999750000126 L 500 220 L 525.9807577834083 205.00000249999874 Z  M 534.6410161513776 210.0000049999975 L 534.6410161513776 220 L 508.6602497077195 235.00000249999874 L 482.67949192431126 219.9999950000025 L 482.67949192431126 210 L 508.6602497077195 224.99999750000126 Z  M 508.6602497077195 235.00000249999874 L 500 240 L 474.019233556342 224.99999750000126 L 474.0192422165917 194.99999750000126 L 482.67949192431126 190 L 482.67949192431126 219.9999950000025 Z  M 474.019233556342 224.99999750000126 L 465.3589838486225 220 L 465.3589838486225 189.9999950000025 L 491.3397502922805 175.00000249999874 L 500 180 L 474.0192422165917 194.99999750000126 Z  M 465.3589838486225 189.9999950000025 L 465.3589838486225 180 L 491.3397502922805 164.99999750000126 L 517.3205080756887 180.0000049999975 L 517.3205080756887 190 L 491.3397502922805 175.00000249999874 Z "
  >
    <title>`P_6`.cw</title>
  </path>
  <path
    fill="#000000"
    fill-opacity="0.06666666666666667"
    stroke="#000000"
    stroke-opacity="0.5333333333333333"
    stroke-width="1.5"
    stroke-linecap="butt"
    d="M 595.3826010004982 44.999997119045574 L 585 40 L 564.109341701777 50.06041080660508 L 558.3164589326507 75.4407351914026 L 565.5014417563635 84.45041867912629 L 571.9276610312991 56.29531241768383 Z  M 564.109341701777 50.06041080660508 L 553.7267407012788 55.06040792565065 L 548.5671741933867 77.66594581311108 L 564.798507502759 98.01937735804837 L 576.3223252176488 98.01937735804839 L 558.3164589326507 75.4407351914026 Z  M 548.5671741933867 77.66594581311108 L 546.0028835127271 88.90083735825257 L 560.4596676115848 107.02907122837307 L 586.4926919586383 107.02906084577208 L 593.6776747823511 98.01937735804839 L 564.798507502759 98.01937735804837 Z  M 560.4596676115848 107.02907122837307 L 567.6446504352976 116.03875471609676 L 590.8315318498124 116.03875471609676 L 607.0628489242961 95.6853102242678 L 604.4985582436365 84.4504186791263 L 586.4926919586383 107.02906084577208 Z  M 590.8315318498124 116.03875471609676 L 602.3553495647024 116.03875471609678 L 616.8121336635601 97.91052084597628 L 611.0192306498587 72.5302010818709 L 600.6366296493607 67.53020396282534 L 607.0628489242961 95.6853102242678 Z  M 616.8121336635601 97.91052084597628 L 623.9971164872729 88.90083735825259 L 618.8375499793808 66.29529947079216 L 595.3826010004982 55.000002880954426 L 585 60 L 611.0192306498587 72.5302010818709 Z  M 618.8375499793808 66.29529947079216 L 616.2732592987212 55.060407925650665 L 595.3826010004982 44.999997119045574 L 571.9276610312991 56.29531241768383 L 569.3633703506393 67.53020396282533 L 595.3826010004982 55.000002880954426 Z "
  >
    <title>`P_7`.ccw</title>
  </path>
  <path
    fill="#000000"
    fill-opacity="0.06666666666666667"
    stroke="#000000"
    stroke-opacity="0.5333333333333333"
    stroke-width="1.5"
    stroke-linecap="butt"
    d="M 574.6173989995018 164.9999971190456 L 585 160 L 605.890658298223 170.0604108066051 L 611.6835410673493 195.4407351914026 L 604.4985582436365 204.4504186791263 L 598.0723389687009 176.29531241768382 Z  M 605.890658298223 170.0604108066051 L 616.2732592987212 175.06040792565065 L 621.4328258066133 197.66594581311108 L 605.201492497241 218.0193773580484 L 593.6776747823512 218.0193773580484 L 611.6835410673493 195.4407351914026 Z  M 621.4328258066133 197.66594581311108 L 623.9971164872729 208.90083735825257 L 609.5403323884152 227.02907122837308 L 583.5073080413617 227.02906084577208 L 576.3223252176489 218.0193773580484 L 605.201492497241 218.0193773580484 Z  M 609.5403323884152 227.02907122837308 L 602.3553495647024 236.03875471609678 L 579.1684681501876 236.03875471609678 L 562.9371510757039 215.68531022426777 L 565.5014417563635 204.4504186791263 L 583.5073080413617 227.02906084577208 Z  M 579.1684681501876 236.03875471609678 L 567.6446504352976 236.03875471609678 L 553.1878663364399 217.9105208459763 L 558.9807693501413 192.5302010818709 L 569.3633703506393 187.53020396282534 L 562.9371510757039 215.68531022426777 Z  M 553.1878663364399 217.9105208459763 L 546.0028835127271 208.9008373582526 L 551.1624500206192 186.29529947079214 L 574.6173989995018 175.00000288095444 L 585 180 L 558.9807693501413 192.5302010818709 Z  M 551.1624500206192 186.29529947079214 L 553.7267407012788 175.06040792565068 L 574.6173989995018 164.9999971190456 L 598.0723389687009 176.29531241768382 L 600.6366296493607 187.53020396282534 L 574.6173989995018 175.00000288095444 Z "
  >
    <title>`P_7`.cw</title>
  </path>
  <path
    fill="#000000"
    fill-opacity="0.06666666666666667"
    stroke="#000000"
    stroke-opacity="0.5333333333333333"
    stroke-width="1.5"
    stroke-linecap="butt"
    d="M 682.0710599260656 44.99999673359471 L 670 40 L 653.7867886786037 46.715732018943385 L 645.0000032664053 67.92894007393446 L 650 80 L 660.8578611098637 53.786804450203505 Z  M 653.7867886786037 46.715732018943385 L 641.7157287525381 51.7157287525381 L 634.9999967335947 67.92894007393446 L 643.7868044502035 89.14213889013624 L 655.857864376269 94.14213562373095 L 645.0000032664053 67.92894007393446 Z  M 634.9999967335947 67.92894007393446 L 630 80 L 636.7157320189434 96.21321132139636 L 657.9289400739344 104.99999673359471 L 670 100 L 643.7868044502035 89.14213889013624 Z  M 636.7157320189434 96.21321132139636 L 641.7157287525381 108.2842712474619 L 657.9289400739344 115.00000326640529 L 679.1421388901363 106.2131955497965 L 684.142135623731 94.14213562373095 L 657.9289400739344 104.99999673359471 Z  M 657.9289400739344 115.00000326640529 L 670 120 L 686.2132113213963 113.28426798105663 L 694.9999967335948 92.07105992606556 L 690 80 L 679.1421388901363 106.2131955497965 Z  M 686.2132113213963 113.28426798105663 L 698.2842712474619 108.2842712474619 L 705.0000032664052 92.07105992606556 L 696.2131955497965 70.85786110986376 L 684.142135623731 65.85786437626905 L 694.9999967335948 92.07105992606556 Z  M 705.0000032664052 92.07105992606556 L 710 80 L 703.2842679810567 63.78678867860365 L 682.0710599260656 55.00000326640529 L 670 60 L 696.2131955497965 70.85786110986376 Z  M 703.2842679810567 63.78678867860365 L 698.2842712474619 51.7157287525381 L 682.0710599260656 44.99999673359471 L 660.8578611098637 53.786804450203505 L 655.857864376269 65.85786437626905 L 682.0710599260656 55.00000326640529 Z "
  >
    <title>`P_8`.ccw</title>
  </path>
  <path
    fill="#000000"
    fill-opacity="0.06666666666666667"
    stroke="#000000"
    stroke-opacity="0.5333333333333333"
    stroke-width="1.5"
    stroke-linecap="butt"
    d="M 657.9289400739344 164.9999967335947 L 670 160 L 686.2132113213963 166.71573201894338 L 694.9999967335948 187.92894007393446 L 690 200 L 679.1421388901363 173.7868044502035 Z  M 686.2132113213963 166.71573201894338 L 698.2842712474619 171.7157287525381 L 705.0000032664052 187.92894007393446 L 696.2131955497965 209.14213889013624 L 684.142135623731 214.14213562373095 L 694.9999967335948 187.92894007393446 Z  M 705.0000032664052 187.92894007393446 L 710 200 L 703.2842679810567 216.21321132139636 L 682.0710599260656 224.9999967335947 L 670 220 L 696.2131955497965 209.14213889013624 Z  M 703.2842679810567 216.21321132139636 L 698.2842712474619 228.2842712474619 L 682.0710599260656 235.0000032664053 L 660.8578611098637 226.2131955497965 L 655.857864376269 214.14213562373095 L 682.0710599260656 224.9999967335947 Z  M 682.0710599260656 235.0000032664053 L 670 240 L 653.7867886786037 233.28426798105662 L 645.0000032664053 212.07105992606554 L 650 200 L 660.8578611098637 226.2131955497965 Z  M 653.7867886786037 233.28426798105662 L 641.7157287525381 228.2842712474619 L 634.9999967335947 212.07105992606557 L 643.7868044502035 190.85786110986376 L 655.857864376269 185.85786437626905 L 645.0000032664053 212.07105992606554 Z  M 634.9999967335947 212.07105992606557 L 630 200 L 636.7157320189434 183.78678867860367 L 657.9289400739344 175.0000032664053 L 670 180 L 643.7868044502035 190.85786110986376 Z  M 636.7157320189434 183.78678867860367 L 641.7157287525381 171.7157287525381 L 657.9289400739344 164.9999967335947 L 679.1421388901363 173.7868044502035 L 684.142135623731 185.85786437626905 L 657.9289400739344 175.0000032664053 Z "
  >
    <title>`P_8`.cw</title>
  </path>
  <path
    fill="#000000"
    fill-opacity="0.06666666666666667"
    stroke="#000000"
    stroke-opacity="0.5333333333333333"
    stroke-width="1.5"
    stroke-linecap="butt"
    d="M 768.7373770559223 44.99999634524718 L 755 40 L 743.0258726684607 44.35822592999371 L 732.7652802656081 62.13012076224366 L 735.3038449397559 76.52703644666138 L 749.4537534637857 52.01867596058969 Z  M 743.0258726684607 44.35822592999371 L 729.2884956125384 49.35822227524088 L 722.9171955370282 60.393637716292034 L 726.4806795425367 80.60308066082945 L 737.6794919243112 90 L 732.7652802656081 62.13012076224366 Z  M 722.9171955370282 60.393637716292034 L 715.6076898795117 73.05407289332278 L 717.8204191744748 85.60308431558227 L 733.5405858184536 98.79385241571816 L 748.1595971334866 98.79385241571816 L 726.4806795425367 80.60308066082945 Z  M 717.8204191744748 85.60308431558227 L 720.3589838486225 100 L 730.1203818851986 108.19078549226577 L 750.6415904847388 108.19077175488871 L 761.8404028665134 98.79385241571816 L 733.5405858184536 98.79385241571816 Z  M 730.1203818851986 108.19078549226577 L 741.3191942669732 117.58770483143633 L 754.0617944179937 117.58770483143634 L 769.7819434015411 104.39691568441773 L 772.3205080756888 90 L 750.6415904847388 108.19077175488871 Z  M 754.0617944179937 117.58770483143634 L 768.6808057330268 117.58770483143634 L 778.442203769603 109.39691933917057 L 782.0056607177607 89.18747162369215 L 774.6961550602441 76.5270364466614 L 769.7819434015411 104.39691568441773 Z  M 778.442203769603 109.39691933917057 L 789.6410161513775 100.00000000000001 L 791.8537454463406 87.45098857774053 L 781.593129249653 69.67910748286762 L 767.8557521937307 64.67911113762045 L 782.0056607177607 89.18747162369215 Z  M 791.8537454463406 87.45098857774053 L 794.3923101204883 73.0540728933228 L 788.0210100449781 62.01865745227164 L 768.7373770559223 55.00000365475283 L 755 60 L 781.593129249653 69.67910748286762 Z  M 788.0210100449781 62.01865745227164 L 780.7115043874616 49.35822227524089 L 768.7373770559223 44.99999634524718 L 749.4537534637857 52.01867596058969 L 742.1442478062693 64.67911113762044 L 768.7373770559223 55.00000365475283 Z "
  >
    <title>`P_9`.ccw</title>
  </path>
  <path
    fill="#000000"
    fill-opacity="0.06666666666666667"
    stroke="#000000"
    stroke-opacity="0.5333333333333333"
    stroke-width="1.5"
    stroke-linecap="butt"
    d="M 741.2626229440777 164.99999634524718 L 755 160 L 766.9741273315393 164.3582259299937 L 777.2347197343919 182.13012076224368 L 774.6961550602441 196.52703644666138 L 760.5462465362143 172.0186759605897 Z  M 766.9741273315393 164.3582259299937 L 780.7115043874616 169.35822227524088 L 787.0828044629718 180.39363771629203 L 783.5193204574633 200.60308066082945 L 772.3205080756888 210 L 777.2347197343919 182.13012076224368 Z  M 787.0828044629718 180.39363771629203 L 794.3923101204883 193.05407289332277 L 792.1795808255252 205.6030843155823 L 776.4594141815464 218.79385241571816 L 761.8404028665134 218.79385241571816 L 783.5193204574633 200.60308066082945 Z  M 792.1795808255252 205.6030843155823 L 789.6410161513775 220 L 779.8796181148014 228.19078549226577 L 759.3584095152612 228.19077175488871 L 748.1595971334866 218.79385241571816 L 776.4594141815464 218.79385241571816 Z  M 779.8796181148014 228.19078549226577 L 768.6808057330268 237.58770483143633 L 755.9382055820063 237.58770483143633 L 740.2180565984589 224.39691568441773 L 737.6794919243112 210 L 759.3584095152612 228.19077175488871 Z  M 755.9382055820063 237.58770483143633 L 741.3191942669732 237.58770483143633 L 731.557796230397 229.39691933917055 L 727.9943392822393 209.18747162369215 L 735.3038449397559 196.52703644666138 L 740.2180565984589 224.39691568441773 Z  M 731.557796230397 229.39691933917055 L 720.3589838486225 220 L 718.1462545536594 207.45098857774053 L 728.406870750347 189.6791074828676 L 742.1442478062693 184.67911113762045 L 727.9943392822393 209.18747162369215 Z  M 718.1462545536594 207.45098857774053 L 715.6076898795117 193.0540728933228 L 721.9789899550219 182.01865745227164 L 741.2626229440777 175.00000365475285 L 755 180 L 728.406870750347 189.6791074828676 Z  M 721.9789899550219 182.01865745227164 L 729.2884956125384 169.3582222752409 L 741.2626229440777 164.99999634524718 L 760.5462465362143 172.0186759605897 L 767.8557521937307 184.67911113762045 L 741.2626229440777 175.00000365475285 Z "
  >
    <title>`P_9`.cw</title>
  </path>
</svg>
