<svg version="1.2" xmlns="http://www.w3.org/2000/svg" viewBox="0 0 600 400">
  <polyline
    fill="none"
    stroke="#000000"
    stroke-opacity="1"
    stroke-width="2"
    stroke-linecap="butt"
    transform="scale(1)"
    points="170,200,164.80783378658325,196.99310625191816,160.145922713092,193.11903247454003,156.22372866262788,188.4975401362366,153.17256341806277,183.25991967845667,151.0628350600371,177.57727791152672,149.9245488936246,171.62349938828572,149.75590726612532,165.5641630319168,150.52827291855644,159.55195110401866,152.18991516919823,153.72243150273573,154.66937588821023,148.1911072654048,157.8808820898397,143.04993231298522,161.72949297889508,138.36677651338982,166.11751080662327,134.18457685282797,170.94915947221813,130.52393223354392,176.13540482411202,127.38576895522493,181.59696242009363,124.75548244293907,187.2653417784398,122.6071231678323,193.08404460416529,120.90684978902883,199.0070503583665,119.61651683282372,204.99875929385132,118.69581524977666,211.03177858799077,118.10418134217915,217.08624008116024,117.80179924571911,223.1480058313401,117.75020197321633,229.20782641427553,117.91248476865002,235.26022812982922,118.25326414547992,241.3028225065206,118.73835741527886,247.33543617664787,119.33426642078335,253.36001482064782,120.0075263982169,259.3795258552068,120.72383140383884,265.3982770285317,121.44729792170385,271.4205912902352,122.13963433939276,277.45085257179466,122.75964591259216,283.49191411636,123.26284683513886,289.544488533496,123.6014045715732,295.60526440014564,123.72425740923002,301.66544009092115,123.57748702271968,307.7089945677236,123.10481478328181,313.7100014486227,122.24845891388117,319.63125155150556,120.9502020128118,325.4205240170854,119.1533603515758,331.00908180264145,116.80537529178282,336.3084013252796,113.86228578911371,341.20890707484926,110.29464515418584,345.58033843739076,106.09523086151657,349.2738776353279,101.28911533338997,352.1299741534703,95.94257571238734,353.9889340789402,90.1733652776311,354.70855168492324,84.15484477966618,354.1847018421862,78.11630813968719,352.374505851488,72.33164405532315,349.31624172096423,67.0985986573643,345.1389920968306,62.70654559590369,340.0582921354161,59.40126340750169,334.353425010914,57.35310585631737,328.3342550356153,56.6398003085132,322.30319461404133,57.24565063571171,316.52527557920416,59.07736846466452,311.2085597200838,61.98836950687166,306.49894501540984,65.80425902299623,302.48341864809163,70.34502342504248,299.1996231921227,75.44029883036363,296.64721691676954,80.93851633827593,294.7988675845592,86.71183790272586,293.6103067404088,92.65616902224177,293.0282358366026,98.69031982421791,292.99671082968194,104.75241831951485,293.4615105012655,110.79691187794617,294.37285847238326,116.79031257935983,295.68690893902647,122.70844426783457,297.3658930386669,128.53360195178408,299.3774858206832,134.2522387714001,301.69414193231916,139.85435684542978,304.29172056310375,145.3318781882619,307.14893615033395,150.67857569822385,310.24691509765796,155.8895535178517,313.56898828318504,160.96057199038015,317.10104062089835,165.8876202206045,320.831601405099,170.66604889763474,324.7520092496354,175.2899392117189,328.856363154648,179.75143516808737,333.14084286819264,184.0399571484838,337.6038608673263,188.14262097281778,342.24442807934685,192.04298356723075,347.0624601926777,195.72196384639815,352.05718628439627,199.15699267074868,357.2270021299646,202.32231407738618,362.56846541691067,205.18837234837113,368.0757124841263,207.72115500248685,373.73957862317667,209.88137817367758,379.54550383221385,211.62402035547635,385.4718313178926,212.8989328037054,391.48693209348545,213.6509848317666,397.5464903179949,213.82185505852502,403.59035709264214,213.3547677303362,409.5410369690092,212.19808834380572,415.30263405092876,210.31327492714126,420.76187998083253,207.67770549792198,425.7556703849968,204.2409510866322,430,200"
  >
    <title>`c`.poly</title>
  </polyline>
  <g>
    <marker
      id="registry-ClamshellKookabura228-`c`.arrow1-endArrowId"
      markerUnits="strokeWidth"
      markerWidth="9.95"
      markerHeight="8.12"
      viewBox="0 0 9.95 8.12"
      refX="2.36"
      refY="4.06"
      orient="auto-start-reverse"
    >
      <path
        d="M9.95 4.06 0 8.12 2.36 4.06 0 0 9.95 4.06z"
        fill="#22a34d"
        fill-opacity="0.6588235294117647"
      ></path>
    </marker>
    <path
      d="M 170 200 L 101.96964218870696 160.60217466575784"
      stroke-opacity="0.6588235294117647"
      stroke-width="1.5"
      stroke="#22a34d"
      stroke-linecap="butt"
      marker-end="url(#registry-ClamshellKookabura228-`c`.arrow1-endArrowId)"
    ></path>
    <title>`c`.arrow1</title>
  </g>
  <g>
    <marker
      id="registry-ClamshellKookabura228-`c`.arrow2-endArrowId"
      markerUnits="strokeWidth"
      markerWidth="9.95"
      markerHeight="8.12"
      viewBox="0 0 9.95 8.12"
      refX="2.36"
      refY="4.06"
      orient="auto-start-reverse"
    >
      <path
        d="M9.95 4.06 0 8.12 2.36 4.06 0 0 9.95 4.06z"
        fill="#22a34d"
        fill-opacity="0.6588235294117647"
      ></path>
    </marker>
    <path
      d="M 430 200 L 485.61132878057936 144.43293838740166"
      stroke-opacity="0.6588235294117647"
      stroke-width="1.5"
      stroke="#22a34d"
      stroke-linecap="butt"
      marker-end="url(#registry-ClamshellKookabura228-`c`.arrow2-endArrowId)"
    ></path>
    <title>`c`.arrow2</title>
  </g>
</svg>
