<svg version="1.2" xmlns="http://www.w3.org/2000/svg" viewBox="0 0 500 500">
  <rect
    x="50"
    y="50"
    width="400"
    height="400"
    fill="none"
    stroke="#8ea0c4"
    stroke-opacity="1"
    stroke-width="2"
    stroke-linecap="butt"
    rx="0"
    transform="rotate(0, 250, 250)"
  >
    <title>`R`.icon</title>
  </rect>
  <g transform="rotate(0, 425, 75)translate(417.41, 67.96000000000001)">
    <title>`R`.text</title>
    <svg
      style="font-size: 20px"
      xmlns="http://www.w3.org/2000/svg"
      width="15.18"
      height="14.079999999999998"
      role="img"
      focusable="false"
      viewBox="0 -683 759 704"
    >
      <g
        stroke="none"
        fill="#000000"
        stroke-width="0"
        transform="scale(1,-1)"
        fill-opacity="1"
      >
        <g data-mml-node="math">
          <g data-mml-node="mi">
            <path
              data-c="1D445"
              d="M230 637Q203 637 198 638T193 649Q193 676 204 682Q206 683 378 683Q550 682 564 680Q620 672 658 652T712 606T733 563T739 529Q739 484 710 445T643 385T576 351T538 338L545 333Q612 295 612 223Q612 212 607 162T602 80V71Q602 53 603 43T614 25T640 16Q668 16 686 38T712 85Q717 99 720 102T735 105Q755 105 755 93Q755 75 731 36Q693 -21 641 -21H632Q571 -21 531 4T487 82Q487 109 502 166T517 239Q517 290 474 313Q459 320 449 321T378 323H309L277 193Q244 61 244 59Q244 55 245 54T252 50T269 48T302 46H333Q339 38 339 37T336 19Q332 6 326 0H311Q275 2 180 2Q146 2 117 2T71 2T50 1Q33 1 33 10Q33 12 36 24Q41 43 46 45Q50 46 61 46H67Q94 46 127 49Q141 52 146 61Q149 65 218 339T287 628Q287 635 230 637ZM630 554Q630 586 609 608T523 636Q521 636 500 636T462 637H440Q393 637 386 627Q385 624 352 494T319 361Q319 360 388 360Q466 361 492 367Q556 377 592 426Q608 449 619 486T630 554Z"
            ></path>
          </g>
        </g>
      </g>
    </svg>
  </g>
  <g
    transform="rotate(0, 414.0586299662465, 279.719443303837)translate(406.5586299662465, 272.559443303837)"
  >
    <title>`A`.text</title>
    <svg
      style="font-size: 20px"
      xmlns="http://www.w3.org/2000/svg"
      width="15"
      height="14.32"
      role="img"
      focusable="false"
      viewBox="0 -716 750 716"
    >
      <g
        stroke="none"
        fill="#000000"
        stroke-width="0"
        transform="scale(1,-1)"
        fill-opacity="1"
      >
        <g data-mml-node="math">
          <g data-mml-node="mi">
            <path
              data-c="1D434"
              d="M208 74Q208 50 254 46Q272 46 272 35Q272 34 270 22Q267 8 264 4T251 0Q249 0 239 0T205 1T141 2Q70 2 50 0H42Q35 7 35 11Q37 38 48 46H62Q132 49 164 96Q170 102 345 401T523 704Q530 716 547 716H555H572Q578 707 578 706L606 383Q634 60 636 57Q641 46 701 46Q726 46 726 36Q726 34 723 22Q720 7 718 4T704 0Q701 0 690 0T651 1T578 2Q484 2 455 0H443Q437 6 437 9T439 27Q443 40 445 43L449 46H469Q523 49 533 63L521 213H283L249 155Q208 86 208 74ZM516 260Q516 271 504 416T490 562L463 519Q447 492 400 412L310 260L413 259Q516 259 516 260Z"
            ></path>
          </g>
        </g>
      </g>
    </svg>
  </g>
  <g
    transform="rotate(0, 91.57567274056356, 84.1912589410311)translate(83.98567274056356, 77.3612589410311)"
  >
    <title>`B`.text</title>
    <svg
      style="font-size: 20px"
      xmlns="http://www.w3.org/2000/svg"
      width="15.18"
      height="13.66"
      role="img"
      focusable="false"
      viewBox="0 -683 759 683"
    >
      <g
        stroke="none"
        fill="#000000"
        stroke-width="0"
        transform="scale(1,-1)"
        fill-opacity="1"
      >
        <g data-mml-node="math">
          <g data-mml-node="mi">
            <path
              data-c="1D435"
              d="M231 637Q204 637 199 638T194 649Q194 676 205 682Q206 683 335 683Q594 683 608 681Q671 671 713 636T756 544Q756 480 698 429T565 360L555 357Q619 348 660 311T702 219Q702 146 630 78T453 1Q446 0 242 0Q42 0 39 2Q35 5 35 10Q35 17 37 24Q42 43 47 45Q51 46 62 46H68Q95 46 128 49Q142 52 147 61Q150 65 219 339T288 628Q288 635 231 637ZM649 544Q649 574 634 600T585 634Q578 636 493 637Q473 637 451 637T416 636H403Q388 635 384 626Q382 622 352 506Q352 503 351 500L320 374H401Q482 374 494 376Q554 386 601 434T649 544ZM595 229Q595 273 572 302T512 336Q506 337 429 337Q311 337 310 336Q310 334 293 263T258 122L240 52Q240 48 252 48T333 46Q422 46 429 47Q491 54 543 105T595 229Z"
            ></path>
          </g>
        </g>
      </g>
    </svg>
  </g>
  <g
    transform="rotate(0, 357.8361303687459, 416.80006904456224)translate(350.1961303687459, 410.0000690445622)"
  >
    <title>`E`.text</title>
    <svg
      style="font-size: 20px"
      xmlns="http://www.w3.org/2000/svg"
      width="15.280000000000001"
      height="13.600000000000001"
      role="img"
      focusable="false"
      viewBox="0 -680 764 680"
    >
      <g
        stroke="none"
        fill="#000000"
        stroke-width="0"
        transform="scale(1,-1)"
        fill-opacity="1"
      >
        <g data-mml-node="math">
          <g data-mml-node="mi">
            <path
              data-c="1D438"
              d="M492 213Q472 213 472 226Q472 230 477 250T482 285Q482 316 461 323T364 330H312Q311 328 277 192T243 52Q243 48 254 48T334 46Q428 46 458 48T518 61Q567 77 599 117T670 248Q680 270 683 272Q690 274 698 274Q718 274 718 261Q613 7 608 2Q605 0 322 0H133Q31 0 31 11Q31 13 34 25Q38 41 42 43T65 46Q92 46 125 49Q139 52 144 61Q146 66 215 342T285 622Q285 629 281 629Q273 632 228 634H197Q191 640 191 642T193 659Q197 676 203 680H757Q764 676 764 669Q764 664 751 557T737 447Q735 440 717 440H705Q698 445 698 453L701 476Q704 500 704 528Q704 558 697 578T678 609T643 625T596 632T532 634H485Q397 633 392 631Q388 629 386 622Q385 619 355 499T324 377Q347 376 372 376H398Q464 376 489 391T534 472Q538 488 540 490T557 493Q562 493 565 493T570 492T572 491T574 487T577 483L544 351Q511 218 508 216Q505 213 492 213Z"
            ></path>
          </g>
        </g>
      </g>
    </svg>
  </g>
  <g
    transform="rotate(0, 211.8241463689421, 230.94009287004775)translate(203.5441463689421, 224.11009287004774)"
  >
    <title>`D`.text</title>
    <svg
      style="font-size: 20px"
      xmlns="http://www.w3.org/2000/svg"
      width="16.56"
      height="13.66"
      role="img"
      focusable="false"
      viewBox="0 -683 828 683"
    >
      <g
        stroke="none"
        fill="#000000"
        stroke-width="0"
        transform="scale(1,-1)"
        fill-opacity="1"
      >
        <g data-mml-node="math">
          <g data-mml-node="mi">
            <path
              data-c="1D437"
              d="M287 628Q287 635 230 637Q207 637 200 638T193 647Q193 655 197 667T204 682Q206 683 403 683Q570 682 590 682T630 676Q702 659 752 597T803 431Q803 275 696 151T444 3L430 1L236 0H125H72Q48 0 41 2T33 11Q33 13 36 25Q40 41 44 43T67 46Q94 46 127 49Q141 52 146 61Q149 65 218 339T287 628ZM703 469Q703 507 692 537T666 584T629 613T590 629T555 636Q553 636 541 636T512 636T479 637H436Q392 637 386 627Q384 623 313 339T242 52Q242 48 253 48T330 47Q335 47 349 47T373 46Q499 46 581 128Q617 164 640 212T683 339T703 469Z"
            ></path>
          </g>
        </g>
      </g>
    </svg>
  </g>
  <circle
    fill="#000000"
    fill-opacity="1"
    cx="104.05573701207257"
    cy="104.13957160576823"
    stroke="#000000"
    stroke-opacity="1"
    stroke-width="0"
    stroke-linecap="butt"
    r="4"
  >
    <title>`B`.icon</title>
  </circle>
  <circle
    fill="#000000"
    fill-opacity="1"
    cx="206.84611458133764"
    cy="394.8244438184221"
    stroke="#000000"
    stroke-opacity="1"
    stroke-width="0"
    stroke-linecap="butt"
    r="4"
  >
    <title>`C`.icon</title>
  </circle>
  <g
    transform="rotate(0, 188.36508079319432, 410.9037687285661)translate(180.76508079319433, 403.6337687285661)"
  >
    <title>`C`.text</title>
    <svg
      style="font-size: 20px"
      xmlns="http://www.w3.org/2000/svg"
      width="15.2"
      height="14.54"
      role="img"
      focusable="false"
      viewBox="0 -705 760 727"
    >
      <g
        stroke="none"
        fill="#000000"
        stroke-width="0"
        transform="scale(1,-1)"
        fill-opacity="1"
      >
        <g data-mml-node="math">
          <g data-mml-node="mi">
            <path
              data-c="1D436"
              d="M50 252Q50 367 117 473T286 641T490 704Q580 704 633 653Q642 643 648 636T656 626L657 623Q660 623 684 649Q691 655 699 663T715 679T725 690L740 705H746Q760 705 760 698Q760 694 728 561Q692 422 692 421Q690 416 687 415T669 413H653Q647 419 647 422Q647 423 648 429T650 449T651 481Q651 552 619 605T510 659Q484 659 454 652T382 628T299 572T226 479Q194 422 175 346T156 222Q156 108 232 58Q280 24 350 24Q441 24 512 92T606 240Q610 253 612 255T628 257Q648 257 648 248Q648 243 647 239Q618 132 523 55T319 -22Q206 -22 128 53T50 252Z"
            ></path>
          </g>
        </g>
      </g>
    </svg>
  </g>
  <g>
    <marker
      id="registry-GoldbrownFly7869-`BE`.icon-endArrowId"
      markerUnits="strokeWidth"
      markerWidth="6.47"
      markerHeight="5.28"
      viewBox="0 0 9.95 8.12"
      refX="2.36"
      refY="4.06"
      orient="auto-start-reverse"
    >
      <path
        d="M9.95 4.06 0 8.12 2.36 4.06 0 0 9.95 4.06z"
        fill="#000000"
        fill-opacity="1"
      ></path>
    </marker>
    <path
      d="M 104.05573701207257 104.13957160576823 L 373.8897312627101 419.84372873379374"
      stroke-opacity="1"
      stroke-width="1.75"
      stroke="#000000"
      stroke-linecap="butt"
      marker-end="url(#registry-GoldbrownFly7869-`BE`.icon-endArrowId)"
    ></path>
    <title>`BE`.icon</title>
  </g>
  <circle
    fill="#000000"
    fill-opacity="1"
    cx="394.4885533819586"
    cy="293.9726931906046"
    stroke="#000000"
    stroke-opacity="1"
    stroke-width="0"
    stroke-linecap="butt"
    r="4"
  >
    <title>`A`.icon</title>
  </circle>
  <circle
    fill="#000000"
    fill-opacity="1"
    cx="353.5102981975331"
    cy="395.99991410822605"
    stroke="#000000"
    stroke-opacity="1"
    stroke-width="0"
    stroke-linecap="butt"
    r="4"
  >
    <title>`E`.icon</title>
  </circle>
  <g>
    <marker
      id="registry-GoldbrownFly7869-`BA`.icon-startArrowId"
      markerUnits="strokeWidth"
      markerWidth="6.47"
      markerHeight="5.28"
      viewBox="0 0 9.95 8.12"
      refX="2.36"
      refY="4.06"
      orient="auto-start-reverse"
    >
      <path
        d="M9.95 4.06 0 8.12 2.36 4.06 0 0 9.95 4.06z"
        fill="#000000"
        fill-opacity="1"
      ></path>
    </marker>
    <marker
      id="registry-GoldbrownFly7869-`BA`.icon-endArrowId"
      markerUnits="strokeWidth"
      markerWidth="6.47"
      markerHeight="5.28"
      viewBox="0 0 9.95 8.12"
      refX="2.36"
      refY="4.06"
      orient="auto-start-reverse"
    >
      <path
        d="M9.95 4.06 0 8.12 2.36 4.06 0 0 9.95 4.06z"
        fill="#000000"
        fill-opacity="1"
      ></path>
    </marker>
    <path
      d="M 77.80033341034476 86.97847636011909 L 420.7439486131292 311.13378296507796"
      stroke-opacity="1"
      stroke-width="1.75"
      stroke="#000000"
      stroke-linecap="butt"
      marker-start="url(#registry-GoldbrownFly7869-`BA`.icon-startArrowId)"
      marker-end="url(#registry-GoldbrownFly7869-`BA`.icon-endArrowId)"
    ></path>
    <title>`BA`.icon</title>
  </g>
  <circle
    fill="#000000"
    fill-opacity="1"
    cx="228.02906095735864"
    cy="249.3111558281353"
    stroke="#000000"
    stroke-opacity="1"
    stroke-width="0"
    stroke-linecap="butt"
    r="4"
  >
    <title>`D`.icon</title>
  </circle>
</svg>
