<svg
  version="1.2"
  xmlns="http://www.w3.org/2000/svg"
  viewBox="0 0 500 500"
  penrose="0"
>
  <penrose>
    <croppedViewBox>
      -2.822517520574877 34.73066652499335 415.59050566841034 361.23527669998026
    </croppedViewBox>
  </penrose>
  <g>
    <path
      d="M 274.89778286232223 273.98841736780537 L 383.9278326761727 176.07840379637963"
      stroke-opacity="1"
      stroke-width="1.75"
      stroke="#000000"
      stroke-linecap="butt"
    />
    <title>`aGFJ`.side1</title>
  </g>
  <g>
    <path
      d="M 274.89778286232223 273.98841736780537 L 197.4214004809053 107.40453516068649"
      stroke-opacity="1"
      stroke-width="1.75"
      stroke="#000000"
      stroke-linecap="butt"
    />
    <title>`GJF`.PQ</title>
  </g>
  <g>
    <path
      d="M 383.9278326761727 176.07840379637963 L 274.89778286232223 273.98841736780537"
      stroke-opacity="1"
      stroke-width="1.75"
      stroke="#000000"
      stroke-linecap="butt"
    />
    <title>`GJF`.RP</title>
  </g>
  <circle
    fill="#000000"
    fill-opacity="1"
    cx="274.89778286232223"
    cy="273.98841736780537"
    stroke="#000000"
    stroke-opacity="1"
    stroke-width="0"
    stroke-linecap="butt"
    r="4"
  >
    <title>`G`.icon</title>
  </circle>
  <g>
    <path
      d="M 383.9278326761727 176.07840379637963 L 197.4214004809053 107.40453516068649"
      stroke-opacity="1"
      stroke-width="1.75"
      stroke="#000000"
      stroke-linecap="butt"
    />
    <title>`aGFJ`.side2</title>
  </g>
  <g>
    <path
      d="M 197.4214004809053 107.40453516068649 L 383.9278326761727 176.07840379637963"
      stroke-opacity="1"
      stroke-width="1.75"
      stroke="#000000"
      stroke-linecap="butt"
    />
    <title>`GJF`.QR</title>
  </g>
  <g>
    <path
      d="M 165.86773304847173 371.89843093923116 L 383.9278326761727 176.07840379637963"
      stroke-opacity="1"
      stroke-width="1.75"
      stroke="#000000"
      stroke-linecap="butt"
    />
    <title>`DEF`.QR</title>
  </g>
  <g>
    <path
      d="M 383.9278326761727 176.07840379637963 L 10.914968285637883 38.73066652499335"
      stroke-opacity="1"
      stroke-width="1.75"
      stroke="#000000"
      stroke-linecap="butt"
    />
    <title>`DEF`.RP</title>
  </g>
  <circle
    fill="#000000"
    fill-opacity="1"
    cx="383.9278326761727"
    cy="176.07840379637963"
    stroke="#000000"
    stroke-opacity="1"
    stroke-width="0"
    stroke-linecap="butt"
    r="4"
  >
    <title>`F`.icon</title>
  </circle>
  <circle
    fill="#000000"
    fill-opacity="1"
    cx="197.4214004809053"
    cy="107.40453516068649"
    stroke="#000000"
    stroke-opacity="1"
    stroke-width="0"
    stroke-linecap="butt"
    r="4"
  >
    <title>`J`.icon</title>
  </circle>
  <g
    transform="rotate(0, 5.457482479425124, 59.560665575063865)translate(-2.822517520574875, 52.73066557506387)"
  >
    <title>`D`.text</title>
    <svg
      style="font-size: 20px"
      xmlns="http://www.w3.org/2000/svg"
      width="16.56"
      height="13.66"
      role="img"
      focusable="false"
      viewBox="0 -683 828 683"
    >
      <g
        stroke="none"
        fill="#000000"
        stroke-width="0"
        transform="scale(1,-1)"
        fill-opacity="1"
      >
        <g data-mml-node="math">
          <g data-mml-node="mi">
            <path
              data-c="1D437"
              d="M287 628Q287 635 230 637Q207 637 200 638T193 647Q193 655 197 667T204 682Q206 683 403 683Q570 682 590 682T630 676Q702 659 752 597T803 431Q803 275 696 151T444 3L430 1L236 0H125H72Q48 0 41 2T33 11Q33 13 36 25Q40 41 44 43T67 46Q94 46 127 49Q141 52 146 61Q149 65 218 339T287 628ZM703 469Q703 507 692 537T666 584T629 613T590 629T555 636Q553 636 541 636T512 636T479 637H436Q392 637 386 627Q384 623 313 339T242 52Q242 48 253 48T330 47Q335 47 349 47T373 46Q499 46 581 128Q617 164 640 212T683 339T703 469Z"
            />
          </g>
        </g>
      </g>
    </svg>
  </g>
  <g
    transform="rotate(0, 148.93088808295124, 389.1659432249736)translate(141.29088808295126, 382.3659432249736)"
  >
    <title>`E`.text</title>
    <svg
      style="font-size: 20px"
      xmlns="http://www.w3.org/2000/svg"
      width="15.280000000000001"
      height="13.600000000000001"
      role="img"
      focusable="false"
      viewBox="0 -680 764 680"
    >
      <g
        stroke="none"
        fill="#000000"
        stroke-width="0"
        transform="scale(1,-1)"
        fill-opacity="1"
      >
        <g data-mml-node="math">
          <g data-mml-node="mi">
            <path
              data-c="1D438"
              d="M492 213Q472 213 472 226Q472 230 477 250T482 285Q482 316 461 323T364 330H312Q311 328 277 192T243 52Q243 48 254 48T334 46Q428 46 458 48T518 61Q567 77 599 117T670 248Q680 270 683 272Q690 274 698 274Q718 274 718 261Q613 7 608 2Q605 0 322 0H133Q31 0 31 11Q31 13 34 25Q38 41 42 43T65 46Q92 46 125 49Q139 52 144 61Q146 66 215 342T285 622Q285 629 281 629Q273 632 228 634H197Q191 640 191 642T193 659Q197 676 203 680H757Q764 676 764 669Q764 664 751 557T737 447Q735 440 717 440H705Q698 445 698 453L701 476Q704 500 704 528Q704 558 697 578T678 609T643 625T596 632T532 634H485Q397 633 392 631Q388 629 386 622Q385 619 355 499T324 377Q347 376 372 376H398Q464 376 489 391T534 472Q538 488 540 490T557 493Q562 493 565 493T570 492T572 491T574 487T577 483L544 351Q511 218 508 216Q505 213 492 213Z"
            />
          </g>
        </g>
      </g>
    </svg>
  </g>
  <g
    transform="rotate(0, 405.27798814783546, 167.30445252771722)translate(397.78798814783545, 160.5044525277172)"
  >
    <title>`F`.text</title>
    <svg
      style="font-size: 20px"
      xmlns="http://www.w3.org/2000/svg"
      width="14.98"
      height="13.600000000000001"
      role="img"
      focusable="false"
      viewBox="0 -680 749 680"
    >
      <g
        stroke="none"
        fill="#000000"
        stroke-width="0"
        transform="scale(1,-1)"
        fill-opacity="1"
      >
        <g data-mml-node="math">
          <g data-mml-node="mi">
            <path
              data-c="1D439"
              d="M48 1Q31 1 31 11Q31 13 34 25Q38 41 42 43T65 46Q92 46 125 49Q139 52 144 61Q146 66 215 342T285 622Q285 629 281 629Q273 632 228 634H197Q191 640 191 642T193 659Q197 676 203 680H742Q749 676 749 669Q749 664 736 557T722 447Q720 440 702 440H690Q683 445 683 453Q683 454 686 477T689 530Q689 560 682 579T663 610T626 626T575 633T503 634H480Q398 633 393 631Q388 629 386 623Q385 622 352 492L320 363H375Q378 363 398 363T426 364T448 367T472 374T489 386Q502 398 511 419T524 457T529 475Q532 480 548 480H560Q567 475 567 470Q567 467 536 339T502 207Q500 200 482 200H470Q463 206 463 212Q463 215 468 234T473 274Q473 303 453 310T364 317H309L277 190Q245 66 245 60Q245 46 334 46H359Q365 40 365 39T363 19Q359 6 353 0H336Q295 2 185 2Q120 2 86 2T48 1Z"
            />
          </g>
        </g>
      </g>
    </svg>
  </g>
  <g
    transform="rotate(0, 261.2271729086159, 293.9956577931822)translate(253.36717290861588, 286.7256577931822)"
  >
    <title>`G`.text</title>
    <svg
      style="font-size: 20px"
      xmlns="http://www.w3.org/2000/svg"
      width="15.72"
      height="14.54"
      role="img"
      focusable="false"
      viewBox="0 -705 786 727"
    >
      <g
        stroke="none"
        fill="#000000"
        stroke-width="0"
        transform="scale(1,-1)"
        fill-opacity="1"
      >
        <g data-mml-node="math">
          <g data-mml-node="mi">
            <path
              data-c="1D43A"
              d="M50 252Q50 367 117 473T286 641T490 704Q580 704 633 653Q642 643 648 636T656 626L657 623Q660 623 684 649Q691 655 699 663T715 679T725 690L740 705H746Q760 705 760 698Q760 694 728 561Q692 422 692 421Q690 416 687 415T669 413H653Q647 419 647 422Q647 423 648 429T650 449T651 481Q651 552 619 605T510 659Q492 659 471 656T418 643T357 615T294 567T236 496T189 394T158 260Q156 242 156 221Q156 173 170 136T206 79T256 45T308 28T353 24Q407 24 452 47T514 106Q517 114 529 161T541 214Q541 222 528 224T468 227H431Q425 233 425 235T427 254Q431 267 437 273H454Q494 271 594 271Q634 271 659 271T695 272T707 272Q721 272 721 263Q721 261 719 249Q714 230 709 228Q706 227 694 227Q674 227 653 224Q646 221 643 215T629 164Q620 131 614 108Q589 6 586 3Q584 1 581 1Q571 1 553 21T530 52Q530 53 528 52T522 47Q448 -22 322 -22Q201 -22 126 55T50 252Z"
            />
          </g>
        </g>
      </g>
    </svg>
  </g>
  <g
    transform="rotate(0, 296.0970190773321, 120.91145672330006)translate(287.2170190773321, 114.08145672330006)"
  >
    <title>`H`.text</title>
    <svg
      style="font-size: 20px"
      xmlns="http://www.w3.org/2000/svg"
      width="17.76"
      height="13.66"
      role="img"
      focusable="false"
      viewBox="0 -683 888 683"
    >
      <g
        stroke="none"
        fill="#000000"
        stroke-width="0"
        transform="scale(1,-1)"
        fill-opacity="1"
      >
        <g data-mml-node="math">
          <g data-mml-node="mi">
            <path
              data-c="1D43B"
              d="M228 637Q194 637 192 641Q191 643 191 649Q191 673 202 682Q204 683 219 683Q260 681 355 681Q389 681 418 681T463 682T483 682Q499 682 499 672Q499 670 497 658Q492 641 487 638H485Q483 638 480 638T473 638T464 637T455 637Q416 636 405 634T387 623Q384 619 355 500Q348 474 340 442T328 395L324 380Q324 378 469 378H614L615 381Q615 384 646 504Q674 619 674 627T617 637Q594 637 587 639T580 648Q580 650 582 660Q586 677 588 679T604 682Q609 682 646 681T740 680Q802 680 835 681T871 682Q888 682 888 672Q888 645 876 638H874Q872 638 869 638T862 638T853 637T844 637Q805 636 794 634T776 623Q773 618 704 340T634 58Q634 51 638 51Q646 48 692 46H723Q729 38 729 37T726 19Q722 6 716 0H701Q664 2 567 2Q533 2 504 2T458 2T437 1Q420 1 420 10Q420 15 423 24Q428 43 433 45Q437 46 448 46H454Q481 46 514 49Q520 50 522 50T528 55T534 64T540 82T547 110T558 153Q565 181 569 198Q602 330 602 331T457 332H312L279 197Q245 63 245 58Q245 51 253 49T303 46H334Q340 38 340 37T337 19Q333 6 327 0H312Q275 2 178 2Q144 2 115 2T69 2T48 1Q31 1 31 10Q31 12 34 24Q39 43 44 45Q48 46 59 46H65Q92 46 125 49Q139 52 144 61Q147 65 216 339T285 628Q285 635 228 637Z"
            />
          </g>
        </g>
      </g>
    </svg>
  </g>
  <g
    transform="rotate(0, 179.10567335336287, 93.11972026999311)translate(172.77567335336286, 86.06972026999311)"
  >
    <title>`J`.text</title>
    <svg
      style="font-size: 20px"
      xmlns="http://www.w3.org/2000/svg"
      width="12.66"
      height="14.1"
      role="img"
      focusable="false"
      viewBox="0 -683 633 705"
    >
      <g
        stroke="none"
        fill="#000000"
        stroke-width="0"
        transform="scale(1,-1)"
        fill-opacity="1"
      >
        <g data-mml-node="math">
          <g data-mml-node="mi">
            <path
              data-c="1D43D"
              d="M447 625Q447 637 354 637H329Q323 642 323 645T325 664Q329 677 335 683H352Q393 681 498 681Q541 681 568 681T605 682T619 682Q633 682 633 672Q633 670 630 658Q626 642 623 640T604 637Q552 637 545 623Q541 610 483 376Q420 128 419 127Q397 64 333 21T195 -22Q137 -22 97 8T57 88Q57 130 80 152T132 174Q177 174 182 130Q182 98 164 80T123 56Q115 54 115 53T122 44Q148 15 197 15Q235 15 271 47T324 130Q328 142 387 380T447 625Z"
            />
          </g>
        </g>
      </g>
    </svg>
  </g>
  <g
    transform="rotate(0, 306.52281326396707, 221.7435427950668)translate(297.6328132639671, 214.91354279506677)"
  >
    <title>`K`.text</title>
    <svg
      style="font-size: 20px"
      xmlns="http://www.w3.org/2000/svg"
      width="17.78"
      height="13.66"
      role="img"
      focusable="false"
      viewBox="0 -683 889 683"
    >
      <g
        stroke="none"
        fill="#000000"
        stroke-width="0"
        transform="scale(1,-1)"
        fill-opacity="1"
      >
        <g data-mml-node="math">
          <g data-mml-node="mi">
            <path
              data-c="1D43E"
              d="M285 628Q285 635 228 637Q205 637 198 638T191 647Q191 649 193 661Q199 681 203 682Q205 683 214 683H219Q260 681 355 681Q389 681 418 681T463 682T483 682Q500 682 500 674Q500 669 497 660Q496 658 496 654T495 648T493 644T490 641T486 639T479 638T470 637T456 637Q416 636 405 634T387 623L306 305Q307 305 490 449T678 597Q692 611 692 620Q692 635 667 637Q651 637 651 648Q651 650 654 662T659 677Q662 682 676 682Q680 682 711 681T791 680Q814 680 839 681T869 682Q889 682 889 672Q889 650 881 642Q878 637 862 637Q787 632 726 586Q710 576 656 534T556 455L509 418L518 396Q527 374 546 329T581 244Q656 67 661 61Q663 59 666 57Q680 47 717 46H738Q744 38 744 37T741 19Q737 6 731 0H720Q680 3 625 3Q503 3 488 0H478Q472 6 472 9T474 27Q478 40 480 43T491 46H494Q544 46 544 71Q544 75 517 141T485 216L427 354L359 301L291 248L268 155Q245 63 245 58Q245 51 253 49T303 46H334Q340 37 340 35Q340 19 333 5Q328 0 317 0Q314 0 280 1T180 2Q118 2 85 2T49 1Q31 1 31 11Q31 13 34 25Q38 41 42 43T65 46Q92 46 125 49Q139 52 144 61Q147 65 216 339T285 628Z"
            />
          </g>
        </g>
      </g>
    </svg>
  </g>
  <g>
    <filter
      id="c05p01__`GJF`.icon-shadow"
      x="0"
      y="0"
      width="200%"
      height="200%"
    >
      <feOffset result="offOut" in="SourceAlpha" dx="5" dy="5" />
      <feGaussianBlur result="blurOut" in="offOut" stdDeviation="4" />
      <feBlend in="SourceGraphic" in2="blurOut" mode="normal" />
      <feComponentTransfer>
        <feFuncA type="linear" slope="0.5" />
      </feComponentTransfer>
      <feMerge>
        <feMergeNode />
        <feMergeNode in="SourceGraphic" />
      </feMerge>
    </filter>
    <path
      stroke="none"
      fill="none"
      d="M 274.89778286232223 273.98841736780537 L 197.4214004809053 107.40453516068649 L 383.9278326761727 176.07840379637963 Z "
    />
    <title>`GJF`.icon</title>
  </g>
  <g>
    <filter
      id="c05p01__`DEF`.icon-shadow"
      x="0"
      y="0"
      width="200%"
      height="200%"
    >
      <feOffset result="offOut" in="SourceAlpha" dx="5" dy="5" />
      <feGaussianBlur result="blurOut" in="offOut" stdDeviation="4" />
      <feBlend in="SourceGraphic" in2="blurOut" mode="normal" />
      <feComponentTransfer>
        <feFuncA type="linear" slope="0.5" />
      </feComponentTransfer>
      <feMerge>
        <feMergeNode />
        <feMergeNode in="SourceGraphic" />
      </feMerge>
    </filter>
    <path
      stroke="none"
      fill="none"
      d="M 10.914968285637883 38.73066652499335 L 165.86773304847173 371.89843093923116 L 383.9278326761727 176.07840379637963 Z "
    />
    <title>`DEF`.icon</title>
  </g>
  <g>
    <path
      d="M 10.914968285637883 38.73066652499335 L 165.86773304847173 371.89843093923116"
      stroke-opacity="1"
      stroke-width="1.75"
      stroke="#000000"
      stroke-linecap="butt"
    />
    <title>`DEF`.PQ</title>
  </g>
  <circle
    fill="#000000"
    fill-opacity="1"
    cx="10.914968285637883"
    cy="38.73066652499335"
    stroke="#000000"
    stroke-opacity="1"
    stroke-width="0"
    stroke-linecap="butt"
    r="4"
  >
    <title>`D`.icon</title>
  </circle>
  <circle
    fill="#000000"
    fill-opacity="1"
    cx="165.86773304847173"
    cy="371.89843093923116"
    stroke="#000000"
    stroke-opacity="1"
    stroke-width="0"
    stroke-linecap="butt"
    r="4"
  >
    <title>`E`.icon</title>
  </circle>
  <g>
    <path
      d="M 274.89778286232223 273.98841736780537 L 197.4214004809053 107.40453516068649"
      stroke-opacity="1"
      stroke-width="1.75"
      stroke="#000000"
      stroke-linecap="butt"
    />
    <title>`GJ`.icon</title>
  </g>
  <g>
    <path
      d="M 290.67461657853903 141.74146947853308 L 329.4128077692475 225.03341058209253"
      stroke-opacity="1"
      stroke-width="1.75"
      stroke="#000000"
      stroke-linecap="butt"
    />
    <title>`HK`.icon</title>
  </g>
  <circle
    fill="#000000"
    fill-opacity="1"
    cx="290.67461657853903"
    cy="141.74146947853308"
    stroke="#000000"
    stroke-opacity="1"
    stroke-width="0"
    stroke-linecap="butt"
    r="4"
  >
    <title>`H`.icon</title>
  </circle>
  <circle
    fill="#000000"
    fill-opacity="1"
    cx="329.4128077692475"
    cy="225.03341058209253"
    stroke="#000000"
    stroke-opacity="1"
    stroke-width="0"
    stroke-linecap="butt"
    r="4"
  >
    <title>`K`.icon</title>
  </circle>
</svg>
