<svg
  version="1.2"
  xmlns="http://www.w3.org/2000/svg"
  viewBox="0 0 400 500"
  penrose="0"
>
  <penrose>
    <croppedViewBox>
      56.38051963584661 124.68630314401808 253.5776223131639 237.9005927604759
    </croppedViewBox>
  </penrose>
  <circle
    fill="#ffffff"
    fill-opacity="1"
    cx="299.9581419490105"
    cy="234.18560582903424"
    stroke="none"
    r="10"
  >
    <title>`n_3`.icon</title>
  </circle>
  <g
    transform="rotate(0, 299.9581419490105, 234.18560582903424)translate(291.6653419490105, 229.32480582903423)"
  >
    <title>`n_3`.text</title>
    <svg
      style="font-size: 16px"
      xmlns="http://www.w3.org/2000/svg"
      width="16.5856"
      height="9.7216"
      role="img"
      focusable="false"
      viewBox="0 -442 1036.6 607.6"
    >
      <g
        stroke="none"
        fill="#000000"
        stroke-width="0"
        transform="scale(1,-1)"
        fill-opacity="1"
      >
        <g data-mml-node="math">
          <g data-mml-node="msub">
            <g data-mml-node="mi">
              <path
                data-c="1D45B"
                d="M21 287Q22 293 24 303T36 341T56 388T89 425T135 442Q171 442 195 424T225 390T231 369Q231 367 232 367L243 378Q304 442 382 442Q436 442 469 415T503 336T465 179T427 52Q427 26 444 26Q450 26 453 27Q482 32 505 65T540 145Q542 153 560 153Q580 153 580 145Q580 144 576 130Q568 101 554 73T508 17T439 -10Q392 -10 371 17T350 73Q350 92 386 193T423 345Q423 404 379 404H374Q288 404 229 303L222 291L189 157Q156 26 151 16Q138 -11 108 -11Q95 -11 87 -5T76 7T74 17Q74 30 112 180T152 343Q153 348 153 366Q153 405 129 405Q91 405 66 305Q60 285 60 284Q58 278 41 278H27Q21 284 21 287Z"
              ></path>
            </g>
            <g data-mml-node="mn" transform="translate(633,-150) scale(0.707)">
              <path
                data-c="33"
                d="M127 463Q100 463 85 480T69 524Q69 579 117 622T233 665Q268 665 277 664Q351 652 390 611T430 522Q430 470 396 421T302 350L299 348Q299 347 308 345T337 336T375 315Q457 262 457 175Q457 96 395 37T238 -22Q158 -22 100 21T42 130Q42 158 60 175T105 193Q133 193 151 175T169 130Q169 119 166 110T159 94T148 82T136 74T126 70T118 67L114 66Q165 21 238 21Q293 21 321 74Q338 107 338 175V195Q338 290 274 322Q259 328 213 329L171 330L168 332Q166 335 166 348Q166 366 174 366Q202 366 232 371Q266 376 294 413T322 525V533Q322 590 287 612Q265 626 240 626Q208 626 181 615T143 592T132 580H135Q138 579 143 578T153 573T165 566T175 555T183 540T186 520Q186 498 172 481T127 463Z"
              ></path>
            </g>
          </g>
        </g>
      </g>
    </svg>
  </g>
  <circle
    fill="#ffffff"
    fill-opacity="1"
    cx="66.38051963584661"
    cy="254.15126773951013"
    stroke="none"
    r="10"
  >
    <title>`n_6`.icon</title>
  </circle>
  <g
    transform="rotate(0, 66.38051963584661, 254.15126773951013)translate(58.08771963584661, 249.29046773951012)"
  >
    <title>`n_6`.text</title>
    <svg
      style="font-size: 16px"
      xmlns="http://www.w3.org/2000/svg"
      width="16.5856"
      height="9.7216"
      role="img"
      focusable="false"
      viewBox="0 -442 1036.6 607.6"
    >
      <g
        stroke="none"
        fill="#000000"
        stroke-width="0"
        transform="scale(1,-1)"
        fill-opacity="1"
      >
        <g data-mml-node="math">
          <g data-mml-node="msub">
            <g data-mml-node="mi">
              <path
                data-c="1D45B"
                d="M21 287Q22 293 24 303T36 341T56 388T89 425T135 442Q171 442 195 424T225 390T231 369Q231 367 232 367L243 378Q304 442 382 442Q436 442 469 415T503 336T465 179T427 52Q427 26 444 26Q450 26 453 27Q482 32 505 65T540 145Q542 153 560 153Q580 153 580 145Q580 144 576 130Q568 101 554 73T508 17T439 -10Q392 -10 371 17T350 73Q350 92 386 193T423 345Q423 404 379 404H374Q288 404 229 303L222 291L189 157Q156 26 151 16Q138 -11 108 -11Q95 -11 87 -5T76 7T74 17Q74 30 112 180T152 343Q153 348 153 366Q153 405 129 405Q91 405 66 305Q60 285 60 284Q58 278 41 278H27Q21 284 21 287Z"
              ></path>
            </g>
            <g data-mml-node="mn" transform="translate(633,-150) scale(0.707)">
              <path
                data-c="36"
                d="M42 313Q42 476 123 571T303 666Q372 666 402 630T432 550Q432 525 418 510T379 495Q356 495 341 509T326 548Q326 592 373 601Q351 623 311 626Q240 626 194 566Q147 500 147 364L148 360Q153 366 156 373Q197 433 263 433H267Q313 433 348 414Q372 400 396 374T435 317Q456 268 456 210V192Q456 169 451 149Q440 90 387 34T253 -22Q225 -22 199 -14T143 16T92 75T56 172T42 313ZM257 397Q227 397 205 380T171 335T154 278T148 216Q148 133 160 97T198 39Q222 21 251 21Q302 21 329 59Q342 77 347 104T352 209Q352 289 347 316T329 361Q302 397 257 397Z"
              ></path>
            </g>
          </g>
        </g>
      </g>
    </svg>
  </g>
  <circle
    fill="#ffffff"
    fill-opacity="1"
    cx="254.7940037694816"
    cy="345.3603193618199"
    stroke="none"
    r="10"
  >
    <title>`n_4`.icon</title>
  </circle>
  <g
    transform="rotate(0, 254.7940037694816, 345.3603193618199)translate(246.5012037694816, 340.6243193618199)"
  >
    <title>`n_4`.text</title>
    <svg
      style="font-size: 16px"
      xmlns="http://www.w3.org/2000/svg"
      width="16.5856"
      height="9.472"
      role="img"
      focusable="false"
      viewBox="0 -442 1036.6 592"
    >
      <g
        stroke="none"
        fill="#000000"
        stroke-width="0"
        transform="scale(1,-1)"
        fill-opacity="1"
      >
        <g data-mml-node="math">
          <g data-mml-node="msub">
            <g data-mml-node="mi">
              <path
                data-c="1D45B"
                d="M21 287Q22 293 24 303T36 341T56 388T89 425T135 442Q171 442 195 424T225 390T231 369Q231 367 232 367L243 378Q304 442 382 442Q436 442 469 415T503 336T465 179T427 52Q427 26 444 26Q450 26 453 27Q482 32 505 65T540 145Q542 153 560 153Q580 153 580 145Q580 144 576 130Q568 101 554 73T508 17T439 -10Q392 -10 371 17T350 73Q350 92 386 193T423 345Q423 404 379 404H374Q288 404 229 303L222 291L189 157Q156 26 151 16Q138 -11 108 -11Q95 -11 87 -5T76 7T74 17Q74 30 112 180T152 343Q153 348 153 366Q153 405 129 405Q91 405 66 305Q60 285 60 284Q58 278 41 278H27Q21 284 21 287Z"
              ></path>
            </g>
            <g data-mml-node="mn" transform="translate(633,-150) scale(0.707)">
              <path
                data-c="34"
                d="M462 0Q444 3 333 3Q217 3 199 0H190V46H221Q241 46 248 46T265 48T279 53T286 61Q287 63 287 115V165H28V211L179 442Q332 674 334 675Q336 677 355 677H373L379 671V211H471V165H379V114Q379 73 379 66T385 54Q393 47 442 46H471V0H462ZM293 211V545L74 212L183 211H293Z"
              ></path>
            </g>
          </g>
        </g>
      </g>
    </svg>
  </g>
  <circle
    fill="#ffffff"
    fill-opacity="1"
    cx="232.87711216017726"
    cy="134.6863031440181"
    stroke="none"
    r="10"
  >
    <title>`n_2`.icon</title>
  </circle>
  <g
    transform="rotate(0, 232.87711216017726, 134.6863031440181)translate(224.58431216017726, 129.9503031440181)"
  >
    <title>`n_2`.text</title>
    <svg
      style="font-size: 16px"
      xmlns="http://www.w3.org/2000/svg"
      width="16.5856"
      height="9.472"
      role="img"
      focusable="false"
      viewBox="0 -442 1036.6 592"
    >
      <g
        stroke="none"
        fill="#000000"
        stroke-width="0"
        transform="scale(1,-1)"
        fill-opacity="1"
      >
        <g data-mml-node="math">
          <g data-mml-node="msub">
            <g data-mml-node="mi">
              <path
                data-c="1D45B"
                d="M21 287Q22 293 24 303T36 341T56 388T89 425T135 442Q171 442 195 424T225 390T231 369Q231 367 232 367L243 378Q304 442 382 442Q436 442 469 415T503 336T465 179T427 52Q427 26 444 26Q450 26 453 27Q482 32 505 65T540 145Q542 153 560 153Q580 153 580 145Q580 144 576 130Q568 101 554 73T508 17T439 -10Q392 -10 371 17T350 73Q350 92 386 193T423 345Q423 404 379 404H374Q288 404 229 303L222 291L189 157Q156 26 151 16Q138 -11 108 -11Q95 -11 87 -5T76 7T74 17Q74 30 112 180T152 343Q153 348 153 366Q153 405 129 405Q91 405 66 305Q60 285 60 284Q58 278 41 278H27Q21 284 21 287Z"
              ></path>
            </g>
            <g data-mml-node="mn" transform="translate(633,-150) scale(0.707)">
              <path
                data-c="32"
                d="M109 429Q82 429 66 447T50 491Q50 562 103 614T235 666Q326 666 387 610T449 465Q449 422 429 383T381 315T301 241Q265 210 201 149L142 93L218 92Q375 92 385 97Q392 99 409 186V189H449V186Q448 183 436 95T421 3V0H50V19V31Q50 38 56 46T86 81Q115 113 136 137Q145 147 170 174T204 211T233 244T261 278T284 308T305 340T320 369T333 401T340 431T343 464Q343 527 309 573T212 619Q179 619 154 602T119 569T109 550Q109 549 114 549Q132 549 151 535T170 489Q170 464 154 447T109 429Z"
              ></path>
            </g>
          </g>
        </g>
      </g>
    </svg>
  </g>
  <circle
    fill="#ffffff"
    fill-opacity="1"
    cx="135.01295715390788"
    cy="352.586895904494"
    stroke="none"
    r="10"
  >
    <title>`n_5`.icon</title>
  </circle>
  <g
    transform="rotate(0, 135.01295715390788, 352.586895904494)translate(126.72015715390788, 347.726095904494)"
  >
    <title>`n_5`.text</title>
    <svg
      style="font-size: 16px"
      xmlns="http://www.w3.org/2000/svg"
      width="16.5856"
      height="9.7216"
      role="img"
      focusable="false"
      viewBox="0 -442 1036.6 607.6"
    >
      <g
        stroke="none"
        fill="#000000"
        stroke-width="0"
        transform="scale(1,-1)"
        fill-opacity="1"
      >
        <g data-mml-node="math">
          <g data-mml-node="msub">
            <g data-mml-node="mi">
              <path
                data-c="1D45B"
                d="M21 287Q22 293 24 303T36 341T56 388T89 425T135 442Q171 442 195 424T225 390T231 369Q231 367 232 367L243 378Q304 442 382 442Q436 442 469 415T503 336T465 179T427 52Q427 26 444 26Q450 26 453 27Q482 32 505 65T540 145Q542 153 560 153Q580 153 580 145Q580 144 576 130Q568 101 554 73T508 17T439 -10Q392 -10 371 17T350 73Q350 92 386 193T423 345Q423 404 379 404H374Q288 404 229 303L222 291L189 157Q156 26 151 16Q138 -11 108 -11Q95 -11 87 -5T76 7T74 17Q74 30 112 180T152 343Q153 348 153 366Q153 405 129 405Q91 405 66 305Q60 285 60 284Q58 278 41 278H27Q21 284 21 287Z"
              ></path>
            </g>
            <g data-mml-node="mn" transform="translate(633,-150) scale(0.707)">
              <path
                data-c="35"
                d="M164 157Q164 133 148 117T109 101H102Q148 22 224 22Q294 22 326 82Q345 115 345 210Q345 313 318 349Q292 382 260 382H254Q176 382 136 314Q132 307 129 306T114 304Q97 304 95 310Q93 314 93 485V614Q93 664 98 664Q100 666 102 666Q103 666 123 658T178 642T253 634Q324 634 389 662Q397 666 402 666Q410 666 410 648V635Q328 538 205 538Q174 538 149 544L139 546V374Q158 388 169 396T205 412T256 420Q337 420 393 355T449 201Q449 109 385 44T229 -22Q148 -22 99 32T50 154Q50 178 61 192T84 210T107 214Q132 214 148 197T164 157Z"
              ></path>
            </g>
          </g>
        </g>
      </g>
    </svg>
  </g>
  <circle
    fill="#ffffff"
    fill-opacity="1"
    cx="113.21462810153336"
    cy="143.66856686665537"
    stroke="none"
    r="10"
  >
    <title>`n_1`.icon</title>
  </circle>
  <g
    transform="rotate(0, 113.21462810153336, 143.66856686665537)translate(104.92182810153336, 138.93256686665538)"
  >
    <title>`n_1`.text</title>
    <svg
      style="font-size: 16px"
      xmlns="http://www.w3.org/2000/svg"
      width="16.5856"
      height="9.472"
      role="img"
      focusable="false"
      viewBox="0 -442 1036.6 592"
    >
      <g
        stroke="none"
        fill="#000000"
        stroke-width="0"
        transform="scale(1,-1)"
        fill-opacity="1"
      >
        <g data-mml-node="math">
          <g data-mml-node="msub">
            <g data-mml-node="mi">
              <path
                data-c="1D45B"
                d="M21 287Q22 293 24 303T36 341T56 388T89 425T135 442Q171 442 195 424T225 390T231 369Q231 367 232 367L243 378Q304 442 382 442Q436 442 469 415T503 336T465 179T427 52Q427 26 444 26Q450 26 453 27Q482 32 505 65T540 145Q542 153 560 153Q580 153 580 145Q580 144 576 130Q568 101 554 73T508 17T439 -10Q392 -10 371 17T350 73Q350 92 386 193T423 345Q423 404 379 404H374Q288 404 229 303L222 291L189 157Q156 26 151 16Q138 -11 108 -11Q95 -11 87 -5T76 7T74 17Q74 30 112 180T152 343Q153 348 153 366Q153 405 129 405Q91 405 66 305Q60 285 60 284Q58 278 41 278H27Q21 284 21 287Z"
              ></path>
            </g>
            <g data-mml-node="mn" transform="translate(633,-150) scale(0.707)">
              <path
                data-c="31"
                d="M213 578L200 573Q186 568 160 563T102 556H83V602H102Q149 604 189 617T245 641T273 663Q275 666 285 666Q294 666 302 660V361L303 61Q310 54 315 52T339 48T401 46H427V0H416Q395 3 257 3Q121 3 100 0H88V46H114Q136 46 152 46T177 47T193 50T201 52T207 57T213 61V578Z"
              ></path>
            </g>
          </g>
        </g>
      </g>
    </svg>
  </g>
  <g>
    <marker
      id="animation-helloworld12345-`Next_n_1_n_2`.icon-endArrowId"
      markerUnits="strokeWidth"
      markerWidth="9.95"
      markerHeight="8.12"
      viewBox="0 0 9.95 8.12"
      refX="2.36"
      refY="4.06"
      orient="auto-start-reverse"
    >
      <path
        d="M9.95 4.06 0 8.12 2.36 4.06 0 0 9.95 4.06z"
        fill="#000000"
        fill-opacity="1"
      ></path>
    </marker>
    <line
      x1="123.17741797375328"
      y1="142.80663265286174"
      x2="215.33133590476282"
      y2="135.93172492354782"
      stroke="#000000"
      stroke-opacity="1"
      stroke-width="1"
      marker-end="url(#animation-helloworld12345-`Next_n_1_n_2`.icon-endArrowId)"
    ></line>
    <title>`Next_n_1_n_2`.icon</title>
  </g>
  <g>
    <marker
      id="animation-helloworld12345-`Next_n_2_n_3`.icon-endArrowId"
      markerUnits="strokeWidth"
      markerWidth="9.95"
      markerHeight="8.12"
      viewBox="0 0 9.95 8.12"
      refX="2.36"
      refY="4.06"
      orient="auto-start-reverse"
    >
      <path
        d="M9.95 4.06 0 8.12 2.36 4.06 0 0 9.95 4.06z"
        fill="#000000"
        fill-opacity="1"
      ></path>
    </marker>
    <line
      x1="238.43182986522572"
      y1="143.00166310357662"
      x2="290.1115735824423"
      y2="219.60982641377439"
      stroke="#000000"
      stroke-opacity="1"
      stroke-width="1"
      marker-end="url(#animation-helloworld12345-`Next_n_2_n_3`.icon-endArrowId)"
    ></line>
    <title>`Next_n_2_n_3`.icon</title>
  </g>
  <g>
    <marker
      id="animation-helloworld12345-`Next_n_6_n_1`.icon-endArrowId"
      markerUnits="strokeWidth"
      markerWidth="9.95"
      markerHeight="8.12"
      viewBox="0 0 9.95 8.12"
      refX="2.36"
      refY="4.06"
      orient="auto-start-reverse"
    >
      <path
        d="M9.95 4.06 0 8.12 2.36 4.06 0 0 9.95 4.06z"
        fill="#000000"
        fill-opacity="1"
      ></path>
    </marker>
    <line
      x1="70.1910860804947"
      y1="244.9057395544761"
      x2="106.36031474003255"
      y2="159.8681294331393"
      stroke="#000000"
      stroke-opacity="1"
      stroke-width="1"
      marker-end="url(#animation-helloworld12345-`Next_n_6_n_1`.icon-endArrowId)"
    ></line>
    <title>`Next_n_6_n_1`.icon</title>
  </g>
  <g>
    <marker
      id="animation-helloworld12345-`Next_n_3_n_4`.icon-endArrowId"
      markerUnits="strokeWidth"
      markerWidth="9.95"
      markerHeight="8.12"
      viewBox="0 0 9.95 8.12"
      refX="2.36"
      refY="4.06"
      orient="auto-start-reverse"
    >
      <path
        d="M9.95 4.06 0 8.12 2.36 4.06 0 0 9.95 4.06z"
        fill="#000000"
        fill-opacity="1"
      ></path>
    </marker>
    <line
      x1="296.2123187255076"
      y1="243.45755101913576"
      x2="261.5627542035406"
      y2="329.1256174965448"
      stroke="#000000"
      stroke-opacity="1"
      stroke-width="1"
      marker-end="url(#animation-helloworld12345-`Next_n_3_n_4`.icon-endArrowId)"
    ></line>
    <title>`Next_n_3_n_4`.icon</title>
  </g>
  <g>
    <marker
      id="animation-helloworld12345-`Next_n_4_n_5`.icon-endArrowId"
      markerUnits="strokeWidth"
      markerWidth="9.95"
      markerHeight="8.12"
      viewBox="0 0 9.95 8.12"
      refX="2.36"
      refY="4.06"
      orient="auto-start-reverse"
    >
      <path
        d="M9.95 4.06 0 8.12 2.36 4.06 0 0 9.95 4.06z"
        fill="#000000"
        fill-opacity="1"
      ></path>
    </marker>
    <line
      x1="244.82186834048272"
      y1="346.1063822493497"
      x2="152.57090134881946"
      y2="351.5256010714286"
      stroke="#000000"
      stroke-opacity="1"
      stroke-width="1"
      marker-end="url(#animation-helloworld12345-`Next_n_4_n_5`.icon-endArrowId)"
    ></line>
    <title>`Next_n_4_n_5`.icon</title>
  </g>
  <g>
    <marker
      id="animation-helloworld12345-`Next_n_5_n_6`.icon-endArrowId"
      markerUnits="strokeWidth"
      markerWidth="9.95"
      markerHeight="8.12"
      viewBox="0 0 9.95 8.12"
      refX="2.36"
      refY="4.06"
      orient="auto-start-reverse"
    >
      <path
        d="M9.95 4.06 0 8.12 2.36 4.06 0 0 9.95 4.06z"
        fill="#000000"
        fill-opacity="1"
      ></path>
    </marker>
    <line
      x1="129.32300664154562"
      y1="344.3634776926635"
      x2="76.45300132505245"
      y2="268.5718558492024"
      stroke="#000000"
      stroke-opacity="1"
      stroke-width="1"
      marker-end="url(#animation-helloworld12345-`Next_n_5_n_6`.icon-endArrowId)"
    ></line>
    <title>`Next_n_5_n_6`.icon</title>
  </g>
</svg>
