<svg
  version="1.2"
  xmlns="http://www.w3.org/2000/svg"
  viewBox="0 0 510 382"
  penrose="0"
>
  <penrose><croppedViewBox>0 0 510 382</croppedViewBox></penrose>
  <rect
    x="0"
    y="0"
    width="510"
    height="382"
    fill="#0055cc"
    fill-opacity="0.13333333333333333"
    stroke="none"
    rx="0"
    transform="rotate(0, 255, 191)"
  >
    <title>global.background</title>
  </rect>
  <g stroke-linejoin="round">
    <filter
      id="catmull-rom__3:0:spline0-shadow"
      x="0"
      y="0"
      width="200%"
      height="200%"
    >
      <feOffset result="offOut" in="SourceAlpha" dx="5" dy="5" />
      <feGaussianBlur result="blurOut" in="offOut" stdDeviation="4" />
      <feBlend in="SourceGraphic" in2="blurOut" mode="normal" />
      <feComponentTransfer>
        <feFuncA type="linear" slope="0.5" />
      </feComponentTransfer>
      <feMerge>
        <feMergeNode />
        <feMergeNode in="SourceGraphic" />
      </feMerge>
    </filter>
    <path
      fill="none"
      stroke="#1b8a1f"
      stroke-opacity="0.2"
      stroke-width="1"
      stroke-linecap="butt"
      d="M 342.1926369700295 199.537790803879 C 342.1926369700295 199.537790803879 381.16104377107115 40.34845921976495 381.16104377107115 40.34845921976495 C 381.16104377107115 40.34845921976495 119.07418383630531 101.09415176857149 119.07418383630531 101.09415176857149 C 119.07418383630531 101.09415176857149 62.38266340502139 315.6043068108952 62.38266340502139 315.6043068108952 C 62.38266340502139 315.6043068108952 116.69471214714974 311.48173455233655 116.69471214714974 311.48173455233655 C 116.69471214714974 311.48173455233655 113.72571948655474 37.91704918931302 113.72571948655474 37.91704918931302 C 113.72571948655474 37.91704918931302 382.615046602355 245.40714351235601 382.615046602355 245.40714351235601 C 382.615046602355 245.40714351235601 363.57408454865725 306.83056028615005 363.57408454865725 306.83056028615005 C 363.57408454865725 306.83056028615005 342.1926369700295 199.537790803879 342.1926369700295 199.537790803879 Z "
    />
    <title>3:0:spline0</title>
  </g>
  <g stroke-linejoin="round">
    <filter
      id="catmull-rom__3:0:spline1-shadow"
      x="0"
      y="0"
      width="200%"
      height="200%"
    >
      <feOffset result="offOut" in="SourceAlpha" dx="5" dy="5" />
      <feGaussianBlur result="blurOut" in="offOut" stdDeviation="4" />
      <feBlend in="SourceGraphic" in2="blurOut" mode="normal" />
      <feComponentTransfer>
        <feFuncA type="linear" slope="0.5" />
      </feComponentTransfer>
      <feMerge>
        <feMergeNode />
        <feMergeNode in="SourceGraphic" />
      </feMerge>
    </filter>
    <path
      fill="none"
      stroke="#1b8a1f"
      stroke-opacity="0.6"
      stroke-width="1.3333333333333333"
      stroke-linecap="butt"
      d="M 342.1926369700295 199.537790803879 C 343.6582169052307 177.33094904834692 399.75424819888144 48.55209580604057 381.16104377107115 40.34845921976495 C 362.56783934326074 32.144822633489326 145.63904886680945 78.15616446931064 119.07418383630531 101.09415176857149 C 92.50931880580117 124.03213906783235 62.58095271245102 298.07200824558146 62.38266340502139 315.6043068108952 C 62.18437409759176 333.136605376209 112.4161241403553 334.6223393541351 116.69471214714974 311.48173455233655 C 120.9733001539442 288.341129750538 91.56569161528762 43.42326510931139 113.72571948655474 37.91704918931302 C 135.88574735782186 32.41083326931465 361.79434951384644 222.99768425428624 382.615046602355 245.40714351235601 C 403.43574369086355 267.8166027704258 366.94261868468436 310.6530063451898 363.57408454865725 306.83056028615005 C 360.20555041263015 303.0081142271103 340.72705703482836 221.7446325594111 342.1926369700295 199.537790803879 Z "
    />
    <title>3:0:spline1</title>
  </g>
  <g stroke-linejoin="round">
    <filter
      id="catmull-rom__3:0:spline2-shadow"
      x="0"
      y="0"
      width="200%"
      height="200%"
    >
      <feOffset result="offOut" in="SourceAlpha" dx="5" dy="5" />
      <feGaussianBlur result="blurOut" in="offOut" stdDeviation="4" />
      <feBlend in="SourceGraphic" in2="blurOut" mode="normal" />
      <feComponentTransfer>
        <feFuncA type="linear" slope="0.5" />
      </feComponentTransfer>
      <feMerge>
        <feMergeNode />
        <feMergeNode in="SourceGraphic" />
      </feMerge>
    </filter>
    <path
      fill="none"
      stroke="#1b8a1f"
      stroke-opacity="0.6"
      stroke-width="1.6666666666666665"
      stroke-linecap="butt"
      d="M 342.1926369700295 199.537790803879 C 345.12379684043185 155.1241072928148 418.34745262669185 56.75573239231619 381.16104377107115 40.34845921976495 C 343.97463491545045 23.941186047213705 172.2039138973136 55.218177170049785 119.07418383630531 101.09415176857149 C 65.944453775297 146.9701263670932 62.779242019880655 280.5397096802677 62.38266340502139 315.6043068108952 C 61.986084790162124 350.66890394152273 108.13753613356084 357.76294415593355 116.69471214714974 311.48173455233655 C 125.25188816073864 265.2005249487395 69.40566374402053 48.929481029309784 113.72571948655474 37.91704918931302 C 158.04577522908895 26.904617349316254 340.97365242533795 200.5882249962165 382.615046602355 245.40714351235601 C 424.25644077937204 290.2260620284955 370.3111528207115 314.47545240422954 363.57408454865725 306.83056028615005 C 356.837016276603 299.18566816807055 339.2614770996272 243.9514743149432 342.1926369700295 199.537790803879 Z "
    />
    <title>3:0:spline2</title>
  </g>
  <g stroke-linejoin="round">
    <filter
      id="catmull-rom__global.spline3-shadow"
      x="0"
      y="0"
      width="200%"
      height="200%"
    >
      <feOffset result="offOut" in="SourceAlpha" dx="5" dy="5" />
      <feGaussianBlur result="blurOut" in="offOut" stdDeviation="4" />
      <feBlend in="SourceGraphic" in2="blurOut" mode="normal" />
      <feComponentTransfer>
        <feFuncA type="linear" slope="0.5" />
      </feComponentTransfer>
      <feMerge>
        <feMergeNode />
        <feMergeNode in="SourceGraphic" />
      </feMerge>
    </filter>
    <path
      fill="none"
      stroke="#1b8a1f"
      stroke-opacity="1"
      stroke-width="2"
      stroke-linecap="butt"
      d="M 342.1926369700295 199.537790803879 C 346.589376775633 132.91726553728273 436.94065705450214 64.95936897859183 381.16104377107115 40.34845921976495 C 325.38143048764005 15.737549460938055 198.76877892781775 32.28018987078892 119.07418383630531 101.09415176857149 C 39.37958874479287 169.90811366635407 62.97753132731029 263.007411114954 62.38266340502139 315.6043068108952 C 61.78779548273249 368.20120250683647 103.85894812676639 380.9035489577321 116.69471214714974 311.48173455233655 C 129.5304761675331 242.05992014694098 47.24563587275344 54.43569694930815 113.72571948655474 37.91704918931302 C 180.20580310035604 21.398401429317886 320.15295533682934 178.17876573814675 382.615046602355 245.40714351235601 C 445.07713786788065 312.6355212865653 373.67968695673864 318.2978984632693 363.57408454865725 306.83056028615005 C 353.4684821405759 295.3632221090308 337.79589716442604 266.1583160704753 342.1926369700295 199.537790803879 Z "
    />
    <title>global.spline3</title>
  </g>
  <circle
    fill="#ffffff"
    fill-opacity="1"
    cx="119.07418383630531"
    cy="101.09415176857149"
    stroke="#000000"
    stroke-opacity="1"
    stroke-width="1.5"
    r="3"
  >
    <title>`p3`.icon</title>
  </circle>
  <circle
    fill="#ffffff"
    fill-opacity="1"
    cx="116.69471214714974"
    cy="311.48173455233655"
    stroke="#000000"
    stroke-opacity="1"
    stroke-width="1.5"
    r="3"
  >
    <title>`p5`.icon</title>
  </circle>
  <circle
    fill="#ffffff"
    fill-opacity="1"
    cx="62.38266340502139"
    cy="315.6043068108952"
    stroke="#000000"
    stroke-opacity="1"
    stroke-width="1.5"
    r="3"
  >
    <title>`p4`.icon</title>
  </circle>
  <circle
    fill="#ffffff"
    fill-opacity="1"
    cx="363.57408454865725"
    cy="306.83056028615005"
    stroke="#000000"
    stroke-opacity="1"
    stroke-width="1.5"
    r="3"
  >
    <title>`p8`.icon</title>
  </circle>
  <circle
    fill="#ffffff"
    fill-opacity="1"
    cx="382.615046602355"
    cy="245.40714351235601"
    stroke="#000000"
    stroke-opacity="1"
    stroke-width="1.5"
    r="3"
  >
    <title>`p7`.icon</title>
  </circle>
  <circle
    fill="#ffffff"
    fill-opacity="1"
    cx="381.16104377107115"
    cy="40.34845921976495"
    stroke="#000000"
    stroke-opacity="1"
    stroke-width="1.5"
    r="3"
  >
    <title>`p2`.icon</title>
  </circle>
  <circle
    fill="#ffffff"
    fill-opacity="1"
    cx="342.1926369700295"
    cy="199.537790803879"
    stroke="#000000"
    stroke-opacity="1"
    stroke-width="1.5"
    r="3"
  >
    <title>`p1`.icon</title>
  </circle>
  <circle
    fill="#ffffff"
    fill-opacity="1"
    cx="113.72571948655474"
    cy="37.91704918931302"
    stroke="#000000"
    stroke-opacity="1"
    stroke-width="1.5"
    r="3"
  >
    <title>`p6`.icon</title>
  </circle>
  <rect
    x="181.15939518291245"
    y="206.07074777631001"
    width="323.3130666746916"
    height="52.50524321539579"
    fill="#112277"
    fill-opacity="0.8"
    stroke="none"
    rx="0"
    transform="rotate(0, 342.81592852025824, 232.32336938400792)"
  >
    <title>global.textBox</title>
  </rect>
  <g>
    <text
      fill="#ffdd00"
      fill-opacity="1"
      stroke="none"
      transform="rotate(0, 248.15918516487292, 220.57081388243373)"
      style="font: 9px Menlo"
      x="248.15918516487292"
      y="223.07081388243373"
      width="97.5517578125"
      height="9"
      font-size-adjust=""
      alignment-baseline="alphabetic"
      dominant-baseline="alphabetic"
      ascent="7"
      descent="2"
      text-anchor="middle"
      visibility=""
    >
      <title>global.line1</title>
      shape spline = Path {
    </text>
    <text
      fill="#ffdd00"
      fill-opacity="1"
      stroke="none"
      transform="rotate(0, 370.1591851648729, 232.57081388243373)"
      style="font: 9px Menlo"
      x="370.1591851648729"
      y="235.07081388243373"
      width="248.626953125"
      height="9"
      font-size-adjust=""
      alignment-baseline="alphabetic"
      dominant-baseline="alphabetic"
      ascent="7"
      descent="2"
      text-anchor="middle"
      visibility=""
    >
      <title>global.line2</title>
      d: interpolatingSpline( “closed”, [ p1, ..., pN ], tension )
    </text>
    <text
      fill="#ffdd00"
      fill-opacity="1"
      stroke="none"
      transform="rotate(0, 194.15918516487292, 244.57081388243373)"
      style="font: 9px Menlo"
      x="194.15918516487292"
      y="247.57081388243373"
      width="6"
      height="8"
      font-size-adjust=""
      alignment-baseline="alphabetic"
      dominant-baseline="alphabetic"
      ascent="7"
      descent="1"
      text-anchor="middle"
      visibility=""
    >
      <title>global.line3</title>
      }
    </text>
    <title>global.code</title>
  </g>
</svg>
