<svg
  version="1.2"
  xmlns="http://www.w3.org/2000/svg"
  viewBox="0 0 510 382"
  penrose="0"
>
  <penrose><croppedViewBox>0 0 510 382</croppedViewBox></penrose>
  <rect
    x="0"
    y="0"
    width="510"
    height="382"
    fill="#0055cc"
    fill-opacity="0.13333333333333333"
    stroke="none"
    rx="0"
    transform="rotate(0, 255, 191)"
  >
    <title>global.background</title>
  </rect>
  <g stroke-linejoin="round">
    <filter
      id="catmull-rom__3:0:spline0-shadow"
      x="0"
      y="0"
      width="200%"
      height="200%"
    >
      <feOffset result="offOut" in="SourceAlpha" dx="5" dy="5" />
      <feGaussianBlur result="blurOut" in="offOut" stdDeviation="4" />
      <feBlend in="SourceGraphic" in2="blurOut" mode="normal" />
      <feComponentTransfer>
        <feFuncA type="linear" slope="0.5" />
      </feComponentTransfer>
      <feMerge>
        <feMergeNode />
        <feMergeNode in="SourceGraphic" />
      </feMerge>
    </filter>
    <path
      fill="none"
      stroke="#1b8a1f"
      stroke-opacity="0.2"
      stroke-width="1"
      stroke-linecap="butt"
      d="M 342.1926369700295 199.537790803879 C 342.1926369700295 199.537790803879 381.1610435387624 40.34845921976495 381.1610435387624 40.34845921976495 C 381.1610435387624 40.34845921976495 119.07418506081399 101.09415194764965 119.07418506081399 101.09415194764965 C 119.07418506081399 101.09415194764965 62.38266363733052 315.6043058326894 62.38266363733052 315.6043058326894 C 62.38266363733052 315.6043058326894 116.69471253200612 311.48173328361446 116.69471253200612 311.48173328361446 C 116.69471253200612 311.48173328361446 113.72572079902156 37.91704954399245 113.72572079902156 37.91704954399245 C 113.72572079902156 37.91704954399245 382.61504621749896 245.407143509177 382.61504621749896 245.407143509177 C 382.61504621749896 245.407143509177 363.57408454865725 306.83056028615005 363.57408454865725 306.83056028615005 C 363.57408454865725 306.83056028615005 342.1926369700295 199.537790803879 342.1926369700295 199.537790803879 Z "
    />
    <title>3:0:spline0</title>
  </g>
  <g stroke-linejoin="round">
    <filter
      id="catmull-rom__3:0:spline1-shadow"
      x="0"
      y="0"
      width="200%"
      height="200%"
    >
      <feOffset result="offOut" in="SourceAlpha" dx="5" dy="5" />
      <feGaussianBlur result="blurOut" in="offOut" stdDeviation="4" />
      <feBlend in="SourceGraphic" in2="blurOut" mode="normal" />
      <feComponentTransfer>
        <feFuncA type="linear" slope="0.5" />
      </feComponentTransfer>
      <feMerge>
        <feMergeNode />
        <feMergeNode in="SourceGraphic" />
      </feMerge>
    </filter>
    <path
      fill="none"
      stroke="#1b8a1f"
      stroke-opacity="0.6"
      stroke-width="1.3333333333333333"
      stroke-linecap="butt"
      d="M 342.1926369700295 199.537790803879 C 343.65821688587164 177.33094904834692 399.7542478645304 48.55209579111738 381.1610435387624 40.34845921976495 C 362.56783921299444 32.144822648412514 145.63905005259997 78.15616472990595 119.07418506081399 101.09415194764965 C 92.509320069028 124.03213916539335 62.580953014731165 298.07200738802567 62.38266363733052 315.6043058326894 C 62.18437425992988 333.1366042773532 112.41612443519853 334.6223379743392 116.69471253200612 311.48173328361446 C 120.97330062881372 288.34112859288973 91.56569299189715 43.42326535852891 113.72572079902156 37.91704954399245 C 135.88574860614597 32.41083372945599 361.79434923836266 222.99768428066386 382.61504621749896 245.407143509177 C 403.43574319663526 267.8166027376901 366.942618652613 310.65300634492485 363.57408454865725 306.83056028615005 C 360.2055504447015 303.00811422737524 340.7270570541874 221.7446325594111 342.1926369700295 199.537790803879 Z "
    />
    <title>3:0:spline1</title>
  </g>
  <g stroke-linejoin="round">
    <filter
      id="catmull-rom__3:0:spline2-shadow"
      x="0"
      y="0"
      width="200%"
      height="200%"
    >
      <feOffset result="offOut" in="SourceAlpha" dx="5" dy="5" />
      <feGaussianBlur result="blurOut" in="offOut" stdDeviation="4" />
      <feBlend in="SourceGraphic" in2="blurOut" mode="normal" />
      <feComponentTransfer>
        <feFuncA type="linear" slope="0.5" />
      </feComponentTransfer>
      <feMerge>
        <feMergeNode />
        <feMergeNode in="SourceGraphic" />
      </feMerge>
    </filter>
    <path
      fill="none"
      stroke="#1b8a1f"
      stroke-opacity="0.6"
      stroke-width="1.6666666666666665"
      stroke-linecap="butt"
      d="M 342.1926369700295 199.537790803879 C 345.12379680171375 155.1241072928148 418.3474521902983 56.75573236246984 381.1610435387624 40.34845921976495 C 343.97463488722644 23.941186077060053 172.20391504438595 55.21817751216224 119.07418506081399 101.09415194764965 C 65.94445507724203 146.97012638313706 62.779242392131835 280.539708943362 62.38266363733052 315.6043058326894 C 61.98608488252921 350.6689027220169 108.13753633839096 357.762942665064 116.69471253200612 311.48173328361446 C 125.25188872562128 265.20052390216495 69.40566518477277 48.92948117306537 113.72572079902156 37.91704954399245 C 158.04577641327035 26.904617914919527 340.97365225922636 200.58822505215073 382.61504621749896 245.407143509177 C 424.25644017577156 290.22606196620325 370.31115275656884 314.4754524036997 363.57408454865725 306.83056028615005 C 356.83701634074566 299.1856681686004 339.2614771383453 243.9514743149432 342.1926369700295 199.537790803879 Z "
    />
    <title>3:0:spline2</title>
  </g>
  <g stroke-linejoin="round">
    <filter
      id="catmull-rom__global.spline3-shadow"
      x="0"
      y="0"
      width="200%"
      height="200%"
    >
      <feOffset result="offOut" in="SourceAlpha" dx="5" dy="5" />
      <feGaussianBlur result="blurOut" in="offOut" stdDeviation="4" />
      <feBlend in="SourceGraphic" in2="blurOut" mode="normal" />
      <feComponentTransfer>
        <feFuncA type="linear" slope="0.5" />
      </feComponentTransfer>
      <feMerge>
        <feMergeNode />
        <feMergeNode in="SourceGraphic" />
      </feMerge>
    </filter>
    <path
      fill="none"
      stroke="#1b8a1f"
      stroke-opacity="1"
      stroke-width="2"
      stroke-linecap="butt"
      d="M 342.1926369700295 199.537790803879 C 346.5893767175558 132.91726553728273 436.94065651606627 64.95936893382229 381.1610435387624 40.34845921976495 C 325.3814305614585 15.73754950570762 198.76878003617196 32.28019029441853 119.07418506081399 101.09415194764965 C 39.379590085456016 169.90811360088077 62.977531769532504 263.0074104986982 62.38266363733052 315.6043058326894 C 61.78779550512854 368.2012011666806 103.85894824158336 380.9035473557887 116.69471253200612 311.48173328361446 C 129.53047682242888 242.05991921144022 47.245637377648336 54.4356969876018 113.72572079902156 37.91704954399245 C 180.20580422039478 21.398402100383095 320.15295528009005 178.1787658236376 382.61504621749896 245.407143509177 C 445.07713715490786 312.6355211947164 373.6796868605246 318.29789846247456 363.57408454865725 306.83056028615005 C 353.4684822367899 295.36322210982553 337.79589722250324 266.1583160704753 342.1926369700295 199.537790803879 Z "
    />
    <title>global.spline3</title>
  </g>
  <circle
    fill="#ffffff"
    fill-opacity="1"
    cx="119.07418506081399"
    cy="101.09415194764965"
    stroke="#000000"
    stroke-opacity="1"
    stroke-width="1.5"
    r="3"
  >
    <title>`p3`.icon</title>
  </circle>
  <circle
    fill="#ffffff"
    fill-opacity="1"
    cx="116.69471253200612"
    cy="311.48173328361446"
    stroke="#000000"
    stroke-opacity="1"
    stroke-width="1.5"
    r="3"
  >
    <title>`p5`.icon</title>
  </circle>
  <circle
    fill="#ffffff"
    fill-opacity="1"
    cx="62.38266363733052"
    cy="315.6043058326894"
    stroke="#000000"
    stroke-opacity="1"
    stroke-width="1.5"
    r="3"
  >
    <title>`p4`.icon</title>
  </circle>
  <circle
    fill="#ffffff"
    fill-opacity="1"
    cx="363.57408454865725"
    cy="306.83056028615005"
    stroke="#000000"
    stroke-opacity="1"
    stroke-width="1.5"
    r="3"
  >
    <title>`p8`.icon</title>
  </circle>
  <circle
    fill="#ffffff"
    fill-opacity="1"
    cx="382.61504621749896"
    cy="245.407143509177"
    stroke="#000000"
    stroke-opacity="1"
    stroke-width="1.5"
    r="3"
  >
    <title>`p7`.icon</title>
  </circle>
  <circle
    fill="#ffffff"
    fill-opacity="1"
    cx="381.1610435387624"
    cy="40.34845921976495"
    stroke="#000000"
    stroke-opacity="1"
    stroke-width="1.5"
    r="3"
  >
    <title>`p2`.icon</title>
  </circle>
  <circle
    fill="#ffffff"
    fill-opacity="1"
    cx="342.1926369700295"
    cy="199.537790803879"
    stroke="#000000"
    stroke-opacity="1"
    stroke-width="1.5"
    r="3"
  >
    <title>`p1`.icon</title>
  </circle>
  <circle
    fill="#ffffff"
    fill-opacity="1"
    cx="113.72572079902156"
    cy="37.91704954399245"
    stroke="#000000"
    stroke-opacity="1"
    stroke-width="1.5"
    r="3"
  >
    <title>`p6`.icon</title>
  </circle>
  <rect
    x="181.159585916357"
    y="206.07167528715974"
    width="323.3126341886008"
    height="52.500419719077065"
    fill="#112277"
    fill-opacity="0.8"
    stroke="none"
    rx="0"
    transform="rotate(0, 342.8159030106574, 232.32188514669826)"
  >
    <title>global.textBox</title>
  </rect>
  <g>
    <text
      fill="#ffdd00"
      fill-opacity="1"
      stroke="none"
      transform="rotate(0, 248.15920377204287, 220.57229811974378)"
      style="font: 9px Menlo"
      x="248.15920377204287"
      y="223.07229811974378"
      width="97.5517578125"
      height="9"
      font-size-adjust=""
      alignment-baseline="alphabetic"
      dominant-baseline="alphabetic"
      ascent="7"
      descent="2"
      text-anchor="middle"
      visibility=""
    >
      <title>global.line1</title>
      shape spline = Path {
    </text>
    <text
      fill="#ffdd00"
      fill-opacity="1"
      stroke="none"
      transform="rotate(0, 370.1592037720429, 232.57229811974378)"
      style="font: 9px Menlo"
      x="370.1592037720429"
      y="235.07229811974378"
      width="248.626953125"
      height="9"
      font-size-adjust=""
      alignment-baseline="alphabetic"
      dominant-baseline="alphabetic"
      ascent="7"
      descent="2"
      text-anchor="middle"
      visibility=""
    >
      <title>global.line2</title>
      d: interpolatingSpline( “closed”, [ p1, ..., pN ], tension )
    </text>
    <text
      fill="#ffdd00"
      fill-opacity="1"
      stroke="none"
      transform="rotate(0, 194.15920377204287, 244.57229811974378)"
      style="font: 9px Menlo"
      x="194.15920377204287"
      y="247.57229811974378"
      width="6"
      height="8"
      font-size-adjust=""
      alignment-baseline="alphabetic"
      dominant-baseline="alphabetic"
      ascent="7"
      descent="1"
      text-anchor="middle"
      visibility=""
    >
      <title>global.line3</title>
      }
    </text>
    <title>global.code</title>
  </g>
</svg>
