<svg width="117" height="117" viewBox="0 0 117 117" fill="none" xmlns="http://www.w3.org/2000/svg">
<rect width="117" height="117" fill="white"/>
<path fill-rule="evenodd" clip-rule="evenodd" d="M31.6339 14.0434C27.2534 13.4667 23.2348 16.5503 22.6581 20.9308L14.0434 86.3661C13.4667 90.7466 16.5503 94.7652 20.9307 95.3419L86.3661 103.957C90.7466 104.533 94.7652 101.45 95.3419 97.0693L103.957 31.6339C104.533 27.2534 101.45 23.2348 97.0693 22.6581L31.6339 14.0434ZM37.2937 40.0043C42.2218 40.6531 46.7427 37.184 47.3915 32.256C48.0403 27.328 44.5712 22.8071 39.6432 22.1583C34.7152 21.5095 30.1943 24.9785 29.5455 29.9065C28.8967 34.8346 32.3657 39.3555 37.2937 40.0043ZM95.9723 38.6518C95.3235 43.5798 90.8026 47.0488 85.8745 46.4001C80.9465 45.7513 77.4775 41.2304 78.1263 36.3023C78.7751 31.3743 83.296 27.9053 88.224 28.554C93.1521 29.2028 96.6211 33.7238 95.9723 38.6518ZM30.7674 89.5765C35.6955 90.2253 40.2164 86.7563 40.8652 81.8283C41.514 76.9002 38.0449 72.3793 33.1169 71.7305C28.1889 71.0817 23.6679 74.5507 23.0192 79.4788C22.3704 84.4068 25.8394 88.9277 30.7674 89.5765ZM89.446 88.224C88.7972 93.1521 84.2763 96.6211 79.3482 95.9723C74.4202 95.3235 70.9512 90.8026 71.6 85.8746C72.2487 80.9465 76.7697 77.4775 81.6977 78.1263C86.6257 78.7751 90.0948 83.296 89.446 88.224ZM58.8167 68.0536C63.7447 68.7023 68.2657 65.2333 68.9144 60.3053C69.5632 55.3772 66.0942 50.8563 61.1662 50.2075C56.2381 49.5588 51.7172 53.0278 51.0684 57.9558C50.4197 62.8838 53.8887 67.4048 58.8167 68.0536Z" fill="black"/>
</svg>
