<svg version="1.2" xmlns="http://www.w3.org/2000/svg" viewBox="0 0 342 163" role="img" aria-label="Figure 5.1: Two disjoint irregular open regions U and V containing shaded subsets A and B, illustrating separation of subsets."><path fill="#f2691f" fill-opacity="0.14" stroke="#000000" stroke-opacity="1" stroke-width="0" stroke-linecap="butt" d="M 43 58 C 48 43 70 36 93 37 C 114 36 127 44 141 47 C 153 50 158 63 150 75 C 141 90 105 93 78 91 C 58 90 35 74 43 58 Z " aria-label="separation.set-a"><title>separation.set-a</title></path><g><clipPath id="bloom-35separation.set-a.mask-clip"><path fill="#ffffff" fill-opacity="1" stroke="#000000" stroke-opacity="1" stroke-width="0" stroke-linecap="butt" d="M 43 58 C 48 43 70 36 93 37 C 114 36 127 44 141 47 C 153 50 158 63 150 75 C 141 90 105 93 78 91 C 58 90 35 74 43 58 Z "><title>separation.set-a.mask</title></path></clipPath><g clip-path="url(#bloom-35separation.set-a.mask-clip)"><g><line x1="-34" y1="98.5" x2="36" y2="28.5" stroke="#262626" stroke-opacity="0.5" stroke-width="0.55"/><title>0_Line</title></g></g><g clip-path="url(#bloom-35separation.set-a.mask-clip)"><g><line x1="-29.5" y1="98.5" x2="40.5" y2="28.5" stroke="#262626" stroke-opacity="0.5" stroke-width="0.55"/><title>1_Line</title></g></g><g clip-path="url(#bloom-35separation.set-a.mask-clip)"><g><line x1="-25" y1="98.5" x2="45" y2="28.5" stroke="#262626" stroke-opacity="0.5" stroke-width="0.55"/><title>2_Line</title></g></g><g clip-path="url(#bloom-35separation.set-a.mask-clip)"><g><line x1="-20.5" y1="98.5" x2="49.5" y2="28.5" stroke="#262626" stroke-opacity="0.5" stroke-width="0.55"/><title>3_Line</title></g></g><g clip-path="url(#bloom-35separation.set-a.mask-clip)"><g><line x1="-16" y1="98.5" x2="54" y2="28.5" stroke="#262626" stroke-opacity="0.5" stroke-width="0.55"/><title>4_Line</title></g></g><g clip-path="url(#bloom-35separation.set-a.mask-clip)"><g><line x1="-11.5" y1="98.5" x2="58.5" y2="28.5" stroke="#262626" stroke-opacity="0.5" stroke-width="0.55"/><title>5_Line</title></g></g><g clip-path="url(#bloom-35separation.set-a.mask-clip)"><g><line x1="-7" y1="98.5" x2="63" y2="28.5" stroke="#262626" stroke-opacity="0.5" stroke-width="0.55"/><title>6_Line</title></g></g><g clip-path="url(#bloom-35separation.set-a.mask-clip)"><g><line x1="-2.5" y1="98.5" x2="67.5" y2="28.5" stroke="#262626" stroke-opacity="0.5" stroke-width="0.55"/><title>7_Line</title></g></g><g clip-path="url(#bloom-35separation.set-a.mask-clip)"><g><line x1="2" y1="98.5" x2="72" y2="28.5" stroke="#262626" stroke-opacity="0.5" stroke-width="0.55"/><title>8_Line</title></g></g><g clip-path="url(#bloom-35separation.set-a.mask-clip)"><g><line x1="6.5" y1="98.5" x2="76.5" y2="28.5" stroke="#262626" stroke-opacity="0.5" stroke-width="0.55"/><title>9_Line</title></g></g><g clip-path="url(#bloom-35separation.set-a.mask-clip)"><g><line x1="11" y1="98.5" x2="81" y2="28.5" stroke="#262626" stroke-opacity="0.5" stroke-width="0.55"/><title>10_Line</title></g></g><g clip-path="url(#bloom-35separation.set-a.mask-clip)"><g><line x1="15.5" y1="98.5" x2="85.5" y2="28.5" stroke="#262626" stroke-opacity="0.5" stroke-width="0.55"/><title>11_Line</title></g></g><g clip-path="url(#bloom-35separation.set-a.mask-clip)"><g><line x1="20" y1="98.5" x2="90" y2="28.5" stroke="#262626" stroke-opacity="0.5" stroke-width="0.55"/><title>12_Line</title></g></g><g clip-path="url(#bloom-35separation.set-a.mask-clip)"><g><line x1="24.5" y1="98.5" x2="94.5" y2="28.5" stroke="#262626" stroke-opacity="0.5" stroke-width="0.55"/><title>13_Line</title></g></g><g clip-path="url(#bloom-35separation.set-a.mask-clip)"><g><line x1="29" y1="98.5" x2="99" y2="28.5" stroke="#262626" stroke-opacity="0.5" stroke-width="0.55"/><title>14_Line</title></g></g><g clip-path="url(#bloom-35separation.set-a.mask-clip)"><g><line x1="33.5" y1="98.5" x2="103.5" y2="28.5" stroke="#262626" stroke-opacity="0.5" stroke-width="0.55"/><title>15_Line</title></g></g><g clip-path="url(#bloom-35separation.set-a.mask-clip)"><g><line x1="38" y1="98.5" x2="108" y2="28.5" stroke="#262626" stroke-opacity="0.5" stroke-width="0.55"/><title>16_Line</title></g></g><g clip-path="url(#bloom-35separation.set-a.mask-clip)"><g><line x1="42.5" y1="98.5" x2="112.5" y2="28.5" stroke="#262626" stroke-opacity="0.5" stroke-width="0.55"/><title>17_Line</title></g></g><g clip-path="url(#bloom-35separation.set-a.mask-clip)"><g><line x1="47" y1="98.5" x2="117" y2="28.5" stroke="#262626" stroke-opacity="0.5" stroke-width="0.55"/><title>18_Line</title></g></g><g clip-path="url(#bloom-35separation.set-a.mask-clip)"><g><line x1="51.5" y1="98.5" x2="121.5" y2="28.5" stroke="#262626" stroke-opacity="0.5" stroke-width="0.55"/><title>19_Line</title></g></g><g clip-path="url(#bloom-35separation.set-a.mask-clip)"><g><line x1="56" y1="98.5" x2="126" y2="28.5" stroke="#262626" stroke-opacity="0.5" stroke-width="0.55"/><title>20_Line</title></g></g><g clip-path="url(#bloom-35separation.set-a.mask-clip)"><g><line x1="60.5" y1="98.5" x2="130.5" y2="28.5" stroke="#262626" stroke-opacity="0.5" stroke-width="0.55"/><title>21_Line</title></g></g><g clip-path="url(#bloom-35separation.set-a.mask-clip)"><g><line x1="65" y1="98.5" x2="135" y2="28.5" stroke="#262626" stroke-opacity="0.5" stroke-width="0.55"/><title>22_Line</title></g></g><g clip-path="url(#bloom-35separation.set-a.mask-clip)"><g><line x1="69.5" y1="98.5" x2="139.5" y2="28.5" stroke="#262626" stroke-opacity="0.5" stroke-width="0.55"/><title>23_Line</title></g></g><g clip-path="url(#bloom-35separation.set-a.mask-clip)"><g><line x1="74" y1="98.5" x2="144" y2="28.5" stroke="#262626" stroke-opacity="0.5" stroke-width="0.55"/><title>24_Line</title></g></g><g clip-path="url(#bloom-35separation.set-a.mask-clip)"><g><line x1="78.5" y1="98.5" x2="148.5" y2="28.5" stroke="#262626" stroke-opacity="0.5" stroke-width="0.55"/><title>25_Line</title></g></g><g clip-path="url(#bloom-35separation.set-a.mask-clip)"><g><line x1="83" y1="98.5" x2="153" y2="28.5" stroke="#262626" stroke-opacity="0.5" stroke-width="0.55"/><title>26_Line</title></g></g><g clip-path="url(#bloom-35separation.set-a.mask-clip)"><g><line x1="87.5" y1="98.5" x2="157.5" y2="28.5" stroke="#262626" stroke-opacity="0.5" stroke-width="0.55"/><title>27_Line</title></g></g><g clip-path="url(#bloom-35separation.set-a.mask-clip)"><g><line x1="92" y1="98.5" x2="162" y2="28.5" stroke="#262626" stroke-opacity="0.5" stroke-width="0.55"/><title>28_Line</title></g></g><g clip-path="url(#bloom-35separation.set-a.mask-clip)"><g><line x1="96.5" y1="98.5" x2="166.5" y2="28.5" stroke="#262626" stroke-opacity="0.5" stroke-width="0.55"/><title>29_Line</title></g></g><g clip-path="url(#bloom-35separation.set-a.mask-clip)"><g><line x1="101" y1="98.5" x2="171" y2="28.5" stroke="#262626" stroke-opacity="0.5" stroke-width="0.55"/><title>30_Line</title></g></g><g clip-path="url(#bloom-35separation.set-a.mask-clip)"><g><line x1="105.5" y1="98.5" x2="175.5" y2="28.5" stroke="#262626" stroke-opacity="0.5" stroke-width="0.55"/><title>31_Line</title></g></g><g clip-path="url(#bloom-35separation.set-a.mask-clip)"><g><line x1="110" y1="98.5" x2="180" y2="28.5" stroke="#262626" stroke-opacity="0.5" stroke-width="0.55"/><title>32_Line</title></g></g><g clip-path="url(#bloom-35separation.set-a.mask-clip)"><g><line x1="114.5" y1="98.5" x2="184.5" y2="28.5" stroke="#262626" stroke-opacity="0.5" stroke-width="0.55"/><title>33_Line</title></g></g><g clip-path="url(#bloom-35separation.set-a.mask-clip)"><g><line x1="119" y1="98.5" x2="189" y2="28.5" stroke="#262626" stroke-opacity="0.5" stroke-width="0.55"/><title>34_Line</title></g></g><g clip-path="url(#bloom-35separation.set-a.mask-clip)"><g><line x1="123.5" y1="98.5" x2="193.5" y2="28.5" stroke="#262626" stroke-opacity="0.5" stroke-width="0.55"/><title>35_Line</title></g></g><g clip-path="url(#bloom-35separation.set-a.mask-clip)"><g><line x1="128" y1="98.5" x2="198" y2="28.5" stroke="#262626" stroke-opacity="0.5" stroke-width="0.55"/><title>36_Line</title></g></g><g clip-path="url(#bloom-35separation.set-a.mask-clip)"><g><line x1="132.5" y1="98.5" x2="202.5" y2="28.5" stroke="#262626" stroke-opacity="0.5" stroke-width="0.55"/><title>37_Line</title></g></g><g clip-path="url(#bloom-35separation.set-a.mask-clip)"><g><line x1="137" y1="98.5" x2="207" y2="28.5" stroke="#262626" stroke-opacity="0.5" stroke-width="0.55"/><title>38_Line</title></g></g><g clip-path="url(#bloom-35separation.set-a.mask-clip)"><g><line x1="141.5" y1="98.5" x2="211.5" y2="28.5" stroke="#262626" stroke-opacity="0.5" stroke-width="0.55"/><title>39_Line</title></g></g><g clip-path="url(#bloom-35separation.set-a.mask-clip)"><g><line x1="146" y1="98.5" x2="216" y2="28.5" stroke="#262626" stroke-opacity="0.5" stroke-width="0.55"/><title>40_Line</title></g></g><g clip-path="url(#bloom-35separation.set-a.mask-clip)"><g><line x1="150.5" y1="98.5" x2="220.5" y2="28.5" stroke="#262626" stroke-opacity="0.5" stroke-width="0.55"/><title>41_Line</title></g></g><g clip-path="url(#bloom-35separation.set-a.mask-clip)"><g><line x1="155" y1="98.5" x2="225" y2="28.5" stroke="#262626" stroke-opacity="0.5" stroke-width="0.55"/><title>42_Line</title></g></g><g clip-path="url(#bloom-35separation.set-a.mask-clip)"><g><line x1="159.5" y1="98.5" x2="229.5" y2="28.5" stroke="#262626" stroke-opacity="0.5" stroke-width="0.55"/><title>43_Line</title></g></g><g clip-path="url(#bloom-35separation.set-a.mask-clip)"><g><line x1="164" y1="98.5" x2="234" y2="28.5" stroke="#262626" stroke-opacity="0.5" stroke-width="0.55"/><title>44_Line</title></g></g><title>separation.set-a.hatching</title></g><path fill="#f2691f" fill-opacity="0.14" stroke="#000000" stroke-opacity="1" stroke-width="0" stroke-linecap="butt" d="M 210 55 C 218 36 244 23 260 22 C 282 23 290 42 306 47 C 326 61 316 84 299 99 C 282 115 249 129 230 119 C 210 105 200 76 210 55 Z " aria-label="separation.set-b"><title>separation.set-b</title></path><g><clipPath id="bloom-35separation.set-b.mask-clip"><path fill="#ffffff" fill-opacity="1" stroke="#000000" stroke-opacity="1" stroke-width="0" stroke-linecap="butt" d="M 210 55 C 218 36 244 23 260 22 C 282 23 290 42 306 47 C 326 61 316 84 299 99 C 282 115 249 129 230 119 C 210 105 200 76 210 55 Z "><title>separation.set-b.mask</title></path></clipPath><g clip-path="url(#bloom-35separation.set-b.mask-clip)"><g><line x1="81" y1="136.5" x2="201" y2="16.5" stroke="#262626" stroke-opacity="0.5" stroke-width="0.55"/><title>45_Line</title></g></g><g clip-path="url(#bloom-35separation.set-b.mask-clip)"><g><line x1="85.5" y1="136.5" x2="205.5" y2="16.5" stroke="#262626" stroke-opacity="0.5" stroke-width="0.55"/><title>46_Line</title></g></g><g clip-path="url(#bloom-35separation.set-b.mask-clip)"><g><line x1="90" y1="136.5" x2="210" y2="16.5" stroke="#262626" stroke-opacity="0.5" stroke-width="0.55"/><title>47_Line</title></g></g><g clip-path="url(#bloom-35separation.set-b.mask-clip)"><g><line x1="94.5" y1="136.5" x2="214.5" y2="16.5" stroke="#262626" stroke-opacity="0.5" stroke-width="0.55"/><title>48_Line</title></g></g><g clip-path="url(#bloom-35separation.set-b.mask-clip)"><g><line x1="99" y1="136.5" x2="219" y2="16.5" stroke="#262626" stroke-opacity="0.5" stroke-width="0.55"/><title>49_Line</title></g></g><g clip-path="url(#bloom-35separation.set-b.mask-clip)"><g><line x1="103.5" y1="136.5" x2="223.5" y2="16.5" stroke="#262626" stroke-opacity="0.5" stroke-width="0.55"/><title>50_Line</title></g></g><g clip-path="url(#bloom-35separation.set-b.mask-clip)"><g><line x1="108" y1="136.5" x2="228" y2="16.5" stroke="#262626" stroke-opacity="0.5" stroke-width="0.55"/><title>51_Line</title></g></g><g clip-path="url(#bloom-35separation.set-b.mask-clip)"><g><line x1="112.5" y1="136.5" x2="232.5" y2="16.5" stroke="#262626" stroke-opacity="0.5" stroke-width="0.55"/><title>52_Line</title></g></g><g clip-path="url(#bloom-35separation.set-b.mask-clip)"><g><line x1="117" y1="136.5" x2="237" y2="16.5" stroke="#262626" stroke-opacity="0.5" stroke-width="0.55"/><title>53_Line</title></g></g><g clip-path="url(#bloom-35separation.set-b.mask-clip)"><g><line x1="121.5" y1="136.5" x2="241.5" y2="16.5" stroke="#262626" stroke-opacity="0.5" stroke-width="0.55"/><title>54_Line</title></g></g><g clip-path="url(#bloom-35separation.set-b.mask-clip)"><g><line x1="126" y1="136.5" x2="246" y2="16.5" stroke="#262626" stroke-opacity="0.5" stroke-width="0.55"/><title>55_Line</title></g></g><g clip-path="url(#bloom-35separation.set-b.mask-clip)"><g><line x1="130.5" y1="136.5" x2="250.5" y2="16.5" stroke="#262626" stroke-opacity="0.5" stroke-width="0.55"/><title>56_Line</title></g></g><g clip-path="url(#bloom-35separation.set-b.mask-clip)"><g><line x1="135" y1="136.5" x2="255" y2="16.5" stroke="#262626" stroke-opacity="0.5" stroke-width="0.55"/><title>57_Line</title></g></g><g clip-path="url(#bloom-35separation.set-b.mask-clip)"><g><line x1="139.5" y1="136.5" x2="259.5" y2="16.5" stroke="#262626" stroke-opacity="0.5" stroke-width="0.55"/><title>58_Line</title></g></g><g clip-path="url(#bloom-35separation.set-b.mask-clip)"><g><line x1="144" y1="136.5" x2="264" y2="16.5" stroke="#262626" stroke-opacity="0.5" stroke-width="0.55"/><title>59_Line</title></g></g><g clip-path="url(#bloom-35separation.set-b.mask-clip)"><g><line x1="148.5" y1="136.5" x2="268.5" y2="16.5" stroke="#262626" stroke-opacity="0.5" stroke-width="0.55"/><title>60_Line</title></g></g><g clip-path="url(#bloom-35separation.set-b.mask-clip)"><g><line x1="153" y1="136.5" x2="273" y2="16.5" stroke="#262626" stroke-opacity="0.5" stroke-width="0.55"/><title>61_Line</title></g></g><g clip-path="url(#bloom-35separation.set-b.mask-clip)"><g><line x1="157.5" y1="136.5" x2="277.5" y2="16.5" stroke="#262626" stroke-opacity="0.5" stroke-width="0.55"/><title>62_Line</title></g></g><g clip-path="url(#bloom-35separation.set-b.mask-clip)"><g><line x1="162" y1="136.5" x2="282" y2="16.5" stroke="#262626" stroke-opacity="0.5" stroke-width="0.55"/><title>63_Line</title></g></g><g clip-path="url(#bloom-35separation.set-b.mask-clip)"><g><line x1="166.5" y1="136.5" x2="286.5" y2="16.5" stroke="#262626" stroke-opacity="0.5" stroke-width="0.55"/><title>64_Line</title></g></g><g clip-path="url(#bloom-35separation.set-b.mask-clip)"><g><line x1="171" y1="136.5" x2="291" y2="16.5" stroke="#262626" stroke-opacity="0.5" stroke-width="0.55"/><title>65_Line</title></g></g><g clip-path="url(#bloom-35separation.set-b.mask-clip)"><g><line x1="175.5" y1="136.5" x2="295.5" y2="16.5" stroke="#262626" stroke-opacity="0.5" stroke-width="0.55"/><title>66_Line</title></g></g><g clip-path="url(#bloom-35separation.set-b.mask-clip)"><g><line x1="180" y1="136.5" x2="300" y2="16.5" stroke="#262626" stroke-opacity="0.5" stroke-width="0.55"/><title>67_Line</title></g></g><g clip-path="url(#bloom-35separation.set-b.mask-clip)"><g><line x1="184.5" y1="136.5" x2="304.5" y2="16.5" stroke="#262626" stroke-opacity="0.5" stroke-width="0.55"/><title>68_Line</title></g></g><g clip-path="url(#bloom-35separation.set-b.mask-clip)"><g><line x1="189" y1="136.5" x2="309" y2="16.5" stroke="#262626" stroke-opacity="0.5" stroke-width="0.55"/><title>69_Line</title></g></g><g clip-path="url(#bloom-35separation.set-b.mask-clip)"><g><line x1="193.5" y1="136.5" x2="313.5" y2="16.5" stroke="#262626" stroke-opacity="0.5" stroke-width="0.55"/><title>70_Line</title></g></g><g clip-path="url(#bloom-35separation.set-b.mask-clip)"><g><line x1="198" y1="136.5" x2="318" y2="16.5" stroke="#262626" stroke-opacity="0.5" stroke-width="0.55"/><title>71_Line</title></g></g><g clip-path="url(#bloom-35separation.set-b.mask-clip)"><g><line x1="202.5" y1="136.5" x2="322.5" y2="16.5" stroke="#262626" stroke-opacity="0.5" stroke-width="0.55"/><title>72_Line</title></g></g><g clip-path="url(#bloom-35separation.set-b.mask-clip)"><g><line x1="207" y1="136.5" x2="327" y2="16.5" stroke="#262626" stroke-opacity="0.5" stroke-width="0.55"/><title>73_Line</title></g></g><g clip-path="url(#bloom-35separation.set-b.mask-clip)"><g><line x1="211.5" y1="136.5" x2="331.5" y2="16.5" stroke="#262626" stroke-opacity="0.5" stroke-width="0.55"/><title>74_Line</title></g></g><g clip-path="url(#bloom-35separation.set-b.mask-clip)"><g><line x1="216" y1="136.5" x2="336" y2="16.5" stroke="#262626" stroke-opacity="0.5" stroke-width="0.55"/><title>75_Line</title></g></g><g clip-path="url(#bloom-35separation.set-b.mask-clip)"><g><line x1="220.5" y1="136.5" x2="340.5" y2="16.5" stroke="#262626" stroke-opacity="0.5" stroke-width="0.55"/><title>76_Line</title></g></g><g clip-path="url(#bloom-35separation.set-b.mask-clip)"><g><line x1="225" y1="136.5" x2="345" y2="16.5" stroke="#262626" stroke-opacity="0.5" stroke-width="0.55"/><title>77_Line</title></g></g><g clip-path="url(#bloom-35separation.set-b.mask-clip)"><g><line x1="229.5" y1="136.5" x2="349.5" y2="16.5" stroke="#262626" stroke-opacity="0.5" stroke-width="0.55"/><title>78_Line</title></g></g><g clip-path="url(#bloom-35separation.set-b.mask-clip)"><g><line x1="234" y1="136.5" x2="354" y2="16.5" stroke="#262626" stroke-opacity="0.5" stroke-width="0.55"/><title>79_Line</title></g></g><g clip-path="url(#bloom-35separation.set-b.mask-clip)"><g><line x1="238.5" y1="136.5" x2="358.5" y2="16.5" stroke="#262626" stroke-opacity="0.5" stroke-width="0.55"/><title>80_Line</title></g></g><g clip-path="url(#bloom-35separation.set-b.mask-clip)"><g><line x1="243" y1="136.5" x2="363" y2="16.5" stroke="#262626" stroke-opacity="0.5" stroke-width="0.55"/><title>81_Line</title></g></g><g clip-path="url(#bloom-35separation.set-b.mask-clip)"><g><line x1="247.5" y1="136.5" x2="367.5" y2="16.5" stroke="#262626" stroke-opacity="0.5" stroke-width="0.55"/><title>82_Line</title></g></g><g clip-path="url(#bloom-35separation.set-b.mask-clip)"><g><line x1="252" y1="136.5" x2="372" y2="16.5" stroke="#262626" stroke-opacity="0.5" stroke-width="0.55"/><title>83_Line</title></g></g><g clip-path="url(#bloom-35separation.set-b.mask-clip)"><g><line x1="256.5" y1="136.5" x2="376.5" y2="16.5" stroke="#262626" stroke-opacity="0.5" stroke-width="0.55"/><title>84_Line</title></g></g><g clip-path="url(#bloom-35separation.set-b.mask-clip)"><g><line x1="261" y1="136.5" x2="381" y2="16.5" stroke="#262626" stroke-opacity="0.5" stroke-width="0.55"/><title>85_Line</title></g></g><g clip-path="url(#bloom-35separation.set-b.mask-clip)"><g><line x1="265.5" y1="136.5" x2="385.5" y2="16.5" stroke="#262626" stroke-opacity="0.5" stroke-width="0.55"/><title>86_Line</title></g></g><g clip-path="url(#bloom-35separation.set-b.mask-clip)"><g><line x1="270" y1="136.5" x2="390" y2="16.5" stroke="#262626" stroke-opacity="0.5" stroke-width="0.55"/><title>87_Line</title></g></g><g clip-path="url(#bloom-35separation.set-b.mask-clip)"><g><line x1="274.5" y1="136.5" x2="394.5" y2="16.5" stroke="#262626" stroke-opacity="0.5" stroke-width="0.55"/><title>88_Line</title></g></g><g clip-path="url(#bloom-35separation.set-b.mask-clip)"><g><line x1="279" y1="136.5" x2="399" y2="16.5" stroke="#262626" stroke-opacity="0.5" stroke-width="0.55"/><title>89_Line</title></g></g><g clip-path="url(#bloom-35separation.set-b.mask-clip)"><g><line x1="283.5" y1="136.5" x2="403.5" y2="16.5" stroke="#262626" stroke-opacity="0.5" stroke-width="0.55"/><title>90_Line</title></g></g><g clip-path="url(#bloom-35separation.set-b.mask-clip)"><g><line x1="288" y1="136.5" x2="408" y2="16.5" stroke="#262626" stroke-opacity="0.5" stroke-width="0.55"/><title>91_Line</title></g></g><g clip-path="url(#bloom-35separation.set-b.mask-clip)"><g><line x1="292.5" y1="136.5" x2="412.5" y2="16.5" stroke="#262626" stroke-opacity="0.5" stroke-width="0.55"/><title>92_Line</title></g></g><g clip-path="url(#bloom-35separation.set-b.mask-clip)"><g><line x1="297" y1="136.5" x2="417" y2="16.5" stroke="#262626" stroke-opacity="0.5" stroke-width="0.55"/><title>93_Line</title></g></g><g clip-path="url(#bloom-35separation.set-b.mask-clip)"><g><line x1="301.5" y1="136.5" x2="421.5" y2="16.5" stroke="#262626" stroke-opacity="0.5" stroke-width="0.55"/><title>94_Line</title></g></g><g clip-path="url(#bloom-35separation.set-b.mask-clip)"><g><line x1="306" y1="136.5" x2="426" y2="16.5" stroke="#262626" stroke-opacity="0.5" stroke-width="0.55"/><title>95_Line</title></g></g><g clip-path="url(#bloom-35separation.set-b.mask-clip)"><g><line x1="310.5" y1="136.5" x2="430.5" y2="16.5" stroke="#262626" stroke-opacity="0.5" stroke-width="0.55"/><title>96_Line</title></g></g><g clip-path="url(#bloom-35separation.set-b.mask-clip)"><g><line x1="315" y1="136.5" x2="435" y2="16.5" stroke="#262626" stroke-opacity="0.5" stroke-width="0.55"/><title>97_Line</title></g></g><g clip-path="url(#bloom-35separation.set-b.mask-clip)"><g><line x1="319.5" y1="136.5" x2="439.5" y2="16.5" stroke="#262626" stroke-opacity="0.5" stroke-width="0.55"/><title>98_Line</title></g></g><g clip-path="url(#bloom-35separation.set-b.mask-clip)"><g><line x1="324" y1="136.5" x2="444" y2="16.5" stroke="#262626" stroke-opacity="0.5" stroke-width="0.55"/><title>99_Line</title></g></g><g clip-path="url(#bloom-35separation.set-b.mask-clip)"><g><line x1="328.5" y1="136.5" x2="448.5" y2="16.5" stroke="#262626" stroke-opacity="0.5" stroke-width="0.55"/><title>100_Line</title></g></g><title>separation.set-b.hatching</title></g><path fill="#000000" fill-opacity="0" stroke="#141414" stroke-opacity="1" stroke-width="1.4" stroke-linecap="butt" d="M 8 52 C 10 28 36 8 61 8 C 96 1 126 22 144 30 C 167 38 180 23 181 53 C 181 87 157 122 125 129 C 93 138 44 128 24 111 C 9 98 4 72 8 52 Z " aria-label="separation.open-u"><title>separation.open-u</title></path><path fill="#000000" fill-opacity="0" stroke="#141414" stroke-opacity="1" stroke-width="1.4" stroke-linecap="butt" d="M 200 21 C 211 -2 231 1 252 5 C 280 11 302 0 321 23 C 349 51 334 106 313 127 C 293 143 243 165 212 155 C 183 148 172 127 181 104 C 190 83 190 49 200 21 Z " aria-label="separation.open-v"><title>separation.open-v</title></path><rect x="91.5" y="57" width="13" height="16" fill="#ffffff" fill-opacity="1" stroke="#000000" stroke-opacity="0" stroke-width="0" rx="0" transform="rotate(0, 98, 65)"><title>101_Rectangle</title></rect><g transform="rotate(0, 98, 65)translate(91.25, 58.556)" aria-label="A" data-tex="A"><title>102_Equation</title><svg style="font-size: 18px" xmlns="http://www.w3.org/2000/svg" width="13.5" height="12.888" role="img" focusable="false" viewBox="0 -716 750 716"><g stroke="none" fill="#141414" stroke-width="0" transform="scale(1,-1)" fill-opacity="1"><g data-mml-node="math"><g data-mml-node="mi"><path data-c="1D434" d="M208 74Q208 50 254 46Q272 46 272 35Q272 34 270 22Q267 8 264 4T251 0Q249 0 239 0T205 1T141 2Q70 2 50 0H42Q35 7 35 11Q37 38 48 46H62Q132 49 164 96Q170 102 345 401T523 704Q530 716 547 716H555H572Q578 707 578 706L606 383Q634 60 636 57Q641 46 701 46Q726 46 726 36Q726 34 723 22Q720 7 718 4T704 0Q701 0 690 0T651 1T578 2Q484 2 455 0H443Q437 6 437 9T439 27Q443 40 445 43L449 46H469Q523 49 533 63L521 213H283L249 155Q208 86 208 74ZM516 260Q516 271 504 416T490 562L463 519Q447 492 400 412L310 260L413 259Q516 259 516 260Z"/></g></g></g></svg></g><rect x="255.5" y="72" width="13" height="16" fill="#ffffff" fill-opacity="1" stroke="#000000" stroke-opacity="0" stroke-width="0" rx="0" transform="rotate(0, 262, 80)"><title>103_Rectangle</title></rect><g transform="rotate(0, 262, 80)translate(255.169, 73.853)" aria-label="B" data-tex="B"><title>104_Equation</title><svg style="font-size: 18px" xmlns="http://www.w3.org/2000/svg" width="13.662" height="12.294" role="img" focusable="false" viewBox="0 -683 759 683"><g stroke="none" fill="#141414" stroke-width="0" transform="scale(1,-1)" fill-opacity="1"><g data-mml-node="math"><g data-mml-node="mi"><path data-c="1D435" d="M231 637Q204 637 199 638T194 649Q194 676 205 682Q206 683 335 683Q594 683 608 681Q671 671 713 636T756 544Q756 480 698 429T565 360L555 357Q619 348 660 311T702 219Q702 146 630 78T453 1Q446 0 242 0Q42 0 39 2Q35 5 35 10Q35 17 37 24Q42 43 47 45Q51 46 62 46H68Q95 46 128 49Q142 52 147 61Q150 65 219 339T288 628Q288 635 231 637ZM649 544Q649 574 634 600T585 634Q578 636 493 637Q473 637 451 637T416 636H403Q388 635 384 626Q382 622 352 506Q352 503 351 500L320 374H401Q482 374 494 376Q554 386 601 434T649 544ZM595 229Q595 273 572 302T512 336Q506 337 429 337Q311 337 310 336Q310 334 293 263T258 122L240 52Q240 48 252 48T333 46Q422 46 429 47Q491 54 543 105T595 229Z"/></g></g></g></svg></g><g transform="rotate(0, 143, 135)translate(136.097, 128.655)" aria-label="U" data-tex="U"><title>105_Equation</title><svg style="font-size: 18px" xmlns="http://www.w3.org/2000/svg" width="13.806000000000001" height="12.69" role="img" focusable="false" viewBox="0 -683 767 705"><g stroke="none" fill="#141414" stroke-width="0" transform="scale(1,-1)" fill-opacity="1"><g data-mml-node="math"><g data-mml-node="mi"><path data-c="1D448" d="M107 637Q73 637 71 641Q70 643 70 649Q70 673 81 682Q83 683 98 683Q139 681 234 681Q268 681 297 681T342 682T362 682Q378 682 378 672Q378 670 376 658Q371 641 366 638H364Q362 638 359 638T352 638T343 637T334 637Q295 636 284 634T266 623Q265 621 238 518T184 302T154 169Q152 155 152 140Q152 86 183 55T269 24Q336 24 403 69T501 205L552 406Q599 598 599 606Q599 633 535 637Q511 637 511 648Q511 650 513 660Q517 676 519 679T529 683Q532 683 561 682T645 680Q696 680 723 681T752 682Q767 682 767 672Q767 650 759 642Q756 637 737 637Q666 633 648 597Q646 592 598 404Q557 235 548 205Q515 105 433 42T263 -22Q171 -22 116 34T60 167V183Q60 201 115 421Q164 622 164 628Q164 635 107 637Z"/></g></g></g></svg></g><g transform="rotate(0, 299, 153)translate(292.079, 146.655)" aria-label="V" data-tex="V"><title>106_Equation</title><svg style="font-size: 18px" xmlns="http://www.w3.org/2000/svg" width="13.842" height="12.69" role="img" focusable="false" viewBox="0 -683 769 705"><g stroke="none" fill="#141414" stroke-width="0" transform="scale(1,-1)" fill-opacity="1"><g data-mml-node="math"><g data-mml-node="mi"><path data-c="1D449" d="M52 648Q52 670 65 683H76Q118 680 181 680Q299 680 320 683H330Q336 677 336 674T334 656Q329 641 325 637H304Q282 635 274 635Q245 630 242 620Q242 618 271 369T301 118L374 235Q447 352 520 471T595 594Q599 601 599 609Q599 633 555 637Q537 637 537 648Q537 649 539 661Q542 675 545 679T558 683Q560 683 570 683T604 682T668 681Q737 681 755 683H762Q769 676 769 672Q769 655 760 640Q757 637 743 637Q730 636 719 635T698 630T682 623T670 615T660 608T652 599T645 592L452 282Q272 -9 266 -16Q263 -18 259 -21L241 -22H234Q216 -22 216 -15Q213 -9 177 305Q139 623 138 626Q133 637 76 637H59Q52 642 52 648Z"/></g></g></g></svg></g></svg>