<svg version="1.2" xmlns="http://www.w3.org/2000/svg" viewBox="0 0 325 211" role="img" aria-label="Figure 5.9: Coordinate axes with a shaded upper-right rectangular basic neighborhood whose lower-left corner is the point (x,y)."><path fill="#f2691f" fill-opacity="0.14" stroke="#000000" stroke-opacity="1" stroke-width="0" stroke-linecap="butt" d="M 34 121 L 122 121 L 122 33 L 34 33 Z " aria-label="lower-limit.neighborhood"><title>lower-limit.neighborhood</title></path><g><clipPath id="bloom-42lower-limit.neighborhood.mask-clip"><path fill="#ffffff" fill-opacity="1" stroke="#000000" stroke-opacity="1" stroke-width="0" stroke-linecap="butt" d="M 34 121 L 122 121 L 122 33 L 34 33 Z "><title>lower-limit.neighborhood.mask</title></path></clipPath><g clip-path="url(#bloom-42lower-limit.neighborhood.mask-clip)"><g><line x1="-54" y1="121" x2="34" y2="33" stroke="#262626" stroke-opacity="0.5" stroke-width="0.55"/><title>0_Line</title></g></g><g clip-path="url(#bloom-42lower-limit.neighborhood.mask-clip)"><g><line x1="-49.5" y1="121" x2="38.5" y2="33" stroke="#262626" stroke-opacity="0.5" stroke-width="0.55"/><title>1_Line</title></g></g><g clip-path="url(#bloom-42lower-limit.neighborhood.mask-clip)"><g><line x1="-45" y1="121" x2="43" y2="33" stroke="#262626" stroke-opacity="0.5" stroke-width="0.55"/><title>2_Line</title></g></g><g clip-path="url(#bloom-42lower-limit.neighborhood.mask-clip)"><g><line x1="-40.5" y1="121" x2="47.5" y2="33" stroke="#262626" stroke-opacity="0.5" stroke-width="0.55"/><title>3_Line</title></g></g><g clip-path="url(#bloom-42lower-limit.neighborhood.mask-clip)"><g><line x1="-36" y1="121" x2="52" y2="33" stroke="#262626" stroke-opacity="0.5" stroke-width="0.55"/><title>4_Line</title></g></g><g clip-path="url(#bloom-42lower-limit.neighborhood.mask-clip)"><g><line x1="-31.5" y1="121" x2="56.5" y2="33" stroke="#262626" stroke-opacity="0.5" stroke-width="0.55"/><title>5_Line</title></g></g><g clip-path="url(#bloom-42lower-limit.neighborhood.mask-clip)"><g><line x1="-27" y1="121" x2="61" y2="33" stroke="#262626" stroke-opacity="0.5" stroke-width="0.55"/><title>6_Line</title></g></g><g clip-path="url(#bloom-42lower-limit.neighborhood.mask-clip)"><g><line x1="-22.5" y1="121" x2="65.5" y2="33" stroke="#262626" stroke-opacity="0.5" stroke-width="0.55"/><title>7_Line</title></g></g><g clip-path="url(#bloom-42lower-limit.neighborhood.mask-clip)"><g><line x1="-18" y1="121" x2="70" y2="33" stroke="#262626" stroke-opacity="0.5" stroke-width="0.55"/><title>8_Line</title></g></g><g clip-path="url(#bloom-42lower-limit.neighborhood.mask-clip)"><g><line x1="-13.5" y1="121" x2="74.5" y2="33" stroke="#262626" stroke-opacity="0.5" stroke-width="0.55"/><title>9_Line</title></g></g><g clip-path="url(#bloom-42lower-limit.neighborhood.mask-clip)"><g><line x1="-9" y1="121" x2="79" y2="33" stroke="#262626" stroke-opacity="0.5" stroke-width="0.55"/><title>10_Line</title></g></g><g clip-path="url(#bloom-42lower-limit.neighborhood.mask-clip)"><g><line x1="-4.5" y1="121" x2="83.5" y2="33" stroke="#262626" stroke-opacity="0.5" stroke-width="0.55"/><title>11_Line</title></g></g><g clip-path="url(#bloom-42lower-limit.neighborhood.mask-clip)"><g><line x1="0" y1="121" x2="88" y2="33" stroke="#262626" stroke-opacity="0.5" stroke-width="0.55"/><title>12_Line</title></g></g><g clip-path="url(#bloom-42lower-limit.neighborhood.mask-clip)"><g><line x1="4.5" y1="121" x2="92.5" y2="33" stroke="#262626" stroke-opacity="0.5" stroke-width="0.55"/><title>13_Line</title></g></g><g clip-path="url(#bloom-42lower-limit.neighborhood.mask-clip)"><g><line x1="9" y1="121" x2="97" y2="33" stroke="#262626" stroke-opacity="0.5" stroke-width="0.55"/><title>14_Line</title></g></g><g clip-path="url(#bloom-42lower-limit.neighborhood.mask-clip)"><g><line x1="13.5" y1="121" x2="101.5" y2="33" stroke="#262626" stroke-opacity="0.5" stroke-width="0.55"/><title>15_Line</title></g></g><g clip-path="url(#bloom-42lower-limit.neighborhood.mask-clip)"><g><line x1="18" y1="121" x2="106" y2="33" stroke="#262626" stroke-opacity="0.5" stroke-width="0.55"/><title>16_Line</title></g></g><g clip-path="url(#bloom-42lower-limit.neighborhood.mask-clip)"><g><line x1="22.5" y1="121" x2="110.5" y2="33" stroke="#262626" stroke-opacity="0.5" stroke-width="0.55"/><title>17_Line</title></g></g><g clip-path="url(#bloom-42lower-limit.neighborhood.mask-clip)"><g><line x1="27" y1="121" x2="115" y2="33" stroke="#262626" stroke-opacity="0.5" stroke-width="0.55"/><title>18_Line</title></g></g><g clip-path="url(#bloom-42lower-limit.neighborhood.mask-clip)"><g><line x1="31.5" y1="121" x2="119.5" y2="33" stroke="#262626" stroke-opacity="0.5" stroke-width="0.55"/><title>19_Line</title></g></g><g clip-path="url(#bloom-42lower-limit.neighborhood.mask-clip)"><g><line x1="36" y1="121" x2="124" y2="33" stroke="#262626" stroke-opacity="0.5" stroke-width="0.55"/><title>20_Line</title></g></g><g clip-path="url(#bloom-42lower-limit.neighborhood.mask-clip)"><g><line x1="40.5" y1="121" x2="128.5" y2="33" stroke="#262626" stroke-opacity="0.5" stroke-width="0.55"/><title>21_Line</title></g></g><g clip-path="url(#bloom-42lower-limit.neighborhood.mask-clip)"><g><line x1="45" y1="121" x2="133" y2="33" stroke="#262626" stroke-opacity="0.5" stroke-width="0.55"/><title>22_Line</title></g></g><g clip-path="url(#bloom-42lower-limit.neighborhood.mask-clip)"><g><line x1="49.5" y1="121" x2="137.5" y2="33" stroke="#262626" stroke-opacity="0.5" stroke-width="0.55"/><title>23_Line</title></g></g><g clip-path="url(#bloom-42lower-limit.neighborhood.mask-clip)"><g><line x1="54" y1="121" x2="142" y2="33" stroke="#262626" stroke-opacity="0.5" stroke-width="0.55"/><title>24_Line</title></g></g><g clip-path="url(#bloom-42lower-limit.neighborhood.mask-clip)"><g><line x1="58.5" y1="121" x2="146.5" y2="33" stroke="#262626" stroke-opacity="0.5" stroke-width="0.55"/><title>25_Line</title></g></g><g clip-path="url(#bloom-42lower-limit.neighborhood.mask-clip)"><g><line x1="63" y1="121" x2="151" y2="33" stroke="#262626" stroke-opacity="0.5" stroke-width="0.55"/><title>26_Line</title></g></g><g clip-path="url(#bloom-42lower-limit.neighborhood.mask-clip)"><g><line x1="67.5" y1="121" x2="155.5" y2="33" stroke="#262626" stroke-opacity="0.5" stroke-width="0.55"/><title>27_Line</title></g></g><g clip-path="url(#bloom-42lower-limit.neighborhood.mask-clip)"><g><line x1="72" y1="121" x2="160" y2="33" stroke="#262626" stroke-opacity="0.5" stroke-width="0.55"/><title>28_Line</title></g></g><g clip-path="url(#bloom-42lower-limit.neighborhood.mask-clip)"><g><line x1="76.5" y1="121" x2="164.5" y2="33" stroke="#262626" stroke-opacity="0.5" stroke-width="0.55"/><title>29_Line</title></g></g><g clip-path="url(#bloom-42lower-limit.neighborhood.mask-clip)"><g><line x1="81" y1="121" x2="169" y2="33" stroke="#262626" stroke-opacity="0.5" stroke-width="0.55"/><title>30_Line</title></g></g><g clip-path="url(#bloom-42lower-limit.neighborhood.mask-clip)"><g><line x1="85.5" y1="121" x2="173.5" y2="33" stroke="#262626" stroke-opacity="0.5" stroke-width="0.55"/><title>31_Line</title></g></g><g clip-path="url(#bloom-42lower-limit.neighborhood.mask-clip)"><g><line x1="90" y1="121" x2="178" y2="33" stroke="#262626" stroke-opacity="0.5" stroke-width="0.55"/><title>32_Line</title></g></g><g clip-path="url(#bloom-42lower-limit.neighborhood.mask-clip)"><g><line x1="94.5" y1="121" x2="182.5" y2="33" stroke="#262626" stroke-opacity="0.5" stroke-width="0.55"/><title>33_Line</title></g></g><g clip-path="url(#bloom-42lower-limit.neighborhood.mask-clip)"><g><line x1="99" y1="121" x2="187" y2="33" stroke="#262626" stroke-opacity="0.5" stroke-width="0.55"/><title>34_Line</title></g></g><g clip-path="url(#bloom-42lower-limit.neighborhood.mask-clip)"><g><line x1="103.5" y1="121" x2="191.5" y2="33" stroke="#262626" stroke-opacity="0.5" stroke-width="0.55"/><title>35_Line</title></g></g><g clip-path="url(#bloom-42lower-limit.neighborhood.mask-clip)"><g><line x1="108" y1="121" x2="196" y2="33" stroke="#262626" stroke-opacity="0.5" stroke-width="0.55"/><title>36_Line</title></g></g><g clip-path="url(#bloom-42lower-limit.neighborhood.mask-clip)"><g><line x1="112.5" y1="121" x2="200.5" y2="33" stroke="#262626" stroke-opacity="0.5" stroke-width="0.55"/><title>37_Line</title></g></g><g clip-path="url(#bloom-42lower-limit.neighborhood.mask-clip)"><g><line x1="117" y1="121" x2="205" y2="33" stroke="#262626" stroke-opacity="0.5" stroke-width="0.55"/><title>38_Line</title></g></g><g clip-path="url(#bloom-42lower-limit.neighborhood.mask-clip)"><g><line x1="121.5" y1="121" x2="209.5" y2="33" stroke="#262626" stroke-opacity="0.5" stroke-width="0.55"/><title>39_Line</title></g></g><title>lower-limit.neighborhood.hatching</title></g><g><line x1="34" y1="121" x2="34" y2="33" stroke="#141414" stroke-opacity="1" stroke-width="0.9"/><title>lower-limit.included-left</title></g><g><line x1="34" y1="121" x2="122" y2="121" stroke="#141414" stroke-opacity="1" stroke-width="0.9"/><title>lower-limit.included-bottom</title></g><path fill="#000000" fill-opacity="0" stroke="#141414" stroke-opacity="1" stroke-width="1.4" stroke-linecap="butt" d="M 21 46 C 21 28 47 28 47 46" aria-label="lower-limit.open-top"><title>lower-limit.open-top</title></path><path fill="#000000" fill-opacity="0" stroke="#141414" stroke-opacity="1" stroke-width="1.4" stroke-linecap="butt" d="M 109 107 C 129 107 129 135 109 135" aria-label="lower-limit.open-right"><title>lower-limit.open-right</title></path><g><line x1="3" y1="161" x2="309" y2="161" stroke="#141414" stroke-opacity="1" stroke-width="0.9"/><title>lower-limit.x-axis</title></g><g><line x1="222" y1="206" x2="222" y2="21" stroke="#141414" stroke-opacity="1" stroke-width="0.9"/><title>lower-limit.y-axis</title></g><g transform="rotate(0, 318, 161)translate(312.852, 156.923)" aria-label="x" data-tex="x"><title>40_Equation</title><svg style="font-size: 18px" xmlns="http://www.w3.org/2000/svg" width="10.296" height="8.154" role="img" focusable="false" viewBox="0 -442 572 453"><g stroke="none" fill="#141414" stroke-width="0" transform="scale(1,-1)" fill-opacity="1"><g data-mml-node="math"><g data-mml-node="mi"><path data-c="1D465" d="M52 289Q59 331 106 386T222 442Q257 442 286 424T329 379Q371 442 430 442Q467 442 494 420T522 361Q522 332 508 314T481 292T458 288Q439 288 427 299T415 328Q415 374 465 391Q454 404 425 404Q412 404 406 402Q368 386 350 336Q290 115 290 78Q290 50 306 38T341 26Q378 26 414 59T463 140Q466 150 469 151T485 153H489Q504 153 504 145Q504 144 502 134Q486 77 440 33T333 -11Q263 -11 227 52Q186 -10 133 -10H127Q78 -10 57 16T35 71Q35 103 54 123T99 143Q142 143 142 101Q142 81 130 66T107 46T94 41L91 40Q91 39 97 36T113 29T132 26Q168 26 194 71Q203 87 217 139T245 247T261 313Q266 340 266 352Q266 380 251 392T217 404Q177 404 142 372T93 290Q91 281 88 280T72 278H58Q52 284 52 289Z"/></g></g></g></svg></g><g transform="rotate(0, 222, 11)translate(217.59, 5.177)" aria-label="y" data-tex="y"><title>41_Equation</title><svg style="font-size: 18px" xmlns="http://www.w3.org/2000/svg" width="8.82" height="11.646" role="img" focusable="false" viewBox="0 -442 490 647"><g stroke="none" fill="#141414" stroke-width="0" transform="scale(1,-1)" fill-opacity="1"><g data-mml-node="math"><g data-mml-node="mi"><path data-c="1D466" d="M21 287Q21 301 36 335T84 406T158 442Q199 442 224 419T250 355Q248 336 247 334Q247 331 231 288T198 191T182 105Q182 62 196 45T238 27Q261 27 281 38T312 61T339 94Q339 95 344 114T358 173T377 247Q415 397 419 404Q432 431 462 431Q475 431 483 424T494 412T496 403Q496 390 447 193T391 -23Q363 -106 294 -155T156 -205Q111 -205 77 -183T43 -117Q43 -95 50 -80T69 -58T89 -48T106 -45Q150 -45 150 -87Q150 -107 138 -122T115 -142T102 -147L99 -148Q101 -153 118 -160T152 -167H160Q177 -167 186 -165Q219 -156 247 -127T290 -65T313 -9T321 21L315 17Q309 13 296 6T270 -6Q250 -11 231 -11Q185 -11 150 11T104 82Q103 89 103 113Q103 170 138 262T173 379Q173 380 173 381Q173 390 173 393T169 400T158 404H154Q131 404 112 385T82 344T65 302T57 280Q55 278 41 278H27Q21 284 21 287Z"/></g></g></g></svg></g><g transform="rotate(0, 246, 174)translate(225.9957, 165)" aria-label="(0,0)" data-tex="(0%2C0)"><title>42_Equation</title><svg style="font-size: 18px" xmlns="http://www.w3.org/2000/svg" width="40.008599999999994" height="18" role="img" focusable="false" viewBox="0 -750 2222.7 1000"><g stroke="none" fill="#141414" stroke-width="0" transform="scale(1,-1)" fill-opacity="1"><g data-mml-node="math"><g data-mml-node="mo"><path data-c="28" d="M94 250Q94 319 104 381T127 488T164 576T202 643T244 695T277 729T302 750H315H319Q333 750 333 741Q333 738 316 720T275 667T226 581T184 443T167 250T184 58T225 -81T274 -167T316 -220T333 -241Q333 -250 318 -250H315H302L274 -226Q180 -141 137 -14T94 250Z"/></g><g data-mml-node="mn" transform="translate(389,0)"><path data-c="30" d="M96 585Q152 666 249 666Q297 666 345 640T423 548Q460 465 460 320Q460 165 417 83Q397 41 362 16T301 -15T250 -22Q224 -22 198 -16T137 16T82 83Q39 165 39 320Q39 494 96 585ZM321 597Q291 629 250 629Q208 629 178 597Q153 571 145 525T137 333Q137 175 145 125T181 46Q209 16 250 16Q290 16 318 46Q347 76 354 130T362 333Q362 478 354 524T321 597Z"/></g><g data-mml-node="mo" transform="translate(889,0)"><path data-c="2C" d="M78 35T78 60T94 103T137 121Q165 121 187 96T210 8Q210 -27 201 -60T180 -117T154 -158T130 -185T117 -194Q113 -194 104 -185T95 -172Q95 -168 106 -156T131 -126T157 -76T173 -3V9L172 8Q170 7 167 6T161 3T152 1T140 0Q113 0 96 17Z"/></g><g data-mml-node="mn" transform="translate(1333.7,0)"><path data-c="30" d="M96 585Q152 666 249 666Q297 666 345 640T423 548Q460 465 460 320Q460 165 417 83Q397 41 362 16T301 -15T250 -22Q224 -22 198 -16T137 16T82 83Q39 165 39 320Q39 494 96 585ZM321 597Q291 629 250 629Q208 629 178 597Q153 571 145 525T137 333Q137 175 145 125T181 46Q209 16 250 16Q290 16 318 46Q347 76 354 130T362 333Q362 478 354 524T321 597Z"/></g><g data-mml-node="mo" transform="translate(1833.7,0)"><path data-c="29" d="M60 749L64 750Q69 750 74 750H86L114 726Q208 641 251 514T294 250Q294 182 284 119T261 12T224 -76T186 -143T145 -194T113 -227T90 -246Q87 -249 86 -250H74Q66 -250 63 -250T58 -247T55 -238Q56 -237 66 -225Q221 -64 221 250T66 725Q56 737 55 738Q55 746 60 749Z"/></g></g></g></svg></g><circle fill="#141414" fill-opacity="1" cx="34" cy="121" stroke="#000000" stroke-opacity="0" stroke-width="0" r="2.8" aria-label="lower-limit.anchor"><title>lower-limit.anchor</title></circle><g transform="rotate(0, 34, 137)translate(13.4377, 128)" aria-label="(x,y)" data-tex="(x%2Cy)"><title>43_Equation</title><svg style="font-size: 18px" xmlns="http://www.w3.org/2000/svg" width="41.1246" height="18" role="img" focusable="false" viewBox="0 -750 2284.7 1000"><g stroke="none" fill="#141414" stroke-width="0" transform="scale(1,-1)" fill-opacity="1"><g data-mml-node="math"><g data-mml-node="mo"><path data-c="28" d="M94 250Q94 319 104 381T127 488T164 576T202 643T244 695T277 729T302 750H315H319Q333 750 333 741Q333 738 316 720T275 667T226 581T184 443T167 250T184 58T225 -81T274 -167T316 -220T333 -241Q333 -250 318 -250H315H302L274 -226Q180 -141 137 -14T94 250Z"/></g><g data-mml-node="mi" transform="translate(389,0)"><path data-c="1D465" d="M52 289Q59 331 106 386T222 442Q257 442 286 424T329 379Q371 442 430 442Q467 442 494 420T522 361Q522 332 508 314T481 292T458 288Q439 288 427 299T415 328Q415 374 465 391Q454 404 425 404Q412 404 406 402Q368 386 350 336Q290 115 290 78Q290 50 306 38T341 26Q378 26 414 59T463 140Q466 150 469 151T485 153H489Q504 153 504 145Q504 144 502 134Q486 77 440 33T333 -11Q263 -11 227 52Q186 -10 133 -10H127Q78 -10 57 16T35 71Q35 103 54 123T99 143Q142 143 142 101Q142 81 130 66T107 46T94 41L91 40Q91 39 97 36T113 29T132 26Q168 26 194 71Q203 87 217 139T245 247T261 313Q266 340 266 352Q266 380 251 392T217 404Q177 404 142 372T93 290Q91 281 88 280T72 278H58Q52 284 52 289Z"/></g><g data-mml-node="mo" transform="translate(961,0)"><path data-c="2C" d="M78 35T78 60T94 103T137 121Q165 121 187 96T210 8Q210 -27 201 -60T180 -117T154 -158T130 -185T117 -194Q113 -194 104 -185T95 -172Q95 -168 106 -156T131 -126T157 -76T173 -3V9L172 8Q170 7 167 6T161 3T152 1T140 0Q113 0 96 17Z"/></g><g data-mml-node="mi" transform="translate(1405.7,0)"><path data-c="1D466" d="M21 287Q21 301 36 335T84 406T158 442Q199 442 224 419T250 355Q248 336 247 334Q247 331 231 288T198 191T182 105Q182 62 196 45T238 27Q261 27 281 38T312 61T339 94Q339 95 344 114T358 173T377 247Q415 397 419 404Q432 431 462 431Q475 431 483 424T494 412T496 403Q496 390 447 193T391 -23Q363 -106 294 -155T156 -205Q111 -205 77 -183T43 -117Q43 -95 50 -80T69 -58T89 -48T106 -45Q150 -45 150 -87Q150 -107 138 -122T115 -142T102 -147L99 -148Q101 -153 118 -160T152 -167H160Q177 -167 186 -165Q219 -156 247 -127T290 -65T313 -9T321 21L315 17Q309 13 296 6T270 -6Q250 -11 231 -11Q185 -11 150 11T104 82Q103 89 103 113Q103 170 138 262T173 379Q173 380 173 381Q173 390 173 393T169 400T158 404H154Q131 404 112 385T82 344T65 302T57 280Q55 278 41 278H27Q21 284 21 287Z"/></g><g data-mml-node="mo" transform="translate(1895.7,0)"><path data-c="29" d="M60 749L64 750Q69 750 74 750H86L114 726Q208 641 251 514T294 250Q294 182 284 119T261 12T224 -76T186 -143T145 -194T113 -227T90 -246Q87 -249 86 -250H74Q66 -250 63 -250T58 -247T55 -238Q56 -237 66 -225Q221 -64 221 250T66 725Q56 737 55 738Q55 746 60 749Z"/></g></g></g></svg></g></svg>