<svg version="1.2" xmlns="http://www.w3.org/2000/svg" viewBox="0 0 370 200" role="img" aria-label="Figure 4.8: One vertical product subbasis strip (a,b)×R, with coordinate intercepts."><polygon fill="#f2691f" fill-opacity="0.14" stroke="#000000" stroke-opacity="0" stroke-width="0" transform="scale(1)" points="139,186,223,186,223,14,139,14" aria-label="product.vertical-strip"><title>product.vertical-strip</title></polygon><g><clipPath id="bloom-320_Polygon-clip"><polygon fill="#ffffff" fill-opacity="1" stroke="#000000" stroke-opacity="0" stroke-width="0" transform="scale(1)" points="139,186,223,186,223,14,139,14"><title>0_Polygon</title></polygon></clipPath><g clip-path="url(#bloom-320_Polygon-clip)"><path fill="#000000" fill-opacity="0" stroke="#1a1a1a" stroke-opacity="0.58" stroke-width="0.55" stroke-linecap="butt" d="M 180.99999999999997 370.70278905101804 L 451.70278905101804 100.00000000000003 M 178.1715728752538 367.8743619262719 L 448.8743619262719 97.17157287525384 M 175.3431457505076 365.04593480152573 L 446.04593480152573 94.34314575050766 M 172.51471862576142 362.2175076767795 L 443.2175076767795 91.51471862576146 M 169.6862915010152 359.3890805520333 L 440.3890805520333 88.68629150101526 M 166.85786437626905 356.5606534272871 L 437.56065342728715 85.85786437626908 M 164.02943725152284 353.73222630254094 L 434.73222630254094 83.02943725152289 M 161.20101012677665 350.9037991777947 L 431.9037991777948 80.2010101267767 M 158.37258300203047 348.07537205304857 L 429.07537205304857 77.37258300203051 M 155.54415587728425 345.24694492830236 L 426.24694492830236 74.54415587728431 M 152.7157287525381 342.41851780355614 L 423.4185178035562 71.71572875253813 M 149.88730162779189 339.59009067881 L 420.59009067881 68.88730162779194 M 147.0588745030457 336.7616635540638 L 417.76166355406383 66.05887450304574 M 144.23044737829952 333.9332364293176 L 414.9332364293176 63.23044737829956 M 141.4020202535533 331.1048093045714 L 412.1048093045714 60.40202025355336 M 138.57359312880715 328.2763821798252 L 409.27638217982525 57.573593128807175 M 135.74516600406093 325.44795505507903 L 406.44795505507903 54.74516600406099 M 132.91673887931475 322.6195279303328 L 403.6195279303329 51.91673887931479 M 130.08831175456856 319.79110080558667 L 400.79110080558667 49.08831175456861 M 127.25988462982237 316.96267368084045 L 397.96267368084045 46.25988462982241 M 124.43145750507618 314.13424655609424 L 395.1342465560943 43.431457505076224 M 121.60303038033 311.3058194313481 L 392.3058194313481 40.603030380330026 M 118.7746032555838 308.47739230660187 L 389.4773923066019 37.77460325558384 M 115.94617613083761 305.6489651818557 L 386.6489651818557 34.94617613083766 M 113.11774900609143 302.8205380571095 L 383.8205380571095 32.11774900609146 M 110.28932188134523 299.9921109323633 L 380.99211093236335 29.289321881345273 M 107.46089475659905 297.16368380761713 L 378.16368380761713 26.46089475659909 M 104.63246763185285 294.3352566828709 L 375.335256682871 23.63246763185289 M 101.80404050710666 291.50682955812476 L 372.50682955812476 20.80404050710669 M 98.97561338236048 288.67840243337855 L 369.67840243337855 17.975613382360507 M 96.1471862576143 285.84997530863234 L 366.8499753086324 15.147186257614322 M 93.3187591328681 283.0215481838862 L 364.0215481838862 12.318759132868138 M 90.4903320081219 280.19312105913997 L 361.19312105914 9.490332008121939 M 87.66190488337571 277.3646939343938 L 358.3646939343938 6.66190488337574 M 84.83347775862953 274.5362668096476 L 355.5362668096476 3.833477758629556 M 82.00505063388334 271.7078396849014 L 352.70783968490144 1.0050506338833713 M 79.17662350913714 268.87941256015523 L 349.87941256015523 -1.8233764908628132 M 76.34819638439096 266.050985435409 L 347.0509854354091 -4.651803615609012 M 73.51976925964476 263.22255831066286 L 344.22255831066286 -7.480230740355211 M 70.69134213489858 260.39413118591665 L 341.39413118591665 -10.308657865101395 M 67.86291501015239 257.56570406117044 L 338.5657040611705 -13.13708498984758 M 65.0344878854062 254.73727693642428 L 335.73727693642434 -15.965512114593778 M 62.20606076066001 251.90884981167807 L 332.9088498116781 -18.793939239339963 M 59.37763363591381 249.08042268693188 L 330.0804226869319 -21.62236636408616 M 56.549206511167625 246.2519955621857 L 327.2519955621857 -24.450793488832346 M 53.72077938642144 243.4235684374395 L 324.42356843743954 -27.27922061357853 M 50.892352261675256 240.59514131269333 L 321.5951413126934 -30.107647738324715 M 48.06392513692904 237.76671418794712 L 318.7667141879472 -32.93607486307093 M 45.23549801218286 234.93828706320093 L 315.93828706320096 -35.76450198781711 M 42.407070887436674 232.10985993845475 L 313.10985993845475 -38.5929291125633 M 39.57864376269049 229.28143281370856 L 310.2814328137086 -41.42135623730948 M 36.750216637944305 226.45300568896238 L 307.4530056889624 -44.249783362055666 M 33.92178951319812 223.62457856421616 L 304.6245785642162 -47.07821048680188 M 31.093362388451908 220.79615143946998 L 301.79615143947 -49.906637611548064 M 28.264935263705723 217.9677243147238 L 298.9677243147238 -52.73506473629425 M 25.43650813895954 215.1392971899776 L 296.13929718997764 -55.56349186104043 M 22.608081014213354 212.31087006523143 L 293.3108700652315 -58.39191898578662 M 19.77965388946717 209.4824429404852 L 290.48244294048527 -61.22034611053283 M 16.951226764720957 206.65401581573903 L 287.65401581573906 -64.04877323527901 M 14.122799639974772 203.82558869099284 L 284.82558869099284 -66.8772003600252 M 11.294372515228588 200.99716156624666 L 281.9971615662467 -69.70562748477138 M 8.465945390482403 198.16873444150048 L 279.16873444150053 -72.53405460951757 M 5.637518265736219 195.34030731675426 L 276.3403073167543 -75.36248173426378 M 2.809091140990006 192.51188019200808 L 273.5118801920081 -78.19090885900997 M -0.01933598375617862 189.6834530672619 L 270.6834530672619 -81.01933598375615 M -2.847763108502363 186.8550259425157 L 267.85502594251574 -83.84776310850233 M -5.676190233248548 184.02659881776952 L 265.0265988177696 -86.67619023324852 M -8.504617357994732 181.1981716930233 L 262.19817169302337 -89.50461735799473 M -11.333044482740945 178.36974456827713 L 259.36974456827716 -92.33304448274092 M -14.16147160748713 175.54131744353094 L 256.54131744353094 -95.1614716074871 M -16.989898732233314 172.71289031878476 L 253.7128903187848 -97.98989873223329 M -19.8183258569795 169.88446319403857 L 250.8844631940386 -100.81832585697947 M -22.646752981725683 167.05603606929236 L 248.05603606929242 -103.64675298172568 M -25.475180106471896 164.22760894454618 L 245.2276089445462 -106.47518010647187 M -28.303607231218052 161.3991818198 L 242.39918181980005 -109.30360723121805 M -31.132034355964265 158.5707546950538 L 239.57075469505384 -112.13203435596424 M -33.96046148071045 155.74232757030762 L 236.74232757030765 -114.96046148071042 M -36.788888605456634 152.9139004455614 L 233.91390044556147 -117.78888860545663 M -39.61731573020285 150.08547332081523 L 231.08547332081525 -120.61731573020282 M -42.445742854949 147.25704619606904 L 228.2570461960691 -123.445742854949 M -45.274169979695216 144.42861907132286 L 225.42861907132288 -126.27416997969519 M -48.1025971044414 141.60019194657667 L 222.6001919465767 -129.10259710444137 M -50.931024229187585 138.77176482183046 L 219.77176482183052 -131.93102422918759 M -53.7594513539338 135.94333769708427 L 216.9433376970843 -134.75945135393377 M -56.587878478679954 133.1149105723381 L 214.11491057233815 -137.58787847867995 M -59.41630560342617 130.28648344759188 L 211.28648344759193 -140.41630560342617 M -62.24473272817235 127.4580563228457 L 208.45805632284575 -143.24473272817232 M -65.07315985291854 124.62962919809952 L 205.62962919809956 -146.07315985291854 M -67.90158697766472 121.80120207335332 L 202.80120207335338 -148.90158697766472 M -70.7300141024109 118.97277494860714 L 199.9727749486072 -151.7300141024109 M -73.55844122715712 116.14434782386094 L 197.14434782386098 -154.55844122715712 M -76.38686835190333 113.31592069911476 L 194.3159206991148 -157.38686835190327 M -79.21529547664949 110.48749357436857 L 191.4874935743686 -160.2152954766495 M -82.04372260139564 107.65906644962237 L 188.65906644962243 -163.04372260139564 M -84.87214972614186 104.83063932487619 L 185.83063932487624 -165.87214972614186 M -87.70057685088807 102.00221220013 L 183.00221220013003 -168.70057685088807"><title>1_Path</title></path></g><title>product.vertical-strip.hatching</title></g><circle fill="#141414" fill-opacity="1" cx="139" cy="100" stroke="#000000" stroke-opacity="0" stroke-width="0" r="2.8" aria-label="(a,b)\times R boundary intercept" data-included="false"><title>(a,b)\times R.1</title></circle><g transform="rotate(0, 115, 113)translate(94.7347, 104)" aria-label="(a,0)" data-tex="(a%2C0)"><title>2_Equation</title><svg style="font-size: 18px" xmlns="http://www.w3.org/2000/svg" width="40.5306" height="18" role="img" focusable="false" viewBox="0 -750 2251.7 1000"><g stroke="none" fill="#141414" stroke-width="0" transform="scale(1,-1)" fill-opacity="1"><g data-mml-node="math"><g data-mml-node="mo"><path data-c="28" d="M94 250Q94 319 104 381T127 488T164 576T202 643T244 695T277 729T302 750H315H319Q333 750 333 741Q333 738 316 720T275 667T226 581T184 443T167 250T184 58T225 -81T274 -167T316 -220T333 -241Q333 -250 318 -250H315H302L274 -226Q180 -141 137 -14T94 250Z"/></g><g data-mml-node="mi" transform="translate(389,0)"><path data-c="1D44E" d="M33 157Q33 258 109 349T280 441Q331 441 370 392Q386 422 416 422Q429 422 439 414T449 394Q449 381 412 234T374 68Q374 43 381 35T402 26Q411 27 422 35Q443 55 463 131Q469 151 473 152Q475 153 483 153H487Q506 153 506 144Q506 138 501 117T481 63T449 13Q436 0 417 -8Q409 -10 393 -10Q359 -10 336 5T306 36L300 51Q299 52 296 50Q294 48 292 46Q233 -10 172 -10Q117 -10 75 30T33 157ZM351 328Q351 334 346 350T323 385T277 405Q242 405 210 374T160 293Q131 214 119 129Q119 126 119 118T118 106Q118 61 136 44T179 26Q217 26 254 59T298 110Q300 114 325 217T351 328Z"/></g><g data-mml-node="mo" transform="translate(918,0)"><path data-c="2C" d="M78 35T78 60T94 103T137 121Q165 121 187 96T210 8Q210 -27 201 -60T180 -117T154 -158T130 -185T117 -194Q113 -194 104 -185T95 -172Q95 -168 106 -156T131 -126T157 -76T173 -3V9L172 8Q170 7 167 6T161 3T152 1T140 0Q113 0 96 17Z"/></g><g data-mml-node="mn" transform="translate(1362.7,0)"><path data-c="30" d="M96 585Q152 666 249 666Q297 666 345 640T423 548Q460 465 460 320Q460 165 417 83Q397 41 362 16T301 -15T250 -22Q224 -22 198 -16T137 16T82 83Q39 165 39 320Q39 494 96 585ZM321 597Q291 629 250 629Q208 629 178 597Q153 571 145 525T137 333Q137 175 145 125T181 46Q209 16 250 16Q290 16 318 46Q347 76 354 130T362 333Q362 478 354 524T321 597Z"/></g><g data-mml-node="mo" transform="translate(1862.7,0)"><path data-c="29" d="M60 749L64 750Q69 750 74 750H86L114 726Q208 641 251 514T294 250Q294 182 284 119T261 12T224 -76T186 -143T145 -194T113 -227T90 -246Q87 -249 86 -250H74Q66 -250 63 -250T58 -247T55 -238Q56 -237 66 -225Q221 -64 221 250T66 725Q56 737 55 738Q55 746 60 749Z"/></g></g></g></svg></g><circle fill="#141414" fill-opacity="1" cx="223" cy="100" stroke="#000000" stroke-opacity="0" stroke-width="0" r="2.8" aria-label="(a,b)\times R boundary intercept" data-included="false"><title>(a,b)\times R.2</title></circle><g transform="rotate(0, 249, 113)translate(229.6347, 104)" aria-label="(b,0)" data-tex="(b%2C0)"><title>3_Equation</title><svg style="font-size: 18px" xmlns="http://www.w3.org/2000/svg" width="38.730599999999995" height="18" role="img" focusable="false" viewBox="0 -750 2151.7 1000"><g stroke="none" fill="#141414" stroke-width="0" transform="scale(1,-1)" fill-opacity="1"><g data-mml-node="math"><g data-mml-node="mo"><path data-c="28" d="M94 250Q94 319 104 381T127 488T164 576T202 643T244 695T277 729T302 750H315H319Q333 750 333 741Q333 738 316 720T275 667T226 581T184 443T167 250T184 58T225 -81T274 -167T316 -220T333 -241Q333 -250 318 -250H315H302L274 -226Q180 -141 137 -14T94 250Z"/></g><g data-mml-node="mi" transform="translate(389,0)"><path data-c="1D44F" d="M73 647Q73 657 77 670T89 683Q90 683 161 688T234 694Q246 694 246 685T212 542Q204 508 195 472T180 418L176 399Q176 396 182 402Q231 442 283 442Q345 442 383 396T422 280Q422 169 343 79T173 -11Q123 -11 82 27T40 150V159Q40 180 48 217T97 414Q147 611 147 623T109 637Q104 637 101 637H96Q86 637 83 637T76 640T73 647ZM336 325V331Q336 405 275 405Q258 405 240 397T207 376T181 352T163 330L157 322L136 236Q114 150 114 114Q114 66 138 42Q154 26 178 26Q211 26 245 58Q270 81 285 114T318 219Q336 291 336 325Z"/></g><g data-mml-node="mo" transform="translate(818,0)"><path data-c="2C" d="M78 35T78 60T94 103T137 121Q165 121 187 96T210 8Q210 -27 201 -60T180 -117T154 -158T130 -185T117 -194Q113 -194 104 -185T95 -172Q95 -168 106 -156T131 -126T157 -76T173 -3V9L172 8Q170 7 167 6T161 3T152 1T140 0Q113 0 96 17Z"/></g><g data-mml-node="mn" transform="translate(1262.7,0)"><path data-c="30" d="M96 585Q152 666 249 666Q297 666 345 640T423 548Q460 465 460 320Q460 165 417 83Q397 41 362 16T301 -15T250 -22Q224 -22 198 -16T137 16T82 83Q39 165 39 320Q39 494 96 585ZM321 597Q291 629 250 629Q208 629 178 597Q153 571 145 525T137 333Q137 175 145 125T181 46Q209 16 250 16Q290 16 318 46Q347 76 354 130T362 333Q362 478 354 524T321 597Z"/></g><g data-mml-node="mo" transform="translate(1762.7,0)"><path data-c="29" d="M60 749L64 750Q69 750 74 750H86L114 726Q208 641 251 514T294 250Q294 182 284 119T261 12T224 -76T186 -143T145 -194T113 -227T90 -246Q87 -249 86 -250H74Q66 -250 63 -250T58 -247T55 -238Q56 -237 66 -225Q221 -64 221 250T66 725Q56 737 55 738Q55 746 60 749Z"/></g></g></g></svg></g><rect x="139" y="55.5" width="84" height="23" fill="#ffffff" fill-opacity="1" stroke="#000000" stroke-opacity="0" stroke-width="0" rx="0" transform="rotate(0, 181, 67)"><title>4_Rectangle</title></rect><g transform="rotate(0, 181, 67)translate(143.5411, 58)" aria-label="(a,b)\times R" data-tex="(a%2Cb)%5Ctimes%20R"><title>5_Equation</title><svg style="font-size: 18px" xmlns="http://www.w3.org/2000/svg" width="74.91780000000001" height="18" role="img" focusable="false" viewBox="0 -750 4162.1 1000"><g stroke="none" fill="#141414" stroke-width="0" transform="scale(1,-1)" fill-opacity="1"><g data-mml-node="math"><g data-mml-node="mo"><path data-c="28" d="M94 250Q94 319 104 381T127 488T164 576T202 643T244 695T277 729T302 750H315H319Q333 750 333 741Q333 738 316 720T275 667T226 581T184 443T167 250T184 58T225 -81T274 -167T316 -220T333 -241Q333 -250 318 -250H315H302L274 -226Q180 -141 137 -14T94 250Z"/></g><g data-mml-node="mi" transform="translate(389,0)"><path data-c="1D44E" d="M33 157Q33 258 109 349T280 441Q331 441 370 392Q386 422 416 422Q429 422 439 414T449 394Q449 381 412 234T374 68Q374 43 381 35T402 26Q411 27 422 35Q443 55 463 131Q469 151 473 152Q475 153 483 153H487Q506 153 506 144Q506 138 501 117T481 63T449 13Q436 0 417 -8Q409 -10 393 -10Q359 -10 336 5T306 36L300 51Q299 52 296 50Q294 48 292 46Q233 -10 172 -10Q117 -10 75 30T33 157ZM351 328Q351 334 346 350T323 385T277 405Q242 405 210 374T160 293Q131 214 119 129Q119 126 119 118T118 106Q118 61 136 44T179 26Q217 26 254 59T298 110Q300 114 325 217T351 328Z"/></g><g data-mml-node="mo" transform="translate(918,0)"><path data-c="2C" d="M78 35T78 60T94 103T137 121Q165 121 187 96T210 8Q210 -27 201 -60T180 -117T154 -158T130 -185T117 -194Q113 -194 104 -185T95 -172Q95 -168 106 -156T131 -126T157 -76T173 -3V9L172 8Q170 7 167 6T161 3T152 1T140 0Q113 0 96 17Z"/></g><g data-mml-node="mi" transform="translate(1362.7,0)"><path data-c="1D44F" d="M73 647Q73 657 77 670T89 683Q90 683 161 688T234 694Q246 694 246 685T212 542Q204 508 195 472T180 418L176 399Q176 396 182 402Q231 442 283 442Q345 442 383 396T422 280Q422 169 343 79T173 -11Q123 -11 82 27T40 150V159Q40 180 48 217T97 414Q147 611 147 623T109 637Q104 637 101 637H96Q86 637 83 637T76 640T73 647ZM336 325V331Q336 405 275 405Q258 405 240 397T207 376T181 352T163 330L157 322L136 236Q114 150 114 114Q114 66 138 42Q154 26 178 26Q211 26 245 58Q270 81 285 114T318 219Q336 291 336 325Z"/></g><g data-mml-node="mo" transform="translate(1791.7,0)"><path data-c="29" d="M60 749L64 750Q69 750 74 750H86L114 726Q208 641 251 514T294 250Q294 182 284 119T261 12T224 -76T186 -143T145 -194T113 -227T90 -246Q87 -249 86 -250H74Q66 -250 63 -250T58 -247T55 -238Q56 -237 66 -225Q221 -64 221 250T66 725Q56 737 55 738Q55 746 60 749Z"/></g><g data-mml-node="mo" transform="translate(2402.9,0)"><path data-c="D7" d="M630 29Q630 9 609 9Q604 9 587 25T493 118L389 222L284 117Q178 13 175 11Q171 9 168 9Q160 9 154 15T147 29Q147 36 161 51T255 146L359 250L255 354Q174 435 161 449T147 471Q147 480 153 485T168 490Q173 490 175 489Q178 487 284 383L389 278L493 382Q570 459 587 475T609 491Q630 491 630 471Q630 464 620 453T522 355L418 250L522 145Q606 61 618 48T630 29Z"/></g><g data-mml-node="mi" transform="translate(3403.1,0)"><path data-c="1D445" d="M230 637Q203 637 198 638T193 649Q193 676 204 682Q206 683 378 683Q550 682 564 680Q620 672 658 652T712 606T733 563T739 529Q739 484 710 445T643 385T576 351T538 338L545 333Q612 295 612 223Q612 212 607 162T602 80V71Q602 53 603 43T614 25T640 16Q668 16 686 38T712 85Q717 99 720 102T735 105Q755 105 755 93Q755 75 731 36Q693 -21 641 -21H632Q571 -21 531 4T487 82Q487 109 502 166T517 239Q517 290 474 313Q459 320 449 321T378 323H309L277 193Q244 61 244 59Q244 55 245 54T252 50T269 48T302 46H333Q339 38 339 37T336 19Q332 6 326 0H311Q275 2 180 2Q146 2 117 2T71 2T50 1Q33 1 33 10Q33 12 36 24Q41 43 46 45Q50 46 61 46H67Q94 46 127 49Q141 52 146 61Q149 65 218 339T287 628Q287 635 230 637ZM630 554Q630 586 609 608T523 636Q521 636 500 636T462 637H440Q393 637 386 627Q385 624 352 494T319 361Q319 360 388 360Q466 361 492 367Q556 377 592 426Q608 449 619 486T630 554Z"/></g></g></g></svg></g><g><line x1="5" y1="100" x2="355" y2="100" stroke="#141414" stroke-opacity="1" stroke-width="0.9"/><title>product.axis-x</title></g><g><line x1="55" y1="186" x2="55" y2="14" stroke="#141414" stroke-opacity="1" stroke-width="0.9"/><title>product.axis-y</title></g><g transform="rotate(0, 362, 97)translate(356.852, 92.923)" aria-label="x" data-tex="x"><title>6_Equation</title><svg style="font-size: 18px" xmlns="http://www.w3.org/2000/svg" width="10.296" height="8.154" role="img" focusable="false" viewBox="0 -442 572 453"><g stroke="none" fill="#141414" stroke-width="0" transform="scale(1,-1)" fill-opacity="1"><g data-mml-node="math"><g data-mml-node="mi"><path data-c="1D465" d="M52 289Q59 331 106 386T222 442Q257 442 286 424T329 379Q371 442 430 442Q467 442 494 420T522 361Q522 332 508 314T481 292T458 288Q439 288 427 299T415 328Q415 374 465 391Q454 404 425 404Q412 404 406 402Q368 386 350 336Q290 115 290 78Q290 50 306 38T341 26Q378 26 414 59T463 140Q466 150 469 151T485 153H489Q504 153 504 145Q504 144 502 134Q486 77 440 33T333 -11Q263 -11 227 52Q186 -10 133 -10H127Q78 -10 57 16T35 71Q35 103 54 123T99 143Q142 143 142 101Q142 81 130 66T107 46T94 41L91 40Q91 39 97 36T113 29T132 26Q168 26 194 71Q203 87 217 139T245 247T261 313Q266 340 266 352Q266 380 251 392T217 404Q177 404 142 372T93 290Q91 281 88 280T72 278H58Q52 284 52 289Z"/></g></g></g></svg></g><g transform="rotate(0, 346, 113)translate(339.169, 106.664)" aria-label="R" data-tex="R"><title>7_Equation</title><svg style="font-size: 18px" xmlns="http://www.w3.org/2000/svg" width="13.662" height="12.671999999999999" role="img" focusable="false" viewBox="0 -683 759 704"><g stroke="none" fill="#141414" stroke-width="0" transform="scale(1,-1)" fill-opacity="1"><g data-mml-node="math"><g data-mml-node="mi"><path data-c="1D445" d="M230 637Q203 637 198 638T193 649Q193 676 204 682Q206 683 378 683Q550 682 564 680Q620 672 658 652T712 606T733 563T739 529Q739 484 710 445T643 385T576 351T538 338L545 333Q612 295 612 223Q612 212 607 162T602 80V71Q602 53 603 43T614 25T640 16Q668 16 686 38T712 85Q717 99 720 102T735 105Q755 105 755 93Q755 75 731 36Q693 -21 641 -21H632Q571 -21 531 4T487 82Q487 109 502 166T517 239Q517 290 474 313Q459 320 449 321T378 323H309L277 193Q244 61 244 59Q244 55 245 54T252 50T269 48T302 46H333Q339 38 339 37T336 19Q332 6 326 0H311Q275 2 180 2Q146 2 117 2T71 2T50 1Q33 1 33 10Q33 12 36 24Q41 43 46 45Q50 46 61 46H67Q94 46 127 49Q141 52 146 61Q149 65 218 339T287 628Q287 635 230 637ZM630 554Q630 586 609 608T523 636Q521 636 500 636T462 637H440Q393 637 386 627Q385 624 352 494T319 361Q319 360 388 360Q466 361 492 367Q556 377 592 426Q608 449 619 486T630 554Z"/></g></g></g></svg></g><g transform="rotate(0, 55, 8)translate(50.59, 2.1769999999999996)" aria-label="y" data-tex="y"><title>8_Equation</title><svg style="font-size: 18px" xmlns="http://www.w3.org/2000/svg" width="8.82" height="11.646" role="img" focusable="false" viewBox="0 -442 490 647"><g stroke="none" fill="#141414" stroke-width="0" transform="scale(1,-1)" fill-opacity="1"><g data-mml-node="math"><g data-mml-node="mi"><path data-c="1D466" d="M21 287Q21 301 36 335T84 406T158 442Q199 442 224 419T250 355Q248 336 247 334Q247 331 231 288T198 191T182 105Q182 62 196 45T238 27Q261 27 281 38T312 61T339 94Q339 95 344 114T358 173T377 247Q415 397 419 404Q432 431 462 431Q475 431 483 424T494 412T496 403Q496 390 447 193T391 -23Q363 -106 294 -155T156 -205Q111 -205 77 -183T43 -117Q43 -95 50 -80T69 -58T89 -48T106 -45Q150 -45 150 -87Q150 -107 138 -122T115 -142T102 -147L99 -148Q101 -153 118 -160T152 -167H160Q177 -167 186 -165Q219 -156 247 -127T290 -65T313 -9T321 21L315 17Q309 13 296 6T270 -6Q250 -11 231 -11Q185 -11 150 11T104 82Q103 89 103 113Q103 170 138 262T173 379Q173 380 173 381Q173 390 173 393T169 400T158 404H154Q131 404 112 385T82 344T65 302T57 280Q55 278 41 278H27Q21 284 21 287Z"/></g></g></g></svg></g><g transform="rotate(0, 65, 28)translate(58.169, 21.664)" aria-label="R" data-tex="R"><title>9_Equation</title><svg style="font-size: 18px" xmlns="http://www.w3.org/2000/svg" width="13.662" height="12.671999999999999" role="img" focusable="false" viewBox="0 -683 759 704"><g stroke="none" fill="#141414" stroke-width="0" transform="scale(1,-1)" fill-opacity="1"><g data-mml-node="math"><g data-mml-node="mi"><path data-c="1D445" d="M230 637Q203 637 198 638T193 649Q193 676 204 682Q206 683 378 683Q550 682 564 680Q620 672 658 652T712 606T733 563T739 529Q739 484 710 445T643 385T576 351T538 338L545 333Q612 295 612 223Q612 212 607 162T602 80V71Q602 53 603 43T614 25T640 16Q668 16 686 38T712 85Q717 99 720 102T735 105Q755 105 755 93Q755 75 731 36Q693 -21 641 -21H632Q571 -21 531 4T487 82Q487 109 502 166T517 239Q517 290 474 313Q459 320 449 321T378 323H309L277 193Q244 61 244 59Q244 55 245 54T252 50T269 48T302 46H333Q339 38 339 37T336 19Q332 6 326 0H311Q275 2 180 2Q146 2 117 2T71 2T50 1Q33 1 33 10Q33 12 36 24Q41 43 46 45Q50 46 61 46H67Q94 46 127 49Q141 52 146 61Q149 65 218 339T287 628Q287 635 230 637ZM630 554Q630 586 609 608T523 636Q521 636 500 636T462 637H440Q393 637 386 627Q385 624 352 494T319 361Q319 360 388 360Q466 361 492 367Q556 377 592 426Q608 449 619 486T630 554Z"/></g></g></g></svg></g></svg>