<svg version="1.2" xmlns="http://www.w3.org/2000/svg" viewBox="0 0 512 164" role="img" aria-label="Four exact homotopy times show a loop followed by its parameter inverse retracing progressively less of the original curve, until its image is the fixed basepoint. The gray curve is a reference; the orange curve is the current image."><path fill="#000000" fill-opacity="0" stroke="#1a1a1a" stroke-opacity="0.22" stroke-width="0.7" stroke-linecap="butt" d="M 64 116 L 65.30876331287104 115.97858349905462 L 66.61612516920573 115.91435692954414 L 67.92068561318243 115.80738906688788 L 69.22104768880206 115.65779445495241 L 70.51581893578356 115.46573328339517 L 71.80361288064512 115.23141121612922 L 73.08305052137493 114.95507917109335 L 74.35276180410082 114.63703305156272 L 75.61138709017848 114.27761342928835 L 76.85757861212647 113.87720517980424 L 78.09000191684933 113.43623707029303 L 79.3073372946036 112.95518130045147 L 80.50828119217579 112.43455299684703 L 81.69154760876006 111.87490966130753 L 82.85586947303992 111.2768505739342 L 84 110.64101615137756 L 85.1227140260147 109.96808726106315 L 86.22280932078408 109.25878449210181 L 87.29910787471209 108.5138673836646 L 88.35045716034881 107.73413361164941 L 89.37573136654584 106.92041813450948 L 90.37383260400276 106.07359229915909 L 91.34369208091485 105.19456290791342 L 92.2842712474619 104.2842712474619 L 93.19456290791342 103.34369208091485 L 94.07359229915909 102.37383260400276 L 94.92041813450948 101.37573136654582 L 95.73413361164941 100.35045716034882 L 96.5138673836646 99.29910787471209 L 97.25878449210182 98.2228093207841 L 97.96808726106315 97.12271402601472 L 98.64101615137753 96 L 99.27685057393421 94.85586947303992 L 99.87490966130753 93.69154760876006 L 100.43455299684703 92.50828119217579 L 100.95518130045147 91.3073372946036 L 101.43623707029303 90.09000191684935 L 101.8772051798042 88.85757861212647 L 102.27761342928835 87.61138709017848 L 102.63703305156272 86.35276180410082 L 102.95507917109336 85.08305052137493 L 103.23141121612923 83.80361288064513 L 103.46573328339517 82.51581893578356 L 103.65779445495241 81.22104768880206 L 103.80738906688788 79.92068561318243 L 103.91435692954414 78.61612516920573 L 103.97858349905462 77.30876331287104 L 104 76 L 103.97858349905462 74.69123668712896 L 103.91435692954414 73.38387483079427 L 103.80738906688788 72.07931438681757 L 103.65779445495241 70.77895231119794 L 103.46573328339517 69.48418106421646 L 103.23141121612923 68.19638711935488 L 102.95507917109336 66.91694947862507 L 102.63703305156272 65.64723819589918 L 102.27761342928835 64.38861290982152 L 101.87720517980424 63.14242138787355 L 101.43623707029303 61.90999808315067 L 100.95518130045147 60.692662705396415 L 100.43455299684703 59.49171880782421 L 99.87490966130753 58.30845239123995 L 99.27685057393421 57.14413052696009 L 98.64101615137756 56.00000000000001 L 97.96808726106315 54.87728597398528 L 97.25878449210182 53.77719067921592 L 96.5138673836646 52.70089212528792 L 95.73413361164941 51.649542839651176 L 94.92041813450948 50.62426863345419 L 94.07359229915909 49.62616739599724 L 93.19456290791342 48.65630791908515 L 92.2842712474619 47.7157287525381 L 91.34369208091488 46.80543709208658 L 90.37383260400276 45.92640770084091 L 89.37573136654584 45.079581865490525 L 88.35045716034884 44.2658663883506 L 87.29910787471209 43.4861326163354 L 86.22280932078408 42.74121550789819 L 85.12271402601473 42.03191273893685 L 84 41.358983848622444 L 82.85586947303992 40.7231494260658 L 81.69154760876006 40.12509033869247 L 80.50828119217579 39.56544700315297 L 79.3073372946036 39.04481869954853 L 78.09000191684936 38.56376292970698 L 76.85757861212647 38.12279482019578 L 75.61138709017848 37.72238657071165 L 74.35276180410085 37.362966948437276 L 73.08305052137493 37.044920828906655 L 71.80361288064515 36.76858878387078 L 70.51581893578356 36.53426671660483 L 69.22104768880206 36.34220554504758 L 67.92068561318243 36.192610933112135 L 66.61612516920573 36.08564307045586 L 65.30876331287104 36.02141650094538 L 64 36 L 62.69123668712896 36.02141650094538 L 61.3838748307943 36.08564307045586 L 60.07931438681757 36.19261093311212 L 58.77895231119794 36.34220554504758 L 57.48418106421647 36.53426671660483 L 56.19638711935485 36.76858878387078 L 54.91694947862507 37.044920828906655 L 53.64723819589918 37.36296694843726 L 52.38861290982152 37.722386570711635 L 51.142421387873526 38.122794820195764 L 49.90999808315067 38.56376292970697 L 48.6926627053964 39.04481869954853 L 47.49171880782421 39.56544700315297 L 46.30845239123997 40.12509033869247 L 45.14413052696008 40.7231494260658 L 44 41.35898384862246 L 42.877285973985295 42.03191273893684 L 41.77719067921592 42.74121550789819 L 40.70089212528791 43.4861326163354 L 39.64954283965119 44.26586638835059 L 38.62426863345419 45.07958186549051 L 37.62616739599724 45.92640770084091 L 36.65630791908515 46.805437092086564 L 35.7157287525381 47.7157287525381 L 34.80543709208658 48.65630791908515 L 33.92640770084091 49.62616739599724 L 33.079581865490525 50.624268633454165 L 32.26586638835062 51.64954283965116 L 31.486132616335397 52.70089212528791 L 30.741215507898175 53.77719067921591 L 30.031912738936853 54.87728597398529 L 29.358983848622472 55.999999999999986 L 28.72314942606579 57.14413052696008 L 28.125090338692473 58.308452391239946 L 27.565447003152997 59.49171880782418 L 27.044818699548557 60.69266270539639 L 26.563762929706968 61.909998083150676 L 26.122794820195793 63.142421387873526 L 25.72238657071165 64.3886129098215 L 25.362966948437276 65.64723819589918 L 25.04492082890667 66.91694947862506 L 24.768588783870797 68.19638711935485 L 24.534266716604833 69.48418106421644 L 24.34220554504759 70.77895231119794 L 24.19261093311212 72.07931438681759 L 24.08564307045586 73.3838748307943 L 24.021416500945378 74.69123668712894 L 24 76 L 24.021416500945378 77.30876331287104 L 24.08564307045586 78.6161251692057 L 24.19261093311212 79.9206856131824 L 24.34220554504759 81.22104768880206 L 24.534266716604833 82.51581893578354 L 24.76858878387077 83.80361288064513 L 25.04492082890664 85.08305052137493 L 25.362966948437247 86.35276180410081 L 25.72238657071165 87.61138709017848 L 26.122794820195764 88.85757861212646 L 26.563762929706968 90.0900019168493 L 27.04481869954853 91.3073372946036 L 27.56544700315297 92.5082811921758 L 28.125090338692473 93.69154760876005 L 28.72314942606579 94.8558694730399 L 29.358983848622472 96 L 30.031912738936825 97.1227140260147 L 30.741215507898175 98.22280932078408 L 31.486132616335397 99.29910787471208 L 32.26586638835059 100.35045716034882 L 33.079581865490525 101.37573136654582 L 33.92640770084091 102.37383260400276 L 34.80543709208655 103.34369208091485 L 35.7157287525381 104.2842712474619 L 36.65630791908515 105.19456290791342 L 37.626167395997214 106.07359229915907 L 38.624268633454165 106.92041813450946 L 39.64954283965116 107.7341336116494 L 40.70089212528791 108.5138673836646 L 41.77719067921592 109.25878449210181 L 42.877285973985295 109.96808726106316 L 43.99999999999997 110.64101615137753 L 45.14413052696008 111.2768505739342 L 46.30845239123994 111.87490966130753 L 47.491718807824185 112.43455299684702 L 48.69266270539637 112.95518130045146 L 49.90999808315067 113.43623707029303 L 51.142421387873526 113.87720517980422 L 52.38861290982149 114.27761342928835 L 53.64723819589918 114.63703305156272 L 54.91694947862504 114.95507917109333 L 56.19638711935485 115.2314112161292 L 57.48418106421644 115.46573328339517 L 58.77895231119794 115.65779445495241 L 60.07931438681757 115.80738906688788 L 61.3838748307943 115.91435692954414 L 62.691236687128935 115.97858349905462 L 64 116" aria-label="retracing.reference-0"><title>retracing.reference-0</title></path><path fill="#000000" fill-opacity="0" stroke="#d94f14" stroke-opacity="1" stroke-width="1.35" stroke-linecap="butt" d="M 64 116 L 66.61612516920573 115.91435692954414 L 69.22104768880206 115.65779445495241 L 71.80361288064512 115.23141121612922 L 74.35276180410082 114.63703305156272 L 76.85757861212647 113.87720517980424 L 79.3073372946036 112.95518130045147 L 81.69154760876006 111.87490966130753 L 84 110.64101615137756 L 86.22280932078408 109.25878449210181 L 88.35045716034881 107.73413361164941 L 90.37383260400276 106.07359229915909 L 92.2842712474619 104.2842712474619 L 94.07359229915909 102.37383260400276 L 95.73413361164941 100.35045716034882 L 97.25878449210182 98.2228093207841 L 98.64101615137753 96 L 99.87490966130753 93.69154760876006 L 100.95518130045147 91.3073372946036 L 101.8772051798042 88.85757861212647 L 102.63703305156272 86.35276180410082 L 103.23141121612923 83.80361288064513 L 103.65779445495241 81.22104768880206 L 103.91435692954414 78.61612516920573 L 104 76 L 103.91435692954414 73.38387483079427 L 103.65779445495241 70.77895231119794 L 103.23141121612923 68.19638711935488 L 102.63703305156272 65.64723819589918 L 101.87720517980424 63.14242138787355 L 100.95518130045147 60.692662705396415 L 99.87490966130753 58.30845239123995 L 98.64101615137756 56.00000000000001 L 97.25878449210182 53.77719067921592 L 95.73413361164941 51.649542839651176 L 94.07359229915909 49.62616739599724 L 92.2842712474619 47.7157287525381 L 90.37383260400276 45.92640770084091 L 88.35045716034884 44.2658663883506 L 86.22280932078408 42.74121550789819 L 84 41.358983848622444 L 81.69154760876006 40.12509033869247 L 79.3073372946036 39.04481869954853 L 76.85757861212647 38.12279482019578 L 74.35276180410085 37.362966948437276 L 71.80361288064515 36.76858878387078 L 69.22104768880206 36.34220554504758 L 66.61612516920573 36.08564307045586 L 64 36 L 61.3838748307943 36.08564307045586 L 58.77895231119794 36.34220554504758 L 56.19638711935485 36.76858878387078 L 53.64723819589918 37.36296694843726 L 51.142421387873526 38.122794820195764 L 48.6926627053964 39.04481869954853 L 46.30845239123997 40.12509033869247 L 44 41.35898384862246 L 41.77719067921592 42.74121550789819 L 39.64954283965119 44.26586638835059 L 37.62616739599724 45.92640770084091 L 35.7157287525381 47.7157287525381 L 33.92640770084091 49.62616739599724 L 32.26586638835062 51.64954283965116 L 30.741215507898175 53.77719067921591 L 29.358983848622472 55.999999999999986 L 28.125090338692473 58.308452391239946 L 27.044818699548557 60.69266270539639 L 26.122794820195793 63.142421387873526 L 25.362966948437276 65.64723819589918 L 24.768588783870797 68.19638711935485 L 24.34220554504759 70.77895231119794 L 24.08564307045586 73.3838748307943 L 24 76 L 24.08564307045586 78.6161251692057 L 24.34220554504759 81.22104768880206 L 24.76858878387077 83.80361288064513 L 25.362966948437247 86.35276180410081 L 26.122794820195764 88.85757861212646 L 27.04481869954853 91.3073372946036 L 28.125090338692473 93.69154760876005 L 29.358983848622472 96 L 30.741215507898175 98.22280932078408 L 32.26586638835059 100.35045716034882 L 33.92640770084091 102.37383260400276 L 35.7157287525381 104.2842712474619 L 37.626167395997214 106.07359229915907 L 39.64954283965116 107.7341336116494 L 41.77719067921592 109.25878449210181 L 43.99999999999997 110.64101615137753 L 46.30845239123994 111.87490966130753 L 48.69266270539637 112.95518130045146 L 51.142421387873526 113.87720517980422 L 53.64723819589918 114.63703305156272 L 56.19638711935485 115.2314112161292 L 58.77895231119794 115.65779445495241 L 61.3838748307943 115.91435692954414 L 64 116 L 61.38387483079424 115.91435692954414 L 58.77895231119794 115.65779445495241 L 56.19638711935485 115.2314112161292 L 53.64723819589915 114.63703305156272 L 51.142421387873554 113.87720517980424 L 48.69266270539637 112.95518130045146 L 46.30845239123991 111.87490966130751 L 44 110.64101615137756 L 41.77719067921592 109.25878449210181 L 39.64954283965116 107.7341336116494 L 37.62616739599724 106.0735922991591 L 35.7157287525381 104.2842712474619 L 33.92640770084088 102.37383260400273 L 32.26586638835059 100.35045716034882 L 30.741215507898175 98.22280932078408 L 29.358983848622444 95.99999999999997 L 28.125090338692473 93.69154760876008 L 27.04481869954853 91.3073372946036 L 26.122794820195764 88.85757861212643 L 25.362966948437276 86.35276180410085 L 24.76858878387077 83.80361288064513 L 24.34220554504759 81.22104768880206 L 24.08564307045586 78.61612516920573 L 24 76 L 24.08564307045586 73.38387483079426 L 24.34220554504759 70.77895231119794 L 24.768588783870797 68.19638711935485 L 25.362966948437276 65.64723819589913 L 26.122794820195764 63.14242138787356 L 27.044818699548557 60.69266270539639 L 28.125090338692473 58.30845239123991 L 29.358983848622444 56.000000000000014 L 30.741215507898175 53.77719067921591 L 32.26586638835062 51.64954283965116 L 33.92640770084091 49.62616739599724 L 35.7157287525381 47.7157287525381 L 37.62616739599727 45.92640770084088 L 39.64954283965116 44.2658663883506 L 41.77719067921592 42.74121550789819 L 44.00000000000003 41.358983848622444 L 46.30845239123994 40.12509033869247 L 48.6926627053964 39.04481869954853 L 51.142421387873554 38.122794820195764 L 53.64723819589915 37.362966948437276 L 56.19638711935485 36.76858878387078 L 58.77895231119797 36.34220554504758 L 61.38387483079427 36.08564307045586 L 64 36 L 66.61612516920573 36.08564307045586 L 69.22104768880206 36.34220554504758 L 71.80361288064515 36.76858878387078 L 74.35276180410085 37.362966948437276 L 76.85757861212645 38.122794820195764 L 79.3073372946036 39.04481869954853 L 81.69154760876006 40.12509033869247 L 83.99999999999997 41.358983848622444 L 86.22280932078408 42.74121550789819 L 88.35045716034884 44.26586638835062 L 90.37383260400276 45.9264077008409 L 92.2842712474619 47.7157287525381 L 94.07359229915912 49.62616739599727 L 95.73413361164938 51.64954283965116 L 97.25878449210182 53.77719067921592 L 98.64101615137756 56.000000000000014 L 99.87490966130753 58.30845239123994 L 100.95518130045147 60.692662705396415 L 101.87720517980424 63.142421387873554 L 102.63703305156272 65.64723819589915 L 103.23141121612923 68.19638711935488 L 103.65779445495241 70.77895231119795 L 103.91435692954414 73.38387483079427 L 104 76 L 103.91435692954414 78.61612516920573 L 103.65779445495241 81.22104768880206 L 103.23141121612923 83.80361288064513 L 102.63703305156272 86.35276180410085 L 101.87720517980424 88.85757861212645 L 100.95518130045147 91.3073372946036 L 99.87490966130753 93.69154760876006 L 98.64101615137756 96 L 97.25878449210182 98.2228093207841 L 95.73413361164938 100.35045716034884 L 94.07359229915912 102.37383260400274 L 92.2842712474619 104.2842712474619 L 90.37383260400273 106.07359229915912 L 88.35045716034884 107.7341336116494 L 86.22280932078408 109.25878449210181 L 83.99999999999997 110.64101615137756 L 81.69154760876006 111.87490966130753 L 79.3073372946036 112.95518130045147 L 76.85757861212645 113.87720517980424 L 74.35276180410085 114.63703305156272 L 71.80361288064512 115.23141121612922 L 69.22104768880206 115.65779445495242 L 66.61612516920573 115.91435692954414 L 64 116" aria-label="retracing.slice-0"><title>retracing.slice-0</title></path><polygon fill="#d94f14" fill-opacity="1" stroke="#000000" stroke-opacity="0" stroke-width="0" transform="scale(1)" points="103.29149002914755,68.504747416571,102.56771667974365,72.71499113145174,105.51456077020319,72.15275460958233" aria-label="outward traversal"><title>0_Polygon</title></polygon><polygon fill="#d94f14" fill-opacity="1" stroke="#000000" stroke-opacity="0" stroke-width="0" transform="scale(1)" points="28.947732798245454,56.72985303593139,25.706345501208972,59.51255107751092,28.335310944256577,60.95772950914544" aria-label="return traversal"><title>1_Polygon</title></polygon><circle fill="#141414" fill-opacity="1" cx="64" cy="116" stroke="#000000" stroke-opacity="0" stroke-width="0" r="2.8" aria-label="fixed retracing basepoint 0"><title>fixed retracing basepoint 0</title></circle><rect x="58" y="125" width="12" height="10" fill="#ffffff" fill-opacity="1" stroke="#000000" stroke-opacity="0" stroke-width="0" rx="0" transform="rotate(0, 64, 130)"><title>2_Rectangle</title></rect><g transform="rotate(0, 64, 130)translate(59.367, 126.765)" aria-label="y_0" data-tex="y_0"><title>3_Equation</title><svg style="font-size: 10px" xmlns="http://www.w3.org/2000/svg" width="9.266" height="6.470000000000001" role="img" focusable="false" viewBox="0 -442 926.6 647"><g stroke="none" fill="#141414" stroke-width="0" transform="scale(1,-1)" fill-opacity="1"><g data-mml-node="math"><g data-mml-node="msub"><g data-mml-node="mi"><path data-c="1D466" d="M21 287Q21 301 36 335T84 406T158 442Q199 442 224 419T250 355Q248 336 247 334Q247 331 231 288T198 191T182 105Q182 62 196 45T238 27Q261 27 281 38T312 61T339 94Q339 95 344 114T358 173T377 247Q415 397 419 404Q432 431 462 431Q475 431 483 424T494 412T496 403Q496 390 447 193T391 -23Q363 -106 294 -155T156 -205Q111 -205 77 -183T43 -117Q43 -95 50 -80T69 -58T89 -48T106 -45Q150 -45 150 -87Q150 -107 138 -122T115 -142T102 -147L99 -148Q101 -153 118 -160T152 -167H160Q177 -167 186 -165Q219 -156 247 -127T290 -65T313 -9T321 21L315 17Q309 13 296 6T270 -6Q250 -11 231 -11Q185 -11 150 11T104 82Q103 89 103 113Q103 170 138 262T173 379Q173 380 173 381Q173 390 173 393T169 400T158 404H154Q131 404 112 385T82 344T65 302T57 280Q55 278 41 278H27Q21 284 21 287Z"/></g><g data-mml-node="mn" transform="translate(523,-150) scale(0.707)"><path data-c="30" d="M96 585Q152 666 249 666Q297 666 345 640T423 548Q460 465 460 320Q460 165 417 83Q397 41 362 16T301 -15T250 -22Q224 -22 198 -16T137 16T82 83Q39 165 39 320Q39 494 96 585ZM321 597Q291 629 250 629Q208 629 178 597Q153 571 145 525T137 333Q137 175 145 125T181 46Q209 16 250 16Q290 16 318 46Q347 76 354 130T362 333Q362 478 354 524T321 597Z"/></g></g></g></g></svg></g><g transform="rotate(0, 64, 141)translate(52.487, 137.26)" aria-label="s=0" data-tex="s%3D0"><title>4_Equation</title><svg style="font-size: 10px" xmlns="http://www.w3.org/2000/svg" width="23.026" height="7.48" role="img" focusable="false" viewBox="0 -666 2302.6 748"><g stroke="none" fill="#141414" stroke-width="0" transform="scale(1,-1)" fill-opacity="1"><g data-mml-node="math"><g data-mml-node="mi"><path data-c="1D460" d="M131 289Q131 321 147 354T203 415T300 442Q362 442 390 415T419 355Q419 323 402 308T364 292Q351 292 340 300T328 326Q328 342 337 354T354 372T367 378Q368 378 368 379Q368 382 361 388T336 399T297 405Q249 405 227 379T204 326Q204 301 223 291T278 274T330 259Q396 230 396 163Q396 135 385 107T352 51T289 7T195 -10Q118 -10 86 19T53 87Q53 126 74 143T118 160Q133 160 146 151T160 120Q160 94 142 76T111 58Q109 57 108 57T107 55Q108 52 115 47T146 34T201 27Q237 27 263 38T301 66T318 97T323 122Q323 150 302 164T254 181T195 196T148 231Q131 256 131 289Z"/></g><g data-mml-node="mo" transform="translate(746.8,0)"><path data-c="3D" d="M56 347Q56 360 70 367H707Q722 359 722 347Q722 336 708 328L390 327H72Q56 332 56 347ZM56 153Q56 168 72 173H708Q722 163 722 153Q722 140 707 133H70Q56 140 56 153Z"/></g><g data-mml-node="mn" transform="translate(1802.6,0)"><path data-c="30" d="M96 585Q152 666 249 666Q297 666 345 640T423 548Q460 465 460 320Q460 165 417 83Q397 41 362 16T301 -15T250 -22Q224 -22 198 -16T137 16T82 83Q39 165 39 320Q39 494 96 585ZM321 597Q291 629 250 629Q208 629 178 597Q153 571 145 525T137 333Q137 175 145 125T181 46Q209 16 250 16Q290 16 318 46Q347 76 354 130T362 333Q362 478 354 524T321 597Z"/></g></g></g></svg></g><path fill="#000000" fill-opacity="0" stroke="#1a1a1a" stroke-opacity="0.22" stroke-width="0.7" stroke-linecap="butt" d="M 192 116 L 193.30876331287104 115.97858349905462 L 194.61612516920573 115.91435692954414 L 195.92068561318243 115.80738906688788 L 197.22104768880206 115.65779445495241 L 198.51581893578356 115.46573328339517 L 199.80361288064512 115.23141121612922 L 201.08305052137493 114.95507917109335 L 202.35276180410082 114.63703305156272 L 203.61138709017848 114.27761342928835 L 204.85757861212647 113.87720517980424 L 206.09000191684933 113.43623707029303 L 207.3073372946036 112.95518130045147 L 208.5082811921758 112.43455299684703 L 209.69154760876006 111.87490966130753 L 210.8558694730399 111.2768505739342 L 212 110.64101615137756 L 213.1227140260147 109.96808726106315 L 214.22280932078408 109.25878449210181 L 215.2991078747121 108.5138673836646 L 216.3504571603488 107.73413361164941 L 217.37573136654584 106.92041813450948 L 218.37383260400276 106.07359229915909 L 219.34369208091485 105.19456290791342 L 220.2842712474619 104.2842712474619 L 221.19456290791342 103.34369208091485 L 222.0735922991591 102.37383260400276 L 222.92041813450948 101.37573136654582 L 223.7341336116494 100.35045716034882 L 224.5138673836646 99.29910787471209 L 225.25878449210182 98.2228093207841 L 225.96808726106315 97.12271402601472 L 226.64101615137753 96 L 227.2768505739342 94.85586947303992 L 227.87490966130753 93.69154760876006 L 228.43455299684703 92.50828119217579 L 228.95518130045147 91.3073372946036 L 229.43623707029303 90.09000191684935 L 229.8772051798042 88.85757861212647 L 230.27761342928835 87.61138709017848 L 230.63703305156272 86.35276180410082 L 230.95507917109336 85.08305052137493 L 231.23141121612923 83.80361288064513 L 231.46573328339517 82.51581893578356 L 231.6577944549524 81.22104768880206 L 231.80738906688788 79.92068561318243 L 231.91435692954414 78.61612516920573 L 231.97858349905462 77.30876331287104 L 232 76 L 231.97858349905462 74.69123668712896 L 231.91435692954414 73.38387483079427 L 231.80738906688788 72.07931438681757 L 231.6577944549524 70.77895231119794 L 231.46573328339517 69.48418106421646 L 231.23141121612923 68.19638711935488 L 230.95507917109336 66.91694947862507 L 230.63703305156272 65.64723819589918 L 230.27761342928835 64.38861290982152 L 229.87720517980424 63.14242138787355 L 229.43623707029303 61.90999808315067 L 228.95518130045147 60.692662705396415 L 228.43455299684703 59.49171880782421 L 227.87490966130753 58.30845239123995 L 227.2768505739342 57.14413052696009 L 226.64101615137756 56.00000000000001 L 225.96808726106315 54.87728597398528 L 225.25878449210182 53.77719067921592 L 224.5138673836646 52.70089212528792 L 223.7341336116494 51.649542839651176 L 222.92041813450948 50.62426863345419 L 222.0735922991591 49.62616739599724 L 221.19456290791342 48.65630791908515 L 220.2842712474619 47.7157287525381 L 219.34369208091488 46.80543709208658 L 218.37383260400276 45.92640770084091 L 217.37573136654584 45.079581865490525 L 216.35045716034884 44.2658663883506 L 215.2991078747121 43.4861326163354 L 214.22280932078408 42.74121550789819 L 213.1227140260147 42.03191273893685 L 212 41.358983848622444 L 210.85586947303992 40.7231494260658 L 209.69154760876006 40.12509033869247 L 208.5082811921758 39.56544700315297 L 207.3073372946036 39.04481869954853 L 206.09000191684936 38.56376292970698 L 204.85757861212647 38.12279482019578 L 203.61138709017848 37.72238657071165 L 202.35276180410085 37.362966948437276 L 201.08305052137493 37.044920828906655 L 199.80361288064515 36.76858878387078 L 198.51581893578356 36.53426671660483 L 197.22104768880206 36.34220554504758 L 195.92068561318243 36.192610933112135 L 194.61612516920573 36.08564307045586 L 193.30876331287104 36.02141650094538 L 192 36 L 190.69123668712894 36.02141650094538 L 189.3838748307943 36.08564307045586 L 188.07931438681757 36.19261093311212 L 186.77895231119794 36.34220554504758 L 185.48418106421647 36.53426671660483 L 184.19638711935488 36.76858878387078 L 182.91694947862504 37.044920828906655 L 181.6472381958992 37.36296694843726 L 180.38861290982152 37.722386570711635 L 179.14242138787353 38.122794820195764 L 177.90999808315067 38.56376292970697 L 176.6926627053964 39.04481869954853 L 175.4917188078242 39.56544700315297 L 174.30845239123994 40.12509033869247 L 173.1441305269601 40.7231494260658 L 172 41.35898384862246 L 170.8772859739853 42.03191273893684 L 169.77719067921592 42.74121550789819 L 168.7008921252879 43.4861326163354 L 167.6495428396512 44.26586638835059 L 166.6242686334542 45.07958186549051 L 165.62616739599724 45.92640770084091 L 164.65630791908515 46.805437092086564 L 163.7157287525381 47.7157287525381 L 162.80543709208658 48.65630791908515 L 161.9264077008409 49.62616739599724 L 161.07958186549052 50.624268633454165 L 160.26586638835062 51.64954283965116 L 159.4861326163354 52.70089212528791 L 158.74121550789818 53.77719067921591 L 158.03191273893685 54.87728597398529 L 157.35898384862247 55.999999999999986 L 156.7231494260658 57.14413052696008 L 156.12509033869247 58.308452391239946 L 155.565447003153 59.49171880782418 L 155.04481869954856 60.69266270539639 L 154.56376292970697 61.909998083150676 L 154.1227948201958 63.142421387873526 L 153.72238657071165 64.3886129098215 L 153.36296694843728 65.64723819589918 L 153.04492082890667 66.91694947862506 L 152.7685887838708 68.19638711935485 L 152.53426671660483 69.48418106421644 L 152.3422055450476 70.77895231119794 L 152.19261093311212 72.07931438681759 L 152.08564307045586 73.3838748307943 L 152.02141650094538 74.69123668712894 L 152 76 L 152.02141650094538 77.30876331287104 L 152.08564307045586 78.6161251692057 L 152.19261093311212 79.9206856131824 L 152.3422055450476 81.22104768880206 L 152.53426671660483 82.51581893578354 L 152.76858878387077 83.80361288064513 L 153.04492082890664 85.08305052137493 L 153.36296694843725 86.35276180410081 L 153.72238657071165 87.61138709017848 L 154.12279482019576 88.85757861212646 L 154.56376292970697 90.0900019168493 L 155.04481869954853 91.3073372946036 L 155.56544700315297 92.5082811921758 L 156.12509033869247 93.69154760876005 L 156.7231494260658 94.8558694730399 L 157.35898384862247 96 L 158.03191273893682 97.1227140260147 L 158.74121550789818 98.22280932078408 L 159.4861326163354 99.29910787471208 L 160.2658663883506 100.35045716034882 L 161.07958186549052 101.37573136654582 L 161.9264077008409 102.37383260400276 L 162.80543709208655 103.34369208091485 L 163.7157287525381 104.2842712474619 L 164.65630791908515 105.19456290791342 L 165.62616739599724 106.07359229915907 L 166.62426863345416 106.92041813450946 L 167.64954283965116 107.7341336116494 L 168.7008921252879 108.5138673836646 L 169.77719067921592 109.25878449210181 L 170.8772859739853 109.96808726106316 L 172 110.64101615137753 L 173.14413052696008 111.2768505739342 L 174.30845239123994 111.87490966130753 L 175.49171880782418 112.43455299684702 L 176.6926627053964 112.95518130045146 L 177.90999808315067 113.43623707029303 L 179.14242138787353 113.87720517980422 L 180.38861290982152 114.27761342928835 L 181.64723819589918 114.63703305156272 L 182.91694947862504 114.95507917109333 L 184.19638711935485 115.2314112161292 L 185.48418106421644 115.46573328339517 L 186.77895231119794 115.65779445495241 L 188.0793143868176 115.80738906688788 L 189.3838748307943 115.91435692954414 L 190.69123668712894 115.97858349905462 L 192 116" aria-label="retracing.reference-1"><title>retracing.reference-1</title></path><path fill="#000000" fill-opacity="0" stroke="#d94f14" stroke-opacity="1" stroke-width="1.35" stroke-linecap="butt" d="M 192 116 L 193.74477549461344 115.96192886327431 L 195.48622970990633 115.84778792366981 L 197.22104768880206 115.65779445495241 L 198.94592710667723 115.39231012048832 L 200.6575845575241 115.05184028479734 L 202.35276180410082 114.63703305156272 L 204.02823198017091 114.14867802992907 L 205.68080573302674 113.58770483143633 L 207.3073372946036 112.95518130045147 L 208.90473046962796 112.252311481466 L 210.46994452940135 111.48043332712886 L 212 110.64101615137754 L 213.49198433387295 109.73565783251543 L 214.94305745404185 108.76608177155967 L 216.35045716034884 107.7341336116494 L 217.71150438746156 106.64177772475912 L 219.0236083046264 105.49109347240496 L 220.2842712474619 104.2842712474619 L 221.49109347240497 103.0236083046264 L 222.64177772475912 101.71150438746156 L 223.7341336116494 100.35045716034882 L 224.76608177155967 98.94305745404185 L 225.73565783251544 97.49198433387295 L 226.64101615137756 96 L 227.48043332712888 94.46994452940136 L 228.252311481466 92.90473046962798 L 228.95518130045147 91.30733729460358 L 229.58770483143633 89.68080573302674 L 230.14867802992907 88.02823198017091 L 230.63703305156272 86.35276180410082 L 231.05184028479732 84.6575845575241 L 231.39231012048833 82.9459271066772 L 231.6577944549524 81.22104768880206 L 231.8477879236698 79.48622970990633 L 231.9619288632743 77.74477549461344 L 232 76 L 231.9619288632743 74.25522450538656 L 231.8477879236698 72.51377029009367 L 231.6577944549524 70.77895231119793 L 231.39231012048833 69.05407289332277 L 231.05184028479732 67.34241544247587 L 230.63703305156272 65.64723819589918 L 230.14867802992907 63.97176801982907 L 229.58770483143633 62.319194266973255 L 228.95518130045147 60.6926627053964 L 228.252311481466 59.09526953037201 L 227.48043332712888 57.53005547059864 L 226.64101615137753 55.99999999999999 L 225.73565783251541 54.50801566612704 L 224.76608177155967 53.05694254595816 L 223.7341336116494 51.649542839651176 L 222.64177772475912 50.288495612538426 L 221.49109347240494 48.97639169537358 L 220.2842712474619 47.715728752538084 L 219.0236083046264 46.50890652759503 L 217.71150438746156 45.35822227524086 L 216.3504571603488 44.26586638835059 L 214.94305745404182 43.23391822844033 L 213.49198433387295 42.26434216748457 L 212 41.358983848622444 L 210.46994452940135 40.519566672871136 L 208.90473046962796 39.747688518534005 L 207.30733729460357 39.04481869954853 L 205.68080573302674 38.41229516856366 L 204.02823198017091 37.85132197007091 L 202.35276180410082 37.362966948437276 L 200.6575845575241 36.948159715202664 L 198.9459271066772 36.60768987951167 L 197.22104768880206 36.34220554504758 L 195.48622970990633 36.15221207633017 L 193.74477549461344 36.03807113672568 L 192 36 L 190.25522450538654 36.03807113672568 L 188.51377029009365 36.15221207633017 L 186.77895231119794 36.34220554504758 L 185.05407289332277 36.60768987951167 L 183.34241544247587 36.94815971520268 L 181.64723819589915 37.362966948437276 L 179.97176801982909 37.85132197007093 L 178.31919426697323 38.41229516856367 L 176.6926627053964 39.04481869954854 L 175.095269530372 39.747688518534005 L 173.53005547059863 40.519566672871136 L 172 41.35898384862246 L 170.50801566612705 42.26434216748457 L 169.05694254595812 43.233918228440345 L 167.64954283965116 44.2658663883506 L 166.28849561253844 45.35822227524088 L 164.97639169537356 46.50890652759506 L 163.71572875253807 47.715728752538126 L 162.50890652759503 48.97639169537359 L 161.35822227524085 50.28849561253844 L 160.26586638835062 51.64954283965116 L 159.23391822844033 53.05694254595814 L 158.26434216748456 54.50801566612706 L 157.35898384862244 56.000000000000014 L 158.26434216748459 54.50801566612703 L 159.2339182284403 53.05694254595818 L 160.26586638835062 51.64954283965116 L 161.35822227524085 50.28849561253844 L 162.50890652759503 48.97639169537359 L 163.71572875253807 47.715728752538126 L 164.9763916953736 46.508906527595045 L 166.2884956125384 45.358222275240905 L 167.64954283965116 44.2658663883506 L 169.05694254595818 43.23391822844033 L 170.50801566612702 42.264342167484585 L 172 41.35898384862246 L 173.53005547059863 40.519566672871136 L 175.095269530372 39.747688518534005 L 176.6926627053964 39.04481869954854 L 178.31919426697326 38.41229516856366 L 179.97176801982903 37.85132197007093 L 181.64723819589915 37.362966948437276 L 183.3424154424759 36.94815971520265 L 185.05407289332277 36.60768987951168 L 186.77895231119794 36.34220554504758 L 188.51377029009365 36.15221207633017 L 190.25522450538654 36.03807113672568 L 192 36 L 193.74477549461344 36.03807113672568 L 195.4862297099063 36.15221207633017 L 197.22104768880206 36.34220554504758 L 198.94592710667723 36.60768987951167 L 200.6575845575241 36.94815971520265 L 202.35276180410082 37.362966948437276 L 204.02823198017091 37.85132197007093 L 205.68080573302674 38.41229516856366 L 207.30733729460357 39.04481869954853 L 208.90473046962796 39.747688518534005 L 210.46994452940135 40.51956667287112 L 212 41.358983848622444 L 213.49198433387295 42.264342167484585 L 214.94305745404182 43.23391822844033 L 216.3504571603488 44.26586638835059 L 217.7115043874616 45.35822227524088 L 219.0236083046264 46.50890652759503 L 220.2842712474619 47.715728752538084 L 221.49109347240497 48.97639169537361 L 222.6417777247591 50.28849561253841 L 223.7341336116494 51.649542839651176 L 224.7660817715597 53.056942545958165 L 225.73565783251541 54.50801566612704 L 226.64101615137753 55.99999999999999 L 227.48043332712888 57.53005547059864 L 228.252311481466 59.09526953037201 L 228.95518130045147 60.6926627053964 L 229.58770483143633 62.31919426697326 L 230.14867802992907 63.97176801982906 L 230.63703305156272 65.64723819589918 L 231.05184028479732 67.34241544247588 L 231.39231012048833 69.05407289332277 L 231.6577944549524 70.77895231119793 L 231.8477879236698 72.51377029009367 L 231.9619288632743 74.25522450538654 L 232 76 L 231.9619288632743 77.74477549461345 L 231.8477879236698 79.48622970990631 L 231.6577944549524 81.22104768880206 L 231.39231012048833 82.94592710667722 L 231.05184028479732 84.6575845575241 L 230.63703305156272 86.35276180410082 L 230.14867802992907 88.02823198017093 L 229.58770483143633 89.68080573302674 L 228.95518130045147 91.30733729460358 L 228.252311481466 92.90473046962799 L 227.48043332712888 94.46994452940135 L 226.64101615137756 96 L 225.73565783251541 97.49198433387296 L 224.7660817715597 98.94305745404182 L 223.7341336116494 100.35045716034882 L 222.64177772475912 101.71150438746159 L 221.49109347240497 103.02360830462639 L 220.2842712474619 104.2842712474619 L 219.0236083046264 105.49109347240497 L 217.7115043874616 106.64177772475911 L 216.35045716034884 107.7341336116494 L 214.94305745404182 108.76608177155967 L 213.49198433387295 109.73565783251541 L 212 110.64101615137754 L 210.46994452940135 111.48043332712888 L 208.904730469628 112.252311481466 L 207.3073372946036 112.95518130045147 L 205.68080573302674 113.58770483143634 L 204.02823198017094 114.14867802992907 L 202.35276180410082 114.63703305156272 L 200.6575845575241 115.05184028479734 L 198.94592710667723 115.39231012048832 L 197.22104768880206 115.65779445495241 L 195.4862297099063 115.84778792366981 L 193.74477549461346 115.96192886327431 L 192 116" aria-label="retracing.slice-1"><title>retracing.slice-1</title></path><polygon fill="#d94f14" fill-opacity="1" stroke="#000000" stroke-opacity="0" stroke-width="0" transform="scale(1)" points="228.87452606354003,91.5006234580841,225.94176657529562,94.60689482165046,228.70739255118033,95.769354696877" aria-label="outward traversal"><title>5_Polygon</title></polygon><polygon fill="#d94f14" fill-opacity="1" stroke="#000000" stroke-opacity="0" stroke-width="0" transform="scale(1)" points="205.15466586954332,38.22494519050075,201.8703745310282,35.49301722590239,200.8838635966796,38.32617733016947" aria-label="return traversal"><title>6_Polygon</title></polygon><circle fill="#141414" fill-opacity="1" cx="192" cy="116" stroke="#000000" stroke-opacity="0" stroke-width="0" r="2.8" aria-label="fixed retracing basepoint 1"><title>fixed retracing basepoint 1</title></circle><rect x="186" y="125" width="12" height="10" fill="#ffffff" fill-opacity="1" stroke="#000000" stroke-opacity="0" stroke-width="0" rx="0" transform="rotate(0, 192, 130)"><title>7_Rectangle</title></rect><g transform="rotate(0, 192, 130)translate(187.367, 126.765)" aria-label="y_0" data-tex="y_0"><title>8_Equation</title><svg style="font-size: 10px" xmlns="http://www.w3.org/2000/svg" width="9.266" height="6.470000000000001" role="img" focusable="false" viewBox="0 -442 926.6 647"><g stroke="none" fill="#141414" stroke-width="0" transform="scale(1,-1)" fill-opacity="1"><g data-mml-node="math"><g data-mml-node="msub"><g data-mml-node="mi"><path data-c="1D466" d="M21 287Q21 301 36 335T84 406T158 442Q199 442 224 419T250 355Q248 336 247 334Q247 331 231 288T198 191T182 105Q182 62 196 45T238 27Q261 27 281 38T312 61T339 94Q339 95 344 114T358 173T377 247Q415 397 419 404Q432 431 462 431Q475 431 483 424T494 412T496 403Q496 390 447 193T391 -23Q363 -106 294 -155T156 -205Q111 -205 77 -183T43 -117Q43 -95 50 -80T69 -58T89 -48T106 -45Q150 -45 150 -87Q150 -107 138 -122T115 -142T102 -147L99 -148Q101 -153 118 -160T152 -167H160Q177 -167 186 -165Q219 -156 247 -127T290 -65T313 -9T321 21L315 17Q309 13 296 6T270 -6Q250 -11 231 -11Q185 -11 150 11T104 82Q103 89 103 113Q103 170 138 262T173 379Q173 380 173 381Q173 390 173 393T169 400T158 404H154Q131 404 112 385T82 344T65 302T57 280Q55 278 41 278H27Q21 284 21 287Z"/></g><g data-mml-node="mn" transform="translate(523,-150) scale(0.707)"><path data-c="30" d="M96 585Q152 666 249 666Q297 666 345 640T423 548Q460 465 460 320Q460 165 417 83Q397 41 362 16T301 -15T250 -22Q224 -22 198 -16T137 16T82 83Q39 165 39 320Q39 494 96 585ZM321 597Q291 629 250 629Q208 629 178 597Q153 571 145 525T137 333Q137 175 145 125T181 46Q209 16 250 16Q290 16 318 46Q347 76 354 130T362 333Q362 478 354 524T321 597Z"/></g></g></g></g></svg></g><g transform="rotate(0, 192, 141)translate(179.0195, 134.8725)" aria-label="s=\tfrac13" data-tex="s%3D%5Ctfrac13"><title>9_Equation</title><svg style="font-size: 10px" xmlns="http://www.w3.org/2000/svg" width="25.961" height="12.255" role="img" focusable="false" viewBox="0 -864.9 2596.1 1225.5"><g stroke="none" fill="#141414" stroke-width="0" transform="scale(1,-1)" fill-opacity="1"><g data-mml-node="math"><g data-mml-node="mi"><path data-c="1D460" d="M131 289Q131 321 147 354T203 415T300 442Q362 442 390 415T419 355Q419 323 402 308T364 292Q351 292 340 300T328 326Q328 342 337 354T354 372T367 378Q368 378 368 379Q368 382 361 388T336 399T297 405Q249 405 227 379T204 326Q204 301 223 291T278 274T330 259Q396 230 396 163Q396 135 385 107T352 51T289 7T195 -10Q118 -10 86 19T53 87Q53 126 74 143T118 160Q133 160 146 151T160 120Q160 94 142 76T111 58Q109 57 108 57T107 55Q108 52 115 47T146 34T201 27Q237 27 263 38T301 66T318 97T323 122Q323 150 302 164T254 181T195 196T148 231Q131 256 131 289Z"/></g><g data-mml-node="mo" transform="translate(746.8,0)"><path data-c="3D" d="M56 347Q56 360 70 367H707Q722 359 722 347Q722 336 708 328L390 327H72Q56 332 56 347ZM56 153Q56 168 72 173H708Q722 163 722 153Q722 140 707 133H70Q56 140 56 153Z"/></g><g data-mml-node="mstyle" transform="translate(1802.6,0)"><g data-mml-node="mfrac"><g data-mml-node="mn" transform="translate(220,394) scale(0.707)"><path data-c="31" d="M213 578L200 573Q186 568 160 563T102 556H83V602H102Q149 604 189 617T245 641T273 663Q275 666 285 666Q294 666 302 660V361L303 61Q310 54 315 52T339 48T401 46H427V0H416Q395 3 257 3Q121 3 100 0H88V46H114Q136 46 152 46T177 47T193 50T201 52T207 57T213 61V578Z"/></g><g data-mml-node="mn" transform="translate(220,-345) scale(0.707)"><path data-c="33" d="M127 463Q100 463 85 480T69 524Q69 579 117 622T233 665Q268 665 277 664Q351 652 390 611T430 522Q430 470 396 421T302 350L299 348Q299 347 308 345T337 336T375 315Q457 262 457 175Q457 96 395 37T238 -22Q158 -22 100 21T42 130Q42 158 60 175T105 193Q133 193 151 175T169 130Q169 119 166 110T159 94T148 82T136 74T126 70T118 67L114 66Q165 21 238 21Q293 21 321 74Q338 107 338 175V195Q338 290 274 322Q259 328 213 329L171 330L168 332Q166 335 166 348Q166 366 174 366Q202 366 232 371Q266 376 294 413T322 525V533Q322 590 287 612Q265 626 240 626Q208 626 181 615T143 592T132 580H135Q138 579 143 578T153 573T165 566T175 555T183 540T186 520Q186 498 172 481T127 463Z"/></g><rect width="553.6" height="60" x="120" y="220"/></g></g></g></g></svg></g><path fill="#000000" fill-opacity="0" stroke="#1a1a1a" stroke-opacity="0.22" stroke-width="0.7" stroke-linecap="butt" d="M 320 116 L 321.30876331287106 115.97858349905462 L 322.6161251692057 115.91435692954414 L 323.9206856131824 115.80738906688788 L 325.22104768880206 115.65779445495241 L 326.51581893578356 115.46573328339517 L 327.8036128806451 115.23141121612922 L 329.08305052137496 114.95507917109335 L 330.35276180410085 114.63703305156272 L 331.6113870901785 114.27761342928835 L 332.8575786121265 113.87720517980424 L 334.09000191684936 113.43623707029303 L 335.3073372946036 112.95518130045147 L 336.5082811921758 112.43455299684703 L 337.69154760876006 111.87490966130753 L 338.8558694730399 111.2768505739342 L 340 110.64101615137756 L 341.1227140260147 109.96808726106315 L 342.2228093207841 109.25878449210181 L 343.2991078747121 108.5138673836646 L 344.3504571603488 107.73413361164941 L 345.37573136654584 106.92041813450948 L 346.37383260400276 106.07359229915909 L 347.3436920809148 105.19456290791342 L 348.2842712474619 104.2842712474619 L 349.19456290791345 103.34369208091485 L 350.0735922991591 102.37383260400276 L 350.9204181345095 101.37573136654582 L 351.73413361164944 100.35045716034882 L 352.5138673836646 99.29910787471209 L 353.2587844921018 98.2228093207841 L 353.96808726106315 97.12271402601472 L 354.6410161513775 96 L 355.2768505739342 94.85586947303992 L 355.8749096613075 93.69154760876006 L 356.43455299684706 92.50828119217579 L 356.9551813004515 91.3073372946036 L 357.43623707029303 90.09000191684935 L 357.8772051798042 88.85757861212647 L 358.27761342928835 87.61138709017848 L 358.63703305156275 86.35276180410082 L 358.95507917109336 85.08305052137493 L 359.23141121612923 83.80361288064513 L 359.46573328339514 82.51581893578356 L 359.6577944549524 81.22104768880206 L 359.8073890668879 79.92068561318243 L 359.91435692954417 78.61612516920573 L 359.9785834990546 77.30876331287104 L 360 76 L 359.9785834990546 74.69123668712896 L 359.91435692954417 73.38387483079427 L 359.8073890668879 72.07931438681757 L 359.6577944549524 70.77895231119794 L 359.46573328339514 69.48418106421646 L 359.23141121612923 68.19638711935488 L 358.95507917109336 66.91694947862507 L 358.63703305156275 65.64723819589918 L 358.27761342928835 64.38861290982152 L 357.87720517980426 63.14242138787355 L 357.43623707029303 61.90999808315067 L 356.9551813004515 60.692662705396415 L 356.43455299684706 59.49171880782421 L 355.8749096613075 58.30845239123995 L 355.2768505739342 57.14413052696009 L 354.6410161513776 56.00000000000001 L 353.96808726106315 54.87728597398528 L 353.2587844921018 53.77719067921592 L 352.5138673836646 52.70089212528792 L 351.73413361164944 51.649542839651176 L 350.9204181345095 50.62426863345419 L 350.0735922991591 49.62616739599724 L 349.19456290791345 48.65630791908515 L 348.2842712474619 47.7157287525381 L 347.3436920809149 46.80543709208658 L 346.37383260400276 45.92640770084091 L 345.37573136654584 45.079581865490525 L 344.3504571603488 44.2658663883506 L 343.2991078747121 43.4861326163354 L 342.2228093207841 42.74121550789819 L 341.1227140260147 42.03191273893685 L 340 41.358983848622444 L 338.8558694730399 40.7231494260658 L 337.69154760876006 40.12509033869247 L 336.5082811921758 39.56544700315297 L 335.3073372946036 39.04481869954853 L 334.09000191684936 38.56376292970698 L 332.8575786121265 38.12279482019578 L 331.6113870901785 37.72238657071165 L 330.35276180410085 37.362966948437276 L 329.08305052137496 37.044920828906655 L 327.8036128806451 36.76858878387078 L 326.51581893578356 36.53426671660483 L 325.22104768880206 36.34220554504758 L 323.9206856131824 36.192610933112135 L 322.6161251692057 36.08564307045586 L 321.30876331287106 36.02141650094538 L 320 36 L 318.69123668712894 36.02141650094538 L 317.3838748307943 36.08564307045586 L 316.0793143868176 36.19261093311212 L 314.77895231119794 36.34220554504758 L 313.4841810642165 36.53426671660483 L 312.1963871193549 36.76858878387078 L 310.91694947862504 37.044920828906655 L 309.6472381958992 37.36296694843726 L 308.3886129098215 37.722386570711635 L 307.1424213878735 38.122794820195764 L 305.90999808315064 38.56376292970697 L 304.6926627053964 39.04481869954853 L 303.4917188078242 39.56544700315297 L 302.30845239123994 40.12509033869247 L 301.1441305269601 40.7231494260658 L 300 41.35898384862246 L 298.8772859739853 42.03191273893684 L 297.7771906792159 42.74121550789819 L 296.7008921252879 43.4861326163354 L 295.6495428396512 44.26586638835059 L 294.6242686334542 45.07958186549051 L 293.62616739599724 45.92640770084091 L 292.6563079190852 46.805437092086564 L 291.7157287525381 47.7157287525381 L 290.80543709208655 48.65630791908515 L 289.9264077008409 49.62616739599724 L 289.0795818654905 50.624268633454165 L 288.2658663883506 51.64954283965116 L 287.4861326163354 52.70089212528791 L 286.7412155078982 53.77719067921591 L 286.03191273893685 54.87728597398529 L 285.3589838486225 55.999999999999986 L 284.7231494260658 57.14413052696008 L 284.1250903386925 58.308452391239946 L 283.565447003153 59.49171880782418 L 283.04481869954856 60.69266270539639 L 282.56376292970697 61.909998083150676 L 282.1227948201958 63.142421387873526 L 281.72238657071165 64.3886129098215 L 281.36296694843725 65.64723819589918 L 281.04492082890664 66.91694947862506 L 280.76858878387077 68.19638711935485 L 280.53426671660486 69.48418106421644 L 280.3422055450476 70.77895231119794 L 280.1926109331121 72.07931438681759 L 280.08564307045583 73.3838748307943 L 280.02141650094535 74.69123668712894 L 280 76 L 280.02141650094535 77.30876331287104 L 280.08564307045583 78.6161251692057 L 280.1926109331121 79.9206856131824 L 280.3422055450476 81.22104768880206 L 280.53426671660486 82.51581893578354 L 280.76858878387077 83.80361288064513 L 281.04492082890664 85.08305052137493 L 281.36296694843725 86.35276180410081 L 281.72238657071165 87.61138709017848 L 282.1227948201958 88.85757861212646 L 282.56376292970697 90.0900019168493 L 283.04481869954856 91.3073372946036 L 283.565447003153 92.5082811921758 L 284.1250903386925 93.69154760876005 L 284.7231494260658 94.8558694730399 L 285.3589838486225 96 L 286.03191273893685 97.1227140260147 L 286.7412155078982 98.22280932078408 L 287.4861326163354 99.29910787471208 L 288.2658663883506 100.35045716034882 L 289.0795818654905 101.37573136654582 L 289.9264077008409 102.37383260400276 L 290.80543709208655 103.34369208091485 L 291.7157287525381 104.2842712474619 L 292.6563079190851 105.19456290791342 L 293.62616739599724 106.07359229915907 L 294.62426863345416 106.92041813450946 L 295.6495428396512 107.7341336116494 L 296.7008921252879 108.5138673836646 L 297.7771906792159 109.25878449210181 L 298.8772859739853 109.96808726106316 L 300 110.64101615137753 L 301.1441305269601 111.2768505739342 L 302.30845239123994 111.87490966130753 L 303.4917188078242 112.43455299684702 L 304.6926627053964 112.95518130045146 L 305.9099980831507 113.43623707029303 L 307.1424213878735 113.87720517980422 L 308.3886129098215 114.27761342928835 L 309.64723819589915 114.63703305156272 L 310.91694947862504 114.95507917109333 L 312.1963871193549 115.2314112161292 L 313.48418106421644 115.46573328339517 L 314.77895231119794 115.65779445495241 L 316.0793143868176 115.80738906688788 L 317.3838748307943 115.91435692954414 L 318.69123668712894 115.97858349905462 L 320 116" aria-label="retracing.reference-2"><title>retracing.reference-2</title></path><path fill="#000000" fill-opacity="0" stroke="#d94f14" stroke-opacity="1" stroke-width="1.35" stroke-linecap="butt" d="M 320 116 L 320.87259540138245 115.99048108319636 L 321.74477549461346 115.96192886327431 L 322.6161251692057 115.91435692954414 L 323.4862297099063 115.84778792366981 L 324.35467499407855 115.76225352889278 L 325.22104768880206 115.65779445495241 L 326.08493544759665 115.53446041871042 L 326.94592710667723 115.39231012048832 L 327.8036128806451 115.23141121612922 L 328.6575845575241 115.05184028479734 L 329.50743569304694 114.85368279253046 L 330.35276180410085 114.63703305156272 L 331.19316056123967 114.40199417543715 L 332.0282319801709 114.14867802992907 L 332.8575786121265 113.87720517980424 L 333.6808057330268 113.58770483143633 L 334.49752153134807 113.28031477131194 L 335.3073372946036 112.95518130045147 L 336.10986759434945 112.61245916477789 L 336.90473046962796 112.252311481466 L 337.69154760876006 111.87490966130753 L 338.46994452940135 111.48043332712886 L 339.23955075677554 111.0690702283003 L 340 110.64101615137754 L 340.75093032642087 110.19647482691786 L 341.49198433387295 109.73565783251543 L 342.2228093207841 109.25878449210181 L 342.9430574540419 108.76608177155967 L 343.6523859345433 108.2577841706993 L 344.3504571603488 107.7341336116494 L 345.03693888736234 107.19537932371527 L 345.71150438746156 106.64177772475912 L 346.37383260400276 106.07359229915909 L 347.0236083046264 105.49109347240496 L 347.66052223129077 104.89455848239022 L 348.2842712474619 104.2842712474619 L 348.8945584823902 103.66052223129077 L 349.49109347240494 103.0236083046264 L 350.0735922991591 102.37383260400276 L 350.6417777247591 101.71150438746156 L 351.19537932371526 101.03693888736237 L 351.73413361164944 100.35045716034882 L 352.2577841706993 99.65238593454329 L 352.7660817715597 98.94305745404185 L 353.2587844921018 98.22280932078408 L 353.73565783251547 97.49198433387295 L 354.1964748269179 96.75093032642087 L 354.6410161513776 96 L 355.06907022830035 95.2395507567755 L 355.4804333271289 94.46994452940136 L 355.8749096613075 93.69154760876006 L 356.252311481466 92.90473046962798 L 356.6124591647779 92.10986759434948 L 356.9551813004515 91.30733729460358 L 357.28031477131196 90.49752153134807 L 357.5877048314363 89.68080573302674 L 357.87720517980426 88.85757861212646 L 358.1486780299291 88.02823198017091 L 358.40199417543715 87.19316056123968 L 358.63703305156275 86.35276180410082 L 358.85368279253044 85.50743569304692 L 359.0518402847973 84.6575845575241 L 359.23141121612923 83.80361288064512 L 359.39231012048833 82.9459271066772 L 359.5344604187104 82.08493544759666 L 359.6577944549524 81.22104768880206 L 359.76225352889276 80.35467499407858 L 359.8477879236698 79.48622970990633 L 359.91435692954417 78.6161251692057 L 359.9619288632743 77.74477549461344 L 359.99048108319636 76.87259540138244 L 360 76 L 359.99048108319636 75.12740459861755 L 359.9619288632743 74.25522450538656 L 359.91435692954417 73.38387483079427 L 359.8477879236698 72.51377029009367 L 359.76225352889276 71.6453250059214 L 359.6577944549524 70.77895231119793 L 359.5344604187104 69.91506455240332 L 359.39231012048833 69.05407289332277 L 359.23141121612923 68.19638711935485 L 359.0518402847973 67.34241544247587 L 358.85368279253044 66.49256430695308 L 358.63703305156275 65.64723819589918 L 358.40199417543715 64.80683943876032 L 358.1486780299291 63.97176801982907 L 357.8772051798042 63.142421387873526 L 357.5877048314363 62.319194266973255 L 357.28031477131196 61.502478468651915 L 356.9551813004515 60.6926627053964 L 356.6124591647779 59.890132405650505 L 356.252311481466 59.09526953037201 L 355.8749096613075 58.30845239123995 L 355.4804333271289 57.53005547059864 L 355.0690702283003 56.760449243224485 L 354.6410161513775 55.99999999999999 L 355.06907022830035 56.7604492432245 L 355.4804333271289 57.53005547059863 L 355.8749096613075 58.30845239123995 L 356.252311481466 59.09526953037201 L 356.6124591647779 59.890132405650505 L 356.9551813004515 60.6926627053964 L 357.28031477131196 61.50247846865194 L 357.5877048314363 62.319194266973234 L 357.8772051798042 63.142421387873526 L 358.1486780299291 63.97176801982908 L 358.40199417543715 64.8068394387603 L 358.63703305156275 65.64723819589918 L 358.85368279253044 66.49256430695308 L 359.0518402847973 67.34241544247587 L 359.23141121612923 68.19638711935485 L 359.39231012048833 69.0540728933228 L 359.5344604187104 69.91506455240332 L 359.6577944549524 70.77895231119793 L 359.76225352889276 71.64532500592142 L 359.8477879236698 72.51377029009367 L 359.91435692954417 73.38387483079427 L 359.9619288632743 74.25522450538656 L 359.99048108319636 75.12740459861755 L 360 76 L 359.99048108319636 76.87259540138245 L 359.9619288632743 77.74477549461344 L 359.91435692954417 78.6161251692057 L 359.8477879236698 79.48622970990633 L 359.76225352889276 80.35467499407858 L 359.6577944549524 81.22104768880206 L 359.5344604187104 82.08493544759668 L 359.39231012048833 82.9459271066772 L 359.23141121612923 83.80361288064512 L 359.0518402847973 84.65758455752412 L 358.85368279253044 85.50743569304692 L 358.63703305156275 86.35276180410082 L 358.40199417543715 87.1931605612397 L 358.1486780299291 88.02823198017091 L 357.87720517980426 88.85757861212646 L 357.5877048314363 89.68080573302676 L 357.28031477131196 90.49752153134807 L 356.9551813004515 91.30733729460358 L 356.6124591647779 92.10986759434951 L 356.252311481466 92.90473046962796 L 355.8749096613075 93.69154760876006 L 355.4804333271289 94.46994452940137 L 355.06907022830035 95.2395507567755 L 354.6410161513776 96 L 354.1964748269179 96.75093032642087 L 353.73565783251547 97.49198433387295 L 353.2587844921018 98.22280932078408 L 352.7660817715597 98.94305745404185 L 352.2577841706993 99.65238593454329 L 351.73413361164944 100.35045716034882 L 351.19537932371526 101.03693888736237 L 350.6417777247591 101.71150438746156 L 350.0735922991591 102.37383260400276 L 349.49109347240494 103.0236083046264 L 348.89455848239027 103.66052223129077 L 348.2842712474619 104.2842712474619 L 347.66052223129077 104.89455848239022 L 347.0236083046264 105.49109347240496 L 346.37383260400276 106.07359229915909 L 345.71150438746156 106.64177772475912 L 345.03693888736234 107.19537932371527 L 344.3504571603488 107.7341336116494 L 343.6523859345433 108.25778417069931 L 342.9430574540419 108.76608177155967 L 342.2228093207841 109.25878449210181 L 341.49198433387295 109.73565783251543 L 340.75093032642087 110.19647482691786 L 340 110.64101615137754 L 339.2395507567755 111.06907022830032 L 338.46994452940135 111.48043332712886 L 337.69154760876006 111.87490966130753 L 336.90473046962796 112.252311481466 L 336.1098675943495 112.61245916477789 L 335.3073372946036 112.95518130045147 L 334.49752153134807 113.28031477131194 L 333.6808057330268 113.58770483143633 L 332.8575786121265 113.87720517980424 L 332.0282319801709 114.14867802992907 L 331.19316056123967 114.40199417543715 L 330.35276180410085 114.63703305156272 L 329.5074356930469 114.85368279253046 L 328.6575845575241 115.05184028479734 L 327.8036128806451 115.23141121612922 L 326.94592710667723 115.39231012048833 L 326.08493544759665 115.53446041871042 L 325.22104768880206 115.65779445495241 L 324.35467499407855 115.76225352889278 L 323.48622970990635 115.84778792366981 L 322.6161251692057 115.91435692954414 L 321.74477549461346 115.96192886327431 L 320.87259540138245 115.99048108319636 L 320 116" aria-label="retracing.slice-2"><title>retracing.slice-2</title></path><polygon fill="#d94f14" fill-opacity="1" stroke="#000000" stroke-opacity="0" stroke-width="0" transform="scale(1)" points="342.13566196973375,109.31684962840399,337.97391997582685,110.28116470977088,339.6341731237164,112.77987627474249" aria-label="outward traversal"><title>10_Polygon</title></polygon><polygon fill="#d94f14" fill-opacity="1" stroke="#000000" stroke-opacity="0" stroke-width="0" transform="scale(1)" points="359.4398414828202,82.67074986864408,361.58579447910705,78.97685142151163,358.62779065177114,78.47663810954747" aria-label="return traversal"><title>11_Polygon</title></polygon><circle fill="#141414" fill-opacity="1" cx="320" cy="116" stroke="#000000" stroke-opacity="0" stroke-width="0" r="2.8" aria-label="fixed retracing basepoint 2"><title>fixed retracing basepoint 2</title></circle><rect x="314" y="125" width="12" height="10" fill="#ffffff" fill-opacity="1" stroke="#000000" stroke-opacity="0" stroke-width="0" rx="0" transform="rotate(0, 320, 130)"><title>12_Rectangle</title></rect><g transform="rotate(0, 320, 130)translate(315.367, 126.765)" aria-label="y_0" data-tex="y_0"><title>13_Equation</title><svg style="font-size: 10px" xmlns="http://www.w3.org/2000/svg" width="9.266" height="6.470000000000001" role="img" focusable="false" viewBox="0 -442 926.6 647"><g stroke="none" fill="#141414" stroke-width="0" transform="scale(1,-1)" fill-opacity="1"><g data-mml-node="math"><g data-mml-node="msub"><g data-mml-node="mi"><path data-c="1D466" d="M21 287Q21 301 36 335T84 406T158 442Q199 442 224 419T250 355Q248 336 247 334Q247 331 231 288T198 191T182 105Q182 62 196 45T238 27Q261 27 281 38T312 61T339 94Q339 95 344 114T358 173T377 247Q415 397 419 404Q432 431 462 431Q475 431 483 424T494 412T496 403Q496 390 447 193T391 -23Q363 -106 294 -155T156 -205Q111 -205 77 -183T43 -117Q43 -95 50 -80T69 -58T89 -48T106 -45Q150 -45 150 -87Q150 -107 138 -122T115 -142T102 -147L99 -148Q101 -153 118 -160T152 -167H160Q177 -167 186 -165Q219 -156 247 -127T290 -65T313 -9T321 21L315 17Q309 13 296 6T270 -6Q250 -11 231 -11Q185 -11 150 11T104 82Q103 89 103 113Q103 170 138 262T173 379Q173 380 173 381Q173 390 173 393T169 400T158 404H154Q131 404 112 385T82 344T65 302T57 280Q55 278 41 278H27Q21 284 21 287Z"/></g><g data-mml-node="mn" transform="translate(523,-150) scale(0.707)"><path data-c="30" d="M96 585Q152 666 249 666Q297 666 345 640T423 548Q460 465 460 320Q460 165 417 83Q397 41 362 16T301 -15T250 -22Q224 -22 198 -16T137 16T82 83Q39 165 39 320Q39 494 96 585ZM321 597Q291 629 250 629Q208 629 178 597Q153 571 145 525T137 333Q137 175 145 125T181 46Q209 16 250 16Q290 16 318 46Q347 76 354 130T362 333Q362 478 354 524T321 597Z"/></g></g></g></g></svg></g><g transform="rotate(0, 320, 141)translate(307.0195, 134.8725)" aria-label="s=\tfrac23" data-tex="s%3D%5Ctfrac23"><title>14_Equation</title><svg style="font-size: 10px" xmlns="http://www.w3.org/2000/svg" width="25.961" height="12.255" role="img" focusable="false" viewBox="0 -864.9 2596.1 1225.5"><g stroke="none" fill="#141414" stroke-width="0" transform="scale(1,-1)" fill-opacity="1"><g data-mml-node="math"><g data-mml-node="mi"><path data-c="1D460" d="M131 289Q131 321 147 354T203 415T300 442Q362 442 390 415T419 355Q419 323 402 308T364 292Q351 292 340 300T328 326Q328 342 337 354T354 372T367 378Q368 378 368 379Q368 382 361 388T336 399T297 405Q249 405 227 379T204 326Q204 301 223 291T278 274T330 259Q396 230 396 163Q396 135 385 107T352 51T289 7T195 -10Q118 -10 86 19T53 87Q53 126 74 143T118 160Q133 160 146 151T160 120Q160 94 142 76T111 58Q109 57 108 57T107 55Q108 52 115 47T146 34T201 27Q237 27 263 38T301 66T318 97T323 122Q323 150 302 164T254 181T195 196T148 231Q131 256 131 289Z"/></g><g data-mml-node="mo" transform="translate(746.8,0)"><path data-c="3D" d="M56 347Q56 360 70 367H707Q722 359 722 347Q722 336 708 328L390 327H72Q56 332 56 347ZM56 153Q56 168 72 173H708Q722 163 722 153Q722 140 707 133H70Q56 140 56 153Z"/></g><g data-mml-node="mstyle" transform="translate(1802.6,0)"><g data-mml-node="mfrac"><g data-mml-node="mn" transform="translate(220,394) scale(0.707)"><path data-c="32" d="M109 429Q82 429 66 447T50 491Q50 562 103 614T235 666Q326 666 387 610T449 465Q449 422 429 383T381 315T301 241Q265 210 201 149L142 93L218 92Q375 92 385 97Q392 99 409 186V189H449V186Q448 183 436 95T421 3V0H50V19V31Q50 38 56 46T86 81Q115 113 136 137Q145 147 170 174T204 211T233 244T261 278T284 308T305 340T320 369T333 401T340 431T343 464Q343 527 309 573T212 619Q179 619 154 602T119 569T109 550Q109 549 114 549Q132 549 151 535T170 489Q170 464 154 447T109 429Z"/></g><g data-mml-node="mn" transform="translate(220,-345) scale(0.707)"><path data-c="33" d="M127 463Q100 463 85 480T69 524Q69 579 117 622T233 665Q268 665 277 664Q351 652 390 611T430 522Q430 470 396 421T302 350L299 348Q299 347 308 345T337 336T375 315Q457 262 457 175Q457 96 395 37T238 -22Q158 -22 100 21T42 130Q42 158 60 175T105 193Q133 193 151 175T169 130Q169 119 166 110T159 94T148 82T136 74T126 70T118 67L114 66Q165 21 238 21Q293 21 321 74Q338 107 338 175V195Q338 290 274 322Q259 328 213 329L171 330L168 332Q166 335 166 348Q166 366 174 366Q202 366 232 371Q266 376 294 413T322 525V533Q322 590 287 612Q265 626 240 626Q208 626 181 615T143 592T132 580H135Q138 579 143 578T153 573T165 566T175 555T183 540T186 520Q186 498 172 481T127 463Z"/></g><rect width="553.6" height="60" x="120" y="220"/></g></g></g></g></svg></g><path fill="#000000" fill-opacity="0" stroke="#1a1a1a" stroke-opacity="0.22" stroke-width="0.7" stroke-linecap="butt" d="M 448 116 L 449.30876331287106 115.97858349905462 L 450.6161251692057 115.91435692954414 L 451.9206856131824 115.80738906688788 L 453.22104768880206 115.65779445495241 L 454.51581893578356 115.46573328339517 L 455.8036128806451 115.23141121612922 L 457.08305052137496 114.95507917109335 L 458.35276180410085 114.63703305156272 L 459.6113870901785 114.27761342928835 L 460.8575786121265 113.87720517980424 L 462.09000191684936 113.43623707029303 L 463.3073372946036 112.95518130045147 L 464.5082811921758 112.43455299684703 L 465.69154760876006 111.87490966130753 L 466.8558694730399 111.2768505739342 L 468 110.64101615137756 L 469.1227140260147 109.96808726106315 L 470.2228093207841 109.25878449210181 L 471.2991078747121 108.5138673836646 L 472.3504571603488 107.73413361164941 L 473.37573136654584 106.92041813450948 L 474.37383260400276 106.07359229915909 L 475.3436920809148 105.19456290791342 L 476.2842712474619 104.2842712474619 L 477.19456290791345 103.34369208091485 L 478.0735922991591 102.37383260400276 L 478.9204181345095 101.37573136654582 L 479.73413361164944 100.35045716034882 L 480.5138673836646 99.29910787471209 L 481.2587844921018 98.2228093207841 L 481.96808726106315 97.12271402601472 L 482.6410161513775 96 L 483.2768505739342 94.85586947303992 L 483.8749096613075 93.69154760876006 L 484.43455299684706 92.50828119217579 L 484.9551813004515 91.3073372946036 L 485.43623707029303 90.09000191684935 L 485.8772051798042 88.85757861212647 L 486.27761342928835 87.61138709017848 L 486.63703305156275 86.35276180410082 L 486.95507917109336 85.08305052137493 L 487.23141121612923 83.80361288064513 L 487.46573328339514 82.51581893578356 L 487.6577944549524 81.22104768880206 L 487.8073890668879 79.92068561318243 L 487.91435692954417 78.61612516920573 L 487.9785834990546 77.30876331287104 L 488 76 L 487.9785834990546 74.69123668712896 L 487.91435692954417 73.38387483079427 L 487.8073890668879 72.07931438681757 L 487.6577944549524 70.77895231119794 L 487.46573328339514 69.48418106421646 L 487.23141121612923 68.19638711935488 L 486.95507917109336 66.91694947862507 L 486.63703305156275 65.64723819589918 L 486.27761342928835 64.38861290982152 L 485.87720517980426 63.14242138787355 L 485.43623707029303 61.90999808315067 L 484.9551813004515 60.692662705396415 L 484.43455299684706 59.49171880782421 L 483.8749096613075 58.30845239123995 L 483.2768505739342 57.14413052696009 L 482.6410161513776 56.00000000000001 L 481.96808726106315 54.87728597398528 L 481.2587844921018 53.77719067921592 L 480.5138673836646 52.70089212528792 L 479.73413361164944 51.649542839651176 L 478.9204181345095 50.62426863345419 L 478.0735922991591 49.62616739599724 L 477.19456290791345 48.65630791908515 L 476.2842712474619 47.7157287525381 L 475.3436920809149 46.80543709208658 L 474.37383260400276 45.92640770084091 L 473.37573136654584 45.079581865490525 L 472.3504571603488 44.2658663883506 L 471.2991078747121 43.4861326163354 L 470.2228093207841 42.74121550789819 L 469.1227140260147 42.03191273893685 L 468 41.358983848622444 L 466.8558694730399 40.7231494260658 L 465.69154760876006 40.12509033869247 L 464.5082811921758 39.56544700315297 L 463.3073372946036 39.04481869954853 L 462.09000191684936 38.56376292970698 L 460.8575786121265 38.12279482019578 L 459.6113870901785 37.72238657071165 L 458.35276180410085 37.362966948437276 L 457.08305052137496 37.044920828906655 L 455.8036128806451 36.76858878387078 L 454.51581893578356 36.53426671660483 L 453.22104768880206 36.34220554504758 L 451.9206856131824 36.192610933112135 L 450.6161251692057 36.08564307045586 L 449.30876331287106 36.02141650094538 L 448 36 L 446.69123668712894 36.02141650094538 L 445.3838748307943 36.08564307045586 L 444.0793143868176 36.19261093311212 L 442.77895231119794 36.34220554504758 L 441.4841810642165 36.53426671660483 L 440.1963871193549 36.76858878387078 L 438.91694947862504 37.044920828906655 L 437.64723819589915 37.36296694843726 L 436.3886129098215 37.722386570711635 L 435.1424213878735 38.122794820195764 L 433.90999808315064 38.56376292970697 L 432.6926627053964 39.04481869954853 L 431.4917188078242 39.56544700315297 L 430.30845239123994 40.12509033869247 L 429.1441305269601 40.7231494260658 L 428 41.35898384862246 L 426.8772859739853 42.03191273893684 L 425.7771906792159 42.74121550789819 L 424.7008921252879 43.4861326163354 L 423.6495428396512 44.26586638835059 L 422.6242686334542 45.07958186549051 L 421.62616739599724 45.92640770084091 L 420.6563079190852 46.805437092086564 L 419.7157287525381 47.7157287525381 L 418.80543709208655 48.65630791908515 L 417.9264077008409 49.62616739599724 L 417.0795818654905 50.624268633454165 L 416.2658663883506 51.64954283965116 L 415.4861326163354 52.70089212528791 L 414.7412155078982 53.77719067921591 L 414.03191273893685 54.87728597398529 L 413.3589838486225 55.999999999999986 L 412.7231494260658 57.14413052696008 L 412.1250903386925 58.308452391239946 L 411.565447003153 59.49171880782418 L 411.04481869954856 60.69266270539639 L 410.56376292970697 61.909998083150676 L 410.1227948201958 63.142421387873526 L 409.72238657071165 64.3886129098215 L 409.36296694843725 65.64723819589918 L 409.0449208289067 66.91694947862506 L 408.76858878387077 68.19638711935485 L 408.53426671660486 69.48418106421644 L 408.3422055450476 70.77895231119794 L 408.1926109331121 72.07931438681759 L 408.08564307045583 73.3838748307943 L 408.0214165009454 74.69123668712894 L 408 76 L 408.0214165009454 77.30876331287104 L 408.08564307045583 78.6161251692057 L 408.1926109331121 79.9206856131824 L 408.3422055450476 81.22104768880206 L 408.53426671660486 82.51581893578354 L 408.76858878387077 83.80361288064513 L 409.04492082890664 85.08305052137493 L 409.36296694843725 86.35276180410081 L 409.72238657071165 87.61138709017848 L 410.12279482019574 88.85757861212646 L 410.56376292970697 90.0900019168493 L 411.0448186995485 91.3073372946036 L 411.56544700315294 92.5082811921758 L 412.1250903386925 93.69154760876005 L 412.7231494260658 94.8558694730399 L 413.3589838486225 96 L 414.03191273893685 97.1227140260147 L 414.7412155078982 98.22280932078408 L 415.4861326163354 99.29910787471208 L 416.26586638835056 100.35045716034882 L 417.0795818654905 101.37573136654582 L 417.9264077008409 102.37383260400276 L 418.80543709208655 103.34369208091485 L 419.7157287525381 104.2842712474619 L 420.6563079190852 105.19456290791342 L 421.6261673959972 106.07359229915907 L 422.62426863345416 106.92041813450946 L 423.6495428396512 107.7341336116494 L 424.7008921252879 108.5138673836646 L 425.7771906792159 109.25878449210181 L 426.8772859739853 109.96808726106316 L 428 110.64101615137753 L 429.1441305269601 111.2768505739342 L 430.30845239123994 111.87490966130753 L 431.4917188078242 112.43455299684702 L 432.6926627053964 112.95518130045146 L 433.90999808315064 113.43623707029303 L 435.1424213878735 113.87720517980422 L 436.3886129098215 114.27761342928835 L 437.64723819589915 114.63703305156272 L 438.91694947862504 114.95507917109333 L 440.1963871193549 115.2314112161292 L 441.48418106421644 115.46573328339517 L 442.77895231119794 115.65779445495241 L 444.0793143868176 115.80738906688788 L 445.3838748307943 115.91435692954414 L 446.69123668712894 115.97858349905462 L 448 116" aria-label="retracing.reference-3"><title>retracing.reference-3</title></path><g transform="rotate(0, 448, 57)translate(445.395, 53.475)" aria-label="k" data-tex="k"><title>15_Equation</title><svg style="font-size: 10px" xmlns="http://www.w3.org/2000/svg" width="5.21" height="7.05" role="img" focusable="false" viewBox="0 -694 521 705"><g stroke="none" fill="#141414" stroke-width="0" transform="scale(1,-1)" fill-opacity="1"><g data-mml-node="math"><g data-mml-node="mi"><path data-c="1D458" d="M121 647Q121 657 125 670T137 683Q138 683 209 688T282 694Q294 694 294 686Q294 679 244 477Q194 279 194 272Q213 282 223 291Q247 309 292 354T362 415Q402 442 438 442Q468 442 485 423T503 369Q503 344 496 327T477 302T456 291T438 288Q418 288 406 299T394 328Q394 353 410 369T442 390L458 393Q446 405 434 405H430Q398 402 367 380T294 316T228 255Q230 254 243 252T267 246T293 238T320 224T342 206T359 180T365 147Q365 130 360 106T354 66Q354 26 381 26Q429 26 459 145Q461 153 479 153H483Q499 153 499 144Q499 139 496 130Q455 -11 378 -11Q333 -11 305 15T277 90Q277 108 280 121T283 145Q283 167 269 183T234 206T200 217T182 220H180Q168 178 159 139T145 81T136 44T129 20T122 7T111 -2Q98 -11 83 -11Q66 -11 57 -1T48 16Q48 26 85 176T158 471L195 616Q196 629 188 632T149 637H144Q134 637 131 637T124 640T121 647Z"/></g></g></g></svg></g><circle fill="#141414" fill-opacity="1" cx="448" cy="116" stroke="#000000" stroke-opacity="0" stroke-width="0" r="2.8" aria-label="fixed retracing basepoint 3"><title>fixed retracing basepoint 3</title></circle><rect x="442" y="125" width="12" height="10" fill="#ffffff" fill-opacity="1" stroke="#000000" stroke-opacity="0" stroke-width="0" rx="0" transform="rotate(0, 448, 130)"><title>16_Rectangle</title></rect><g transform="rotate(0, 448, 130)translate(443.367, 126.765)" aria-label="y_0" data-tex="y_0"><title>17_Equation</title><svg style="font-size: 10px" xmlns="http://www.w3.org/2000/svg" width="9.266" height="6.470000000000001" role="img" focusable="false" viewBox="0 -442 926.6 647"><g stroke="none" fill="#141414" stroke-width="0" transform="scale(1,-1)" fill-opacity="1"><g data-mml-node="math"><g data-mml-node="msub"><g data-mml-node="mi"><path data-c="1D466" d="M21 287Q21 301 36 335T84 406T158 442Q199 442 224 419T250 355Q248 336 247 334Q247 331 231 288T198 191T182 105Q182 62 196 45T238 27Q261 27 281 38T312 61T339 94Q339 95 344 114T358 173T377 247Q415 397 419 404Q432 431 462 431Q475 431 483 424T494 412T496 403Q496 390 447 193T391 -23Q363 -106 294 -155T156 -205Q111 -205 77 -183T43 -117Q43 -95 50 -80T69 -58T89 -48T106 -45Q150 -45 150 -87Q150 -107 138 -122T115 -142T102 -147L99 -148Q101 -153 118 -160T152 -167H160Q177 -167 186 -165Q219 -156 247 -127T290 -65T313 -9T321 21L315 17Q309 13 296 6T270 -6Q250 -11 231 -11Q185 -11 150 11T104 82Q103 89 103 113Q103 170 138 262T173 379Q173 380 173 381Q173 390 173 393T169 400T158 404H154Q131 404 112 385T82 344T65 302T57 280Q55 278 41 278H27Q21 284 21 287Z"/></g><g data-mml-node="mn" transform="translate(523,-150) scale(0.707)"><path data-c="30" d="M96 585Q152 666 249 666Q297 666 345 640T423 548Q460 465 460 320Q460 165 417 83Q397 41 362 16T301 -15T250 -22Q224 -22 198 -16T137 16T82 83Q39 165 39 320Q39 494 96 585ZM321 597Q291 629 250 629Q208 629 178 597Q153 571 145 525T137 333Q137 175 145 125T181 46Q209 16 250 16Q290 16 318 46Q347 76 354 130T362 333Q362 478 354 524T321 597Z"/></g></g></g></g></svg></g><g transform="rotate(0, 448, 141)translate(436.487, 137.26)" aria-label="s=1" data-tex="s%3D1"><title>18_Equation</title><svg style="font-size: 10px" xmlns="http://www.w3.org/2000/svg" width="23.026" height="7.48" role="img" focusable="false" viewBox="0 -666 2302.6 748"><g stroke="none" fill="#141414" stroke-width="0" transform="scale(1,-1)" fill-opacity="1"><g data-mml-node="math"><g data-mml-node="mi"><path data-c="1D460" d="M131 289Q131 321 147 354T203 415T300 442Q362 442 390 415T419 355Q419 323 402 308T364 292Q351 292 340 300T328 326Q328 342 337 354T354 372T367 378Q368 378 368 379Q368 382 361 388T336 399T297 405Q249 405 227 379T204 326Q204 301 223 291T278 274T330 259Q396 230 396 163Q396 135 385 107T352 51T289 7T195 -10Q118 -10 86 19T53 87Q53 126 74 143T118 160Q133 160 146 151T160 120Q160 94 142 76T111 58Q109 57 108 57T107 55Q108 52 115 47T146 34T201 27Q237 27 263 38T301 66T318 97T323 122Q323 150 302 164T254 181T195 196T148 231Q131 256 131 289Z"/></g><g data-mml-node="mo" transform="translate(746.8,0)"><path data-c="3D" d="M56 347Q56 360 70 367H707Q722 359 722 347Q722 336 708 328L390 327H72Q56 332 56 347ZM56 153Q56 168 72 173H708Q722 163 722 153Q722 140 707 133H70Q56 140 56 153Z"/></g><g data-mml-node="mn" transform="translate(1802.6,0)"><path data-c="31" d="M213 578L200 573Q186 568 160 563T102 556H83V602H102Q149 604 189 617T245 641T273 663Q275 666 285 666Q294 666 302 660V361L303 61Q310 54 315 52T339 48T401 46H427V0H416Q395 3 257 3Q121 3 100 0H88V46H114Q136 46 152 46T177 47T193 50T201 52T207 57T213 61V578Z"/></g></g></g></svg></g><g transform="rotate(0, 256, 14)translate(197.274, 8.555499999999999)" aria-label="a\mathbin{\#}a^{-1}\sim k\quad\text{relative to }y_0" data-tex="a%5Cmathbin%7B%5C%23%7Da%5E%7B-1%7D%5Csim%20k%5Cquad%5Ctext%7Brelative%20to%20%7Dy_0"><title>19_Equation</title><svg style="font-size: 10px" xmlns="http://www.w3.org/2000/svg" width="117.452" height="10.889000000000003" role="img" focusable="false" viewBox="0 -883.9 11745.2 1088.9"><g stroke="none" fill="#141414" stroke-width="0" transform="scale(1,-1)" fill-opacity="1"><g data-mml-node="math"><g data-mml-node="mi"><path data-c="1D44E" d="M33 157Q33 258 109 349T280 441Q331 441 370 392Q386 422 416 422Q429 422 439 414T449 394Q449 381 412 234T374 68Q374 43 381 35T402 26Q411 27 422 35Q443 55 463 131Q469 151 473 152Q475 153 483 153H487Q506 153 506 144Q506 138 501 117T481 63T449 13Q436 0 417 -8Q409 -10 393 -10Q359 -10 336 5T306 36L300 51Q299 52 296 50Q294 48 292 46Q233 -10 172 -10Q117 -10 75 30T33 157ZM351 328Q351 334 346 350T323 385T277 405Q242 405 210 374T160 293Q131 214 119 129Q119 126 119 118T118 106Q118 61 136 44T179 26Q217 26 254 59T298 110Q300 114 325 217T351 328Z"/></g><g data-mml-node="TeXAtom" data-mjx-texclass="BIN" transform="translate(751.2,0)"><g data-mml-node="mi"><path data-c="23" d="M56 347Q56 360 70 367H313L355 524Q394 676 401 686Q406 694 416 694Q434 694 436 676Q436 672 396 522Q355 374 355 369L354 367H543L585 524Q626 679 630 685Q636 694 646 694Q653 694 659 689T665 678Q665 668 626 522Q585 374 585 369L584 367H762Q777 359 777 347Q777 334 767 331T722 327H667H572L552 251L531 174Q531 173 647 173H720Q756 173 766 170T777 153T762 133H519L477 -24Q436 -179 432 -185Q426 -194 416 -194Q409 -194 403 -189T397 -177Q397 -167 436 -21Q477 125 477 131L478 133H289L247 -24Q206 -179 202 -185Q196 -194 186 -194Q179 -194 173 -189T167 -177Q167 -167 206 -21Q247 125 247 131L248 133H70Q56 140 56 153Q56 168 72 173H260L280 249L301 326Q301 327 186 327H72Q56 332 56 347ZM531 326Q531 327 437 327H342L322 251L301 174Q301 173 395 173H490L510 249L531 326Z"/></g></g><g data-mml-node="msup" transform="translate(1806.4,0)"><g data-mml-node="mi"><path data-c="1D44E" d="M33 157Q33 258 109 349T280 441Q331 441 370 392Q386 422 416 422Q429 422 439 414T449 394Q449 381 412 234T374 68Q374 43 381 35T402 26Q411 27 422 35Q443 55 463 131Q469 151 473 152Q475 153 483 153H487Q506 153 506 144Q506 138 501 117T481 63T449 13Q436 0 417 -8Q409 -10 393 -10Q359 -10 336 5T306 36L300 51Q299 52 296 50Q294 48 292 46Q233 -10 172 -10Q117 -10 75 30T33 157ZM351 328Q351 334 346 350T323 385T277 405Q242 405 210 374T160 293Q131 214 119 129Q119 126 119 118T118 106Q118 61 136 44T179 26Q217 26 254 59T298 110Q300 114 325 217T351 328Z"/></g><g data-mml-node="TeXAtom" transform="translate(562,413) scale(0.707)" data-mjx-texclass="ORD"><g data-mml-node="mo"><path data-c="2212" d="M84 237T84 250T98 270H679Q694 262 694 250T679 230H98Q84 237 84 250Z"/></g><g data-mml-node="mn" transform="translate(778,0)"><path data-c="31" d="M213 578L200 573Q186 568 160 563T102 556H83V602H102Q149 604 189 617T245 641T273 663Q275 666 285 666Q294 666 302 660V361L303 61Q310 54 315 52T339 48T401 46H427V0H416Q395 3 257 3Q121 3 100 0H88V46H114Q136 46 152 46T177 47T193 50T201 52T207 57T213 61V578Z"/></g></g></g><g data-mml-node="mo" transform="translate(3599.9,0)"><path data-c="223C" d="M55 166Q55 241 101 304T222 367Q260 367 296 349T362 304T421 252T484 208T554 189Q616 189 655 236T694 338Q694 350 698 358T708 367Q722 367 722 334Q722 260 677 197T562 134H554Q517 134 481 152T414 196T355 248T292 293T223 311Q179 311 145 286Q109 257 96 218T80 156T69 133Q55 133 55 166Z"/></g><g data-mml-node="mi" transform="translate(4655.7,0)"><path data-c="1D458" d="M121 647Q121 657 125 670T137 683Q138 683 209 688T282 694Q294 694 294 686Q294 679 244 477Q194 279 194 272Q213 282 223 291Q247 309 292 354T362 415Q402 442 438 442Q468 442 485 423T503 369Q503 344 496 327T477 302T456 291T438 288Q418 288 406 299T394 328Q394 353 410 369T442 390L458 393Q446 405 434 405H430Q398 402 367 380T294 316T228 255Q230 254 243 252T267 246T293 238T320 224T342 206T359 180T365 147Q365 130 360 106T354 66Q354 26 381 26Q429 26 459 145Q461 153 479 153H483Q499 153 499 144Q499 139 496 130Q455 -11 378 -11Q333 -11 305 15T277 90Q277 108 280 121T283 145Q283 167 269 183T234 206T200 217T182 220H180Q168 178 159 139T145 81T136 44T129 20T122 7T111 -2Q98 -11 83 -11Q66 -11 57 -1T48 16Q48 26 85 176T158 471L195 616Q196 629 188 632T149 637H144Q134 637 131 637T124 640T121 647Z"/></g><g data-mml-node="mstyle" transform="translate(5176.7,0)"><g data-mml-node="mspace"/></g><g data-mml-node="mtext" transform="translate(6176.7,0)"><path data-c="72" d="M36 46H50Q89 46 97 60V68Q97 77 97 91T98 122T98 161T98 203Q98 234 98 269T98 328L97 351Q94 370 83 376T38 385H20V408Q20 431 22 431L32 432Q42 433 60 434T96 436Q112 437 131 438T160 441T171 442H174V373Q213 441 271 441H277Q322 441 343 419T364 373Q364 352 351 337T313 322Q288 322 276 338T263 372Q263 381 265 388T270 400T273 405Q271 407 250 401Q234 393 226 386Q179 341 179 207V154Q179 141 179 127T179 101T180 81T180 66V61Q181 59 183 57T188 54T193 51T200 49T207 48T216 47T225 47T235 46T245 46H276V0H267Q249 3 140 3Q37 3 28 0H20V46H36Z"/><path data-c="65" d="M28 218Q28 273 48 318T98 391T163 433T229 448Q282 448 320 430T378 380T406 316T415 245Q415 238 408 231H126V216Q126 68 226 36Q246 30 270 30Q312 30 342 62Q359 79 369 104L379 128Q382 131 395 131H398Q415 131 415 121Q415 117 412 108Q393 53 349 21T250 -11Q155 -11 92 58T28 218ZM333 275Q322 403 238 411H236Q228 411 220 410T195 402T166 381T143 340T127 274V267H333V275Z" transform="translate(392,0)"/><path data-c="6C" d="M42 46H56Q95 46 103 60V68Q103 77 103 91T103 124T104 167T104 217T104 272T104 329Q104 366 104 407T104 482T104 542T103 586T103 603Q100 622 89 628T44 637H26V660Q26 683 28 683L38 684Q48 685 67 686T104 688Q121 689 141 690T171 693T182 694H185V379Q185 62 186 60Q190 52 198 49Q219 46 247 46H263V0H255L232 1Q209 2 183 2T145 3T107 3T57 1L34 0H26V46H42Z" transform="translate(836,0)"/><path data-c="61" d="M137 305T115 305T78 320T63 359Q63 394 97 421T218 448Q291 448 336 416T396 340Q401 326 401 309T402 194V124Q402 76 407 58T428 40Q443 40 448 56T453 109V145H493V106Q492 66 490 59Q481 29 455 12T400 -6T353 12T329 54V58L327 55Q325 52 322 49T314 40T302 29T287 17T269 6T247 -2T221 -8T190 -11Q130 -11 82 20T34 107Q34 128 41 147T68 188T116 225T194 253T304 268H318V290Q318 324 312 340Q290 411 215 411Q197 411 181 410T156 406T148 403Q170 388 170 359Q170 334 154 320ZM126 106Q126 75 150 51T209 26Q247 26 276 49T315 109Q317 116 318 175Q318 233 317 233Q309 233 296 232T251 223T193 203T147 166T126 106Z" transform="translate(1114,0)"/><path data-c="74" d="M27 422Q80 426 109 478T141 600V615H181V431H316V385H181V241Q182 116 182 100T189 68Q203 29 238 29Q282 29 292 100Q293 108 293 146V181H333V146V134Q333 57 291 17Q264 -10 221 -10Q187 -10 162 2T124 33T105 68T98 100Q97 107 97 248V385H18V422H27Z" transform="translate(1614,0)"/><path data-c="69" d="M69 609Q69 637 87 653T131 669Q154 667 171 652T188 609Q188 579 171 564T129 549Q104 549 87 564T69 609ZM247 0Q232 3 143 3Q132 3 106 3T56 1L34 0H26V46H42Q70 46 91 49Q100 53 102 60T104 102V205V293Q104 345 102 359T88 378Q74 385 41 385H30V408Q30 431 32 431L42 432Q52 433 70 434T106 436Q123 437 142 438T171 441T182 442H185V62Q190 52 197 50T232 46H255V0H247Z" transform="translate(2003,0)"/><path data-c="76" d="M338 431Q344 429 422 429Q479 429 503 431H508V385H497Q439 381 423 345Q421 341 356 172T288 -2Q283 -11 263 -11Q244 -11 239 -2Q99 359 98 364Q93 378 82 381T43 385H19V431H25L33 430Q41 430 53 430T79 430T104 429T122 428Q217 428 232 431H240V385H226Q187 384 184 370Q184 366 235 234L286 102L377 341V349Q377 363 367 372T349 383T335 385H331V431H338Z" transform="translate(2281,0)"/><path data-c="65" d="M28 218Q28 273 48 318T98 391T163 433T229 448Q282 448 320 430T378 380T406 316T415 245Q415 238 408 231H126V216Q126 68 226 36Q246 30 270 30Q312 30 342 62Q359 79 369 104L379 128Q382 131 395 131H398Q415 131 415 121Q415 117 412 108Q393 53 349 21T250 -11Q155 -11 92 58T28 218ZM333 275Q322 403 238 411H236Q228 411 220 410T195 402T166 381T143 340T127 274V267H333V275Z" transform="translate(2809,0)"/><path data-c="20" d="" transform="translate(3253,0)"/><path data-c="74" d="M27 422Q80 426 109 478T141 600V615H181V431H316V385H181V241Q182 116 182 100T189 68Q203 29 238 29Q282 29 292 100Q293 108 293 146V181H333V146V134Q333 57 291 17Q264 -10 221 -10Q187 -10 162 2T124 33T105 68T98 100Q97 107 97 248V385H18V422H27Z" transform="translate(3503,0)"/><path data-c="6F" d="M28 214Q28 309 93 378T250 448Q340 448 405 380T471 215Q471 120 407 55T250 -10Q153 -10 91 57T28 214ZM250 30Q372 30 372 193V225V250Q372 272 371 288T364 326T348 362T317 390T268 410Q263 411 252 411Q222 411 195 399Q152 377 139 338T126 246V226Q126 130 145 91Q177 30 250 30Z" transform="translate(3892,0)"/><path data-c="A0" d="" transform="translate(4392,0)"/></g><g data-mml-node="msub" transform="translate(10818.7,0)"><g data-mml-node="mi"><path data-c="1D466" d="M21 287Q21 301 36 335T84 406T158 442Q199 442 224 419T250 355Q248 336 247 334Q247 331 231 288T198 191T182 105Q182 62 196 45T238 27Q261 27 281 38T312 61T339 94Q339 95 344 114T358 173T377 247Q415 397 419 404Q432 431 462 431Q475 431 483 424T494 412T496 403Q496 390 447 193T391 -23Q363 -106 294 -155T156 -205Q111 -205 77 -183T43 -117Q43 -95 50 -80T69 -58T89 -48T106 -45Q150 -45 150 -87Q150 -107 138 -122T115 -142T102 -147L99 -148Q101 -153 118 -160T152 -167H160Q177 -167 186 -165Q219 -156 247 -127T290 -65T313 -9T321 21L315 17Q309 13 296 6T270 -6Q250 -11 231 -11Q185 -11 150 11T104 82Q103 89 103 113Q103 170 138 262T173 379Q173 380 173 381Q173 390 173 393T169 400T158 404H154Q131 404 112 385T82 344T65 302T57 280Q55 278 41 278H27Q21 284 21 287Z"/></g><g data-mml-node="mn" transform="translate(523,-150) scale(0.707)"><path data-c="30" d="M96 585Q152 666 249 666Q297 666 345 640T423 548Q460 465 460 320Q460 165 417 83Q397 41 362 16T301 -15T250 -22Q224 -22 198 -16T137 16T82 83Q39 165 39 320Q39 494 96 585ZM321 597Q291 629 250 629Q208 629 178 597Q153 571 145 525T137 333Q137 175 145 125T181 46Q209 16 250 16Q290 16 318 46Q347 76 354 130T362 333Q362 478 354 524T321 597Z"/></g></g></g></g></svg></g></svg>