<svg
  version="1.2"
  xmlns="http://www.w3.org/2000/svg"
  viewBox="0 0 800 800"
  penrose="0"
>
  <penrose>
    <croppedViewBox>
      171.05791878593516 299.00080764319597 455.3231097574843 164.84060097722352
    </croppedViewBox>
  </penrose>
  <polygon
    fill="#90834f"
    fill-opacity="0.5"
    stroke="#000000"
    stroke-opacity="1"
    stroke-width="2"
    transform="scale(1)"
    points="257.6051093763605,309.79059309217615,252.57230273229987,309.7152316951379,247.54095196233925,309.81933057669204,242.51210181944217,310.0525893448609,237.49606390317956,310.44963598058723,232.50866811042005,311.11691567232407,227.5862390710194,312.15587414495263,222.7765429635591,313.6278098369565,218.14551106284026,315.5850450915568,213.76173235350925,318.04946240207744,209.6897831891687,320.99796960173546,205.95790297343808,324.37016747543464,202.56176641042865,328.074686016799,199.46036424139797,332.03162765557784,196.55496849817823,336.135151913148,193.73419621282247,340.29530945914314,190.91264172346285,344.4508668526952,188.034450323664,348.5666663702315,185.10789292950417,352.6450017681394,182.18125156340918,356.7233038342719,179.33616328697292,360.8590453768751,176.68816771577002,365.12314723265774,174.39687279720968,369.5914158776094,172.642476636758,374.2979011339899,171.5371015570328,379.197289131724,171.05791878593516,384.19865105173477,171.10575060762287,389.22676923124624,171.54787071473646,394.2332904574903,172.27032649652134,399.21022994553647,173.22347477547015,404.15547958249846,174.3832529586517,409.0611604441759,175.71630002449032,413.92223122300163,177.1830512329375,418.74948430885985,178.70417446584446,423.5626394360509,180.18762627206982,428.3849193436529,181.586373543003,433.2246996229506,182.92547884145554,438.0682582604173,184.31072615766527,442.89877622741807,185.91249176750165,447.65235873886525,187.9511454564715,452.2343701482022,190.6468178272535,456.452586834142,194.17087286697077,460.0230528320446,198.48447204200664,462.58851494843265,203.34158045893642,463.8414086204195,208.34280835439603,463.7236834451106,213.17524272109856,462.4260037975671,217.73381938111737,460.3486525255015,222.10592343905378,457.92619193415317,226.47944853799106,455.4880664484983,230.9708827702868,453.2810201078559,235.6839311043629,451.5362625789915,240.59416498221648,450.4391958168677,245.61585572870385,450.0905354570234,250.63180671377847,450.468593625801,255.5644632723656,451.46256569578105,260.39996748024976,452.8706739874454,265.17158521008713,454.4504898431283,269.9748381105769,455.9524428305753,274.885302326358,457.0863301685933,279.9038558688516,457.58041633399307,284.9347691849591,457.29565534685736,289.85336398514323,456.19212411711896,294.5364709054349,454.33249756235546,298.90017149438984,451.82375197274035,302.91959201887664,448.78829183020537,306.5878632993775,445.3546816422505,309.8939184485744,441.5663263588882,312.7680881438551,437.4286805860533,315.08476579593224,432.95894543717236,316.7581059557365,428.21631720716334,317.8664493343278,423.3096166214933,318.52536182051557,418.3249013622681,318.95909522691136,413.31643520819256,319.3875264826752,408.3102271866527,319.98617418175087,403.3267562329941,320.81130768423014,398.3783835131177,321.73687038014134,393.43823489179846,322.5583607041615,388.4866018875473,323.15175234381036,383.50543674882056,323.4058223192195,378.49717984514496,323.2803268414321,373.47886375745765,322.71273441307403,368.4944320331052,321.72307018578533,363.5717516106812,320.3235730325176,358.7564719948104,318.52591246433235,354.0642773054073,316.4026766452209,349.5124924498328,314.03231610736185,345.08111235411485,311.4685679247923,340.76358147329256,308.73407836925935,336.5418630326496,305.81031648112304,332.45164989543593,302.6477692270658,328.53939329283463,299.18842950217015,324.88895185312964,295.38599786818065,321.5950978967823,291.2614300744772,318.7197270129178,286.8567138396133,316.2913312953383,282.24265265524645,314.2893966434799,277.47309575275347,312.6960614105251,272.5864946496061,311.50183954141517,267.62961337188005,310.6534753120792,262.63057996769464,310.09297049030886"
  >
    <title>`a`.poly</title>
  </polygon>
  <polygon
    fill="#256660"
    fill-opacity="0.5"
    stroke="#000000"
    stroke-opacity="1"
    stroke-width="2"
    transform="scale(1)"
    points="568.7968758026543,299.8841890356967,563.848984620953,299.00080764319597,558.8200934881703,299.1577886588616,553.946975889993,300.394764830779,549.3677058847513,302.4605164646921,545.0542818161673,305.033302239897,540.875607697263,307.803742012969,536.7241121919701,310.62543859712514,532.4794576488794,313.3069128303973,528.0911709106225,315.7587949749153,523.530158608866,317.8757934467583,518.8262168768581,319.6691265180409,514.057710722325,321.24527419878405,509.2938708461228,322.8411888448977,504.651547395693,324.7479990699615,500.2917069517031,327.23484922804,496.40477271488305,330.41778011905876,493.21846120072405,334.299460020374,490.98941462159735,338.79906205275694,489.851192094989,343.6903471566368,489.672743237514,348.7104639785067,490.1202377412969,353.7023048311134,490.810115153248,358.6693329456201,491.3958969982315,363.64820774057483,491.5460433359067,368.66644162068366,490.9800893892379,373.65546549238616,489.5348119194436,378.4625683955087,487.22635790297414,382.9286944881259,484.30364132429696,387.0216419535975,481.10238792439407,390.89165896811096,477.91261860389784,394.7744664988602,474.98114014209875,398.8535245839248,472.49972809715973,403.2253230595238,470.57488633097853,407.86899979580306,469.31203790997785,412.73306749453826,468.8925340322846,417.74869588160345,469.4408152210179,422.747110427479,470.92189714256847,427.55412685918066,473.2275187212381,432.02844312992215,476.20856294799273,436.0886618674326,479.64843546933486,439.7639778157342,483.38106891297775,443.13800701880933,487.31691540451004,446.2816093101366,491.4025003123388,449.2356454484532,495.60400059595406,452.01389705068823,499.92789906738426,454.6013936480343,504.38719269954123,456.95147259988926,508.9836631089047,459.0050583476654,513.7199335248077,460.703364948395,518.5714186665638,462.0391488217266,523.5061649153515,463.02674258339226,528.4987806335732,463.6156257837696,533.5249001639318,463.7387738112099,538.5459676571854,463.4113202773184,543.5356505153857,462.7746667532809,548.4967812251106,461.97012308507635,553.4393410824388,461.0338358132296,558.3484639476065,459.9331989465294,563.2060712963971,458.62864877222717,567.9964438972191,457.084797903692,572.6953529256482,455.27771350286696,577.2877232833093,453.2155833974646,581.7628263828374,450.9132076050644,586.1068218136236,448.3702518491453,590.3056354518062,445.5886639692884,594.3514863719078,442.5977127804381,598.2086552816645,439.36191778748366,601.8376793675734,435.8702636475772,605.1865761409573,432.10937608143286,608.2423440034356,428.1142282718819,610.9881765082881,423.8921295719593,613.4721817961117,419.5225861417115,615.7365101972418,415.0289627925806,617.8185334961865,410.46070823631845,619.7126899258981,405.80174235430917,621.4076066124776,401.0760678071834,622.8948712314336,396.2860664166323,624.1808053782185,391.43589238004625,625.248949418108,386.5367426795058,626.0121621033828,381.58931212845215,626.3810285434195,376.5961676479742,626.3140752800496,371.5896271105886,625.7652053110456,366.6156197014733,624.6746439739275,361.73356024454716,623.0668055088341,356.99161143267776,620.9874838656151,352.434241788319,618.4632594427314,348.111387192491,615.5735091918968,344.0233452846012,612.4720055797927,340.07709768877,609.3239911577102,336.16798070326325,606.2157246794026,332.22506237231175,603.169221243293,328.2278426334856,600.1111612836164,324.22297361951405,596.9443436025913,320.3068146412264,593.5991467845245,316.52987498517854,590.0624546084424,312.9338947883138,586.3095333440642,309.55696563529983,582.3267117756645,306.4734436540906,578.0699267898117,303.7824904264248,573.5584197867236,301.5491095453558"
  >
    <title>`b`.poly</title>
  </polygon>
  <g
    transform="rotate(0, 247.7278700379484, 389.15377829605814)translate(237.1783700379484, 382.90627829605813)"
  >
    <title>`a`.eq</title>
    <svg
      style="font-size: 15px"
      xmlns="http://www.w3.org/2000/svg"
      width="21.098999999999997"
      height="12.495"
      role="img"
      focusable="false"
      viewBox="0 -683 1406.6 833"
    >
      <g
        stroke="none"
        fill="#000000"
        stroke-width="0"
        transform="scale(1,-1)"
        fill-opacity="1"
      >
        <g data-mml-node="math">
          <g data-mml-node="msub">
            <g data-mml-node="mi">
              <path
                data-c="1D440"
                d="M289 629Q289 635 232 637Q208 637 201 638T194 648Q194 649 196 659Q197 662 198 666T199 671T201 676T203 679T207 681T212 683T220 683T232 684Q238 684 262 684T307 683Q386 683 398 683T414 678Q415 674 451 396L487 117L510 154Q534 190 574 254T662 394Q837 673 839 675Q840 676 842 678T846 681L852 683H948Q965 683 988 683T1017 684Q1051 684 1051 673Q1051 668 1048 656T1045 643Q1041 637 1008 637Q968 636 957 634T939 623Q936 618 867 340T797 59Q797 55 798 54T805 50T822 48T855 46H886Q892 37 892 35Q892 19 885 5Q880 0 869 0Q864 0 828 1T736 2Q675 2 644 2T609 1Q592 1 592 11Q592 13 594 25Q598 41 602 43T625 46Q652 46 685 49Q699 52 704 61Q706 65 742 207T813 490T848 631L654 322Q458 10 453 5Q451 4 449 3Q444 0 433 0Q418 0 415 7Q413 11 374 317L335 624L267 354Q200 88 200 79Q206 46 272 46H282Q288 41 289 37T286 19Q282 3 278 1Q274 0 267 0Q265 0 255 0T221 1T157 2Q127 2 95 1T58 0Q43 0 39 2T35 11Q35 13 38 25T43 40Q45 46 65 46Q135 46 154 86Q158 92 223 354T289 629Z"
              />
            </g>
            <g data-mml-node="mn" transform="translate(1003,-150) scale(0.707)">
              <path
                data-c="31"
                d="M213 578L200 573Q186 568 160 563T102 556H83V602H102Q149 604 189 617T245 641T273 663Q275 666 285 666Q294 666 302 660V361L303 61Q310 54 315 52T339 48T401 46H427V0H416Q395 3 257 3Q121 3 100 0H88V46H114Q136 46 152 46T177 47T193 50T201 52T207 57T213 61V578Z"
              />
            </g>
          </g>
        </g>
      </g>
    </svg>
  </g>
  <g
    transform="rotate(0, 547.9867221460073, 385.0637588719284)translate(537.4372221460073, 378.8162588719284)"
  >
    <title>`b`.eq</title>
    <svg
      style="font-size: 15px"
      xmlns="http://www.w3.org/2000/svg"
      width="21.098999999999997"
      height="12.495"
      role="img"
      focusable="false"
      viewBox="0 -683 1406.6 833"
    >
      <g
        stroke="none"
        fill="#000000"
        stroke-width="0"
        transform="scale(1,-1)"
        fill-opacity="1"
      >
        <g data-mml-node="math">
          <g data-mml-node="msub">
            <g data-mml-node="mi">
              <path
                data-c="1D440"
                d="M289 629Q289 635 232 637Q208 637 201 638T194 648Q194 649 196 659Q197 662 198 666T199 671T201 676T203 679T207 681T212 683T220 683T232 684Q238 684 262 684T307 683Q386 683 398 683T414 678Q415 674 451 396L487 117L510 154Q534 190 574 254T662 394Q837 673 839 675Q840 676 842 678T846 681L852 683H948Q965 683 988 683T1017 684Q1051 684 1051 673Q1051 668 1048 656T1045 643Q1041 637 1008 637Q968 636 957 634T939 623Q936 618 867 340T797 59Q797 55 798 54T805 50T822 48T855 46H886Q892 37 892 35Q892 19 885 5Q880 0 869 0Q864 0 828 1T736 2Q675 2 644 2T609 1Q592 1 592 11Q592 13 594 25Q598 41 602 43T625 46Q652 46 685 49Q699 52 704 61Q706 65 742 207T813 490T848 631L654 322Q458 10 453 5Q451 4 449 3Q444 0 433 0Q418 0 415 7Q413 11 374 317L335 624L267 354Q200 88 200 79Q206 46 272 46H282Q288 41 289 37T286 19Q282 3 278 1Q274 0 267 0Q265 0 255 0T221 1T157 2Q127 2 95 1T58 0Q43 0 39 2T35 11Q35 13 38 25T43 40Q45 46 65 46Q135 46 154 86Q158 92 223 354T289 629Z"
              />
            </g>
            <g data-mml-node="mn" transform="translate(1003,-150) scale(0.707)">
              <path
                data-c="32"
                d="M109 429Q82 429 66 447T50 491Q50 562 103 614T235 666Q326 666 387 610T449 465Q449 422 429 383T381 315T301 241Q265 210 201 149L142 93L218 92Q375 92 385 97Q392 99 409 186V189H449V186Q448 183 436 95T421 3V0H50V19V31Q50 38 56 46T86 81Q115 113 136 137Q145 147 170 174T204 211T233 244T261 278T284 308T305 340T320 369T333 401T340 431T343 464Q343 527 309 573T212 619Q179 619 154 602T119 569T109 550Q109 549 114 549Q132 549 151 535T170 489Q170 464 154 447T109 429Z"
              />
            </g>
          </g>
        </g>
      </g>
    </svg>
  </g>
  <g>
    <line
      x1="345.6465170749574"
      y1="368.9784790997235"
      x2="348.23632455025916"
      y2="368.9455693421014"
      stroke="#000000"
      stroke-opacity="0.94"
      stroke-width="2"
    />
    <title>`m`.s3</title>
  </g>
  <g>
    <line
      x1="348.23632455025916"
      y1="368.9455693421014"
      x2="350.82582578381476"
      y2="368.93607261749014"
      stroke="#000000"
      stroke-opacity="0.92"
      stroke-width="2"
    />
    <title>`m`.s4</title>
  </g>
  <g>
    <line
      x1="350.82582578381476"
      y1="368.93607261749014"
      x2="353.4145218372323"
      y2="368.949994806408"
      stroke="#000000"
      stroke-opacity="0.9"
      stroke-width="2"
    />
    <title>`m`.s5</title>
  </g>
  <g>
    <line
      x1="353.4145218372323"
      y1="368.949994806408"
      x2="356.0025539578863"
      y2="368.9873227727207"
      stroke="#000000"
      stroke-opacity="0.88"
      stroke-width="2"
    />
    <title>`m`.s6</title>
  </g>
  <g>
    <line
      x1="356.0025539578863"
      y1="368.9873227727207"
      x2="358.588912174972"
      y2="369.048099934334"
      stroke="#000000"
      stroke-opacity="0.86"
      stroke-width="2"
    />
    <title>`m`.s7</title>
  </g>
  <g>
    <line
      x1="358.588912174972"
      y1="369.048099934334"
      x2="361.17501802055534"
      y2="369.13250857119056"
      stroke="#000000"
      stroke-opacity="0.84"
      stroke-width="2"
    />
    <title>`m`.s8</title>
  </g>
  <g>
    <line
      x1="361.17501802055534"
      y1="369.13250857119056"
      x2="363.7592257711492"
      y2="369.240706771322"
      stroke="#000000"
      stroke-opacity="0.82"
      stroke-width="2"
    />
    <title>`m`.s9</title>
  </g>
  <g>
    <marker
      id="blobs__registry-LavendaireWombat86913-`m`.arrow-endArrowId"
      markerUnits="strokeWidth"
      markerWidth="9.95"
      markerHeight="8.12"
      viewBox="0 0 9.95 8.12"
      refX="2.36"
      refY="4.06"
      orient="auto-start-reverse"
    >
      <path
        d="M9.95 4.06 0 8.12 2.36 4.06 0 0 9.95 4.06z"
        fill="#000000"
        fill-opacity="1"
      />
    </marker>
    <line
      x1="347.88401820864044"
      y1="368.8186787610445"
      x2="344.08152542992354"
      y2="368.9704253962634"
      stroke="#000000"
      stroke-opacity="1"
      stroke-width="1.5"
      marker-end="url(#blobs__registry-LavendaireWombat86913-`m`.arrow-endArrowId)"
    />
    <title>`m`.arrow</title>
  </g>
  <g
    transform="rotate(0, 397.39929701464376, 353.4858198603557)translate(392.92929701464374, 346.7433198603557)"
  >
    <title>`m`.eq</title>
    <svg
      style="font-size: 15px"
      xmlns="http://www.w3.org/2000/svg"
      width="8.94"
      height="13.485"
      role="img"
      focusable="false"
      viewBox="0 -694 596 899"
    >
      <g
        stroke="none"
        fill="#000000"
        stroke-width="0"
        transform="scale(1,-1)"
        fill-opacity="1"
      >
        <g data-mml-node="math">
          <g data-mml-node="mi">
            <path
              data-c="1D719"
              d="M409 688Q413 694 421 694H429H442Q448 688 448 686Q448 679 418 563Q411 535 404 504T392 458L388 442Q388 441 397 441T429 435T477 418Q521 397 550 357T579 260T548 151T471 65T374 11T279 -10H275L251 -105Q245 -128 238 -160Q230 -192 227 -198T215 -205H209Q189 -205 189 -198Q189 -193 211 -103L234 -11Q234 -10 226 -10Q221 -10 206 -8T161 6T107 36T62 89T43 171Q43 231 76 284T157 370T254 422T342 441Q347 441 348 445L378 567Q409 686 409 688ZM122 150Q122 116 134 91T167 53T203 35T237 27H244L337 404Q333 404 326 403T297 395T255 379T211 350T170 304Q152 276 137 237Q122 191 122 150ZM500 282Q500 320 484 347T444 385T405 400T381 404H378L332 217L284 29Q284 27 285 27Q293 27 317 33T357 47Q400 66 431 100T475 170T494 234T500 282Z"
            />
          </g>
        </g>
      </g>
    </svg>
  </g>
  <polyline
    fill="none"
    stroke="#000000"
    stroke-opacity="0"
    stroke-width="2"
    stroke-linecap="butt"
    transform="scale(1)"
    points="337.8920103478826,369.2174312795076,340.46945868944704,369.1145726717353,343.05779545750426,369.0347961703427,345.6465170749574,368.9784790997235,348.23632455025916,368.9455693421014,350.82582578381476,368.93607261749014,353.4145218372323,368.949994806408,356.0025539578863,368.9873227727207,358.588912174972,369.048099934334,361.17501802055534,369.13250857119056,363.7592257711492,369.240706771322,366.3419429128067,369.3729028291366,368.92316798459456,369.529323880745,371.50308664350945,369.7101867395412,374.08041608248243,369.915492786545,376.65658784937375,370.1455768844564,379.2302280031319,370.40060433521967,381.80060288830583,370.6807653520275,384.3667810720648,370.9861906637328,386.9299250281633,371.3171258815034,389.48923472707247,371.67361411304853,392.04503173480384,372.0557598049029,394.59597730326465,372.4632235042183,397.14263831351906,372.8960910771231,399.68568793762586,373.35470217569843,402.22360097391936,373.83903063258964,404.75716590242376,374.349271123397,407.28563639641084,374.88527704210134,409.8086341807677,375.4470551683845,412.32565239053906,376.0345523955749,414.83604208829206,376.64764066605323,417.3404249836297,377.2865066243347,419.83863286032164,377.9511536942878,422.32974419832146,378.64139936702145,424.8134391187586,379.35723824324157,427.2901330821459,380.0989097525143,429.75979425212455,380.86650011236986,432.2213556449182,381.65968944391784,434.67391433177795,382.4781168000723,437.11648219546754,383.32141228653137,439.5501240340104,384.1900199205408,441.9743356650916,385.0839180858961,444.38843301206174,386.0029912784139,446.7923922131555,386.9472756750075,449.18597736664054,387.91665637483277,451.56888080134166,388.91108775095233,453.94148823087653,389.93092269443207,456.30297896983916,390.9759865212479,458.65284404219074,392.0461433388492,460.978688206599,393.1357841337365"
    endArrowhead="straight"
  >
    <title>`m`.poly</title>
  </polyline>
  <g>
    <line
      x1="439.5501240340104"
      y1="384.1900199205408"
      x2="441.9743356650916"
      y2="385.0839180858961"
      stroke="#000000"
      stroke-opacity="0.2"
      stroke-width="2"
    />
    <title>`m`.s40</title>
  </g>
  <g>
    <line
      x1="414.83604208829206"
      y1="376.64764066605323"
      x2="417.3404249836297"
      y2="377.2865066243347"
      stroke="#000000"
      stroke-opacity="0.4"
      stroke-width="2"
    />
    <title>`m`.s30</title>
  </g>
  <g>
    <line
      x1="441.9743356650916"
      y1="385.0839180858961"
      x2="444.38843301206174"
      y2="386.0029912784139"
      stroke="#000000"
      stroke-opacity="0.18"
      stroke-width="2"
    />
    <title>`m`.s41</title>
  </g>
  <g>
    <line
      x1="389.48923472707247"
      y1="371.67361411304853"
      x2="392.04503173480384"
      y2="372.0557598049029"
      stroke="#000000"
      stroke-opacity="0.6"
      stroke-width="2"
    />
    <title>`m`.s20</title>
  </g>
  <g>
    <line
      x1="417.3404249836297"
      y1="377.2865066243347"
      x2="419.83863286032164"
      y2="377.9511536942878"
      stroke="#000000"
      stroke-opacity="0.38"
      stroke-width="2"
    />
    <title>`m`.s31</title>
  </g>
  <g>
    <line
      x1="444.38843301206174"
      y1="386.0029912784139"
      x2="446.7923922131555"
      y2="386.9472756750075"
      stroke="#000000"
      stroke-opacity="0.16"
      stroke-width="2"
    />
    <title>`m`.s42</title>
  </g>
  <g>
    <line
      x1="363.7592257711492"
      y1="369.240706771322"
      x2="366.3419429128067"
      y2="369.3729028291366"
      stroke="#000000"
      stroke-opacity="0.8"
      stroke-width="2"
    />
    <title>`m`.s10</title>
  </g>
  <g>
    <line
      x1="392.04503173480384"
      y1="372.0557598049029"
      x2="394.59597730326465"
      y2="372.4632235042183"
      stroke="#000000"
      stroke-opacity="0.58"
      stroke-width="2"
    />
    <title>`m`.s21</title>
  </g>
  <g>
    <line
      x1="419.83863286032164"
      y1="377.9511536942878"
      x2="422.32974419832146"
      y2="378.64139936702145"
      stroke="#000000"
      stroke-opacity="0.36"
      stroke-width="2"
    />
    <title>`m`.s32</title>
  </g>
  <g>
    <line
      x1="446.7923922131555"
      y1="386.9472756750075"
      x2="449.18597736664054"
      y2="387.91665637483277"
      stroke="#000000"
      stroke-opacity="0.14"
      stroke-width="2"
    />
    <title>`m`.s43</title>
  </g>
  <g>
    <line
      x1="366.3419429128067"
      y1="369.3729028291366"
      x2="368.92316798459456"
      y2="369.529323880745"
      stroke="#000000"
      stroke-opacity="0.78"
      stroke-width="2"
    />
    <title>`m`.s11</title>
  </g>
  <g>
    <line
      x1="394.59597730326465"
      y1="372.4632235042183"
      x2="397.14263831351906"
      y2="372.8960910771231"
      stroke="#000000"
      stroke-opacity="0.56"
      stroke-width="2"
    />
    <title>`m`.s22</title>
  </g>
  <g>
    <line
      x1="422.32974419832146"
      y1="378.64139936702145"
      x2="424.8134391187586"
      y2="379.35723824324157"
      stroke="#000000"
      stroke-opacity="0.34"
      stroke-width="2"
    />
    <title>`m`.s33</title>
  </g>
  <g>
    <line
      x1="449.18597736664054"
      y1="387.91665637483277"
      x2="451.56888080134166"
      y2="388.91108775095233"
      stroke="#000000"
      stroke-opacity="0.12"
      stroke-width="2"
    />
    <title>`m`.s44</title>
  </g>
  <g>
    <line
      x1="368.92316798459456"
      y1="369.529323880745"
      x2="371.50308664350945"
      y2="369.7101867395412"
      stroke="#000000"
      stroke-opacity="0.76"
      stroke-width="2"
    />
    <title>`m`.s12</title>
  </g>
  <g>
    <line
      x1="397.14263831351906"
      y1="372.8960910771231"
      x2="399.68568793762586"
      y2="373.35470217569843"
      stroke="#000000"
      stroke-opacity="0.54"
      stroke-width="2"
    />
    <title>`m`.s23</title>
  </g>
  <g>
    <line
      x1="424.8134391187586"
      y1="379.35723824324157"
      x2="427.2901330821459"
      y2="380.0989097525143"
      stroke="#000000"
      stroke-opacity="0.32"
      stroke-width="2"
    />
    <title>`m`.s34</title>
  </g>
  <g>
    <line
      x1="451.56888080134166"
      y1="388.91108775095233"
      x2="453.94148823087653"
      y2="389.93092269443207"
      stroke="#000000"
      stroke-opacity="0.1"
      stroke-width="2"
    />
    <title>`m`.s45</title>
  </g>
  <g>
    <line
      x1="371.50308664350945"
      y1="369.7101867395412"
      x2="374.08041608248243"
      y2="369.915492786545"
      stroke="#000000"
      stroke-opacity="0.74"
      stroke-width="2"
    />
    <title>`m`.s13</title>
  </g>
  <g>
    <line
      x1="399.68568793762586"
      y1="373.35470217569843"
      x2="402.22360097391936"
      y2="373.83903063258964"
      stroke="#000000"
      stroke-opacity="0.52"
      stroke-width="2"
    />
    <title>`m`.s24</title>
  </g>
  <g>
    <line
      x1="427.2901330821459"
      y1="380.0989097525143"
      x2="429.75979425212455"
      y2="380.86650011236986"
      stroke="#000000"
      stroke-opacity="0.3"
      stroke-width="2"
    />
    <title>`m`.s35</title>
  </g>
  <g>
    <line
      x1="453.94148823087653"
      y1="389.93092269443207"
      x2="456.30297896983916"
      y2="390.9759865212479"
      stroke="#000000"
      stroke-opacity="0.08"
      stroke-width="2"
    />
    <title>`m`.s46</title>
  </g>
  <g>
    <line
      x1="374.08041608248243"
      y1="369.915492786545"
      x2="376.65658784937375"
      y2="370.1455768844564"
      stroke="#000000"
      stroke-opacity="0.72"
      stroke-width="2"
    />
    <title>`m`.s14</title>
  </g>
  <g>
    <line
      x1="402.22360097391936"
      y1="373.83903063258964"
      x2="404.75716590242376"
      y2="374.349271123397"
      stroke="#000000"
      stroke-opacity="0.5"
      stroke-width="2"
    />
    <title>`m`.s25</title>
  </g>
  <g>
    <line
      x1="429.75979425212455"
      y1="380.86650011236986"
      x2="432.2213556449182"
      y2="381.65968944391784"
      stroke="#000000"
      stroke-opacity="0.28"
      stroke-width="2"
    />
    <title>`m`.s36</title>
  </g>
  <g>
    <line
      x1="456.30297896983916"
      y1="390.9759865212479"
      x2="458.65284404219074"
      y2="392.0461433388492"
      stroke="#000000"
      stroke-opacity="0.06"
      stroke-width="2"
    />
    <title>`m`.s47</title>
  </g>
  <g>
    <line
      x1="376.65658784937375"
      y1="370.1455768844564"
      x2="379.2302280031319"
      y2="370.40060433521967"
      stroke="#000000"
      stroke-opacity="0.7"
      stroke-width="2"
    />
    <title>`m`.s15</title>
  </g>
  <g>
    <line
      x1="404.75716590242376"
      y1="374.349271123397"
      x2="407.28563639641084"
      y2="374.88527704210134"
      stroke="#000000"
      stroke-opacity="0.48"
      stroke-width="2"
    />
    <title>`m`.s26</title>
  </g>
  <g>
    <line
      x1="432.2213556449182"
      y1="381.65968944391784"
      x2="434.67391433177795"
      y2="382.4781168000723"
      stroke="#000000"
      stroke-opacity="0.26"
      stroke-width="2"
    />
    <title>`m`.s37</title>
  </g>
  <g>
    <line
      x1="458.65284404219074"
      y1="392.0461433388492"
      x2="460.978688206599"
      y2="393.1357841337365"
      stroke="#000000"
      stroke-opacity="0.04"
      stroke-width="2"
    />
    <title>`m`.s48</title>
  </g>
  <g>
    <line
      x1="379.2302280031319"
      y1="370.40060433521967"
      x2="381.80060288830583"
      y2="370.6807653520275"
      stroke="#000000"
      stroke-opacity="0.68"
      stroke-width="2"
    />
    <title>`m`.s16</title>
  </g>
  <g>
    <line
      x1="407.28563639641084"
      y1="374.88527704210134"
      x2="409.8086341807677"
      y2="375.4470551683845"
      stroke="#000000"
      stroke-opacity="0.46"
      stroke-width="2"
    />
    <title>`m`.s27</title>
  </g>
  <g>
    <line
      x1="434.67391433177795"
      y1="382.4781168000723"
      x2="437.11648219546754"
      y2="383.32141228653137"
      stroke="#000000"
      stroke-opacity="0.24"
      stroke-width="2"
    />
    <title>`m`.s38</title>
  </g>
  <g>
    <line
      x1="381.80060288830583"
      y1="370.6807653520275"
      x2="384.3667810720648"
      y2="370.9861906637328"
      stroke="#000000"
      stroke-opacity="0.66"
      stroke-width="2"
    />
    <title>`m`.s17</title>
  </g>
  <g>
    <line
      x1="409.8086341807677"
      y1="375.4470551683845"
      x2="412.32565239053906"
      y2="376.0345523955749"
      stroke="#000000"
      stroke-opacity="0.44"
      stroke-width="2"
    />
    <title>`m`.s28</title>
  </g>
  <g>
    <line
      x1="437.11648219546754"
      y1="383.32141228653137"
      x2="439.5501240340104"
      y2="384.1900199205408"
      stroke="#000000"
      stroke-opacity="0.22"
      stroke-width="2"
    />
    <title>`m`.s39</title>
  </g>
  <g>
    <line
      x1="384.3667810720648"
      y1="370.9861906637328"
      x2="386.9299250281633"
      y2="371.3171258815034"
      stroke="#000000"
      stroke-opacity="0.64"
      stroke-width="2"
    />
    <title>`m`.s18</title>
  </g>
  <g>
    <line
      x1="412.32565239053906"
      y1="376.0345523955749"
      x2="414.83604208829206"
      y2="376.64764066605323"
      stroke="#000000"
      stroke-opacity="0.42"
      stroke-width="2"
    />
    <title>`m`.s29</title>
  </g>
  <g>
    <line
      x1="386.9299250281633"
      y1="371.3171258815034"
      x2="389.48923472707247"
      y2="371.67361411304853"
      stroke="#000000"
      stroke-opacity="0.62"
      stroke-width="2"
    />
    <title>`m`.s19</title>
  </g>
  <g>
    <line
      x1="337.8920103478826"
      y1="369.2174312795076"
      x2="340.46945868944704"
      y2="369.1145726717353"
      stroke="#000000"
      stroke-opacity="1"
      stroke-width="2"
    />
    <title>`m`.s0</title>
  </g>
  <g>
    <line
      x1="340.46945868944704"
      y1="369.1145726717353"
      x2="343.05779545750426"
      y2="369.0347961703427"
      stroke="#000000"
      stroke-opacity="0.98"
      stroke-width="2"
    />
    <title>`m`.s1</title>
  </g>
  <g>
    <line
      x1="343.05779545750426"
      y1="369.0347961703427"
      x2="345.6465170749574"
      y2="368.9784790997235"
      stroke="#000000"
      stroke-opacity="0.96"
      stroke-width="2"
    />
    <title>`m`.s2</title>
  </g>
</svg>
