<svg version="1.2" xmlns="http://www.w3.org/2000/svg" viewBox="0 0 800 800">
  <polygon
    fill="#90834f"
    fill-opacity="0.5"
    stroke="#000000"
    stroke-opacity="1"
    stroke-width="2"
    stroke-linecap="butt"
    transform="scale(1)"
    points="595.6558149669864,344.82521966358263,592.2215447883148,341.1839797770184,588.4461853730385,337.8951743993118,584.282709687238,335.1209503283536,579.7811058301099,332.92641229288625,575.1041117430217,331.13360440020176,570.3478018124065,329.5358020829756,565.543554449315,328.10847309346036,560.6813695313549,326.9146035424786,555.7420260954386,326.1314616395111,550.7427703279673,325.9680290611874,545.7647599846923,326.43714165967504,540.8571270536656,327.41012025265985,536.01231446486,328.6890749113977,531.1813100564989,330.02915927669926,526.3209246033082,331.27082078258695,521.4151637010425,332.3850424036808,516.5178155039356,333.4971950901121,511.6370822723186,334.72875186399983,506.86936245451875,336.29813746127166,502.23542763414247,338.24063837611624,497.8499747298809,340.67618277732964,493.88477755028697,343.7324867205737,490.49981156946717,347.4092720539657,487.73867735665783,351.57845687895923,485.50167904912416,356.0508716459549,483.5897822392665,360.6769640359416,481.8157689021736,365.36045042985467,480.0888080040835,370.0656179445065,478.44488542865815,374.7999640942553,477.07836017665386,379.6206584382342,476.18728371007114,384.5482810617756,475.71241318283063,389.53363412299274,475.50866655353616,394.53742161963066,475.52549062189837,399.5475123481491,475.68602507518113,404.5553940480103,475.96168492005177,409.5575033007018,476.47311080830997,414.54375922095875,477.3285787226236,419.4830411697421,478.4754334266092,424.3668996266106,479.75094581575877,429.22331077053065,481.0344943032423,434.0819850905622,482.29939442856596,438.9488479618679,483.5134747594193,443.83167911412977,484.5902518232768,448.74963004604865,485.5238808677768,453.6919963214422,486.4131458411283,458.64180485371816,487.3828220268972,463.5800892844461,488.54926230484773,468.4786626547713,489.95204641699195,473.31298471779286,491.6098698596609,478.07076903315755,493.53728378326434,482.7274923634252,495.73130253412114,487.26144428162786,498.3016412943166,491.589254868406,501.39776480741773,495.5497798840961,505.07494292655224,498.9680577883648,509.3057383307051,501.68226691926776,513.9353314462846,503.6296541917443,518.8088771319458,504.8670422583025,523.8104783458623,505.4357030931668,528.84916979322,505.39841811762705,533.8577762104323,504.82503230116714,538.7718396014495,503.69763415262014,543.528276229571,502.0273305813755,548.0962982575884,499.89214064014215,552.4766069664153,497.3903526199422,556.6969098248285,494.6305675275319,560.7600132225343,491.6442095444004,564.6495345155181,488.4256647277786,568.4196633279861,485.0627915160409,572.1627825024875,481.6681817248713,575.8952899433103,478.25550594872755,579.5740619070666,474.7849746177023,583.1376861630304,471.19450187267887,586.46001685511,467.3797750069433,589.4253719444449,463.2899866528942,591.9884805098228,458.94615743260886,594.0775225331986,454.3603169408628,595.5520692083167,449.5404530036843,596.3496479250422,444.5622976054565,596.6558845968295,439.53036434931266,596.9004938435212,434.4914237503742,597.5184015823519,429.47761414248134,598.6827578578263,424.55934504924994,600.3210905223626,419.77801876275,602.2774813931479,415.12291216667285,604.3555965653295,410.52441189318506,606.3681897321849,405.9041172140451,608.1473090722701,401.1914969603228,609.5118999610044,396.34715420826143,610.3528695178859,391.391396971143,610.6573995205232,386.37715191667337,610.4489139638806,381.352595773832,609.8519832543832,376.3589814276181,608.9993620342375,371.4046486542249,607.8421746186169,366.51688321094946,606.2582487580038,361.75081874647583,604.193952843834,357.1697620133841,601.6716507762476,352.82992453267394,598.8011686907442,348.72347358577497"
  >
    <title>`a`.poly</title>
  </polygon>
  <polygon
    fill="#256660"
    fill-opacity="0.5"
    stroke="#000000"
    stroke-opacity="1"
    stroke-width="2"
    stroke-linecap="butt"
    transform="scale(1)"
    points="169.52894378174247,294.4516873958529,170.22970118641533,299.44668706328224,171.15384827608165,304.4099262916644,172.21231520296973,309.34685977784227,173.3811722848792,314.2630801722542,174.66187816872747,319.14857901535345,176.01620325540864,324.0125978072862,177.4330814983007,328.8618564570644,178.97754625076726,333.6696683821897,180.69547943491244,338.41361155225036,182.66003717814831,343.06241878778656,184.95987249784073,347.5582557856343,187.64987694353607,351.8273315018284,190.66751276312334,355.86934946326494,193.9209901864768,359.7301267012563,197.34006511004236,363.43556133604557,200.9110251247177,366.9978264542723,204.65789897888266,370.3726221146868,208.57037633237434,373.55196354709943,212.6091091688457,376.55792031906384,216.7551727122416,379.41336541370094,221.0071117040953,382.1078869454258,225.37200118077115,384.5979125774336,229.86175935179944,386.869677895602,234.47614301486607,388.8668401130105,239.2112729452725,390.56335006666615,244.03354114851214,391.98421638510274,248.9192964449266,393.16515379350113,253.86127308093907,394.09695823670563,258.8432507814855,394.7404598774181,263.8619573167059,395.0795732704511,268.8841807170444,395.12277120482327,273.9043755241406,394.88449992810683,278.8993525678112,394.37428139009,283.855746613495,393.5542710674072,288.7547386378271,392.4345497511357,293.55744709062753,390.9929567485503,298.2567957331861,389.203209133763,302.78369153443435,387.0378150308947,307.1361607340615,384.5230407403482,311.284717530185,381.6978821935437,315.25215435552565,378.6000937406879,319.0042976641375,375.2548380163406,322.5126633950967,371.64657722075765,325.7646947256676,367.80503538196996,328.7886487447895,363.78305235840475,331.5847132896315,359.5959021146478,334.13880908160473,355.25333443564904,336.44443107727574,350.77716851580163,338.47249299698285,346.16829621909136,340.1647218413322,341.426095824686,341.4159075907078,336.5508995945229,342.0946515513725,331.56148604488357,342.12471452979037,326.5227140747,341.5185760402076,321.5199298008293,340.30175857425684,316.63280528988537,338.5141103888462,311.918233724122,336.2054187289376,307.4309882745623,333.43987941501604,303.20303000408,330.3135459162668,299.2331077417176,326.9463784420029,295.46107287844217,323.46936208611777,291.79207147841237,320.0056766874275,288.11141204959404,316.6953853942598,284.29847580753903,313.58719600055656,280.3201333917997,310.5498865898458,276.29975231243094,307.32026468603834,272.44450863787006,303.6530010456651,269.0119643079785,299.44337683236324,266.2774851122174,294.766402774671,264.4558639737213,289.81900600633423,263.6074593425494,284.7989593462122,263.54024276379073,279.7896494433246,263.7951566155116,274.7759957239531,263.8762901439311,269.78779778008504,263.4226488198454,264.9392730215029,262.1667808788985,260.44664659144934,259.9486411769781,256.4638218059361,256.92409527047187,252.8096591135707,253.5276590490433,249.0499801083261,250.26754579408038,244.79019896679105,247.68421054143596,240.00391684820022,246.3002710030664,235.02063965771308,246.4077792289953,230.27363796796487,247.91417147051874,225.92363327754617,250.34273779078717,221.80329675345686,253.16241346880318,217.69143103323813,256.00383637752714,213.4016801389733,258.58653539841043,208.8446936630091,260.67559190943,204.0425815348615,262.1219968935085,199.10857209590995,262.99337918429063,194.14306711706837,263.6503412441571,189.2072212947974,264.49985310082445,184.39830038984812,265.8824713057767,179.88521146171615,268.0432072800219,175.9254588340316,271.09716013833275,172.80214084085745,275.00500224554713,170.66231530930872,279.53061853781026,169.50567526770593,284.4131134165683,169.2086989984555,289.4263581889185"
  >
    <title>`b`.poly</title>
  </polygon>
  <g
    transform="rotate(0, 540.5178028995614, 411.59475407258645)translate(529.9683028995614, 405.34725407258645)"
  >
    <title>`a`.eq</title>
    <svg
      style="font-size: 15px"
      xmlns="http://www.w3.org/2000/svg"
      width="21.098999999999997"
      height="12.495"
      role="img"
      focusable="false"
      viewBox="0 -683 1406.6 833"
    >
      <g
        stroke="none"
        fill="#000000"
        stroke-width="0"
        transform="scale(1,-1)"
        fill-opacity="1"
      >
        <g data-mml-node="math">
          <g data-mml-node="msub">
            <g data-mml-node="mi">
              <path
                data-c="1D440"
                d="M289 629Q289 635 232 637Q208 637 201 638T194 648Q194 649 196 659Q197 662 198 666T199 671T201 676T203 679T207 681T212 683T220 683T232 684Q238 684 262 684T307 683Q386 683 398 683T414 678Q415 674 451 396L487 117L510 154Q534 190 574 254T662 394Q837 673 839 675Q840 676 842 678T846 681L852 683H948Q965 683 988 683T1017 684Q1051 684 1051 673Q1051 668 1048 656T1045 643Q1041 637 1008 637Q968 636 957 634T939 623Q936 618 867 340T797 59Q797 55 798 54T805 50T822 48T855 46H886Q892 37 892 35Q892 19 885 5Q880 0 869 0Q864 0 828 1T736 2Q675 2 644 2T609 1Q592 1 592 11Q592 13 594 25Q598 41 602 43T625 46Q652 46 685 49Q699 52 704 61Q706 65 742 207T813 490T848 631L654 322Q458 10 453 5Q451 4 449 3Q444 0 433 0Q418 0 415 7Q413 11 374 317L335 624L267 354Q200 88 200 79Q206 46 272 46H282Q288 41 289 37T286 19Q282 3 278 1Q274 0 267 0Q265 0 255 0T221 1T157 2Q127 2 95 1T58 0Q43 0 39 2T35 11Q35 13 38 25T43 40Q45 46 65 46Q135 46 154 86Q158 92 223 354T289 629Z"
              ></path>
            </g>
            <g data-mml-node="mn" transform="translate(1003,-150) scale(0.707)">
              <path
                data-c="31"
                d="M213 578L200 573Q186 568 160 563T102 556H83V602H102Q149 604 189 617T245 641T273 663Q275 666 285 666Q294 666 302 660V361L303 61Q310 54 315 52T339 48T401 46H427V0H416Q395 3 257 3Q121 3 100 0H88V46H114Q136 46 152 46T177 47T193 50T201 52T207 57T213 61V578Z"
              ></path>
            </g>
          </g>
        </g>
      </g>
    </svg>
  </g>
  <g
    transform="rotate(0, 254.35573200827164, 320.6847249859684)translate(243.80623200827165, 314.4372249859684)"
  >
    <title>`b`.eq</title>
    <svg
      style="font-size: 15px"
      xmlns="http://www.w3.org/2000/svg"
      width="21.098999999999997"
      height="12.495"
      role="img"
      focusable="false"
      viewBox="0 -683 1406.6 833"
    >
      <g
        stroke="none"
        fill="#000000"
        stroke-width="0"
        transform="scale(1,-1)"
        fill-opacity="1"
      >
        <g data-mml-node="math">
          <g data-mml-node="msub">
            <g data-mml-node="mi">
              <path
                data-c="1D440"
                d="M289 629Q289 635 232 637Q208 637 201 638T194 648Q194 649 196 659Q197 662 198 666T199 671T201 676T203 679T207 681T212 683T220 683T232 684Q238 684 262 684T307 683Q386 683 398 683T414 678Q415 674 451 396L487 117L510 154Q534 190 574 254T662 394Q837 673 839 675Q840 676 842 678T846 681L852 683H948Q965 683 988 683T1017 684Q1051 684 1051 673Q1051 668 1048 656T1045 643Q1041 637 1008 637Q968 636 957 634T939 623Q936 618 867 340T797 59Q797 55 798 54T805 50T822 48T855 46H886Q892 37 892 35Q892 19 885 5Q880 0 869 0Q864 0 828 1T736 2Q675 2 644 2T609 1Q592 1 592 11Q592 13 594 25Q598 41 602 43T625 46Q652 46 685 49Q699 52 704 61Q706 65 742 207T813 490T848 631L654 322Q458 10 453 5Q451 4 449 3Q444 0 433 0Q418 0 415 7Q413 11 374 317L335 624L267 354Q200 88 200 79Q206 46 272 46H282Q288 41 289 37T286 19Q282 3 278 1Q274 0 267 0Q265 0 255 0T221 1T157 2Q127 2 95 1T58 0Q43 0 39 2T35 11Q35 13 38 25T43 40Q45 46 65 46Q135 46 154 86Q158 92 223 354T289 629Z"
              ></path>
            </g>
            <g data-mml-node="mn" transform="translate(1003,-150) scale(0.707)">
              <path
                data-c="32"
                d="M109 429Q82 429 66 447T50 491Q50 562 103 614T235 666Q326 666 387 610T449 465Q449 422 429 383T381 315T301 241Q265 210 201 149L142 93L218 92Q375 92 385 97Q392 99 409 186V189H449V186Q448 183 436 95T421 3V0H50V19V31Q50 38 56 46T86 81Q115 113 136 137Q145 147 170 174T204 211T233 244T261 278T284 308T305 340T320 369T333 401T340 431T343 464Q343 527 309 573T212 619Q179 619 154 602T119 569T109 550Q109 549 114 549Q132 549 151 535T170 489Q170 464 154 447T109 429Z"
              ></path>
            </g>
          </g>
        </g>
      </g>
    </svg>
  </g>
  <g>
    <path
      d="M 452.98681350593375 407.70757999033486 L 450.36439478067865 407.5872032925823"
      stroke-opacity="0.94"
      stroke-width="2"
      stroke="#000000"
      stroke-linecap="butt"
    ></path>
    <title>`m`.s3</title>
  </g>
  <g>
    <path
      d="M 450.36439478067865 407.5872032925823 L 447.74151089037457 407.4460845681214"
      stroke-opacity="0.92"
      stroke-width="2"
      stroke="#000000"
      stroke-linecap="butt"
    ></path>
    <title>`m`.s4</title>
  </g>
  <g>
    <path
      d="M 447.74151089037457 407.4460845681214 L 445.11964120788303 407.2846291704208"
      stroke-opacity="0.9"
      stroke-width="2"
      stroke="#000000"
      stroke-linecap="butt"
    ></path>
    <title>`m`.s5</title>
  </g>
  <g>
    <path
      d="M 445.11964120788303 407.2846291704208 L 442.49823645766025 407.1029911129756"
      stroke-opacity="0.88"
      stroke-width="2"
      stroke="#000000"
      stroke-linecap="butt"
    ></path>
    <title>`m`.s6</title>
  </g>
  <g>
    <path
      d="M 442.49823645766025 407.1029911129756 L 439.87695187361055 406.90115515727604"
      stroke-opacity="0.86"
      stroke-width="2"
      stroke="#000000"
      stroke-linecap="butt"
    ></path>
    <title>`m`.s7</title>
  </g>
  <g>
    <path
      d="M 439.87695187361055 406.90115515727604 L 437.2572747914949 406.6791135783193"
      stroke-opacity="0.84"
      stroke-width="2"
      stroke="#000000"
      stroke-linecap="butt"
    ></path>
    <title>`m`.s8</title>
  </g>
  <g>
    <path
      d="M 437.2572747914949 406.6791135783193 L 434.63914985799 406.43670335093583"
      stroke-opacity="0.82"
      stroke-width="2"
      stroke="#000000"
      stroke-linecap="butt"
    ></path>
    <title>`m`.s9</title>
  </g>
  <g>
    <marker
      id="registry-LavendaireWombat86913-`m`.arrow-endArrowId"
      markerUnits="strokeWidth"
      markerWidth="9.95"
      markerHeight="8.12"
      viewBox="0 0 9.95 8.12"
      refX="2.36"
      refY="4.06"
      orient="auto-start-reverse"
    >
      <path
        d="M9.95 4.06 0 8.12 2.36 4.06 0 0 9.95 4.06z"
        fill="#000000"
        fill-opacity="1"
      ></path>
    </marker>
    <path
      d="M 450.8524086306018 407.7228521876078 L 454.6183860638395 407.8057860132625"
      stroke-opacity="1"
      stroke-width="1.5"
      stroke="#000000"
      stroke-linecap="butt"
      marker-end="url(#registry-LavendaireWombat86913-`m`.arrow-endArrowId)"
    ></path>
    <title>`m`.arrow</title>
  </g>
  <g
    transform="rotate(0, 392.49613112345514, 381.69161641478956)translate(388.0261311234551, 374.94911641478956)"
  >
    <title>`m`.eq</title>
    <svg
      style="font-size: 15px"
      xmlns="http://www.w3.org/2000/svg"
      width="8.94"
      height="13.485"
      role="img"
      focusable="false"
      viewBox="0 -694 596 899"
    >
      <g
        stroke="none"
        fill="#000000"
        stroke-width="0"
        transform="scale(1,-1)"
        fill-opacity="1"
      >
        <g data-mml-node="math">
          <g data-mml-node="mi">
            <path
              data-c="1D719"
              d="M409 688Q413 694 421 694H429H442Q448 688 448 686Q448 679 418 563Q411 535 404 504T392 458L388 442Q388 441 397 441T429 435T477 418Q521 397 550 357T579 260T548 151T471 65T374 11T279 -10H275L251 -105Q245 -128 238 -160Q230 -192 227 -198T215 -205H209Q189 -205 189 -198Q189 -193 211 -103L234 -11Q234 -10 226 -10Q221 -10 206 -8T161 6T107 36T62 89T43 171Q43 231 76 284T157 370T254 422T342 441Q347 441 348 445L378 567Q409 686 409 688ZM122 150Q122 116 134 91T167 53T203 35T237 27H244L337 404Q333 404 326 403T297 395T255 379T211 350T170 304Q152 276 137 237Q122 191 122 150ZM500 282Q500 320 484 347T444 385T405 400T381 404H378L332 217L284 29Q284 27 285 27Q293 27 317 33T357 47Q400 66 431 100T475 170T494 234T500 282Z"
            ></path>
          </g>
        </g>
      </g>
    </svg>
  </g>
  <polyline
    fill="none"
    stroke="#000000"
    stroke-opacity="0"
    stroke-width="2"
    stroke-linecap="butt"
    transform="scale(1)"
    points="460.8499465149214,407.94301656155125,458.2324525344687,407.88537447705255,455.60924206608206,407.80693458433495,452.98681350593375,407.70757999033486,450.36439478067865,407.5872032925823,447.74151089037457,407.4460845681214,445.11964120788303,407.2846291704208,442.49823645766025,407.1029911129756,439.87695187361055,406.90115515727604,437.2572747914949,406.6791135783193,434.63914985799,406.43670335093583,432.02366588547227,406.1737933197942,429.41216247821563,405.8904302286552,426.80455542989705,405.5868804616564,424.2001464983831,405.26315558785564,421.59854822468094,404.9189247343629,419.0001475173048,404.55383463977535,416.4045774525833,404.1672942013338,413.81328227543474,403.75894073041974,411.2269588018927,403.32836660743584,408.6458856795621,402.8747417270654,406.0700710035863,402.39695811390766,403.498307333985,401.89383197405726,400.932159828638,401.36479109958793,398.37194958108864,400.8090120742434,395.818091402293,400.2258024432711,393.2712389922376,399.6143744495786,390.7291292230025,398.9733656551411,388.19354579073143,398.30243361283254,385.6661930066588,397.60138250042604,383.14617582855914,396.8693082381573,380.63707624316635,396.1064357393842,378.13863129181294,395.3120984818533,375.64944849829755,394.4856435904041,373.171763416745,393.6273696088605,370.70533902644286,392.7366368684615,368.25133965982843,391.8130895874565,365.81136474767095,390.85624026357317,363.38623349629097,389.8653763923906,360.9751317759596,388.83988231399127,358.5784316508146,387.77989273198517,356.198277508869,386.6861008529189,353.8344812429382,385.5580540601674,351.4882370239206,384.3960961987559,349.1601622788477,383.20017226435635,346.85060407398385,381.97033947776504,344.5608697905827,380.7075094694478,342.2911135263156,379.4118753262581,340.04189046601874,378.08345178403175,337.822980143016,376.727497715804"
    endArrowhead="straight"
  >
    <title>`m`.poly</title>
  </polyline>
  <g>
    <path
      d="M 358.5784316508146 387.77989273198517 L 356.198277508869 386.6861008529189"
      stroke-opacity="0.2"
      stroke-width="2"
      stroke="#000000"
      stroke-linecap="butt"
    ></path>
    <title>`m`.s40</title>
  </g>
  <g>
    <path
      d="M 383.14617582855914 396.8693082381573 L 380.63707624316635 396.1064357393842"
      stroke-opacity="0.4"
      stroke-width="2"
      stroke="#000000"
      stroke-linecap="butt"
    ></path>
    <title>`m`.s30</title>
  </g>
  <g>
    <path
      d="M 356.198277508869 386.6861008529189 L 353.8344812429382 385.5580540601674"
      stroke-opacity="0.18"
      stroke-width="2"
      stroke="#000000"
      stroke-linecap="butt"
    ></path>
    <title>`m`.s41</title>
  </g>
  <g>
    <path
      d="M 408.6458856795621 402.8747417270654 L 406.0700710035863 402.39695811390766"
      stroke-opacity="0.6"
      stroke-width="2"
      stroke="#000000"
      stroke-linecap="butt"
    ></path>
    <title>`m`.s20</title>
  </g>
  <g>
    <path
      d="M 380.63707624316635 396.1064357393842 L 378.13863129181294 395.3120984818533"
      stroke-opacity="0.38"
      stroke-width="2"
      stroke="#000000"
      stroke-linecap="butt"
    ></path>
    <title>`m`.s31</title>
  </g>
  <g>
    <path
      d="M 353.8344812429382 385.5580540601674 L 351.4882370239206 384.3960961987559"
      stroke-opacity="0.16"
      stroke-width="2"
      stroke="#000000"
      stroke-linecap="butt"
    ></path>
    <title>`m`.s42</title>
  </g>
  <g>
    <path
      d="M 434.63914985799 406.43670335093583 L 432.02366588547227 406.1737933197942"
      stroke-opacity="0.8"
      stroke-width="2"
      stroke="#000000"
      stroke-linecap="butt"
    ></path>
    <title>`m`.s10</title>
  </g>
  <g>
    <path
      d="M 406.0700710035863 402.39695811390766 L 403.498307333985 401.89383197405726"
      stroke-opacity="0.58"
      stroke-width="2"
      stroke="#000000"
      stroke-linecap="butt"
    ></path>
    <title>`m`.s21</title>
  </g>
  <g>
    <path
      d="M 378.13863129181294 395.3120984818533 L 375.64944849829755 394.4856435904041"
      stroke-opacity="0.36"
      stroke-width="2"
      stroke="#000000"
      stroke-linecap="butt"
    ></path>
    <title>`m`.s32</title>
  </g>
  <g>
    <path
      d="M 351.4882370239206 384.3960961987559 L 349.1601622788477 383.20017226435635"
      stroke-opacity="0.14"
      stroke-width="2"
      stroke="#000000"
      stroke-linecap="butt"
    ></path>
    <title>`m`.s43</title>
  </g>
  <g>
    <path
      d="M 432.02366588547227 406.1737933197942 L 429.41216247821563 405.8904302286552"
      stroke-opacity="0.78"
      stroke-width="2"
      stroke="#000000"
      stroke-linecap="butt"
    ></path>
    <title>`m`.s11</title>
  </g>
  <g>
    <path
      d="M 403.498307333985 401.89383197405726 L 400.932159828638 401.36479109958793"
      stroke-opacity="0.56"
      stroke-width="2"
      stroke="#000000"
      stroke-linecap="butt"
    ></path>
    <title>`m`.s22</title>
  </g>
  <g>
    <path
      d="M 375.64944849829755 394.4856435904041 L 373.171763416745 393.6273696088605"
      stroke-opacity="0.34"
      stroke-width="2"
      stroke="#000000"
      stroke-linecap="butt"
    ></path>
    <title>`m`.s33</title>
  </g>
  <g>
    <path
      d="M 349.1601622788477 383.20017226435635 L 346.85060407398385 381.97033947776504"
      stroke-opacity="0.12"
      stroke-width="2"
      stroke="#000000"
      stroke-linecap="butt"
    ></path>
    <title>`m`.s44</title>
  </g>
  <g>
    <path
      d="M 429.41216247821563 405.8904302286552 L 426.80455542989705 405.5868804616564"
      stroke-opacity="0.76"
      stroke-width="2"
      stroke="#000000"
      stroke-linecap="butt"
    ></path>
    <title>`m`.s12</title>
  </g>
  <g>
    <path
      d="M 400.932159828638 401.36479109958793 L 398.37194958108864 400.8090120742434"
      stroke-opacity="0.54"
      stroke-width="2"
      stroke="#000000"
      stroke-linecap="butt"
    ></path>
    <title>`m`.s23</title>
  </g>
  <g>
    <path
      d="M 373.171763416745 393.6273696088605 L 370.70533902644286 392.7366368684615"
      stroke-opacity="0.32"
      stroke-width="2"
      stroke="#000000"
      stroke-linecap="butt"
    ></path>
    <title>`m`.s34</title>
  </g>
  <g>
    <path
      d="M 346.85060407398385 381.97033947776504 L 344.5608697905827 380.7075094694478"
      stroke-opacity="0.1"
      stroke-width="2"
      stroke="#000000"
      stroke-linecap="butt"
    ></path>
    <title>`m`.s45</title>
  </g>
  <g>
    <path
      d="M 426.80455542989705 405.5868804616564 L 424.2001464983831 405.26315558785564"
      stroke-opacity="0.74"
      stroke-width="2"
      stroke="#000000"
      stroke-linecap="butt"
    ></path>
    <title>`m`.s13</title>
  </g>
  <g>
    <path
      d="M 398.37194958108864 400.8090120742434 L 395.818091402293 400.2258024432711"
      stroke-opacity="0.52"
      stroke-width="2"
      stroke="#000000"
      stroke-linecap="butt"
    ></path>
    <title>`m`.s24</title>
  </g>
  <g>
    <path
      d="M 370.70533902644286 392.7366368684615 L 368.25133965982843 391.8130895874565"
      stroke-opacity="0.3"
      stroke-width="2"
      stroke="#000000"
      stroke-linecap="butt"
    ></path>
    <title>`m`.s35</title>
  </g>
  <g>
    <path
      d="M 344.5608697905827 380.7075094694478 L 342.2911135263156 379.4118753262581"
      stroke-opacity="0.08"
      stroke-width="2"
      stroke="#000000"
      stroke-linecap="butt"
    ></path>
    <title>`m`.s46</title>
  </g>
  <g>
    <path
      d="M 424.2001464983831 405.26315558785564 L 421.59854822468094 404.9189247343629"
      stroke-opacity="0.72"
      stroke-width="2"
      stroke="#000000"
      stroke-linecap="butt"
    ></path>
    <title>`m`.s14</title>
  </g>
  <g>
    <path
      d="M 395.818091402293 400.2258024432711 L 393.2712389922376 399.6143744495786"
      stroke-opacity="0.5"
      stroke-width="2"
      stroke="#000000"
      stroke-linecap="butt"
    ></path>
    <title>`m`.s25</title>
  </g>
  <g>
    <path
      d="M 368.25133965982843 391.8130895874565 L 365.81136474767095 390.85624026357317"
      stroke-opacity="0.28"
      stroke-width="2"
      stroke="#000000"
      stroke-linecap="butt"
    ></path>
    <title>`m`.s36</title>
  </g>
  <g>
    <path
      d="M 342.2911135263156 379.4118753262581 L 340.04189046601874 378.08345178403175"
      stroke-opacity="0.06"
      stroke-width="2"
      stroke="#000000"
      stroke-linecap="butt"
    ></path>
    <title>`m`.s47</title>
  </g>
  <g>
    <path
      d="M 421.59854822468094 404.9189247343629 L 419.0001475173048 404.55383463977535"
      stroke-opacity="0.7"
      stroke-width="2"
      stroke="#000000"
      stroke-linecap="butt"
    ></path>
    <title>`m`.s15</title>
  </g>
  <g>
    <path
      d="M 393.2712389922376 399.6143744495786 L 390.7291292230025 398.9733656551411"
      stroke-opacity="0.48"
      stroke-width="2"
      stroke="#000000"
      stroke-linecap="butt"
    ></path>
    <title>`m`.s26</title>
  </g>
  <g>
    <path
      d="M 365.81136474767095 390.85624026357317 L 363.38623349629097 389.8653763923906"
      stroke-opacity="0.26"
      stroke-width="2"
      stroke="#000000"
      stroke-linecap="butt"
    ></path>
    <title>`m`.s37</title>
  </g>
  <g>
    <path
      d="M 340.04189046601874 378.08345178403175 L 337.822980143016 376.727497715804"
      stroke-opacity="0.04"
      stroke-width="2"
      stroke="#000000"
      stroke-linecap="butt"
    ></path>
    <title>`m`.s48</title>
  </g>
  <g>
    <path
      d="M 419.0001475173048 404.55383463977535 L 416.4045774525833 404.1672942013338"
      stroke-opacity="0.68"
      stroke-width="2"
      stroke="#000000"
      stroke-linecap="butt"
    ></path>
    <title>`m`.s16</title>
  </g>
  <g>
    <path
      d="M 390.7291292230025 398.9733656551411 L 388.19354579073143 398.30243361283254"
      stroke-opacity="0.46"
      stroke-width="2"
      stroke="#000000"
      stroke-linecap="butt"
    ></path>
    <title>`m`.s27</title>
  </g>
  <g>
    <path
      d="M 363.38623349629097 389.8653763923906 L 360.9751317759596 388.83988231399127"
      stroke-opacity="0.24"
      stroke-width="2"
      stroke="#000000"
      stroke-linecap="butt"
    ></path>
    <title>`m`.s38</title>
  </g>
  <g>
    <path
      d="M 416.4045774525833 404.1672942013338 L 413.81328227543474 403.75894073041974"
      stroke-opacity="0.66"
      stroke-width="2"
      stroke="#000000"
      stroke-linecap="butt"
    ></path>
    <title>`m`.s17</title>
  </g>
  <g>
    <path
      d="M 388.19354579073143 398.30243361283254 L 385.6661930066588 397.60138250042604"
      stroke-opacity="0.44"
      stroke-width="2"
      stroke="#000000"
      stroke-linecap="butt"
    ></path>
    <title>`m`.s28</title>
  </g>
  <g>
    <path
      d="M 360.9751317759596 388.83988231399127 L 358.5784316508146 387.77989273198517"
      stroke-opacity="0.22"
      stroke-width="2"
      stroke="#000000"
      stroke-linecap="butt"
    ></path>
    <title>`m`.s39</title>
  </g>
  <g>
    <path
      d="M 413.81328227543474 403.75894073041974 L 411.2269588018927 403.32836660743584"
      stroke-opacity="0.64"
      stroke-width="2"
      stroke="#000000"
      stroke-linecap="butt"
    ></path>
    <title>`m`.s18</title>
  </g>
  <g>
    <path
      d="M 385.6661930066588 397.60138250042604 L 383.14617582855914 396.8693082381573"
      stroke-opacity="0.42"
      stroke-width="2"
      stroke="#000000"
      stroke-linecap="butt"
    ></path>
    <title>`m`.s29</title>
  </g>
  <g>
    <path
      d="M 411.2269588018927 403.32836660743584 L 408.6458856795621 402.8747417270654"
      stroke-opacity="0.62"
      stroke-width="2"
      stroke="#000000"
      stroke-linecap="butt"
    ></path>
    <title>`m`.s19</title>
  </g>
  <g>
    <path
      d="M 460.8499465149214 407.94301656155125 L 458.2324525344687 407.88537447705255"
      stroke-opacity="1"
      stroke-width="2"
      stroke="#000000"
      stroke-linecap="butt"
    ></path>
    <title>`m`.s0</title>
  </g>
  <g>
    <path
      d="M 458.2324525344687 407.88537447705255 L 455.60924206608206 407.80693458433495"
      stroke-opacity="0.98"
      stroke-width="2"
      stroke="#000000"
      stroke-linecap="butt"
    ></path>
    <title>`m`.s1</title>
  </g>
  <g>
    <path
      d="M 455.60924206608206 407.80693458433495 L 452.98681350593375 407.70757999033486"
      stroke-opacity="0.96"
      stroke-width="2"
      stroke="#000000"
      stroke-linecap="butt"
    ></path>
    <title>`m`.s2</title>
  </g>
</svg>
