<svg version="1.2" xmlns="http://www.w3.org/2000/svg" viewBox="0 0 800 800">
  <polygon
    fill="#90834f"
    fill-opacity="0.5"
    stroke="#000000"
    stroke-opacity="1"
    stroke-width="2"
    stroke-linecap="butt"
    transform="scale(1)"
    points="596.7930241552712,350.04190232964686,593.2390666431036,346.47928385178517,589.4653200872735,343.15203481700297,585.4632142102992,340.1107115307853,581.2439906451707,337.3717228705822,576.8359675448515,334.9483341844659,572.2673928857645,332.84367943271855,567.5631900021959,331.05456765731066,562.7468378177114,329.58971033546106,557.8230842839137,328.50050308333573,552.8248513110979,327.8538267728407,547.7868574457352,327.6468761985056,542.7448043799976,327.80330972813783,537.7223885841202,328.2565556655837,532.7245948092094,328.97325385693574,527.7689608981907,329.9135571524408,522.8565904368356,331.0774001106871,518.0252111074719,332.54115266036143,513.3291185268097,334.38741261936605,508.8229897710296,336.64237224911454,504.56576629002967,339.3277895085743,500.65004490928374,342.4911506918056,497.11177609320634,346.0693218665218,493.81065372552155,349.8713907001542,490.58151228760323,353.72463106006796,487.3491673316212,357.5788478583633,484.0943697298407,361.4213796537502,480.8417203738503,365.2673885911235,477.72431686046866,369.2252984873255,474.97055015208986,373.4408345976718,472.805417915725,377.98673520484675,471.34934810262473,382.80748978468773,470.6470026204225,387.7934492033317,470.718549196786,392.8247312795418,471.4539304017561,397.8034323247985,472.6697500607977,402.6871691607816,474.2696720185854,407.45537945853823,476.1478622742158,412.1161692579512,478.1057722056279,416.73675071993523,479.9865722772456,421.3912705939735,481.7580121863615,426.08765856578435,483.43548642568504,430.8189316455844,484.9558164209927,435.60202164358606,486.197274922784,440.47220209805494,487.07446092045507,445.4215740239403,487.6076999419927,450.4245512145727,487.935615458343,455.4460482774733,488.26218237952776,460.47143739160174,488.7276407824306,465.4893278331606,489.3688632880154,470.49090591204583,490.2473666823709,475.4558296240196,491.547509152853,480.3221081323816,493.4813183237239,484.96880850937765,496.13131588589204,489.24072863445537,499.4614666890195,492.9996831276648,503.3952311008915,496.11484332996355,507.80780775358994,498.50153454848163,512.5283597424856,500.20184507000437,517.4115747450811,501.3528836339907,522.3771927381397,502.0571962519962,527.3858736457653,502.32941580880663,532.3986601505251,502.12552322741453,537.3618549073992,501.3692746797853,542.1881385959496,499.99006052574833,546.7967031868405,497.9992953314517,551.1542486066875,495.5071189649346,555.2905060386349,492.6538872981444,559.2558204595364,489.56585444092894,563.0894571747397,486.3147134981676,566.8025378186882,482.9324390400807,570.4232109105812,479.45617455017,574.0194573685319,475.96546125168555,577.6753189418772,472.5379346058127,581.4248418658348,469.2158185762149,585.2406323364769,465.9667795625634,589.0528963697651,462.7180850418976,592.8265595911008,459.42373832085815,596.5299409588333,456.05108025149946,600.0477783474935,452.4861035814772,603.1502394668776,448.5525653950949,605.5967499628847,444.1786310079879,607.285631805903,439.45772045474286,608.2512392378742,434.5367045280584,608.5718639642971,429.53686748529253,608.3683126439566,424.5310769039796,607.874697043531,419.54890558656456,607.4555890858053,414.55053066641517,607.4836105333125,409.5392451465963,608.1539914366565,404.5719726059612,609.3936675199977,399.72083899118246,610.9349720217776,394.95230408613253,612.3813435690693,390.1483505703529,613.3649760437885,385.2240563211338,613.6289528961013,380.2055582845257,612.9748673608062,375.22148944310663,611.3711379960617,370.4554088238875,609.0549196653844,365.9876841277435,606.3203279015909,361.76329685781394,603.3343962094813,357.7052634978604,600.1592930737786,353.79786846942545"
  >
    <title>`a`.poly</title>
  </polygon>
  <polygon
    fill="#256660"
    fill-opacity="0.5"
    stroke="#000000"
    stroke-opacity="1"
    stroke-width="2"
    stroke-linecap="butt"
    transform="scale(1)"
    points="166.4190201755888,294.6923164707855,167.17647876575077,299.67019782976,168.46744541097456,304.54050654838574,170.2147875296042,309.26252796621486,172.3537518252448,313.82082140107514,174.75229719222526,318.24946523295625,177.23682321119588,322.63739415236205,179.68699587110612,327.0455287998458,182.095898158985,331.4777554602187,184.5261905329054,335.8954071322763,187.0287355191296,340.2795393248611,189.55140316170682,344.6473873292979,191.98312700978832,349.06502826265074,194.25691401216548,353.56672257721533,196.4301430636383,358.1172002249662,198.67047382612378,362.6312466194782,201.16970724375108,367.0041060774601,204.0470048265696,371.13675854986565,207.31603022655202,374.9649192607908,210.9331622411632,378.4619834804383,214.84829255505048,381.6276519220477,219.00618938269102,384.4691353974356,223.36661371210073,386.9912052264108,227.91401166572464,389.1736152982636,232.6154392099806,390.9852633515681,237.44213219055416,392.44513462104317,242.35041220865605,393.5847318039954,247.322441317319,394.40645064467833,252.3295517279009,394.91949807387505,257.35559977812744,395.1942662061026,262.3906170901703,395.2766113460196,267.4137185698596,395.14922890280496,272.43126478471993,394.78928138988505,277.4247829060463,394.16400725413496,282.3616009896381,393.22195077785915,287.2269256345207,391.92450167078056,291.98204031291743,390.288397587934,296.6277893875126,388.34062392034446,301.1430179858653,386.10733999003907,305.4950614600868,383.56348206118366,309.62574335114897,380.67413991105633,313.50987343335794,377.4655690106796,317.1600499573845,373.98313173480517,320.5620948203225,370.27715605166804,323.7132032679699,366.3598318513253,326.61020801979953,362.25733133305823,329.2813918466926,358.0159580406516,331.78986944962975,353.66703092734656,334.18592104309926,349.2511030642373,336.49286311466034,344.78817059684803,338.67503510677176,340.2659822795076,340.6099924082373,335.6286455123807,342.06079610153165,330.8121494054173,342.6997892606953,325.8284055144147,342.217761653581,320.82527061273396,340.5947707501624,316.0737915309186,338.2010693839518,311.65564456012,335.461198336273,307.43943517662706,332.66234878992566,303.27312063130205,329.9321611345095,299.05501238413586,327.304292339475,294.77298429100847,324.75594859057895,290.4532983667223,322.165365264699,286.17152661683946,319.33099860120706,282.0526515804182,316.0781450123288,278.2498941531245,312.3159759273816,274.9454820038048,308.0630005054073,272.2890931650215,303.4476971574391,270.3379372902658,298.6158344249459,269.01183278070425,293.67694363014726,268.14889046883695,288.7132499283132,267.4742799137812,283.7851965030998,266.5865642375998,278.9770315563081,265.1923991904153,274.360413843158,263.25984679253526,269.9561286840501,260.8788339292376,265.7487529921937,258.1440881391169,261.6325005183751,255.27590654001074,257.3936033614567,252.5947056074466,252.88598207741177,250.39789370401522,248.1075781074076,248.90054512433045,243.14045825359378,248.2622200843129,238.13579884628294,248.5893734751846,233.2728282667597,249.82457784928434,228.61736155349217,251.69983745352025,224.07997299742772,253.85829618816567,219.52889975306056,255.98891520476718,214.86454978632884,257.8454484054205,210.04937338825604,259.25164781153194,205.1147380659185,260.1492873173803,200.12018835927339,260.6385974682258,195.11102174575993,260.97442457981396,190.1199408667444,261.5331278457499,185.2322548285958,262.6832082020072,180.60690633444568,264.64206789406444,176.43427462495876,267.44197622591815,172.88995556208874,270.9932779460214,170.10402010962815,275.1647669046458,168.11876840443583,279.77897963794726,166.86771056955874,284.6554995448512,166.30052306659823,289.65817122051465"
  >
    <title>`b`.poly</title>
  </polygon>
  <polyline
    fill="none"
    stroke="#000000"
    stroke-opacity="0"
    stroke-width="2"
    stroke-linecap="butt"
    transform="scale(1)"
    points="456.61492527704644,399.9952312459294,454.08589201333376,400.15393461997246,451.5429602497546,400.2892037318147,448.9997482149671,400.39988956862993,446.45590365837865,400.48577154841365,443.9110509670096,400.546514821035,441.3652439757681,400.5818150425928,438.81827712933864,400.5913676310626,436.2716564011067,400.574778695063,433.7251393634016,400.5316430158846,431.1780868737768,400.46147739814296,428.63198878226973,400.36404648987644,426.0866056228075,400.2390125098847,423.54185366155593,400.08605917237276,420.99880902624943,399.90500113061785,418.4589168349746,399.69569616080037,415.9223507867826,399.4578743780526,413.38987166036475,399.191341429499,410.8603214722332,398.8957887578197,408.33474032357674,398.57112163779266,405.81338306900886,398.21712606585936,403.2965606858262,397.8335357739471,400.7852302217418,397.42008435210255,398.27909107947215,396.9763434887194,395.77857302183634,396.502140588206,393.2834077209224,395.99722303668165,390.7940587359184,395.4613193751468,388.3111618059421,394.8942313980475,385.8358000717527,394.29594230680493,383.3681409848111,393.6663585212941,380.9085760066952,393.0054444642187,378.4571145173294,392.31289201280487,376.0143331684373,391.5884815260574,373.58153149185165,390.8322712099104,371.15870821117596,390.0438779881459,368.74749559044056,389.22350402025756,366.34824424167437,388.3711085167109,363.9604086988942,387.48646391477763,361.58384862876983,386.56942065195943,359.2194688878386,385.6201981807424,356.8678826759219,384.6388855197339,354.5301900729905,383.62590328897227,352.2065782292858,382.5812417843647,349.89705652220294,381.5048770628758,347.6027914362133,380.3972031276792,345.32395111567297,379.2583181001686,343.0606916530731,378.08826578377915,340.8149636707227,376.8878824112199,338.5872504609859,375.6572619955285,336.3945340395003,374.40568934734824"
    endArrowhead="straight"
  >
    <title>`m`.poly</title>
  </polyline>
  <g
    transform="rotate(0, 541.4168862262819, 411.8794399439045)translate(526.8867082262819, 401.54943994390453)"
  >
    <title>`a`.eq</title>
    <svg
      style="font-size: 15px"
      xmlns="http://www.w3.org/2000/svg"
      width="29.060356"
      height="20.66"
      role="img"
      focusable="false"
      viewBox="0 -750 1406.6 1000"
    >
      <g
        stroke="none"
        fill="#000000"
        stroke-width="0"
        transform="scale(1,-1)"
        fill-opacity="1"
      >
        <g data-mml-node="math">
          <g data-mml-node="mtable">
            <g data-mml-node="mtr">
              <g data-mml-node="mtd">
                <g data-mml-node="msub">
                  <g data-mml-node="mi">
                    <path
                      data-c="1D440"
                      d="M289 629Q289 635 232 637Q208 637 201 638T194 648Q194 649 196 659Q197 662 198 666T199 671T201 676T203 679T207 681T212 683T220 683T232 684Q238 684 262 684T307 683Q386 683 398 683T414 678Q415 674 451 396L487 117L510 154Q534 190 574 254T662 394Q837 673 839 675Q840 676 842 678T846 681L852 683H948Q965 683 988 683T1017 684Q1051 684 1051 673Q1051 668 1048 656T1045 643Q1041 637 1008 637Q968 636 957 634T939 623Q936 618 867 340T797 59Q797 55 798 54T805 50T822 48T855 46H886Q892 37 892 35Q892 19 885 5Q880 0 869 0Q864 0 828 1T736 2Q675 2 644 2T609 1Q592 1 592 11Q592 13 594 25Q598 41 602 43T625 46Q652 46 685 49Q699 52 704 61Q706 65 742 207T813 490T848 631L654 322Q458 10 453 5Q451 4 449 3Q444 0 433 0Q418 0 415 7Q413 11 374 317L335 624L267 354Q200 88 200 79Q206 46 272 46H282Q288 41 289 37T286 19Q282 3 278 1Q274 0 267 0Q265 0 255 0T221 1T157 2Q127 2 95 1T58 0Q43 0 39 2T35 11Q35 13 38 25T43 40Q45 46 65 46Q135 46 154 86Q158 92 223 354T289 629Z"
                    ></path>
                  </g>
                  <g
                    data-mml-node="mn"
                    transform="translate(1003,-150) scale(0.707)"
                  >
                    <path
                      data-c="31"
                      d="M213 578L200 573Q186 568 160 563T102 556H83V602H102Q149 604 189 617T245 641T273 663Q275 666 285 666Q294 666 302 660V361L303 61Q310 54 315 52T339 48T401 46H427V0H416Q395 3 257 3Q121 3 100 0H88V46H114Q136 46 152 46T177 47T193 50T201 52T207 57T213 61V578Z"
                    ></path>
                  </g>
                </g>
              </g>
            </g>
          </g>
        </g>
      </g>
    </svg>
  </g>
  <g
    transform="rotate(0, 253.45434218311905, 320.40158425431105)translate(238.92416418311905, 310.07158425431106)"
  >
    <title>`b`.eq</title>
    <svg
      style="font-size: 15px"
      xmlns="http://www.w3.org/2000/svg"
      width="29.060356"
      height="20.66"
      role="img"
      focusable="false"
      viewBox="0 -750 1406.6 1000"
    >
      <g
        stroke="none"
        fill="#000000"
        stroke-width="0"
        transform="scale(1,-1)"
        fill-opacity="1"
      >
        <g data-mml-node="math">
          <g data-mml-node="mtable">
            <g data-mml-node="mtr">
              <g data-mml-node="mtd">
                <g data-mml-node="msub">
                  <g data-mml-node="mi">
                    <path
                      data-c="1D440"
                      d="M289 629Q289 635 232 637Q208 637 201 638T194 648Q194 649 196 659Q197 662 198 666T199 671T201 676T203 679T207 681T212 683T220 683T232 684Q238 684 262 684T307 683Q386 683 398 683T414 678Q415 674 451 396L487 117L510 154Q534 190 574 254T662 394Q837 673 839 675Q840 676 842 678T846 681L852 683H948Q965 683 988 683T1017 684Q1051 684 1051 673Q1051 668 1048 656T1045 643Q1041 637 1008 637Q968 636 957 634T939 623Q936 618 867 340T797 59Q797 55 798 54T805 50T822 48T855 46H886Q892 37 892 35Q892 19 885 5Q880 0 869 0Q864 0 828 1T736 2Q675 2 644 2T609 1Q592 1 592 11Q592 13 594 25Q598 41 602 43T625 46Q652 46 685 49Q699 52 704 61Q706 65 742 207T813 490T848 631L654 322Q458 10 453 5Q451 4 449 3Q444 0 433 0Q418 0 415 7Q413 11 374 317L335 624L267 354Q200 88 200 79Q206 46 272 46H282Q288 41 289 37T286 19Q282 3 278 1Q274 0 267 0Q265 0 255 0T221 1T157 2Q127 2 95 1T58 0Q43 0 39 2T35 11Q35 13 38 25T43 40Q45 46 65 46Q135 46 154 86Q158 92 223 354T289 629Z"
                    ></path>
                  </g>
                  <g
                    data-mml-node="mn"
                    transform="translate(1003,-150) scale(0.707)"
                  >
                    <path
                      data-c="32"
                      d="M109 429Q82 429 66 447T50 491Q50 562 103 614T235 666Q326 666 387 610T449 465Q449 422 429 383T381 315T301 241Q265 210 201 149L142 93L218 92Q375 92 385 97Q392 99 409 186V189H449V186Q448 183 436 95T421 3V0H50V19V31Q50 38 56 46T86 81Q115 113 136 137Q145 147 170 174T204 211T233 244T261 278T284 308T305 340T320 369T333 401T340 431T343 464Q343 527 309 573T212 619Q179 619 154 602T119 569T109 550Q109 549 114 549Q132 549 151 535T170 489Q170 464 154 447T109 429Z"
                    ></path>
                  </g>
                </g>
              </g>
            </g>
          </g>
        </g>
      </g>
    </svg>
  </g>
  <g>
    <path
      d="M 448.9997482149671 400.39988956862993 L 446.45590365837865 400.48577154841365"
      stroke-opacity="0.94"
      stroke-width="2"
      stroke="#000000"
      stroke-linecap="butt"
    ></path>
    <title>`m`.s3</title>
  </g>
  <g>
    <path
      d="M 446.45590365837865 400.48577154841365 L 443.9110509670096 400.546514821035"
      stroke-opacity="0.92"
      stroke-width="2"
      stroke="#000000"
      stroke-linecap="butt"
    ></path>
    <title>`m`.s4</title>
  </g>
  <g>
    <path
      d="M 443.9110509670096 400.546514821035 L 441.3652439757681 400.5818150425928"
      stroke-opacity="0.9"
      stroke-width="2"
      stroke="#000000"
      stroke-linecap="butt"
    ></path>
    <title>`m`.s5</title>
  </g>
  <g>
    <path
      d="M 441.3652439757681 400.5818150425928 L 438.81827712933864 400.5913676310626"
      stroke-opacity="0.88"
      stroke-width="2"
      stroke="#000000"
      stroke-linecap="butt"
    ></path>
    <title>`m`.s6</title>
  </g>
  <g>
    <path
      d="M 438.81827712933864 400.5913676310626 L 436.2716564011067 400.574778695063"
      stroke-opacity="0.86"
      stroke-width="2"
      stroke="#000000"
      stroke-linecap="butt"
    ></path>
    <title>`m`.s7</title>
  </g>
  <g>
    <path
      d="M 436.2716564011067 400.574778695063 L 433.7251393634016 400.5316430158846"
      stroke-opacity="0.84"
      stroke-width="2"
      stroke="#000000"
      stroke-linecap="butt"
    ></path>
    <title>`m`.s8</title>
  </g>
  <g>
    <path
      d="M 433.7251393634016 400.5316430158846 L 431.1780868737768 400.46147739814296"
      stroke-opacity="0.82"
      stroke-width="2"
      stroke="#000000"
      stroke-linecap="butt"
    ></path>
    <title>`m`.s9</title>
  </g>
  <g>
    <marker
      id="registry-LavendaireWombat86913-`m`.arrow-endArrowId"
      markerUnits="strokeWidth"
      markerWidth="9.95"
      markerHeight="8.12"
      viewBox="0 0 9.95 8.12"
      refX="2.36"
      refY="4.06"
      orient="auto-start-reverse"
    >
      <path
        d="M9.95 4.06 0 8.12 2.36 4.06 0 0 9.95 4.06z"
        fill="#000000"
        fill-opacity="1"
      ></path>
    </marker>
    <path
      d="M 446.6345961361137 400.6215226954936 L 450.47804786933375 400.380336165136"
      stroke-opacity="1"
      stroke-width="1.5"
      stroke="#000000"
      stroke-linecap="butt"
      marker-end="url(#registry-LavendaireWombat86913-`m`.arrow-endArrowId)"
    ></path>
    <title>`m`.arrow</title>
  </g>
  <g
    transform="rotate(0, 394.1221812161714, 376.5708447518042)translate(387.9655012161714, 366.2408447518042)"
  >
    <title>`m`.eq</title>
    <svg
      style="font-size: 15px"
      xmlns="http://www.w3.org/2000/svg"
      width="12.313360000000001"
      height="20.66"
      role="img"
      focusable="false"
      viewBox="0 -750 596 1000"
    >
      <g
        stroke="none"
        fill="#000000"
        stroke-width="0"
        transform="scale(1,-1)"
        fill-opacity="1"
      >
        <g data-mml-node="math">
          <g data-mml-node="mtable">
            <g data-mml-node="mtr">
              <g data-mml-node="mtd">
                <g data-mml-node="mi">
                  <path
                    data-c="1D719"
                    d="M409 688Q413 694 421 694H429H442Q448 688 448 686Q448 679 418 563Q411 535 404 504T392 458L388 442Q388 441 397 441T429 435T477 418Q521 397 550 357T579 260T548 151T471 65T374 11T279 -10H275L251 -105Q245 -128 238 -160Q230 -192 227 -198T215 -205H209Q189 -205 189 -198Q189 -193 211 -103L234 -11Q234 -10 226 -10Q221 -10 206 -8T161 6T107 36T62 89T43 171Q43 231 76 284T157 370T254 422T342 441Q347 441 348 445L378 567Q409 686 409 688ZM122 150Q122 116 134 91T167 53T203 35T237 27H244L337 404Q333 404 326 403T297 395T255 379T211 350T170 304Q152 276 137 237Q122 191 122 150ZM500 282Q500 320 484 347T444 385T405 400T381 404H378L332 217L284 29Q284 27 285 27Q293 27 317 33T357 47Q400 66 431 100T475 170T494 234T500 282Z"
                  ></path>
                </g>
              </g>
            </g>
          </g>
        </g>
      </g>
    </svg>
  </g>
  <g>
    <path
      d="M 356.8678826759219 384.6388855197339 L 354.5301900729905 383.62590328897227"
      stroke-opacity="0.2"
      stroke-width="2"
      stroke="#000000"
      stroke-linecap="butt"
    ></path>
    <title>`m`.s40</title>
  </g>
  <g>
    <path
      d="M 380.9085760066952 393.0054444642187 L 378.4571145173294 392.31289201280487"
      stroke-opacity="0.4"
      stroke-width="2"
      stroke="#000000"
      stroke-linecap="butt"
    ></path>
    <title>`m`.s30</title>
  </g>
  <g>
    <path
      d="M 354.5301900729905 383.62590328897227 L 352.2065782292858 382.5812417843647"
      stroke-opacity="0.18"
      stroke-width="2"
      stroke="#000000"
      stroke-linecap="butt"
    ></path>
    <title>`m`.s41</title>
  </g>
  <g>
    <path
      d="M 405.81338306900886 398.21712606585936 L 403.2965606858262 397.8335357739471"
      stroke-opacity="0.6"
      stroke-width="2"
      stroke="#000000"
      stroke-linecap="butt"
    ></path>
    <title>`m`.s20</title>
  </g>
  <g>
    <path
      d="M 378.4571145173294 392.31289201280487 L 376.0143331684373 391.5884815260574"
      stroke-opacity="0.38"
      stroke-width="2"
      stroke="#000000"
      stroke-linecap="butt"
    ></path>
    <title>`m`.s31</title>
  </g>
  <g>
    <path
      d="M 352.2065782292858 382.5812417843647 L 349.89705652220294 381.5048770628758"
      stroke-opacity="0.16"
      stroke-width="2"
      stroke="#000000"
      stroke-linecap="butt"
    ></path>
    <title>`m`.s42</title>
  </g>
  <g>
    <path
      d="M 431.1780868737768 400.46147739814296 L 428.63198878226973 400.36404648987644"
      stroke-opacity="0.8"
      stroke-width="2"
      stroke="#000000"
      stroke-linecap="butt"
    ></path>
    <title>`m`.s10</title>
  </g>
  <g>
    <path
      d="M 403.2965606858262 397.8335357739471 L 400.7852302217418 397.42008435210255"
      stroke-opacity="0.58"
      stroke-width="2"
      stroke="#000000"
      stroke-linecap="butt"
    ></path>
    <title>`m`.s21</title>
  </g>
  <g>
    <path
      d="M 376.0143331684373 391.5884815260574 L 373.58153149185165 390.8322712099104"
      stroke-opacity="0.36"
      stroke-width="2"
      stroke="#000000"
      stroke-linecap="butt"
    ></path>
    <title>`m`.s32</title>
  </g>
  <g>
    <path
      d="M 349.89705652220294 381.5048770628758 L 347.6027914362133 380.3972031276792"
      stroke-opacity="0.14"
      stroke-width="2"
      stroke="#000000"
      stroke-linecap="butt"
    ></path>
    <title>`m`.s43</title>
  </g>
  <g>
    <path
      d="M 428.63198878226973 400.36404648987644 L 426.0866056228075 400.2390125098847"
      stroke-opacity="0.78"
      stroke-width="2"
      stroke="#000000"
      stroke-linecap="butt"
    ></path>
    <title>`m`.s11</title>
  </g>
  <g>
    <path
      d="M 400.7852302217418 397.42008435210255 L 398.27909107947215 396.9763434887194"
      stroke-opacity="0.56"
      stroke-width="2"
      stroke="#000000"
      stroke-linecap="butt"
    ></path>
    <title>`m`.s22</title>
  </g>
  <g>
    <path
      d="M 373.58153149185165 390.8322712099104 L 371.15870821117596 390.0438779881459"
      stroke-opacity="0.34"
      stroke-width="2"
      stroke="#000000"
      stroke-linecap="butt"
    ></path>
    <title>`m`.s33</title>
  </g>
  <g>
    <path
      d="M 347.6027914362133 380.3972031276792 L 345.32395111567297 379.2583181001686"
      stroke-opacity="0.12"
      stroke-width="2"
      stroke="#000000"
      stroke-linecap="butt"
    ></path>
    <title>`m`.s44</title>
  </g>
  <g>
    <path
      d="M 426.0866056228075 400.2390125098847 L 423.54185366155593 400.08605917237276"
      stroke-opacity="0.76"
      stroke-width="2"
      stroke="#000000"
      stroke-linecap="butt"
    ></path>
    <title>`m`.s12</title>
  </g>
  <g>
    <path
      d="M 398.27909107947215 396.9763434887194 L 395.77857302183634 396.502140588206"
      stroke-opacity="0.54"
      stroke-width="2"
      stroke="#000000"
      stroke-linecap="butt"
    ></path>
    <title>`m`.s23</title>
  </g>
  <g>
    <path
      d="M 371.15870821117596 390.0438779881459 L 368.74749559044056 389.22350402025756"
      stroke-opacity="0.32"
      stroke-width="2"
      stroke="#000000"
      stroke-linecap="butt"
    ></path>
    <title>`m`.s34</title>
  </g>
  <g>
    <path
      d="M 345.32395111567297 379.2583181001686 L 343.0606916530731 378.08826578377915"
      stroke-opacity="0.1"
      stroke-width="2"
      stroke="#000000"
      stroke-linecap="butt"
    ></path>
    <title>`m`.s45</title>
  </g>
  <g>
    <path
      d="M 423.54185366155593 400.08605917237276 L 420.99880902624943 399.90500113061785"
      stroke-opacity="0.74"
      stroke-width="2"
      stroke="#000000"
      stroke-linecap="butt"
    ></path>
    <title>`m`.s13</title>
  </g>
  <g>
    <path
      d="M 395.77857302183634 396.502140588206 L 393.2834077209224 395.99722303668165"
      stroke-opacity="0.52"
      stroke-width="2"
      stroke="#000000"
      stroke-linecap="butt"
    ></path>
    <title>`m`.s24</title>
  </g>
  <g>
    <path
      d="M 368.74749559044056 389.22350402025756 L 366.34824424167437 388.3711085167109"
      stroke-opacity="0.3"
      stroke-width="2"
      stroke="#000000"
      stroke-linecap="butt"
    ></path>
    <title>`m`.s35</title>
  </g>
  <g>
    <path
      d="M 343.0606916530731 378.08826578377915 L 340.8149636707227 376.8878824112199"
      stroke-opacity="0.08"
      stroke-width="2"
      stroke="#000000"
      stroke-linecap="butt"
    ></path>
    <title>`m`.s46</title>
  </g>
  <g>
    <path
      d="M 420.99880902624943 399.90500113061785 L 418.4589168349746 399.69569616080037"
      stroke-opacity="0.72"
      stroke-width="2"
      stroke="#000000"
      stroke-linecap="butt"
    ></path>
    <title>`m`.s14</title>
  </g>
  <g>
    <path
      d="M 393.2834077209224 395.99722303668165 L 390.7940587359184 395.4613193751468"
      stroke-opacity="0.5"
      stroke-width="2"
      stroke="#000000"
      stroke-linecap="butt"
    ></path>
    <title>`m`.s25</title>
  </g>
  <g>
    <path
      d="M 366.34824424167437 388.3711085167109 L 363.9604086988942 387.48646391477763"
      stroke-opacity="0.28"
      stroke-width="2"
      stroke="#000000"
      stroke-linecap="butt"
    ></path>
    <title>`m`.s36</title>
  </g>
  <g>
    <path
      d="M 340.8149636707227 376.8878824112199 L 338.5872504609859 375.6572619955285"
      stroke-opacity="0.06"
      stroke-width="2"
      stroke="#000000"
      stroke-linecap="butt"
    ></path>
    <title>`m`.s47</title>
  </g>
  <g>
    <path
      d="M 418.4589168349746 399.69569616080037 L 415.9223507867826 399.4578743780526"
      stroke-opacity="0.7"
      stroke-width="2"
      stroke="#000000"
      stroke-linecap="butt"
    ></path>
    <title>`m`.s15</title>
  </g>
  <g>
    <path
      d="M 390.7940587359184 395.4613193751468 L 388.3111618059421 394.8942313980475"
      stroke-opacity="0.48"
      stroke-width="2"
      stroke="#000000"
      stroke-linecap="butt"
    ></path>
    <title>`m`.s26</title>
  </g>
  <g>
    <path
      d="M 363.9604086988942 387.48646391477763 L 361.58384862876983 386.56942065195943"
      stroke-opacity="0.26"
      stroke-width="2"
      stroke="#000000"
      stroke-linecap="butt"
    ></path>
    <title>`m`.s37</title>
  </g>
  <g>
    <path
      d="M 338.5872504609859 375.6572619955285 L 336.3945340395003 374.40568934734824"
      stroke-opacity="0.04"
      stroke-width="2"
      stroke="#000000"
      stroke-linecap="butt"
    ></path>
    <title>`m`.s48</title>
  </g>
  <g>
    <path
      d="M 415.9223507867826 399.4578743780526 L 413.38987166036475 399.191341429499"
      stroke-opacity="0.68"
      stroke-width="2"
      stroke="#000000"
      stroke-linecap="butt"
    ></path>
    <title>`m`.s16</title>
  </g>
  <g>
    <path
      d="M 388.3111618059421 394.8942313980475 L 385.8358000717527 394.29594230680493"
      stroke-opacity="0.46"
      stroke-width="2"
      stroke="#000000"
      stroke-linecap="butt"
    ></path>
    <title>`m`.s27</title>
  </g>
  <g>
    <path
      d="M 361.58384862876983 386.56942065195943 L 359.2194688878386 385.6201981807424"
      stroke-opacity="0.24"
      stroke-width="2"
      stroke="#000000"
      stroke-linecap="butt"
    ></path>
    <title>`m`.s38</title>
  </g>
  <g>
    <path
      d="M 413.38987166036475 399.191341429499 L 410.8603214722332 398.8957887578197"
      stroke-opacity="0.66"
      stroke-width="2"
      stroke="#000000"
      stroke-linecap="butt"
    ></path>
    <title>`m`.s17</title>
  </g>
  <g>
    <path
      d="M 385.8358000717527 394.29594230680493 L 383.3681409848111 393.6663585212941"
      stroke-opacity="0.44"
      stroke-width="2"
      stroke="#000000"
      stroke-linecap="butt"
    ></path>
    <title>`m`.s28</title>
  </g>
  <g>
    <path
      d="M 359.2194688878386 385.6201981807424 L 356.8678826759219 384.6388855197339"
      stroke-opacity="0.22"
      stroke-width="2"
      stroke="#000000"
      stroke-linecap="butt"
    ></path>
    <title>`m`.s39</title>
  </g>
  <g>
    <path
      d="M 410.8603214722332 398.8957887578197 L 408.33474032357674 398.57112163779266"
      stroke-opacity="0.64"
      stroke-width="2"
      stroke="#000000"
      stroke-linecap="butt"
    ></path>
    <title>`m`.s18</title>
  </g>
  <g>
    <path
      d="M 383.3681409848111 393.6663585212941 L 380.9085760066952 393.0054444642187"
      stroke-opacity="0.42"
      stroke-width="2"
      stroke="#000000"
      stroke-linecap="butt"
    ></path>
    <title>`m`.s29</title>
  </g>
  <g>
    <path
      d="M 408.33474032357674 398.57112163779266 L 405.81338306900886 398.21712606585936"
      stroke-opacity="0.62"
      stroke-width="2"
      stroke="#000000"
      stroke-linecap="butt"
    ></path>
    <title>`m`.s19</title>
  </g>
  <g>
    <path
      d="M 456.61492527704644 399.9952312459294 L 454.08589201333376 400.15393461997246"
      stroke-opacity="1"
      stroke-width="2"
      stroke="#000000"
      stroke-linecap="butt"
    ></path>
    <title>`m`.s0</title>
  </g>
  <g>
    <path
      d="M 454.08589201333376 400.15393461997246 L 451.5429602497546 400.2892037318147"
      stroke-opacity="0.98"
      stroke-width="2"
      stroke="#000000"
      stroke-linecap="butt"
    ></path>
    <title>`m`.s1</title>
  </g>
  <g>
    <path
      d="M 451.5429602497546 400.2892037318147 L 448.9997482149671 400.39988956862993"
      stroke-opacity="0.96"
      stroke-width="2"
      stroke="#000000"
      stroke-linecap="butt"
    ></path>
    <title>`m`.s2</title>
  </g>
</svg>
