<svg
  version="1.2"
  xmlns="http://www.w3.org/2000/svg"
  viewBox="0 0 600 400"
  penrose="0"
>
  <penrose>
    <croppedViewBox>
      168.87563961148768 13.71997188809786 231.153919252948 368.2789712112856
    </croppedViewBox>
  </penrose>
  <polygon
    fill="#a288ab"
    fill-opacity="0.5"
    stroke="#000000"
    stroke-opacity="1"
    stroke-width="2"
    transform="scale(1)"
    points="346.97127602823446,14.501281926746799,356.6854525564909,16.870529419017203,365.88849659961795,20.779566963689973,374.33677424109385,26.127279634133657,381.8138737780341,32.76630983707193,388.14018270018454,40.50976085876624,393.1829563985104,49.14417210205701,396.8594467669409,58.44309943929119,399.13717565396144,68.1794226483467,400.0295588644357,78.13897139254107,399.58885046934654,88.12929379268793,397.89770230746063,97.9854619502737,395.05981530030203,107.57407955324959,391.19080683606944,116.79517602637618,386.41124596870566,125.57833867582436,380.8397397838243,133.88112920703566,374.5881693323415,141.68574547691512,367.76080900129693,148.99171773746497,360.45072293086145,155.81506569551172,352.7397730533199,162.1835831051282,344.70063417796666,168.13264309081794,336.39550998029875,173.70445490169146,327.8775892233783,178.94608610880158,319.19357711077186,183.9070272551743,310.3834837413922,188.6394938560392,301.48114311761435,193.1978788841574,292.5184088348414,197.63685200953446,283.5243737944595,202.0121087593755,274.5266684859972,206.38009846788708,265.55339189021197,210.79748991527214,256.6335653229182,215.32152208953602,247.79920071998797,220.00949275200185,239.0858930852097,224.91909163422451,230.53594986838505,230.10702026950338,222.1985924383617,235.6289723757244,214.1315614322024,241.53852250384065,206.40348468538855,247.88458171122159,199.09458779830823,254.7094524753427,192.2982989662849,262.0446675575279,186.1203863112074,269.90769776021,180.6788523060386,278.29696764631245,176.1009808645988,287.18701577913237,172.52002545525238,296.5239733625493,170.06968744466397,306.2193745408442,168.87563961148768,316.14807642841225,169.04607997839173,326.14664505443017,170.66040369305094,336.01505188074765,173.75769993731544,345.52237542483647,178.32683139040222,354.4166506565708,184.29730898895116,362.43769536138404,191.53682066236018,369.3349062906815,199.85357673646416,374.886082123393,209.00529309933896,378.91451174939624,218.71472407586106,381.30245474406365,228.68931975140723,381.99894309938344,238.63997804062825,381.01925902449545,248.29992741607737,378.43867162400795,257.4391136948882,374.380631778763,265.8705341786882,369.003205084544,273.45463516018947,362.48500972873984,280.09952345744796,355.01119073583106,285.7549623499468,346.763935782406,290.40804324497344,337.9135556781763,294.07622718841884,328.611398914372,296.79922630619853,318.99019878362986,298.63388155346536,309.1609502177537,299.6484231358498,299.21278513450756,299.91805962511063,289.2168308505032,299.52161110345156,279.22530126780003,298.5386927391398,269.2735336890429,297.0482414729548,259.3848408398294,295.1271712645507,249.57065283150197,292.8499565066659,239.83239554394754,290.28866633684,230.1646500920247,287.5132162617129,220.55677500034756,284.59123045441487,210.99215244433964,281.5890159815579,201.45194506351058,278.5725172487397,191.91676130491925,275.6068862149235,182.36494291055732,272.7583600251644,172.77728898694644,270.0943070707104,163.1370355698794,267.68359442109494,153.43056459701734,265.5970519715845,143.64961192485657,263.90752026088524,133.79294999866636,262.6895085065455,123.86774819544961,262.0186573315445,113.89060920004033,261.9708994762235,103.89119517421027,262.6210869557144,93.91290938701493,264.0410478648553,84.01451302714476,266.29712767652154,74.2724207336473,269.44682978849715,64.78175723672646,273.5349116091238,55.655858071998125,278.58821522010993,47.02711052937187,284.60986729651626,39.044442791980316,291.57406936554986,31.868957118405092,299.41935067984576,25.669240526319186,308.04536584520696,20.61196107296422,317.3111518891875,16.852051665528705,327.03536683982054,14.521932591035608,337.00269497635884,13.719971888097831"
  >
    <title>`c`.poly</title>
  </polygon>
</svg>
