<svg
  version="1.2"
  xmlns="http://www.w3.org/2000/svg"
  viewBox="0 0 600 400"
  penrose="0"
>
  <penrose>
    <croppedViewBox>
      169.49665820638901 11.276341999341156 226.14114738133824 371.6437366198994
    </croppedViewBox>
  </penrose>
  <polygon
    fill="#a288ab"
    fill-opacity="0.5"
    stroke="#000000"
    stroke-opacity="1"
    stroke-width="2"
    transform="scale(1)"
    points="342.0008379733018,11.375577944376602,351.8315961253323,13.200599914791752,361.19445763486124,16.70924016497608,369.8054835605048,21.79126474995769,377.41696491212184,28.275430423153523,383.83135143111366,35.94606811759732,388.91044514302126,44.55926158082178,392.57692044125344,53.86219819397559,394.80988809286214,63.609380449706805,395.6378055877273,73.5747903289025,395.1268448797035,83.5618760910136,393.37109156568476,93.40675022091781,390.48089474203783,102.98006444896039,386.5754219755659,112.18550912996872,381.77451014535586,120.95716560687785,376.19442824084246,129.25474477785906,369.94481976306173,137.06033449754872,363.12633748682754,144.37408071925765,355.82934377156596,151.21192995679195,348.13542747295645,157.59996032945514,340.1160197348181,163.5744983929823,331.8332948683439,169.1784810669318,323.3410580728799,174.46028543532202,314.68681993377413,179.47135882720121,305.9108178510761,184.26672805025652,297.04934559976033,188.90288407307284,288.1350170707615,193.43787627602978,279.199011913679,197.93060982730194,270.27178229159546,202.44053139179425,261.3837263859815,207.02795831150613,252.56862343139608,211.75218075438133,243.8621393064026,216.6728612963125,235.30475596924026,221.84809366852733,226.94340872508917,227.33375245889275,218.83219675220064,233.18198036560995,211.03261338446674,239.44055550010947,203.61666400767535,246.14887378240718,196.66504467421535,253.33727874894083,190.2683296827052,261.0230556469322,184.5253110164659,269.208971282225,179.54314563500952,277.87922452243953,175.43457183900352,286.9958686753032,172.31566052986926,296.49653230594237,170.30049046739393,306.2914926617354,169.49665820638901,316.2589435479238,169.99604948089225,326.2463072505328,171.86570229443385,336.0694359281121,175.13828548511697,345.51781215823553,179.8014964267631,354.3629519220367,185.7920647499099,362.36858324512457,192.9918479591085,369.30677383308745,201.23022300617728,374.97260156226446,210.29182522653502,379.1992096552073,219.92786748848073,381.8687944143088,229.87161576215027,382.9200786192406,239.85435162900754,382.3504590179916,249.62237189463707,380.21193742971,258.9482634750832,376.60421171643486,267.64179190612606,371.66317109707813,275.5546811765437,365.5495540849329,282.5821084468364,358.4360016004441,288.6611307719024,350.4964240386348,293.7653584618804,341.89759301897845,297.899599860993,332.7921851632673,301.09308214203793,323.31613380419975,303.39386957009174,313.5845406441188,304.8624208519686,303.6928609359871,305.5673593891347,293.71745711104415,305.5816667416841,283.7177741013858,304.9801898101775,273.7358517738635,303.8374494347017,263.80110826182187,302.22662184950815,253.93092586745092,300.2191891709522,244.13379082096492,297.88389770669704,234.40913002503194,295.2872981680582,224.75044005401813,292.49367371702493,215.1469615703092,289.56528412816994,205.58367754632945,286.5627836680828,196.04303951976604,283.54642312754595,186.50710182980566,280.5761877586172,176.95660766603768,277.7131964039538,167.37341368605135,275.0204581098627,157.74115115496573,272.5637272201928,148.04681369712802,270.4116921959092,138.28057805105004,268.6367479127361,128.43921980007224,267.3149962874253,118.52693427642417,266.5255133235222,108.55881413927808,266.3499715931017,98.56070967547369,266.8708824456835,88.5742170751753,268.17006569356505,78.65889728153815,270.3249537400982,68.89376746265759,273.40559318423743,59.379678604886465,277.46869137112355,50.24196467194264,282.55103279233236,41.62947076905323,288.66195318254375,33.71381777998599,295.7739317534879,26.683915254542228,303.8146701242715,20.73946819796248,312.6601886093213,16.07628142320013,322.13243511826346,12.87413690863167,332.00288381397274,11.276341999341156"
  >
    <title>`c`.poly</title>
  </polygon>
</svg>
