<svg
  version="1.2"
  xmlns="http://www.w3.org/2000/svg"
  viewBox="0 0 600 400"
  penrose="0"
>
  <penrose>
    <croppedViewBox>
      170.02768691784627 12.264951392703324 228.25983016399027 371.1178019332442
    </croppedViewBox>
  </penrose>
  <polygon
    fill="#a288ab"
    fill-opacity="0.5"
    stroke="#000000"
    stroke-opacity="1"
    stroke-width="2"
    transform="scale(1)"
    points="345.09190097510566,12.774206691610146,354.8526600136751,14.922033354705178,364.1190335586318,18.6660388440431,372.63063060657373,23.904099533247546,380.15670190732203,30.48036952039746,386.5095306602667,38.19641400174072,391.55331390098996,46.82579181640824,395.20748859078935,56.12980415660755,397.4451967061428,65.87266680049265,398.28751708183654,75.8343644086213,397.79482040142653,85.82013979125537,396.05676928220623,95.66661315411447,393.1821568726442,105.24387360878201,389.28968049797595,114.45530265610405,384.5004754915177,123.23460925339471,378.93226821244616,131.5424179739274,372.69581568378806,139.36159852778758,365.89246179147096,146.6934694115153,358.61336878562884,153.55380255668513,350.93927731671323,159.9697582877409,342.9410074705323,165.97716166613452,334.6801007681279,171.61838568640502,326.2099314328879,176.94047705428818,317.5765647468855,181.99392914262626,308.8203251784648,186.8314166104884,299.9766671572814,191.5073341270374,291.077764659316,196.07714719392834,282.15346055392297,200.5972818855327,273.23291621310415,205.12467134642432,264.3454453569575,209.71669961564498,255.52212305242224,214.43062662046583,246.79666184714202,219.3232959504659,238.20697838096234,224.4503581729662,229.7961524979316,229.86572690618743,221.61410140880054,235.62047052743003,213.71838291443868,241.76202754403914,206.1761225832202,248.33224740628575,199.06442491959353,255.36593076261417,192.4718335191214,262.88765089883503,186.49796547426735,270.9091066045221,181.25351858358678,279.4246255287102,176.85823362223837,288.40732832772983,173.43815937498806,297.80398955629573,171.12068309426408,307.53072439658877,170.02768691784627,317.46904503152996,170.2664728719808,327.46361861248624,171.9188539304387,337.32273342927624,175.02914070058904,346.8223504261798,179.59266242219263,355.71482769673594,185.54657531604434,363.7422050959665,192.76539002473044,370.6535240861226,201.0626195170703,376.2237383646665,210.19936113991741,380.27207476625136,219.89935480670562,382.67662615346234,229.8683120729581,383.38275332594753,239.81471029571688,382.40415751969033,249.46908470744583,379.81661437196385,258.598622926339,375.7462021096731,267.01652391065284,370.3543551548194,274.5851399871568,363.8224310555751,281.21447096878626,356.33798738299777,286.85757753397337,348.0835767147035,291.50392594764384,339.2289523009135,295.1725415080928,329.9258808703454,297.90512917215267,320.30560130417996,299.75999799676714,310.4777280532943,300.8066766230311,300.5308274280584,301.1213826893175,290.5334955839159,300.78337194205966,280.53654067896053,299.8721859918648,270.57517226602477,298.4656946346396,260.67133062493633,296.63895320262776,250.8361566568063,294.46364230941515,241.0720252927034,292.0080342738741,231.37448432333426,289.33731943986686,221.733904235871,286.514147113793,212.1367993913605,283.5993594380164,202.56705841105142,280.65283130829766,193.0070101479993,277.7343561191394,183.4383232713776,274.9046151456233,173.8430703211538,272.2260335542599,164.2045388667002,269.7636809967356,154.50866421663386,267.58579180056756,144.7450394140741,265.7641900595906,134.90890750006642,264.3741359526955,125.0028400003183,263.49374558408346,115.038846883096,263.2028977224452,105.04064732853966,263.5815232458765,95.04575799115163,264.7073725326929,85.10771266515128,266.6532201284454,75.29764822110313,269.48338057802016,65.70581065155824,273.24973917336166,56.44203428112786,277.9869407076177,47.63575337772829,283.70695794619223,39.43458545653999,290.39342251830664,32.00112624205434,297.9955015292418,25.50817144845064,306.42298178464677,20.130985789492485,315.5425537169005,16.037596152955103,325.17738792913485,13.376735534725611,335.1103240470402,12.264951392703324"
  >
    <title>`c`.poly</title>
  </polygon>
</svg>
