<svg
  version="1.2"
  xmlns="http://www.w3.org/2000/svg"
  viewBox="0 0 800 800"
  penrose="0"
>
  <penrose><croppedViewBox>0 0 800 800</croppedViewBox></penrose>
  <rect
    x="0"
    y="0"
    width="800"
    height="800"
    fill="#000000"
    fill-opacity="1"
    stroke="none"
    rx="0"
    transform="rotate(0, 400, 400)"
  >
    <title>global.background</title>
  </rect>
  <text
    fill="#feb0ed"
    fill-opacity="1"
    stroke="none"
    transform="rotate(0, 400, 200)"
    style="font: 40px cursive"
    x="400"
    y="215"
    width="379.43359375"
    height="32"
    font-size-adjust=""
    alignment-baseline="alphabetic"
    dominant-baseline="alphabetic"
    ascent="31"
    descent="1"
    text-anchor="middle"
    visibility=""
  >
    <title>global.text</title>
    Evolute of Cardioid
  </text>
  <g stroke-linejoin="round">
    <filter
      id="evolute-of-cardioid__2:0:cardioid-shadow"
      x="0"
      y="0"
      width="200%"
      height="200%"
    >
      <feOffset result="offOut" in="SourceAlpha" dx="5" dy="5" />
      <feGaussianBlur result="blurOut" in="offOut" stdDeviation="4" />
      <feBlend in="SourceGraphic" in2="blurOut" mode="normal" />
      <feComponentTransfer>
        <feFuncA type="linear" slope="0.5" />
      </feComponentTransfer>
      <feMerge>
        <feMergeNode />
        <feMergeNode in="SourceGraphic" />
      </feMerge>
    </filter>
    <path
      fill="none"
      stroke="#c3fcc3"
      stroke-opacity="1"
      stroke-width="3"
      stroke-linecap="butt"
      d="M 399.50214426349214 397.39014883231556 C 399.074630997268 396.11965755422113 398.79164827580644 394.9762045533507 397.7313447656934 393.01779713384803 C 396.6710412555803 391.05938971434534 395.8678331381657 389.50211378868505 393.92159947342327 387.0827413612488 C 391.9753658086809 384.6633689338125 390.5021039730062 382.8694225869788 387.48800968810195 380.28425804207814 C 384.4739154031977 377.69909349717744 382.23439218449494 375.88497862781617 378.0579453423482 373.476612177561 C 373.8814985002015 371.0682457273058 370.84214911643477 369.47457331991325 365.50671051890856 367.60864514599814 C 360.1712719213823 365.7427169720831 356.3660320073334 364.6170916960972 349.9766895658944 363.655937578008 C 343.5873471244554 362.6947834599187 339.11799701192297 362.2739200934079 331.8785924060717 362.54993926131795 C 324.6391878002204 362.825958429228 319.671122854784 363.3181904751663 311.87456006141383 365.10867004069246 C 304.0779972680437 366.89914960621866 298.8316558953661 368.46847043237926 290.84405138833404 371.973515921982 C 282.85644688130196 375.4785614115848 277.59490610397586 378.2312459058836 269.8345363401924 383.55627788070706 C 262.07416657640897 388.88130985553045 257.0876617841983 392.8560056868347 249.99999999999997 400 C 242.9123382158016 407.14399431316536 238.50066321357957 412.3059563564251 232.53105326546415 421.1562479499984 C 226.56144331734873 430.00653954357165 223.0153265008139 436.24642237117985 218.58100027307674 446.5804820714384 C 214.14667404533958 456.91454177169686 211.72929754364904 464.0518795562209 209.19249417211063 475.5460358460958 C 206.65569080057222 487.0401921359707 205.5855171703623 494.8314007820982 205.22940358076934 507.07604149183254 C 204.8732899911764 519.3206822015668 205.30928556358066 527.4711335335232 207.31821212162137 539.99151326575 C 209.32713867966208 552.5118929979767 211.35733858849738 560.6913532931408 215.80270125466785 572.9727769246048 C 220.24806392083832 585.2542005560689 223.88222012597396 593.114711844363 230.71485773304488 604.6305850102978 C 237.5474953401158 616.1464581762325 242.71429830663715 623.3415839954389 251.76395181819908 633.5826356926827 C 260.813605329761 643.8236873899266 267.36268808736656 650.0279549984095 278.344613057055 658.5308571010547 C 289.32653802674344 667.0337592036999 297.03517574411273 671.9611133019193 309.56355692182245 678.3347520223941 C 322.0919380995322 684.7083907428689 330.67606556081347 688.1285306812399 344.2834613607904 692.076324050922 C 357.8908571607674 696.0241174206043 367.0197588269536 697.7757171785647 381.18142955328017 699.1126118628265 C 395.3431002796068 700.4495065470884 404.6568997203933 700.4495065470884 418.8185704467199 699.1126118628265 C 432.98024117304647 697.7757171785647 442.10914283923256 696.0241174206044 455.71653863920955 692.0763240509223 C 469.3239344391865 688.12853068124 477.9080619004679 684.7083907428689 490.4364430781776 678.334752022394 C 502.9648242558874 671.9611133019192 510.6734619732567 667.0337592036997 521.6553869429451 658.5308571010546 C 532.6373119126335 650.0279549984093 539.1863946702391 643.8236873899264 548.236048181801 633.5826356926826 C 557.285701693363 623.3415839954389 562.4525046598842 616.1464581762325 569.2851422669551 604.6305850102976 C 576.117779874026 593.1147118443629 579.7519360791616 585.2542005560689 584.1972987453321 572.9727769246049 C 588.6426614115026 560.6913532931408 590.6728613203379 552.5118929979766 592.6817878783786 539.9915132657499 C 594.6907144364193 527.4711335335231 595.1267100088237 519.3206822015669 594.7705964192307 507.0760414918326 C 594.4144828296378 494.83140078209834 593.3443091994277 487.04019213597064 590.8075058278894 475.5460358460958 C 588.2707024563509 464.0518795562209 585.8533259546605 456.914541771697 581.4189997269233 446.5804820714385 C 576.9846734991861 436.24642237117996 573.4385566826512 430.0065395435716 567.4689467345358 421.15624794999826 C 561.4993367864204 412.305956356425 557.0876617841983 407.1439943131653 550 400 C 542.9123382158016 392.85600568683464 537.925833423591 388.8813098555304 530.1654636598075 383.556277880707 C 522.405093896024 378.2312459058836 517.1435531186982 375.4785614115848 509.155948611666 371.973515921982 C 501.16834410463395 368.46847043237926 495.9220027319562 366.8991496062186 488.12543993858606 365.10867004069246 C 480.32887714521587 363.31819047516626 475.36081219977973 362.825958429228 468.12140759392844 362.54993926131795 C 460.88200298807715 362.2739200934079 456.4126528755446 362.69478345991877 450.02331043410555 363.655937578008 C 443.63396799266656 364.6170916960972 439.8287280786176 365.74271697208314 434.4932894810914 367.6086451459982 C 429.1578508835652 369.47457331991325 426.1185014997985 371.0682457273058 421.9420546576518 373.476612177561 C 417.76560781550506 375.88497862781617 415.5260845968023 377.6990934971775 412.51199031189805 380.2842580420782 C 409.49789602699377 382.8694225869789 408.0246341913191 384.66336893381254 406.07840052657673 387.0827413612488 C 404.1321668618343 389.50211378868505 403.3289587444197 391.05938971434534 402.2686552343066 393.01779713384803 C 401.20835172419356 394.9762045533507 400.925369002732 396.11965755422113 400.49785573650786 397.39014883231556 C 400.07034247028366 398.66064011041 400.11670923030476 399.26484887895947 400.0185854120742 399.7045933343451 C 399.9204615938436 400.14433778973074 400.0795384061564 400.14433778973074 399.9814145879258 399.7045933343451 C 399.88329076969524 399.26484887895947 399.92965752971634 398.66064011041 399.50214426349214 397.39014883231556 Z "
    />
    <title>2:0:cardioid</title>
  </g>
  <g stroke-linejoin="round">
    <filter
      id="evolute-of-cardioid__2:0:evolute-shadow"
      x="0"
      y="0"
      width="200%"
      height="200%"
    >
      <feOffset result="offOut" in="SourceAlpha" dx="5" dy="5" />
      <feGaussianBlur result="blurOut" in="offOut" stdDeviation="4" />
      <feBlend in="SourceGraphic" in2="blurOut" mode="normal" />
      <feComponentTransfer>
        <feFuncA type="linear" slope="0.5" />
      </feComponentTransfer>
      <feMerge>
        <feMergeNode />
        <feMergeNode in="SourceGraphic" />
      </feMerge>
    </filter>
    <path
      fill="none"
      stroke="#9d94ff"
      stroke-opacity="1"
      stroke-width="3"
      stroke-linecap="butt"
      d="M 381.1843569901264 404.24053520076023 C 375.4851291442236 405.67362704499686 374.0788681537585 406.2279418401028 370.0347839325651 408.18500441094216 C 365.9906997113717 410.1420669817815 363.4745320369863 411.79590713244295 359.89970319437157 414.54086452096743 C 356.32487435175676 417.2858219094919 354.1816723026543 419.30527076968156 351.2198952872241 422.63214856107095 C 348.25811827179393 425.9590263524604 346.56070983858604 428.3010348505459 344.31140311316 432.05074763354344 C 342.06209638773396 435.800460416541 340.85980376675604 438.3619926687579 339.38143883761336 442.3674789979003 C 337.90307390847073 446.3729653270427 337.2199255032925 449.0421251570399 336.5305350650408 453.1322546290298 C 335.8411446267891 457.2223841010197 335.67491336946614 459.88658586091515 335.753068109973 463.89447621889997 C 335.8312228504799 467.9023665768848 336.15432772948645 470.4546878954958 336.94187580455065 474.2264144078972 C 337.72942387961484 477.99814092029874 338.4913236744968 480.34307976904574 339.89805797873197 483.745668389434 C 341.3047922829672 487.1482570098223 342.4356810647871 489.2066923669206 344.3457405636833 492.1347755678357 C 346.25580006257945 495.06285876875074 347.6713675469989 496.7759340739973 349.95100270976445 499.1566326047764 C 352.23063787252994 501.5373311355555 353.83759479106715 502.86903321397364 356.34382036771234 504.66476783509415 C 358.85004594435753 506.46050245621467 360.5520671914751 507.3987899374041 363.14166363947606 508.60786745277915 C 365.7312600874771 509.81694496815425 367.43497309665287 510.37337207330154 369.9732753571912 511.02833370548933 C 372.51157761772953 511.6832953376771 374.13222202222795 511.89117186150213 376.5011492212567 512.0550339379781 C 378.8700764202854 512.218896014454 380.3364834628265 512.130116285559 382.44131324681587 511.8907656869417 C 384.5461430308053 511.65141508832437 385.80472782466705 511.3321719188794 387.57920071593765 510.7952939452553 C 389.3536736072083 510.2584159716312 390.37119729703477 509.78408492951286 391.7806442535035 509.06509214155164 C 393.1900912099722 508.34609935359043 393.9550292368041 507.79562979260146 394.9973425920888 507.01112137703836 C 396.03965594737355 506.2266129614753 396.56209795758735 505.6767919496318 397.2665040181599 504.93610048069337 C 397.97091007873235 504.1954090117549 398.28101087346977 503.7153707674397 398.7047429108914 503.1127452247306 C 399.1284749483131 502.51011968202135 399.27356831743464 502.1564559851616 399.49667263616874 501.76438709801346 C 399.71977695490284 501.3723182108654 399.7603494400622 501.1851056091287 399.8789761673866 501.04922476605645 C 399.99760289471106 500.91334392298415 400.0023971052883 500.91334392298126 400.1210238326131 501.0492247660542 C 400.2396505599379 501.1851056091271 400.28022304509886 501.3723182108711 400.50332736383285 501.76438709801914 C 400.7264316825668 502.15645598516727 400.8715250516864 502.51011968202056 401.2952570891075 503.1127452247284 C 401.71898912652864 503.7153707674362 402.02908992126595 504.19540901175276 402.73349598183887 504.93610048069183 C 403.43790204241185 505.67679194963097 403.9603440526275 506.2266129614762 405.00265740791247 507.0111213770395 C 406.0449707631974 507.7956297926029 406.8099087900281 508.3460993535906 408.2193557464965 509.0650921415516 C 409.6288027029649 509.7840849295126 410.6463263927915 510.258415971631 412.4207992840618 510.795293945255 C 414.1952721753321 511.3321719188791 415.4538569691922 511.65141508832403 417.5586867531823 511.8907656869414 C 419.6635165371724 512.1301162855588 421.129923579718 512.2188960144538 423.4988507787466 512.0550339379779 C 425.8677779777752 511.89117186150213 427.4884223822684 511.6832953376777 430.02672464280636 511.0283337054898 C 432.56502690334435 510.37337207330194 434.2687399125238 509.8169449681539 436.8583363605253 508.6078674527787 C 439.44793280852673 507.3987899374035 441.14995405564287 506.46050245621444 443.6561796322877 504.66476783509404 C 446.1624052089326 502.8690332139737 447.7693621274697 501.53733113555575 450.0489972902352 499.15663260477675 C 452.3286324530007 496.7759340739977 453.74419993742026 495.0628587687511 455.6542594363165 492.1347755678359 C 457.5643189352128 489.2066923669207 458.69520771703293 487.1482570098219 460.10194202126814 483.74566838943355 C 461.5086763255034 480.3430797690452 462.27057612038516 477.9981409202984 463.05812419544935 474.2264144078971 C 463.84567227051355 470.45468789549574 464.1687771495202 467.90236657688513 464.2469318900271 463.8944762189003 C 464.325086630534 459.8865858609155 464.1588553732109 457.2223841010195 463.46946493495915 453.13225462902955 C 462.78007449670747 449.04212515703955 462.0969260915292 446.37296532704283 460.6185611623866 442.36747899790043 C 459.1401962332439 438.36199266875803 457.9379036122659 435.80046041654083 455.6885968868399 432.05074763354327 C 453.43929016141385 428.3010348505457 451.74188172820607 425.95902635246046 448.7801047127759 422.63214856107106 C 445.8183276973457 419.30527076968167 443.6751256482433 417.2858219094919 440.1002968056285 414.54086452096743 C 436.5254679630137 411.7959071324429 434.0093002886282 410.14206698178145 429.96521606743477 408.1850044109421 C 425.9211318462414 406.22794184010274 424.5148708557764 405.67362704499686 418.81564300987367 404.24053520076023 C 413.11641516397094 402.80744335652366 403.5384154151536 401.32605845136726 399.96928003636776 400.64241575706524 C 396.4001446575819 399.95877306276316 403.5998553424181 399.95877306276316 400.03071996363224 400.64241575706524 C 396.4615845848464 401.32605845136726 386.8835848360291 402.8074433565236 381.1843569901264 404.24053520076023 Z "
    />
    <title>2:0:evolute</title>
  </g>
</svg>
