<svg
  version="1.2"
  xmlns="http://www.w3.org/2000/svg"
  viewBox="0 0 800 800"
  penrose="0"
>
  <penrose>
    <croppedViewBox>
      143.61597373197498 383.6896714367636 360.039789849926 330.70857652524927
    </croppedViewBox>
  </penrose>
  <path
    fill="none"
    stroke="#8e8e8e"
    stroke-opacity="0.5882352941176471"
    stroke-width="40"
    stroke-linecap="butt"
    d="M 471.5522827710374 436.8794059891952 C 492.61015733046804 464.2804529585103 503.65576358190094 502.8891225270147 493.9929229376139 534.3291689012985 C 484.3300822933269 565.7692152755824 453.09219237539014 584.9736519251923 420.69522674847394 602.3533342748997 C 388.29826112155774 619.7330166246071 353.8478754255583 606.5300381003669 323.48257753279177 625.8011812681798 C 293.11727964002523 645.0723244359926 291.3031226290189 693.1625591963427 260.87786941812374 703.7804035791778 C 230.45261620722857 714.3982479620129 182.49919010523067 704.8727145047212 163.3496658965014 681.6845727567852 C 144.20014168777212 658.4964310088492 143.61597373197498 609.0213823124037 160.090899898496 581.7375522742514 C 176.56582606501703 554.453722236099 218.9294927744077 559.1850543030566 250.05980361503316 538.0854672928253 C 281.19011445565866 516.985880282594 298.64522305308606 498.80183798937054 323.9346411649458 470.6870943256654 C 349.2240592768055 442.57235066196023 355.114652298611 396.53659300462226 383.16200420376845 390.11313222069293 C 411.2093561089259 383.6896714367636 450.4944082116068 409.47835901988014 471.5522827710374 436.8794059891952 Z "
    stroke-linejoin="round"
    style="filter: blur(15px)"
  >
    <title>3:0:bloom</title>
  </path>
  <path
    fill="none"
    stroke="#222fa8"
    stroke-opacity="1"
    stroke-width="1.8"
    stroke-linecap="butt"
    d="M 459.6587601586812 446.01965189006233 C 477.3561562795237 469.8053521491091 488.4051844307827 502.7305104767013 479.654826790843 529.9224725319816 C 470.90446915090325 557.1144345872619 444.80412166496853 573.3245949552784 413.6042462642617 589.1352416546956 C 382.4043708635549 604.945888354113 345.40202410471113 594.0446715201994 315.4449562608071 613.1364025289147 C 285.4878884169031 632.2281335376299 282.6360580657367 678.4086638975944 255.93546813845109 689.6180364374076 C 229.23487821116547 700.8274089772208 190.68628612206834 691.1572057987845 174.91553559088285 672.1331001068787 C 159.14478505969737 653.1089944149729 157.05510235836877 612.601044590898 172.93151797431693 589.4911643747455 C 188.8079335902651 566.3812841585931 227.66611716871043 571.1689523395776 258.47561778008367 550.502151600813 C 289.2851183914569 529.8353508620485 310.76013075876364 508.4143681896881 335.08678434996546 480.7185289075634 C 359.4134379411672 453.0226896254386 362.84196127748976 411.32736306506047 386.5106366811458 404.73457643173526 C 410.1793120848018 398.14178979841006 441.96136403783873 422.23395163101554 459.6587601586812 446.01965189006233 Z "
    stroke-linejoin="round"
  >
    <title>3:0:offset3</title>
  </path>
  <path
    fill="none"
    stroke="#222fa8"
    stroke-opacity="1"
    stroke-width="1.5"
    stroke-linecap="butt"
    d="M 455.6942526212291 449.0664005236847 C 472.2714892625422 471.64698521264205 483.3216580470766 502.67763979326344 474.875461408586 528.4535737422093 C 466.4292647700954 554.229507691155 442.0414314281613 569.441575965307 411.2405861028576 584.7292107812943 C 380.43974077755394 600.0168455972816 342.5867403310954 589.8828826601435 312.76574917014557 608.9148096158262 C 282.94475800919577 627.9467365715091 279.74703654464264 673.4906987980116 254.28800104522688 684.8972473901508 C 228.82896554581112 696.30379598229 193.4153181276809 686.5853695634722 178.77082548901 668.9492758902431 C 164.1263328503391 651.3131822170142 161.53481190050007 613.7942653503961 177.2117239995906 592.075701741577 C 192.8886360986811 570.3571381327578 230.57832530014466 575.163585018418 261.28088916843376 554.6410463701422 C 291.98345303672295 534.1185077218665 314.7984333273228 511.61854492312733 338.8041654116387 484.0623404348627 C 362.8098974959545 456.506135946598 365.41773093711606 416.2576197518732 387.62684750693825 409.6083911687494 C 409.83596407676043 402.95916258562556 439.11701597991606 426.4858158347273 455.6942526212291 449.0664005236847 Z "
    stroke-linejoin="round"
  >
    <title>3:0:offset4</title>
  </path>
  <path
    fill="none"
    stroke="#222fa8"
    stroke-opacity="1"
    stroke-width="1.2"
    stroke-linecap="butt"
    d="M 451.72974508377706 452.1131491573071 C 467.18682224556073 473.488618276175 478.2381316633705 502.6247691098256 470.096096026329 526.9846749524369 C 461.9540603892875 551.3445807950483 439.2787411913541 565.5585569753358 408.8769259414535 580.3231799078931 C 378.47511069155297 595.0878028404502 339.77145655747967 585.7210938000877 310.08654207948405 604.6932167027379 C 280.40162760148837 623.6653396053881 276.85801502354855 668.5727336984288 252.64053395200267 680.1764583428941 C 228.42305288045677 691.7801829873594 196.1443501332935 682.01353332816 182.6261153871372 665.7654516736077 C 169.10788064098088 649.5173700190554 166.01452144263135 614.9874861098942 181.49193002486425 594.6602391084084 C 196.96933860709714 574.3329921069225 233.4905334315789 579.1582176972584 264.08616055678397 558.7799411394715 C 294.681787681989 538.4016645816846 318.836735895882 514.8227216565665 342.52154647331184 487.40615196216197 C 366.20635705074176 459.9895822677575 367.99350059674225 421.187876438686 388.74305833273064 414.4822059057635 C 409.49261606871903 407.77653537284107 436.2726679219934 430.7376800384391 451.72974508377706 452.1131491573071 Z "
    stroke-linejoin="round"
  >
    <title>3:0:offset5</title>
  </path>
  <path
    fill="none"
    stroke="#222fa8"
    stroke-opacity="1"
    stroke-width="0.9"
    stroke-linecap="butt"
    d="M 447.765237546325 455.15989779092945 C 462.1021552285793 475.33025133970796 473.1546052796644 502.57189842638775 465.31673064407204 525.5157761626646 C 457.4788560084797 548.4596538989414 436.51605095454687 561.6755379853645 406.51326578004944 575.9171490344917 C 376.51048060555206 590.1587600836187 336.95617278386396 581.5593049400318 307.40733498882247 600.4716237896495 C 277.858497193781 619.3839426392672 273.9689935024545 663.654768598846 250.99306685877846 675.4556692956373 C 228.01714021510242 687.2565699924287 198.873382138906 677.4416970928478 186.48140528526432 662.5816274569722 C 174.08942843162262 647.7215578210967 170.49423098476265 616.1807068693923 185.7721360501379 597.2447764752397 C 201.05004111551315 578.3088460810873 236.40274156301314 583.1528503760986 266.8914319451341 562.9188359088007 C 297.3801223272551 542.6848214415028 322.87503846444116 518.0268983900057 346.23892753498507 490.7499634894613 C 369.602816605529 463.4730285889169 370.56927025636855 426.1181331254987 389.8592691585231 419.35602064277765 C 409.1492680606777 412.59390816005657 433.4283198640707 434.9895442421509 447.765237546325 455.15989779092945 Z "
    stroke-linejoin="round"
  >
    <title>3:0:offset6</title>
  </path>
  <path
    fill="none"
    stroke="#222fa8"
    stroke-opacity="1"
    stroke-width="0.6"
    stroke-linecap="butt"
    d="M 443.8007300088729 458.20664642455176 C 457.0174882115978 477.1718844032409 468.0710788959583 502.51902774294996 460.53736526181507 524.0468773728923 C 453.00365162767184 545.5747270028346 433.75336071773967 557.7925189953933 404.14960561864535 571.5111181610903 C 374.5458505195511 585.2297173267874 334.1408890102482 577.397516079976 304.7281278981609 596.2500308765611 C 275.3153667860736 615.1025456731463 271.0799719813605 658.7368034992633 249.34559976555425 670.7348802483806 C 227.61122754974807 682.7329569974979 201.6024141445186 672.8698608575355 190.3366951833915 659.3978032403368 C 179.0709762222644 645.9257456231379 174.9739405268939 617.3739276288904 190.05234207541153 599.8293138420712 C 205.13074362392916 582.2847000552518 239.3149496944474 587.1474830549389 269.69670333348427 567.0577306781299 C 300.07845697252117 546.967978301321 326.91334103300034 521.231075123445 349.9563085966583 494.0937750167607 C 372.99927616031624 466.9564749100764 373.14503991599474 431.0483898123114 390.97547998431554 424.2298353797918 C 408.80592005263634 417.4112809472721 430.58397180614804 439.2414084458627 443.8007300088729 458.20664642455176 Z "
    stroke-linejoin="round"
  >
    <title>3:0:offset7</title>
  </path>
  <path
    fill="none"
    stroke="#222fa8"
    stroke-opacity="1"
    stroke-width="0.3"
    stroke-linecap="butt"
    d="M 439.83622247142085 461.25339505817414 C 451.9328211946164 479.0135174667738 462.9875525122522 502.4661570595121 455.75799987955804 522.57797858312 C 448.52844724686395 542.6898001067277 430.9906704809324 553.9095000054219 401.78594545724127 567.105087287689 C 372.58122043355013 580.3006745699561 331.3256052366325 573.2357272199201 302.04892080749937 592.0284379634727 C 272.77223637836624 610.8211487070254 268.1909504602663 653.8188383996804 247.69813267233002 666.0140912011238 C 227.2053148843937 678.2093440025673 204.33144615013117 668.2980246222232 194.19198508151865 656.2139790237012 C 184.05252401290613 644.1299334251792 179.4536500690252 618.5671483883885 194.3325481006852 602.4138512089025 C 209.21144613234517 586.2605540294167 242.22715782588162 591.1421157337793 272.5019747218344 571.1966254474592 C 302.77679161778724 551.251135161139 330.95164360155957 524.4352518568841 353.6736896583315 497.43758654405997 C 376.3957357151035 470.43992123123587 375.72080957562105 435.9786464991242 392.091690810108 429.10365011680585 C 408.462572044595 422.2286537344876 427.7396237482253 443.49327264957446 439.83622247142085 461.25339505817414 Z "
    stroke-linejoin="round"
  >
    <title>3:0:offset8</title>
  </path>
  <path
    fill="#ffffff"
    fill-opacity="1"
    stroke="#0a600a"
    stroke-opacity="1"
    stroke-width="3"
    stroke-linecap="butt"
    d="M 471.5522827710374 436.8794059891952 C 492.61015733046804 464.2804529585103 503.65576358190094 502.8891225270147 493.9929229376139 534.3291689012985 C 484.3300822933269 565.7692152755824 453.09219237539014 584.9736519251923 420.69522674847394 602.3533342748997 C 388.29826112155774 619.7330166246071 353.8478754255583 606.5300381003669 323.48257753279177 625.8011812681798 C 293.11727964002523 645.0723244359926 291.3031226290189 693.1625591963427 260.87786941812374 703.7804035791778 C 230.45261620722857 714.3982479620129 182.49919010523067 704.8727145047212 163.3496658965014 681.6845727567852 C 144.20014168777212 658.4964310088492 143.61597373197498 609.0213823124037 160.090899898496 581.7375522742514 C 176.56582606501703 554.453722236099 218.9294927744077 559.1850543030566 250.05980361503316 538.0854672928253 C 281.19011445565866 516.985880282594 298.64522305308606 498.80183798937054 323.9346411649458 470.6870943256654 C 349.2240592768055 442.57235066196023 355.114652298611 396.53659300462226 383.16200420376845 390.11313222069293 C 411.2093561089259 383.6896714367636 450.4944082116068 409.47835901988014 471.5522827710374 436.8794059891952 Z "
    stroke-linejoin="round"
  >
    <title>3:0:curve</title>
  </path>
  <path
    fill="none"
    stroke="#222fa8"
    stroke-opacity="1"
    stroke-width="2.4"
    stroke-linecap="butt"
    d="M 467.5877752335854 439.9261546228176 C 487.5254903134866 466.1220860220432 498.5722371981949 502.83625184357686 489.21355755535694 532.8602701115262 C 479.854877912519 562.8842883794756 450.32950213858294 581.0906329352209 418.33156658706986 597.9473034014984 C 386.3336310355568 614.8039738677758 351.0325916519426 602.3682492403111 320.80337044213024 621.5795883550913 C 290.57414923231784 640.7909274698717 288.41410110792486 688.24459409676 259.2304023248995 699.059614531921 C 230.04670354187422 709.8746349670821 185.22822211084323 700.3008782694089 167.20495579462855 678.5007485401497 C 149.18168947841386 656.7006188108904 148.09568327410625 610.2146030719018 164.37110592376965 584.3220896410828 C 180.64652857343305 558.4295762102637 221.84170090584195 563.179686981897 252.8650750033833 542.2243620621546 C 283.8884491009247 521.2690371424121 302.6835256216453 502.0060147228097 327.652022226619 474.0309058529647 C 352.62051883159273 446.05579698311965 357.69042195823727 401.466849691435 384.2782150295609 394.98694695770706 C 410.86600810088447 388.5070442239791 447.6500601536841 413.73022322359196 467.5877752335854 439.9261546228176 Z "
    stroke-linejoin="round"
  >
    <title>3:0:offset1</title>
  </path>
  <path
    fill="none"
    stroke="#222fa8"
    stroke-opacity="1"
    stroke-width="2.1"
    stroke-linecap="butt"
    d="M 463.62326769613327 442.97290325643996 C 482.44082329650513 467.96371908557614 493.48871081448874 502.7833811601391 484.4341921731 531.3913713217539 C 475.3796735317111 559.9993614833687 447.56681190177574 577.2076139452497 415.9679064256658 593.541272528097 C 384.3690009495558 609.8749311109443 348.21730787832684 598.2064603802553 318.12416335146867 617.357995442003 C 288.0310188246105 636.5095305037507 285.52507958683077 683.3266289971772 257.5829352316753 694.3388254846643 C 229.64079087651987 705.3510219721514 187.95725411645577 695.7290420340967 171.0602456927557 675.3169243235142 C 154.16323726905563 654.9048066129317 152.57539281623752 611.4078238313999 168.6513119490433 586.9066270079142 C 184.72723108184908 562.4054301844284 224.7539090372762 567.1743196607373 255.6703463917335 546.3632568314838 C 286.5867837461908 525.5521940022303 306.72182819020446 505.21019145624894 331.36940328829223 477.37471738026403 C 356.01697838638 449.5392433042791 360.2661916178635 406.3971063782477 385.39442585535335 399.8607616947212 C 410.5226600928431 393.3244170111946 444.8057120957614 417.9820874273037 463.62326769613327 442.97290325643996 Z "
    stroke-linejoin="round"
  >
    <title>3:0:offset2</title>
  </path>
</svg>
