<svg
  version="1.2"
  xmlns="http://www.w3.org/2000/svg"
  viewBox="0 0 800 800"
  penrose="0"
>
  <penrose>
    <croppedViewBox>
      200.9037103790282 291.819893833922 387.85767870436257 452.25760348236366
    </croppedViewBox>
  </penrose>
  <path
    fill="none"
    stroke="#8e8e8e"
    stroke-opacity="0.5882352941176471"
    stroke-width="40"
    stroke-linecap="butt"
    d="M 388.04476770905603 407.12497991137207 C 355.765521966155 389.34776331314583 338.19647516307055 335.41624120638704 314.8730971683399 338.9659398701042 C 291.5497191736092 342.51563853382135 278.13210369527803 390.61830674660234 265.29014668415766 425.8076044572517 C 252.44818967303726 460.9969021679011 242.1422483590897 488.5222728936403 247.28384974139044 524.1727699261537 C 252.42545112369118 559.8232669586671 267.2215411723958 587.1779191838873 292.3512065910036 613.4417993652169 C 317.48087200961135 639.7056795465464 344.8930976485775 647.2768333857343 379.5452466814313 662.403718248941 C 414.1973957142851 677.5306031121477 454.1587475794065 706.0694367342023 474.73093834286556 693.0569828557782 C 495.3031291063246 680.044528977354 474.4066980944201 628.2976787714771 487.8199349101633 593.917118888814 C 501.23317172590646 559.5365590061509 545.9075750116644 542.770175099196 545.326921583619 512.1066676838673 C 544.7462681555735 481.44316026853863 514.6474734724069 452.47675843227944 484.7638642362399 432.53023775550537 C 454.8802550000729 412.5837170787313 420.32401345195706 424.9021965095983 388.04476770905603 407.12497991137207 Z "
    style="filter: blur(15px)"
    stroke-linejoin="round"
  >
    <title>3:0.bloom</title>
  </path>
  <path
    fill="none"
    stroke="#222fa8"
    stroke-opacity="1"
    stroke-width="1.8"
    stroke-linecap="butt"
    d="M 395.2809325546169 393.98580584577024 C 360.99064992089933 375.76149456938714 339.99170187969787 319.0676109417127 312.6161635408377 324.136704746205 C 285.2406252019775 329.2057985506973 266.4331056575887 382.2515698521296 251.19915182377375 420.66524692204564 C 235.96519798995877 459.0789239919617 226.67779661656664 487.71610811722667 232.43745915233777 526.3139524826054 C 238.1971216881089 564.9117968479841 254.70290374036355 595.342767969605 281.5131651699375 623.8117962135125 C 308.32342659951144 652.2808244574201 335.30921046097006 660.585745460611 373.54409825535856 676.1509432400134 C 411.778986049747 691.7161410194158 458.38191839397757 720.3224594524836 482.7494167193505 705.7338897893148 C 507.1169150447235 691.1453201261461 487.0548745379907 636.2121286274685 501.79408944153215 599.3689976443883 C 516.5333043450736 562.5258666613081 561.9777552885619 545.8924984631647 560.3242320011474 511.822674088893 C 558.670708713733 477.7528497146213 524.4495621920867 442.4431374828357 493.09133529724585 420.05413251664237 C 461.73310840240504 397.66512755044903 429.57121518833446 412.21011712215335 395.2809325546169 393.98580584577024 Z "
    stroke-linejoin="round"
  >
    <title>3:0.offset3</title>
  </path>
  <path
    fill="none"
    stroke="#222fa8"
    stroke-opacity="1"
    stroke-width="1.5"
    stroke-linecap="butt"
    d="M 397.6929875031372 389.6060811572363 C 362.73235923914746 371.23273832146754 340.5901107852403 313.61806752015457 311.8638523316703 319.1936263715719 C 283.13759387810023 324.76918522298934 262.5334396450256 379.46265755397195 246.5021535369791 418.9511277436436 C 230.4708674289326 458.4395979333152 221.52297936905896 487.44738652508875 227.48866228932022 527.0276800014226 C 233.45434520958148 566.6079734777564 250.5300245963528 598.0643842315109 277.90048469624884 627.268461829611 C 305.2709447961448 656.4725394277112 332.11458139843427 665.0220494855698 371.54371544666765 680.7333515703708 C 410.972849494901 696.4446536551718 459.78964199883455 725.073467025244 485.4222428448455 709.959525433827 C 511.0548436908565 694.8455838424101 491.27093335251425 638.8502785794656 506.45214095198844 601.1862905629131 C 521.6333485514625 563.5223025463606 567.3344820475276 546.933272917821 565.3233354736569 511.7280095572349 C 563.3121888997862 476.5227461966488 527.7169250986466 439.09859716635447 495.8671589842478 415.8954307703547 C 464.01739286984906 392.692264374355 432.6536157671269 407.979423993005 397.6929875031372 389.6060811572363 Z "
    stroke-linejoin="round"
  >
    <title>3:0.offset4</title>
  </path>
  <path
    fill="none"
    stroke="#222fa8"
    stroke-opacity="1"
    stroke-width="1.2"
    stroke-linecap="butt"
    d="M 400.1050424516575 385.22635646870236 C 364.4740685573955 366.703982073548 341.18851969078275 308.16852409859644 311.1115411225029 314.25054799693885 C 281.03456255422304 320.3325718952813 258.6337736324625 376.67374525581437 241.80515525018447 417.2370085652416 C 224.97653686790642 457.80027187466874 216.36816212155125 487.1786649329509 222.53986542630264 527.7414075202398 C 228.71156873105403 568.3041501075288 246.35714545234205 600.7860004934169 274.2878042225601 630.7251274457096 C 302.2184629927782 660.6642543980024 328.9199523358984 669.4583535105287 369.54333263797673 685.3157599007284 C 410.166712940055 701.173166290928 461.1973656036916 729.8244745980045 488.09506897034055 714.1851610783392 C 514.9927723369894 698.545847558674 495.4869921670378 641.4884285314627 511.11019246244473 603.0035834814378 C 526.7333927578516 564.518738431413 572.6912088064934 547.9740473724772 570.3224389461664 511.63334502557683 C 567.9536690858394 475.2926426786764 530.9842880052065 435.7540568498732 498.6429826712498 411.7367290240671 C 466.3016773372931 387.7194011982609 435.7360163459194 403.7487308638567 400.1050424516575 385.22635646870236 Z "
    stroke-linejoin="round"
  >
    <title>3:0.offset5</title>
  </path>
  <path
    fill="none"
    stroke="#222fa8"
    stroke-opacity="1"
    stroke-width="0.9"
    stroke-linecap="butt"
    d="M 402.51709740017776 380.8466317801684 C 366.21577787564365 362.17522582562844 341.7869285963252 302.7189806770383 310.3592299133355 309.3074696223058 C 278.9315312303458 315.8959585675733 254.73410761989942 373.8848329576568 237.10815696338983 415.52288938683955 C 219.48220630688024 457.16094581602226 211.21334487404357 486.909943340813 217.5910685632851 528.455135039057 C 223.9687922525266 570.0003267373011 242.1842663083313 603.5076167553227 270.67512374887144 634.1817930618081 C 299.1659811894116 664.8559693682936 325.7253232733626 673.8946575354876 367.5429498292858 689.8981682310857 C 409.36057638520896 705.901678926684 462.60508920854863 734.5754821707649 490.7678950958355 718.4107967228515 C 518.9307009831224 702.246111274938 499.7030509815613 644.1265784834598 515.768243972901 604.8208763999626 C 531.8334369642407 565.5151743164654 578.0479355654592 549.0148218271336 575.3215424186758 511.5386804939187 C 572.5951492718925 474.0625391607039 534.2516509117664 432.409516533392 501.4188063582518 407.57802727777937 C 468.58596180473717 382.7465380221668 438.81841692471187 399.5180377347084 402.51709740017776 380.8466317801684 Z "
    stroke-linejoin="round"
  >
    <title>3:0.offset6</title>
  </path>
  <path
    fill="none"
    stroke="#222fa8"
    stroke-opacity="1"
    stroke-width="0.6"
    stroke-linecap="butt"
    d="M 404.92915234869804 376.4669070916345 C 367.9574871938918 357.64646957770884 342.38533750186764 297.26943725548017 309.6069187041681 304.36439124767276 C 276.82849990646855 311.45934523986534 250.83444160733632 371.0959206594992 232.41115867659522 413.8087702084375 C 213.98787574585413 456.5216197573758 206.05852762653592 486.6412217486751 212.64227170026754 529.1688625578743 C 219.22601577399917 571.6965033670734 238.01138716432058 606.2292330172286 267.0624432751828 637.6384586779067 C 296.11349938604496 669.0476843385848 322.5306942108268 678.3309615604464 365.5425670205949 694.4805765614433 C 408.554439830363 710.6301915624401 464.0128128134056 739.3264897435254 493.4407212213305 722.6364323673637 C 522.8686296292553 705.946374991202 503.91910979608485 646.764728435457 520.4262954833573 606.6381693184874 C 536.9334811706296 566.5116102015178 583.404662324425 550.0555962817898 580.3206458911853 511.44401596226066 C 577.2366294579456 472.83243564273147 537.5190138183264 429.0649762169107 504.19463004525375 403.4193255314917 C 470.8702462721812 377.77367484607277 441.9008175035043 395.28734460556007 404.92915234869804 376.4669070916345 Z "
    stroke-linejoin="round"
  >
    <title>3:0.offset7</title>
  </path>
  <path
    fill="none"
    stroke="#222fa8"
    stroke-opacity="1"
    stroke-width="0.3"
    stroke-linecap="butt"
    d="M 407.3412072972183 372.08718240310054 C 369.6991965121399 353.1177133297893 342.9837464074101 291.81989383392204 308.8546074950007 299.42131287303965 C 274.72546858259136 307.02273191215727 246.93477559477319 368.3070083613416 227.71416038980055 412.0946510300355 C 208.49354518482792 455.8822936987293 200.9037103790282 486.3725001565372 207.69347483725 529.8825900766915 C 214.48323929547178 573.3926799968458 233.8385080203098 608.9508492791344 263.4497628014941 641.0951242940052 C 293.06101758267835 673.239399308876 319.336065148291 682.7672655854053 363.542184211904 699.0629848918006 C 407.74830327551695 715.3587041981962 465.4205364182627 744.0774973162856 496.1135473468255 726.8620680118759 C 526.8065582753883 709.6466387074661 508.1351686106084 649.402878387454 525.0843469938136 608.4554622370122 C 542.0335253770187 567.5080460865702 588.7613890833908 551.096370736446 585.3197493636948 511.34935143060255 C 581.8781096439988 471.602332124759 540.7863767248863 425.72043590042944 506.97045373225575 399.2606237852041 C 473.1545307396252 372.80081166997866 444.9832180822968 391.05665147641173 407.3412072972183 372.08718240310054 Z "
    stroke-linejoin="round"
  >
    <title>3:0.offset8</title>
  </path>
  <path
    fill="#ffffff"
    fill-opacity="1"
    stroke="#0a600a"
    stroke-opacity="1"
    stroke-width="3"
    stroke-linecap="butt"
    d="M 388.04476770905603 407.12497991137207 C 355.765521966155 389.34776331314583 338.19647516307055 335.41624120638704 314.8730971683399 338.9659398701042 C 291.5497191736092 342.51563853382135 278.13210369527803 390.61830674660234 265.29014668415766 425.8076044572517 C 252.44818967303726 460.9969021679011 242.1422483590897 488.5222728936403 247.28384974139044 524.1727699261537 C 252.42545112369118 559.8232669586671 267.2215411723958 587.1779191838873 292.3512065910036 613.4417993652169 C 317.48087200961135 639.7056795465464 344.8930976485775 647.2768333857343 379.5452466814313 662.403718248941 C 414.1973957142851 677.5306031121477 454.1587475794065 706.0694367342023 474.73093834286556 693.0569828557782 C 495.3031291063246 680.044528977354 474.4066980944201 628.2976787714771 487.8199349101633 593.917118888814 C 501.23317172590646 559.5365590061509 545.9075750116644 542.770175099196 545.326921583619 512.1066676838673 C 544.7462681555735 481.44316026853863 514.6474734724069 452.47675843227944 484.7638642362399 432.53023775550537 C 454.8802550000729 412.5837170787313 420.32401345195706 424.9021965095983 388.04476770905603 407.12497991137207 Z "
    stroke-linejoin="round"
  >
    <title>3:0.curve</title>
  </path>
  <path
    fill="none"
    stroke="#222fa8"
    stroke-opacity="1"
    stroke-width="2.4"
    stroke-linecap="butt"
    d="M 390.4568226575763 402.7452552228381 C 357.50723128440313 384.8190070652263 338.794884068613 329.96669778482897 314.1207859591725 334.02286149547115 C 289.446687849732 338.07902520611333 274.23243768271493 387.82939444844476 260.59314839736305 424.0934852788497 C 246.95385911201112 460.35757610925464 236.98743111158203 488.25355130150245 242.3350528783729 524.8864974449709 C 247.68267464516376 561.5194435884393 263.048662028385 589.8995354457932 288.7385261173149 616.8984649813154 C 314.4283902062447 643.8973945168376 341.6984685860417 651.7131374106932 377.5448638727404 666.9861265792985 C 413.3912591594391 682.2591157479037 455.5664711842635 710.8204443069628 477.4037644683606 697.2826185002905 C 499.2410577524576 683.7447926936181 478.62275690894364 630.9358287234743 492.4779864206196 595.7344118073388 C 506.3332159322955 560.5329948912033 551.2643017706303 543.8109495538522 550.3260250561284 512.0120031522092 C 549.3877483416267 480.2130567505662 517.9148363789668 449.1322181157982 487.5396879232419 428.3715360092177 C 457.164539467517 407.6108539026372 423.4064140307495 420.67150338044996 390.4568226575763 402.7452552228381 Z "
    stroke-linejoin="round"
  >
    <title>3:0.offset1</title>
  </path>
  <path
    fill="none"
    stroke="#222fa8"
    stroke-opacity="1"
    stroke-width="2.1"
    stroke-linecap="butt"
    d="M 392.8688776060966 398.3655305343042 C 359.24894060265126 380.2902508173067 339.39329297415543 324.5171543632708 313.3684747500051 329.07978312083804 C 287.3436565258547 333.6424118784053 270.3327716701518 385.0404821502871 255.89615011056839 422.37936610044767 C 241.45952855098494 459.71825005060816 231.83261386407432 487.9848297093646 237.38625601535531 525.6002249637882 C 242.9398981666363 563.2156202182117 258.8757828843743 592.621151707699 285.12584564362623 620.355130597414 C 311.3759084028781 648.0891094871288 338.5038395235059 656.1494414356521 375.5444810640495 671.5685349096559 C 412.58512260459304 686.9876283836597 456.97419478912053 715.5714518797231 480.07659059385554 701.5082541448025 C 503.17898639859055 687.445056409882 482.8388157234672 633.5739786754714 497.13603793107586 597.5517047258636 C 511.4332601386845 561.5294307762558 556.6210285295961 544.8517240085084 555.325128528638 511.9173386205511 C 554.0292285276798 478.98295323259373 521.1821992855267 445.78767779931695 490.31551161024385 424.21283426293 C 459.448823934961 402.63799072654314 426.488814609542 416.4408102513016 392.8688776060966 398.3655305343042 Z "
    stroke-linejoin="round"
  >
    <title>3:0.offset2</title>
  </path>
</svg>
