<svg
  version="1.2"
  xmlns="http://www.w3.org/2000/svg"
  viewBox="0 0 800 800"
  penrose="0"
>
  <penrose>
    <croppedViewBox>
      141.98883526991176 297.1352113730466 401.2838659326751 392.80106843523146
    </croppedViewBox>
  </penrose>
  <g stroke-linejoin="round" style="filter: blur(15px)">
    <filter
      id="offset__3:0:bloom-shadow"
      x="0"
      y="0"
      width="200%"
      height="200%"
    >
      <feOffset result="offOut" in="SourceAlpha" dx="5" dy="5" />
      <feGaussianBlur result="blurOut" in="offOut" stdDeviation="4" />
      <feBlend in="SourceGraphic" in2="blurOut" mode="normal" />
      <feComponentTransfer>
        <feFuncA type="linear" slope="0.5" />
      </feComponentTransfer>
      <feMerge>
        <feMergeNode />
        <feMergeNode in="SourceGraphic" />
      </feMerge>
    </filter>
    <path
      fill="none"
      stroke="#8e8e8e"
      stroke-opacity="0.5882352941176471"
      stroke-width="40"
      stroke-linecap="butt"
      d="M 194.82841971910534 532.1444630929777 C 186.0310166107069 567.5737924150272 179.45413665588265 611.4599612510731 199.1716388197693 632.2601422656776 C 218.88914098365595 653.0603232802821 262.031943098763 646.7683969019248 298.60474689745615 641.6191000119486 C 335.17755069614935 636.4698031219725 355.0692415026925 610.293687129642 391.6600798655229 605.1585796868557 C 428.2509182283533 600.0234722440694 472.83944623778007 631.7637155379831 491.1881067018268 614.5922187341259 C 509.53676716587364 597.4207219302687 495.38424415842155 551.5623554082147 488.2319770447166 514.7822807191858 C 481.0797099310116 478.0022060301569 478.00203367426286 445.2410363434834 453.54459557706383 421.01287826555284 C 429.08715747986486 396.78472018762227 394.8704743467807 401.11353833342775 359.50861863840606 387.2656592563934 C 324.1467629300314 373.4177801793591 289.0961885901293 337.00968172618417 267.42956553298677 348.1293041758986 C 245.76294247584423 359.248926625613 259.2679781475565 410.8271077448559 245.473760442919 445.7899879391009 C 231.67954273828153 480.75286813334594 203.62582282750378 496.7151337709281 194.82841971910534 532.1444630929777 Z "
    />
    <title>3:0:bloom</title>
  </g>
  <g stroke-linejoin="round">
    <filter
      id="offset__3:0:offset3-shadow"
      x="0"
      y="0"
      width="200%"
      height="200%"
    >
      <feOffset result="offOut" in="SourceAlpha" dx="5" dy="5" />
      <feGaussianBlur result="blurOut" in="offOut" stdDeviation="4" />
      <feBlend in="SourceGraphic" in2="blurOut" mode="normal" />
      <feComponentTransfer>
        <feFuncA type="linear" slope="0.5" />
      </feComponentTransfer>
      <feMerge>
        <feMergeNode />
        <feMergeNode in="SourceGraphic" />
      </feMerge>
    </filter>
    <path
      fill="none"
      stroke="#222fa8"
      stroke-opacity="1"
      stroke-width="1.8"
      stroke-linecap="butt"
      d="M 180.27050733163696 528.5296099151163 C 172.05585981910156 566.965614291091 165.40464863614355 618.2704715464752 188.2855030543493 642.5796392623779 C 211.16635747255506 666.8888069782806 261.6588036863011 660.7602567584752 300.69605690114093 656.4725978935519 C 339.73331011598077 652.1849390286286 355.60384297066133 625.8893869649994 393.74473050087465 620.0130136575184 C 431.885618031088 614.1366403500374 480.6873980064653 646.0821780303381 501.43757021805317 625.5443173278621 C 522.187742429641 605.0064566253861 510.0500870432853 552.8047057859915 502.9561631934426 511.9190099602763 C 495.86223934359987 471.0333141345612 490.31693242377685 436.6943521548666 464.10112890309153 410.35644456094025 C 437.8853253824062 384.0185369670139 403.64713997101734 387.65717429850156 364.97824992667785 373.29844367645353 C 326.3093598823383 358.9397130544055 285.93762937872214 322.0567553437576 260.58065498551514 334.78417812910845 C 235.22368059230814 347.5116009144594 246.77941801666725 403.4732473494852 231.5204899624304 440.28487938882665 C 216.26156190819353 477.0965114281682 188.48515484417237 490.0936055391416 180.27050733163696 528.5296099151163 Z "
    />
    <title>3:0:offset3</title>
  </g>
  <g stroke-linejoin="round">
    <filter
      id="offset__3:0:offset4-shadow"
      x="0"
      y="0"
      width="200%"
      height="200%"
    >
      <feOffset result="offOut" in="SourceAlpha" dx="5" dy="5" />
      <feGaussianBlur result="blurOut" in="offOut" stdDeviation="4" />
      <feBlend in="SourceGraphic" in2="blurOut" mode="normal" />
      <feComponentTransfer>
        <feFuncA type="linear" slope="0.5" />
      </feComponentTransfer>
      <feMerge>
        <feMergeNode />
        <feMergeNode in="SourceGraphic" />
      </feMerge>
    </filter>
    <path
      fill="none"
      stroke="#222fa8"
      stroke-opacity="1"
      stroke-width="1.5"
      stroke-linecap="butt"
      d="M 175.41786986914752 527.3246588558293 C 167.3974742218998 566.762888249779 160.7214859628972 620.5406416449424 184.65679113254265 646.0194715946112 C 208.5920963021881 671.4983015442801 261.53442388214717 665.4242100439918 301.3931602357025 661.4237638540862 C 341.2518965892579 657.4233176641806 355.78204345998427 631.0879535767854 394.4396140459919 624.9644916477394 C 433.09718463199954 618.8410297186934 483.30338192936034 650.8549988611231 504.8540580567953 629.1950168591076 C 526.4047341842302 607.535034857092 514.9387013382399 553.2188225785837 507.8642252430179 510.9645863739732 C 500.789749147796 468.7103501693626 494.42189867361486 433.84545742532765 467.6199733451008 406.8042999927361 C 440.8180480165867 379.7631425601445 406.57269517909623 383.17171962019285 366.80146035610176 368.6427051498069 C 327.0302255331073 354.1136906794209 284.8847763082531 317.0724465496154 258.2976848030246 330.3358027801785 C 231.7105932977961 343.5991590107415 242.61656463970417 401.0219605510283 226.8693998022675 438.4498432054019 C 211.12223496483085 475.8777258597756 183.43826551639523 487.88642946187946 175.41786986914752 527.3246588558293 Z "
    />
    <title>3:0:offset4</title>
  </g>
  <g stroke-linejoin="round">
    <filter
      id="offset__3:0:offset5-shadow"
      x="0"
      y="0"
      width="200%"
      height="200%"
    >
      <feOffset result="offOut" in="SourceAlpha" dx="5" dy="5" />
      <feGaussianBlur result="blurOut" in="offOut" stdDeviation="4" />
      <feBlend in="SourceGraphic" in2="blurOut" mode="normal" />
      <feComponentTransfer>
        <feFuncA type="linear" slope="0.5" />
      </feComponentTransfer>
      <feMerge>
        <feMergeNode />
        <feMergeNode in="SourceGraphic" />
      </feMerge>
    </filter>
    <path
      fill="none"
      stroke="#222fa8"
      stroke-opacity="1"
      stroke-width="1.2"
      stroke-linecap="butt"
      d="M 170.56523240665805 526.1197077965421 C 162.739088624698 566.560162208467 156.03832328965083 622.8108117434098 181.028079210736 649.4593039268447 C 206.01783513182116 676.1077961102795 261.41004407799323 670.0881633295087 302.09026357026414 666.3749298146206 C 342.77048306253505 662.6616962997325 355.96024394930726 636.2865201885711 395.13449759110915 629.9159696379603 C 434.3087512329111 623.5454190873495 485.9193658522554 655.6278196919081 508.2705458955374 632.845716390353 C 530.6217259388194 610.0636130887979 519.8273156331945 553.632939371176 512.7722872925933 510.01016278767 C 505.7172589519921 466.387386204164 498.5268649234529 430.9965626957887 471.13881778711004 403.2521554245319 C 443.75077065076715 375.50774815327503 409.4982503871751 378.68626494188413 368.62467078552567 363.98696662316024 C 327.75109118387627 349.2876683044364 283.83192323778405 312.0881377554732 256.01471462053405 325.8874274312484 C 228.19750600328405 339.68671710702364 238.45371126274108 398.5706737525714 222.21830964210466 436.6148070219772 C 205.98290802146823 474.65894029138303 178.3913761886181 485.6792533846173 170.56523240665805 526.1197077965421 Z "
    />
    <title>3:0:offset5</title>
  </g>
  <g stroke-linejoin="round">
    <filter
      id="offset__3:0:offset6-shadow"
      x="0"
      y="0"
      width="200%"
      height="200%"
    >
      <feOffset result="offOut" in="SourceAlpha" dx="5" dy="5" />
      <feGaussianBlur result="blurOut" in="offOut" stdDeviation="4" />
      <feBlend in="SourceGraphic" in2="blurOut" mode="normal" />
      <feComponentTransfer>
        <feFuncA type="linear" slope="0.5" />
      </feComponentTransfer>
      <feMerge>
        <feMergeNode />
        <feMergeNode in="SourceGraphic" />
      </feMerge>
    </filter>
    <path
      fill="none"
      stroke="#222fa8"
      stroke-opacity="1"
      stroke-width="0.9"
      stroke-linecap="butt"
      d="M 165.71259494416861 524.9147567372551 C 158.08070302749624 566.3574361671549 151.3551606164045 625.080981841877 177.39936728892934 652.8991362590781 C 203.44357396145418 680.7172906762792 261.28566427383925 674.7521166150254 302.7873669048257 671.326095775155 C 344.28906953581213 667.9000749352847 356.1384444386302 641.4850868003571 395.82938113622646 634.8674476281813 C 435.5203178338227 628.2498084560054 488.5353497751505 660.4006405226932 511.6870337342795 636.4964159215984 C 534.8387176934085 612.5921913205037 524.7159299281491 554.0470561637683 517.6803493421686 509.05573920136686 C 510.64476875618817 464.0644222389654 502.63183117329083 428.1476679662498 474.65766222911924 399.7000108563277 C 446.68349328494764 371.25235374640556 412.423805595254 374.2008102635754 370.4478812149496 359.33122809651366 C 328.4719568346452 344.4616459294519 282.779070167315 307.10382896133103 253.7317444380435 321.4390520823184 C 224.68441870877203 335.77427520330576 234.290857885778 396.1193869541145 217.56721948194178 434.77977083855245 C 200.84358107810556 473.4401547229904 173.344486860841 483.47207730735516 165.71259494416861 524.9147567372551 Z "
    />
    <title>3:0:offset6</title>
  </g>
  <g stroke-linejoin="round">
    <filter
      id="offset__3:0:offset7-shadow"
      x="0"
      y="0"
      width="200%"
      height="200%"
    >
      <feOffset result="offOut" in="SourceAlpha" dx="5" dy="5" />
      <feGaussianBlur result="blurOut" in="offOut" stdDeviation="4" />
      <feBlend in="SourceGraphic" in2="blurOut" mode="normal" />
      <feComponentTransfer>
        <feFuncA type="linear" slope="0.5" />
      </feComponentTransfer>
      <feMerge>
        <feMergeNode />
        <feMergeNode in="SourceGraphic" />
      </feMerge>
    </filter>
    <path
      fill="none"
      stroke="#222fa8"
      stroke-opacity="1"
      stroke-width="0.6"
      stroke-linecap="butt"
      d="M 160.85995748167915 523.7098056779679 C 153.42231743029447 566.1547101258428 146.67199794315812 627.3511519403444 173.77065536712266 656.3389685913115 C 200.8693127910872 685.3267852422787 261.16128446968526 679.4160699005422 303.4844702393873 676.2772617356893 C 345.80765600908927 673.1384535708366 356.3166449279532 646.6836534121428 396.5242646813437 639.8189256184022 C 436.73188443473424 632.9541978246615 491.15133369804556 665.1734613534782 515.1035215730216 640.1471154528439 C 539.0557094479976 615.1207695522096 529.6045442231036 554.4611729563605 522.588411391744 508.1013156150637 C 515.5722785603842 461.7414582737668 506.73679742312885 425.2987732367109 478.1765066711285 396.1478662881235 C 449.6162159191281 366.99695933953615 415.34936080333284 369.7153555852667 372.27109164437354 354.675489569867 C 329.1928224854141 339.6356235544673 281.7262170968459 302.11952016718885 251.44877425555293 316.99067673338834 C 221.17133141425995 331.8618332995879 230.1280045088149 393.6681001556576 212.9161293217789 432.9447346551277 C 195.70425413474288 472.2213691545978 168.29759753306382 481.26490123009296 160.85995748167915 523.7098056779679 Z "
    />
    <title>3:0:offset7</title>
  </g>
  <g stroke-linejoin="round">
    <filter
      id="offset__3:0:offset8-shadow"
      x="0"
      y="0"
      width="200%"
      height="200%"
    >
      <feOffset result="offOut" in="SourceAlpha" dx="5" dy="5" />
      <feGaussianBlur result="blurOut" in="offOut" stdDeviation="4" />
      <feBlend in="SourceGraphic" in2="blurOut" mode="normal" />
      <feComponentTransfer>
        <feFuncA type="linear" slope="0.5" />
      </feComponentTransfer>
      <feMerge>
        <feMergeNode />
        <feMergeNode in="SourceGraphic" />
      </feMerge>
    </filter>
    <path
      fill="none"
      stroke="#222fa8"
      stroke-opacity="1"
      stroke-width="0.3"
      stroke-linecap="butt"
      d="M 156.0073200191897 522.5048546186808 C 148.7639318330927 565.9519840845307 141.98883526991176 629.6213220388117 170.141943445316 659.7788009235448 C 198.29505162072024 689.9362798082781 261.0369046655313 684.080023186059 304.18157357394887 681.2284276962238 C 347.3262424823664 678.3768322063886 356.4948454172761 651.8822200239287 397.21914822646096 644.7704036086232 C 437.9434510356458 637.6585871933175 493.7673176209406 669.9462821842632 518.5200094117637 643.7978149840893 C 543.2727012025869 617.6493477839153 534.4931585180582 554.8752897489528 527.4964734413193 507.14689202876053 C 520.4997883645804 459.4184943085682 510.84176367296686 422.44987850717195 481.6953511131377 392.5957217199193 C 452.5489385533086 362.7415649326667 418.27491601141173 365.22990090695794 374.09430207379745 350.01975104322037 C 329.9136881361831 334.8096011794828 280.6733640263768 297.1352113730466 249.1658040730624 312.5423013844583 C 217.65824411974793 327.94939139587 225.96515113185185 391.2168133572007 208.26503916161604 431.109698471703 C 190.56492719138024 471.0025835862052 163.2507082052867 479.0577251528308 156.0073200191897 522.5048546186808 Z "
    />
    <title>3:0:offset8</title>
  </g>
  <g stroke-linejoin="round">
    <filter
      id="offset__3:0:curve-shadow"
      x="0"
      y="0"
      width="200%"
      height="200%"
    >
      <feOffset result="offOut" in="SourceAlpha" dx="5" dy="5" />
      <feGaussianBlur result="blurOut" in="offOut" stdDeviation="4" />
      <feBlend in="SourceGraphic" in2="blurOut" mode="normal" />
      <feComponentTransfer>
        <feFuncA type="linear" slope="0.5" />
      </feComponentTransfer>
      <feMerge>
        <feMergeNode />
        <feMergeNode in="SourceGraphic" />
      </feMerge>
    </filter>
    <path
      fill="#ffffff"
      fill-opacity="1"
      stroke="#0a600a"
      stroke-opacity="1"
      stroke-width="3"
      stroke-linecap="butt"
      d="M 194.82841971910534 532.1444630929777 C 186.0310166107069 567.5737924150272 179.45413665588265 611.4599612510731 199.1716388197693 632.2601422656776 C 218.88914098365595 653.0603232802821 262.031943098763 646.7683969019248 298.60474689745615 641.6191000119486 C 335.17755069614935 636.4698031219725 355.0692415026925 610.293687129642 391.6600798655229 605.1585796868557 C 428.2509182283533 600.0234722440694 472.83944623778007 631.7637155379831 491.1881067018268 614.5922187341259 C 509.53676716587364 597.4207219302687 495.38424415842155 551.5623554082147 488.2319770447166 514.7822807191858 C 481.0797099310116 478.0022060301569 478.00203367426286 445.2410363434834 453.54459557706383 421.01287826555284 C 429.08715747986486 396.78472018762227 394.8704743467807 401.11353833342775 359.50861863840606 387.2656592563934 C 324.1467629300314 373.4177801793591 289.0961885901293 337.00968172618417 267.42956553298677 348.1293041758986 C 245.76294247584423 359.248926625613 259.2679781475565 410.8271077448559 245.473760442919 445.7899879391009 C 231.67954273828153 480.75286813334594 203.62582282750378 496.7151337709281 194.82841971910534 532.1444630929777 Z "
    />
    <title>3:0:curve</title>
  </g>
  <g stroke-linejoin="round">
    <filter
      id="offset__3:0:offset1-shadow"
      x="0"
      y="0"
      width="200%"
      height="200%"
    >
      <feOffset result="offOut" in="SourceAlpha" dx="5" dy="5" />
      <feGaussianBlur result="blurOut" in="offOut" stdDeviation="4" />
      <feBlend in="SourceGraphic" in2="blurOut" mode="normal" />
      <feComponentTransfer>
        <feFuncA type="linear" slope="0.5" />
      </feComponentTransfer>
      <feMerge>
        <feMergeNode />
        <feMergeNode in="SourceGraphic" />
      </feMerge>
    </filter>
    <path
      fill="none"
      stroke="#222fa8"
      stroke-opacity="1"
      stroke-width="2.4"
      stroke-linecap="butt"
      d="M 189.97578225661587 530.9395120336906 C 181.3726310135051 567.3710663737152 174.7709739826363 613.7301313495404 195.54292689796264 635.699974597911 C 216.314879813289 657.6698178462816 261.9075632946091 651.4323501874416 299.3018502320178 646.570265972483 C 336.6961371694265 641.7081817575245 355.2474419920154 615.4922537414278 392.35496341064015 610.1100576770766 C 429.4624848292649 604.7278616127253 475.4554301606751 636.5365363687681 494.60459454056894 618.2429182653714 C 513.7537589204628 599.9493001619744 500.2728584533761 551.9764722008069 493.1400390942919 513.8278571328826 C 486.00721973520774 475.6792420649583 482.1069999241008 442.3921416139445 457.0634400190731 417.46073369734864 C 432.01988011404535 392.52932578075286 397.7960295548596 396.628083655119 361.33182906783 382.60992072974676 C 324.8676285808004 368.59175780437454 288.0433355196603 332.025372932042 265.1465953504962 343.68092882696857 C 242.24985518133218 355.33648472189515 255.1051247705934 408.37582094639896 240.82267028275612 443.9549517556762 C 226.54021579491885 479.53408256495334 198.57893349972665 494.50795769366596 189.97578225661587 530.9395120336906 Z "
    />
    <title>3:0:offset1</title>
  </g>
  <g stroke-linejoin="round">
    <filter
      id="offset__3:0:offset2-shadow"
      x="0"
      y="0"
      width="200%"
      height="200%"
    >
      <feOffset result="offOut" in="SourceAlpha" dx="5" dy="5" />
      <feGaussianBlur result="blurOut" in="offOut" stdDeviation="4" />
      <feBlend in="SourceGraphic" in2="blurOut" mode="normal" />
      <feComponentTransfer>
        <feFuncA type="linear" slope="0.5" />
      </feComponentTransfer>
      <feMerge>
        <feMergeNode />
        <feMergeNode in="SourceGraphic" />
      </feMerge>
    </filter>
    <path
      fill="none"
      stroke="#222fa8"
      stroke-opacity="1"
      stroke-width="2.1"
      stroke-linecap="butt"
      d="M 185.12314479412643 529.7345609744034 C 176.71424541630336 567.1683403324031 170.08781130938993 616.0003014480078 191.914214976156 639.1398069301445 C 213.74061864292204 662.2793124122811 261.7831834904551 656.0963034729584 299.99895356657936 651.5214319330174 C 338.21472364270363 646.9465603930765 355.4256424813384 620.6908203532137 393.0498469557574 615.0615356672974 C 430.6740514301764 609.4322509813813 478.0714140835702 641.3093571995531 498.02108237931105 621.8936177966167 C 517.9707506750519 602.4778783936803 505.16147274833077 552.3905889933992 498.04810114386726 512.8734335465795 C 490.9347295394038 473.3562780997598 486.2119661739389 439.54324688440556 460.58228446108234 413.90858912914445 C 434.9526027482258 388.2739313738834 400.7215847629385 392.1426289768103 363.15503949725394 377.9541822031002 C 325.58849423156937 363.76573542939 286.9904824491912 327.04106413789975 262.8636251680057 339.23255347803854 C 238.73676788682016 351.42404281817727 250.94227139363034 405.9245341479421 236.17158012259327 442.11991557225144 C 221.4008888515562 478.31529699656073 193.5320441719495 492.3007816164038 185.12314479412643 529.7345609744034 Z "
    />
    <title>3:0:offset2</title>
  </g>
</svg>
