<svg version="1.2" xmlns="http://www.w3.org/2000/svg" viewBox="0 0 600 400">
  <polyline
    fill="none"
    stroke="#000000"
    stroke-opacity="1"
    stroke-width="2"
    stroke-linecap="butt"
    transform="scale(1)"
    points="170,200,164.80783378658325,196.99310625191816,159.00244789466015,195.25109540619712,152.9480380762862,194.9688185891427,147.01504004590927,196.20750874239886,141.58173385511083,198.89352064599157,136.98257780892908,202.84101805451135,133.4688702940099,207.7795796851515,131.18596750424052,213.3942595891301,130.1757585288071,219.3706023748524,130.39675707794518,225.42781516210908,131.75173229485463,231.33586293998164,134.11283643422874,236.9186382641522,137.33806045752752,242.0509856147614,141.2817999140599,246.65424676806504,145.80447772446058,250.69027050565197,150.78093893814608,254.15145221334183,156.10435267831332,257.0509356530865,161.68587139129406,259.41584281257445,167.4534182455042,261.2818100449244,173.350005167809,262.687753507316,179.3316091032258,263.6723090028853,185.36399901624515,264.2719665327446,191.4211223426913,264.5203872718821,197.4827318516008,264.44771499708924,203.533485767981,264.08011759210956,209.5612541774746,263.43976082932966,215.556620550327,262.5451285798737,221.5113915108832,261.41146491524273,227.41855253714004,260.0509397501782,233.27137814810357,258.4729007863031,239.06320162875608,256.6840085740835,244.78707245975465,254.68834782818573,250.43529882488522,252.48759609203455,255.99905276600558,250.0812291814819,261.4680796247394,247.46672094806894,266.83032024763486,244.63978684759445,272.071654288675,241.5945381691734,277.1752664827238,238.32379494316893,282.12134367056643,234.81916345959306,286.88599440049836,231.07161534600402,291.44089502839387,227.07161145428393,295.7519355528301,222.81015123236483,299.77888583516716,218.27920158287438,303.47380889397067,213.47379870368445,306.780817852178,208.39347225289487,309.6351244603117,203.04563308375492,311.96353766677134,197.44862387790596,313.6854153567295,191.63641237100666,314.715496350075,185.66266984275344,314.96815436889773,179.60619231076404,314.3642265693447,173.57468386820503,312.8401619216838,167.70775253072713,310.3596721548909,162.17691089881265,306.9269440717828,157.181072339171,302.5997762710206,152.93644824399172,297.50023822120716,149.66013784928646,291.8191040373191,147.54756957026433,285.8110543229191,146.74675536215645,279.77840804436926,147.33366525275093,274.0433153855331,149.2949250381906,268.913621675373,152.52349062024865,264.64859823382494,156.83018423996978,261.43383297418836,161.96863028966732,259.36977086899714,167.66769597002988,258.4753949252044,173.66285044290933,258.70305535636567,179.72023720308613,259.95882768738153,185.65054087824302,262.1229855701442,191.31292410167634,265.06702877566266,196.61188499712517,268.66573010070425,201.4899108679551,272.8045346860795,205.91904392876674,277.38276448191465,209.8924266015333,282.3145377463952,213.41765626630286,287.5279145089416,216.51144886007773,292.9634249276276,219.19592257357058,298.57234416905726,221.49604438684884,304.31516980452164,223.43789304194394,310.1599878044084,225.04724196619117,316.08108522761205,226.34859899211813,322.05793468749397,227.3646831620819,328.0738378726382,228.1160513626817,334.11547495181213,228.62079622782943,340.1720411224923,228.8936639815308,346.2345171721138,228.94529516520015,352.2950410637402,228.7827227619489,358.3462194853068,228.40999611862026,364.380663409424,227.82666133420435,370.39002881333863,227.02576995402504,376.36423489458576,225.99504497430473,382.29140719543744,224.7215134392368,388.15879381978607,223.19601051167146,393.9530840084915,221.41302848078047,399.65915505674457,219.3652218746771,405.2561331369709,217.0356843512945,410.71292500213013,214.3943084943565,415.98709345968706,211.40474619776614,421.02665042830705,208.03455421572002,425.7556703849968,204.2409510866322,430,200"
  >
    <title>`c`.poly</title>
  </polyline>
  <g>
    <marker
      id="registry-ClamshellKookabura228-`c`.arrow1-endArrowId"
      markerUnits="strokeWidth"
      markerWidth="9.95"
      markerHeight="8.12"
      viewBox="0 0 9.95 8.12"
      refX="2.36"
      refY="4.06"
      orient="auto-start-reverse"
    >
      <path
        d="M9.95 4.06 0 8.12 2.36 4.06 0 0 9.95 4.06z"
        fill="#22a34d"
        fill-opacity="0.6588235294117647"
      ></path>
    </marker>
    <path
      d="M 170 200 L 101.96964218870696 160.60217466575784"
      stroke-opacity="0.6588235294117647"
      stroke-width="1.5"
      stroke="#22a34d"
      stroke-linecap="butt"
      marker-end="url(#registry-ClamshellKookabura228-`c`.arrow1-endArrowId)"
    ></path>
    <title>`c`.arrow1</title>
  </g>
  <g>
    <marker
      id="registry-ClamshellKookabura228-`c`.arrow2-endArrowId"
      markerUnits="strokeWidth"
      markerWidth="9.95"
      markerHeight="8.12"
      viewBox="0 0 9.95 8.12"
      refX="2.36"
      refY="4.06"
      orient="auto-start-reverse"
    >
      <path
        d="M9.95 4.06 0 8.12 2.36 4.06 0 0 9.95 4.06z"
        fill="#22a34d"
        fill-opacity="0.6588235294117647"
      ></path>
    </marker>
    <path
      d="M 430 200 L 485.61132878057936 144.43293838740166"
      stroke-opacity="0.6588235294117647"
      stroke-width="1.5"
      stroke="#22a34d"
      stroke-linecap="butt"
      marker-end="url(#registry-ClamshellKookabura228-`c`.arrow2-endArrowId)"
    ></path>
    <title>`c`.arrow2</title>
  </g>
</svg>
