<svg
  version="1.2"
  xmlns="http://www.w3.org/2000/svg"
  viewBox="0 0 600 400"
  penrose="0"
>
  <penrose>
    <croppedViewBox>
      91.74164512200082 135.85519255759067 402.453417929974 126.06218179621072
    </croppedViewBox>
  </penrose>
  <polyline
    fill="none"
    stroke="#000000"
    stroke-opacity="1"
    stroke-width="2"
    stroke-linecap="butt"
    transform="scale(1)"
    points="170,200,164.80783378658325,196.99310625191816,159.07211668682348,195.0318529251472,153.05144453605521,194.3271938707592,147.02707659480825,194.99945524399783,141.32744112670647,197.0632594050491,136.28264230570608,200.4240463911543,132.18028560141997,204.88675833614568,129.22838509991996,210.1812482122379,127.53970068943283,216.00311056179387,127.1361917151801,222.05153055854737,127.96335702463597,228.0566850700089,129.90875809322137,233.7979222866448,132.8251819303003,239.11211907804216,136.55325914909457,243.8920800321864,140.936888420419,248.07902739430853,145.8328782987011,251.6533799159198,151.11653130363968,254.62485400802333,156.68396072026383,257.02274949720055,162.45180116893061,258.88773379034785,168.35506640455714,260.26530449402003,174.34425294111097,261.2012136030679,180.38225561096255,261.73874759892493,186.44145734542,261.9173743538014,192.50154097521119,261.7723121459066,198.5474839277482,261.33443484282964,204.56826171797485,260.6304265365821,210.55558617192565,259.68306545488895,216.50313986324127,258.5115497810829,222.4058794890297,257.13185494297113,228.25953941086536,255.55689779096127,234.06013539905308,253.79655611604272,239.80349937528482,251.85760517545214,245.48478063884323,249.74368160123663,251.09803949477907,247.45523696884047,256.6357049463991,244.98957944759104,262.08821934589605,242.34094224777766,267.4434045080197,239.5007406644379,272.6860801734795,236.4578219872685,277.7973153403002,233.19897314260788,282.75392029613295,229.70941153788274,287.52763981401944,225.97355912125795,292.08440782828654,221.97593025853115,296.3834971402187,217.7023437923038,300.3765997943817,213.14148050698356,304.00701967320794,208.28689642308834,307.2090201624649,203.13960417394,309.90755865851,197.711412291749,312.0188469625877,192.0289800361023,313.4520144323491,186.13886635328672,314.1127971114725,180.1130117839028,313.90972710231006,174.05445752231176,312.7636407232589,168.10186079198283,310.6206892032359,162.4313992728302,307.46825346116395,157.25376603958108,303.3519179175321,152.80390556260903,298.38981933561496,149.3221271049176,292.77939850447405,147.02684377480384,286.7915698937835,146.08300364504709,280.7496651478837,146.57302941611195,274.9953044401168,148.4788250973241,269.84838931700233,151.68100344911088,265.5710703134999,155.97629070167204,262.344500248374,161.10797132577352,260.26187047975486,166.80074399398313,259.33633197157974,172.79144252845433,259.5182050627887,178.8505052382372,260.71557559746026,184.79291014902353,262.81340380145514,190.48020519056683,265.68872586803803,195.81677707409264,269.2211873589218,200.74304320916784,273.2994734114219,205.2278750727735,277.8245585666021,209.26143712623684,282.7107403638884,212.8490746560905,287.8853765958754,216.00645595856702,293.2878845897835,218.75573032217306,298.8684951450721,221.1225947200549,304.5868059055185,223.1339784488604,310.41040652891263,224.8163463350721,316.31342994814923,226.19448231881475,322.2752912343975,227.29069870038674,328.27956500815577,228.12427242468385,334.3129906771189,228.7109902723868,340.3646753866001,229.06280044383087,346.42530780546844,229.1875543671337,352.4864312246725,229.08889553056434,358.5398144853655,228.76642885120825,364.57680000442747,228.21648749078977,370.5879845124757,227.4331346738102,376.56273347235316,226.40821952222646,382.4886213646755,225.13075248498396,388.3509833169487,223.58773227762975,394.13292968583653,221.76639587936157,399.8155724208064,219.65551945041076,405.37715367530654,217.24367484674517,410.7906138012172,214.5155929181892,416.02273956469355,211.45408662695579,421.0324975791591,208.0408654108168,425.7556703849968,204.2409510866322,430,200"
  >
    <title>`c`.poly</title>
  </polyline>
  <g>
    <marker
      id="open-elastic-curve__registry-ClamshellKookabura228-`c`.arrow1-endArrowId"
      markerUnits="strokeWidth"
      markerWidth="9.95"
      markerHeight="8.12"
      viewBox="0 0 9.95 8.12"
      refX="2.36"
      refY="4.06"
      orient="auto-start-reverse"
    >
      <path
        d="M9.95 4.06 0 8.12 2.36 4.06 0 0 9.95 4.06z"
        fill="#22a34d"
        fill-opacity="0.6588235294117647"
      />
    </marker>
    <line
      x1="170"
      y1="200"
      x2="101.96964218870696"
      y2="160.60217466575784"
      stroke="#22a34d"
      stroke-opacity="0.6588235294117647"
      stroke-width="1.5"
      marker-end="url(#open-elastic-curve__registry-ClamshellKookabura228-`c`.arrow1-endArrowId)"
    />
    <title>`c`.arrow1</title>
  </g>
  <g>
    <marker
      id="open-elastic-curve__registry-ClamshellKookabura228-`c`.arrow2-endArrowId"
      markerUnits="strokeWidth"
      markerWidth="9.95"
      markerHeight="8.12"
      viewBox="0 0 9.95 8.12"
      refX="2.36"
      refY="4.06"
      orient="auto-start-reverse"
    >
      <path
        d="M9.95 4.06 0 8.12 2.36 4.06 0 0 9.95 4.06z"
        fill="#22a34d"
        fill-opacity="0.6588235294117647"
      />
    </marker>
    <line
      x1="430"
      y1="200"
      x2="485.61132878057936"
      y2="144.43293838740166"
      stroke="#22a34d"
      stroke-opacity="0.6588235294117647"
      stroke-width="1.5"
      marker-end="url(#open-elastic-curve__registry-ClamshellKookabura228-`c`.arrow2-endArrowId)"
    />
    <title>`c`.arrow2</title>
  </g>
</svg>
