<svg
  version="1.2"
  xmlns="http://www.w3.org/2000/svg"
  viewBox="0 0 600 400"
  penrose="0"
>
  <penrose>
    <croppedViewBox>
      91.74164512200082 135.85519255759067 402.453417929974 128.65409975801265
    </croppedViewBox>
  </penrose>
  <polyline
    fill="none"
    stroke="#000000"
    stroke-opacity="1"
    stroke-width="2"
    stroke-linecap="butt"
    transform="scale(1)"
    points="170,200,164.80783378658325,196.99310625191816,159.0424832014026,195.1206343726489,153.003957615056,194.58983383908077,147.011123411814,195.50165104104028,141.41697701360863,197.8363398454496,136.55474182552214,201.45626192151877,132.69412021073305,206.1296855383022,130.01123592332377,211.5654597485658,128.58284189916654,217.45657097334592,128.3999144769676,223.51559154238956,129.3885055021588,229.4962121598376,131.43054043205686,235.20370488669093,134.38394249684663,240.49739552130038,138.1009839782575,245.28588680334826,142.44058547148674,249.5184043492946,147.27459615015454,253.17610611260406,152.49098418902992,256.2641180005435,157.99510758682746,258.8040399146005,163.70926533137262,260.8276290929373,169.57117694501036,262.37183787564345,175.53180008180374,263.4752331089993,181.55306506939593,264.17573164879286,187.6057496834427,264.5092923156033,193.66760969717768,264.5092568434699,199.7218580724059,264.205972030264,205.75593342406745,263.62649620396274,211.7604037372638,262.7943895359537,217.72802242461356,261.72962160139116,223.65298948837653,260.44858307245494,229.53029381420944,258.964156796709,235.35516119664095,257.2857582117342,241.12253539386546,255.4193660543232,246.82659087015378,253.36760657042933,252.4602886106653,251.12988613842762,258.0149349874286,248.70256827261966,263.47973101878944,246.0791960727375,268.8412837417974,243.2507946584594,274.0831239152594,240.20624979212826,279.18514640677324,236.9327979196082,284.12303444981217,233.41664727091614,288.86762968249195,229.6437531758155,293.3842769074843,225.60076931341007,297.6321241451511,221.27622460783041,301.5633707045083,216.66197307964046,305.12254504722176,211.75499346240642,308.245863799487,206.5596873558814,310.8608423564797,201.09083156140002,312.8865282618703,195.37741890069094,314.2348256486409,189.46738285136283,314.8136500776776,183.43321428788602,314.53280074329876,177.37787235106464,313.3132963894632,171.43996674986582,311.1007669678641,165.79633600783148,307.8822358513193,160.65951549968787,303.7043245253024,156.2673820449113,298.6886721112796,152.86314268953242,293.0389181271174,150.66639795075886,287.0337725123753,149.83966388026465,281.00365437148696,150.4584333103445,275.29384106875455,152.49391924118214,270.2225820483968,155.81469293827203,266.0450695781007,160.20714218963806,262.9318346755674,165.4084031084436,260.9644461435856,171.14206355342773,260.1457444741433,177.14835161122087,260.41857123227555,183.20405252551865,261.68676373027523,189.13176012112297,263.8341220787358,194.8005154896418,266.73897877300436,200.12100137278364,270.2840762983963,205.03809889023623,274.3622945830915,209.5229216976547,278.87922874946145,213.56554908448692,283.75368393138143,217.16907210335543,288.916926220276,220.3450423048545,294.31137910710316,223.11017021935564,299.8891237796901,225.48398288097053,305.6104587784799,227.48721456595734,311.4425376070967,229.14066594869104,317.3581992105368,230.46444223090998,323.3349547274596,231.47738204149744,329.35412977251525,232.1965614555272,335.40009344188184,232.6368277809259,341.4595668064282,232.81036392564624,347.52093497547344,232.72632169934923,353.5735770169292,232.39062006393624,359.6072761889894,231.80608588116544,365.61171669127737,230.97312549254104,371.5761700504215,229.89038555299402,377.4890987347147,228.55467209725842,383.33771510488947,226.9608428183065,389.10781443478646,225.10282919722314,394.7840535073791,222.97530167043107,400.3501985606471,220.5744562718171,405.78831367418564,217.89621309555167,411.07704362709427,214.93387416246838,416.1917304819633,211.68023266461475,421.10160201607977,208.12503204727548,425.7556703849968,204.2409510866322,430,200"
  >
    <title>`c`.poly</title>
  </polyline>
  <g>
    <marker
      id="open-elastic-curve__registry-ClamshellKookabura228-`c`.arrow1-endArrowId"
      markerUnits="strokeWidth"
      markerWidth="9.95"
      markerHeight="8.12"
      viewBox="0 0 9.95 8.12"
      refX="2.36"
      refY="4.06"
      orient="auto-start-reverse"
    >
      <path
        d="M9.95 4.06 0 8.12 2.36 4.06 0 0 9.95 4.06z"
        fill="#22a34d"
        fill-opacity="0.6588235294117647"
      />
    </marker>
    <line
      x1="170"
      y1="200"
      x2="101.96964218870696"
      y2="160.60217466575784"
      stroke="#22a34d"
      stroke-opacity="0.6588235294117647"
      stroke-width="1.5"
      marker-end="url(#open-elastic-curve__registry-ClamshellKookabura228-`c`.arrow1-endArrowId)"
    />
    <title>`c`.arrow1</title>
  </g>
  <g>
    <marker
      id="open-elastic-curve__registry-ClamshellKookabura228-`c`.arrow2-endArrowId"
      markerUnits="strokeWidth"
      markerWidth="9.95"
      markerHeight="8.12"
      viewBox="0 0 9.95 8.12"
      refX="2.36"
      refY="4.06"
      orient="auto-start-reverse"
    >
      <path
        d="M9.95 4.06 0 8.12 2.36 4.06 0 0 9.95 4.06z"
        fill="#22a34d"
        fill-opacity="0.6588235294117647"
      />
    </marker>
    <line
      x1="430"
      y1="200"
      x2="485.61132878057936"
      y2="144.43293838740166"
      stroke="#22a34d"
      stroke-opacity="0.6588235294117647"
      stroke-width="1.5"
      marker-end="url(#open-elastic-curve__registry-ClamshellKookabura228-`c`.arrow2-endArrowId)"
    />
    <title>`c`.arrow2</title>
  </g>
</svg>
