<svg
  version="1.2"
  xmlns="http://www.w3.org/2000/svg"
  viewBox="0 0 800 800"
  penrose="0"
>
  <penrose>
    <croppedViewBox>
      188.44263417949836 115.6793344824693 295.92690896019917 300.7480683197491
    </croppedViewBox>
  </penrose>
  <circle
    fill="#000000"
    fill-opacity="0"
    cx="344.97087892534853"
    cy="267.26258621424864"
    stroke="#000000"
    stroke-opacity="1"
    stroke-width="1"
    r="138.89866421434897"
  >
    <title>3:0:osculatingCircle</title>
  </circle>
  <g>
    <marker
      id="osculating-circle__registry-RetroKouprey113-3:0:lineT-endArrowId"
      markerUnits="strokeWidth"
      markerWidth="4.98"
      markerHeight="4.06"
      viewBox="0 0 9.95 8.12"
      refX="2.36"
      refY="4.06"
      orient="auto-start-reverse"
    >
      <path
        d="M9.95 4.06 0 8.12 2.36 4.06 0 0 9.95 4.06z"
        fill="#112b9e"
        fill-opacity="1"
      />
    </marker>
    <line
      x1="414.4567327085248"
      y1="146.99392079933872"
      x2="372.3622958041551"
      y2="122.67363855681577"
      stroke="#112b9e"
      stroke-opacity="1"
      stroke-width="3"
      marker-end="url(#osculating-circle__registry-RetroKouprey113-3:0:lineT-endArrowId)"
    />
    <title>3:0:lineT</title>
  </g>
  <g>
    <marker
      id="osculating-circle__registry-RetroKouprey113-3:0:lineN-endArrowId"
      markerUnits="strokeWidth"
      markerWidth="4.98"
      markerHeight="4.06"
      viewBox="0 0 9.95 8.12"
      refX="2.36"
      refY="4.06"
      orient="auto-start-reverse"
    >
      <path
        d="M9.95 4.06 0 8.12 2.36 4.06 0 0 9.95 4.06z"
        fill="#a01111"
        fill-opacity="1"
      />
    </marker>
    <line
      x1="414.4567327085248"
      y1="146.99392079933872"
      x2="390.13645046600186"
      y2="189.08835770370837"
      stroke="#a01111"
      stroke-opacity="1"
      stroke-width="3"
      marker-end="url(#osculating-circle__registry-RetroKouprey113-3:0:lineN-endArrowId)"
    />
    <title>3:0:lineN</title>
  </g>
  <circle
    fill="#000000"
    fill-opacity="1"
    cx="414.4567327085248"
    cy="146.99392079933872"
    stroke="none"
    r="5"
  >
    <title>3:0:dot</title>
  </circle>
  <circle
    fill="#000000"
    fill-opacity="1"
    cx="344.97087892534853"
    cy="267.26258621424864"
    stroke="none"
    r="5"
  >
    <title>3:0:osculatingCenter</title>
  </circle>
  <path
    fill="none"
    stroke="#0a600a"
    stroke-opacity="0.4823529411764706"
    stroke-width="2"
    stroke-linecap="butt"
    d="M 414.4567327085248 146.99392079933872 C 394.3928253394609 135.40189282633082 377.95351686416086 130.81092824141143 354.7929620286998 128.3679957280463 C 331.6324071932387 125.92506321468119 314.7202216671289 127.19386250150558 292.55907567978215 134.13638125531162 C 270.39792969243535 141.07890000911766 255.2152593439983 149.27201758709484 238.15535156897997 164.9075681164993 C 221.09544379396164 180.54311864590377 211.88701077762366 195.00856822921833 202.77008739021207 216.4287524627035 C 193.65316400280048 237.84893669618867 188.44263417949836 254.87735231811774 190.17154426681375 277.64537987168444 C 191.90045435412915 300.4134074252511 199.7425104246155 316.35175611808097 211.8696141655563 336.26047642884396 C 223.9967179064971 356.16919673960695 235.77441317749984 367.6078761265216 253.99840606123914 382.42811834938425 C 272.2223989449784 397.2483605722469 286.3426067758061 412.09609976981324 307.7853661852368 414.2617512860158 C 329.2281255946675 416.4274028022184 347.2988533777993 406.1677087659838 366.85503453192706 393.8262842241348 C 386.4112156860549 381.4848596822858 407.40157971265415 347.00372520028805 410.71263541748846 349.30688527628433 C 414.0236911223227 351.6100453522806 381.30138446529594 403.95800643278125 384.28164350473907 405.9481793609573 C 387.26190254418225 407.9383522891333 411.87957261978323 378.47961193378575 426.39820930929454 359.7814796351055 C 440.91684599880585 341.0833473364252 450.33498877080945 328.6990125909303 460.6955208179565 307.53695673632444 C 471.05605286510354 286.37490088171853 480.98490414780554 270.8523129136395 480.92732534691066 248.40223829507457 C 480.86974654601573 225.95216367650963 473.0218870987503 208.646249594383 460.392474497457 189.37866927019317 C 447.76306189616366 170.11108894600335 434.52064007758867 158.58594877234663 414.4567327085248 146.99392079933872 Z "
    stroke-linejoin="round"
  >
    <title>3:0:curve</title>
  </path>
</svg>
