<?xml version="1.0" encoding="utf-8"?>
<!-- Generator: Adobe Illustrator 27.2.0, SVG Export Plug-In . SVG Version: 6.00 Build 0)  -->
<svg version="1.1" id="Layer_1" xmlns="http://www.w3.org/2000/svg" xmlns:xlink="http://www.w3.org/1999/xlink" x="0px" y="0px"
	 viewBox="0 0 1629.9 739" style="enable-background:new 0 0 1629.9 739;" xml:space="preserve">
<style type="text/css">
	.st0{fill:#FFFFFF;}
	.st1{stroke:#2F5D79;stroke-width:5;stroke-opacity:0.5;}
	.st2{fill:#DA816A;fill-opacity:0.5;}
	.st3{fill:#C04E97;fill-opacity:0.5;}
	.st4{fill:#89E469;fill-opacity:0.5;}
	.st5{fill:#53743A;fill-opacity:0.5;}
	.st6{fill:none;stroke:#FF8000;stroke-width:3.5;stroke-opacity:0.1;}
	.st7{fill:#FFFFFF;stroke:#000000;stroke-width:1.5;}
	.st8{clip-path:url(#SVGID_00000077285507005986684330000012713364918885770424_);}
	.st9{fill:none;stroke:#000000;stroke-width:2.8032;}
	.st10{opacity:0.502;fill:#DCCE39;}
	.st11{fill:#888888;}
	.st12{fill:none;stroke:#000000;stroke-width:1.8688;}
	.st13{opacity:0.502;fill:#2F487D;}
	.st14{opacity:0.502;fill:#1BA758;}
	.st15{fill:none;stroke:#888888;stroke-width:1.8688;}
	.st16{opacity:0.502;fill:#97A96E;}
	.st17{fill:#C52CBA;}
	.st18{fill:none;stroke:#61E5DA;stroke-width:4.672;stroke-linejoin:round;}
	.st19{opacity:0.502;fill:#A4E1A7;}
	.st20{opacity:0.502;fill:#5C5E64;}
	.st21{fill:#C63340;}
	.st22{opacity:0.502;fill:none;stroke:#4FA783;stroke-width:4.672;}
	.st23{opacity:0.502;fill:#208D8F;}
	.st24{opacity:0.502;fill:#B88994;}
	.st25{opacity:0.502;fill:none;stroke:#4C259D;stroke-width:4.672;}
	.st26{opacity:0.502;fill:#387D55;}
	.st27{opacity:0.502;fill:none;stroke:#6FCA8A;stroke-width:4.672;}
	.st28{opacity:0.502;fill:#1AD874;}
	.st29{opacity:0.502;fill:none;stroke:#463FA5;stroke-width:4.672;}
	.st30{fill:#7FC037;}
	.st31{opacity:0.502;fill:#332AA0;}
	.st32{opacity:0.502;fill:none;stroke:#CFD450;stroke-width:4.672;}
	.st33{opacity:0.502;fill:#C583BC;}
</style>
<rect class="st0" width="1629.9" height="739"/>
<g>
	<g>
		<g>
			<path class="st1" d="M813,713h800"/>
		</g>
		<ellipse class="st2" cx="1388.2" cy="603.7" rx="62.6" ry="92.2"/>
		<polygon class="st3" points="1331.5,362.7 1150.1,628.6 1047.9,457.3 		"/>
		<rect x="1065.3" y="99.9" class="st4" width="86.7" height="51.5"/>
		<circle class="st5" cx="1498.5" cy="612.4" r="40.1"/>
	</g>
	<g>
		<path class="st6" d="M1213,33L913.8,713"/>
	</g>
	<circle class="st7" cx="913.8" cy="713" r="2.5"/>
	<circle cx="1213" cy="33" r="5"/>
	<g>
		<path class="st6" d="M1213,33L1213,33"/>
	</g>
	<circle class="st7" cx="1213" cy="33" r="2.5"/>
	<circle cx="1213" cy="33" r="5"/>
	<g>
		<path class="st6" d="M1213,33l-61,103.6"/>
	</g>
	<circle class="st7" cx="1152" cy="136.6" r="2.5"/>
	<circle cx="1213" cy="33" r="5"/>
	<g>
		<path class="st6" d="M1213,33L1213,33"/>
	</g>
	<circle class="st7" cx="1213" cy="33" r="2.5"/>
	<circle cx="1213" cy="33" r="5"/>
	<g>
		<path class="st6" d="M1213,33l-61,113"/>
	</g>
	<circle class="st7" cx="1152" cy="146" r="2.5"/>
	<circle cx="1213" cy="33" r="5"/>
	<g>
		<path class="st6" d="M1213,33L920.8,713"/>
	</g>
	<circle class="st7" cx="920.8" cy="713" r="2.5"/>
	<circle cx="1213" cy="33" r="5"/>
	<g>
		<path class="st6" d="M1213,33l25.1,360.8"/>
	</g>
	<circle class="st7" cx="1238.1" cy="393.8" r="2.5"/>
	<circle cx="1213" cy="33" r="5"/>
	<g>
		<path class="st6" d="M1213,33l200,489.4"/>
	</g>
	<circle class="st7" cx="1413" cy="522.4" r="2.5"/>
	<circle cx="1213" cy="33" r="5"/>
	<g>
		<path class="st6" d="M1213,33l106.6,333.7"/>
	</g>
	<circle class="st7" cx="1319.7" cy="366.6" r="2.5"/>
	<circle cx="1213" cy="33" r="5"/>
	<g>
		<path class="st6" d="M1213,33l268.3,543.3"/>
	</g>
	<circle class="st7" cx="1481.3" cy="576.3" r="2.5"/>
	<circle cx="1213" cy="33" r="5"/>
	<g>
		<path class="st6" d="M1213,33l217,506.7"/>
	</g>
	<circle class="st7" cx="1430" cy="539.6" r="2.5"/>
	<circle cx="1213" cy="33" r="5"/>
	<g>
		<path class="st6" d="M1213,33L881,713"/>
	</g>
	<circle class="st7" cx="881" cy="713" r="2.5"/>
	<circle cx="1213" cy="33" r="5"/>
	<g>
		<path class="st6" d="M1213,33l269.4,542.8"/>
	</g>
	<circle class="st7" cx="1482.4" cy="575.8" r="2.5"/>
	<circle cx="1213" cy="33" r="5"/>
	<g>
		<path class="st6" d="M1213,33l67.8,346.6"/>
	</g>
	<circle class="st7" cx="1280.8" cy="379.6" r="2.5"/>
	<circle cx="1213" cy="33" r="5"/>
	<g>
		<path class="st6" d="M1213,33l24.1,361.2"/>
	</g>
	<circle class="st7" cx="1237.1" cy="394.1" r="2.5"/>
	<circle cx="1213" cy="33" r="5"/>
	<g>
		<path class="st6" d="M1213,33l298.8,541.7"/>
	</g>
	<circle class="st7" cx="1511.8" cy="574.7" r="2.5"/>
	<circle cx="1213" cy="33" r="5"/>
	<g>
		<path class="st6" d="M1213,33l306.2,545.2"/>
	</g>
	<circle class="st7" cx="1519.2" cy="578.2" r="2.5"/>
	<circle cx="1213" cy="33" r="5"/>
	<g>
		<path class="st6" d="M1213,33l-61,82.7"/>
	</g>
	<circle class="st7" cx="1152" cy="115.7" r="2.5"/>
	<circle cx="1213" cy="33" r="5"/>
	<g>
		<path class="st6" d="M1213,33L922.2,713"/>
	</g>
	<circle class="st7" cx="922.2" cy="713" r="2.5"/>
	<circle cx="1213" cy="33" r="5"/>
	<g>
		<path class="st6" d="M1213,33l-41.9,383.2"/>
	</g>
	<circle class="st7" cx="1171.2" cy="416.1" r="2.5"/>
	<circle cx="1213" cy="33" r="5"/>
	<g>
		<path class="st6" d="M1213,33L1213,33"/>
	</g>
	<circle class="st7" cx="1213" cy="33" r="2.5"/>
	<circle cx="1213" cy="33" r="5"/>
	<g>
		<path class="st6" d="M1213,33L934.1,713"/>
	</g>
	<circle class="st7" cx="934.1" cy="713" r="2.5"/>
	<circle cx="1213" cy="33" r="5"/>
	<g>
		<path class="st6" d="M1213,33l-101.2,403"/>
	</g>
	<circle class="st7" cx="1111.8" cy="435.9" r="2.5"/>
	<circle cx="1213" cy="33" r="5"/>
	<g>
		<path class="st6" d="M1213,33l-61,80.6"/>
	</g>
	<circle class="st7" cx="1152" cy="113.5" r="2.5"/>
	<circle cx="1213" cy="33" r="5"/>
	<g>
		<path class="st6" d="M1213,33l-61,113.1"/>
	</g>
	<circle class="st7" cx="1152" cy="146.1" r="2.5"/>
	<circle cx="1213" cy="33" r="5"/>
	<g>
		<path class="st6" d="M1213,33l268.1,543.4"/>
	</g>
	<circle class="st7" cx="1481.1" cy="576.4" r="2.5"/>
	<circle cx="1213" cy="33" r="5"/>
	<g>
		<path class="st6" d="M1213,33l-125.3,411"/>
	</g>
	<circle class="st7" cx="1087.8" cy="443.9" r="2.5"/>
	<circle cx="1213" cy="33" r="5"/>
	<g>
		<path class="st6" d="M1213,33L942.5,713"/>
	</g>
	<circle class="st7" cx="942.5" cy="713" r="2.5"/>
	<circle cx="1213" cy="33" r="5"/>
	<g>
		<path class="st6" d="M1213,33l-61,82.2"/>
	</g>
	<circle class="st7" cx="1152" cy="115.2" r="2.5"/>
	<circle cx="1213" cy="33" r="5"/>
	<g>
		<path class="st6" d="M1213,33L920.5,713"/>
	</g>
	<circle class="st7" cx="920.5" cy="713" r="2.5"/>
	<circle cx="1213" cy="33" r="5"/>
	<g>
		<path class="st6" d="M1213,33l186.2,482.9"/>
	</g>
	<circle class="st7" cx="1399.2" cy="515.9" r="2.5"/>
	<circle cx="1213" cy="33" r="5"/>
	<g>
		<path class="st6" d="M1213,33L1213,33"/>
	</g>
	<circle class="st7" cx="1213" cy="33" r="2.5"/>
	<circle cx="1213" cy="33" r="5"/>
	<g>
		<path class="st6" d="M1213,33L897.5,713"/>
	</g>
	<circle class="st7" cx="897.5" cy="713" r="2.5"/>
	<circle cx="1213" cy="33" r="5"/>
	<g>
		<path class="st6" d="M1213,33l-15.5,374.4"/>
	</g>
	<circle class="st7" cx="1197.5" cy="407.4" r="2.5"/>
	<circle cx="1213" cy="33" r="5"/>
	<g>
		<path class="st6" d="M1213,33l36,357.2"/>
	</g>
	<circle class="st7" cx="1249" cy="390.2" r="2.5"/>
	<circle cx="1213" cy="33" r="5"/>
	<g>
		<path class="st6" d="M1213,33l301.9,542.9"/>
	</g>
	<circle class="st7" cx="1514.9" cy="575.9" r="2.5"/>
	<circle cx="1213" cy="33" r="5"/>
	<g>
		<path class="st6" d="M1213,33l-61,71.5"/>
	</g>
	<circle class="st7" cx="1152" cy="104.5" r="2.5"/>
	<circle cx="1213" cy="33" r="5"/>
	<g>
		<path class="st6" d="M1213,33L1213,33"/>
	</g>
	<circle class="st7" cx="1213" cy="33" r="2.5"/>
	<circle cx="1213" cy="33" r="5"/>
	<g>
		<path class="st6" d="M1213,33l12.5,365"/>
	</g>
	<circle class="st7" cx="1225.5" cy="398" r="2.5"/>
	<circle cx="1213" cy="33" r="5"/>
	<g>
		<path class="st6" d="M1213,33l-151.5,419.7"/>
	</g>
	<circle class="st7" cx="1061.5" cy="452.7" r="2.5"/>
	<circle cx="1213" cy="33" r="5"/>
	<g>
		<path class="st6" d="M1213,33L910.1,713"/>
	</g>
	<circle class="st7" cx="910.1" cy="713" r="2.5"/>
	<circle cx="1213" cy="33" r="5"/>
	<g>
		<path class="st6" d="M1213,33l-39.5,382.4"/>
	</g>
	<circle class="st7" cx="1173.6" cy="415.3" r="2.5"/>
	<circle cx="1213" cy="33" r="5"/>
	<g>
		<path class="st6" d="M1213,33l47.2,353.5"/>
	</g>
	<circle class="st7" cx="1260.2" cy="386.5" r="2.5"/>
	<circle cx="1213" cy="33" r="5"/>
	<g>
		<path class="st6" d="M1213,33l65.2,347.5"/>
	</g>
	<circle class="st7" cx="1278.2" cy="380.5" r="2.5"/>
	<circle cx="1213" cy="33" r="5"/>
	<g>
		<path class="st6" d="M1213,33l198,488.2"/>
	</g>
	<circle class="st7" cx="1411.1" cy="521.1" r="2.5"/>
	<circle cx="1213" cy="33" r="5"/>
	<g>
		<path class="st6" d="M1213,33L1213,33"/>
	</g>
	<circle class="st7" cx="1213" cy="33" r="2.5"/>
	<circle cx="1213" cy="33" r="5"/>
	<g>
		<path class="st6" d="M1213,33l-61,80"/>
	</g>
	<circle class="st7" cx="1152" cy="113" r="2.5"/>
	<circle cx="1213" cy="33" r="5"/>
	<g>
		<path class="st6" d="M1213,33l58.8,349.6"/>
	</g>
	<circle class="st7" cx="1271.9" cy="382.6" r="2.5"/>
	<circle cx="1213" cy="33" r="5"/>
	<g>
		<path class="st6" d="M1213,33l-61,86.4"/>
	</g>
	<circle class="st7" cx="1152" cy="119.3" r="2.5"/>
	<circle cx="1213" cy="33" r="5"/>
	<g>
		<path class="st6" d="M1213,33l65.2,347.5"/>
	</g>
	<circle class="st7" cx="1278.2" cy="380.4" r="2.5"/>
	<circle cx="1213" cy="33" r="5"/>
	<g>
		<path class="st6" d="M1213,33l267.2,543.9"/>
	</g>
	<circle class="st7" cx="1480.2" cy="576.8" r="2.5"/>
	<circle cx="1213" cy="33" r="5"/>
	<g>
		<path class="st6" d="M1213,33l-61,117.1"/>
	</g>
	<circle class="st7" cx="1152" cy="150.1" r="2.5"/>
	<circle cx="1213" cy="33" r="5"/>
	<g>
		<path class="st6" d="M1213,33l-57.6,388.4"/>
	</g>
	<circle class="st7" cx="1155.4" cy="421.4" r="2.5"/>
	<circle cx="1213" cy="33" r="5"/>
	<g>
		<path class="st6" d="M1213,33l88.4,339.7"/>
	</g>
	<circle class="st7" cx="1301.4" cy="372.7" r="2.5"/>
	<circle cx="1213" cy="33" r="5"/>
	<g>
		<path class="st6" d="M1213,33l3.6,368"/>
	</g>
	<circle class="st7" cx="1216.6" cy="401" r="2.5"/>
	<circle cx="1213" cy="33" r="5"/>
	<g>
		<path class="st6" d="M1213,33l-101.9,403.2"/>
	</g>
	<circle class="st7" cx="1111.2" cy="436.1" r="2.5"/>
	<circle cx="1213" cy="33" r="5"/>
	<g>
		<path class="st6" d="M1213,33l-102.3,403.3"/>
	</g>
	<circle class="st7" cx="1110.7" cy="436.3" r="2.5"/>
	<circle cx="1213" cy="33" r="5"/>
	<g>
		<path class="st6" d="M1213,33l-47.9,385.2"/>
	</g>
	<circle class="st7" cx="1165.1" cy="418.1" r="2.5"/>
	<circle cx="1213" cy="33" r="5"/>
	<g>
		<path class="st6" d="M1213,33l68.2,346.5"/>
	</g>
	<circle class="st7" cx="1281.2" cy="379.4" r="2.5"/>
	<circle cx="1213" cy="33" r="5"/>
	<g>
		<path class="st6" d="M1213,33l25.8,360.6"/>
	</g>
	<circle class="st7" cx="1238.8" cy="393.6" r="2.5"/>
	<circle cx="1213" cy="33" r="5"/>
	<g>
		<path class="st6" d="M1213,33L932.2,713"/>
	</g>
	<circle class="st7" cx="932.2" cy="713" r="2.5"/>
	<circle cx="1213" cy="33" r="5"/>
	<g>
		<path class="st6" d="M1213,33l313.6,551"/>
	</g>
	<circle class="st7" cx="1526.6" cy="584" r="2.5"/>
	<circle cx="1213" cy="33" r="5"/>
	<g>
		<path class="st6" d="M1213,33L1213,33"/>
	</g>
	<circle class="st7" cx="1213" cy="33" r="2.5"/>
	<circle cx="1213" cy="33" r="5"/>
	<g>
		<path class="st6" d="M1213,33L1213,33"/>
	</g>
	<circle class="st7" cx="1213" cy="33" r="2.5"/>
	<circle cx="1213" cy="33" r="5"/>
	<g>
		<path class="st6" d="M1213,33l-61,88.4"/>
	</g>
	<circle class="st7" cx="1152" cy="121.3" r="2.5"/>
	<circle cx="1213" cy="33" r="5"/>
	<g>
		<path class="st6" d="M1213,33L1330.4,363"/>
	</g>
	<circle class="st7" cx="1330.4" cy="363" r="2.5"/>
	<circle cx="1213" cy="33" r="5"/>
	<g>
		<path class="st6" d="M1213,33l392.7,680"/>
	</g>
	<circle class="st7" cx="1605.8" cy="713" r="2.5"/>
	<circle cx="1213" cy="33" r="5"/>
	<g>
		<path class="st6" d="M1213,33L1213,33"/>
	</g>
	<circle class="st7" cx="1213" cy="33" r="2.5"/>
	<circle cx="1213" cy="33" r="5"/>
	<g>
		<path class="st6" d="M1213,33L885.5,713"/>
	</g>
	<circle class="st7" cx="885.5" cy="713" r="2.5"/>
	<circle cx="1213" cy="33" r="5"/>
	<g>
		<path class="st6" d="M1213,33l-61,95.6"/>
	</g>
	<circle class="st7" cx="1152" cy="128.6" r="2.5"/>
	<circle cx="1213" cy="33" r="5"/>
	<g>
		<path class="st6" d="M1213,33l102.2,335.1"/>
	</g>
	<circle class="st7" cx="1315.2" cy="368.1" r="2.5"/>
	<circle cx="1213" cy="33" r="5"/>
	<g>
		<path class="st6" d="M1213,33l-63.9,390.5"/>
	</g>
	<circle class="st7" cx="1149.1" cy="423.5" r="2.5"/>
	<circle cx="1213" cy="33" r="5"/>
	<g>
		<path class="st6" d="M1213,33l114.8,330.9"/>
	</g>
	<circle class="st7" cx="1327.8" cy="363.9" r="2.5"/>
	<circle cx="1213" cy="33" r="5"/>
	<g>
		<path class="st6" d="M1213,33L946.2,713"/>
	</g>
	<circle class="st7" cx="946.2" cy="713" r="2.5"/>
	<circle cx="1213" cy="33" r="5"/>
	<g>
		<path class="st6" d="M1213,33l102.9,334.9"/>
	</g>
	<circle class="st7" cx="1315.9" cy="367.9" r="2.5"/>
	<circle cx="1213" cy="33" r="5"/>
	<g>
		<path class="st6" d="M1213,33L1213,33"/>
	</g>
	<circle class="st7" cx="1213" cy="33" r="2.5"/>
	<circle cx="1213" cy="33" r="5"/>
	<g>
		<path class="st6" d="M1213,33l-27.4,378.3"/>
	</g>
	<circle class="st7" cx="1185.6" cy="411.3" r="2.5"/>
	<circle cx="1213" cy="33" r="5"/>
	<g>
		<path class="st6" d="M1213,33l72.3,345.1"/>
	</g>
	<circle class="st7" cx="1285.3" cy="378.1" r="2.5"/>
	<circle cx="1213" cy="33" r="5"/>
	<g>
		<path class="st6" d="M1213,33l-61,79.3"/>
	</g>
	<circle class="st7" cx="1152" cy="112.2" r="2.5"/>
	<circle cx="1213" cy="33" r="5"/>
	<g>
		<path class="st6" d="M1213,33l-37.6,381.8"/>
	</g>
	<circle class="st7" cx="1175.4" cy="414.7" r="2.5"/>
	<circle cx="1213" cy="33" r="5"/>
	<g>
		<path class="st6" d="M1213,33L897.8,713"/>
	</g>
	<circle class="st7" cx="897.8" cy="713" r="2.5"/>
	<circle cx="1213" cy="33" r="5"/>
	<g>
		<path class="st6" d="M1213,33l50.7,352.3"/>
	</g>
	<circle class="st7" cx="1263.7" cy="385.3" r="2.5"/>
	<circle cx="1213" cy="33" r="5"/>
	<g>
		<path class="st6" d="M1213,33l-104,403.9"/>
	</g>
	<circle class="st7" cx="1109" cy="436.9" r="2.5"/>
	<circle cx="1213" cy="33" r="5"/>
	<g>
		<path class="st6" d="M1213,33L924.6,713"/>
	</g>
	<circle class="st7" cx="924.6" cy="713" r="2.5"/>
	<circle cx="1213" cy="33" r="5"/>
	<g>
		<path class="st6" d="M1213,33L872.2,713"/>
	</g>
	<circle class="st7" cx="872.2" cy="713" r="2.5"/>
	<circle cx="1213" cy="33" r="5"/>
	<g>
		<path class="st6" d="M1213,33l15.3,364.1"/>
	</g>
	<circle class="st7" cx="1228.4" cy="397.1" r="2.5"/>
	<circle cx="1213" cy="33" r="5"/>
	<g>
		<path class="st6" d="M1213,33l-39.7,382.5"/>
	</g>
	<circle class="st7" cx="1173.3" cy="415.4" r="2.5"/>
	<circle cx="1213" cy="33" r="5"/>
	<g>
		<path class="st6" d="M1213,33l-83.5,397"/>
	</g>
	<circle class="st7" cx="1129.5" cy="430" r="2.5"/>
	<circle cx="1213" cy="33" r="5"/>
	<g>
		<path class="st6" d="M1213,33l191.6,484.8"/>
	</g>
	<circle class="st7" cx="1404.6" cy="517.8" r="2.5"/>
	<circle cx="1213" cy="33" r="5"/>
	<g>
		<path class="st6" d="M1213,33L1213,33"/>
	</g>
	<circle class="st7" cx="1213" cy="33" r="2.5"/>
	<circle cx="1213" cy="33" r="5"/>
	<g>
		<path class="st6" d="M1213,33l58.9,349.6"/>
	</g>
	<circle class="st7" cx="1271.9" cy="382.5" r="2.5"/>
	<circle cx="1213" cy="33" r="5"/>
	<g>
		<path class="st6" d="M1213,33L932,713"/>
	</g>
	<circle class="st7" cx="932" cy="713" r="2.5"/>
	<circle cx="1213" cy="33" r="5"/>
	<g>
		<path class="st6" d="M1213,33L1213,33"/>
	</g>
	<circle class="st7" cx="1213" cy="33" r="2.5"/>
	<circle cx="1213" cy="33" r="5"/>
	<g>
		<path class="st6" d="M1213,33L1213,33"/>
	</g>
	<circle class="st7" cx="1213" cy="33" r="2.5"/>
	<circle cx="1213" cy="33" r="5"/>
	<g>
		<path class="st6" d="M1213,33l-50.3,386"/>
	</g>
	<circle class="st7" cx="1162.7" cy="419" r="2.5"/>
	<circle cx="1213" cy="33" r="5"/>
	<g>
		<path class="st6" d="M1213,33l103.6,334.7"/>
	</g>
	<circle class="st7" cx="1316.6" cy="367.6" r="2.5"/>
	<circle cx="1213" cy="33" r="5"/>
	<g>
		<path class="st6" d="M1213,33L941.3,713"/>
	</g>
	<circle class="st7" cx="941.3" cy="713" r="2.5"/>
	<circle cx="1213" cy="33" r="5"/>
	<g>
		<path class="st6" d="M1213,33L881,713"/>
	</g>
	<circle class="st7" cx="881" cy="713" r="2.5"/>
	<circle cx="1213" cy="33" r="5"/>
	<g>
		<path class="st6" d="M1213,33l-56.6,388.1"/>
	</g>
	<circle class="st7" cx="1156.4" cy="421.1" r="2.5"/>
	<circle cx="1213" cy="33" r="5"/>
	<g>
		<path class="st6" d="M1213,33L1213,33"/>
	</g>
	<circle class="st7" cx="1213" cy="33" r="2.5"/>
	<circle cx="1213" cy="33" r="5"/>
	<penrose>
		<version>0.1</version>
		<variation>MallardSquid53605</variation>
		<sub>Ray r1
Ray r2
Ray r3
Ray r4
Ray r5
Ray r6
Ray r7
Ray r8
Ray r9
Ray r10
Ray r11
Ray r12
Ray r13
Ray r14
Ray r15
Ray r16
Ray r17
Ray r18
Ray r19
Ray r20
Ray r21
Ray r22
Ray r23
Ray r24
Ray r25
Ray r26
Ray r27
Ray r28
Ray r29
Ray r30
Ray r31
Ray r32
Ray r33
Ray r34
Ray r35
Ray r36
Ray r37
Ray r38
Ray r39
Ray r40
Ray r41
Ray r42
Ray r43
Ray r44
Ray r45
Ray r46
Ray r47
Ray r48
Ray r49
Ray r50
Ray r51
Ray r52
Ray r53
Ray r54
Ray r55
Ray r56
Ray r57
Ray r58
Ray r59
Ray r60
Ray r61
Ray r62
Ray r63
Ray r64
Ray r65
Ray r66
Ray r67
Ray r68
Ray r69
Ray r70
Ray r71
Ray r72
Ray r73
Ray r74
Ray r75
Ray r76
Ray r77
Ray r78
Ray r79
Ray r80
Ray r81
Ray r82
Ray r83
Ray r84
Ray r85
Ray r86
Ray r87
Ray r88
Ray r89
Ray r90
Ray r91
Ray r92
Ray r93
Ray r94
Ray r95
Ray r96
Ray r97
Ray r98
Ray r99
Ray r100

Group G
			</sub>
		<sty>canvas {
   width = 800
   height = 700
}

-- Rules for drawing each type of shape

forall Ray r {
   scalar theta = random( 4, 5.42 )
   vec2 r.pos = (0,canvas.height/2 - 10.)
   vec2 r.vec = [ cos(theta), sin(theta) ]

   shape r.icon = Circle {
      center: r.pos
      r: 5
      fillColor: #000000ff
   } 
}

forall Group G {
   shape G.line = Line {
      start: (-canvas.width/2,-canvas.height/2 + 10)
      end: (canvas.width/2,-canvas.height/2 + 10)
      strokeWidth: 5
   }
   shape G.rectangle = Rectangle {
      center: (?, ?)
      width: random(40,100)
      height: random(40,100)
      strokeWidth: 1
   }
   shape G.circle = Circle {
      center: (?,?)
      r: random(40,80)
   }
   shape G.ellipse = Ellipse {
      center: (?,?)
      rx: random(60,100)
      ry: random(60,100)
   }

   vec2 p0 = (?,?)
   vec2 p1 = (?,?)
   vec2 p2 = (?,?)
   shape G.polygon = Polygon {
      points: [ p0, p1, p2 ]
   }
   vec2 e01 = p1-p0
   vec2 e12 = p2-p1
   vec2 e20 = p0-p2
   ensure angleBetween( e01, -e12 ) &gt; toRadians(30)
   ensure angleBetween( e12, -e20 ) &gt; toRadians(30)
   ensure angleBetween( e20, -e01 ) &gt; toRadians(30)
   ensure abs(cross2D( e01, -e12 )) &gt; 50

   shape G.icon = Group {
      shapes: [ G.line, G.rectangle, G.circle, G.ellipse, G.polygon ]
   }

   ensure disjoint( G.line, G.rectangle )
   ensure disjoint( G.line, G.circle )
   ensure disjoint( G.line, G.ellipse )
   ensure disjoint( G.line, G.polygon )
   ensure disjoint( G.rectangle, G.circle )
   ensure disjoint( G.rectangle, G.ellipse )
   ensure disjoint( G.rectangle, G.polygon )
   ensure disjoint( G.circle, G.ellipse )
   ensure disjoint( G.circle, G.polygon )
   ensure disjoint( G.ellipse, G.polygon )
}

forall Ray r; Shape S
{
   vec2 p = rayIntersect( S.icon, r.pos, r.vec )

   shape intersectDot = Circle {
      r: r.icon.r / 2
      center: p
      fillColor: #ffffffff
      strokeColor: #000000ff
      strokeWidth: 1.5
      ensureOnCanvas: false
   }

   shape line = Line {
      start: r.pos
      end: p
      strokeColor: rgba(1,.5,0,.1)
      strokeWidth: 3.5
      ensureOnCanvas: false
   }

   layer intersectDot below r.icon
   layer intersectDot above S.icon
   layer intersectDot above line
}
			</sty>
		<dsl>type Ray

type Shape
type Line &lt;: Shape
type Polyline
type Polygon &lt;: Shape
type Rectangle &lt;: Shape
type Circle &lt;: Shape
type Ellipse

type Group &lt;: Shape
			</dsl>
	</penrose>
</g>
<g>
	<defs>
		<rect id="SVGID_1_" x="7.7" y="8.8" width="807.3" height="715.7"/>
	</defs>
	<clipPath id="SVGID_00000098905211572051382820000003431966302119169202_">
		<use xlink:href="#SVGID_1_"  style="overflow:visible;"/>
	</clipPath>
	<g style="clip-path:url(#SVGID_00000098905211572051382820000003431966302119169202_);">
		<path d="M999.3,474.7l7.4-1.2l0.2,1.4l-7.4,1.2 M986.4,476.8l7.4-1.2l0.2,1.4l-7.4,1.2 M973.5,479l7.4-1.2l0.2,1.4l-7.4,1.2
			 M960.6,481.1l7.4-1.2l0.2,1.4l-7.4,1.2 M947.7,483.3l7.4-1.2l0.2,1.4l-7.4,1.2 M934.7,485.4l7.4-1.2l0.2,1.4l-7.4,1.2
			 M921.8,487.5l7.4-1.2l0.2,1.4l-7.4,1.2 M908.9,489.7l7.4-1.2l0.2,1.4l-7.4,1.2 M896,491.8l7.4-1.2l0.2,1.4l-7.4,1.2 M883.1,494
			l7.4-1.2l0.2,1.4l-7.4,1.2 M870.2,496.1l7.4-1.2l0.2,1.4l-7.4,1.2 M857.3,498.3l7.4-1.2l0.2,1.4l-7.4,1.2 M844.4,500.4l7.4-1.2
			l0.2,1.4l-7.4,1.2 M831.5,502.5l7.4-1.2l0.2,1.4l-7.4,1.2 M818.6,504.7l7.4-1.2l0.2,1.4l-7.4,1.2 M805.7,506.8l7.4-1.2l0.2,1.4
			l-7.4,1.2 M792.8,509l7.4-1.2l0.2,1.4l-7.4,1.2 M779.9,511.1l7.4-1.2l0.2,1.4l-7.4,1.2 M766.9,513.2l7.4-1.2l0.2,1.4l-7.4,1.2
			 M754,515.4l7.4-1.2l0.2,1.4l-7.4,1.2 M741.1,517.5l7.4-1.2l0.2,1.4l-7.4,1.2 M728.2,519.7l7.4-1.2l0.2,1.4l-7.4,1.2 M715.3,521.8
			l7.4-1.2l0.2,1.4l-7.4,1.2 M702.4,523.9l7.4-1.2l0.2,1.4l-7.4,1.2 M689.5,526.1l7.4-1.2l0.2,1.4l-7.4,1.2 M676.6,528.2l7.4-1.2
			l0.2,1.4l-7.4,1.2 M663.7,530.4l7.4-1.2l0.2,1.4l-7.4,1.2 M650.8,532.5l7.4-1.2l0.2,1.4l-7.4,1.2 M637.9,534.6l7.4-1.2l0.2,1.4
			l-7.4,1.2 M625,536.8l7.4-1.2l0.2,1.4l-7.4,1.2 M612.1,538.9l7.4-1.2l0.2,1.4l-7.4,1.2 M599.1,541.1l7.4-1.2l0.2,1.4l-7.4,1.2
			 M586.2,543.2l7.4-1.2l0.2,1.4l-7.4,1.2 M573.3,545.4l7.4-1.2l0.2,1.4l-7.4,1.2 M560.4,547.5l7.4-1.2l0.2,1.4l-7.4,1.2
			 M547.5,549.6l7.4-1.2l0.2,1.4l-7.4,1.2 M534.6,551.8l7.4-1.2l0.2,1.4l-7.4,1.2 M521.7,553.9l7.4-1.2l0.2,1.4l-7.4,1.2
			 M508.8,556.1l7.4-1.2l0.2,1.4l-7.4,1.2 M495.9,558.2l7.4-1.2l0.2,1.4l-7.4,1.2 M483,560.3l7.4-1.2l0.2,1.4l-7.4,1.2 M470.1,562.5
			l7.4-1.2l0.2,1.4l-7.4,1.2 M457.2,564.6l7.4-1.2l0.2,1.4l-7.4,1.2 M444.3,566.8l7.4-1.2l0.2,1.4l-7.4,1.2 M431.4,568.9l7.4-1.2
			l0.2,1.4l-7.4,1.2 M418.4,571l7.4-1.2l0.2,1.4l-7.4,1.2 M405.5,573.2l7.4-1.2l0.2,1.4l-7.4,1.2 M392.6,575.3l7.4-1.2l0.2,1.4
			l-7.4,1.2 M379.7,577.5l7.4-1.2l0.2,1.4l-7.4,1.2 M366.8,579.6l7.4-1.2l0.2,1.4L367,581 M353.9,581.8l7.4-1.2l0.2,1.4l-7.4,1.2
			 M341,583.9l7.4-1.2l0.2,1.4l-7.4,1.2 M328.1,586l7.4-1.2l0.2,1.4l-7.4,1.2 M315.2,588.2l7.4-1.2l0.2,1.4l-7.4,1.2 M302.3,590.3
			l7.4-1.2l0.2,1.4l-7.4,1.2 M289.4,592.5l7.4-1.2l0.2,1.4l-7.4,1.2 M276.5,594.6l7.4-1.2l0.2,1.4l-7.4,1.2 M263.6,596.7l7.4-1.2
			l0.2,1.4l-7.4,1.2 M250.6,598.9l7.4-1.2l0.2,1.4l-7.4,1.2 M237.7,601l7.4-1.2l0.2,1.4l-7.4,1.2 M224.8,603.2l7.4-1.2l0.2,1.4
			l-7.4,1.2 M211.9,605.3l7.4-1.2l0.2,1.4l-7.4,1.2 M199,607.4l7.4-1.2l0.2,1.4l-7.4,1.2 M186.1,609.6l7.4-1.2l0.2,1.4l-7.4,1.2
			 M173.2,611.7l7.4-1.2l0.2,1.4l-7.4,1.2 M160.3,613.9l7.4-1.2l0.2,1.4l-7.4,1.2 M147.4,616l7.4-1.2l0.2,1.4l-7.4,1.2 M134.5,618.1
			l7.4-1.2l0.2,1.4l-7.4,1.2 M121.6,620.3l7.4-1.2l0.2,1.4l-7.4,1.2 M108.7,622.4l7.4-1.2l0.2,1.4l-7.4,1.2 M95.8,624.6l7.4-1.2
			l0.2,1.4L96,626 M82.8,626.7l7.4-1.2l0.2,1.4l-7.4,1.2 M69.9,628.9l7.4-1.2l0.2,1.4l-7.4,1.2 M57,631l7.4-1.2l0.2,1.4l-7.4,1.2
			 M44.1,633.1l7.4-1.2l0.2,1.4l-7.4,1.2 M31.2,635.3l7.4-1.2l0.2,1.4l-7.4,1.2"/>
		<line x1="31.3" y1="636" x2="90" y2="626.2"/>
		<line class="st9" x1="31.3" y1="636" x2="90" y2="626.2"/>
	</g>
	<g style="clip-path:url(#SVGID_00000098905211572051382820000003431966302119169202_);">
		<g>
			<g>
				<g>
					<polygon points="100.5,624.5 87.6,632.4 90,626.2 85.8,621.2 					"/>
				</g>
			</g>
		</g>
	</g>
	<g style="clip-path:url(#SVGID_00000098905211572051382820000003431966302119169202_);">
		<path class="st10" d="M235.8,302.6c0,6.2-0.6,34.6-6.5,36.4c-8.6-2.3-8.7-70.3,0-72.7C235.2,268.1,235.8,296.4,235.8,302.6z"/>
	</g>
	<g style="clip-path:url(#SVGID_00000098905211572051382820000003431966302119169202_);">
		<g>
			<g>
				<g>
					<polygon class="st11" points="31.4,643.1 27.5,633.8 31.3,636 35.1,633.7 					"/>
				</g>
			</g>
		</g>
	</g>
	<g style="clip-path:url(#SVGID_00000098905211572051382820000003431966302119169202_);">
		<path class="st0" d="M36,636c-0.2,6.2-9.2,6.2-9.3,0C26.8,629.8,35.8,629.8,36,636z"/>
		<path class="st12" d="M36,636c-0.2,6.2-9.2,6.2-9.3,0C26.8,629.8,35.8,629.8,36,636z"/>
		<polygon class="st13" points="592.4,154.9 566,60.7 500.6,142.8 		"/>
		<path class="st14" d="M319.4,604.1c-0.2,20.7-4.9,46.8-21.5,60.8c-13.2,10.6-27.5,2.9-35.4-9.9c-9.4-15-12.6-33.3-12.7-50.8
			c0.1-17.5,3.3-35.8,12.7-50.8c7.9-12.8,22.2-20.5,35.4-9.9C314.5,557.3,319.2,583.4,319.4,604.1z"/>
		<line x1="249.9" y1="599.7" x2="229" y2="599"/>
		<line class="st15" x1="249.9" y1="599.7" x2="229" y2="599"/>
	</g>
	<g style="clip-path:url(#SVGID_00000098905211572051382820000003431966302119169202_);">
		<g>
			<g>
				<g>
					<polygon class="st11" points="221.9,598.7 231.3,595.3 229,599 231,602.8 					"/>
				</g>
			</g>
		</g>
	</g>
	<g style="clip-path:url(#SVGID_00000098905211572051382820000003431966302119169202_);">
		<path class="st0" d="M254.6,599.7c-0.2,6.2-9.2,6.2-9.3,0C245.4,593.6,254.4,593.6,254.6,599.7z"/>
		<path class="st12" d="M254.6,599.7c-0.2,6.2-9.2,6.2-9.3,0C245.4,593.6,254.4,593.6,254.6,599.7z"/>
		<polygon class="st16" points="453.4,348.2 368.2,354.2 368,429.1 		"/>
		<path class="st17" d="M649.3,394.3c0.1,20.8-22.6,34.3-40.8,24.4c-20.6-11-19.1-41.1,2.5-50.1
			C628.9,361.1,649.5,374.8,649.3,394.3z"/>
		<path class="st17" d="M652.4,375.1c0.1,20.2-21.9,33.4-39.6,23.7c-20-10.6-18.5-40,2.4-48.6C632.5,342.8,652.6,356.2,652.4,375.1z
			"/>
		<path class="st17" d="M612.5,399.9c0.2,16.6-18.1,27.5-32.7,19.6c-15.6-8.2-15.6-31,0-39.2C594.4,372.3,612.7,383.3,612.5,399.9z"
			/>
		<path class="st17" d="M629.8,396.8c0.1,23.1-25.1,38.3-45.5,27.2c-22.9-12.2-21.3-45.8,2.7-55.8C607.1,359.7,630,375,629.8,396.8z
			"/>
		<polyline class="st18" points="759.8,86.8 738.5,233.9 725.9,381 766.4,528.2 758.2,675.3 		"/>
		<line x1="762.6" y1="514.7" x2="742.5" y2="520.2"/>
		<line class="st15" x1="762.6" y1="514.7" x2="742.5" y2="520.2"/>
	</g>
	<g style="clip-path:url(#SVGID_00000098905211572051382820000003431966302119169202_);">
		<g>
			<g>
				<g>
					<polygon class="st11" points="735.6,522.1 743.6,516 742.5,520.2 745.6,523.3 					"/>
				</g>
			</g>
		</g>
	</g>
	<g style="clip-path:url(#SVGID_00000098905211572051382820000003431966302119169202_);">
		<path class="st0" d="M767.3,514.7c-0.2,6.2-9.2,6.2-9.3,0C758.1,508.5,767.2,508.5,767.3,514.7z"/>
		<path class="st12" d="M767.3,514.7c-0.2,6.2-9.2,6.2-9.3,0C758.1,508.5,767.2,508.5,767.3,514.7z"/>
		<path class="st19" d="M544.6,552c0.3,30.9-21.1,59.7-50.7,68.3c-45.6,13.9-92.3-20.6-92.2-68.3c-0.1-47.7,46.5-82.3,92.2-68.3
			C523.5,492.4,544.9,521.2,544.6,552z"/>
		<line x1="405.2" y1="574" x2="385.3" y2="580.4"/>
		<line class="st15" x1="405.2" y1="574" x2="385.3" y2="580.4"/>
	</g>
	<g style="clip-path:url(#SVGID_00000098905211572051382820000003431966302119169202_);">
		<g>
			<g>
				<g>
					<polygon class="st11" points="378.5,582.6 386.2,576.1 385.3,580.4 388.5,583.3 					"/>
				</g>
			</g>
		</g>
	</g>
	<g style="clip-path:url(#SVGID_00000098905211572051382820000003431966302119169202_);">
		<path class="st0" d="M409.9,574c-0.2,6.2-9.2,6.2-9.3,0C400.7,567.8,409.7,567.8,409.9,574z"/>
		<path class="st12" d="M409.9,574c-0.2,6.2-9.2,6.2-9.3,0C400.7,567.8,409.7,567.8,409.9,574z"/>
		<rect x="399.7" y="169.6" class="st20" width="58.4" height="56"/>
		<path class="st21" d="M236.7,666.4c0.2,13.7-14.4,23.4-27,18c-16-6.6-16-29.4,0-36C222.3,643,236.9,652.8,236.7,666.4z"/>
		<path class="st21" d="M272,658.6c0.2,14.6-15.4,25.1-28.9,19.3c-17.1-7.1-17.1-31.5,0-38.5C256.5,633.5,272.2,643.9,272,658.6z"/>
		<path class="st21" d="M214.2,681.2c0.1,19.6-21.3,32.4-38.4,23c-19.4-10.3-18-38.8,2.3-47.2C195,649.8,214.4,662.8,214.2,681.2z"
			/>
		<path class="st21" d="M236.1,671.6c0.1,26.8-29,44.2-52.6,31.5c-26.5-14.2-24.6-52.9,3.2-64.5C210,628.8,236.3,646.4,236.1,671.6z
			"/>
		<line class="st22" x1="169.6" y1="122.8" x2="431.9" y2="166"/>
		<path class="st23" d="M305.7,433c-0.2,31.3-32.6,50.9-61,52.6c-32.4,3.1-73.7-16.1-74.3-52.6c0.7-36.5,41.9-55.7,74.3-52.6
			C273.1,382.1,305.5,401.7,305.7,433z"/>
	</g>
	<g style="clip-path:url(#SVGID_00000098905211572051382820000003431966302119169202_);">
		<g>
			<g>
				<g>
					<polygon class="st11" points="31.4,643.1 27.5,633.8 31.3,636 35.1,633.7 					"/>
				</g>
			</g>
		</g>
	</g>
	<g style="clip-path:url(#SVGID_00000098905211572051382820000003431966302119169202_);">
		<path class="st0" d="M36,636c-0.2,6.2-9.2,6.2-9.3,0C26.8,629.8,35.8,629.8,36,636z"/>
		<path class="st12" d="M36,636c-0.2,6.2-9.2,6.2-9.3,0C26.8,629.8,35.8,629.8,36,636z"/>
		<rect x="244" y="67.1" class="st24" width="60.4" height="37.1"/>
		<line class="st25" x1="252.2" y1="348.9" x2="254.5" y2="460"/>
		<path class="st26" d="M742.5,293.3c0.2,28.4-29.4,48.1-55.6,37.1c-33-13.9-33-60.3,0-74.2C713.1,245.2,742.7,264.9,742.5,293.3z"
			/>
		<line class="st27" x1="99.1" y1="612" x2="149.9" y2="84.9"/>
		<rect x="443.2" y="65.2" class="st28" width="54.5" height="69.2"/>
		<line class="st29" x1="712.2" y1="163.1" x2="710.8" y2="54.4"/>
		<path class="st30" d="M727,363.5c0.1,22.4-24.3,37-44,26.4c-21-11.2-21-41.6,0-52.7C702.6,326.5,727.1,341.1,727,363.5z"/>
		<path class="st30" d="M762.5,377.7c0.2,23.3-24.2,39.6-45.7,30.5c-27.1-11.4-27.1-49.7,0-61C738.3,338.1,762.7,354.4,762.5,377.7z
			"/>
		<path class="st30" d="M719.4,378.1c0.2,23.6-24.6,40.1-46.3,30.9c-27.5-11.5-27.5-50.3,0-61.8C694.9,338,719.6,354.5,719.4,378.1z
			"/>
		<path class="st30" d="M765.9,369.8c0.1,24.5-26.5,40.5-48.1,28.8c-24.2-13-22.5-48.5,2.9-59C741.9,330.6,766,346.8,765.9,369.8z"
			/>
		<polygon class="st31" points="430.1,113.8 346.7,63.5 311,116.5 		"/>
		<line class="st32" x1="511.6" y1="162" x2="561.3" y2="676.1"/>
		<line x1="549.1" y1="550.1" x2="528.3" y2="552.1"/>
		<line class="st15" x1="549.1" y1="550.1" x2="528.3" y2="552.1"/>
	</g>
	<g style="clip-path:url(#SVGID_00000098905211572051382820000003431966302119169202_);">
		<g>
			<g>
				<g>
					<polygon class="st11" points="521.2,552.8 530.1,548.1 528.3,552.1 530.8,555.7 					"/>
				</g>
			</g>
		</g>
	</g>
	<g style="clip-path:url(#SVGID_00000098905211572051382820000003431966302119169202_);">
		<path class="st0" d="M553.8,550.1c-0.2,6.2-9.2,6.2-9.3,0C544.6,543.9,553.6,543.9,553.8,550.1z"/>
		<path class="st12" d="M553.8,550.1c-0.2,6.2-9.2,6.2-9.3,0C544.6,543.9,553.6,543.9,553.8,550.1z"/>
		<path class="st33" d="M762.2,641.3c0.3,28.1-19.2,54.4-46.2,62.2c-41.5,12.7-84.1-18.8-84-62.2c-0.1-43.4,42.5-75,84-62.2
			C743,586.9,762.5,613.3,762.2,641.3z"/>
		<path d="M36,636c-0.2,6.2-9.2,6.2-9.3,0C26.8,629.8,35.8,629.8,36,636z"/>
		<path d="M994.8-65.3l7.3-1.4l0.3,1.4l-7.3,1.4 M982-62.8l7.3-1.4l0.3,1.4l-7.3,1.4 M969.2-60.4l7.3-1.4l0.3,1.4l-7.3,1.4
			 M956.3-57.9l7.3-1.4l0.3,1.4l-7.3,1.4 M943.5-55.4l7.3-1.4l0.3,1.4l-7.3,1.4 M930.6-53l7.3-1.4l0.3,1.4l-7.3,1.4 M917.8-50.5
			l7.3-1.4l0.3,1.4l-7.3,1.4 M904.9-48l7.3-1.4l0.3,1.4l-7.3,1.4 M892.1-45.5l7.3-1.4l0.3,1.4l-7.3,1.4 M879.2-43.1l7.3-1.4l0.3,1.4
			l-7.3,1.4 M866.4-40.6l7.3-1.4l0.3,1.4l-7.3,1.4 M853.5-38.1l7.3-1.4l0.3,1.4l-7.3,1.4 M840.7-35.7l7.3-1.4l0.3,1.4l-7.3,1.4
			 M827.8-33.2l7.3-1.4l0.3,1.4l-7.3,1.4 M815-30.7l7.3-1.4l0.3,1.4l-7.3,1.4 M802.1-28.3l7.3-1.4l0.3,1.4l-7.3,1.4 M789.3-25.8
			l7.3-1.4l0.3,1.4l-7.3,1.4 M776.4-23.3l7.3-1.4l0.3,1.4l-7.3,1.4 M763.6-20.8l7.3-1.4l0.3,1.4l-7.3,1.4 M750.7-18.4l7.3-1.4
			l0.3,1.4L751-17 M737.9-15.9l7.3-1.4l0.3,1.4l-7.3,1.4 M725-13.4l7.3-1.4l0.3,1.4l-7.3,1.4 M712.2-11l7.3-1.4l0.3,1.4l-7.3,1.4
			 M699.3-8.5l7.3-1.4l0.3,1.4l-7.3,1.4 M686.5-6l7.3-1.4l0.3,1.4l-7.3,1.4 M673.6-3.6L681-5l0.3,1.4l-7.3,1.4 M660.8-1.1l7.3-1.4
			l0.3,1.4L661,0.3 M647.9,1.4l7.3-1.4l0.3,1.4l-7.3,1.4 M635.1,3.9l7.3-1.4l0.3,1.4l-7.3,1.4 M622.2,6.3l7.3-1.4l0.3,1.4l-7.3,1.4
			 M609.4,8.8l7.3-1.4l0.3,1.4l-7.3,1.4 M596.5,11.3l7.3-1.4l0.3,1.4l-7.3,1.4 M583.7,13.7l7.3-1.4l0.3,1.4l-7.3,1.4 M570.8,16.2
			l7.3-1.4l0.3,1.4l-7.3,1.4 M558,18.7l7.3-1.4l0.3,1.4l-7.3,1.4 M545.1,21.1l7.3-1.4l0.3,1.4l-7.3,1.4 M532.3,23.6l7.3-1.4l0.3,1.4
			l-7.3,1.4 M519.4,26.1l7.3-1.4l0.3,1.4l-7.3,1.4 M506.6,28.6l7.3-1.4l0.3,1.4l-7.3,1.4 M493.7,31l7.3-1.4l0.3,1.4l-7.3,1.4
			 M480.9,33.5l7.3-1.4l0.3,1.4l-7.3,1.4 M468.1,36l7.3-1.4l0.3,1.4l-7.3,1.4 M455.2,38.4l7.3-1.4l0.3,1.4l-7.3,1.4 M442.4,40.9
			l7.3-1.4l0.3,1.4l-7.3,1.4 M429.5,43.4l7.3-1.4l0.3,1.4l-7.3,1.4 M416.7,45.8l7.3-1.4l0.3,1.4l-7.3,1.4 M403.8,48.3l7.3-1.4
			l0.3,1.4l-7.3,1.4 M391,50.8l7.3-1.4l0.3,1.4l-7.3,1.4 M378.1,53.3l7.3-1.4l0.3,1.4l-7.3,1.4 M365.3,55.7l7.3-1.4l0.3,1.4
			l-7.3,1.4 M352.4,58.2l7.3-1.4l0.3,1.4l-7.3,1.4 M339.6,60.7l7.3-1.4l0.3,1.4l-7.3,1.4 M326.7,63.1l7.3-1.4l0.3,1.4l-7.3,1.4
			 M313.9,65.6l7.3-1.4l0.3,1.4l-7.3,1.4 M301,68.1l7.3-1.4l0.3,1.4l-7.3,1.4 M288.2,70.5l7.3-1.4l0.3,1.4l-7.3,1.4 M275.3,73
			l7.3-1.4l0.3,1.4l-7.3,1.4 M262.5,75.5l7.3-1.4l0.3,1.4l-7.3,1.4 M249.6,78l7.3-1.4l0.3,1.4l-7.3,1.4 M236.8,80.4l7.3-1.4l0.3,1.4
			l-7.3,1.4 M223.9,82.9l7.3-1.4l0.3,1.4l-7.3,1.4 M211.1,85.4l7.3-1.4l0.3,1.4l-7.3,1.4 M198.2,87.8l7.3-1.4l0.3,1.4l-7.3,1.4
			 M185.4,90.3l7.3-1.4l0.3,1.4l-7.3,1.4 M172.5,92.8l7.3-1.4l0.3,1.4l-7.3,1.4 M159.7,95.2l7.3-1.4l0.3,1.4l-7.3,1.4 M146.8,97.7
			l7.3-1.4l0.3,1.4l-7.3,1.4 M134,100.2l7.3-1.4l0.3,1.4l-7.3,1.4 M121.1,102.7l7.3-1.4l0.3,1.4l-7.3,1.4 M108.3,105.1l7.3-1.4
			l0.3,1.4l-7.3,1.4 M95.4,107.6l7.3-1.4l0.3,1.4l-7.3,1.4 M82.6,110.1l7.3-1.4l0.3,1.4l-7.3,1.4 M69.7,112.5l7.3-1.4l0.3,1.4
			l-7.3,1.4 M56.9,115l7.3-1.4l0.3,1.4l-7.3,1.4 M44,117.5l7.3-1.4l0.3,1.4l-7.3,1.4 M31.2,119.9l7.3-1.4l0.3,1.4l-7.3,1.4"/>
		<line x1="31.3" y1="120.6" x2="89.7" y2="109.4"/>
		<line class="st9" x1="31.3" y1="120.6" x2="89.7" y2="109.4"/>
	</g>
	<g style="clip-path:url(#SVGID_00000098905211572051382820000003431966302119169202_);">
		<g>
			<g>
				<g>
					<polygon points="100.2,107.4 87.5,115.6 89.7,109.4 85.4,104.4 					"/>
				</g>
			</g>
		</g>
	</g>
	<g style="clip-path:url(#SVGID_00000098905211572051382820000003431966302119169202_);">
		<line x1="148.6" y1="98.1" x2="127.8" y2="96.1"/>
		<line class="st15" x1="148.6" y1="98.1" x2="127.8" y2="96.1"/>
	</g>
	<g style="clip-path:url(#SVGID_00000098905211572051382820000003431966302119169202_);">
		<g>
			<g>
				<g>
					<polygon class="st11" points="120.7,95.4 130.3,92.5 127.8,96.1 129.6,100.1 					"/>
				</g>
			</g>
		</g>
	</g>
	<g style="clip-path:url(#SVGID_00000098905211572051382820000003431966302119169202_);">
		<path class="st0" d="M153.3,98.1c-0.2,6.2-9.2,6.2-9.3,0C144.1,91.9,153.1,91.9,153.3,98.1z"/>
		<path class="st12" d="M153.3,98.1c-0.2,6.2-9.2,6.2-9.3,0C144.1,91.9,153.1,91.9,153.3,98.1z"/>
	</g>
	<g style="clip-path:url(#SVGID_00000098905211572051382820000003431966302119169202_);">
		<g>
			<g>
				<g>
					<polygon class="st11" points="32.3,127.7 27.3,119 31.3,120.6 34.8,117.9 					"/>
				</g>
			</g>
		</g>
	</g>
	<g style="clip-path:url(#SVGID_00000098905211572051382820000003431966302119169202_);">
		<path class="st0" d="M36,120.6c-0.2,6.2-9.2,6.2-9.3,0C26.8,114.5,35.8,114.5,36,120.6z"/>
		<path class="st12" d="M36,120.6c-0.2,6.2-9.2,6.2-9.3,0C26.8,114.5,35.8,114.5,36,120.6z"/>
	</g>
	<g style="clip-path:url(#SVGID_00000098905211572051382820000003431966302119169202_);">
		<g>
			<g>
				<g>
					<polygon class="st11" points="32.3,127.7 27.3,119 31.3,120.6 34.8,117.9 					"/>
				</g>
			</g>
		</g>
	</g>
	<g style="clip-path:url(#SVGID_00000098905211572051382820000003431966302119169202_);">
		<path class="st0" d="M36,120.6c-0.2,6.2-9.2,6.2-9.3,0C26.8,114.5,35.8,114.5,36,120.6z"/>
		<path class="st12" d="M36,120.6c-0.2,6.2-9.2,6.2-9.3,0C26.8,114.5,35.8,114.5,36,120.6z"/>
	</g>
	<g style="clip-path:url(#SVGID_00000098905211572051382820000003431966302119169202_);">
		<g>
			<g>
				<g>
					<polygon class="st11" points="32.3,127.7 27.3,119 31.3,120.6 34.8,117.9 					"/>
				</g>
			</g>
		</g>
	</g>
	<g style="clip-path:url(#SVGID_00000098905211572051382820000003431966302119169202_);">
		<path class="st0" d="M36,120.6c-0.2,6.2-9.2,6.2-9.3,0C26.8,114.5,35.8,114.5,36,120.6z"/>
		<path class="st12" d="M36,120.6c-0.2,6.2-9.2,6.2-9.3,0C26.8,114.5,35.8,114.5,36,120.6z"/>
	</g>
	<g style="clip-path:url(#SVGID_00000098905211572051382820000003431966302119169202_);">
		<g>
			<g>
				<g>
					<polygon class="st11" points="32.3,127.7 27.3,119 31.3,120.6 34.8,117.9 					"/>
				</g>
			</g>
		</g>
	</g>
	<g style="clip-path:url(#SVGID_00000098905211572051382820000003431966302119169202_);">
		<path class="st0" d="M36,120.6c-0.2,6.2-9.2,6.2-9.3,0C26.8,114.5,35.8,114.5,36,120.6z"/>
		<path class="st12" d="M36,120.6c-0.2,6.2-9.2,6.2-9.3,0C26.8,114.5,35.8,114.5,36,120.6z"/>
		<line class="st15" x1="244" y1="79.8" x2="223" y2="79.8"/>
	</g>
	<g style="clip-path:url(#SVGID_00000098905211572051382820000003431966302119169202_);">
		<g>
			<g>
				<g>
					<polygon class="st11" points="216,79.8 225.2,76 223,79.8 225.2,83.5 					"/>
				</g>
			</g>
		</g>
	</g>
	<g style="clip-path:url(#SVGID_00000098905211572051382820000003431966302119169202_);">
		<path class="st0" d="M248.7,79.8c-0.2,6.2-9.2,6.2-9.3,0C239.5,73.6,248.5,73.6,248.7,79.8z"/>
		<path class="st12" d="M248.7,79.8c-0.2,6.2-9.2,6.2-9.3,0C239.5,73.6,248.5,73.6,248.7,79.8z"/>
		<path d="M36,120.6c-0.2,6.2-9.2,6.2-9.3,0C26.8,114.5,35.8,114.5,36,120.6z"/>
		<path d="M994,397.4l7.3,1.5l-0.3,1.4l-7.3-1.5 M981.2,394.8l7.3,1.5l-0.3,1.4l-7.3-1.5 M968.3,392.3l7.3,1.5l-0.3,1.4l-7.3-1.5
			 M955.5,389.7l7.3,1.5l-0.3,1.4l-7.3-1.5 M942.7,387.2l7.3,1.5l-0.3,1.4l-7.3-1.5 M929.8,384.6l7.3,1.5l-0.3,1.4l-7.3-1.5
			 M917,382.1l7.3,1.5l-0.3,1.4l-7.3-1.5 M904.2,379.5l7.3,1.5l-0.3,1.4l-7.3-1.5 M891.3,377l7.3,1.5l-0.3,1.4l-7.3-1.5
			 M878.5,374.5l7.3,1.5l-0.3,1.4l-7.3-1.5 M865.7,371.9l7.3,1.5l-0.3,1.4l-7.3-1.5 M852.8,369.4l7.3,1.5l-0.3,1.4l-7.3-1.5
			 M840,366.8l7.3,1.5l-0.3,1.4l-7.3-1.5 M827.2,364.3l7.3,1.5l-0.3,1.4l-7.3-1.5 M814.3,361.7l7.3,1.5l-0.3,1.4l-7.3-1.5
			 M801.5,359.2l7.3,1.5l-0.3,1.4l-7.3-1.5 M788.7,356.6l7.3,1.5l-0.3,1.4l-7.3-1.5 M775.8,354.1l7.3,1.5l-0.3,1.4l-7.3-1.5
			 M763,351.5l7.3,1.5l-0.3,1.4l-7.3-1.5 M750.2,349l7.3,1.5l-0.3,1.4l-7.3-1.5 M737.3,346.4l7.3,1.5l-0.3,1.4l-7.3-1.5
			 M724.5,343.9l7.3,1.5l-0.3,1.4l-7.3-1.5 M711.7,341.4l7.3,1.5l-0.3,1.4l-7.3-1.5 M698.8,338.8l7.3,1.5l-0.3,1.4l-7.3-1.5
			 M686,336.3l7.3,1.5l-0.3,1.4l-7.3-1.5 M673.2,333.7l7.3,1.5l-0.3,1.4l-7.3-1.5 M660.3,331.2l7.3,1.5l-0.3,1.4l-7.3-1.5
			 M647.5,328.6l7.3,1.5l-0.3,1.4l-7.3-1.5 M634.7,326.1l7.3,1.5l-0.3,1.4l-7.3-1.5 M621.8,323.5l7.3,1.5l-0.3,1.4l-7.3-1.5
			 M609,321l7.3,1.5l-0.3,1.4l-7.3-1.5 M596.2,318.4l7.3,1.5l-0.3,1.4l-7.3-1.5 M583.3,315.9l7.3,1.5l-0.3,1.4l-7.3-1.5
			 M570.5,313.3l7.3,1.5l-0.3,1.4l-7.3-1.5 M557.7,310.8l7.3,1.5l-0.3,1.4l-7.3-1.5 M544.8,308.3l7.3,1.5l-0.3,1.4l-7.3-1.5
			 M532,305.7l7.3,1.5l-0.3,1.4l-7.3-1.5 M519.1,303.2l7.3,1.5l-0.3,1.4l-7.3-1.5 M506.3,300.6l7.3,1.5l-0.3,1.4L506,302
			 M493.5,298.1l7.3,1.5l-0.3,1.4l-7.3-1.5 M480.6,295.5l7.3,1.5l-0.3,1.4l-7.3-1.5 M467.8,293l7.3,1.5l-0.3,1.4l-7.3-1.5
			 M455,290.4l7.3,1.5l-0.3,1.4l-7.3-1.5 M442.1,287.9l7.3,1.5l-0.3,1.4l-7.3-1.5 M429.3,285.3l7.3,1.5l-0.3,1.4l-7.3-1.5
			 M416.5,282.8l7.3,1.5l-0.3,1.4l-7.3-1.5 M403.6,280.2l7.3,1.5l-0.3,1.4l-7.3-1.5 M390.8,277.7l7.3,1.5l-0.3,1.4l-7.3-1.5
			 M378,275.2l7.3,1.5L385,278l-7.3-1.5 M365.1,272.6l7.3,1.5l-0.3,1.4l-7.3-1.5 M352.3,270.1l7.3,1.5l-0.3,1.4l-7.3-1.5
			 M339.5,267.5l7.3,1.5l-0.3,1.4l-7.3-1.5 M326.6,265l7.3,1.5l-0.3,1.4l-7.3-1.5 M313.8,262.4l7.3,1.5l-0.3,1.4l-7.3-1.5
			 M301,259.9l7.3,1.5l-0.3,1.4l-7.3-1.5 M288.1,257.3l7.3,1.5l-0.3,1.4l-7.3-1.5 M275.3,254.8l7.3,1.5l-0.3,1.4l-7.3-1.5
			 M262.5,252.2l7.3,1.5l-0.3,1.4l-7.3-1.5 M249.6,249.7l7.3,1.5l-0.3,1.4l-7.3-1.5 M236.8,247.1l7.3,1.5l-0.3,1.4l-7.3-1.5
			 M224,244.6l7.3,1.5l-0.3,1.4l-7.3-1.5 M211.1,242.1l7.3,1.5l-0.3,1.4l-7.3-1.5 M198.3,239.5l7.3,1.5l-0.3,1.4l-7.3-1.5
			 M185.5,237l7.3,1.5l-0.3,1.4l-7.3-1.5 M172.6,234.4l7.3,1.5l-0.3,1.4l-7.3-1.5 M159.8,231.9l7.3,1.5l-0.3,1.4l-7.3-1.5
			 M147,229.3l7.3,1.5l-0.3,1.4l-7.3-1.5 M134.1,226.8l7.3,1.5l-0.3,1.4l-7.3-1.5 M121.3,224.2l7.3,1.5l-0.3,1.4l-7.3-1.5
			 M108.5,221.7l7.3,1.5l-0.3,1.4l-7.3-1.5 M95.6,219.1l7.3,1.5l-0.3,1.4l-7.3-1.5 M82.8,216.6l7.3,1.5l-0.3,1.4l-7.3-1.5 M70,214
			l7.3,1.5l-0.3,1.4l-7.3-1.5 M57.1,211.5l7.3,1.5l-0.3,1.4l-7.3-1.5 M44.3,209l7.3,1.5l-0.3,1.4l-7.3-1.5 M31.5,206.4l7.3,1.5
			l-0.3,1.4l-7.3-1.5"/>
		<line x1="31.3" y1="207.1" x2="89.6" y2="218.7"/>
		<line class="st9" x1="31.3" y1="207.1" x2="89.6" y2="218.7"/>
	</g>
	<g style="clip-path:url(#SVGID_00000098905211572051382820000003431966302119169202_);">
		<g>
			<g>
				<g>
					<polygon points="100.1,220.7 85.3,223.6 89.6,218.7 87.5,212.4 					"/>
				</g>
			</g>
		</g>
	</g>
	<g style="clip-path:url(#SVGID_00000098905211572051382820000003431966302119169202_);">
		<line x1="525.4" y1="305.1" x2="504.6" y2="307.1"/>
		<line class="st15" x1="525.4" y1="305.1" x2="504.6" y2="307.1"/>
	</g>
	<g style="clip-path:url(#SVGID_00000098905211572051382820000003431966302119169202_);">
		<g>
			<g>
				<g>
					<polygon class="st11" points="497.5,307.8 506.4,303.2 504.6,307.1 507.1,310.7 					"/>
				</g>
			</g>
		</g>
	</g>
	<g style="clip-path:url(#SVGID_00000098905211572051382820000003431966302119169202_);">
		<path class="st0" d="M530.1,305.1c-0.2,6.2-9.2,6.2-9.3,0C520.9,299,530,299,530.1,305.1z"/>
		<path class="st12" d="M530.1,305.1c-0.2,6.2-9.2,6.2-9.3,0C520.9,299,530,299,530.1,305.1z"/>
		<line x1="728.9" y1="345.5" x2="708.1" y2="343.7"/>
		<line class="st15" x1="728.9" y1="345.5" x2="708.1" y2="343.7"/>
	</g>
	<g style="clip-path:url(#SVGID_00000098905211572051382820000003431966302119169202_);">
		<g>
			<g>
				<g>
					<polygon class="st11" points="701,343.1 710.6,340.1 708.1,343.7 709.9,347.7 					"/>
				</g>
			</g>
		</g>
	</g>
	<g style="clip-path:url(#SVGID_00000098905211572051382820000003431966302119169202_);">
		<path class="st0" d="M733.6,345.5c-0.2,6.2-9.2,6.2-9.3,0C724.4,339.3,733.5,339.3,733.6,345.5z"/>
		<path class="st12" d="M733.6,345.5c-0.2,6.2-9.2,6.2-9.3,0C724.4,339.3,733.5,339.3,733.6,345.5z"/>
	</g>
	<g style="clip-path:url(#SVGID_00000098905211572051382820000003431966302119169202_);">
		<g>
			<g>
				<g>
					<polygon class="st11" points="31.8,214.2 27.4,205.1 31.3,207.1 35,204.7 					"/>
				</g>
			</g>
		</g>
	</g>
	<g style="clip-path:url(#SVGID_00000098905211572051382820000003431966302119169202_);">
		<path class="st0" d="M36,207.1c-0.2,6.2-9.2,6.2-9.3,0C26.8,200.9,35.8,200.9,36,207.1z"/>
		<path class="st12" d="M36,207.1c-0.2,6.2-9.2,6.2-9.3,0C26.8,200.9,35.8,200.9,36,207.1z"/>
	</g>
	<g style="clip-path:url(#SVGID_00000098905211572051382820000003431966302119169202_);">
		<g>
			<g>
				<g>
					<polygon class="st11" points="31.8,214.2 27.4,205.1 31.3,207.1 35,204.7 					"/>
				</g>
			</g>
		</g>
	</g>
	<g style="clip-path:url(#SVGID_00000098905211572051382820000003431966302119169202_);">
		<path class="st0" d="M36,207.1c-0.2,6.2-9.2,6.2-9.3,0C26.8,200.9,35.8,200.9,36,207.1z"/>
		<path class="st12" d="M36,207.1c-0.2,6.2-9.2,6.2-9.3,0C26.8,200.9,35.8,200.9,36,207.1z"/>
		<line x1="136.1" y1="227.9" x2="115.3" y2="225.9"/>
		<line class="st15" x1="136.1" y1="227.9" x2="115.3" y2="225.9"/>
	</g>
	<g style="clip-path:url(#SVGID_00000098905211572051382820000003431966302119169202_);">
		<g>
			<g>
				<g>
					<polygon class="st11" points="108.2,225.2 117.8,222.3 115.3,225.9 117.1,229.9 					"/>
				</g>
			</g>
		</g>
	</g>
	<g style="clip-path:url(#SVGID_00000098905211572051382820000003431966302119169202_);">
		<path class="st0" d="M140.8,227.9c-0.2,6.2-9.2,6.2-9.3,0C131.6,221.7,140.6,221.7,140.8,227.9z"/>
		<path class="st12" d="M140.8,227.9c-0.2,6.2-9.2,6.2-9.3,0C131.6,221.7,140.6,221.7,140.8,227.9z"/>
		<line x1="684" y1="336.6" x2="674.9" y2="317.7"/>
		<line class="st15" x1="684" y1="336.6" x2="674.9" y2="317.7"/>
	</g>
	<g style="clip-path:url(#SVGID_00000098905211572051382820000003431966302119169202_);">
		<g>
			<g>
				<g>
					<polygon class="st11" points="671.9,311.4 679.3,318.1 674.9,317.7 672.5,321.4 					"/>
				</g>
			</g>
		</g>
	</g>
	<g style="clip-path:url(#SVGID_00000098905211572051382820000003431966302119169202_);">
		<path class="st0" d="M688.7,336.6c-0.2,6.2-9.2,6.2-9.3,0C679.5,330.4,688.6,330.4,688.7,336.6z"/>
		<path class="st12" d="M688.7,336.6c-0.2,6.2-9.2,6.2-9.3,0C679.5,330.4,688.6,330.4,688.7,336.6z"/>
	</g>
	<g style="clip-path:url(#SVGID_00000098905211572051382820000003431966302119169202_);">
		<g>
			<g>
				<g>
					<polygon class="st11" points="31.8,214.2 27.4,205.1 31.3,207.1 35,204.7 					"/>
				</g>
			</g>
		</g>
	</g>
	<g style="clip-path:url(#SVGID_00000098905211572051382820000003431966302119169202_);">
		<path class="st0" d="M36,207.1c-0.2,6.2-9.2,6.2-9.3,0C26.8,200.9,35.8,200.9,36,207.1z"/>
		<path class="st12" d="M36,207.1c-0.2,6.2-9.2,6.2-9.3,0C26.8,200.9,35.8,200.9,36,207.1z"/>
		<path d="M36,207.1c-0.2,6.2-9.2,6.2-9.3,0C26.8,200.9,35.8,200.9,36,207.1z"/>
		<path d="M981.7,345.2l7.2,1.9l-0.4,1.4l-7.2-1.9 M969,341.9l7.2,1.9l-0.4,1.4l-7.2-1.9 M956.4,338.6l7.2,1.9l-0.4,1.4L956,340
			 M943.7,335.4l7.2,1.9l-0.4,1.4l-7.2-1.9 M931,332.1l7.2,1.9l-0.4,1.4l-7.2-1.9 M918.4,328.8l7.2,1.9l-0.4,1.4l-7.2-1.9
			 M905.7,325.6l7.2,1.9l-0.4,1.4l-7.2-1.9 M893,322.3l7.2,1.9l-0.4,1.4l-7.2-1.9 M880.4,319l7.2,1.9l-0.4,1.4l-7.2-1.9
			 M867.7,315.8l7.2,1.9l-0.4,1.4l-7.2-1.9 M855,312.5l7.2,1.9l-0.4,1.4l-7.2-1.9 M842.4,309.3l7.2,1.9l-0.4,1.4l-7.2-1.9
			 M829.7,306l7.2,1.9l-0.4,1.4l-7.2-1.9 M817,302.7l7.2,1.9l-0.4,1.4l-7.2-1.9 M804.3,299.5l7.2,1.9l-0.4,1.4l-7.2-1.9
			 M791.7,296.2l7.2,1.9l-0.4,1.4l-7.2-1.9 M779,292.9l7.2,1.9l-0.4,1.4l-7.2-1.9 M766.3,289.7l7.2,1.9l-0.4,1.4L766,291
			 M753.7,286.4l7.2,1.9l-0.4,1.4l-7.2-1.9 M741,283.1l7.2,1.9l-0.4,1.4l-7.2-1.9 M728.3,279.9l7.2,1.9l-0.4,1.4l-7.2-1.9
			 M715.7,276.6l7.2,1.9l-0.4,1.4l-7.2-1.9 M703,273.3l7.2,1.9l-0.4,1.4l-7.2-1.9 M690.3,270.1l7.2,1.9l-0.4,1.4l-7.2-1.9
			 M677.6,266.8l7.2,1.9l-0.4,1.4l-7.2-1.9 M665,263.5l7.2,1.9l-0.4,1.4l-7.2-1.9 M652.3,260.3l7.2,1.9l-0.4,1.4l-7.2-1.9
			 M639.6,257l7.2,1.9l-0.4,1.4l-7.2-1.9 M627,253.7l7.2,1.9l-0.4,1.4l-7.2-1.9 M614.3,250.5l7.2,1.9l-0.4,1.4l-7.2-1.9
			 M601.6,247.2l7.2,1.9l-0.4,1.4l-7.2-1.9 M589,243.9l7.2,1.9l-0.4,1.4l-7.2-1.9 M576.3,240.7l7.2,1.9l-0.4,1.4l-7.2-1.9
			 M563.6,237.4l7.2,1.9l-0.4,1.4l-7.2-1.9 M551,234.1l7.2,1.9l-0.4,1.4l-7.2-1.9 M538.3,230.9l7.2,1.9l-0.4,1.4l-7.2-1.9
			 M525.6,227.6l7.2,1.9l-0.4,1.4l-7.2-1.9 M512.9,224.3l7.2,1.9l-0.4,1.4l-7.2-1.9 M500.3,221.1l7.2,1.9l-0.4,1.4l-7.2-1.9
			 M487.6,217.8l7.2,1.9l-0.4,1.4l-7.2-1.9 M474.9,214.5l7.2,1.9l-0.4,1.4l-7.2-1.9 M462.3,211.3l7.2,1.9l-0.4,1.4l-7.2-1.9
			 M449.6,208l7.2,1.9l-0.4,1.4l-7.2-1.9 M436.9,204.7l7.2,1.9l-0.4,1.4l-7.2-1.9 M424.3,201.5l7.2,1.9l-0.4,1.4l-7.2-1.9
			 M411.6,198.2l7.2,1.9l-0.4,1.4l-7.2-1.9 M398.9,194.9l7.2,1.9l-0.4,1.4l-7.2-1.9 M386.3,191.7l7.2,1.9l-0.4,1.4l-7.2-1.9
			 M373.6,188.4l7.2,1.9l-0.4,1.4l-7.2-1.9 M360.9,185.1l7.2,1.9l-0.4,1.4l-7.2-1.9 M348.2,181.9l7.2,1.9l-0.4,1.4l-7.2-1.9
			 M335.6,178.6l7.2,1.9l-0.4,1.4l-7.2-1.9 M322.9,175.3l7.2,1.9l-0.4,1.4l-7.2-1.9 M310.2,172.1l7.2,1.9l-0.4,1.4l-7.2-1.9
			 M297.6,168.8l7.2,1.9l-0.4,1.4l-7.2-1.9 M284.9,165.5l7.2,1.9l-0.4,1.4l-7.2-1.9 M272.2,162.3l7.2,1.9l-0.4,1.4l-7.2-1.9
			 M259.6,159l7.2,1.9l-0.4,1.4l-7.2-1.9 M246.9,155.7l7.2,1.9l-0.4,1.4l-7.2-1.9 M234.2,152.5l7.2,1.9l-0.4,1.4l-7.2-1.9
			 M221.5,149.2l7.2,1.9l-0.4,1.4l-7.2-1.9 M208.9,145.9l7.2,1.9l-0.4,1.4l-7.2-1.9 M196.2,142.7l7.2,1.9l-0.4,1.4l-7.2-1.9
			 M183.5,139.4l7.2,1.9l-0.4,1.4l-7.2-1.9 M170.9,136.1l7.2,1.9l-0.4,1.4l-7.2-1.9 M158.2,132.9l7.2,1.9l-0.4,1.4l-7.2-1.9
			 M145.5,129.6l7.2,1.9l-0.4,1.4l-7.2-1.9 M132.9,126.3l7.2,1.9l-0.4,1.4l-7.2-1.9 M120.2,123.1l7.2,1.9l-0.4,1.4l-7.2-1.9
			 M107.5,119.8l7.2,1.9l-0.4,1.4l-7.2-1.9 M94.9,116.5l7.2,1.9l-0.4,1.4l-7.2-1.9 M82.2,113.3l7.2,1.9l-0.4,1.4l-7.2-1.9 M69.5,110
			l7.2,1.9l-0.4,1.4l-7.2-1.9 M56.8,106.7l7.2,1.9l-0.4,1.4l-7.2-1.9 M44.2,103.5l7.2,1.9l-0.4,1.4l-7.2-1.9 M31.5,100.2l7.2,1.9
			l-0.4,1.4l-7.2-1.9"/>
		<line x1="31.3" y1="100.9" x2="88.9" y2="115.7"/>
		<line class="st9" x1="31.3" y1="100.9" x2="88.9" y2="115.7"/>
	</g>
	<g style="clip-path:url(#SVGID_00000098905211572051382820000003431966302119169202_);">
		<g>
			<g>
				<g>
					<polygon points="99.2,118.4 84.3,120.4 88.9,115.7 87.1,109.4 					"/>
				</g>
			</g>
		</g>
	</g>
	<g style="clip-path:url(#SVGID_00000098905211572051382820000003431966302119169202_);">
		<g>
			<g>
				<g>
					<polygon class="st11" points="32.7,107.8 27.2,99.5 31.3,100.9 34.6,98 					"/>
				</g>
			</g>
		</g>
	</g>
	<g style="clip-path:url(#SVGID_00000098905211572051382820000003431966302119169202_);">
		<path class="st0" d="M36,100.9c-0.2,6.2-9.2,6.2-9.3,0C26.8,94.7,35.8,94.7,36,100.9z"/>
		<path class="st12" d="M36,100.9c-0.2,6.2-9.2,6.2-9.3,0C26.8,94.7,35.8,94.7,36,100.9z"/>
		<line class="st15" x1="399.7" y1="195.9" x2="378.8" y2="195.9"/>
	</g>
	<g style="clip-path:url(#SVGID_00000098905211572051382820000003431966302119169202_);">
		<g>
			<g>
				<g>
					<polygon class="st11" points="371.7,195.9 381,192.1 378.8,195.9 381,199.7 					"/>
				</g>
			</g>
		</g>
	</g>
	<g style="clip-path:url(#SVGID_00000098905211572051382820000003431966302119169202_);">
		<path class="st0" d="M404.4,195.9c-0.2,6.2-9.2,6.2-9.3,0C395.2,189.7,404.3,189.7,404.4,195.9z"/>
		<path class="st12" d="M404.4,195.9c-0.2,6.2-9.2,6.2-9.3,0C395.2,189.7,404.3,189.7,404.4,195.9z"/>
		<line x1="145.5" y1="130.3" x2="124.6" y2="128.3"/>
		<line class="st15" x1="145.5" y1="130.3" x2="124.6" y2="128.3"/>
	</g>
	<g style="clip-path:url(#SVGID_00000098905211572051382820000003431966302119169202_);">
		<g>
			<g>
				<g>
					<polygon class="st11" points="117.6,127.6 127.2,124.8 124.6,128.3 126.5,132.3 					"/>
				</g>
			</g>
		</g>
	</g>
	<g style="clip-path:url(#SVGID_00000098905211572051382820000003431966302119169202_);">
		<path class="st0" d="M150.2,130.3c-0.2,6.2-9.2,6.2-9.3,0C141,124.2,150,124.2,150.2,130.3z"/>
		<path class="st12" d="M150.2,130.3c-0.2,6.2-9.2,6.2-9.3,0C141,124.2,150,124.2,150.2,130.3z"/>
	</g>
	<g style="clip-path:url(#SVGID_00000098905211572051382820000003431966302119169202_);">
		<g>
			<g>
				<g>
					<polygon class="st11" points="32.7,107.8 27.2,99.5 31.3,100.9 34.6,98 					"/>
				</g>
			</g>
		</g>
	</g>
	<g style="clip-path:url(#SVGID_00000098905211572051382820000003431966302119169202_);">
		<path class="st0" d="M36,100.9c-0.2,6.2-9.2,6.2-9.3,0C26.8,94.7,35.8,94.7,36,100.9z"/>
		<path class="st12" d="M36,100.9c-0.2,6.2-9.2,6.2-9.3,0C26.8,94.7,35.8,94.7,36,100.9z"/>
		<line x1="517.8" y1="226.3" x2="497" y2="228.3"/>
		<line class="st15" x1="517.8" y1="226.3" x2="497" y2="228.3"/>
	</g>
	<g style="clip-path:url(#SVGID_00000098905211572051382820000003431966302119169202_);">
		<g>
			<g>
				<g>
					<polygon class="st11" points="489.9,229 498.8,224.3 497,228.3 499.5,231.9 					"/>
				</g>
			</g>
		</g>
	</g>
	<g style="clip-path:url(#SVGID_00000098905211572051382820000003431966302119169202_);">
		<path class="st0" d="M522.5,226.3c-0.2,6.2-9.2,6.2-9.3,0C513.3,220.1,522.3,220.1,522.5,226.3z"/>
		<path class="st12" d="M522.5,226.3c-0.2,6.2-9.2,6.2-9.3,0C513.3,220.1,522.3,220.1,522.5,226.3z"/>
		<line x1="672.6" y1="266.2" x2="657.2" y2="252.1"/>
		<line class="st15" x1="672.6" y1="266.2" x2="657.2" y2="252.1"/>
	</g>
	<g style="clip-path:url(#SVGID_00000098905211572051382820000003431966302119169202_);">
		<g>
			<g>
				<g>
					<polygon class="st11" points="651.9,247.3 661.3,250.8 657.2,252.1 656.2,256.4 					"/>
				</g>
			</g>
		</g>
	</g>
	<g style="clip-path:url(#SVGID_00000098905211572051382820000003431966302119169202_);">
		<path class="st0" d="M677.3,266.2c-0.2,6.2-9.2,6.2-9.3,0C668.1,260.1,677.2,260.1,677.3,266.2z"/>
		<path class="st12" d="M677.3,266.2c-0.2,6.2-9.2,6.2-9.3,0C668.1,260.1,677.2,260.1,677.3,266.2z"/>
		<line x1="734.4" y1="282.1" x2="713.5" y2="280.3"/>
		<line class="st15" x1="734.4" y1="282.1" x2="713.5" y2="280.3"/>
	</g>
	<g style="clip-path:url(#SVGID_00000098905211572051382820000003431966302119169202_);">
		<g>
			<g>
				<g>
					<polygon class="st11" points="706.4,279.7 716,276.8 713.5,280.3 715.4,284.3 					"/>
				</g>
			</g>
		</g>
	</g>
	<g style="clip-path:url(#SVGID_00000098905211572051382820000003431966302119169202_);">
		<path class="st0" d="M739,282.1c-0.2,6.2-9.2,6.2-9.3,0C729.9,276,738.9,276,739,282.1z"/>
		<path class="st12" d="M739,282.1c-0.2,6.2-9.2,6.2-9.3,0C729.9,276,738.9,276,739,282.1z"/>
	</g>
	<g style="clip-path:url(#SVGID_00000098905211572051382820000003431966302119169202_);">
		<g>
			<g>
				<g>
					<polygon class="st11" points="32.7,107.8 27.2,99.5 31.3,100.9 34.6,98 					"/>
				</g>
			</g>
		</g>
	</g>
	<g style="clip-path:url(#SVGID_00000098905211572051382820000003431966302119169202_);">
		<path class="st0" d="M36,100.9c-0.2,6.2-9.2,6.2-9.3,0C26.8,94.7,35.8,94.7,36,100.9z"/>
		<path class="st12" d="M36,100.9c-0.2,6.2-9.2,6.2-9.3,0C26.8,94.7,35.8,94.7,36,100.9z"/>
		<path d="M36,100.9c-0.2,6.2-9.2,6.2-9.3,0C26.8,94.7,35.8,94.7,36,100.9z"/>
		<path d="M944.6,734.1l7,2.7l-0.5,1.3l-7-2.7 M932.4,729.3l7,2.7l-0.5,1.3l-7-2.7 M920.3,724.5l7,2.7l-0.5,1.3l-7-2.7 M908.1,719.7
			l7,2.7l-0.5,1.3l-7-2.7 M895.9,714.9l7,2.7l-0.5,1.3l-7-2.7 M883.7,710.1l7,2.7l-0.5,1.3l-7-2.7 M871.6,705.3l7,2.7l-0.5,1.3
			l-7-2.7 M859.4,700.5l7,2.7l-0.5,1.3l-7-2.7 M847.2,695.7l7,2.7l-0.5,1.3l-7-2.7 M835,690.9l7,2.7l-0.5,1.3l-7-2.7 M822.9,686.1
			l7,2.7l-0.5,1.3l-7-2.7 M810.7,681.3l7,2.7l-0.5,1.3l-7-2.7 M798.5,676.5l7,2.7l-0.5,1.3l-7-2.7 M786.3,671.7l7,2.7l-0.5,1.3
			l-7-2.7 M774.2,666.9l7,2.7l-0.5,1.3l-7-2.7 M762,662.2l7,2.7l-0.5,1.3l-7-2.7 M749.8,657.4l7,2.7l-0.5,1.3l-7-2.7 M737.6,652.6
			l7,2.7l-0.5,1.3l-7-2.7 M725.5,647.8l7,2.7l-0.5,1.3l-7-2.7 M713.3,643l7,2.7l-0.5,1.3l-7-2.7 M701.1,638.2l7,2.7l-0.5,1.3l-7-2.7
			 M689,633.4l7,2.7l-0.5,1.3l-7-2.7 M676.8,628.6l7,2.7l-0.5,1.3l-7-2.7 M664.6,623.8l7,2.7l-0.5,1.3l-7-2.7 M652.4,619l7,2.7
			l-0.5,1.3l-7-2.7 M640.3,614.2l7,2.7l-0.5,1.3l-7-2.7 M628.1,609.4l7,2.7l-0.5,1.3l-7-2.7 M615.9,604.6l7,2.7l-0.5,1.3l-7-2.7
			 M603.7,599.8l7,2.7l-0.5,1.3l-7-2.7 M591.6,595l7,2.7l-0.5,1.3l-7-2.7 M579.4,590.2l7,2.7l-0.5,1.3l-7-2.7 M567.2,585.5l7,2.7
			l-0.5,1.3l-7-2.7 M555,580.7l7,2.7l-0.5,1.3l-7-2.7 M542.9,575.9l7,2.7l-0.5,1.3l-7-2.7 M530.7,571.1l7,2.7l-0.5,1.3l-7-2.7
			 M518.5,566.3l7,2.7l-0.5,1.3l-7-2.7 M506.4,561.5l7,2.7l-0.5,1.3l-7-2.7 M494.2,556.7l7,2.7l-0.5,1.3l-7-2.7 M482,551.9l7,2.7
			l-0.5,1.3l-7-2.7 M469.8,547.1l7,2.7l-0.5,1.3l-7-2.7 M457.7,542.3l7,2.7l-0.5,1.3l-7-2.7 M445.5,537.5l7,2.7l-0.5,1.3l-7-2.7
			 M433.3,532.7l7,2.7l-0.5,1.3l-7-2.7 M421.1,527.9l7,2.7l-0.5,1.3l-7-2.7 M409,523.1l7,2.7l-0.5,1.3l-7-2.7 M396.8,518.3l7,2.7
			l-0.5,1.3l-7-2.7 M384.6,513.5l7,2.7l-0.5,1.3l-7-2.7 M372.4,508.7l7,2.7l-0.5,1.3l-7-2.7 M360.3,504l7,2.7l-0.5,1.3l-7-2.7
			 M348.1,499.2l7,2.7l-0.5,1.3l-7-2.7 M335.9,494.4l7,2.7l-0.5,1.3l-7-2.7 M323.8,489.6l7,2.7l-0.5,1.3l-7-2.7 M311.6,484.8l7,2.7
			l-0.5,1.3l-7-2.7 M299.4,480l7,2.7l-0.5,1.3l-7-2.7 M287.2,475.2l7,2.7l-0.5,1.3l-7-2.7 M275.1,470.4l7,2.7l-0.5,1.3l-7-2.7
			 M262.9,465.6l7,2.7l-0.5,1.3l-7-2.7 M250.7,460.8l7,2.7l-0.5,1.3l-7-2.7 M238.5,456l7,2.7l-0.5,1.3l-7-2.7 M226.4,451.2l7,2.7
			l-0.5,1.3l-7-2.7 M214.2,446.4l7,2.7l-0.5,1.3l-7-2.7 M202,441.6l7,2.7l-0.5,1.3l-7-2.7 M189.8,436.8l7,2.7l-0.5,1.3l-7-2.7
			 M177.7,432l7,2.7l-0.5,1.3l-7-2.7 M165.5,427.3l7,2.7l-0.5,1.3l-7-2.7 M153.3,422.5l7,2.7l-0.5,1.3l-7-2.7 M141.1,417.7l7,2.7
			l-0.5,1.3l-7-2.7 M129,412.9l7,2.7l-0.5,1.3l-7-2.7 M116.8,408.1l7,2.7l-0.5,1.3l-7-2.7 M104.6,403.3l7,2.7l-0.5,1.3l-7-2.7
			 M92.5,398.5l7,2.7l-0.5,1.3l-7-2.7 M80.3,393.7l7,2.7l-0.5,1.3l-7-2.7 M68.1,388.9l7,2.7l-0.5,1.3l-7-2.7 M55.9,384.1l7,2.7
			l-0.5,1.3l-7-2.7 M43.8,379.3l7,2.7l-0.5,1.3l-7-2.7 M31.6,374.5l7,2.7l-0.5,1.3l-7-2.7"/>
		<line x1="31.3" y1="375.2" x2="86.6" y2="397"/>
		<line class="st9" x1="31.3" y1="375.2" x2="86.6" y2="397"/>
	</g>
	<g style="clip-path:url(#SVGID_00000098905211572051382820000003431966302119169202_);">
		<g>
			<g>
				<g>
					<polygon points="96.5,400.9 81.5,401 86.6,397 85.7,390.4 					"/>
				</g>
			</g>
		</g>
	</g>
	<g style="clip-path:url(#SVGID_00000098905211572051382820000003431966302119169202_);">
		<line x1="118.6" y1="409.5" x2="97.8" y2="407.5"/>
		<line class="st15" x1="118.6" y1="409.5" x2="97.8" y2="407.5"/>
	</g>
	<g style="clip-path:url(#SVGID_00000098905211572051382820000003431966302119169202_);">
		<g>
			<g>
				<g>
					<polygon class="st11" points="90.7,406.9 100.3,404 97.8,407.5 99.6,411.5 					"/>
				</g>
			</g>
		</g>
	</g>
	<g style="clip-path:url(#SVGID_00000098905211572051382820000003431966302119169202_);">
		<path class="st0" d="M123.3,409.5c-0.2,6.2-9.2,6.2-9.3,0C114.1,403.4,123.1,403.4,123.3,409.5z"/>
		<path class="st12" d="M123.3,409.5c-0.2,6.2-9.2,6.2-9.3,0C114.1,403.4,123.1,403.4,123.3,409.5z"/>
		<line x1="170.5" y1="430" x2="149.6" y2="428.4"/>
		<line class="st15" x1="170.5" y1="430" x2="149.6" y2="428.4"/>
	</g>
	<g style="clip-path:url(#SVGID_00000098905211572051382820000003431966302119169202_);">
		<g>
			<g>
				<g>
					<polygon class="st11" points="142.5,427.9 152.1,424.8 149.6,428.4 151.5,432.4 					"/>
				</g>
			</g>
		</g>
	</g>
	<g style="clip-path:url(#SVGID_00000098905211572051382820000003431966302119169202_);">
		<path class="st0" d="M175.1,430c-0.2,6.2-9.2,6.2-9.3,0C166,423.8,175,423.8,175.1,430z"/>
		<path class="st12" d="M175.1,430c-0.2,6.2-9.2,6.2-9.3,0C166,423.8,175,423.8,175.1,430z"/>
		<line x1="638" y1="614.1" x2="619" y2="605.3"/>
		<line class="st15" x1="638" y1="614.1" x2="619" y2="605.3"/>
	</g>
	<g style="clip-path:url(#SVGID_00000098905211572051382820000003431966302119169202_);">
		<g>
			<g>
				<g>
					<polygon class="st11" points="612.6,602.4 622.6,602.8 619,605.3 619.4,609.7 					"/>
				</g>
			</g>
		</g>
	</g>
	<g style="clip-path:url(#SVGID_00000098905211572051382820000003431966302119169202_);">
		<path class="st0" d="M642.7,614.1c-0.2,6.2-9.2,6.2-9.3,0C633.5,607.9,642.6,607.9,642.7,614.1z"/>
		<path class="st12" d="M642.7,614.1c-0.2,6.2-9.2,6.2-9.3,0C633.5,607.9,642.6,607.9,642.7,614.1z"/>
		<line x1="552" y1="580.2" x2="531.2" y2="582.2"/>
		<line class="st15" x1="552" y1="580.2" x2="531.2" y2="582.2"/>
	</g>
	<g style="clip-path:url(#SVGID_00000098905211572051382820000003431966302119169202_);">
		<g>
			<g>
				<g>
					<polygon class="st11" points="524.1,582.9 533,578.2 531.2,582.2 533.7,585.8 					"/>
				</g>
			</g>
		</g>
	</g>
	<g style="clip-path:url(#SVGID_00000098905211572051382820000003431966302119169202_);">
		<path class="st0" d="M556.7,580.2c-0.2,6.2-9.2,6.2-9.3,0C547.5,574.1,556.5,574.1,556.7,580.2z"/>
		<path class="st12" d="M556.7,580.2c-0.2,6.2-9.2,6.2-9.3,0C547.5,574.1,556.5,574.1,556.7,580.2z"/>
		<line x1="759" y1="661.7" x2="738" y2="660.5"/>
		<line class="st15" x1="759" y1="661.7" x2="738" y2="660.5"/>
	</g>
	<g style="clip-path:url(#SVGID_00000098905211572051382820000003431966302119169202_);">
		<g>
			<g>
				<g>
					<polygon class="st11" points="731,660.2 740.5,656.9 738,660.5 740,664.5 					"/>
				</g>
			</g>
		</g>
	</g>
	<g style="clip-path:url(#SVGID_00000098905211572051382820000003431966302119169202_);">
		<path class="st0" d="M763.6,661.7c-0.2,6.2-9.2,6.2-9.3,0C754.4,655.5,763.5,655.6,763.6,661.7z"/>
		<path class="st12" d="M763.6,661.7c-0.2,6.2-9.2,6.2-9.3,0C754.4,655.5,763.5,655.6,763.6,661.7z"/>
	</g>
	<g style="clip-path:url(#SVGID_00000098905211572051382820000003431966302119169202_);">
		<g>
			<g>
				<g>
					<polygon class="st11" points="31.5,382.3 27.5,373.1 31.3,375.2 35.1,372.9 					"/>
				</g>
			</g>
		</g>
	</g>
	<g style="clip-path:url(#SVGID_00000098905211572051382820000003431966302119169202_);">
		<path class="st0" d="M36,375.2c-0.2,6.2-9.2,6.2-9.3,0C26.8,369,35.8,369,36,375.2z"/>
		<path class="st12" d="M36,375.2c-0.2,6.2-9.2,6.2-9.3,0C26.8,369,35.8,369,36,375.2z"/>
	</g>
	<g style="clip-path:url(#SVGID_00000098905211572051382820000003431966302119169202_);">
		<g>
			<g>
				<g>
					<polygon class="st11" points="31.5,382.3 27.5,373.1 31.3,375.2 35.1,372.9 					"/>
				</g>
			</g>
		</g>
	</g>
	<g style="clip-path:url(#SVGID_00000098905211572051382820000003431966302119169202_);">
		<path class="st0" d="M36,375.2c-0.2,6.2-9.2,6.2-9.3,0C26.8,369,35.8,369,36,375.2z"/>
		<path class="st12" d="M36,375.2c-0.2,6.2-9.2,6.2-9.3,0C26.8,369,35.8,369,36,375.2z"/>
		<line x1="407.7" y1="523.4" x2="388.6" y2="515"/>
		<line class="st15" x1="407.7" y1="523.4" x2="388.6" y2="515"/>
	</g>
	<g style="clip-path:url(#SVGID_00000098905211572051382820000003431966302119169202_);">
		<g>
			<g>
				<g>
					<polygon class="st11" points="382.1,512.2 392.1,512.4 388.6,515 389.1,519.4 					"/>
				</g>
			</g>
		</g>
	</g>
	<g style="clip-path:url(#SVGID_00000098905211572051382820000003431966302119169202_);">
		<path class="st0" d="M412.4,523.4c-0.2,6.2-9.2,6.2-9.3,0C403.2,517.2,412.3,517.2,412.4,523.4z"/>
		<path class="st12" d="M412.4,523.4c-0.2,6.2-9.2,6.2-9.3,0C403.2,517.2,412.3,517.2,412.4,523.4z"/>
		<path d="M36,375.2c-0.2,6.2-9.2,6.2-9.3,0C26.8,369,35.8,369,36,375.2z"/>
	</g>
</g>
</svg>
