<svg version="1.2" xmlns="http://www.w3.org/2000/svg" viewBox="0 0 720 540"><circle fill="#f2691f" fill-opacity="0.14" cx="318.31858817528325" cy="252.2263396820193" stroke="#211f1c" stroke-opacity="1" stroke-width="1.1" r="81.41814701846832" aria-label="Set A"><title>constraint.region.0</title></circle><circle fill="#f2691f" fill-opacity="0.14" cx="399.467289149721" cy="258.8424407079399" stroke="#211f1c" stroke-opacity="1" stroke-width="1.1" r="4.001050387150735" aria-label="Set B"><title>constraint.region.1</title></circle><g transform="rotate(0, 335.5746554215196, 144.5135356381097)translate(329.9496554215196, 139.14353563810968)"><title>constraint.region.0.label</title><svg style="font-size: 15px" xmlns="http://www.w3.org/2000/svg" width="11.25" height="10.74" role="img" focusable="false" viewBox="0 -716 750 716"><g stroke="none" fill="#211f1c" stroke-width="0" transform="scale(1,-1)" fill-opacity="1"><g data-mml-node="math"><g data-mml-node="mi"><path data-c="1D434" d="M208 74Q208 50 254 46Q272 46 272 35Q272 34 270 22Q267 8 264 4T251 0Q249 0 239 0T205 1T141 2Q70 2 50 0H42Q35 7 35 11Q37 38 48 46H62Q132 49 164 96Q170 102 345 401T523 704Q530 716 547 716H555H572Q578 707 578 706L606 383Q634 60 636 57Q641 46 701 46Q726 46 726 36Q726 34 723 22Q720 7 718 4T704 0Q701 0 690 0T651 1T578 2Q484 2 455 0H443Q437 6 437 9T439 27Q443 40 445 43L449 46H469Q523 49 533 63L521 213H283L249 155Q208 86 208 74ZM516 260Q516 271 504 416T490 562L463 519Q447 492 400 412L310 260L413 259Q516 259 516 260Z"/></g></g></g></svg></g><g transform="rotate(0, 389.4277832216751, 220.59276853225703)translate(383.7352832216751, 215.47026853225702)"><title>constraint.region.1.label</title><svg style="font-size: 15px" xmlns="http://www.w3.org/2000/svg" width="11.385" height="10.245000000000001" role="img" focusable="false" viewBox="0 -683 759 683"><g stroke="none" fill="#211f1c" stroke-width="0" transform="scale(1,-1)" fill-opacity="1"><g data-mml-node="math"><g data-mml-node="mi"><path data-c="1D435" d="M231 637Q204 637 199 638T194 649Q194 676 205 682Q206 683 335 683Q594 683 608 681Q671 671 713 636T756 544Q756 480 698 429T565 360L555 357Q619 348 660 311T702 219Q702 146 630 78T453 1Q446 0 242 0Q42 0 39 2Q35 5 35 10Q35 17 37 24Q42 43 47 45Q51 46 62 46H68Q95 46 128 49Q142 52 147 61Q150 65 219 339T288 628Q288 635 231 637ZM649 544Q649 574 634 600T585 634Q578 636 493 637Q473 637 451 637T416 636H403Q388 635 384 626Q382 622 352 506Q352 503 351 500L320 374H401Q482 374 494 376Q554 386 601 434T649 544ZM595 229Q595 273 572 302T512 336Q506 337 429 337Q311 337 310 336Q310 334 293 263T258 122L240 52Q240 48 252 48T333 46Q422 46 429 47Q491 54 543 105T595 229Z"/></g></g></g></svg></g><circle fill="#211f1c" fill-opacity="1" cx="399.4672891507351" cy="258.8424407048687" stroke="#000000" stroke-opacity="0" stroke-width="0" r="4" aria-label="Point x"><title>constraint.point.0</title></circle><g transform="rotate(0, 389.74435164692534, 280.9828047069618)translate(385.4543516469253, 277.58530470696184)"><title>constraint.point.0.label</title><svg style="font-size: 15px" xmlns="http://www.w3.org/2000/svg" width="8.58" height="6.795" role="img" focusable="false" viewBox="0 -442 572 453"><g stroke="none" fill="#211f1c" stroke-width="0" transform="scale(1,-1)" fill-opacity="1"><g data-mml-node="math"><g data-mml-node="mi"><path data-c="1D465" d="M52 289Q59 331 106 386T222 442Q257 442 286 424T329 379Q371 442 430 442Q467 442 494 420T522 361Q522 332 508 314T481 292T458 288Q439 288 427 299T415 328Q415 374 465 391Q454 404 425 404Q412 404 406 402Q368 386 350 336Q290 115 290 78Q290 50 306 38T341 26Q378 26 414 59T463 140Q466 150 469 151T485 153H489Q504 153 504 145Q504 144 502 134Q486 77 440 33T333 -11Q263 -11 227 52Q186 -10 133 -10H127Q78 -10 57 16T35 71Q35 103 54 123T99 143Q142 143 142 101Q142 81 130 66T107 46T94 41L91 40Q91 39 97 36T113 29T132 26Q168 26 194 71Q203 87 217 139T245 247T261 313Q266 340 266 352Q266 380 251 392T217 404Q177 404 142 372T93 290Q91 281 88 280T72 278H58Q52 284 52 289Z"/></g></g></g></svg></g></svg>