<svg
  version="1.2"
  xmlns="http://www.w3.org/2000/svg"
  viewBox="0 0 288 162"
  penrose="0"
>
  <penrose><croppedViewBox>0 0 288 162</croppedViewBox></penrose>
  <rect
    x="0"
    y="0"
    width="288"
    height="162"
    fill="#000000"
    fill-opacity="0.13333333333333333"
    stroke="none"
    rx="0"
    transform="rotate(0, 144, 81)"
  >
    <title>canvas.background</title>
  </rect>
  <g>
    <clipPath id="stochastic-process__registry`Xt`.canvasRect-clip">
      <rect
        x="0"
        y="0"
        width="288"
        height="162"
        fill="#deccb8"
        fill-opacity="0.5"
        stroke="none"
        rx="0"
        transform="rotate(0, 144, 81)"
      >
        <title>`Xt`.canvasRect</title>
      </rect>
    </clipPath>
    <g clip-path="url(#stochastic-process__registry`Xt`.canvasRect-clip)">
      <g
        transform="rotate(0, 113.59942782428574, 19.835909143957622)translate(-23.698812200716603, -117.46233088104472)"
        opacity="0.75"
      >
        <!--?xml version="1.0" encoding="utf-8"?--><!--Generator: Adobe Illustrator 27.2.0, SVG Export Plug-In . SVG Version: 6.00 Build 0)--><svg
          version="1.1"
          id="stochastic-process__Layer_1--inject-78"
          xmlns="http://www.w3.org/2000/svg"
          xmlns:xlink="http://www.w3.org/1999/xlink"
          x="0px"
          y="0px"
          viewBox="0 0 221.7 221.7"
          style="enable-background: new 0 0 221.7 221.7"
          xml:space="preserve"
          width="274.5964800500047"
          height="274.5964800500047"
          preserveAspectRatio=""
        >
          <radialGradient
            id="stochastic-process__SVGID_1_--inject-78"
            cx="75.4328"
            cy="48.9851"
            r="157.9341"
            gradientTransform="matrix(1 0 0 1 0 22)"
            gradientUnits="userSpaceOnUse"
          >
            <stop offset="0" style="stop-color: #ffffff" />
            <stop offset="0.7844" style="stop-color: #5f5f5f" />
            <stop offset="1" style="stop-color: #7f7f7f" />
          </radialGradient>
          <circle
            cx="110.9"
            cy="110.9"
            r="110.9"
            style="
              opacity: 0.6;
              fill: url(#stochastic-process__SVGID_1_--inject-78);
              enable-background: new;
            "
          />
          <g style="opacity: 0.15">
            <path
              d="M0,110.8c0,20.3,49.6,36.8,110.8,36.8s110.8-16.5,110.8-36.8"
              style="
                fill: none;
                stroke: #000000;
                stroke-width: 0.65;
                stroke-miterlimit: 10;
              "
            />
            <path
              d="M221.7,110.8c0-20.3-49.6-36.8-110.8-36.8S0,90.5,0,110.8"
              style="
                fill: none;
                stroke: #000000;
                stroke-width: 0.65;
                stroke-miterlimit: 10;
                stroke-dasharray: 4;
              "
            />
          </g>
        </svg>
        <title>`Xt`.shading</title>
      </g>
    </g>
    <g clip-path="url(#stochastic-process__registry`Xt`.canvasRect-clip)">
      <circle
        fill="#1b1f8a"
        fill-opacity="0.2"
        cx="113.59942782428574"
        cy="19.835909143957622"
        stroke="#888888"
        stroke-opacity="1"
        stroke-width="1.5"
        r="137.29824002500234"
      >
        <title>`Xt`.ball</title>
      </circle>
    </g>
    <title>`Xt`.clippedBall</title>
  </g>
  <g>
    <clipPath id="stochastic-process__registry`Xt`.clipBall-clip">
      <circle
        fill="#71d8a7"
        fill-opacity="0.5"
        cx="113.59942782428574"
        cy="19.835909143957622"
        stroke="none"
        r="137.29824002500234"
      >
        <title>`Xt`.clipBall</title>
      </circle>
    </clipPath>
    <g clip-path="url(#stochastic-process__registry`Xt`.clipBall-clip)">
      <g>
        <filter
          id="stochastic-process__`Xt`.path-shadow"
          x="0"
          y="0"
          width="200%"
          height="200%"
        >
          <feOffset result="offOut" in="SourceAlpha" dx="5" dy="5" />
          <feGaussianBlur result="blurOut" in="offOut" stdDeviation="4" />
          <feBlend in="SourceGraphic" in2="blurOut" mode="normal" />
          <feComponentTransfer>
            <feFuncA type="linear" slope="0.5" />
          </feComponentTransfer>
          <feMerge>
            <feMergeNode />
            <feMergeNode in="SourceGraphic" />
          </feMerge>
        </filter>
        <path
          fill="none"
          stroke="#1b1f8a"
          stroke-opacity="0.6"
          stroke-width="1"
          stroke-linecap="butt"
          d="M 113.59942782428574 19.835909143957622 C 114.83583988190844 19.225196263324882 115.82056394682064 16.91865505563827 118.54507605477657 17.39305762142667 C 121.2695881627325 17.867460187215073 122.9820263453949 21.31123550190714 124.49747625610946 21.73351940711124 C 126.01292616682402 22.155803312315335 123.88494575202009 18.9726062902796 124.6068756976348 19.082193242243065 C 125.32880564324952 19.19178019420653 126.10823564120044 21.73562956721932 127.38519603856835 22.171867214965083 C 128.66215643593628 22.608104862710846 129.54780015546572 21.19850761083915 129.7147172871065 20.82714383322611 C 129.88163441874727 20.45578005561307 128.292442196746 18.928819012175794 128.05286456513147 20.68641210451291 C 127.81328693351692 22.44400519685003 128.78386215532043 25.553329638243078 128.75640676064833 27.857516202574594 C 128.72895136597623 30.16170276690611 127.32255280047924 29.216019977987244 127.9430429864431 29.903158361838983 C 128.56353317240695 30.590296745690722 129.80106604560956 29.35857656846312 131.23836750450377 30.606069737981535 C 132.67566896339795 31.85356290749995 133.40137664679804 33.489618522192586 133.6922488220199 34.893131039912625 C 133.9831209972418 36.29664355763266 132.8244292188598 34.355941852728236 132.40185620539128 36.220119808861675 C 131.97928319192278 38.084297764995114 131.69980450489422 41.28745718120439 132.00195676814587 42.349842864446366 C 132.30410903139753 43.41222854768834 131.86731561755076 40.52948637547419 133.61046525839794 40.4696625418296 C 135.3536148992451 40.409838708185006 136.6330634358139 42.18998430460537 138.97455533153456 42.11054752986798 C 141.31604722725518 42.03111075513059 141.63416400519156 40.32902111040207 142.97643284128048 40.151915442880046 C 144.3187016773694 39.974809775358025 143.2631912318229 40.85091310513256 144.34363067589027 41.402124859779896 C 145.42407011995763 41.95333661442723 145.68590201167333 42.72973099812385 147.29819061754998 42.356762461469366 C 148.91047922342662 41.98379392481488 149.82079507663613 41.0163090765725 150.7927850993968 39.91025071316196 C 151.7647751221575 38.80419234975142 151.52427413534136 38.618503686016325 151.18615070859272 37.932529007827206 C 150.84802728184408 37.24655432963809 149.7267801812019 36.98139609194763 149.44029139240226 37.16635200040548 C 149.15380260360263 37.35130790886333 149.92779747953682 38.413259663323196 150.0401955533942 38.6723526416586 C 150.1525936272516 38.931445619994 150.34824031571665 38.4049760121091 149.88988368783185 38.2027239137471 C 149.43152705994703 38.0004718153851 148.26963306273484 37.04891862184561 148.20676904185495 37.8633442482106 C 148.14390502097507 38.677769874575596 149.6632340278792 40.77577446971112 149.63842760431234 41.460426419207074 C 149.61362118074544 42.145078368703025 147.27808197195174 40.13409084698039 148.10754334758738 40.60195204619439 C 148.93700472322303 41.06981324540839 152.8847892943481 41.655252701795675 152.9562731068549 43.33187121606307 C 153.0277569193617 45.00848973033047 150.89996730010563 47.39813909970949 148.39347859761455 47.30842610326397 C 145.88698989512346 47.21871310681845 144.17104373154004 44.20532483119397 142.93031829689053 42.97301923028098 C 141.689592862241 41.740713629367995 142.7062989458276 42.273277798448134 143.43057685901647 42.37920369961201 C 144.15485477220537 42.48512960077589 144.6185428824685 42.60858392831732 145.82742994964607 43.396722834936504 C 147.03631701682366 44.184861741555686 147.12268958168465 45.923337004493604 148.2661251277268 45.53175932608873 C 149.40956067376896 45.14018164768386 149.57429189353357 41.654806674606206 150.40117213381473 41.830412121317 C 151.22805237409588 42.0060175680278 151.3263200645165 44.886403188633636 151.57364608885146 46.23418111293193 C 151.82097211318643 47.58195903723022 150.56894180228818 46.97359944127943 151.39047623115457 47.22152381851018 C 152.21201066002095 47.469448195740924 154.05019183029978 47.7680037580001 154.85978380431698 47.2258786218549 C 155.66937577833417 46.68375348570971 153.75073633579177 45.60917929443024 154.62884412722335 45.05302327392939 C 155.50695191865492 44.49686725342854 157.98212514284634 44.282705996774965 158.3722149700433 45.0012545398515 C 158.76230479724026 45.71980308292804 156.9394725112114 47.38659943674721 156.18920343601116 47.92721744623555 C 155.4389343608109 48.46783545572389 156.05997108472678 46.20248411256351 155.3711386692423 47.163726577804866 C 154.68230625375784 48.12496904304622 152.89204083392494 50.23296233020386 153.43387377407322 51.77218730720098 C 153.97570671422153 53.31141228419811 157.736458204672 52.18035216157515 157.5384704298355 53.32062648579337 C 157.34048265499902 54.460900810011594 153.8833726988787 55.36983464601418 152.64192267472725 56.33328460407387 C 151.4004726505758 57.29673456213355 152.6523866277875 56.41041629726713 152.57267033322975 57.17442631803211 C 152.492954038672 57.93843633879709 151.0957191794986 58.625347108484966 152.32305749649618 59.389324687133794 C 153.55039581349376 60.15330226578262 156.86974006173568 60.62995822337226 157.4820236012201 60.23033663262741 C 158.09430714070453 59.83071504188257 155.15153437499393 59.075753726114954 154.7721916544339 57.7908383241544 C 154.39284893387386 56.50592292219385 155.60769646387755 55.873973703794334 155.96465271898 55.0906750247852 C 156.32160897408244 54.30737634577606 154.91195343625785 54.6571442253849 156.20001667484368 54.657643608117866 C 157.4880799134295 54.658142990850834 159.96621330122915 53.89570453922565 161.11690567332323 55.09267255571707 C 162.26759804541734 56.289640572208484 160.11143016294676 57.35722060734488 160.80278616322008 59.44551567408354 C 161.4941421634934 61.53381074082219 163.1092249521487 61.01615961555592 163.88232967441655 63.4458528226717 C 164.65543439668437 65.87554602978747 163.50066990906066 68.73739868683296 163.8952050522914 69.16428850254663 C 164.28974019552217 69.59117831826029 166.19414858430642 66.63493361511807 165.46047024733954 65.15341208552636 C 164.72679191037267 63.671890555934624 162.52669158867883 62.5870003297137 160.9604917044239 63.238202384179736 C 159.39429182016895 63.88940443864577 158.8577801499962 66.48141447298943 159.1956707103198 67.75822030339049 C 159.5335612706434 69.03502613379155 161.47813188959145 68.21669055389792 162.3120539457183 68.34542570578397 C 163.14597600184516 68.47416085767001 162.7761398234206 67.93248885503371 162.53135893482718 68.27316091093468 C 162.28657804623376 68.61383296683564 161.27486919901824 70.43711234342571 161.3329303913446 69.70811392938786 C 161.390991583671 68.97911551535 161.77934191685134 65.8720543583232 162.7636037041327 65.35716725478326 C 163.74786549141405 64.84228015124333 164.04935214227416 65.79518158017102 165.26997754047005 67.64856551522813 C 166.49060293866594 69.50194945028524 167.22905593855594 72.51340587190255 167.6461052969163 72.77070299501169 C 168.06315465527663 73.02800011812083 166.5586986919854 70.49651509699233 166.9381749739114 68.6777540076647 C 167.3176512558374 66.85899291833708 168.6553884996745 66.79277194417703 169.16401042462024 65.49565863770118 C 169.672632349566 64.19854533122535 169.42676244627856 63.70408696947197 168.97266267369437 63.489300781761344 C 168.5185629011102 63.274514594050714 167.083187251409 64.03146285159872 167.34761133428356 64.63651388685868 C 167.61203541715813 65.24156492211864 168.35177377303597 66.1845010550189 170.03035900519262 65.90950492280118 C 171.70894423734927 65.63450879058345 172.5423692935663 64.13497864868515 174.06195226291013 63.53652935798779 C 175.58153523225394 62.93808006729044 175.95095347427718 63.49938197182948 176.10869088256788 63.51570776001177 C 176.26642829085858 63.532033548194065 175.53048845392541 63.615418021636806 174.6929018960729 63.601832510716974 C 173.85531533822038 63.588246999797136 174.55224582121352 64.47380632330386 172.7583446511578 63.46136571633244 C 170.96444348110208 62.448925109361014 168.1220574138982 60.03998592485199 167.51729721585005 59.55207008283128 C 166.9125370178019 59.06415424081057 168.92562858684005 61.25389521166771 170.3393038589652 61.509702348249604 C 171.75297913109034 61.765509484831504 171.82369474288356 60.60375175113837 173.1719983043507 60.57529862915888 C 174.5203018658178 60.546845507179384 175.23150902658094 61.18949871210332 175.7325181048337 61.39588986033164 C 176.23352718308644 61.60228100855996 175.23024518530852 62.75967218175707 175.17603461736172 61.40086322207216 C 175.12182404941495 60.04205426238725 174.2234800992495 57.63277737922365 175.51567583304654 55.960654021592 C 176.80787156684354 54.28853066396035 179.41338764494103 54.6502396966213 180.34481755254978 54.71236979154557 C 181.27624746015852 54.77449988646984 179.27256487518522 55.60925204867728 179.24139546348152 56.20917440128908 C 179.21022605177785 56.80909675390089 179.55970126063693 57.18675041314418 180.22013990573504 57.112059201992786 C 180.88057855083318 57.03736799084139 180.61026731714273 55.861024763849336 181.88315004387405 55.91040955668348 C 183.15603277060535 55.95979434951763 184.97022341347605 57.254147726800866 185.3116708126603 57.309598373329365 C 185.6531182118446 57.365049019857864 183.90021294970103 56.925223772579955 183.24893964061118 56.132212142797485 C 182.59766633152134 55.339200513015015 183.31320116069733 54.11203337089551 182.70657757630096 54.13755185419947 C 182.09995399190456 54.16307033750344 181.5852436396716 55.03540685702113 180.82244530302563 56.23428607601335 C 180.0596469663797 57.433165295005566 178.75111223257286 58.68525250598 179.65538422971716 58.933068730168344 C 180.55965622686142 59.180884954356685 183.3267124982723 58.010777523831194 184.43953329160274 57.225550972766705 C 185.55235408493323 56.440324421702215 183.64302570723163 56.12895867785664 184.10666740303907 55.79216252591037 C 184.5703090988465 55.455366373964104 185.15180208900702 55.43760279328872 186.29410007483247 55.87836636498163 C 187.43639806065792 56.31912993667454 187.6064245235161 57.22320802526302 188.67585934634087 57.55521681268201 C 189.74529416916565 57.887225600101004 190.50938867334628 58.281250513509136 190.5718393661316 57.206401514657585 C 190.63429005891692 56.13155251580603 189.6096253195324 53.63750438263715 188.9256621174821 53.25582081727579 C 188.24169891543175 52.87413725191443 187.65599398298033 54.16346910585912 187.8359865579303 55.679667253212145 C 188.01597913288026 57.19586540056517 189.49018134036484 58.9569792527516 189.64563241728194 59.32061340668788 C 189.80108349419908 59.68424756062416 187.71146001163459 58.36578861776027 188.45779086559872 57.13420386895726 C 189.20412171956286 55.902619120154235 192.33069226090217 56.040840816103504 192.63095583313856 54.394274411475806 C 192.93121940537495 52.74770800684811 189.810603396867 51.649729712037484 189.65884515454425 50.54793825044645 C 189.5070869122215 49.446146788855415 190.0862589179352 50.67807390291361 192.02392286384753 49.98710856511167 C 193.96158680975984 49.29614322730973 195.87014596184258 49.12735015903214 197.4095009381935 47.784076899238684 C 198.94885591454442 46.44080363944523 198.42053818800576 45.42149707364508 198.18134276925122 44.614015525937845 C 197.94214735049667 43.80653397823061 195.1595324961894 43.2826890977354 196.45271926317537 44.55415070840974 C 197.74590603016134 45.82561231908409 201.19029604523809 47.85273443289493 203.3540898371951 49.69986196863522 C 205.5178836291521 51.54698950437552 204.04737307832164 51.43898592566706 205.1078944310034 51.94266085137092 C 206.16841578368513 52.44633577707477 205.5677975250691 50.70953008384501 207.59617524792208 51.714561671450646 C 209.62455297077506 52.71959325905628 211.31186073286224 54.569402306835585 213.22140532241528 55.96278720179345 C 215.13094991196832 57.3561720967513 213.5095825949967 57.077503425050686 215.23435360613425 57.28810125128208 C 216.9591246172718 57.49869907751347 218.68772963858873 56.75135019410152 220.12048936696561 56.80517850671902 C 221.5532490953425 56.85900681933652 221.29844459496007 55.937390554842935 220.96539251964174 57.50341450175209 C 220.63234044432343 59.06943844866123 219.1099027656726 61.15862677446095 218.7882810656923 63.06927429435561 C 218.46665936571202 64.97992181425028 220.8686731150646 64.41338365448186 219.67890571972066 65.14600458133073 C 218.4891383243767 65.8786255081796 215.5318021282412 66.07771272392236 214.02921148431656 65.99975800175108 C 212.52662084039193 65.92180327957982 213.0444658311677 65.05208838639165 213.66854314402215 64.83418569264563 C 214.2926204568766 64.61628299889964 215.52244449663345 63.8344328887256 216.52552073573437 65.12814722676707 C 217.5285969748353 66.42186156480854 217.03070566344275 69.93939604409105 217.68084810042583 70.00904304481152 C 218.33099053740892 70.07869004553199 218.49012805955448 65.85927660817296 219.12609048366676 65.40673522964893 C 219.76205290777904 64.9541938511249 218.8770125731183 67.827452634559 220.22469779687492 68.19887753071541 C 221.57238302063155 68.57030242687182 223.4420558357616 68.85627689764706 224.5168313786932 66.89243481427458 C 225.59160692162487 64.9285927309021 224.42131173040005 61.97240803477659 224.52379996860145 60.34350919722547 C 224.62628820680288 58.71461035967437 225.70273578724718 60.683423393220664 224.92678433149888 60.37683946407013 C 224.15083287575058 60.07025553491958 222.9235531038492 59.463101735444674 221.41999414560826 59.117173480623315 C 219.9164351873673 58.771245225801955 218.00134192081944 60.33610942998507 218.9125484985351 58.99312644478468 C 219.82375507625073 57.650143459584285 223.93054305156346 56.771184151474486 225.06482045647087 53.74524153982174 C 226.19909786137828 50.719298928168996 223.172540160074 48.30095463736271 223.4496581181647 46.889355998173706 C 223.72677607625542 45.477757358984704 224.85560406746276 47.603436922389385 226.17329228883364 48.09884698306573 C 227.49098051020457 48.59425704374207 227.83549819619714 48.57760008909275 228.72041100364828 48.87099624087908 C 229.60532381109942 49.16439239266541 230.09408599497309 48.3426406213061 229.7129435186382 49.272431590211056 C 229.33180104230337 50.20222255911601 227.008651232163 51.01405349713495 227.19584109830888 52.59016011649889 C 227.38303096445475 54.16626673586283 229.63506000108072 54.42527842710155 230.46170298322164 55.57685806766681 C 231.28834596536257 56.72843770823207 230.6733472637923 57.38805069232285 230.5024130268726 57.19647867875993 C 230.3314787899529 57.004906665197005 229.48222168053434 54.472069026767734 229.77796603554287 54.81057001341512 C 230.0737103905514 55.14907100006251 231.44128144677626 56.86909720729812 231.68539044690675 58.55048262534948 C 231.9294994470372 60.231868043400844 230.0317950589452 60.712622016631684 230.75440203606473 61.536111685620575 C 231.47700901318427 62.35960135460947 233.01902632065526 61.76280537339896 234.5758183553849 61.84444130130505 C 236.1326103901145 61.92607722921113 236.78971892844697 62.27238956610646 236.98157017498323 61.862655397244936 C 237.17342142151944 61.4529212283834 234.0980809375633 60.91352520411186 235.3432233415298 60.205504625858936 C 236.5883657454963 59.49748404760601 240.48408816150146 58.438766373920444 241.96213979084922 59.03057308423323 C 243.44019142019698 59.62237979454602 242.16193991524594 61.518808289414466 241.25542985892082 62.57273146711009 C 240.3489198025957 63.62665464480571 240.36919224052528 63.843062100011785 238.33609956554878 63.24626579501572 C 236.30300689057228 62.649469490019655 234.78913598043704 60.5520843222641 233.1230591590148 60.18554624712583 C 231.45698233759254 59.81900817198755 233.2676643651694 61.341703435050846 231.67179227985983 61.78011349446261 C 230.07592019455026 62.21852355387437 227.27199299786452 62.91348027336066 226.7395708177765 61.939186484772875 C 226.20714863768853 60.9648926961851 229.50903385471128 58.520627982191314 229.54210355950786 57.882938340111494 C 229.57517326430445 57.24524869803167 226.8720989204764 58.92237270232603 226.87184963696282 59.388427916453594 C 226.87160035344925 59.85448313058116 229.78768151467347 58.94506601384925 229.54110642545368 59.74715919662175 C 229.29453133623383 60.549252379394254 227.53591114147952 62.293787029702315 225.88554928008355 62.5968006475436 C 224.2351874186876 62.89981426538489 222.88620588718157 61.11633819440248 222.93965897986982 60.959213667986916 C 222.99311207255806 60.80208914157136 226.82843489820323 61.95637740861851 226.0993616508365 61.96830254188136 C 225.37028840346977 61.980227675144214 221.203169061705 60.284953647004905 220.02336599040297 61.006914201038335 C 218.84356291910095 61.728874755071764 220.41409792916016 63.25810653605083 221.38014936562837 64.85614475801508 C 222.34620080209655 66.45418297997932 224.60728360255487 66.98480324083579 223.88757173627573 67.39906708889532 C 223.1678598699966 67.81333093695484 219.8043373014666 65.81898134089147 218.5013019005118 66.51320015025317 C 217.19826649955706 67.20741895961487 219.18161306335213 70.33244972228943 218.67543013245665 70.17594232634212 C 218.16924720156118 70.01943493039482 216.8614000754439 66.83053050734742 216.47657017692993 65.88717056646396 C 216.09174027841595 64.94381062558053 216.98158972450608 65.23282300767814 217.13611053840074 66.40250256280834 C 217.2906313522954 67.57218211793854 216.7585633380715 68.35976437457268 217.09465343250855 70.56588878698477 C 217.4307435269456 72.77201319939687 218.00384344310118 73.87142117418358 218.480470916149 75.22700021245672 C 218.95709838919677 76.58257925072984 218.7573636223152 75.32866812348016 219.00116332469975 75.98820494007727 C 219.24496302708434 76.64774175667438 219.28249964828527 76.37962264487992 219.45566972568724 77.86514747884515 C 219.6288398030892 79.35067231281037 218.36640462641597 82.19897479509403 219.69384363430765 81.93030427593818 C 221.0212826421993 81.66163375678234 223.9687132736812 78.89768460319623 224.76542575725387 76.79046540222174 C 225.56213824082656 74.68324620124726 224.60591470967086 74.08929222249881 222.88069356859833 73.50142747204025 C 221.1554724275258 72.91356272158168 220.43999498432106 73.98572170882287 217.8645411929637 74.43900640038748 C 215.28908740160637 74.8922910919521 214.4641863211828 75.01912537331317 212.57887840316897 75.3145662382987 C 210.69357048515513 75.61000710328423 210.9077946681585 74.78072446029093 210.32330952090842 75.6207698603296 C 209.73882437365836 76.46081526036826 209.5259029260801 77.18036178978959 210.24093781416877 78.67474783845338 C 210.95597270225747 80.16913388711718 212.71473581863478 81.22513942139067 213.18344907326312 81.5983140549848 C 213.65216232789146 81.97148868857894 212.53595319695964 81.34491263797189 212.1157908326821 80.16744637282994 C 211.69562846840458 78.989980107688 211.78325782921854 78.22280537243932 211.50279961615303 76.88844899441705 C 211.2223414030875 75.55409261639475 210.9876560867632 75.7074933456292 210.99395798042013 74.8300208607408 C 211.00025987407707 73.95254837585242 210.9730313895152 73.37616801721447 211.52800719078078 73.37855905486347 C 212.08298299204634 73.38095009251246 213.7294503693425 73.88926946245036 213.21386118548241 74.8395850113368 C 212.69827200162234 75.78990056022322 210.73446903844408 75.35939339894134 209.46565045534044 77.17982125040919 C 208.19683187223677 79.00024910187705 207.8032871108432 79.92631562707031 208.13858685306778 82.1212964172082 C 208.47388659529236 84.31627720734609 209.0940260542851 84.55886670588048 210.80684942423866 85.95974441096075 C 212.51967279419222 87.36062211604103 214.66793528687705 86.74555878781354 214.9898803328819 87.72480723752929 C 215.3118253788868 88.70405568724506 213.04827060488125 88.53392068629519 212.09462960825812 89.87673820982377 C 211.14098861163498 91.21955573335237 210.49782541131145 91.7532876330256 211.17531634638942 93.09607733164363 C 211.85280728146736 94.43886703026168 214.66616283324745 93.65243587274685 214.8045933485699 95.24789700429594 C 214.94302386389236 96.84335813584502 212.68273045685498 97.0345070923953 211.72903840767924 99.47792185783996 C 210.7753463585035 101.92133662328463 210.01027758936232 102.68415826533179 210.9898251518669 105.02155606607462 C 211.9693727143715 107.35895386681744 214.485068642894 107.30814643442295 215.6472286576976 108.82751306081126 C 216.8093886725012 110.34687968719956 214.6871154550066 110.44941129032678 215.63846521108132 111.09902257162781 C 216.58981496715603 111.74863385292885 219.57552651630817 111.15385262535845 219.4526276819965 111.4259581860154 C 219.32972884768486 111.69806374667232 216.2500057236393 112.42825687696738 215.1468698738347 112.18744481425556 C 214.04373402403007 111.94663275154373 215.44743268159414 110.70740544024332 215.04008428277808 110.46270993516809 C 214.632735883962 110.21801443009285 214.4736848618258 110.68991200715152 213.51747627857043 111.2086627939546 C 212.56126769531505 111.72741358075767 211.9068604696904 111.40825391661383 211.21524994975658 112.53771308238038 C 210.52363942982277 113.66717224814693 211.10914019231762 114.773882907229 210.75103419883516 115.72649945702078 C 210.3929282053527 116.67911600681256 210.3028749593852 115.55664704443753 209.78282597582668 116.34817928154752 C 209.26277699226816 117.13971151865752 208.9488351924075 118.25651612448246 208.6708382646011 118.89262840546078"
        />
        <title>`Xt`.path</title>
      </g>
    </g>
    <title>`Xt`.clippedPath</title>
  </g>
  <circle
    fill="#000000"
    fill-opacity="1"
    cx="208.6708382646011"
    cy="118.89262840546078"
    stroke="none"
    r="2"
  >
    <title>`XT`.icon</title>
  </circle>
  <g
    transform="rotate(0, 107.30856107620251, 27.60926077358694)translate(101.16816107620251, 24.01046077358694)"
  >
    <title>`X0`.labelText</title>
    <svg
      style="font-size: 12px"
      xmlns="http://www.w3.org/2000/svg"
      width="12.280800000000001"
      height="7.1975999999999996"
      role="img"
      focusable="false"
      viewBox="0 -442 1023.4 599.8"
    >
      <g
        stroke="none"
        fill="#000000"
        stroke-width="0"
        transform="scale(1,-1)"
        fill-opacity="1"
      >
        <g data-mml-node="math">
          <g data-mml-node="msub">
            <g data-mml-node="mi">
              <path
                data-c="1D465"
                d="M52 289Q59 331 106 386T222 442Q257 442 286 424T329 379Q371 442 430 442Q467 442 494 420T522 361Q522 332 508 314T481 292T458 288Q439 288 427 299T415 328Q415 374 465 391Q454 404 425 404Q412 404 406 402Q368 386 350 336Q290 115 290 78Q290 50 306 38T341 26Q378 26 414 59T463 140Q466 150 469 151T485 153H489Q504 153 504 145Q504 144 502 134Q486 77 440 33T333 -11Q263 -11 227 52Q186 -10 133 -10H127Q78 -10 57 16T35 71Q35 103 54 123T99 143Q142 143 142 101Q142 81 130 66T107 46T94 41L91 40Q91 39 97 36T113 29T132 26Q168 26 194 71Q203 87 217 139T245 247T261 313Q266 340 266 352Q266 380 251 392T217 404Q177 404 142 372T93 290Q91 281 88 280T72 278H58Q52 284 52 289Z"
              />
            </g>
            <g data-mml-node="mi" transform="translate(605,-150) scale(0.707)">
              <path
                data-c="1D458"
                d="M121 647Q121 657 125 670T137 683Q138 683 209 688T282 694Q294 694 294 686Q294 679 244 477Q194 279 194 272Q213 282 223 291Q247 309 292 354T362 415Q402 442 438 442Q468 442 485 423T503 369Q503 344 496 327T477 302T456 291T438 288Q418 288 406 299T394 328Q394 353 410 369T442 390L458 393Q446 405 434 405H430Q398 402 367 380T294 316T228 255Q230 254 243 252T267 246T293 238T320 224T342 206T359 180T365 147Q365 130 360 106T354 66Q354 26 381 26Q429 26 459 145Q461 153 479 153H483Q499 153 499 144Q499 139 496 130Q455 -11 378 -11Q333 -11 305 15T277 90Q277 108 280 121T283 145Q283 167 269 183T234 206T200 217T182 220H180Q168 178 159 139T145 81T136 44T129 20T122 7T111 -2Q98 -11 83 -11Q66 -11 57 -1T48 16Q48 26 85 176T158 471L195 616Q196 629 188 632T149 637H144Q134 637 131 637T124 640T121 647Z"
              />
            </g>
          </g>
        </g>
      </g>
    </svg>
  </g>
  <circle
    fill="#000000"
    fill-opacity="1"
    cx="113.59942782428574"
    cy="19.835909143957622"
    stroke="none"
    r="2"
  >
    <title>`X0`.icon</title>
  </circle>
  <g
    transform="rotate(0, 213.26776289015177, 127.77341012707772)translate(201.70516289015177, 123.87341012707772)"
  >
    <title>`XT`.labelText</title>
    <svg
      style="font-size: 12px"
      xmlns="http://www.w3.org/2000/svg"
      width="23.1252"
      height="7.800000000000001"
      role="img"
      focusable="false"
      viewBox="0 -442 1927.1 650"
    >
      <g
        stroke="none"
        fill="#000000"
        stroke-width="0"
        transform="scale(1,-1)"
        fill-opacity="1"
      >
        <g data-mml-node="math">
          <g data-mml-node="msub">
            <g data-mml-node="mi">
              <path
                data-c="1D465"
                d="M52 289Q59 331 106 386T222 442Q257 442 286 424T329 379Q371 442 430 442Q467 442 494 420T522 361Q522 332 508 314T481 292T458 288Q439 288 427 299T415 328Q415 374 465 391Q454 404 425 404Q412 404 406 402Q368 386 350 336Q290 115 290 78Q290 50 306 38T341 26Q378 26 414 59T463 140Q466 150 469 151T485 153H489Q504 153 504 145Q504 144 502 134Q486 77 440 33T333 -11Q263 -11 227 52Q186 -10 133 -10H127Q78 -10 57 16T35 71Q35 103 54 123T99 143Q142 143 142 101Q142 81 130 66T107 46T94 41L91 40Q91 39 97 36T113 29T132 26Q168 26 194 71Q203 87 217 139T245 247T261 313Q266 340 266 352Q266 380 251 392T217 404Q177 404 142 372T93 290Q91 281 88 280T72 278H58Q52 284 52 289Z"
              />
            </g>
            <g
              data-mml-node="TeXAtom"
              transform="translate(605,-150) scale(0.707)"
              data-mjx-texclass="ORD"
            >
              <g data-mml-node="mi">
                <path
                  data-c="1D458"
                  d="M121 647Q121 657 125 670T137 683Q138 683 209 688T282 694Q294 694 294 686Q294 679 244 477Q194 279 194 272Q213 282 223 291Q247 309 292 354T362 415Q402 442 438 442Q468 442 485 423T503 369Q503 344 496 327T477 302T456 291T438 288Q418 288 406 299T394 328Q394 353 410 369T442 390L458 393Q446 405 434 405H430Q398 402 367 380T294 316T228 255Q230 254 243 252T267 246T293 238T320 224T342 206T359 180T365 147Q365 130 360 106T354 66Q354 26 381 26Q429 26 459 145Q461 153 479 153H483Q499 153 499 144Q499 139 496 130Q455 -11 378 -11Q333 -11 305 15T277 90Q277 108 280 121T283 145Q283 167 269 183T234 206T200 217T182 220H180Q168 178 159 139T145 81T136 44T129 20T122 7T111 -2Q98 -11 83 -11Q66 -11 57 -1T48 16Q48 26 85 176T158 471L195 616Q196 629 188 632T149 637H144Q134 637 131 637T124 640T121 647Z"
                />
              </g>
              <g data-mml-node="mo" transform="translate(521,0)">
                <path
                  data-c="2B"
                  d="M56 237T56 250T70 270H369V420L370 570Q380 583 389 583Q402 583 409 568V270H707Q722 262 722 250T707 230H409V-68Q401 -82 391 -82H389H387Q375 -82 369 -68V230H70Q56 237 56 250Z"
                />
              </g>
              <g data-mml-node="mn" transform="translate(1299,0)">
                <path
                  data-c="31"
                  d="M213 578L200 573Q186 568 160 563T102 556H83V602H102Q149 604 189 617T245 641T273 663Q275 666 285 666Q294 666 302 660V361L303 61Q310 54 315 52T339 48T401 46H427V0H416Q395 3 257 3Q121 3 100 0H88V46H114Q136 46 152 46T177 47T193 50T201 52T207 57T213 61V578Z"
                />
              </g>
            </g>
          </g>
        </g>
      </g>
    </svg>
  </g>
  <g
    transform="rotate(0, 189.03656185758916, 60.66842524590122)translate(182.03876185758915, 55.623625245901216)"
  >
    <title>`Xt`.labelStroke0</title>
    <svg
      style="font-size: 12px"
      xmlns="http://www.w3.org/2000/svg"
      width="13.9956"
      height="10.0896"
      role="img"
      focusable="false"
      viewBox="0 -683 1166.3 840.8"
    >
      <g
        stroke="none"
        fill="#000000"
        stroke-width="0"
        transform="scale(1,-1)"
        fill-opacity="1"
      >
        <g data-mml-node="math">
          <g data-mml-node="msub">
            <g data-mml-node="mi">
              <path
                data-c="1D44B"
                d="M42 0H40Q26 0 26 11Q26 15 29 27Q33 41 36 43T55 46Q141 49 190 98Q200 108 306 224T411 342Q302 620 297 625Q288 636 234 637H206Q200 643 200 645T202 664Q206 677 212 683H226Q260 681 347 681Q380 681 408 681T453 682T473 682Q490 682 490 671Q490 670 488 658Q484 643 481 640T465 637Q434 634 411 620L488 426L541 485Q646 598 646 610Q646 628 622 635Q617 635 609 637Q594 637 594 648Q594 650 596 664Q600 677 606 683H618Q619 683 643 683T697 681T738 680Q828 680 837 683H845Q852 676 852 672Q850 647 840 637H824Q790 636 763 628T722 611T698 593L687 584Q687 585 592 480L505 384Q505 383 536 304T601 142T638 56Q648 47 699 46Q734 46 734 37Q734 35 732 23Q728 7 725 4T711 1Q708 1 678 1T589 2Q528 2 496 2T461 1Q444 1 444 10Q444 11 446 25Q448 35 450 39T455 44T464 46T480 47T506 54Q523 62 523 64Q522 64 476 181L429 299Q241 95 236 84Q232 76 232 72Q232 53 261 47Q262 47 267 47T273 46Q276 46 277 46T280 45T283 42T284 35Q284 26 282 19Q279 6 276 4T261 1Q258 1 243 1T201 2T142 2Q64 2 42 0Z"
              />
            </g>
            <g data-mml-node="mi" transform="translate(861,-150) scale(0.707)">
              <path
                data-c="1D461"
                d="M26 385Q19 392 19 395Q19 399 22 411T27 425Q29 430 36 430T87 431H140L159 511Q162 522 166 540T173 566T179 586T187 603T197 615T211 624T229 626Q247 625 254 615T261 596Q261 589 252 549T232 470L222 433Q222 431 272 431H323Q330 424 330 420Q330 398 317 385H210L174 240Q135 80 135 68Q135 26 162 26Q197 26 230 60T283 144Q285 150 288 151T303 153H307Q322 153 322 145Q322 142 319 133Q314 117 301 95T267 48T216 6T155 -11Q125 -11 98 4T59 56Q57 64 57 83V101L92 241Q127 382 128 383Q128 385 77 385H26Z"
              />
            </g>
          </g>
        </g>
      </g>
    </svg>
  </g>
  <g
    transform="rotate(0, 188.89011524818244, 60.31487185530794)translate(181.89231524818243, 55.27007185530794)"
  >
    <title>`Xt`.labelStroke1</title>
    <svg
      style="font-size: 12px"
      xmlns="http://www.w3.org/2000/svg"
      width="13.9956"
      height="10.0896"
      role="img"
      focusable="false"
      viewBox="0 -683 1166.3 840.8"
    >
      <g
        stroke="none"
        fill="#000000"
        stroke-width="0"
        transform="scale(1,-1)"
        fill-opacity="1"
      >
        <g data-mml-node="math">
          <g data-mml-node="msub">
            <g data-mml-node="mi">
              <path
                data-c="1D44B"
                d="M42 0H40Q26 0 26 11Q26 15 29 27Q33 41 36 43T55 46Q141 49 190 98Q200 108 306 224T411 342Q302 620 297 625Q288 636 234 637H206Q200 643 200 645T202 664Q206 677 212 683H226Q260 681 347 681Q380 681 408 681T453 682T473 682Q490 682 490 671Q490 670 488 658Q484 643 481 640T465 637Q434 634 411 620L488 426L541 485Q646 598 646 610Q646 628 622 635Q617 635 609 637Q594 637 594 648Q594 650 596 664Q600 677 606 683H618Q619 683 643 683T697 681T738 680Q828 680 837 683H845Q852 676 852 672Q850 647 840 637H824Q790 636 763 628T722 611T698 593L687 584Q687 585 592 480L505 384Q505 383 536 304T601 142T638 56Q648 47 699 46Q734 46 734 37Q734 35 732 23Q728 7 725 4T711 1Q708 1 678 1T589 2Q528 2 496 2T461 1Q444 1 444 10Q444 11 446 25Q448 35 450 39T455 44T464 46T480 47T506 54Q523 62 523 64Q522 64 476 181L429 299Q241 95 236 84Q232 76 232 72Q232 53 261 47Q262 47 267 47T273 46Q276 46 277 46T280 45T283 42T284 35Q284 26 282 19Q279 6 276 4T261 1Q258 1 243 1T201 2T142 2Q64 2 42 0Z"
              />
            </g>
            <g data-mml-node="mi" transform="translate(861,-150) scale(0.707)">
              <path
                data-c="1D461"
                d="M26 385Q19 392 19 395Q19 399 22 411T27 425Q29 430 36 430T87 431H140L159 511Q162 522 166 540T173 566T179 586T187 603T197 615T211 624T229 626Q247 625 254 615T261 596Q261 589 252 549T232 470L222 433Q222 431 272 431H323Q330 424 330 420Q330 398 317 385H210L174 240Q135 80 135 68Q135 26 162 26Q197 26 230 60T283 144Q285 150 288 151T303 153H307Q322 153 322 145Q322 142 319 133Q314 117 301 95T267 48T216 6T155 -11Q125 -11 98 4T59 56Q57 64 57 83V101L92 241Q127 382 128 383Q128 385 77 385H26Z"
              />
            </g>
          </g>
        </g>
      </g>
    </svg>
  </g>
  <g
    transform="rotate(0, 188.53656185758916, 60.16842524590122)translate(181.53876185758915, 55.123625245901216)"
  >
    <title>`Xt`.labelStroke2</title>
    <svg
      style="font-size: 12px"
      xmlns="http://www.w3.org/2000/svg"
      width="13.9956"
      height="10.0896"
      role="img"
      focusable="false"
      viewBox="0 -683 1166.3 840.8"
    >
      <g
        stroke="none"
        fill="#000000"
        stroke-width="0"
        transform="scale(1,-1)"
        fill-opacity="1"
      >
        <g data-mml-node="math">
          <g data-mml-node="msub">
            <g data-mml-node="mi">
              <path
                data-c="1D44B"
                d="M42 0H40Q26 0 26 11Q26 15 29 27Q33 41 36 43T55 46Q141 49 190 98Q200 108 306 224T411 342Q302 620 297 625Q288 636 234 637H206Q200 643 200 645T202 664Q206 677 212 683H226Q260 681 347 681Q380 681 408 681T453 682T473 682Q490 682 490 671Q490 670 488 658Q484 643 481 640T465 637Q434 634 411 620L488 426L541 485Q646 598 646 610Q646 628 622 635Q617 635 609 637Q594 637 594 648Q594 650 596 664Q600 677 606 683H618Q619 683 643 683T697 681T738 680Q828 680 837 683H845Q852 676 852 672Q850 647 840 637H824Q790 636 763 628T722 611T698 593L687 584Q687 585 592 480L505 384Q505 383 536 304T601 142T638 56Q648 47 699 46Q734 46 734 37Q734 35 732 23Q728 7 725 4T711 1Q708 1 678 1T589 2Q528 2 496 2T461 1Q444 1 444 10Q444 11 446 25Q448 35 450 39T455 44T464 46T480 47T506 54Q523 62 523 64Q522 64 476 181L429 299Q241 95 236 84Q232 76 232 72Q232 53 261 47Q262 47 267 47T273 46Q276 46 277 46T280 45T283 42T284 35Q284 26 282 19Q279 6 276 4T261 1Q258 1 243 1T201 2T142 2Q64 2 42 0Z"
              />
            </g>
            <g data-mml-node="mi" transform="translate(861,-150) scale(0.707)">
              <path
                data-c="1D461"
                d="M26 385Q19 392 19 395Q19 399 22 411T27 425Q29 430 36 430T87 431H140L159 511Q162 522 166 540T173 566T179 586T187 603T197 615T211 624T229 626Q247 625 254 615T261 596Q261 589 252 549T232 470L222 433Q222 431 272 431H323Q330 424 330 420Q330 398 317 385H210L174 240Q135 80 135 68Q135 26 162 26Q197 26 230 60T283 144Q285 150 288 151T303 153H307Q322 153 322 145Q322 142 319 133Q314 117 301 95T267 48T216 6T155 -11Q125 -11 98 4T59 56Q57 64 57 83V101L92 241Q127 382 128 383Q128 385 77 385H26Z"
              />
            </g>
          </g>
        </g>
      </g>
    </svg>
  </g>
  <g
    transform="rotate(0, 188.1830084669959, 60.31487185530794)translate(181.18520846699587, 55.27007185530794)"
  >
    <title>`Xt`.labelStroke3</title>
    <svg
      style="font-size: 12px"
      xmlns="http://www.w3.org/2000/svg"
      width="13.9956"
      height="10.0896"
      role="img"
      focusable="false"
      viewBox="0 -683 1166.3 840.8"
    >
      <g
        stroke="none"
        fill="#000000"
        stroke-width="0"
        transform="scale(1,-1)"
        fill-opacity="1"
      >
        <g data-mml-node="math">
          <g data-mml-node="msub">
            <g data-mml-node="mi">
              <path
                data-c="1D44B"
                d="M42 0H40Q26 0 26 11Q26 15 29 27Q33 41 36 43T55 46Q141 49 190 98Q200 108 306 224T411 342Q302 620 297 625Q288 636 234 637H206Q200 643 200 645T202 664Q206 677 212 683H226Q260 681 347 681Q380 681 408 681T453 682T473 682Q490 682 490 671Q490 670 488 658Q484 643 481 640T465 637Q434 634 411 620L488 426L541 485Q646 598 646 610Q646 628 622 635Q617 635 609 637Q594 637 594 648Q594 650 596 664Q600 677 606 683H618Q619 683 643 683T697 681T738 680Q828 680 837 683H845Q852 676 852 672Q850 647 840 637H824Q790 636 763 628T722 611T698 593L687 584Q687 585 592 480L505 384Q505 383 536 304T601 142T638 56Q648 47 699 46Q734 46 734 37Q734 35 732 23Q728 7 725 4T711 1Q708 1 678 1T589 2Q528 2 496 2T461 1Q444 1 444 10Q444 11 446 25Q448 35 450 39T455 44T464 46T480 47T506 54Q523 62 523 64Q522 64 476 181L429 299Q241 95 236 84Q232 76 232 72Q232 53 261 47Q262 47 267 47T273 46Q276 46 277 46T280 45T283 42T284 35Q284 26 282 19Q279 6 276 4T261 1Q258 1 243 1T201 2T142 2Q64 2 42 0Z"
              />
            </g>
            <g data-mml-node="mi" transform="translate(861,-150) scale(0.707)">
              <path
                data-c="1D461"
                d="M26 385Q19 392 19 395Q19 399 22 411T27 425Q29 430 36 430T87 431H140L159 511Q162 522 166 540T173 566T179 586T187 603T197 615T211 624T229 626Q247 625 254 615T261 596Q261 589 252 549T232 470L222 433Q222 431 272 431H323Q330 424 330 420Q330 398 317 385H210L174 240Q135 80 135 68Q135 26 162 26Q197 26 230 60T283 144Q285 150 288 151T303 153H307Q322 153 322 145Q322 142 319 133Q314 117 301 95T267 48T216 6T155 -11Q125 -11 98 4T59 56Q57 64 57 83V101L92 241Q127 382 128 383Q128 385 77 385H26Z"
              />
            </g>
          </g>
        </g>
      </g>
    </svg>
  </g>
  <g
    transform="rotate(0, 188.03656185758916, 60.66842524590122)translate(181.03876185758915, 55.623625245901216)"
  >
    <title>`Xt`.labelStroke4</title>
    <svg
      style="font-size: 12px"
      xmlns="http://www.w3.org/2000/svg"
      width="13.9956"
      height="10.0896"
      role="img"
      focusable="false"
      viewBox="0 -683 1166.3 840.8"
    >
      <g
        stroke="none"
        fill="#000000"
        stroke-width="0"
        transform="scale(1,-1)"
        fill-opacity="1"
      >
        <g data-mml-node="math">
          <g data-mml-node="msub">
            <g data-mml-node="mi">
              <path
                data-c="1D44B"
                d="M42 0H40Q26 0 26 11Q26 15 29 27Q33 41 36 43T55 46Q141 49 190 98Q200 108 306 224T411 342Q302 620 297 625Q288 636 234 637H206Q200 643 200 645T202 664Q206 677 212 683H226Q260 681 347 681Q380 681 408 681T453 682T473 682Q490 682 490 671Q490 670 488 658Q484 643 481 640T465 637Q434 634 411 620L488 426L541 485Q646 598 646 610Q646 628 622 635Q617 635 609 637Q594 637 594 648Q594 650 596 664Q600 677 606 683H618Q619 683 643 683T697 681T738 680Q828 680 837 683H845Q852 676 852 672Q850 647 840 637H824Q790 636 763 628T722 611T698 593L687 584Q687 585 592 480L505 384Q505 383 536 304T601 142T638 56Q648 47 699 46Q734 46 734 37Q734 35 732 23Q728 7 725 4T711 1Q708 1 678 1T589 2Q528 2 496 2T461 1Q444 1 444 10Q444 11 446 25Q448 35 450 39T455 44T464 46T480 47T506 54Q523 62 523 64Q522 64 476 181L429 299Q241 95 236 84Q232 76 232 72Q232 53 261 47Q262 47 267 47T273 46Q276 46 277 46T280 45T283 42T284 35Q284 26 282 19Q279 6 276 4T261 1Q258 1 243 1T201 2T142 2Q64 2 42 0Z"
              />
            </g>
            <g data-mml-node="mi" transform="translate(861,-150) scale(0.707)">
              <path
                data-c="1D461"
                d="M26 385Q19 392 19 395Q19 399 22 411T27 425Q29 430 36 430T87 431H140L159 511Q162 522 166 540T173 566T179 586T187 603T197 615T211 624T229 626Q247 625 254 615T261 596Q261 589 252 549T232 470L222 433Q222 431 272 431H323Q330 424 330 420Q330 398 317 385H210L174 240Q135 80 135 68Q135 26 162 26Q197 26 230 60T283 144Q285 150 288 151T303 153H307Q322 153 322 145Q322 142 319 133Q314 117 301 95T267 48T216 6T155 -11Q125 -11 98 4T59 56Q57 64 57 83V101L92 241Q127 382 128 383Q128 385 77 385H26Z"
              />
            </g>
          </g>
        </g>
      </g>
    </svg>
  </g>
  <g
    transform="rotate(0, 188.1830084669959, 61.021978636494495)translate(181.18520846699587, 55.97717863649449)"
  >
    <title>`Xt`.labelStroke5</title>
    <svg
      style="font-size: 12px"
      xmlns="http://www.w3.org/2000/svg"
      width="13.9956"
      height="10.0896"
      role="img"
      focusable="false"
      viewBox="0 -683 1166.3 840.8"
    >
      <g
        stroke="none"
        fill="#000000"
        stroke-width="0"
        transform="scale(1,-1)"
        fill-opacity="1"
      >
        <g data-mml-node="math">
          <g data-mml-node="msub">
            <g data-mml-node="mi">
              <path
                data-c="1D44B"
                d="M42 0H40Q26 0 26 11Q26 15 29 27Q33 41 36 43T55 46Q141 49 190 98Q200 108 306 224T411 342Q302 620 297 625Q288 636 234 637H206Q200 643 200 645T202 664Q206 677 212 683H226Q260 681 347 681Q380 681 408 681T453 682T473 682Q490 682 490 671Q490 670 488 658Q484 643 481 640T465 637Q434 634 411 620L488 426L541 485Q646 598 646 610Q646 628 622 635Q617 635 609 637Q594 637 594 648Q594 650 596 664Q600 677 606 683H618Q619 683 643 683T697 681T738 680Q828 680 837 683H845Q852 676 852 672Q850 647 840 637H824Q790 636 763 628T722 611T698 593L687 584Q687 585 592 480L505 384Q505 383 536 304T601 142T638 56Q648 47 699 46Q734 46 734 37Q734 35 732 23Q728 7 725 4T711 1Q708 1 678 1T589 2Q528 2 496 2T461 1Q444 1 444 10Q444 11 446 25Q448 35 450 39T455 44T464 46T480 47T506 54Q523 62 523 64Q522 64 476 181L429 299Q241 95 236 84Q232 76 232 72Q232 53 261 47Q262 47 267 47T273 46Q276 46 277 46T280 45T283 42T284 35Q284 26 282 19Q279 6 276 4T261 1Q258 1 243 1T201 2T142 2Q64 2 42 0Z"
              />
            </g>
            <g data-mml-node="mi" transform="translate(861,-150) scale(0.707)">
              <path
                data-c="1D461"
                d="M26 385Q19 392 19 395Q19 399 22 411T27 425Q29 430 36 430T87 431H140L159 511Q162 522 166 540T173 566T179 586T187 603T197 615T211 624T229 626Q247 625 254 615T261 596Q261 589 252 549T232 470L222 433Q222 431 272 431H323Q330 424 330 420Q330 398 317 385H210L174 240Q135 80 135 68Q135 26 162 26Q197 26 230 60T283 144Q285 150 288 151T303 153H307Q322 153 322 145Q322 142 319 133Q314 117 301 95T267 48T216 6T155 -11Q125 -11 98 4T59 56Q57 64 57 83V101L92 241Q127 382 128 383Q128 385 77 385H26Z"
              />
            </g>
          </g>
        </g>
      </g>
    </svg>
  </g>
  <g
    transform="rotate(0, 188.53656185758916, 61.16842524590122)translate(181.53876185758915, 56.123625245901216)"
  >
    <title>`Xt`.labelStroke6</title>
    <svg
      style="font-size: 12px"
      xmlns="http://www.w3.org/2000/svg"
      width="13.9956"
      height="10.0896"
      role="img"
      focusable="false"
      viewBox="0 -683 1166.3 840.8"
    >
      <g
        stroke="none"
        fill="#000000"
        stroke-width="0"
        transform="scale(1,-1)"
        fill-opacity="1"
      >
        <g data-mml-node="math">
          <g data-mml-node="msub">
            <g data-mml-node="mi">
              <path
                data-c="1D44B"
                d="M42 0H40Q26 0 26 11Q26 15 29 27Q33 41 36 43T55 46Q141 49 190 98Q200 108 306 224T411 342Q302 620 297 625Q288 636 234 637H206Q200 643 200 645T202 664Q206 677 212 683H226Q260 681 347 681Q380 681 408 681T453 682T473 682Q490 682 490 671Q490 670 488 658Q484 643 481 640T465 637Q434 634 411 620L488 426L541 485Q646 598 646 610Q646 628 622 635Q617 635 609 637Q594 637 594 648Q594 650 596 664Q600 677 606 683H618Q619 683 643 683T697 681T738 680Q828 680 837 683H845Q852 676 852 672Q850 647 840 637H824Q790 636 763 628T722 611T698 593L687 584Q687 585 592 480L505 384Q505 383 536 304T601 142T638 56Q648 47 699 46Q734 46 734 37Q734 35 732 23Q728 7 725 4T711 1Q708 1 678 1T589 2Q528 2 496 2T461 1Q444 1 444 10Q444 11 446 25Q448 35 450 39T455 44T464 46T480 47T506 54Q523 62 523 64Q522 64 476 181L429 299Q241 95 236 84Q232 76 232 72Q232 53 261 47Q262 47 267 47T273 46Q276 46 277 46T280 45T283 42T284 35Q284 26 282 19Q279 6 276 4T261 1Q258 1 243 1T201 2T142 2Q64 2 42 0Z"
              />
            </g>
            <g data-mml-node="mi" transform="translate(861,-150) scale(0.707)">
              <path
                data-c="1D461"
                d="M26 385Q19 392 19 395Q19 399 22 411T27 425Q29 430 36 430T87 431H140L159 511Q162 522 166 540T173 566T179 586T187 603T197 615T211 624T229 626Q247 625 254 615T261 596Q261 589 252 549T232 470L222 433Q222 431 272 431H323Q330 424 330 420Q330 398 317 385H210L174 240Q135 80 135 68Q135 26 162 26Q197 26 230 60T283 144Q285 150 288 151T303 153H307Q322 153 322 145Q322 142 319 133Q314 117 301 95T267 48T216 6T155 -11Q125 -11 98 4T59 56Q57 64 57 83V101L92 241Q127 382 128 383Q128 385 77 385H26Z"
              />
            </g>
          </g>
        </g>
      </g>
    </svg>
  </g>
  <g
    transform="rotate(0, 188.89011524818244, 61.021978636494495)translate(181.89231524818243, 55.97717863649449)"
  >
    <title>`Xt`.labelStroke7</title>
    <svg
      style="font-size: 12px"
      xmlns="http://www.w3.org/2000/svg"
      width="13.9956"
      height="10.0896"
      role="img"
      focusable="false"
      viewBox="0 -683 1166.3 840.8"
    >
      <g
        stroke="none"
        fill="#000000"
        stroke-width="0"
        transform="scale(1,-1)"
        fill-opacity="1"
      >
        <g data-mml-node="math">
          <g data-mml-node="msub">
            <g data-mml-node="mi">
              <path
                data-c="1D44B"
                d="M42 0H40Q26 0 26 11Q26 15 29 27Q33 41 36 43T55 46Q141 49 190 98Q200 108 306 224T411 342Q302 620 297 625Q288 636 234 637H206Q200 643 200 645T202 664Q206 677 212 683H226Q260 681 347 681Q380 681 408 681T453 682T473 682Q490 682 490 671Q490 670 488 658Q484 643 481 640T465 637Q434 634 411 620L488 426L541 485Q646 598 646 610Q646 628 622 635Q617 635 609 637Q594 637 594 648Q594 650 596 664Q600 677 606 683H618Q619 683 643 683T697 681T738 680Q828 680 837 683H845Q852 676 852 672Q850 647 840 637H824Q790 636 763 628T722 611T698 593L687 584Q687 585 592 480L505 384Q505 383 536 304T601 142T638 56Q648 47 699 46Q734 46 734 37Q734 35 732 23Q728 7 725 4T711 1Q708 1 678 1T589 2Q528 2 496 2T461 1Q444 1 444 10Q444 11 446 25Q448 35 450 39T455 44T464 46T480 47T506 54Q523 62 523 64Q522 64 476 181L429 299Q241 95 236 84Q232 76 232 72Q232 53 261 47Q262 47 267 47T273 46Q276 46 277 46T280 45T283 42T284 35Q284 26 282 19Q279 6 276 4T261 1Q258 1 243 1T201 2T142 2Q64 2 42 0Z"
              />
            </g>
            <g data-mml-node="mi" transform="translate(861,-150) scale(0.707)">
              <path
                data-c="1D461"
                d="M26 385Q19 392 19 395Q19 399 22 411T27 425Q29 430 36 430T87 431H140L159 511Q162 522 166 540T173 566T179 586T187 603T197 615T211 624T229 626Q247 625 254 615T261 596Q261 589 252 549T232 470L222 433Q222 431 272 431H323Q330 424 330 420Q330 398 317 385H210L174 240Q135 80 135 68Q135 26 162 26Q197 26 230 60T283 144Q285 150 288 151T303 153H307Q322 153 322 145Q322 142 319 133Q314 117 301 95T267 48T216 6T155 -11Q125 -11 98 4T59 56Q57 64 57 83V101L92 241Q127 382 128 383Q128 385 77 385H26Z"
              />
            </g>
          </g>
        </g>
      </g>
    </svg>
  </g>
  <g
    transform="rotate(0, 188.53656185758916, 60.66842524590122)translate(181.53876185758915, 55.623625245901216)"
  >
    <title>`Xt`.labelText</title>
    <svg
      style="font-size: 12px"
      xmlns="http://www.w3.org/2000/svg"
      width="13.9956"
      height="10.0896"
      role="img"
      focusable="false"
      viewBox="0 -683 1166.3 840.8"
    >
      <g
        stroke="none"
        fill="#ffffff"
        stroke-width="0"
        transform="scale(1,-1)"
        fill-opacity="1"
      >
        <g data-mml-node="math">
          <g data-mml-node="msub">
            <g data-mml-node="mi">
              <path
                data-c="1D44B"
                d="M42 0H40Q26 0 26 11Q26 15 29 27Q33 41 36 43T55 46Q141 49 190 98Q200 108 306 224T411 342Q302 620 297 625Q288 636 234 637H206Q200 643 200 645T202 664Q206 677 212 683H226Q260 681 347 681Q380 681 408 681T453 682T473 682Q490 682 490 671Q490 670 488 658Q484 643 481 640T465 637Q434 634 411 620L488 426L541 485Q646 598 646 610Q646 628 622 635Q617 635 609 637Q594 637 594 648Q594 650 596 664Q600 677 606 683H618Q619 683 643 683T697 681T738 680Q828 680 837 683H845Q852 676 852 672Q850 647 840 637H824Q790 636 763 628T722 611T698 593L687 584Q687 585 592 480L505 384Q505 383 536 304T601 142T638 56Q648 47 699 46Q734 46 734 37Q734 35 732 23Q728 7 725 4T711 1Q708 1 678 1T589 2Q528 2 496 2T461 1Q444 1 444 10Q444 11 446 25Q448 35 450 39T455 44T464 46T480 47T506 54Q523 62 523 64Q522 64 476 181L429 299Q241 95 236 84Q232 76 232 72Q232 53 261 47Q262 47 267 47T273 46Q276 46 277 46T280 45T283 42T284 35Q284 26 282 19Q279 6 276 4T261 1Q258 1 243 1T201 2T142 2Q64 2 42 0Z"
              />
            </g>
            <g data-mml-node="mi" transform="translate(861,-150) scale(0.707)">
              <path
                data-c="1D461"
                d="M26 385Q19 392 19 395Q19 399 22 411T27 425Q29 430 36 430T87 431H140L159 511Q162 522 166 540T173 566T179 586T187 603T197 615T211 624T229 626Q247 625 254 615T261 596Q261 589 252 549T232 470L222 433Q222 431 272 431H323Q330 424 330 420Q330 398 317 385H210L174 240Q135 80 135 68Q135 26 162 26Q197 26 230 60T283 144Q285 150 288 151T303 153H307Q322 153 322 145Q322 142 319 133Q314 117 301 95T267 48T216 6T155 -11Q125 -11 98 4T59 56Q57 64 57 83V101L92 241Q127 382 128 383Q128 385 77 385H26Z"
              />
            </g>
          </g>
        </g>
      </g>
    </svg>
  </g>
</svg>
