<svg
  version="1.2"
  xmlns="http://www.w3.org/2000/svg"
  viewBox="0 0 240 200"
  penrose="0"
>
  <penrose>
    <croppedViewBox>
      1.2119781368127178 4.299999999999983 223.48802186318727 199.24900450198487
    </croppedViewBox>
  </penrose>
  <g>
    <line
      x1="17.875638420984046"
      y1="42.35057877216613"
      x2="17.875638420984046"
      y2="42.35057877216613"
      stroke="#000000"
      stroke-opacity="1"
      stroke-width="1"
    />
    <title>`rxy`.icon</title>
  </g>
  <polygon
    fill="#dddddd"
    fill-opacity="1"
    stroke="#aaaaaa"
    stroke-opacity="1"
    stroke-width="1"
    transform="scale(1)"
    points="23,24.700000000000003,9.5,71.2,30.799999999999997,193.1,224.7,184.1,224.7,24.700000000000003,163.8,4.299999999999997,122.9,81.4,148.5,118.4,115.1,144.8,78.8,93.1,124.4,57.7,83.9,9.099999999999994"
  >
    <title>`S`.geometry</title>
  </polygon>
  <g fill="none">
    <line
      x1="17.875638420984046"
      y1="42.35057877216613"
      x2="83.1330203634027"
      y2="89.73620787577948"
      stroke="#000000"
      stroke-opacity="1"
      stroke-width="0.65"
      stroke-dasharray="4,3"
    />
    <title>`rxy`.rayLine</title>
  </g>
  <g>
    <marker
      id="bidirectional__registry-SunflowerDolphin187-`s0`.icon-endArrowId"
      markerUnits="strokeWidth"
      markerWidth="4.98"
      markerHeight="4.06"
      viewBox="0 0 9.95 8.12"
      refX="2.36"
      refY="4.06"
      orient="auto-start-reverse"
    >
      <path
        d="M9.95 4.06 0 8.12 2.36 4.06 0 0 9.95 4.06z"
        fill="#000000"
        fill-opacity="1"
      />
    </marker>
    <line
      x1="115.79897235116995"
      y1="166.24314021141754"
      x2="110.36164529889992"
      y2="156.44581917316162"
      stroke="#000000"
      stroke-opacity="1"
      stroke-width="1"
      marker-end="url(#bidirectional__registry-SunflowerDolphin187-`s0`.icon-endArrowId)"
    />
    <title>`s0`.icon</title>
  </g>
  <g fill="none">
    <line
      x1="115.79897235116995"
      y1="166.24314021141754"
      x2="35.47214558074984"
      y2="21.505164678822695"
      stroke="#000000"
      stroke-opacity="1"
      stroke-width="0.65"
    />
    <title>`s0`.rayLine</title>
  </g>
  <g>
    <marker
      id="bidirectional__registry-SunflowerDolphin187-`r1`.icon-endArrowId"
      markerUnits="strokeWidth"
      markerWidth="4.98"
      markerHeight="4.06"
      viewBox="0 0 9.95 8.12"
      refX="2.36"
      refY="4.06"
      orient="auto-start-reverse"
    >
      <path
        d="M9.95 4.06 0 8.12 2.36 4.06 0 0 9.95 4.06z"
        fill="#000000"
        fill-opacity="1"
      />
    </marker>
    <line
      x1="110.1749100742402"
      y1="189.41575971806003"
      x2="104.21848438643525"
      y2="179.92508004229143"
      stroke="#000000"
      stroke-opacity="1"
      stroke-width="1"
      marker-end="url(#bidirectional__registry-SunflowerDolphin187-`r1`.icon-endArrowId)"
    />
    <title>`r1`.icon</title>
  </g>
  <g fill="none">
    <line
      x1="110.1749100742402"
      y1="189.41575971806003"
      x2="17.875638420984046"
      y2="42.35057877216613"
      stroke="#000000"
      stroke-opacity="1"
      stroke-width="0.65"
    />
    <title>`r1`.rayLine</title>
  </g>
  <circle
    fill="#000000"
    fill-opacity="1"
    cx="92.91563852774347"
    cy="150.28369821239644"
    stroke="none"
    r="2"
  >
    <title>`x0`.icon</title>
  </circle>
  <g>
    <marker
      id="bidirectional__registry-SunflowerDolphin187-`r0`.icon-endArrowId"
      markerUnits="strokeWidth"
      markerWidth="4.98"
      markerHeight="4.06"
      viewBox="0 0 9.95 8.12"
      refX="2.36"
      refY="4.06"
      orient="auto-start-reverse"
    >
      <path
        d="M9.95 4.06 0 8.12 2.36 4.06 0 0 9.95 4.06z"
        fill="#000000"
        fill-opacity="1"
      />
    </marker>
    <line
      x1="92.91563852774347"
      y1="150.28369821239644"
      x2="97.4373583008259"
      y2="160.535823616122"
      stroke="#000000"
      stroke-opacity="1"
      stroke-width="1"
      marker-end="url(#bidirectional__registry-SunflowerDolphin187-`r0`.icon-endArrowId)"
    />
    <title>`r0`.icon</title>
  </g>
  <g fill="none">
    <line
      x1="92.91563852774347"
      y1="150.28369821239644"
      x2="110.1749100742402"
      y2="189.41575971806003"
      stroke="#000000"
      stroke-opacity="1"
      stroke-width="0.65"
    />
    <title>`r0`.rayLine</title>
  </g>
  <g>
    <marker
      id="bidirectional__registry-SunflowerDolphin187-`s1`.icon-endArrowId"
      markerUnits="strokeWidth"
      markerWidth="4.98"
      markerHeight="4.06"
      viewBox="0 0 9.95 8.12"
      refX="2.36"
      refY="4.06"
      orient="auto-start-reverse"
    >
      <path
        d="M9.95 4.06 0 8.12 2.36 4.06 0 0 9.95 4.06z"
        fill="#000000"
        fill-opacity="1"
      />
    </marker>
    <line
      x1="35.47214558074984"
      y1="21.505164678822695"
      x2="41.88867382759547"
      y2="30.69103082126216"
      stroke="#000000"
      stroke-opacity="1"
      stroke-width="1"
      marker-end="url(#bidirectional__registry-SunflowerDolphin187-`s1`.icon-endArrowId)"
    />
    <title>`s1`.icon</title>
  </g>
  <g fill="none">
    <line
      x1="35.47214558074984"
      y1="21.505164678822695"
      x2="83.1330203634027"
      y2="89.73620787577948"
      stroke="#000000"
      stroke-opacity="1"
      stroke-width="0.65"
    />
    <title>`s1`.rayLine</title>
  </g>
  <g>
    <rect
      x="88.11563852774347"
      y="139.55869821239645"
      width="9.600000000000001"
      height="4.95"
      fill="#666666"
      fill-opacity="1"
      stroke="none"
      rx="2"
      transform="rotate(0, 92.91563852774347, 142.03369821239644)"
    >
      <title>10:0:viewfinder</title>
    </rect>
    <rect
      x="83.71563852774347"
      y="140.79619821239643"
      width="2.4000000000000004"
      height="2.475"
      fill="#666666"
      fill-opacity="1"
      stroke="none"
      rx="0"
      transform="rotate(0, 84.91563852774347, 142.03369821239644)"
    >
      <title>10:0:shutterRelease</title>
    </rect>
    <rect
      x="80.91563852774347"
      y="142.03369821239644"
      width="24"
      height="16.5"
      fill="#aaaaaa"
      fill-opacity="1"
      stroke="#666666"
      stroke-opacity="1"
      stroke-width="1"
      rx="2"
      transform="rotate(0, 92.91563852774347, 150.28369821239644)"
    >
      <title>10:0:body</title>
    </rect>
    <circle
      fill="#ffffff"
      fill-opacity="1"
      cx="101.91563852774347"
      cy="145.03369821239644"
      stroke="#666666"
      stroke-opacity="1"
      stroke-width="0.8"
      r="1.155"
    >
      <title>10:0:flash</title>
    </circle>
    <circle
      fill="#cccccc"
      fill-opacity="1"
      cx="92.91563852774347"
      cy="150.28369821239644"
      stroke="#666666"
      stroke-opacity="1"
      stroke-width="1"
      r="6.2700000000000005"
    >
      <title>10:0:outerLens</title>
    </circle>
    <circle
      fill="#227788"
      fill-opacity="1"
      cx="92.91563852774347"
      cy="150.28369821239644"
      stroke="#666666"
      stroke-opacity="1"
      stroke-width="1"
      r="4.125"
    >
      <title>`C`.innerLens</title>
    </circle>
    <title>`C`.icon</title>
  </g>
  <g>
    <marker
      id="bidirectional__registry-SunflowerDolphin187-16:3:normalArrow-endArrowId"
      markerUnits="strokeWidth"
      markerWidth="4.98"
      markerHeight="4.06"
      viewBox="0 0 9.95 8.12"
      refX="2.36"
      refY="4.06"
      orient="auto-start-reverse"
    >
      <path
        d="M9.95 4.06 0 8.12 2.36 4.06 0 0 9.95 4.06z"
        fill="#55aa55"
        fill-opacity="1"
      />
    </marker>
    <line
      x1="83.1330203634027"
      y1="89.73620787577948"
      x2="76.26188285490102"
      y2="80.88525108516717"
      stroke="#55aa55"
      stroke-opacity="1"
      stroke-width="1"
      marker-end="url(#bidirectional__registry-SunflowerDolphin187-16:3:normalArrow-endArrowId)"
    />
    <title>16:3:normalArrow</title>
  </g>
  <circle
    fill="#000000"
    fill-opacity="1"
    cx="83.1330203634027"
    cy="89.73620787577948"
    stroke="none"
    r="2"
  >
    <title>`y2`.icon</title>
  </circle>
  <g
    transform="rotate(0, 89.26522733495909, 97.6353219408352)translate(82.7790273349591, 93.1063219408352)"
    paint-order="stroke"
    stroke-linejoin="round"
    strokeColor="#ffffff"
    stroke-width="2.5"
  >
    <title>`y2`.labelText</title>
    <svg
      style="font-size: 14px"
      xmlns="http://www.w3.org/2000/svg"
      width="12.9724"
      height="9.058"
      role="img"
      focusable="false"
      viewBox="0 -442 926.6 647"
    >
      <g
        stroke="none"
        fill="#000000"
        stroke-width="0"
        transform="scale(1,-1)"
        fill-opacity="1"
      >
        <g data-mml-node="math">
          <g data-mml-node="msub">
            <g data-mml-node="mi">
              <path
                data-c="1D466"
                d="M21 287Q21 301 36 335T84 406T158 442Q199 442 224 419T250 355Q248 336 247 334Q247 331 231 288T198 191T182 105Q182 62 196 45T238 27Q261 27 281 38T312 61T339 94Q339 95 344 114T358 173T377 247Q415 397 419 404Q432 431 462 431Q475 431 483 424T494 412T496 403Q496 390 447 193T391 -23Q363 -106 294 -155T156 -205Q111 -205 77 -183T43 -117Q43 -95 50 -80T69 -58T89 -48T106 -45Q150 -45 150 -87Q150 -107 138 -122T115 -142T102 -147L99 -148Q101 -153 118 -160T152 -167H160Q177 -167 186 -165Q219 -156 247 -127T290 -65T313 -9T321 21L315 17Q309 13 296 6T270 -6Q250 -11 231 -11Q185 -11 150 11T104 82Q103 89 103 113Q103 170 138 262T173 379Q173 380 173 381Q173 390 173 393T169 400T158 404H154Q131 404 112 385T82 344T65 302T57 280Q55 278 41 278H27Q21 284 21 287Z"
              />
            </g>
            <g data-mml-node="mn" transform="translate(523,-150) scale(0.707)">
              <path
                data-c="32"
                d="M109 429Q82 429 66 447T50 491Q50 562 103 614T235 666Q326 666 387 610T449 465Q449 422 429 383T381 315T301 241Q265 210 201 149L142 93L218 92Q375 92 385 97Q392 99 409 186V189H449V186Q448 183 436 95T421 3V0H50V19V31Q50 38 56 46T86 81Q115 113 136 137Q145 147 170 174T204 211T233 244T261 278T284 308T305 340T320 369T333 401T340 431T343 464Q343 527 309 573T212 619Q179 619 154 602T119 569T109 550Q109 549 114 549Q132 549 151 535T170 489Q170 464 154 447T109 429Z"
              />
            </g>
          </g>
        </g>
      </g>
    </svg>
  </g>
  <circle
    fill="#000000"
    fill-opacity="1"
    cx="115.79897235116995"
    cy="166.24314021141754"
    stroke="none"
    r="2"
  >
    <title>`y0`.icon</title>
  </circle>
  <g
    transform="rotate(0, 115.79897235116995, 166.24314021141754)translate(102.29897235116995, 145.74314021141754)"
  >
    <!--?xml version="1.0" encoding="utf-8"?--><!--Generator: Adobe Illustrator 27.2.0, SVG Export Plug-In . SVG Version: 6.00 Build 0)--><svg
      version="1.1"
      id="bidirectional__Layer_1--inject-76"
      xmlns="http://www.w3.org/2000/svg"
      xmlns:xlink="http://www.w3.org/1999/xlink"
      x="0px"
      y="0px"
      viewBox="0 0 24 35"
      style="enable-background: new 0 0 24 35"
      xml:space="preserve"
      width="27"
      height="41"
      preserveAspectRatio=""
    >
      <style type="text/css">
        .bidirectional__st1 {
          fill: none;
          stroke: #ff4800;
          stroke-width: 0.5;
          stroke-miterlimit: 10;
        }
        .bidirectional__st2 {
          fill: url(#bidirectional__SVGID_00000018935483706378349460000013208435196869131452_--inject-76);
          stroke: #7268ad;
          stroke-width: 0.5;
          stroke-miterlimit: 10;
        }
        .bidirectional__st3 {
          fill: url(#bidirectional__SVGID_00000078003197397473630540000010183348844872727683_--inject-76);
          stroke: #7268ad;
          stroke-width: 0.5;
          stroke-miterlimit: 10;
        }
        .bidirectional__st4 {
          fill: url(#bidirectional__SVGID_00000029035955789647268990000012886445163362957962_--inject-76);
          stroke: #7268ad;
          stroke-width: 0.5;
          stroke-miterlimit: 10;
        }
        .bidirectional__st5 {
          fill: url(#bidirectional__SVGID_00000042701746379068522330000008319387606643851198_--inject-76);
          stroke: #7268ad;
          stroke-width: 0.5;
          stroke-miterlimit: 10;
        }
        .bidirectional__st6 {
          fill: url(#bidirectional__SVGID_00000024003511866000973270000016641126527330055306_--inject-76);
          stroke: #7268ad;
          stroke-width: 0.5;
          stroke-miterlimit: 10;
        }
        .bidirectional__st7 {
          fill: #ff6600;
        }
      </style>
      <radialGradient
        id="bidirectional__SVGID_1_--inject-76"
        cx="13.9983"
        cy="9.3041"
        r="14.2367"
        gradientUnits="userSpaceOnUse"
      >
        <stop offset="0" style="stop-color: #ffe7b8" />
        <stop offset="2.577424e-03" style="stop-color: #ffe7b7" />
        <stop offset="0.1958" style="stop-color: #ffd480" />
        <stop offset="0.3838" style="stop-color: #ffc552" />
        <stop offset="0.5624" style="stop-color: #ffb92e" />
        <stop offset="0.7293" style="stop-color: #ffb115" />
        <stop offset="0.8799" style="stop-color: #ffac05" />
        <stop offset="1" style="stop-color: #ffaa00" />
      </radialGradient>
      <path
        d="M15.5,29c0,0,0-3.9,0-7s3.7-8.1,3.5-11c-0.3-3.2-2.9-5.9-6.2-6.3c-0.3,0-1.3,0-1.6,0C8,5.2,5.4,7.8,5,11
	C4.7,13.9,8.5,19,8.5,22s0,7,0,7H15.5z"
        style="
          fill: url(#bidirectional__SVGID_1_--inject-76);
          stroke: #ff6600;
          stroke-width: 0.7013;
          stroke-miterlimit: 10;
        "
      />
      <path
        class="bidirectional__st1"
        d="M12,26.2c0,0,0-2.3,0-6.2s-2.8-7.4-2.2-8.4c0.6-1,2.2-0.7,2.2,0.5s0,7.9,0,7.9"
      />
      <path
        class="bidirectional__st1"
        d="M12,26.2c0,0,0-2.3,0-6.2s2.8-7.4,2.2-8.4c-0.6-1-2.2-0.7-2.2,0.5s0,7.9,0,7.9"
      />
      <g>
        <linearGradient
          id="bidirectional__SVGID_00000089563940588869822530000016603780972814762650_--inject-76"
          gradientUnits="userSpaceOnUse"
          x1="12.369"
          y1="25.3749"
          x2="11.6062"
          y2="34.021"
        >
          <stop offset="0" style="stop-color: #b5e2ff" />
          <stop offset="1" style="stop-color: #5a77ad" />
        </linearGradient>
        <rect
          x="8"
          y="24.5"
          style="
            fill: url(#bidirectional__SVGID_00000089563940588869822530000016603780972814762650_--inject-76);
            stroke: #7268ad;
            stroke-width: 0.5;
            stroke-miterlimit: 10;
          "
          width="8.1"
          height="10.1"
        />
        <linearGradient
          id="bidirectional__SVGID_00000130627870975031971840000012476769343880697790_--inject-76"
          gradientUnits="userSpaceOnUse"
          x1="12.0897"
          y1="25.1835"
          x2="11.9032"
          y2="27.2975"
        >
          <stop offset="0" style="stop-color: #b5e2ff" />
          <stop offset="1" style="stop-color: #5a77ad" />
        </linearGradient>
        <path
          style="
            fill: url(#bidirectional__SVGID_00000130627870975031971840000012476769343880697790_--inject-76);
            stroke: #7268ad;
            stroke-width: 0.5;
            stroke-miterlimit: 10;
          "
          d="
		M8,24.5l4,0.6l4,0.6c0,0,0.4,0.6,0.4,1.1c0,0.6-0.4,1.1-0.4,1.1l-4-0.6l-4-0.6c0,0-0.4-0.6-0.4-1.1S8,24.5,8,24.5z"
        />
        <linearGradient
          id="bidirectional__SVGID_00000121984210716788000840000003981854337940660669_--inject-76"
          gradientUnits="userSpaceOnUse"
          x1="12.0897"
          y1="27.4218"
          x2="11.9032"
          y2="29.5358"
        >
          <stop offset="0" style="stop-color: #b5e2ff" />
          <stop offset="1" style="stop-color: #5a77ad" />
        </linearGradient>
        <path
          style="
            fill: url(#bidirectional__SVGID_00000121984210716788000840000003981854337940660669_--inject-76);
            stroke: #7268ad;
            stroke-width: 0.5;
            stroke-miterlimit: 10;
          "
          d="
		M8,26.8l4,0.6l4,0.6c0,0,0.4,0.6,0.4,1.1S16,30.1,16,30.1l-4-0.6L8,29c0,0-0.4-0.6-0.4-1.1C7.6,27.3,8,26.8,8,26.8z"
        />
        <linearGradient
          id="bidirectional__SVGID_00000125584911409238479950000009050297073157801887_--inject-76"
          gradientUnits="userSpaceOnUse"
          x1="12.0897"
          y1="29.6602"
          x2="11.9032"
          y2="31.7742"
        >
          <stop offset="0" style="stop-color: #b5e2ff" />
          <stop offset="1" style="stop-color: #5a77ad" />
        </linearGradient>
        <path
          style="
            fill: url(#bidirectional__SVGID_00000125584911409238479950000009050297073157801887_--inject-76);
            stroke: #7268ad;
            stroke-width: 0.5;
            stroke-miterlimit: 10;
          "
          d="
		M8,29l4,0.6l4,0.6c0,0,0.4,0.6,0.4,1.1c0,0.6-0.4,1.1-0.4,1.1l-4-0.6l-4-0.6c0,0-0.4-0.6-0.4-1.1S8,29,8,29z"
        />
        <linearGradient
          id="bidirectional__SVGID_00000020379778380040063200000009621109186709514122_--inject-76"
          gradientUnits="userSpaceOnUse"
          x1="12.0897"
          y1="31.8985"
          x2="11.9032"
          y2="34.0125"
        >
          <stop offset="0" style="stop-color: #b5e2ff" />
          <stop offset="1" style="stop-color: #5a77ad" />
        </linearGradient>
        <path
          style="
            fill: url(#bidirectional__SVGID_00000020379778380040063200000009621109186709514122_--inject-76);
            stroke: #7268ad;
            stroke-width: 0.5;
            stroke-miterlimit: 10;
          "
          d="
		M8,31.2l4,0.6l4,0.6c0,0,0.4,0.6,0.4,1.1c0,0.6-0.4,1.1-0.4,1.1L12,34l-4-0.6c0,0-0.4-0.6-0.4-1.1S8,31.2,8,31.2z"
        />
      </g>
      <path
        class="bidirectional__st7"
        d="M6.7,18.7l0.2,0.5l-3.7,1.2L6.7,18.7z"
      />
      <path
        class="bidirectional__st7"
        d="M5.2,15.1l0.2,0.5l-3.7,1.3L5.2,15.1z"
      />
      <path class="bidirectional__st7" d="M4.2,11.3l0,0.5l-3.9-0.2L4.2,11.3z" />
      <path class="bidirectional__st7" d="M5.4,7.5L5.2,7.9L2,5.7L5.4,7.5z" />
      <path class="bidirectional__st7" d="M8.4,4.9L7.9,5.1L6.2,1.6L8.4,4.9z" />
      <path class="bidirectional__st7" d="M12.2,4l-0.5,0l0.2-3.9L12.2,4z" />
      <path class="bidirectional__st7" d="M16,5.1l-0.5-0.3l2.1-3.3L16,5.1z" />
      <path
        class="bidirectional__st7"
        d="M18.8,7.8l-0.3-0.4L22,5.6L18.8,7.8z"
      />
      <path
        class="bidirectional__st7"
        d="M19.8,11.7l0-0.5l3.9,0.3L19.8,11.7z"
      />
      <path
        class="bidirectional__st7"
        d="M18.7,15.5l0.2-0.5l3.5,1.7L18.7,15.5z"
      />
      <path
        class="bidirectional__st7"
        d="M17.1,19.1l0.2-0.5l3.5,1.7L17.1,19.1z"
      />
    </svg>
    <title>`L`.icon</title>
  </g>
  <g>
    <marker
      id="bidirectional__registry-SunflowerDolphin187-16:0:normalArrow-endArrowId"
      markerUnits="strokeWidth"
      markerWidth="4.98"
      markerHeight="4.06"
      viewBox="0 0 9.95 8.12"
      refX="2.36"
      refY="4.06"
      orient="auto-start-reverse"
    >
      <path
        d="M9.95 4.06 0 8.12 2.36 4.06 0 0 9.95 4.06z"
        fill="#55aa55"
        fill-opacity="1"
      />
    </marker>
    <line
      x1="110.1749100742402"
      y1="189.41575971806003"
      x2="109.65538177477758"
      y2="178.22281113297095"
      stroke="#55aa55"
      stroke-opacity="1"
      stroke-width="1"
      marker-end="url(#bidirectional__registry-SunflowerDolphin187-16:0:normalArrow-endArrowId)"
    />
    <title>16:0:normalArrow</title>
  </g>
  <circle
    fill="#000000"
    fill-opacity="1"
    cx="110.1749100742402"
    cy="189.41575971806003"
    stroke="none"
    r="2"
  >
    <title>`x1`.icon</title>
  </circle>
  <g
    transform="rotate(0, 110.63856764543836, 199.40500450198485)translate(103.57836764543836, 195.26100450198484)"
    paint-order="stroke"
    stroke-linejoin="round"
    strokeColor="#ffffff"
    stroke-width="2.5"
  >
    <title>`x1`.labelText</title>
    <svg
      style="font-size: 14px"
      xmlns="http://www.w3.org/2000/svg"
      width="14.1204"
      height="8.288"
      role="img"
      focusable="false"
      viewBox="0 -442 1008.6 592"
    >
      <g
        stroke="none"
        fill="#000000"
        stroke-width="0"
        transform="scale(1,-1)"
        fill-opacity="1"
      >
        <g data-mml-node="math">
          <g data-mml-node="msub">
            <g data-mml-node="mi">
              <path
                data-c="1D465"
                d="M52 289Q59 331 106 386T222 442Q257 442 286 424T329 379Q371 442 430 442Q467 442 494 420T522 361Q522 332 508 314T481 292T458 288Q439 288 427 299T415 328Q415 374 465 391Q454 404 425 404Q412 404 406 402Q368 386 350 336Q290 115 290 78Q290 50 306 38T341 26Q378 26 414 59T463 140Q466 150 469 151T485 153H489Q504 153 504 145Q504 144 502 134Q486 77 440 33T333 -11Q263 -11 227 52Q186 -10 133 -10H127Q78 -10 57 16T35 71Q35 103 54 123T99 143Q142 143 142 101Q142 81 130 66T107 46T94 41L91 40Q91 39 97 36T113 29T132 26Q168 26 194 71Q203 87 217 139T245 247T261 313Q266 340 266 352Q266 380 251 392T217 404Q177 404 142 372T93 290Q91 281 88 280T72 278H58Q52 284 52 289Z"
              />
            </g>
            <g data-mml-node="mn" transform="translate(605,-150) scale(0.707)">
              <path
                data-c="31"
                d="M213 578L200 573Q186 568 160 563T102 556H83V602H102Q149 604 189 617T245 641T273 663Q275 666 285 666Q294 666 302 660V361L303 61Q310 54 315 52T339 48T401 46H427V0H416Q395 3 257 3Q121 3 100 0H88V46H114Q136 46 152 46T177 47T193 50T201 52T207 57T213 61V578Z"
              />
            </g>
          </g>
        </g>
      </g>
    </svg>
  </g>
  <text
    fill="#ff0000"
    fill-opacity="0"
    stroke="#ffffff"
    stroke-opacity="0"
    stroke-width="2"
    transform="rotate(0, 83.1330203634027, 89.73620787577948)"
    style="font: 18px sans-serif"
    x="83.1330203634027"
    y="95.23620787577948"
    width="15"
    height="11"
    font-size-adjust=""
    alignment-baseline="alphabetic"
    dominant-baseline="alphabetic"
    ascent="11"
    descent="0"
    text-anchor="middle"
    visibility=""
    paint-order="stroke"
  >
    <title>18:0:notVisible</title>
    ×
  </text>
  <g>
    <marker
      id="bidirectional__registry-SunflowerDolphin187-16:1:normalArrow-endArrowId"
      markerUnits="strokeWidth"
      markerWidth="4.98"
      markerHeight="4.06"
      viewBox="0 0 9.95 8.12"
      refX="2.36"
      refY="4.06"
      orient="auto-start-reverse"
    >
      <path
        d="M9.95 4.06 0 8.12 2.36 4.06 0 0 9.95 4.06z"
        fill="#55aa55"
        fill-opacity="1"
      />
    </marker>
    <line
      x1="17.875638420984046"
      y1="42.35057877216613"
      x2="28.63631491671103"
      y2="45.474646141893324"
      stroke="#55aa55"
      stroke-opacity="1"
      stroke-width="1"
      marker-end="url(#bidirectional__registry-SunflowerDolphin187-16:1:normalArrow-endArrowId)"
    />
    <title>16:1:normalArrow</title>
  </g>
  <circle
    fill="#000000"
    fill-opacity="1"
    cx="17.875638420984046"
    cy="42.35057877216613"
    stroke="none"
    r="2"
  >
    <title>`x2`.icon</title>
  </circle>
  <g
    transform="rotate(0, 8.272178136812727, 39.5624773993422)translate(1.2119781368127267, 35.4184773993422)"
    paint-order="stroke"
    stroke-linejoin="round"
    strokeColor="#ffffff"
    stroke-width="2.5"
  >
    <title>`x2`.labelText</title>
    <svg
      style="font-size: 14px"
      xmlns="http://www.w3.org/2000/svg"
      width="14.1204"
      height="8.288"
      role="img"
      focusable="false"
      viewBox="0 -442 1008.6 592"
    >
      <g
        stroke="none"
        fill="#000000"
        stroke-width="0"
        transform="scale(1,-1)"
        fill-opacity="1"
      >
        <g data-mml-node="math">
          <g data-mml-node="msub">
            <g data-mml-node="mi">
              <path
                data-c="1D465"
                d="M52 289Q59 331 106 386T222 442Q257 442 286 424T329 379Q371 442 430 442Q467 442 494 420T522 361Q522 332 508 314T481 292T458 288Q439 288 427 299T415 328Q415 374 465 391Q454 404 425 404Q412 404 406 402Q368 386 350 336Q290 115 290 78Q290 50 306 38T341 26Q378 26 414 59T463 140Q466 150 469 151T485 153H489Q504 153 504 145Q504 144 502 134Q486 77 440 33T333 -11Q263 -11 227 52Q186 -10 133 -10H127Q78 -10 57 16T35 71Q35 103 54 123T99 143Q142 143 142 101Q142 81 130 66T107 46T94 41L91 40Q91 39 97 36T113 29T132 26Q168 26 194 71Q203 87 217 139T245 247T261 313Q266 340 266 352Q266 380 251 392T217 404Q177 404 142 372T93 290Q91 281 88 280T72 278H58Q52 284 52 289Z"
              />
            </g>
            <g data-mml-node="mn" transform="translate(605,-150) scale(0.707)">
              <path
                data-c="32"
                d="M109 429Q82 429 66 447T50 491Q50 562 103 614T235 666Q326 666 387 610T449 465Q449 422 429 383T381 315T301 241Q265 210 201 149L142 93L218 92Q375 92 385 97Q392 99 409 186V189H449V186Q448 183 436 95T421 3V0H50V19V31Q50 38 56 46T86 81Q115 113 136 137Q145 147 170 174T204 211T233 244T261 278T284 308T305 340T320 369T333 401T340 431T343 464Q343 527 309 573T212 619Q179 619 154 602T119 569T109 550Q109 549 114 549Q132 549 151 535T170 489Q170 464 154 447T109 429Z"
              />
            </g>
          </g>
        </g>
      </g>
    </svg>
  </g>
  <g>
    <marker
      id="bidirectional__registry-SunflowerDolphin187-16:2:normalArrow-endArrowId"
      markerUnits="strokeWidth"
      markerWidth="4.98"
      markerHeight="4.06"
      viewBox="0 0 9.95 8.12"
      refX="2.36"
      refY="4.06"
      orient="auto-start-reverse"
    >
      <path
        d="M9.95 4.06 0 8.12 2.36 4.06 0 0 9.95 4.06z"
        fill="#55aa55"
        fill-opacity="1"
      />
    </marker>
    <line
      x1="35.47214558074984"
      y1="21.505164678822695"
      x2="38.25261778660014"
      y2="32.35970040550754"
      stroke="#55aa55"
      stroke-opacity="1"
      stroke-width="1"
      marker-end="url(#bidirectional__registry-SunflowerDolphin187-16:2:normalArrow-endArrowId)"
    />
    <title>16:2:normalArrow</title>
  </g>
  <circle
    fill="#000000"
    fill-opacity="1"
    cx="35.47214558074984"
    cy="21.505164678822695"
    stroke="none"
    r="2"
  >
    <title>`y1`.icon</title>
  </circle>
  <g
    transform="rotate(0, 32.990688770712836, 11.817939055024382)translate(26.504488770712836, 7.288939055024382)"
    paint-order="stroke"
    stroke-linejoin="round"
    strokeColor="#ffffff"
    stroke-width="2.5"
  >
    <title>`y1`.labelText</title>
    <svg
      style="font-size: 14px"
      xmlns="http://www.w3.org/2000/svg"
      width="12.9724"
      height="9.058"
      role="img"
      focusable="false"
      viewBox="0 -442 926.6 647"
    >
      <g
        stroke="none"
        fill="#000000"
        stroke-width="0"
        transform="scale(1,-1)"
        fill-opacity="1"
      >
        <g data-mml-node="math">
          <g data-mml-node="msub">
            <g data-mml-node="mi">
              <path
                data-c="1D466"
                d="M21 287Q21 301 36 335T84 406T158 442Q199 442 224 419T250 355Q248 336 247 334Q247 331 231 288T198 191T182 105Q182 62 196 45T238 27Q261 27 281 38T312 61T339 94Q339 95 344 114T358 173T377 247Q415 397 419 404Q432 431 462 431Q475 431 483 424T494 412T496 403Q496 390 447 193T391 -23Q363 -106 294 -155T156 -205Q111 -205 77 -183T43 -117Q43 -95 50 -80T69 -58T89 -48T106 -45Q150 -45 150 -87Q150 -107 138 -122T115 -142T102 -147L99 -148Q101 -153 118 -160T152 -167H160Q177 -167 186 -165Q219 -156 247 -127T290 -65T313 -9T321 21L315 17Q309 13 296 6T270 -6Q250 -11 231 -11Q185 -11 150 11T104 82Q103 89 103 113Q103 170 138 262T173 379Q173 380 173 381Q173 390 173 393T169 400T158 404H154Q131 404 112 385T82 344T65 302T57 280Q55 278 41 278H27Q21 284 21 287Z"
              />
            </g>
            <g data-mml-node="mn" transform="translate(523,-150) scale(0.707)">
              <path
                data-c="31"
                d="M213 578L200 573Q186 568 160 563T102 556H83V602H102Q149 604 189 617T245 641T273 663Q275 666 285 666Q294 666 302 660V361L303 61Q310 54 315 52T339 48T401 46H427V0H416Q395 3 257 3Q121 3 100 0H88V46H114Q136 46 152 46T177 47T193 50T201 52T207 57T213 61V578Z"
              />
            </g>
          </g>
        </g>
      </g>
    </svg>
  </g>
</svg>
