<?xml version="1.0" encoding="UTF-8"?>
<svg xmlns="http://www.w3.org/2000/svg" xmlns:xlink="http://www.w3.org/1999/xlink" width="9pt" height="37pt" viewBox="0 0 9 37" version="1.1">
<g style="fill:rgb(0%,0%,0%);fill-opacity:1;">
    <path style="stroke:none;" d="M 11.875 8.609375 C 11.875 8.5 11.875 8.421875 11.265625 7.8125 C 6.78125 3.296875 5.625 -3.484375 5.625 -8.96875 C 5.625 -15.203125 7 -21.4375 11.40625 -25.921875 C 11.875 -26.359375 11.875 -26.421875 11.875 -26.53125 C 11.875 -26.78125 11.71875 -26.890625 11.515625 -26.890625 C 11.15625 -26.890625 7.921875 -24.453125 5.8125 -19.90625 C 3.984375 -15.953125 3.546875 -11.984375 3.546875 -8.96875 C 3.546875 -6.171875 3.9375 -1.828125 5.921875 2.21875 C 8.0625 6.640625 11.15625 8.96875 11.515625 8.96875 C 11.71875 8.96875 11.875 8.859375 11.875 8.609375 Z M 11.875 8.609375 " x="-3.1788" y="27.6482"/>
</g>
</svg>
