<svg
  version="1.2"
  xmlns="http://www.w3.org/2000/svg"
  viewBox="0 0 600 600"
  penrose="0"
>
  <penrose><croppedViewBox>0 0 600 600</croppedViewBox></penrose>
  <rect
    x="0"
    y="0"
    width="600"
    height="600"
    fill="#e6ffe6"
    fill-opacity="1"
    stroke="none"
    rx="0"
    transform="rotate(0, 300, 300)"
  >
    <title>global.background</title>
  </rect>
  <rect
    x="3.1585674368401513"
    y="79.97258911674359"
    width="5.1088205029935665"
    height="29.99976316084071"
    fill="#a5cc00"
    fill-opacity="1"
    stroke="none"
    rx="0"
    transform="rotate(0, 5.7129776883369345, 94.97247069716394)"
  >
    <title>`p_13`.rect</title>
  </rect>
  <rect
    x="384.25830187130236"
    y="171.79497760425124"
    width="22.636517188886796"
    height="22.718726292995797"
    fill="#cc0012"
    fill-opacity="1"
    stroke="none"
    rx="0"
    transform="rotate(0, 395.5765604657458, 183.15434075074916)"
  >
    <title>`p_18`.rect</title>
  </rect>
  <rect
    x="60.44464349559095"
    y="146.0365453398592"
    width="10.905375116339144"
    height="29.292520345475115"
    fill="#90cc00"
    fill-opacity="1"
    stroke="none"
    rx="0"
    transform="rotate(0, 65.89733105376052, 160.68280551259676)"
  >
    <title>`p_10`.rect</title>
  </rect>
  <rect
    x="546.5066320474235"
    y="489.38193271795694"
    width="29.99996994171278"
    height="5.0387674277883585"
    fill="#cc8600"
    fill-opacity="1"
    stroke="none"
    rx="0"
    transform="rotate(0, 561.5066170182799, 491.9013164318511)"
  >
    <title>`p_19`.rect</title>
  </rect>
  <rect
    x="329.2507078986415"
    y="507.24920786321184"
    width="29.072794025721812"
    height="11.745412351752279"
    fill="#a300cc"
    fill-opacity="1"
    stroke="none"
    rx="0"
    transform="rotate(0, 343.7871049115024, 513.121914039088)"
  >
    <title>`p_2`.rect</title>
  </rect>
  <rect
    x="376.4465024937947"
    y="246.54121012951563"
    width="24.799702369535865"
    height="20.263413316745236"
    fill="#cc00ab"
    fill-opacity="1"
    stroke="none"
    rx="0"
    transform="rotate(0, 388.84635367856265, 256.67291678788825)"
  >
    <title>`p_11`.rect</title>
  </rect>
  <rect
    x="234.31075699710377"
    y="147.0374334454212"
    width="17.35583821988737"
    height="26.733229439822573"
    fill="#000ecc"
    fill-opacity="1"
    stroke="none"
    rx="0"
    transform="rotate(0, 242.98867610704744, 160.40404816533248)"
  >
    <title>`p_6`.rect</title>
  </rect>
  <rect
    x="163.41457215454622"
    y="14.969534423953675"
    width="7.115482819030656"
    height="29.91033384847313"
    fill="#0056cc"
    fill-opacity="1"
    stroke="none"
    rx="0"
    transform="rotate(0, 166.97231356406155, 29.92470134819024)"
  >
    <title>`p_4`.rect</title>
  </rect>
  <rect
    x="259.7382114438204"
    y="313.54304831969426"
    width="24.280849453601288"
    height="20.913794153110153"
    fill="#00cc7b"
    fill-opacity="1"
    stroke="none"
    rx="0"
    transform="rotate(0, 271.878636170621, 323.99994539624936)"
  >
    <title>`p_5`.rect</title>
  </rect>
  <rect
    x="134.0005782855174"
    y="75.79389058789181"
    width="10.33338977896841"
    height="29.424474476753748"
    fill="#009fcc"
    fill-opacity="1"
    stroke="none"
    rx="0"
    transform="rotate(0, 139.1672731750016, 90.50612782626868)"
  >
    <title>`p_12`.rect</title>
  </rect>
  <rect
    x="112.37236177522219"
    y="0.005535381467586475"
    width="7.137222977403585"
    height="29.908478033490088"
    fill="#2b00cc"
    fill-opacity="1"
    stroke="none"
    rx="0"
    transform="rotate(0, 115.94097326392398, 14.95977439821263)"
  >
    <title>`p_14`.rect</title>
  </rect>
  <rect
    x="148.2410012827282"
    y="235.19297813087815"
    width="18.775357956273005"
    height="25.862394713372336"
    fill="#56cc00"
    fill-opacity="1"
    stroke="none"
    rx="0"
    transform="rotate(0, 157.6286802608647, 248.12417548756432)"
  >
    <title>`p_17`.rect</title>
  </rect>
  <rect
    x="303.1219126388385"
    y="236.1810323072358"
    width="23.315030152145127"
    height="22.016452936085557"
    fill="#1700cc"
    fill-opacity="1"
    stroke="none"
    rx="0"
    transform="rotate(0, 314.7794277149111, 247.18925877527857)"
  >
    <title>`p_9`.rect</title>
  </rect>
  <rect
    x="92.26141552297071"
    y="279.98784473574426"
    width="18.82676485730502"
    height="25.828359838950234"
    fill="#cc5a00"
    fill-opacity="1"
    stroke="none"
    rx="0"
    transform="rotate(0, 101.67479795162322, 292.9020246552194)"
  >
    <title>`p_0`.rect</title>
  </rect>
  <rect
    x="164.74516604988742"
    y="331.0360179499969"
    width="23.087940653108532"
    height="22.257647665009962"
    fill="#b2cc00"
    fill-opacity="1"
    stroke="none"
    rx="0"
    transform="rotate(0, 176.2891363764417, 342.16484178250187)"
  >
    <title>`p_1`.rect</title>
  </rect>
  <rect
    x="456.3009946508779"
    y="436.9476678733106"
    width="29.436173996906916"
    height="10.279526531128546"
    fill="#78cc00"
    fill-opacity="1"
    stroke="none"
    rx="0"
    transform="rotate(0, 471.0190816493314, 442.0874311388749)"
  >
    <title>`p_15`.rect</title>
  </rect>
  <rect
    x="198.69187633920214"
    y="289.90858000207766"
    width="22.912192058134664"
    height="22.439993568591056"
    fill="#44cc00"
    fill-opacity="1"
    stroke="none"
    rx="0"
    transform="rotate(0, 210.14797236826948, 301.1285767863732)"
  >
    <title>`p_7`.rect</title>
  </rect>
  <rect
    x="332.4923846210133"
    y="590.699874433855"
    width="29.62949988852522"
    height="9.288092261266776"
    fill="#cc001e"
    fill-opacity="1"
    stroke="none"
    rx="0"
    transform="rotate(0, 347.3071345652759, 595.3439205644884)"
  >
    <title>`p_16`.rect</title>
  </rect>
  <rect
    x="329.33129888492687"
    y="383.8230563052643"
    width="27.823840701571225"
    height="15.201582996246255"
    fill="#00cc6c"
    fill-opacity="1"
    stroke="none"
    rx="0"
    transform="rotate(0, 343.2432192357125, 391.4238478033874)"
  >
    <title>`p_8`.rect</title>
  </rect>
  <rect
    x="204.33166867347094"
    y="80.78702349990326"
    width="13.194054340164863"
    height="28.61900661480972"
    fill="#1b00cc"
    fill-opacity="1"
    stroke="none"
    rx="0"
    transform="rotate(0, 210.92869584355338, 95.09652680730812)"
  >
    <title>`p_3`.rect</title>
  </rect>
</svg>
