<svg
  version="1.2"
  xmlns="http://www.w3.org/2000/svg"
  viewBox="0 0 600 600"
  penrose="0"
>
  <penrose><croppedViewBox>0 0 600 600</croppedViewBox></penrose>
  <rect
    x="0"
    y="0"
    width="600"
    height="600"
    fill="#e6ffe6"
    fill-opacity="1"
    stroke="none"
    rx="0"
    transform="rotate(0, 300, 300)"
  >
    <title>global.background</title>
  </rect>
  <rect
    x="13.125699134658198"
    y="75.95137017537331"
    width="5.1088205029935665"
    height="29.99976316084071"
    fill="#a5cc00"
    fill-opacity="1"
    stroke="none"
    rx="0"
    transform="rotate(0, 15.680109386154982, 90.95125175579366)"
  >
    <title>`p13`.rect</title>
  </rect>
  <rect
    x="382.59067637087685"
    y="160.06808158601103"
    width="22.636517188886796"
    height="22.718726292995797"
    fill="#cc0012"
    fill-opacity="1"
    stroke="none"
    rx="0"
    transform="rotate(0, 393.90893496532027, 171.42744473250895)"
  >
    <title>`p18`.rect</title>
  </rect>
  <rect
    x="67.09775715430351"
    y="141.76478513249492"
    width="10.905375116339144"
    height="29.292520345475115"
    fill="#90cc00"
    fill-opacity="1"
    stroke="none"
    rx="0"
    transform="rotate(0, 72.55044471247308, 156.41104530523248)"
  >
    <title>`p10`.rect</title>
  </rect>
  <rect
    x="544.9137083001085"
    y="463.62262016673475"
    width="29.99996994171278"
    height="5.0387674277883585"
    fill="#cc8600"
    fill-opacity="1"
    stroke="none"
    rx="0"
    transform="rotate(0, 559.9136932709649, 466.1420038806289)"
  >
    <title>`p19`.rect</title>
  </rect>
  <rect
    x="335.6419937458247"
    y="485.35706774864013"
    width="29.072794025721812"
    height="11.745412351752279"
    fill="#a300cc"
    fill-opacity="1"
    stroke="none"
    rx="0"
    transform="rotate(0, 350.1783907586856, 491.2297739245163)"
  >
    <title>`p02`.rect</title>
  </rect>
  <rect
    x="376.18096479740666"
    y="232.39762178843262"
    width="24.799702369535865"
    height="20.263413316745236"
    fill="#cc00ab"
    fill-opacity="1"
    stroke="none"
    rx="0"
    transform="rotate(0, 388.5808159821746, 242.52932844680524)"
  >
    <title>`p11`.rect</title>
  </rect>
  <rect
    x="237.1391835937515"
    y="138.00893102372507"
    width="17.35583821988737"
    height="26.733229439822573"
    fill="#000ecc"
    fill-opacity="1"
    stroke="none"
    rx="0"
    transform="rotate(0, 245.81710270369518, 151.37554574363637)"
  >
    <title>`p06`.rect</title>
  </rect>
  <rect
    x="119.81103710519872"
    y="21.401971159874094"
    width="7.115482819030656"
    height="29.91033384847313"
    fill="#0056cc"
    fill-opacity="1"
    stroke="none"
    rx="0"
    transform="rotate(0, 123.36877851471405, 36.35713808411066)"
  >
    <title>`p04`.rect</title>
  </rect>
  <rect
    x="264.8427442946788"
    y="299.17818680388825"
    width="24.280849453601288"
    height="20.913794153110153"
    fill="#00cc7b"
    fill-opacity="1"
    stroke="none"
    rx="0"
    transform="rotate(0, 276.98316902147945, 309.63508388044335)"
  >
    <title>`p05`.rect</title>
  </rect>
  <rect
    x="141.73856734331434"
    y="77.36664349063102"
    width="10.33338977896841"
    height="29.424474476753748"
    fill="#009fcc"
    fill-opacity="1"
    stroke="none"
    rx="0"
    transform="rotate(0, 146.90526223279855, 92.07888072900789)"
  >
    <title>`p12`.rect</title>
  </rect>
  <rect
    x="170.67216334883264"
    y="0.000006488628605083591"
    width="7.137222977403585"
    height="29.908478033490088"
    fill="#2b00cc"
    fill-opacity="1"
    stroke="none"
    rx="0"
    transform="rotate(0, 174.24077483753445, 14.954245505373649)"
  >
    <title>`p14`.rect</title>
  </rect>
  <rect
    x="155.53751340618953"
    y="226.11061599493732"
    width="18.775357956273005"
    height="25.862394713372336"
    fill="#56cc00"
    fill-opacity="1"
    stroke="none"
    rx="0"
    transform="rotate(0, 164.92519238432604, 239.0418133516235)"
  >
    <title>`p17`.rect</title>
  </rect>
  <rect
    x="305.21673857429533"
    y="223.53297655509874"
    width="23.315030152145127"
    height="22.016452936085557"
    fill="#1700cc"
    fill-opacity="1"
    stroke="none"
    rx="0"
    transform="rotate(0, 316.8742536503679, 234.54120302314152)"
  >
    <title>`p09`.rect</title>
  </rect>
  <rect
    x="102.38035082073048"
    y="270.4920779082431"
    width="18.82676485730502"
    height="25.828359838950234"
    fill="#cc5a00"
    fill-opacity="1"
    stroke="none"
    rx="0"
    transform="rotate(0, 111.793733249383, 283.40625782771826)"
  >
    <title>`p00`.rect</title>
  </rect>
  <rect
    x="173.52462057935222"
    y="318.16315069351884"
    width="23.087940653108532"
    height="22.257647665009962"
    fill="#b2cc00"
    fill-opacity="1"
    stroke="none"
    rx="0"
    transform="rotate(0, 185.0685909059065, 329.2919745260238)"
  >
    <title>`p01`.rect</title>
  </rect>
  <rect
    x="456.7966189533728"
    y="414.62598585528326"
    width="29.436173996906916"
    height="10.279526531128546"
    fill="#78cc00"
    fill-opacity="1"
    stroke="none"
    rx="0"
    transform="rotate(0, 471.5147059518263, 419.76574912084754)"
  >
    <title>`p15`.rect</title>
  </rect>
  <rect
    x="205.4151948463889"
    y="277.7420270738427"
    width="22.912192058134664"
    height="22.439993568591056"
    fill="#44cc00"
    fill-opacity="1"
    stroke="none"
    rx="0"
    transform="rotate(0, 216.87129087545625, 288.9620238581382)"
  >
    <title>`p07`.rect</title>
  </rect>
  <rect
    x="341.2541158051804"
    y="565.8662327487532"
    width="29.62949988852522"
    height="9.288092261266776"
    fill="#cc001e"
    fill-opacity="1"
    stroke="none"
    rx="0"
    transform="rotate(0, 356.068865749443, 570.5102788793865)"
  >
    <title>`p16`.rect</title>
  </rect>
  <rect
    x="333.23949665735546"
    y="365.9535490652291"
    width="27.823840701571225"
    height="15.201582996246255"
    fill="#00cc6c"
    fill-opacity="1"
    stroke="none"
    rx="0"
    transform="rotate(0, 347.1514170081411, 373.5543405633522)"
  >
    <title>`p08`.rect</title>
  </rect>
  <rect
    x="208.2838489512997"
    y="72.32774152615926"
    width="13.194054340164863"
    height="28.61900661480972"
    fill="#1b00cc"
    fill-opacity="1"
    stroke="none"
    rx="0"
    transform="rotate(0, 214.88087612138213, 86.63724483356413)"
  >
    <title>`p03`.rect</title>
  </rect>
</svg>
