<svg
  version="1.2"
  xmlns="http://www.w3.org/2000/svg"
  viewBox="0 0 600 600"
  penrose="0"
>
  <penrose><croppedViewBox>0 0 600 600</croppedViewBox></penrose>
  <rect
    x="0"
    y="0"
    width="600"
    height="600"
    fill="#e6ffe6"
    fill-opacity="1"
    stroke="none"
    rx="0"
    transform="rotate(0, 300, 300)"
  >
    <title>global.background</title>
  </rect>
  <rect
    x="0.001149004834424261"
    y="147.70341103460493"
    width="5.1088205029935665"
    height="29.99976316084071"
    fill="#a5cc00"
    fill-opacity="1"
    stroke="none"
    rx="0"
    transform="rotate(0, 2.5555592563312075, 162.70329261502528)"
  >
    <title>`p13`.rect</title>
  </rect>
  <rect
    x="336.56578319076175"
    y="106.07109496091003"
    width="22.636517188886796"
    height="22.718726292995797"
    fill="#cc0012"
    fill-opacity="1"
    stroke="none"
    rx="0"
    transform="rotate(0, 347.88404178520517, 117.43045810740793)"
  >
    <title>`p18`.rect</title>
  </rect>
  <rect
    x="65.7973888631264"
    y="183.5712297060284"
    width="10.905375116339144"
    height="29.292520345475115"
    fill="#90cc00"
    fill-opacity="1"
    stroke="none"
    rx="0"
    transform="rotate(0, 71.25007642129597, 198.21748987876595)"
  >
    <title>`p10`.rect</title>
  </rect>
  <rect
    x="564.3573392414115"
    y="317.14507725381094"
    width="29.99996994171278"
    height="5.0387674277883585"
    fill="#cc8600"
    fill-opacity="1"
    stroke="none"
    rx="0"
    transform="rotate(0, 579.3573242122679, 319.6644609677051)"
  >
    <title>`p19`.rect</title>
  </rect>
  <rect
    x="391.61888863827124"
    y="396.542338828114"
    width="29.072794025721812"
    height="11.745412351752279"
    fill="#a300cc"
    fill-opacity="1"
    stroke="none"
    rx="0"
    transform="rotate(0, 406.15528565113215, 402.41504500399014)"
  >
    <title>`p02`.rect</title>
  </rect>
  <rect
    x="352.05226428070614"
    y="169.67396480199912"
    width="24.799702369535865"
    height="20.263413316745236"
    fill="#cc00ab"
    fill-opacity="1"
    stroke="none"
    rx="0"
    transform="rotate(0, 364.4521154654741, 179.80567146037174)"
  >
    <title>`p11`.rect</title>
  </rect>
  <rect
    x="207.24791070998413"
    y="131.47155976925296"
    width="17.35583821988737"
    height="26.733229439822573"
    fill="#000ecc"
    fill-opacity="1"
    stroke="none"
    rx="0"
    transform="rotate(0, 215.9258298199278, 144.83817448916426)"
  >
    <title>`p06`.rect</title>
  </rect>
  <rect
    x="110.8732126300167"
    y="45.38221114515211"
    width="7.115482819030656"
    height="29.91033384847313"
    fill="#0056cc"
    fill-opacity="1"
    stroke="none"
    rx="0"
    transform="rotate(0, 114.43095403953203, 60.33737806938868)"
  >
    <title>`p04`.rect</title>
  </rect>
  <rect
    x="276.8439154978628"
    y="259.91186842986815"
    width="24.280849453601288"
    height="20.913794153110153"
    fill="#00cc7b"
    fill-opacity="1"
    stroke="none"
    rx="0"
    transform="rotate(0, 288.9843402246634, 270.36876550642324)"
  >
    <title>`p05`.rect</title>
  </rect>
  <rect
    x="104.23582693667615"
    y="103.49732867285329"
    width="10.33338977896841"
    height="29.424474476753748"
    fill="#009fcc"
    fill-opacity="1"
    stroke="none"
    rx="0"
    transform="rotate(0, 109.40252182616035, 118.20956591123016)"
  >
    <title>`p12`.rect</title>
  </rect>
  <rect
    x="64.45471103583255"
    y="47.7506099837421"
    width="7.137222977403585"
    height="29.908478033490088"
    fill="#2b00cc"
    fill-opacity="1"
    stroke="none"
    rx="0"
    transform="rotate(0, 68.02332252453434, 62.704849000487144)"
  >
    <title>`p14`.rect</title>
  </rect>
  <rect
    x="162.85429944118133"
    y="229.647331179701"
    width="18.775357956273005"
    height="25.862394713372336"
    fill="#56cc00"
    fill-opacity="1"
    stroke="none"
    rx="0"
    transform="rotate(0, 172.24197841931783, 242.57852853638718)"
  >
    <title>`p17`.rect</title>
  </rect>
  <rect
    x="289.3961056231778"
    y="183.4387128850504"
    width="23.315030152145127"
    height="22.016452936085557"
    fill="#1700cc"
    fill-opacity="1"
    stroke="none"
    rx="0"
    transform="rotate(0, 301.05362069925036, 194.44693935309317)"
  >
    <title>`p09`.rect</title>
  </rect>
  <rect
    x="130.72880055551286"
    y="283.56859246733086"
    width="18.82676485730502"
    height="25.828359838950234"
    fill="#cc5a00"
    fill-opacity="1"
    stroke="none"
    rx="0"
    transform="rotate(0, 140.14218298416537, 296.48277238680595)"
  >
    <title>`p00`.rect</title>
  </rect>
  <rect
    x="204.76096809555528"
    y="302.8388371558008"
    width="23.087940653108532"
    height="22.257647665009962"
    fill="#b2cc00"
    fill-opacity="1"
    stroke="none"
    rx="0"
    transform="rotate(0, 216.30493842210956, 313.96766098830574)"
  >
    <title>`p01`.rect</title>
  </rect>
  <rect
    x="475.13444850291137"
    y="301.0582874759167"
    width="29.436173996906916"
    height="10.279526531128546"
    fill="#78cc00"
    fill-opacity="1"
    stroke="none"
    rx="0"
    transform="rotate(0, 489.85253550136486, 306.198050741481)"
  >
    <title>`p15`.rect</title>
  </rect>
  <rect
    x="219.95668903072706"
    y="258.8543350898555"
    width="22.912192058134664"
    height="22.439993568591056"
    fill="#44cc00"
    fill-opacity="1"
    stroke="none"
    rx="0"
    transform="rotate(0, 231.4127850597944, 270.074331874151)"
  >
    <title>`p07`.rect</title>
  </rect>
  <rect
    x="418.09123361564644"
    y="464.37039309977155"
    width="29.62949988852522"
    height="9.288092261266776"
    fill="#cc001e"
    fill-opacity="1"
    stroke="none"
    rx="0"
    transform="rotate(0, 432.90598355990903, 469.01443923040495)"
  >
    <title>`p16`.rect</title>
  </rect>
  <rect
    x="354.6644799399507"
    y="295.7307806478044"
    width="27.823840701571225"
    height="15.201582996246255"
    fill="#00cc6c"
    fill-opacity="1"
    stroke="none"
    rx="0"
    transform="rotate(0, 368.57640029073633, 303.3315721459275)"
  >
    <title>`p08`.rect</title>
  </rect>
  <rect
    x="163.26852690638827"
    y="86.74358039989335"
    width="13.194054340164863"
    height="28.61900661480972"
    fill="#1b00cc"
    fill-opacity="1"
    stroke="none"
    rx="0"
    transform="rotate(0, 169.86555407647072, 101.05308370729821)"
  >
    <title>`p03`.rect</title>
  </rect>
</svg>
