<svg
  version="1.2"
  xmlns="http://www.w3.org/2000/svg"
  viewBox="0 0 600 600"
  penrose="0"
>
  <penrose>
    <croppedViewBox>
      0 -0.0000036639254972214985 600 600.0000036639256
    </croppedViewBox>
  </penrose>
  <rect
    x="0"
    y="0"
    width="600"
    height="600"
    fill="#e6ffe6"
    fill-opacity="1"
    stroke="none"
    rx="0"
    transform="rotate(0, 300, 300)"
  >
    <title>global.background</title>
  </rect>
  <rect
    x="1.564725813344758"
    y="81.47581820986062"
    width="5.1088205029935665"
    height="29.99976316084071"
    fill="#a5cc00"
    fill-opacity="1"
    stroke="none"
    rx="0"
    transform="rotate(0, 4.119136064841541, 96.47569979028097)"
  >
    <title>`p13`.rect</title>
  </rect>
  <rect
    x="369.56279732402965"
    y="148.66376924435065"
    width="22.636517188886796"
    height="22.718726292995797"
    fill="#cc0012"
    fill-opacity="1"
    stroke="none"
    rx="0"
    transform="rotate(0, 380.88105591847307, 160.02313239084853)"
  >
    <title>`p18`.rect</title>
  </rect>
  <rect
    x="57.396197712079385"
    y="144.2264437198669"
    width="10.905375116339144"
    height="29.292520345475115"
    fill="#90cc00"
    fill-opacity="1"
    stroke="none"
    rx="0"
    transform="rotate(0, 62.84888527024896, 158.87270389260445)"
  >
    <title>`p10`.rect</title>
  </rect>
  <rect
    x="542.5318987448645"
    y="441.34829545466215"
    width="29.99996994171278"
    height="5.0387674277883585"
    fill="#cc8600"
    fill-opacity="1"
    stroke="none"
    rx="0"
    transform="rotate(0, 557.5318837157209, 443.8676791685563)"
  >
    <title>`p19`.rect</title>
  </rect>
  <rect
    x="337.50690029388255"
    y="471.62674446520043"
    width="29.072794025721812"
    height="11.745412351752279"
    fill="#a300cc"
    fill-opacity="1"
    stroke="none"
    rx="0"
    transform="rotate(0, 352.04329730674345, 477.4994506410766)"
  >
    <title>`p02`.rect</title>
  </rect>
  <rect
    x="366.1345339371548"
    y="220.31677719802101"
    width="24.799702369535865"
    height="20.263413316745236"
    fill="#cc00ab"
    fill-opacity="1"
    stroke="none"
    rx="0"
    transform="rotate(0, 378.53438512192275, 230.44848385639364)"
  >
    <title>`p11`.rect</title>
  </rect>
  <rect
    x="224.87321369116455"
    y="133.2520165233975"
    width="17.35583821988737"
    height="26.733229439822573"
    fill="#000ecc"
    fill-opacity="1"
    stroke="none"
    rx="0"
    transform="rotate(0, 233.55113280110822, 146.61863124330878)"
  >
    <title>`p06`.rect</title>
  </rect>
  <rect
    x="104.34965345123547"
    y="23.33896787453544"
    width="7.115482819030656"
    height="29.91033384847313"
    fill="#0056cc"
    fill-opacity="1"
    stroke="none"
    rx="0"
    transform="rotate(0, 107.9073948607508, 38.294134798772006)"
  >
    <title>`p04`.rect</title>
  </rect>
  <rect
    x="259.1274922556718"
    y="291.00848809052223"
    width="24.280849453601288"
    height="20.913794153110153"
    fill="#00cc7b"
    fill-opacity="1"
    stroke="none"
    rx="0"
    transform="rotate(0, 271.26791698247246, 301.46538516707733)"
  >
    <title>`p05`.rect</title>
  </rect>
  <rect
    x="128.35429444909735"
    y="77.52391490461298"
    width="10.33338977896841"
    height="29.424474476753748"
    fill="#009fcc"
    fill-opacity="1"
    stroke="none"
    rx="0"
    transform="rotate(0, 133.52098933858156, 92.23615214298985)"
  >
    <title>`p12`.rect</title>
  </rect>
  <rect
    x="153.606498064987"
    y="-0.0000036639255203141374"
    width="7.137222977403585"
    height="29.908478033490088"
    fill="#2b00cc"
    fill-opacity="1"
    stroke="none"
    rx="0"
    transform="rotate(0, 157.1751095536888, 14.954235352819524)"
  >
    <title>`p14`.rect</title>
  </rect>
  <rect
    x="148.0649494144696"
    y="223.83217005105246"
    width="18.775357956273005"
    height="25.862394713372336"
    fill="#56cc00"
    fill-opacity="1"
    stroke="none"
    rx="0"
    transform="rotate(0, 157.4526283926061, 236.76336740773863)"
  >
    <title>`p17`.rect</title>
  </rect>
  <rect
    x="295.7119576134387"
    y="214.5182404396437"
    width="23.315030152145127"
    height="22.016452936085557"
    fill="#1700cc"
    fill-opacity="1"
    stroke="none"
    rx="0"
    transform="rotate(0, 307.36947268951127, 225.52646690768648)"
  >
    <title>`p09`.rect</title>
  </rect>
  <rect
    x="97.43663149146121"
    y="269.8114297687523"
    width="18.82676485730502"
    height="25.828359838950234"
    fill="#cc5a00"
    fill-opacity="1"
    stroke="none"
    rx="0"
    transform="rotate(0, 106.85001392011372, 282.72560968822745)"
  >
    <title>`p00`.rect</title>
  </rect>
  <rect
    x="169.66851059931201"
    y="313.74358382634597"
    width="23.087940653108532"
    height="22.257647665009962"
    fill="#b2cc00"
    fill-opacity="1"
    stroke="none"
    rx="0"
    transform="rotate(0, 181.2124809258663, 324.87240765885093)"
  >
    <title>`p01`.rect</title>
  </rect>
  <rect
    x="453.6155303253687"
    y="396.6519208916305"
    width="29.436173996906916"
    height="10.279526531128546"
    fill="#78cc00"
    fill-opacity="1"
    stroke="none"
    rx="0"
    transform="rotate(0, 468.3336173238222, 401.79168415719477)"
  >
    <title>`p15`.rect</title>
  </rect>
  <rect
    x="199.50257872340677"
    y="272.5053577839311"
    width="22.912192058134664"
    height="22.439993568591056"
    fill="#44cc00"
    fill-opacity="1"
    stroke="none"
    rx="0"
    transform="rotate(0, 210.9586747524741, 283.72535456822663)"
  >
    <title>`p07`.rect</title>
  </rect>
  <rect
    x="347.298367689019"
    y="550.8011974022864"
    width="29.62949988852522"
    height="9.288092261266776"
    fill="#cc001e"
    fill-opacity="1"
    stroke="none"
    rx="0"
    transform="rotate(0, 362.1131176332816, 555.4452435329198)"
  >
    <title>`p16`.rect</title>
  </rect>
  <rect
    x="329.3735834358126"
    y="353.92956511677534"
    width="27.823840701571225"
    height="15.201582996246255"
    fill="#00cc6c"
    fill-opacity="1"
    stroke="none"
    rx="0"
    transform="rotate(0, 343.2855037865982, 361.53035661489844)"
  >
    <title>`p08`.rect</title>
  </rect>
  <rect
    x="193.83284293844866"
    y="69.57974039362492"
    width="13.194054340164863"
    height="28.61900661480972"
    fill="#1b00cc"
    fill-opacity="1"
    stroke="none"
    rx="0"
    transform="rotate(0, 200.4298701085311, 83.88924370102978)"
  >
    <title>`p03`.rect</title>
  </rect>
</svg>
