<?xml version="1.0" standalone="no"?>
<!DOCTYPE svg PUBLIC "-//W3C//DTD SVG 20010904//EN"
 "http://www.w3.org/TR/2001/REC-SVG-20010904/DTD/svg10.dtd">
<svg version="1.0" xmlns="http://www.w3.org/2000/svg"
 width="981.000000pt" height="1280.000000pt" viewBox="0 0 981.000000 1280.000000"
 preserveAspectRatio="xMidYMid meet">
<metadata>
Created by potrace 1.15, written by Peter Selinger 2001-2017
</metadata>
<g transform="translate(0.000000,1280.000000) scale(0.100000,-0.100000)"
fill="#000000" stroke="none">
<path d="M1490 12794 c-49 -10 -154 -46 -199 -69 -52 -26 -118 -74 -214 -155
-36 -31 -83 -65 -104 -76 -22 -11 -47 -37 -60 -59 -62 -111 -118 -365 -80
-365 26 0 44 38 72 145 30 114 62 178 123 247 62 68 195 153 325 207 l112 46
130 0 c108 0 142 -4 205 -23 170 -54 296 -140 405 -277 100 -125 276 -285 314
-285 6 0 54 -27 108 -60 107 -66 187 -100 236 -100 63 0 108 -13 122 -34 8
-12 23 -97 35 -191 11 -93 27 -208 35 -255 17 -101 72 -542 81 -655 8 -97 -5
-152 -48 -201 -84 -95 -236 -110 -352 -33 -44 30 -97 100 -111 149 -17 58 -69
81 -81 36 -15 -63 114 -212 233 -269 60 -28 78 -32 154 -32 78 0 90 3 134 30
132 82 177 257 131 510 -16 88 -17 133 -11 376 4 174 3 279 -3 283 -17 10 -35
-22 -28 -50 7 -27 -10 -94 -24 -94 -27 0 -55 103 -65 245 -6 69 -2 123 15 232
12 79 18 148 15 154 -5 6 -17 -6 -32 -30 -32 -54 -67 -71 -146 -71 -103 0
-269 66 -373 147 -27 22 -117 105 -200 184 -83 80 -182 168 -220 197 -90 68
-240 145 -334 172 -73 21 -245 34 -300 24z"/>
<path d="M1257 12505 c-69 -53 -117 -120 -117 -164 0 -52 72 -161 107 -161 19
0 17 13 -17 97 -34 86 -35 84 42 176 72 87 65 113 -15 52z"/>
<path d="M1374 12478 c-36 -24 -44 -33 -31 -36 17 -4 100 39 112 58 13 21 -33
8 -81 -22z"/>
<path d="M3800 12486 c-53 -8 -116 -19 -140 -26 -272 -69 -490 -273 -490 -457
0 -65 16 -116 34 -110 12 4 23 31 66 177 40 131 73 167 204 224 251 108 543
131 944 76 186 -26 207 -24 207 21 0 33 -66 64 -176 85 -117 22 -520 28 -649
10z"/>
<path d="M4865 12404 c-156 -80 -227 -360 -203 -793 10 -195 8 -313 -8 -318
-16 -5 -36 45 -44 112 -6 47 -9 55 -15 37 -43 -132 -121 -178 -285 -170 -65 3
-99 10 -144 31 -105 49 -141 25 -70 -46 47 -47 96 -57 277 -57 161 0 199 -8
252 -50 21 -17 42 -30 46 -30 5 0 19 21 31 48 13 26 31 48 40 50 9 2 72 -22
140 -54 68 -31 145 -65 173 -74 47 -16 52 -21 88 -91 98 -193 270 -677 351
-992 l46 -178 -79 -212 c-44 -117 -89 -248 -101 -292 -40 -146 -49 -164 -124
-241 -52 -54 -78 -74 -97 -74 -32 0 -49 17 -49 50 0 34 18 59 112 157 124 128
89 131 -101 10 -181 -116 -489 -256 -610 -279 -40 -7 -66 -19 -92 -43 -46 -41
-100 -50 -284 -49 -136 1 -244 14 -332 39 -43 13 -58 23 -83 60 -21 30 -41 47
-63 53 -26 7 -34 16 -49 58 -34 98 -164 187 -317 218 -189 39 -354 156 -639
455 -236 246 -412 385 -445 352 -11 -11 64 -90 199 -208 48 -43 56 -54 44 -62
-17 -12 -70 -14 -85 -3 -5 4 -15 15 -20 26 -10 18 -194 91 -204 81 -10 -11 77
-88 130 -115 58 -30 160 -60 201 -60 30 0 109 -65 295 -243 241 -230 361 -307
520 -331 106 -15 133 -29 200 -98 106 -110 181 -267 190 -399 7 -98 2 -118
-47 -174 -39 -45 -40 -48 -40 -121 0 -54 -5 -85 -19 -112 -21 -41 -137 -182
-150 -182 -9 0 -131 262 -168 360 -14 36 -29 94 -34 130 -25 174 -174 516
-308 707 -48 68 -89 98 -108 79 -14 -13 19 -99 107 -282 118 -244 189 -423
240 -604 53 -187 102 -288 233 -484 59 -88 129 -202 156 -255 27 -53 124 -294
217 -536 171 -451 282 -721 355 -867 54 -108 123 -211 154 -232 29 -19 85 -21
85 -3 0 7 -32 68 -71 137 -65 113 -149 288 -149 309 0 5 14 14 30 21 85 35
413 458 435 562 4 17 2 35 -4 41 -17 17 -79 -56 -162 -190 -127 -206 -220
-317 -300 -358 -31 -17 -33 -16 -46 1 -8 11 -30 71 -50 134 -83 267 -225 618
-373 925 -45 94 -97 206 -116 249 l-33 80 29 33 c54 61 126 235 134 324 5 60
25 96 80 147 49 45 81 58 126 49 19 -4 43 1 74 17 42 21 46 22 41 5 -19 -59
181 -79 370 -36 107 25 270 49 410 62 108 9 238 35 263 51 45 29 66 126 42
190 -6 15 -27 45 -46 66 -29 33 -35 46 -32 76 2 29 8 38 25 40 17 3 24 -3 28
-25 28 -134 61 -153 129 -72 31 37 32 30 6 -45 -46 -134 -37 -204 45 -375 l55
-114 -89 -137 c-164 -251 -277 -467 -407 -778 -164 -394 -265 -725 -363 -1203
-72 -346 -123 -498 -171 -507 -9 -1 -25 17 -40 45 -29 54 -54 73 -71 56 -8 -8
-1 -34 30 -101 22 -49 41 -96 41 -105 0 -10 -22 -33 -49 -52 -65 -47 -85 -79
-85 -140 -1 -86 51 -165 179 -273 l50 -42 -96 0 c-118 0 -134 10 -186 114 -45
90 -85 148 -144 211 -27 28 -53 64 -59 80 -6 17 -15 86 -20 155 -12 176 -42
276 -139 469 -94 186 -198 340 -336 496 -87 98 -175 215 -175 231 0 8 -18 33
-40 56 -47 51 -185 316 -255 492 -40 101 -48 130 -50 200 -4 131 -101 384
-191 502 -95 123 -318 539 -390 726 -46 118 -66 158 -120 236 -24 35 -44 64
-44 66 0 2 44 6 97 9 73 4 130 14 223 42 196 59 293 85 321 85 31 0 54 23 45
46 -9 24 -75 15 -321 -41 -354 -80 -449 -72 -655 54 -37 22 -70 28 -70 11 0
-18 75 -81 150 -126 102 -62 126 -87 165 -172 19 -40 57 -110 85 -157 61 -101
101 -189 125 -270 28 -99 123 -281 232 -443 145 -215 160 -249 253 -556 138
-455 309 -768 615 -1126 173 -203 272 -350 339 -508 52 -121 67 -188 76 -352
14 -227 45 -415 83 -504 l21 -49 -22 -41 c-76 -142 -485 -572 -697 -731 -33
-25 -78 -50 -100 -56 -82 -22 -132 -56 -255 -175 -69 -67 -135 -126 -147 -133
-53 -27 -84 -11 -249 130 l-91 77 -67 -67 -68 -68 57 -103 c98 -175 123 -248
94 -266 -7 -4 -10 -27 -7 -58 26 -316 1272 -1079 2090 -1280 264 -65 539 -89
647 -57 107 31 128 104 64 222 -20 38 -39 67 -40 65 -2 -2 3 -44 11 -92 9 -49
16 -92 16 -96 0 -14 -301 -9 -420 6 -602 76 -1330 382 -1755 738 -131 109
-356 334 -398 398 -48 72 -54 106 -30 161 27 59 81 114 316 318 l199 173 171
-177 c95 -98 174 -182 175 -187 2 -5 -18 -32 -45 -61 -62 -66 -172 -206 -291
-369 l-92 -126 67 -65 c162 -155 265 -226 505 -348 448 -227 990 -394 1301
-402 109 -2 127 6 127 62 0 41 -73 328 -86 340 -5 5 -94 18 -199 31 -506 59
-920 171 -1286 348 -132 63 -199 114 -199 151 0 39 26 84 120 211 111 148 160
227 160 256 0 36 67 123 236 311 89 98 236 264 326 368 176 202 229 251 287
261 50 9 85 29 105 58 9 14 16 27 16 29 0 2 -18 -1 -41 -7 -39 -10 -42 -9 -70
22 -32 35 -38 82 -15 101 17 14 60 5 77 -15 6 -8 28 -14 47 -14 70 0 178 147
233 315 18 57 22 96 24 210 l2 140 86 255 c87 260 126 396 192 669 42 171 39
169 90 70 35 -68 144 -247 287 -469 155 -243 237 -391 289 -523 43 -108 63
-139 84 -131 17 7 29 -33 50 -156 32 -196 80 -288 179 -351 133 -83 167 -112
221 -184 71 -97 115 -122 115 -67 0 62 -117 217 -205 272 -106 67 -135 90
-159 128 -54 86 -106 275 -210 765 -77 363 -129 519 -192 578 l-24 22 0 -21
c0 -12 19 -75 41 -139 76 -218 110 -344 116 -435 3 -49 3 -88 0 -88 -3 0 -28
42 -55 94 -60 115 -148 246 -259 389 -220 284 -268 387 -267 572 1 133 21 220
101 420 71 180 300 646 347 707 47 61 98 90 216 123 125 35 186 69 231 129 72
95 238 439 254 528 7 37 41 73 158 170 118 98 131 274 27 362 -61 50 -139 48
-250 -7 -40 -20 -77 -34 -81 -31 -13 8 107 266 180 388 73 122 113 207 169
356 123 331 260 858 293 1130 12 91 11 97 -11 140 -98 192 -609 529 -1147 758
-168 72 -325 127 -499 177 -72 20 -137 41 -144 45 -20 13 0 33 76 75 35 20 64
38 64 40 0 12 -108 3 -135 -11z m195 -286 c937 -356 1540 -706 1540 -894 0
-34 -82 -429 -121 -589 -92 -365 -257 -763 -501 -1203 l-86 -154 70 -111 c85
-138 112 -220 112 -337 0 -106 -24 -162 -82 -187 -20 -8 -44 -19 -52 -23 -11
-5 -16 -27 -18 -79 -2 -48 -7 -71 -15 -71 -7 0 -35 22 -61 49 -63 64 -59 89
17 127 65 33 140 111 163 170 28 74 5 72 -64 -5 -42 -47 -79 -78 -116 -95 -30
-14 -66 -40 -81 -58 -38 -45 -31 -99 28 -218 26 -51 47 -98 47 -106 0 -26 -22
-25 -63 2 -61 40 -445 422 -474 472 -37 63 -35 128 7 195 66 104 82 139 96
207 8 38 51 182 94 320 129 407 137 446 175 890 14 162 30 331 35 375 31 253
-16 301 -338 350 -169 25 -572 121 -611 144 -17 11 -44 421 -38 601 3 136 7
166 32 243 26 78 31 87 49 81 12 -4 127 -47 256 -96z m460 -1094 c68 -20 104
-45 120 -85 11 -26 11 -59 -4 -198 -9 -91 -23 -247 -31 -346 -25 -319 -38
-328 -104 -69 -51 199 -119 385 -210 573 -45 92 -52 136 -23 145 30 9 195 -4
252 -20z m754 -1756 c22 -32 20 -55 -9 -83 -31 -32 -62 -32 -86 -1 -11 14 -33
27 -50 31 -39 9 -33 24 21 52 56 30 104 30 124 1z m-1383 -329 c38 -38 7 -61
-106 -79 -84 -13 -138 -6 -133 18 6 31 119 80 191 81 15 1 36 -8 48 -20z
m-558 -133 c36 -18 67 -59 67 -90 0 -30 -51 -76 -103 -91 -64 -19 -100 -19
-167 1 -65 19 -106 58 -116 108 -9 51 6 64 97 81 93 17 173 14 222 -9z m482
-26 c148 -26 153 -59 14 -81 -79 -12 -228 -7 -292 11 -44 13 -66 52 -45 78 11
12 33 14 138 8 69 -3 152 -11 185 -16z m-1011 -16 c16 -15 21 -69 10 -98 -17
-44 -84 3 -84 59 0 49 42 71 74 39z m167 -45 c23 -45 20 -69 -9 -69 -40 0 -82
73 -62 110 15 28 44 12 71 -41z m1339 -97 c5 -20 10 -45 10 -56 0 -15 -3 -16
-15 -6 -17 14 -39 86 -30 100 10 17 24 2 35 -38z m205 -201 c12 -56 -40 -133
-80 -117 -20 7 -58 -42 -111 -145 -26 -50 -60 -103 -76 -120 -30 -30 -31 -37
-2 -76 16 -22 15 -22 -26 -20 l-42 2 -12 -46 c-7 -26 -25 -61 -40 -79 -39 -47
-65 -103 -168 -353 -130 -320 -131 -323 -125 -389 3 -32 1 -58 -4 -58 -5 0 -9
5 -9 10 0 6 -7 10 -15 10 -22 0 -48 -66 -84 -210 -29 -116 -41 -225 -22 -204
4 5 14 38 21 74 14 77 69 254 77 247 8 -9 -46 -282 -68 -341 -22 -61 -35 -74
-52 -57 -34 34 -32 -28 4 -143 10 -33 17 -62 15 -63 -2 -2 -15 15 -30 37 -15
22 -31 38 -36 35 -22 -14 -74 -330 -68 -421 3 -57 2 -63 -13 -59 -21 7 -49
-20 -49 -46 0 -16 4 -19 21 -14 20 7 21 4 15 -21 -3 -16 -11 -55 -17 -87 -9
-45 -15 -57 -28 -55 -12 3 -16 15 -15 56 1 29 -1 52 -5 52 -4 0 -22 -15 -40
-34 -24 -24 -36 -50 -46 -97 -15 -70 -83 -248 -104 -273 -21 -25 -50 -20 -57
10 -9 35 8 86 73 229 81 175 180 484 278 863 159 618 261 905 474 1330 218
435 372 648 443 611 9 -5 19 -22 23 -38z m182 -155 c15 -13 25 -27 21 -31 -9
-9 -70 26 -76 43 -6 20 25 13 55 -12z m-281 -84 c-8 -15 -22 -34 -30 -41 -13
-11 -16 -11 -16 3 0 18 25 71 44 95 18 23 20 -22 2 -57z m-186 -320 c0 -10
-11 -29 -25 -42 -29 -27 -31 -23 -11 25 16 37 36 47 36 17z m-145 -298 c-9
-14 -22 -23 -28 -21 -17 6 -10 45 16 86 l22 36 3 -38 c2 -24 -3 -48 -13 -63z
m-85 -220 c0 -19 -4 -34 -10 -34 -5 0 -10 18 -10 41 0 24 4 38 10 34 6 -3 10
-22 10 -41z m-374 -1271 c-19 -80 -46 -104 -46 -42 0 38 16 69 36 69 12 0 15
-6 10 -27z m-82 -504 c30 -24 66 -88 66 -119 0 -26 -32 -27 -75 0 -33 21 -90
113 -80 130 11 17 61 11 89 -11z m-131 -111 c76 -69 137 -150 137 -182 0 -58
-101 -196 -143 -196 -34 1 -57 46 -57 111 0 30 -7 47 -26 66 -31 31 -23 58 16
58 31 1 34 14 21 91 -17 94 -6 104 52 52z m-557 -45 c98 -126 133 -230 67
-200 -32 14 -60 69 -77 152 -14 68 -12 77 10 48z m268 -335 c16 -26 -8 -67
-133 -223 -149 -185 -236 -281 -282 -310 -20 -13 -73 -68 -117 -122 -93 -114
-117 -138 -155 -152 -22 -9 -27 -16 -22 -31 3 -10 -1 -33 -10 -50 -29 -56
-135 -146 -135 -114 0 12 25 51 58 92 40 48 37 52 -16 17 -20 -13 -53 -31 -74
-39 -31 -13 -38 -13 -48 -1 -22 26 21 89 175 256 47 50 85 99 85 109 0 39 408
470 470 496 19 8 46 26 60 38 58 54 122 69 144 34z m-1782 -1055 c84 -80 121
-132 107 -149 -23 -28 -59 -15 -110 37 -53 54 -89 115 -89 149 0 34 29 23 92
-37z m1514 -1119 c13 -87 -23 -129 -52 -59 -18 45 -18 75 2 103 22 31 41 14
50 -44z m162 -84 c4 -75 -9 -96 -32 -52 -19 36 -21 75 -5 103 19 36 34 15 37
-51z m160 13 c17 -58 24 -136 13 -152 -15 -22 -57 10 -65 50 -15 79 1 172 28
150 7 -6 18 -28 24 -48z m171 -53 c20 -95 9 -172 -18 -121 -13 24 -15 171 -2
171 5 0 14 -23 20 -50z m145 -71 c19 -83 20 -89 2 -89 -19 0 -36 52 -42 130
-5 59 -4 63 10 46 8 -10 22 -49 30 -87z m196 24 c26 -85 37 -159 22 -149 -13
8 -49 116 -58 174 -10 67 12 51 36 -25z m-65 -63 c18 -36 20 -83 3 -78 -18 6
-38 48 -38 81 0 35 16 35 35 -3z"/>
<path d="M6217 9252 c-24 -26 -21 -44 6 -40 16 2 23 11 25 31 4 31 -8 35 -31
9z"/>
<path d="M5451 8384 c-22 -28 -23 -45 -3 -51 16 -6 54 35 50 54 -5 27 -25 26
-47 -3z"/>
<path d="M3967 4929 c-26 -22 -44 -45 -41 -51 7 -10 68 44 85 75 13 24 10 22
-44 -24z"/>
<path d="M3862 4823 c-16 -6 -92 -113 -132 -188 -31 -58 -31 -59 -5 -30 39 44
131 167 145 193 13 26 11 32 -8 25z"/>
<path d="M3507 4569 c-26 -22 -44 -45 -41 -51 7 -10 68 44 85 75 13 24 10 22
-44 -24z"/>
<path d="M3555 4500 c-22 -43 -18 -57 10 -30 25 23 34 60 15 60 -5 0 -16 -13
-25 -30z"/>
<path d="M3465 4363 c-25 -22 -35 -38 -27 -41 15 -5 36 11 63 50 28 39 12 35
-36 -9z"/>
<path d="M1535 12394 c-22 -8 -47 -22 -55 -31 -14 -14 -11 -15 32 -10 51 5
103 32 93 47 -8 13 -22 12 -70 -6z"/>
<path d="M1534 12244 c-66 -39 -134 -101 -134 -121 0 -21 34 0 115 70 39 33
74 64 79 69 5 4 7 10 5 13 -3 3 -32 -11 -65 -31z"/>
<path d="M1985 12215 c-46 -25 -63 -44 -81 -91 -14 -36 -14 -49 -4 -73 14 -34
57 -77 67 -68 3 4 2 44 -4 89 -15 114 -10 121 75 116 116 -6 227 -80 277 -183
24 -48 27 -64 24 -136 -3 -56 0 -83 8 -86 36 -12 53 213 21 273 -27 49 -96
111 -156 141 -71 35 -180 43 -227 18z"/>
<path d="M1140 12165 c0 -18 12 -34 42 -55 41 -30 78 -39 78 -19 0 20 -41 69
-70 84 -40 21 -50 19 -50 -10z"/>
<path d="M2049 12081 c-19 -15 -24 -28 -23 -65 1 -60 23 -92 71 -101 21 -3 53
-15 71 -26 57 -33 92 -20 92 33 0 48 -31 68 -104 68 -36 0 -67 4 -70 9 -8 13
15 29 48 33 37 4 43 21 17 47 -26 26 -72 27 -102 2z"/>
<path d="M1513 12059 c-77 -37 -82 -51 -55 -151 31 -112 41 -135 52 -118 15
24 12 66 -10 122 -11 29 -20 61 -20 71 0 11 24 33 65 58 36 23 65 43 65 45 0
12 -42 0 -97 -27z"/>
<path d="M1142 12048 c-17 -17 1 -42 47 -62 46 -21 71 -16 71 14 0 39 -90 76
-118 48z"/>
<path d="M935 11996 c-61 -92 28 -306 126 -306 17 0 48 10 69 22 71 42 67 1
-15 -122 -57 -86 -64 -112 -40 -144 20 -27 3 -53 -44 -66 -51 -13 -87 0 -109
41 -31 57 -74 100 -131 129 -71 36 -110 77 -118 123 -7 48 1 79 33 117 15 17
23 34 20 38 -13 13 -79 -33 -98 -68 -42 -79 -3 -201 80 -249 25 -14 58 -38 74
-53 25 -24 28 -33 28 -91 0 -55 4 -70 25 -96 38 -44 82 -55 194 -47 54 4 111
2 130 -3 18 -6 67 -36 108 -66 129 -98 184 -113 247 -70 47 32 52 31 70 -4 48
-92 222 -162 451 -181 172 -15 218 -26 270 -66 63 -48 86 -51 139 -20 135 79
264 419 227 596 -10 50 -47 128 -56 119 -1 -2 2 -31 7 -64 20 -111 -21 -342
-83 -475 -35 -76 -60 -105 -111 -131 -83 -43 -113 -12 -102 107 l7 77 -61 -6
c-35 -4 -64 -3 -67 3 -3 5 4 28 15 51 12 22 19 44 15 47 -12 12 -40 -15 -83
-79 -50 -75 -76 -99 -108 -99 -24 0 -54 33 -54 62 0 12 7 16 28 15 25 -2 27 1
30 41 4 53 -14 62 -63 32 -39 -24 -65 -65 -65 -103 0 -13 -6 -32 -14 -42 -13
-19 -16 -19 -48 -3 -18 8 -78 55 -133 103 -55 48 -113 95 -129 105 -27 17 -31
17 -54 2 -21 -14 -34 -14 -104 -4 -45 6 -103 23 -132 37 -90 45 -170 92 -188
111 -37 37 -12 94 42 94 17 0 30 7 34 17 13 32 28 238 22 290 -13 109 -40 129
-124 90 -29 -14 -62 -23 -72 -20 -28 7 -50 63 -51 130 -1 32 -4 69 -8 83 l-7
25 -19 -29z m75 -706 c0 -5 -20 -10 -45 -10 -25 0 -45 5 -45 10 0 6 20 10 45
10 25 0 45 -4 45 -10z"/>
<path d="M801 11969 c-40 -43 -36 -160 8 -248 11 -20 39 -55 63 -76 40 -37 43
-38 46 -18 2 13 -14 53 -35 90 -38 68 -38 69 -36 171 2 111 -5 124 -46 81z"/>
<path d="M1144 11959 c-11 -18 131 -149 160 -149 15 0 26 6 26 14 0 46 -166
167 -186 135z"/>
<path d="M1580 11878 c-21 -46 -25 -68 -12 -68 11 0 52 74 52 94 0 30 -21 16
-40 -26z"/>
<path d="M1902 11898 c-1 -10 -11 -27 -22 -38 -17 -17 -28 -18 -83 -13 -73 6
-92 -6 -60 -38 22 -22 80 -35 117 -25 32 8 58 57 53 99 -2 18 -5 24 -5 15z"/>
<path d="M1656 11511 c-21 -23 -52 -119 -57 -175 -10 -105 61 0 80 119 10 67
3 85 -23 56z"/>
<path d="M1772 11442 c-52 -81 -86 -157 -78 -177 5 -15 9 -14 38 6 19 14 46
23 67 23 20 0 39 4 43 10 9 13 10 158 2 180 -11 30 -34 16 -72 -42z"/>
<path d="M2785 10886 c-18 -13 -18 -14 8 -40 30 -30 69 -34 121 -12 44 18 54
35 31 53 -25 17 -135 17 -160 -1z"/>
<path d="M1936 10688 c-141 -144 -187 -240 -216 -453 -15 -115 -13 -412 5
-527 15 -100 56 -239 80 -272 26 -34 172 -45 192 -14 9 15 -34 48 -61 48 -13
0 -32 10 -44 23 -56 59 -82 191 -82 412 0 184 18 345 54 488 37 145 70 211
148 294 71 75 83 103 46 103 -14 0 -56 -35 -122 -102z"/>
<path d="M6176 8509 c9 -29 34 -102 56 -163 58 -161 66 -191 83 -291 15 -85
34 -489 35 -712 l0 -103 26 0 c19 0 29 8 42 38 14 30 17 67 16 207 -2 399
-119 927 -232 1048 -37 39 -43 34 -26 -24z"/>
<path d="M4224 8393 c19 -66 28 -116 45 -253 28 -217 36 -340 23 -340 -5 0
-53 39 -106 88 -192 173 -240 212 -299 242 -67 33 -121 38 -155 14 -41 -28
-23 -54 38 -54 65 0 211 -100 396 -271 60 -55 121 -107 135 -114 33 -18 60
-60 149 -230 119 -228 160 -284 147 -197 -8 49 -42 131 -132 322 -90 190 -119
287 -146 489 -22 170 -42 264 -65 299 -17 26 -38 30 -30 5z"/>
<path d="M3790 8357 c0 -37 81 -81 230 -127 58 -18 111 -35 118 -37 7 -3 12 3
12 15 0 25 -9 32 -98 77 -143 72 -262 104 -262 72z"/>
<path d="M3765 7820 c-18 -29 42 -87 205 -202 36 -25 117 -89 180 -142 136
-114 185 -136 160 -72 -27 73 -251 262 -454 384 -75 45 -81 47 -91 32z"/>
<path d="M2730 7189 c-99 -102 -311 -452 -500 -824 -190 -377 -268 -578 -295
-762 -37 -249 -117 -501 -191 -599 -149 -195 -364 -1195 -364 -1693 0 -149 11
-215 44 -255 41 -53 59 -7 35 90 -23 88 23 629 77 924 60 325 152 611 309 960
81 180 115 288 170 538 61 276 142 515 242 717 25 50 120 205 211 345 235 362
281 436 314 506 45 97 18 125 -52 53z"/>
<path d="M6356 7153 c-3 -11 3 -55 15 -98 36 -142 159 -499 178 -518 23 -23
70 -27 84 -6 18 29 -210 589 -256 628 -13 10 -16 9 -21 -6z"/>
<path d="M6121 6913 c18 -48 48 -91 288 -418 355 -483 461 -607 530 -621 39
-8 45 -16 69 -89 12 -34 53 -133 92 -220 151 -339 299 -710 397 -1000 81 -240
212 -905 233 -1185 11 -136 24 -180 55 -180 29 0 37 50 32 200 -6 165 -31 348
-88 633 -104 519 -215 900 -363 1235 -193 439 -324 662 -391 662 -33 0 -56 22
-119 111 -196 277 -541 713 -675 852 -52 54 -76 62 -60 20z"/>
<path d="M3993 6026 c-21 -10 -33 -22 -33 -35 0 -29 15 -34 57 -20 20 6 59 14
87 18 l51 7 -27 18 c-37 24 -96 29 -135 12z"/>
<path d="M3482 5943 c-111 -115 -259 -301 -289 -362 l-27 -54 23 -18 c13 -11
32 -19 43 -19 57 0 116 -76 137 -178 27 -127 9 -263 -59 -467 -39 -117 -49
-175 -30 -175 22 0 48 46 73 127 14 49 51 138 82 198 56 109 57 111 52 180 -3
52 -14 89 -40 145 -27 57 -57 161 -57 195 0 1 -13 16 -30 33 -16 18 -30 42
-30 54 1 40 35 101 104 183 81 97 132 172 141 208 12 46 -13 32 -93 -50z"/>
<path d="M2424 5777 c-3 -8 0 -26 6 -42 12 -33 37 -141 79 -351 60 -298 102
-372 307 -541 41 -33 46 -35 61 -20 15 14 15 18 0 41 -10 14 -43 43 -75 65
-85 57 -145 129 -181 214 -28 69 -39 120 -76 347 -9 52 -25 130 -36 173 -27
98 -69 155 -85 114z"/>
<path d="M2804 5736 c-24 -62 191 -360 299 -414 45 -22 107 -30 107 -12 0 5
-36 36 -79 69 -73 56 -161 162 -161 195 0 25 -49 113 -79 144 -34 33 -78 43
-87 18z"/>
<path d="M6667 5484 c-3 -3 3 -28 14 -55 26 -66 24 -130 -6 -230 -62 -209 -78
-290 -78 -404 1 -73 8 -143 22 -209 27 -124 27 -182 1 -221 -24 -37 -25 -61
-4 -69 23 -9 90 64 105 114 11 36 9 50 -15 125 -66 202 -59 304 44 684 34 128
23 217 -32 255 -24 17 -41 20 -51 10z"/>
<path d="M6200 4555 c0 -109 23 -347 44 -471 20 -115 53 -224 107 -355 128
-316 162 -424 157 -506 l-3 -48 -37 3 c-47 4 -58 -15 -87 -153 -32 -147 -33
-148 -161 -160 -71 -7 -151 -33 -157 -51 -3 -8 31 -14 104 -18 206 -13 433
-36 477 -48 59 -16 116 -2 133 32 6 13 22 28 35 33 49 19 223 37 468 48 209
10 310 10 555 -2 165 -8 352 -13 415 -13 110 2 121 4 255 50 l140 49 205 -1
c113 0 348 -9 523 -18 300 -17 427 -16 427 4 0 20 -117 40 -385 64 -450 42
-671 38 -885 -13 -270 -65 -506 -67 -611 -5 -33 20 -34 23 -31 74 3 48 1 52
-13 40 -9 -8 -25 -31 -36 -53 -14 -27 -33 -44 -63 -57 -102 -46 -311 -50 -453
-10 -95 26 -121 25 -154 -6 -38 -36 -108 -44 -436 -44 l-283 0 0 69 c0 95 5
98 122 67 51 -14 129 -30 173 -35 174 -22 194 -19 74 14 -40 11 -100 34 -133
50 -77 38 -90 64 -111 215 -18 129 -78 317 -164 510 -64 145 -100 284 -151
580 -22 129 -45 239 -50 244 -7 7 -10 -21 -10 -79z"/>
<path d="M6460 4320 c0 -20 56 -63 74 -57 20 7 17 27 -8 52 -31 31 -66 34 -66
5z"/>
<path d="M2928 4067 c-33 -25 -44 -41 -46 -66 -3 -30 4 -41 77 -110 86 -83
157 -128 185 -118 21 8 15 33 -25 100 -16 26 -29 50 -29 53 0 3 26 -15 58 -40
55 -44 82 -56 82 -38 0 20 -69 114 -133 179 -83 86 -103 90 -169 40z"/>
<path d="M2773 3948 c-17 -6 -46 -23 -64 -37 -46 -39 -36 -63 81 -184 95 -99
161 -149 177 -134 7 8 -27 81 -73 157 l-28 45 53 -45 c76 -65 113 -90 133 -90
46 0 1 86 -100 192 -62 65 -127 113 -144 107 -2 -1 -17 -6 -35 -11z"/>
<path d="M2567 3752 c-31 -32 -57 -62 -57 -68 0 -14 238 -247 268 -263 43 -23
26 22 -56 147 -12 19 -3 16 51 -18 112 -71 143 -40 71 69 -49 74 -171 191
-198 191 -13 0 -44 -23 -79 -58z"/>
<path d="M6663 3774 c-12 -33 102 -452 154 -560 27 -58 77 -112 87 -95 4 6
-12 64 -35 128 -23 65 -63 189 -89 275 -58 188 -78 244 -96 259 -11 9 -15 7
-21 -7z"/>
<path d="M4825 3401 c-120 -54 -145 -171 -71 -328 48 -100 103 -172 216 -283
180 -177 417 -320 662 -400 133 -43 191 -74 196 -104 7 -36 -14 -38 -51 -7
-38 34 -57 39 -57 15 0 -24 98 -122 130 -129 15 -3 65 1 111 9 105 19 304 42
506 58 124 9 160 16 179 31 28 22 32 62 7 75 -10 5 -132 12 -271 16 -289 7
-395 17 -572 52 -557 111 -908 405 -928 776 -6 118 0 148 31 148 31 0 58 -20
162 -119 186 -178 335 -272 607 -380 153 -61 356 -126 365 -117 10 10 -19 28
-207 127 -303 160 -499 285 -695 443 -165 134 -230 158 -320 117z"/>
<path d="M7760 3155 c-63 -29 -145 -61 -181 -70 -126 -31 -176 -83 -69 -72
111 12 271 77 349 143 28 24 42 54 24 54 -5 0 -60 -25 -123 -55z"/>
<path d="M1714 3130 c-17 -6 -51 -28 -75 -50 -54 -48 -41 -51 81 -15 120 34
158 23 413 -119 243 -135 376 -195 491 -221 72 -16 94 -11 83 20 -4 8 -12 17
-19 19 -64 17 -132 47 -387 173 -162 80 -326 156 -365 170 -80 27 -176 37
-222 23z"/>
<path d="M1350 2999 c-14 -10 -80 -33 -147 -49 -195 -48 -289 -104 -338 -200
-13 -26 -44 -77 -69 -113 -33 -48 -46 -77 -48 -108 -2 -36 -7 -44 -28 -50 -14
-4 -158 -8 -320 -8 -299 -1 -360 -7 -389 -35 -14 -14 -14 -18 0 -31 29 -29
214 -38 779 -38 551 1 871 12 1035 38 127 21 384 35 630 35 247 0 416 13 466
34 23 10 98 19 200 26 90 6 206 15 258 20 87 10 98 9 148 -12 l53 -22 28 21
c37 28 36 63 -3 76 -20 7 -152 6 -408 -3 -208 -7 -381 -10 -384 -6 -4 4 3 44
15 90 33 127 29 161 -15 114 -26 -28 -43 -64 -83 -164 -18 -44 -33 -80 -34
-81 -4 -5 -273 26 -320 37 -68 15 -106 32 -160 74 -66 50 -173 111 -259 148
-61 26 -86 31 -167 33 -83 2 -112 8 -228 48 -170 58 -186 68 -179 113 7 39 2
41 -33 13z m52 -149 c59 -17 129 -71 171 -133 22 -32 37 -60 34 -63 -3 -3 -47
11 -99 32 l-93 39 -232 5 c-127 3 -234 8 -238 12 -16 16 94 64 230 98 79 21
173 25 227 10z m380 -120 c48 -32 108 -127 108 -170 0 -56 -163 11 -216 89
-23 34 -32 90 -17 104 17 18 82 5 125 -23z m201 -42 c7 -21 -12 -48 -34 -48
-22 0 -34 22 -25 45 7 18 53 20 59 3z m-728 -27 c-10 -9 -115 -26 -225 -37
-54 -5 -63 -4 -52 7 6 7 42 18 80 25 79 14 210 18 197 5z m-20 -82 c57 -15
208 -71 220 -81 12 -11 -344 -10 -424 2 -109 15 -133 70 -30 70 39 0 55 -6 82
-30 19 -16 45 -30 58 -30 23 1 22 2 -10 29 -20 16 -31 33 -27 39 9 15 78 15
131 1z m-286 -87 c73 -36 80 -57 17 -49 -54 8 -126 42 -126 61 0 33 23 31 109
-12z"/>
<path d="M2790 2978 c-25 -58 -44 -134 -36 -153 10 -28 37 -15 56 28 21 46 28
167 9 167 -5 0 -19 -19 -29 -42z"/>
<path d="M5010 3007 c0 -64 272 -275 520 -401 111 -57 299 -126 341 -126 24 1
24 1 4 16 -11 9 -123 66 -250 129 -251 123 -367 195 -490 302 -91 79 -125 101
-125 80z"/>
<path d="M9015 2879 c-61 -14 -95 -30 -95 -45 0 -21 45 -29 143 -27 113 2 165
31 125 71 -14 14 -114 14 -173 1z"/>
<path d="M5430 2809 c127 -78 483 -199 583 -199 49 0 20 17 -65 39 -127 34
-230 68 -379 127 -144 57 -201 70 -139 33z"/>
<path d="M9324 2790 c-61 -24 -22 -46 52 -30 71 16 84 20 84 31 0 11 -107 11
-136 -1z"/>
<path d="M9550 2790 c-10 -7 6 -10 55 -10 49 0 65 3 55 10 -8 5 -33 10 -55 10
-22 0 -47 -5 -55 -10z"/>
<path d="M6850 2743 c0 -17 22 -29 94 -52 123 -39 213 -122 255 -236 25 -67
26 -106 5 -150 -17 -37 -42 -49 -129 -64 -75 -13 -115 -51 -115 -109 0 -45 31
-98 65 -114 37 -17 30 -28 -12 -21 -64 8 -145 33 -218 66 -69 32 -72 32 -225
31 -281 -2 -562 -69 -613 -147 -21 -32 -84 -53 -204 -67 -241 -28 -387 -52
-431 -69 -74 -29 -177 -41 -359 -41 -180 0 -229 8 -253 41 -22 29 -77 38 -220
39 -153 0 -335 15 -455 37 -148 27 -277 21 -550 -25 -493 -85 -673 -100 -983
-83 -578 31 -894 21 -972 -28 -31 -20 5 -24 133 -14 155 11 181 7 185 -29 5
-40 -25 -50 -182 -59 -78 -4 -190 -15 -251 -23 -165 -24 -400 -36 -690 -36
-301 -1 -554 -13 -584 -30 -33 -17 -25 -37 27 -66 96 -54 122 -74 122 -94 0
-26 -11 -31 -87 -40 -36 -5 -73 -15 -81 -24 -14 -14 -13 -16 14 -27 16 -6 77
-14 137 -18 59 -4 112 -12 118 -18 5 -5 18 -25 27 -44 33 -66 239 -143 369
-137 38 2 68 8 70 14 5 15 -10 20 -118 44 -105 23 -172 54 -167 78 7 35 72 44
258 38 178 -6 224 -2 217 18 -9 28 -266 76 -407 76 -52 0 -78 -5 -105 -21 -61
-36 -147 -9 -160 51 -7 31 -51 83 -95 112 -14 9 -21 20 -17 24 5 5 246 12 535
16 663 8 876 23 1021 75 67 24 82 25 175 20 55 -4 182 -18 281 -33 162 -24
189 -25 272 -15 168 20 346 11 329 -17 -3 -5 -65 -12 -138 -16 -160 -8 -178
-12 -178 -39 0 -19 -4 -20 -122 -14 -68 4 -149 10 -182 13 -48 6 -58 5 -54 -7
16 -50 168 -82 393 -83 162 -1 200 6 192 34 -12 45 34 53 433 80 529 36 547
36 573 13 18 -17 41 -22 137 -27 63 -4 145 -11 181 -17 90 -14 164 -9 164 11
0 8 -23 27 -51 42 -87 47 -330 79 -614 81 -166 2 -178 0 -224 -22 l-49 -24
-19 22 c-10 13 -18 26 -18 30 1 30 58 50 147 51 50 0 75 12 53 25 -43 27 44
74 197 104 156 32 213 28 213 -15 0 -19 10 -29 45 -45 25 -12 45 -26 46 -33 1
-6 2 -20 3 -31 0 -10 12 -25 26 -33 30 -15 112 -11 135 8 15 12 13 16 -14 37
-64 50 -28 67 133 64 139 -2 282 -25 400 -65 124 -43 196 -56 300 -56 104 1
159 14 220 53 41 26 62 32 118 35 75 5 98 -6 98 -44 0 -33 35 -53 129 -71 45
-9 81 -19 81 -23 0 -8 -335 -20 -556 -20 -82 0 -211 -5 -285 -11 -179 -14
-394 -57 -376 -75 3 -4 158 -1 344 5 352 12 428 9 428 -22 0 -9 10 -24 23 -32
12 -9 22 -26 22 -39 0 -46 57 -65 75 -23 14 30 51 30 47 0 -5 -34 28 -37 247
-24 108 7 405 18 661 26 431 13 570 24 570 45 0 35 -217 46 -352 17 -83 -18
-312 -22 -401 -8 -47 8 -77 25 -65 37 6 5 135 31 268 52 47 8 34 10 -87 11
-78 0 -177 6 -220 12 -121 16 -211 56 -135 61 15 0 88 2 162 2 113 1 146 5
200 24 126 44 193 98 171 140 -9 17 -7 21 12 26 12 3 40 6 61 6 66 0 30 19
-115 61 -144 43 -182 61 -177 87 4 20 58 41 109 41 93 2 294 -71 333 -121 18
-24 33 -31 87 -38 81 -12 139 -12 139 -1 0 5 -28 19 -62 31 -91 33 -146 67
-163 100 -34 66 12 76 147 34 109 -35 193 -77 246 -126 43 -39 79 -47 74 -16
-3 21 14 33 77 52 88 26 168 18 101 -10 -32 -14 -40 -38 -16 -47 17 -7 57 4
109 29 l37 18 28 -27 c33 -32 70 -34 173 -11 43 10 90 14 122 10 199 -22 529
-15 977 20 198 15 519 50 526 57 2 2 -94 9 -214 15 -266 15 -565 16 -612 2
-71 -21 -321 -31 -555 -21 -222 10 -305 21 -305 42 0 6 8 5 21 -1 33 -18 37
-1 5 27 -42 36 -95 20 -96 -29 0 -10 -12 -25 -26 -35 -23 -15 -33 -15 -84 -5
-110 23 -248 100 -276 153 -13 26 -13 30 6 49 35 35 115 24 163 -23 39 -40 86
-48 332 -57 154 -6 246 -14 280 -25 82 -24 85 -23 85 39 0 30 -5 58 -10 61 -6
4 -36 -1 -68 -11 -173 -53 -662 20 -594 88 8 8 36 4 94 -12 63 -17 122 -23
244 -27 262 -9 396 28 368 100 -8 22 -139 87 -175 87 -18 0 -32 -7 -38 -19
-13 -23 -7 -28 67 -65 97 -49 75 -53 -193 -36 -172 11 -254 24 -297 46 -26 14
-28 19 -28 78 0 50 -4 67 -20 81 -13 12 -17 25 -14 44 4 20 0 28 -18 36 -13 6
-24 20 -26 35 -5 33 -17 44 -49 45 -50 0 -36 23 24 36 68 14 354 18 498 5 64
-5 109 -4 125 2 l25 10 -30 12 c-78 30 -240 44 -550 45 -170 0 -331 5 -357 9
-32 6 -48 5 -48 -1z m-691 -861 c103 -30 131 -52 97 -78 -40 -29 -157 -13
-203 29 -31 28 -30 77 1 77 6 0 53 -13 105 -28z m-169 -116 c66 -29 141 -38
193 -23 41 11 49 -19 13 -50 -24 -20 -37 -23 -119 -23 -117 0 -296 16 -411 36
-101 18 -212 50 -221 64 -13 20 84 28 315 25 156 -2 169 -3 230 -29z m-3840
-31 c80 -8 303 -19 495 -25 407 -11 475 -16 475 -35 0 -16 31 -25 88 -25 23 0
42 -4 42 -9 0 -19 -105 -45 -182 -46 -66 0 -81 3 -110 25 -37 28 -19 27 -403
19 -199 -3 -275 5 -457 52 -113 28 -136 38 -118 49 8 6 17 10 20 10 3 -1 70
-7 150 -15z m3678 -206 c39 -13 40 -21 5 -48 -54 -44 -157 -66 -298 -66 -119
0 -135 2 -185 26 -77 37 -109 64 -92 80 25 27 491 32 570 8z"/>
<path d="M8554 2740 c-99 -11 -173 -34 -213 -68 -55 -45 -35 -55 43 -21 111
49 163 54 485 41 331 -14 546 -15 515 -2 -43 17 -568 61 -699 58 -33 0 -92 -4
-131 -8z"/>
<path d="M7921 2691 c-11 -7 -9 -10 8 -16 25 -8 64 3 56 16 -8 11 -46 12 -64
0z"/>
<path d="M8555 2584 c-245 -38 -445 -44 -719 -20 -226 20 -279 24 -293 19 -78
-27 207 -100 462 -118 135 -9 582 39 702 76 80 25 143 55 143 69 0 16 -73 10
-295 -26z"/>
<path d="M9160 2593 c-55 -9 -149 -45 -165 -63 -10 -11 -15 -26 -12 -35 9 -23
79 -20 111 6 25 20 35 21 139 15 134 -8 212 6 212 39 0 30 -55 44 -165 43 -52
0 -106 -3 -120 -5z"/>
<path d="M7394 2555 c-8 -21 14 -45 41 -45 25 0 60 34 50 49 -10 17 -85 14
-91 -4z"/>
<path d="M5985 2460 c-4 -6 12 -10 40 -10 28 0 44 4 40 10 -3 6 -21 10 -40 10
-19 0 -37 -4 -40 -10z"/>
<path d="M3395 2430 c-13 -6 7 -9 60 -9 53 0 73 3 60 9 -11 5 -38 9 -60 9 -22
0 -49 -4 -60 -9z"/>
<path d="M8845 2430 c-33 -5 -114 -22 -180 -39 -169 -44 -217 -48 -285 -22
-76 29 -105 27 -142 -10 -37 -37 -30 -47 43 -58 55 -9 159 1 344 33 205 36
398 42 602 21 l48 -5 -40 15 c-143 57 -283 80 -390 65z"/>
<path d="M2395 2390 c-4 -6 10 -10 34 -10 23 0 41 5 41 10 0 6 -15 10 -34 10
-19 0 -38 -4 -41 -10z"/>
<path d="M5580 2319 c0 -38 137 -199 170 -199 20 0 10 48 -18 86 -34 46 -127
134 -142 134 -5 0 -10 -10 -10 -21z"/>
<path d="M9153 2304 c-12 -3 -27 -12 -33 -19 -20 -24 13 -30 147 -30 82 0 126
4 134 12 10 10 6 15 -17 24 -30 12 -194 21 -231 13z"/>
<path d="M5480 2251 c0 -14 41 -41 62 -41 27 0 22 25 -7 38 -31 14 -55 15 -55
3z"/>
<path d="M8580 2241 l-25 -8 30 -6 c144 -33 421 -49 413 -25 -9 25 -94 40
-243 44 -82 2 -161 0 -175 -5z"/>
<path d="M72 2231 c-10 -6 -7 -10 11 -15 29 -7 60 2 51 15 -7 11 -45 11 -62 0z"/>
<path d="M3085 2230 c-173 -16 -225 -22 -225 -30 0 -7 16 -7 355 11 275 14
332 27 115 27 -91 -1 -201 -4 -245 -8z"/>
<path d="M2572 2201 c-18 -11 27 -20 64 -13 31 6 13 22 -26 22 -14 0 -31 -4
-38 -9z"/>
<path d="M4375 2201 c-18 -8 -18 -10 -3 -16 22 -9 63 -3 63 10 0 13 -35 16
-60 6z"/>
<path d="M8122 2201 c-10 -6 -7 -10 12 -13 37 -7 82 2 64 13 -17 11 -59 11
-76 0z"/>
<path d="M1960 2160 c8 -5 33 -10 55 -10 22 0 47 5 55 10 10 7 -6 10 -55 10
-49 0 -65 -3 -55 -10z"/>
<path d="M2290 2160 c8 -5 33 -10 55 -10 22 0 47 5 55 10 10 7 -6 10 -55 10
-49 0 -65 -3 -55 -10z"/>
<path d="M3845 2160 c3 -5 24 -10 45 -10 21 0 42 5 45 10 4 6 -13 10 -45 10
-32 0 -49 -4 -45 -10z"/>
<path d="M3680 2130 c0 -5 20 -10 45 -10 25 0 45 5 45 10 0 6 -20 10 -45 10
-25 0 -45 -4 -45 -10z"/>
<path d="M8723 2084 c-3 -9 3 -25 16 -37 39 -40 241 -33 241 8 0 16 -14 21
-100 35 -97 15 -149 13 -157 -6z"/>
<path d="M4655 2075 c-16 -7 -70 -18 -120 -25 -122 -16 -140 -29 -45 -32 114
-4 244 2 254 13 11 10 -30 60 -48 58 -6 0 -24 -7 -41 -14z"/>
<path d="M2840 2071 c-22 -6 -23 -8 -7 -14 27 -10 75 -9 82 3 3 6 0 10 -9 10
-8 0 -20 2 -28 4 -7 2 -24 1 -38 -3z"/>
<path d="M5069 2070 c-88 -8 -134 -23 -124 -40 9 -14 104 -40 148 -40 43 0
101 30 111 57 7 18 -10 33 -34 31 -8 0 -54 -4 -101 -8z"/>
<path d="M5326 2071 c-3 -5 1 -15 10 -22 12 -10 14 -23 9 -56 -7 -50 6 -56 49
-22 33 26 35 71 4 93 -25 17 -64 21 -72 7z"/>
<path d="M7991 2057 c-34 -17 -31 -32 8 -35 36 -4 84 12 102 34 10 12 3 14
-37 14 -27 0 -60 -6 -73 -13z"/>
<path d="M2660 2030 c0 -5 16 -10 35 -10 19 0 35 5 35 10 0 6 -16 10 -35 10
-19 0 -35 -4 -35 -10z"/>
<path d="M4140 2030 c8 -5 38 -10 65 -10 28 0 57 5 65 10 10 7 -10 10 -65 10
-55 0 -75 -3 -65 -10z"/>
<path d="M2040 2000 c-11 -7 -3 -10 28 -10 26 0 41 4 37 10 -8 13 -45 13 -65
0z"/>
<path d="M2185 2000 c-4 -6 18 -10 59 -10 37 0 66 4 66 10 0 6 -26 10 -59 10
-33 0 -63 -4 -66 -10z"/>
<path d="M9279 1989 l-24 -20 53 6 c63 7 84 14 76 26 -10 17 -81 10 -105 -12z"/>
<path d="M9088 1850 c-91 -47 -159 -61 -283 -59 -139 3 -165 1 -165 -10 0 -19
67 -31 175 -31 210 0 371 46 363 104 -4 30 -26 29 -90 -4z"/>
<path d="M6422 1752 c-95 -88 -84 -122 39 -122 135 0 539 82 539 109 0 28
-146 42 -221 21 -20 -6 -48 -24 -62 -40 -24 -26 -34 -30 -80 -30 -70 0 -112
26 -128 80 -7 22 -15 40 -19 40 -4 0 -35 -26 -68 -58z"/>
<path d="M7488 1780 c-121 -10 -222 -28 -244 -45 -25 -18 -8 -38 27 -31 29 5
29 5 29 -40 0 -68 21 -99 90 -131 33 -15 60 -31 60 -35 0 -5 -18 -8 -41 -8
-72 0 -104 -35 -56 -62 49 -28 490 -10 593 25 49 16 55 34 9 29 -25 -3 -47 3
-82 24 -77 46 -80 47 -263 53 -149 6 -181 10 -209 26 -48 28 -58 60 -25 82 35
23 188 28 383 14 125 -9 165 -16 215 -37 97 -40 152 -53 286 -64 164 -13 197
-19 210 -35 9 -10 7 -16 -7 -23 -30 -17 -132 -32 -210 -32 -78 0 -92 -10 -43
-30 68 -28 297 7 349 54 25 23 94 35 259 45 152 10 220 27 229 57 7 22 -31 24
-141 8 -180 -27 -777 -7 -810 27 -6 6 -6 9 0 9 5 0 36 4 69 10 33 5 125 14
205 20 156 11 190 17 190 32 0 11 -40 47 -53 48 -5 0 -6 -9 -2 -20 5 -15 0
-21 -20 -26 -34 -8 -84 2 -107 23 -27 25 -101 27 -271 8 -165 -18 -218 -17
-282 8 -51 19 -211 28 -337 17z m110 -276 c26 -18 29 -44 6 -44 -20 0 -94 41
-94 52 0 14 65 9 88 -8z"/>
<path d="M4433 1698 c-35 -5 -63 -13 -63 -18 0 -11 127 -40 203 -47 31 -3 57
-3 57 1 0 21 -26 49 -55 62 -38 16 -52 16 -142 2z"/>
<path d="M9325 1668 c-32 -18 -75 -60 -69 -70 3 -4 35 -8 72 -8 101 0 147 41
82 75 -34 18 -57 19 -85 3z"/>
<path d="M6935 1636 c-105 -15 -172 -32 -180 -46 -13 -20 51 -30 203 -31 86
-1 168 -4 182 -8 37 -10 30 -32 -14 -47 -90 -32 -89 -59 2 -51 93 8 166 36
170 65 5 33 -15 52 -53 52 -26 0 -39 8 -63 37 -28 35 -33 37 -93 39 -35 2
-104 -3 -154 -10z"/>
<path d="M7910 1605 c-17 -21 -5 -45 23 -45 29 0 52 24 43 45 -7 19 -50 19
-66 0z"/>
<path d="M6497 1554 c-62 -19 -53 -39 14 -31 55 7 92 23 84 38 -8 13 -41 10
-98 -7z"/>
<path d="M9550 1544 c-14 -3 -88 -16 -165 -31 -143 -26 -228 -27 -453 -7 -82
8 -96 3 -178 -52 -37 -26 -86 -53 -108 -59 -59 -18 -54 -40 9 -40 35 1 71 10
119 33 86 40 155 49 511 62 553 22 560 23 492 74 -23 17 -44 21 -115 23 -48 0
-98 -1 -112 -3z"/>
<path d="M1705 1510 c-105 -16 -172 -41 -160 -61 3 -4 -6 -16 -21 -26 -42 -27
-182 -29 -349 -4 -165 24 -331 37 -370 27 -60 -15 34 -56 129 -56 60 0 136
-17 182 -41 25 -12 59 -19 95 -19 53 0 94 7 339 58 52 11 139 25 193 31 54 6
113 17 131 25 35 14 69 53 60 68 -6 10 -159 9 -229 -2z"/>
<path d="M3085 1476 c-26 -19 -13 -42 40 -68 93 -45 49 -56 -275 -67 -140 -5
-263 -12 -272 -16 -10 -4 -18 -14 -18 -22 0 -13 28 -14 198 -11 116 2 199 -1
202 -6 9 -17 -92 -36 -220 -43 -117 -5 -130 -4 -200 20 -124 43 -224 51 -596
52 l-341 0 -54 -28 c-60 -30 -240 -70 -386 -86 -51 -5 -112 -19 -135 -29 -42
-19 -111 -81 -92 -83 29 -3 100 6 271 36 106 19 250 42 320 51 70 9 155 26
188 37 55 20 78 22 295 21 132 -1 318 -10 425 -19 376 -35 694 -11 683 52 -2
14 5 19 37 21 49 4 68 18 59 45 -6 20 -6 20 22 0 16 -12 48 -26 72 -32 59 -16
269 -30 457 -31 174 0 419 -16 475 -30 19 -5 60 -16 90 -25 136 -39 574 -95
593 -76 24 24 -177 78 -326 88 -54 3 -94 9 -90 13 12 11 224 30 326 30 158 0
237 -31 237 -93 1 -71 61 -152 138 -184 56 -23 382 -101 472 -112 92 -12 241
-13 279 -2 76 21 -10 51 -146 51 -101 0 -257 22 -329 45 -28 10 -63 31 -80 50
-22 24 -50 39 -90 50 -90 25 -129 40 -129 50 0 19 84 24 298 18 150 -4 217 -3
217 4 0 23 -75 37 -380 73 -104 12 -172 37 -190 69 -9 18 -7 28 9 55 12 18 21
37 21 41 0 13 -48 -5 -108 -41 -59 -34 -61 -35 -119 -25 -32 6 -139 15 -238
21 -99 5 -198 15 -220 21 -22 6 -58 28 -80 50 -23 21 -45 39 -51 39 -5 0 -26
-14 -46 -30 -76 -63 -149 -77 -183 -35 -15 18 -42 30 -102 45 -92 23 -261 50
-309 50 -40 0 -80 -30 -71 -53 5 -14 22 -17 99 -17 73 0 108 -6 162 -25 38
-13 77 -31 85 -40 14 -13 3 -15 -109 -15 -169 0 -441 17 -497 32 -27 6 -68 29
-101 56 -84 68 -146 88 -187 58z"/>
<path d="M4830 1459 c-121 -11 -192 -26 -216 -45 -17 -14 -14 -15 36 -9 30 3
130 10 221 15 163 9 199 15 199 30 0 20 -79 23 -240 9z"/>
<path d="M7187 1409 c-18 -10 -18 -12 -1 -30 10 -11 30 -19 50 -19 34 0 84
-18 84 -30 0 -35 -118 -66 -214 -56 -88 9 -135 26 -169 63 -35 37 -67 42 -122
19 -46 -19 -47 -49 -3 -76 18 -11 74 -29 126 -41 51 -12 95 -25 97 -29 9 -15
-53 -21 -96 -10 -48 13 -143 59 -200 97 -20 13 -59 31 -85 39 -42 12 -50 12
-71 -1 -29 -20 -29 -26 4 -60 39 -38 107 -71 213 -101 81 -23 103 -26 203 -21
241 11 370 26 401 49 17 12 51 23 78 26 26 2 48 7 48 10 0 4 -19 23 -42 44
l-43 37 45 0 c25 1 97 -4 160 -9 156 -13 313 0 288 25 -3 3 -82 12 -174 20
-338 28 -420 37 -489 51 -38 8 -70 14 -70 14 0 0 -8 -5 -18 -11z"/>
<path d="M8876 1351 c-16 -3 -31 -12 -34 -19 -5 -15 56 -42 95 -42 21 -1 24
-3 13 -9 -8 -5 -154 -11 -325 -15 -170 -3 -332 -10 -360 -16 -27 -5 -70 -12
-94 -16 l-43 -7 7 61 c4 34 4 62 -1 62 -4 0 -30 -22 -59 -49 -37 -35 -68 -54
-106 -66 -81 -24 -266 -52 -536 -80 -133 -14 -261 -31 -283 -38 -90 -26 -41
-32 248 -31 300 1 562 18 817 54 213 31 435 50 569 50 171 0 400 17 471 35 66
17 108 43 113 70 4 16 -4 17 -119 10 -119 -7 -123 -6 -139 15 -25 34 -148 50
-234 31z"/>
<path d="M9485 1287 c-18 -28 -11 -57 15 -57 24 0 42 24 38 52 -4 31 -33 34
-53 5z"/>
<path d="M5928 1264 c-69 -20 89 -114 259 -155 175 -42 363 -1 363 80 0 29
-551 95 -622 75z m417 -79 c33 -9 66 -22 74 -30 12 -12 10 -15 -14 -21 -37 -9
-202 2 -245 17 -19 6 -42 18 -50 26 -13 12 -13 15 0 24 20 14 159 4 235 -16z"/>
<path d="M3222 1214 c-20 -9 -4 -23 64 -54 37 -17 63 -34 59 -40 -8 -12 -193
-13 -535 0 -140 5 -273 5 -295 1 l-40 -7 70 -12 c86 -14 262 -29 455 -38 80
-4 154 -10 165 -14 37 -14 -32 -31 -170 -41 -235 -18 -253 -20 -272 -34 -10
-7 -15 -16 -11 -20 18 -18 218 -26 713 -28 570 -2 650 2 808 45 l78 21 61 -32
c44 -23 75 -31 112 -31 35 -1 46 -3 36 -10 -21 -12 -150 -27 -290 -35 -150 -8
-227 -22 -270 -48 -31 -20 -52 -22 -190 -25 -118 -3 -172 0 -225 13 -133 31
-257 38 -482 28 -187 -9 -215 -13 -246 -32 -35 -21 -187 -65 -267 -76 -25 -3
-57 -8 -73 -11 -22 -5 -34 1 -59 28 l-31 33 -130 -3 c-115 -3 -129 -2 -118 11
31 38 186 50 431 33 76 -5 119 -3 154 6 48 14 46 14 -180 36 -126 12 -292 27
-368 33 -161 12 -210 25 -214 55 -9 65 107 76 268 26 136 -42 203 -55 300 -55
80 -1 130 12 130 32 0 15 -29 21 -147 31 -98 8 -122 13 -161 37 -73 44 -96 51
-174 59 -40 3 -100 15 -133 27 -48 16 -83 20 -177 19 -209 -2 -542 -53 -608
-93 -56 -35 -34 -44 92 -41 95 3 118 1 131 -13 16 -15 34 -81 25 -90 -2 -3
-89 -16 -194 -30 -419 -57 -662 -104 -543 -105 43 -1 104 -22 130 -46 13 -12
23 -15 27 -8 12 19 45 32 122 48 176 36 793 99 916 94 63 -3 69 -5 66 -23 -15
-88 -211 -138 -281 -71 -24 23 -35 26 -97 25 -98 -1 -114 -10 -59 -33 25 -10
45 -22 45 -26 0 -42 -395 -69 -728 -50 -121 7 -225 10 -233 7 -27 -9 96 -56
180 -68 106 -15 497 -6 661 15 63 8 177 21 254 27 130 12 139 12 152 -5 12
-17 17 -17 106 4 51 12 136 24 189 27 81 5 100 3 123 -12 29 -19 73 -19 282 6
l111 13 51 -27 c29 -15 66 -27 84 -27 l33 1 -33 27 c-18 15 -32 30 -32 35 0
16 57 28 208 42 87 8 185 17 220 21 59 7 63 6 69 -15 7 -28 37 -34 138 -29 94
5 102 -4 20 -23 -90 -20 -67 -33 48 -26 203 12 595 92 669 137 19 11 50 20 75
20 35 0 45 -5 63 -30 12 -16 30 -30 41 -30 32 0 59 -19 59 -41 0 -11 21 -41
48 -68 75 -75 131 -78 67 -4 -20 24 -39 59 -45 86 -18 82 18 187 65 187 8 0
15 -4 15 -9 0 -5 -7 -25 -15 -44 -21 -50 -19 -106 5 -144 24 -41 101 -98 160
-119 101 -36 191 -86 200 -109 18 -46 124 -45 155 1 15 24 19 24 90 18 49 -4
75 -3 75 3 0 20 -76 42 -246 73 -143 27 -218 48 -285 81 -109 54 -132 115 -85
220 37 81 41 105 19 114 -30 14 -412 18 -571 6 -82 -6 -222 -20 -313 -32 -101
-13 -183 -18 -214 -14 -47 6 -189 58 -209 76 -6 5 56 9 140 9 226 0 371 22
414 62 19 18 19 21 5 48 -23 45 -50 46 -140 3 -74 -35 -87 -38 -170 -38 -83 0
-97 3 -180 40 -86 37 -178 54 -213 39z m-1289 -166 c21 -25 13 -37 -35 -52
-25 -8 -36 -20 -44 -45 -13 -39 -31 -49 -90 -50 -38 -1 -72 18 -58 32 9 9 -38
34 -77 41 -39 7 -72 35 -61 52 17 26 64 38 172 45 142 8 170 5 193 -23z"/>
<path d="M6349 944 c-322 -160 -424 -206 -634 -283 -77 -29 -169 -67 -205 -85
-36 -18 -85 -36 -110 -40 -25 -4 -115 -37 -200 -74 -132 -56 -166 -67 -226
-70 -68 -4 -72 -3 -108 29 -49 43 -74 41 -185 -11 -125 -60 -122 -72 9 -34 45
13 45 13 21 -5 -13 -10 -64 -38 -113 -62 -48 -24 -88 -47 -88 -52 0 -15 184
25 240 53 19 10 45 21 58 25 23 7 23 6 17 -39 -7 -44 -6 -45 21 -51 63 -14 87
-30 127 -84 47 -64 65 -80 90 -81 25 0 22 8 -28 61 -33 35 -45 56 -45 78 0 35
16 46 77 54 24 3 64 19 90 36 25 17 57 31 70 31 65 0 158 81 151 132 -4 24 -1
28 18 28 28 0 33 -13 26 -77 -4 -41 0 -58 17 -87 69 -111 343 -222 581 -233
137 -7 181 3 365 85 169 75 276 143 415 263 186 161 322 229 471 237 95 5 136
-8 165 -54 21 -31 58 -29 62 4 6 39 -23 70 -81 86 -88 25 -165 28 -257 12
-108 -20 -101 -20 -94 9 11 43 -15 29 -85 -46 -274 -296 -440 -443 -467 -416
-10 10 21 51 99 136 191 206 368 452 355 493 -5 15 -63 -59 -127 -162 -116
-185 -294 -378 -420 -454 -100 -61 -159 -77 -313 -83 -292 -12 -493 46 -568
164 -37 58 -37 73 -4 113 32 37 99 72 266 139 160 64 335 147 528 251 165 89
325 185 335 200 15 25 -43 0 -316 -136z m-787 -654 c64 -66 75 -91 27 -63 -42
24 -119 96 -119 111 0 28 38 8 92 -48z"/>
<path d="M6798 1049 c-17 -7 -28 -18 -28 -29 0 -21 33 -32 122 -45 26 -3 63
-17 83 -31 35 -24 85 -33 85 -15 0 16 -74 74 -125 97 -64 30 -103 36 -137 23z"/>
<path d="M575 964 c-39 -11 -39 -23 1 -41 67 -29 497 -18 582 14 38 15 -55 23
-303 28 -143 2 -269 2 -280 -1z"/>
<path d="M7316 944 c-64 -14 -173 -60 -164 -69 2 -2 46 5 98 16 58 12 154 22
247 26 l152 6 33 -35 c25 -27 44 -37 81 -42 27 -4 51 -5 55 -2 9 10 -16 54
-41 71 -66 43 -321 59 -461 29z"/>
<path d="M8059 811 c-13 -11 -20 -23 -16 -27 10 -10 59 16 65 34 6 18 -23 14
-49 -7z"/>
<path d="M542 798 c2 -17 11 -24 31 -26 32 -4 38 21 8 38 -30 16 -43 12 -39
-12z"/>
<path d="M8390 811 c22 -14 165 -32 322 -40 75 -4 141 -10 145 -14 4 -4 -1
-23 -12 -42 -10 -20 -15 -38 -12 -42 14 -13 54 16 71 52 27 56 15 61 -159 74
-269 19 -371 23 -355 12z"/>
<path d="M3030 703 c-19 -24 -21 -38 -18 -100 7 -146 88 -193 337 -193 68 0
122 2 119 5 -3 3 -48 10 -99 16 -170 19 -271 55 -318 115 -28 35 -27 85 2 121
53 66 52 63 24 63 -16 0 -34 -10 -47 -27z"/>
<path d="M8680 651 c-30 -9 -64 -23 -75 -29 -17 -10 -11 -11 35 -12 56 0 120
24 128 48 5 16 -22 14 -88 -7z"/>
<path d="M8453 594 c-25 -11 -12 -25 20 -22 17 2 32 8 32 13 0 11 -33 17 -52
9z"/>
<path d="M4279 549 c-21 -21 -21 -23 -4 -36 33 -23 88 4 69 35 -16 25 -40 26
-65 1z"/>
<path d="M8011 544 c-58 -8 -107 -17 -110 -19 -13 -13 19 -20 98 -20 64 0 98
5 129 19 23 10 42 23 42 28 0 11 -32 9 -159 -8z"/>
<path d="M7195 508 c-92 -10 -195 -34 -210 -49 -7 -7 26 -8 100 -3 137 9 134
-3 -16 -61 -60 -23 -94 -41 -82 -43 34 -5 221 37 348 78 123 40 170 64 160 81
-7 11 -190 10 -300 -3z"/>
<path d="M3800 404 c-181 -42 -261 -54 -413 -63 -152 -8 -204 -23 -128 -36
132 -22 691 72 691 116 0 14 -36 10 -150 -17z"/>
<path d="M6840 361 c-12 -9 -12 -11 2 -16 21 -8 48 -3 51 10 3 14 -34 17 -53
6z"/>
<path d="M7640 332 c0 -26 203 -71 358 -79 98 -5 112 -4 112 10 0 11 -15 20
-42 28 -116 31 -428 61 -428 41z"/>
<path d="M4297 264 c-4 -4 -5 -22 -1 -39 7 -42 -4 -50 -109 -77 -47 -12 -83
-26 -80 -31 18 -29 313 62 339 104 7 12 -30 9 -69 -7 -15 -5 -18 -2 -15 22 3
26 0 29 -27 32 -17 2 -34 0 -38 -4z"/>
<path d="M6751 262 c-11 -8 -9 -13 10 -25 32 -20 60 -25 224 -37 77 -5 181
-19 230 -30 136 -30 262 -24 178 8 -149 57 -596 115 -642 84z"/>
<path d="M3870 216 c0 -9 10 -26 21 -37 19 -19 29 -21 82 -15 66 7 137 25 137
36 0 4 -39 10 -87 14 -49 3 -103 9 -120 12 -26 5 -33 3 -33 -10z"/>
<path d="M5241 173 l-63 -47 33 -28 c59 -51 112 -88 117 -83 3 2 -7 20 -22 39
-32 43 -33 56 -2 56 36 0 50 23 39 67 -5 21 -15 39 -24 41 -8 1 -43 -19 -78
-45z"/>
<path d="M5460 92 c0 -5 8 -13 18 -17 15 -6 13 -10 -13 -30 -16 -13 -27 -26
-24 -29 3 -3 42 7 88 22 l82 27 17 -23 c32 -42 132 -39 115 4 -4 10 -17 14
-39 12 -24 -2 -38 3 -48 17 -12 17 -29 21 -105 23 -56 3 -91 0 -91 -6z"/>
<path d="M6762 60 c-44 -10 -49 -17 -29 -38 16 -15 44 -17 260 -17 239 0 359
8 387 25 45 28 -52 39 -340 38 -135 0 -260 -4 -278 -8z"/>
</g>
</svg>
