<svg
  version="1.2"
  xmlns="http://www.w3.org/2000/svg"
  viewBox="0 0 800 700"
  penrose="0"
>
  <penrose><croppedViewBox>0 0 800 700</croppedViewBox></penrose>
  <rect
    x="0"
    y="0"
    width="800"
    height="700"
    fill="#f7f4e9"
    fill-opacity="1"
    stroke="none"
    rx="0"
    transform="rotate(0, 400, 350)"
  >
    <title>background.icon</title>
  </rect>
  <circle
    fill="#3cbcc3"
    fill-opacity="1"
    cx="620.9888892235784"
    cy="482.8229551646732"
    stroke="#1d1d2c"
    stroke-opacity="1"
    stroke-width="7"
    r="25"
  >
    <title>`XOR`.part2</title>
  </circle>
  <rect
    x="580.9888892235784"
    y="455.6729551646732"
    width="40"
    height="54.3"
    fill="#3cbcc3"
    fill-opacity="1"
    stroke="#1d1d2c"
    stroke-opacity="1"
    stroke-width="3"
    rx="0"
    transform="rotate(0, 600.9888892235784, 482.8229551646732)"
  >
    <title>`XOR`.part1</title>
  </rect>
  <circle
    fill="#3cbcc3"
    fill-opacity="1"
    cx="620.9888892235784"
    cy="482.8229551646732"
    stroke="#3cbcc3"
    stroke-opacity="1"
    stroke-width="3"
    r="24"
  >
    <title>`XOR`.part3</title>
  </circle>
  <circle
    fill="#f7f4e9"
    fill-opacity="1"
    cx="555.4888892235784"
    cy="482.8229551646732"
    stroke="#1d1d2c"
    stroke-opacity="1"
    stroke-width="3"
    r="39.05124837953327"
  >
    <title>`XOR`.part4</title>
  </circle>
  <rect
    x="463.98888922357844"
    y="437.8229551646732"
    width="120"
    height="90"
    fill="#f7f4e9"
    fill-opacity="1"
    stroke="none"
    rx="0"
    transform="rotate(0, 523.9888892235784, 482.8229551646732)"
  >
    <title>`XOR`.part5</title>
  </rect>
  <circle
    fill="#f7f4e9"
    fill-opacity="1"
    cx="544.9888892235784"
    cy="482.8229551646732"
    stroke="#1d1d2c"
    stroke-opacity="1"
    stroke-width="3"
    r="39.05124837953327"
  >
    <title>`XOR`.part6</title>
  </circle>
  <rect
    x="454.98888922357844"
    y="437.8229551646732"
    width="120"
    height="90"
    fill="#f7f4e9"
    fill-opacity="1"
    stroke="none"
    rx="0"
    transform="rotate(0, 514.9888892235784, 482.8229551646732)"
  >
    <title>`XOR`.part7</title>
  </rect>
  <g>
    <line
      x1="158.87541553983453"
      y1="499.8960974061162"
      x2="158.87541397802275"
      y2="311.2570130922164"
      stroke="#1d1d2c"
      stroke-opacity="1"
      stroke-width="3"
    />
    <title>`S2`.line</title>
  </g>
  <circle
    fill="#1d1d2c"
    fill-opacity="1"
    cx="158.8754131760311"
    cy="346.1854300888932"
    stroke="none"
    r="9"
  >
    <title>`S2`.icon</title>
  </circle>
  <g>
    <line
      x1="119.09938633602667"
      y1="346.5293495666939"
      x2="130.01126053345848"
      y2="346.5293495666939"
      stroke="#1d1d2c"
      stroke-opacity="1"
      stroke-width="2.9"
    />
    <title>`C2`.line1</title>
  </g>
  <g>
    <line
      x1="130.01126053345848"
      y1="346.5293495666939"
      x2="130.01126053345848"
      y2="346.1854300888932"
      stroke="#1d1d2c"
      stroke-opacity="1"
      stroke-width="3"
    />
    <title>`C2`.line2</title>
  </g>
  <g>
    <line
      x1="130.01126053345848"
      y1="346.1854300888932"
      x2="158.8754131760311"
      y2="346.1854300888932"
      stroke="#1d1d2c"
      stroke-opacity="1"
      stroke-width="3"
    />
    <title>`C2`.line3</title>
  </g>
  <g>
    <line
      x1="158.87541553983453"
      y1="499.8960974061162"
      x2="381.25229424039895"
      y2="499.8960974061162"
      stroke="#1d1d2c"
      stroke-opacity="1"
      stroke-width="2.9"
    />
    <title>`C4`.line1</title>
  </g>
  <g>
    <line
      x1="381.25229424039895"
      y1="499.8960974061162"
      x2="381.25229424039895"
      y2="499.8229588838336"
      stroke="#1d1d2c"
      stroke-opacity="1"
      stroke-width="3"
    />
    <title>`C4`.line2</title>
  </g>
  <g>
    <line
      x1="381.25229424039895"
      y1="499.8229588838336"
      x2="580.9888805286607"
      y2="499.8229588838336"
      stroke="#1d1d2c"
      stroke-opacity="1"
      stroke-width="3"
    />
    <title>`C4`.line3</title>
  </g>
  <g>
    <line
      x1="283.12557247664023"
      y1="277.0133417886897"
      x2="311.6124032067074"
      y2="277.0133417886897"
      stroke="#1d1d2c"
      stroke-opacity="1"
      stroke-width="2.9"
    />
    <title>`C5`.line1</title>
  </g>
  <g>
    <line
      x1="311.6124032067074"
      y1="277.0133417886897"
      x2="311.6124032067074"
      y2="277.13642988957446"
      stroke="#1d1d2c"
      stroke-opacity="1"
      stroke-width="3"
    />
    <title>`C5`.line2</title>
  </g>
  <g>
    <line
      x1="311.6124032067074"
      y1="277.13642988957446"
      x2="314.1880165557561"
      y2="277.13642988957446"
      stroke="#1d1d2c"
      stroke-opacity="1"
      stroke-width="3"
    />
    <title>`C5`.line3</title>
  </g>
  <g>
    <line
      x1="379.18804325027725"
      y1="294.1364267577412"
      x2="498.61922390958784"
      y2="294.1364267577412"
      stroke="#1d1d2c"
      stroke-opacity="1"
      stroke-width="2.9"
    />
    <title>`C8`.line1</title>
  </g>
  <g>
    <line
      x1="498.61922390958784"
      y1="294.1364267577412"
      x2="498.61922390958784"
      y2="294.1594189105897"
      stroke="#1d1d2c"
      stroke-opacity="1"
      stroke-width="3"
    />
    <title>`C8`.line2</title>
  </g>
  <g>
    <line
      x1="498.61922390958784"
      y1="294.1594189105897"
      x2="720.118947249088"
      y2="294.1594189105897"
      stroke="#1d1d2c"
      stroke-opacity="1"
      stroke-width="3"
    />
    <title>`C8`.line3</title>
  </g>
  <g>
    <line
      x1="645.9888729382593"
      y1="482.8229640920922"
      x2="713.7619483675265"
      y2="482.8229640920922"
      stroke="#1d1d2c"
      stroke-opacity="1"
      stroke-width="2.9"
    />
    <title>`C7`.line1</title>
  </g>
  <g>
    <line
      x1="713.7619483675265"
      y1="482.8229640920922"
      x2="713.7619483675265"
      y2="482.560605591288"
      stroke="#1d1d2c"
      stroke-opacity="1"
      stroke-width="3"
    />
    <title>`C7`.line2</title>
  </g>
  <g>
    <line
      x1="713.7619483675265"
      y1="482.560605591288"
      x2="720.1189441630299"
      y2="482.560605591288"
      stroke="#1d1d2c"
      stroke-opacity="1"
      stroke-width="3"
    />
    <title>`C7`.line3</title>
  </g>
  <g>
    <line
      x1="158.87541397802275"
      y1="311.2570130922164"
      x2="251.4008360048939"
      y2="311.2570130922164"
      stroke="#1d1d2c"
      stroke-opacity="1"
      stroke-width="2.9"
    />
    <title>`C6`.line1</title>
  </g>
  <g>
    <line
      x1="251.4008360048939"
      y1="311.2570130922164"
      x2="251.4008360048939"
      y2="311.1364240474667"
      stroke="#1d1d2c"
      stroke-opacity="1"
      stroke-width="3"
    />
    <title>`C6`.line2</title>
  </g>
  <g>
    <line
      x1="251.4008360048939"
      y1="311.1364240474667"
      x2="314.1880329361172"
      y2="311.1364240474667"
      stroke="#1d1d2c"
      stroke-opacity="1"
      stroke-width="3"
    />
    <title>`C6`.line3</title>
  </g>
  <g>
    <line
      x1="119.09938350719409"
      y1="277.122293019135"
      x2="212.75679090559066"
      y2="277.122293019135"
      stroke="#1d1d2c"
      stroke-opacity="1"
      stroke-width="2.9"
    />
    <title>`C1`.line1</title>
  </g>
  <g>
    <line
      x1="212.75679090559066"
      y1="277.122293019135"
      x2="212.75679090559066"
      y2="277.01340091857327"
      stroke="#1d1d2c"
      stroke-opacity="1"
      stroke-width="3"
    />
    <title>`C1`.line2</title>
  </g>
  <g>
    <line
      x1="212.75679090559066"
      y1="277.01340091857327"
      x2="283.1255689932191"
      y2="277.01340091857327"
      stroke="#1d1d2c"
      stroke-opacity="1"
      stroke-width="3"
    />
    <title>`C1`.line3</title>
  </g>
  <g>
    <line
      x1="283.1255731931916"
      y1="465.92317492017384"
      x2="424.9913399450441"
      y2="465.92317492017384"
      stroke="#1d1d2c"
      stroke-opacity="1"
      stroke-width="2.9"
    />
    <title>`C3`.line1</title>
  </g>
  <g>
    <line
      x1="424.9913399450441"
      y1="465.92317492017384"
      x2="424.9913399450441"
      y2="465.82295631085935"
      stroke="#1d1d2c"
      stroke-opacity="1"
      stroke-width="3"
    />
    <title>`C3`.line2</title>
  </g>
  <g>
    <line
      x1="424.9913399450441"
      y1="465.82295631085935"
      x2="580.9888850894889"
      y2="465.82295631085935"
      stroke="#1d1d2c"
      stroke-opacity="1"
      stroke-width="3"
    />
    <title>`C3`.line3</title>
  </g>
  <circle
    fill="#3cbcc3"
    fill-opacity="1"
    cx="119.09938633602667"
    cy="346.5293495666939"
    stroke="#1d1d2c"
    stroke-opacity="1"
    stroke-width="3"
    r="8"
  >
    <title>`IN2`.icon</title>
  </circle>
  <g>
    <line
      x1="283.1255731931916"
      y1="465.92317492017384"
      x2="283.12557247664023"
      y2="277.0133417886897"
      stroke="#1d1d2c"
      stroke-opacity="1"
      stroke-width="3"
    />
    <title>`S1`.line</title>
  </g>
  <circle
    fill="#1d1d2c"
    fill-opacity="1"
    cx="283.1255689932191"
    cy="277.01340091857327"
    stroke="none"
    r="9"
  >
    <title>`S1`.icon</title>
  </circle>
  <g
    transform="rotate(0, 86.09938633602667, 346.5293495666939)translate(70.01738633602668, 340.7238495666939)"
  >
    <title>`IN2`.symbol</title>
    <svg
      style="font-size: 17px"
      xmlns="http://www.w3.org/2000/svg"
      width="32.164"
      height="11.611"
      role="img"
      focusable="false"
      viewBox="0 -683 1892 683"
    >
      <g
        stroke="none"
        fill="#000000"
        stroke-width="0"
        transform="scale(1,-1)"
        fill-opacity="1"
      >
        <g data-mml-node="math">
          <g data-mml-node="mi">
            <path
              data-c="1D43C"
              d="M43 1Q26 1 26 10Q26 12 29 24Q34 43 39 45Q42 46 54 46H60Q120 46 136 53Q137 53 138 54Q143 56 149 77T198 273Q210 318 216 344Q286 624 286 626Q284 630 284 631Q274 637 213 637H193Q184 643 189 662Q193 677 195 680T209 683H213Q285 681 359 681Q481 681 487 683H497Q504 676 504 672T501 655T494 639Q491 637 471 637Q440 637 407 634Q393 631 388 623Q381 609 337 432Q326 385 315 341Q245 65 245 59Q245 52 255 50T307 46H339Q345 38 345 37T342 19Q338 6 332 0H316Q279 2 179 2Q143 2 113 2T65 2T43 1Z"
            />
          </g>
          <g data-mml-node="mi" transform="translate(504,0)">
            <path
              data-c="1D441"
              d="M234 637Q231 637 226 637Q201 637 196 638T191 649Q191 676 202 682Q204 683 299 683Q376 683 387 683T401 677Q612 181 616 168L670 381Q723 592 723 606Q723 633 659 637Q635 637 635 648Q635 650 637 660Q641 676 643 679T653 683Q656 683 684 682T767 680Q817 680 843 681T873 682Q888 682 888 672Q888 650 880 642Q878 637 858 637Q787 633 769 597L620 7Q618 0 599 0Q585 0 582 2Q579 5 453 305L326 604L261 344Q196 88 196 79Q201 46 268 46H278Q284 41 284 38T282 19Q278 6 272 0H259Q228 2 151 2Q123 2 100 2T63 2T46 1Q31 1 31 10Q31 14 34 26T39 40Q41 46 62 46Q130 49 150 85Q154 91 221 362L289 634Q287 635 234 637Z"
            />
          </g>
          <g data-mml-node="mn" transform="translate(1392,0)">
            <path
              data-c="32"
              d="M109 429Q82 429 66 447T50 491Q50 562 103 614T235 666Q326 666 387 610T449 465Q449 422 429 383T381 315T301 241Q265 210 201 149L142 93L218 92Q375 92 385 97Q392 99 409 186V189H449V186Q448 183 436 95T421 3V0H50V19V31Q50 38 56 46T86 81Q115 113 136 137Q145 147 170 174T204 211T233 244T261 278T284 308T305 340T320 369T333 401T340 431T343 464Q343 527 309 573T212 619Q179 619 154 602T119 569T109 550Q109 549 114 549Q132 549 151 535T170 489Q170 464 154 447T109 429Z"
            />
          </g>
        </g>
      </g>
    </svg>
  </g>
  <circle
    fill="#3cbcc3"
    fill-opacity="1"
    cx="119.09938350719409"
    cy="277.122293019135"
    stroke="#1d1d2c"
    stroke-opacity="1"
    stroke-width="3"
    r="8"
  >
    <title>`IN1`.icon</title>
  </circle>
  <g
    transform="rotate(0, 86.09938350719409, 277.122293019135)translate(70.0173835071941, 271.316793019135)"
  >
    <title>`IN1`.symbol</title>
    <svg
      style="font-size: 17px"
      xmlns="http://www.w3.org/2000/svg"
      width="32.164"
      height="11.611"
      role="img"
      focusable="false"
      viewBox="0 -683 1892 683"
    >
      <g
        stroke="none"
        fill="#000000"
        stroke-width="0"
        transform="scale(1,-1)"
        fill-opacity="1"
      >
        <g data-mml-node="math">
          <g data-mml-node="mi">
            <path
              data-c="1D43C"
              d="M43 1Q26 1 26 10Q26 12 29 24Q34 43 39 45Q42 46 54 46H60Q120 46 136 53Q137 53 138 54Q143 56 149 77T198 273Q210 318 216 344Q286 624 286 626Q284 630 284 631Q274 637 213 637H193Q184 643 189 662Q193 677 195 680T209 683H213Q285 681 359 681Q481 681 487 683H497Q504 676 504 672T501 655T494 639Q491 637 471 637Q440 637 407 634Q393 631 388 623Q381 609 337 432Q326 385 315 341Q245 65 245 59Q245 52 255 50T307 46H339Q345 38 345 37T342 19Q338 6 332 0H316Q279 2 179 2Q143 2 113 2T65 2T43 1Z"
            />
          </g>
          <g data-mml-node="mi" transform="translate(504,0)">
            <path
              data-c="1D441"
              d="M234 637Q231 637 226 637Q201 637 196 638T191 649Q191 676 202 682Q204 683 299 683Q376 683 387 683T401 677Q612 181 616 168L670 381Q723 592 723 606Q723 633 659 637Q635 637 635 648Q635 650 637 660Q641 676 643 679T653 683Q656 683 684 682T767 680Q817 680 843 681T873 682Q888 682 888 672Q888 650 880 642Q878 637 858 637Q787 633 769 597L620 7Q618 0 599 0Q585 0 582 2Q579 5 453 305L326 604L261 344Q196 88 196 79Q201 46 268 46H278Q284 41 284 38T282 19Q278 6 272 0H259Q228 2 151 2Q123 2 100 2T63 2T46 1Q31 1 31 10Q31 14 34 26T39 40Q41 46 62 46Q130 49 150 85Q154 91 221 362L289 634Q287 635 234 637Z"
            />
          </g>
          <g data-mml-node="mn" transform="translate(1392,0)">
            <path
              data-c="31"
              d="M213 578L200 573Q186 568 160 563T102 556H83V602H102Q149 604 189 617T245 641T273 663Q275 666 285 666Q294 666 302 660V361L303 61Q310 54 315 52T339 48T401 46H427V0H416Q395 3 257 3Q121 3 100 0H88V46H114Q136 46 152 46T177 47T193 50T201 52T207 57T213 61V578Z"
            />
          </g>
        </g>
      </g>
    </svg>
  </g>
  <circle
    fill="#3cbcc3"
    fill-opacity="1"
    cx="720.118947249088"
    cy="294.1594189105897"
    stroke="#1d1d2c"
    stroke-opacity="1"
    stroke-width="3"
    r="8"
  >
    <title>`CAR`.icon</title>
  </circle>
  <g
    transform="rotate(0, 757.118947249088, 294.1594189105897)translate(737.832447249088, 287.88641891058967)"
  >
    <title>`CAR`.symbol</title>
    <svg
      style="font-size: 17px"
      xmlns="http://www.w3.org/2000/svg"
      width="38.573"
      height="12.546"
      role="img"
      focusable="false"
      viewBox="0 -716 2269 738"
    >
      <g
        stroke="none"
        fill="#000000"
        stroke-width="0"
        transform="scale(1,-1)"
        fill-opacity="1"
      >
        <g data-mml-node="math">
          <g data-mml-node="mi">
            <path
              data-c="1D436"
              d="M50 252Q50 367 117 473T286 641T490 704Q580 704 633 653Q642 643 648 636T656 626L657 623Q660 623 684 649Q691 655 699 663T715 679T725 690L740 705H746Q760 705 760 698Q760 694 728 561Q692 422 692 421Q690 416 687 415T669 413H653Q647 419 647 422Q647 423 648 429T650 449T651 481Q651 552 619 605T510 659Q484 659 454 652T382 628T299 572T226 479Q194 422 175 346T156 222Q156 108 232 58Q280 24 350 24Q441 24 512 92T606 240Q610 253 612 255T628 257Q648 257 648 248Q648 243 647 239Q618 132 523 55T319 -22Q206 -22 128 53T50 252Z"
            />
          </g>
          <g data-mml-node="mi" transform="translate(760,0)">
            <path
              data-c="1D434"
              d="M208 74Q208 50 254 46Q272 46 272 35Q272 34 270 22Q267 8 264 4T251 0Q249 0 239 0T205 1T141 2Q70 2 50 0H42Q35 7 35 11Q37 38 48 46H62Q132 49 164 96Q170 102 345 401T523 704Q530 716 547 716H555H572Q578 707 578 706L606 383Q634 60 636 57Q641 46 701 46Q726 46 726 36Q726 34 723 22Q720 7 718 4T704 0Q701 0 690 0T651 1T578 2Q484 2 455 0H443Q437 6 437 9T439 27Q443 40 445 43L449 46H469Q523 49 533 63L521 213H283L249 155Q208 86 208 74ZM516 260Q516 271 504 416T490 562L463 519Q447 492 400 412L310 260L413 259Q516 259 516 260Z"
            />
          </g>
          <g data-mml-node="mi" transform="translate(1510,0)">
            <path
              data-c="1D445"
              d="M230 637Q203 637 198 638T193 649Q193 676 204 682Q206 683 378 683Q550 682 564 680Q620 672 658 652T712 606T733 563T739 529Q739 484 710 445T643 385T576 351T538 338L545 333Q612 295 612 223Q612 212 607 162T602 80V71Q602 53 603 43T614 25T640 16Q668 16 686 38T712 85Q717 99 720 102T735 105Q755 105 755 93Q755 75 731 36Q693 -21 641 -21H632Q571 -21 531 4T487 82Q487 109 502 166T517 239Q517 290 474 313Q459 320 449 321T378 323H309L277 193Q244 61 244 59Q244 55 245 54T252 50T269 48T302 46H333Q339 38 339 37T336 19Q332 6 326 0H311Q275 2 180 2Q146 2 117 2T71 2T50 1Q33 1 33 10Q33 12 36 24Q41 43 46 45Q50 46 61 46H67Q94 46 127 49Q141 52 146 61Q149 65 218 339T287 628Q287 635 230 637ZM630 554Q630 586 609 608T523 636Q521 636 500 636T462 637H440Q393 637 386 627Q385 624 352 494T319 361Q319 360 388 360Q466 361 492 367Q556 377 592 426Q608 449 619 486T630 554Z"
            />
          </g>
        </g>
      </g>
    </svg>
  </g>
  <circle
    fill="#3cbcc3"
    fill-opacity="1"
    cx="354.188039275293"
    cy="294.136419047766"
    stroke="#1d1d2c"
    stroke-opacity="1"
    stroke-width="7"
    r="25"
  >
    <title>`AND`.part2</title>
  </circle>
  <rect
    x="314.188039275293"
    y="266.98641904776605"
    width="40"
    height="54.3"
    fill="#3cbcc3"
    fill-opacity="1"
    stroke="#1d1d2c"
    stroke-opacity="1"
    stroke-width="3"
    rx="0"
    transform="rotate(0, 334.188039275293, 294.136419047766)"
  >
    <title>`AND`.part1</title>
  </rect>
  <circle
    fill="#3cbcc3"
    fill-opacity="1"
    cx="354.188039275293"
    cy="294.136419047766"
    stroke="#3cbcc3"
    stroke-opacity="1"
    stroke-width="3"
    r="24"
  >
    <title>`AND`.part3</title>
  </circle>
  <circle
    fill="#3cbcc3"
    fill-opacity="1"
    cx="720.1189441630299"
    cy="482.560605591288"
    stroke="#1d1d2c"
    stroke-opacity="1"
    stroke-width="3"
    r="8"
  >
    <title>`SUM`.icon</title>
  </circle>
  <g
    transform="rotate(0, 757.1189441630299, 482.560605591288)translate(736.1834441630299, 476.38110559128796)"
  >
    <title>`SUM`.symbol</title>
    <svg
      style="font-size: 17px"
      xmlns="http://www.w3.org/2000/svg"
      width="41.871"
      height="12.359"
      role="img"
      focusable="false"
      viewBox="0 -705 2463 727"
    >
      <g
        stroke="none"
        fill="#000000"
        stroke-width="0"
        transform="scale(1,-1)"
        fill-opacity="1"
      >
        <g data-mml-node="math">
          <g data-mml-node="mi">
            <path
              data-c="1D446"
              d="M308 24Q367 24 416 76T466 197Q466 260 414 284Q308 311 278 321T236 341Q176 383 176 462Q176 523 208 573T273 648Q302 673 343 688T407 704H418H425Q521 704 564 640Q565 640 577 653T603 682T623 704Q624 704 627 704T632 705Q645 705 645 698T617 577T585 459T569 456Q549 456 549 465Q549 471 550 475Q550 478 551 494T553 520Q553 554 544 579T526 616T501 641Q465 662 419 662Q362 662 313 616T263 510Q263 480 278 458T319 427Q323 425 389 408T456 390Q490 379 522 342T554 242Q554 216 546 186Q541 164 528 137T492 78T426 18T332 -20Q320 -22 298 -22Q199 -22 144 33L134 44L106 13Q83 -14 78 -18T65 -22Q52 -22 52 -14Q52 -11 110 221Q112 227 130 227H143Q149 221 149 216Q149 214 148 207T144 186T142 153Q144 114 160 87T203 47T255 29T308 24Z"
            />
          </g>
          <g data-mml-node="mi" transform="translate(645,0)">
            <path
              data-c="1D448"
              d="M107 637Q73 637 71 641Q70 643 70 649Q70 673 81 682Q83 683 98 683Q139 681 234 681Q268 681 297 681T342 682T362 682Q378 682 378 672Q378 670 376 658Q371 641 366 638H364Q362 638 359 638T352 638T343 637T334 637Q295 636 284 634T266 623Q265 621 238 518T184 302T154 169Q152 155 152 140Q152 86 183 55T269 24Q336 24 403 69T501 205L552 406Q599 598 599 606Q599 633 535 637Q511 637 511 648Q511 650 513 660Q517 676 519 679T529 683Q532 683 561 682T645 680Q696 680 723 681T752 682Q767 682 767 672Q767 650 759 642Q756 637 737 637Q666 633 648 597Q646 592 598 404Q557 235 548 205Q515 105 433 42T263 -22Q171 -22 116 34T60 167V183Q60 201 115 421Q164 622 164 628Q164 635 107 637Z"
            />
          </g>
          <g data-mml-node="mi" transform="translate(1412,0)">
            <path
              data-c="1D440"
              d="M289 629Q289 635 232 637Q208 637 201 638T194 648Q194 649 196 659Q197 662 198 666T199 671T201 676T203 679T207 681T212 683T220 683T232 684Q238 684 262 684T307 683Q386 683 398 683T414 678Q415 674 451 396L487 117L510 154Q534 190 574 254T662 394Q837 673 839 675Q840 676 842 678T846 681L852 683H948Q965 683 988 683T1017 684Q1051 684 1051 673Q1051 668 1048 656T1045 643Q1041 637 1008 637Q968 636 957 634T939 623Q936 618 867 340T797 59Q797 55 798 54T805 50T822 48T855 46H886Q892 37 892 35Q892 19 885 5Q880 0 869 0Q864 0 828 1T736 2Q675 2 644 2T609 1Q592 1 592 11Q592 13 594 25Q598 41 602 43T625 46Q652 46 685 49Q699 52 704 61Q706 65 742 207T813 490T848 631L654 322Q458 10 453 5Q451 4 449 3Q444 0 433 0Q418 0 415 7Q413 11 374 317L335 624L267 354Q200 88 200 79Q206 46 272 46H282Q288 41 289 37T286 19Q282 3 278 1Q274 0 267 0Q265 0 255 0T221 1T157 2Q127 2 95 1T58 0Q43 0 39 2T35 11Q35 13 38 25T43 40Q45 46 65 46Q135 46 154 86Q158 92 223 354T289 629Z"
            />
          </g>
        </g>
      </g>
    </svg>
  </g>
</svg>
