<svg
  version="1.2"
  xmlns="http://www.w3.org/2000/svg"
  viewBox="0 0 1248 702"
  penrose="0"
>
  <penrose><croppedViewBox>-4 -4 1256 710</croppedViewBox></penrose>
  <rect
    x="0"
    y="0"
    width="1248"
    height="702"
    fill="#000000"
    fill-opacity="0"
    stroke="#808080"
    stroke-opacity="1"
    stroke-width="8"
    rx="0"
    transform="rotate(0, 624, 351)"
  >
    <title>Global.bbox</title>
  </rect>
  <text
    fill="#000000"
    fill-opacity="1"
    stroke="none"
    transform="rotate(0, 312, 609)"
    style="
      font: bold 18px Palatino, Palatino Linotype, Palatino LT STD, Book Antiqua,
        Georgia, serif;
    "
    x="312"
    y="615.5"
    width="94.9375"
    height="13"
    font-size-adjust=""
    alignment-baseline="alphabetic"
    dominant-baseline="alphabetic"
    ascent="13"
    descent="0"
    text-anchor="middle"
    visibility=""
  >
    <title>Global.reactantText</title>
    reactants
  </text>
  <text
    fill="#000000"
    fill-opacity="1"
    stroke="none"
    transform="rotate(0, 936, 609)"
    style="
      font: bold 18px Palatino, Palatino Linotype, Palatino LT STD, Book Antiqua,
        Georgia, serif;
    "
    x="936"
    y="614"
    width="89.0224609375"
    height="18"
    font-size-adjust=""
    alignment-baseline="alphabetic"
    dominant-baseline="alphabetic"
    ascent="14"
    descent="4"
    text-anchor="middle"
    visibility=""
  >
    <title>Global.productText</title>
    products
  </text>
  <ellipse
    fill="#f2f2f2"
    fill-opacity="1"
    cx="437.13982035159233"
    cy="534.8792703198267"
    stroke="#000000"
    stroke-opacity="0"
    stroke-width="3"
    rx="50"
    ry="25"
  >
    <title>`C1`.shadow</title>
  </ellipse>
  <ellipse
    fill="#f2f2f2"
    fill-opacity="1"
    cx="479.8455180656849"
    cy="503.55332383602996"
    stroke="#000000"
    stroke-opacity="0"
    stroke-width="3"
    rx="37.5"
    ry="18.75"
  >
    <title>`H3`.shadow</title>
  </ellipse>
  <ellipse
    fill="#f2f2f2"
    fill-opacity="1"
    cx="404.25993249832595"
    cy="236.02199248030294"
    stroke="#000000"
    stroke-opacity="0"
    stroke-width="3"
    rx="50"
    ry="25"
  >
    <title>`O1`.shadow</title>
  </ellipse>
  <ellipse
    fill="#f2f2f2"
    fill-opacity="1"
    cx="385.02258926554384"
    cy="545.993451444973"
    stroke="#000000"
    stroke-opacity="0"
    stroke-width="3"
    rx="37.5"
    ry="18.75"
  >
    <title>`H1`.shadow</title>
  </ellipse>
  <ellipse
    fill="#f2f2f2"
    fill-opacity="1"
    cx="147.00708476718154"
    cy="240.46751625552716"
    stroke="#000000"
    stroke-opacity="0"
    stroke-width="3"
    rx="50"
    ry="25"
  >
    <title>`O3`.shadow</title>
  </ellipse>
  <ellipse
    fill="#f2f2f2"
    fill-opacity="1"
    cx="402.4293767672334"
    cy="317.53707856237"
    stroke="#000000"
    stroke-opacity="0"
    stroke-width="3"
    rx="50"
    ry="25"
  >
    <title>`O2`.shadow</title>
  </ellipse>
  <ellipse
    fill="#f2f2f2"
    fill-opacity="1"
    cx="216.1929982367148"
    cy="236.73590314224987"
    stroke="#000000"
    stroke-opacity="0"
    stroke-width="3"
    rx="50"
    ry="25"
  >
    <title>`O4`.shadow</title>
  </ellipse>
  <ellipse
    fill="#f2f2f2"
    fill-opacity="1"
    cx="406.3058933946363"
    cy="488.6127594663298"
    stroke="#000000"
    stroke-opacity="0"
    stroke-width="3"
    rx="37.5"
    ry="18.75"
  >
    <title>`H4`.shadow</title>
  </ellipse>
  <ellipse
    fill="#f2f2f2"
    fill-opacity="1"
    cx="483.14038718256654"
    cy="572.2108980943751"
    stroke="#000000"
    stroke-opacity="0"
    stroke-width="3"
    rx="37.5"
    ry="18.75"
  >
    <title>`H2`.shadow</title>
  </ellipse>
  <rect
    x="78"
    y="117"
    width="468"
    height="468"
    fill="#000000"
    fill-opacity="0.1"
    stroke="#000000"
    stroke-opacity="0"
    stroke-width="12"
    rx="20"
    transform="rotate(0, 312, 351)"
  >
    <title>Global.reactantBox</title>
  </rect>
  <ellipse
    fill="#f2f2f2"
    fill-opacity="1"
    cx="937.419251226206"
    cy="258.18988864299473"
    stroke="#000000"
    stroke-opacity="0"
    stroke-width="3"
    rx="50"
    ry="25"
  >
    <title>`O7`.shadow</title>
  </ellipse>
  <ellipse
    fill="#f2f2f2"
    fill-opacity="1"
    cx="824.694236302842"
    cy="531.7996847785328"
    stroke="#000000"
    stroke-opacity="0"
    stroke-width="3"
    rx="37.5"
    ry="18.75"
  >
    <title>`H8`.shadow</title>
  </ellipse>
  <ellipse
    fill="#f2f2f2"
    fill-opacity="1"
    cx="990.8751072099662"
    cy="256.07198405068317"
    stroke="#000000"
    stroke-opacity="0"
    stroke-width="3"
    rx="37.5"
    ry="18.75"
  >
    <title>`H5`.shadow</title>
  </ellipse>
  <ellipse
    fill="#f2f2f2"
    fill-opacity="1"
    cx="1083.2281943047146"
    cy="481.7337935599659"
    stroke="#000000"
    stroke-opacity="0"
    stroke-width="3"
    rx="50"
    ry="25"
  >
    <title>`O6`.shadow</title>
  </ellipse>
  <ellipse
    fill="#f2f2f2"
    fill-opacity="1"
    cx="771.0259303692717"
    cy="533.8817511170072"
    stroke="#000000"
    stroke-opacity="0"
    stroke-width="3"
    rx="50"
    ry="25"
  >
    <title>`O8`.shadow</title>
  </ellipse>
  <ellipse
    fill="#f2f2f2"
    fill-opacity="1"
    cx="1083.2967738050947"
    cy="562.3978587980212"
    stroke="#000000"
    stroke-opacity="0"
    stroke-width="3"
    rx="50"
    ry="25"
  >
    <title>`C2`.shadow</title>
  </ellipse>
  <ellipse
    fill="#f2f2f2"
    fill-opacity="1"
    cx="771.0259510423431"
    cy="460.3806958348641"
    stroke="#000000"
    stroke-opacity="0"
    stroke-width="3"
    rx="37.5"
    ry="18.75"
  >
    <title>`H7`.shadow</title>
  </ellipse>
  <ellipse
    fill="#f2f2f2"
    fill-opacity="1"
    cx="1013.5135927316098"
    cy="565.989555030772"
    stroke="#000000"
    stroke-opacity="0"
    stroke-width="3"
    rx="50"
    ry="25"
  >
    <title>`O5`.shadow</title>
  </ellipse>
  <ellipse
    fill="#f2f2f2"
    fill-opacity="1"
    cx="886.162012674549"
    cy="240.78158724374424"
    stroke="#000000"
    stroke-opacity="0"
    stroke-width="3"
    rx="37.5"
    ry="18.75"
  >
    <title>`H6`.shadow</title>
  </ellipse>
  <circle
    fill="#ffffff"
    fill-opacity="1"
    cx="479.8455180656849"
    cy="453.55332383602996"
    stroke="#808080"
    stroke-opacity="1"
    stroke-width="3"
    r="18.75"
  >
    <title>`H3`.icon</title>
  </circle>
  <g>
    <line
      x1="447.21893147639776"
      y1="477.48593143062965"
      x2="469.7664069408795"
      y2="460.946662725227"
      stroke="#1ab399"
      stroke-opacity="1"
      stroke-width="10"
      stroke-linecap="round"
    />
    <title>12:2:line</title>
  </g>
  <g>
    <line
      x1="447.21893147639776"
      y1="477.48593143062965"
      x2="469.7664069408795"
      y2="460.946662725227"
      stroke="#ffffff"
      stroke-opacity="1"
      stroke-width="4"
      stroke-linecap="round"
    />
    <title>12:2:innerLine</title>
  </g>
  <circle
    fill="#ffffff"
    fill-opacity="1"
    cx="385.02258926554384"
    cy="495.99345144497295"
    stroke="#808080"
    stroke-opacity="1"
    stroke-width="3"
    r="18.75"
  >
    <title>`H1`.icon</title>
  </circle>
  <g>
    <line
      x1="424.9147130431407"
      y1="487.48631705022854"
      x2="397.2476965739955"
      y2="493.3864047145711"
      stroke="#1ab399"
      stroke-opacity="1"
      stroke-width="10"
      stroke-linecap="round"
    />
    <title>12:0:line</title>
  </g>
  <g>
    <line
      x1="424.9147130431407"
      y1="487.48631705022854"
      x2="397.2476965739955"
      y2="493.3864047145711"
      stroke="#ffffff"
      stroke-opacity="1"
      stroke-width="4"
      stroke-linecap="round"
    />
    <title>12:0:innerLine</title>
  </g>
  <circle
    fill="#ffffff"
    fill-opacity="1"
    cx="406.3058933946363"
    cy="438.6127594663298"
    stroke="#808080"
    stroke-opacity="1"
    stroke-width="3"
    r="18.75"
  >
    <title>`H4`.icon</title>
  </circle>
  <g>
    <line
      x1="430.2076900636497"
      y1="474.4775630818001"
      x2="413.23802368257896"
      y2="449.0144667043563"
      stroke="#1ab399"
      stroke-opacity="1"
      stroke-width="10"
      stroke-linecap="round"
    />
    <title>12:3:line</title>
  </g>
  <g>
    <line
      x1="430.2076900636497"
      y1="474.4775630818001"
      x2="413.23802368257896"
      y2="449.0144667043563"
      stroke="#ffffff"
      stroke-opacity="1"
      stroke-width="4"
      stroke-linecap="round"
    />
    <title>12:3:innerLine</title>
  </g>
  <circle
    fill="#ffffff"
    fill-opacity="1"
    cx="483.14038718256654"
    cy="522.2108980943751"
    stroke="#808080"
    stroke-opacity="1"
    stroke-width="3"
    r="18.75"
  >
    <title>`H2`.icon</title>
  </circle>
  <g>
    <line
      x1="446.845768466252"
      y1="492.75610461073757"
      x2="473.43443906790685"
      y2="514.3340638034642"
      stroke="#1ab399"
      stroke-opacity="1"
      stroke-width="10"
      stroke-linecap="round"
    />
    <title>12:1:line</title>
  </g>
  <g>
    <line
      x1="446.845768466252"
      y1="492.75610461073757"
      x2="473.43443906790685"
      y2="514.3340638034642"
      stroke="#ffffff"
      stroke-opacity="1"
      stroke-width="4"
      stroke-linecap="round"
    />
    <title>12:1:innerLine</title>
  </g>
  <circle
    fill="#ffffff"
    fill-opacity="1"
    cx="437.13982035159233"
    cy="484.8792703198267"
    stroke="#000000"
    stroke-opacity="1"
    stroke-width="3"
    r="25"
  >
    <title>`C1`.icon</title>
  </circle>
  <g
    transform="rotate(0, 405.02287432346975, 529.1834015330674)translate(360.0773243234697, 522.4334015330674)"
  >
    <title>`methane`.text</title>
    <svg
      style="font-size: 13.5px"
      xmlns="http://www.w3.org/2000/svg"
      width="89.89110000000001"
      height="13.5"
      role="img"
      focusable="false"
      viewBox="0 -750 6658.6 1000"
    >
      <g
        stroke="none"
        fill="#000000"
        stroke-width="0"
        transform="scale(1,-1)"
        fill-opacity="1"
      >
        <g data-mml-node="math">
          <g data-mml-node="mtext">
            <path
              data-c="6D"
              d="M41 46H55Q94 46 102 60V68Q102 77 102 91T102 122T103 161T103 203Q103 234 103 269T102 328V351Q99 370 88 376T43 385H25V408Q25 431 27 431L37 432Q47 433 65 434T102 436Q119 437 138 438T167 441T178 442H181V402Q181 364 182 364T187 369T199 384T218 402T247 421T285 437Q305 442 336 442Q351 442 364 440T387 434T406 426T421 417T432 406T441 395T448 384T452 374T455 366L457 361L460 365Q463 369 466 373T475 384T488 397T503 410T523 422T546 432T572 439T603 442Q729 442 740 329Q741 322 741 190V104Q741 66 743 59T754 49Q775 46 803 46H819V0H811L788 1Q764 2 737 2T699 3Q596 3 587 0H579V46H595Q656 46 656 62Q657 64 657 200Q656 335 655 343Q649 371 635 385T611 402T585 404Q540 404 506 370Q479 343 472 315T464 232V168V108Q464 78 465 68T468 55T477 49Q498 46 526 46H542V0H534L510 1Q487 2 460 2T422 3Q319 3 310 0H302V46H318Q379 46 379 62Q380 64 380 200Q379 335 378 343Q372 371 358 385T334 402T308 404Q263 404 229 370Q202 343 195 315T187 232V168V108Q187 78 188 68T191 55T200 49Q221 46 249 46H265V0H257L234 1Q210 2 183 2T145 3Q42 3 33 0H25V46H41Z"
            />
            <path
              data-c="65"
              d="M28 218Q28 273 48 318T98 391T163 433T229 448Q282 448 320 430T378 380T406 316T415 245Q415 238 408 231H126V216Q126 68 226 36Q246 30 270 30Q312 30 342 62Q359 79 369 104L379 128Q382 131 395 131H398Q415 131 415 121Q415 117 412 108Q393 53 349 21T250 -11Q155 -11 92 58T28 218ZM333 275Q322 403 238 411H236Q228 411 220 410T195 402T166 381T143 340T127 274V267H333V275Z"
              transform="translate(833,0)"
            />
            <path
              data-c="74"
              d="M27 422Q80 426 109 478T141 600V615H181V431H316V385H181V241Q182 116 182 100T189 68Q203 29 238 29Q282 29 292 100Q293 108 293 146V181H333V146V134Q333 57 291 17Q264 -10 221 -10Q187 -10 162 2T124 33T105 68T98 100Q97 107 97 248V385H18V422H27Z"
              transform="translate(1277,0)"
            />
            <path
              data-c="68"
              d="M41 46H55Q94 46 102 60V68Q102 77 102 91T102 124T102 167T103 217T103 272T103 329Q103 366 103 407T103 482T102 542T102 586T102 603Q99 622 88 628T43 637H25V660Q25 683 27 683L37 684Q47 685 66 686T103 688Q120 689 140 690T170 693T181 694H184V367Q244 442 328 442Q451 442 463 329Q464 322 464 190V104Q464 66 466 59T477 49Q498 46 526 46H542V0H534L510 1Q487 2 460 2T422 3Q319 3 310 0H302V46H318Q379 46 379 62Q380 64 380 200Q379 335 378 343Q372 371 358 385T334 402T308 404Q263 404 229 370Q202 343 195 315T187 232V168V108Q187 78 188 68T191 55T200 49Q221 46 249 46H265V0H257L234 1Q210 2 183 2T145 3Q42 3 33 0H25V46H41Z"
              transform="translate(1666,0)"
            />
            <path
              data-c="61"
              d="M137 305T115 305T78 320T63 359Q63 394 97 421T218 448Q291 448 336 416T396 340Q401 326 401 309T402 194V124Q402 76 407 58T428 40Q443 40 448 56T453 109V145H493V106Q492 66 490 59Q481 29 455 12T400 -6T353 12T329 54V58L327 55Q325 52 322 49T314 40T302 29T287 17T269 6T247 -2T221 -8T190 -11Q130 -11 82 20T34 107Q34 128 41 147T68 188T116 225T194 253T304 268H318V290Q318 324 312 340Q290 411 215 411Q197 411 181 410T156 406T148 403Q170 388 170 359Q170 334 154 320ZM126 106Q126 75 150 51T209 26Q247 26 276 49T315 109Q317 116 318 175Q318 233 317 233Q309 233 296 232T251 223T193 203T147 166T126 106Z"
              transform="translate(2222,0)"
            />
            <path
              data-c="6E"
              d="M41 46H55Q94 46 102 60V68Q102 77 102 91T102 122T103 161T103 203Q103 234 103 269T102 328V351Q99 370 88 376T43 385H25V408Q25 431 27 431L37 432Q47 433 65 434T102 436Q119 437 138 438T167 441T178 442H181V402Q181 364 182 364T187 369T199 384T218 402T247 421T285 437Q305 442 336 442Q450 438 463 329Q464 322 464 190V104Q464 66 466 59T477 49Q498 46 526 46H542V0H534L510 1Q487 2 460 2T422 3Q319 3 310 0H302V46H318Q379 46 379 62Q380 64 380 200Q379 335 378 343Q372 371 358 385T334 402T308 404Q263 404 229 370Q202 343 195 315T187 232V168V108Q187 78 188 68T191 55T200 49Q221 46 249 46H265V0H257L234 1Q210 2 183 2T145 3Q42 3 33 0H25V46H41Z"
              transform="translate(2722,0)"
            />
            <path
              data-c="65"
              d="M28 218Q28 273 48 318T98 391T163 433T229 448Q282 448 320 430T378 380T406 316T415 245Q415 238 408 231H126V216Q126 68 226 36Q246 30 270 30Q312 30 342 62Q359 79 369 104L379 128Q382 131 395 131H398Q415 131 415 121Q415 117 412 108Q393 53 349 21T250 -11Q155 -11 92 58T28 218ZM333 275Q322 403 238 411H236Q228 411 220 410T195 402T166 381T143 340T127 274V267H333V275Z"
              transform="translate(3278,0)"
            />
          </g>
          <g data-mml-node="mtext" transform="translate(3722,0)">
            <path data-c="A0" d="" />
          </g>
          <g data-mml-node="mo" transform="translate(3972,0)">
            <path
              data-c="28"
              d="M94 250Q94 319 104 381T127 488T164 576T202 643T244 695T277 729T302 750H315H319Q333 750 333 741Q333 738 316 720T275 667T226 581T184 443T167 250T184 58T225 -81T274 -167T316 -220T333 -241Q333 -250 318 -250H315H302L274 -226Q180 -141 137 -14T94 250Z"
            />
          </g>
          <g data-mml-node="msub" transform="translate(4361,0)">
            <g data-mml-node="TeXAtom" data-mjx-texclass="ORD">
              <g data-mml-node="mi">
                <path
                  data-c="43"
                  d="M56 342Q56 428 89 500T174 615T283 681T391 705Q394 705 400 705T408 704Q499 704 569 636L582 624L612 663Q639 700 643 704Q644 704 647 704T653 705H657Q660 705 666 699V419L660 413H626Q620 419 619 430Q610 512 571 572T476 651Q457 658 426 658Q322 658 252 588Q173 509 173 342Q173 221 211 151Q232 111 263 84T328 45T384 29T428 24Q517 24 571 93T626 244Q626 251 632 257H660L666 251V236Q661 133 590 56T403 -21Q262 -21 159 83T56 342Z"
                />
                <path
                  data-c="48"
                  d="M128 622Q121 629 117 631T101 634T58 637H25V683H36Q57 680 180 680Q315 680 324 683H335V637H302Q262 636 251 634T233 622L232 500V378H517V622Q510 629 506 631T490 634T447 637H414V683H425Q446 680 569 680Q704 680 713 683H724V637H691Q651 636 640 634T622 622V61Q628 51 639 49T691 46H724V0H713Q692 3 569 3Q434 3 425 0H414V46H447Q489 47 498 49T517 61V332H232V197L233 61Q239 51 250 49T302 46H335V0H324Q303 3 180 3Q45 3 36 0H25V46H58Q100 47 109 49T128 61V622Z"
                  transform="translate(722,0)"
                />
              </g>
            </g>
            <g data-mml-node="mn" transform="translate(1505,-150) scale(0.707)">
              <path
                data-c="34"
                d="M462 0Q444 3 333 3Q217 3 199 0H190V46H221Q241 46 248 46T265 48T279 53T286 61Q287 63 287 115V165H28V211L179 442Q332 674 334 675Q336 677 355 677H373L379 671V211H471V165H379V114Q379 73 379 66T385 54Q393 47 442 46H471V0H462ZM293 211V545L74 212L183 211H293Z"
              />
            </g>
          </g>
          <g data-mml-node="mo" transform="translate(6269.6,0)">
            <path
              data-c="29"
              d="M60 749L64 750Q69 750 74 750H86L114 726Q208 641 251 514T294 250Q294 182 284 119T261 12T224 -76T186 -143T145 -194T113 -227T90 -246Q87 -249 86 -250H74Q66 -250 63 -250T58 -247T55 -238Q56 -237 66 -225Q221 -64 221 250T66 725Q56 737 55 738Q55 746 60 749Z"
            />
          </g>
        </g>
      </g>
    </svg>
  </g>
  <rect
    x="702"
    y="117"
    width="468"
    height="468"
    fill="#000000"
    fill-opacity="0.1"
    stroke="#000000"
    stroke-opacity="0"
    stroke-width="12"
    rx="20"
    transform="rotate(0, 936, 351)"
  >
    <title>Global.productBox</title>
  </rect>
  <circle
    fill="#ffffff"
    fill-opacity="1"
    cx="771.0259510423431"
    cy="410.3806958348641"
    stroke="#808080"
    stroke-opacity="1"
    stroke-width="3"
    r="18.75"
  >
    <title>`H7`.icon</title>
  </circle>
  <g>
    <line
      x1="771.0259338850492"
      y1="471.3817528176633"
      x2="771.0259475265656"
      y2="422.88069413420806"
      stroke="#1ab399"
      stroke-opacity="1"
      stroke-width="10"
      stroke-linecap="round"
    />
    <title>12:6:line</title>
  </g>
  <g>
    <line
      x1="771.0259338850492"
      y1="471.3817528176633"
      x2="771.0259475265656"
      y2="422.88069413420806"
      stroke="#ffffff"
      stroke-opacity="1"
      stroke-width="4"
      stroke-linecap="round"
    />
    <title>12:6:innerLine</title>
  </g>
  <circle
    fill="#ffffff"
    fill-opacity="1"
    cx="824.694236302842"
    cy="481.7996847785327"
    stroke="#808080"
    stroke-opacity="1"
    stroke-width="3"
    r="18.75"
  >
    <title>`H8`.icon</title>
  </circle>
  <g>
    <line
      x1="783.5165320334775"
      y1="483.3971771991249"
      x2="812.2036346386363"
      y2="482.284258696415"
      stroke="#1ab399"
      stroke-opacity="1"
      stroke-width="10"
      stroke-linecap="round"
    />
    <title>12:7:line</title>
  </g>
  <g>
    <line
      x1="783.5165320334775"
      y1="483.3971771991249"
      x2="812.2036346386363"
      y2="482.284258696415"
      stroke="#ffffff"
      stroke-opacity="1"
      stroke-width="4"
      stroke-linecap="round"
    />
    <title>12:7:innerLine</title>
  </g>
  <circle
    fill="#ffffff"
    fill-opacity="1"
    cx="771.0259303692717"
    cy="483.8817511170072"
    stroke="#ff0000"
    stroke-opacity="1"
    stroke-width="3"
    r="25"
  >
    <title>`O8`.icon</title>
  </circle>
  <g
    transform="rotate(0, 791.0259458325145, 443.5704822324537)translate(754.3086458325145, 436.8204822324537)"
  >
    <title>`water2`.text</title>
    <svg
      style="font-size: 13.5px"
      xmlns="http://www.w3.org/2000/svg"
      width="73.4346"
      height="13.5"
      role="img"
      focusable="false"
      viewBox="0 -750 5439.6 1000"
    >
      <g
        stroke="none"
        fill="#000000"
        stroke-width="0"
        transform="scale(1,-1)"
        fill-opacity="1"
      >
        <g data-mml-node="math">
          <g data-mml-node="mtext">
            <path
              data-c="77"
              d="M90 368Q84 378 76 380T40 385H18V431H24L43 430Q62 430 84 429T116 428Q206 428 221 431H229V385H215Q177 383 177 368Q177 367 221 239L265 113L339 328L333 345Q323 374 316 379Q308 384 278 385H258V431H264Q270 428 348 428Q439 428 454 431H461V385H452Q404 385 404 369Q404 366 418 324T449 234T481 143L496 100L537 219Q579 341 579 347Q579 363 564 373T530 385H522V431H529Q541 428 624 428Q692 428 698 431H703V385H697Q696 385 691 385T682 384Q635 377 619 334L559 161Q546 124 528 71Q508 12 503 1T487 -11H479Q460 -11 456 -4Q455 -3 407 133L361 267Q359 263 266 -4Q261 -11 243 -11H238Q225 -11 220 -3L90 368Z"
            />
            <path
              data-c="61"
              d="M137 305T115 305T78 320T63 359Q63 394 97 421T218 448Q291 448 336 416T396 340Q401 326 401 309T402 194V124Q402 76 407 58T428 40Q443 40 448 56T453 109V145H493V106Q492 66 490 59Q481 29 455 12T400 -6T353 12T329 54V58L327 55Q325 52 322 49T314 40T302 29T287 17T269 6T247 -2T221 -8T190 -11Q130 -11 82 20T34 107Q34 128 41 147T68 188T116 225T194 253T304 268H318V290Q318 324 312 340Q290 411 215 411Q197 411 181 410T156 406T148 403Q170 388 170 359Q170 334 154 320ZM126 106Q126 75 150 51T209 26Q247 26 276 49T315 109Q317 116 318 175Q318 233 317 233Q309 233 296 232T251 223T193 203T147 166T126 106Z"
              transform="translate(722,0)"
            />
            <path
              data-c="74"
              d="M27 422Q80 426 109 478T141 600V615H181V431H316V385H181V241Q182 116 182 100T189 68Q203 29 238 29Q282 29 292 100Q293 108 293 146V181H333V146V134Q333 57 291 17Q264 -10 221 -10Q187 -10 162 2T124 33T105 68T98 100Q97 107 97 248V385H18V422H27Z"
              transform="translate(1222,0)"
            />
            <path
              data-c="65"
              d="M28 218Q28 273 48 318T98 391T163 433T229 448Q282 448 320 430T378 380T406 316T415 245Q415 238 408 231H126V216Q126 68 226 36Q246 30 270 30Q312 30 342 62Q359 79 369 104L379 128Q382 131 395 131H398Q415 131 415 121Q415 117 412 108Q393 53 349 21T250 -11Q155 -11 92 58T28 218ZM333 275Q322 403 238 411H236Q228 411 220 410T195 402T166 381T143 340T127 274V267H333V275Z"
              transform="translate(1611,0)"
            />
            <path
              data-c="72"
              d="M36 46H50Q89 46 97 60V68Q97 77 97 91T98 122T98 161T98 203Q98 234 98 269T98 328L97 351Q94 370 83 376T38 385H20V408Q20 431 22 431L32 432Q42 433 60 434T96 436Q112 437 131 438T160 441T171 442H174V373Q213 441 271 441H277Q322 441 343 419T364 373Q364 352 351 337T313 322Q288 322 276 338T263 372Q263 381 265 388T270 400T273 405Q271 407 250 401Q234 393 226 386Q179 341 179 207V154Q179 141 179 127T179 101T180 81T180 66V61Q181 59 183 57T188 54T193 51T200 49T207 48T216 47T225 47T235 46T245 46H276V0H267Q249 3 140 3Q37 3 28 0H20V46H36Z"
              transform="translate(2055,0)"
            />
          </g>
          <g data-mml-node="mtext" transform="translate(2447,0)">
            <path data-c="A0" d="" />
          </g>
          <g data-mml-node="mo" transform="translate(2697,0)">
            <path
              data-c="28"
              d="M94 250Q94 319 104 381T127 488T164 576T202 643T244 695T277 729T302 750H315H319Q333 750 333 741Q333 738 316 720T275 667T226 581T184 443T167 250T184 58T225 -81T274 -167T316 -220T333 -241Q333 -250 318 -250H315H302L274 -226Q180 -141 137 -14T94 250Z"
            />
          </g>
          <g data-mml-node="msub" transform="translate(3086,0)">
            <g data-mml-node="TeXAtom" data-mjx-texclass="ORD">
              <g data-mml-node="mi">
                <path
                  data-c="48"
                  d="M128 622Q121 629 117 631T101 634T58 637H25V683H36Q57 680 180 680Q315 680 324 683H335V637H302Q262 636 251 634T233 622L232 500V378H517V622Q510 629 506 631T490 634T447 637H414V683H425Q446 680 569 680Q704 680 713 683H724V637H691Q651 636 640 634T622 622V61Q628 51 639 49T691 46H724V0H713Q692 3 569 3Q434 3 425 0H414V46H447Q489 47 498 49T517 61V332H232V197L233 61Q239 51 250 49T302 46H335V0H324Q303 3 180 3Q45 3 36 0H25V46H58Q100 47 109 49T128 61V622Z"
                />
              </g>
            </g>
            <g data-mml-node="mn" transform="translate(783,-150) scale(0.707)">
              <path
                data-c="32"
                d="M109 429Q82 429 66 447T50 491Q50 562 103 614T235 666Q326 666 387 610T449 465Q449 422 429 383T381 315T301 241Q265 210 201 149L142 93L218 92Q375 92 385 97Q392 99 409 186V189H449V186Q448 183 436 95T421 3V0H50V19V31Q50 38 56 46T86 81Q115 113 136 137Q145 147 170 174T204 211T233 244T261 278T284 308T305 340T320 369T333 401T340 431T343 464Q343 527 309 573T212 619Q179 619 154 602T119 569T109 550Q109 549 114 549Q132 549 151 535T170 489Q170 464 154 447T109 429Z"
              />
            </g>
          </g>
          <g
            data-mml-node="TeXAtom"
            data-mjx-texclass="ORD"
            transform="translate(4272.6,0)"
          >
            <g data-mml-node="mi">
              <path
                data-c="4F"
                d="M56 340Q56 423 86 494T164 610T270 680T388 705Q521 705 621 601T722 341Q722 260 693 191T617 75T510 4T388 -22T267 3T160 74T85 189T56 340ZM467 647Q426 665 388 665Q360 665 331 654T269 620T213 549T179 439Q174 411 174 354Q174 144 277 61Q327 20 385 20H389H391Q474 20 537 99Q603 188 603 354Q603 411 598 439Q577 592 467 647Z"
              />
            </g>
          </g>
          <g data-mml-node="mo" transform="translate(5050.6,0)">
            <path
              data-c="29"
              d="M60 749L64 750Q69 750 74 750H86L114 726Q208 641 251 514T294 250Q294 182 284 119T261 12T224 -76T186 -143T145 -194T113 -227T90 -246Q87 -249 86 -250H74Q66 -250 63 -250T58 -247T55 -238Q56 -237 66 -225Q221 -64 221 250T66 725Q56 737 55 738Q55 746 60 749Z"
            />
          </g>
        </g>
      </g>
    </svg>
  </g>
  <circle
    fill="#000000"
    fill-opacity="0"
    cx="791.0259458325145"
    cy="443.5704822324537"
    stroke="#000000"
    stroke-opacity="0"
    stroke-width="3"
    r="20"
  >
    <title>`water2`.textPhantom1</title>
  </circle>
  <circle
    fill="#000000"
    fill-opacity="0"
    cx="831.0259458325145"
    cy="443.5704822324537"
    stroke="#000000"
    stroke-opacity="0"
    stroke-width="3"
    r="20"
  >
    <title>`water2`.textPhantom2</title>
  </circle>
  <circle
    fill="#000000"
    fill-opacity="0"
    cx="751.0259458325145"
    cy="443.5704822324537"
    stroke="#000000"
    stroke-opacity="0"
    stroke-width="3"
    r="20"
  >
    <title>`water2`.textPhantom3</title>
  </circle>
  <circle
    fill="#ffffff"
    fill-opacity="1"
    cx="1013.5135927316098"
    cy="515.989555030772"
    stroke="#ff0000"
    stroke-opacity="1"
    stroke-width="3"
    r="25"
  >
    <title>`O5`.icon</title>
  </circle>
  <g>
    <line
      x1="1071.1345578815958"
      y1="519.2821124196741"
      x2="1026.3183251830317"
      y2="521.5887755965794"
      stroke="#1ab399"
      stroke-opacity="1"
      stroke-width="10"
      stroke-linecap="round"
    />
    <title>13:2:line1</title>
  </g>
  <g>
    <line
      x1="1071.1345578815958"
      y1="519.2821124196741"
      x2="1026.3183251830317"
      y2="521.5887755965794"
      stroke="#ffffff"
      stroke-opacity="1"
      stroke-width="4"
      stroke-linecap="round"
    />
    <title>13:2:innerLine1</title>
  </g>
  <g>
    <line
      x1="1070.492041353673"
      y1="506.79863823221376"
      x2="1025.6758086551088"
      y2="509.10530140911897"
      stroke="#1ab399"
      stroke-opacity="1"
      stroke-width="10"
      stroke-linecap="round"
    />
    <title>13:2:line2</title>
  </g>
  <g>
    <line
      x1="1070.492041353673"
      y1="506.79863823221376"
      x2="1025.6758086551088"
      y2="509.10530140911897"
      stroke="#ffffff"
      stroke-opacity="1"
      stroke-width="4"
      stroke-linecap="round"
    />
    <title>13:2:innerLine2</title>
  </g>
  <circle
    fill="#ffffff"
    fill-opacity="1"
    cx="1083.2281943047146"
    cy="431.7337935599659"
    stroke="#ff0000"
    stroke-opacity="1"
    stroke-width="3"
    r="25"
  >
    <title>`O6`.icon</title>
  </circle>
  <g>
    <line
      x1="1077.0361495124557"
      y1="499.90317852839064"
      x2="1076.9888246645937"
      y2="444.2391011558555"
      stroke="#1ab399"
      stroke-opacity="1"
      stroke-width="10"
      stroke-linecap="round"
    />
    <title>13:3:line1</title>
  </g>
  <g>
    <line
      x1="1077.0361495124557"
      y1="499.90317852839064"
      x2="1076.9888246645937"
      y2="444.2391011558555"
      stroke="#ffffff"
      stroke-opacity="1"
      stroke-width="4"
      stroke-linecap="round"
    />
    <title>13:3:innerLine1</title>
  </g>
  <g>
    <line
      x1="1089.5361434452159"
      y1="499.8925512021316"
      x2="1089.4888185973537"
      y2="444.22847382959645"
      stroke="#1ab399"
      stroke-opacity="1"
      stroke-width="10"
      stroke-linecap="round"
    />
    <title>13:3:line2</title>
  </g>
  <g>
    <line
      x1="1089.5361434452159"
      y1="499.8925512021316"
      x2="1089.4888185973537"
      y2="444.22847382959645"
      stroke="#ffffff"
      stroke-opacity="1"
      stroke-width="4"
      stroke-linecap="round"
    />
    <title>13:3:innerLine2</title>
  </g>
  <circle
    fill="#ffffff"
    fill-opacity="1"
    cx="1083.2967738050947"
    cy="512.3978587980212"
    stroke="#000000"
    stroke-opacity="1"
    stroke-width="3"
    r="25"
  >
    <title>`C2`.icon</title>
  </circle>
  <g
    transform="rotate(0, 1063.2209333587596, 472.0488953249268)translate(1000.4283833587596, 465.2988953249268)"
  >
    <title>`carbonDioxide`.text</title>
    <svg
      style="font-size: 13.5px"
      xmlns="http://www.w3.org/2000/svg"
      width="125.5851"
      height="13.5"
      role="img"
      focusable="false"
      viewBox="0 -750 9302.6 1000"
    >
      <g
        stroke="none"
        fill="#000000"
        stroke-width="0"
        transform="scale(1,-1)"
        fill-opacity="1"
      >
        <g data-mml-node="math">
          <g data-mml-node="mtext">
            <path
              data-c="63"
              d="M370 305T349 305T313 320T297 358Q297 381 312 396Q317 401 317 402T307 404Q281 408 258 408Q209 408 178 376Q131 329 131 219Q131 137 162 90Q203 29 272 29Q313 29 338 55T374 117Q376 125 379 127T395 129H409Q415 123 415 120Q415 116 411 104T395 71T366 33T318 2T249 -11Q163 -11 99 53T34 214Q34 318 99 383T250 448T370 421T404 357Q404 334 387 320Z"
            />
            <path
              data-c="61"
              d="M137 305T115 305T78 320T63 359Q63 394 97 421T218 448Q291 448 336 416T396 340Q401 326 401 309T402 194V124Q402 76 407 58T428 40Q443 40 448 56T453 109V145H493V106Q492 66 490 59Q481 29 455 12T400 -6T353 12T329 54V58L327 55Q325 52 322 49T314 40T302 29T287 17T269 6T247 -2T221 -8T190 -11Q130 -11 82 20T34 107Q34 128 41 147T68 188T116 225T194 253T304 268H318V290Q318 324 312 340Q290 411 215 411Q197 411 181 410T156 406T148 403Q170 388 170 359Q170 334 154 320ZM126 106Q126 75 150 51T209 26Q247 26 276 49T315 109Q317 116 318 175Q318 233 317 233Q309 233 296 232T251 223T193 203T147 166T126 106Z"
              transform="translate(444,0)"
            />
            <path
              data-c="72"
              d="M36 46H50Q89 46 97 60V68Q97 77 97 91T98 122T98 161T98 203Q98 234 98 269T98 328L97 351Q94 370 83 376T38 385H20V408Q20 431 22 431L32 432Q42 433 60 434T96 436Q112 437 131 438T160 441T171 442H174V373Q213 441 271 441H277Q322 441 343 419T364 373Q364 352 351 337T313 322Q288 322 276 338T263 372Q263 381 265 388T270 400T273 405Q271 407 250 401Q234 393 226 386Q179 341 179 207V154Q179 141 179 127T179 101T180 81T180 66V61Q181 59 183 57T188 54T193 51T200 49T207 48T216 47T225 47T235 46T245 46H276V0H267Q249 3 140 3Q37 3 28 0H20V46H36Z"
              transform="translate(944,0)"
            />
            <path
              data-c="62"
              d="M307 -11Q234 -11 168 55L158 37Q156 34 153 28T147 17T143 10L138 1L118 0H98V298Q98 599 97 603Q94 622 83 628T38 637H20V660Q20 683 22 683L32 684Q42 685 61 686T98 688Q115 689 135 690T165 693T176 694H179V543Q179 391 180 391L183 394Q186 397 192 401T207 411T228 421T254 431T286 439T323 442Q401 442 461 379T522 216Q522 115 458 52T307 -11ZM182 98Q182 97 187 90T196 79T206 67T218 55T233 44T250 35T271 29T295 26Q330 26 363 46T412 113Q424 148 424 212Q424 287 412 323Q385 405 300 405Q270 405 239 390T188 347L182 339V98Z"
              transform="translate(1336,0)"
            />
            <path
              data-c="6F"
              d="M28 214Q28 309 93 378T250 448Q340 448 405 380T471 215Q471 120 407 55T250 -10Q153 -10 91 57T28 214ZM250 30Q372 30 372 193V225V250Q372 272 371 288T364 326T348 362T317 390T268 410Q263 411 252 411Q222 411 195 399Q152 377 139 338T126 246V226Q126 130 145 91Q177 30 250 30Z"
              transform="translate(1892,0)"
            />
            <path
              data-c="6E"
              d="M41 46H55Q94 46 102 60V68Q102 77 102 91T102 122T103 161T103 203Q103 234 103 269T102 328V351Q99 370 88 376T43 385H25V408Q25 431 27 431L37 432Q47 433 65 434T102 436Q119 437 138 438T167 441T178 442H181V402Q181 364 182 364T187 369T199 384T218 402T247 421T285 437Q305 442 336 442Q450 438 463 329Q464 322 464 190V104Q464 66 466 59T477 49Q498 46 526 46H542V0H534L510 1Q487 2 460 2T422 3Q319 3 310 0H302V46H318Q379 46 379 62Q380 64 380 200Q379 335 378 343Q372 371 358 385T334 402T308 404Q263 404 229 370Q202 343 195 315T187 232V168V108Q187 78 188 68T191 55T200 49Q221 46 249 46H265V0H257L234 1Q210 2 183 2T145 3Q42 3 33 0H25V46H41Z"
              transform="translate(2392,0)"
            />
            <path data-c="20" d="" transform="translate(2948,0)" />
            <path
              data-c="64"
              d="M376 495Q376 511 376 535T377 568Q377 613 367 624T316 637H298V660Q298 683 300 683L310 684Q320 685 339 686T376 688Q393 689 413 690T443 693T454 694H457V390Q457 84 458 81Q461 61 472 55T517 46H535V0Q533 0 459 -5T380 -11H373V44L365 37Q307 -11 235 -11Q158 -11 96 50T34 215Q34 315 97 378T244 442Q319 442 376 393V495ZM373 342Q328 405 260 405Q211 405 173 369Q146 341 139 305T131 211Q131 155 138 120T173 59Q203 26 251 26Q322 26 373 103V342Z"
              transform="translate(3198,0)"
            />
            <path
              data-c="69"
              d="M69 609Q69 637 87 653T131 669Q154 667 171 652T188 609Q188 579 171 564T129 549Q104 549 87 564T69 609ZM247 0Q232 3 143 3Q132 3 106 3T56 1L34 0H26V46H42Q70 46 91 49Q100 53 102 60T104 102V205V293Q104 345 102 359T88 378Q74 385 41 385H30V408Q30 431 32 431L42 432Q52 433 70 434T106 436Q123 437 142 438T171 441T182 442H185V62Q190 52 197 50T232 46H255V0H247Z"
              transform="translate(3754,0)"
            />
            <path
              data-c="6F"
              d="M28 214Q28 309 93 378T250 448Q340 448 405 380T471 215Q471 120 407 55T250 -10Q153 -10 91 57T28 214ZM250 30Q372 30 372 193V225V250Q372 272 371 288T364 326T348 362T317 390T268 410Q263 411 252 411Q222 411 195 399Q152 377 139 338T126 246V226Q126 130 145 91Q177 30 250 30Z"
              transform="translate(4032,0)"
            />
            <path
              data-c="78"
              d="M201 0Q189 3 102 3Q26 3 17 0H11V46H25Q48 47 67 52T96 61T121 78T139 96T160 122T180 150L226 210L168 288Q159 301 149 315T133 336T122 351T113 363T107 370T100 376T94 379T88 381T80 383Q74 383 44 385H16V431H23Q59 429 126 429Q219 429 229 431H237V385Q201 381 201 369Q201 367 211 353T239 315T268 274L272 270L297 304Q329 345 329 358Q329 364 327 369T322 376T317 380T310 384L307 385H302V431H309Q324 428 408 428Q487 428 493 431H499V385H492Q443 385 411 368Q394 360 377 341T312 257L296 236L358 151Q424 61 429 57T446 50Q464 46 499 46H516V0H510H502Q494 1 482 1T457 2T432 2T414 3Q403 3 377 3T327 1L304 0H295V46H298Q309 46 320 51T331 63Q331 65 291 120L250 175Q249 174 219 133T185 88Q181 83 181 74Q181 63 188 55T206 46Q208 46 208 23V0H201Z"
              transform="translate(4532,0)"
            />
            <path
              data-c="69"
              d="M69 609Q69 637 87 653T131 669Q154 667 171 652T188 609Q188 579 171 564T129 549Q104 549 87 564T69 609ZM247 0Q232 3 143 3Q132 3 106 3T56 1L34 0H26V46H42Q70 46 91 49Q100 53 102 60T104 102V205V293Q104 345 102 359T88 378Q74 385 41 385H30V408Q30 431 32 431L42 432Q52 433 70 434T106 436Q123 437 142 438T171 441T182 442H185V62Q190 52 197 50T232 46H255V0H247Z"
              transform="translate(5060,0)"
            />
            <path
              data-c="64"
              d="M376 495Q376 511 376 535T377 568Q377 613 367 624T316 637H298V660Q298 683 300 683L310 684Q320 685 339 686T376 688Q393 689 413 690T443 693T454 694H457V390Q457 84 458 81Q461 61 472 55T517 46H535V0Q533 0 459 -5T380 -11H373V44L365 37Q307 -11 235 -11Q158 -11 96 50T34 215Q34 315 97 378T244 442Q319 442 376 393V495ZM373 342Q328 405 260 405Q211 405 173 369Q146 341 139 305T131 211Q131 155 138 120T173 59Q203 26 251 26Q322 26 373 103V342Z"
              transform="translate(5338,0)"
            />
            <path
              data-c="65"
              d="M28 218Q28 273 48 318T98 391T163 433T229 448Q282 448 320 430T378 380T406 316T415 245Q415 238 408 231H126V216Q126 68 226 36Q246 30 270 30Q312 30 342 62Q359 79 369 104L379 128Q382 131 395 131H398Q415 131 415 121Q415 117 412 108Q393 53 349 21T250 -11Q155 -11 92 58T28 218ZM333 275Q322 403 238 411H236Q228 411 220 410T195 402T166 381T143 340T127 274V267H333V275Z"
              transform="translate(5894,0)"
            />
          </g>
          <g data-mml-node="mtext" transform="translate(6338,0)">
            <path data-c="A0" d="" />
          </g>
          <g data-mml-node="mo" transform="translate(6588,0)">
            <path
              data-c="28"
              d="M94 250Q94 319 104 381T127 488T164 576T202 643T244 695T277 729T302 750H315H319Q333 750 333 741Q333 738 316 720T275 667T226 581T184 443T167 250T184 58T225 -81T274 -167T316 -220T333 -241Q333 -250 318 -250H315H302L274 -226Q180 -141 137 -14T94 250Z"
            />
          </g>
          <g data-mml-node="msub" transform="translate(6977,0)">
            <g data-mml-node="TeXAtom" data-mjx-texclass="ORD">
              <g data-mml-node="mi">
                <path
                  data-c="43"
                  d="M56 342Q56 428 89 500T174 615T283 681T391 705Q394 705 400 705T408 704Q499 704 569 636L582 624L612 663Q639 700 643 704Q644 704 647 704T653 705H657Q660 705 666 699V419L660 413H626Q620 419 619 430Q610 512 571 572T476 651Q457 658 426 658Q322 658 252 588Q173 509 173 342Q173 221 211 151Q232 111 263 84T328 45T384 29T428 24Q517 24 571 93T626 244Q626 251 632 257H660L666 251V236Q661 133 590 56T403 -21Q262 -21 159 83T56 342Z"
                />
                <path
                  data-c="4F"
                  d="M56 340Q56 423 86 494T164 610T270 680T388 705Q521 705 621 601T722 341Q722 260 693 191T617 75T510 4T388 -22T267 3T160 74T85 189T56 340ZM467 647Q426 665 388 665Q360 665 331 654T269 620T213 549T179 439Q174 411 174 354Q174 144 277 61Q327 20 385 20H389H391Q474 20 537 99Q603 188 603 354Q603 411 598 439Q577 592 467 647Z"
                  transform="translate(722,0)"
                />
              </g>
            </g>
            <g data-mml-node="mn" transform="translate(1533,-150) scale(0.707)">
              <path
                data-c="32"
                d="M109 429Q82 429 66 447T50 491Q50 562 103 614T235 666Q326 666 387 610T449 465Q449 422 429 383T381 315T301 241Q265 210 201 149L142 93L218 92Q375 92 385 97Q392 99 409 186V189H449V186Q448 183 436 95T421 3V0H50V19V31Q50 38 56 46T86 81Q115 113 136 137Q145 147 170 174T204 211T233 244T261 278T284 308T305 340T320 369T333 401T340 431T343 464Q343 527 309 573T212 619Q179 619 154 602T119 569T109 550Q109 549 114 549Q132 549 151 535T170 489Q170 464 154 447T109 429Z"
              />
            </g>
          </g>
          <g data-mml-node="mo" transform="translate(8913.6,0)">
            <path
              data-c="29"
              d="M60 749L64 750Q69 750 74 750H86L114 726Q208 641 251 514T294 250Q294 182 284 119T261 12T224 -76T186 -143T145 -194T113 -227T90 -246Q87 -249 86 -250H74Q66 -250 63 -250T58 -247T55 -238Q56 -237 66 -225Q221 -64 221 250T66 725Q56 737 55 738Q55 746 60 749Z"
            />
          </g>
        </g>
      </g>
    </svg>
  </g>
  <text
    fill="#000000"
    fill-opacity="1"
    stroke="none"
    transform="rotate(0, 406.3058933946363, 438.6127594663298)"
    style="font: 10.5px sans-serif"
    x="406.3058933946363"
    y="438.6127594663298"
    width="0"
    height="0"
    font-size-adjust=""
    alignment-baseline="alphabetic"
    dominant-baseline="alphabetic"
    ascent="0"
    descent="0"
    text-anchor="middle"
    visibility=""
  >
    <title>`H4`.text</title>
  </text>
  <circle
    fill="#ffffff"
    fill-opacity="1"
    cx="990.8751072099662"
    cy="206.07198405068317"
    stroke="#808080"
    stroke-opacity="1"
    stroke-width="3"
    r="18.75"
  >
    <title>`H5`.icon</title>
  </circle>
  <g>
    <line
      x1="949.9094496761454"
      y1="207.69503081742656"
      x2="978.3849087600269"
      y2="206.56684187625135"
      stroke="#1ab399"
      stroke-opacity="1"
      stroke-width="10"
      stroke-linecap="round"
    />
    <title>12:4:line</title>
  </g>
  <g>
    <line
      x1="949.9094496761454"
      y1="207.69503081742656"
      x2="978.3849087600269"
      y2="206.56684187625135"
      stroke="#ffffff"
      stroke-opacity="1"
      stroke-width="4"
      stroke-linecap="round"
    />
    <title>12:4:innerLine</title>
  </g>
  <circle
    fill="#ffffff"
    fill-opacity="1"
    cx="886.162012674549"
    cy="190.78158724374424"
    stroke="#808080"
    stroke-opacity="1"
    stroke-width="3"
    r="18.75"
  >
    <title>`H6`.icon</title>
  </circle>
  <g>
    <line
      x1="925.5832463961868"
      y1="204.17007124225225"
      x2="897.9980175045682"
      y2="194.80140464448672"
      stroke="#1ab399"
      stroke-opacity="1"
      stroke-width="10"
      stroke-linecap="round"
    />
    <title>12:5:line</title>
  </g>
  <g>
    <line
      x1="925.5832463961868"
      y1="204.17007124225225"
      x2="897.9980175045682"
      y2="194.80140464448672"
      stroke="#ffffff"
      stroke-opacity="1"
      stroke-width="4"
      stroke-linecap="round"
    />
    <title>12:5:innerLine</title>
  </g>
  <circle
    fill="#ffffff"
    fill-opacity="1"
    cx="937.419251226206"
    cy="208.18988864299473"
    stroke="#ff0000"
    stroke-opacity="1"
    stroke-width="3"
    r="25"
  >
    <title>`O7`.icon</title>
  </circle>
  <g
    transform="rotate(0, 957.4192595175323, 167.87855367460273)translate(920.7019595175323, 161.12855367460273)"
  >
    <title>`water1`.text</title>
    <svg
      style="font-size: 13.5px"
      xmlns="http://www.w3.org/2000/svg"
      width="73.4346"
      height="13.5"
      role="img"
      focusable="false"
      viewBox="0 -750 5439.6 1000"
    >
      <g
        stroke="none"
        fill="#000000"
        stroke-width="0"
        transform="scale(1,-1)"
        fill-opacity="1"
      >
        <g data-mml-node="math">
          <g data-mml-node="mtext">
            <path
              data-c="77"
              d="M90 368Q84 378 76 380T40 385H18V431H24L43 430Q62 430 84 429T116 428Q206 428 221 431H229V385H215Q177 383 177 368Q177 367 221 239L265 113L339 328L333 345Q323 374 316 379Q308 384 278 385H258V431H264Q270 428 348 428Q439 428 454 431H461V385H452Q404 385 404 369Q404 366 418 324T449 234T481 143L496 100L537 219Q579 341 579 347Q579 363 564 373T530 385H522V431H529Q541 428 624 428Q692 428 698 431H703V385H697Q696 385 691 385T682 384Q635 377 619 334L559 161Q546 124 528 71Q508 12 503 1T487 -11H479Q460 -11 456 -4Q455 -3 407 133L361 267Q359 263 266 -4Q261 -11 243 -11H238Q225 -11 220 -3L90 368Z"
            />
            <path
              data-c="61"
              d="M137 305T115 305T78 320T63 359Q63 394 97 421T218 448Q291 448 336 416T396 340Q401 326 401 309T402 194V124Q402 76 407 58T428 40Q443 40 448 56T453 109V145H493V106Q492 66 490 59Q481 29 455 12T400 -6T353 12T329 54V58L327 55Q325 52 322 49T314 40T302 29T287 17T269 6T247 -2T221 -8T190 -11Q130 -11 82 20T34 107Q34 128 41 147T68 188T116 225T194 253T304 268H318V290Q318 324 312 340Q290 411 215 411Q197 411 181 410T156 406T148 403Q170 388 170 359Q170 334 154 320ZM126 106Q126 75 150 51T209 26Q247 26 276 49T315 109Q317 116 318 175Q318 233 317 233Q309 233 296 232T251 223T193 203T147 166T126 106Z"
              transform="translate(722,0)"
            />
            <path
              data-c="74"
              d="M27 422Q80 426 109 478T141 600V615H181V431H316V385H181V241Q182 116 182 100T189 68Q203 29 238 29Q282 29 292 100Q293 108 293 146V181H333V146V134Q333 57 291 17Q264 -10 221 -10Q187 -10 162 2T124 33T105 68T98 100Q97 107 97 248V385H18V422H27Z"
              transform="translate(1222,0)"
            />
            <path
              data-c="65"
              d="M28 218Q28 273 48 318T98 391T163 433T229 448Q282 448 320 430T378 380T406 316T415 245Q415 238 408 231H126V216Q126 68 226 36Q246 30 270 30Q312 30 342 62Q359 79 369 104L379 128Q382 131 395 131H398Q415 131 415 121Q415 117 412 108Q393 53 349 21T250 -11Q155 -11 92 58T28 218ZM333 275Q322 403 238 411H236Q228 411 220 410T195 402T166 381T143 340T127 274V267H333V275Z"
              transform="translate(1611,0)"
            />
            <path
              data-c="72"
              d="M36 46H50Q89 46 97 60V68Q97 77 97 91T98 122T98 161T98 203Q98 234 98 269T98 328L97 351Q94 370 83 376T38 385H20V408Q20 431 22 431L32 432Q42 433 60 434T96 436Q112 437 131 438T160 441T171 442H174V373Q213 441 271 441H277Q322 441 343 419T364 373Q364 352 351 337T313 322Q288 322 276 338T263 372Q263 381 265 388T270 400T273 405Q271 407 250 401Q234 393 226 386Q179 341 179 207V154Q179 141 179 127T179 101T180 81T180 66V61Q181 59 183 57T188 54T193 51T200 49T207 48T216 47T225 47T235 46T245 46H276V0H267Q249 3 140 3Q37 3 28 0H20V46H36Z"
              transform="translate(2055,0)"
            />
          </g>
          <g data-mml-node="mtext" transform="translate(2447,0)">
            <path data-c="A0" d="" />
          </g>
          <g data-mml-node="mo" transform="translate(2697,0)">
            <path
              data-c="28"
              d="M94 250Q94 319 104 381T127 488T164 576T202 643T244 695T277 729T302 750H315H319Q333 750 333 741Q333 738 316 720T275 667T226 581T184 443T167 250T184 58T225 -81T274 -167T316 -220T333 -241Q333 -250 318 -250H315H302L274 -226Q180 -141 137 -14T94 250Z"
            />
          </g>
          <g data-mml-node="msub" transform="translate(3086,0)">
            <g data-mml-node="TeXAtom" data-mjx-texclass="ORD">
              <g data-mml-node="mi">
                <path
                  data-c="48"
                  d="M128 622Q121 629 117 631T101 634T58 637H25V683H36Q57 680 180 680Q315 680 324 683H335V637H302Q262 636 251 634T233 622L232 500V378H517V622Q510 629 506 631T490 634T447 637H414V683H425Q446 680 569 680Q704 680 713 683H724V637H691Q651 636 640 634T622 622V61Q628 51 639 49T691 46H724V0H713Q692 3 569 3Q434 3 425 0H414V46H447Q489 47 498 49T517 61V332H232V197L233 61Q239 51 250 49T302 46H335V0H324Q303 3 180 3Q45 3 36 0H25V46H58Q100 47 109 49T128 61V622Z"
                />
              </g>
            </g>
            <g data-mml-node="mn" transform="translate(783,-150) scale(0.707)">
              <path
                data-c="32"
                d="M109 429Q82 429 66 447T50 491Q50 562 103 614T235 666Q326 666 387 610T449 465Q449 422 429 383T381 315T301 241Q265 210 201 149L142 93L218 92Q375 92 385 97Q392 99 409 186V189H449V186Q448 183 436 95T421 3V0H50V19V31Q50 38 56 46T86 81Q115 113 136 137Q145 147 170 174T204 211T233 244T261 278T284 308T305 340T320 369T333 401T340 431T343 464Q343 527 309 573T212 619Q179 619 154 602T119 569T109 550Q109 549 114 549Q132 549 151 535T170 489Q170 464 154 447T109 429Z"
              />
            </g>
          </g>
          <g
            data-mml-node="TeXAtom"
            data-mjx-texclass="ORD"
            transform="translate(4272.6,0)"
          >
            <g data-mml-node="mi">
              <path
                data-c="4F"
                d="M56 340Q56 423 86 494T164 610T270 680T388 705Q521 705 621 601T722 341Q722 260 693 191T617 75T510 4T388 -22T267 3T160 74T85 189T56 340ZM467 647Q426 665 388 665Q360 665 331 654T269 620T213 549T179 439Q174 411 174 354Q174 144 277 61Q327 20 385 20H389H391Q474 20 537 99Q603 188 603 354Q603 411 598 439Q577 592 467 647Z"
              />
            </g>
          </g>
          <g data-mml-node="mo" transform="translate(5050.6,0)">
            <path
              data-c="29"
              d="M60 749L64 750Q69 750 74 750H86L114 726Q208 641 251 514T294 250Q294 182 284 119T261 12T224 -76T186 -143T145 -194T113 -227T90 -246Q87 -249 86 -250H74Q66 -250 63 -250T58 -247T55 -238Q56 -237 66 -225Q221 -64 221 250T66 725Q56 737 55 738Q55 746 60 749Z"
            />
          </g>
        </g>
      </g>
    </svg>
  </g>
  <circle
    fill="#ffffff"
    fill-opacity="1"
    cx="216.1929982367148"
    cy="186.73590314224987"
    stroke="#ff0000"
    stroke-opacity="1"
    stroke-width="3"
    r="25"
  >
    <title>`O4`.icon</title>
  </circle>
  <g>
    <line
      x1="159.15232985462012"
      y1="183.55336660514985"
      x2="203.37453146394978"
      y2="181.16819686252538"
      stroke="#1ab399"
      stroke-opacity="1"
      stroke-width="10"
      stroke-linecap="round"
    />
    <title>13:1:line1</title>
  </g>
  <g>
    <line
      x1="159.15232985462012"
      y1="183.55336660514985"
      x2="203.37453146394978"
      y2="181.16819686252538"
      stroke="#ffffff"
      stroke-opacity="1"
      stroke-width="4"
      stroke-linecap="round"
    />
    <title>13:1:innerLine1</title>
  </g>
  <g>
    <line
      x1="159.82555153994656"
      y1="196.03522253525165"
      x2="204.04775314927622"
      y2="193.65005279262718"
      stroke="#1ab399"
      stroke-opacity="1"
      stroke-width="10"
      stroke-linecap="round"
    />
    <title>13:1:line2</title>
  </g>
  <g>
    <line
      x1="159.82555153994656"
      y1="196.03522253525165"
      x2="204.04775314927622"
      y2="193.65005279262718"
      stroke="#ffffff"
      stroke-opacity="1"
      stroke-width="4"
      stroke-linecap="round"
    />
    <title>13:1:innerLine2</title>
  </g>
  <circle
    fill="#ffffff"
    fill-opacity="1"
    cx="147.00708476718154"
    cy="190.46751625552716"
    stroke="#ff0000"
    stroke-opacity="1"
    stroke-width="3"
    r="25"
  >
    <title>`O3`.icon</title>
  </circle>
  <g
    transform="rotate(0, 167.0403262545338, 230.79527416026468)translate(131.27477625453378, 224.04527416026468)"
  >
    <title>`oxygen2`.text</title>
    <svg
      style="font-size: 13.5px"
      xmlns="http://www.w3.org/2000/svg"
      width="71.53110000000001"
      height="13.5"
      role="img"
      focusable="false"
      viewBox="0 -750 5298.6 1000"
    >
      <g
        stroke="none"
        fill="#000000"
        stroke-width="0"
        transform="scale(1,-1)"
        fill-opacity="1"
      >
        <g data-mml-node="math">
          <g data-mml-node="mtext">
            <path
              data-c="6F"
              d="M28 214Q28 309 93 378T250 448Q340 448 405 380T471 215Q471 120 407 55T250 -10Q153 -10 91 57T28 214ZM250 30Q372 30 372 193V225V250Q372 272 371 288T364 326T348 362T317 390T268 410Q263 411 252 411Q222 411 195 399Q152 377 139 338T126 246V226Q126 130 145 91Q177 30 250 30Z"
            />
            <path
              data-c="78"
              d="M201 0Q189 3 102 3Q26 3 17 0H11V46H25Q48 47 67 52T96 61T121 78T139 96T160 122T180 150L226 210L168 288Q159 301 149 315T133 336T122 351T113 363T107 370T100 376T94 379T88 381T80 383Q74 383 44 385H16V431H23Q59 429 126 429Q219 429 229 431H237V385Q201 381 201 369Q201 367 211 353T239 315T268 274L272 270L297 304Q329 345 329 358Q329 364 327 369T322 376T317 380T310 384L307 385H302V431H309Q324 428 408 428Q487 428 493 431H499V385H492Q443 385 411 368Q394 360 377 341T312 257L296 236L358 151Q424 61 429 57T446 50Q464 46 499 46H516V0H510H502Q494 1 482 1T457 2T432 2T414 3Q403 3 377 3T327 1L304 0H295V46H298Q309 46 320 51T331 63Q331 65 291 120L250 175Q249 174 219 133T185 88Q181 83 181 74Q181 63 188 55T206 46Q208 46 208 23V0H201Z"
              transform="translate(500,0)"
            />
            <path
              data-c="79"
              d="M69 -66Q91 -66 104 -80T118 -116Q118 -134 109 -145T91 -160Q84 -163 97 -166Q104 -168 111 -168Q131 -168 148 -159T175 -138T197 -106T213 -75T225 -43L242 0L170 183Q150 233 125 297Q101 358 96 368T80 381Q79 382 78 382Q66 385 34 385H19V431H26L46 430Q65 430 88 429T122 428Q129 428 142 428T171 429T200 430T224 430L233 431H241V385H232Q183 385 185 366L286 112Q286 113 332 227L376 341V350Q376 365 366 373T348 383T334 385H331V431H337H344Q351 431 361 431T382 430T405 429T422 429Q477 429 503 431H508V385H497Q441 380 422 345Q420 343 378 235T289 9T227 -131Q180 -204 113 -204Q69 -204 44 -177T19 -116Q19 -89 35 -78T69 -66Z"
              transform="translate(1028,0)"
            />
            <path
              data-c="67"
              d="M329 409Q373 453 429 453Q459 453 472 434T485 396Q485 382 476 371T449 360Q416 360 412 390Q410 404 415 411Q415 412 416 414V415Q388 412 363 393Q355 388 355 386Q355 385 359 381T368 369T379 351T388 325T392 292Q392 230 343 187T222 143Q172 143 123 171Q112 153 112 133Q112 98 138 81Q147 75 155 75T227 73Q311 72 335 67Q396 58 431 26Q470 -13 470 -72Q470 -139 392 -175Q332 -206 250 -206Q167 -206 107 -175Q29 -140 29 -75Q29 -39 50 -15T92 18L103 24Q67 55 67 108Q67 155 96 193Q52 237 52 292Q52 355 102 398T223 442Q274 442 318 416L329 409ZM299 343Q294 371 273 387T221 404Q192 404 171 388T145 343Q142 326 142 292Q142 248 149 227T179 192Q196 182 222 182Q244 182 260 189T283 207T294 227T299 242Q302 258 302 292T299 343ZM403 -75Q403 -50 389 -34T348 -11T299 -2T245 0H218Q151 0 138 -6Q118 -15 107 -34T95 -74Q95 -84 101 -97T122 -127T170 -155T250 -167Q319 -167 361 -139T403 -75Z"
              transform="translate(1556,0)"
            />
            <path
              data-c="65"
              d="M28 218Q28 273 48 318T98 391T163 433T229 448Q282 448 320 430T378 380T406 316T415 245Q415 238 408 231H126V216Q126 68 226 36Q246 30 270 30Q312 30 342 62Q359 79 369 104L379 128Q382 131 395 131H398Q415 131 415 121Q415 117 412 108Q393 53 349 21T250 -11Q155 -11 92 58T28 218ZM333 275Q322 403 238 411H236Q228 411 220 410T195 402T166 381T143 340T127 274V267H333V275Z"
              transform="translate(2056,0)"
            />
            <path
              data-c="6E"
              d="M41 46H55Q94 46 102 60V68Q102 77 102 91T102 122T103 161T103 203Q103 234 103 269T102 328V351Q99 370 88 376T43 385H25V408Q25 431 27 431L37 432Q47 433 65 434T102 436Q119 437 138 438T167 441T178 442H181V402Q181 364 182 364T187 369T199 384T218 402T247 421T285 437Q305 442 336 442Q450 438 463 329Q464 322 464 190V104Q464 66 466 59T477 49Q498 46 526 46H542V0H534L510 1Q487 2 460 2T422 3Q319 3 310 0H302V46H318Q379 46 379 62Q380 64 380 200Q379 335 378 343Q372 371 358 385T334 402T308 404Q263 404 229 370Q202 343 195 315T187 232V168V108Q187 78 188 68T191 55T200 49Q221 46 249 46H265V0H257L234 1Q210 2 183 2T145 3Q42 3 33 0H25V46H41Z"
              transform="translate(2500,0)"
            />
          </g>
          <g data-mml-node="mtext" transform="translate(3056,0)">
            <path data-c="A0" d="" />
          </g>
          <g data-mml-node="mo" transform="translate(3306,0)">
            <path
              data-c="28"
              d="M94 250Q94 319 104 381T127 488T164 576T202 643T244 695T277 729T302 750H315H319Q333 750 333 741Q333 738 316 720T275 667T226 581T184 443T167 250T184 58T225 -81T274 -167T316 -220T333 -241Q333 -250 318 -250H315H302L274 -226Q180 -141 137 -14T94 250Z"
            />
          </g>
          <g data-mml-node="msub" transform="translate(3695,0)">
            <g data-mml-node="TeXAtom" data-mjx-texclass="ORD">
              <g data-mml-node="mi">
                <path
                  data-c="4F"
                  d="M56 340Q56 423 86 494T164 610T270 680T388 705Q521 705 621 601T722 341Q722 260 693 191T617 75T510 4T388 -22T267 3T160 74T85 189T56 340ZM467 647Q426 665 388 665Q360 665 331 654T269 620T213 549T179 439Q174 411 174 354Q174 144 277 61Q327 20 385 20H389H391Q474 20 537 99Q603 188 603 354Q603 411 598 439Q577 592 467 647Z"
                />
              </g>
            </g>
            <g data-mml-node="mn" transform="translate(811,-150) scale(0.707)">
              <path
                data-c="32"
                d="M109 429Q82 429 66 447T50 491Q50 562 103 614T235 666Q326 666 387 610T449 465Q449 422 429 383T381 315T301 241Q265 210 201 149L142 93L218 92Q375 92 385 97Q392 99 409 186V189H449V186Q448 183 436 95T421 3V0H50V19V31Q50 38 56 46T86 81Q115 113 136 137Q145 147 170 174T204 211T233 244T261 278T284 308T305 340T320 369T333 401T340 431T343 464Q343 527 309 573T212 619Q179 619 154 602T119 569T109 550Q109 549 114 549Q132 549 151 535T170 489Q170 464 154 447T109 429Z"
              />
            </g>
          </g>
          <g data-mml-node="mo" transform="translate(4909.6,0)">
            <path
              data-c="29"
              d="M60 749L64 750Q69 750 74 750H86L114 726Q208 641 251 514T294 250Q294 182 284 119T261 12T224 -76T186 -143T145 -194T113 -227T90 -246Q87 -249 86 -250H74Q66 -250 63 -250T58 -247T55 -238Q56 -237 66 -225Q221 -64 221 250T66 725Q56 737 55 738Q55 746 60 749Z"
            />
          </g>
        </g>
      </g>
    </svg>
  </g>
  <circle
    fill="#000000"
    fill-opacity="0"
    cx="167.0403262545338"
    cy="230.79527416026468"
    stroke="#000000"
    stroke-opacity="0"
    stroke-width="3"
    r="20"
  >
    <title>`oxygen2`.textPhantom1</title>
  </circle>
  <circle
    fill="#000000"
    fill-opacity="0"
    cx="207.0403262545338"
    cy="230.79527416026468"
    stroke="#000000"
    stroke-opacity="0"
    stroke-width="3"
    r="20"
  >
    <title>`oxygen2`.textPhantom2</title>
  </circle>
  <circle
    fill="#000000"
    fill-opacity="0"
    cx="127.0403262545338"
    cy="230.79527416026468"
    stroke="#000000"
    stroke-opacity="0"
    stroke-width="3"
    r="20"
  >
    <title>`oxygen2`.textPhantom3</title>
  </circle>
  <text
    fill="#000000"
    fill-opacity="1"
    stroke="none"
    transform="rotate(0, 483.14038718256654, 522.2108980943751)"
    style="font: 10.5px sans-serif"
    x="483.14038718256654"
    y="522.2108980943751"
    width="0"
    height="0"
    font-size-adjust=""
    alignment-baseline="alphabetic"
    dominant-baseline="alphabetic"
    ascent="0"
    descent="0"
    text-anchor="middle"
    visibility=""
  >
    <title>`H2`.text</title>
  </text>
  <circle
    fill="#ffffff"
    fill-opacity="1"
    cx="402.4293767672334"
    cy="267.53707856237"
    stroke="#ff0000"
    stroke-opacity="1"
    stroke-width="3"
    r="25"
  >
    <title>`O2`.icon</title>
  </circle>
  <g>
    <line
      x1="410.22771905428544"
      y1="198.65915892353772"
      x2="408.9584379882456"
      y2="255.1805494516616"
      stroke="#1ab399"
      stroke-opacity="1"
      stroke-width="10"
      stroke-linecap="round"
    />
    <title>13:0:line1</title>
  </g>
  <g>
    <line
      x1="410.22771905428544"
      y1="198.65915892353772"
      x2="408.9584379882456"
      y2="255.1805494516616"
      stroke="#ffffff"
      stroke-opacity="1"
      stroke-width="4"
      stroke-linecap="round"
    />
    <title>13:0:innerLine1</title>
  </g>
  <g>
    <line
      x1="397.7308712773138"
      y1="198.37852159101138"
      x2="396.4615902112739"
      y2="254.89991211913525"
      stroke="#1ab399"
      stroke-opacity="1"
      stroke-width="10"
      stroke-linecap="round"
    />
    <title>13:0:line2</title>
  </g>
  <g>
    <line
      x1="397.7308712773138"
      y1="198.37852159101138"
      x2="396.4615902112739"
      y2="254.89991211913525"
      stroke="#ffffff"
      stroke-opacity="1"
      stroke-width="4"
      stroke-linecap="round"
    />
    <title>13:0:innerLine2</title>
  </g>
  <circle
    fill="#ffffff"
    fill-opacity="1"
    cx="404.25993249832595"
    cy="186.02199248030294"
    stroke="#ff0000"
    stroke-opacity="1"
    stroke-width="3"
    r="25"
  >
    <title>`O1`.icon</title>
  </circle>
  <g
    transform="rotate(0, 384.2973017309946, 226.3517970254503)translate(348.5317517309946, 219.6017970254503)"
  >
    <title>`oxygen1`.text</title>
    <svg
      style="font-size: 13.5px"
      xmlns="http://www.w3.org/2000/svg"
      width="71.53110000000001"
      height="13.5"
      role="img"
      focusable="false"
      viewBox="0 -750 5298.6 1000"
    >
      <g
        stroke="none"
        fill="#000000"
        stroke-width="0"
        transform="scale(1,-1)"
        fill-opacity="1"
      >
        <g data-mml-node="math">
          <g data-mml-node="mtext">
            <path
              data-c="6F"
              d="M28 214Q28 309 93 378T250 448Q340 448 405 380T471 215Q471 120 407 55T250 -10Q153 -10 91 57T28 214ZM250 30Q372 30 372 193V225V250Q372 272 371 288T364 326T348 362T317 390T268 410Q263 411 252 411Q222 411 195 399Q152 377 139 338T126 246V226Q126 130 145 91Q177 30 250 30Z"
            />
            <path
              data-c="78"
              d="M201 0Q189 3 102 3Q26 3 17 0H11V46H25Q48 47 67 52T96 61T121 78T139 96T160 122T180 150L226 210L168 288Q159 301 149 315T133 336T122 351T113 363T107 370T100 376T94 379T88 381T80 383Q74 383 44 385H16V431H23Q59 429 126 429Q219 429 229 431H237V385Q201 381 201 369Q201 367 211 353T239 315T268 274L272 270L297 304Q329 345 329 358Q329 364 327 369T322 376T317 380T310 384L307 385H302V431H309Q324 428 408 428Q487 428 493 431H499V385H492Q443 385 411 368Q394 360 377 341T312 257L296 236L358 151Q424 61 429 57T446 50Q464 46 499 46H516V0H510H502Q494 1 482 1T457 2T432 2T414 3Q403 3 377 3T327 1L304 0H295V46H298Q309 46 320 51T331 63Q331 65 291 120L250 175Q249 174 219 133T185 88Q181 83 181 74Q181 63 188 55T206 46Q208 46 208 23V0H201Z"
              transform="translate(500,0)"
            />
            <path
              data-c="79"
              d="M69 -66Q91 -66 104 -80T118 -116Q118 -134 109 -145T91 -160Q84 -163 97 -166Q104 -168 111 -168Q131 -168 148 -159T175 -138T197 -106T213 -75T225 -43L242 0L170 183Q150 233 125 297Q101 358 96 368T80 381Q79 382 78 382Q66 385 34 385H19V431H26L46 430Q65 430 88 429T122 428Q129 428 142 428T171 429T200 430T224 430L233 431H241V385H232Q183 385 185 366L286 112Q286 113 332 227L376 341V350Q376 365 366 373T348 383T334 385H331V431H337H344Q351 431 361 431T382 430T405 429T422 429Q477 429 503 431H508V385H497Q441 380 422 345Q420 343 378 235T289 9T227 -131Q180 -204 113 -204Q69 -204 44 -177T19 -116Q19 -89 35 -78T69 -66Z"
              transform="translate(1028,0)"
            />
            <path
              data-c="67"
              d="M329 409Q373 453 429 453Q459 453 472 434T485 396Q485 382 476 371T449 360Q416 360 412 390Q410 404 415 411Q415 412 416 414V415Q388 412 363 393Q355 388 355 386Q355 385 359 381T368 369T379 351T388 325T392 292Q392 230 343 187T222 143Q172 143 123 171Q112 153 112 133Q112 98 138 81Q147 75 155 75T227 73Q311 72 335 67Q396 58 431 26Q470 -13 470 -72Q470 -139 392 -175Q332 -206 250 -206Q167 -206 107 -175Q29 -140 29 -75Q29 -39 50 -15T92 18L103 24Q67 55 67 108Q67 155 96 193Q52 237 52 292Q52 355 102 398T223 442Q274 442 318 416L329 409ZM299 343Q294 371 273 387T221 404Q192 404 171 388T145 343Q142 326 142 292Q142 248 149 227T179 192Q196 182 222 182Q244 182 260 189T283 207T294 227T299 242Q302 258 302 292T299 343ZM403 -75Q403 -50 389 -34T348 -11T299 -2T245 0H218Q151 0 138 -6Q118 -15 107 -34T95 -74Q95 -84 101 -97T122 -127T170 -155T250 -167Q319 -167 361 -139T403 -75Z"
              transform="translate(1556,0)"
            />
            <path
              data-c="65"
              d="M28 218Q28 273 48 318T98 391T163 433T229 448Q282 448 320 430T378 380T406 316T415 245Q415 238 408 231H126V216Q126 68 226 36Q246 30 270 30Q312 30 342 62Q359 79 369 104L379 128Q382 131 395 131H398Q415 131 415 121Q415 117 412 108Q393 53 349 21T250 -11Q155 -11 92 58T28 218ZM333 275Q322 403 238 411H236Q228 411 220 410T195 402T166 381T143 340T127 274V267H333V275Z"
              transform="translate(2056,0)"
            />
            <path
              data-c="6E"
              d="M41 46H55Q94 46 102 60V68Q102 77 102 91T102 122T103 161T103 203Q103 234 103 269T102 328V351Q99 370 88 376T43 385H25V408Q25 431 27 431L37 432Q47 433 65 434T102 436Q119 437 138 438T167 441T178 442H181V402Q181 364 182 364T187 369T199 384T218 402T247 421T285 437Q305 442 336 442Q450 438 463 329Q464 322 464 190V104Q464 66 466 59T477 49Q498 46 526 46H542V0H534L510 1Q487 2 460 2T422 3Q319 3 310 0H302V46H318Q379 46 379 62Q380 64 380 200Q379 335 378 343Q372 371 358 385T334 402T308 404Q263 404 229 370Q202 343 195 315T187 232V168V108Q187 78 188 68T191 55T200 49Q221 46 249 46H265V0H257L234 1Q210 2 183 2T145 3Q42 3 33 0H25V46H41Z"
              transform="translate(2500,0)"
            />
          </g>
          <g data-mml-node="mtext" transform="translate(3056,0)">
            <path data-c="A0" d="" />
          </g>
          <g data-mml-node="mo" transform="translate(3306,0)">
            <path
              data-c="28"
              d="M94 250Q94 319 104 381T127 488T164 576T202 643T244 695T277 729T302 750H315H319Q333 750 333 741Q333 738 316 720T275 667T226 581T184 443T167 250T184 58T225 -81T274 -167T316 -220T333 -241Q333 -250 318 -250H315H302L274 -226Q180 -141 137 -14T94 250Z"
            />
          </g>
          <g data-mml-node="msub" transform="translate(3695,0)">
            <g data-mml-node="TeXAtom" data-mjx-texclass="ORD">
              <g data-mml-node="mi">
                <path
                  data-c="4F"
                  d="M56 340Q56 423 86 494T164 610T270 680T388 705Q521 705 621 601T722 341Q722 260 693 191T617 75T510 4T388 -22T267 3T160 74T85 189T56 340ZM467 647Q426 665 388 665Q360 665 331 654T269 620T213 549T179 439Q174 411 174 354Q174 144 277 61Q327 20 385 20H389H391Q474 20 537 99Q603 188 603 354Q603 411 598 439Q577 592 467 647Z"
                />
              </g>
            </g>
            <g data-mml-node="mn" transform="translate(811,-150) scale(0.707)">
              <path
                data-c="32"
                d="M109 429Q82 429 66 447T50 491Q50 562 103 614T235 666Q326 666 387 610T449 465Q449 422 429 383T381 315T301 241Q265 210 201 149L142 93L218 92Q375 92 385 97Q392 99 409 186V189H449V186Q448 183 436 95T421 3V0H50V19V31Q50 38 56 46T86 81Q115 113 136 137Q145 147 170 174T204 211T233 244T261 278T284 308T305 340T320 369T333 401T340 431T343 464Q343 527 309 573T212 619Q179 619 154 602T119 569T109 550Q109 549 114 549Q132 549 151 535T170 489Q170 464 154 447T109 429Z"
              />
            </g>
          </g>
          <g data-mml-node="mo" transform="translate(4909.6,0)">
            <path
              data-c="29"
              d="M60 749L64 750Q69 750 74 750H86L114 726Q208 641 251 514T294 250Q294 182 284 119T261 12T224 -76T186 -143T145 -194T113 -227T90 -246Q87 -249 86 -250H74Q66 -250 63 -250T58 -247T55 -238Q56 -237 66 -225Q221 -64 221 250T66 725Q56 737 55 738Q55 746 60 749Z"
            />
          </g>
        </g>
      </g>
    </svg>
  </g>
  <circle
    fill="#000000"
    fill-opacity="0"
    cx="405.02287432346975"
    cy="529.1834015330674"
    stroke="#000000"
    stroke-opacity="0"
    stroke-width="3"
    r="20"
  >
    <title>`methane`.textPhantom1</title>
  </circle>
  <circle
    fill="#000000"
    fill-opacity="0"
    cx="445.02287432346975"
    cy="529.1834015330674"
    stroke="#000000"
    stroke-opacity="0"
    stroke-width="3"
    r="20"
  >
    <title>`methane`.textPhantom2</title>
  </circle>
  <circle
    fill="#000000"
    fill-opacity="0"
    cx="365.02287432346975"
    cy="529.1834015330674"
    stroke="#000000"
    stroke-opacity="0"
    stroke-width="3"
    r="20"
  >
    <title>`methane`.textPhantom3</title>
  </circle>
  <g>
    <marker
      id="methane-combustion__registry--27:0:reactionArrow-endArrowId"
      markerUnits="strokeWidth"
      markerWidth="4.98"
      markerHeight="4.06"
      viewBox="0 0 9.95 8.12"
      refX="2.36"
      refY="4.06"
      orient="auto-start-reverse"
    >
      <path
        d="M9.95 4.06 0 8.12 2.36 4.06 0 0 9.95 4.06z"
        fill="#000000"
        fill-opacity="1"
      />
    </marker>
    <line
      x1="556"
      y1="351"
      x2="673.025"
      y2="351"
      stroke="#000000"
      stroke-opacity="1"
      stroke-width="5"
      marker-end="url(#methane-combustion__registry--27:0:reactionArrow-endArrowId)"
    />
    <title>27:0:reactionArrow</title>
  </g>
  <circle
    fill="#000000"
    fill-opacity="0"
    cx="384.2973017309946"
    cy="226.3517970254503"
    stroke="#000000"
    stroke-opacity="0"
    stroke-width="3"
    r="20"
  >
    <title>`oxygen1`.textPhantom1</title>
  </circle>
  <circle
    fill="#000000"
    fill-opacity="0"
    cx="424.2973017309946"
    cy="226.3517970254503"
    stroke="#000000"
    stroke-opacity="0"
    stroke-width="3"
    r="20"
  >
    <title>`oxygen1`.textPhantom2</title>
  </circle>
  <circle
    fill="#000000"
    fill-opacity="0"
    cx="344.2973017309946"
    cy="226.3517970254503"
    stroke="#000000"
    stroke-opacity="0"
    stroke-width="3"
    r="20"
  >
    <title>`oxygen1`.textPhantom3</title>
  </circle>
  <text
    fill="#000000"
    fill-opacity="1"
    stroke="none"
    transform="rotate(0, 385.02258926554384, 495.99345144497295)"
    style="font: 10.5px sans-serif"
    x="385.02258926554384"
    y="495.99345144497295"
    width="0"
    height="0"
    font-size-adjust=""
    alignment-baseline="alphabetic"
    dominant-baseline="alphabetic"
    ascent="0"
    descent="0"
    text-anchor="middle"
    visibility=""
  >
    <title>`H1`.text</title>
  </text>
  <text
    fill="#ffffff"
    fill-opacity="1"
    stroke="none"
    transform="rotate(0, 437.13982035159233, 484.8792703198267)"
    style="font: 10.5px sans-serif"
    x="437.13982035159233"
    y="484.8792703198267"
    width="0"
    height="0"
    font-size-adjust=""
    alignment-baseline="alphabetic"
    dominant-baseline="alphabetic"
    ascent="0"
    descent="0"
    text-anchor="middle"
    visibility=""
  >
    <title>`C1`.text</title>
  </text>
  <text
    fill="#ffffff"
    fill-opacity="1"
    stroke="none"
    transform="rotate(0, 937.419251226206, 208.18988864299473)"
    style="font: 10.5px sans-serif"
    x="937.419251226206"
    y="208.18988864299473"
    width="0"
    height="0"
    font-size-adjust=""
    alignment-baseline="alphabetic"
    dominant-baseline="alphabetic"
    ascent="0"
    descent="0"
    text-anchor="middle"
    visibility=""
  >
    <title>`O7`.text</title>
  </text>
  <circle
    fill="#000000"
    fill-opacity="0"
    cx="1063.2209333587596"
    cy="472.0488953249268"
    stroke="#000000"
    stroke-opacity="0"
    stroke-width="3"
    r="20"
  >
    <title>`carbonDioxide`.textPhantom1</title>
  </circle>
  <circle
    fill="#000000"
    fill-opacity="0"
    cx="1103.2209333587596"
    cy="472.0488953249268"
    stroke="#000000"
    stroke-opacity="0"
    stroke-width="3"
    r="20"
  >
    <title>`carbonDioxide`.textPhantom2</title>
  </circle>
  <circle
    fill="#000000"
    fill-opacity="0"
    cx="1023.2209333587596"
    cy="472.0488953249268"
    stroke="#000000"
    stroke-opacity="0"
    stroke-width="3"
    r="20"
  >
    <title>`carbonDioxide`.textPhantom3</title>
  </circle>
  <circle
    fill="#000000"
    fill-opacity="0"
    cx="957.4192595175323"
    cy="167.87855367460273"
    stroke="#000000"
    stroke-opacity="0"
    stroke-width="3"
    r="20"
  >
    <title>`water1`.textPhantom1</title>
  </circle>
  <circle
    fill="#000000"
    fill-opacity="0"
    cx="997.4192595175323"
    cy="167.87855367460273"
    stroke="#000000"
    stroke-opacity="0"
    stroke-width="3"
    r="20"
  >
    <title>`water1`.textPhantom2</title>
  </circle>
  <circle
    fill="#000000"
    fill-opacity="0"
    cx="917.4192595175323"
    cy="167.87855367460273"
    stroke="#000000"
    stroke-opacity="0"
    stroke-width="3"
    r="20"
  >
    <title>`water1`.textPhantom3</title>
  </circle>
  <text
    fill="#000000"
    fill-opacity="1"
    stroke="none"
    transform="rotate(0, 479.8455180656849, 453.55332383602996)"
    style="font: 10.5px sans-serif"
    x="479.8455180656849"
    y="453.55332383602996"
    width="0"
    height="0"
    font-size-adjust=""
    alignment-baseline="alphabetic"
    dominant-baseline="alphabetic"
    ascent="0"
    descent="0"
    text-anchor="middle"
    visibility=""
  >
    <title>`H3`.text</title>
  </text>
  <text
    fill="#000000"
    fill-opacity="1"
    stroke="none"
    transform="rotate(0, 886.162012674549, 190.78158724374424)"
    style="font: 10.5px sans-serif"
    x="886.162012674549"
    y="190.78158724374424"
    width="0"
    height="0"
    font-size-adjust=""
    alignment-baseline="alphabetic"
    dominant-baseline="alphabetic"
    ascent="0"
    descent="0"
    text-anchor="middle"
    visibility=""
  >
    <title>`H6`.text</title>
  </text>
  <text
    fill="#ffffff"
    fill-opacity="1"
    stroke="none"
    transform="rotate(0, 771.0259303692717, 483.8817511170072)"
    style="font: 10.5px sans-serif"
    x="771.0259303692717"
    y="483.8817511170072"
    width="0"
    height="0"
    font-size-adjust=""
    alignment-baseline="alphabetic"
    dominant-baseline="alphabetic"
    ascent="0"
    descent="0"
    text-anchor="middle"
    visibility=""
  >
    <title>`O8`.text</title>
  </text>
  <text
    fill="#ffffff"
    fill-opacity="1"
    stroke="none"
    transform="rotate(0, 1083.2281943047146, 431.7337935599659)"
    style="font: 10.5px sans-serif"
    x="1083.2281943047146"
    y="431.7337935599659"
    width="0"
    height="0"
    font-size-adjust=""
    alignment-baseline="alphabetic"
    dominant-baseline="alphabetic"
    ascent="0"
    descent="0"
    text-anchor="middle"
    visibility=""
  >
    <title>`O6`.text</title>
  </text>
  <text
    fill="#ffffff"
    fill-opacity="1"
    stroke="none"
    transform="rotate(0, 404.25993249832595, 186.02199248030294)"
    style="font: 10.5px sans-serif"
    x="404.25993249832595"
    y="186.02199248030294"
    width="0"
    height="0"
    font-size-adjust=""
    alignment-baseline="alphabetic"
    dominant-baseline="alphabetic"
    ascent="0"
    descent="0"
    text-anchor="middle"
    visibility=""
  >
    <title>`O1`.text</title>
  </text>
  <text
    fill="#ffffff"
    fill-opacity="1"
    stroke="none"
    transform="rotate(0, 1083.2967738050947, 512.3978587980212)"
    style="font: 10.5px sans-serif"
    x="1083.2967738050947"
    y="512.3978587980212"
    width="0"
    height="0"
    font-size-adjust=""
    alignment-baseline="alphabetic"
    dominant-baseline="alphabetic"
    ascent="0"
    descent="0"
    text-anchor="middle"
    visibility=""
  >
    <title>`C2`.text</title>
  </text>
  <text
    fill="#000000"
    fill-opacity="1"
    stroke="none"
    transform="rotate(0, 771.0259510423431, 410.3806958348641)"
    style="font: 10.5px sans-serif"
    x="771.0259510423431"
    y="410.3806958348641"
    width="0"
    height="0"
    font-size-adjust=""
    alignment-baseline="alphabetic"
    dominant-baseline="alphabetic"
    ascent="0"
    descent="0"
    text-anchor="middle"
    visibility=""
  >
    <title>`H7`.text</title>
  </text>
  <text
    fill="#000000"
    fill-opacity="1"
    stroke="none"
    transform="rotate(0, 990.8751072099662, 206.07198405068317)"
    style="font: 10.5px sans-serif"
    x="990.8751072099662"
    y="206.07198405068317"
    width="0"
    height="0"
    font-size-adjust=""
    alignment-baseline="alphabetic"
    dominant-baseline="alphabetic"
    ascent="0"
    descent="0"
    text-anchor="middle"
    visibility=""
  >
    <title>`H5`.text</title>
  </text>
  <text
    fill="#ffffff"
    fill-opacity="1"
    stroke="none"
    transform="rotate(0, 1013.5135927316098, 515.989555030772)"
    style="font: 10.5px sans-serif"
    x="1013.5135927316098"
    y="515.989555030772"
    width="0"
    height="0"
    font-size-adjust=""
    alignment-baseline="alphabetic"
    dominant-baseline="alphabetic"
    ascent="0"
    descent="0"
    text-anchor="middle"
    visibility=""
  >
    <title>`O5`.text</title>
  </text>
  <text
    fill="#ffffff"
    fill-opacity="1"
    stroke="none"
    transform="rotate(0, 402.4293767672334, 267.53707856237)"
    style="font: 10.5px sans-serif"
    x="402.4293767672334"
    y="267.53707856237"
    width="0"
    height="0"
    font-size-adjust=""
    alignment-baseline="alphabetic"
    dominant-baseline="alphabetic"
    ascent="0"
    descent="0"
    text-anchor="middle"
    visibility=""
  >
    <title>`O2`.text</title>
  </text>
  <text
    fill="#000000"
    fill-opacity="1"
    stroke="none"
    transform="rotate(0, 824.694236302842, 481.7996847785327)"
    style="font: 10.5px sans-serif"
    x="824.694236302842"
    y="481.7996847785327"
    width="0"
    height="0"
    font-size-adjust=""
    alignment-baseline="alphabetic"
    dominant-baseline="alphabetic"
    ascent="0"
    descent="0"
    text-anchor="middle"
    visibility=""
  >
    <title>`H8`.text</title>
  </text>
  <text
    fill="#ffffff"
    fill-opacity="1"
    stroke="none"
    transform="rotate(0, 216.1929982367148, 186.73590314224987)"
    style="font: 10.5px sans-serif"
    x="216.1929982367148"
    y="186.73590314224987"
    width="0"
    height="0"
    font-size-adjust=""
    alignment-baseline="alphabetic"
    dominant-baseline="alphabetic"
    ascent="0"
    descent="0"
    text-anchor="middle"
    visibility=""
  >
    <title>`O4`.text</title>
  </text>
  <text
    fill="#ffffff"
    fill-opacity="1"
    stroke="none"
    transform="rotate(0, 147.00708476718154, 190.46751625552716)"
    style="font: 10.5px sans-serif"
    x="147.00708476718154"
    y="190.46751625552716"
    width="0"
    height="0"
    font-size-adjust=""
    alignment-baseline="alphabetic"
    dominant-baseline="alphabetic"
    ascent="0"
    descent="0"
    text-anchor="middle"
    visibility=""
  >
    <title>`O3`.text</title>
  </text>
  <text
    fill="#000000"
    fill-opacity="1"
    stroke="none"
    transform="rotate(0, 624, 58.5)"
    style="
      font: small-caps 30px Palatino, Palatino Linotype, Palatino LT STD,
        Book Antiqua, Georgia, serif;
    "
    x="624"
    y="69.5"
    width="471.0400390625"
    height="22"
    font-size-adjust=""
    alignment-baseline="alphabetic"
    dominant-baseline="alphabetic"
    ascent="22"
    descent="0"
    text-anchor="middle"
    visibility=""
  >
    <title>`combustion`.text</title>
    Methane Combustion Reaction
  </text>
</svg>
