<?xml version="1.0" encoding="UTF-8"?>
<!DOCTYPE svg PUBLIC "-//W3C//DTD SVG 1.1//EN"
    "http://www.w3.org/Graphics/SVG/1.1/DTD/svg11.dtd">
<svg xmlns="http://www.w3.org/2000/svg" height="500.0000" stroke-opacity="1" viewBox="0 0 500 500" font-size="1" width="500.0000" xmlns:xlink="http://www.w3.org/1999/xlink" stroke="rgb(0,0,0)" version="1.1">
  <defs>
  </defs>
  <defs>
  </defs>
  <g stroke-linejoin="miter" stroke-opacity="1.0" fill-opacity="0.0" stroke="rgb(0,0,0)" stroke-width="1.6330158828867771" fill="rgb(0,0,0)" stroke-linecap="butt" stroke-miterlimit="10.0">
    <path d="M 499.9722,250.0139 c 0.0000,-92.0423 -74.6151,-166.6574 -166.6574 -166.6574c -92.0423,-0.0000 -166.6574,74.6151 -166.6574 166.6574c -0.0000,92.0423 74.6151,166.6574 166.6574 166.6574c 92.0423,0.0000 166.6574,-74.6151 166.6574 -166.6574Z"/>
  </g>
  <defs>
  </defs>
  <g stroke-linejoin="miter" stroke-opacity="1.0" fill-opacity="0.0" stroke="rgb(0,0,0)" stroke-width="1.6330158828867771" fill="rgb(0,0,0)" stroke-linecap="butt" stroke-miterlimit="10.0">
    <path d="M 333.3148,250.0139 c 0.0000,-92.0423 -74.6151,-166.6574 -166.6574 -166.6574c -92.0423,-0.0000 -166.6574,74.6151 -166.6574 166.6574c -0.0000,92.0423 74.6151,166.6574 166.6574 166.6574c 92.0423,0.0000 166.6574,-74.6151 166.6574 -166.6574Z"/>
  </g>
  <defs>
  </defs>
  <g stroke-linejoin="miter" stroke-opacity="1.0" fill-opacity="0.0" stroke="rgb(0,128,0)" stroke-width="5.0" fill="rgb(0,0,0)" stroke-linecap="butt" stroke-miterlimit="10.0">
    <path d="M 249.9861,105.6844 c 79.7110,46.0212 107.0220,147.9472 61.0008 227.6582c -14.6272,25.3351 -35.6657,46.3736 -61.0008 61.0008"/>
  </g>
  <defs>
  </defs>
  <g stroke-linejoin="miter" stroke-opacity="1.0" fill-opacity="0.0" stroke="rgb(0,128,0)" stroke-width="5.0" fill="rgb(0,0,0)" stroke-linecap="butt" stroke-miterlimit="10.0">
    <path d="M 249.9861,105.6844 c 79.7110,-46.0212 181.6371,-18.7102 227.6582 61.0008c 46.0212,79.7110 18.7102,181.6371 -61.0008 227.6582c -51.5640,29.7705 -115.0934,29.7705 -166.6574 -0.0000"/>
  </g>
  <defs>
  </defs>
  <g stroke-linejoin="miter" stroke-opacity="1.0" fill-opacity="1.0" font-size="33.33147815598799px" stroke="rgb(0,0,0)" stroke-width="1.6330158828867771" fill="rgb(0,0,0)" stroke-linecap="butt" stroke-miterlimit="10.0">
    <text dominant-baseline="text-after-edge" transform="matrix(1.0000,0.0000,0.0000,1.0000,249.9861,250.0139)" stroke="none" text-anchor="start">B ∖ A
    </text>
  </g>
</svg>