<?xml version="1.0" encoding="UTF-8"?>
<!DOCTYPE svg PUBLIC "-//W3C//DTD SVG 1.1//EN"
    "http://www.w3.org/Graphics/SVG/1.1/DTD/svg11.dtd">
<svg xmlns="http://www.w3.org/2000/svg" height="500.0000" stroke-opacity="1" viewBox="0 0 500 500" font-size="1" width="500.0000" xmlns:xlink="http://www.w3.org/1999/xlink" stroke="rgb(0,0,0)" version="1.1">
  <defs>
  </defs>
  <defs>
  </defs>
  <g stroke-linejoin="miter" stroke-opacity="1.0" fill-opacity="1.0" stroke="rgb(0,0,0)" stroke-width="1.9613457771638971" fill="rgb(0,0,255)" stroke-linecap="butt" stroke-miterlimit="10.0">
    <path d="M 395.5869,272.8164 l 47.3040,-15.3700 c 26.1253,-8.4886 40.4226,-36.5488 31.9340 -62.6741c -8.4886,-26.1253 -36.5488,-40.4226 -62.6741 -31.9340l -47.3040,15.3700 c -26.1253,8.4886 -54.1854,-5.8087 -62.6741 -31.9340c -1.6129,-4.9639 -2.4344,-10.1507 -2.4344 -15.3700l -0.0000,-49.7384 c -0.0000,-27.4698 -22.2686,-49.7384 -49.7384 -49.7384c -27.4698,0.0000 -49.7384,22.2686 -49.7384 49.7384l 0.0000,49.7384 c 0.0000,27.4698 -22.2686,49.7384 -49.7384 49.7384c -5.2193,0.0000 -10.4061,-0.8215 -15.3700 -2.4344l -47.3040,-15.3700 c -26.1253,-8.4886 -54.1854,5.8087 -62.6741 31.9340c -8.4886,26.1253 5.8087,54.1854 31.9340 62.6741l 47.3040,15.3700 c 26.1253,8.4886 40.4226,36.5488 31.9340 62.6741c -1.6129,4.9639 -3.9970,9.6430 -7.0648 13.8655l -29.2355,40.2392 c -16.1463,22.2235 -11.2198,53.3284 11.0037 69.4747c 22.2235,16.1463 53.3284,11.2198 69.4747 -11.0037l 29.2355,-40.2392 c 16.1463,-22.2235 47.2512,-27.1500 69.4747 -11.0037c 4.2225,3.0678 7.9359,6.7812 11.0037 11.0037l 29.2355,40.2392 c 16.1463,22.2235 47.2512,27.1500 69.4747 11.0037c 22.2235,-16.1463 27.1500,-47.2512 11.0037 -69.4747l -29.2355,-40.2392 c -16.1463,-22.2235 -11.2198,-53.3284 11.0037 -69.4747c 4.2225,-3.0678 8.9016,-5.4520 13.8655 -7.0648Z"/>
  </g>
</svg>