<svg
  version="1.2"
  xmlns="http://www.w3.org/2000/svg"
  viewBox="0 0 100 100"
  penrose="0"
>
  <penrose>
    <croppedViewBox>
      -164.76383366496387 -9.749642748043883 435.8014405873274 288.4543883476612
    </croppedViewBox>
  </penrose>
  <g>
    <g>
      <line
        x1="49.63095582612"
        y1="34.641603127957694"
        x2="55.56299561986764"
        y2="59.236492176555345"
        stroke="#888888"
        stroke-opacity="1"
        stroke-width="0.5"
      />
      <title>12:0.epsilonMarker</title>
    </g>
    <g>
      <line
        x1="52.06126537021692"
        y1="34.05543691683061"
        x2="47.20064628202309"
        y2="35.22776933908479"
        stroke="#888888"
        stroke-opacity="1"
        stroke-width="0.5"
      />
      <title>12:0.epsilonMarkerStart</title>
    </g>
    <g>
      <line
        x1="57.993305163964564"
        y1="58.65032596542825"
        x2="53.13268607577072"
        y2="59.82265838768243"
        stroke="#888888"
        stroke-opacity="1"
        stroke-width="0.5"
      />
      <title>12:0.epsilonMarkerEnd</title>
    </g>
    <title>12:0.markerGroup</title>
  </g>
  <g
    transform="rotate(0, 49.680604270077524, 47.64244710560902)translate(47.58360427007752, 45.50944710560902)"
  >
    <title>12:0.epsilonLabel</title>
    <svg
      style="font-size: 9px"
      xmlns="http://www.w3.org/2000/svg"
      width="4.194"
      height="4.266"
      role="img"
      focusable="false"
      viewBox="0 -452 466 474"
    >
      <g
        stroke="none"
        fill="#888888"
        stroke-width="0"
        transform="scale(1,-1)"
        fill-opacity="1"
      >
        <g data-mml-node="math">
          <g data-mml-node="mi">
            <path
              data-c="1D700"
              d="M190 -22Q124 -22 76 11T27 107Q27 174 97 232L107 239L99 248Q76 273 76 304Q76 364 144 408T290 452H302Q360 452 405 421Q428 405 428 392Q428 381 417 369T391 356Q382 356 371 365T338 383T283 392Q217 392 167 368T116 308Q116 289 133 272Q142 263 145 262T157 264Q188 278 238 278H243Q308 278 308 247Q308 206 223 206Q177 206 142 219L132 212Q68 169 68 112Q68 39 201 39Q253 39 286 49T328 72T345 94T362 105Q376 103 376 88Q376 79 365 62T334 26T275 -8T190 -22Z"
            />
          </g>
        </g>
      </g>
    </svg>
  </g>
  <g
    transform="rotate(0, 37.37171660267737, 69.11342355345192)translate(32.76641660267737, 66.41432355345192)"
  >
    <title>`x0`.labelText</title>
    <svg
      style="font-size: 9px"
      xmlns="http://www.w3.org/2000/svg"
      width="9.210600000000001"
      height="5.3982"
      role="img"
      focusable="false"
      viewBox="0 -442 1023.4 599.8"
    >
      <g
        stroke="none"
        fill="#000000"
        stroke-width="0"
        transform="scale(1,-1)"
        fill-opacity="1"
      >
        <g data-mml-node="math">
          <g data-mml-node="msub">
            <g data-mml-node="mi">
              <path
                data-c="1D465"
                d="M52 289Q59 331 106 386T222 442Q257 442 286 424T329 379Q371 442 430 442Q467 442 494 420T522 361Q522 332 508 314T481 292T458 288Q439 288 427 299T415 328Q415 374 465 391Q454 404 425 404Q412 404 406 402Q368 386 350 336Q290 115 290 78Q290 50 306 38T341 26Q378 26 414 59T463 140Q466 150 469 151T485 153H489Q504 153 504 145Q504 144 502 134Q486 77 440 33T333 -11Q263 -11 227 52Q186 -10 133 -10H127Q78 -10 57 16T35 71Q35 103 54 123T99 143Q142 143 142 101Q142 81 130 66T107 46T94 41L91 40Q91 39 97 36T113 29T132 26Q168 26 194 71Q203 87 217 139T245 247T261 313Q266 340 266 352Q266 380 251 392T217 404Q177 404 142 372T93 290Q91 281 88 280T72 278H58Q52 284 52 289Z"
              />
            </g>
            <g data-mml-node="mi" transform="translate(605,-150) scale(0.707)">
              <path
                data-c="1D458"
                d="M121 647Q121 657 125 670T137 683Q138 683 209 688T282 694Q294 694 294 686Q294 679 244 477Q194 279 194 272Q213 282 223 291Q247 309 292 354T362 415Q402 442 438 442Q468 442 485 423T503 369Q503 344 496 327T477 302T456 291T438 288Q418 288 406 299T394 328Q394 353 410 369T442 390L458 393Q446 405 434 405H430Q398 402 367 380T294 316T228 255Q230 254 243 252T267 246T293 238T320 224T342 206T359 180T365 147Q365 130 360 106T354 66Q354 26 381 26Q429 26 459 145Q461 153 479 153H483Q499 153 499 144Q499 139 496 130Q455 -11 378 -11Q333 -11 305 15T277 90Q277 108 280 121T283 145Q283 167 269 183T234 206T200 217T182 220H180Q168 178 159 139T145 81T136 44T129 20T122 7T111 -2Q98 -11 83 -11Q66 -11 57 -1T48 16Q48 26 85 176T158 471L195 616Q196 629 188 632T149 637H144Q134 637 131 637T124 640T121 647Z"
              />
            </g>
          </g>
        </g>
      </g>
    </svg>
  </g>
  <circle
    fill="#000000"
    fill-opacity="1"
    cx="35.96491769597236"
    cy="63.28068064761933"
    stroke="none"
    r="1"
  >
    <title>`x0`.icon</title>
  </circle>
  <circle
    fill="#000000"
    fill-opacity="1"
    cx="29.719546504442988"
    cy="37.38668518169687"
    stroke="none"
    r="1"
  >
    <title>`x1`.icon</title>
  </circle>
  <g
    transform="rotate(0, 28.312747597737978, 31.553942275864266)translate(23.70744759773798, 27.428342275864267)"
  >
    <title>`x1`.labelText</title>
    <svg
      style="font-size: 9px"
      xmlns="http://www.w3.org/2000/svg"
      width="9.210600000000001"
      height="8.251199999999999"
      role="img"
      focusable="false"
      viewBox="0 -759 1023.4 916.8"
    >
      <g
        stroke="none"
        fill="#000000"
        stroke-width="0"
        transform="scale(1,-1)"
        fill-opacity="1"
      >
        <g data-mml-node="math">
          <g data-mml-node="msub">
            <g data-mml-node="mover">
              <g data-mml-node="mi">
                <path
                  data-c="1D465"
                  d="M52 289Q59 331 106 386T222 442Q257 442 286 424T329 379Q371 442 430 442Q467 442 494 420T522 361Q522 332 508 314T481 292T458 288Q439 288 427 299T415 328Q415 374 465 391Q454 404 425 404Q412 404 406 402Q368 386 350 336Q290 115 290 78Q290 50 306 38T341 26Q378 26 414 59T463 140Q466 150 469 151T485 153H489Q504 153 504 145Q504 144 502 134Q486 77 440 33T333 -11Q263 -11 227 52Q186 -10 133 -10H127Q78 -10 57 16T35 71Q35 103 54 123T99 143Q142 143 142 101Q142 81 130 66T107 46T94 41L91 40Q91 39 97 36T113 29T132 26Q168 26 194 71Q203 87 217 139T245 247T261 313Q266 340 266 352Q266 380 251 392T217 404Q177 404 142 372T93 290Q91 281 88 280T72 278H58Q52 284 52 289Z"
                />
              </g>
              <g data-mml-node="mo" transform="translate(0,374)">
                <svg
                  width="572"
                  height="237"
                  x="0"
                  y="148"
                  viewBox="143 148 572 237"
                >
                  <path
                    data-c="2013"
                    d="M0 248V285H499V248H0Z"
                    transform="scale(1.716,1)"
                  />
                </svg>
              </g>
            </g>
            <g data-mml-node="mi" transform="translate(605,-150) scale(0.707)">
              <path
                data-c="1D458"
                d="M121 647Q121 657 125 670T137 683Q138 683 209 688T282 694Q294 694 294 686Q294 679 244 477Q194 279 194 272Q213 282 223 291Q247 309 292 354T362 415Q402 442 438 442Q468 442 485 423T503 369Q503 344 496 327T477 302T456 291T438 288Q418 288 406 299T394 328Q394 353 410 369T442 390L458 393Q446 405 434 405H430Q398 402 367 380T294 316T228 255Q230 254 243 252T267 246T293 238T320 224T342 206T359 180T365 147Q365 130 360 106T354 66Q354 26 381 26Q429 26 459 145Q461 153 479 153H483Q499 153 499 144Q499 139 496 130Q455 -11 378 -11Q333 -11 305 15T277 90Q277 108 280 121T283 145Q283 167 269 183T234 206T200 217T182 220H180Q168 178 159 139T145 81T136 44T129 20T122 7T111 -2Q98 -11 83 -11Q66 -11 57 -1T48 16Q48 26 85 176T158 471L195 616Q196 629 188 632T149 637H144Q134 637 131 637T124 640T121 647Z"
              />
            </g>
          </g>
        </g>
      </g>
    </svg>
  </g>
  <path
    fill="none"
    stroke="#1b1f8a"
    stroke-opacity="0.4"
    stroke-width="0.5"
    stroke-linecap="butt"
    d="M 29.719546504442988 37.38668518169687 C 29.74631706391507 37.83669222400456 29.74309015129515 38.60280428501466 29.82662874233131 39.18671335092762 C 29.91016733336747 39.77062241684058 29.96742788841427 39.53752543492573 30.053700868587626 39.722321445348705 C 30.13997384876098 39.90711745577168 30.000289307701472 39.81566538911055 30.171720663024733 39.92589739261951 C 30.343152018347993 40.03612939612848 30.625396565218416 39.9237941318307 30.739426289880676 40.16324945938457 C 30.853456014542935 40.40270478693845 30.43864709077854 40.53779213887985 30.627839561673778 40.88371870283502 C 30.817032032569013 41.229645266790186 31.34178736424059 41.2491272073997 31.49619617346162 41.54695571520523 C 31.650604982682648 41.84478422301076 31.3465011959607 42.08936971476255 31.24547479855789 42.07503273405714 C 31.14444840115508 42.06069575335172 31.239522542652818 41.65349640709156 31.092090583850393 41.48960779238358 C 30.944658625047968 41.325719177675595 30.64738521035184 41.42064944157285 30.65574696334819 41.41947827522522 C 30.66410871634454 41.41830710887758 30.768722530247754 41.309092152287064 31.12553759583579 41.48492312699304 C 31.48235266142383 41.66075410169901 31.754298920228862 41.939873046882234 32.08300722570034 42.12280217404912 C 32.411715531171815 42.30573130121601 32.30131895704986 42.185866353013004 32.440370817721686 42.216639635660584 C 32.57942267839352 42.247412918308164 32.612494631785985 42.09979372397159 32.639214668387666 42.24589530463944 C 32.66593470498934 42.39199688530729 32.80538814918707 42.7556705095857 32.54725096412841 42.801045958332004 C 32.28911377906975 42.84642140707831 31.87533405131464 42.52953055486402 31.606665928153028 42.42739709962467 C 31.337997804991417 42.325263644385316 31.46666359858674 42.50031542828388 31.47257847148197 42.39251213737461 C 31.4784933443772 42.28470884646534 31.845631309842478 42.103014967118355 31.630325419733946 41.996183935987595 C 31.415019529625415 41.889352904856835 30.90477556091718 42.02777733375464 30.61135491104784 41.96518801285158 C 30.3179342611785 41.90259869194851 30.483341071038506 41.88034405027337 30.456642820256587 41.74582665237533 C 30.429944569474667 41.61130925447729 30.170914793190132 41.43526969643038 30.504561907920166 41.42711842125941 C 30.8382090226502 41.418967146088434 31.4582031967481 41.721692774882385 31.791231279176724 41.71322155169143 C 32.12425936160535 41.704750328500474 32.09230176046289 41.51322070654685 31.836674237634657 41.393233528495585 C 31.58104671480643 41.27324635044432 31.00041655275384 41.137997111018365 30.76872118786381 41.23327283948636 C 30.53702582297378 41.32854856795436 30.766160214475487 41.56782095537286 30.909892778074536 41.77433644236756 C 31.053625341673584 41.980851929362274 31.11177529774704 41.98799000129504 31.343651442260004 42.05933478746519 C 31.575527586772967 42.130679573635334 31.778923964685404 41.75575306254718 31.83739735612639 42.05971558704817 C 31.89587074756738 42.36367811154915 32.05215028108398 43.030484866127864 31.57754500802395 43.27518488546914 C 31.102939734963922 43.519884904810404 30.220726287856944 43.12765795843951 29.938976263886275 43.03851566441323 C 29.657226239915605 42.94937337038696 30.27255282170818 42.91385409722787 30.450544912141275 42.91861570936403 C 30.62853700257437 42.9233773215002 30.478891314593973 43.113924149609716 30.650944625618653 43.05756211295789 C 30.822997936643333 43.00120007630606 30.87019743321992 42.79433450426504 31.138758156239987 42.69316756275672 C 31.407318879260053 42.5920006212484 31.381385804746387 42.60721136243485 31.725187517698917 42.652894346924626 C 32.06898923065145 42.6985773314144 32.16194189997313 42.713350178045985 32.51396500805011 42.87589950071581 C 32.865988116127085 43.03844882338564 32.98379358571735 43.198034662914836 33.13327995000682 43.30309163760394 C 33.282766314296296 43.40814861229305 33.285359299978026 43.25957072484887 33.11191046520801 43.29612739947224 C 32.938461630438006 43.33268407409562 32.48515628888707 43.443186189915366 32.439484610926776 43.44931833609744 C 32.39381293296648 43.45545048227952 32.772519760504466 43.17785606775087 32.92922375336686 43.32065598420056 C 33.08592774622926 43.46345590065026 33.01666794249604 43.89993276542981 33.06630058237637 44.020518001896235 C 33.115933222256714 44.14110323836266 33.22280010905574 43.95120971303656 33.1277543128882 43.80299693006626 C 33.03270851672066 43.65478414709595 32.66426204230812 43.48734110524019 32.68611739770622 43.42766687001501 C 32.70797275310432 43.36799263478983 32.928908175684015 43.181768367619576 33.21517573448061 43.564299989165534 C 33.5014432932772 43.94683161071149 33.848844876965266 44.70566183414863 33.83118763289258 44.95779335619885 C 33.8135303888199 45.20992487824907 33.3452839441931 44.490905799884594 33.14454675818986 44.572826077366415 C 32.94380957218664 44.654746354848236 32.91583128553099 44.86521502288238 33.028238888879656 45.28547446612614 C 33.14064649222833 45.7057339093699 33.43908708079687 45.962464414753256 33.59417717158455 46.253863850341446 C 33.749267262372214 46.54526328592964 33.66482442535465 46.413648771107226 33.64859925203035 46.45107220847891 C 33.63237407870605 46.4884956458506 33.56522370034905 46.54028951344836 33.52927647828736 46.40355759982819 C 33.493329256225664 46.26682568620802 33.39420506310251 45.90021517570873 33.50481036378359 45.90414455399825 C 33.61541566446466 45.90807393228776 33.71823706598187 46.14069274515639 33.97169768101166 46.419275112986256 C 34.22515829604145 46.69785748081611 34.64817208782862 46.81375197406149 34.518652823902755 47.01847402531769 C 34.38913355997689 47.22319607657388 33.5874976542018 47.08324462500873 33.453620625308204 47.238163318011026 C 33.3197435964146 47.39308201101333 33.64636285120828 47.78552148822355 33.98314470832835 47.63814879732687 C 34.31992656544842 47.49077610643019 34.73135566125278 46.888926267088614 34.800748053788475 46.648672554424316 C 34.87014044632417 46.40841884176001 34.17986077425428 46.54939585420455 34.26071427847115 46.67713394666967 C 34.34156778268802 46.8048720391348 34.795345777007384 47.16624521348088 35.12416207065594 47.15962492428482 C 35.4529783643045 47.15300463508876 35.2945672496401 46.7471334384529 35.57597945306537 46.650652789885456 C 35.85739165649065 46.554172141318006 36.16016336265836 46.971981938775876 36.24981088435703 46.773702330015034 C 36.3394584060557 46.57542272125419 36.03139304172426 46.203920172134175 35.93456953986005 45.857534354842095 C 35.83774603799584 45.511148537550014 36.042975660047006 45.35731971811641 35.86251687690019 45.388159060846704 C 35.68205809375337 45.41899840357701 35.41163238378458 45.88507781486795 35.21273440727278 45.98089172576331 C 35.013836430760975 46.07670563665866 35.349604944337436 45.931970635304474 35.06692497085298 45.77141470442813 C 34.78424499736853 45.61085877355179 34.225780491870744 45.442178199128506 34.08201451333497 45.33866800225794 C 33.938248534799186 45.235157805387374 34.4251162040065 45.32143107495323 34.491861056709865 45.35737391694586 C 34.55860590941323 45.3933167589385 34.444815261126806 45.398681790058504 34.34899392414843 45.48243937022848 C 34.25317258717006 45.56619695039844 34.282461743352385 45.7200930148649 34.10857570879638 45.692404237625745 C 33.934689674240374 45.66471546038659 33.80359131642692 45.458446249883394 33.65344978592441 45.37168426127185 C 33.503308255421906 45.28492227266031 33.47397384971437 45.26216584099513 33.50800958678636 45.345356283179584 C 33.542045323858346 45.42854672536404 33.71212636690138 45.736387260939104 33.78959273421236 45.70444603000968 C 33.86705910152335 45.672504799080244 33.81368083184745 45.19121157122417 33.8178750560303 45.21759135946187 C 33.82206928021316 45.24397114769957 33.70083873895858 45.28449256129757 33.80636963094379 45.809965182960475 C 33.911900522929 46.33543780462338 34.224123706961535 46.94724122851999 34.23999862397115 47.319481846113504 C 34.25587354098076 47.691722463707016 34.00564068683775 47.224123579241564 33.86986929898225 47.298927653334516 C 33.73409791112675 47.373731727427476 33.69668983917242 47.37466873746831 33.69691307254915 47.61869814248533 C 33.69713630592587 47.86272754750235 33.88958927148715 47.89711553181937 33.870762232489156 48.2750452734026 C 33.85193519349117 48.65297501498583 33.671516241394116 48.713575788262496 33.62160491655719 49.13041710881824 C 33.571693591720276 49.54725842937398 33.61193343087351 50.00234414265026 33.671116933141484 49.94241055562557 C 33.730300435409454 49.88247696860089 33.65829590350041 49.16356296560337 33.85833892562908 48.8906827607195 C 34.058381947757745 48.61780255583563 34.290827559845326 48.69038443158348 34.471289021656155 48.850889736090096 C 34.65175048346699 49.01139504059672 34.38622267148333 49.136139444899726 34.580184772872414 49.53270397874598 C 34.774146874261504 49.92926851259223 34.93415616686757 50.310817891057546 35.2471374272125 50.43714787147511 C 35.560118687557434 50.56347785189268 35.83764275714947 50.363861567278256 35.83210981425215 50.038023900416235 C 35.826576871354824 49.71218623355421 35.26448450079926 49.31609078951007 35.22500565562321 49.133797204027026 C 35.18552681044714 48.95150361854398 35.56928496647721 49.18231627269538 35.67419443354791 49.30884955848406 C 35.779103900618594 49.43538284427274 35.93170349695952 49.5019095699685 35.64464352390597 49.63993034718175 C 35.35758355085241 49.777951124395 34.996581741423995 49.77474283842618 34.52595454133369 49.86093266733707 C 34.0553273412434 49.94712249624796 34.08444926589048 49.90914041794675 33.762134723544776 49.98468966282532 C 33.439820181199075 50.06023890770388 33.32165806628092 50.07250998548475 33.236696371950885 50.16312964685131 C 33.15173467762086 50.25374930821787 33.4858117811825 50.271856160352264 33.42228794622466 50.34716830829154 C 33.35876411126682 50.42248045623082 32.992883685210565 50.55317188526274 32.98260103211953 50.464378238608425 C 32.97231837902849 50.3755845919541 33.35819916794313 49.995705279202156 33.381157333860514 49.99199372167426 C 33.4041154997779 49.98828216414637 33.21321894225053 50.160271138166195 33.0744336957891 50.449532008496845 C 32.935648449327665 50.738792878827496 32.81945247802227 50.83996457932112 32.8260163480148 51.14903720299687 C 32.83258021800732 51.458109826672626 33.124180107994775 51.551887016633984 33.100689175759186 51.68582250319986 C 33.0771982435236 51.81975798976574 32.777163595307236 51.280262517899175 32.73205261907245 51.68477914926038 C 32.68694164283767 52.08929578062159 32.831867092315385 52.94423704370054 32.92024527082005 53.30388902864469 C 33.008623449324716 53.66354101358884 33.017249146922694 53.2340002769002 33.08556533309112 53.12338708903698 C 33.15388151925954 53.01277390117376 33.15080830037904 52.91112095174117 33.193510015493736 52.861436277191814 C 33.23621173060843 52.81175160264245 33.282144803956605 52.797042647926006 33.25637219354991 52.924648390839536 C 33.2305995831432 53.05225413375307 32.95975908428034 53.21269062592771 33.09041957386694 53.37185924884593 C 33.22108006345353 53.531027871764145 33.38350450196922 53.28891052332305 33.77901415189626 53.5613228825124 C 34.17452380182331 53.83373524170175 34.43837965763286 54.15431762514186 34.67245817357511 54.46150868560334 C 34.90653668951737 54.768699746064826 34.53836703318217 54.58743741302558 34.71532821566528 54.790087124358344 C 34.89228939814839 54.992736835691105 35.33640276586881 55.07267209223925 35.38030290350756 55.2721075309344 C 35.42420304114631 55.471542969629546 35.14075777221925 55.60022066431803 34.89092876622028 55.58782887913893 C 34.6410997602213 55.575437093959835 34.527440376107265 55.26943212527999 34.38098687951166 55.222540390218 C 34.234533382916055 55.17564865515601 34.40445476000308 55.416623436454394 34.305114779837865 55.40026193889097 C 34.20577479967265 55.38390044132755 34.10670593055103 55.18797183326697 33.983626958850806 55.157094399964315 C 33.86054798715057 55.12621696666166 34.00362429934791 55.30565015522087 33.81279889303694 55.27675220568033 C 33.62197348672598 55.247854256139796 33.626186410234396 54.99108838308984 33.22032533360692 55.041502601802165 C 32.81446425697945 55.0919168205145 32.61984824928823 55.48584766905422 32.18935458652705 55.47840908052965 C 31.758860923765873 55.47097049200508 31.575829533708433 55.03511713931223 31.498350682562215 55.01174824770388 C 31.420871831415997 54.98837935609552 31.46770317580948 55.3826653744398 31.879439181942182 55.38493351409624 C 32.29117518807489 55.387201653752676 32.7587629694213 54.97649864442445 33.14529470709303 55.020820806329624 C 33.53182644476475 55.065142968234795 33.423616197283465 55.382884757262495 33.42556613262908 55.562222161716925 C 33.42751606797469 55.74155956617135 33.04074409609453 55.669207933136256 33.15309444847547 55.738170424147334 C 33.265444800856415 55.80713291515841 33.60044169383703 55.58243676667639 33.874967542152845 55.83807212576124 C 34.14949339046866 56.09370748484608 34.1023075472352 56.59712002749409 34.251197841738744 56.76071186048672 C 34.40008813624228 56.92430369347935 34.54016154089999 56.69112785207081 34.470528720167025 56.492439457731756 C 34.400895899434055 56.29375106339271 34.05511990179478 56.15445185444483 33.97266655880687 55.96595828313054 C 33.89021321581896 55.77746471181626 34.024903857623016 55.55796945962105 34.14071534821537 55.738465172474605 C 34.25652683880772 55.91896088532816 34.55714215642891 56.49606316466915 34.435912521176284 56.68794113454476 C 34.31468288592366 56.87981910442037 33.51138558449658 56.55831287337031 33.655796807204865 56.50597705197704 C 33.80020802991314 56.45364123058376 34.796041739183714 56.26176880275088 35.01355741200941 56.478597848971674 C 35.23107308483511 56.69542689519246 34.78601947096342 56.97331697923244 34.52585949850766 57.3732932368602 C 34.26569952605189 57.773269494487955 34.14190877482505 58.09435694937764 33.972917522186364 58.0785028794827 C 33.80392626954769 58.06264880958775 33.86946820704099 57.393668271335 33.84989448795294 57.30987695728041 C 33.83032076886488 57.226085643225815 33.73463956823916 57.820203108661545 33.89462264583415 57.74333762326432 C 34.054605723429134 57.66647213786709 34.26082956653035 57.05895229488236 34.48982679833288 57.0024150156915 C 34.71882403013541 56.945877736500634 34.674718877994586 57.45118002472499 34.810611573044284 57.51718850650087 C 34.94650426809398 57.583196988276754 35.01208081931594 57.38680842614593 35.03339757853167 57.266448942795016 C 35.0547143377474 57.1460894594441 35.14275765623684 56.84013434478105 34.89587860990719 57.0357505730972 C 34.64899956357755 57.231366801413344 34.4069182519101 57.499346878087806 34.04588139321308 58.04891385605961 C 33.68484453451606 58.59848083403142 33.66266730226432 58.74967694863302 33.45173117511912 59.234018484984425 C 33.24079504797392 59.71836002133583 33.032688074563275 59.83279401680227 33.20213688463228 59.986280001465246 C 33.37158569470128 60.13976598612821 33.93026511170165 59.742649011004914 34.129526415395134 59.84796242363631 C 34.328787719088616 59.953275836267714 34.01167903273664 60.02386119478821 33.9991820994062 60.40753365199085 C 33.98668516607577 60.791206109193496 34.18755858741672 61.03215859057829 34.079538682073405 61.38265225244689 C 33.971518776730086 61.733145914315486 33.50974989956026 61.67698309670562 33.567102478032936 61.809508299465236 C 33.62445505650561 61.94203350222486 34.15011798498858 61.88478821048072 34.3089489959641 61.91275306348537 C 34.467780006939634 61.94071791649002 34.1400134598061 61.809367992343454 34.20242652193504 61.92136771148384 C 34.26483958406398 62.033367430624224 34.53616945790508 62.4054602345865 34.55860124447988 62.36075194004691 C 34.58103303105467 62.31604364550732 34.265624747281215 61.942966208432516 34.29215366823423 61.74253453332547 C 34.31868258918724 61.54210285821843 34.35211677523664 61.710576402169636 34.66471692829193 61.559025239618734 C 34.97731708134723 61.407474077067825 35.31588041269557 61.17893995010711 35.54255428045542 61.136329883121846 C 35.76922814821527 61.09371981613659 35.416418786398914 61.450628725387105 35.57141239933133 61.3885849716777 C 35.72640601226375 61.3265412179683 35.8772286290929 60.69687442648666 36.162528732185095 60.88815486828423 C 36.44782883527729 61.079435310081806 36.70786902192365 61.74259660215801 36.71261281170012 62.153706738867996 C 36.717356601476595 62.564816875577975 36.36842767022293 62.25085193793634 36.18150389129099 62.53259541512418 C 35.994580112359046 62.81433889231201 36.01906424480202 63.09365933949554 35.96491769597236 63.28068064761933"
  >
    <title>`A`.icon</title>
  </path>
  <g
    transform="rotate(0, 8.401338276060955, 34.29902432960344)translate(2.6053382760609543, 30.98252432960344)"
  >
    <title>`D`.labelText</title>
    <svg
      style="font-size: 9px"
      xmlns="http://www.w3.org/2000/svg"
      width="11.592"
      height="6.633"
      role="img"
      focusable="false"
      viewBox="0 -715 1288 737"
    >
      <g
        stroke="none"
        fill="#000000"
        stroke-width="0"
        transform="scale(1,-1)"
        fill-opacity="1"
      >
        <g data-mml-node="math">
          <g data-mml-node="mi">
            <path
              data-c="1D715"
              d="M202 508Q179 508 169 520T158 547Q158 557 164 577T185 624T230 675T301 710L333 715H345Q378 715 384 714Q447 703 489 661T549 568T566 457Q566 362 519 240T402 53Q321 -22 223 -22Q123 -22 73 56Q42 102 42 148V159Q42 276 129 370T322 465Q383 465 414 434T455 367L458 378Q478 461 478 515Q478 603 437 639T344 676Q266 676 223 612Q264 606 264 572Q264 547 246 528T202 508ZM430 306Q430 372 401 400T333 428Q270 428 222 382Q197 354 183 323T150 221Q132 149 132 116Q132 21 232 21Q244 21 250 22Q327 35 374 112Q389 137 409 196T430 306Z"
            />
          </g>
          <g data-mml-node="mi" transform="translate(566,0)">
            <path
              data-c="3A9"
              d="M55 454Q55 503 75 546T127 617T197 665T272 695T337 704H352Q396 704 404 703Q527 687 596 615T666 454Q666 392 635 330T559 200T499 83V80H543Q589 81 600 83T617 93Q622 102 629 135T636 172L637 177H677V175L660 89Q645 3 644 2V0H552H488Q461 0 456 3T451 20Q451 89 499 235T548 455Q548 512 530 555T483 622T424 656T361 668Q332 668 303 658T243 626T193 560T174 456Q174 380 222 233T270 20Q270 7 263 0H77V2Q76 3 61 89L44 175V177H84L85 172Q85 171 88 155T96 119T104 93Q109 86 120 84T178 80H222V83Q206 132 162 199T87 329T55 454Z"
            />
          </g>
        </g>
      </g>
    </svg>
  </g>
  <polygon
    fill="#000000"
    fill-opacity="0.2"
    stroke="none"
    transform="scale(1)"
    points="231.01421576374744,18.97677261068253,-157.8353112917595,112.76336639101663,-164.70521702331047,84.27998207186391,224.14431003219647,-9.506611708470182"
  >
    <title>`D`.epsilonShell</title>
  </polygon>
  <g>
    <line
      x1="224.14431003219647"
      y1="-9.506611708470182"
      x2="-164.70521702331047"
      y2="84.27998207186391"
      stroke="#000000"
      stroke-opacity="1"
      stroke-width="0.5"
    />
    <title>`D`.boundary</title>
  </g>
  <polygon
    fill="#000000"
    fill-opacity="0.13333333333333333"
    stroke="none"
    transform="scale(1)"
    points="224.14431003219647,-9.506611708470182,-164.70521702331047,84.27998207186391,-117.81192013314342,278.70474559961735,271.0376069223635,184.91815181928328"
  >
    <title>`D`.icon</title>
  </polygon>
</svg>
