<svg
  version="1.2"
  xmlns="http://www.w3.org/2000/svg"
  viewBox="0 0 100 100"
  penrose="0"
>
  <penrose>
    <croppedViewBox>
      -164.76383366496387 -9.74964274804389 435.8014405873274 288.4543883476613
    </croppedViewBox>
  </penrose>
  <g>
    <g>
      <line
        x1="49.63095582612"
        y1="34.641603127957694"
        x2="55.56299561986764"
        y2="59.23649217655533"
        stroke="#888888"
        stroke-opacity="1"
        stroke-width="0.5"
      />
      <title>12:0:epsilonMarker</title>
    </g>
    <g>
      <line
        x1="52.06126537021692"
        y1="34.0554369168306"
        x2="47.20064628202309"
        y2="35.22776933908478"
        stroke="#888888"
        stroke-opacity="1"
        stroke-width="0.5"
      />
      <title>12:0:epsilonMarkerStart</title>
    </g>
    <g>
      <line
        x1="57.993305163964564"
        y1="58.650325965428245"
        x2="53.13268607577072"
        y2="59.822658387682424"
        stroke="#888888"
        stroke-opacity="1"
        stroke-width="0.5"
      />
      <title>12:0:epsilonMarkerEnd</title>
    </g>
    <title>12:0:markerGroup</title>
  </g>
  <g
    transform="rotate(0, 49.680604270077524, 47.642447105609016)translate(47.58360427007752, 45.50944710560901)"
  >
    <title>12:0:epsilonLabel</title>
    <svg
      style="font-size: 9px"
      xmlns="http://www.w3.org/2000/svg"
      width="4.194"
      height="4.266"
      role="img"
      focusable="false"
      viewBox="0 -452 466 474"
    >
      <g
        stroke="none"
        fill="#888888"
        stroke-width="0"
        transform="scale(1,-1)"
        fill-opacity="1"
      >
        <g data-mml-node="math">
          <g data-mml-node="mi">
            <path
              data-c="1D700"
              d="M190 -22Q124 -22 76 11T27 107Q27 174 97 232L107 239L99 248Q76 273 76 304Q76 364 144 408T290 452H302Q360 452 405 421Q428 405 428 392Q428 381 417 369T391 356Q382 356 371 365T338 383T283 392Q217 392 167 368T116 308Q116 289 133 272Q142 263 145 262T157 264Q188 278 238 278H243Q308 278 308 247Q308 206 223 206Q177 206 142 219L132 212Q68 169 68 112Q68 39 201 39Q253 39 286 49T328 72T345 94T362 105Q376 103 376 88Q376 79 365 62T334 26T275 -8T190 -22Z"
            />
          </g>
        </g>
      </g>
    </svg>
  </g>
  <g
    transform="rotate(0, 37.37171660267737, 69.11342355345192)translate(32.76641660267737, 66.41432355345192)"
  >
    <title>`x0`.labelText</title>
    <svg
      style="font-size: 9px"
      xmlns="http://www.w3.org/2000/svg"
      width="9.210600000000001"
      height="5.3982"
      role="img"
      focusable="false"
      viewBox="0 -442 1023.4 599.8"
    >
      <g
        stroke="none"
        fill="#000000"
        stroke-width="0"
        transform="scale(1,-1)"
        fill-opacity="1"
      >
        <g data-mml-node="math">
          <g data-mml-node="msub">
            <g data-mml-node="mi">
              <path
                data-c="1D465"
                d="M52 289Q59 331 106 386T222 442Q257 442 286 424T329 379Q371 442 430 442Q467 442 494 420T522 361Q522 332 508 314T481 292T458 288Q439 288 427 299T415 328Q415 374 465 391Q454 404 425 404Q412 404 406 402Q368 386 350 336Q290 115 290 78Q290 50 306 38T341 26Q378 26 414 59T463 140Q466 150 469 151T485 153H489Q504 153 504 145Q504 144 502 134Q486 77 440 33T333 -11Q263 -11 227 52Q186 -10 133 -10H127Q78 -10 57 16T35 71Q35 103 54 123T99 143Q142 143 142 101Q142 81 130 66T107 46T94 41L91 40Q91 39 97 36T113 29T132 26Q168 26 194 71Q203 87 217 139T245 247T261 313Q266 340 266 352Q266 380 251 392T217 404Q177 404 142 372T93 290Q91 281 88 280T72 278H58Q52 284 52 289Z"
              />
            </g>
            <g data-mml-node="mi" transform="translate(605,-150) scale(0.707)">
              <path
                data-c="1D458"
                d="M121 647Q121 657 125 670T137 683Q138 683 209 688T282 694Q294 694 294 686Q294 679 244 477Q194 279 194 272Q213 282 223 291Q247 309 292 354T362 415Q402 442 438 442Q468 442 485 423T503 369Q503 344 496 327T477 302T456 291T438 288Q418 288 406 299T394 328Q394 353 410 369T442 390L458 393Q446 405 434 405H430Q398 402 367 380T294 316T228 255Q230 254 243 252T267 246T293 238T320 224T342 206T359 180T365 147Q365 130 360 106T354 66Q354 26 381 26Q429 26 459 145Q461 153 479 153H483Q499 153 499 144Q499 139 496 130Q455 -11 378 -11Q333 -11 305 15T277 90Q277 108 280 121T283 145Q283 167 269 183T234 206T200 217T182 220H180Q168 178 159 139T145 81T136 44T129 20T122 7T111 -2Q98 -11 83 -11Q66 -11 57 -1T48 16Q48 26 85 176T158 471L195 616Q196 629 188 632T149 637H144Q134 637 131 637T124 640T121 647Z"
              />
            </g>
          </g>
        </g>
      </g>
    </svg>
  </g>
  <circle
    fill="#000000"
    fill-opacity="1"
    cx="35.96491769597236"
    cy="63.28068064761932"
    stroke="none"
    r="1"
  >
    <title>`x0`.icon</title>
  </circle>
  <circle
    fill="#000000"
    fill-opacity="1"
    cx="29.719546504442988"
    cy="37.38668518169686"
    stroke="none"
    r="1"
  >
    <title>`x1`.icon</title>
  </circle>
  <g
    transform="rotate(0, 28.312747597737978, 31.55394227586426)translate(23.70744759773798, 27.42834227586426)"
  >
    <title>`x1`.labelText</title>
    <svg
      style="font-size: 9px"
      xmlns="http://www.w3.org/2000/svg"
      width="9.210600000000001"
      height="8.251199999999999"
      role="img"
      focusable="false"
      viewBox="0 -759 1023.4 916.8"
    >
      <g
        stroke="none"
        fill="#000000"
        stroke-width="0"
        transform="scale(1,-1)"
        fill-opacity="1"
      >
        <g data-mml-node="math">
          <g data-mml-node="msub">
            <g data-mml-node="mover">
              <g data-mml-node="mi">
                <path
                  data-c="1D465"
                  d="M52 289Q59 331 106 386T222 442Q257 442 286 424T329 379Q371 442 430 442Q467 442 494 420T522 361Q522 332 508 314T481 292T458 288Q439 288 427 299T415 328Q415 374 465 391Q454 404 425 404Q412 404 406 402Q368 386 350 336Q290 115 290 78Q290 50 306 38T341 26Q378 26 414 59T463 140Q466 150 469 151T485 153H489Q504 153 504 145Q504 144 502 134Q486 77 440 33T333 -11Q263 -11 227 52Q186 -10 133 -10H127Q78 -10 57 16T35 71Q35 103 54 123T99 143Q142 143 142 101Q142 81 130 66T107 46T94 41L91 40Q91 39 97 36T113 29T132 26Q168 26 194 71Q203 87 217 139T245 247T261 313Q266 340 266 352Q266 380 251 392T217 404Q177 404 142 372T93 290Q91 281 88 280T72 278H58Q52 284 52 289Z"
                />
              </g>
              <g data-mml-node="mo" transform="translate(0,374)">
                <svg
                  width="572"
                  height="237"
                  x="0"
                  y="148"
                  viewBox="143 148 572 237"
                >
                  <path
                    data-c="2013"
                    d="M0 248V285H499V248H0Z"
                    transform="scale(1.716,1)"
                  />
                </svg>
              </g>
            </g>
            <g data-mml-node="mi" transform="translate(605,-150) scale(0.707)">
              <path
                data-c="1D458"
                d="M121 647Q121 657 125 670T137 683Q138 683 209 688T282 694Q294 694 294 686Q294 679 244 477Q194 279 194 272Q213 282 223 291Q247 309 292 354T362 415Q402 442 438 442Q468 442 485 423T503 369Q503 344 496 327T477 302T456 291T438 288Q418 288 406 299T394 328Q394 353 410 369T442 390L458 393Q446 405 434 405H430Q398 402 367 380T294 316T228 255Q230 254 243 252T267 246T293 238T320 224T342 206T359 180T365 147Q365 130 360 106T354 66Q354 26 381 26Q429 26 459 145Q461 153 479 153H483Q499 153 499 144Q499 139 496 130Q455 -11 378 -11Q333 -11 305 15T277 90Q277 108 280 121T283 145Q283 167 269 183T234 206T200 217T182 220H180Q168 178 159 139T145 81T136 44T129 20T122 7T111 -2Q98 -11 83 -11Q66 -11 57 -1T48 16Q48 26 85 176T158 471L195 616Q196 629 188 632T149 637H144Q134 637 131 637T124 640T121 647Z"
              />
            </g>
          </g>
        </g>
      </g>
    </svg>
  </g>
  <g>
    <filter
      id="AbsorbingBoundary__`A`.icon-shadow"
      x="0"
      y="0"
      width="200%"
      height="200%"
    >
      <feOffset result="offOut" in="SourceAlpha" dx="5" dy="5" />
      <feGaussianBlur result="blurOut" in="offOut" stdDeviation="4" />
      <feBlend in="SourceGraphic" in2="blurOut" mode="normal" />
      <feComponentTransfer>
        <feFuncA type="linear" slope="0.5" />
      </feComponentTransfer>
      <feMerge>
        <feMergeNode />
        <feMergeNode in="SourceGraphic" />
      </feMerge>
    </filter>
    <path
      fill="none"
      stroke="#1b1f8a"
      stroke-opacity="0.4"
      stroke-width="0.5"
      stroke-linecap="butt"
      d="M 29.719546504442988 37.38668518169686 C 29.74631706391507 37.83669222400455 29.74309015129515 38.602804285014656 29.82662874233131 39.18671335092762 C 29.91016733336747 39.770622416840574 29.96742788841427 39.537525434925726 30.053700868587626 39.7223214453487 C 30.13997384876098 39.90711745577167 30.000289307701472 39.815665389110535 30.171720663024733 39.925897392619504 C 30.343152018347993 40.03612939612847 30.625396565218416 39.92379413183069 30.739426289880676 40.163249459384566 C 30.853456014542935 40.40270478693844 30.43864709077854 40.53779213887985 30.627839561673778 40.88371870283501 C 30.817032032569013 41.22964526679018 31.34178736424059 41.249127207399695 31.49619617346162 41.54695571520523 C 31.650604982682648 41.844784223010755 31.3465011959607 42.08936971476254 31.24547479855789 42.07503273405713 C 31.14444840115508 42.060695753351716 31.239522542652818 41.65349640709155 31.092090583850393 41.489607792383566 C 30.944658625047968 41.32571917767559 30.64738521035184 41.42064944157284 30.65574696334819 41.41947827522521 C 30.66410871634454 41.41830710887757 30.768722530247754 41.30909215228705 31.12553759583579 41.48492312699303 C 31.48235266142383 41.660754101699006 31.754298920228862 41.93987304688223 32.08300722570034 42.12280217404911 C 32.411715531171815 42.305731301216 32.30131895704986 42.185866353013 32.440370817721686 42.21663963566058 C 32.57942267839352 42.24741291830816 32.612494631785985 42.09979372397158 32.639214668387666 42.24589530463943 C 32.66593470498934 42.391996885307286 32.80538814918707 42.755670509585684 32.54725096412841 42.801045958332 C 32.28911377906975 42.8464214070783 31.87533405131464 42.52953055486401 31.606665928153028 42.42739709962466 C 31.337997804991417 42.325263644385316 31.46666359858674 42.500315428283876 31.47257847148197 42.3925121373746 C 31.4784933443772 42.284708846465335 31.845631309842478 42.10301496711835 31.630325419733946 41.99618393598759 C 31.415019529625415 41.88935290485683 30.90477556091718 42.027777333754635 30.61135491104784 41.96518801285157 C 30.3179342611785 41.902598691948505 30.483341071038506 41.880344050273365 30.456642820256587 41.74582665237532 C 30.429944569474667 41.61130925447728 30.170914793190132 41.43526969643037 30.504561907920166 41.427118421259394 C 30.8382090226502 41.41896714608842 31.4582031967481 41.72169277488238 31.791231279176724 41.713221551691426 C 32.12425936160535 41.70475032850047 32.09230176046289 41.513220706546846 31.836674237634657 41.39323352849558 C 31.58104671480643 41.27324635044431 31.00041655275384 41.13799711101836 30.76872118786381 41.233272839486354 C 30.53702582297378 41.32854856795434 30.766160214475487 41.56782095537285 30.909892778074536 41.774336442367556 C 31.053625341673584 41.98085192936227 31.11177529774704 41.98799000129503 31.343651442260004 42.05933478746518 C 31.575527586772967 42.130679573635334 31.778923964685404 41.75575306254717 31.83739735612639 42.05971558704816 C 31.89587074756738 42.36367811154914 32.05215028108398 43.030484866127864 31.57754500802395 43.27518488546913 C 31.102939734963922 43.5198849048104 30.220726287856944 43.1276579584395 29.938976263886275 43.038515664413225 C 29.657226239915605 42.94937337038695 30.27255282170818 42.91385409722786 30.450544912141275 42.918615709364026 C 30.62853700257437 42.92337732150018 30.478891314593973 43.11392414960971 30.650944625618653 43.05756211295788 C 30.822997936643333 43.00120007630605 30.87019743321992 42.794334504265024 31.138758156239987 42.69316756275671 C 31.407318879260053 42.592000621248395 31.381385804746387 42.607211362434846 31.725187517698917 42.65289434692462 C 32.06898923065145 42.69857733141439 32.16194189997313 42.71335017804598 32.51396500805011 42.8758995007158 C 32.865988116127085 43.038448823385636 32.98379358571735 43.19803466291482 33.13327995000682 43.303091637603934 C 33.282766314296296 43.40814861229304 33.285359299978026 43.25957072484886 33.11191046520801 43.29612739947223 C 32.938461630438006 43.33268407409561 32.48515628888707 43.44318618991535 32.439484610926776 43.449318336097434 C 32.39381293296648 43.45545048227952 32.772519760504466 43.17785606775085 32.92922375336686 43.320655984200556 C 33.08592774622926 43.46345590065025 33.01666794249604 43.8999327654298 33.06630058237637 44.02051800189623 C 33.115933222256714 44.141103238362646 33.22280010905574 43.951209713036555 33.1277543128882 43.80299693006625 C 33.03270851672066 43.654784147095945 32.66426204230812 43.48734110524018 32.68611739770622 43.427666870015 C 32.70797275310432 43.36799263478982 32.928908175684015 43.18176836761957 33.21517573448061 43.56429998916553 C 33.5014432932772 43.946831610711484 33.848844876965266 44.70566183414862 33.83118763289258 44.95779335619884 C 33.8135303888199 45.20992487824906 33.3452839441931 44.49090579988459 33.14454675818986 44.57282607736641 C 32.94380957218664 44.65474635484823 32.91583128553099 44.865215022882374 33.028238888879656 45.28547446612613 C 33.14064649222833 45.70573390936989 33.43908708079687 45.96246441475324 33.59417717158455 46.25386385034144 C 33.749267262372214 46.545263285929636 33.66482442535465 46.41364877110722 33.64859925203035 46.451072208478905 C 33.63237407870605 46.48849564585059 33.56522370034905 46.54028951344835 33.52927647828736 46.40355759982818 C 33.493329256225664 46.266825686208016 33.39420506310251 45.90021517570872 33.50481036378359 45.90414455399824 C 33.61541566446466 45.908073932287756 33.71823706598187 46.140692745156386 33.97169768101166 46.41927511298625 C 34.22515829604145 46.697857480816104 34.64817208782862 46.81375197406148 34.518652823902755 47.01847402531768 C 34.38913355997689 47.22319607657387 33.5874976542018 47.083244625008724 33.453620625308204 47.23816331801102 C 33.3197435964146 47.39308201101332 33.64636285120828 47.785521488223544 33.98314470832835 47.63814879732686 C 34.31992656544842 47.49077610643018 34.73135566125278 46.88892626708861 34.800748053788475 46.64867255442431 C 34.87014044632417 46.40841884176 34.17986077425428 46.54939585420454 34.26071427847115 46.67713394666967 C 34.34156778268802 46.80487203913479 34.795345777007384 47.16624521348087 35.12416207065594 47.15962492428481 C 35.4529783643045 47.15300463508876 35.2945672496401 46.74713343845289 35.57597945306537 46.65065278988545 C 35.85739165649065 46.554172141318 36.16016336265836 46.97198193877587 36.24981088435703 46.77370233001503 C 36.3394584060557 46.575422721254185 36.03139304172426 46.20392017213417 35.93456953986005 45.85753435484209 C 35.83774603799584 45.51114853755001 36.042975660047006 45.3573197181164 35.86251687690019 45.388159060846704 C 35.68205809375337 45.418998403577 35.41163238378458 45.88507781486794 35.21273440727278 45.9808917257633 C 35.013836430760975 46.07670563665865 35.349604944337436 45.93197063530447 35.06692497085298 45.771414704428125 C 34.78424499736853 45.61085877355178 34.225780491870744 45.4421781991285 34.08201451333497 45.33866800225793 C 33.938248534799186 45.23515780538737 34.4251162040065 45.321431074953225 34.491861056709865 45.35737391694585 C 34.55860590941323 45.39331675893849 34.444815261126806 45.3986817900585 34.34899392414843 45.48243937022846 C 34.25317258717006 45.566196950398435 34.282461743352385 45.720093014864894 34.10857570879638 45.69240423762574 C 33.934689674240374 45.66471546038658 33.80359131642692 45.45844624988339 33.65344978592441 45.371684261271845 C 33.503308255421906 45.28492227266031 33.47397384971437 45.262165840995124 33.50800958678636 45.34535628317958 C 33.542045323858346 45.428546725364036 33.71212636690138 45.7363872609391 33.78959273421236 45.70444603000967 C 33.86705910152335 45.672504799080244 33.81368083184745 45.191211571224166 33.8178750560303 45.21759135946186 C 33.82206928021316 45.24397114769956 33.70083873895858 45.28449256129756 33.80636963094379 45.80996518296047 C 33.911900522929 46.335437804623375 34.224123706961535 46.947241228519985 34.23999862397115 47.3194818461135 C 34.25587354098076 47.69172246370701 34.00564068683775 47.22412357924156 33.86986929898225 47.298927653334516 C 33.73409791112675 47.37373172742747 33.69668983917242 47.374668737468305 33.69691307254915 47.61869814248532 C 33.69713630592587 47.862727547502345 33.88958927148715 47.89711553181937 33.870762232489156 48.27504527340259 C 33.85193519349117 48.65297501498582 33.671516241394116 48.71357578826249 33.62160491655719 49.130417108818236 C 33.571693591720276 49.547258429373976 33.61193343087351 50.00234414265025 33.671116933141484 49.942410555625564 C 33.730300435409454 49.88247696860088 33.65829590350041 49.16356296560336 33.85833892562908 48.89068276071949 C 34.058381947757745 48.617802555835624 34.290827559845326 48.690384431583475 34.471289021656155 48.85088973609009 C 34.65175048346699 49.01139504059671 34.38622267148333 49.13613944489972 34.580184772872414 49.53270397874597 C 34.774146874261504 49.92926851259222 34.93415616686757 50.31081789105754 35.2471374272125 50.437147871475105 C 35.560118687557434 50.56347785189267 35.83764275714947 50.36386156727825 35.83210981425215 50.03802390041623 C 35.826576871354824 49.712186233554206 35.26448450079926 49.31609078951006 35.22500565562321 49.13379720402702 C 35.18552681044714 48.951503618543974 35.56928496647721 49.182316272695374 35.67419443354791 49.308849558484056 C 35.779103900618594 49.43538284427273 35.93170349695952 49.50190956996849 35.64464352390597 49.639930347181746 C 35.35758355085241 49.777951124394995 34.996581741423995 49.77474283842617 34.52595454133369 49.86093266733706 C 34.0553273412434 49.94712249624795 34.08444926589048 49.909140417946745 33.762134723544776 49.98468966282531 C 33.439820181199075 50.06023890770387 33.32165806628092 50.07250998548474 33.236696371950885 50.1631296468513 C 33.15173467762086 50.25374930821786 33.4858117811825 50.27185616035226 33.42228794622466 50.347168308291536 C 33.35876411126682 50.422480456230815 32.992883685210565 50.553171885262735 32.98260103211953 50.46437823860842 C 32.97231837902849 50.375584591954095 33.35819916794313 49.99570527920215 33.381157333860514 49.991993721674255 C 33.4041154997779 49.98828216414636 33.21321894225053 50.16027113816619 33.0744336957891 50.44953200849684 C 32.935648449327665 50.73879287882749 32.81945247802227 50.83996457932111 32.8260163480148 51.149037202996865 C 32.83258021800732 51.45810982667262 33.124180107994775 51.55188701663398 33.100689175759186 51.68582250319985 C 33.0771982435236 51.81975798976573 32.777163595307236 51.28026251789917 32.73205261907245 51.68477914926037 C 32.68694164283767 52.08929578062158 32.831867092315385 52.94423704370053 32.92024527082005 53.30388902864468 C 33.008623449324716 53.66354101358883 33.017249146922694 53.23400027690019 33.08556533309112 53.123387089036974 C 33.15388151925954 53.01277390117375 33.15080830037904 52.91112095174116 33.193510015493736 52.8614362771918 C 33.23621173060843 52.811751602642445 33.282144803956605 52.797042647926 33.25637219354991 52.92464839083953 C 33.2305995831432 53.05225413375306 32.95975908428034 53.212690625927706 33.09041957386694 53.37185924884592 C 33.22108006345353 53.53102787176414 33.38350450196922 53.28891052332304 33.77901415189626 53.56132288251239 C 34.17452380182331 53.833735241701746 34.43837965763286 54.15431762514185 34.67245817357511 54.461508685603334 C 34.90653668951737 54.76869974606482 34.53836703318217 54.58743741302557 34.71532821566528 54.79008712435834 C 34.89228939814839 54.992736835691105 35.33640276586881 55.072672092239245 35.38030290350756 55.27210753093439 C 35.42420304114631 55.47154296962954 35.14075777221925 55.60022066431802 34.89092876622028 55.587828879138925 C 34.6410997602213 55.57543709395983 34.527440376107265 55.269432125279984 34.38098687951166 55.22254039021799 C 34.234533382916055 55.175648655156 34.40445476000308 55.41662343645439 34.305114779837865 55.400261938890964 C 34.20577479967265 55.38390044132754 34.10670593055103 55.18797183326697 33.983626958850806 55.15709439996431 C 33.86054798715057 55.12621696666165 34.00362429934791 55.30565015522086 33.81279889303694 55.276752205680324 C 33.62197348672598 55.24785425613979 33.626186410234396 54.99108838308983 33.22032533360692 55.04150260180216 C 32.81446425697945 55.09191682051449 32.61984824928823 55.485847669054216 32.18935458652705 55.478409080529644 C 31.758860923765873 55.47097049200507 31.575829533708433 55.03511713931222 31.498350682562215 55.01174824770387 C 31.420871831415997 54.988379356095514 31.46770317580948 55.382665374439796 31.879439181942182 55.38493351409623 C 32.29117518807489 55.38720165375267 32.7587629694213 54.976498644424446 33.14529470709303 55.02082080632962 C 33.53182644476475 55.06514296823479 33.423616197283465 55.38288475726249 33.42556613262908 55.56222216171692 C 33.42751606797469 55.74155956617135 33.04074409609453 55.66920793313625 33.15309444847547 55.73817042414733 C 33.265444800856415 55.807132915158405 33.60044169383703 55.58243676667638 33.874967542152845 55.83807212576123 C 34.14949339046866 56.09370748484608 34.1023075472352 56.597120027494086 34.251197841738744 56.760711860486715 C 34.40008813624228 56.924303693479345 34.54016154089999 56.69112785207079 34.470528720167025 56.49243945773175 C 34.400895899434055 56.293751063392705 34.05511990179478 56.15445185444482 33.97266655880687 55.96595828313053 C 33.89021321581896 55.77746471181625 34.024903857623016 55.55796945962105 34.14071534821537 55.7384651724746 C 34.25652683880772 55.918960885328154 34.55714215642891 56.496063164669145 34.435912521176284 56.68794113454476 C 34.31468288592366 56.87981910442036 33.51138558449658 56.558312873370305 33.655796807204865 56.50597705197703 C 33.80020802991314 56.453641230583756 34.796041739183714 56.26176880275088 35.01355741200941 56.47859784897167 C 35.23107308483511 56.695426895192455 34.78601947096342 56.973316979232436 34.52585949850766 57.37329323686019 C 34.26569952605189 57.77326949448795 34.14190877482505 58.094356949377634 33.972917522186364 58.078502879482684 C 33.80392626954769 58.06264880958774 33.86946820704099 57.393668271334995 33.84989448795294 57.3098769572804 C 33.83032076886488 57.22608564322581 33.73463956823916 57.82020310866154 33.89462264583415 57.74333762326431 C 34.054605723429134 57.66647213786708 34.26082956653035 57.05895229488235 34.48982679833288 57.00241501569149 C 34.71882403013541 56.945877736500634 34.674718877994586 57.451180024724984 34.810611573044284 57.517188506500865 C 34.94650426809398 57.58319698827674 35.01208081931594 57.386808426145926 35.03339757853167 57.26644894279501 C 35.0547143377474 57.14608945944409 35.14275765623684 56.84013434478104 34.89587860990719 57.03575057309719 C 34.64899956357755 57.231366801413344 34.4069182519101 57.4993468780878 34.04588139321308 58.048913856059606 C 33.68484453451606 58.59848083403141 33.66266730226432 58.74967694863301 33.45173117511912 59.23401848498442 C 33.24079504797392 59.718360021335826 33.032688074563275 59.83279401680227 33.20213688463228 59.98628000146523 C 33.37158569470128 60.13976598612821 33.93026511170165 59.7426490110049 34.129526415395134 59.847962423636304 C 34.328787719088616 59.95327583626771 34.01167903273664 60.0238611947882 33.9991820994062 60.407533651990846 C 33.98668516607577 60.79120610919349 34.18755858741672 61.03215859057828 34.079538682073405 61.382652252446874 C 33.971518776730086 61.73314591431547 33.50974989956026 61.67698309670561 33.567102478032936 61.809508299465236 C 33.62445505650561 61.94203350222485 34.15011798498858 61.884788210480714 34.3089489959641 61.91275306348536 C 34.467780006939634 61.940717916490016 34.1400134598061 61.80936799234345 34.20242652193504 61.92136771148383 C 34.26483958406398 62.03336743062422 34.53616945790508 62.4054602345865 34.55860124447988 62.3607519400469 C 34.58103303105467 62.31604364550731 34.265624747281215 61.94296620843251 34.29215366823423 61.74253453332547 C 34.31868258918724 61.54210285821842 34.35211677523664 61.71057640216963 34.66471692829193 61.55902523961872 C 34.97731708134723 61.40747407706782 35.31588041269557 61.17893995010709 35.54255428045542 61.13632988312184 C 35.76922814821527 61.093719816136584 35.416418786398914 61.4506287253871 35.57141239933133 61.388584971677695 C 35.72640601226375 61.32654121796829 35.8772286290929 60.69687442648666 36.162528732185095 60.88815486828423 C 36.44782883527729 61.079435310081806 36.70786902192365 61.742596602158 36.71261281170012 62.15370673886798 C 36.717356601476595 62.56481687557797 36.36842767022293 62.25085193793633 36.18150389129099 62.53259541512416 C 35.994580112359046 62.814338892312 36.01906424480202 63.09365933949553 35.96491769597236 63.28068064761932"
    />
    <title>`A`.icon</title>
  </g>
  <g
    transform="rotate(0, 8.401338276060955, 34.29902432960343)translate(2.6053382760609543, 30.982524329603425)"
  >
    <title>`D`.labelText</title>
    <svg
      style="font-size: 9px"
      xmlns="http://www.w3.org/2000/svg"
      width="11.592"
      height="6.633"
      role="img"
      focusable="false"
      viewBox="0 -715 1288 737"
    >
      <g
        stroke="none"
        fill="#000000"
        stroke-width="0"
        transform="scale(1,-1)"
        fill-opacity="1"
      >
        <g data-mml-node="math">
          <g data-mml-node="mi">
            <path
              data-c="1D715"
              d="M202 508Q179 508 169 520T158 547Q158 557 164 577T185 624T230 675T301 710L333 715H345Q378 715 384 714Q447 703 489 661T549 568T566 457Q566 362 519 240T402 53Q321 -22 223 -22Q123 -22 73 56Q42 102 42 148V159Q42 276 129 370T322 465Q383 465 414 434T455 367L458 378Q478 461 478 515Q478 603 437 639T344 676Q266 676 223 612Q264 606 264 572Q264 547 246 528T202 508ZM430 306Q430 372 401 400T333 428Q270 428 222 382Q197 354 183 323T150 221Q132 149 132 116Q132 21 232 21Q244 21 250 22Q327 35 374 112Q389 137 409 196T430 306Z"
            />
          </g>
          <g data-mml-node="mi" transform="translate(566,0)">
            <path
              data-c="3A9"
              d="M55 454Q55 503 75 546T127 617T197 665T272 695T337 704H352Q396 704 404 703Q527 687 596 615T666 454Q666 392 635 330T559 200T499 83V80H543Q589 81 600 83T617 93Q622 102 629 135T636 172L637 177H677V175L660 89Q645 3 644 2V0H552H488Q461 0 456 3T451 20Q451 89 499 235T548 455Q548 512 530 555T483 622T424 656T361 668Q332 668 303 658T243 626T193 560T174 456Q174 380 222 233T270 20Q270 7 263 0H77V2Q76 3 61 89L44 175V177H84L85 172Q85 171 88 155T96 119T104 93Q109 86 120 84T178 80H222V83Q206 132 162 199T87 329T55 454Z"
            />
          </g>
        </g>
      </g>
    </svg>
  </g>
  <polygon
    fill="#000000"
    fill-opacity="0.2"
    stroke="none"
    transform="scale(1)"
    points="231.01421576374744,18.976772610682524,-157.8353112917595,112.76336639101663,-164.70521702331047,84.27998207186391,224.14431003219647,-9.506611708470189"
  >
    <title>`D`.epsilonShell</title>
  </polygon>
  <g>
    <line
      x1="224.14431003219647"
      y1="-9.506611708470189"
      x2="-164.70521702331047"
      y2="84.27998207186391"
      stroke="#000000"
      stroke-opacity="1"
      stroke-width="0.5"
    />
    <title>`D`.boundary</title>
  </g>
  <polygon
    fill="#000000"
    fill-opacity="0.13333333333333333"
    stroke="none"
    transform="scale(1)"
    points="224.14431003219647,-9.506611708470189,-164.70521702331047,84.27998207186391,-117.81192013314342,278.70474559961735,271.0376069223635,184.91815181928328"
  >
    <title>`D`.icon</title>
  </polygon>
</svg>
