<svg xmlns:dc="http://purl.org/dc/elements/1.1/" xmlns:cc="http://creativecommons.org/ns#"
  xmlns:rdf="http://www.w3.org/1999/02/22-rdf-syntax-ns#" xmlns:svg="http://www.w3.org/2000/svg"
  xmlns="http://www.w3.org/2000/svg" viewBox="0 0 666.66669 666.66669" height="666.66669" width="666.66669"
  xml:space="preserve" id="svg2" version="1.1">
  <metadata id="metadata8">
    <rdf:RDF>
      <cc:Work rdf:about="">
        <dc:format>image/svg+xml</dc:format>
        <dc:type rdf:resource="http://purl.org/dc/dcmitype/StillImage" />
      </cc:Work>
    </rdf:RDF>
  </metadata>
  <defs id="defs6">
    <clipPath id="clipPath20" clipPathUnits="userSpaceOnUse">
      <path id="path18" d="M 0,500 H 500 V 0 H 0 Z" />
    </clipPath>
  </defs>
  <g transform="matrix(1.3333333,0,0,-1.3333333,0,666.66667)" id="g10">
    <g id="g14">
      <g clip-path="url(#clipPath20)" id="g16">
        <g transform="translate(214.5881,306.5202)" id="g22">
          <path id="path24" style="fill:#010101;fill-opacity:1;fill-rule:nonzero;stroke:none"
            d="M 0,0 C -0.584,-0.637 -3.312,2.809 -8.336,3.158 -14.36,3.575 -18.209,-0.84 -18.945,0 -19.839,1.019 -15.918,9.49 -9.473,9.473 -3.002,9.456 0.823,0.896 0,0" />
        </g>
        <g transform="translate(290.6497,306.5202)" id="g26">
          <path id="path28" style="fill:#010101;fill-opacity:1;fill-rule:nonzero;stroke:none"
            d="M 0,0 C -0.584,-0.637 -3.312,2.809 -8.336,3.158 -14.36,3.575 -18.209,-0.84 -18.945,0 -19.839,1.019 -15.918,9.49 -9.473,9.473 -3.002,9.456 0.823,0.896 0,0" />
        </g>
        <g transform="translate(305.0154,391.8194)" id="g30">
          <path id="path32" style="fill:#010101;fill-opacity:1;fill-rule:nonzero;stroke:none"
            d="m 0,0 -3.409,-7.646 2,0.377 c 0.035,0.005 3.318,0.578 9.45,-2.488 0.153,-0.077 0.315,-0.113 0.475,-0.113 0.392,0 0.767,0.216 0.954,0.589 0.263,0.526 0.05,1.166 -0.476,1.429 -4.144,2.072 -7.165,2.629 -8.948,2.737 l 2.973,6.65 -1.274,0.283 c -7.355,1.634 -14.044,0.93 -17.269,0.393 2.645,5.962 12.258,25.124 30.065,34.48 0.521,0.273 0.722,0.917 0.447,1.438 -0.273,0.52 -0.916,0.721 -1.437,0.448 C -8.3,27.096 -18.181,1.411 -18.278,1.154 l -0.716,-1.902 1.971,0.493 C -16.941,-0.234 -9.067,1.686 0,0" />
        </g>
        <g transform="translate(168.1945,428.5102)" id="g34">
          <path id="path36" style="fill:#010101;fill-opacity:1;fill-rule:nonzero;stroke:none"
            d="m 0,0 c 17.79,-9.347 27.415,-28.516 30.064,-34.479 -3.228,0.536 -9.915,1.24 -17.269,-0.394 l -1.274,-0.283 2.975,-6.65 c -1.784,-0.108 -4.805,-0.665 -8.948,-2.736 -0.527,-0.264 -0.74,-0.903 -0.477,-1.43 0.187,-0.373 0.563,-0.588 0.954,-0.588 0.16,0 0.322,0.035 0.475,0.112 6.131,3.065 9.419,2.494 9.44,2.491 l 2.045,-0.431 -3.444,7.697 c 9.048,1.682 16.942,-0.235 17.025,-0.255 l 1.969,-0.49 -0.715,1.899 C 32.722,-35.279 22.842,-9.595 0.991,1.886 0.472,2.16 -0.174,1.959 -0.447,1.439 -0.721,0.917 -0.52,0.274 0,0" />
        </g>
        <g transform="translate(273.2704,175.905)" id="g38">
          <path id="path40" style="fill:#010101;fill-opacity:1;fill-rule:nonzero;stroke:none"
            d="M 0,0 C 3.195,5.555 4.649,10.644 4.773,11.092 4.93,11.659 4.597,12.245 4.031,12.403 3.466,12.558 2.877,12.228 2.72,11.661 2.657,11.437 -3.696,-10.805 -19.361,-12.626 c -0.584,-0.068 -1.002,-0.596 -0.935,-1.181 0.063,-0.543 0.524,-0.942 1.057,-0.942 0.041,0 0.082,0.002 0.124,0.007 8.213,0.955 13.981,6.732 17.793,12.584 0.102,-0.032 0.206,-0.061 0.317,-0.061 0.022,0 0.045,10e-4 0.068,0.002 31.284,1.956 41.356,46.651 41.455,47.102 0.125,0.575 -0.24,1.142 -0.814,1.266 -0.582,0.125 -1.142,-0.239 -1.268,-0.813 C 38.342,44.907 28.84,2.811 0,0" />
        </g>
        <g transform="translate(326.1441,311.7042)" id="g42">
          <path id="path44" style="fill:#010101;fill-opacity:1;fill-rule:nonzero;stroke:none"
            d="m 0,0 0.357,-1.536 c 1.261,-5.438 4.168,-20.082 3.123,-25.035 -3.839,-0.876 -25.038,-5.411 -42.096,-2.787 l -0.287,0.044 -0.27,-0.107 c -0.34,-0.136 -34.198,-13.561 -43.833,-13.561 -9.634,0 -43.491,13.425 -43.832,13.561 l -0.27,0.107 -0.286,-0.044 c -17.055,-2.625 -38.258,1.911 -42.097,2.787 -1.046,4.953 1.861,19.597 3.123,25.035 l 0.357,1.536 -17.012,-2.647 c -0.488,13.461 19.512,41.755 21.159,44.059 1.725,1.114 19.26,11.937 36.906,4.458 17.195,-7.288 29.071,-29.044 35.306,-64.656 -1.811,-1.064 -3.017,-2.558 -3.31,-4.151 -0.666,-3.626 3.513,-7.08 4.36,-7.795 0.949,-0.801 2.794,-2.333 5.277,-2.691 h 0.634 c 2.484,0.358 4.329,1.89 5.277,2.691 1.026,0.866 5.034,4.17 4.36,7.795 -0.315,1.696 -1.621,3.258 -3.546,4.319 6.242,35.512 18.107,57.212 35.275,64.488 18.488,7.838 36.873,-4.431 37.056,-4.555 0.086,-0.059 0.181,-0.086 0.275,-0.116 2.469,-3.479 21.481,-30.718 21.006,-43.846 z m -23.012,-32.699 c 0.327,-0.317 32.498,-32.356 12.109,-90.795 -2.509,-7.191 -4.876,-13.856 -7.101,-20.025 -24.785,2.493 -41.392,-10.717 -46.629,-15.629 l -0.132,3.726 c -0.02,0.589 -0.566,1.07 -1.102,1.026 -0.589,-0.02 -1.047,-0.513 -1.026,-1.101 l 0.22,-6.207 v -0.003 l 1.776,-50.026 c -14.499,-4.527 -32.264,-0.866 -36.235,0.057 l 2.015,56.757 c 0.021,0.588 -0.439,1.081 -1.027,1.102 -0.59,0.039 -1.081,-0.439 -1.102,-1.027 l -0.132,-3.725 c -5.235,4.914 -21.838,18.123 -46.629,15.628 -2.226,6.171 -4.592,12.833 -7.101,20.024 -19.85,56.898 10.188,88.837 12.02,90.706 5.227,-0.195 10.648,-0.053 15.731,0.704 3.47,-1.372 34.669,-13.606 44.351,-13.606 9.683,0 40.883,12.234 44.352,13.606 4.968,-0.739 10.258,-0.891 15.374,-0.715 0.05,-0.175 0.128,-0.342 0.268,-0.477 m -80.534,-186.926 c -2.958,-3.291 -5.591,-1.365 -5.883,-1.132 l -0.449,0.369 -0.554,-0.178 c -5.822,-1.874 -7.988,-0.998 -8.292,-0.578 l -0.114,0.503 -0.686,0.112 c -2.669,0.436 -4.441,1.521 -5.269,3.225 -1.927,3.967 1.457,10.182 1.491,10.245 l 0.263,0.476 -0.231,0.492 c -0.095,0.203 -8.439,18.136 -23.988,61.081 26.761,2.436 43.477,-14.021 45.777,-16.446 z m -23.955,5.308 c -1.003,0 -2.594,0.005 -4.442,0.01 -7.093,0.021 -18.966,0.053 -22.219,-0.084 -0.92,-0.045 -1.598,0.327 -1.769,0.709 -0.169,0.379 0.001,1.01 0.157,1.342 0.106,0.227 0.223,0.363 0.359,0.521 0.236,0.277 0.595,0.696 0.565,1.376 -0.042,0.972 -0.808,1.454 -1.265,1.741 -0.086,0.055 -0.205,0.129 -0.277,0.183 0.009,0.294 0.336,1.655 4.37,5.843 2.977,-1.253 6.071,-2.235 9.231,-2.891 3.338,-0.691 6.751,-1.042 10.162,-1.042 0.385,0 0.77,0.005 1.156,0.014 0.587,0.013 1.053,0.501 1.039,1.09 -0.013,0.587 -0.492,1.078 -1.089,1.04 -3.63,-0.09 -7.279,0.246 -10.835,0.985 -3.274,0.678 -6.477,1.715 -9.539,3.062 -9.02,4.52 -25.206,15.033 -32.965,34.892 -5.641,14.437 -7.567,34.895 1.533,45.695 1.715,2.037 6.271,7.446 13.73,8.801 2.846,0.519 5.788,0.402 8.742,-0.343 0.037,-0.009 0.074,0.001 0.111,-0.005 0.962,-3.94 2.153,-8.018 3.626,-12.24 19.043,-54.583 30.037,-79.244 31.701,-82.897 -0.603,-1.216 -2.048,-4.481 -2.082,-7.802 m -39.564,348.779 c 19.644,2.191 61.078,-47.114 61.497,-47.617 l 0.518,-0.621 0.737,0.332 c 7.075,3.184 21.166,3.223 21.307,3.223 0.142,0 14.233,-0.039 21.308,-3.223 l 0.736,-0.332 0.518,0.621 c 0.421,0.503 41.871,49.808 61.498,47.617 2.458,-5.162 22.342,-49.918 -4.842,-90.924 -3.696,2.299 -20.671,11.784 -38.349,4.302 -17.806,-7.535 -30.073,-29.614 -36.475,-65.614 -1.194,0.367 -2.521,0.569 -3.94,0.54 -1.874,0.112 -3.602,-0.145 -5.098,-0.652 -6.397,36.066 -18.672,58.183 -36.496,65.726 -17.399,7.361 -34.107,-1.703 -38.156,-4.183 -27.047,40.945 -7.216,85.645 -4.763,90.805 M -2.101,42.214 c 29.581,44.438 5.062,93.223 4.809,93.713 l -0.245,0.477 -0.529,0.087 c -19.629,3.212 -58.37,-41.613 -63.504,-47.676 -7.643,3.058 -20.858,3.095 -21.436,3.095 -0.576,0 -13.793,-0.037 -21.436,-3.095 -5.133,6.063 -43.827,50.899 -63.504,47.676 l -0.528,-0.087 -0.246,-0.477 c -0.253,-0.49 -24.77,-49.275 4.81,-93.713 -3.292,-4.631 -22.893,-32.875 -21.136,-46.228 l 0.142,-1.081 16.118,2.507 c -1.083,-4.959 -4.211,-20.313 -2.578,-25.211 l 0.186,-0.558 0.57,-0.14 c 0.165,-0.041 11.482,-2.785 24.741,-3.581 -2.635,-2.993 -8.483,-10.498 -12.878,-22.456 -4.409,-11.997 -7.919,-30.525 -2.538,-54.56 -2.932,0.618 -5.853,0.675 -8.696,0.161 -8.214,-1.493 -13.129,-7.328 -14.979,-9.525 -11.099,-13.173 -6.409,-36.271 -1.888,-47.844 7.683,-19.665 23.327,-30.445 32.798,-35.409 -4.744,-5.026 -4.847,-6.763 -4.21,-7.871 0.261,-0.452 0.676,-0.713 1.009,-0.922 0.031,-0.02 0.065,-0.042 0.101,-0.065 -0.165,-0.199 -0.37,-0.475 -0.554,-0.866 -0.188,-0.401 -0.757,-1.812 -0.174,-3.116 0.543,-1.214 1.931,-1.973 3.575,-1.973 0.075,0 0.152,0.002 0.229,0.005 3.203,0.136 15.047,0.103 22.122,0.082 2.087,-0.006 3.686,-0.009 4.643,-0.009 0.128,-0.612 0.318,-1.212 0.595,-1.784 1.097,-2.263 3.252,-3.716 6.408,-4.324 0.511,-0.561 1.626,-1.288 3.969,-1.288 1.475,0 3.438,0.288 6.044,1.087 1.808,-1.141 5.358,-1.874 8.614,2.035 l 0.234,0.281 0.234,6.589 c 3.004,-0.692 10.818,-2.264 19.839,-2.264 5.348,0 11.115,0.567 16.551,2.186 l 0.239,-6.725 0.012,-0.364 0.233,-0.28 c 3.259,-3.912 6.809,-3.176 8.615,-2.036 2.607,-0.799 4.57,-1.088 6.044,-1.087 0.323,0 0.618,0.017 0.896,0.042 0.092,0.726 0.193,1.453 0.31,2.186 -1.224,-0.22 -3.44,-0.133 -7.109,1.049 l -0.55,0.169 -0.447,-0.356 c -0.298,-0.236 -2.933,-2.164 -5.889,1.127 l -2.066,58.169 c 2.301,2.426 19.009,18.884 45.779,16.445 -8.946,-24.71 -15.505,-41.131 -19.481,-50.663 1.527,2.275 3.188,4.442 4.968,6.499 5.389,13.338 13.589,34.646 24.373,65.558 1.552,4.449 2.792,8.739 3.778,12.875 -0.027,0.258 0.031,0.505 0.171,0.71 0.374,1.613 0.706,3.199 1.003,4.763 -0.613,0.117 -0.964,0.176 -1.005,0.183 -0.58,0.094 -0.974,0.642 -0.88,1.223 0.095,0.579 0.633,0.972 1.224,0.88 0.042,-0.007 0.403,-0.068 1.039,-0.19 3.616,21.169 0.335,37.647 -3.704,48.638 -4.693,12.767 -11.048,20.468 -13.372,23.01 13.471,0.757 25.068,3.565 25.235,3.606 l 0.57,0.14 0.185,0.558 c 1.633,4.898 -1.494,20.252 -2.577,25.211 l 16.119,-2.507 0.141,1.081 C 20.792,9.339 1.191,37.583 -2.101,42.214" />
        </g>
        <g transform="translate(232.3676,163.8571)" id="g46">
          <path id="path48" style="fill:#010101;fill-opacity:1;fill-rule:nonzero;stroke:none"
            d="m 0,0 c -15.666,1.821 -22.019,24.062 -22.081,24.286 -0.157,0.566 -0.744,0.896 -1.311,0.742 -0.567,-0.158 -0.899,-0.743 -0.742,-1.31 0.124,-0.448 1.578,-5.538 4.773,-11.093 -28.839,2.812 -38.343,44.908 -38.437,45.338 -0.125,0.574 -0.694,0.938 -1.267,0.814 -0.574,-0.125 -0.939,-0.692 -0.814,-1.267 0.098,-0.451 10.171,-45.145 41.456,-47.102 0.022,-10e-4 0.045,-0.002 0.067,-0.002 0.112,0 0.216,0.029 0.317,0.062 3.812,-5.853 9.579,-11.629 17.792,-12.584 0.043,-0.005 0.084,-0.007 0.125,-0.007 0.533,0 0.994,0.4 1.056,0.943 C 1.003,-0.596 0.584,-0.068 0,0" />
        </g>
        <g transform="translate(321.0306,200.3839)" id="g50">
          <path id="path52" style="fill:#010101;fill-opacity:1;fill-rule:nonzero;stroke:none"
            d="M 0,0 C 0.056,0.236 0.116,0.475 0.17,0.71 0.03,0.505 -0.027,0.258 0,0" />
        </g>
        <g transform="translate(283.1731,104.5419)" id="g54">
          <path id="path56" style="fill:#010101;fill-opacity:1;fill-rule:nonzero;stroke:none"
            d="m 0,0 0.262,-0.475 c 0.007,-0.013 0.151,-0.28 0.357,-0.719 0.799,1.912 1.704,3.828 2.742,5.741 1,1.846 2.096,3.624 3.261,5.347 0.896,2.145 1.926,4.649 3.084,7.516 C 7.926,15.353 6.266,13.185 4.738,10.91 1.803,3.875 0.27,0.579 0.23,0.493 Z" />
        </g>
        <g transform="translate(320.3195,207.2629)" id="g58">
          <path id="path60" style="fill:#010101;fill-opacity:1;fill-rule:nonzero;stroke:none"
            d="M 0,0 C -0.095,-0.58 0.3,-1.128 0.88,-1.223 0.921,-1.23 1.271,-1.289 1.884,-1.406 2.018,-0.702 2.144,-0.003 2.262,0.691 1.627,0.812 1.265,0.873 1.223,0.88 0.632,0.973 0.095,0.579 0,0" />
        </g>
        <g transform="translate(280.0283,90.6731)" id="g62">
          <path id="path64" style="fill:#010101;fill-opacity:1;fill-rule:nonzero;stroke:none"
            d="m 0,0 c -0.125,-0.024 -0.242,-0.054 -0.371,-0.075 l -0.586,0.134 -0.174,-0.673 c -0.127,-0.183 -0.505,-0.418 -1.223,-0.547 -0.117,-0.733 -0.219,-1.46 -0.31,-2.186 0.984,0.089 1.701,0.321 2.213,0.595 C -0.322,-1.84 -0.171,-0.923 0,0" />
        </g>
        <g transform="translate(346.3351,145.3112)" id="g66">
          <path id="path68" style="fill:#010101;fill-opacity:1;fill-rule:nonzero;stroke:none"
            d="m 0,0 c -0.113,-0.291 -0.246,-0.56 -0.363,-0.846 0.774,0.021 1.551,0.028 2.328,0.025 0.006,0.016 0.013,0.03 0.019,0.045 C 2.241,-0.119 2.498,0.58 2.753,1.307 1.999,1.318 1.246,1.321 0.495,1.309 0.333,0.868 0.168,0.431 0,0" />
        </g>
        <g transform="translate(278.8973,90.0595)" id="g70">
          <path id="path72" style="fill:#010101;fill-opacity:1;fill-rule:nonzero;stroke:none"
            d="M 0,0 0.174,0.673 0.76,0.539 c 0.129,0.021 0.246,0.05 0.371,0.075 0.77,4.154 1.981,8.403 3.764,12.674 -0.206,0.439 -0.35,0.707 -0.357,0.719 l -0.262,0.475 0.23,0.493 c 0.04,0.087 1.573,3.382 4.508,10.418 C 7.855,23.667 6.764,21.889 5.764,20.045 2.005,13.112 -0.149,6.147 -1.223,-0.547 -0.505,-0.418 -0.126,-0.183 0,0" />
        </g>
        <g transform="translate(346.4307,192.3802)" id="g74">
          <path id="path76" style="fill:#010101;fill-opacity:1;fill-rule:nonzero;stroke:none"
            d="m 0,0 c -1.85,2.197 -6.767,8.032 -14.979,9.523 -3.148,0.57 -6.39,0.445 -9.641,-0.373 -0.262,-0.066 -0.468,-0.23 -0.61,-0.436 -0.054,-0.236 -0.114,-0.474 -0.17,-0.71 0.005,-0.05 -0.006,-0.098 0.007,-0.147 0.144,-0.571 0.724,-0.916 1.293,-0.773 2.953,0.745 5.894,0.86 8.741,0.342 7.456,-1.354 11.853,-6.571 13.73,-8.799 8.828,-10.479 7.279,-30.046 2.028,-44.387 0.751,0.012 1.504,0.009 2.258,-0.002 C 6.891,-33.678 10.469,-12.427 0,0" />
        </g>
        <g transform="translate(348.3003,144.4903)" id="g78">
          <path id="path80" style="fill:#010101;fill-opacity:1;fill-rule:nonzero;stroke:none"
            d="m 0,0 c 3.08,-0.013 6.183,-0.208 9.293,-0.618 0.601,-0.077 1.119,0.334 1.196,0.917 C 10.566,0.882 10.155,1.417 9.572,1.494 6.633,1.881 3.701,2.086 0.788,2.128 0.533,1.401 0.276,0.702 0.019,0.045 0.013,0.03 0.006,0.015 0,0" />
        </g>
        <g transform="translate(402.6845,163.1426)" id="g82">
          <path id="path84" style="fill:#010101;fill-opacity:1;fill-rule:nonzero;stroke:none"
            d="m 0,0 c -23.461,32.855 -72.371,43.337 -80.103,44.811 -0.118,-0.694 -0.244,-1.393 -0.378,-2.097 7.548,-1.437 55.755,-11.745 78.753,-43.959 C 9.125,-16.447 12.879,-34.401 9.43,-54.61 5.375,-78.361 -4.693,-93.861 -21.35,-101.997 c -3.308,-1.616 -6.776,-2.891 -10.349,-3.926 -1.021,12.133 -5.302,34.217 -22.035,54.171 -9.004,10.737 -20.548,19.485 -33.492,25.414 9.298,4.679 19.725,7.361 30.514,7.66 0.117,0.287 0.249,0.556 0.363,0.847 0.168,0.431 0.333,0.868 0.494,1.309 -20.997,-0.327 -40.76,-9.429 -53.95,-24.669 -1.158,-2.866 -2.189,-5.371 -3.084,-7.516 5.961,8.816 13.994,15.981 23.272,21.105 13.268,-5.8 25.102,-14.609 34.25,-25.518 16.548,-19.734 20.64,-41.604 21.578,-53.381 -11.793,-3.064 -24.688,-3.591 -37.275,-4.095 -17.109,-0.683 -33.297,-1.329 -44.682,-8.446 -2.238,4.497 -10.344,22.639 -7.361,43.82 -0.512,-0.274 -1.229,-0.505 -2.214,-0.595 -3.056,-24.124 7.64,-44.182 8.234,-45.27 l 0.562,-1.028 0.97,0.657 c 10.923,7.391 27.27,8.043 44.576,8.734 34.287,1.37 73.149,2.922 82.508,57.756 C 15.079,-34.176 11.199,-15.683 0,0" />
        </g>
      </g>
    </g>
  </g>
</svg>