<svg
  version="1.2"
  xmlns="http://www.w3.org/2000/svg"
  viewBox="0 0 500 500"
  penrose="0"
>
  <penrose>
    <croppedViewBox>
      72.77551836531507 96.13894845116772 227.2842397892416 271.9202578785584
    </croppedViewBox>
  </penrose>
  <g
    transform="rotate(0, 242.76786717690345, 356.00654436585165)translate(235.26786717690345, 348.8465443658516)"
    texContourColor="white"
  >
    <title>`A`.text</title>
    <svg
      style="font-size: 20px"
      xmlns="http://www.w3.org/2000/svg"
      width="15"
      height="14.32"
      role="img"
      focusable="false"
      viewBox="0 -716 750 716"
    >
      <g
        stroke="none"
        fill="#000000"
        stroke-width="0"
        transform="scale(1,-1)"
        fill-opacity="1"
      >
        <g data-mml-node="math">
          <g data-mml-node="mi">
            <path
              data-c="1D434"
              d="M208 74Q208 50 254 46Q272 46 272 35Q272 34 270 22Q267 8 264 4T251 0Q249 0 239 0T205 1T141 2Q70 2 50 0H42Q35 7 35 11Q37 38 48 46H62Q132 49 164 96Q170 102 345 401T523 704Q530 716 547 716H555H572Q578 707 578 706L606 383Q634 60 636 57Q641 46 701 46Q726 46 726 36Q726 34 723 22Q720 7 718 4T704 0Q701 0 690 0T651 1T578 2Q484 2 455 0H443Q437 6 437 9T439 27Q443 40 445 43L449 46H469Q523 49 533 63L521 213H283L249 155Q208 86 208 74ZM516 260Q516 271 504 416T490 562L463 519Q447 492 400 412L310 260L413 259Q516 259 516 260Z"
            />
          </g>
        </g>
      </g>
    </svg>
  </g>
  <g
    transform="rotate(0, 130.35934408339781, 107.91284680014704)translate(122.07934408339781, 101.08284680014704)"
    texContourColor="white"
  >
    <title>`D`.text</title>
    <svg
      style="font-size: 20px"
      xmlns="http://www.w3.org/2000/svg"
      width="16.56"
      height="13.66"
      role="img"
      focusable="false"
      viewBox="0 -683 828 683"
    >
      <g
        stroke="none"
        fill="#000000"
        stroke-width="0"
        transform="scale(1,-1)"
        fill-opacity="1"
      >
        <g data-mml-node="math">
          <g data-mml-node="mi">
            <path
              data-c="1D437"
              d="M287 628Q287 635 230 637Q207 637 200 638T193 647Q193 655 197 667T204 682Q206 683 403 683Q570 682 590 682T630 676Q702 659 752 597T803 431Q803 275 696 151T444 3L430 1L236 0H125H72Q48 0 41 2T33 11Q33 13 36 25Q40 41 44 43T67 46Q94 46 127 49Q141 52 146 61Q149 65 218 339T287 628ZM703 469Q703 507 692 537T666 584T629 613T590 629T555 636Q553 636 541 636T512 636T479 637H436Q392 637 386 627Q384 623 313 339T242 52Q242 48 253 48T330 47Q335 47 349 47T373 46Q499 46 581 128Q617 164 640 212T683 339T703 469Z"
            />
          </g>
        </g>
      </g>
    </svg>
  </g>
  <g style="solid">
    <line
      x1="227.81604943295042"
      y1="336.9945294346526"
      x2="225.0094812108327"
      y2="126.13894850106472"
      stroke="#000000"
      stroke-opacity="1"
      stroke-width="1.75"
    />
    <title>`AB`.icon</title>
  </g>
  <g style="solid">
    <line
      x1="227.81604943295042"
      y1="336.9945294346526"
      x2="147.8276276072425"
      y2="338.0592062798139"
      stroke="#000000"
      stroke-opacity="1"
      stroke-width="1.75"
    />
    <title>`AC`.icon</title>
  </g>
  <g style="solid">
    <line
      x1="227.81604943295042"
      y1="336.9945294346526"
      x2="147.8276276072425"
      y2="338.0592062798139"
      stroke="#000000"
      stroke-opacity="1"
      stroke-width="1.75"
    />
    <title>`ACB`.side1</title>
  </g>
  <g style="solid">
    <line
      x1="147.8276276072425"
      y1="338.0592062798139"
      x2="227.81604943295042"
      y2="336.9945294346526"
      stroke="#000000"
      stroke-opacity="1"
      stroke-width="1.75"
    />
    <title>`CAB`.side1</title>
  </g>
  <g style="solid">
    <line
      x1="227.81604943295042"
      y1="336.9945294346526"
      x2="225.0094812108327"
      y2="126.13894850106472"
      stroke="#000000"
      stroke-opacity="1"
      stroke-width="1.75"
    />
    <title>`CAB`.side2</title>
  </g>
  <circle
    fill="#000000"
    fill-opacity="1"
    cx="227.81604943295042"
    cy="336.9945294346526"
    stroke="#000000"
    stroke-opacity="1"
    stroke-width="0"
    r="4"
  >
    <title>`A`.icon</title>
  </circle>
  <g style="solid">
    <line
      x1="147.8276276072425"
      y1="338.0592062798139"
      x2="225.0094812108327"
      y2="126.13894850106472"
      stroke="#000000"
      stroke-opacity="1"
      stroke-width="1.75"
    />
    <title>`CBD`.side1</title>
  </g>
  <g style="solid">
    <line
      x1="225.0094812108327"
      y1="126.13894850106472"
      x2="145.02194083142496"
      y2="127.20327630170983"
      stroke="#000000"
      stroke-opacity="1"
      stroke-width="1.75"
    />
    <title>`CBD`.side2</title>
  </g>
  <g style="solid">
    <line
      x1="145.02194083142496"
      y1="127.20327630170983"
      x2="225.0094812108327"
      y2="126.13894850106472"
      stroke="#000000"
      stroke-opacity="1"
      stroke-width="1.75"
    />
    <title>`CDB`.side2</title>
  </g>
  <g style="solid">
    <line
      x1="145.02194083142496"
      y1="127.20327630170983"
      x2="225.0094812108327"
      y2="126.13894850106472"
      stroke="#000000"
      stroke-opacity="1"
      stroke-width="1.75"
    />
    <title>`DB`.icon</title>
  </g>
  <g style="solid">
    <line
      x1="225.0094812108327"
      y1="126.13894850106472"
      x2="147.8276276072425"
      y2="338.0592062798139"
      stroke="#000000"
      stroke-opacity="1"
      stroke-width="1.75"
    />
    <title>`BC`.icon</title>
  </g>
  <g style="solid">
    <line
      x1="147.8276276072425"
      y1="338.0592062798139"
      x2="225.0094812108327"
      y2="126.13894850106472"
      stroke="#000000"
      stroke-opacity="1"
      stroke-width="1.75"
    />
    <title>`ACB`.side2</title>
  </g>
  <circle
    fill="#000000"
    fill-opacity="1"
    cx="225.0094812108327"
    cy="126.13894850106472"
    stroke="#000000"
    stroke-opacity="1"
    stroke-width="0"
    r="4"
  >
    <title>`B`.icon</title>
  </circle>
  <g
    transform="rotate(0, 128.52604279393378, 353.01508788377913)translate(120.92604279393379, 345.74508788377915)"
    texContourColor="white"
  >
    <title>`C`.text</title>
    <svg
      style="font-size: 20px"
      xmlns="http://www.w3.org/2000/svg"
      width="15.2"
      height="14.54"
      role="img"
      focusable="false"
      viewBox="0 -705 760 727"
    >
      <g
        stroke="none"
        fill="#000000"
        stroke-width="0"
        transform="scale(1,-1)"
        fill-opacity="1"
      >
        <g data-mml-node="math">
          <g data-mml-node="mi">
            <path
              data-c="1D436"
              d="M50 252Q50 367 117 473T286 641T490 704Q580 704 633 653Q642 643 648 636T656 626L657 623Q660 623 684 649Q691 655 699 663T715 679T725 690L740 705H746Q760 705 760 698Q760 694 728 561Q692 422 692 421Q690 416 687 415T669 413H653Q647 419 647 422Q647 423 648 429T650 449T651 481Q651 552 619 605T510 659Q484 659 454 652T382 628T299 572T226 479Q194 422 175 346T156 222Q156 108 232 58Q280 24 350 24Q441 24 512 92T606 240Q610 253 612 255T628 257Q648 257 648 248Q648 243 647 239Q618 132 523 55T319 -22Q206 -22 128 53T50 252Z"
            />
          </g>
        </g>
      </g>
    </svg>
  </g>
  <g style="solid">
    <line
      x1="147.8276276072425"
      y1="338.0592062798139"
      x2="145.02194083142496"
      y2="127.20327630170983"
      stroke="#000000"
      stroke-opacity="1"
      stroke-width="1.75"
    />
    <title>`CDB`.side1</title>
  </g>
  <g style="solid">
    <line
      x1="147.8276276072425"
      y1="338.0592062798139"
      x2="145.02194083142496"
      y2="127.20327630170983"
      stroke="#000000"
      stroke-opacity="1"
      stroke-width="1.75"
    />
    <title>`CD`.icon</title>
  </g>
  <circle
    fill="#000000"
    fill-opacity="1"
    cx="147.8276276072425"
    cy="338.0592062798139"
    stroke="#000000"
    stroke-opacity="1"
    stroke-width="0"
    r="4"
  >
    <title>`C`.icon</title>
  </circle>
  <circle
    fill="#000000"
    fill-opacity="1"
    cx="145.02194083142496"
    cy="127.20327630170983"
    stroke="#000000"
    stroke-opacity="1"
    stroke-width="0"
    r="4"
  >
    <title>`D`.icon</title>
  </circle>
  <path
    fill="none"
    stroke="#000000"
    stroke-opacity="1"
    stroke-width="2"
    stroke-linecap="butt"
    d="M 187.6887464565415 327.5277548215076 L 187.95493058365142 347.52598089295896"
  >
    <title>`AC`.tick</title>
  </path>
  <path
    fill="none"
    stroke="#000000"
    stroke-opacity="1"
    stroke-width="2"
    stroke-linecap="butt"
    d="M 185.1487609253062 136.67022599816784 L 184.88266111695145 116.67199880460672"
  >
    <title>`DB`.tick</title>
  </path>
  <g
    transform="rotate(0, 244.0814342955352, 111.29866602677919)translate(236.49143429553519, 104.46866602677919)"
    texContourColor="white"
  >
    <title>`B`.text</title>
    <svg
      style="font-size: 20px"
      xmlns="http://www.w3.org/2000/svg"
      width="15.18"
      height="13.66"
      role="img"
      focusable="false"
      viewBox="0 -683 759 683"
    >
      <g
        stroke="none"
        fill="#000000"
        stroke-width="0"
        transform="scale(1,-1)"
        fill-opacity="1"
      >
        <g data-mml-node="math">
          <g data-mml-node="mi">
            <path
              data-c="1D435"
              d="M231 637Q204 637 199 638T194 649Q194 676 205 682Q206 683 335 683Q594 683 608 681Q671 671 713 636T756 544Q756 480 698 429T565 360L555 357Q619 348 660 311T702 219Q702 146 630 78T453 1Q446 0 242 0Q42 0 39 2Q35 5 35 10Q35 17 37 24Q42 43 47 45Q51 46 62 46H68Q95 46 128 49Q142 52 147 61Q150 65 219 339T288 628Q288 635 231 637ZM649 544Q649 574 634 600T585 634Q578 636 493 637Q473 637 451 637T416 636H403Q388 635 384 626Q382 622 352 506Q352 503 351 500L320 374H401Q482 374 494 376Q554 386 601 434T649 544ZM595 229Q595 273 572 302T512 336Q506 337 429 337Q311 337 310 336Q310 334 293 263T258 122L240 52Q240 48 252 48T333 46Q422 46 429 47Q491 54 543 105T595 229Z"
            />
          </g>
        </g>
      </g>
    </svg>
  </g>
  <circle
    fill="none"
    cx="186.41763825993587"
    cy="232.09692595902254"
    stroke="#000000"
    stroke-opacity="1"
    stroke-width="1.75"
    r="112.7671198946208"
  >
    <title>`c`.icon</title>
  </circle>
  <path
    fill="none"
    stroke="#000000"
    stroke-opacity="1"
    stroke-width="2"
    stroke-linecap="butt"
    d="M 177.82496671441953 337.65993008914904 A 30 30 0 0 0 158.09400861246735 309.8705322910241"
  >
    <title>`ACB`.mark</title>
  </path>
  <path
    fill="none"
    stroke="#000000"
    stroke-opacity="1"
    stroke-width="2"
    stroke-linecap="butt"
    d="M 145.15499083843446 137.2023906730592 L 155.15410520978384 137.0693406660497 L 155.02105442820553 127.07022639753248"
  >
    <title>`CDB`.mark</title>
  </path>
  <path
    fill="none"
    stroke="#000000"
    stroke-opacity="1"
    stroke-width="2"
    stroke-linecap="butt"
    d="M 212.46010349583895 245.89584187175728 L 226.41276532189156 231.56673896785864 L 240.7418682257902 245.51940079391127"
  >
    <title>`AB`.tick1</title>
  </path>
  <path
    fill="none"
    stroke="#000000"
    stroke-opacity="1"
    stroke-width="2"
    stroke-linecap="butt"
    d="M 132.4720621880384 246.96028557083056 L 146.42478421933373 232.6312412907619 L 160.7538284994024 246.58396332205723"
  >
    <title>`CD`.tick1</title>
  </path>
  <path
    fill="none"
    stroke="#000000"
    stroke-opacity="1"
    stroke-width="2"
    stroke-linecap="butt"
    d="M 217.81693639722474 337.12762149820753 L 217.68384433366978 327.1285084624819 L 227.68295741351938 326.99541562241706"
  >
    <title>`CAB`.mark</title>
  </path>
  <path
    fill="none"
    stroke="#000000"
    stroke-opacity="1"
    stroke-width="2"
    stroke-linecap="butt"
    d="M 214.74310020560785 154.32762248985452 A 30 30 0 0 1 195.012140420491 126.53809821359677"
  >
    <title>`CBD`.mark</title>
  </path>
  <circle
    fill="#000000"
    fill-opacity="1"
    cx="186.41763825993587"
    cy="232.09692595902254"
    stroke="#000000"
    stroke-opacity="1"
    stroke-width="0"
    r="4"
  >
    <title>`M`.icon</title>
  </circle>
</svg>
