<svg version="1.2" xmlns="http://www.w3.org/2000/svg" viewBox="0 0 240 200">
  <g>
    <filter id="9:1:pathOutline-shadow" x="0" y="0" width="200%" height="200%">
      <feOffset result="offOut" in="SourceAlpha" dx="5" dy="5"></feOffset>
      <feGaussianBlur
        result="blurOut"
        in="offOut"
        stdDeviation="4"
      ></feGaussianBlur>
      <feBlend in="SourceGraphic" in2="blurOut" mode="normal"></feBlend>
      <feComponentTransfer>
        <feFuncA type="linear" slope="0.5"></feFuncA>
      </feComponentTransfer>
      <feMerge>
        <feMergeNode></feMergeNode>
        <feMergeNode in="SourceGraphic"></feMergeNode>
      </feMerge>
    </filter>
    <path
      stroke="#ffffff"
      fill="none"
      stroke-width="3"
      stroke-opacity="1"
      d="M 185.7187118869216 159.49336307846943 Q 172.75472373445888 130.3032001281081 171.59487312453254 98.95379266243988"
    ></path>
    <title>9:1:pathOutline</title>
  </g>
  <g>
    <marker
      id="9:1:orientedPath-endArrowId"
      markerUnits="strokeWidth"
      markerWidth="7.46"
      markerHeight="6.09"
      viewBox="0 0 9.95 8.12"
      refX="2.36"
      refY="4.06"
      orient="auto-start-reverse"
    >
      <path
        d="M9.95 4.06 0 8.12 2.36 4.06 0 0 9.95 4.06z"
        fill="#4958f5"
        fill-opacity="1"
      ></path>
    </marker>
    <filter id="9:1:orientedPath-shadow" x="0" y="0" width="200%" height="200%">
      <feOffset result="offOut" in="SourceAlpha" dx="5" dy="5"></feOffset>
      <feGaussianBlur
        result="blurOut"
        in="offOut"
        stdDeviation="4"
      ></feGaussianBlur>
      <feBlend in="SourceGraphic" in2="blurOut" mode="normal"></feBlend>
      <feComponentTransfer>
        <feFuncA type="linear" slope="0.5"></feFuncA>
      </feComponentTransfer>
      <feMerge>
        <feMergeNode></feMergeNode>
        <feMergeNode in="SourceGraphic"></feMergeNode>
      </feMerge>
    </filter>
    <path
      stroke="#4958f5"
      fill="none"
      stroke-width="1"
      stroke-opacity="1"
      d="M 185.7187118869216 159.49336307846943 Q 172.75472373445888 130.3032001281081 171.59487312453254 98.95379266243988"
      marker-end="url(#9:1:orientedPath-endArrowId)"
    ></path>
    <title>9:1:orientedPath</title>
  </g>
  <g>
    <filter id="7:1:pathOutline-shadow" x="0" y="0" width="200%" height="200%">
      <feOffset result="offOut" in="SourceAlpha" dx="5" dy="5"></feOffset>
      <feGaussianBlur
        result="blurOut"
        in="offOut"
        stdDeviation="4"
      ></feGaussianBlur>
      <feBlend in="SourceGraphic" in2="blurOut" mode="normal"></feBlend>
      <feComponentTransfer>
        <feFuncA type="linear" slope="0.5"></feFuncA>
      </feComponentTransfer>
      <feMerge>
        <feMergeNode></feMergeNode>
        <feMergeNode in="SourceGraphic"></feMergeNode>
      </feMerge>
    </filter>
    <path
      stroke="#ffffff"
      fill="none"
      stroke-width="3"
      stroke-opacity="1"
      d="M 155.75896665113345 128.88333450635955 Q 172.60139352375978 135.36900121744168 180.86793439731818 150.24836671576833"
    ></path>
    <title>7:1:pathOutline</title>
  </g>
  <g>
    <marker
      id="7:1:orientedPath-endArrowId"
      markerUnits="strokeWidth"
      markerWidth="7.46"
      markerHeight="6.09"
      viewBox="0 0 9.95 8.12"
      refX="2.36"
      refY="4.06"
      orient="auto-start-reverse"
    >
      <path
        d="M9.95 4.06 0 8.12 2.36 4.06 0 0 9.95 4.06z"
        fill="#f79cf7"
        fill-opacity="1"
      ></path>
    </marker>
    <filter id="7:1:orientedPath-shadow" x="0" y="0" width="200%" height="200%">
      <feOffset result="offOut" in="SourceAlpha" dx="5" dy="5"></feOffset>
      <feGaussianBlur
        result="blurOut"
        in="offOut"
        stdDeviation="4"
      ></feGaussianBlur>
      <feBlend in="SourceGraphic" in2="blurOut" mode="normal"></feBlend>
      <feComponentTransfer>
        <feFuncA type="linear" slope="0.5"></feFuncA>
      </feComponentTransfer>
      <feMerge>
        <feMergeNode></feMergeNode>
        <feMergeNode in="SourceGraphic"></feMergeNode>
      </feMerge>
    </filter>
    <path
      stroke="#f79cf7"
      fill="none"
      stroke-width="1"
      stroke-opacity="1"
      d="M 155.75896665113345 128.88333450635955 Q 172.60139352375978 135.36900121744168 180.86793439731818 150.24836671576833"
      marker-end="url(#7:1:orientedPath-endArrowId)"
    ></path>
    <title>7:1:orientedPath</title>
  </g>
  <g>
    <filter id="7:9:pathOutline-shadow" x="0" y="0" width="200%" height="200%">
      <feOffset result="offOut" in="SourceAlpha" dx="5" dy="5"></feOffset>
      <feGaussianBlur
        result="blurOut"
        in="offOut"
        stdDeviation="4"
      ></feGaussianBlur>
      <feBlend in="SourceGraphic" in2="blurOut" mode="normal"></feBlend>
      <feComponentTransfer>
        <feFuncA type="linear" slope="0.5"></feFuncA>
      </feComponentTransfer>
      <feMerge>
        <feMergeNode></feMergeNode>
        <feMergeNode in="SourceGraphic"></feMergeNode>
      </feMerge>
    </filter>
    <path
      stroke="#ffffff"
      fill="none"
      stroke-width="3"
      stroke-opacity="1"
      d="M 83.89218274205254 113.28993124494016 Q 101.33380216263379 120.32179157628471 110.22205051283927 135.77029276562354"
    ></path>
    <title>7:9:pathOutline</title>
  </g>
  <g>
    <marker
      id="7:9:orientedPath-endArrowId"
      markerUnits="strokeWidth"
      markerWidth="7.46"
      markerHeight="6.09"
      viewBox="0 0 9.95 8.12"
      refX="2.36"
      refY="4.06"
      orient="auto-start-reverse"
    >
      <path
        d="M9.95 4.06 0 8.12 2.36 4.06 0 0 9.95 4.06z"
        fill="#4958f5"
        fill-opacity="1"
      ></path>
    </marker>
    <filter id="7:9:orientedPath-shadow" x="0" y="0" width="200%" height="200%">
      <feOffset result="offOut" in="SourceAlpha" dx="5" dy="5"></feOffset>
      <feGaussianBlur
        result="blurOut"
        in="offOut"
        stdDeviation="4"
      ></feGaussianBlur>
      <feBlend in="SourceGraphic" in2="blurOut" mode="normal"></feBlend>
      <feComponentTransfer>
        <feFuncA type="linear" slope="0.5"></feFuncA>
      </feComponentTransfer>
      <feMerge>
        <feMergeNode></feMergeNode>
        <feMergeNode in="SourceGraphic"></feMergeNode>
      </feMerge>
    </filter>
    <path
      stroke="#4958f5"
      fill="none"
      stroke-width="1"
      stroke-opacity="1"
      d="M 83.89218274205254 113.28993124494016 Q 101.33380216263379 120.32179157628471 110.22205051283927 135.77029276562354"
      marker-end="url(#7:9:orientedPath-endArrowId)"
    ></path>
    <title>7:9:orientedPath</title>
  </g>
  <g>
    <filter id="7:2:pathOutline-shadow" x="0" y="0" width="200%" height="200%">
      <feOffset result="offOut" in="SourceAlpha" dx="5" dy="5"></feOffset>
      <feGaussianBlur
        result="blurOut"
        in="offOut"
        stdDeviation="4"
      ></feGaussianBlur>
      <feBlend in="SourceGraphic" in2="blurOut" mode="normal"></feBlend>
      <feComponentTransfer>
        <feFuncA type="linear" slope="0.5"></feFuncA>
      </feComponentTransfer>
      <feMerge>
        <feMergeNode></feMergeNode>
        <feMergeNode in="SourceGraphic"></feMergeNode>
      </feMerge>
    </filter>
    <path
      stroke="#ffffff"
      fill="none"
      stroke-width="3"
      stroke-opacity="1"
      d="M 172.74653708074425 88.57720024816616 Q 135.14618295163908 106.81952252325812 94.33036215152634 113.50066950828378"
    ></path>
    <title>7:2:pathOutline</title>
  </g>
  <g>
    <marker
      id="7:2:orientedPath-endArrowId"
      markerUnits="strokeWidth"
      markerWidth="7.46"
      markerHeight="6.09"
      viewBox="0 0 9.95 8.12"
      refX="2.36"
      refY="4.06"
      orient="auto-start-reverse"
    >
      <path
        d="M9.95 4.06 0 8.12 2.36 4.06 0 0 9.95 4.06z"
        fill="#f79cf7"
        fill-opacity="1"
      ></path>
    </marker>
    <filter id="7:2:orientedPath-shadow" x="0" y="0" width="200%" height="200%">
      <feOffset result="offOut" in="SourceAlpha" dx="5" dy="5"></feOffset>
      <feGaussianBlur
        result="blurOut"
        in="offOut"
        stdDeviation="4"
      ></feGaussianBlur>
      <feBlend in="SourceGraphic" in2="blurOut" mode="normal"></feBlend>
      <feComponentTransfer>
        <feFuncA type="linear" slope="0.5"></feFuncA>
      </feComponentTransfer>
      <feMerge>
        <feMergeNode></feMergeNode>
        <feMergeNode in="SourceGraphic"></feMergeNode>
      </feMerge>
    </filter>
    <path
      stroke="#f79cf7"
      fill="none"
      stroke-width="1"
      stroke-opacity="1"
      d="M 172.74653708074425 88.57720024816616 Q 135.14618295163908 106.81952252325812 94.33036215152634 113.50066950828378"
      marker-end="url(#7:2:orientedPath-endArrowId)"
    ></path>
    <title>7:2:orientedPath</title>
  </g>
  <g>
    <filter id="8:1:pathOutline-shadow" x="0" y="0" width="200%" height="200%">
      <feOffset result="offOut" in="SourceAlpha" dx="5" dy="5"></feOffset>
      <feGaussianBlur
        result="blurOut"
        in="offOut"
        stdDeviation="4"
      ></feGaussianBlur>
      <feBlend in="SourceGraphic" in2="blurOut" mode="normal"></feBlend>
      <feComponentTransfer>
        <feFuncA type="linear" slope="0.5"></feFuncA>
      </feComponentTransfer>
      <feMerge>
        <feMergeNode></feMergeNode>
        <feMergeNode in="SourceGraphic"></feMergeNode>
      </feMerge>
    </filter>
    <path
      stroke="#ffffff"
      fill="none"
      stroke-width="3"
      stroke-opacity="1"
      d="M 128.08442000671928 100.60855655545302 Q 158.7640864165395 121.23160510701348 180.86789898178642 150.24838529810813"
    ></path>
    <title>8:1:pathOutline</title>
  </g>
  <g>
    <marker
      id="8:1:orientedPath-endArrowId"
      markerUnits="strokeWidth"
      markerWidth="7.46"
      markerHeight="6.09"
      viewBox="0 0 9.95 8.12"
      refX="2.36"
      refY="4.06"
      orient="auto-start-reverse"
    >
      <path
        d="M9.95 4.06 0 8.12 2.36 4.06 0 0 9.95 4.06z"
        fill="#4958f5"
        fill-opacity="1"
      ></path>
    </marker>
    <filter id="8:1:orientedPath-shadow" x="0" y="0" width="200%" height="200%">
      <feOffset result="offOut" in="SourceAlpha" dx="5" dy="5"></feOffset>
      <feGaussianBlur
        result="blurOut"
        in="offOut"
        stdDeviation="4"
      ></feGaussianBlur>
      <feBlend in="SourceGraphic" in2="blurOut" mode="normal"></feBlend>
      <feComponentTransfer>
        <feFuncA type="linear" slope="0.5"></feFuncA>
      </feComponentTransfer>
      <feMerge>
        <feMergeNode></feMergeNode>
        <feMergeNode in="SourceGraphic"></feMergeNode>
      </feMerge>
    </filter>
    <path
      stroke="#4958f5"
      fill="none"
      stroke-width="1"
      stroke-opacity="1"
      d="M 128.08442000671928 100.60855655545302 Q 158.7640864165395 121.23160510701348 180.86789898178642 150.24838529810813"
      marker-end="url(#8:1:orientedPath-endArrowId)"
    ></path>
    <title>8:1:orientedPath</title>
  </g>
  <g>
    <filter id="9:0:pathOutline-shadow" x="0" y="0" width="200%" height="200%">
      <feOffset result="offOut" in="SourceAlpha" dx="5" dy="5"></feOffset>
      <feGaussianBlur
        result="blurOut"
        in="offOut"
        stdDeviation="4"
      ></feGaussianBlur>
      <feBlend in="SourceGraphic" in2="blurOut" mode="normal"></feBlend>
      <feComponentTransfer>
        <feFuncA type="linear" slope="0.5"></feFuncA>
      </feComponentTransfer>
      <feMerge>
        <feMergeNode></feMergeNode>
        <feMergeNode in="SourceGraphic"></feMergeNode>
      </feMerge>
    </filter>
    <path
      stroke="#ffffff"
      fill="none"
      stroke-width="3"
      stroke-opacity="1"
      d="M 141.7110101431951 56.69858154848028 Q 159.11481754259066 63.823536793128234 167.9204070950005 79.31931337476436"
    ></path>
    <title>9:0:pathOutline</title>
  </g>
  <g>
    <marker
      id="9:0:orientedPath-endArrowId"
      markerUnits="strokeWidth"
      markerWidth="7.46"
      markerHeight="6.09"
      viewBox="0 0 9.95 8.12"
      refX="2.36"
      refY="4.06"
      orient="auto-start-reverse"
    >
      <path
        d="M9.95 4.06 0 8.12 2.36 4.06 0 0 9.95 4.06z"
        fill="#f79cf7"
        fill-opacity="1"
      ></path>
    </marker>
    <filter id="9:0:orientedPath-shadow" x="0" y="0" width="200%" height="200%">
      <feOffset result="offOut" in="SourceAlpha" dx="5" dy="5"></feOffset>
      <feGaussianBlur
        result="blurOut"
        in="offOut"
        stdDeviation="4"
      ></feGaussianBlur>
      <feBlend in="SourceGraphic" in2="blurOut" mode="normal"></feBlend>
      <feComponentTransfer>
        <feFuncA type="linear" slope="0.5"></feFuncA>
      </feComponentTransfer>
      <feMerge>
        <feMergeNode></feMergeNode>
        <feMergeNode in="SourceGraphic"></feMergeNode>
      </feMerge>
    </filter>
    <path
      stroke="#f79cf7"
      fill="none"
      stroke-width="1"
      stroke-opacity="1"
      d="M 141.7110101431951 56.69858154848028 Q 159.11481754259066 63.823536793128234 167.9204070950005 79.31931337476436"
      marker-end="url(#9:0:orientedPath-endArrowId)"
    ></path>
    <title>9:0:orientedPath</title>
  </g>
  <g>
    <filter id="7:0:pathOutline-shadow" x="0" y="0" width="200%" height="200%">
      <feOffset result="offOut" in="SourceAlpha" dx="5" dy="5"></feOffset>
      <feGaussianBlur
        result="blurOut"
        in="offOut"
        stdDeviation="4"
      ></feGaussianBlur>
      <feBlend in="SourceGraphic" in2="blurOut" mode="normal"></feBlend>
      <feComponentTransfer>
        <feFuncA type="linear" slope="0.5"></feFuncA>
      </feComponentTransfer>
      <feMerge>
        <feMergeNode></feMergeNode>
        <feMergeNode in="SourceGraphic"></feMergeNode>
      </feMerge>
    </filter>
    <path
      stroke="#ffffff"
      fill="none"
      stroke-width="3"
      stroke-opacity="1"
      d="M 185.7187118869216 159.49336307846943 Q 153.79854097686928 160.59977079532715 124.29045273643604 149.95110057986457"
    ></path>
    <title>7:0:pathOutline</title>
  </g>
  <g>
    <marker
      id="7:0:orientedPath-endArrowId"
      markerUnits="strokeWidth"
      markerWidth="7.46"
      markerHeight="6.09"
      viewBox="0 0 9.95 8.12"
      refX="2.36"
      refY="4.06"
      orient="auto-start-reverse"
    >
      <path
        d="M9.95 4.06 0 8.12 2.36 4.06 0 0 9.95 4.06z"
        fill="#f79cf7"
        fill-opacity="1"
      ></path>
    </marker>
    <filter id="7:0:orientedPath-shadow" x="0" y="0" width="200%" height="200%">
      <feOffset result="offOut" in="SourceAlpha" dx="5" dy="5"></feOffset>
      <feGaussianBlur
        result="blurOut"
        in="offOut"
        stdDeviation="4"
      ></feGaussianBlur>
      <feBlend in="SourceGraphic" in2="blurOut" mode="normal"></feBlend>
      <feComponentTransfer>
        <feFuncA type="linear" slope="0.5"></feFuncA>
      </feComponentTransfer>
      <feMerge>
        <feMergeNode></feMergeNode>
        <feMergeNode in="SourceGraphic"></feMergeNode>
      </feMerge>
    </filter>
    <path
      stroke="#f79cf7"
      fill="none"
      stroke-width="1"
      stroke-opacity="1"
      d="M 185.7187118869216 159.49336307846943 Q 153.79854097686928 160.59977079532715 124.29045273643604 149.95110057986457"
      marker-end="url(#7:0:orientedPath-endArrowId)"
    ></path>
    <title>7:0:orientedPath</title>
  </g>
  <g>
    <filter id="7:4:pathOutline-shadow" x="0" y="0" width="200%" height="200%">
      <feOffset result="offOut" in="SourceAlpha" dx="5" dy="5"></feOffset>
      <feGaussianBlur
        result="blurOut"
        in="offOut"
        stdDeviation="4"
      ></feGaussianBlur>
      <feBlend in="SourceGraphic" in2="blurOut" mode="normal"></feBlend>
      <feComponentTransfer>
        <feFuncA type="linear" slope="0.5"></feFuncA>
      </feComponentTransfer>
      <feMerge>
        <feMergeNode></feMergeNode>
        <feMergeNode in="SourceGraphic"></feMergeNode>
      </feMerge>
    </filter>
    <path
      stroke="#ffffff"
      fill="none"
      stroke-width="3"
      stroke-opacity="1"
      d="M 97.06530461762277 68.91664646011095 Q 128.27462124066423 90.08062841070546 150.9081172001052 119.63837590161398"
    ></path>
    <title>7:4:pathOutline</title>
  </g>
  <g>
    <marker
      id="7:4:orientedPath-endArrowId"
      markerUnits="strokeWidth"
      markerWidth="7.46"
      markerHeight="6.09"
      viewBox="0 0 9.95 8.12"
      refX="2.36"
      refY="4.06"
      orient="auto-start-reverse"
    >
      <path
        d="M9.95 4.06 0 8.12 2.36 4.06 0 0 9.95 4.06z"
        fill="#f79cf7"
        fill-opacity="1"
      ></path>
    </marker>
    <filter id="7:4:orientedPath-shadow" x="0" y="0" width="200%" height="200%">
      <feOffset result="offOut" in="SourceAlpha" dx="5" dy="5"></feOffset>
      <feGaussianBlur
        result="blurOut"
        in="offOut"
        stdDeviation="4"
      ></feGaussianBlur>
      <feBlend in="SourceGraphic" in2="blurOut" mode="normal"></feBlend>
      <feComponentTransfer>
        <feFuncA type="linear" slope="0.5"></feFuncA>
      </feComponentTransfer>
      <feMerge>
        <feMergeNode></feMergeNode>
        <feMergeNode in="SourceGraphic"></feMergeNode>
      </feMerge>
    </filter>
    <path
      stroke="#f79cf7"
      fill="none"
      stroke-width="1"
      stroke-opacity="1"
      d="M 97.06530461762277 68.91664646011095 Q 128.27462124066423 90.08062841070546 150.9081172001052 119.63837590161398"
      marker-end="url(#7:4:orientedPath-endArrowId)"
    ></path>
    <title>7:4:orientedPath</title>
  </g>
  <g>
    <filter id="7:7:pathOutline-shadow" x="0" y="0" width="200%" height="200%">
      <feOffset result="offOut" in="SourceAlpha" dx="5" dy="5"></feOffset>
      <feGaussianBlur
        result="blurOut"
        in="offOut"
        stdDeviation="4"
      ></feGaussianBlur>
      <feBlend in="SourceGraphic" in2="blurOut" mode="normal"></feBlend>
      <feComponentTransfer>
        <feFuncA type="linear" slope="0.5"></feFuncA>
      </feComponentTransfer>
      <feMerge>
        <feMergeNode></feMergeNode>
        <feMergeNode in="SourceGraphic"></feMergeNode>
      </feMerge>
    </filter>
    <path
      stroke="#ffffff"
      fill="none"
      stroke-width="3"
      stroke-opacity="1"
      d="M 155.75896665113345 128.88333450635955 Q 123.12155775275934 129.4762988817233 93.02865944280906 118.3421380396521"
    ></path>
    <title>7:7:pathOutline</title>
  </g>
  <g>
    <marker
      id="7:7:orientedPath-endArrowId"
      markerUnits="strokeWidth"
      markerWidth="7.46"
      markerHeight="6.09"
      viewBox="0 0 9.95 8.12"
      refX="2.36"
      refY="4.06"
      orient="auto-start-reverse"
    >
      <path
        d="M9.95 4.06 0 8.12 2.36 4.06 0 0 9.95 4.06z"
        fill="#4958f5"
        fill-opacity="1"
      ></path>
    </marker>
    <filter id="7:7:orientedPath-shadow" x="0" y="0" width="200%" height="200%">
      <feOffset result="offOut" in="SourceAlpha" dx="5" dy="5"></feOffset>
      <feGaussianBlur
        result="blurOut"
        in="offOut"
        stdDeviation="4"
      ></feGaussianBlur>
      <feBlend in="SourceGraphic" in2="blurOut" mode="normal"></feBlend>
      <feComponentTransfer>
        <feFuncA type="linear" slope="0.5"></feFuncA>
      </feComponentTransfer>
      <feMerge>
        <feMergeNode></feMergeNode>
        <feMergeNode in="SourceGraphic"></feMergeNode>
      </feMerge>
    </filter>
    <path
      stroke="#4958f5"
      fill="none"
      stroke-width="1"
      stroke-opacity="1"
      d="M 155.75896665113345 128.88333450635955 Q 123.12155775275934 129.4762988817233 93.02865944280906 118.3421380396521"
      marker-end="url(#7:7:orientedPath-endArrowId)"
    ></path>
    <title>7:7:orientedPath</title>
  </g>
  <g>
    <filter id="7:10:pathOutline-shadow" x="0" y="0" width="200%" height="200%">
      <feOffset result="offOut" in="SourceAlpha" dx="5" dy="5"></feOffset>
      <feGaussianBlur
        result="blurOut"
        in="offOut"
        stdDeviation="4"
      ></feGaussianBlur>
      <feBlend in="SourceGraphic" in2="blurOut" mode="normal"></feBlend>
      <feComponentTransfer>
        <feFuncA type="linear" slope="0.5"></feFuncA>
      </feComponentTransfer>
      <feMerge>
        <feMergeNode></feMergeNode>
        <feMergeNode in="SourceGraphic"></feMergeNode>
      </feMerge>
    </filter>
    <path
      stroke="#ffffff"
      fill="none"
      stroke-width="3"
      stroke-opacity="1"
      d="M 97.06530461762277 68.91664646011095 Q 114.4373494455726 75.94323975775077 123.23357215650071 91.3635971107594"
    ></path>
    <title>7:10:pathOutline</title>
  </g>
  <g>
    <marker
      id="7:10:orientedPath-endArrowId"
      markerUnits="strokeWidth"
      markerWidth="7.46"
      markerHeight="6.09"
      viewBox="0 0 9.95 8.12"
      refX="2.36"
      refY="4.06"
      orient="auto-start-reverse"
    >
      <path
        d="M9.95 4.06 0 8.12 2.36 4.06 0 0 9.95 4.06z"
        fill="#4958f5"
        fill-opacity="1"
      ></path>
    </marker>
    <filter
      id="7:10:orientedPath-shadow"
      x="0"
      y="0"
      width="200%"
      height="200%"
    >
      <feOffset result="offOut" in="SourceAlpha" dx="5" dy="5"></feOffset>
      <feGaussianBlur
        result="blurOut"
        in="offOut"
        stdDeviation="4"
      ></feGaussianBlur>
      <feBlend in="SourceGraphic" in2="blurOut" mode="normal"></feBlend>
      <feComponentTransfer>
        <feFuncA type="linear" slope="0.5"></feFuncA>
      </feComponentTransfer>
      <feMerge>
        <feMergeNode></feMergeNode>
        <feMergeNode in="SourceGraphic"></feMergeNode>
      </feMerge>
    </filter>
    <path
      stroke="#4958f5"
      fill="none"
      stroke-width="1"
      stroke-opacity="1"
      d="M 97.06530461762277 68.91664646011095 Q 114.4373494455726 75.94323975775077 123.23357215650071 91.3635971107594"
      marker-end="url(#7:10:orientedPath-endArrowId)"
    ></path>
    <title>7:10:orientedPath</title>
  </g>
  <g>
    <filter id="7:8:pathOutline-shadow" x="0" y="0" width="200%" height="200%">
      <feOffset result="offOut" in="SourceAlpha" dx="5" dy="5"></feOffset>
      <feGaussianBlur
        result="blurOut"
        in="offOut"
        stdDeviation="4"
      ></feGaussianBlur>
      <feBlend in="SourceGraphic" in2="blurOut" mode="normal"></feBlend>
      <feComponentTransfer>
        <feFuncA type="linear" slope="0.5"></feFuncA>
      </feComponentTransfer>
      <feMerge>
        <feMergeNode></feMergeNode>
        <feMergeNode in="SourceGraphic"></feMergeNode>
      </feMerge>
    </filter>
    <path
      stroke="#ffffff"
      fill="none"
      stroke-width="3"
      stroke-opacity="1"
      d="M 172.74653708074425 88.57720024816616 Q 137.85952581597667 87.26315595430484 105.9897392773456 74.33462265093513"
    ></path>
    <title>7:8:pathOutline</title>
  </g>
  <g>
    <marker
      id="7:8:orientedPath-endArrowId"
      markerUnits="strokeWidth"
      markerWidth="7.46"
      markerHeight="6.09"
      viewBox="0 0 9.95 8.12"
      refX="2.36"
      refY="4.06"
      orient="auto-start-reverse"
    >
      <path
        d="M9.95 4.06 0 8.12 2.36 4.06 0 0 9.95 4.06z"
        fill="#4958f5"
        fill-opacity="1"
      ></path>
    </marker>
    <filter id="7:8:orientedPath-shadow" x="0" y="0" width="200%" height="200%">
      <feOffset result="offOut" in="SourceAlpha" dx="5" dy="5"></feOffset>
      <feGaussianBlur
        result="blurOut"
        in="offOut"
        stdDeviation="4"
      ></feGaussianBlur>
      <feBlend in="SourceGraphic" in2="blurOut" mode="normal"></feBlend>
      <feComponentTransfer>
        <feFuncA type="linear" slope="0.5"></feFuncA>
      </feComponentTransfer>
      <feMerge>
        <feMergeNode></feMergeNode>
        <feMergeNode in="SourceGraphic"></feMergeNode>
      </feMerge>
    </filter>
    <path
      stroke="#4958f5"
      fill="none"
      stroke-width="1"
      stroke-opacity="1"
      d="M 172.74653708074425 88.57720024816616 Q 137.85952581597667 87.26315595430484 105.9897392773456 74.33462265093513"
      marker-end="url(#7:8:orientedPath-endArrowId)"
    ></path>
    <title>7:8:orientedPath</title>
  </g>
  <g>
    <filter id="7:5:pathOutline-shadow" x="0" y="0" width="200%" height="200%">
      <feOffset result="offOut" in="SourceAlpha" dx="5" dy="5"></feOffset>
      <feGaussianBlur
        result="blurOut"
        in="offOut"
        stdDeviation="4"
      ></feGaussianBlur>
      <feBlend in="SourceGraphic" in2="blurOut" mode="normal"></feBlend>
      <feComponentTransfer>
        <feFuncA type="linear" slope="0.5"></feFuncA>
      </feComponentTransfer>
      <feMerge>
        <feMergeNode></feMergeNode>
        <feMergeNode in="SourceGraphic"></feMergeNode>
      </feMerge>
    </filter>
    <path
      stroke="#ffffff"
      fill="none"
      stroke-width="3"
      stroke-opacity="1"
      d="M 115.09757512690726 145.00226220543527 Q 99.93665383525143 113.55427082448256 96.45228310154994 79.33894009543096"
    ></path>
    <title>7:5:pathOutline</title>
  </g>
  <g>
    <marker
      id="7:5:orientedPath-endArrowId"
      markerUnits="strokeWidth"
      markerWidth="7.46"
      markerHeight="6.09"
      viewBox="0 0 9.95 8.12"
      refX="2.36"
      refY="4.06"
      orient="auto-start-reverse"
    >
      <path
        d="M9.95 4.06 0 8.12 2.36 4.06 0 0 9.95 4.06z"
        fill="#f79cf7"
        fill-opacity="1"
      ></path>
    </marker>
    <filter id="7:5:orientedPath-shadow" x="0" y="0" width="200%" height="200%">
      <feOffset result="offOut" in="SourceAlpha" dx="5" dy="5"></feOffset>
      <feGaussianBlur
        result="blurOut"
        in="offOut"
        stdDeviation="4"
      ></feGaussianBlur>
      <feBlend in="SourceGraphic" in2="blurOut" mode="normal"></feBlend>
      <feComponentTransfer>
        <feFuncA type="linear" slope="0.5"></feFuncA>
      </feComponentTransfer>
      <feMerge>
        <feMergeNode></feMergeNode>
        <feMergeNode in="SourceGraphic"></feMergeNode>
      </feMerge>
    </filter>
    <path
      stroke="#f79cf7"
      fill="none"
      stroke-width="1"
      stroke-opacity="1"
      d="M 115.09757512690726 145.00226220543527 Q 99.93665383525143 113.55427082448256 96.45228310154994 79.33894009543096"
      marker-end="url(#7:5:orientedPath-endArrowId)"
    ></path>
    <title>7:5:orientedPath</title>
  </g>
  <g>
    <filter id="7:11:pathOutline-shadow" x="0" y="0" width="200%" height="200%">
      <feOffset result="offOut" in="SourceAlpha" dx="5" dy="5"></feOffset>
      <feGaussianBlur
        result="blurOut"
        in="offOut"
        stdDeviation="4"
      ></feGaussianBlur>
      <feBlend in="SourceGraphic" in2="blurOut" mode="normal"></feBlend>
      <feComponentTransfer>
        <feFuncA type="linear" slope="0.5"></feFuncA>
      </feComponentTransfer>
      <feMerge>
        <feMergeNode></feMergeNode>
        <feMergeNode in="SourceGraphic"></feMergeNode>
      </feMerge>
    </filter>
    <path
      stroke="#ffffff"
      fill="none"
      stroke-width="3"
      stroke-opacity="1"
      d="M 115.09757512690726 145.00226220543527 Q 119.78051657690611 103.4734900230348 135.95298336841483 65.40749236791768"
    ></path>
    <title>7:11:pathOutline</title>
  </g>
  <g>
    <marker
      id="7:11:orientedPath-endArrowId"
      markerUnits="strokeWidth"
      markerWidth="7.46"
      markerHeight="6.09"
      viewBox="0 0 9.95 8.12"
      refX="2.36"
      refY="4.06"
      orient="auto-start-reverse"
    >
      <path
        d="M9.95 4.06 0 8.12 2.36 4.06 0 0 9.95 4.06z"
        fill="#4958f5"
        fill-opacity="1"
      ></path>
    </marker>
    <filter
      id="7:11:orientedPath-shadow"
      x="0"
      y="0"
      width="200%"
      height="200%"
    >
      <feOffset result="offOut" in="SourceAlpha" dx="5" dy="5"></feOffset>
      <feGaussianBlur
        result="blurOut"
        in="offOut"
        stdDeviation="4"
      ></feGaussianBlur>
      <feBlend in="SourceGraphic" in2="blurOut" mode="normal"></feBlend>
      <feComponentTransfer>
        <feFuncA type="linear" slope="0.5"></feFuncA>
      </feComponentTransfer>
      <feMerge>
        <feMergeNode></feMergeNode>
        <feMergeNode in="SourceGraphic"></feMergeNode>
      </feMerge>
    </filter>
    <path
      stroke="#4958f5"
      fill="none"
      stroke-width="1"
      stroke-opacity="1"
      d="M 115.09757512690726 145.00226220543527 Q 119.78051657690611 103.4734900230348 135.95298336841483 65.40749236791768"
      marker-end="url(#7:11:orientedPath-endArrowId)"
    ></path>
    <title>7:11:orientedPath</title>
  </g>
  <g>
    <filter id="8:0:pathOutline-shadow" x="0" y="0" width="200%" height="200%">
      <feOffset result="offOut" in="SourceAlpha" dx="5" dy="5"></feOffset>
      <feGaussianBlur
        result="blurOut"
        in="offOut"
        stdDeviation="4"
      ></feGaussianBlur>
      <feBlend in="SourceGraphic" in2="blurOut" mode="normal"></feBlend>
      <feComponentTransfer>
        <feFuncA type="linear" slope="0.5"></feFuncA>
      </feComponentTransfer>
      <feMerge>
        <feMergeNode></feMergeNode>
        <feMergeNode in="SourceGraphic"></feMergeNode>
      </feMerge>
    </filter>
    <path
      stroke="#ffffff"
      fill="none"
      stroke-width="3"
      stroke-opacity="1"
      d="M 128.08442000671928 100.60855655545302 Q 126.25277209294687 81.20601118408061 135.8819413645008 65.36010319154343"
    ></path>
    <title>8:0:pathOutline</title>
  </g>
  <g>
    <marker
      id="8:0:orientedPath-endArrowId"
      markerUnits="strokeWidth"
      markerWidth="7.46"
      markerHeight="6.09"
      viewBox="0 0 9.95 8.12"
      refX="2.36"
      refY="4.06"
      orient="auto-start-reverse"
    >
      <path
        d="M9.95 4.06 0 8.12 2.36 4.06 0 0 9.95 4.06z"
        fill="#f79cf7"
        fill-opacity="1"
      ></path>
    </marker>
    <filter id="8:0:orientedPath-shadow" x="0" y="0" width="200%" height="200%">
      <feOffset result="offOut" in="SourceAlpha" dx="5" dy="5"></feOffset>
      <feGaussianBlur
        result="blurOut"
        in="offOut"
        stdDeviation="4"
      ></feGaussianBlur>
      <feBlend in="SourceGraphic" in2="blurOut" mode="normal"></feBlend>
      <feComponentTransfer>
        <feFuncA type="linear" slope="0.5"></feFuncA>
      </feComponentTransfer>
      <feMerge>
        <feMergeNode></feMergeNode>
        <feMergeNode in="SourceGraphic"></feMergeNode>
      </feMerge>
    </filter>
    <path
      stroke="#f79cf7"
      fill="none"
      stroke-width="1"
      stroke-opacity="1"
      d="M 128.08442000671928 100.60855655545302 Q 126.25277209294687 81.20601118408061 135.8819413645008 65.36010319154343"
      marker-end="url(#8:0:orientedPath-endArrowId)"
    ></path>
    <title>8:0:orientedPath</title>
  </g>
  <g>
    <filter id="7:3:pathOutline-shadow" x="0" y="0" width="200%" height="200%">
      <feOffset result="offOut" in="SourceAlpha" dx="5" dy="5"></feOffset>
      <feGaussianBlur
        result="blurOut"
        in="offOut"
        stdDeviation="4"
      ></feGaussianBlur>
      <feBlend in="SourceGraphic" in2="blurOut" mode="normal"></feBlend>
      <feComponentTransfer>
        <feFuncA type="linear" slope="0.5"></feFuncA>
      </feComponentTransfer>
      <feMerge>
        <feMergeNode></feMergeNode>
        <feMergeNode in="SourceGraphic"></feMergeNode>
      </feMerge>
    </filter>
    <path
      stroke="#ffffff"
      fill="none"
      stroke-width="3"
      stroke-opacity="1"
      d="M 83.89218274205254 113.28993124494016 Q 99.11356015604872 101.1193268183767 117.64486599762832 100.48320867444737"
    ></path>
    <title>7:3:pathOutline</title>
  </g>
  <g>
    <marker
      id="7:3:orientedPath-endArrowId"
      markerUnits="strokeWidth"
      markerWidth="7.46"
      markerHeight="6.09"
      viewBox="0 0 9.95 8.12"
      refX="2.36"
      refY="4.06"
      orient="auto-start-reverse"
    >
      <path
        d="M9.95 4.06 0 8.12 2.36 4.06 0 0 9.95 4.06z"
        fill="#f79cf7"
        fill-opacity="1"
      ></path>
    </marker>
    <filter id="7:3:orientedPath-shadow" x="0" y="0" width="200%" height="200%">
      <feOffset result="offOut" in="SourceAlpha" dx="5" dy="5"></feOffset>
      <feGaussianBlur
        result="blurOut"
        in="offOut"
        stdDeviation="4"
      ></feGaussianBlur>
      <feBlend in="SourceGraphic" in2="blurOut" mode="normal"></feBlend>
      <feComponentTransfer>
        <feFuncA type="linear" slope="0.5"></feFuncA>
      </feComponentTransfer>
      <feMerge>
        <feMergeNode></feMergeNode>
        <feMergeNode in="SourceGraphic"></feMergeNode>
      </feMerge>
    </filter>
    <path
      stroke="#f79cf7"
      fill="none"
      stroke-width="1"
      stroke-opacity="1"
      d="M 83.89218274205254 113.28993124494016 Q 99.11356015604872 101.1193268183767 117.64486599762832 100.48320867444737"
      marker-end="url(#7:3:orientedPath-endArrowId)"
    ></path>
    <title>7:3:orientedPath</title>
  </g>
  <circle
    fill="#000000"
    fill-opacity="0.1"
    cx="128.08442000671928"
    cy="100.60855655545302"
    stroke="none"
    r="7.5"
  >
    <title>4:0:identityMarker</title>
  </circle>
  <g>
    <filter id="7:6:pathOutline-shadow" x="0" y="0" width="200%" height="200%">
      <feOffset result="offOut" in="SourceAlpha" dx="5" dy="5"></feOffset>
      <feGaussianBlur
        result="blurOut"
        in="offOut"
        stdDeviation="4"
      ></feGaussianBlur>
      <feBlend in="SourceGraphic" in2="blurOut" mode="normal"></feBlend>
      <feComponentTransfer>
        <feFuncA type="linear" slope="0.5"></feFuncA>
      </feComponentTransfer>
      <feMerge>
        <feMergeNode></feMergeNode>
        <feMergeNode in="SourceGraphic"></feMergeNode>
      </feMerge>
    </filter>
    <path
      stroke="#ffffff"
      fill="none"
      stroke-width="3"
      stroke-opacity="1"
      d="M 141.7110101431951 56.69858154848028 Q 155.1417372372295 86.45032956485227 156.7934476745263 118.4944053501741"
    ></path>
    <title>7:6:pathOutline</title>
  </g>
  <g>
    <marker
      id="7:6:orientedPath-endArrowId"
      markerUnits="strokeWidth"
      markerWidth="7.46"
      markerHeight="6.09"
      viewBox="0 0 9.95 8.12"
      refX="2.36"
      refY="4.06"
      orient="auto-start-reverse"
    >
      <path
        d="M9.95 4.06 0 8.12 2.36 4.06 0 0 9.95 4.06z"
        fill="#4958f5"
        fill-opacity="1"
      ></path>
    </marker>
    <filter id="7:6:orientedPath-shadow" x="0" y="0" width="200%" height="200%">
      <feOffset result="offOut" in="SourceAlpha" dx="5" dy="5"></feOffset>
      <feGaussianBlur
        result="blurOut"
        in="offOut"
        stdDeviation="4"
      ></feGaussianBlur>
      <feBlend in="SourceGraphic" in2="blurOut" mode="normal"></feBlend>
      <feComponentTransfer>
        <feFuncA type="linear" slope="0.5"></feFuncA>
      </feComponentTransfer>
      <feMerge>
        <feMergeNode></feMergeNode>
        <feMergeNode in="SourceGraphic"></feMergeNode>
      </feMerge>
    </filter>
    <path
      stroke="#4958f5"
      fill="none"
      stroke-width="1"
      stroke-opacity="1"
      d="M 141.7110101431951 56.69858154848028 Q 155.1417372372295 86.45032956485227 156.7934476745263 118.4944053501741"
      marker-end="url(#7:6:orientedPath-endArrowId)"
    ></path>
    <title>7:6:orientedPath</title>
  </g>
  <circle
    fill="#cccccc"
    fill-opacity="1"
    cx="128.08442000671928"
    cy="100.60855655545302"
    stroke="#999999"
    stroke-opacity="1"
    stroke-width="0.55"
    stroke-linecap="butt"
    r="5"
  >
    <title>`g1`.icon</title>
  </circle>
  <g
    transform="rotate(0, 128.08442000671928, 100.60855655545302)translate(126.83442000671928, 98.94355655545301)"
  >
    <title>`g1`.labelText</title>
    <svg
      style="font-size: 5px"
      xmlns="http://www.w3.org/2000/svg"
      width="2.5"
      height="3.33"
      role="img"
      focusable="false"
      viewBox="0 -666 500 666"
    >
      <g
        stroke="none"
        fill="#666666"
        stroke-width="0"
        transform="scale(1,-1)"
        fill-opacity="1"
      >
        <g data-mml-node="math">
          <g data-mml-node="mn">
            <path
              data-c="31"
              d="M213 578L200 573Q186 568 160 563T102 556H83V602H102Q149 604 189 617T245 641T273 663Q275 666 285 666Q294 666 302 660V361L303 61Q310 54 315 52T339 48T401 46H427V0H416Q395 3 257 3Q121 3 100 0H88V46H114Q136 46 152 46T177 47T193 50T201 52T207 57T213 61V578Z"
            ></path>
          </g>
        </g>
      </g>
    </svg>
  </g>
  <circle
    fill="#f79cf7"
    fill-opacity="1"
    cx="141.7110101431951"
    cy="56.69858154848028"
    stroke="#ad6dad"
    stroke-opacity="1"
    stroke-width="0.55"
    stroke-linecap="butt"
    r="5"
  >
    <title>`g2`.icon</title>
  </circle>
  <g
    transform="rotate(0, 141.7110101431951, 56.69858154848028)translate(140.84851014319509, 55.01858154848028)"
  >
    <title>`g2`.labelText</title>
    <svg
      style="font-size: 5px"
      xmlns="http://www.w3.org/2000/svg"
      width="1.7249999999999999"
      height="3.3600000000000003"
      role="img"
      focusable="false"
      viewBox="0 -661 345 672"
    >
      <g
        stroke="none"
        fill="#ad6dad"
        stroke-width="0"
        transform="scale(1,-1)"
        fill-opacity="1"
      >
        <g data-mml-node="math">
          <g data-mml-node="mi">
            <path
              data-c="1D456"
              d="M184 600Q184 624 203 642T247 661Q265 661 277 649T290 619Q290 596 270 577T226 557Q211 557 198 567T184 600ZM21 287Q21 295 30 318T54 369T98 420T158 442Q197 442 223 419T250 357Q250 340 236 301T196 196T154 83Q149 61 149 51Q149 26 166 26Q175 26 185 29T208 43T235 78T260 137Q263 149 265 151T282 153Q302 153 302 143Q302 135 293 112T268 61T223 11T161 -11Q129 -11 102 10T74 74Q74 91 79 106T122 220Q160 321 166 341T173 380Q173 404 156 404H154Q124 404 99 371T61 287Q60 286 59 284T58 281T56 279T53 278T49 278T41 278H27Q21 284 21 287Z"
            ></path>
          </g>
        </g>
      </g>
    </svg>
  </g>
  <circle
    fill="#4958f5"
    fill-opacity="1"
    cx="185.7187118869216"
    cy="159.49336307846943"
    stroke="#333eab"
    stroke-opacity="1"
    stroke-width="0.55"
    stroke-linecap="butt"
    r="5"
  >
    <title>`g3`.icon</title>
  </circle>
  <g
    transform="rotate(0, 185.7187118869216, 159.49336307846943)translate(184.6887118869216, 157.33086307846943)"
  >
    <title>`g3`.labelText</title>
    <svg
      style="font-size: 5px"
      xmlns="http://www.w3.org/2000/svg"
      width="2.06"
      height="4.325"
      role="img"
      focusable="false"
      viewBox="0 -661 412 865"
    >
      <g
        stroke="none"
        fill="#333eab"
        stroke-width="0"
        transform="scale(1,-1)"
        fill-opacity="1"
      >
        <g data-mml-node="math">
          <g data-mml-node="mi">
            <path
              data-c="1D457"
              d="M297 596Q297 627 318 644T361 661Q378 661 389 651T403 623Q403 595 384 576T340 557Q322 557 310 567T297 596ZM288 376Q288 405 262 405Q240 405 220 393T185 362T161 325T144 293L137 279Q135 278 121 278H107Q101 284 101 286T105 299Q126 348 164 391T252 441Q253 441 260 441T272 442Q296 441 316 432Q341 418 354 401T367 348V332L318 133Q267 -67 264 -75Q246 -125 194 -164T75 -204Q25 -204 7 -183T-12 -137Q-12 -110 7 -91T53 -71Q70 -71 82 -81T95 -112Q95 -148 63 -167Q69 -168 77 -168Q111 -168 139 -140T182 -74L193 -32Q204 11 219 72T251 197T278 308T289 365Q289 372 288 376Z"
            ></path>
          </g>
        </g>
      </g>
    </svg>
  </g>
  <circle
    fill="#cccccc"
    fill-opacity="1"
    cx="155.75896665113345"
    cy="128.88333450635955"
    stroke="#999999"
    stroke-opacity="1"
    stroke-width="0.55"
    stroke-linecap="butt"
    r="5"
  >
    <title>`g4`.icon</title>
  </circle>
  <g
    transform="rotate(0, 155.75896665113345, 128.88333450635955)translate(154.45646665113344, 127.12083450635954)"
  >
    <title>`g4`.labelText</title>
    <svg
      style="font-size: 5px"
      xmlns="http://www.w3.org/2000/svg"
      width="2.605"
      height="3.525"
      role="img"
      focusable="false"
      viewBox="0 -694 521 705"
    >
      <g
        stroke="none"
        fill="#666666"
        stroke-width="0"
        transform="scale(1,-1)"
        fill-opacity="1"
      >
        <g data-mml-node="math">
          <g data-mml-node="mi">
            <path
              data-c="1D458"
              d="M121 647Q121 657 125 670T137 683Q138 683 209 688T282 694Q294 694 294 686Q294 679 244 477Q194 279 194 272Q213 282 223 291Q247 309 292 354T362 415Q402 442 438 442Q468 442 485 423T503 369Q503 344 496 327T477 302T456 291T438 288Q418 288 406 299T394 328Q394 353 410 369T442 390L458 393Q446 405 434 405H430Q398 402 367 380T294 316T228 255Q230 254 243 252T267 246T293 238T320 224T342 206T359 180T365 147Q365 130 360 106T354 66Q354 26 381 26Q429 26 459 145Q461 153 479 153H483Q499 153 499 144Q499 139 496 130Q455 -11 378 -11Q333 -11 305 15T277 90Q277 108 280 121T283 145Q283 167 269 183T234 206T200 217T182 220H180Q168 178 159 139T145 81T136 44T129 20T122 7T111 -2Q98 -11 83 -11Q66 -11 57 -1T48 16Q48 26 85 176T158 471L195 616Q196 629 188 632T149 637H144Q134 637 131 637T124 640T121 647Z"
            ></path>
          </g>
        </g>
      </g>
    </svg>
  </g>
  <circle
    fill="#cccccc"
    fill-opacity="1"
    cx="172.74653708074425"
    cy="88.57720024816616"
    stroke="#999999"
    stroke-opacity="1"
    stroke-width="0.55"
    stroke-linecap="butt"
    r="5"
  >
    <title>`g5`.icon</title>
  </circle>
  <g
    transform="rotate(0, 172.74653708074425, 88.57720024816616)translate(169.55153708074425, 86.70720024816616)"
  >
    <title>`g5`.labelText</title>
    <svg
      style="font-size: 5px"
      xmlns="http://www.w3.org/2000/svg"
      width="6.390000000000001"
      height="3.74"
      role="img"
      focusable="false"
      viewBox="0 -666 1278 748"
    >
      <g
        stroke="none"
        fill="#666666"
        stroke-width="0"
        transform="scale(1,-1)"
        fill-opacity="1"
      >
        <g data-mml-node="math">
          <g data-mml-node="mo">
            <path
              data-c="2212"
              d="M84 237T84 250T98 270H679Q694 262 694 250T679 230H98Q84 237 84 250Z"
            ></path>
          </g>
          <g data-mml-node="mn" transform="translate(778,0)">
            <path
              data-c="31"
              d="M213 578L200 573Q186 568 160 563T102 556H83V602H102Q149 604 189 617T245 641T273 663Q275 666 285 666Q294 666 302 660V361L303 61Q310 54 315 52T339 48T401 46H427V0H416Q395 3 257 3Q121 3 100 0H88V46H114Q136 46 152 46T177 47T193 50T201 52T207 57T213 61V578Z"
            ></path>
          </g>
        </g>
      </g>
    </svg>
  </g>
  <circle
    fill="#cccccc"
    fill-opacity="1"
    cx="83.89218274205254"
    cy="113.28993124494016"
    stroke="#999999"
    stroke-opacity="1"
    stroke-width="0.55"
    stroke-linecap="butt"
    r="5"
  >
    <title>`g6`.icon</title>
  </circle>
  <g
    transform="rotate(0, 83.89218274205254, 113.28993124494016)translate(81.08468274205254, 111.43243124494016)"
  >
    <title>`g6`.labelText</title>
    <svg
      style="font-size: 5px"
      xmlns="http://www.w3.org/2000/svg"
      width="5.615"
      height="3.715"
      role="img"
      focusable="false"
      viewBox="0 -661 1123 743"
    >
      <g
        stroke="none"
        fill="#666666"
        stroke-width="0"
        transform="scale(1,-1)"
        fill-opacity="1"
      >
        <g data-mml-node="math">
          <g data-mml-node="mo">
            <path
              data-c="2212"
              d="M84 237T84 250T98 270H679Q694 262 694 250T679 230H98Q84 237 84 250Z"
            ></path>
          </g>
          <g data-mml-node="mi" transform="translate(778,0)">
            <path
              data-c="1D456"
              d="M184 600Q184 624 203 642T247 661Q265 661 277 649T290 619Q290 596 270 577T226 557Q211 557 198 567T184 600ZM21 287Q21 295 30 318T54 369T98 420T158 442Q197 442 223 419T250 357Q250 340 236 301T196 196T154 83Q149 61 149 51Q149 26 166 26Q175 26 185 29T208 43T235 78T260 137Q263 149 265 151T282 153Q302 153 302 143Q302 135 293 112T268 61T223 11T161 -11Q129 -11 102 10T74 74Q74 91 79 106T122 220Q160 321 166 341T173 380Q173 404 156 404H154Q124 404 99 371T61 287Q60 286 59 284T58 281T56 279T53 278T49 278T41 278H27Q21 284 21 287Z"
            ></path>
          </g>
        </g>
      </g>
    </svg>
  </g>
  <circle
    fill="#cccccc"
    fill-opacity="1"
    cx="97.06530461762277"
    cy="68.91664646011095"
    stroke="#999999"
    stroke-opacity="1"
    stroke-width="0.55"
    stroke-linecap="butt"
    r="5"
  >
    <title>`g7`.icon</title>
  </circle>
  <g
    transform="rotate(0, 97.06530461762277, 68.91664646011095)translate(94.09030461762278, 66.75414646011096)"
  >
    <title>`g7`.labelText</title>
    <svg
      style="font-size: 5px"
      xmlns="http://www.w3.org/2000/svg"
      width="5.949999999999999"
      height="4.325"
      role="img"
      focusable="false"
      viewBox="0 -661 1190 865"
    >
      <g
        stroke="none"
        fill="#666666"
        stroke-width="0"
        transform="scale(1,-1)"
        fill-opacity="1"
      >
        <g data-mml-node="math">
          <g data-mml-node="mo">
            <path
              data-c="2212"
              d="M84 237T84 250T98 270H679Q694 262 694 250T679 230H98Q84 237 84 250Z"
            ></path>
          </g>
          <g data-mml-node="mi" transform="translate(778,0)">
            <path
              data-c="1D457"
              d="M297 596Q297 627 318 644T361 661Q378 661 389 651T403 623Q403 595 384 576T340 557Q322 557 310 567T297 596ZM288 376Q288 405 262 405Q240 405 220 393T185 362T161 325T144 293L137 279Q135 278 121 278H107Q101 284 101 286T105 299Q126 348 164 391T252 441Q253 441 260 441T272 442Q296 441 316 432Q341 418 354 401T367 348V332L318 133Q267 -67 264 -75Q246 -125 194 -164T75 -204Q25 -204 7 -183T-12 -137Q-12 -110 7 -91T53 -71Q70 -71 82 -81T95 -112Q95 -148 63 -167Q69 -168 77 -168Q111 -168 139 -140T182 -74L193 -32Q204 11 219 72T251 197T278 308T289 365Q289 372 288 376Z"
            ></path>
          </g>
        </g>
      </g>
    </svg>
  </g>
  <circle
    fill="#cccccc"
    fill-opacity="1"
    cx="115.09757512690726"
    cy="145.00226220543527"
    stroke="#999999"
    stroke-opacity="1"
    stroke-width="0.55"
    stroke-linecap="butt"
    r="5"
  >
    <title>`g8`.icon</title>
  </circle>
  <g
    transform="rotate(0, 115.09757512690726, 145.00226220543527)translate(111.85007512690726, 143.06226220543527)"
  >
    <title>`g8`.labelText</title>
    <svg
      style="font-size: 5px"
      xmlns="http://www.w3.org/2000/svg"
      width="6.494999999999999"
      height="3.88"
      role="img"
      focusable="false"
      viewBox="0 -694 1299 776"
    >
      <g
        stroke="none"
        fill="#666666"
        stroke-width="0"
        transform="scale(1,-1)"
        fill-opacity="1"
      >
        <g data-mml-node="math">
          <g data-mml-node="mo">
            <path
              data-c="2212"
              d="M84 237T84 250T98 270H679Q694 262 694 250T679 230H98Q84 237 84 250Z"
            ></path>
          </g>
          <g data-mml-node="mi" transform="translate(778,0)">
            <path
              data-c="1D458"
              d="M121 647Q121 657 125 670T137 683Q138 683 209 688T282 694Q294 694 294 686Q294 679 244 477Q194 279 194 272Q213 282 223 291Q247 309 292 354T362 415Q402 442 438 442Q468 442 485 423T503 369Q503 344 496 327T477 302T456 291T438 288Q418 288 406 299T394 328Q394 353 410 369T442 390L458 393Q446 405 434 405H430Q398 402 367 380T294 316T228 255Q230 254 243 252T267 246T293 238T320 224T342 206T359 180T365 147Q365 130 360 106T354 66Q354 26 381 26Q429 26 459 145Q461 153 479 153H483Q499 153 499 144Q499 139 496 130Q455 -11 378 -11Q333 -11 305 15T277 90Q277 108 280 121T283 145Q283 167 269 183T234 206T200 217T182 220H180Q168 178 159 139T145 81T136 44T129 20T122 7T111 -2Q98 -11 83 -11Q66 -11 57 -1T48 16Q48 26 85 176T158 471L195 616Q196 629 188 632T149 637H144Q134 637 131 637T124 640T121 647Z"
            ></path>
          </g>
        </g>
      </g>
    </svg>
  </g>
</svg>
