<svg
  version="1.2"
  xmlns="http://www.w3.org/2000/svg"
  viewBox="0 0 240 200"
  penrose="0"
>
  <penrose>
    <croppedViewBox>
      23.908253891778898 51.1292193821886 111.92970658556631 107.78496452959163
    </croppedViewBox>
  </penrose>
  <g>
    <filter
      id="quaternion-cayley-graph__9:1:pathOutline-shadow"
      x="0"
      y="0"
      width="200%"
      height="200%"
    >
      <feOffset result="offOut" in="SourceAlpha" dx="5" dy="5" />
      <feGaussianBlur result="blurOut" in="offOut" stdDeviation="4" />
      <feBlend in="SourceGraphic" in2="blurOut" mode="normal" />
      <feComponentTransfer>
        <feFuncA type="linear" slope="0.5" />
      </feComponentTransfer>
      <feMerge>
        <feMergeNode />
        <feMergeNode in="SourceGraphic" />
      </feMerge>
    </filter>
    <path
      fill="none"
      stroke="#ffffff"
      stroke-opacity="1"
      stroke-width="3"
      stroke-linecap="butt"
      d="M 84.40616141774353 100.50946062019044 Q 70.80389282626646 85.79122805583327 68.4220057684611 66.81822895982722"
    />
    <title>9:1:pathOutline</title>
  </g>
  <g>
    <marker
      id="quaternion-cayley-graph__9:1:orientedPath-endArrowId"
      markerUnits="strokeWidth"
      markerWidth="7.46"
      markerHeight="6.09"
      viewBox="0 0 9.95 8.12"
      refX="2.36"
      refY="4.06"
      orient="auto-start-reverse"
    >
      <path
        d="M9.95 4.06 0 8.12 2.36 4.06 0 0 9.95 4.06z"
        fill="#f242ad"
        fill-opacity="1"
      />
    </marker>
    <filter
      id="quaternion-cayley-graph__9:1:orientedPath-shadow"
      x="0"
      y="0"
      width="200%"
      height="200%"
    >
      <feOffset result="offOut" in="SourceAlpha" dx="5" dy="5" />
      <feGaussianBlur result="blurOut" in="offOut" stdDeviation="4" />
      <feBlend in="SourceGraphic" in2="blurOut" mode="normal" />
      <feComponentTransfer>
        <feFuncA type="linear" slope="0.5" />
      </feComponentTransfer>
      <feMerge>
        <feMergeNode />
        <feMergeNode in="SourceGraphic" />
      </feMerge>
    </filter>
    <path
      fill="none"
      stroke="#f242ad"
      stroke-opacity="1"
      stroke-width="1"
      stroke-linecap="butt"
      d="M 84.40616141774353 100.50946062019044 Q 70.80389282626646 85.79122805583327 68.4220057684611 66.81822895982722"
      marker-end="url(#quaternion-cayley-graph__9:1:orientedPath-endArrowId)"
    />
    <title>9:1:orientedPath</title>
  </g>
  <g>
    <filter
      id="quaternion-cayley-graph__7:1:pathOutline-shadow"
      x="0"
      y="0"
      width="200%"
      height="200%"
    >
      <feOffset result="offOut" in="SourceAlpha" dx="5" dy="5" />
      <feGaussianBlur result="blurOut" in="offOut" stdDeviation="4" />
      <feBlend in="SourceGraphic" in2="blurOut" mode="normal" />
      <feComponentTransfer>
        <feFuncA type="linear" slope="0.5" />
      </feComponentTransfer>
      <feMerge>
        <feMergeNode />
        <feMergeNode in="SourceGraphic" />
      </feMerge>
    </filter>
    <path
      fill="none"
      stroke="#ffffff"
      stroke-opacity="1"
      stroke-width="3"
      stroke-linecap="butt"
      d="M 29.183253891778904 76.7912788838874 Q 55.160320693931 79.7859025225734 76.40171725247433 93.80656023266506"
    />
    <title>7:1:pathOutline</title>
  </g>
  <g>
    <marker
      id="quaternion-cayley-graph__7:1:orientedPath-endArrowId"
      markerUnits="strokeWidth"
      markerWidth="7.46"
      markerHeight="6.09"
      viewBox="0 0 9.95 8.12"
      refX="2.36"
      refY="4.06"
      orient="auto-start-reverse"
    >
      <path
        d="M9.95 4.06 0 8.12 2.36 4.06 0 0 9.95 4.06z"
        fill="#88904d"
        fill-opacity="1"
      />
    </marker>
    <filter
      id="quaternion-cayley-graph__7:1:orientedPath-shadow"
      x="0"
      y="0"
      width="200%"
      height="200%"
    >
      <feOffset result="offOut" in="SourceAlpha" dx="5" dy="5" />
      <feGaussianBlur result="blurOut" in="offOut" stdDeviation="4" />
      <feBlend in="SourceGraphic" in2="blurOut" mode="normal" />
      <feComponentTransfer>
        <feFuncA type="linear" slope="0.5" />
      </feComponentTransfer>
      <feMerge>
        <feMergeNode />
        <feMergeNode in="SourceGraphic" />
      </feMerge>
    </filter>
    <path
      fill="none"
      stroke="#88904d"
      stroke-opacity="1"
      stroke-width="1"
      stroke-linecap="butt"
      d="M 29.183253891778904 76.7912788838874 Q 55.160320693931 79.7859025225734 76.40171725247433 93.80656023266506"
      marker-end="url(#quaternion-cayley-graph__7:1:orientedPath-endArrowId)"
    />
    <title>7:1:orientedPath</title>
  </g>
  <g>
    <filter
      id="quaternion-cayley-graph__7:9:pathOutline-shadow"
      x="0"
      y="0"
      width="200%"
      height="200%"
    >
      <feOffset result="offOut" in="SourceAlpha" dx="5" dy="5" />
      <feGaussianBlur result="blurOut" in="offOut" stdDeviation="4" />
      <feBlend in="SourceGraphic" in2="blurOut" mode="normal" />
      <feComponentTransfer>
        <feFuncA type="linear" slope="0.5" />
      </feComponentTransfer>
      <feMerge>
        <feMergeNode />
        <feMergeNode in="SourceGraphic" />
      </feMerge>
    </filter>
    <path
      fill="none"
      stroke="#ffffff"
      stroke-opacity="1"
      stroke-width="3"
      stroke-linecap="butt"
      d="M 42.033661436813404 119.97395187434525 Q 80.50799124240608 108.19513037666164 120.29482868761029 108.34431473477645"
    />
    <title>7:9:pathOutline</title>
  </g>
  <g>
    <marker
      id="quaternion-cayley-graph__7:9:orientedPath-endArrowId"
      markerUnits="strokeWidth"
      markerWidth="7.46"
      markerHeight="6.09"
      viewBox="0 0 9.95 8.12"
      refX="2.36"
      refY="4.06"
      orient="auto-start-reverse"
    >
      <path
        d="M9.95 4.06 0 8.12 2.36 4.06 0 0 9.95 4.06z"
        fill="#f242ad"
        fill-opacity="1"
      />
    </marker>
    <filter
      id="quaternion-cayley-graph__7:9:orientedPath-shadow"
      x="0"
      y="0"
      width="200%"
      height="200%"
    >
      <feOffset result="offOut" in="SourceAlpha" dx="5" dy="5" />
      <feGaussianBlur result="blurOut" in="offOut" stdDeviation="4" />
      <feBlend in="SourceGraphic" in2="blurOut" mode="normal" />
      <feComponentTransfer>
        <feFuncA type="linear" slope="0.5" />
      </feComponentTransfer>
      <feMerge>
        <feMergeNode />
        <feMergeNode in="SourceGraphic" />
      </feMerge>
    </filter>
    <path
      fill="none"
      stroke="#f242ad"
      stroke-opacity="1"
      stroke-width="1"
      stroke-linecap="butt"
      d="M 42.033661436813404 119.97395187434525 Q 80.50799124240608 108.19513037666164 120.29482868761029 108.34431473477645"
      marker-end="url(#quaternion-cayley-graph__7:9:orientedPath-endArrowId)"
    />
    <title>7:9:orientedPath</title>
  </g>
  <g>
    <filter
      id="quaternion-cayley-graph__7:2:pathOutline-shadow"
      x="0"
      y="0"
      width="200%"
      height="200%"
    >
      <feOffset result="offOut" in="SourceAlpha" dx="5" dy="5" />
      <feGaussianBlur result="blurOut" in="offOut" stdDeviation="4" />
      <feBlend in="SourceGraphic" in2="blurOut" mode="normal" />
      <feComponentTransfer>
        <feFuncA type="linear" slope="0.5" />
      </feComponentTransfer>
      <feMerge>
        <feMergeNode />
        <feMergeNode in="SourceGraphic" />
      </feMerge>
    </filter>
    <path
      fill="none"
      stroke="#ffffff"
      stroke-opacity="1"
      stroke-width="3"
      stroke-linecap="butt"
      d="M 67.68146237550495 56.4042193821886 Q 63.683582471263506 86.358413351655 48.55730641371615 111.82275219482987"
    />
    <title>7:2:pathOutline</title>
  </g>
  <g>
    <marker
      id="quaternion-cayley-graph__7:2:orientedPath-endArrowId"
      markerUnits="strokeWidth"
      markerWidth="7.46"
      markerHeight="6.09"
      viewBox="0 0 9.95 8.12"
      refX="2.36"
      refY="4.06"
      orient="auto-start-reverse"
    >
      <path
        d="M9.95 4.06 0 8.12 2.36 4.06 0 0 9.95 4.06z"
        fill="#88904d"
        fill-opacity="1"
      />
    </marker>
    <filter
      id="quaternion-cayley-graph__7:2:orientedPath-shadow"
      x="0"
      y="0"
      width="200%"
      height="200%"
    >
      <feOffset result="offOut" in="SourceAlpha" dx="5" dy="5" />
      <feGaussianBlur result="blurOut" in="offOut" stdDeviation="4" />
      <feBlend in="SourceGraphic" in2="blurOut" mode="normal" />
      <feComponentTransfer>
        <feFuncA type="linear" slope="0.5" />
      </feComponentTransfer>
      <feMerge>
        <feMergeNode />
        <feMergeNode in="SourceGraphic" />
      </feMerge>
    </filter>
    <path
      fill="none"
      stroke="#88904d"
      stroke-opacity="1"
      stroke-width="1"
      stroke-linecap="butt"
      d="M 67.68146237550495 56.4042193821886 Q 63.683582471263506 86.358413351655 48.55730641371615 111.82275219482987"
      marker-end="url(#quaternion-cayley-graph__7:2:orientedPath-endArrowId)"
    />
    <title>7:2:orientedPath</title>
  </g>
  <g>
    <filter
      id="quaternion-cayley-graph__8:1:pathOutline-shadow"
      x="0"
      y="0"
      width="200%"
      height="200%"
    >
      <feOffset result="offOut" in="SourceAlpha" dx="5" dy="5" />
      <feGaussianBlur result="blurOut" in="offOut" stdDeviation="4" />
      <feBlend in="SourceGraphic" in2="blurOut" mode="normal" />
      <feComponentTransfer>
        <feFuncA type="linear" slope="0.5" />
      </feComponentTransfer>
      <feMerge>
        <feMergeNode />
        <feMergeNode in="SourceGraphic" />
      </feMerge>
    </filter>
    <path
      fill="none"
      stroke="#ffffff"
      stroke-opacity="1"
      stroke-width="3"
      stroke-linecap="butt"
      d="M 116.3567031230281 151.41418391178024 Q 96.68710464239044 134.18386236422316 87.18134483761555 110.57416911006075"
    />
    <title>8:1:pathOutline</title>
  </g>
  <g>
    <marker
      id="quaternion-cayley-graph__8:1:orientedPath-endArrowId"
      markerUnits="strokeWidth"
      markerWidth="7.46"
      markerHeight="6.09"
      viewBox="0 0 9.95 8.12"
      refX="2.36"
      refY="4.06"
      orient="auto-start-reverse"
    >
      <path
        d="M9.95 4.06 0 8.12 2.36 4.06 0 0 9.95 4.06z"
        fill="#f242ad"
        fill-opacity="1"
      />
    </marker>
    <filter
      id="quaternion-cayley-graph__8:1:orientedPath-shadow"
      x="0"
      y="0"
      width="200%"
      height="200%"
    >
      <feOffset result="offOut" in="SourceAlpha" dx="5" dy="5" />
      <feGaussianBlur result="blurOut" in="offOut" stdDeviation="4" />
      <feBlend in="SourceGraphic" in2="blurOut" mode="normal" />
      <feComponentTransfer>
        <feFuncA type="linear" slope="0.5" />
      </feComponentTransfer>
      <feMerge>
        <feMergeNode />
        <feMergeNode in="SourceGraphic" />
      </feMerge>
    </filter>
    <path
      fill="none"
      stroke="#f242ad"
      stroke-opacity="1"
      stroke-width="1"
      stroke-linecap="butt"
      d="M 116.3567031230281 151.41418391178024 Q 96.68710464239044 134.18386236422316 87.18134483761555 110.57416911006075"
      marker-end="url(#quaternion-cayley-graph__8:1:orientedPath-endArrowId)"
    />
    <title>8:1:orientedPath</title>
  </g>
  <g>
    <filter
      id="quaternion-cayley-graph__9:0:pathOutline-shadow"
      x="0"
      y="0"
      width="200%"
      height="200%"
    >
      <feOffset result="offOut" in="SourceAlpha" dx="5" dy="5" />
      <feGaussianBlur result="blurOut" in="offOut" stdDeviation="4" />
      <feBlend in="SourceGraphic" in2="blurOut" mode="normal" />
      <feComponentTransfer>
        <feFuncA type="linear" slope="0.5" />
      </feComponentTransfer>
      <feMerge>
        <feMergeNode />
        <feMergeNode in="SourceGraphic" />
      </feMerge>
    </filter>
    <path
      fill="none"
      stroke="#ffffff"
      stroke-opacity="1"
      stroke-width="3"
      stroke-linecap="butt"
      d="M 114.63350465102714 65.19832858173439 Q 94.69128411364102 69.0935748277334 76.95824507425573 61.19392738583125"
    />
    <title>9:0:pathOutline</title>
  </g>
  <g>
    <marker
      id="quaternion-cayley-graph__9:0:orientedPath-endArrowId"
      markerUnits="strokeWidth"
      markerWidth="7.46"
      markerHeight="6.09"
      viewBox="0 0 9.95 8.12"
      refX="2.36"
      refY="4.06"
      orient="auto-start-reverse"
    >
      <path
        d="M9.95 4.06 0 8.12 2.36 4.06 0 0 9.95 4.06z"
        fill="#88904d"
        fill-opacity="1"
      />
    </marker>
    <filter
      id="quaternion-cayley-graph__9:0:orientedPath-shadow"
      x="0"
      y="0"
      width="200%"
      height="200%"
    >
      <feOffset result="offOut" in="SourceAlpha" dx="5" dy="5" />
      <feGaussianBlur result="blurOut" in="offOut" stdDeviation="4" />
      <feBlend in="SourceGraphic" in2="blurOut" mode="normal" />
      <feComponentTransfer>
        <feFuncA type="linear" slope="0.5" />
      </feComponentTransfer>
      <feMerge>
        <feMergeNode />
        <feMergeNode in="SourceGraphic" />
      </feMerge>
    </filter>
    <path
      fill="none"
      stroke="#88904d"
      stroke-opacity="1"
      stroke-width="1"
      stroke-linecap="butt"
      d="M 114.63350465102714 65.19832858173439 Q 94.69128411364102 69.0935748277334 76.95824507425573 61.19392738583125"
      marker-end="url(#quaternion-cayley-graph__9:0:orientedPath-endArrowId)"
    />
    <title>9:0:orientedPath</title>
  </g>
  <g>
    <filter
      id="quaternion-cayley-graph__7:0:pathOutline-shadow"
      x="0"
      y="0"
      width="200%"
      height="200%"
    >
      <feOffset result="offOut" in="SourceAlpha" dx="5" dy="5" />
      <feGaussianBlur result="blurOut" in="offOut" stdDeviation="4" />
      <feBlend in="SourceGraphic" in2="blurOut" mode="normal" />
      <feComponentTransfer>
        <feFuncA type="linear" slope="0.5" />
      </feComponentTransfer>
      <feMerge>
        <feMergeNode />
        <feMergeNode in="SourceGraphic" />
      </feMerge>
    </filter>
    <path
      fill="none"
      stroke="#ffffff"
      stroke-opacity="1"
      stroke-width="3"
      stroke-linecap="butt"
      d="M 84.40616141774353 100.50946062019044 Q 104.13791126040388 97.00142625385645 121.39610336148668 105.23568774902594"
    />
    <title>7:0:pathOutline</title>
  </g>
  <g>
    <marker
      id="quaternion-cayley-graph__7:0:orientedPath-endArrowId"
      markerUnits="strokeWidth"
      markerWidth="7.46"
      markerHeight="6.09"
      viewBox="0 0 9.95 8.12"
      refX="2.36"
      refY="4.06"
      orient="auto-start-reverse"
    >
      <path
        d="M9.95 4.06 0 8.12 2.36 4.06 0 0 9.95 4.06z"
        fill="#88904d"
        fill-opacity="1"
      />
    </marker>
    <filter
      id="quaternion-cayley-graph__7:0:orientedPath-shadow"
      x="0"
      y="0"
      width="200%"
      height="200%"
    >
      <feOffset result="offOut" in="SourceAlpha" dx="5" dy="5" />
      <feGaussianBlur result="blurOut" in="offOut" stdDeviation="4" />
      <feBlend in="SourceGraphic" in2="blurOut" mode="normal" />
      <feComponentTransfer>
        <feFuncA type="linear" slope="0.5" />
      </feComponentTransfer>
      <feMerge>
        <feMergeNode />
        <feMergeNode in="SourceGraphic" />
      </feMerge>
    </filter>
    <path
      fill="none"
      stroke="#88904d"
      stroke-opacity="1"
      stroke-width="1"
      stroke-linecap="butt"
      d="M 84.40616141774353 100.50946062019044 Q 104.13791126040388 97.00142625385645 121.39610336148668 105.23568774902594"
      marker-end="url(#quaternion-cayley-graph__7:0:orientedPath-endArrowId)"
    />
    <title>7:0:orientedPath</title>
  </g>
  <g>
    <filter
      id="quaternion-cayley-graph__7:4:pathOutline-shadow"
      x="0"
      y="0"
      width="200%"
      height="200%"
    >
      <feOffset result="offOut" in="SourceAlpha" dx="5" dy="5" />
      <feGaussianBlur result="blurOut" in="offOut" stdDeviation="4" />
      <feBlend in="SourceGraphic" in2="blurOut" mode="normal" />
      <feComponentTransfer>
        <feFuncA type="linear" slope="0.5" />
      </feComponentTransfer>
      <feMerge>
        <feMergeNode />
        <feMergeNode in="SourceGraphic" />
      </feMerge>
    </filter>
    <path
      fill="none"
      stroke="#ffffff"
      stroke-opacity="1"
      stroke-width="3"
      stroke-linecap="butt"
      d="M 71.7089262975119 145.37674475097558 Q 46.706750049625924 119.285678479014 31.903227386314768 86.87104793823693"
    />
    <title>7:4:pathOutline</title>
  </g>
  <g>
    <marker
      id="quaternion-cayley-graph__7:4:orientedPath-endArrowId"
      markerUnits="strokeWidth"
      markerWidth="7.46"
      markerHeight="6.09"
      viewBox="0 0 9.95 8.12"
      refX="2.36"
      refY="4.06"
      orient="auto-start-reverse"
    >
      <path
        d="M9.95 4.06 0 8.12 2.36 4.06 0 0 9.95 4.06z"
        fill="#88904d"
        fill-opacity="1"
      />
    </marker>
    <filter
      id="quaternion-cayley-graph__7:4:orientedPath-shadow"
      x="0"
      y="0"
      width="200%"
      height="200%"
    >
      <feOffset result="offOut" in="SourceAlpha" dx="5" dy="5" />
      <feGaussianBlur result="blurOut" in="offOut" stdDeviation="4" />
      <feBlend in="SourceGraphic" in2="blurOut" mode="normal" />
      <feComponentTransfer>
        <feFuncA type="linear" slope="0.5" />
      </feComponentTransfer>
      <feMerge>
        <feMergeNode />
        <feMergeNode in="SourceGraphic" />
      </feMerge>
    </filter>
    <path
      fill="none"
      stroke="#88904d"
      stroke-opacity="1"
      stroke-width="1"
      stroke-linecap="butt"
      d="M 71.7089262975119 145.37674475097558 Q 46.706750049625924 119.285678479014 31.903227386314768 86.87104793823693"
      marker-end="url(#quaternion-cayley-graph__7:4:orientedPath-endArrowId)"
    />
    <title>7:4:orientedPath</title>
  </g>
  <g>
    <filter
      id="quaternion-cayley-graph__7:7:pathOutline-shadow"
      x="0"
      y="0"
      width="200%"
      height="200%"
    >
      <feOffset result="offOut" in="SourceAlpha" dx="5" dy="5" />
      <feGaussianBlur result="blurOut" in="offOut" stdDeviation="4" />
      <feBlend in="SourceGraphic" in2="blurOut" mode="normal" />
      <feComponentTransfer>
        <feFuncA type="linear" slope="0.5" />
      </feComponentTransfer>
      <feMerge>
        <feMergeNode />
        <feMergeNode in="SourceGraphic" />
      </feMerge>
    </filter>
    <path
      fill="none"
      stroke="#ffffff"
      stroke-opacity="1"
      stroke-width="3"
      stroke-linecap="butt"
      d="M 29.183253891778904 76.7912788838874 Q 41.37081303514667 91.45114651746583 42.056832300661185 109.5336710777829"
    />
    <title>7:7:pathOutline</title>
  </g>
  <g>
    <marker
      id="quaternion-cayley-graph__7:7:orientedPath-endArrowId"
      markerUnits="strokeWidth"
      markerWidth="7.46"
      markerHeight="6.09"
      viewBox="0 0 9.95 8.12"
      refX="2.36"
      refY="4.06"
      orient="auto-start-reverse"
    >
      <path
        d="M9.95 4.06 0 8.12 2.36 4.06 0 0 9.95 4.06z"
        fill="#f242ad"
        fill-opacity="1"
      />
    </marker>
    <filter
      id="quaternion-cayley-graph__7:7:orientedPath-shadow"
      x="0"
      y="0"
      width="200%"
      height="200%"
    >
      <feOffset result="offOut" in="SourceAlpha" dx="5" dy="5" />
      <feGaussianBlur result="blurOut" in="offOut" stdDeviation="4" />
      <feBlend in="SourceGraphic" in2="blurOut" mode="normal" />
      <feComponentTransfer>
        <feFuncA type="linear" slope="0.5" />
      </feComponentTransfer>
      <feMerge>
        <feMergeNode />
        <feMergeNode in="SourceGraphic" />
      </feMerge>
    </filter>
    <path
      fill="none"
      stroke="#f242ad"
      stroke-opacity="1"
      stroke-width="1"
      stroke-linecap="butt"
      d="M 29.183253891778904 76.7912788838874 Q 41.37081303514667 91.45114651746583 42.056832300661185 109.5336710777829"
      marker-end="url(#quaternion-cayley-graph__7:7:orientedPath-endArrowId)"
    />
    <title>7:7:orientedPath</title>
  </g>
  <g>
    <filter
      id="quaternion-cayley-graph__7:10:pathOutline-shadow"
      x="0"
      y="0"
      width="200%"
      height="200%"
    >
      <feOffset result="offOut" in="SourceAlpha" dx="5" dy="5" />
      <feGaussianBlur result="blurOut" in="offOut" stdDeviation="4" />
      <feBlend in="SourceGraphic" in2="blurOut" mode="normal" />
      <feComponentTransfer>
        <feFuncA type="linear" slope="0.5" />
      </feComponentTransfer>
      <feMerge>
        <feMergeNode />
        <feMergeNode in="SourceGraphic" />
      </feMerge>
    </filter>
    <path
      fill="none"
      stroke="#ffffff"
      stroke-opacity="1"
      stroke-width="3"
      stroke-linecap="butt"
      d="M 71.7089262975119 145.37674475097558 Q 90.08294175355601 140.29308791295477 106.84890774497084 147.10120036799145"
    />
    <title>7:10:pathOutline</title>
  </g>
  <g>
    <marker
      id="quaternion-cayley-graph__7:10:orientedPath-endArrowId"
      markerUnits="strokeWidth"
      markerWidth="7.46"
      markerHeight="6.09"
      viewBox="0 0 9.95 8.12"
      refX="2.36"
      refY="4.06"
      orient="auto-start-reverse"
    >
      <path
        d="M9.95 4.06 0 8.12 2.36 4.06 0 0 9.95 4.06z"
        fill="#f242ad"
        fill-opacity="1"
      />
    </marker>
    <filter
      id="quaternion-cayley-graph__7:10:orientedPath-shadow"
      x="0"
      y="0"
      width="200%"
      height="200%"
    >
      <feOffset result="offOut" in="SourceAlpha" dx="5" dy="5" />
      <feGaussianBlur result="blurOut" in="offOut" stdDeviation="4" />
      <feBlend in="SourceGraphic" in2="blurOut" mode="normal" />
      <feComponentTransfer>
        <feFuncA type="linear" slope="0.5" />
      </feComponentTransfer>
      <feMerge>
        <feMergeNode />
        <feMergeNode in="SourceGraphic" />
      </feMerge>
    </filter>
    <path
      fill="none"
      stroke="#f242ad"
      stroke-opacity="1"
      stroke-width="1"
      stroke-linecap="butt"
      d="M 71.7089262975119 145.37674475097558 Q 90.08294175355601 140.29308791295477 106.84890774497084 147.10120036799145"
      marker-end="url(#quaternion-cayley-graph__7:10:orientedPath-endArrowId)"
    />
    <title>7:10:orientedPath</title>
  </g>
  <g>
    <filter
      id="quaternion-cayley-graph__7:8:pathOutline-shadow"
      x="0"
      y="0"
      width="200%"
      height="200%"
    >
      <feOffset result="offOut" in="SourceAlpha" dx="5" dy="5" />
      <feGaussianBlur result="blurOut" in="offOut" stdDeviation="4" />
      <feBlend in="SourceGraphic" in2="blurOut" mode="normal" />
      <feComponentTransfer>
        <feFuncA type="linear" slope="0.5" />
      </feComponentTransfer>
      <feMerge>
        <feMergeNode />
        <feMergeNode in="SourceGraphic" />
      </feMerge>
    </filter>
    <path
      fill="none"
      stroke="#ffffff"
      stroke-opacity="1"
      stroke-width="3"
      stroke-linecap="butt"
      d="M 67.68146237550495 56.4042193821886 Q 76.96142184517325 95.55644627814547 74.25365672301345 135.2513140410489"
    />
    <title>7:8:pathOutline</title>
  </g>
  <g>
    <marker
      id="quaternion-cayley-graph__7:8:orientedPath-endArrowId"
      markerUnits="strokeWidth"
      markerWidth="7.46"
      markerHeight="6.09"
      viewBox="0 0 9.95 8.12"
      refX="2.36"
      refY="4.06"
      orient="auto-start-reverse"
    >
      <path
        d="M9.95 4.06 0 8.12 2.36 4.06 0 0 9.95 4.06z"
        fill="#f242ad"
        fill-opacity="1"
      />
    </marker>
    <filter
      id="quaternion-cayley-graph__7:8:orientedPath-shadow"
      x="0"
      y="0"
      width="200%"
      height="200%"
    >
      <feOffset result="offOut" in="SourceAlpha" dx="5" dy="5" />
      <feGaussianBlur result="blurOut" in="offOut" stdDeviation="4" />
      <feBlend in="SourceGraphic" in2="blurOut" mode="normal" />
      <feComponentTransfer>
        <feFuncA type="linear" slope="0.5" />
      </feComponentTransfer>
      <feMerge>
        <feMergeNode />
        <feMergeNode in="SourceGraphic" />
      </feMerge>
    </filter>
    <path
      fill="none"
      stroke="#f242ad"
      stroke-opacity="1"
      stroke-width="1"
      stroke-linecap="butt"
      d="M 67.68146237550495 56.4042193821886 Q 76.96142184517325 95.55644627814547 74.25365672301345 135.2513140410489"
      marker-end="url(#quaternion-cayley-graph__7:8:orientedPath-endArrowId)"
    />
    <title>7:8:orientedPath</title>
  </g>
  <g>
    <filter
      id="quaternion-cayley-graph__7:5:pathOutline-shadow"
      x="0"
      y="0"
      width="200%"
      height="200%"
    >
      <feOffset result="offOut" in="SourceAlpha" dx="5" dy="5" />
      <feGaussianBlur result="blurOut" in="offOut" stdDeviation="4" />
      <feBlend in="SourceGraphic" in2="blurOut" mode="normal" />
      <feComponentTransfer>
        <feFuncA type="linear" slope="0.5" />
      </feComponentTransfer>
      <feMerge>
        <feMergeNode />
        <feMergeNode in="SourceGraphic" />
      </feMerge>
    </filter>
    <path
      fill="none"
      stroke="#ffffff"
      stroke-opacity="1"
      stroke-width="3"
      stroke-linecap="butt"
      d="M 130.5629604773452 110.2325598323831 Q 109.27398745343933 131.68050558865363 81.83273420648716 142.82556592106775"
    />
    <title>7:5:pathOutline</title>
  </g>
  <g>
    <marker
      id="quaternion-cayley-graph__7:5:orientedPath-endArrowId"
      markerUnits="strokeWidth"
      markerWidth="7.46"
      markerHeight="6.09"
      viewBox="0 0 9.95 8.12"
      refX="2.36"
      refY="4.06"
      orient="auto-start-reverse"
    >
      <path
        d="M9.95 4.06 0 8.12 2.36 4.06 0 0 9.95 4.06z"
        fill="#88904d"
        fill-opacity="1"
      />
    </marker>
    <filter
      id="quaternion-cayley-graph__7:5:orientedPath-shadow"
      x="0"
      y="0"
      width="200%"
      height="200%"
    >
      <feOffset result="offOut" in="SourceAlpha" dx="5" dy="5" />
      <feGaussianBlur result="blurOut" in="offOut" stdDeviation="4" />
      <feBlend in="SourceGraphic" in2="blurOut" mode="normal" />
      <feComponentTransfer>
        <feFuncA type="linear" slope="0.5" />
      </feComponentTransfer>
      <feMerge>
        <feMergeNode />
        <feMergeNode in="SourceGraphic" />
      </feMerge>
    </filter>
    <path
      fill="none"
      stroke="#88904d"
      stroke-opacity="1"
      stroke-width="1"
      stroke-linecap="butt"
      d="M 130.5629604773452 110.2325598323831 Q 109.27398745343933 131.68050558865363 81.83273420648716 142.82556592106775"
      marker-end="url(#quaternion-cayley-graph__7:5:orientedPath-endArrowId)"
    />
    <title>7:5:orientedPath</title>
  </g>
  <g>
    <filter
      id="quaternion-cayley-graph__7:11:pathOutline-shadow"
      x="0"
      y="0"
      width="200%"
      height="200%"
    >
      <feOffset result="offOut" in="SourceAlpha" dx="5" dy="5" />
      <feGaussianBlur result="blurOut" in="offOut" stdDeviation="4" />
      <feBlend in="SourceGraphic" in2="blurOut" mode="normal" />
      <feComponentTransfer>
        <feFuncA type="linear" slope="0.5" />
      </feComponentTransfer>
      <feMerge>
        <feMergeNode />
        <feMergeNode in="SourceGraphic" />
      </feMerge>
    </filter>
    <path
      fill="none"
      stroke="#ffffff"
      stroke-opacity="1"
      stroke-width="3"
      stroke-linecap="butt"
      d="M 130.5629604773452 110.2325598323831 Q 117.19489233384971 94.93028407743893 115.1399443497769 75.62634463616824"
    />
    <title>7:11:pathOutline</title>
  </g>
  <g>
    <marker
      id="quaternion-cayley-graph__7:11:orientedPath-endArrowId"
      markerUnits="strokeWidth"
      markerWidth="7.46"
      markerHeight="6.09"
      viewBox="0 0 9.95 8.12"
      refX="2.36"
      refY="4.06"
      orient="auto-start-reverse"
    >
      <path
        d="M9.95 4.06 0 8.12 2.36 4.06 0 0 9.95 4.06z"
        fill="#f242ad"
        fill-opacity="1"
      />
    </marker>
    <filter
      id="quaternion-cayley-graph__7:11:orientedPath-shadow"
      x="0"
      y="0"
      width="200%"
      height="200%"
    >
      <feOffset result="offOut" in="SourceAlpha" dx="5" dy="5" />
      <feGaussianBlur result="blurOut" in="offOut" stdDeviation="4" />
      <feBlend in="SourceGraphic" in2="blurOut" mode="normal" />
      <feComponentTransfer>
        <feFuncA type="linear" slope="0.5" />
      </feComponentTransfer>
      <feMerge>
        <feMergeNode />
        <feMergeNode in="SourceGraphic" />
      </feMerge>
    </filter>
    <path
      fill="none"
      stroke="#f242ad"
      stroke-opacity="1"
      stroke-width="1"
      stroke-linecap="butt"
      d="M 130.5629604773452 110.2325598323831 Q 117.19489233384971 94.93028407743893 115.1399443497769 75.62634463616824"
      marker-end="url(#quaternion-cayley-graph__7:11:orientedPath-endArrowId)"
    />
    <title>7:11:orientedPath</title>
  </g>
  <g>
    <filter
      id="quaternion-cayley-graph__8:0:pathOutline-shadow"
      x="0"
      y="0"
      width="200%"
      height="200%"
    >
      <feOffset result="offOut" in="SourceAlpha" dx="5" dy="5" />
      <feGaussianBlur result="blurOut" in="offOut" stdDeviation="4" />
      <feBlend in="SourceGraphic" in2="blurOut" mode="normal" />
      <feComponentTransfer>
        <feFuncA type="linear" slope="0.5" />
      </feComponentTransfer>
      <feMerge>
        <feMergeNode />
        <feMergeNode in="SourceGraphic" />
      </feMerge>
    </filter>
    <path
      fill="none"
      stroke="#ffffff"
      stroke-opacity="1"
      stroke-width="3"
      stroke-linecap="butt"
      d="M 116.3567031230281 151.41418391178024 Q 108.09651666356572 113.45513059915965 111.83393403494286 75.25628087658832"
    />
    <title>8:0:pathOutline</title>
  </g>
  <g>
    <marker
      id="quaternion-cayley-graph__8:0:orientedPath-endArrowId"
      markerUnits="strokeWidth"
      markerWidth="7.46"
      markerHeight="6.09"
      viewBox="0 0 9.95 8.12"
      refX="2.36"
      refY="4.06"
      orient="auto-start-reverse"
    >
      <path
        d="M9.95 4.06 0 8.12 2.36 4.06 0 0 9.95 4.06z"
        fill="#88904d"
        fill-opacity="1"
      />
    </marker>
    <filter
      id="quaternion-cayley-graph__8:0:orientedPath-shadow"
      x="0"
      y="0"
      width="200%"
      height="200%"
    >
      <feOffset result="offOut" in="SourceAlpha" dx="5" dy="5" />
      <feGaussianBlur result="blurOut" in="offOut" stdDeviation="4" />
      <feBlend in="SourceGraphic" in2="blurOut" mode="normal" />
      <feComponentTransfer>
        <feFuncA type="linear" slope="0.5" />
      </feComponentTransfer>
      <feMerge>
        <feMergeNode />
        <feMergeNode in="SourceGraphic" />
      </feMerge>
    </filter>
    <path
      fill="none"
      stroke="#88904d"
      stroke-opacity="1"
      stroke-width="1"
      stroke-linecap="butt"
      d="M 116.3567031230281 151.41418391178024 Q 108.09651666356572 113.45513059915965 111.83393403494286 75.25628087658832"
      marker-end="url(#quaternion-cayley-graph__8:0:orientedPath-endArrowId)"
    />
    <title>8:0:orientedPath</title>
  </g>
  <g>
    <filter
      id="quaternion-cayley-graph__7:3:pathOutline-shadow"
      x="0"
      y="0"
      width="200%"
      height="200%"
    >
      <feOffset result="offOut" in="SourceAlpha" dx="5" dy="5" />
      <feGaussianBlur result="blurOut" in="offOut" stdDeviation="4" />
      <feBlend in="SourceGraphic" in2="blurOut" mode="normal" />
      <feComponentTransfer>
        <feFuncA type="linear" slope="0.5" />
      </feComponentTransfer>
      <feMerge>
        <feMergeNode />
        <feMergeNode in="SourceGraphic" />
      </feMerge>
    </filter>
    <path
      fill="none"
      stroke="#ffffff"
      stroke-opacity="1"
      stroke-width="3"
      stroke-linecap="butt"
      d="M 42.033661436813404 119.97395187434525 Q 77.51222839785717 126.83869290208426 108.31563658877188 144.75526140196948"
    />
    <title>7:3:pathOutline</title>
  </g>
  <g>
    <marker
      id="quaternion-cayley-graph__7:3:orientedPath-endArrowId"
      markerUnits="strokeWidth"
      markerWidth="7.46"
      markerHeight="6.09"
      viewBox="0 0 9.95 8.12"
      refX="2.36"
      refY="4.06"
      orient="auto-start-reverse"
    >
      <path
        d="M9.95 4.06 0 8.12 2.36 4.06 0 0 9.95 4.06z"
        fill="#88904d"
        fill-opacity="1"
      />
    </marker>
    <filter
      id="quaternion-cayley-graph__7:3:orientedPath-shadow"
      x="0"
      y="0"
      width="200%"
      height="200%"
    >
      <feOffset result="offOut" in="SourceAlpha" dx="5" dy="5" />
      <feGaussianBlur result="blurOut" in="offOut" stdDeviation="4" />
      <feBlend in="SourceGraphic" in2="blurOut" mode="normal" />
      <feComponentTransfer>
        <feFuncA type="linear" slope="0.5" />
      </feComponentTransfer>
      <feMerge>
        <feMergeNode />
        <feMergeNode in="SourceGraphic" />
      </feMerge>
    </filter>
    <path
      fill="none"
      stroke="#88904d"
      stroke-opacity="1"
      stroke-width="1"
      stroke-linecap="butt"
      d="M 42.033661436813404 119.97395187434525 Q 77.51222839785717 126.83869290208426 108.31563658877188 144.75526140196948"
      marker-end="url(#quaternion-cayley-graph__7:3:orientedPath-endArrowId)"
    />
    <title>7:3:orientedPath</title>
  </g>
  <circle
    fill="#000000"
    fill-opacity="0.1"
    cx="116.3567031230281"
    cy="151.41418391178024"
    stroke="none"
    r="7.5"
  >
    <title>4:0:identityMarker</title>
  </circle>
  <g>
    <filter
      id="quaternion-cayley-graph__7:6:pathOutline-shadow"
      x="0"
      y="0"
      width="200%"
      height="200%"
    >
      <feOffset result="offOut" in="SourceAlpha" dx="5" dy="5" />
      <feGaussianBlur result="blurOut" in="offOut" stdDeviation="4" />
      <feBlend in="SourceGraphic" in2="blurOut" mode="normal" />
      <feComponentTransfer>
        <feFuncA type="linear" slope="0.5" />
      </feComponentTransfer>
      <feMerge>
        <feMergeNode />
        <feMergeNode in="SourceGraphic" />
      </feMerge>
    </filter>
    <path
      fill="none"
      stroke="#ffffff"
      stroke-opacity="1"
      stroke-width="3"
      stroke-linecap="butt"
      d="M 114.63350465102714 65.19832858173439 Q 77.8712702910393 77.75453232854173 39.49578699537865 78.4196710317312"
    />
    <title>7:6:pathOutline</title>
  </g>
  <g>
    <marker
      id="quaternion-cayley-graph__7:6:orientedPath-endArrowId"
      markerUnits="strokeWidth"
      markerWidth="7.46"
      markerHeight="6.09"
      viewBox="0 0 9.95 8.12"
      refX="2.36"
      refY="4.06"
      orient="auto-start-reverse"
    >
      <path
        d="M9.95 4.06 0 8.12 2.36 4.06 0 0 9.95 4.06z"
        fill="#f242ad"
        fill-opacity="1"
      />
    </marker>
    <filter
      id="quaternion-cayley-graph__7:6:orientedPath-shadow"
      x="0"
      y="0"
      width="200%"
      height="200%"
    >
      <feOffset result="offOut" in="SourceAlpha" dx="5" dy="5" />
      <feGaussianBlur result="blurOut" in="offOut" stdDeviation="4" />
      <feBlend in="SourceGraphic" in2="blurOut" mode="normal" />
      <feComponentTransfer>
        <feFuncA type="linear" slope="0.5" />
      </feComponentTransfer>
      <feMerge>
        <feMergeNode />
        <feMergeNode in="SourceGraphic" />
      </feMerge>
    </filter>
    <path
      fill="none"
      stroke="#f242ad"
      stroke-opacity="1"
      stroke-width="1"
      stroke-linecap="butt"
      d="M 114.63350465102714 65.19832858173439 Q 77.8712702910393 77.75453232854173 39.49578699537865 78.4196710317312"
      marker-end="url(#quaternion-cayley-graph__7:6:orientedPath-endArrowId)"
    />
    <title>7:6:orientedPath</title>
  </g>
  <circle
    fill="#cccccc"
    fill-opacity="1"
    cx="116.3567031230281"
    cy="151.41418391178024"
    stroke="#999999"
    stroke-opacity="1"
    stroke-width="0.55"
    r="5"
  >
    <title>`g1`.icon</title>
  </circle>
  <g
    transform="rotate(0, 116.3567031230281, 151.41418391178024)translate(115.1067031230281, 149.74918391178025)"
  >
    <title>`g1`.labelText</title>
    <svg
      style="font-size: 5px"
      xmlns="http://www.w3.org/2000/svg"
      width="2.5"
      height="3.33"
      role="img"
      focusable="false"
      viewBox="0 -666 500 666"
    >
      <g
        stroke="none"
        fill="#666666"
        stroke-width="0"
        transform="scale(1,-1)"
        fill-opacity="1"
      >
        <g data-mml-node="math">
          <g data-mml-node="mn">
            <path
              data-c="31"
              d="M213 578L200 573Q186 568 160 563T102 556H83V602H102Q149 604 189 617T245 641T273 663Q275 666 285 666Q294 666 302 660V361L303 61Q310 54 315 52T339 48T401 46H427V0H416Q395 3 257 3Q121 3 100 0H88V46H114Q136 46 152 46T177 47T193 50T201 52T207 57T213 61V578Z"
            />
          </g>
        </g>
      </g>
    </svg>
  </g>
  <circle
    fill="#88904d"
    fill-opacity="1"
    cx="114.63350465102714"
    cy="65.19832858173439"
    stroke="#5f6536"
    stroke-opacity="1"
    stroke-width="0.55"
    r="5"
  >
    <title>`g2`.icon</title>
  </circle>
  <g
    transform="rotate(0, 114.63350465102714, 65.19832858173439)translate(113.77100465102714, 63.51832858173439)"
  >
    <title>`g2`.labelText</title>
    <svg
      style="font-size: 5px"
      xmlns="http://www.w3.org/2000/svg"
      width="1.7249999999999999"
      height="3.3600000000000003"
      role="img"
      focusable="false"
      viewBox="0 -661 345 672"
    >
      <g
        stroke="none"
        fill="#5f6536"
        stroke-width="0"
        transform="scale(1,-1)"
        fill-opacity="1"
      >
        <g data-mml-node="math">
          <g data-mml-node="mi">
            <path
              data-c="1D456"
              d="M184 600Q184 624 203 642T247 661Q265 661 277 649T290 619Q290 596 270 577T226 557Q211 557 198 567T184 600ZM21 287Q21 295 30 318T54 369T98 420T158 442Q197 442 223 419T250 357Q250 340 236 301T196 196T154 83Q149 61 149 51Q149 26 166 26Q175 26 185 29T208 43T235 78T260 137Q263 149 265 151T282 153Q302 153 302 143Q302 135 293 112T268 61T223 11T161 -11Q129 -11 102 10T74 74Q74 91 79 106T122 220Q160 321 166 341T173 380Q173 404 156 404H154Q124 404 99 371T61 287Q60 286 59 284T58 281T56 279T53 278T49 278T41 278H27Q21 284 21 287Z"
            />
          </g>
        </g>
      </g>
    </svg>
  </g>
  <circle
    fill="#f242ad"
    fill-opacity="1"
    cx="84.40616141774353"
    cy="100.50946062019044"
    stroke="#a92f79"
    stroke-opacity="1"
    stroke-width="0.55"
    r="5"
  >
    <title>`g3`.icon</title>
  </circle>
  <g
    transform="rotate(0, 84.40616141774353, 100.50946062019044)translate(83.37616141774353, 98.34696062019044)"
  >
    <title>`g3`.labelText</title>
    <svg
      style="font-size: 5px"
      xmlns="http://www.w3.org/2000/svg"
      width="2.06"
      height="4.325"
      role="img"
      focusable="false"
      viewBox="0 -661 412 865"
    >
      <g
        stroke="none"
        fill="#a92f79"
        stroke-width="0"
        transform="scale(1,-1)"
        fill-opacity="1"
      >
        <g data-mml-node="math">
          <g data-mml-node="mi">
            <path
              data-c="1D457"
              d="M297 596Q297 627 318 644T361 661Q378 661 389 651T403 623Q403 595 384 576T340 557Q322 557 310 567T297 596ZM288 376Q288 405 262 405Q240 405 220 393T185 362T161 325T144 293L137 279Q135 278 121 278H107Q101 284 101 286T105 299Q126 348 164 391T252 441Q253 441 260 441T272 442Q296 441 316 432Q341 418 354 401T367 348V332L318 133Q267 -67 264 -75Q246 -125 194 -164T75 -204Q25 -204 7 -183T-12 -137Q-12 -110 7 -91T53 -71Q70 -71 82 -81T95 -112Q95 -148 63 -167Q69 -168 77 -168Q111 -168 139 -140T182 -74L193 -32Q204 11 219 72T251 197T278 308T289 365Q289 372 288 376Z"
            />
          </g>
        </g>
      </g>
    </svg>
  </g>
  <circle
    fill="#cccccc"
    fill-opacity="1"
    cx="29.183253891778904"
    cy="76.7912788838874"
    stroke="#999999"
    stroke-opacity="1"
    stroke-width="0.55"
    r="5"
  >
    <title>`g4`.icon</title>
  </circle>
  <g
    transform="rotate(0, 29.183253891778904, 76.7912788838874)translate(27.880753891778905, 75.0287788838874)"
  >
    <title>`g4`.labelText</title>
    <svg
      style="font-size: 5px"
      xmlns="http://www.w3.org/2000/svg"
      width="2.605"
      height="3.525"
      role="img"
      focusable="false"
      viewBox="0 -694 521 705"
    >
      <g
        stroke="none"
        fill="#666666"
        stroke-width="0"
        transform="scale(1,-1)"
        fill-opacity="1"
      >
        <g data-mml-node="math">
          <g data-mml-node="mi">
            <path
              data-c="1D458"
              d="M121 647Q121 657 125 670T137 683Q138 683 209 688T282 694Q294 694 294 686Q294 679 244 477Q194 279 194 272Q213 282 223 291Q247 309 292 354T362 415Q402 442 438 442Q468 442 485 423T503 369Q503 344 496 327T477 302T456 291T438 288Q418 288 406 299T394 328Q394 353 410 369T442 390L458 393Q446 405 434 405H430Q398 402 367 380T294 316T228 255Q230 254 243 252T267 246T293 238T320 224T342 206T359 180T365 147Q365 130 360 106T354 66Q354 26 381 26Q429 26 459 145Q461 153 479 153H483Q499 153 499 144Q499 139 496 130Q455 -11 378 -11Q333 -11 305 15T277 90Q277 108 280 121T283 145Q283 167 269 183T234 206T200 217T182 220H180Q168 178 159 139T145 81T136 44T129 20T122 7T111 -2Q98 -11 83 -11Q66 -11 57 -1T48 16Q48 26 85 176T158 471L195 616Q196 629 188 632T149 637H144Q134 637 131 637T124 640T121 647Z"
            />
          </g>
        </g>
      </g>
    </svg>
  </g>
  <circle
    fill="#cccccc"
    fill-opacity="1"
    cx="67.68146237550495"
    cy="56.4042193821886"
    stroke="#999999"
    stroke-opacity="1"
    stroke-width="0.55"
    r="5"
  >
    <title>`g5`.icon</title>
  </circle>
  <g
    transform="rotate(0, 67.68146237550495, 56.4042193821886)translate(64.48646237550494, 54.5342193821886)"
  >
    <title>`g5`.labelText</title>
    <svg
      style="font-size: 5px"
      xmlns="http://www.w3.org/2000/svg"
      width="6.390000000000001"
      height="3.74"
      role="img"
      focusable="false"
      viewBox="0 -666 1278 748"
    >
      <g
        stroke="none"
        fill="#666666"
        stroke-width="0"
        transform="scale(1,-1)"
        fill-opacity="1"
      >
        <g data-mml-node="math">
          <g data-mml-node="mo">
            <path
              data-c="2212"
              d="M84 237T84 250T98 270H679Q694 262 694 250T679 230H98Q84 237 84 250Z"
            />
          </g>
          <g data-mml-node="mn" transform="translate(778,0)">
            <path
              data-c="31"
              d="M213 578L200 573Q186 568 160 563T102 556H83V602H102Q149 604 189 617T245 641T273 663Q275 666 285 666Q294 666 302 660V361L303 61Q310 54 315 52T339 48T401 46H427V0H416Q395 3 257 3Q121 3 100 0H88V46H114Q136 46 152 46T177 47T193 50T201 52T207 57T213 61V578Z"
            />
          </g>
        </g>
      </g>
    </svg>
  </g>
  <circle
    fill="#cccccc"
    fill-opacity="1"
    cx="42.033661436813404"
    cy="119.97395187434525"
    stroke="#999999"
    stroke-opacity="1"
    stroke-width="0.55"
    r="5"
  >
    <title>`g6`.icon</title>
  </circle>
  <g
    transform="rotate(0, 42.033661436813404, 119.97395187434525)translate(39.226161436813406, 118.11645187434524)"
  >
    <title>`g6`.labelText</title>
    <svg
      style="font-size: 5px"
      xmlns="http://www.w3.org/2000/svg"
      width="5.615"
      height="3.715"
      role="img"
      focusable="false"
      viewBox="0 -661 1123 743"
    >
      <g
        stroke="none"
        fill="#666666"
        stroke-width="0"
        transform="scale(1,-1)"
        fill-opacity="1"
      >
        <g data-mml-node="math">
          <g data-mml-node="mo">
            <path
              data-c="2212"
              d="M84 237T84 250T98 270H679Q694 262 694 250T679 230H98Q84 237 84 250Z"
            />
          </g>
          <g data-mml-node="mi" transform="translate(778,0)">
            <path
              data-c="1D456"
              d="M184 600Q184 624 203 642T247 661Q265 661 277 649T290 619Q290 596 270 577T226 557Q211 557 198 567T184 600ZM21 287Q21 295 30 318T54 369T98 420T158 442Q197 442 223 419T250 357Q250 340 236 301T196 196T154 83Q149 61 149 51Q149 26 166 26Q175 26 185 29T208 43T235 78T260 137Q263 149 265 151T282 153Q302 153 302 143Q302 135 293 112T268 61T223 11T161 -11Q129 -11 102 10T74 74Q74 91 79 106T122 220Q160 321 166 341T173 380Q173 404 156 404H154Q124 404 99 371T61 287Q60 286 59 284T58 281T56 279T53 278T49 278T41 278H27Q21 284 21 287Z"
            />
          </g>
        </g>
      </g>
    </svg>
  </g>
  <circle
    fill="#cccccc"
    fill-opacity="1"
    cx="71.7089262975119"
    cy="145.37674475097558"
    stroke="#999999"
    stroke-opacity="1"
    stroke-width="0.55"
    r="5"
  >
    <title>`g7`.icon</title>
  </circle>
  <g
    transform="rotate(0, 71.7089262975119, 145.37674475097558)translate(68.7339262975119, 143.21424475097558)"
  >
    <title>`g7`.labelText</title>
    <svg
      style="font-size: 5px"
      xmlns="http://www.w3.org/2000/svg"
      width="5.949999999999999"
      height="4.325"
      role="img"
      focusable="false"
      viewBox="0 -661 1190 865"
    >
      <g
        stroke="none"
        fill="#666666"
        stroke-width="0"
        transform="scale(1,-1)"
        fill-opacity="1"
      >
        <g data-mml-node="math">
          <g data-mml-node="mo">
            <path
              data-c="2212"
              d="M84 237T84 250T98 270H679Q694 262 694 250T679 230H98Q84 237 84 250Z"
            />
          </g>
          <g data-mml-node="mi" transform="translate(778,0)">
            <path
              data-c="1D457"
              d="M297 596Q297 627 318 644T361 661Q378 661 389 651T403 623Q403 595 384 576T340 557Q322 557 310 567T297 596ZM288 376Q288 405 262 405Q240 405 220 393T185 362T161 325T144 293L137 279Q135 278 121 278H107Q101 284 101 286T105 299Q126 348 164 391T252 441Q253 441 260 441T272 442Q296 441 316 432Q341 418 354 401T367 348V332L318 133Q267 -67 264 -75Q246 -125 194 -164T75 -204Q25 -204 7 -183T-12 -137Q-12 -110 7 -91T53 -71Q70 -71 82 -81T95 -112Q95 -148 63 -167Q69 -168 77 -168Q111 -168 139 -140T182 -74L193 -32Q204 11 219 72T251 197T278 308T289 365Q289 372 288 376Z"
            />
          </g>
        </g>
      </g>
    </svg>
  </g>
  <circle
    fill="#cccccc"
    fill-opacity="1"
    cx="130.5629604773452"
    cy="110.2325598323831"
    stroke="#999999"
    stroke-opacity="1"
    stroke-width="0.55"
    r="5"
  >
    <title>`g8`.icon</title>
  </circle>
  <g
    transform="rotate(0, 130.5629604773452, 110.2325598323831)translate(127.3154604773452, 108.2925598323831)"
  >
    <title>`g8`.labelText</title>
    <svg
      style="font-size: 5px"
      xmlns="http://www.w3.org/2000/svg"
      width="6.494999999999999"
      height="3.88"
      role="img"
      focusable="false"
      viewBox="0 -694 1299 776"
    >
      <g
        stroke="none"
        fill="#666666"
        stroke-width="0"
        transform="scale(1,-1)"
        fill-opacity="1"
      >
        <g data-mml-node="math">
          <g data-mml-node="mo">
            <path
              data-c="2212"
              d="M84 237T84 250T98 270H679Q694 262 694 250T679 230H98Q84 237 84 250Z"
            />
          </g>
          <g data-mml-node="mi" transform="translate(778,0)">
            <path
              data-c="1D458"
              d="M121 647Q121 657 125 670T137 683Q138 683 209 688T282 694Q294 694 294 686Q294 679 244 477Q194 279 194 272Q213 282 223 291Q247 309 292 354T362 415Q402 442 438 442Q468 442 485 423T503 369Q503 344 496 327T477 302T456 291T438 288Q418 288 406 299T394 328Q394 353 410 369T442 390L458 393Q446 405 434 405H430Q398 402 367 380T294 316T228 255Q230 254 243 252T267 246T293 238T320 224T342 206T359 180T365 147Q365 130 360 106T354 66Q354 26 381 26Q429 26 459 145Q461 153 479 153H483Q499 153 499 144Q499 139 496 130Q455 -11 378 -11Q333 -11 305 15T277 90Q277 108 280 121T283 145Q283 167 269 183T234 206T200 217T182 220H180Q168 178 159 139T145 81T136 44T129 20T122 7T111 -2Q98 -11 83 -11Q66 -11 57 -1T48 16Q48 26 85 176T158 471L195 616Q196 629 188 632T149 637H144Q134 637 131 637T124 640T121 647Z"
            />
          </g>
        </g>
      </g>
    </svg>
  </g>
</svg>
