<svg
  version="1.2"
  xmlns="http://www.w3.org/2000/svg"
  viewBox="0 0 240 200"
  penrose="0"
>
  <penrose>
    <croppedViewBox>
      23.908291489882956 51.129206287387625 111.9296292709467 107.78496809794686
    </croppedViewBox>
  </penrose>
  <g>
    <filter
      id="quaternion-cayley-graph__9:1:pathOutline-shadow"
      x="0"
      y="0"
      width="200%"
      height="200%"
    >
      <feOffset result="offOut" in="SourceAlpha" dx="5" dy="5" />
      <feGaussianBlur result="blurOut" in="offOut" stdDeviation="4" />
      <feBlend in="SourceGraphic" in2="blurOut" mode="normal" />
      <feComponentTransfer>
        <feFuncA type="linear" slope="0.5" />
      </feComponentTransfer>
      <feMerge>
        <feMergeNode />
        <feMergeNode in="SourceGraphic" />
      </feMerge>
    </filter>
    <path
      fill="none"
      stroke="#ffffff"
      stroke-opacity="1"
      stroke-width="3"
      stroke-linecap="butt"
      d="M 84.40613155387712 100.50946161393605 Q 70.80387870627743 85.79121661136237 68.42201177217308 66.8182166273314"
    />
    <title>9:1:pathOutline</title>
  </g>
  <g>
    <marker
      id="quaternion-cayley-graph__9:1:orientedPath-endArrowId"
      markerUnits="strokeWidth"
      markerWidth="7.46"
      markerHeight="6.09"
      viewBox="0 0 9.95 8.12"
      refX="2.36"
      refY="4.06"
      orient="auto-start-reverse"
    >
      <path
        d="M9.95 4.06 0 8.12 2.36 4.06 0 0 9.95 4.06z"
        fill="#f242ad"
        fill-opacity="1"
      />
    </marker>
    <filter
      id="quaternion-cayley-graph__9:1:orientedPath-shadow"
      x="0"
      y="0"
      width="200%"
      height="200%"
    >
      <feOffset result="offOut" in="SourceAlpha" dx="5" dy="5" />
      <feGaussianBlur result="blurOut" in="offOut" stdDeviation="4" />
      <feBlend in="SourceGraphic" in2="blurOut" mode="normal" />
      <feComponentTransfer>
        <feFuncA type="linear" slope="0.5" />
      </feComponentTransfer>
      <feMerge>
        <feMergeNode />
        <feMergeNode in="SourceGraphic" />
      </feMerge>
    </filter>
    <path
      fill="none"
      stroke="#f242ad"
      stroke-opacity="1"
      stroke-width="1"
      stroke-linecap="butt"
      d="M 84.40613155387712 100.50946161393605 Q 70.80387870627743 85.79121661136237 68.42201177217308 66.8182166273314"
      marker-end="url(#quaternion-cayley-graph__9:1:orientedPath-endArrowId)"
    />
    <title>9:1:orientedPath</title>
  </g>
  <g>
    <filter
      id="quaternion-cayley-graph__7:1:pathOutline-shadow"
      x="0"
      y="0"
      width="200%"
      height="200%"
    >
      <feOffset result="offOut" in="SourceAlpha" dx="5" dy="5" />
      <feGaussianBlur result="blurOut" in="offOut" stdDeviation="4" />
      <feBlend in="SourceGraphic" in2="blurOut" mode="normal" />
      <feComponentTransfer>
        <feFuncA type="linear" slope="0.5" />
      </feComponentTransfer>
      <feMerge>
        <feMergeNode />
        <feMergeNode in="SourceGraphic" />
      </feMerge>
    </filter>
    <path
      fill="none"
      stroke="#ffffff"
      stroke-opacity="1"
      stroke-width="3"
      stroke-linecap="butt"
      d="M 29.18329148988296 76.79129479641908 Q 55.1603264659563 79.78591062449496 76.40168882901031 93.8065595063168"
    />
    <title>7:1:pathOutline</title>
  </g>
  <g>
    <marker
      id="quaternion-cayley-graph__7:1:orientedPath-endArrowId"
      markerUnits="strokeWidth"
      markerWidth="7.46"
      markerHeight="6.09"
      viewBox="0 0 9.95 8.12"
      refX="2.36"
      refY="4.06"
      orient="auto-start-reverse"
    >
      <path
        d="M9.95 4.06 0 8.12 2.36 4.06 0 0 9.95 4.06z"
        fill="#88904d"
        fill-opacity="1"
      />
    </marker>
    <filter
      id="quaternion-cayley-graph__7:1:orientedPath-shadow"
      x="0"
      y="0"
      width="200%"
      height="200%"
    >
      <feOffset result="offOut" in="SourceAlpha" dx="5" dy="5" />
      <feGaussianBlur result="blurOut" in="offOut" stdDeviation="4" />
      <feBlend in="SourceGraphic" in2="blurOut" mode="normal" />
      <feComponentTransfer>
        <feFuncA type="linear" slope="0.5" />
      </feComponentTransfer>
      <feMerge>
        <feMergeNode />
        <feMergeNode in="SourceGraphic" />
      </feMerge>
    </filter>
    <path
      fill="none"
      stroke="#88904d"
      stroke-opacity="1"
      stroke-width="1"
      stroke-linecap="butt"
      d="M 29.18329148988296 76.79129479641908 Q 55.1603264659563 79.78591062449496 76.40168882901031 93.8065595063168"
      marker-end="url(#quaternion-cayley-graph__7:1:orientedPath-endArrowId)"
    />
    <title>7:1:orientedPath</title>
  </g>
  <g>
    <filter
      id="quaternion-cayley-graph__7:9:pathOutline-shadow"
      x="0"
      y="0"
      width="200%"
      height="200%"
    >
      <feOffset result="offOut" in="SourceAlpha" dx="5" dy="5" />
      <feGaussianBlur result="blurOut" in="offOut" stdDeviation="4" />
      <feBlend in="SourceGraphic" in2="blurOut" mode="normal" />
      <feComponentTransfer>
        <feFuncA type="linear" slope="0.5" />
      </feComponentTransfer>
      <feMerge>
        <feMergeNode />
        <feMergeNode in="SourceGraphic" />
      </feMerge>
    </filter>
    <path
      fill="none"
      stroke="#ffffff"
      stroke-opacity="1"
      stroke-width="3"
      stroke-linecap="butt"
      d="M 42.033625957213715 119.97399359037225 Q 80.50794887982593 108.19514542046282 120.29478766877735 108.3443022011144"
    />
    <title>7:9:pathOutline</title>
  </g>
  <g>
    <marker
      id="quaternion-cayley-graph__7:9:orientedPath-endArrowId"
      markerUnits="strokeWidth"
      markerWidth="7.46"
      markerHeight="6.09"
      viewBox="0 0 9.95 8.12"
      refX="2.36"
      refY="4.06"
      orient="auto-start-reverse"
    >
      <path
        d="M9.95 4.06 0 8.12 2.36 4.06 0 0 9.95 4.06z"
        fill="#f242ad"
        fill-opacity="1"
      />
    </marker>
    <filter
      id="quaternion-cayley-graph__7:9:orientedPath-shadow"
      x="0"
      y="0"
      width="200%"
      height="200%"
    >
      <feOffset result="offOut" in="SourceAlpha" dx="5" dy="5" />
      <feGaussianBlur result="blurOut" in="offOut" stdDeviation="4" />
      <feBlend in="SourceGraphic" in2="blurOut" mode="normal" />
      <feComponentTransfer>
        <feFuncA type="linear" slope="0.5" />
      </feComponentTransfer>
      <feMerge>
        <feMergeNode />
        <feMergeNode in="SourceGraphic" />
      </feMerge>
    </filter>
    <path
      fill="none"
      stroke="#f242ad"
      stroke-opacity="1"
      stroke-width="1"
      stroke-linecap="butt"
      d="M 42.033625957213715 119.97399359037225 Q 80.50794887982593 108.19514542046282 120.29478766877735 108.3443022011144"
      marker-end="url(#quaternion-cayley-graph__7:9:orientedPath-endArrowId)"
    />
    <title>7:9:orientedPath</title>
  </g>
  <g>
    <filter
      id="quaternion-cayley-graph__7:2:pathOutline-shadow"
      x="0"
      y="0"
      width="200%"
      height="200%"
    >
      <feOffset result="offOut" in="SourceAlpha" dx="5" dy="5" />
      <feGaussianBlur result="blurOut" in="offOut" stdDeviation="4" />
      <feBlend in="SourceGraphic" in2="blurOut" mode="normal" />
      <feComponentTransfer>
        <feFuncA type="linear" slope="0.5" />
      </feComponentTransfer>
      <feMerge>
        <feMergeNode />
        <feMergeNode in="SourceGraphic" />
      </feMerge>
    </filter>
    <path
      fill="none"
      stroke="#ffffff"
      stroke-opacity="1"
      stroke-width="3"
      stroke-linecap="butt"
      d="M 67.6814790993325 56.40420628738762 Q 63.68357383858424 86.35843125505595 48.55727425220593 111.82279656642262"
    />
    <title>7:2:pathOutline</title>
  </g>
  <g>
    <marker
      id="quaternion-cayley-graph__7:2:orientedPath-endArrowId"
      markerUnits="strokeWidth"
      markerWidth="7.46"
      markerHeight="6.09"
      viewBox="0 0 9.95 8.12"
      refX="2.36"
      refY="4.06"
      orient="auto-start-reverse"
    >
      <path
        d="M9.95 4.06 0 8.12 2.36 4.06 0 0 9.95 4.06z"
        fill="#88904d"
        fill-opacity="1"
      />
    </marker>
    <filter
      id="quaternion-cayley-graph__7:2:orientedPath-shadow"
      x="0"
      y="0"
      width="200%"
      height="200%"
    >
      <feOffset result="offOut" in="SourceAlpha" dx="5" dy="5" />
      <feGaussianBlur result="blurOut" in="offOut" stdDeviation="4" />
      <feBlend in="SourceGraphic" in2="blurOut" mode="normal" />
      <feComponentTransfer>
        <feFuncA type="linear" slope="0.5" />
      </feComponentTransfer>
      <feMerge>
        <feMergeNode />
        <feMergeNode in="SourceGraphic" />
      </feMerge>
    </filter>
    <path
      fill="none"
      stroke="#88904d"
      stroke-opacity="1"
      stroke-width="1"
      stroke-linecap="butt"
      d="M 67.6814790993325 56.40420628738762 Q 63.68357383858424 86.35843125505595 48.55727425220593 111.82279656642262"
      marker-end="url(#quaternion-cayley-graph__7:2:orientedPath-endArrowId)"
    />
    <title>7:2:orientedPath</title>
  </g>
  <g>
    <filter
      id="quaternion-cayley-graph__8:1:pathOutline-shadow"
      x="0"
      y="0"
      width="200%"
      height="200%"
    >
      <feOffset result="offOut" in="SourceAlpha" dx="5" dy="5" />
      <feGaussianBlur result="blurOut" in="offOut" stdDeviation="4" />
      <feBlend in="SourceGraphic" in2="blurOut" mode="normal" />
      <feComponentTransfer>
        <feFuncA type="linear" slope="0.5" />
      </feComponentTransfer>
      <feMerge>
        <feMergeNode />
        <feMergeNode in="SourceGraphic" />
      </feMerge>
    </filter>
    <path
      fill="none"
      stroke="#ffffff"
      stroke-opacity="1"
      stroke-width="3"
      stroke-linecap="butt"
      d="M 116.35671822244373 151.4141743853345 Q 96.68710323520267 134.18386078257475 87.18132228787015 110.57416808705088"
    />
    <title>8:1:pathOutline</title>
  </g>
  <g>
    <marker
      id="quaternion-cayley-graph__8:1:orientedPath-endArrowId"
      markerUnits="strokeWidth"
      markerWidth="7.46"
      markerHeight="6.09"
      viewBox="0 0 9.95 8.12"
      refX="2.36"
      refY="4.06"
      orient="auto-start-reverse"
    >
      <path
        d="M9.95 4.06 0 8.12 2.36 4.06 0 0 9.95 4.06z"
        fill="#f242ad"
        fill-opacity="1"
      />
    </marker>
    <filter
      id="quaternion-cayley-graph__8:1:orientedPath-shadow"
      x="0"
      y="0"
      width="200%"
      height="200%"
    >
      <feOffset result="offOut" in="SourceAlpha" dx="5" dy="5" />
      <feGaussianBlur result="blurOut" in="offOut" stdDeviation="4" />
      <feBlend in="SourceGraphic" in2="blurOut" mode="normal" />
      <feComponentTransfer>
        <feFuncA type="linear" slope="0.5" />
      </feComponentTransfer>
      <feMerge>
        <feMergeNode />
        <feMergeNode in="SourceGraphic" />
      </feMerge>
    </filter>
    <path
      fill="none"
      stroke="#f242ad"
      stroke-opacity="1"
      stroke-width="1"
      stroke-linecap="butt"
      d="M 116.35671822244373 151.4141743853345 Q 96.68710323520267 134.18386078257475 87.18132228787015 110.57416808705088"
      marker-end="url(#quaternion-cayley-graph__8:1:orientedPath-endArrowId)"
    />
    <title>8:1:orientedPath</title>
  </g>
  <g>
    <filter
      id="quaternion-cayley-graph__9:0:pathOutline-shadow"
      x="0"
      y="0"
      width="200%"
      height="200%"
    >
      <feOffset result="offOut" in="SourceAlpha" dx="5" dy="5" />
      <feGaussianBlur result="blurOut" in="offOut" stdDeviation="4" />
      <feBlend in="SourceGraphic" in2="blurOut" mode="normal" />
      <feComponentTransfer>
        <feFuncA type="linear" slope="0.5" />
      </feComponentTransfer>
      <feMerge>
        <feMergeNode />
        <feMergeNode in="SourceGraphic" />
      </feMerge>
    </filter>
    <path
      fill="none"
      stroke="#ffffff"
      stroke-opacity="1"
      stroke-width="3"
      stroke-linecap="butt"
      d="M 114.63351720279991 65.19831844014536 Q 94.69129811421358 69.09356348109573 76.95826143001483 61.19391500391103"
    />
    <title>9:0:pathOutline</title>
  </g>
  <g>
    <marker
      id="quaternion-cayley-graph__9:0:orientedPath-endArrowId"
      markerUnits="strokeWidth"
      markerWidth="7.46"
      markerHeight="6.09"
      viewBox="0 0 9.95 8.12"
      refX="2.36"
      refY="4.06"
      orient="auto-start-reverse"
    >
      <path
        d="M9.95 4.06 0 8.12 2.36 4.06 0 0 9.95 4.06z"
        fill="#88904d"
        fill-opacity="1"
      />
    </marker>
    <filter
      id="quaternion-cayley-graph__9:0:orientedPath-shadow"
      x="0"
      y="0"
      width="200%"
      height="200%"
    >
      <feOffset result="offOut" in="SourceAlpha" dx="5" dy="5" />
      <feGaussianBlur result="blurOut" in="offOut" stdDeviation="4" />
      <feBlend in="SourceGraphic" in2="blurOut" mode="normal" />
      <feComponentTransfer>
        <feFuncA type="linear" slope="0.5" />
      </feComponentTransfer>
      <feMerge>
        <feMergeNode />
        <feMergeNode in="SourceGraphic" />
      </feMerge>
    </filter>
    <path
      fill="none"
      stroke="#88904d"
      stroke-opacity="1"
      stroke-width="1"
      stroke-linecap="butt"
      d="M 114.63351720279991 65.19831844014536 Q 94.69129811421358 69.09356348109573 76.95826143001483 61.19391500391103"
      marker-end="url(#quaternion-cayley-graph__9:0:orientedPath-endArrowId)"
    />
    <title>9:0:orientedPath</title>
  </g>
  <g>
    <filter
      id="quaternion-cayley-graph__7:0:pathOutline-shadow"
      x="0"
      y="0"
      width="200%"
      height="200%"
    >
      <feOffset result="offOut" in="SourceAlpha" dx="5" dy="5" />
      <feGaussianBlur result="blurOut" in="offOut" stdDeviation="4" />
      <feBlend in="SourceGraphic" in2="blurOut" mode="normal" />
      <feComponentTransfer>
        <feFuncA type="linear" slope="0.5" />
      </feComponentTransfer>
      <feMerge>
        <feMergeNode />
        <feMergeNode in="SourceGraphic" />
      </feMerge>
    </filter>
    <path
      fill="none"
      stroke="#ffffff"
      stroke-opacity="1"
      stroke-width="3"
      stroke-linecap="butt"
      d="M 84.40613155387712 100.50946161393605 Q 104.13787325228046 97.00141822965888 121.39606172377738 105.23567165791634"
    />
    <title>7:0:pathOutline</title>
  </g>
  <g>
    <marker
      id="quaternion-cayley-graph__7:0:orientedPath-endArrowId"
      markerUnits="strokeWidth"
      markerWidth="7.46"
      markerHeight="6.09"
      viewBox="0 0 9.95 8.12"
      refX="2.36"
      refY="4.06"
      orient="auto-start-reverse"
    >
      <path
        d="M9.95 4.06 0 8.12 2.36 4.06 0 0 9.95 4.06z"
        fill="#88904d"
        fill-opacity="1"
      />
    </marker>
    <filter
      id="quaternion-cayley-graph__7:0:orientedPath-shadow"
      x="0"
      y="0"
      width="200%"
      height="200%"
    >
      <feOffset result="offOut" in="SourceAlpha" dx="5" dy="5" />
      <feGaussianBlur result="blurOut" in="offOut" stdDeviation="4" />
      <feBlend in="SourceGraphic" in2="blurOut" mode="normal" />
      <feComponentTransfer>
        <feFuncA type="linear" slope="0.5" />
      </feComponentTransfer>
      <feMerge>
        <feMergeNode />
        <feMergeNode in="SourceGraphic" />
      </feMerge>
    </filter>
    <path
      fill="none"
      stroke="#88904d"
      stroke-opacity="1"
      stroke-width="1"
      stroke-linecap="butt"
      d="M 84.40613155387712 100.50946161393605 Q 104.13787325228046 97.00141822965888 121.39606172377738 105.23567165791634"
      marker-end="url(#quaternion-cayley-graph__7:0:orientedPath-endArrowId)"
    />
    <title>7:0:orientedPath</title>
  </g>
  <g>
    <filter
      id="quaternion-cayley-graph__7:4:pathOutline-shadow"
      x="0"
      y="0"
      width="200%"
      height="200%"
    >
      <feOffset result="offOut" in="SourceAlpha" dx="5" dy="5" />
      <feGaussianBlur result="blurOut" in="offOut" stdDeviation="4" />
      <feBlend in="SourceGraphic" in2="blurOut" mode="normal" />
      <feComponentTransfer>
        <feFuncA type="linear" slope="0.5" />
      </feComponentTransfer>
      <feMerge>
        <feMergeNode />
        <feMergeNode in="SourceGraphic" />
      </feMerge>
    </filter>
    <path
      fill="none"
      stroke="#ffffff"
      stroke-opacity="1"
      stroke-width="3"
      stroke-linecap="butt"
      d="M 71.70894938429987 145.37673850701825 Q 46.70678032526649 119.28568328284291 31.90326490231554 86.87106387292376"
    />
    <title>7:4:pathOutline</title>
  </g>
  <g>
    <marker
      id="quaternion-cayley-graph__7:4:orientedPath-endArrowId"
      markerUnits="strokeWidth"
      markerWidth="7.46"
      markerHeight="6.09"
      viewBox="0 0 9.95 8.12"
      refX="2.36"
      refY="4.06"
      orient="auto-start-reverse"
    >
      <path
        d="M9.95 4.06 0 8.12 2.36 4.06 0 0 9.95 4.06z"
        fill="#88904d"
        fill-opacity="1"
      />
    </marker>
    <filter
      id="quaternion-cayley-graph__7:4:orientedPath-shadow"
      x="0"
      y="0"
      width="200%"
      height="200%"
    >
      <feOffset result="offOut" in="SourceAlpha" dx="5" dy="5" />
      <feGaussianBlur result="blurOut" in="offOut" stdDeviation="4" />
      <feBlend in="SourceGraphic" in2="blurOut" mode="normal" />
      <feComponentTransfer>
        <feFuncA type="linear" slope="0.5" />
      </feComponentTransfer>
      <feMerge>
        <feMergeNode />
        <feMergeNode in="SourceGraphic" />
      </feMerge>
    </filter>
    <path
      fill="none"
      stroke="#88904d"
      stroke-opacity="1"
      stroke-width="1"
      stroke-linecap="butt"
      d="M 71.70894938429987 145.37673850701825 Q 46.70678032526649 119.28568328284291 31.90326490231554 86.87106387292376"
      marker-end="url(#quaternion-cayley-graph__7:4:orientedPath-endArrowId)"
    />
    <title>7:4:orientedPath</title>
  </g>
  <g>
    <filter
      id="quaternion-cayley-graph__7:7:pathOutline-shadow"
      x="0"
      y="0"
      width="200%"
      height="200%"
    >
      <feOffset result="offOut" in="SourceAlpha" dx="5" dy="5" />
      <feGaussianBlur result="blurOut" in="offOut" stdDeviation="4" />
      <feBlend in="SourceGraphic" in2="blurOut" mode="normal" />
      <feComponentTransfer>
        <feFuncA type="linear" slope="0.5" />
      </feComponentTransfer>
      <feMerge>
        <feMergeNode />
        <feMergeNode in="SourceGraphic" />
      </feMerge>
    </filter>
    <path
      fill="none"
      stroke="#ffffff"
      stroke-opacity="1"
      stroke-width="3"
      stroke-linecap="butt"
      d="M 29.18329148988296 76.79129479641908 Q 41.370826002477514 91.45118523133534 42.05681475719828 109.53371283363226"
    />
    <title>7:7:pathOutline</title>
  </g>
  <g>
    <marker
      id="quaternion-cayley-graph__7:7:orientedPath-endArrowId"
      markerUnits="strokeWidth"
      markerWidth="7.46"
      markerHeight="6.09"
      viewBox="0 0 9.95 8.12"
      refX="2.36"
      refY="4.06"
      orient="auto-start-reverse"
    >
      <path
        d="M9.95 4.06 0 8.12 2.36 4.06 0 0 9.95 4.06z"
        fill="#f242ad"
        fill-opacity="1"
      />
    </marker>
    <filter
      id="quaternion-cayley-graph__7:7:orientedPath-shadow"
      x="0"
      y="0"
      width="200%"
      height="200%"
    >
      <feOffset result="offOut" in="SourceAlpha" dx="5" dy="5" />
      <feGaussianBlur result="blurOut" in="offOut" stdDeviation="4" />
      <feBlend in="SourceGraphic" in2="blurOut" mode="normal" />
      <feComponentTransfer>
        <feFuncA type="linear" slope="0.5" />
      </feComponentTransfer>
      <feMerge>
        <feMergeNode />
        <feMergeNode in="SourceGraphic" />
      </feMerge>
    </filter>
    <path
      fill="none"
      stroke="#f242ad"
      stroke-opacity="1"
      stroke-width="1"
      stroke-linecap="butt"
      d="M 29.18329148988296 76.79129479641908 Q 41.370826002477514 91.45118523133534 42.05681475719828 109.53371283363226"
      marker-end="url(#quaternion-cayley-graph__7:7:orientedPath-endArrowId)"
    />
    <title>7:7:orientedPath</title>
  </g>
  <g>
    <filter
      id="quaternion-cayley-graph__7:10:pathOutline-shadow"
      x="0"
      y="0"
      width="200%"
      height="200%"
    >
      <feOffset result="offOut" in="SourceAlpha" dx="5" dy="5" />
      <feGaussianBlur result="blurOut" in="offOut" stdDeviation="4" />
      <feBlend in="SourceGraphic" in2="blurOut" mode="normal" />
      <feComponentTransfer>
        <feFuncA type="linear" slope="0.5" />
      </feComponentTransfer>
      <feMerge>
        <feMergeNode />
        <feMergeNode in="SourceGraphic" />
      </feMerge>
    </filter>
    <path
      fill="none"
      stroke="#ffffff"
      stroke-opacity="1"
      stroke-width="3"
      stroke-linecap="butt"
      d="M 71.70894938429987 145.37673850701825 Q 90.08296045415706 140.29308021909563 106.84892263545403 147.1011913021287"
    />
    <title>7:10:pathOutline</title>
  </g>
  <g>
    <marker
      id="quaternion-cayley-graph__7:10:orientedPath-endArrowId"
      markerUnits="strokeWidth"
      markerWidth="7.46"
      markerHeight="6.09"
      viewBox="0 0 9.95 8.12"
      refX="2.36"
      refY="4.06"
      orient="auto-start-reverse"
    >
      <path
        d="M9.95 4.06 0 8.12 2.36 4.06 0 0 9.95 4.06z"
        fill="#f242ad"
        fill-opacity="1"
      />
    </marker>
    <filter
      id="quaternion-cayley-graph__7:10:orientedPath-shadow"
      x="0"
      y="0"
      width="200%"
      height="200%"
    >
      <feOffset result="offOut" in="SourceAlpha" dx="5" dy="5" />
      <feGaussianBlur result="blurOut" in="offOut" stdDeviation="4" />
      <feBlend in="SourceGraphic" in2="blurOut" mode="normal" />
      <feComponentTransfer>
        <feFuncA type="linear" slope="0.5" />
      </feComponentTransfer>
      <feMerge>
        <feMergeNode />
        <feMergeNode in="SourceGraphic" />
      </feMerge>
    </filter>
    <path
      fill="none"
      stroke="#f242ad"
      stroke-opacity="1"
      stroke-width="1"
      stroke-linecap="butt"
      d="M 71.70894938429987 145.37673850701825 Q 90.08296045415706 140.29308021909563 106.84892263545403 147.1011913021287"
      marker-end="url(#quaternion-cayley-graph__7:10:orientedPath-endArrowId)"
    />
    <title>7:10:orientedPath</title>
  </g>
  <g>
    <filter
      id="quaternion-cayley-graph__7:8:pathOutline-shadow"
      x="0"
      y="0"
      width="200%"
      height="200%"
    >
      <feOffset result="offOut" in="SourceAlpha" dx="5" dy="5" />
      <feGaussianBlur result="blurOut" in="offOut" stdDeviation="4" />
      <feBlend in="SourceGraphic" in2="blurOut" mode="normal" />
      <feComponentTransfer>
        <feFuncA type="linear" slope="0.5" />
      </feComponentTransfer>
      <feMerge>
        <feMergeNode />
        <feMergeNode in="SourceGraphic" />
      </feMerge>
    </filter>
    <path
      fill="none"
      stroke="#ffffff"
      stroke-opacity="1"
      stroke-width="3"
      stroke-linecap="butt"
      d="M 67.6814790993325 56.40420628738762 Q 76.96144138834579 95.5564361154519 74.2536791223717 135.25130762432622"
    />
    <title>7:8:pathOutline</title>
  </g>
  <g>
    <marker
      id="quaternion-cayley-graph__7:8:orientedPath-endArrowId"
      markerUnits="strokeWidth"
      markerWidth="7.46"
      markerHeight="6.09"
      viewBox="0 0 9.95 8.12"
      refX="2.36"
      refY="4.06"
      orient="auto-start-reverse"
    >
      <path
        d="M9.95 4.06 0 8.12 2.36 4.06 0 0 9.95 4.06z"
        fill="#f242ad"
        fill-opacity="1"
      />
    </marker>
    <filter
      id="quaternion-cayley-graph__7:8:orientedPath-shadow"
      x="0"
      y="0"
      width="200%"
      height="200%"
    >
      <feOffset result="offOut" in="SourceAlpha" dx="5" dy="5" />
      <feGaussianBlur result="blurOut" in="offOut" stdDeviation="4" />
      <feBlend in="SourceGraphic" in2="blurOut" mode="normal" />
      <feComponentTransfer>
        <feFuncA type="linear" slope="0.5" />
      </feComponentTransfer>
      <feMerge>
        <feMergeNode />
        <feMergeNode in="SourceGraphic" />
      </feMerge>
    </filter>
    <path
      fill="none"
      stroke="#f242ad"
      stroke-opacity="1"
      stroke-width="1"
      stroke-linecap="butt"
      d="M 67.6814790993325 56.40420628738762 Q 76.96144138834579 95.5564361154519 74.2536791223717 135.25130762432622"
      marker-end="url(#quaternion-cayley-graph__7:8:orientedPath-endArrowId)"
    />
    <title>7:8:orientedPath</title>
  </g>
  <g>
    <filter
      id="quaternion-cayley-graph__7:5:pathOutline-shadow"
      x="0"
      y="0"
      width="200%"
      height="200%"
    >
      <feOffset result="offOut" in="SourceAlpha" dx="5" dy="5" />
      <feGaussianBlur result="blurOut" in="offOut" stdDeviation="4" />
      <feBlend in="SourceGraphic" in2="blurOut" mode="normal" />
      <feComponentTransfer>
        <feFuncA type="linear" slope="0.5" />
      </feComponentTransfer>
      <feMerge>
        <feMergeNode />
        <feMergeNode in="SourceGraphic" />
      </feMerge>
    </filter>
    <path
      fill="none"
      stroke="#ffffff"
      stroke-opacity="1"
      stroke-width="3"
      stroke-linecap="butt"
      d="M 130.56292076082966 110.23254021680532 Q 109.27398160826816 131.6804874733225 81.83275566766159 142.82555322621914"
    />
    <title>7:5:pathOutline</title>
  </g>
  <g>
    <marker
      id="quaternion-cayley-graph__7:5:orientedPath-endArrowId"
      markerUnits="strokeWidth"
      markerWidth="7.46"
      markerHeight="6.09"
      viewBox="0 0 9.95 8.12"
      refX="2.36"
      refY="4.06"
      orient="auto-start-reverse"
    >
      <path
        d="M9.95 4.06 0 8.12 2.36 4.06 0 0 9.95 4.06z"
        fill="#88904d"
        fill-opacity="1"
      />
    </marker>
    <filter
      id="quaternion-cayley-graph__7:5:orientedPath-shadow"
      x="0"
      y="0"
      width="200%"
      height="200%"
    >
      <feOffset result="offOut" in="SourceAlpha" dx="5" dy="5" />
      <feGaussianBlur result="blurOut" in="offOut" stdDeviation="4" />
      <feBlend in="SourceGraphic" in2="blurOut" mode="normal" />
      <feComponentTransfer>
        <feFuncA type="linear" slope="0.5" />
      </feComponentTransfer>
      <feMerge>
        <feMergeNode />
        <feMergeNode in="SourceGraphic" />
      </feMerge>
    </filter>
    <path
      fill="none"
      stroke="#88904d"
      stroke-opacity="1"
      stroke-width="1"
      stroke-linecap="butt"
      d="M 130.56292076082966 110.23254021680532 Q 109.27398160826816 131.6804874733225 81.83275566766159 142.82555322621914"
      marker-end="url(#quaternion-cayley-graph__7:5:orientedPath-endArrowId)"
    />
    <title>7:5:orientedPath</title>
  </g>
  <g>
    <filter
      id="quaternion-cayley-graph__7:11:pathOutline-shadow"
      x="0"
      y="0"
      width="200%"
      height="200%"
    >
      <feOffset result="offOut" in="SourceAlpha" dx="5" dy="5" />
      <feGaussianBlur result="blurOut" in="offOut" stdDeviation="4" />
      <feBlend in="SourceGraphic" in2="blurOut" mode="normal" />
      <feComponentTransfer>
        <feFuncA type="linear" slope="0.5" />
      </feComponentTransfer>
      <feMerge>
        <feMergeNode />
        <feMergeNode in="SourceGraphic" />
      </feMerge>
    </filter>
    <path
      fill="none"
      stroke="#ffffff"
      stroke-opacity="1"
      stroke-width="3"
      stroke-linecap="butt"
      d="M 130.56292076082966 110.23254021680532 Q 117.19487178605415 94.93026398230253 115.13994683402434 75.6263349835067"
    />
    <title>7:11:pathOutline</title>
  </g>
  <g>
    <marker
      id="quaternion-cayley-graph__7:11:orientedPath-endArrowId"
      markerUnits="strokeWidth"
      markerWidth="7.46"
      markerHeight="6.09"
      viewBox="0 0 9.95 8.12"
      refX="2.36"
      refY="4.06"
      orient="auto-start-reverse"
    >
      <path
        d="M9.95 4.06 0 8.12 2.36 4.06 0 0 9.95 4.06z"
        fill="#f242ad"
        fill-opacity="1"
      />
    </marker>
    <filter
      id="quaternion-cayley-graph__7:11:orientedPath-shadow"
      x="0"
      y="0"
      width="200%"
      height="200%"
    >
      <feOffset result="offOut" in="SourceAlpha" dx="5" dy="5" />
      <feGaussianBlur result="blurOut" in="offOut" stdDeviation="4" />
      <feBlend in="SourceGraphic" in2="blurOut" mode="normal" />
      <feComponentTransfer>
        <feFuncA type="linear" slope="0.5" />
      </feComponentTransfer>
      <feMerge>
        <feMergeNode />
        <feMergeNode in="SourceGraphic" />
      </feMerge>
    </filter>
    <path
      fill="none"
      stroke="#f242ad"
      stroke-opacity="1"
      stroke-width="1"
      stroke-linecap="butt"
      d="M 130.56292076082966 110.23254021680532 Q 117.19487178605415 94.93026398230253 115.13994683402434 75.6263349835067"
      marker-end="url(#quaternion-cayley-graph__7:11:orientedPath-endArrowId)"
    />
    <title>7:11:orientedPath</title>
  </g>
  <g>
    <filter
      id="quaternion-cayley-graph__8:0:pathOutline-shadow"
      x="0"
      y="0"
      width="200%"
      height="200%"
    >
      <feOffset result="offOut" in="SourceAlpha" dx="5" dy="5" />
      <feGaussianBlur result="blurOut" in="offOut" stdDeviation="4" />
      <feBlend in="SourceGraphic" in2="blurOut" mode="normal" />
      <feComponentTransfer>
        <feFuncA type="linear" slope="0.5" />
      </feComponentTransfer>
      <feMerge>
        <feMergeNode />
        <feMergeNode in="SourceGraphic" />
      </feMerge>
    </filter>
    <path
      fill="none"
      stroke="#ffffff"
      stroke-opacity="1"
      stroke-width="3"
      stroke-linecap="butt"
      d="M 116.35671822244373 151.4141743853345 Q 108.09653064051231 113.45512098262546 111.83394688237154 75.25627081729331"
    />
    <title>8:0:pathOutline</title>
  </g>
  <g>
    <marker
      id="quaternion-cayley-graph__8:0:orientedPath-endArrowId"
      markerUnits="strokeWidth"
      markerWidth="7.46"
      markerHeight="6.09"
      viewBox="0 0 9.95 8.12"
      refX="2.36"
      refY="4.06"
      orient="auto-start-reverse"
    >
      <path
        d="M9.95 4.06 0 8.12 2.36 4.06 0 0 9.95 4.06z"
        fill="#88904d"
        fill-opacity="1"
      />
    </marker>
    <filter
      id="quaternion-cayley-graph__8:0:orientedPath-shadow"
      x="0"
      y="0"
      width="200%"
      height="200%"
    >
      <feOffset result="offOut" in="SourceAlpha" dx="5" dy="5" />
      <feGaussianBlur result="blurOut" in="offOut" stdDeviation="4" />
      <feBlend in="SourceGraphic" in2="blurOut" mode="normal" />
      <feComponentTransfer>
        <feFuncA type="linear" slope="0.5" />
      </feComponentTransfer>
      <feMerge>
        <feMergeNode />
        <feMergeNode in="SourceGraphic" />
      </feMerge>
    </filter>
    <path
      fill="none"
      stroke="#88904d"
      stroke-opacity="1"
      stroke-width="1"
      stroke-linecap="butt"
      d="M 116.35671822244373 151.4141743853345 Q 108.09653064051231 113.45512098262546 111.83394688237154 75.25627081729331"
      marker-end="url(#quaternion-cayley-graph__8:0:orientedPath-endArrowId)"
    />
    <title>8:0:orientedPath</title>
  </g>
  <g>
    <filter
      id="quaternion-cayley-graph__7:3:pathOutline-shadow"
      x="0"
      y="0"
      width="200%"
      height="200%"
    >
      <feOffset result="offOut" in="SourceAlpha" dx="5" dy="5" />
      <feGaussianBlur result="blurOut" in="offOut" stdDeviation="4" />
      <feBlend in="SourceGraphic" in2="blurOut" mode="normal" />
      <feComponentTransfer>
        <feFuncA type="linear" slope="0.5" />
      </feComponentTransfer>
      <feMerge>
        <feMergeNode />
        <feMergeNode in="SourceGraphic" />
      </feMerge>
    </filter>
    <path
      fill="none"
      stroke="#ffffff"
      stroke-opacity="1"
      stroke-width="3"
      stroke-linecap="butt"
      d="M 42.033625957213715 119.97399359037225 Q 77.51221086675669 126.83871039202829 108.31564616801633 144.75525854148222"
    />
    <title>7:3:pathOutline</title>
  </g>
  <g>
    <marker
      id="quaternion-cayley-graph__7:3:orientedPath-endArrowId"
      markerUnits="strokeWidth"
      markerWidth="7.46"
      markerHeight="6.09"
      viewBox="0 0 9.95 8.12"
      refX="2.36"
      refY="4.06"
      orient="auto-start-reverse"
    >
      <path
        d="M9.95 4.06 0 8.12 2.36 4.06 0 0 9.95 4.06z"
        fill="#88904d"
        fill-opacity="1"
      />
    </marker>
    <filter
      id="quaternion-cayley-graph__7:3:orientedPath-shadow"
      x="0"
      y="0"
      width="200%"
      height="200%"
    >
      <feOffset result="offOut" in="SourceAlpha" dx="5" dy="5" />
      <feGaussianBlur result="blurOut" in="offOut" stdDeviation="4" />
      <feBlend in="SourceGraphic" in2="blurOut" mode="normal" />
      <feComponentTransfer>
        <feFuncA type="linear" slope="0.5" />
      </feComponentTransfer>
      <feMerge>
        <feMergeNode />
        <feMergeNode in="SourceGraphic" />
      </feMerge>
    </filter>
    <path
      fill="none"
      stroke="#88904d"
      stroke-opacity="1"
      stroke-width="1"
      stroke-linecap="butt"
      d="M 42.033625957213715 119.97399359037225 Q 77.51221086675669 126.83871039202829 108.31564616801633 144.75525854148222"
      marker-end="url(#quaternion-cayley-graph__7:3:orientedPath-endArrowId)"
    />
    <title>7:3:orientedPath</title>
  </g>
  <circle
    fill="#000000"
    fill-opacity="0.1"
    cx="116.35671822244373"
    cy="151.4141743853345"
    stroke="none"
    r="7.5"
  >
    <title>4:0:identityMarker</title>
  </circle>
  <g>
    <filter
      id="quaternion-cayley-graph__7:6:pathOutline-shadow"
      x="0"
      y="0"
      width="200%"
      height="200%"
    >
      <feOffset result="offOut" in="SourceAlpha" dx="5" dy="5" />
      <feGaussianBlur result="blurOut" in="offOut" stdDeviation="4" />
      <feBlend in="SourceGraphic" in2="blurOut" mode="normal" />
      <feComponentTransfer>
        <feFuncA type="linear" slope="0.5" />
      </feComponentTransfer>
      <feMerge>
        <feMergeNode />
        <feMergeNode in="SourceGraphic" />
      </feMerge>
    </filter>
    <path
      fill="none"
      stroke="#ffffff"
      stroke-opacity="1"
      stroke-width="3"
      stroke-linecap="butt"
      d="M 114.63351720279991 65.19831844014536 Q 77.87129765374428 77.75453319592798 39.49582514459621 78.41968345408243"
    />
    <title>7:6:pathOutline</title>
  </g>
  <g>
    <marker
      id="quaternion-cayley-graph__7:6:orientedPath-endArrowId"
      markerUnits="strokeWidth"
      markerWidth="7.46"
      markerHeight="6.09"
      viewBox="0 0 9.95 8.12"
      refX="2.36"
      refY="4.06"
      orient="auto-start-reverse"
    >
      <path
        d="M9.95 4.06 0 8.12 2.36 4.06 0 0 9.95 4.06z"
        fill="#f242ad"
        fill-opacity="1"
      />
    </marker>
    <filter
      id="quaternion-cayley-graph__7:6:orientedPath-shadow"
      x="0"
      y="0"
      width="200%"
      height="200%"
    >
      <feOffset result="offOut" in="SourceAlpha" dx="5" dy="5" />
      <feGaussianBlur result="blurOut" in="offOut" stdDeviation="4" />
      <feBlend in="SourceGraphic" in2="blurOut" mode="normal" />
      <feComponentTransfer>
        <feFuncA type="linear" slope="0.5" />
      </feComponentTransfer>
      <feMerge>
        <feMergeNode />
        <feMergeNode in="SourceGraphic" />
      </feMerge>
    </filter>
    <path
      fill="none"
      stroke="#f242ad"
      stroke-opacity="1"
      stroke-width="1"
      stroke-linecap="butt"
      d="M 114.63351720279991 65.19831844014536 Q 77.87129765374428 77.75453319592798 39.49582514459621 78.41968345408243"
      marker-end="url(#quaternion-cayley-graph__7:6:orientedPath-endArrowId)"
    />
    <title>7:6:orientedPath</title>
  </g>
  <circle
    fill="#cccccc"
    fill-opacity="1"
    cx="116.35671822244373"
    cy="151.4141743853345"
    stroke="#999999"
    stroke-opacity="1"
    stroke-width="0.55"
    r="5"
  >
    <title>`g1`.icon</title>
  </circle>
  <g
    transform="rotate(0, 116.35671822244373, 151.4141743853345)translate(115.10671822244373, 149.7491743853345)"
  >
    <title>`g1`.labelText</title>
    <svg
      style="font-size: 5px"
      xmlns="http://www.w3.org/2000/svg"
      width="2.5"
      height="3.33"
      role="img"
      focusable="false"
      viewBox="0 -666 500 666"
    >
      <g
        stroke="none"
        fill="#666666"
        stroke-width="0"
        transform="scale(1,-1)"
        fill-opacity="1"
      >
        <g data-mml-node="math">
          <g data-mml-node="mn">
            <path
              data-c="31"
              d="M213 578L200 573Q186 568 160 563T102 556H83V602H102Q149 604 189 617T245 641T273 663Q275 666 285 666Q294 666 302 660V361L303 61Q310 54 315 52T339 48T401 46H427V0H416Q395 3 257 3Q121 3 100 0H88V46H114Q136 46 152 46T177 47T193 50T201 52T207 57T213 61V578Z"
            />
          </g>
        </g>
      </g>
    </svg>
  </g>
  <circle
    fill="#88904d"
    fill-opacity="1"
    cx="114.63351720279991"
    cy="65.19831844014536"
    stroke="#5f6536"
    stroke-opacity="1"
    stroke-width="0.55"
    r="5"
  >
    <title>`g2`.icon</title>
  </circle>
  <g
    transform="rotate(0, 114.63351720279991, 65.19831844014536)translate(113.77101720279991, 63.51831844014536)"
  >
    <title>`g2`.labelText</title>
    <svg
      style="font-size: 5px"
      xmlns="http://www.w3.org/2000/svg"
      width="1.7249999999999999"
      height="3.3600000000000003"
      role="img"
      focusable="false"
      viewBox="0 -661 345 672"
    >
      <g
        stroke="none"
        fill="#5f6536"
        stroke-width="0"
        transform="scale(1,-1)"
        fill-opacity="1"
      >
        <g data-mml-node="math">
          <g data-mml-node="mi">
            <path
              data-c="1D456"
              d="M184 600Q184 624 203 642T247 661Q265 661 277 649T290 619Q290 596 270 577T226 557Q211 557 198 567T184 600ZM21 287Q21 295 30 318T54 369T98 420T158 442Q197 442 223 419T250 357Q250 340 236 301T196 196T154 83Q149 61 149 51Q149 26 166 26Q175 26 185 29T208 43T235 78T260 137Q263 149 265 151T282 153Q302 153 302 143Q302 135 293 112T268 61T223 11T161 -11Q129 -11 102 10T74 74Q74 91 79 106T122 220Q160 321 166 341T173 380Q173 404 156 404H154Q124 404 99 371T61 287Q60 286 59 284T58 281T56 279T53 278T49 278T41 278H27Q21 284 21 287Z"
            />
          </g>
        </g>
      </g>
    </svg>
  </g>
  <circle
    fill="#f242ad"
    fill-opacity="1"
    cx="84.40613155387712"
    cy="100.50946161393605"
    stroke="#a92e79"
    stroke-opacity="1"
    stroke-width="0.55"
    r="5"
  >
    <title>`g3`.icon</title>
  </circle>
  <g
    transform="rotate(0, 84.40613155387712, 100.50946161393605)translate(83.37613155387712, 98.34696161393606)"
  >
    <title>`g3`.labelText</title>
    <svg
      style="font-size: 5px"
      xmlns="http://www.w3.org/2000/svg"
      width="2.06"
      height="4.325"
      role="img"
      focusable="false"
      viewBox="0 -661 412 865"
    >
      <g
        stroke="none"
        fill="#a92e79"
        stroke-width="0"
        transform="scale(1,-1)"
        fill-opacity="1"
      >
        <g data-mml-node="math">
          <g data-mml-node="mi">
            <path
              data-c="1D457"
              d="M297 596Q297 627 318 644T361 661Q378 661 389 651T403 623Q403 595 384 576T340 557Q322 557 310 567T297 596ZM288 376Q288 405 262 405Q240 405 220 393T185 362T161 325T144 293L137 279Q135 278 121 278H107Q101 284 101 286T105 299Q126 348 164 391T252 441Q253 441 260 441T272 442Q296 441 316 432Q341 418 354 401T367 348V332L318 133Q267 -67 264 -75Q246 -125 194 -164T75 -204Q25 -204 7 -183T-12 -137Q-12 -110 7 -91T53 -71Q70 -71 82 -81T95 -112Q95 -148 63 -167Q69 -168 77 -168Q111 -168 139 -140T182 -74L193 -32Q204 11 219 72T251 197T278 308T289 365Q289 372 288 376Z"
            />
          </g>
        </g>
      </g>
    </svg>
  </g>
  <circle
    fill="#cccccc"
    fill-opacity="1"
    cx="29.18329148988296"
    cy="76.79129479641908"
    stroke="#999999"
    stroke-opacity="1"
    stroke-width="0.55"
    r="5"
  >
    <title>`g4`.icon</title>
  </circle>
  <g
    transform="rotate(0, 29.18329148988296, 76.79129479641908)translate(27.880791489882963, 75.02879479641908)"
  >
    <title>`g4`.labelText</title>
    <svg
      style="font-size: 5px"
      xmlns="http://www.w3.org/2000/svg"
      width="2.605"
      height="3.525"
      role="img"
      focusable="false"
      viewBox="0 -694 521 705"
    >
      <g
        stroke="none"
        fill="#666666"
        stroke-width="0"
        transform="scale(1,-1)"
        fill-opacity="1"
      >
        <g data-mml-node="math">
          <g data-mml-node="mi">
            <path
              data-c="1D458"
              d="M121 647Q121 657 125 670T137 683Q138 683 209 688T282 694Q294 694 294 686Q294 679 244 477Q194 279 194 272Q213 282 223 291Q247 309 292 354T362 415Q402 442 438 442Q468 442 485 423T503 369Q503 344 496 327T477 302T456 291T438 288Q418 288 406 299T394 328Q394 353 410 369T442 390L458 393Q446 405 434 405H430Q398 402 367 380T294 316T228 255Q230 254 243 252T267 246T293 238T320 224T342 206T359 180T365 147Q365 130 360 106T354 66Q354 26 381 26Q429 26 459 145Q461 153 479 153H483Q499 153 499 144Q499 139 496 130Q455 -11 378 -11Q333 -11 305 15T277 90Q277 108 280 121T283 145Q283 167 269 183T234 206T200 217T182 220H180Q168 178 159 139T145 81T136 44T129 20T122 7T111 -2Q98 -11 83 -11Q66 -11 57 -1T48 16Q48 26 85 176T158 471L195 616Q196 629 188 632T149 637H144Q134 637 131 637T124 640T121 647Z"
            />
          </g>
        </g>
      </g>
    </svg>
  </g>
  <circle
    fill="#cccccc"
    fill-opacity="1"
    cx="67.6814790993325"
    cy="56.40420628738762"
    stroke="#999999"
    stroke-opacity="1"
    stroke-width="0.55"
    r="5"
  >
    <title>`g5`.icon</title>
  </circle>
  <g
    transform="rotate(0, 67.6814790993325, 56.40420628738762)translate(64.48647909933251, 54.534206287387626)"
  >
    <title>`g5`.labelText</title>
    <svg
      style="font-size: 5px"
      xmlns="http://www.w3.org/2000/svg"
      width="6.390000000000001"
      height="3.74"
      role="img"
      focusable="false"
      viewBox="0 -666 1278 748"
    >
      <g
        stroke="none"
        fill="#666666"
        stroke-width="0"
        transform="scale(1,-1)"
        fill-opacity="1"
      >
        <g data-mml-node="math">
          <g data-mml-node="mo">
            <path
              data-c="2212"
              d="M84 237T84 250T98 270H679Q694 262 694 250T679 230H98Q84 237 84 250Z"
            />
          </g>
          <g data-mml-node="mn" transform="translate(778,0)">
            <path
              data-c="31"
              d="M213 578L200 573Q186 568 160 563T102 556H83V602H102Q149 604 189 617T245 641T273 663Q275 666 285 666Q294 666 302 660V361L303 61Q310 54 315 52T339 48T401 46H427V0H416Q395 3 257 3Q121 3 100 0H88V46H114Q136 46 152 46T177 47T193 50T201 52T207 57T213 61V578Z"
            />
          </g>
        </g>
      </g>
    </svg>
  </g>
  <circle
    fill="#cccccc"
    fill-opacity="1"
    cx="42.033625957213715"
    cy="119.97399359037225"
    stroke="#999999"
    stroke-opacity="1"
    stroke-width="0.55"
    r="5"
  >
    <title>`g6`.icon</title>
  </circle>
  <g
    transform="rotate(0, 42.033625957213715, 119.97399359037225)translate(39.22612595721372, 118.11649359037224)"
  >
    <title>`g6`.labelText</title>
    <svg
      style="font-size: 5px"
      xmlns="http://www.w3.org/2000/svg"
      width="5.615"
      height="3.715"
      role="img"
      focusable="false"
      viewBox="0 -661 1123 743"
    >
      <g
        stroke="none"
        fill="#666666"
        stroke-width="0"
        transform="scale(1,-1)"
        fill-opacity="1"
      >
        <g data-mml-node="math">
          <g data-mml-node="mo">
            <path
              data-c="2212"
              d="M84 237T84 250T98 270H679Q694 262 694 250T679 230H98Q84 237 84 250Z"
            />
          </g>
          <g data-mml-node="mi" transform="translate(778,0)">
            <path
              data-c="1D456"
              d="M184 600Q184 624 203 642T247 661Q265 661 277 649T290 619Q290 596 270 577T226 557Q211 557 198 567T184 600ZM21 287Q21 295 30 318T54 369T98 420T158 442Q197 442 223 419T250 357Q250 340 236 301T196 196T154 83Q149 61 149 51Q149 26 166 26Q175 26 185 29T208 43T235 78T260 137Q263 149 265 151T282 153Q302 153 302 143Q302 135 293 112T268 61T223 11T161 -11Q129 -11 102 10T74 74Q74 91 79 106T122 220Q160 321 166 341T173 380Q173 404 156 404H154Q124 404 99 371T61 287Q60 286 59 284T58 281T56 279T53 278T49 278T41 278H27Q21 284 21 287Z"
            />
          </g>
        </g>
      </g>
    </svg>
  </g>
  <circle
    fill="#cccccc"
    fill-opacity="1"
    cx="71.70894938429987"
    cy="145.37673850701825"
    stroke="#999999"
    stroke-opacity="1"
    stroke-width="0.55"
    r="5"
  >
    <title>`g7`.icon</title>
  </circle>
  <g
    transform="rotate(0, 71.70894938429987, 145.37673850701825)translate(68.73394938429988, 143.21423850701825)"
  >
    <title>`g7`.labelText</title>
    <svg
      style="font-size: 5px"
      xmlns="http://www.w3.org/2000/svg"
      width="5.949999999999999"
      height="4.325"
      role="img"
      focusable="false"
      viewBox="0 -661 1190 865"
    >
      <g
        stroke="none"
        fill="#666666"
        stroke-width="0"
        transform="scale(1,-1)"
        fill-opacity="1"
      >
        <g data-mml-node="math">
          <g data-mml-node="mo">
            <path
              data-c="2212"
              d="M84 237T84 250T98 270H679Q694 262 694 250T679 230H98Q84 237 84 250Z"
            />
          </g>
          <g data-mml-node="mi" transform="translate(778,0)">
            <path
              data-c="1D457"
              d="M297 596Q297 627 318 644T361 661Q378 661 389 651T403 623Q403 595 384 576T340 557Q322 557 310 567T297 596ZM288 376Q288 405 262 405Q240 405 220 393T185 362T161 325T144 293L137 279Q135 278 121 278H107Q101 284 101 286T105 299Q126 348 164 391T252 441Q253 441 260 441T272 442Q296 441 316 432Q341 418 354 401T367 348V332L318 133Q267 -67 264 -75Q246 -125 194 -164T75 -204Q25 -204 7 -183T-12 -137Q-12 -110 7 -91T53 -71Q70 -71 82 -81T95 -112Q95 -148 63 -167Q69 -168 77 -168Q111 -168 139 -140T182 -74L193 -32Q204 11 219 72T251 197T278 308T289 365Q289 372 288 376Z"
            />
          </g>
        </g>
      </g>
    </svg>
  </g>
  <circle
    fill="#cccccc"
    fill-opacity="1"
    cx="130.56292076082966"
    cy="110.23254021680532"
    stroke="#999999"
    stroke-opacity="1"
    stroke-width="0.55"
    r="5"
  >
    <title>`g8`.icon</title>
  </circle>
  <g
    transform="rotate(0, 130.56292076082966, 110.23254021680532)translate(127.31542076082965, 108.29254021680532)"
  >
    <title>`g8`.labelText</title>
    <svg
      style="font-size: 5px"
      xmlns="http://www.w3.org/2000/svg"
      width="6.494999999999999"
      height="3.88"
      role="img"
      focusable="false"
      viewBox="0 -694 1299 776"
    >
      <g
        stroke="none"
        fill="#666666"
        stroke-width="0"
        transform="scale(1,-1)"
        fill-opacity="1"
      >
        <g data-mml-node="math">
          <g data-mml-node="mo">
            <path
              data-c="2212"
              d="M84 237T84 250T98 270H679Q694 262 694 250T679 230H98Q84 237 84 250Z"
            />
          </g>
          <g data-mml-node="mi" transform="translate(778,0)">
            <path
              data-c="1D458"
              d="M121 647Q121 657 125 670T137 683Q138 683 209 688T282 694Q294 694 294 686Q294 679 244 477Q194 279 194 272Q213 282 223 291Q247 309 292 354T362 415Q402 442 438 442Q468 442 485 423T503 369Q503 344 496 327T477 302T456 291T438 288Q418 288 406 299T394 328Q394 353 410 369T442 390L458 393Q446 405 434 405H430Q398 402 367 380T294 316T228 255Q230 254 243 252T267 246T293 238T320 224T342 206T359 180T365 147Q365 130 360 106T354 66Q354 26 381 26Q429 26 459 145Q461 153 479 153H483Q499 153 499 144Q499 139 496 130Q455 -11 378 -11Q333 -11 305 15T277 90Q277 108 280 121T283 145Q283 167 269 183T234 206T200 217T182 220H180Q168 178 159 139T145 81T136 44T129 20T122 7T111 -2Q98 -11 83 -11Q66 -11 57 -1T48 16Q48 26 85 176T158 471L195 616Q196 629 188 632T149 637H144Q134 637 131 637T124 640T121 647Z"
            />
          </g>
        </g>
      </g>
    </svg>
  </g>
</svg>
