<svg version="1.2" xmlns="http://www.w3.org/2000/svg" viewBox="0 0 5 5">
  <g>
    <marker
      id="`u`.shape-endArrowId"
      markerUnits="strokeWidth"
      markerWidth="8"
      markerHeight="8"
      viewBox="0 0 8 8"
      refX="2.5"
      refY="4"
      orient="auto-start-reverse"
    >
      <path
        d="M0,0 A30,30,0,0,0,8,4 A30,30,0,0,0,0,8 L2.5,4 z"
        fill="#000000"
        fill-opacity="255"
      ></path>
    </marker>
    <path
      d="M 2.5 2.5 L 3.723182023602865 0.05363595279426958"
      stroke-opacity="255"
      stroke-width="0.01"
      stroke="#000000"
      stroke-linecap="butt"
      marker-end="url(#`u`.shape-endArrowId)"
    ></path>
    <title>`u`.shape</title>
  </g>
  <circle
    fill="#000000"
    fill-opacity="255"
    cx="2.5"
    cy="2.5"
    stroke="none"
    r="0.02"
  >
    <title>`S`.shape</title>
  </circle>
  <g>
    <marker
      id="`v`.shape-endArrowId"
      markerUnits="strokeWidth"
      markerWidth="8"
      markerHeight="8"
      viewBox="0 0 8 8"
      refX="2.5"
      refY="4"
      orient="auto-start-reverse"
    >
      <path
        d="M0,0 A30,30,0,0,0,8,4 A30,30,0,0,0,0,8 L2.5,4 z"
        fill="#000000"
        fill-opacity="255"
      ></path>
    </marker>
    <path
      d="M 2.5 2.5 L 3.480160910016985 2.995467417176267"
      stroke-opacity="255"
      stroke-width="0.01"
      stroke="#000000"
      stroke-linecap="butt"
      marker-end="url(#`v`.shape-endArrowId)"
    ></path>
    <title>`v`.shape</title>
  </g>
  <polygon
    fill="#bbb866"
    fill-opacity="0.5"
    stroke="#000000"
    stroke-opacity="255"
    stroke-width="0.01"
    stroke-linecap="butt"
    transform="scale(1)"
    points="1.1666666666666665,3.166666666666667,0.2777777777777777,0.9444444444444444,3.8333333333333335,1.8333333333333333,4.722222222222222,4.055555555555555"
  >
    <title>`P`.shape</title>
  </polygon>
  <g>
    <marker
      id="`w`.shape-endArrowId"
      markerUnits="strokeWidth"
      markerWidth="8"
      markerHeight="8"
      viewBox="0 0 8 8"
      refX="2.5"
      refY="4"
      orient="auto-start-reverse"
    >
      <path
        d="M0,0 A30,30,0,0,0,8,4 A30,30,0,0,0,0,8 L2.5,4 z"
        fill="#000000"
        fill-opacity="255"
      ></path>
    </marker>
    <path
      d="M 2.5 2.5 L 4.735478662729719 0.5607627204695802"
      stroke-opacity="255"
      stroke-width="0.01"
      stroke="#000000"
      stroke-linecap="butt"
      marker-end="url(#`w`.shape-endArrowId)"
    ></path>
    <title>`w`.shape</title>
  </g>
  <g>
    <path
      d="M 3.747778771355363 0.00444245728927406 L 4.7770247947983115 0.5247222028520562"
      stroke-opacity="0.5"
      stroke-width="0.01"
      stroke="#e5dede"
      stroke-dasharray="7,5"
      stroke-linecap="butt"
    ></path>
    <title>`w`.dashed_u</title>
  </g>
  <g>
    <path
      d="M 3.5292460234429486 3.0202797455627817 L 4.7770247947983115 0.5247222028520562"
      stroke-opacity="0.5"
      stroke-width="0.01"
      stroke="#cbd7bb"
      stroke-dasharray="7,5"
      stroke-linecap="butt"
    ></path>
    <title>`w`.dashed_v</title>
  </g>
</svg>
