<svg version="1.2" xmlns="http://www.w3.org/2000/svg" viewBox="0 0 400 600">
  <rect
    x="0"
    y="0"
    width="400"
    height="600"
    fill="#ffffff"
    fill-opacity="1"
    stroke="none"
    rx="0"
    transform="rotate(0, 0, 0)"
  >
    <title>const.bg</title>
  </rect>
  <g>
    <path
      d="M 200 0 L 200 600"
      stroke-opacity="1"
      stroke-width="1"
      stroke="#ff0000"
      stroke-linecap="butt"
    ></path>
    <title>const.vguide1</title>
  </g>
  <g>
    <path
      d="M 10 0 L 10 600"
      stroke-opacity="1"
      stroke-width="1"
      stroke="#ff0000"
      stroke-linecap="butt"
    ></path>
    <title>const.vguide2</title>
  </g>
  <g>
    <path
      d="M 10 70 L 200 70"
      stroke-opacity="1"
      stroke-width="3"
      stroke="#000000"
      stroke-linecap="butt"
    ></path>
    <title>`none`.icon</title>
  </g>
  <g
    transform="rotate(0, 257.8146, 61.17)translate(257.8146, 61.17)"
    string="\textbf{none}"
  >
    <title>`none`.text</title>
    <svg
      xmlns="http://www.w3.org/2000/svg"
      width="42.0308"
      height="17.66"
      role="img"
      focusable="false"
      viewBox="0.65342 -7.98232 40.7946 8.08828"
    >
      <path
        stroke="none"
        fill="#000000"
        stroke-width="0"
        d="M0.7063999999999999-7.805719999999999Q3.8322199999999995-7.946999999999999 3.8498799999999997-7.946999999999999H3.95584V-7.187619999999999L3.9734999999999996-6.445899999999999Q4.11478-6.675479999999999 4.3267-6.90506T5.103739999999999-7.45252 6.392919999999999-7.91168Q6.604839999999999-7.946999999999999 7.02868-7.946999999999999 7.558479999999999-7.946999999999999 7.91168-7.894019999999999T8.671059999999999-7.664439999999999 9.342139999999999-7.09932 9.730659999999999-6.110359999999999Q9.765979999999999-5.916099999999999 9.78364-3.4966799999999996V-1.09492H11.00218V0H10.84324Q10.52536-0.05298 8.63574-0.05298 6.604839999999999-0.05298 6.445899999999999 0H6.28696V-1.09492H7.5055V-3.4260399999999995-4.8565Q7.5055-6.14568 7.346559999999999-6.587179999999999T6.55186-7.04634Q5.75716-7.04634 5.08608-6.534199999999999T4.20308-5.1213999999999995Q4.1677599999999995-4.962459999999999 4.150099999999999-3.0198599999999995V-1.09492H5.368639999999999V0H5.2097Q4.89182-0.05298 3.0198599999999995-0.05298 1.13024-0.05298 0.81236 0H0.65342V-1.09492H1.8719599999999998V-3.7085999999999997-5.35098Q1.8719599999999998-6.23398 1.8366399999999998-6.4105799999999995T1.60706-6.64016Q1.3598199999999998-6.7108 0.8829999999999999-6.7108H0.65342V-7.805719999999999H0.7063999999999999ZM16.35316 0.08829999999999999Q15.311219999999999 0.08829999999999999 14.498859999999999-0.17659999999999998T13.209679999999999-0.84768 12.397319999999999-1.8013199999999998 11.973479999999999-2.84326 11.84986-3.8675399999999995Q11.84986-4.80352 12.167739999999998-5.54524T12.94478-6.7461199999999995 14.00438-7.470179999999999 15.063979999999999-7.876359999999999 15.96464-7.98232H16.211879999999997Q16.91828-7.98232 17.0419-7.964659999999999 18.84322-7.752739999999999 19.849839999999997-6.64016T20.85646-3.9028599999999996Q20.85646-2.7549599999999996 20.36198-1.9072799999999999T19.09046-0.58278Q18.06618 0.08829999999999999 16.35316 0.08829999999999999ZM18.33108-4.0618V-4.415Q18.33108-4.9448 18.313419999999997-5.26268T18.189799999999998-5.96908 17.85426-6.56952 17.253819999999997-6.922719999999999 16.26486-7.081659999999999Q15.540799999999999-7.081659999999999 15.028659999999999-6.7108 14.640139999999999-6.4105799999999995 14.516519999999998-5.89844T14.375239999999998-4.0618Q14.375239999999998-3.5673199999999996 14.375239999999998-3.3377399999999997T14.410559999999998-2.70198 14.516519999999998-2.0838799999999997 14.728439999999999-1.60706 15.081639999999998-1.20088 15.611439999999998-0.98896 16.35316-0.8829999999999999Q17.430419999999998-0.8829999999999999 17.88958-1.4834399999999999 18.13682-1.7836599999999998 18.225119999999997-2.33112T18.33108-4.0618ZM22.145639999999997-7.805719999999999Q25.271459999999998-7.946999999999999 25.289119999999997-7.946999999999999H25.395079999999997V-7.187619999999999L25.41274-6.445899999999999Q25.554019999999998-6.675479999999999 25.765939999999997-6.90506T26.542979999999996-7.45252 27.83216-7.91168Q28.044079999999997-7.946999999999999 28.46792-7.946999999999999 28.997719999999997-7.946999999999999 29.35092-7.894019999999999T30.1103-7.664439999999999 30.78138-7.09932 31.1699-6.110359999999999Q31.205219999999997-5.916099999999999 31.222879999999996-3.4966799999999996V-1.09492H32.44142V0H32.28248Q31.964599999999997-0.05298 30.074979999999996-0.05298 28.044079999999997-0.05298 27.885139999999996 0H27.7262V-1.09492H28.94474V-3.4260399999999995-4.8565Q28.94474-6.14568 28.7858-6.587179999999999T27.9911-7.04634Q27.196399999999997-7.04634 26.525319999999997-6.534199999999999T25.642319999999998-5.1213999999999995Q25.607-4.962459999999999 25.589339999999996-3.0198599999999995V-1.09492H26.807879999999997V0H26.64894Q26.331059999999997-0.05298 24.4591-0.05298 22.56948-0.05298 22.2516 0H22.09266V-1.09492H23.3112V-3.7085999999999997-5.35098Q23.3112-6.23398 23.275879999999997-6.4105799999999995T23.0463-6.64016Q22.799059999999997-6.7108 22.322239999999997-6.7108H22.09266V-7.805719999999999H22.145639999999997ZM33.2891-3.9734999999999996Q33.2891-5.863119999999999 34.525299999999994-6.922719999999999T37.527499999999996-7.98232H37.721759999999996Q39.470099999999995-7.98232 40.423739999999995-7.081659999999999 41.44802-6.057379999999999 41.44802-4.291379999999999 41.44802-3.99116 41.30674-3.92052T40.49438-3.8322199999999995Q40.33544-3.8322199999999995 39.682019999999994-3.8322199999999995T38.498799999999996-3.8498799999999997H35.814479999999996V-3.69094Q35.814479999999996-3.1258199999999996 35.88512-2.7196399999999996T36.18534-1.8896199999999999 36.89174-1.21854 38.127939999999995-0.8829999999999999Q38.2339-0.8653399999999999 38.42816-0.8653399999999999 39.36414-0.8653399999999999 39.96458-1.5010999999999999 40.15884-1.7483399999999998 40.264799999999994-1.96026T40.388419999999996-2.24282 40.5297-2.3487799999999996 40.90056-2.3840999999999997H40.988859999999995Q41.44802-2.3840999999999997 41.44802-2.06622 41.44802-1.9425999999999999 41.359719999999996-1.7130199999999998T40.988859999999995-1.16556 40.33544-0.56512 39.311159999999994-0.08829999999999999 37.8807 0.10596Q35.92044 0.10596 34.6136-0.9712999999999999T33.2891-3.9734999999999996ZM39.487759999999994-4.87416Q39.3818-6.110359999999999 38.869659999999996-6.604839999999999T37.66878-7.09932Q37.191959999999995-7.09932 36.785779999999995-6.8873999999999995T36.16768-6.30462Q35.88512-5.845459999999999 35.832139999999995-4.92714V-4.697559999999999H39.487759999999994V-4.87416Z"
        fill-opacity="1"
      ></path>
    </svg>
  </g>
  <g>
    <marker
      id="`concave`.icon-startArrowId"
      markerUnits="strokeWidth"
      markerWidth="8"
      markerHeight="8"
      viewBox="0 0 8 8"
      refX="2.5"
      refY="4"
      orient="auto-start-reverse"
    >
      <path
        d="M0,0 A30,30,0,0,0,8,4 A30,30,0,0,0,0,8 L2.5,4 z"
        fill="#000000"
        fill-opacity="1"
      ></path>
    </marker>
    <marker
      id="`concave`.icon-endArrowId"
      markerUnits="strokeWidth"
      markerWidth="8"
      markerHeight="8"
      viewBox="0 0 8 8"
      refX="2.5"
      refY="4"
      orient="auto-start-reverse"
    >
      <path
        d="M0,0 A30,30,0,0,0,8,4 A30,30,0,0,0,0,8 L2.5,4 z"
        fill="#000000"
        fill-opacity="1"
      ></path>
    </marker>
    <path
      d="M 26.5 140 L 183.5 140"
      stroke-opacity="1"
      stroke-width="3"
      stroke="#000000"
      stroke-linecap="butt"
      marker-start="url(#`concave`.icon-startArrowId)"
      marker-end="url(#`concave`.icon-endArrowId)"
    ></path>
    <title>`concave`.icon</title>
  </g>
  <g
    transform="rotate(0, 244.13692999999998, 131.17)translate(244.13692999999998, 131.17)"
    string="\textbf{concave}"
  >
    <title>`concave`.text</title>
    <svg
      xmlns="http://www.w3.org/2000/svg"
      width="69.38614"
      height="17.66"
      role="img"
      focusable="false"
      viewBox="0.6887399999999999 -7.999979999999999 68.11462 8.105939999999999"
    >
      <path
        stroke="none"
        fill="#000000"
        stroke-width="0"
        d="M7.894019999999999-2.3134599999999996H8.08828Q8.441479999999999-2.3134599999999996 8.441479999999999-2.06622 8.441479999999999-1.97792 8.31786-1.6777T7.752739999999999-0.9006599999999999 6.657819999999999-0.15894Q5.8278 0.10596 5.0507599999999995 0.10596 3.4613599999999995 0.10596 2.3840999999999997-0.6181 0.6887399999999999-1.69536 0.6887399999999999-3.92052 0.6887399999999999-5.721839999999999 1.7836599999999998-6.78144 2.98454-7.999979999999999 5.0507599999999995-7.999979999999999 6.3399399999999995-7.999979999999999 7.258259999999999-7.611459999999999T8.194239999999999-6.23398Q8.194239999999999-5.63354 7.8587-5.33332T6.9757-5.01544Q6.3576-5.01544 6.057379999999999-5.386299999999999T5.7395-6.23398Q5.7395-6.7108 5.96908-6.993359999999999H5.88078Q5.5982199999999995-7.02868 5.2097-7.02868H5.15672Q4.9448-7.02868 4.78586-7.011019999999999T4.3267-6.8873999999999995 3.8498799999999997-6.587179999999999 3.47902-5.96908 3.2317799999999997-4.99778Q3.21412-4.8565 3.21412-4.07946 3.21412-3.51434 3.24944-3.1788T3.4083799999999997-2.33112 3.8851999999999998-1.5010999999999999 4.768199999999999-1.0066199999999998Q5.103739999999999-0.8829999999999999 5.5982199999999995-0.8829999999999999H5.75716Q6.799099999999999-0.8829999999999999 7.31124-2.0309 7.399539999999999-2.24282 7.470179999999999-2.2781399999999996T7.894019999999999-2.3134599999999996ZM14.09268 0.08829999999999999Q13.05074 0.08829999999999999 12.23838-0.17659999999999998T10.9492-0.84768 10.13684-1.8013199999999998 9.713-2.84326 9.589379999999998-3.8675399999999995Q9.589379999999998-4.80352 9.907259999999999-5.54524T10.684299999999999-6.7461199999999995 11.743899999999998-7.470179999999999 12.8035-7.876359999999999 13.704159999999998-7.98232H13.9514Q14.657799999999998-7.98232 14.781419999999999-7.964659999999999 16.582739999999998-7.752739999999999 17.58936-6.64016T18.595979999999997-3.9028599999999996Q18.595979999999997-2.7549599999999996 18.101499999999998-1.9072799999999999T16.82998-0.58278Q15.805699999999998 0.08829999999999999 14.09268 0.08829999999999999ZM16.0706-4.0618V-4.415Q16.0706-4.9448 16.05294-5.26268T15.929319999999999-5.96908 15.593779999999999-6.56952 14.993339999999998-6.922719999999999 14.00438-7.081659999999999Q13.28032-7.081659999999999 12.76818-6.7108 12.37966-6.4105799999999995 12.256039999999999-5.89844T12.114759999999999-4.0618Q12.114759999999999-3.5673199999999996 12.114759999999999-3.3377399999999997T12.150079999999999-2.70198 12.256039999999999-2.0838799999999997 12.46796-1.60706 12.821159999999999-1.20088 13.350959999999999-0.98896 14.09268-0.8829999999999999Q15.169939999999999-0.8829999999999999 15.6291-1.4834399999999999 15.876339999999999-1.7836599999999998 15.96464-2.33112T16.0706-4.0618ZM19.88516-7.805719999999999Q23.010979999999996-7.946999999999999 23.02864-7.946999999999999H23.1346V-7.187619999999999L23.15226-6.445899999999999Q23.293539999999997-6.675479999999999 23.50546-6.90506T24.2825-7.45252 25.571679999999997-7.91168Q25.783599999999996-7.946999999999999 26.20744-7.946999999999999 26.737239999999996-7.946999999999999 27.090439999999997-7.894019999999999T27.849819999999998-7.664439999999999 28.520899999999997-7.09932 28.909419999999997-6.110359999999999Q28.94474-5.916099999999999 28.9624-3.4966799999999996V-1.09492H30.180939999999996V0H30.022Q29.704119999999996-0.05298 27.8145-0.05298 25.783599999999996-0.05298 25.62466 0H25.465719999999997V-1.09492H26.68426V-3.4260399999999995-4.8565Q26.68426-6.14568 26.525319999999997-6.587179999999999T25.73062-7.04634Q24.93592-7.04634 24.26484-6.534199999999999T23.381839999999997-5.1213999999999995Q23.346519999999998-4.962459999999999 23.32886-3.0198599999999995V-1.09492H24.5474V0H24.38846Q24.07058-0.05298 22.19862-0.05298 20.308999999999997-0.05298 19.99112 0H19.832179999999997V-1.09492H21.05072V-3.7085999999999997-5.35098Q21.05072-6.23398 21.0154-6.4105799999999995T20.785819999999998-6.64016Q20.53858-6.7108 20.06176-6.7108H19.832179999999997V-7.805719999999999H19.88516ZM38.357519999999994-2.3134599999999996H38.551779999999994Q38.904979999999995-2.3134599999999996 38.904979999999995-2.06622 38.904979999999995-1.97792 38.78136-1.6777T38.21624-0.9006599999999999 37.12132-0.15894Q36.2913 0.10596 35.51426 0.10596 33.924859999999995 0.10596 32.8476-0.6181 31.15224-1.69536 31.15224-3.92052 31.15224-5.721839999999999 32.24716-6.78144 33.44804-7.999979999999999 35.51426-7.999979999999999 36.803439999999995-7.999979999999999 37.721759999999996-7.611459999999999T38.65774-6.23398Q38.65774-5.63354 38.322199999999995-5.33332T37.4392-5.01544Q36.821099999999994-5.01544 36.52088-5.386299999999999T36.202999999999996-6.23398Q36.202999999999996-6.7108 36.432579999999994-6.993359999999999H36.34428Q36.061719999999994-7.02868 35.673199999999994-7.02868H35.620219999999996Q35.4083-7.02868 35.249359999999996-7.011019999999999T34.7902-6.8873999999999995 34.313379999999995-6.587179999999999 33.942519999999995-5.96908 33.69528-4.99778Q33.67762-4.8565 33.67762-4.07946 33.67762-3.51434 33.712939999999996-3.1788T33.87188-2.33112 34.348699999999994-1.5010999999999999 35.2317-1.0066199999999998Q35.56724-0.8829999999999999 36.061719999999994-0.8829999999999999H36.220659999999995Q37.2626-0.8829999999999999 37.774739999999994-2.0309 37.86304-2.24282 37.933679999999995-2.2781399999999996T38.357519999999994-2.3134599999999996ZM40.617999999999995-6.16334Q40.617999999999995-7.04634 41.377379999999995-7.52316T43.99106-7.999979999999999Q45.598119999999994-7.999979999999999 46.58707999999999-7.470179999999999T47.840939999999996-6.02206Q47.92923999999999-5.774819999999999 47.92923999999999-5.4746T47.9469-3.4613599999999995V-1.3598199999999998Q48.19414-1.11258 48.829899999999995-1.09492 49.183099999999996-1.09492 49.25373999999999-1.0066199999999998T49.34204-0.54746Q49.34204-0.15894 49.236079999999994-0.08829999999999999T48.565 0H48.264779999999995 47.98222Q46.11026 0 45.968979999999995-0.98896L45.774719999999995-0.81236Q44.785759999999996 0.10596 43.19636 0.10596 41.783559999999994 0.10596 40.91822-0.5297999999999999T40.052879999999995-2.13686Q40.052879999999995-3.32008 41.44802-3.99116T45.35088-4.80352H45.66876V-5.15672Q45.66876-5.5275799999999995 45.63343999999999-5.774819999999999T45.43917999999999-6.37526 44.89172-6.90506 43.867439999999995-7.09932 42.913799999999995-7.04634H42.8255Q43.090399999999995-6.64016 43.090399999999995-6.251639999999999 43.090399999999995-5.774819999999999 42.79018-5.40396T41.8542-5.01544Q41.200779999999995-5.01544 40.91822-5.386299999999999T40.617999999999995-6.16334ZM42.38399999999999-2.13686Q42.38399999999999-1.57174 42.77252-1.18322T43.690839999999994-0.7947Q44.3266-0.7947 44.90938-1.11258T45.598119999999994-1.9072799999999999L45.66876-2.06622V-3.99116H45.615779999999994Q43.867439999999995-3.8498799999999997 43.125719999999994-3.3377399999999997T42.38399999999999-2.13686ZM56.441359999999996-7.84104Q56.653279999999995-7.78806 58.1014-7.78806 59.39057999999999-7.78806 59.496539999999996-7.84104H59.60249999999999V-6.7461199999999995H58.366299999999995L56.58264-2.7549599999999996Q55.505379999999995-0.31788 55.346439999999994-0.10596 55.20515999999999 0.07064 55.01089999999999 0.07064 54.975579999999994 0.07064 54.88728 0.07064T54.710679999999996 0.05298H54.44578Q54.180879999999995 0.05298 54.021939999999994-0.21192T53.26255999999999-1.8013199999999998Q52.997659999999996-2.3840999999999997 52.838719999999995-2.7549599999999996L51.05506-6.7461199999999995H49.818859999999994V-7.84104H49.960139999999996Q50.22503999999999-7.78806 51.920399999999994-7.78806 53.810019999999994-7.78806 54.1279-7.84104H54.28684V-6.7461199999999995H53.439159999999994L54.375139999999995-4.66224Q55.2758-2.63134 55.328779999999995-2.63134 55.328779999999995-2.6489999999999996 56.22944-4.66224T57.16542-6.728459999999999Q57.16542-6.7461199999999995 56.74158-6.7461199999999995H56.31773999999999V-7.84104H56.441359999999996ZM60.644439999999996-3.9734999999999996Q60.644439999999996-5.863119999999999 61.88063999999999-6.922719999999999T64.88284-7.98232H65.0771Q66.82544-7.98232 67.77908-7.081659999999999 68.80336-6.057379999999999 68.80336-4.291379999999999 68.80336-3.99116 68.66207999999999-3.92052T67.84971999999999-3.8322199999999995Q67.69077999999999-3.8322199999999995 67.03735999999999-3.8322199999999995T65.85414-3.8498799999999997H63.169819999999994V-3.69094Q63.169819999999994-3.1258199999999996 63.24045999999999-2.7196399999999996T63.540679999999995-1.8896199999999999 64.24708-1.21854 65.48328-0.8829999999999999Q65.58923999999999-0.8653399999999999 65.78349999999999-0.8653399999999999 66.71947999999999-0.8653399999999999 67.31992-1.5010999999999999 67.51418-1.7483399999999998 67.62013999999999-1.96026T67.74376-2.24282 67.88503999999999-2.3487799999999996 68.2559-2.3840999999999997H68.3442Q68.80336-2.3840999999999997 68.80336-2.06622 68.80336-1.9425999999999999 68.71506-1.7130199999999998T68.3442-1.16556 67.69077999999999-0.56512 66.6665-0.08829999999999999 65.23603999999999 0.10596Q63.27578 0.10596 61.968939999999996-0.9712999999999999T60.644439999999996-3.9734999999999996ZM66.84309999999999-4.87416Q66.73714-6.110359999999999 66.225-6.604839999999999T65.02412-7.09932Q64.54729999999999-7.09932 64.14112-6.8873999999999995T63.523019999999995-6.30462Q63.24045999999999-5.845459999999999 63.187479999999994-4.92714V-4.697559999999999H66.84309999999999V-4.87416Z"
        fill-opacity="1"
      ></path>
    </svg>
  </g>
  <g>
    <marker
      id="`straight`.icon-startArrowId"
      markerUnits="strokeWidth"
      markerWidth="9.95"
      markerHeight="8.12"
      viewBox="0 0 9.95 8.12"
      refX="2.36"
      refY="4.06"
      orient="auto-start-reverse"
    >
      <path
        d="M9.95 4.06 0 8.12 2.36 4.06 0 0 9.95 4.06z"
        fill="#000000"
        fill-opacity="1"
      ></path>
    </marker>
    <marker
      id="`straight`.icon-endArrowId"
      markerUnits="strokeWidth"
      markerWidth="9.95"
      markerHeight="8.12"
      viewBox="0 0 9.95 8.12"
      refX="2.36"
      refY="4.06"
      orient="auto-start-reverse"
    >
      <path
        d="M9.95 4.06 0 8.12 2.36 4.06 0 0 9.95 4.06z"
        fill="#000000"
        fill-opacity="1"
      ></path>
    </marker>
    <path
      d="M 32.77000000000001 210 L 177.23 210"
      stroke-opacity="1"
      stroke-width="3"
      stroke="#000000"
      stroke-linecap="butt"
      marker-start="url(#`straight`.icon-startArrowId)"
      marker-end="url(#`straight`.icon-endArrowId)"
    ></path>
    <title>`straight`.icon</title>
  </g>
  <g
    transform="rotate(0, 244.26937999999998, 201.17)translate(244.26937999999998, 201.17)"
    string="\textbf{straight}"
  >
    <title>`straight`.text</title>
    <svg
      xmlns="http://www.w3.org/2000/svg"
      width="69.12124"
      height="17.66"
      role="img"
      focusable="false"
      viewBox="0.65342 -12.2737 67.31992 15.82336"
    >
      <path
        stroke="none"
        fill="#000000"
        stroke-width="0"
        d="M0.6710799999999999-5.5629Q0.6710799999999999-5.986739999999999 0.7947-6.3576T1.2362-7.134639999999999 2.24282-7.7703999999999995 3.9381799999999996-7.999979999999999Q4.82118-7.999979999999999 5.651199999999999-7.6997599999999995L5.96908-7.8587 6.30462-7.999979999999999H6.463559999999999Q6.7108-7.999979999999999 6.76378-7.894019999999999T6.8167599999999995-7.11698V-6.83442-6.269299999999999Q6.8167599999999995-5.845459999999999 6.76378-5.75716T6.445899999999999-5.66886H6.269299999999999 6.16334Q5.88078-5.66886 5.81014-5.721839999999999T5.721839999999999-6.02206Q5.5982199999999995-7.16996 3.95584-7.16996H3.8145599999999997Q2.17218-7.16996 2.17218-6.23398 2.17218-5.89844 2.5253799999999997-5.66886T3.32008-5.368639999999999 4.3090399999999995-5.1920399999999995 5.033099999999999-5.0507599999999995Q5.386299999999999-4.962459999999999 5.7395-4.82118T6.587179999999999-4.18542 7.275919999999999-3.0375199999999998Q7.31124-2.8609199999999997 7.31124-2.50772 7.31124 0.10596 4.0618 0.10596 2.7196399999999996 0.10596 2.06622-0.38852L1.20088 0.10596H1.0242799999999999Q0.77704 0.10596 0.7240599999999999 0T0.6710799999999999-0.7417199999999999V-1.28918Q0.6710799999999999-1.5010999999999999 0.6710799999999999-1.7836599999999998T0.65342-2.1545199999999998Q0.65342-2.54304 0.7417199999999999-2.61368T1.20088-2.70198H1.3244999999999998Q1.53642-2.70198 1.60706-2.66666T1.7130199999999998-2.5960199999999998 1.8189799999999998-2.33112Q2.3134599999999996-0.81236 3.8851999999999998-0.81236H4.0618Q4.53862-0.81236 4.6799-0.83002 5.8278-1.0242799999999999 5.8278-1.9072799999999999 5.8278-2.24282 5.580559999999999-2.50772 5.297999999999999-2.7549599999999996 5.01544-2.8609199999999997 4.78586-2.9668799999999997 3.7439199999999997-3.14348T2.1545199999999998-3.5673199999999996Q0.6710799999999999-4.291379999999999 0.6710799999999999-5.5629ZM12.821159999999999-0.8653399999999999Q13.66884-0.8653399999999999 13.66884-2.40176V-2.5606999999999998-3.1258199999999996H14.76376V-2.5253799999999997Q14.76376-1.8719599999999998 14.728439999999999-1.7483399999999998 14.62248-1.09492 14.180979999999998-0.63576T13.05074 0.03532L12.821159999999999 0.08829999999999999H12.37966Q11.072819999999998 0.08829999999999999 10.384079999999999-0.47681999999999997 9.94258-0.81236 9.818959999999999-1.30684T9.677679999999999-2.8255999999999997Q9.677679999999999-3.0198599999999995 9.677679999999999-3.51434T9.69534-4.3267V-6.7461199999999995H8.388499999999999V-7.64678H8.45914Q9.04192-7.64678 9.60704-8.052959999999999 10.154499999999999-8.45914 10.490039999999999-9.23618T10.878559999999998-10.966859999999999V-11.214099999999998H11.973479999999999V-7.84104H14.42822V-6.7461199999999995H11.973479999999999V-4.220739999999999-3.65562-2.63134Q11.973479999999999-1.7306799999999998 12.04412-1.4304599999999998T12.41498-0.9712999999999999Q12.6269-0.8653399999999999 12.821159999999999-0.8653399999999999ZM23.063959999999998-5.174379999999999T22.516499999999997-5.174379999999999 21.633499999999998-5.509919999999999 21.29796-6.37526Q21.29796-6.675479999999999 21.42158-6.95804 21.474559999999997-7.011019999999999 21.474559999999997-7.04634 21.29796-7.04634 21.1037-6.95804T20.609219999999997-6.6225 20.114739999999998-5.81014 19.832179999999997-4.39734Q19.814519999999998-4.25606 19.814519999999998-2.63134V-1.09492H21.350939999999998V0H21.174339999999997Q20.85646-0.05298 18.75492-0.05298 16.74168-0.05298 16.582739999999998 0H16.4238V-1.09492H17.642339999999997V-3.7085999999999997-5.35098Q17.642339999999997-6.23398 17.60702-6.4105799999999995T17.37744-6.64016Q17.1302-6.7108 16.65338-6.7108H16.4238V-7.805719999999999H16.476779999999998L17.99554-7.876359999999999Q19.5143-7.946999999999999 19.531959999999998-7.946999999999999H19.62026V-7.31124L19.637919999999998-6.675479999999999Q20.27368-7.929339999999999 21.474559999999997-7.929339999999999H21.58052Q22.693099999999998-7.929339999999999 23.20524-7.45252T23.71738-6.3576Q23.71738-5.863119999999999 23.3995-5.5275799999999995ZM25.41274-6.16334Q25.41274-7.04634 26.17212-7.52316T28.7858-7.999979999999999Q30.39286-7.999979999999999 31.381819999999998-7.470179999999999T32.63568-6.02206Q32.72398-5.774819999999999 32.72398-5.4746T32.74164-3.4613599999999995V-1.3598199999999998Q32.988879999999995-1.11258 33.62464-1.09492 33.97784-1.09492 34.04848-1.0066199999999998T34.136779999999995-0.54746Q34.136779999999995-0.15894 34.03082-0.08829999999999999T33.359739999999995 0H33.05952 32.776959999999995Q30.904999999999998 0 30.76372-0.98896L30.569459999999996-0.81236Q29.580499999999997 0.10596 27.9911 0.10596 26.5783 0.10596 25.71296-0.5297999999999999T24.84762-2.13686Q24.84762-3.32008 26.242759999999997-3.99116T30.145619999999997-4.80352H30.463499999999996V-5.15672Q30.463499999999996-5.5275799999999995 30.428179999999998-5.774819999999999T30.233919999999998-6.37526 29.686459999999997-6.90506 28.66218-7.09932 27.70854-7.04634H27.62024Q27.885139999999996-6.64016 27.885139999999996-6.251639999999999 27.885139999999996-5.774819999999999 27.584919999999997-5.40396T26.64894-5.01544Q25.99552-5.01544 25.71296-5.386299999999999T25.41274-6.16334ZM27.178739999999998-2.13686Q27.178739999999998-1.57174 27.567259999999997-1.18322T28.48558-0.7947Q29.121339999999996-0.7947 29.704119999999996-1.11258T30.39286-1.9072799999999999L30.463499999999996-2.06622V-3.99116H30.410519999999998Q28.66218-3.8498799999999997 27.92046-3.3377399999999997T27.178739999999998-2.13686ZM35.425959999999996-10.772599999999999Q35.425959999999996-11.46134 35.88512-11.867519999999999T36.962379999999996-12.2737Q37.562819999999995-12.23838 37.98666-11.832199999999998T38.4105-10.772599999999999Q38.4105-10.101519999999999 37.98666-9.69534T36.92706-9.2715Q36.27364-9.2715 35.849799999999995-9.677679999999999T35.425959999999996-10.772599999999999ZM34.9668-7.805719999999999L36.5562-7.876359999999999 38.145599999999995-7.946999999999999H38.25156V-1.09492H39.34648V0H39.2052Q38.94029999999999-0.05298 37.174299999999995-0.05298 35.33766-0.05298 35.01978 0H34.860839999999996V-1.09492H36.07938V-3.69094Q36.07938-6.322279999999999 36.061719999999994-6.392919999999999 35.97342-6.7108 35.12574-6.7108H34.913819999999994V-7.805719999999999H34.9668ZM40.67098-5.297999999999999Q40.67098-6.49888 41.64228-7.2229399999999995T44.29127999999999-7.946999999999999Q45.580459999999995-7.946999999999999 46.42814-7.52316L46.64006-7.417199999999999Q47.470079999999996-8.0353 48.423719999999996-8.0353 48.9182-8.0353 49.200759999999995-7.78806T49.571619999999996-7.31124 49.64225999999999-6.869739999999999Q49.64225999999999-6.4812199999999995 49.395019999999995-6.23398T48.75926-5.986739999999999Q48.33542-5.986739999999999 48.10583999999999-6.251639999999999T47.876259999999995-6.83442Q47.876259999999995-7.011019999999999 47.9469-7.063999999999999 47.98222-7.081659999999999 47.92923999999999-7.063999999999999 47.893919999999994-7.063999999999999 47.80562-7.04634 47.36412-6.922719999999999 47.328799999999994-6.8873999999999995 47.80562-6.23398 47.893919999999994-5.792479999999999 47.92923999999999-5.5629 47.92923999999999-5.297999999999999 47.92923999999999-4.2383999999999995 47.18752-3.5673199999999996 46.21622-2.63134 44.16766-2.63134 43.05508-2.63134 42.18973999999999-3.0375199999999998 42.06612-2.7902799999999996 42.06612-2.61368 42.06612-1.8542999999999998 42.79018-1.64238 42.896139999999995-1.60706 44.432559999999995-1.60706 44.609159999999996-1.60706 45.05065999999999-1.60706T45.68642-1.60706 46.25154-1.57174 46.85198-1.5010999999999999 47.4171-1.3598199999999998 48.01754-1.13024Q49.395019999999995-0.38852 49.395019999999995 1.21854 49.395019999999995 2.0132399999999997 48.72394 2.5606999999999998 47.523059999999994 3.54966 44.856399999999994 3.54966 42.41932 3.54966 41.377379999999995 2.84326T40.31778 1.2362Q40.31778 1.0242799999999999 40.37076 0.83002T40.5297 0.47681999999999997 40.74162 0.22957999999999998 41.006519999999995 0.01766 41.23609999999999-0.10596 41.44802-0.21192 41.571639999999995-0.26489999999999997Q40.95354-1.0066199999999998 40.95354-1.8719599999999998 40.95354-2.66666 41.377379999999995-3.3024199999999997L41.501-3.47902 41.359719999999996-3.6026399999999996Q40.67098-4.291379999999999 40.67098-5.297999999999999ZM48.35308-7.11698H48.476699999999994Q48.459039999999995-7.134639999999999 48.40606-7.134639999999999L48.35308-7.11698V-7.11698ZM44.29127999999999-3.5319999999999996Q44.71512-3.5319999999999996 44.997679999999995-3.6379599999999996T45.421519999999994-3.8675399999999995 45.63343999999999-4.27372 45.70408-4.73288 45.72174-5.297999999999999Q45.72174-5.95142 45.66876-6.21632T45.386199999999995-6.7108Q45.05065999999999-7.04634 44.29127999999999-7.04634 43.81446-7.04634 43.514239999999994-6.922719999999999T43.090399999999995-6.55186 42.931459999999994-6.0927 42.896139999999995-5.509919999999999V-5.297999999999999-5.103739999999999Q42.896139999999995-4.150099999999999 43.21402-3.8675399999999995 43.58488-3.5319999999999996 44.29127999999999-3.5319999999999996ZM44.856399999999994 2.6489999999999996Q46.0926 2.6489999999999996 46.85198 2.26048T47.61136 1.25386Q47.61136 1.1479 47.5937 1.0772599999999999T47.487739999999995 0.8829999999999999 47.20518 0.65342 46.65772 0.47681999999999997 45.774719999999995 0.37085999999999997L45.227259999999994 0.35319999999999996Q44.662139999999994 0.35319999999999996 44.255959999999995 0.35319999999999996 43.14337999999999 0.35319999999999996 42.96678 0.35319999999999996T42.542939999999994 0.45915999999999996Q42.08378 0.6710799999999999 42.08378 1.21854 42.08378 1.8542999999999998 42.84316 2.24282T44.856399999999994 2.6489999999999996ZM50.64888-12.114759999999999L52.255939999999995-12.1854Q53.86299999999999-12.256039999999999 53.88066-12.256039999999999H53.986619999999995V-9.41278L54.004279999999994-6.56952 54.145559999999996-6.728459999999999Q54.32216-6.95804 54.60471999999999-7.187619999999999T55.540699999999994-7.682099999999999 56.97116-7.946999999999999Q57.50095999999999-7.946999999999999 57.85415999999999-7.894019999999999T58.61353999999999-7.664439999999999 59.28462-7.09932 59.67314-6.110359999999999Q59.708459999999995-5.916099999999999 59.726119999999995-3.4966799999999996V-1.09492H60.94465999999999V0H60.78572Q60.467839999999995-0.05298 58.578219999999995-0.05298 56.54731999999999-0.05298 56.38838 0H56.22944V-1.09492H57.447979999999994V-3.4260399999999995-4.8565Q57.447979999999994-6.14568 57.28903999999999-6.587179999999999T56.494339999999994-7.04634Q55.699639999999995-7.04634 55.02856-6.534199999999999T54.145559999999996-5.1213999999999995Q54.11024-4.962459999999999 54.09258-3.0198599999999995V-1.09492H55.311119999999995V0H55.152179999999994Q54.8343-0.05298 52.96234-0.05298 51.07272-0.05298 50.754839999999994 0H50.59589999999999V-1.09492H51.81444V-5.863119999999999Q51.81444-6.83442 51.81444-7.999979999999999T51.8321-9.430439999999999Q51.8321-10.47238 51.79678-10.684299999999999T51.54953999999999-10.9492Q51.302299999999995-11.019839999999999 50.82548-11.019839999999999H50.59589999999999V-12.114759999999999H50.64888ZM66.03074-0.8653399999999999Q66.87841999999999-0.8653399999999999 66.87841999999999-2.40176V-2.5606999999999998-3.1258199999999996H67.97334V-2.5253799999999997Q67.97334-1.8719599999999998 67.93802-1.7483399999999998 67.83206-1.09492 67.39056-0.63576T66.26032 0.03532L66.03074 0.08829999999999999H65.58923999999999Q64.2824 0.08829999999999999 63.59365999999999-0.47681999999999997 63.152159999999995-0.81236 63.02853999999999-1.30684T62.88726-2.8255999999999997Q62.88726-3.0198599999999995 62.88726-3.51434T62.90492-4.3267V-6.7461199999999995H61.598079999999996V-7.64678H61.66871999999999Q62.25149999999999-7.64678 62.81661999999999-8.052959999999999 63.364079999999994-8.45914 63.699619999999996-9.23618T64.08814-10.966859999999999V-11.214099999999998H65.18306V-7.84104H67.6378V-6.7461199999999995H65.18306V-4.220739999999999-3.65562-2.63134Q65.18306-1.7306799999999998 65.2537-1.4304599999999998T65.62455999999999-0.9712999999999999Q65.83648-0.8653399999999999 66.03074-0.8653399999999999Z"
        fill-opacity="1"
      ></path>
    </svg>
  </g>
  <g>
    <marker
      id="`line`.icon-startArrowId"
      markerUnits="strokeWidth"
      markerWidth="7.5"
      markerHeight="14"
      viewBox="0 0 7.5 14"
      refX="5"
      refY="7"
      orient="auto-start-reverse"
      stroke="#000000"
      stroke-opacity="1"
    >
      <path
        d="M 7 7 a -6 6.75 0 0 1 -6 -6 M 7 7 a -6 6.75 0 0 0 -6 6"
        fill="none"
        stroke-linecap="round"
      ></path>
    </marker>
    <marker
      id="`line`.icon-endArrowId"
      markerUnits="strokeWidth"
      markerWidth="7.5"
      markerHeight="14"
      viewBox="0 0 7.5 14"
      refX="5"
      refY="7"
      orient="auto-start-reverse"
      stroke="#000000"
      stroke-opacity="1"
    >
      <path
        d="M 7 7 a -6 6.75 0 0 1 -6 -6 M 7 7 a -6 6.75 0 0 0 -6 6"
        fill="none"
        stroke-linecap="round"
      ></path>
    </marker>
    <path
      d="M 17.5 280 L 192.5 280"
      stroke-opacity="1"
      stroke-width="3"
      stroke="#000000"
      stroke-linecap="butt"
      marker-start="url(#`line`.icon-startArrowId)"
      marker-end="url(#`line`.icon-endArrowId)"
    ></path>
    <title>`line`.icon</title>
  </g>
  <g
    transform="rotate(0, 262.90067999999997, 271.17)translate(262.90067999999997, 271.17)"
    string="\textbf{line}"
  >
    <title>`line`.text</title>
    <svg
      xmlns="http://www.w3.org/2000/svg"
      width="31.858639999999998"
      height="17.66"
      role="img"
      focusable="false"
      viewBox="0.7063999999999999 -12.2737 30.56946 12.37966"
    >
      <path
        stroke="none"
        fill="#000000"
        stroke-width="0"
        d="M0.7593799999999999-12.114759999999999L2.36644-12.1854Q3.9734999999999996-12.256039999999999 3.99116-12.256039999999999H4.097119999999999V-1.09492H5.315659999999999V0H5.15672Q4.838839999999999-0.05298 3.0021999999999998-0.05298 1.18322-0.05298 0.8653399999999999 0H0.7063999999999999V-1.09492H1.9249399999999999V-5.863119999999999Q1.9249399999999999-6.83442 1.9249399999999999-7.999979999999999T1.9425999999999999-9.430439999999999Q1.9425999999999999-10.47238 1.9072799999999999-10.684299999999999T1.66004-10.9492Q1.4127999999999998-11.019839999999999 0.9359799999999999-11.019839999999999H0.7063999999999999V-12.114759999999999H0.7593799999999999ZM6.90506-10.772599999999999Q6.90506-11.46134 7.3642199999999995-11.867519999999999T8.441479999999999-12.2737Q9.04192-12.23838 9.46576-11.832199999999998T9.8896-10.772599999999999Q9.8896-10.101519999999999 9.46576-9.69534T8.40616-9.2715Q7.752739999999999-9.2715 7.328899999999999-9.677679999999999T6.90506-10.772599999999999ZM6.445899999999999-7.805719999999999L8.0353-7.876359999999999 9.624699999999999-7.946999999999999H9.730659999999999V-1.09492H10.825579999999999V0H10.684299999999999Q10.4194-0.05298 8.6534-0.05298 6.8167599999999995-0.05298 6.49888 0H6.3399399999999995V-1.09492H7.558479999999999V-3.69094Q7.558479999999999-6.322279999999999 7.540819999999999-6.392919999999999 7.45252-6.7108 6.604839999999999-6.7108H6.392919999999999V-7.805719999999999H6.445899999999999ZM11.973479999999999-7.805719999999999Q15.0993-7.946999999999999 15.116959999999999-7.946999999999999H15.222919999999998V-7.187619999999999L15.24058-6.445899999999999Q15.38186-6.675479999999999 15.593779999999999-6.90506T16.37082-7.45252 17.66-7.91168Q17.87192-7.946999999999999 18.295759999999998-7.946999999999999 18.82556-7.946999999999999 19.178759999999997-7.894019999999999T19.938139999999997-7.664439999999999 20.609219999999997-7.09932 20.997739999999997-6.110359999999999Q21.03306-5.916099999999999 21.05072-3.4966799999999996V-1.09492H22.26926V0H22.110319999999998Q21.79244-0.05298 19.90282-0.05298 17.87192-0.05298 17.712979999999998 0H17.554039999999997V-1.09492H18.772579999999998V-3.4260399999999995-4.8565Q18.772579999999998-6.14568 18.61364-6.587179999999999T17.818939999999998-7.04634Q17.02424-7.04634 16.35316-6.534199999999999T15.470159999999998-5.1213999999999995Q15.43484-4.962459999999999 15.417179999999998-3.0198599999999995V-1.09492H16.63572V0H16.476779999999998Q16.1589-0.05298 14.28694-0.05298 12.397319999999999-0.05298 12.079439999999998 0H11.920499999999999V-1.09492H13.13904V-3.7085999999999997-5.35098Q13.13904-6.23398 13.10372-6.4105799999999995T12.874139999999999-6.64016Q12.6269-6.7108 12.150079999999999-6.7108H11.920499999999999V-7.805719999999999H11.973479999999999ZM23.11694-3.9734999999999996Q23.11694-5.863119999999999 24.35314-6.922719999999999T27.355339999999998-7.98232H27.549599999999998Q29.297939999999997-7.98232 30.251579999999997-7.081659999999999 31.275859999999998-6.057379999999999 31.275859999999998-4.291379999999999 31.275859999999998-3.99116 31.134579999999996-3.92052T30.322219999999998-3.8322199999999995Q30.163279999999997-3.8322199999999995 29.509859999999996-3.8322199999999995T28.326639999999998-3.8498799999999997H25.642319999999998V-3.69094Q25.642319999999998-3.1258199999999996 25.71296-2.7196399999999996T26.01318-1.8896199999999999 26.719579999999997-1.21854 27.955779999999997-0.8829999999999999Q28.061739999999997-0.8653399999999999 28.255999999999997-0.8653399999999999 29.191979999999997-0.8653399999999999 29.792419999999996-1.5010999999999999 29.986679999999996-1.7483399999999998 30.09264-1.96026T30.21626-2.24282 30.357539999999997-2.3487799999999996 30.728399999999997-2.3840999999999997H30.816699999999997Q31.275859999999998-2.3840999999999997 31.275859999999998-2.06622 31.275859999999998-1.9425999999999999 31.187559999999998-1.7130199999999998T30.816699999999997-1.16556 30.163279999999997-0.56512 29.139-0.08829999999999999 27.70854 0.10596Q25.748279999999998 0.10596 24.441439999999997-0.9712999999999999T23.11694-3.9734999999999996ZM29.315599999999996-4.87416Q29.209639999999997-6.110359999999999 28.697499999999998-6.604839999999999T27.496619999999997-7.09932Q27.019799999999996-7.09932 26.613619999999997-6.8873999999999995T25.99552-6.30462Q25.71296-5.845459999999999 25.659979999999997-4.92714V-4.697559999999999H29.315599999999996V-4.87416Z"
        fill-opacity="1"
      ></path>
    </svg>
  </g>
  <g>
    <marker
      id="`doubleLine`.icon-startArrowId"
      markerUnits="strokeWidth"
      markerWidth="12.5"
      markerHeight="14"
      viewBox="0 0 12.5 14"
      refX="5"
      refY="7"
      orient="auto-start-reverse"
      stroke="#000000"
      stroke-opacity="1"
    >
      <path
        d="M 7 7 a -6 6.75 0 0 1 -6 -6 M 7 7 a -6 6.75 0 0 0 -6 6 M 12 7 a -6 6.75 0 0 1 -6 -6 M 7 7 L 12 7 M 12 7 a -6 6.75 0 0 0 -6 6"
        fill="none"
        stroke-linecap="round"
      ></path>
    </marker>
    <marker
      id="`doubleLine`.icon-endArrowId"
      markerUnits="strokeWidth"
      markerWidth="12.5"
      markerHeight="14"
      viewBox="0 0 12.5 14"
      refX="5"
      refY="7"
      orient="auto-start-reverse"
      stroke="#000000"
      stroke-opacity="1"
    >
      <path
        d="M 7 7 a -6 6.75 0 0 1 -6 -6 M 7 7 a -6 6.75 0 0 0 -6 6 M 12 7 a -6 6.75 0 0 1 -6 -6 M 7 7 L 12 7 M 12 7 a -6 6.75 0 0 0 -6 6"
        fill="none"
        stroke-linecap="round"
      ></path>
    </marker>
    <path
      d="M 32.5 350 L 177.5 350"
      stroke-opacity="1"
      stroke-width="3"
      stroke="#000000"
      stroke-linecap="butt"
      marker-start="url(#`doubleLine`.icon-startArrowId)"
      marker-end="url(#`doubleLine`.icon-endArrowId)"
    ></path>
    <title>`doubleLine`.icon</title>
  </g>
  <g
    transform="rotate(0, 230.13254999999998, 341.17)translate(230.13254999999998, 341.17)"
    string="\textbf{doubleLine}"
  >
    <title>`doubleLine`.text</title>
    <svg
      xmlns="http://www.w3.org/2000/svg"
      width="97.39489999999999"
      height="17.66"
      role="img"
      focusable="false"
      viewBox="0.6710799999999999 -12.2737 96.14103999999999 12.37966"
    >
      <path
        stroke="none"
        fill="#000000"
        stroke-width="0"
        d="M6.198659999999999-12.114759999999999L7.805719999999999-12.1854Q9.41278-12.256039999999999 9.430439999999999-12.256039999999999H9.536399999999999V-6.869739999999999Q9.536399999999999-5.774819999999999 9.536399999999999-4.46798T9.51874-2.87858Q9.51874-1.7130199999999998 9.55406-1.4657799999999999T9.8013-1.16556Q10.04854-1.09492 10.52536-1.09492H10.75494V-0.54746Q10.75494 0 10.737279999999998 0 10.384079999999999 0 9.006599999999999 0.05298T7.275919999999999 0.10596Q7.258259999999999 0.10596 7.258259999999999-0.28256V-0.6710799999999999L7.081659999999999-0.54746Q5.95142 0.10596 4.6799 0.10596 2.80794 0.10596 1.7483399999999998-1.0242799999999999T0.6710799999999999-3.95584Q0.6710799999999999-4.6799 0.9006599999999999-5.35098T1.62472-6.6225 2.9139-7.57614 4.80352-7.929339999999999Q6.3399399999999995-7.929339999999999 7.3642199999999995-7.275919999999999V-8.953619999999999-9.8013Q7.3642199999999995-10.543019999999999 7.328899999999999-10.719619999999999T7.09932-10.9492Q6.852079999999999-11.019839999999999 6.37526-11.019839999999999H6.14568V-12.114759999999999H6.198659999999999ZM7.258259999999999-6.180999999999999Q6.392919999999999-7.04634 5.13906-7.04634 4.909479999999999-7.04634 4.52096-6.922719999999999T3.8498799999999997-6.55186Q3.4436999999999998-6.198659999999999 3.3377399999999997-5.651199999999999T3.21412-4.20308V-3.9028599999999996Q3.21412-3.1611399999999996 3.2317799999999997-2.80794T3.3730599999999997-2.0309 3.7439199999999997-1.30684Q4.25606-0.81236 5.08608-0.81236 6.322279999999999-0.81236 7.134639999999999-1.7659999999999998L7.258259999999999-1.9249399999999999V-6.180999999999999ZM16.35316 0.08829999999999999Q15.311219999999999 0.08829999999999999 14.498859999999999-0.17659999999999998T13.209679999999999-0.84768 12.397319999999999-1.8013199999999998 11.973479999999999-2.84326 11.84986-3.8675399999999995Q11.84986-4.80352 12.167739999999998-5.54524T12.94478-6.7461199999999995 14.00438-7.470179999999999 15.063979999999999-7.876359999999999 15.96464-7.98232H16.211879999999997Q16.91828-7.98232 17.0419-7.964659999999999 18.84322-7.752739999999999 19.849839999999997-6.64016T20.85646-3.9028599999999996Q20.85646-2.7549599999999996 20.36198-1.9072799999999999T19.09046-0.58278Q18.06618 0.08829999999999999 16.35316 0.08829999999999999ZM18.33108-4.0618V-4.415Q18.33108-4.9448 18.313419999999997-5.26268T18.189799999999998-5.96908 17.85426-6.56952 17.253819999999997-6.922719999999999 16.26486-7.081659999999999Q15.540799999999999-7.081659999999999 15.028659999999999-6.7108 14.640139999999999-6.4105799999999995 14.516519999999998-5.89844T14.375239999999998-4.0618Q14.375239999999998-3.5673199999999996 14.375239999999998-3.3377399999999997T14.410559999999998-2.70198 14.516519999999998-2.0838799999999997 14.728439999999999-1.60706 15.081639999999998-1.20088 15.611439999999998-0.98896 16.35316-0.8829999999999999Q17.430419999999998-0.8829999999999999 17.88958-1.4834399999999999 18.13682-1.7836599999999998 18.225119999999997-2.33112T18.33108-4.0618ZM22.145639999999997-7.805719999999999L23.80568-7.876359999999999Q25.465719999999997-7.946999999999999 25.483379999999997-7.946999999999999H25.589339999999996V-4.82118-2.9139Q25.589339999999996-1.5894 25.642319999999998-1.30684T25.924879999999998-0.9183199999999999Q26.17212-0.81236 26.807879999999997-0.81236H27.072779999999998Q27.655559999999998-0.81236 28.150039999999997-1.18322T28.838779999999996-2.13686L28.85644-2.17218Q28.927079999999997-2.3840999999999997 28.94474-3.51434 28.94474-3.54966 28.94474-3.65562 28.94474-4.11478 28.94474-4.39734V-5.580559999999999Q28.94474-6.251639999999999 28.909419999999997-6.4105799999999995T28.67984-6.64016Q28.432599999999997-6.7108 27.955779999999997-6.7108H27.7262V-7.805719999999999L31.222879999999996-7.946999999999999V-4.7152199999999995Q31.222879999999996-1.4834399999999999 31.2582-1.3951399999999998 31.3465-1.09492 32.211839999999995-1.09492H32.44142V-0.54746Q32.44142 0 32.423759999999994 0 32.08822 0 30.746059999999996 0.05298T29.06836 0.10596Q29.0507 0.10596 29.0507-0.44149999999999995V-0.98896L28.85644-0.7947Q28.026419999999998-0.10596 27.302359999999997 0.01766 26.96682 0.10596 26.401699999999998 0.10596 25.112519999999996 0.10596 24.35314-0.24724T23.364179999999998-1.53642L23.32886-1.7306799999999998 23.3112-4.0618Q23.3112-6.322279999999999 23.275879999999997-6.463559999999999 23.1346-6.7108 22.322239999999997-6.7108H22.09266V-7.805719999999999H22.145639999999997ZM33.2891-12.114759999999999L34.896159999999995-12.1854Q36.50322-12.256039999999999 36.52088-12.256039999999999H36.626839999999994V-7.2229399999999995Q37.82772-7.946999999999999 39.39946-7.946999999999999 41.183119999999995-7.946999999999999 42.24272-6.83442T43.319979999999994-3.9028599999999996Q43.319979999999994-2.1545199999999998 42.172079999999994-1.0242799999999999T39.04626 0.10596H38.99328Q37.527499999999996 0.10596 36.30896-0.9359799999999999L35.54958-0.01766 35.00212 0H34.45466V-5.315659999999999Q34.45466-6.392919999999999 34.45466-7.682099999999999T34.472319999999996-9.2715Q34.472319999999996-10.437059999999999 34.437-10.66664T34.18976-10.9492Q33.942519999999995-11.019839999999999 33.4657-11.019839999999999H33.23612V-12.114759999999999H33.2891ZM36.7328-1.8542999999999998L36.821099999999994-1.7483399999999998Q36.9094-1.64238 36.997699999999995-1.53642T37.28026-1.28918 37.66878-1.0419399999999999 38.127939999999995-0.8653399999999999 38.710719999999995-0.7947Q39.434779999999996-0.7947 39.98224-1.16556T40.68864-2.3134599999999996Q40.794599999999996-2.8255999999999997 40.794599999999996-4.0618 40.794599999999996-4.66224 40.776939999999996-5.01544T40.635659999999994-5.81014 40.31778-6.4812199999999995 39.71734-6.869739999999999 38.78136-7.02868Q37.7041-7.02868 36.87408-6.269299999999999L36.7328-6.14568V-1.8542999999999998ZM44.7681-12.114759999999999L46.375159999999994-12.1854Q47.98222-12.256039999999999 47.99988-12.256039999999999H48.10583999999999V-1.09492H49.32438V0H49.16544Q48.847559999999994-0.05298 47.01092-0.05298 45.191939999999995-0.05298 44.87405999999999 0H44.71512V-1.09492H45.933659999999996V-5.863119999999999Q45.933659999999996-6.83442 45.933659999999996-7.999979999999999T45.951319999999996-9.430439999999999Q45.951319999999996-10.47238 45.916-10.684299999999999T45.66876-10.9492Q45.421519999999994-11.019839999999999 44.9447-11.019839999999999H44.71512V-12.114759999999999H44.7681ZM50.20737999999999-3.9734999999999996Q50.20737999999999-5.863119999999999 51.44358-6.922719999999999T54.44578-7.98232H54.64004Q56.38838-7.98232 57.34202-7.081659999999999 58.366299999999995-6.057379999999999 58.366299999999995-4.291379999999999 58.366299999999995-3.99116 58.225019999999994-3.92052T57.412659999999995-3.8322199999999995Q57.253719999999994-3.8322199999999995 56.6003-3.8322199999999995T55.41708-3.8498799999999997H52.73276V-3.69094Q52.73276-3.1258199999999996 52.803399999999996-2.7196399999999996T53.10362-1.8896199999999999 53.810019999999994-1.21854 55.04622-0.8829999999999999Q55.152179999999994-0.8653399999999999 55.346439999999994-0.8653399999999999 56.282419999999995-0.8653399999999999 56.882859999999994-1.5010999999999999 57.077119999999994-1.7483399999999998 57.18308-1.96026T57.30669999999999-2.24282 57.447979999999994-2.3487799999999996 57.818839999999994-2.3840999999999997H57.90714Q58.366299999999995-2.3840999999999997 58.366299999999995-2.06622 58.366299999999995-1.9425999999999999 58.278-1.7130199999999998T57.90714-1.16556 57.253719999999994-0.56512 56.22944-0.08829999999999999 54.79897999999999 0.10596Q52.838719999999995 0.10596 51.531879999999994-0.9712999999999999T50.20737999999999-3.9734999999999996ZM56.40604-4.87416Q56.300079999999994-6.110359999999999 55.78794-6.604839999999999T54.587059999999994-7.09932Q54.11024-7.09932 53.70406-6.8873999999999995T53.08595999999999-6.30462Q52.803399999999996-5.845459999999999 52.75042-4.92714V-4.697559999999999H56.40604V-4.87416ZM70.30445999999999-5.033099999999999Q70.26914-4.9448 70.05722-2.61368T69.75699999999999-0.07064V0H59.63782V-1.09492H61.5451V-11.019839999999999H59.63782V-12.114759999999999H59.84974Q60.273579999999995-12.061779999999999 62.975559999999994-12.061779999999999 66.27798-12.0971 66.45457999999999-12.114759999999999H66.70182V-11.019839999999999H64.31772V-1.09492H65.16539999999999 65.62455999999999Q67.6378-1.09492 68.46781999999999-2.43708 68.67974-2.7549599999999996 68.80336-3.14348T68.99762-3.7792399999999997 69.12124-4.503299999999999 69.20953999999999-5.103739999999999H70.30445999999999V-5.033099999999999ZM72.44131999999999-10.772599999999999Q72.44131999999999-11.46134 72.90047999999999-11.867519999999999T73.97774-12.2737Q74.57817999999999-12.23838 75.00201999999999-11.832199999999998T75.42586-10.772599999999999Q75.42586-10.101519999999999 75.00201999999999-9.69534T73.94242-9.2715Q73.28899999999999-9.2715 72.86515999999999-9.677679999999999T72.44131999999999-10.772599999999999ZM71.98216-7.805719999999999L73.57155999999999-7.876359999999999 75.16095999999999-7.946999999999999H75.26692V-1.09492H76.36184V0H76.22055999999999Q75.95566-0.05298 74.18965999999999-0.05298 72.35302-0.05298 72.03514 0H71.8762V-1.09492H73.09473999999999V-3.69094Q73.09473999999999-6.322279999999999 73.07708-6.392919999999999 72.98877999999999-6.7108 72.1411-6.7108H71.92917999999999V-7.805719999999999H71.98216ZM77.50974-7.805719999999999Q80.63556-7.946999999999999 80.65321999999999-7.946999999999999H80.75918V-7.187619999999999L80.77683999999999-6.445899999999999Q80.91811999999999-6.675479999999999 81.13004-6.90506T81.90708-7.45252 83.19626-7.91168Q83.40817999999999-7.946999999999999 83.83202-7.946999999999999 84.36182-7.946999999999999 84.71502-7.894019999999999T85.47439999999999-7.664439999999999 86.14547999999999-7.09932 86.53399999999999-6.110359999999999Q86.56931999999999-5.916099999999999 86.58698-3.4966799999999996V-1.09492H87.80551999999999V0H87.64658Q87.3287-0.05298 85.43907999999999-0.05298 83.40817999999999-0.05298 83.24924 0H83.0903V-1.09492H84.30883999999999V-3.4260399999999995-4.8565Q84.30883999999999-6.14568 84.14989999999999-6.587179999999999T83.3552-7.04634Q82.56049999999999-7.04634 81.88941999999999-6.534199999999999T81.00641999999999-5.1213999999999995Q80.97109999999999-4.962459999999999 80.95344-3.0198599999999995V-1.09492H82.17197999999999V0H82.01303999999999Q81.69515999999999-0.05298 79.8232-0.05298 77.93357999999999-0.05298 77.61569999999999 0H77.45675999999999V-1.09492H78.6753V-3.7085999999999997-5.35098Q78.6753-6.23398 78.63998-6.4105799999999995T78.4104-6.64016Q78.16315999999999-6.7108 77.68633999999999-6.7108H77.45675999999999V-7.805719999999999H77.50974ZM88.6532-3.9734999999999996Q88.6532-5.863119999999999 89.8894-6.922719999999999T92.8916-7.98232H93.08586Q94.8342-7.98232 95.78783999999999-7.081659999999999 96.81212-6.057379999999999 96.81212-4.291379999999999 96.81212-3.99116 96.67084-3.92052T95.85847999999999-3.8322199999999995Q95.69954-3.8322199999999995 95.04611999999999-3.8322199999999995T93.8629-3.8498799999999997H91.17858V-3.69094Q91.17858-3.1258199999999996 91.24922-2.7196399999999996T91.54943999999999-1.8896199999999999 92.25583999999999-1.21854 93.49203999999999-0.8829999999999999Q93.598-0.8653399999999999 93.79226-0.8653399999999999 94.72824-0.8653399999999999 95.32867999999999-1.5010999999999999 95.52293999999999-1.7483399999999998 95.62889999999999-1.96026T95.75251999999999-2.24282 95.8938-2.3487799999999996 96.26465999999999-2.3840999999999997H96.35296Q96.81212-2.3840999999999997 96.81212-2.06622 96.81212-1.9425999999999999 96.72381999999999-1.7130199999999998T96.35296-1.16556 95.69954-0.56512 94.67526-0.08829999999999999 93.2448 0.10596Q91.28453999999999 0.10596 89.9777-0.9712999999999999T88.6532-3.9734999999999996ZM94.85185999999999-4.87416Q94.74589999999999-6.110359999999999 94.23375999999999-6.604839999999999T93.03287999999999-7.09932Q92.55605999999999-7.09932 92.14988-6.8873999999999995T91.53178-6.30462Q91.24922-5.845459999999999 91.19623999999999-4.92714V-4.697559999999999H94.85185999999999V-4.87416Z"
        fill-opacity="1"
      ></path>
    </svg>
  </g>
  <g>
    <marker
      id="`loopup`.icon-startArrowId"
      markerUnits="strokeWidth"
      markerWidth="6"
      markerHeight="28"
      viewBox="0 0 6 28"
      refX="1"
      refY="10"
      orient="auto-start-reverse"
      stroke="#000000"
      stroke-opacity="1"
    >
      <path d="M1 10 a 4 4 0 0 1 0 9" fill="none" stroke-linecap="round"></path>
    </marker>
    <marker
      id="`loopup`.icon-endArrowId"
      markerUnits="strokeWidth"
      markerWidth="6"
      markerHeight="28"
      viewBox="0 0 6 28"
      refX="1"
      refY="10"
      orient="auto-start-reverse"
      stroke="#000000"
      stroke-opacity="1"
    >
      <path d="M1 10 a 4 4 0 0 1 0 9" fill="none" stroke-linecap="round"></path>
    </marker>
    <path
      d="M 25 420 L 185 420"
      stroke-opacity="1"
      stroke-width="3"
      stroke="#000000"
      stroke-linecap="butt"
      marker-start="url(#`loopup`.icon-startArrowId)"
      marker-end="url(#`loopup`.icon-endArrowId)"
    ></path>
    <title>`loopup`.icon</title>
  </g>
  <g
    transform="rotate(0, 248.93161999999998, 411.17)translate(248.93161999999998, 411.17)"
    string="\textbf{loopup}"
  >
    <title>`loopup`.text</title>
    <svg
      xmlns="http://www.w3.org/2000/svg"
      width="59.79675999999999"
      height="17.66"
      role="img"
      focusable="false"
      viewBox="0.7063999999999999 -12.256039999999999 58.401619999999994 15.68208"
    >
      <path
        stroke="none"
        fill="#000000"
        stroke-width="0"
        d="M0.7593799999999999-12.114759999999999L2.36644-12.1854Q3.9734999999999996-12.256039999999999 3.99116-12.256039999999999H4.097119999999999V-1.09492H5.315659999999999V0H5.15672Q4.838839999999999-0.05298 3.0021999999999998-0.05298 1.18322-0.05298 0.8653399999999999 0H0.7063999999999999V-1.09492H1.9249399999999999V-5.863119999999999Q1.9249399999999999-6.83442 1.9249399999999999-7.999979999999999T1.9425999999999999-9.430439999999999Q1.9425999999999999-10.47238 1.9072799999999999-10.684299999999999T1.66004-10.9492Q1.4127999999999998-11.019839999999999 0.9359799999999999-11.019839999999999H0.7063999999999999V-12.114759999999999H0.7593799999999999ZM10.70196 0.08829999999999999Q9.66002 0.08829999999999999 8.84766-0.17659999999999998T7.558479999999999-0.84768 6.7461199999999995-1.8013199999999998 6.322279999999999-2.84326 6.198659999999999-3.8675399999999995Q6.198659999999999-4.80352 6.516539999999999-5.54524T7.2935799999999995-6.7461199999999995 8.35318-7.470179999999999 9.41278-7.876359999999999 10.31344-7.98232H10.56068Q11.26708-7.98232 11.390699999999999-7.964659999999999 13.19202-7.752739999999999 14.19864-6.64016T15.205259999999999-3.9028599999999996Q15.205259999999999-2.7549599999999996 14.710779999999998-1.9072799999999999T13.439259999999999-0.58278Q12.41498 0.08829999999999999 10.70196 0.08829999999999999ZM12.679879999999999-4.0618V-4.415Q12.679879999999999-4.9448 12.66222-5.26268T12.538599999999999-5.96908 12.203059999999999-6.56952 11.60262-6.922719999999999 10.61366-7.081659999999999Q9.8896-7.081659999999999 9.37746-6.7108 8.98894-6.4105799999999995 8.865319999999999-5.89844T8.724039999999999-4.0618Q8.724039999999999-3.5673199999999996 8.724039999999999-3.3377399999999997T8.75936-2.70198 8.865319999999999-2.0838799999999997 9.07724-1.60706 9.430439999999999-1.20088 9.960239999999999-0.98896 10.70196-0.8829999999999999Q11.779219999999999-0.8829999999999999 12.23838-1.4834399999999999 12.485619999999999-1.7836599999999998 12.57392-2.33112T12.679879999999999-4.0618ZM20.85646 0.08829999999999999Q19.814519999999998 0.08829999999999999 19.00216-0.17659999999999998T17.712979999999998-0.84768 16.90062-1.8013199999999998 16.476779999999998-2.84326 16.35316-3.8675399999999995Q16.35316-4.80352 16.671039999999998-5.54524T17.448079999999997-6.7461199999999995 18.507679999999997-7.470179999999999 19.56728-7.876359999999999 20.46794-7.98232H20.71518Q21.42158-7.98232 21.545199999999998-7.964659999999999 23.346519999999998-7.752739999999999 24.35314-6.64016T25.359759999999998-3.9028599999999996Q25.359759999999998-2.7549599999999996 24.86528-1.9072799999999999T23.59376-0.58278Q22.56948 0.08829999999999999 20.85646 0.08829999999999999ZM22.83438-4.0618V-4.415Q22.83438-4.9448 22.816719999999997-5.26268T22.693099999999998-5.96908 22.35756-6.56952 21.757119999999997-6.922719999999999 20.768159999999998-7.081659999999999Q20.044099999999997-7.081659999999999 19.531959999999998-6.7108 19.14344-6.4105799999999995 19.01982-5.89844T18.878539999999997-4.0618Q18.878539999999997-3.5673199999999996 18.878539999999997-3.3377399999999997T18.91386-2.70198 19.01982-2.0838799999999997 19.23174-1.60706 19.58494-1.20088 20.114739999999998-0.98896 20.85646-0.8829999999999999Q21.933719999999997-0.8829999999999999 22.392879999999998-1.4834399999999999 22.64012-1.7836599999999998 22.72842-2.33112T22.83438-4.0618ZM26.507659999999998-7.805719999999999L28.11472-7.876359999999999Q29.72178-7.946999999999999 29.73944-7.946999999999999H29.845399999999998V-7.2229399999999995Q29.863059999999997-7.2229399999999995 29.986679999999996-7.2935799999999995T30.375199999999996-7.470179999999999 30.95798-7.6997599999999995 31.73502-7.876359999999999 32.68866-7.946999999999999Q34.41934-7.946999999999999 35.478939999999994-6.852079999999999T36.53854-3.9381799999999996Q36.53854-2.26048 35.461279999999995-1.0772599999999999T32.3178 0.10596H32.194179999999996Q31.099259999999997 0.10596 30.1103-0.49448L29.951359999999998-0.60044V2.33112H31.1699V3.4260399999999995H31.010959999999997Q30.69308 3.3730599999999997 28.821119999999997 3.3730599999999997 26.931499999999996 3.3730599999999997 26.613619999999997 3.4260399999999995H26.454679999999996V2.33112H27.673219999999997V-1.99558-5.01544Q27.673219999999997-5.8278 27.655559999999998-6.14568T27.584919999999997-6.534199999999999 27.408319999999996-6.64016Q27.16108-6.7108 26.68426-6.7108H26.454679999999996V-7.805719999999999H26.507659999999998ZM34.01316-3.95584Q34.01316-5.35098 33.48336-6.16334T32.12354-6.9757Q30.922659999999997-6.9757 30.09264-6.21632L29.951359999999998-6.0927V-1.8366399999999998L30.057319999999997-1.7130199999999998Q30.78138-0.7947 31.893959999999996-0.7947 32.70632-0.7947 33.359739999999995-1.5187599999999999T34.01316-3.95584ZM37.933679999999995-7.805719999999999L39.59372-7.876359999999999Q41.25376-7.946999999999999 41.27142-7.946999999999999H41.377379999999995V-4.82118-2.9139Q41.377379999999995-1.5894 41.43036-1.30684T41.71292-0.9183199999999999Q41.960159999999995-0.81236 42.59592-0.81236H42.86082Q43.443599999999996-0.81236 43.93808-1.18322T44.626819999999995-2.13686L44.644479999999994-2.17218Q44.71512-2.3840999999999997 44.73278-3.51434 44.73278-3.54966 44.73278-3.65562 44.73278-4.11478 44.73278-4.39734V-5.580559999999999Q44.73278-6.251639999999999 44.69746-6.4105799999999995T44.467879999999994-6.64016Q44.220639999999996-6.7108 43.74382-6.7108H43.514239999999994V-7.805719999999999L47.01092-7.946999999999999V-4.7152199999999995Q47.01092-1.4834399999999999 47.04624-1.3951399999999998 47.134539999999994-1.09492 47.99988-1.09492H48.229459999999996V-0.54746Q48.229459999999996 0 48.2118 0 47.876259999999995 0 46.534099999999995 0.05298T44.856399999999994 0.10596Q44.838739999999994 0.10596 44.838739999999994-0.44149999999999995V-0.98896L44.644479999999994-0.7947Q43.81446-0.10596 43.090399999999995 0.01766 42.754859999999994 0.10596 42.18973999999999 0.10596 40.90056 0.10596 40.14118-0.24724T39.15222-1.53642L39.116899999999994-1.7306799999999998 39.099239999999995-4.0618Q39.099239999999995-6.322279999999999 39.063919999999996-6.463559999999999 38.922639999999994-6.7108 38.110279999999996-6.7108H37.8807V-7.805719999999999H37.933679999999995ZM49.07713999999999-7.805719999999999L50.6842-7.876359999999999Q52.291259999999994-7.946999999999999 52.30891999999999-7.946999999999999H52.41488V-7.2229399999999995Q52.432539999999996-7.2229399999999995 52.55616-7.2935799999999995T52.94468-7.470179999999999 53.52746-7.6997599999999995 54.3045-7.876359999999999 55.25814-7.946999999999999Q56.98882-7.946999999999999 58.04841999999999-6.852079999999999T59.108019999999996-3.9381799999999996Q59.108019999999996-2.26048 58.030759999999994-1.0772599999999999T54.88728 0.10596H54.763659999999994Q53.66873999999999 0.10596 52.679779999999994-0.49448L52.52083999999999-0.60044V2.33112H53.73938V3.4260399999999995H53.580439999999996Q53.26255999999999 3.3730599999999997 51.3906 3.3730599999999997 49.50098 3.3730599999999997 49.183099999999996 3.4260399999999995H49.024159999999995V2.33112H50.2427V-1.99558-5.01544Q50.2427-5.8278 50.22503999999999-6.14568T50.154399999999995-6.534199999999999 49.977799999999995-6.64016Q49.73056-6.7108 49.25373999999999-6.7108H49.024159999999995V-7.805719999999999H49.07713999999999ZM56.58264-3.95584Q56.58264-5.35098 56.052839999999996-6.16334T54.69302-6.9757Q53.49214-6.9757 52.662119999999994-6.21632L52.52083999999999-6.0927V-1.8366399999999998L52.626799999999996-1.7130199999999998Q53.35086-0.7947 54.46344-0.7947 55.2758-0.7947 55.929219999999994-1.5187599999999999T56.58264-3.95584Z"
        fill-opacity="1"
      ></path>
    </svg>
  </g>
  <g>
    <marker
      id="`loopdown`.icon-startArrowId"
      markerUnits="strokeWidth"
      markerWidth="6"
      markerHeight="28"
      viewBox="0 0 6 28"
      refX="1"
      refY="10"
      orient="auto-start-reverse"
      stroke="#000000"
      stroke-opacity="1"
    >
      <path d="M1 1 a 4 4 0 0 1 0 9" fill="none" stroke-linecap="round"></path>
    </marker>
    <marker
      id="`loopdown`.icon-endArrowId"
      markerUnits="strokeWidth"
      markerWidth="6"
      markerHeight="28"
      viewBox="0 0 6 28"
      refX="1"
      refY="10"
      orient="auto-start-reverse"
      stroke="#000000"
      stroke-opacity="1"
    >
      <path d="M1 1 a 4 4 0 0 1 0 9" fill="none" stroke-linecap="round"></path>
    </marker>
    <path
      d="M 25 490 L 185 490"
      stroke-opacity="1"
      stroke-width="3"
      stroke="#000000"
      stroke-linecap="butt"
      marker-start="url(#`loopdown`.icon-startArrowId)"
      marker-end="url(#`loopdown`.icon-endArrowId)"
    ></path>
    <title>`loopdown`.icon</title>
  </g>
  <g
    transform="rotate(0, 236.51664, 481.17)translate(236.51664, 481.17)"
    string="\textbf{loopdown}"
  >
    <title>`loopdown`.text</title>
    <svg
      xmlns="http://www.w3.org/2000/svg"
      width="84.62671999999999"
      height="17.66"
      role="img"
      focusable="false"
      viewBox="0.7063999999999999 -12.256039999999999 83.63775999999999 15.68208"
    >
      <path
        stroke="none"
        fill="#000000"
        stroke-width="0"
        d="M0.7593799999999999-12.114759999999999L2.36644-12.1854Q3.9734999999999996-12.256039999999999 3.99116-12.256039999999999H4.097119999999999V-1.09492H5.315659999999999V0H5.15672Q4.838839999999999-0.05298 3.0021999999999998-0.05298 1.18322-0.05298 0.8653399999999999 0H0.7063999999999999V-1.09492H1.9249399999999999V-5.863119999999999Q1.9249399999999999-6.83442 1.9249399999999999-7.999979999999999T1.9425999999999999-9.430439999999999Q1.9425999999999999-10.47238 1.9072799999999999-10.684299999999999T1.66004-10.9492Q1.4127999999999998-11.019839999999999 0.9359799999999999-11.019839999999999H0.7063999999999999V-12.114759999999999H0.7593799999999999ZM10.70196 0.08829999999999999Q9.66002 0.08829999999999999 8.84766-0.17659999999999998T7.558479999999999-0.84768 6.7461199999999995-1.8013199999999998 6.322279999999999-2.84326 6.198659999999999-3.8675399999999995Q6.198659999999999-4.80352 6.516539999999999-5.54524T7.2935799999999995-6.7461199999999995 8.35318-7.470179999999999 9.41278-7.876359999999999 10.31344-7.98232H10.56068Q11.26708-7.98232 11.390699999999999-7.964659999999999 13.19202-7.752739999999999 14.19864-6.64016T15.205259999999999-3.9028599999999996Q15.205259999999999-2.7549599999999996 14.710779999999998-1.9072799999999999T13.439259999999999-0.58278Q12.41498 0.08829999999999999 10.70196 0.08829999999999999ZM12.679879999999999-4.0618V-4.415Q12.679879999999999-4.9448 12.66222-5.26268T12.538599999999999-5.96908 12.203059999999999-6.56952 11.60262-6.922719999999999 10.61366-7.081659999999999Q9.8896-7.081659999999999 9.37746-6.7108 8.98894-6.4105799999999995 8.865319999999999-5.89844T8.724039999999999-4.0618Q8.724039999999999-3.5673199999999996 8.724039999999999-3.3377399999999997T8.75936-2.70198 8.865319999999999-2.0838799999999997 9.07724-1.60706 9.430439999999999-1.20088 9.960239999999999-0.98896 10.70196-0.8829999999999999Q11.779219999999999-0.8829999999999999 12.23838-1.4834399999999999 12.485619999999999-1.7836599999999998 12.57392-2.33112T12.679879999999999-4.0618ZM20.85646 0.08829999999999999Q19.814519999999998 0.08829999999999999 19.00216-0.17659999999999998T17.712979999999998-0.84768 16.90062-1.8013199999999998 16.476779999999998-2.84326 16.35316-3.8675399999999995Q16.35316-4.80352 16.671039999999998-5.54524T17.448079999999997-6.7461199999999995 18.507679999999997-7.470179999999999 19.56728-7.876359999999999 20.46794-7.98232H20.71518Q21.42158-7.98232 21.545199999999998-7.964659999999999 23.346519999999998-7.752739999999999 24.35314-6.64016T25.359759999999998-3.9028599999999996Q25.359759999999998-2.7549599999999996 24.86528-1.9072799999999999T23.59376-0.58278Q22.56948 0.08829999999999999 20.85646 0.08829999999999999ZM22.83438-4.0618V-4.415Q22.83438-4.9448 22.816719999999997-5.26268T22.693099999999998-5.96908 22.35756-6.56952 21.757119999999997-6.922719999999999 20.768159999999998-7.081659999999999Q20.044099999999997-7.081659999999999 19.531959999999998-6.7108 19.14344-6.4105799999999995 19.01982-5.89844T18.878539999999997-4.0618Q18.878539999999997-3.5673199999999996 18.878539999999997-3.3377399999999997T18.91386-2.70198 19.01982-2.0838799999999997 19.23174-1.60706 19.58494-1.20088 20.114739999999998-0.98896 20.85646-0.8829999999999999Q21.933719999999997-0.8829999999999999 22.392879999999998-1.4834399999999999 22.64012-1.7836599999999998 22.72842-2.33112T22.83438-4.0618ZM26.507659999999998-7.805719999999999L28.11472-7.876359999999999Q29.72178-7.946999999999999 29.73944-7.946999999999999H29.845399999999998V-7.2229399999999995Q29.863059999999997-7.2229399999999995 29.986679999999996-7.2935799999999995T30.375199999999996-7.470179999999999 30.95798-7.6997599999999995 31.73502-7.876359999999999 32.68866-7.946999999999999Q34.41934-7.946999999999999 35.478939999999994-6.852079999999999T36.53854-3.9381799999999996Q36.53854-2.26048 35.461279999999995-1.0772599999999999T32.3178 0.10596H32.194179999999996Q31.099259999999997 0.10596 30.1103-0.49448L29.951359999999998-0.60044V2.33112H31.1699V3.4260399999999995H31.010959999999997Q30.69308 3.3730599999999997 28.821119999999997 3.3730599999999997 26.931499999999996 3.3730599999999997 26.613619999999997 3.4260399999999995H26.454679999999996V2.33112H27.673219999999997V-1.99558-5.01544Q27.673219999999997-5.8278 27.655559999999998-6.14568T27.584919999999997-6.534199999999999 27.408319999999996-6.64016Q27.16108-6.7108 26.68426-6.7108H26.454679999999996V-7.805719999999999H26.507659999999998ZM34.01316-3.95584Q34.01316-5.35098 33.48336-6.16334T32.12354-6.9757Q30.922659999999997-6.9757 30.09264-6.21632L29.951359999999998-6.0927V-1.8366399999999998L30.057319999999997-1.7130199999999998Q30.78138-0.7947 31.893959999999996-0.7947 32.70632-0.7947 33.359739999999995-1.5187599999999999T34.01316-3.95584ZM43.42594-12.114759999999999L45.032999999999994-12.1854Q46.64006-12.256039999999999 46.65772-12.256039999999999H46.763679999999994V-6.869739999999999Q46.763679999999994-5.774819999999999 46.763679999999994-4.46798T46.746019999999994-2.87858Q46.746019999999994-1.7130199999999998 46.78133999999999-1.4657799999999999T47.02858-1.16556Q47.275819999999996-1.09492 47.75264-1.09492H47.98222V-0.54746Q47.98222 0 47.96456 0 47.61136 0 46.23388 0.05298T44.5032 0.10596Q44.48553999999999 0.10596 44.48553999999999-0.28256V-0.6710799999999999L44.30894-0.54746Q43.1787 0.10596 41.90718 0.10596 40.035219999999995 0.10596 38.97562-1.0242799999999999T37.89836-3.95584Q37.89836-4.6799 38.127939999999995-5.35098T38.852-6.6225 40.14118-7.57614 42.0308-7.929339999999999Q43.56722-7.929339999999999 44.591499999999996-7.275919999999999V-8.953619999999999-9.8013Q44.591499999999996-10.543019999999999 44.55618-10.719619999999999T44.3266-10.9492Q44.079359999999994-11.019839999999999 43.60254-11.019839999999999H43.37296V-12.114759999999999H43.42594ZM44.48553999999999-6.180999999999999Q43.6202-7.04634 42.366339999999994-7.04634 42.136759999999995-7.04634 41.748239999999996-6.922719999999999T41.07716-6.55186Q40.67098-6.198659999999999 40.56502-5.651199999999999T40.441399999999994-4.20308V-3.9028599999999996Q40.441399999999994-3.1611399999999996 40.459059999999994-2.80794T40.600339999999996-2.0309 40.971199999999996-1.30684Q41.48334-0.81236 42.313359999999996-0.81236 43.54956-0.81236 44.36192-1.7659999999999998L44.48553999999999-1.9249399999999999V-6.180999999999999ZM53.580439999999996 0.08829999999999999Q52.5385 0.08829999999999999 51.726139999999994-0.17659999999999998T50.43696-0.84768 49.624599999999994-1.8013199999999998 49.200759999999995-2.84326 49.07713999999999-3.8675399999999995Q49.07713999999999-4.80352 49.395019999999995-5.54524T50.172059999999995-6.7461199999999995 51.23166-7.470179999999999 52.291259999999994-7.876359999999999 53.191919999999996-7.98232H53.439159999999994Q54.145559999999996-7.98232 54.26918-7.964659999999999 56.070499999999996-7.752739999999999 57.077119999999994-6.64016T58.08374-3.9028599999999996Q58.08374-2.7549599999999996 57.589259999999996-1.9072799999999999T56.31773999999999-0.58278Q55.293459999999996 0.08829999999999999 53.580439999999996 0.08829999999999999ZM55.55835999999999-4.0618V-4.415Q55.55835999999999-4.9448 55.540699999999994-5.26268T55.41708-5.96908 55.08154-6.56952 54.4811-6.922719999999999 53.49214-7.081659999999999Q52.76808-7.081659999999999 52.255939999999995-6.7108 51.867419999999996-6.4105799999999995 51.74379999999999-5.89844T51.60252-4.0618Q51.60252-3.5673199999999996 51.60252-3.3377399999999997T51.63784-2.70198 51.74379999999999-2.0838799999999997 51.95572-1.60706 52.30891999999999-1.20088 52.838719999999995-0.98896 53.580439999999996-0.8829999999999999Q54.6577-0.8829999999999999 55.116859999999996-1.4834399999999999 55.36409999999999-1.7836599999999998 55.4524-2.33112T55.55835999999999-4.0618ZM69.68636-7.84104Q69.89828-7.78806 71.41704-7.78806 72.74154-7.78806 72.79451999999999-7.84104H72.88282V-6.7461199999999995H71.75258L69.13889999999999-0.19426Q69.12124-0.17659999999999998 69.08592-0.14128T69.01527999999999-0.07064 68.97995999999999-0.03532 68.92698 0 68.89166 0.03532 68.82101999999999 0.05298 68.75037999999999 0.05298 68.67974 0.07064 68.57378 0.07064 68.43249999999999 0.07064H68.23823999999999Q67.93802 0.07064 67.81439999999999-0.10596T67.31992-1.2362Q67.03735999999999-1.9425999999999999 66.84309999999999-2.4194199999999997L65.99542-4.53862 65.14774-2.4194199999999997Q64.97113999999999-1.96026 64.68858-1.27152 64.31772-0.30022 64.19409999999999-0.12362T63.77025999999999 0.07064H63.558339999999994Q63.24045999999999 0.07064 63.134499999999996 0.03532T62.8696-0.19426L60.255919999999996-6.7461199999999995H59.108019999999996V-7.84104H59.23164Q59.496539999999996-7.78806 61.13891999999999-7.78806 62.957899999999995-7.78806 63.27578-7.84104H63.43471999999999V-6.7461199999999995H62.587039999999995L64.14112-2.8962399999999997 65.41264-6.039719999999999 65.13007999999999-6.7461199999999995H64.0175V-7.84104H64.14112Q64.35304-7.78806 65.85414-7.78806 67.6378-7.78806 67.9027-7.84104H68.04397999999999V-6.7461199999999995H67.60248Q67.16098-6.7461199999999995 67.16098-6.7108 67.17864-6.64016 68.00865999999999-4.5739399999999995T68.85633999999999-2.50772L70.56935999999999-6.7461199999999995H69.56273999999999V-7.84104H69.68636ZM74.04838-7.805719999999999Q77.1742-7.946999999999999 77.19185999999999-7.946999999999999H77.29781999999999V-7.187619999999999L77.31548-6.445899999999999Q77.45675999999999-6.675479999999999 77.66868-6.90506T78.44572-7.45252 79.7349-7.91168Q79.94681999999999-7.946999999999999 80.37065999999999-7.946999999999999 80.90046-7.946999999999999 81.25366-7.894019999999999T82.01303999999999-7.664439999999999 82.68412-7.09932 83.07263999999999-6.110359999999999Q83.10795999999999-5.916099999999999 83.12562-3.4966799999999996V-1.09492H84.34415999999999V0H84.18521999999999Q83.86734-0.05298 81.97771999999999-0.05298 79.94681999999999-0.05298 79.78787999999999 0H79.62894V-1.09492H80.84747999999999V-3.4260399999999995-4.8565Q80.84747999999999-6.14568 80.68853999999999-6.587179999999999T79.89384-7.04634Q79.09913999999999-7.04634 78.42805999999999-6.534199999999999T77.54505999999999-5.1213999999999995Q77.50974-4.962459999999999 77.49207999999999-3.0198599999999995V-1.09492H78.71061999999999V0H78.55167999999999Q78.23379999999999-0.05298 76.36184-0.05298 74.47222-0.05298 74.15433999999999 0H73.99539999999999V-1.09492H75.21394V-3.7085999999999997-5.35098Q75.21394-6.23398 75.17862-6.4105799999999995T74.94904-6.64016Q74.70179999999999-6.7108 74.22497999999999-6.7108H73.99539999999999V-7.805719999999999H74.04838Z"
        fill-opacity="1"
      ></path>
    </svg>
  </g>
  <g>
    <marker
      id="`loop`.icon-startArrowId"
      markerUnits="strokeWidth"
      markerWidth="6"
      markerHeight="28"
      viewBox="0 0 6 28"
      refX="1"
      refY="10"
      orient="auto-start-reverse"
      stroke="#000000"
      stroke-opacity="1"
    >
      <path
        d="M1 10 a 4 4 0 0 1 0 9 M1 1 a 4 4 0 0 1 0 9"
        fill="none"
        stroke-linecap="round"
      ></path>
    </marker>
    <marker
      id="`loop`.icon-endArrowId"
      markerUnits="strokeWidth"
      markerWidth="6"
      markerHeight="28"
      viewBox="0 0 6 28"
      refX="1"
      refY="10"
      orient="auto-start-reverse"
      stroke="#000000"
      stroke-opacity="1"
    >
      <path
        d="M1 10 a 4 4 0 0 1 0 9 M1 1 a 4 4 0 0 1 0 9"
        fill="none"
        stroke-linecap="round"
      ></path>
    </marker>
    <path
      d="M 25 560 L 185 560"
      stroke-opacity="1"
      stroke-width="3"
      stroke="#000000"
      stroke-linecap="butt"
      marker-start="url(#`loop`.icon-startArrowId)"
      marker-end="url(#`loop`.icon-endArrowId)"
    ></path>
    <title>`loop`.icon</title>
  </g>
  <g
    transform="rotate(0, 260.21636, 551.17)translate(260.21636, 551.17)"
    string="\textbf{loop}"
  >
    <title>`loop`.text</title>
    <svg
      xmlns="http://www.w3.org/2000/svg"
      width="37.22728"
      height="17.66"
      role="img"
      focusable="false"
      viewBox="0.7063999999999999 -12.256039999999999 35.832139999999995 15.68208"
    >
      <path
        stroke="none"
        fill="#000000"
        stroke-width="0"
        d="M0.7593799999999999-12.114759999999999L2.36644-12.1854Q3.9734999999999996-12.256039999999999 3.99116-12.256039999999999H4.097119999999999V-1.09492H5.315659999999999V0H5.15672Q4.838839999999999-0.05298 3.0021999999999998-0.05298 1.18322-0.05298 0.8653399999999999 0H0.7063999999999999V-1.09492H1.9249399999999999V-5.863119999999999Q1.9249399999999999-6.83442 1.9249399999999999-7.999979999999999T1.9425999999999999-9.430439999999999Q1.9425999999999999-10.47238 1.9072799999999999-10.684299999999999T1.66004-10.9492Q1.4127999999999998-11.019839999999999 0.9359799999999999-11.019839999999999H0.7063999999999999V-12.114759999999999H0.7593799999999999ZM10.70196 0.08829999999999999Q9.66002 0.08829999999999999 8.84766-0.17659999999999998T7.558479999999999-0.84768 6.7461199999999995-1.8013199999999998 6.322279999999999-2.84326 6.198659999999999-3.8675399999999995Q6.198659999999999-4.80352 6.516539999999999-5.54524T7.2935799999999995-6.7461199999999995 8.35318-7.470179999999999 9.41278-7.876359999999999 10.31344-7.98232H10.56068Q11.26708-7.98232 11.390699999999999-7.964659999999999 13.19202-7.752739999999999 14.19864-6.64016T15.205259999999999-3.9028599999999996Q15.205259999999999-2.7549599999999996 14.710779999999998-1.9072799999999999T13.439259999999999-0.58278Q12.41498 0.08829999999999999 10.70196 0.08829999999999999ZM12.679879999999999-4.0618V-4.415Q12.679879999999999-4.9448 12.66222-5.26268T12.538599999999999-5.96908 12.203059999999999-6.56952 11.60262-6.922719999999999 10.61366-7.081659999999999Q9.8896-7.081659999999999 9.37746-6.7108 8.98894-6.4105799999999995 8.865319999999999-5.89844T8.724039999999999-4.0618Q8.724039999999999-3.5673199999999996 8.724039999999999-3.3377399999999997T8.75936-2.70198 8.865319999999999-2.0838799999999997 9.07724-1.60706 9.430439999999999-1.20088 9.960239999999999-0.98896 10.70196-0.8829999999999999Q11.779219999999999-0.8829999999999999 12.23838-1.4834399999999999 12.485619999999999-1.7836599999999998 12.57392-2.33112T12.679879999999999-4.0618ZM20.85646 0.08829999999999999Q19.814519999999998 0.08829999999999999 19.00216-0.17659999999999998T17.712979999999998-0.84768 16.90062-1.8013199999999998 16.476779999999998-2.84326 16.35316-3.8675399999999995Q16.35316-4.80352 16.671039999999998-5.54524T17.448079999999997-6.7461199999999995 18.507679999999997-7.470179999999999 19.56728-7.876359999999999 20.46794-7.98232H20.71518Q21.42158-7.98232 21.545199999999998-7.964659999999999 23.346519999999998-7.752739999999999 24.35314-6.64016T25.359759999999998-3.9028599999999996Q25.359759999999998-2.7549599999999996 24.86528-1.9072799999999999T23.59376-0.58278Q22.56948 0.08829999999999999 20.85646 0.08829999999999999ZM22.83438-4.0618V-4.415Q22.83438-4.9448 22.816719999999997-5.26268T22.693099999999998-5.96908 22.35756-6.56952 21.757119999999997-6.922719999999999 20.768159999999998-7.081659999999999Q20.044099999999997-7.081659999999999 19.531959999999998-6.7108 19.14344-6.4105799999999995 19.01982-5.89844T18.878539999999997-4.0618Q18.878539999999997-3.5673199999999996 18.878539999999997-3.3377399999999997T18.91386-2.70198 19.01982-2.0838799999999997 19.23174-1.60706 19.58494-1.20088 20.114739999999998-0.98896 20.85646-0.8829999999999999Q21.933719999999997-0.8829999999999999 22.392879999999998-1.4834399999999999 22.64012-1.7836599999999998 22.72842-2.33112T22.83438-4.0618ZM26.507659999999998-7.805719999999999L28.11472-7.876359999999999Q29.72178-7.946999999999999 29.73944-7.946999999999999H29.845399999999998V-7.2229399999999995Q29.863059999999997-7.2229399999999995 29.986679999999996-7.2935799999999995T30.375199999999996-7.470179999999999 30.95798-7.6997599999999995 31.73502-7.876359999999999 32.68866-7.946999999999999Q34.41934-7.946999999999999 35.478939999999994-6.852079999999999T36.53854-3.9381799999999996Q36.53854-2.26048 35.461279999999995-1.0772599999999999T32.3178 0.10596H32.194179999999996Q31.099259999999997 0.10596 30.1103-0.49448L29.951359999999998-0.60044V2.33112H31.1699V3.4260399999999995H31.010959999999997Q30.69308 3.3730599999999997 28.821119999999997 3.3730599999999997 26.931499999999996 3.3730599999999997 26.613619999999997 3.4260399999999995H26.454679999999996V2.33112H27.673219999999997V-1.99558-5.01544Q27.673219999999997-5.8278 27.655559999999998-6.14568T27.584919999999997-6.534199999999999 27.408319999999996-6.64016Q27.16108-6.7108 26.68426-6.7108H26.454679999999996V-7.805719999999999H26.507659999999998ZM34.01316-3.95584Q34.01316-5.35098 33.48336-6.16334T32.12354-6.9757Q30.922659999999997-6.9757 30.09264-6.21632L29.951359999999998-6.0927V-1.8366399999999998L30.057319999999997-1.7130199999999998Q30.78138-0.7947 31.893959999999996-0.7947 32.70632-0.7947 33.359739999999995-1.5187599999999999T34.01316-3.95584Z"
        fill-opacity="1"
      ></path>
    </svg>
  </g>
</svg>
