<svg version="1.2" xmlns="http://www.w3.org/2000/svg" viewBox="0 0 800 700">
  <circle
    fill="none"
    cx="319.1567878913495"
    cy="491.5779172089618"
    stroke="#000000"
    stroke-opacity="1"
    stroke-width="1.75"
    stroke-linecap="butt"
    r="177.12265143591534"
  >
    <title>`c`.icon</title>
  </circle>
  <circle
    fill="#000000"
    fill-opacity="1"
    cx="490.30814584374207"
    cy="537.1810571454716"
    stroke="#000000"
    stroke-opacity="1"
    stroke-width="0"
    stroke-linecap="butt"
    r="4"
  >
    <title>`E`.icon</title>
  </circle>
  <circle
    fill="#000000"
    fill-opacity="1"
    cx="148.0051362791399"
    cy="445.975879352792"
    stroke="#000000"
    stroke-opacity="1"
    stroke-width="0"
    stroke-linecap="butt"
    r="4"
  >
    <title>`A`.icon</title>
  </circle>
  <circle
    fill="#000000"
    fill-opacity="1"
    cx="378.6933865108173"
    cy="324.7611702183999"
    stroke="#000000"
    stroke-opacity="1"
    stroke-width="0"
    stroke-linecap="butt"
    r="4"
  >
    <title>`C`.icon</title>
  </circle>
  <g style="solid">
    <path
      d="M 319.1567878913495 491.5779172089618 L 475.95203711425006 409.19079127522855"
      stroke-opacity="1"
      stroke-width="1.75"
      stroke="#000000"
      stroke-linecap="butt"
    ></path>
    <title>`FD`.icon</title>
  </g>
  <g
    transform="rotate(0, 421.4462182491858, 444.62471115310876)translate(421.4462182491858, 444.62471115310876)"
    string="d"
  >
    <title>`d`.text</title>
    <svg
      xmlns="http://www.w3.org/2000/svg"
      width="9.9632"
      height="19.16"
      role="img"
      focusable="false"
      viewBox="0.63228 -13.297039999999999 9.3884 13.488639999999998"
    >
      <path
        stroke="none"
        fill="#000000"
        stroke-width="0"
        d="M7.01256-13.08628Q7.03172-13.08628 8.39208-13.18208T9.79076-13.297039999999999Q10.02068-13.297039999999999 10.02068-13.14376 10.02068-13.00964 8.622-7.35744T7.185-1.59028 7.16584-1.30288Q7.16584-0.49816 7.70232-0.49816 7.87476-0.51732 8.08552-0.6706 8.48788-1.0538 8.87108-2.50996 8.98604-2.89316 9.06268-2.91232 9.100999999999999-2.93148 9.25428-2.93148H9.33092 9.40756Q9.69496-2.93148 9.69496-2.7782 9.69496-2.6824 9.63748-2.47164 9.3884-1.51364 9.06268-0.91968T8.5262-0.15328 7.98972 0.15328Q7.83644 0.1916 7.52988 0.1916 6.87844 0.1916 6.43776-0.0958T5.86296-0.68976L5.748-0.97716Q5.72884-0.99632 5.67136-0.958 5.63304-0.91968 5.59472-0.88136 4.46428 0.1916 3.29552 0.1916 2.24172 0.1916 1.437-0.5748T0.63228-3.00812Q0.63228-3.9278 1.01548-4.8858T1.93516-6.53356Q2.83568-7.62568 3.7362-8.0472T5.3648-8.46872Q6.43776-8.46872 6.97424-7.664 7.07004-7.54904 7.07004-7.58736 7.0892-7.664 7.58736-9.6758T8.12384-11.80256Q8.12384-12.05164 7.98972-12.10912T7.24248-12.20492H6.84012Q6.72516-12.31988 6.72516-12.3582T6.76348-12.72224Q6.85928-13.08628 7.01256-13.08628ZM6.74432-6.24616Q6.30364-7.7598 5.30732-7.7598 4.63672-7.7598 4.0236-7.16584T3.0656-5.61388Q2.50996-4.10024 2.28004-2.47164 2.28004-2.41416 2.28004-2.26088T2.26088-2.03096Q2.26088-1.16876 2.60576-0.84304T3.42964-0.49816Q4.46428-0.49816 5.5564-1.87768L5.70968-2.08844 6.74432-6.24616Z"
        fill-opacity="1"
      ></path>
    </svg>
  </g>
  <g
    transform="rotate(0, 489.95154483589255, 394.5646228265922)translate(489.95154483589255, 394.5646228265922)"
    string="D"
  >
    <title>`D`.text</title>
    <svg
      xmlns="http://www.w3.org/2000/svg"
      width="15.86448"
      height="19.16"
      role="img"
      focusable="false"
      viewBox="0.63228 -13.08628 14.7532 13.08628"
    >
      <path
        stroke="none"
        fill="#000000"
        stroke-width="0"
        d="M5.49892-12.03248Q5.49892-12.1666 4.4068-12.20492 3.96612-12.20492 3.832-12.22408T3.69788-12.39652Q3.69788-12.5498 3.77452-12.77972T3.90864-13.06712Q3.94696-13.08628 7.72148-13.08628 10.9212-13.06712 11.3044-13.06712T12.0708-12.95216Q13.45032-12.62644 14.40832-11.43852T15.38548-8.25796Q15.38548-5.269 13.33536-2.89316T8.50704-0.05748L8.2388-0.01916 4.52176 0H2.395 1.37952Q0.91968 0 0.78556-0.03832T0.63228-0.21076Q0.63228-0.24908 0.68976-0.479 0.7664-0.78556 0.84304-0.82388T1.28372-0.88136Q1.80104-0.88136 2.43332-0.93884 2.70156-0.99632 2.79736-1.16876 2.85484-1.2454 4.17688-6.49524T5.49892-12.03248ZM13.46948-8.98604Q13.46948-9.71412 13.25872-10.28892T12.76056-11.18944 12.05164-11.74508 11.3044-12.05164 10.6338-12.18576Q10.59548-12.18576 10.36556-12.18576T9.80992-12.18576 9.17764-12.20492H8.35376Q7.51072-12.20492 7.39576-12.01332 7.35744-11.93668 5.99708-6.49524T4.63672-0.99632Q4.63672-0.91968 4.84748-0.91968T6.3228-0.90052Q6.4186-0.90052 6.68684-0.90052T7.14668-0.88136Q9.56084-0.88136 11.13196-2.45248 11.82172-3.14224 12.2624-4.06192T13.08628-6.49524 13.46948-8.98604Z"
        fill-opacity="1"
      ></path>
    </svg>
  </g>
  <circle
    fill="#000000"
    fill-opacity="1"
    cx="319.1567878913495"
    cy="491.5779172089618"
    stroke="#000000"
    stroke-opacity="1"
    stroke-width="0"
    stroke-linecap="butt"
    r="4"
  >
    <title>`F`.icon</title>
  </circle>
  <circle
    fill="#000000"
    fill-opacity="1"
    cx="434.5007661772797"
    cy="430.97111368193583"
    stroke="#000000"
    stroke-opacity="1"
    stroke-width="0"
    stroke-linecap="butt"
    r="4"
  >
    <title>`d`.icon</title>
  </circle>
  <circle
    fill="#000000"
    fill-opacity="1"
    cx="475.95203711425006"
    cy="409.19079127522855"
    stroke="#000000"
    stroke-opacity="1"
    stroke-width="0"
    stroke-linecap="butt"
    r="4"
  >
    <title>`D`.icon</title>
  </circle>
  <g
    transform="rotate(0, 353.2598366834141, 296.7824890390326)translate(353.2598366834141, 296.7824890390326)"
    string="C"
  >
    <title>`C`.text</title>
    <svg
      xmlns="http://www.w3.org/2000/svg"
      width="14.5616"
      height="19.16"
      role="img"
      focusable="false"
      viewBox="0.958 -13.5078 13.6036 13.929319999999999"
    >
      <path
        stroke="none"
        fill="#000000"
        stroke-width="0"
        d="M0.958-4.82832Q0.958-7.03172 2.24172-9.06268T5.47976-12.28156 9.3884-13.48864Q11.1128-13.48864 12.12828-12.51148 12.30072-12.31988 12.41568-12.18576T12.56896-11.99416L12.58812-11.93668Q12.6456-11.93668 13.10544-12.43484 13.239559999999999-12.5498 13.39284-12.70308T13.6994-13.00964 13.891-13.2204L14.1784-13.5078H14.29336Q14.5616-13.5078 14.5616-13.37368 14.5616-13.297039999999999 13.94848-10.74876 13.25872-8.08552 13.25872-8.06636 13.2204-7.97056 13.16292-7.9514T12.81804-7.91308H12.51148Q12.39652-8.02804 12.39652-8.08552 12.39652-8.10468 12.41568-8.21964T12.454-8.60284 12.47316-9.21596Q12.47316-10.57632 11.86004-11.5918T9.7716-12.62644Q9.27344-12.62644 8.69864-12.49232T7.31912-12.03248 5.72884-10.95952 4.33016-9.17764Q3.71704-8.08552 3.353-6.62936T2.98896-4.25352Q2.98896-2.06928 4.44512-1.11128 5.3648-0.45984 6.706-0.45984 8.44956-0.45984 9.80992-1.76272T11.61096-4.5984Q11.6876-4.84748 11.72592-4.8858T12.03248-4.92412Q12.41568-4.92412 12.41568-4.75168 12.41568-4.65588 12.39652-4.57924 11.84088-2.52912 10.02068-1.0538T6.11204 0.42152Q3.94696 0.42152 2.45248-1.01548T0.958-4.82832Z"
        fill-opacity="1"
      ></path>
    </svg>
  </g>
  <g style="solid">
    <path
      d="M 319.1567878913495 491.5779172089618 L 236.7687829484342 334.78222150673724"
      stroke-opacity="1"
      stroke-width="1.75"
      stroke="#000000"
      stroke-linecap="butt"
    ></path>
    <title>`FB`.icon</title>
  </g>
  <g
    transform="rotate(0, 277.3489232830964, 379.4059775806217)translate(277.3489232830964, 379.4059775806217)"
    string="b"
  >
    <title>`b`.text</title>
    <svg
      xmlns="http://www.w3.org/2000/svg"
      width="8.21964"
      height="19.16"
      role="img"
      focusable="false"
      viewBox="0.7664 -13.297039999999999 7.319120000000001 13.5078"
    >
      <path
        stroke="none"
        fill="#000000"
        stroke-width="0"
        d="M1.39868-12.39652Q1.39868-12.58812 1.47532-12.8372T1.70524-13.08628Q1.7244-13.08628 3.08476-13.18208T4.48344-13.297039999999999Q4.71336-13.297039999999999 4.71336-13.1246T4.06192-10.38472Q3.90864-9.73328 3.7362-9.04352T3.4488-8.00888L3.37216-7.64484Q3.37216-7.58736 3.48712-7.70232 4.42596-8.46872 5.42228-8.46872 6.6102-8.46872 7.33828-7.58736T8.08552-5.3648Q8.08552-3.23804 6.57188-1.51364T3.31468 0.21076Q2.35668 0.21076 1.57112-0.51732T0.7664-2.874V-3.04644Q0.7664-3.4488 0.91968-4.15772T1.85852-7.93224Q2.81652-11.70676 2.81652-11.93668T2.08844-12.20492Q1.99264-12.20492 1.93516-12.20492H1.83936Q1.64776-12.20492 1.59028-12.20492T1.45616-12.2624 1.39868-12.39652ZM6.43776-6.227V-6.34196Q6.43776-7.7598 5.269-7.7598 4.94328-7.7598 4.5984-7.60652T3.96612-7.20416 3.46796-6.74432 3.12308-6.3228L3.00812-6.16952 2.60576-4.52176Q2.18424-2.874 2.18424-2.18424 2.18424-1.26456 2.64408-0.80472 2.95064-0.49816 3.41048-0.49816 4.04276-0.49816 4.6942-1.11128 5.1732-1.55196 5.4606-2.18424T6.09288-4.19604Q6.43776-5.57556 6.43776-6.227Z"
        fill-opacity="1"
      ></path>
    </svg>
  </g>
  <circle
    fill="#000000"
    fill-opacity="1"
    cx="236.7687829484342"
    cy="334.78222150673724"
    stroke="#000000"
    stroke-opacity="1"
    stroke-width="0"
    stroke-linecap="butt"
    r="4"
  >
    <title>`B`.icon</title>
  </circle>
  <circle
    fill="#000000"
    fill-opacity="1"
    cx="263.3492613949786"
    cy="385.368524785596"
    stroke="#000000"
    stroke-opacity="1"
    stroke-width="0"
    stroke-linecap="butt"
    r="4"
  >
    <title>`b`.icon</title>
  </circle>
  <g
    transform="rotate(0, 504.30771505941124, 520.1255378744844)translate(504.30771505941124, 520.1255378744844)"
    string="E"
  >
    <title>`E`.text</title>
    <svg
      xmlns="http://www.w3.org/2000/svg"
      width="14.63824"
      height="19.16"
      role="img"
      focusable="false"
      viewBox="0.59396 -13.0288 14.04428 13.0288"
    >
      <path
        stroke="none"
        fill="#000000"
        stroke-width="0"
        d="M9.42672-4.08108Q9.04352-4.08108 9.04352-4.33016 9.04352-4.4068 9.13932-4.79T9.23512-5.4606Q9.23512-6.05456 8.83276-6.18868T6.97424-6.3228H5.97792Q5.95876-6.28448 5.30732-3.67872T4.65588-0.99632Q4.65588-0.91968 4.86664-0.91968T6.39944-0.88136Q8.20048-0.88136 8.77528-0.91968T9.92488-1.16876Q10.86372-1.47532 11.47684-2.24172T12.8372-4.75168Q13.0288-5.1732 13.08628-5.21152 13.2204-5.24984 13.37368-5.24984 13.75688-5.24984 13.75688-5.00076 11.74508-0.13412 11.64928-0.03832 11.5918 0 6.16952 0H2.54828Q0.59396 0 0.59396-0.21076 0.59396-0.24908 0.65144-0.479 0.72808-0.78556 0.80472-0.82388T1.2454-0.88136Q1.76272-0.88136 2.395-0.93884 2.66324-0.99632 2.75904-1.16876 2.79736-1.26456 4.1194-6.55272T5.4606-11.91752Q5.4606-12.05164 5.38396-12.05164 5.2306799999999996-12.10912 4.36848-12.14744H3.77452Q3.65956-12.2624 3.65956-12.30072T3.69788-12.62644Q3.77452-12.95216 3.88948-13.0288H14.50412Q14.63824-12.95216 14.63824-12.81804 14.63824-12.72224 14.38916-10.67212T14.12092-8.56452Q14.0826-8.4304 13.73772-8.4304H13.5078Q13.37368-8.5262 13.37368-8.67948L13.43116-9.12016Q13.48864-9.58 13.48864-10.11648 13.48864-10.69128 13.35452-11.07448T12.99048-11.66844 12.31988-11.975 11.41936-12.10912 10.19312-12.14744H9.2926Q7.60652-12.12828 7.51072-12.08996 7.43408-12.05164 7.39576-11.91752 7.3766-11.86004 6.8018-9.56084T6.20784-7.22332Q6.6485199999999995-7.20416 7.12752-7.20416H7.62568Q8.89024-7.20416 9.36924-7.49156T10.23144-9.04352Q10.30808-9.35008 10.3464-9.3884T10.67212-9.44588Q10.76792-9.44588 10.8254-9.44588T10.9212-9.42672 10.95952-9.40756 10.99784-9.33092 11.05532-9.25428L10.42304-6.72516Q9.79076-4.17688 9.73328-4.13856 9.6758-4.08108 9.42672-4.08108Z"
        fill-opacity="1"
      ></path>
    </svg>
  </g>
  <g
    transform="rotate(0, 329.0881548781243, 501.4449144894454)translate(329.0881548781243, 501.4449144894454)"
    string="F"
  >
    <title>`F`.text</title>
    <svg
      xmlns="http://www.w3.org/2000/svg"
      width="14.35084"
      height="19.16"
      role="img"
      focusable="false"
      viewBox="0.59396 -13.0288 13.756879999999999 13.0288"
    >
      <path
        stroke="none"
        fill="#000000"
        stroke-width="0"
        d="M0.91968-0.01916Q0.59396-0.01916 0.59396-0.21076 0.59396-0.24908 0.65144-0.479 0.72808-0.78556 0.80472-0.82388T1.2454-0.88136Q1.76272-0.88136 2.395-0.93884 2.66324-0.99632 2.75904-1.16876 2.79736-1.26456 4.1194-6.55272T5.4606-11.91752Q5.4606-12.05164 5.38396-12.05164 5.2306799999999996-12.10912 4.36848-12.14744H3.77452Q3.65956-12.2624 3.65956-12.30072T3.69788-12.62644Q3.77452-12.95216 3.88948-13.0288H14.21672Q14.35084-12.95216 14.35084-12.81804 14.35084-12.72224 14.10176-10.67212T13.83352-8.56452Q13.7952-8.4304 13.45032-8.4304H13.2204Q13.08628-8.5262 13.08628-8.67948 13.08628-8.69864 13.14376-9.13932T13.20124-10.1548Q13.20124-10.7296 13.06712-11.09364T12.70308-11.6876 11.99416-11.99416 11.017-12.12828 9.63748-12.14744H9.1968Q7.62568-12.12828 7.52988-12.08996 7.43408-12.05164 7.39576-11.93668 7.3766-11.91752 6.74432-9.42672L6.1312-6.95508H7.185Q7.24248-6.95508 7.62568-6.95508T8.16216-6.97424 8.58368-7.03172 9.04352-7.16584 9.36924-7.39576Q9.61832-7.62568 9.79076-8.02804T10.03984-8.75612 10.13564-9.100999999999999Q10.19312-9.1968 10.49968-9.1968H10.7296Q10.86372-9.100999999999999 10.86372-9.0052 10.86372-8.94772 10.26976-6.49524T9.61832-3.96612Q9.58-3.832 9.23512-3.832H9.0052Q8.87108-3.94696 8.87108-4.06192 8.87108-4.1194 8.96688-4.48344T9.06268-5.24984Q9.06268-5.80548 8.67948-5.9395999999999995T6.97424-6.07372H5.92044L5.30732-3.6404Q4.6942-1.26456 4.6942-1.1496 4.6942-0.88136 6.39944-0.88136H6.87844Q6.9934-0.7664 6.9934-0.74724T6.95508-0.36404Q6.87844-0.11496 6.76348 0H6.43776Q5.6522-0.03832 3.5446-0.03832 2.2992-0.03832 1.64776-0.03832T0.91968-0.01916Z"
        fill-opacity="1"
      ></path>
    </svg>
  </g>
  <g
    transform="rotate(0, 208.2261427507863, 322.37981174407423)translate(208.2261427507863, 322.37981174407423)"
    string="B"
  >
    <title>`B`.text</title>
    <svg
      xmlns="http://www.w3.org/2000/svg"
      width="14.54244"
      height="19.16"
      role="img"
      focusable="false"
      viewBox="0.6706 -13.08628 13.814359999999999 13.08628"
    >
      <path
        stroke="none"
        fill="#000000"
        stroke-width="0"
        d="M4.42596-12.20492Q3.90864-12.20492 3.81284-12.22408T3.71704-12.43484Q3.71704-12.95216 3.9278-13.06712 3.94696-13.08628 6.4186-13.08628 11.38104-13.08628 11.64928-13.04796 12.85636-12.85636 13.66108-12.18576T14.48496-10.42304Q14.48496-9.1968 13.37368-8.21964T10.8254-6.8976L10.6338-6.84012Q11.86004-6.66768 12.6456-5.95876T13.45032-4.19604Q13.45032-2.79736 12.0708-1.49448T8.67948-0.01916Q8.54536 0 4.63672 0 0.80472 0 0.74724-0.03832 0.6706-0.0958 0.6706-0.1916 0.6706-0.32572 0.70892-0.45984 0.80472-0.82388 0.90052-0.8622 0.97716-0.88136 1.18792-0.88136H1.30288Q1.8202-0.88136 2.45248-0.93884 2.72072-0.99632 2.81652-1.16876 2.874-1.2454 4.19604-6.49524T5.51808-12.03248Q5.51808-12.1666 4.42596-12.20492ZM12.43484-10.42304Q12.43484-10.99784 12.14744-11.496T11.2086-12.14744Q11.07448-12.18576 9.44588-12.20492 9.06268-12.20492 8.64116-12.20492T7.97056-12.18576H7.72148Q7.43408-12.1666 7.35744-11.99416 7.31912-11.91752 6.74432-9.69496 6.74432-9.63748 6.72516-9.58L6.1312-7.16584H7.68316Q9.23512-7.16584 9.46504-7.20416 10.61464-7.39576 11.51516-8.31544T12.43484-10.42304ZM11.4002-4.38764Q11.4002-5.2306799999999996 10.95952-5.78632T9.80992-6.43776Q9.69496-6.45692 8.21964-6.45692 5.95876-6.45692 5.9395999999999995-6.43776 5.9395999999999995-6.39944 5.61388-5.03908T4.94328-2.33752L4.5984-0.99632Q4.5984-0.91968 4.82832-0.91968T6.38028-0.88136Q8.08552-0.88136 8.21964-0.90052 9.40756-1.03464 10.40388-2.0118T11.4002-4.38764Z"
        fill-opacity="1"
      ></path>
    </svg>
  </g>
  <g style="solid">
    <path
      d="M 319.1567878913495 491.5779172089618 L 378.6933865108173 324.7611702183999"
      stroke-opacity="1"
      stroke-width="1.75"
      stroke="#000000"
      stroke-linecap="butt"
    ></path>
    <title>`FC`.icon</title>
  </g>
  <g
    transform="rotate(0, 119.6359995103158, 430.65848797613455)translate(119.6359995103158, 430.65848797613455)"
    string="A"
  >
    <title>`A`.text</title>
    <svg
      xmlns="http://www.w3.org/2000/svg"
      width="14.37"
      height="19.16"
      role="img"
      focusable="false"
      viewBox="0.6706 -13.71856 13.239559999999999 13.71856"
    >
      <path
        stroke="none"
        fill="#000000"
        stroke-width="0"
        d="M3.98528-1.41784Q3.98528-0.958 4.86664-0.88136 5.21152-0.88136 5.21152-0.6706 5.21152-0.65144 5.1732-0.42152 5.11572-0.15328 5.05824-0.07664T4.80916 0Q4.77084 0 4.57924 0T3.9278-0.01916 2.70156-0.03832Q1.3412-0.03832 0.958 0H0.80472Q0.6706-0.13412 0.6706-0.21076 0.70892-0.72808 0.91968-0.88136H1.18792Q2.52912-0.93884 3.14224-1.83936 3.2572-1.95432 6.6102-7.68316T10.02068-13.48864Q10.1548-13.71856 10.48052-13.71856H10.6338 10.95952Q11.07448-13.54612 11.07448-13.52696L11.61096-7.33828Q12.14744-1.1496 12.18576-1.09212 12.28156-0.88136 13.43116-0.88136 13.91016-0.88136 13.91016-0.68976 13.91016-0.65144 13.85268-0.42152 13.7952-0.13412 13.75688-0.07664T13.48864 0Q13.43116 0 13.2204 0T12.47316-0.01916 11.07448-0.03832Q9.27344-0.03832 8.7178 0H8.48788Q8.37292-0.11496 8.37292-0.17244T8.41124-0.51732Q8.48788-0.7664 8.5262-0.82388L8.60284-0.88136H8.98604Q10.02068-0.93884 10.21228-1.20708L9.98236-4.08108H5.42228L4.77084-2.9697999999999998Q3.98528-1.64776 3.98528-1.41784ZM9.88656-4.9816Q9.88656-5.19236 9.65664-7.97056T9.3884-10.76792L8.87108-9.94404Q8.56452-9.42672 7.664-7.89392L5.9395999999999995-4.9816 7.91308-4.96244Q9.88656-4.96244 9.88656-4.9816Z"
        fill-opacity="1"
      ></path>
    </svg>
  </g>
  <g style="solid">
    <path
      d="M 148.0051362791399 445.975879352792 L 378.6933865108173 324.7611702183999"
      stroke-opacity="1"
      stroke-width="1.75"
      stroke="#000000"
      stroke-linecap="butt"
    ></path>
    <title>`AC`.icon</title>
  </g>
  <g style="solid">
    <path
      d="M 490.30814584374207 537.1810571454716 L 148.0051362791399 445.975879352792"
      stroke-opacity="1"
      stroke-width="1.75"
      stroke="#000000"
      stroke-linecap="butt"
    ></path>
    <title>`EA`.icon</title>
  </g>
  <g style="solid">
    <path
      d="M 319.1567878913495 491.5779172089618 L 263.3492613949786 385.368524785596"
      stroke-opacity="1"
      stroke-width="1.75"
      stroke="#000000"
      stroke-linecap="butt"
    ></path>
    <title>`Fb`.icon</title>
  </g>
  <g endArrowheadSize="1" startArrowheadSize="1">
    <filter id="`Fb`.mark-shadow" x="0" y="0" width="200%" height="200%">
      <feOffset result="offOut" in="SourceAlpha" dx="5" dy="5"></feOffset>
      <feGaussianBlur
        result="blurOut"
        in="offOut"
        stdDeviation="4"
      ></feGaussianBlur>
      <feBlend in="SourceGraphic" in2="blurOut" mode="normal"></feBlend>
      <feComponentTransfer>
        <feFuncA type="linear" slope="0.5"></feFuncA>
      </feComponentTransfer>
      <feMerge>
        <feMergeNode></feMergeNode>
        <feMergeNode in="SourceGraphic"></feMergeNode>
      </feMerge>
    </filter>
    <path
      stroke="#000000"
      fill="none"
      stroke-width="2"
      stroke-opacity="1"
      d="M 272.65215770647194 403.0732149421384 L 290.35684786301437 393.7703186306451 L 281.05395167649897 376.0656284281364"
    ></path>
    <title>`Fb`.mark</title>
  </g>
  <g style="solid">
    <path
      d="M 490.30814584374207 537.1810571454716 L 378.6933865108173 324.7611702183999"
      stroke-opacity="1"
      stroke-width="1.75"
      stroke="#000000"
      stroke-linecap="butt"
    ></path>
    <title>`EC`.icon</title>
  </g>
  <g style="solid">
    <path
      d="M 319.1567878913495 491.5779172089618 L 434.5007661772797 430.97111368193583"
      stroke-opacity="1"
      stroke-width="1.75"
      stroke="#000000"
      stroke-linecap="butt"
    ></path>
    <title>`Fd`.icon</title>
  </g>
  <g endArrowheadSize="1" startArrowheadSize="1">
    <filter id="`Fd`.mark-shadow" x="0" y="0" width="200%" height="200%">
      <feOffset result="offOut" in="SourceAlpha" dx="5" dy="5"></feOffset>
      <feGaussianBlur
        result="blurOut"
        in="offOut"
        stdDeviation="4"
      ></feGaussianBlur>
      <feBlend in="SourceGraphic" in2="blurOut" mode="normal"></feBlend>
      <feComponentTransfer>
        <feFuncA type="linear" slope="0.5"></feFuncA>
      </feComponentTransfer>
      <feMerge>
        <feMergeNode></feMergeNode>
        <feMergeNode in="SourceGraphic"></feMergeNode>
      </feMerge>
    </filter>
    <path
      stroke="#000000"
      fill="none"
      stroke-width="2"
      stroke-opacity="1"
      d="M 416.79604594445976 440.2739530377236 L 407.493206588672 422.56923280490366 L 425.19792686892686 413.2663935733104"
    ></path>
    <title>`Fd`.mark</title>
  </g>
</svg>
