<svg version="1.2" xmlns="http://www.w3.org/2000/svg" viewBox="0 0 800 700">
  <rect
    x="50"
    y="0"
    width="700"
    height="700"
    fill="none"
    stroke="#8ea0c4"
    stroke-opacity="1"
    stroke-width="2"
    stroke-linecap="butt"
    rx="0"
    transform="rotate(0, 50, 0)"
  >
    <title>`R`.icon</title>
  </rect>
  <circle
    fill="#000000"
    fill-opacity="1"
    cx="459.8443892448207"
    cy="468.61207793190715"
    stroke="#000000"
    stroke-opacity="1"
    stroke-width="0"
    stroke-linecap="butt"
    r="4"
  >
    <title>`D`.icon</title>
  </circle>
  <g
    transform="rotate(0, 444.4473189644341, 442.45207805440117)translate(444.4473189644341, 442.45207805440117)"
    string="D"
  >
    <title>`D`.text</title>
    <svg
      xmlns="http://www.w3.org/2000/svg"
      width="15.86448"
      height="19.16"
      role="img"
      focusable="false"
      viewBox="0.63228 -13.08628 14.7532 13.08628"
    >
      <path
        stroke="none"
        fill="#000000"
        stroke-width="0"
        d="M5.49892-12.03248Q5.49892-12.1666 4.4068-12.20492 3.96612-12.20492 3.832-12.22408T3.69788-12.39652Q3.69788-12.5498 3.77452-12.77972T3.90864-13.06712Q3.94696-13.08628 7.72148-13.08628 10.9212-13.06712 11.3044-13.06712T12.0708-12.95216Q13.45032-12.62644 14.40832-11.43852T15.38548-8.25796Q15.38548-5.269 13.33536-2.89316T8.50704-0.05748L8.2388-0.01916 4.52176 0H2.395 1.37952Q0.91968 0 0.78556-0.03832T0.63228-0.21076Q0.63228-0.24908 0.68976-0.479 0.7664-0.78556 0.84304-0.82388T1.28372-0.88136Q1.80104-0.88136 2.43332-0.93884 2.70156-0.99632 2.79736-1.16876 2.85484-1.2454 4.17688-6.49524T5.49892-12.03248ZM13.46948-8.98604Q13.46948-9.71412 13.25872-10.28892T12.76056-11.18944 12.05164-11.74508 11.3044-12.05164 10.6338-12.18576Q10.59548-12.18576 10.36556-12.18576T9.80992-12.18576 9.17764-12.20492H8.35376Q7.51072-12.20492 7.39576-12.01332 7.35744-11.93668 5.99708-6.49524T4.63672-0.99632Q4.63672-0.91968 4.84748-0.91968T6.3228-0.90052Q6.4186-0.90052 6.68684-0.90052T7.14668-0.88136Q9.56084-0.88136 11.13196-2.45248 11.82172-3.14224 12.2624-4.06192T13.08628-6.49524 13.46948-8.98604Z"
        fill-opacity="1"
      ></path>
    </svg>
  </g>
  <circle
    fill="#000000"
    fill-opacity="1"
    cx="444.9317194199768"
    cy="284.4074098442661"
    stroke="#000000"
    stroke-opacity="1"
    stroke-width="0"
    stroke-linecap="butt"
    r="4"
  >
    <title>`C`.icon</title>
  </circle>
  <g
    transform="rotate(0, 428.6149910892161, 291.1838038307055)translate(428.6149910892161, 291.1838038307055)"
    string="C"
  >
    <title>`C`.text</title>
    <svg
      xmlns="http://www.w3.org/2000/svg"
      width="14.5616"
      height="19.16"
      role="img"
      focusable="false"
      viewBox="0.958 -13.5078 13.6036 13.929319999999999"
    >
      <path
        stroke="none"
        fill="#000000"
        stroke-width="0"
        d="M0.958-4.82832Q0.958-7.03172 2.24172-9.06268T5.47976-12.28156 9.3884-13.48864Q11.1128-13.48864 12.12828-12.51148 12.30072-12.31988 12.41568-12.18576T12.56896-11.99416L12.58812-11.93668Q12.6456-11.93668 13.10544-12.43484 13.239559999999999-12.5498 13.39284-12.70308T13.6994-13.00964 13.891-13.2204L14.1784-13.5078H14.29336Q14.5616-13.5078 14.5616-13.37368 14.5616-13.297039999999999 13.94848-10.74876 13.25872-8.08552 13.25872-8.06636 13.2204-7.97056 13.16292-7.9514T12.81804-7.91308H12.51148Q12.39652-8.02804 12.39652-8.08552 12.39652-8.10468 12.41568-8.21964T12.454-8.60284 12.47316-9.21596Q12.47316-10.57632 11.86004-11.5918T9.7716-12.62644Q9.27344-12.62644 8.69864-12.49232T7.31912-12.03248 5.72884-10.95952 4.33016-9.17764Q3.71704-8.08552 3.353-6.62936T2.98896-4.25352Q2.98896-2.06928 4.44512-1.11128 5.3648-0.45984 6.706-0.45984 8.44956-0.45984 9.80992-1.76272T11.61096-4.5984Q11.6876-4.84748 11.72592-4.8858T12.03248-4.92412Q12.41568-4.92412 12.41568-4.75168 12.41568-4.65588 12.39652-4.57924 11.84088-2.52912 10.02068-1.0538T6.11204 0.42152Q3.94696 0.42152 2.45248-1.01548T0.958-4.82832Z"
        fill-opacity="1"
      ></path>
    </svg>
  </g>
  <circle
    fill="#000000"
    fill-opacity="1"
    cx="267.3138366541343"
    cy="337.2382968081118"
    stroke="#000000"
    stroke-opacity="1"
    stroke-width="0"
    stroke-linecap="butt"
    r="4"
  >
    <title>`B`.icon</title>
  </circle>
  <g
    transform="rotate(0, 264.05531071944154, 311.07829670417215)translate(264.05531071944154, 311.07829670417215)"
    string="B"
  >
    <title>`B`.text</title>
    <svg
      xmlns="http://www.w3.org/2000/svg"
      width="14.54244"
      height="19.16"
      role="img"
      focusable="false"
      viewBox="0.6706 -13.08628 13.814359999999999 13.08628"
    >
      <path
        stroke="none"
        fill="#000000"
        stroke-width="0"
        d="M4.42596-12.20492Q3.90864-12.20492 3.81284-12.22408T3.71704-12.43484Q3.71704-12.95216 3.9278-13.06712 3.94696-13.08628 6.4186-13.08628 11.38104-13.08628 11.64928-13.04796 12.85636-12.85636 13.66108-12.18576T14.48496-10.42304Q14.48496-9.1968 13.37368-8.21964T10.8254-6.8976L10.6338-6.84012Q11.86004-6.66768 12.6456-5.95876T13.45032-4.19604Q13.45032-2.79736 12.0708-1.49448T8.67948-0.01916Q8.54536 0 4.63672 0 0.80472 0 0.74724-0.03832 0.6706-0.0958 0.6706-0.1916 0.6706-0.32572 0.70892-0.45984 0.80472-0.82388 0.90052-0.8622 0.97716-0.88136 1.18792-0.88136H1.30288Q1.8202-0.88136 2.45248-0.93884 2.72072-0.99632 2.81652-1.16876 2.874-1.2454 4.19604-6.49524T5.51808-12.03248Q5.51808-12.1666 4.42596-12.20492ZM12.43484-10.42304Q12.43484-10.99784 12.14744-11.496T11.2086-12.14744Q11.07448-12.18576 9.44588-12.20492 9.06268-12.20492 8.64116-12.20492T7.97056-12.18576H7.72148Q7.43408-12.1666 7.35744-11.99416 7.31912-11.91752 6.74432-9.69496 6.74432-9.63748 6.72516-9.58L6.1312-7.16584H7.68316Q9.23512-7.16584 9.46504-7.20416 10.61464-7.39576 11.51516-8.31544T12.43484-10.42304ZM11.4002-4.38764Q11.4002-5.2306799999999996 10.95952-5.78632T9.80992-6.43776Q9.69496-6.45692 8.21964-6.45692 5.95876-6.45692 5.9395999999999995-6.43776 5.9395999999999995-6.39944 5.61388-5.03908T4.94328-2.33752L4.5984-0.99632Q4.5984-0.91968 4.82832-0.91968T6.38028-0.88136Q8.08552-0.88136 8.21964-0.90052 9.40756-1.03464 10.40388-2.0118T11.4002-4.38764Z"
        fill-opacity="1"
      ></path>
    </svg>
  </g>
  <g
    transform="rotate(0, 717.72878, 15.42)translate(717.72878, 15.42)"
    string="R"
  >
    <title>`R`.text</title>
    <svg
      xmlns="http://www.w3.org/2000/svg"
      width="14.54244"
      height="19.16"
      role="img"
      focusable="false"
      viewBox="0.63228 -13.08628 13.83352 13.48864"
    >
      <path
        stroke="none"
        fill="#000000"
        stroke-width="0"
        d="M4.4068-12.20492Q3.88948-12.20492 3.79368-12.22408T3.69788-12.43484Q3.69788-12.95216 3.90864-13.06712 3.94696-13.08628 7.24248-13.08628 10.538-13.06712 10.80624-13.0288 11.879199999999999-12.87552 12.60728-12.49232T13.64192-11.61096 14.04428-10.78708 14.15924-10.13564Q14.15924-9.27344 13.6036-8.5262T12.31988-7.3766 11.03616-6.72516 10.30808-6.47608L10.4422-6.38028Q11.72592-5.6522 11.72592-4.27268 11.72592-4.06192 11.63012-3.10392T11.53432-1.5328V-1.36036Q11.53432-1.01548 11.55348-0.82388T11.76424-0.479 12.2624-0.30656Q12.79888-0.30656 13.14376-0.72808T13.64192-1.6286Q13.73772-1.89684 13.7952-1.95432T14.0826-2.0118Q14.4658-2.0118 14.4658-1.78188 14.4658-1.437 14.00596-0.68976 13.27788 0.40236 12.28156 0.40236H12.10912Q10.94036 0.40236 10.17396-0.07664T9.33092-1.57112Q9.33092-2.08844 9.61832-3.18056T9.90572-4.57924Q9.90572-5.5564 9.08184-5.99708 8.79444-6.1312 8.60284-6.15036T7.24248-6.18868H5.92044L5.30732-3.69788Q4.67504-1.16876 4.67504-1.13044 4.67504-1.0538 4.6942-1.03464T4.82832-0.958 5.15404-0.91968 5.78632-0.88136H6.38028Q6.49524-0.72808 6.49524-0.70892T6.43776-0.36404Q6.36112-0.11496 6.24616 0H5.95876Q5.269-0.03832 3.4488-0.03832 2.79736-0.03832 2.24172-0.03832T1.36036-0.03832 0.958-0.01916Q0.63228-0.01916 0.63228-0.1916 0.63228-0.22992 0.68976-0.45984 0.78556-0.82388 0.88136-0.8622 0.958-0.88136 1.16876-0.88136H1.28372Q1.80104-0.88136 2.43332-0.93884 2.70156-0.99632 2.79736-1.16876 2.85484-1.2454 4.17688-6.49524T5.49892-12.03248Q5.49892-12.1666 4.4068-12.20492ZM12.0708-10.61464Q12.0708-11.22776 11.66844-11.64928T10.02068-12.18576Q9.98236-12.18576 9.58-12.18576T8.85192-12.20492H8.4304Q7.52988-12.20492 7.39576-12.01332 7.3766-11.95584 6.74432-9.46504T6.11204-6.91676Q6.11204-6.8976 7.43408-6.8976 8.92856-6.91676 9.42672-7.03172 10.65296-7.22332 11.34272-8.16216 11.64928-8.60284 11.86004-9.31176T12.0708-10.61464Z"
        fill-opacity="1"
      ></path>
    </svg>
  </g>
  <circle
    fill="#000000"
    fill-opacity="1"
    cx="588.0071047167098"
    cy="555.4161169048833"
    stroke="#000000"
    stroke-opacity="1"
    stroke-width="0"
    stroke-linecap="butt"
    r="4"
  >
    <title>`E`.icon</title>
  </circle>
  <circle
    fill="#000000"
    fill-opacity="1"
    cx="321.22463503489473"
    cy="189.88244377506916"
    stroke="#000000"
    stroke-opacity="1"
    stroke-width="0"
    stroke-linecap="butt"
    r="4"
  >
    <title>`A`.icon</title>
  </circle>
  <g
    transform="rotate(0, 328.22463486317713, 176.0732964413865)translate(328.22463486317713, 176.0732964413865)"
    string="A"
  >
    <title>`A`.text</title>
    <svg
      xmlns="http://www.w3.org/2000/svg"
      width="14.37"
      height="19.16"
      role="img"
      focusable="false"
      viewBox="0.6706 -13.71856 13.239559999999999 13.71856"
    >
      <path
        stroke="none"
        fill="#000000"
        stroke-width="0"
        d="M3.98528-1.41784Q3.98528-0.958 4.86664-0.88136 5.21152-0.88136 5.21152-0.6706 5.21152-0.65144 5.1732-0.42152 5.11572-0.15328 5.05824-0.07664T4.80916 0Q4.77084 0 4.57924 0T3.9278-0.01916 2.70156-0.03832Q1.3412-0.03832 0.958 0H0.80472Q0.6706-0.13412 0.6706-0.21076 0.70892-0.72808 0.91968-0.88136H1.18792Q2.52912-0.93884 3.14224-1.83936 3.2572-1.95432 6.6102-7.68316T10.02068-13.48864Q10.1548-13.71856 10.48052-13.71856H10.6338 10.95952Q11.07448-13.54612 11.07448-13.52696L11.61096-7.33828Q12.14744-1.1496 12.18576-1.09212 12.28156-0.88136 13.43116-0.88136 13.91016-0.88136 13.91016-0.68976 13.91016-0.65144 13.85268-0.42152 13.7952-0.13412 13.75688-0.07664T13.48864 0Q13.43116 0 13.2204 0T12.47316-0.01916 11.07448-0.03832Q9.27344-0.03832 8.7178 0H8.48788Q8.37292-0.11496 8.37292-0.17244T8.41124-0.51732Q8.48788-0.7664 8.5262-0.82388L8.60284-0.88136H8.98604Q10.02068-0.93884 10.21228-1.20708L9.98236-4.08108H5.42228L4.77084-2.9697999999999998Q3.98528-1.64776 3.98528-1.41784ZM9.88656-4.9816Q9.88656-5.19236 9.65664-7.97056T9.3884-10.76792L8.87108-9.94404Q8.56452-9.42672 7.664-7.89392L5.9395999999999995-4.9816 7.91308-4.96244Q9.88656-4.96244 9.88656-4.9816Z"
        fill-opacity="1"
      ></path>
    </svg>
  </g>
  <g
    transform="rotate(0, 594.9548312476055, 535.402241924763)translate(594.9548312476055, 535.402241924763)"
    string="E"
  >
    <title>`E`.text</title>
    <svg
      xmlns="http://www.w3.org/2000/svg"
      width="14.63824"
      height="19.16"
      role="img"
      focusable="false"
      viewBox="0.59396 -13.0288 14.04428 13.0288"
    >
      <path
        stroke="none"
        fill="#000000"
        stroke-width="0"
        d="M9.42672-4.08108Q9.04352-4.08108 9.04352-4.33016 9.04352-4.4068 9.13932-4.79T9.23512-5.4606Q9.23512-6.05456 8.83276-6.18868T6.97424-6.3228H5.97792Q5.95876-6.28448 5.30732-3.67872T4.65588-0.99632Q4.65588-0.91968 4.86664-0.91968T6.39944-0.88136Q8.20048-0.88136 8.77528-0.91968T9.92488-1.16876Q10.86372-1.47532 11.47684-2.24172T12.8372-4.75168Q13.0288-5.1732 13.08628-5.21152 13.2204-5.24984 13.37368-5.24984 13.75688-5.24984 13.75688-5.00076 11.74508-0.13412 11.64928-0.03832 11.5918 0 6.16952 0H2.54828Q0.59396 0 0.59396-0.21076 0.59396-0.24908 0.65144-0.479 0.72808-0.78556 0.80472-0.82388T1.2454-0.88136Q1.76272-0.88136 2.395-0.93884 2.66324-0.99632 2.75904-1.16876 2.79736-1.26456 4.1194-6.55272T5.4606-11.91752Q5.4606-12.05164 5.38396-12.05164 5.2306799999999996-12.10912 4.36848-12.14744H3.77452Q3.65956-12.2624 3.65956-12.30072T3.69788-12.62644Q3.77452-12.95216 3.88948-13.0288H14.50412Q14.63824-12.95216 14.63824-12.81804 14.63824-12.72224 14.38916-10.67212T14.12092-8.56452Q14.0826-8.4304 13.73772-8.4304H13.5078Q13.37368-8.5262 13.37368-8.67948L13.43116-9.12016Q13.48864-9.58 13.48864-10.11648 13.48864-10.69128 13.35452-11.07448T12.99048-11.66844 12.31988-11.975 11.41936-12.10912 10.19312-12.14744H9.2926Q7.60652-12.12828 7.51072-12.08996 7.43408-12.05164 7.39576-11.91752 7.3766-11.86004 6.8018-9.56084T6.20784-7.22332Q6.6485199999999995-7.20416 7.12752-7.20416H7.62568Q8.89024-7.20416 9.36924-7.49156T10.23144-9.04352Q10.30808-9.35008 10.3464-9.3884T10.67212-9.44588Q10.76792-9.44588 10.8254-9.44588T10.9212-9.42672 10.95952-9.40756 10.99784-9.33092 11.05532-9.25428L10.42304-6.72516Q9.79076-4.17688 9.73328-4.13856 9.6758-4.08108 9.42672-4.08108Z"
        fill-opacity="1"
      ></path>
    </svg>
  </g>
  <g style="solid">
    <marker
      id="`s1`.icon-endArrowId"
      markerUnits="strokeWidth"
      markerWidth="5.2"
      markerHeight="5.2"
      viewBox="0 0 8 8"
      refX="2.5"
      refY="4"
      orient="auto-start-reverse"
    >
      <path
        d="M0,0 A30,30,0,0,0,8,4 A30,30,0,0,0,0,8 L2.5,4 z"
        fill="#000000"
        fill-opacity="1"
      ></path>
    </marker>
    <path
      d="M 267.3138366541343 337.2382968081118 L 615.906391967147 574.3968885042618"
      stroke-opacity="1"
      stroke-width="1.75"
      stroke="#000000"
      stroke-linecap="butt"
      marker-end="url(#`s1`.icon-endArrowId)"
    ></path>
    <title>`s1`.icon</title>
  </g>
  <g style="solid">
    <marker
      id="`s2`.icon-startArrowId"
      markerUnits="strokeWidth"
      markerWidth="5.2"
      markerHeight="5.2"
      viewBox="0 0 8 8"
      refX="2.5"
      refY="4"
      orient="auto-start-reverse"
    >
      <path
        d="M0,0 A30,30,0,0,0,8,4 A30,30,0,0,0,0,8 L2.5,4 z"
        fill="#000000"
        fill-opacity="1"
      ></path>
    </marker>
    <marker
      id="`s2`.icon-endArrowId"
      markerUnits="strokeWidth"
      markerWidth="5.2"
      markerHeight="5.2"
      viewBox="0 0 8 8"
      refX="2.5"
      refY="4"
      orient="auto-start-reverse"
    >
      <path
        d="M0,0 A30,30,0,0,0,8,4 A30,30,0,0,0,0,8 L2.5,4 z"
        fill="#000000"
        fill-opacity="1"
      ></path>
    </marker>
    <path
      d="M 255.72008539053465 368.92781279773857 L 332.81838286267254 158.19293717666784"
      stroke-opacity="1"
      stroke-width="1.75"
      stroke="#000000"
      stroke-linecap="butt"
      marker-start="url(#`s2`.icon-startArrowId)"
      marker-end="url(#`s2`.icon-endArrowId)"
    ></path>
    <title>`s2`.icon</title>
  </g>
</svg>
