<svg version="1.2" xmlns="http://www.w3.org/2000/svg" viewBox="0 0 800 700">
  <g
    transform="rotate(0, 384.4998714824966, 614.9618282964117)translate(384.4998714824966, 614.9618282964117)"
    string="V"
  >
    <title>`V`.text</title>
    <svg
      xmlns="http://www.w3.org/2000/svg"
      width="14.73404"
      height="19.16"
      role="img"
      focusable="false"
      viewBox="0.99632 -13.08628 13.73772 13.5078"
    >
      <path
        stroke="none"
        fill="#000000"
        stroke-width="0"
        d="M0.99632-12.41568Q0.99632-12.8372 1.2454-13.08628H1.45616Q2.26088-13.0288 3.46796-13.0288 5.72884-13.0288 6.1312-13.08628H6.3228Q6.43776-12.97132 6.43776-12.91384T6.39944-12.56896Q6.30364-12.28156 6.227-12.20492H5.82464Q5.40312-12.1666 5.24984-12.1666 4.6942-12.0708 4.63672-11.879199999999999 4.63672-11.84088 5.19236-7.07004T5.76716-2.26088L7.16584-4.5026Q8.56452-6.74432 9.9632-9.02436T11.4002-11.38104Q11.47684-11.51516 11.47684-11.66844 11.47684-12.12828 10.6338-12.20492 10.28892-12.20492 10.28892-12.41568 10.28892-12.43484 10.32724-12.66476 10.38472-12.933 10.4422-13.00964T10.69128-13.08628Q10.7296-13.08628 10.9212-13.08628T11.57264-13.06712 12.79888-13.04796Q14.12092-13.04796 14.4658-13.08628H14.59992Q14.73404-12.95216 14.73404-12.87552 14.73404-12.5498 14.5616-12.2624 14.50412-12.20492 14.23588-12.20492 13.9868-12.18576 13.77604-12.1666T13.37368-12.0708 13.06712-11.93668 12.8372-11.7834 12.6456-11.64928 12.49232-11.47684 12.3582-11.34272L8.66032-5.40312Q5.21152 0.17244 5.09656 0.30656 5.03908 0.34488 4.96244 0.40236L4.61756 0.42152H4.48344Q4.13856 0.42152 4.13856 0.2874 4.08108 0.17244 3.39132-5.8438 2.66324-11.93668 2.64408-11.99416 2.54828-12.20492 1.45616-12.20492H1.13044Q0.99632-12.30072 0.99632-12.41568Z"
        fill-opacity="1"
      ></path>
    </svg>
  </g>
  <g endArrowheadSize="1" startArrowheadSize="1">
    <filter id="`UTS`.icon-shadow" x="0" y="0" width="200%" height="200%">
      <feOffset result="offOut" in="SourceAlpha" dx="5" dy="5"></feOffset>
      <feGaussianBlur
        result="blurOut"
        in="offOut"
        stdDeviation="4"
      ></feGaussianBlur>
      <feBlend in="SourceGraphic" in2="blurOut" mode="normal"></feBlend>
      <feComponentTransfer>
        <feFuncA type="linear" slope="0.5"></feFuncA>
      </feComponentTransfer>
      <feMerge>
        <feMergeNode></feMergeNode>
        <feMergeNode in="SourceGraphic"></feMergeNode>
      </feMerge>
    </filter>
    <path
      stroke="#d3325e"
      fill="none"
      stroke-width="1"
      stroke-opacity="0.5"
      d="M 273.4980689242358 429.47409591626536 L 480.5510908863891 413.82289861431855 L 259.4985162583032 222.30250393000392 Z "
    ></path>
    <title>`UTS`.icon</title>
  </g>
  <g
    transform="rotate(0, 244.8024216481898, 424.67598583977303)translate(244.8024216481898, 424.67598583977303)"
    string="U"
  >
    <title>`U`.text</title>
    <svg
      xmlns="http://www.w3.org/2000/svg"
      width="14.69572"
      height="19.16"
      role="img"
      focusable="false"
      viewBox="1.1496 -13.08628 13.54612 13.5078"
    >
      <path
        stroke="none"
        fill="#000000"
        stroke-width="0"
        d="M2.05012-12.20492Q1.39868-12.20492 1.36036-12.28156 1.3412-12.31988 1.3412-12.43484 1.3412-12.89468 1.55196-13.06712 1.59028-13.08628 1.87768-13.08628 2.66324-13.04796 4.48344-13.04796 5.13488-13.04796 5.69052-13.04796T6.55272-13.06712 6.93592-13.06712Q7.24248-13.06712 7.24248-12.87552 7.24248-12.8372 7.20416-12.60728 7.10836-12.28156 7.01256-12.22408H6.97424Q6.93592-12.22408 6.87844-12.22408T6.74432-12.22408 6.57188-12.20492 6.39944-12.20492Q5.6522-12.18576 5.44144-12.14744T5.09656-11.93668Q5.0774-11.89836 4.56008-9.92488T3.52544-5.78632 2.95064-3.23804Q2.91232-2.9697999999999998 2.91232-2.6824 2.91232-1.64776 3.50628-1.0538T5.15404-0.45984Q6.43776-0.45984 7.72148-1.32204T9.59916-3.9278L10.57632-7.77896Q11.47684-11.45768 11.47684-11.61096 11.47684-12.12828 10.2506-12.20492 9.79076-12.20492 9.79076-12.41568 9.79076-12.454 9.82908-12.6456 9.90572-12.95216 9.94404-13.00964T10.13564-13.08628Q10.19312-13.08628 10.74876-13.06712T12.3582-13.0288Q13.33536-13.0288 13.85268-13.04796T14.40832-13.06712Q14.69572-13.06712 14.69572-12.87552 14.69572-12.454 14.54244-12.30072 14.48496-12.20492 14.12092-12.20492 12.76056-12.12828 12.41568-11.43852 12.37736-11.34272 11.45768-7.74064 10.67212-4.5026 10.49968-3.9278 9.8674-2.0118 8.29628-0.80472T5.03908 0.42152Q3.27636 0.42152 2.22256-0.65144T1.1496-3.19972V-3.50628Q1.1496-3.85116 2.2034-8.06636 3.14224-11.91752 3.14224-12.03248 3.14224-12.1666 2.05012-12.20492Z"
        fill-opacity="1"
      ></path>
    </svg>
  </g>
  <g
    transform="rotate(0, 487.55186288044234, 382.53905052377917)translate(487.55186288044234, 382.53905052377917)"
    string="T"
  >
    <title>`T`.text</title>
    <svg
      xmlns="http://www.w3.org/2000/svg"
      width="13.48864"
      height="19.16"
      role="img"
      focusable="false"
      viewBox="0.40236 -12.97132 13.08628 12.97132"
    >
      <path
        stroke="none"
        fill="#000000"
        stroke-width="0"
        d="M0.7664-8.37292Q0.40236-8.37292 0.40236-8.5262 0.40236-8.622 0.70892-9.59916T1.36036-11.53432L1.68608-12.47316Q1.78188-12.81804 1.93516-12.97132H10.90204 12.62644Q13.239559999999999-12.97132 13.35452-12.95216T13.48864-12.77972Q13.48864-12.66476 13.16292-10.59548T12.79888-8.50704Q12.79888-8.37292 12.43484-8.37292 12.2624-8.37292 12.20492-8.37292T12.08996-8.46872L12.05164-8.5262Q12.05164-8.64116 12.1666-9.3884T12.28156-10.55716Q12.28156-11.22776 12.03248-11.57264T10.97868-12.05164Q10.88288-12.0708 9.8674-12.08996 8.98604-12.08996 8.75612-12.0708T8.41124-11.91752Q8.39208-11.89836 7.05088-6.57188T5.70968-1.1496Q5.70968-0.91968 7.39576-0.88136 8.00888-0.88136 8.18132-0.8622T8.35376-0.68976Q8.35376-0.59396 8.29628-0.42152 8.21964-0.07664 8.12384-0.01916L8.08552 0Q8.02804 0 7.9514 0 7.8556 0 6.95508-0.01916T4.36848-0.03832Q1.89684-0.03832 1.22624 0H0.93884Q0.82388-0.11496 0.82388-0.17244T0.8622-0.51732Q0.93884-0.7664 1.0538-0.88136H1.59028 1.80104Q3.33384-0.88136 3.62124-1.0538 3.6404-1.07296 3.65956-1.07296 3.75536-1.13044 3.85116-1.45616T4.61756-4.46428Q4.94328-5.76716 5.15404-6.59104 6.49524-11.86004 6.49524-11.975 6.49524-12.0708 5.9395999999999995-12.0708H5.34564Q4.06192-12.0708 3.65956-11.95584 2.79736-11.76424 2.31836-11.17028T1.28372-8.94772Q1.1496-8.5262 1.09212-8.44956T0.82388-8.37292H0.7664Z"
        fill-opacity="1"
      ></path>
    </svg>
  </g>
  <g
    transform="rotate(0, 236.7034419188536, 231.63368701511345)translate(236.7034419188536, 231.63368701511345)"
    string="S"
  >
    <title>`S`.text</title>
    <svg
      xmlns="http://www.w3.org/2000/svg"
      width="12.3582"
      height="19.16"
      role="img"
      focusable="false"
      viewBox="0.99632 -13.5078 11.36188 13.929319999999999"
    >
      <path
        stroke="none"
        fill="#000000"
        stroke-width="0"
        d="M5.90128-0.45984Q7.03172-0.45984 7.97056-1.45616T8.92856-3.77452Q8.92856-4.9816 7.93224-5.44144 5.90128-5.95876 5.32648-6.15036T4.52176-6.53356Q3.37216-7.33828 3.37216-8.85192 3.37216-10.02068 3.98528-10.97868T5.2306799999999996-12.41568Q5.78632-12.89468 6.57188-13.18208T7.79812-13.48864H8.00888 8.143Q9.98236-13.48864 10.80624-12.2624 10.8254-12.2624 11.05532-12.51148T11.55348-13.06712 11.93668-13.48864Q11.95584-13.48864 12.01332-13.48864T12.10912-13.5078Q12.3582-13.5078 12.3582-13.37368T11.82172-11.05532 11.2086-8.79444 10.90204-8.73696Q10.51884-8.73696 10.51884-8.9094 10.51884-9.02436 10.538-9.100999999999999 10.538-9.15848 10.55716-9.46504T10.59548-9.9632Q10.59548-10.61464 10.42304-11.09364T10.07816-11.80256 9.59916-12.28156Q8.9094-12.68392 8.02804-12.68392 6.93592-12.68392 5.99708-11.80256T5.03908-9.7716Q5.03908-9.1968 5.32648-8.77528T6.11204-8.18132Q6.18868-8.143 7.45324-7.81728T8.73696-7.4724Q9.3884-7.26164 10.00152-6.55272T10.61464-4.63672Q10.61464-4.13856 10.461359999999999-3.56376 10.36556-3.14224 10.11648-2.62492T9.42672-1.49448 8.16216-0.34488 6.36112 0.3832Q6.1312 0.42152 5.70968 0.42152 3.81284 0.42152 2.75904-0.63228L2.56744-0.84304 2.03096-0.24908Q1.59028 0.26824 1.49448 0.34488T1.2454 0.42152Q0.99632 0.42152 0.99632 0.26824 0.99632 0.21076 2.1076-4.23436 2.14592-4.34932 2.4908-4.34932H2.73988Q2.85484-4.23436 2.85484-4.13856 2.85484-4.10024 2.83568-3.96612T2.75904-3.56376 2.72072-2.93148Q2.75904-2.18424 3.0656-1.66692T3.88948-0.90052 4.8858-0.55564 5.90128-0.45984Z"
        fill-opacity="1"
      ></path>
    </svg>
  </g>
  <g style="solid">
    <path
      d="M 273.4980689242358 429.47409591626536 L 480.5510908863891 413.82289861431855"
      stroke-opacity="1"
      stroke-width="1.75"
      stroke="#000000"
      stroke-linecap="butt"
    ></path>
    <title>`UTS`.PQ</title>
  </g>
  <g style="solid">
    <path
      d="M 259.4985162583032 222.30250393000392 L 273.4980689242358 429.47409591626536"
      stroke-opacity="1"
      stroke-width="1.75"
      stroke="#000000"
      stroke-linecap="butt"
    ></path>
    <title>`UTS`.RP</title>
  </g>
  <g style="solid">
    <path
      d="M 273.4980689242358 429.47409591626536 L 259.4985162583032 222.30250393000392"
      stroke-opacity="1"
      stroke-width="1.75"
      stroke="#000000"
      stroke-linecap="butt"
    ></path>
    <title>`US`.icon</title>
  </g>
  <g style="solid">
    <path
      d="M 273.4980689242358 429.47409591626536 L 480.5510908863891 413.82289861431855"
      stroke-opacity="1"
      stroke-width="1.75"
      stroke="#000000"
      stroke-linecap="butt"
    ></path>
    <title>`UT`.icon</title>
  </g>
  <g style="solid">
    <path
      d="M 273.4980689242358 429.47409591626536 L 480.5510908863891 413.82289861431855"
      stroke-opacity="1"
      stroke-width="1.75"
      stroke="#000000"
      stroke-linecap="butt"
    ></path>
    <title>`UTV`.PQ</title>
  </g>
  <g style="solid">
    <path
      d="M 390.5792926044533 600.9618493558942 L 273.4980689242358 429.47409591626536"
      stroke-opacity="1"
      stroke-width="1.75"
      stroke="#000000"
      stroke-linecap="butt"
    ></path>
    <title>`UTV`.RP</title>
  </g>
  <g style="solid">
    <path
      d="M 273.4980689242358 429.47409591626536 L 390.5792926044533 600.9618493558942"
      stroke-opacity="1"
      stroke-width="1.75"
      stroke="#000000"
      stroke-linecap="butt"
    ></path>
    <title>`UV`.icon</title>
  </g>
  <circle
    fill="#000000"
    fill-opacity="1"
    cx="273.4980689242358"
    cy="429.47409591626536"
    stroke="#000000"
    stroke-opacity="1"
    stroke-width="0"
    stroke-linecap="butt"
    r="4"
  >
    <title>`U`.icon</title>
  </circle>
  <g style="solid">
    <path
      d="M 480.5510908863891 413.82289861431855 L 259.4985162583032 222.30250393000392"
      stroke-opacity="1"
      stroke-width="1.75"
      stroke="#000000"
      stroke-linecap="butt"
    ></path>
    <title>`UTS`.QR</title>
  </g>
  <g style="solid">
    <path
      d="M 259.4985162583032 222.30250393000392 L 480.5510908863891 413.82289861431855"
      stroke-opacity="1"
      stroke-width="1.75"
      stroke="#000000"
      stroke-linecap="butt"
    ></path>
    <title>`ST`.icon</title>
  </g>
  <g style="solid">
    <path
      d="M 480.5510908863891 413.82289861431855 L 390.5792926044533 600.9618493558942"
      stroke-opacity="1"
      stroke-width="1.75"
      stroke="#000000"
      stroke-linecap="butt"
    ></path>
    <title>`UTV`.QR</title>
  </g>
  <g style="solid">
    <path
      d="M 390.5792926044533 600.9618493558942 L 480.5510908863891 413.82289861431855"
      stroke-opacity="1"
      stroke-width="1.75"
      stroke="#000000"
      stroke-linecap="butt"
    ></path>
    <title>`VT`.icon</title>
  </g>
  <circle
    fill="#000000"
    fill-opacity="1"
    cx="480.5510908863891"
    cy="413.82289861431855"
    stroke="#000000"
    stroke-opacity="1"
    stroke-width="0"
    stroke-linecap="butt"
    r="4"
  >
    <title>`T`.icon</title>
  </circle>
  <circle
    fill="#000000"
    fill-opacity="1"
    cx="259.4985162583032"
    cy="222.30250393000392"
    stroke="#000000"
    stroke-opacity="1"
    stroke-width="0"
    stroke-linecap="butt"
    r="4"
  >
    <title>`S`.icon</title>
  </circle>
  <g style="solid">
    <path
      d="M 528.36975629403 66.43008769455417 L 463.6983762222668 351.670144599538"
      stroke-opacity="1"
      stroke-width="1.75"
      stroke="#000000"
      stroke-linecap="butt"
    ></path>
    <title>`XYZ`.PQ</title>
  </g>
  <g style="solid">
    <path
      d="M 463.6983762222668 351.670144599538 L 352.27197195219566 176.45565231647237"
      stroke-opacity="1"
      stroke-width="1.75"
      stroke="#000000"
      stroke-linecap="butt"
    ></path>
    <title>`XYZ`.QR</title>
  </g>
  <g style="solid">
    <path
      d="M 352.27197195219566 176.45565231647237 L 463.6983762222668 351.670144599538"
      stroke-opacity="1"
      stroke-width="1.75"
      stroke="#000000"
      stroke-linecap="butt"
    ></path>
    <title>`ZY`.icon</title>
  </g>
  <g style="solid">
    <path
      d="M 528.36975629403 66.43008769455417 L 463.6983762222668 351.670144599538"
      stroke-opacity="1"
      stroke-width="1.75"
      stroke="#000000"
      stroke-linecap="butt"
    ></path>
    <title>`XY`.icon</title>
  </g>
  <circle
    fill="#000000"
    fill-opacity="1"
    cx="463.6983762222668"
    cy="351.670144599538"
    stroke="#000000"
    stroke-opacity="1"
    stroke-width="0"
    stroke-linecap="butt"
    r="4"
  >
    <title>`Y`.icon</title>
  </circle>
  <g style="solid">
    <path
      d="M 352.27197195219566 176.45565231647237 L 528.36975629403 66.43008769455417"
      stroke-opacity="1"
      stroke-width="1.75"
      stroke="#000000"
      stroke-linecap="butt"
    ></path>
    <title>`XYZ`.RP</title>
  </g>
  <g style="solid">
    <path
      d="M 528.36975629403 66.43008769455417 L 352.27197195219566 176.45565231647237"
      stroke-opacity="1"
      stroke-width="1.75"
      stroke="#000000"
      stroke-linecap="butt"
    ></path>
    <title>`XZ`.icon</title>
  </g>
  <circle
    fill="#000000"
    fill-opacity="1"
    cx="352.27197195219566"
    cy="176.45565231647237"
    stroke="#000000"
    stroke-opacity="1"
    stroke-width="0"
    stroke-linecap="butt"
    r="4"
  >
    <title>`Z`.icon</title>
  </circle>
  <circle
    fill="#000000"
    fill-opacity="1"
    cx="528.36975629403"
    cy="66.43008769455417"
    stroke="#000000"
    stroke-opacity="1"
    stroke-width="0"
    stroke-linecap="butt"
    r="4"
  >
    <title>`X`.icon</title>
  </circle>
  <g
    transform="rotate(0, 338.41790215195704, 143.29561900291452)translate(338.41790215195704, 143.29561900291452)"
    string="Z"
  >
    <title>`Z`.text</title>
    <svg
      xmlns="http://www.w3.org/2000/svg"
      width="13.85268"
      height="19.16"
      role="img"
      focusable="false"
      viewBox="1.11128 -13.08628 12.741399999999999 13.08628"
    >
      <path
        stroke="none"
        fill="#000000"
        stroke-width="0"
        d="M1.11128-0.15328Q1.11128-0.44068 1.22624-0.6706 1.22624-0.68976 6.30364-6.39944T11.41936-12.1666L11.22776-12.20492Q11.017-12.20492 9.80992-12.20492H9.58 9.12016Q8.46872-12.20492 8.0472-12.1666T6.9934-11.95584 5.95876-11.45768 5.09656-10.49968 4.36848-8.98604Q4.34932-8.92856 4.33016-8.87108T4.29184-8.77528 4.27268-8.67948 4.25352-8.622L4.23436-8.58368Q4.17688-8.48788 3.87032-8.48788 3.5446-8.48788 3.48712-8.67948L4.10024-10.74876Q4.36848-11.61096 4.61756-12.47316 4.77084-13.00964 4.84748-13.04796 4.90496-13.08628 9.33092-13.08628H13.75688Q13.85268-12.99048 13.85268-12.933 13.85268-12.89468 13.73772-12.43484 3.62124-1.03464 3.60208-0.99632L3.5446-0.93884H5.24984Q7.07004-0.958 7.22332-0.97716 8.66032-1.1496 9.58-1.916T11.09364-4.73252Q11.24692-5.21152 11.3044-5.30732T11.55348-5.40312H11.63012Q12.03248-5.40312 12.03248-5.19236 10.48052-0.0958 10.36556-0.03832 10.30808 0 5.748 0H2.37584Q1.11128 0 1.11128-0.15328Z"
        fill-opacity="1"
      ></path>
    </svg>
  </g>
  <g startArrowheadSize="1" endArrowheadSize="1">
    <filter id="`XYZ`.icon-shadow" x="0" y="0" width="200%" height="200%">
      <feOffset result="offOut" in="SourceAlpha" dx="5" dy="5"></feOffset>
      <feGaussianBlur
        result="blurOut"
        in="offOut"
        stdDeviation="4"
      ></feGaussianBlur>
      <feBlend in="SourceGraphic" in2="blurOut" mode="normal"></feBlend>
      <feComponentTransfer>
        <feFuncA type="linear" slope="0.5"></feFuncA>
      </feComponentTransfer>
      <feMerge>
        <feMergeNode></feMergeNode>
        <feMergeNode in="SourceGraphic"></feMergeNode>
      </feMerge>
    </filter>
    <path
      stroke="#406959"
      fill="none"
      stroke-width="1"
      stroke-opacity="0.5"
      d="M 528.36975629403 66.43008769455417 L 463.6983762222668 351.670144599538 L 352.27197195219566 176.45565231647237 Z "
    ></path>
    <title>`XYZ`.icon</title>
  </g>
  <g
    transform="rotate(0, 533.9331575117766, 79.27724099527096)translate(533.9331575117766, 79.27724099527096)"
    string="X"
  >
    <title>`X`.text</title>
    <svg
      xmlns="http://www.w3.org/2000/svg"
      width="16.32432"
      height="19.16"
      role="img"
      focusable="false"
      viewBox="0.49816 -13.08628 15.82616 13.08628"
    >
      <path
        stroke="none"
        fill="#000000"
        stroke-width="0"
        d="M0.80472 0H0.7664Q0.49816 0 0.49816-0.21076 0.49816-0.2874 0.55564-0.51732 0.63228-0.78556 0.68976-0.82388T1.0538-0.88136Q2.70156-0.93884 3.6404-1.87768 3.832-2.06928 5.86296-4.29184T7.87476-6.55272Q5.78632-11.879199999999999 5.69052-11.975 5.51808-12.18576 4.48344-12.20492H3.94696Q3.832-12.31988 3.832-12.3582T3.87032-12.72224Q3.94696-12.97132 4.06192-13.08628H4.33016Q4.9816-13.04796 6.6485199999999995-13.04796 7.2808-13.04796 7.81728-13.04796T8.67948-13.06712 9.06268-13.06712Q9.3884-13.06712 9.3884-12.85636 9.3884-12.8372 9.35008-12.60728 9.27344-12.31988 9.21596-12.2624T8.9094-12.20492Q8.31544-12.14744 7.87476-11.879199999999999L9.35008-8.16216 10.36556-9.2926Q12.37736-11.45768 12.37736-11.6876 12.37736-12.03248 11.91752-12.1666 11.82172-12.1666 11.66844-12.20492 11.38104-12.20492 11.38104-12.41568 11.38104-12.454 11.41936-12.72224 11.496-12.97132 11.61096-13.08628H11.84088Q11.86004-13.08628 12.31988-13.08628T13.35452-13.04796 14.14008-13.0288Q15.86448-13.0288 16.03692-13.08628H16.1902Q16.32432-12.95216 16.32432-12.87552 16.286-12.39652 16.0944-12.20492H15.78784Q15.1364-12.18576 14.61908-12.03248T13.83352-11.70676 13.37368-11.36188L13.16292-11.18944Q13.16292-11.2086 11.34272-9.1968L9.6758-7.35744Q9.6758-7.33828 10.26976-5.82464T11.51516-2.72072 12.22408-1.07296Q12.41568-0.90052 13.39284-0.88136 14.06344-0.88136 14.06344-0.70892 14.06344-0.6706 14.02512-0.44068 13.94848-0.13412 13.891-0.07664T13.62276-0.01916Q13.56528-0.01916 12.99048-0.01916T11.28524-0.03832Q10.11648-0.03832 9.50336-0.03832T8.83276-0.01916Q8.50704-0.01916 8.50704-0.1916 8.50704-0.21076 8.54536-0.479 8.58368-0.6706 8.622-0.74724T8.7178-0.84304 8.89024-0.88136 9.1968-0.90052 9.69496-1.03464Q10.02068-1.18792 10.02068-1.22624 10.00152-1.22624 9.12016-3.46796L8.21964-5.72884Q4.61756-1.8202 4.52176-1.60944 4.44512-1.45616 4.44512-1.37952 4.44512-1.01548 5.00076-0.90052 5.01992-0.90052 5.11572-0.90052T5.2306799999999996-0.88136Q5.28816-0.88136 5.30732-0.88136T5.3648-0.8622 5.42228-0.80472 5.44144-0.6706Q5.44144-0.49816 5.40312-0.36404 5.34564-0.11496 5.28816-0.07664T5.00076-0.01916Q4.94328-0.01916 4.65588-0.01916T3.85116-0.03832 2.72072-0.03832Q1.22624-0.03832 0.80472 0Z"
        fill-opacity="1"
      ></path>
    </svg>
  </g>
  <g
    transform="rotate(0, 464.1458025014696, 365.66299616817577)translate(464.1458025014696, 365.66299616817577)"
    string="Y"
  >
    <title>`Y`.text</title>
    <svg
      xmlns="http://www.w3.org/2000/svg"
      width="14.61908"
      height="19.16"
      role="img"
      focusable="false"
      viewBox="0.5748 -13.08628 14.04428 13.067120000000001"
    >
      <path
        stroke="none"
        fill="#000000"
        stroke-width="0"
        d="M1.26456-12.20492Q1.03464-12.20492 0.93884-12.20492T0.74724-12.22408 0.61312-12.28156 0.5748-12.39652 0.63228-12.72224 0.80472-13.06712Q0.84304-13.08628 1.07296-13.08628 1.99264-13.0288 3.1614-13.0288 5.51808-13.0288 5.86296-13.08628H6.05456Q6.16952-12.97132 6.16952-12.91384T6.1312-12.56896Q6.05456-12.31988 5.9395999999999995-12.20492H5.70968Q4.63672-12.20492 4.63672-11.95584 4.63672-11.86004 5.59472-9.13932T6.57188-6.38028L6.62936-6.43776Q6.706-6.5144 6.85928-6.68684T7.26164-7.14668 7.87476-7.8556 8.69864-8.83276Q10.461359999999999-10.88288 10.74876-11.24692T11.05532-11.84088Q11.05532-12.14744 10.4422-12.20492 10.11648-12.20492 10.11648-12.39652 10.11648-12.43484 10.1548-12.66476 10.21228-12.95216 10.2506-13.00964T10.51884-13.08628Q10.55716-13.08628 11.07448-13.06712T12.58812-13.0288Q13.10544-13.0288 13.66108-13.04796T14.29336-13.06712Q14.61908-13.06712 14.61908-12.89468 14.61908-12.81804 14.5616-12.58812T14.4658-12.31988Q14.42748-12.20492 14.06344-12.20492 12.68392-12.10912 11.82172-11.24692 11.64928-11.07448 9.13932-8.12384L6.66768-5.2306799999999996 6.16952-3.23804Q5.6522-1.18792 5.6522-1.09212 5.6522-0.88136 6.95508-0.88136 7.26164-0.88136 7.35744-0.8622T7.4724-0.6706Q7.4724-0.63228 7.43408-0.44068 7.35744-0.11496 7.31912-0.07664T7.01256-0.01916Q6.91676-0.01916 6.20784-0.01916T4.44512-0.03832Q3.2572-0.03832 2.64408-0.03832T1.95432-0.01916Q1.60944-0.01916 1.60944-0.17244 1.60944-0.26824 1.66692-0.45984 1.68608-0.51732 1.70524-0.5748T1.7244-0.6706 1.74356-0.74724 1.78188-0.80472 1.83936-0.84304 1.93516-0.8622 2.05012-0.8622 2.22256-0.88136 2.47164-0.88136Q3.21888-0.90052 3.4488-0.958T3.79368-1.20708Q3.85116-1.30288 4.34932-3.27636L4.82832-5.24984 2.47164-11.93668Q2.45248-11.95584 2.43332-11.975T2.395-12.01332 2.33752-12.05164 2.26088-12.08996 2.16508-12.12828 2.0118-12.14744 1.83936-12.1666 1.59028-12.18576 1.26456-12.20492Z"
        fill-opacity="1"
      ></path>
    </svg>
  </g>
  <g startArrowheadSize="1" endArrowheadSize="1">
    <filter id="`ZY`.tick-shadow" x="0" y="0" width="200%" height="200%">
      <feOffset result="offOut" in="SourceAlpha" dx="5" dy="5"></feOffset>
      <feGaussianBlur
        result="blurOut"
        in="offOut"
        stdDeviation="4"
      ></feGaussianBlur>
      <feBlend in="SourceGraphic" in2="blurOut" mode="normal"></feBlend>
      <feComponentTransfer>
        <feFuncA type="linear" slope="0.5"></feFuncA>
      </feComponentTransfer>
      <feMerge>
        <feMergeNode></feMergeNode>
        <feMergeNode in="SourceGraphic"></feMergeNode>
      </feMerge>
    </filter>
    <path
      stroke="#000000"
      fill="none"
      stroke-width="2"
      stroke-opacity="1"
      d="M 399.5469517565018 269.4291256489935 L 416.42339641796065 258.6966712670169"
    ></path>
    <title>`ZY`.tick</title>
  </g>
  <g startArrowheadSize="1" endArrowheadSize="1">
    <filter id="`UT`.tick-shadow" x="0" y="0" width="200%" height="200%">
      <feOffset result="offOut" in="SourceAlpha" dx="5" dy="5"></feOffset>
      <feGaussianBlur
        result="blurOut"
        in="offOut"
        stdDeviation="4"
      ></feGaussianBlur>
      <feBlend in="SourceGraphic" in2="blurOut" mode="normal"></feBlend>
      <feComponentTransfer>
        <feFuncA type="linear" slope="0.5"></feFuncA>
      </feComponentTransfer>
      <feMerge>
        <feMergeNode></feMergeNode>
        <feMergeNode in="SourceGraphic"></feMergeNode>
      </feMerge>
    </filter>
    <path
      stroke="#000000"
      fill="none"
      stroke-width="2"
      stroke-opacity="1"
      d="M 377.7783323738446 431.62004917982864 L 376.2708274367802 411.6769453507553"
    ></path>
    <title>`UT`.tick</title>
  </g>
  <g startArrowheadSize="1" endArrowheadSize="1">
    <filter id="`ST`.tick-shadow" x="0" y="0" width="200%" height="200%">
      <feOffset result="offOut" in="SourceAlpha" dx="5" dy="5"></feOffset>
      <feGaussianBlur
        result="blurOut"
        in="offOut"
        stdDeviation="4"
      ></feGaussianBlur>
      <feBlend in="SourceGraphic" in2="blurOut" mode="normal"></feBlend>
      <feComponentTransfer>
        <feFuncA type="linear" slope="0.5"></feFuncA>
      </feComponentTransfer>
      <feMerge>
        <feMergeNode></feMergeNode>
        <feMergeNode in="SourceGraphic"></feMergeNode>
      </feMerge>
    </filter>
    <path
      stroke="#000000"
      fill="none"
      stroke-width="2"
      stroke-opacity="1"
      d="M 363.47664076356216 325.6205817284515 L 376.57296638113013 310.50482081587097"
    ></path>
    <title>`ST`.tick</title>
  </g>
  <g startArrowheadSize="1" endArrowheadSize="1">
    <filter id="`XY`.tick-shadow" x="0" y="0" width="200%" height="200%">
      <feOffset result="offOut" in="SourceAlpha" dx="5" dy="5"></feOffset>
      <feGaussianBlur
        result="blurOut"
        in="offOut"
        stdDeviation="4"
      ></feGaussianBlur>
      <feBlend in="SourceGraphic" in2="blurOut" mode="normal"></feBlend>
      <feComponentTransfer>
        <feFuncA type="linear" slope="0.5"></feFuncA>
      </feComponentTransfer>
      <feMerge>
        <feMergeNode></feMergeNode>
        <feMergeNode in="SourceGraphic"></feMergeNode>
      </feMerge>
    </filter>
    <path
      stroke="#000000"
      fill="none"
      stroke-width="2"
      stroke-opacity="1"
      d="M 486.2815873811747 206.83897415339297 L 505.78654513512214 211.2612581406992"
    ></path>
    <title>`XY`.tick</title>
  </g>
  <g startArrowheadSize="1" endArrowheadSize="1">
    <filter id="`UTV`.icon-shadow" x="0" y="0" width="200%" height="200%">
      <feOffset result="offOut" in="SourceAlpha" dx="5" dy="5"></feOffset>
      <feGaussianBlur
        result="blurOut"
        in="offOut"
        stdDeviation="4"
      ></feGaussianBlur>
      <feBlend in="SourceGraphic" in2="blurOut" mode="normal"></feBlend>
      <feComponentTransfer>
        <feFuncA type="linear" slope="0.5"></feFuncA>
      </feComponentTransfer>
      <feMerge>
        <feMergeNode></feMergeNode>
        <feMergeNode in="SourceGraphic"></feMergeNode>
      </feMerge>
    </filter>
    <path
      stroke="#d97c35"
      fill="none"
      stroke-width="1"
      stroke-opacity="0.5"
      d="M 273.4980689242358 429.47409591626536 L 480.5510908863891 413.82289861431855 L 390.5792926044533 600.9618493558942 Z "
    ></path>
    <title>`UTV`.icon</title>
  </g>
  <circle
    fill="#000000"
    fill-opacity="1"
    cx="390.5792926044533"
    cy="600.9618493558942"
    stroke="#000000"
    stroke-opacity="1"
    stroke-width="0"
    stroke-linecap="butt"
    r="4"
  >
    <title>`V`.icon</title>
  </circle>
  <g startArrowheadSize="1" endArrowheadSize="1">
    <filter id="`XZ`.tick-shadow" x="0" y="0" width="200%" height="200%">
      <feOffset result="offOut" in="SourceAlpha" dx="5" dy="5"></feOffset>
      <feGaussianBlur
        result="blurOut"
        in="offOut"
        stdDeviation="4"
      ></feGaussianBlur>
      <feBlend in="SourceGraphic" in2="blurOut" mode="normal"></feBlend>
      <feComponentTransfer>
        <feFuncA type="linear" slope="0.5"></feFuncA>
      </feComponentTransfer>
      <feMerge>
        <feMergeNode></feMergeNode>
        <feMergeNode in="SourceGraphic"></feMergeNode>
      </feMerge>
    </filter>
    <path
      stroke="#000000"
      fill="none"
      stroke-width="2"
      stroke-opacity="1"
      d="M 435.02210620205614 112.96211798330603 L 445.61962204416955 129.9236220277205 M 422.30097816874525 120.91025486489107 L 432.89849401085866 137.87175890930556 M 447.743234235367 105.01398110172099 L 458.3407500774804 121.97548514613547"
    ></path>
    <title>`XZ`.tick</title>
  </g>
  <g startArrowheadSize="1" endArrowheadSize="1">
    <filter id="`UV`.tick-shadow" x="0" y="0" width="200%" height="200%">
      <feOffset result="offOut" in="SourceAlpha" dx="5" dy="5"></feOffset>
      <feGaussianBlur
        result="blurOut"
        in="offOut"
        stdDeviation="4"
      ></feGaussianBlur>
      <feBlend in="SourceGraphic" in2="blurOut" mode="normal"></feBlend>
      <feComponentTransfer>
        <feFuncA type="linear" slope="0.5"></feFuncA>
      </feComponentTransfer>
      <feMerge>
        <feMergeNode></feMergeNode>
        <feMergeNode in="SourceGraphic"></feMergeNode>
      </feMerge>
    </filter>
    <path
      stroke="#000000"
      fill="none"
      stroke-width="2"
      stroke-opacity="1"
      d="M 323.77994552632504 520.8565258757353 L 340.29741600236406 509.5794193964243 M 332.2377753858082 533.2446287327646 L 348.75524586184724 521.9675222534536 M 315.3221156668418 508.46842301870606 L 331.8395861428809 497.1913165393951"
    ></path>
    <title>`UV`.tick</title>
  </g>
  <g startArrowheadSize="1" endArrowheadSize="1">
    <filter id="`US`.tick-shadow" x="0" y="0" width="200%" height="200%">
      <feOffset result="offOut" in="SourceAlpha" dx="5" dy="5"></feOffset>
      <feGaussianBlur
        result="blurOut"
        in="offOut"
        stdDeviation="4"
      ></feGaussianBlur>
      <feBlend in="SourceGraphic" in2="blurOut" mode="normal"></feBlend>
      <feComponentTransfer>
        <feFuncA type="linear" slope="0.5"></feFuncA>
      </feComponentTransfer>
      <feMerge>
        <feMergeNode></feMergeNode>
        <feMergeNode in="SourceGraphic"></feMergeNode>
      </feMerge>
    </filter>
    <path
      stroke="#000000"
      fill="none"
      stroke-width="2"
      stroke-opacity="1"
      d="M 275.9698814834463 317.7311565010903 L 256.0153900162974 319.07957474481736 M 276.98119516624155 332.69702510145197 L 257.02670369909265 334.045443345179"
    ></path>
    <title>`US`.tick</title>
  </g>
  <g startArrowheadSize="1" endArrowheadSize="1">
    <filter id="`VT`.tick-shadow" x="0" y="0" width="200%" height="200%">
      <feOffset result="offOut" in="SourceAlpha" dx="5" dy="5"></feOffset>
      <feGaussianBlur
        result="blurOut"
        in="offOut"
        stdDeviation="4"
      ></feGaussianBlur>
      <feBlend in="SourceGraphic" in2="blurOut" mode="normal"></feBlend>
      <feComponentTransfer>
        <feFuncA type="linear" slope="0.5"></feFuncA>
      </feComponentTransfer>
      <feMerge>
        <feMergeNode></feMergeNode>
        <feMergeNode in="SourceGraphic"></feMergeNode>
      </feMerge>
    </filter>
    <path
      stroke="#000000"
      fill="none"
      stroke-width="2"
      stroke-opacity="1"
      d="M 444.5776939498428 511.7253630669543 L 426.5526895409996 503.0593849032585"
    ></path>
    <title>`VT`.tick</title>
  </g>
  <g startArrowheadSize="1" endArrowheadSize="1">
    <filter id="`aTUS`.mark-shadow" x="0" y="0" width="200%" height="200%">
      <feOffset result="offOut" in="SourceAlpha" dx="5" dy="5"></feOffset>
      <feGaussianBlur
        result="blurOut"
        in="offOut"
        stdDeviation="4"
      ></feGaussianBlur>
      <feBlend in="SourceGraphic" in2="blurOut" mode="normal"></feBlend>
      <feComponentTransfer>
        <feFuncA type="linear" slope="0.5"></feFuncA>
      </feComponentTransfer>
      <feMerge>
        <feMergeNode></feMergeNode>
        <feMergeNode in="SourceGraphic"></feMergeNode>
      </feMerge>
    </filter>
    <path
      stroke="#000000"
      fill="none"
      stroke-width="2"
      stroke-opacity="1"
      d="M 303.4127246678457 427.21283851066886 A 30 30 0 0 0 271.4754415586452 399.54235871554204 M 313.38427650128335 426.459086048267 A 40 40 0 0 0 270.801232442265 389.56511306311256 M 323.355828334721 425.7053335858651 A 50 50 0 0 0 270.1270233258848 379.5878674106831"
    ></path>
    <title>`aTUS`.mark</title>
  </g>
  <g style="solid">
    <path
      d="M 480.5510908863891 413.82289861431855 L 273.4980689242358 429.47409591626536"
      stroke-opacity="1"
      stroke-width="1.75"
      stroke="#000000"
      stroke-linecap="butt"
    ></path>
    <title>`aTUS`.side1</title>
  </g>
  <g style="solid">
    <path
      d="M 273.4980689242358 429.47409591626536 L 259.4985162583032 222.30250393000392"
      stroke-opacity="1"
      stroke-width="1.75"
      stroke="#000000"
      stroke-linecap="butt"
    ></path>
    <title>`aTUS`.side2</title>
  </g>
  <g startArrowheadSize="1" endArrowheadSize="1">
    <filter id="`aUTS`.mark-shadow" x="0" y="0" width="200%" height="200%">
      <feOffset result="offOut" in="SourceAlpha" dx="5" dy="5"></feOffset>
      <feGaussianBlur
        result="blurOut"
        in="offOut"
        stdDeviation="4"
      ></feGaussianBlur>
      <feBlend in="SourceGraphic" in2="blurOut" mode="normal"></feBlend>
      <feComponentTransfer>
        <feFuncA type="linear" slope="0.5"></feFuncA>
      </feComponentTransfer>
      <feMerge>
        <feMergeNode></feMergeNode>
        <feMergeNode in="SourceGraphic"></feMergeNode>
      </feMerge>
    </filter>
    <path
      stroke="#000000"
      fill="none"
      stroke-width="2"
      stroke-opacity="1"
      d="M 450.63643514277913 416.0841560199151 A 30 30 0 0 1 457.8774495175183 394.1784101879666 M 440.66488330934146 416.83790848231695 A 40 40 0 0 1 450.31956909076257 387.6302474047714"
    ></path>
    <title>`aUTS`.mark</title>
  </g>
  <g style="solid">
    <path
      d="M 273.4980689242358 429.47409591626536 L 480.5510908863891 413.82289861431855"
      stroke-opacity="1"
      stroke-width="1.75"
      stroke="#000000"
      stroke-linecap="butt"
    ></path>
    <title>`aUTS`.side1</title>
  </g>
  <g style="solid">
    <path
      d="M 480.5510908863891 413.82289861431855 L 259.4985162583032 222.30250393000392"
      stroke-opacity="1"
      stroke-width="1.75"
      stroke="#000000"
      stroke-linecap="butt"
    ></path>
    <title>`aUTS`.side2</title>
  </g>
  <g style="solid">
    <path
      d="M 273.4980689242358 429.47409591626536 L 259.4985162583032 222.30250393000392"
      stroke-opacity="1"
      stroke-width="1.75"
      stroke="#000000"
      stroke-linecap="butt"
    ></path>
    <title>`aUST`.side1</title>
  </g>
  <g style="solid">
    <path
      d="M 259.4985162583032 222.30250393000392 L 480.5510908863891 413.82289861431855"
      stroke-opacity="1"
      stroke-width="1.75"
      stroke="#000000"
      stroke-linecap="butt"
    ></path>
    <title>`aUST`.side2</title>
  </g>
  <g startArrowheadSize="1" endArrowheadSize="1">
    <filter id="`aYZX`.mark-shadow" x="0" y="0" width="200%" height="200%">
      <feOffset result="offOut" in="SourceAlpha" dx="5" dy="5"></feOffset>
      <feGaussianBlur
        result="blurOut"
        in="offOut"
        stdDeviation="4"
      ></feGaussianBlur>
      <feBlend in="SourceGraphic" in2="blurOut" mode="normal"></feBlend>
      <feComponentTransfer>
        <feFuncA type="linear" slope="0.5"></feFuncA>
      </feComponentTransfer>
      <feMerge>
        <feMergeNode></feMergeNode>
        <feMergeNode in="SourceGraphic"></feMergeNode>
      </feMerge>
    </filter>
    <path
      stroke="#000000"
      fill="none"
      stroke-width="2"
      stroke-opacity="1"
      d="M 368.3706535251606 201.77031930866065 A 30 30 0 0 0 377.7142280188174 160.5593785533023 M 373.73688067250527 210.2085415707618 A 40 40 0 0 0 386.19497997205065 155.26062067534045 M 379.1031078198499 218.64676383286297 A 50 50 0 0 0 394.6757319252839 149.9618627973786"
    ></path>
    <title>`aYZX`.mark</title>
  </g>
  <g style="solid">
    <path
      d="M 463.6983762222668 351.670144599538 L 352.27197195219566 176.45565231647237"
      stroke-opacity="1"
      stroke-width="1.75"
      stroke="#000000"
      stroke-linecap="butt"
    ></path>
    <title>`aYZX`.side1</title>
  </g>
  <g style="solid">
    <path
      d="M 352.27197195219566 176.45565231647237 L 528.36975629403 66.43008769455417"
      stroke-opacity="1"
      stroke-width="1.75"
      stroke="#000000"
      stroke-linecap="butt"
    ></path>
    <title>`aYZX`.side2</title>
  </g>
  <g startArrowheadSize="1" endArrowheadSize="1">
    <filter id="`aXYZ`.mark-shadow" x="0" y="0" width="200%" height="200%">
      <feOffset result="offOut" in="SourceAlpha" dx="5" dy="5"></feOffset>
      <feGaussianBlur
        result="blurOut"
        in="offOut"
        stdDeviation="4"
      ></feGaussianBlur>
      <feBlend in="SourceGraphic" in2="blurOut" mode="normal"></feBlend>
      <feComponentTransfer>
        <feFuncA type="linear" slope="0.5"></feFuncA>
      </feComponentTransfer>
      <feMerge>
        <feMergeNode></feMergeNode>
        <feMergeNode in="SourceGraphic"></feMergeNode>
      </feMerge>
    </filter>
    <path
      stroke="#000000"
      fill="none"
      stroke-width="2"
      stroke-opacity="1"
      d="M 470.3318022032261 322.41270796861676 A 30 30 0 0 0 447.59969464930185 326.3554776073497 M 472.54294418823855 312.6602291297536 A 40 40 0 0 0 442.2334675019572 317.9172553452485"
    ></path>
    <title>`aXYZ`.mark</title>
  </g>
  <g style="solid">
    <path
      d="M 528.36975629403 66.43008769455417 L 463.6983762222668 351.670144599538"
      stroke-opacity="1"
      stroke-width="1.75"
      stroke="#000000"
      stroke-linecap="butt"
    ></path>
    <title>`aXYZ`.side1</title>
  </g>
  <g style="solid">
    <path
      d="M 463.6983762222668 351.670144599538 L 352.27197195219566 176.45565231647237"
      stroke-opacity="1"
      stroke-width="1.75"
      stroke="#000000"
      stroke-linecap="butt"
    ></path>
    <title>`aXYZ`.side2</title>
  </g>
  <g startArrowheadSize="1" endArrowheadSize="1">
    <filter id="`aZXY`.mark-shadow" x="0" y="0" width="200%" height="200%">
      <feOffset result="offOut" in="SourceAlpha" dx="5" dy="5"></feOffset>
      <feGaussianBlur
        result="blurOut"
        in="offOut"
        stdDeviation="4"
      ></feGaussianBlur>
      <feBlend in="SourceGraphic" in2="blurOut" mode="normal"></feBlend>
      <feComponentTransfer>
        <feFuncA type="linear" slope="0.5"></feFuncA>
      </feComponentTransfer>
      <feMerge>
        <feMergeNode></feMergeNode>
        <feMergeNode in="SourceGraphic"></feMergeNode>
      </feMerge>
    </filter>
    <path
      stroke="#000000"
      fill="none"
      stroke-width="2"
      stroke-opacity="1"
      d="M 502.92750022740825 82.32636145772426 A 30 30 0 0 0 521.7363303130708 95.68752432547538"
    ></path>
    <title>`aZXY`.mark</title>
  </g>
  <g style="solid">
    <path
      d="M 352.27197195219566 176.45565231647237 L 528.36975629403 66.43008769455417"
      stroke-opacity="1"
      stroke-width="1.75"
      stroke="#000000"
      stroke-linecap="butt"
    ></path>
    <title>`aZXY`.side1</title>
  </g>
  <g style="solid">
    <path
      d="M 528.36975629403 66.43008769455417 L 463.6983762222668 351.670144599538"
      stroke-opacity="1"
      stroke-width="1.75"
      stroke="#000000"
      stroke-linecap="butt"
    ></path>
    <title>`aZXY`.side2</title>
  </g>
</svg>
