<svg version="1.2" xmlns="http://www.w3.org/2000/svg" viewBox="0 0 800 700">
  <g
    transform="rotate(0, 399.83231107138107, 389.74040309922265)translate(399.83231107138107, 389.74040309922265)"
    string="V"
  >
    <title>`V`.text</title>
    <svg
      xmlns="http://www.w3.org/2000/svg"
      width="14.73404"
      height="19.16"
      role="img"
      focusable="false"
      viewBox="0.99632 -13.08628 13.73772 13.5078"
    >
      <path
        stroke="none"
        fill="#000000"
        stroke-width="0"
        d="M0.99632-12.41568Q0.99632-12.8372 1.2454-13.08628H1.45616Q2.26088-13.0288 3.46796-13.0288 5.72884-13.0288 6.1312-13.08628H6.3228Q6.43776-12.97132 6.43776-12.91384T6.39944-12.56896Q6.30364-12.28156 6.227-12.20492H5.82464Q5.40312-12.1666 5.24984-12.1666 4.6942-12.0708 4.63672-11.879199999999999 4.63672-11.84088 5.19236-7.07004T5.76716-2.26088L7.16584-4.5026Q8.56452-6.74432 9.9632-9.02436T11.4002-11.38104Q11.47684-11.51516 11.47684-11.66844 11.47684-12.12828 10.6338-12.20492 10.28892-12.20492 10.28892-12.41568 10.28892-12.43484 10.32724-12.66476 10.38472-12.933 10.4422-13.00964T10.69128-13.08628Q10.7296-13.08628 10.9212-13.08628T11.57264-13.06712 12.79888-13.04796Q14.12092-13.04796 14.4658-13.08628H14.59992Q14.73404-12.95216 14.73404-12.87552 14.73404-12.5498 14.5616-12.2624 14.50412-12.20492 14.23588-12.20492 13.9868-12.18576 13.77604-12.1666T13.37368-12.0708 13.06712-11.93668 12.8372-11.7834 12.6456-11.64928 12.49232-11.47684 12.3582-11.34272L8.66032-5.40312Q5.21152 0.17244 5.09656 0.30656 5.03908 0.34488 4.96244 0.40236L4.61756 0.42152H4.48344Q4.13856 0.42152 4.13856 0.2874 4.08108 0.17244 3.39132-5.8438 2.66324-11.93668 2.64408-11.99416 2.54828-12.20492 1.45616-12.20492H1.13044Q0.99632-12.30072 0.99632-12.41568Z"
        fill-opacity="1"
      ></path>
    </svg>
  </g>
  <g>
    <filter id="`UTS`.icon-shadow" x="0" y="0" width="200%" height="200%">
      <feOffset result="offOut" in="SourceAlpha" dx="5" dy="5"></feOffset>
      <feGaussianBlur
        result="blurOut"
        in="offOut"
        stdDeviation="4"
      ></feGaussianBlur>
      <feBlend in="SourceGraphic" in2="blurOut" mode="normal"></feBlend>
      <feComponentTransfer>
        <feFuncA type="linear" slope="0.5"></feFuncA>
      </feComponentTransfer>
      <feMerge>
        <feMergeNode></feMergeNode>
        <feMergeNode in="SourceGraphic"></feMergeNode>
      </feMerge>
    </filter>
    <path
      stroke="#62d877"
      fill="none"
      stroke-width="1"
      stroke-opacity="0.5"
      d="M 321.04498084497055 427.6166001315121 L 374.98947648271496 509.9533974362144 L 261.7901026633498 506.218138683403 Z "
    ></path>
    <title>`UTS`.icon</title>
  </g>
  <g
    transform="rotate(0, 333.87256759874265, 402.84842081195677)translate(333.87256759874265, 402.84842081195677)"
    string="U"
  >
    <title>`U`.text</title>
    <svg
      xmlns="http://www.w3.org/2000/svg"
      width="14.69572"
      height="19.16"
      role="img"
      focusable="false"
      viewBox="1.1496 -13.08628 13.54612 13.5078"
    >
      <path
        stroke="none"
        fill="#000000"
        stroke-width="0"
        d="M2.05012-12.20492Q1.39868-12.20492 1.36036-12.28156 1.3412-12.31988 1.3412-12.43484 1.3412-12.89468 1.55196-13.06712 1.59028-13.08628 1.87768-13.08628 2.66324-13.04796 4.48344-13.04796 5.13488-13.04796 5.69052-13.04796T6.55272-13.06712 6.93592-13.06712Q7.24248-13.06712 7.24248-12.87552 7.24248-12.8372 7.20416-12.60728 7.10836-12.28156 7.01256-12.22408H6.97424Q6.93592-12.22408 6.87844-12.22408T6.74432-12.22408 6.57188-12.20492 6.39944-12.20492Q5.6522-12.18576 5.44144-12.14744T5.09656-11.93668Q5.0774-11.89836 4.56008-9.92488T3.52544-5.78632 2.95064-3.23804Q2.91232-2.9697999999999998 2.91232-2.6824 2.91232-1.64776 3.50628-1.0538T5.15404-0.45984Q6.43776-0.45984 7.72148-1.32204T9.59916-3.9278L10.57632-7.77896Q11.47684-11.45768 11.47684-11.61096 11.47684-12.12828 10.2506-12.20492 9.79076-12.20492 9.79076-12.41568 9.79076-12.454 9.82908-12.6456 9.90572-12.95216 9.94404-13.00964T10.13564-13.08628Q10.19312-13.08628 10.74876-13.06712T12.3582-13.0288Q13.33536-13.0288 13.85268-13.04796T14.40832-13.06712Q14.69572-13.06712 14.69572-12.87552 14.69572-12.454 14.54244-12.30072 14.48496-12.20492 14.12092-12.20492 12.76056-12.12828 12.41568-11.43852 12.37736-11.34272 11.45768-7.74064 10.67212-4.5026 10.49968-3.9278 9.8674-2.0118 8.29628-0.80472T5.03908 0.42152Q3.27636 0.42152 2.22256-0.65144T1.1496-3.19972V-3.50628Q1.1496-3.85116 2.2034-8.06636 3.14224-11.91752 3.14224-12.03248 3.14224-12.1666 2.05012-12.20492Z"
        fill-opacity="1"
      ></path>
    </svg>
  </g>
  <g
    transform="rotate(0, 385.5632020355857, 519.1292747274529)translate(385.5632020355857, 519.1292747274529)"
    string="T"
  >
    <title>`T`.text</title>
    <svg
      xmlns="http://www.w3.org/2000/svg"
      width="13.48864"
      height="19.16"
      role="img"
      focusable="false"
      viewBox="0.40236 -12.97132 13.08628 12.97132"
    >
      <path
        stroke="none"
        fill="#000000"
        stroke-width="0"
        d="M0.7664-8.37292Q0.40236-8.37292 0.40236-8.5262 0.40236-8.622 0.70892-9.59916T1.36036-11.53432L1.68608-12.47316Q1.78188-12.81804 1.93516-12.97132H10.90204 12.62644Q13.239559999999999-12.97132 13.35452-12.95216T13.48864-12.77972Q13.48864-12.66476 13.16292-10.59548T12.79888-8.50704Q12.79888-8.37292 12.43484-8.37292 12.2624-8.37292 12.20492-8.37292T12.08996-8.46872L12.05164-8.5262Q12.05164-8.64116 12.1666-9.3884T12.28156-10.55716Q12.28156-11.22776 12.03248-11.57264T10.97868-12.05164Q10.88288-12.0708 9.8674-12.08996 8.98604-12.08996 8.75612-12.0708T8.41124-11.91752Q8.39208-11.89836 7.05088-6.57188T5.70968-1.1496Q5.70968-0.91968 7.39576-0.88136 8.00888-0.88136 8.18132-0.8622T8.35376-0.68976Q8.35376-0.59396 8.29628-0.42152 8.21964-0.07664 8.12384-0.01916L8.08552 0Q8.02804 0 7.9514 0 7.8556 0 6.95508-0.01916T4.36848-0.03832Q1.89684-0.03832 1.22624 0H0.93884Q0.82388-0.11496 0.82388-0.17244T0.8622-0.51732Q0.93884-0.7664 1.0538-0.88136H1.59028 1.80104Q3.33384-0.88136 3.62124-1.0538 3.6404-1.07296 3.65956-1.07296 3.75536-1.13044 3.85116-1.45616T4.61756-4.46428Q4.94328-5.76716 5.15404-6.59104 6.49524-11.86004 6.49524-11.975 6.49524-12.0708 5.9395999999999995-12.0708H5.34564Q4.06192-12.0708 3.65956-11.95584 2.79736-11.76424 2.31836-11.17028T1.28372-8.94772Q1.1496-8.5262 1.09212-8.44956T0.82388-8.37292H0.7664Z"
        fill-opacity="1"
      ></path>
    </svg>
  </g>
  <g
    transform="rotate(0, 270.2015994591037, 517.4095199757453)translate(270.2015994591037, 517.4095199757453)"
    string="S"
  >
    <title>`S`.text</title>
    <svg
      xmlns="http://www.w3.org/2000/svg"
      width="12.3582"
      height="19.16"
      role="img"
      focusable="false"
      viewBox="0.99632 -13.5078 11.36188 13.929319999999999"
    >
      <path
        stroke="none"
        fill="#000000"
        stroke-width="0"
        d="M5.90128-0.45984Q7.03172-0.45984 7.97056-1.45616T8.92856-3.77452Q8.92856-4.9816 7.93224-5.44144 5.90128-5.95876 5.32648-6.15036T4.52176-6.53356Q3.37216-7.33828 3.37216-8.85192 3.37216-10.02068 3.98528-10.97868T5.2306799999999996-12.41568Q5.78632-12.89468 6.57188-13.18208T7.79812-13.48864H8.00888 8.143Q9.98236-13.48864 10.80624-12.2624 10.8254-12.2624 11.05532-12.51148T11.55348-13.06712 11.93668-13.48864Q11.95584-13.48864 12.01332-13.48864T12.10912-13.5078Q12.3582-13.5078 12.3582-13.37368T11.82172-11.05532 11.2086-8.79444 10.90204-8.73696Q10.51884-8.73696 10.51884-8.9094 10.51884-9.02436 10.538-9.100999999999999 10.538-9.15848 10.55716-9.46504T10.59548-9.9632Q10.59548-10.61464 10.42304-11.09364T10.07816-11.80256 9.59916-12.28156Q8.9094-12.68392 8.02804-12.68392 6.93592-12.68392 5.99708-11.80256T5.03908-9.7716Q5.03908-9.1968 5.32648-8.77528T6.11204-8.18132Q6.18868-8.143 7.45324-7.81728T8.73696-7.4724Q9.3884-7.26164 10.00152-6.55272T10.61464-4.63672Q10.61464-4.13856 10.461359999999999-3.56376 10.36556-3.14224 10.11648-2.62492T9.42672-1.49448 8.16216-0.34488 6.36112 0.3832Q6.1312 0.42152 5.70968 0.42152 3.81284 0.42152 2.75904-0.63228L2.56744-0.84304 2.03096-0.24908Q1.59028 0.26824 1.49448 0.34488T1.2454 0.42152Q0.99632 0.42152 0.99632 0.26824 0.99632 0.21076 2.1076-4.23436 2.14592-4.34932 2.4908-4.34932H2.73988Q2.85484-4.23436 2.85484-4.13856 2.85484-4.10024 2.83568-3.96612T2.75904-3.56376 2.72072-2.93148Q2.75904-2.18424 3.0656-1.66692T3.88948-0.90052 4.8858-0.55564 5.90128-0.45984Z"
        fill-opacity="1"
      ></path>
    </svg>
  </g>
  <g style="solid">
    <marker
      id="`UTS`.PQ-leftArrowhead"
      markerUnits="strokeWidth"
      markerWidth="9.95"
      markerHeight="8.12"
      viewBox="0 0 9.95 8.12"
      refX="2.36"
      refY="4.06"
      orient="auto-start-reverse"
    >
      <path
        d="M9.95 4.06 0 8.12 2.36 4.06 0 0 9.95 4.06z"
        fill="#000000"
        fill-opacity="1"
      ></path>
    </marker>
    <marker
      id="`UTS`.PQ-rightArrowhead"
      markerUnits="strokeWidth"
      markerWidth="9.95"
      markerHeight="8.12"
      viewBox="0 0 9.95 8.12"
      refX="2.36"
      refY="4.06"
      orient="auto-start-reverse"
    >
      <path
        d="M9.95 4.06 0 8.12 2.36 4.06 0 0 9.95 4.06z"
        fill="#000000"
        fill-opacity="1"
      ></path>
    </marker>
    <path
      d="M 321.04498084497055 427.6166001315121 L 374.98947648271496 509.9533974362144"
      stroke-opacity="1"
      stroke-width="1.75"
      stroke="#000000"
      stroke-linecap="butt"
    ></path>
    <title>`UTS`.PQ</title>
  </g>
  <g style="solid">
    <marker
      id="`UTS`.RP-leftArrowhead"
      markerUnits="strokeWidth"
      markerWidth="9.95"
      markerHeight="8.12"
      viewBox="0 0 9.95 8.12"
      refX="2.36"
      refY="4.06"
      orient="auto-start-reverse"
    >
      <path
        d="M9.95 4.06 0 8.12 2.36 4.06 0 0 9.95 4.06z"
        fill="#000000"
        fill-opacity="1"
      ></path>
    </marker>
    <marker
      id="`UTS`.RP-rightArrowhead"
      markerUnits="strokeWidth"
      markerWidth="9.95"
      markerHeight="8.12"
      viewBox="0 0 9.95 8.12"
      refX="2.36"
      refY="4.06"
      orient="auto-start-reverse"
    >
      <path
        d="M9.95 4.06 0 8.12 2.36 4.06 0 0 9.95 4.06z"
        fill="#000000"
        fill-opacity="1"
      ></path>
    </marker>
    <path
      d="M 261.7901026633498 506.218138683403 L 321.04498084497055 427.6166001315121"
      stroke-opacity="1"
      stroke-width="1.75"
      stroke="#000000"
      stroke-linecap="butt"
    ></path>
    <title>`UTS`.RP</title>
  </g>
  <g style="solid">
    <marker
      id="`US`.icon-leftArrowhead"
      markerUnits="strokeWidth"
      markerWidth="9.95"
      markerHeight="8.12"
      viewBox="0 0 9.95 8.12"
      refX="2.36"
      refY="4.06"
      orient="auto-start-reverse"
    >
      <path
        d="M9.95 4.06 0 8.12 2.36 4.06 0 0 9.95 4.06z"
        fill="#000000"
        fill-opacity="1"
      ></path>
    </marker>
    <marker
      id="`US`.icon-rightArrowhead"
      markerUnits="strokeWidth"
      markerWidth="9.95"
      markerHeight="8.12"
      viewBox="0 0 9.95 8.12"
      refX="2.36"
      refY="4.06"
      orient="auto-start-reverse"
    >
      <path
        d="M9.95 4.06 0 8.12 2.36 4.06 0 0 9.95 4.06z"
        fill="#000000"
        fill-opacity="1"
      ></path>
    </marker>
    <path
      d="M 321.04498084497055 427.6166001315121 L 261.7901026633498 506.218138683403"
      stroke-opacity="1"
      stroke-width="1.75"
      stroke="#000000"
      stroke-linecap="butt"
    ></path>
    <title>`US`.icon</title>
  </g>
  <g style="solid">
    <marker
      id="`UT`.icon-leftArrowhead"
      markerUnits="strokeWidth"
      markerWidth="9.95"
      markerHeight="8.12"
      viewBox="0 0 9.95 8.12"
      refX="2.36"
      refY="4.06"
      orient="auto-start-reverse"
    >
      <path
        d="M9.95 4.06 0 8.12 2.36 4.06 0 0 9.95 4.06z"
        fill="#000000"
        fill-opacity="1"
      ></path>
    </marker>
    <marker
      id="`UT`.icon-rightArrowhead"
      markerUnits="strokeWidth"
      markerWidth="9.95"
      markerHeight="8.12"
      viewBox="0 0 9.95 8.12"
      refX="2.36"
      refY="4.06"
      orient="auto-start-reverse"
    >
      <path
        d="M9.95 4.06 0 8.12 2.36 4.06 0 0 9.95 4.06z"
        fill="#000000"
        fill-opacity="1"
      ></path>
    </marker>
    <path
      d="M 321.04498084497055 427.6166001315121 L 374.98947648271496 509.9533974362144"
      stroke-opacity="1"
      stroke-width="1.75"
      stroke="#000000"
      stroke-linecap="butt"
    ></path>
    <title>`UT`.icon</title>
  </g>
  <g style="solid">
    <marker
      id="`UTV`.PQ-leftArrowhead"
      markerUnits="strokeWidth"
      markerWidth="9.95"
      markerHeight="8.12"
      viewBox="0 0 9.95 8.12"
      refX="2.36"
      refY="4.06"
      orient="auto-start-reverse"
    >
      <path
        d="M9.95 4.06 0 8.12 2.36 4.06 0 0 9.95 4.06z"
        fill="#000000"
        fill-opacity="1"
      ></path>
    </marker>
    <marker
      id="`UTV`.PQ-rightArrowhead"
      markerUnits="strokeWidth"
      markerWidth="9.95"
      markerHeight="8.12"
      viewBox="0 0 9.95 8.12"
      refX="2.36"
      refY="4.06"
      orient="auto-start-reverse"
    >
      <path
        d="M9.95 4.06 0 8.12 2.36 4.06 0 0 9.95 4.06z"
        fill="#000000"
        fill-opacity="1"
      ></path>
    </marker>
    <path
      d="M 321.04498084497055 427.6166001315121 L 374.98947648271496 509.9533974362144"
      stroke-opacity="1"
      stroke-width="1.75"
      stroke="#000000"
      stroke-linecap="butt"
    ></path>
    <title>`UTV`.PQ</title>
  </g>
  <g style="solid">
    <marker
      id="`UTV`.RP-leftArrowhead"
      markerUnits="strokeWidth"
      markerWidth="9.95"
      markerHeight="8.12"
      viewBox="0 0 9.95 8.12"
      refX="2.36"
      refY="4.06"
      orient="auto-start-reverse"
    >
      <path
        d="M9.95 4.06 0 8.12 2.36 4.06 0 0 9.95 4.06z"
        fill="#000000"
        fill-opacity="1"
      ></path>
    </marker>
    <marker
      id="`UTV`.RP-rightArrowhead"
      markerUnits="strokeWidth"
      markerWidth="9.95"
      markerHeight="8.12"
      viewBox="0 0 9.95 8.12"
      refX="2.36"
      refY="4.06"
      orient="auto-start-reverse"
    >
      <path
        d="M9.95 4.06 0 8.12 2.36 4.06 0 0 9.95 4.06z"
        fill="#000000"
        fill-opacity="1"
      ></path>
    </marker>
    <path
      d="M 419.3229055862356 422.0676382361022 L 321.04498084497055 427.6166001315121"
      stroke-opacity="1"
      stroke-width="1.75"
      stroke="#000000"
      stroke-linecap="butt"
    ></path>
    <title>`UTV`.RP</title>
  </g>
  <g style="solid">
    <marker
      id="`UV`.icon-leftArrowhead"
      markerUnits="strokeWidth"
      markerWidth="9.95"
      markerHeight="8.12"
      viewBox="0 0 9.95 8.12"
      refX="2.36"
      refY="4.06"
      orient="auto-start-reverse"
    >
      <path
        d="M9.95 4.06 0 8.12 2.36 4.06 0 0 9.95 4.06z"
        fill="#000000"
        fill-opacity="1"
      ></path>
    </marker>
    <marker
      id="`UV`.icon-rightArrowhead"
      markerUnits="strokeWidth"
      markerWidth="9.95"
      markerHeight="8.12"
      viewBox="0 0 9.95 8.12"
      refX="2.36"
      refY="4.06"
      orient="auto-start-reverse"
    >
      <path
        d="M9.95 4.06 0 8.12 2.36 4.06 0 0 9.95 4.06z"
        fill="#000000"
        fill-opacity="1"
      ></path>
    </marker>
    <path
      d="M 321.04498084497055 427.6166001315121 L 419.3229055862356 422.0676382361022"
      stroke-opacity="1"
      stroke-width="1.75"
      stroke="#000000"
      stroke-linecap="butt"
    ></path>
    <title>`UV`.icon</title>
  </g>
  <circle
    fill="#000000"
    fill-opacity="1"
    cx="321.04498084497055"
    cy="427.6166001315121"
    stroke="#000000"
    stroke-opacity="1"
    stroke-width="0"
    stroke-linecap="butt"
    r="4"
  >
    <title>`U`.icon</title>
  </circle>
  <g style="solid">
    <marker
      id="`UTS`.QR-leftArrowhead"
      markerUnits="strokeWidth"
      markerWidth="9.95"
      markerHeight="8.12"
      viewBox="0 0 9.95 8.12"
      refX="2.36"
      refY="4.06"
      orient="auto-start-reverse"
    >
      <path
        d="M9.95 4.06 0 8.12 2.36 4.06 0 0 9.95 4.06z"
        fill="#000000"
        fill-opacity="1"
      ></path>
    </marker>
    <marker
      id="`UTS`.QR-rightArrowhead"
      markerUnits="strokeWidth"
      markerWidth="9.95"
      markerHeight="8.12"
      viewBox="0 0 9.95 8.12"
      refX="2.36"
      refY="4.06"
      orient="auto-start-reverse"
    >
      <path
        d="M9.95 4.06 0 8.12 2.36 4.06 0 0 9.95 4.06z"
        fill="#000000"
        fill-opacity="1"
      ></path>
    </marker>
    <path
      d="M 374.98947648271496 509.9533974362144 L 261.7901026633498 506.218138683403"
      stroke-opacity="1"
      stroke-width="1.75"
      stroke="#000000"
      stroke-linecap="butt"
    ></path>
    <title>`UTS`.QR</title>
  </g>
  <g style="solid">
    <marker
      id="`ST`.icon-leftArrowhead"
      markerUnits="strokeWidth"
      markerWidth="9.95"
      markerHeight="8.12"
      viewBox="0 0 9.95 8.12"
      refX="2.36"
      refY="4.06"
      orient="auto-start-reverse"
    >
      <path
        d="M9.95 4.06 0 8.12 2.36 4.06 0 0 9.95 4.06z"
        fill="#000000"
        fill-opacity="1"
      ></path>
    </marker>
    <marker
      id="`ST`.icon-rightArrowhead"
      markerUnits="strokeWidth"
      markerWidth="9.95"
      markerHeight="8.12"
      viewBox="0 0 9.95 8.12"
      refX="2.36"
      refY="4.06"
      orient="auto-start-reverse"
    >
      <path
        d="M9.95 4.06 0 8.12 2.36 4.06 0 0 9.95 4.06z"
        fill="#000000"
        fill-opacity="1"
      ></path>
    </marker>
    <path
      d="M 261.7901026633498 506.218138683403 L 374.98947648271496 509.9533974362144"
      stroke-opacity="1"
      stroke-width="1.75"
      stroke="#000000"
      stroke-linecap="butt"
    ></path>
    <title>`ST`.icon</title>
  </g>
  <g style="solid">
    <marker
      id="`UTV`.QR-leftArrowhead"
      markerUnits="strokeWidth"
      markerWidth="9.95"
      markerHeight="8.12"
      viewBox="0 0 9.95 8.12"
      refX="2.36"
      refY="4.06"
      orient="auto-start-reverse"
    >
      <path
        d="M9.95 4.06 0 8.12 2.36 4.06 0 0 9.95 4.06z"
        fill="#000000"
        fill-opacity="1"
      ></path>
    </marker>
    <marker
      id="`UTV`.QR-rightArrowhead"
      markerUnits="strokeWidth"
      markerWidth="9.95"
      markerHeight="8.12"
      viewBox="0 0 9.95 8.12"
      refX="2.36"
      refY="4.06"
      orient="auto-start-reverse"
    >
      <path
        d="M9.95 4.06 0 8.12 2.36 4.06 0 0 9.95 4.06z"
        fill="#000000"
        fill-opacity="1"
      ></path>
    </marker>
    <path
      d="M 374.98947648271496 509.9533974362144 L 419.3229055862356 422.0676382361022"
      stroke-opacity="1"
      stroke-width="1.75"
      stroke="#000000"
      stroke-linecap="butt"
    ></path>
    <title>`UTV`.QR</title>
  </g>
  <g style="solid">
    <marker
      id="`VT`.icon-leftArrowhead"
      markerUnits="strokeWidth"
      markerWidth="9.95"
      markerHeight="8.12"
      viewBox="0 0 9.95 8.12"
      refX="2.36"
      refY="4.06"
      orient="auto-start-reverse"
    >
      <path
        d="M9.95 4.06 0 8.12 2.36 4.06 0 0 9.95 4.06z"
        fill="#000000"
        fill-opacity="1"
      ></path>
    </marker>
    <marker
      id="`VT`.icon-rightArrowhead"
      markerUnits="strokeWidth"
      markerWidth="9.95"
      markerHeight="8.12"
      viewBox="0 0 9.95 8.12"
      refX="2.36"
      refY="4.06"
      orient="auto-start-reverse"
    >
      <path
        d="M9.95 4.06 0 8.12 2.36 4.06 0 0 9.95 4.06z"
        fill="#000000"
        fill-opacity="1"
      ></path>
    </marker>
    <path
      d="M 419.3229055862356 422.0676382361022 L 374.98947648271496 509.9533974362144"
      stroke-opacity="1"
      stroke-width="1.75"
      stroke="#000000"
      stroke-linecap="butt"
    ></path>
    <title>`VT`.icon</title>
  </g>
  <circle
    fill="#000000"
    fill-opacity="1"
    cx="374.98947648271496"
    cy="509.9533974362144"
    stroke="#000000"
    stroke-opacity="1"
    stroke-width="0"
    stroke-linecap="butt"
    r="4"
  >
    <title>`T`.icon</title>
  </circle>
  <circle
    fill="#000000"
    fill-opacity="1"
    cx="261.7901026633498"
    cy="506.218138683403"
    stroke="#000000"
    stroke-opacity="1"
    stroke-width="0"
    stroke-linecap="butt"
    r="4"
  >
    <title>`S`.icon</title>
  </circle>
  <g style="solid">
    <marker
      id="`XYZ`.PQ-leftArrowhead"
      markerUnits="strokeWidth"
      markerWidth="9.95"
      markerHeight="8.12"
      viewBox="0 0 9.95 8.12"
      refX="2.36"
      refY="4.06"
      orient="auto-start-reverse"
    >
      <path
        d="M9.95 4.06 0 8.12 2.36 4.06 0 0 9.95 4.06z"
        fill="#000000"
        fill-opacity="1"
      ></path>
    </marker>
    <marker
      id="`XYZ`.PQ-rightArrowhead"
      markerUnits="strokeWidth"
      markerWidth="9.95"
      markerHeight="8.12"
      viewBox="0 0 9.95 8.12"
      refX="2.36"
      refY="4.06"
      orient="auto-start-reverse"
    >
      <path
        d="M9.95 4.06 0 8.12 2.36 4.06 0 0 9.95 4.06z"
        fill="#000000"
        fill-opacity="1"
      ></path>
    </marker>
    <path
      d="M 357.90490129417805 552.4109921341905 L 259.53851497775804 496.26737815351305"
      stroke-opacity="1"
      stroke-width="1.75"
      stroke="#000000"
      stroke-linecap="butt"
    ></path>
    <title>`XYZ`.PQ</title>
  </g>
  <g style="solid">
    <marker
      id="`XYZ`.QR-leftArrowhead"
      markerUnits="strokeWidth"
      markerWidth="9.95"
      markerHeight="8.12"
      viewBox="0 0 9.95 8.12"
      refX="2.36"
      refY="4.06"
      orient="auto-start-reverse"
    >
      <path
        d="M9.95 4.06 0 8.12 2.36 4.06 0 0 9.95 4.06z"
        fill="#000000"
        fill-opacity="1"
      ></path>
    </marker>
    <marker
      id="`XYZ`.QR-rightArrowhead"
      markerUnits="strokeWidth"
      markerWidth="9.95"
      markerHeight="8.12"
      viewBox="0 0 9.95 8.12"
      refX="2.36"
      refY="4.06"
      orient="auto-start-reverse"
    >
      <path
        d="M9.95 4.06 0 8.12 2.36 4.06 0 0 9.95 4.06z"
        fill="#000000"
        fill-opacity="1"
      ></path>
    </marker>
    <path
      d="M 259.53851497775804 496.26737815351305 L 348.63210822593817 454.4142762870764"
      stroke-opacity="1"
      stroke-width="1.75"
      stroke="#000000"
      stroke-linecap="butt"
    ></path>
    <title>`XYZ`.QR</title>
  </g>
  <g style="solid">
    <marker
      id="`ZY`.icon-leftArrowhead"
      markerUnits="strokeWidth"
      markerWidth="9.95"
      markerHeight="8.12"
      viewBox="0 0 9.95 8.12"
      refX="2.36"
      refY="4.06"
      orient="auto-start-reverse"
    >
      <path
        d="M9.95 4.06 0 8.12 2.36 4.06 0 0 9.95 4.06z"
        fill="#000000"
        fill-opacity="1"
      ></path>
    </marker>
    <marker
      id="`ZY`.icon-rightArrowhead"
      markerUnits="strokeWidth"
      markerWidth="9.95"
      markerHeight="8.12"
      viewBox="0 0 9.95 8.12"
      refX="2.36"
      refY="4.06"
      orient="auto-start-reverse"
    >
      <path
        d="M9.95 4.06 0 8.12 2.36 4.06 0 0 9.95 4.06z"
        fill="#000000"
        fill-opacity="1"
      ></path>
    </marker>
    <path
      d="M 348.63210822593817 454.4142762870764 L 259.53851497775804 496.26737815351305"
      stroke-opacity="1"
      stroke-width="1.75"
      stroke="#000000"
      stroke-linecap="butt"
    ></path>
    <title>`ZY`.icon</title>
  </g>
  <g style="solid">
    <marker
      id="`XY`.icon-leftArrowhead"
      markerUnits="strokeWidth"
      markerWidth="9.95"
      markerHeight="8.12"
      viewBox="0 0 9.95 8.12"
      refX="2.36"
      refY="4.06"
      orient="auto-start-reverse"
    >
      <path
        d="M9.95 4.06 0 8.12 2.36 4.06 0 0 9.95 4.06z"
        fill="#000000"
        fill-opacity="1"
      ></path>
    </marker>
    <marker
      id="`XY`.icon-rightArrowhead"
      markerUnits="strokeWidth"
      markerWidth="9.95"
      markerHeight="8.12"
      viewBox="0 0 9.95 8.12"
      refX="2.36"
      refY="4.06"
      orient="auto-start-reverse"
    >
      <path
        d="M9.95 4.06 0 8.12 2.36 4.06 0 0 9.95 4.06z"
        fill="#000000"
        fill-opacity="1"
      ></path>
    </marker>
    <path
      d="M 357.90490129417805 552.4109921341905 L 259.53851497775804 496.26737815351305"
      stroke-opacity="1"
      stroke-width="1.75"
      stroke="#000000"
      stroke-linecap="butt"
    ></path>
    <title>`XY`.icon</title>
  </g>
  <circle
    fill="#000000"
    fill-opacity="1"
    cx="259.53851497775804"
    cy="496.26737815351305"
    stroke="#000000"
    stroke-opacity="1"
    stroke-width="0"
    stroke-linecap="butt"
    r="4"
  >
    <title>`Y`.icon</title>
  </circle>
  <g style="solid">
    <marker
      id="`XYZ`.RP-leftArrowhead"
      markerUnits="strokeWidth"
      markerWidth="9.95"
      markerHeight="8.12"
      viewBox="0 0 9.95 8.12"
      refX="2.36"
      refY="4.06"
      orient="auto-start-reverse"
    >
      <path
        d="M9.95 4.06 0 8.12 2.36 4.06 0 0 9.95 4.06z"
        fill="#000000"
        fill-opacity="1"
      ></path>
    </marker>
    <marker
      id="`XYZ`.RP-rightArrowhead"
      markerUnits="strokeWidth"
      markerWidth="9.95"
      markerHeight="8.12"
      viewBox="0 0 9.95 8.12"
      refX="2.36"
      refY="4.06"
      orient="auto-start-reverse"
    >
      <path
        d="M9.95 4.06 0 8.12 2.36 4.06 0 0 9.95 4.06z"
        fill="#000000"
        fill-opacity="1"
      ></path>
    </marker>
    <path
      d="M 348.63210822593817 454.4142762870764 L 357.90490129417805 552.4109921341905"
      stroke-opacity="1"
      stroke-width="1.75"
      stroke="#000000"
      stroke-linecap="butt"
    ></path>
    <title>`XYZ`.RP</title>
  </g>
  <g style="solid">
    <marker
      id="`XZ`.icon-leftArrowhead"
      markerUnits="strokeWidth"
      markerWidth="9.95"
      markerHeight="8.12"
      viewBox="0 0 9.95 8.12"
      refX="2.36"
      refY="4.06"
      orient="auto-start-reverse"
    >
      <path
        d="M9.95 4.06 0 8.12 2.36 4.06 0 0 9.95 4.06z"
        fill="#000000"
        fill-opacity="1"
      ></path>
    </marker>
    <marker
      id="`XZ`.icon-rightArrowhead"
      markerUnits="strokeWidth"
      markerWidth="9.95"
      markerHeight="8.12"
      viewBox="0 0 9.95 8.12"
      refX="2.36"
      refY="4.06"
      orient="auto-start-reverse"
    >
      <path
        d="M9.95 4.06 0 8.12 2.36 4.06 0 0 9.95 4.06z"
        fill="#000000"
        fill-opacity="1"
      ></path>
    </marker>
    <path
      d="M 357.90490129417805 552.4109921341905 L 348.63210822593817 454.4142762870764"
      stroke-opacity="1"
      stroke-width="1.75"
      stroke="#000000"
      stroke-linecap="butt"
    ></path>
    <title>`XZ`.icon</title>
  </g>
  <circle
    fill="#000000"
    fill-opacity="1"
    cx="348.63210822593817"
    cy="454.4142762870764"
    stroke="#000000"
    stroke-opacity="1"
    stroke-width="0"
    stroke-linecap="butt"
    r="4"
  >
    <title>`Z`.icon</title>
  </circle>
  <circle
    fill="#000000"
    fill-opacity="1"
    cx="357.90490129417805"
    cy="552.4109921341905"
    stroke="#000000"
    stroke-opacity="1"
    stroke-width="0"
    stroke-linecap="butt"
    r="4"
  >
    <title>`X`.icon</title>
  </circle>
  <g
    transform="rotate(0, 362.6321910236716, 452.21682357354484)translate(362.6321910236716, 452.21682357354484)"
    string="Z"
  >
    <title>`Z`.text</title>
    <svg
      xmlns="http://www.w3.org/2000/svg"
      width="13.85268"
      height="19.16"
      role="img"
      focusable="false"
      viewBox="1.11128 -13.08628 12.741399999999999 13.08628"
    >
      <path
        stroke="none"
        fill="#000000"
        stroke-width="0"
        d="M1.11128-0.15328Q1.11128-0.44068 1.22624-0.6706 1.22624-0.68976 6.30364-6.39944T11.41936-12.1666L11.22776-12.20492Q11.017-12.20492 9.80992-12.20492H9.58 9.12016Q8.46872-12.20492 8.0472-12.1666T6.9934-11.95584 5.95876-11.45768 5.09656-10.49968 4.36848-8.98604Q4.34932-8.92856 4.33016-8.87108T4.29184-8.77528 4.27268-8.67948 4.25352-8.622L4.23436-8.58368Q4.17688-8.48788 3.87032-8.48788 3.5446-8.48788 3.48712-8.67948L4.10024-10.74876Q4.36848-11.61096 4.61756-12.47316 4.77084-13.00964 4.84748-13.04796 4.90496-13.08628 9.33092-13.08628H13.75688Q13.85268-12.99048 13.85268-12.933 13.85268-12.89468 13.73772-12.43484 3.62124-1.03464 3.60208-0.99632L3.5446-0.93884H5.24984Q7.07004-0.958 7.22332-0.97716 8.66032-1.1496 9.58-1.916T11.09364-4.73252Q11.24692-5.21152 11.3044-5.30732T11.55348-5.40312H11.63012Q12.03248-5.40312 12.03248-5.19236 10.48052-0.0958 10.36556-0.03832 10.30808 0 5.748 0H2.37584Q1.11128 0 1.11128-0.15328Z"
        fill-opacity="1"
      ></path>
    </svg>
  </g>
  <g>
    <filter id="`XYZ`.icon-shadow" x="0" y="0" width="200%" height="200%">
      <feOffset result="offOut" in="SourceAlpha" dx="5" dy="5"></feOffset>
      <feGaussianBlur
        result="blurOut"
        in="offOut"
        stdDeviation="4"
      ></feGaussianBlur>
      <feBlend in="SourceGraphic" in2="blurOut" mode="normal"></feBlend>
      <feComponentTransfer>
        <feFuncA type="linear" slope="0.5"></feFuncA>
      </feComponentTransfer>
      <feMerge>
        <feMergeNode></feMergeNode>
        <feMergeNode in="SourceGraphic"></feMergeNode>
      </feMerge>
    </filter>
    <path
      stroke="#704e8b"
      fill="none"
      stroke-width="1"
      stroke-opacity="0.5"
      d="M 357.90490129417805 552.4109921341905 L 259.53851497775804 496.26737815351305 L 348.63210822593817 454.4142762870764 Z "
    ></path>
    <title>`XYZ`.icon</title>
  </g>
  <g
    transform="rotate(0, 359.543514317052, 566.3147776415863)translate(359.543514317052, 566.3147776415863)"
    string="X"
  >
    <title>`X`.text</title>
    <svg
      xmlns="http://www.w3.org/2000/svg"
      width="16.32432"
      height="19.16"
      role="img"
      focusable="false"
      viewBox="0.49816 -13.08628 15.82616 13.08628"
    >
      <path
        stroke="none"
        fill="#000000"
        stroke-width="0"
        d="M0.80472 0H0.7664Q0.49816 0 0.49816-0.21076 0.49816-0.2874 0.55564-0.51732 0.63228-0.78556 0.68976-0.82388T1.0538-0.88136Q2.70156-0.93884 3.6404-1.87768 3.832-2.06928 5.86296-4.29184T7.87476-6.55272Q5.78632-11.879199999999999 5.69052-11.975 5.51808-12.18576 4.48344-12.20492H3.94696Q3.832-12.31988 3.832-12.3582T3.87032-12.72224Q3.94696-12.97132 4.06192-13.08628H4.33016Q4.9816-13.04796 6.6485199999999995-13.04796 7.2808-13.04796 7.81728-13.04796T8.67948-13.06712 9.06268-13.06712Q9.3884-13.06712 9.3884-12.85636 9.3884-12.8372 9.35008-12.60728 9.27344-12.31988 9.21596-12.2624T8.9094-12.20492Q8.31544-12.14744 7.87476-11.879199999999999L9.35008-8.16216 10.36556-9.2926Q12.37736-11.45768 12.37736-11.6876 12.37736-12.03248 11.91752-12.1666 11.82172-12.1666 11.66844-12.20492 11.38104-12.20492 11.38104-12.41568 11.38104-12.454 11.41936-12.72224 11.496-12.97132 11.61096-13.08628H11.84088Q11.86004-13.08628 12.31988-13.08628T13.35452-13.04796 14.14008-13.0288Q15.86448-13.0288 16.03692-13.08628H16.1902Q16.32432-12.95216 16.32432-12.87552 16.286-12.39652 16.0944-12.20492H15.78784Q15.1364-12.18576 14.61908-12.03248T13.83352-11.70676 13.37368-11.36188L13.16292-11.18944Q13.16292-11.2086 11.34272-9.1968L9.6758-7.35744Q9.6758-7.33828 10.26976-5.82464T11.51516-2.72072 12.22408-1.07296Q12.41568-0.90052 13.39284-0.88136 14.06344-0.88136 14.06344-0.70892 14.06344-0.6706 14.02512-0.44068 13.94848-0.13412 13.891-0.07664T13.62276-0.01916Q13.56528-0.01916 12.99048-0.01916T11.28524-0.03832Q10.11648-0.03832 9.50336-0.03832T8.83276-0.01916Q8.50704-0.01916 8.50704-0.1916 8.50704-0.21076 8.54536-0.479 8.58368-0.6706 8.622-0.74724T8.7178-0.84304 8.89024-0.88136 9.1968-0.90052 9.69496-1.03464Q10.02068-1.18792 10.02068-1.22624 10.00152-1.22624 9.12016-3.46796L8.21964-5.72884Q4.61756-1.8202 4.52176-1.60944 4.44512-1.45616 4.44512-1.37952 4.44512-1.01548 5.00076-0.90052 5.01992-0.90052 5.11572-0.90052T5.2306799999999996-0.88136Q5.28816-0.88136 5.30732-0.88136T5.3648-0.8622 5.42228-0.80472 5.44144-0.6706Q5.44144-0.49816 5.40312-0.36404 5.34564-0.11496 5.28816-0.07664T5.00076-0.01916Q4.94328-0.01916 4.65588-0.01916T3.85116-0.03832 2.72072-0.03832Q1.22624-0.03832 0.80472 0Z"
        fill-opacity="1"
      ></path>
    </svg>
  </g>
  <g
    transform="rotate(0, 232.08059001203213, 471.52476966407437)translate(232.08059001203213, 471.52476966407437)"
    string="Y"
  >
    <title>`Y`.text</title>
    <svg
      xmlns="http://www.w3.org/2000/svg"
      width="14.61908"
      height="19.16"
      role="img"
      focusable="false"
      viewBox="0.5748 -13.08628 14.04428 13.067120000000001"
    >
      <path
        stroke="none"
        fill="#000000"
        stroke-width="0"
        d="M1.26456-12.20492Q1.03464-12.20492 0.93884-12.20492T0.74724-12.22408 0.61312-12.28156 0.5748-12.39652 0.63228-12.72224 0.80472-13.06712Q0.84304-13.08628 1.07296-13.08628 1.99264-13.0288 3.1614-13.0288 5.51808-13.0288 5.86296-13.08628H6.05456Q6.16952-12.97132 6.16952-12.91384T6.1312-12.56896Q6.05456-12.31988 5.9395999999999995-12.20492H5.70968Q4.63672-12.20492 4.63672-11.95584 4.63672-11.86004 5.59472-9.13932T6.57188-6.38028L6.62936-6.43776Q6.706-6.5144 6.85928-6.68684T7.26164-7.14668 7.87476-7.8556 8.69864-8.83276Q10.461359999999999-10.88288 10.74876-11.24692T11.05532-11.84088Q11.05532-12.14744 10.4422-12.20492 10.11648-12.20492 10.11648-12.39652 10.11648-12.43484 10.1548-12.66476 10.21228-12.95216 10.2506-13.00964T10.51884-13.08628Q10.55716-13.08628 11.07448-13.06712T12.58812-13.0288Q13.10544-13.0288 13.66108-13.04796T14.29336-13.06712Q14.61908-13.06712 14.61908-12.89468 14.61908-12.81804 14.5616-12.58812T14.4658-12.31988Q14.42748-12.20492 14.06344-12.20492 12.68392-12.10912 11.82172-11.24692 11.64928-11.07448 9.13932-8.12384L6.66768-5.2306799999999996 6.16952-3.23804Q5.6522-1.18792 5.6522-1.09212 5.6522-0.88136 6.95508-0.88136 7.26164-0.88136 7.35744-0.8622T7.4724-0.6706Q7.4724-0.63228 7.43408-0.44068 7.35744-0.11496 7.31912-0.07664T7.01256-0.01916Q6.91676-0.01916 6.20784-0.01916T4.44512-0.03832Q3.2572-0.03832 2.64408-0.03832T1.95432-0.01916Q1.60944-0.01916 1.60944-0.17244 1.60944-0.26824 1.66692-0.45984 1.68608-0.51732 1.70524-0.5748T1.7244-0.6706 1.74356-0.74724 1.78188-0.80472 1.83936-0.84304 1.93516-0.8622 2.05012-0.8622 2.22256-0.88136 2.47164-0.88136Q3.21888-0.90052 3.4488-0.958T3.79368-1.20708Q3.85116-1.30288 4.34932-3.27636L4.82832-5.24984 2.47164-11.93668Q2.45248-11.95584 2.43332-11.975T2.395-12.01332 2.33752-12.05164 2.26088-12.08996 2.16508-12.12828 2.0118-12.14744 1.83936-12.1666 1.59028-12.18576 1.26456-12.20492Z"
        fill-opacity="1"
      ></path>
    </svg>
  </g>
  <g>
    <filter id="`ZY`.tick-shadow" x="0" y="0" width="200%" height="200%">
      <feOffset result="offOut" in="SourceAlpha" dx="5" dy="5"></feOffset>
      <feGaussianBlur
        result="blurOut"
        in="offOut"
        stdDeviation="4"
      ></feGaussianBlur>
      <feBlend in="SourceGraphic" in2="blurOut" mode="normal"></feBlend>
      <feComponentTransfer>
        <feFuncA type="linear" slope="0.5"></feFuncA>
      </feComponentTransfer>
      <feMerge>
        <feMergeNode></feMergeNode>
        <feMergeNode in="SourceGraphic"></feMergeNode>
      </feMerge>
    </filter>
    <path
      stroke="#000000"
      fill="none"
      stroke-width="2"
      stroke-opacity="1"
      d="M 299.8334387061656 466.2897744328625 L 308.33718449753053 484.3918800077269"
    ></path>
    <title>`ZY`.tick</title>
  </g>
  <g>
    <filter id="`UT`.tick-shadow" x="0" y="0" width="200%" height="200%">
      <feOffset result="offOut" in="SourceAlpha" dx="5" dy="5"></feOffset>
      <feGaussianBlur
        result="blurOut"
        in="offOut"
        stdDeviation="4"
      ></feGaussianBlur>
      <feBlend in="SourceGraphic" in2="blurOut" mode="normal"></feBlend>
      <feComponentTransfer>
        <feFuncA type="linear" slope="0.5"></feFuncA>
      </feComponentTransfer>
      <feMerge>
        <feMergeNode></feMergeNode>
        <feMergeNode in="SourceGraphic"></feMergeNode>
      </feMerge>
    </filter>
    <path
      stroke="#000000"
      fill="none"
      stroke-width="2"
      stroke-opacity="1"
      d="M 339.65260412613867 474.2652392918308 L 356.3818532015468 463.30475827589567"
    ></path>
    <title>`UT`.tick</title>
  </g>
  <g>
    <filter id="`ST`.tick-shadow" x="0" y="0" width="200%" height="200%">
      <feOffset result="offOut" in="SourceAlpha" dx="5" dy="5"></feOffset>
      <feGaussianBlur
        result="blurOut"
        in="offOut"
        stdDeviation="4"
      ></feGaussianBlur>
      <feBlend in="SourceGraphic" in2="blurOut" mode="normal"></feBlend>
      <feComponentTransfer>
        <feFuncA type="linear" slope="0.5"></feFuncA>
      </feComponentTransfer>
      <feMerge>
        <feMergeNode></feMergeNode>
        <feMergeNode in="SourceGraphic"></feMergeNode>
      </feMerge>
    </filter>
    <path
      stroke="#000000"
      fill="none"
      stroke-width="2"
      stroke-opacity="1"
      d="M 318.05999741456117 518.0803275535475 L 318.71958173150364 498.09120856607007"
    ></path>
    <title>`ST`.tick</title>
  </g>
  <g>
    <filter id="`XY`.tick-shadow" x="0" y="0" width="200%" height="200%">
      <feOffset result="offOut" in="SourceAlpha" dx="5" dy="5"></feOffset>
      <feGaussianBlur
        result="blurOut"
        in="offOut"
        stdDeviation="4"
      ></feGaussianBlur>
      <feBlend in="SourceGraphic" in2="blurOut" mode="normal"></feBlend>
      <feComponentTransfer>
        <feFuncA type="linear" slope="0.5"></feFuncA>
      </feComponentTransfer>
      <feMerge>
        <feMergeNode></feMergeNode>
        <feMergeNode in="SourceGraphic"></feMergeNode>
      </feMerge>
    </filter>
    <path
      stroke="#000000"
      fill="none"
      stroke-width="2"
      stroke-opacity="1"
      d="M 313.6787202665672 515.6542549150724 L 303.7646960053688 533.0241153726311"
    ></path>
    <title>`XY`.tick</title>
  </g>
  <g>
    <filter id="`UTV`.icon-shadow" x="0" y="0" width="200%" height="200%">
      <feOffset result="offOut" in="SourceAlpha" dx="5" dy="5"></feOffset>
      <feGaussianBlur
        result="blurOut"
        in="offOut"
        stdDeviation="4"
      ></feGaussianBlur>
      <feBlend in="SourceGraphic" in2="blurOut" mode="normal"></feBlend>
      <feComponentTransfer>
        <feFuncA type="linear" slope="0.5"></feFuncA>
      </feComponentTransfer>
      <feMerge>
        <feMergeNode></feMergeNode>
        <feMergeNode in="SourceGraphic"></feMergeNode>
      </feMerge>
    </filter>
    <path
      stroke="#b625b0"
      fill="none"
      stroke-width="1"
      stroke-opacity="0.5"
      d="M 321.04498084497055 427.6166001315121 L 374.98947648271496 509.9533974362144 L 419.3229055862356 422.0676382361022 Z "
    ></path>
    <title>`UTV`.icon</title>
  </g>
  <circle
    fill="#000000"
    fill-opacity="1"
    cx="419.3229055862356"
    cy="422.0676382361022"
    stroke="#000000"
    stroke-opacity="1"
    stroke-width="0"
    stroke-linecap="butt"
    r="4"
  >
    <title>`V`.icon</title>
  </circle>
  <g>
    <filter id="`XZ`.tick-shadow" x="0" y="0" width="200%" height="200%">
      <feOffset result="offOut" in="SourceAlpha" dx="5" dy="5"></feOffset>
      <feGaussianBlur
        result="blurOut"
        in="offOut"
        stdDeviation="4"
      ></feGaussianBlur>
      <feBlend in="SourceGraphic" in2="blurOut" mode="normal"></feBlend>
      <feComponentTransfer>
        <feFuncA type="linear" slope="0.5"></feFuncA>
      </feComponentTransfer>
      <feMerge>
        <feMergeNode></feMergeNode>
        <feMergeNode in="SourceGraphic"></feMergeNode>
      </feMerge>
    </filter>
    <path
      stroke="#000000"
      fill="none"
      stroke-width="2"
      stroke-opacity="1"
      d="M 363.22403410792106 502.4706070954437 L 343.3129754121951 504.35466132582314 M 361.8109934351365 487.5373130736493 L 341.8999347394106 489.4213673040287 M 364.63707478070563 517.4039011172381 L 344.7260160849797 519.2879553476175"
    ></path>
    <title>`XZ`.tick</title>
  </g>
  <g>
    <filter id="`UV`.tick-shadow" x="0" y="0" width="200%" height="200%">
      <feOffset result="offOut" in="SourceAlpha" dx="5" dy="5"></feOffset>
      <feGaussianBlur
        result="blurOut"
        in="offOut"
        stdDeviation="4"
      ></feGaussianBlur>
      <feBlend in="SourceGraphic" in2="blurOut" mode="normal"></feBlend>
      <feComponentTransfer>
        <feFuncA type="linear" slope="0.5"></feFuncA>
      </feComponentTransfer>
      <feMerge>
        <feMergeNode></feMergeNode>
        <feMergeNode in="SourceGraphic"></feMergeNode>
      </feMerge>
    </filter>
    <path
      stroke="#000000"
      fill="none"
      stroke-width="2"
      stroke-opacity="1"
      d="M 370.7476646751122 434.82621642882646 L 369.6202217560939 414.85802193878783 M 385.7238105426413 433.9806342395627 L 384.5963676236229 414.01243974952405 M 355.7715188075832 435.67179861809024 L 354.6440758885649 415.70360412805155"
    ></path>
    <title>`UV`.tick</title>
  </g>
  <g>
    <filter id="`US`.tick-shadow" x="0" y="0" width="200%" height="200%">
      <feOffset result="offOut" in="SourceAlpha" dx="5" dy="5"></feOffset>
      <feGaussianBlur
        result="blurOut"
        in="offOut"
        stdDeviation="4"
      ></feGaussianBlur>
      <feBlend in="SourceGraphic" in2="blurOut" mode="normal"></feBlend>
      <feComponentTransfer>
        <feFuncA type="linear" slope="0.5"></feFuncA>
      </feComponentTransfer>
      <feMerge>
        <feMergeNode></feMergeNode>
        <feMergeNode in="SourceGraphic"></feMergeNode>
      </feMerge>
    </filter>
    <path
      stroke="#000000"
      fill="none"
      stroke-width="2"
      stroke-opacity="1"
      d="M 278.9175811065265 466.88651392817457 L 294.8879094753859 478.9259711633851 M 287.9471740329344 454.90876765153 L 303.91750240179385 466.94822488674055"
    ></path>
    <title>`US`.tick</title>
  </g>
  <g>
    <filter id="`VT`.tick-shadow" x="0" y="0" width="200%" height="200%">
      <feOffset result="offOut" in="SourceAlpha" dx="5" dy="5"></feOffset>
      <feGaussianBlur
        result="blurOut"
        in="offOut"
        stdDeviation="4"
      ></feGaussianBlur>
      <feBlend in="SourceGraphic" in2="blurOut" mode="normal"></feBlend>
      <feComponentTransfer>
        <feFuncA type="linear" slope="0.5"></feFuncA>
      </feComponentTransfer>
      <feMerge>
        <feMergeNode></feMergeNode>
        <feMergeNode in="SourceGraphic"></feMergeNode>
      </feMerge>
    </filter>
    <path
      stroke="#000000"
      fill="none"
      stroke-width="2"
      stroke-opacity="1"
      d="M 388.2278467761426 461.50666964970367 L 406.0845352928079 470.514366022613"
    ></path>
    <title>`VT`.tick</title>
  </g>
  <g
    transform="rotate(0, 293.5728953294895, 482.67961528747185)translate(293.5728953294895, 482.67961528747185)"
    string="aTUS"
  >
    <title>`aTUS`.text</title>
    <svg
      xmlns="http://www.w3.org/2000/svg"
      width="50.6782"
      height="19.16"
      role="img"
      focusable="false"
      viewBox="0.63228 -13.5078 50.045919999999995 13.929319999999999"
    >
      <path
        stroke="none"
        fill="#000000"
        stroke-width="0"
        d="M0.63228-3.00812Q0.63228-4.94328 2.08844-6.68684T5.3648-8.44956Q6.34196-8.44956 7.0892-7.51072 7.39576-8.08552 7.97056-8.08552 8.21964-8.08552 8.41124-7.93224T8.60284-7.54904Q8.60284-7.29996 7.89392-4.48344T7.16584-1.30288Q7.16584-0.82388 7.29996-0.6706T7.70232-0.49816Q7.87476-0.51732 8.08552-0.6706 8.48788-1.0538 8.87108-2.50996 8.98604-2.89316 9.06268-2.91232 9.100999999999999-2.93148 9.25428-2.93148H9.33092Q9.69496-2.93148 9.69496-2.75904 9.69496-2.64408 9.59916-2.24172T9.21596-1.20708 8.60284-0.24908Q8.35376 0 7.98972 0.15328 7.83644 0.1916 7.52988 0.1916 6.87844 0.1916 6.43776-0.0958T5.86296-0.68976L5.748-0.97716Q5.72884-0.99632 5.67136-0.958 5.63304-0.91968 5.59472-0.88136 4.46428 0.1916 3.29552 0.1916 2.24172 0.1916 1.437-0.5748T0.63228-3.00812ZM6.72516-6.28448Q6.72516-6.39944 6.62936-6.706T6.18868-7.3766 5.30732-7.7598Q4.63672-7.7598 4.0236-7.16584T3.0656-5.61388Q2.50996-4.10024 2.28004-2.47164 2.28004-2.41416 2.28004-2.26088T2.26088-2.03096Q2.26088-1.16876 2.60576-0.84304T3.42964-0.49816Q4.15772-0.49816 4.86664-1.13044T5.70968-2.1076Q5.748-2.18424 6.227-4.15772T6.72516-6.28448ZM10.90204-8.37292Q10.538-8.37292 10.538-8.5262 10.538-8.622 10.84456-9.59916T11.496-11.53432L11.82172-12.47316Q11.91752-12.81804 12.0708-12.97132H21.03768 22.76208Q23.3752-12.97132 23.49016-12.95216T23.62428-12.77972Q23.62428-12.66476 23.29856-10.59548T22.93452-8.50704Q22.93452-8.37292 22.57048-8.37292 22.398039999999998-8.37292 22.34056-8.37292T22.2256-8.46872L22.18728-8.5262Q22.18728-8.64116 22.30224-9.3884T22.4172-10.55716Q22.4172-11.22776 22.16812-11.57264T21.11432-12.05164Q21.01852-12.0708 20.00304-12.08996 19.12168-12.08996 18.89176-12.0708T18.54688-11.91752Q18.52772-11.89836 17.18652-6.57188T15.84532-1.1496Q15.84532-0.91968 17.5314-0.88136 18.14452-0.88136 18.31696-0.8622T18.4894-0.68976Q18.4894-0.59396 18.43192-0.42152 18.35528-0.07664 18.25948-0.01916L18.22116 0Q18.16368 0 18.08704 0 17.99124 0 17.09072-0.01916T14.50412-0.03832Q12.03248-0.03832 11.36188 0H11.07448Q10.95952-0.11496 10.95952-0.17244T10.99784-0.51732Q11.07448-0.7664 11.18944-0.88136H11.72592 11.93668Q13.46948-0.88136 13.75688-1.0538 13.77604-1.07296 13.7952-1.07296 13.891-1.13044 13.9868-1.45616T14.7532-4.46428Q15.07892-5.76716 15.28968-6.59104 16.63088-11.86004 16.63088-11.975 16.63088-12.0708 16.07524-12.0708H15.48128Q14.19756-12.0708 13.7952-11.95584 12.933-11.76424 12.454-11.17028T11.41936-8.94772Q11.28524-8.5262 11.22776-8.44956T10.95952-8.37292H10.90204ZM25.6744-12.20492Q25.02296-12.20492 24.98464-12.28156 24.96548-12.31988 24.96548-12.43484 24.96548-12.89468 25.17624-13.06712 25.21456-13.08628 25.50196-13.08628 26.28752-13.04796 28.10772-13.04796 28.75916-13.04796 29.314799999999998-13.04796T30.177-13.06712 30.5602-13.06712Q30.86676-13.06712 30.86676-12.87552 30.86676-12.8372 30.82844-12.60728 30.73264-12.28156 30.63684-12.22408H30.59852Q30.5602-12.22408 30.50272-12.22408T30.3686-12.22408 30.19616-12.20492 30.02372-12.20492Q29.27648-12.18576 29.06572-12.14744T28.72084-11.93668Q28.70168-11.89836 28.18436-9.92488T27.14972-5.78632 26.57492-3.23804Q26.5366-2.9697999999999998 26.5366-2.6824 26.5366-1.64776 27.13056-1.0538T28.77832-0.45984Q30.06204-0.45984 31.34576-1.32204T33.22344-3.9278L34.2006-7.77896Q35.10112-11.45768 35.10112-11.61096 35.10112-12.12828 33.87488-12.20492 33.41504-12.20492 33.41504-12.41568 33.41504-12.454 33.453359999999996-12.6456 33.53-12.95216 33.56832-13.00964T33.75992-13.08628Q33.8174-13.08628 34.37304-13.06712T35.98248-13.0288Q36.95964-13.0288 37.47696-13.04796T38.0326-13.06712Q38.32-13.06712 38.32-12.87552 38.32-12.454 38.16672-12.30072 38.10924-12.20492 37.7452-12.20492 36.38484-12.12828 36.03996-11.43852 36.00164-11.34272 35.08196-7.74064 34.2964-4.5026 34.12396-3.9278 33.49168-2.0118 31.92056-0.80472T28.66336 0.42152Q26.90064 0.42152 25.84684-0.65144T24.77388-3.19972V-3.50628Q24.77388-3.85116 25.82768-8.06636 26.76652-11.91752 26.76652-12.03248 26.76652-12.1666 25.6744-12.20492ZM44.22128-0.45984Q45.35172-0.45984 46.29056-1.45616T47.24856-3.77452Q47.24856-4.9816 46.25224-5.44144 44.22128-5.95876 43.64648-6.15036T42.84176-6.53356Q41.69216-7.33828 41.69216-8.85192 41.69216-10.02068 42.30528-10.97868T43.55068-12.41568Q44.10632-12.89468 44.89188-13.18208T46.11812-13.48864H46.32888 46.463Q48.30236-13.48864 49.12624-12.2624 49.1454-12.2624 49.37532-12.51148T49.87348-13.06712 50.25668-13.48864Q50.27584-13.48864 50.33332-13.48864T50.42912-13.5078Q50.6782-13.5078 50.6782-13.37368T50.14172-11.05532 49.5286-8.79444 49.22204-8.73696Q48.83884-8.73696 48.83884-8.9094 48.83884-9.02436 48.858-9.100999999999999 48.858-9.15848 48.877159999999996-9.46504T48.91548-9.9632Q48.91548-10.61464 48.74304-11.09364T48.39816-11.80256 47.91916-12.28156Q47.2294-12.68392 46.34804-12.68392 45.25592-12.68392 44.31708-11.80256T43.35908-9.7716Q43.35908-9.1968 43.64648-8.77528T44.43204-8.18132Q44.50868-8.143 45.77324-7.81728T47.05696-7.4724Q47.7084-7.26164 48.32152-6.55272T48.93464-4.63672Q48.93464-4.13856 48.78136-3.56376 48.68556-3.14224 48.43648-2.62492T47.74672-1.49448 46.48216-0.34488 44.68112 0.3832Q44.4512 0.42152 44.02968 0.42152 42.13284 0.42152 41.07904-0.63228L40.88744-0.84304 40.35096-0.24908Q39.91028 0.26824 39.81448 0.34488T39.5654 0.42152Q39.31632 0.42152 39.31632 0.26824 39.31632 0.21076 40.4276-4.23436 40.46592-4.34932 40.8108-4.34932H41.05988Q41.17484-4.23436 41.17484-4.13856 41.17484-4.10024 41.15568-3.96612T41.07904-3.56376 41.04072-2.93148Q41.07904-2.18424 41.3856-1.66692T42.20948-0.90052 43.205799999999996-0.55564 44.22128-0.45984Z"
        fill-opacity="1"
      ></path>
    </svg>
  </g>
  <g>
    <filter id="`aTUS`.mark-shadow" x="0" y="0" width="200%" height="200%">
      <feOffset result="offOut" in="SourceAlpha" dx="5" dy="5"></feOffset>
      <feGaussianBlur
        result="blurOut"
        in="offOut"
        stdDeviation="4"
      ></feGaussianBlur>
      <feBlend in="SourceGraphic" in2="blurOut" mode="normal"></feBlend>
      <feComponentTransfer>
        <feFuncA type="linear" slope="0.5"></feFuncA>
      </feComponentTransfer>
      <feMerge>
        <feMergeNode></feMergeNode>
        <feMergeNode in="SourceGraphic"></feMergeNode>
      </feMerge>
    </filter>
    <path
      stroke="#000000"
      fill="none"
      stroke-width="2"
      stroke-opacity="1"
      d="M 337.4857023688733 452.71047374462427 A 30 30 0 0 1 302.9857949921547 451.5720926848012 M 342.9659426327801 461.0750979098124 A 40 40 0 0 1 296.96606664263663 459.5572565136135 M 348.446182896687 469.4397220750006 A 50 50 0 0 1 290.9463382931185 467.54242034242577"
    ></path>
    <title>`aTUS`.mark</title>
  </g>
  <g style="solid">
    <marker
      id="`aTUS`.side1-leftArrowhead"
      markerUnits="strokeWidth"
      markerWidth="9.95"
      markerHeight="8.12"
      viewBox="0 0 9.95 8.12"
      refX="2.36"
      refY="4.06"
      orient="auto-start-reverse"
    >
      <path
        d="M9.95 4.06 0 8.12 2.36 4.06 0 0 9.95 4.06z"
        fill="#000000"
        fill-opacity="1"
      ></path>
    </marker>
    <marker
      id="`aTUS`.side1-rightArrowhead"
      markerUnits="strokeWidth"
      markerWidth="9.95"
      markerHeight="8.12"
      viewBox="0 0 9.95 8.12"
      refX="2.36"
      refY="4.06"
      orient="auto-start-reverse"
    >
      <path
        d="M9.95 4.06 0 8.12 2.36 4.06 0 0 9.95 4.06z"
        fill="#000000"
        fill-opacity="1"
      ></path>
    </marker>
    <path
      d="M 374.98947648271496 509.9533974362144 L 321.04498084497055 427.6166001315121"
      stroke-opacity="1"
      stroke-width="1.75"
      stroke="#000000"
      stroke-linecap="butt"
    ></path>
    <title>`aTUS`.side1</title>
  </g>
  <g style="solid">
    <marker
      id="`aTUS`.side2-leftArrowhead"
      markerUnits="strokeWidth"
      markerWidth="9.95"
      markerHeight="8.12"
      viewBox="0 0 9.95 8.12"
      refX="2.36"
      refY="4.06"
      orient="auto-start-reverse"
    >
      <path
        d="M9.95 4.06 0 8.12 2.36 4.06 0 0 9.95 4.06z"
        fill="#000000"
        fill-opacity="1"
      ></path>
    </marker>
    <marker
      id="`aTUS`.side2-rightArrowhead"
      markerUnits="strokeWidth"
      markerWidth="9.95"
      markerHeight="8.12"
      viewBox="0 0 9.95 8.12"
      refX="2.36"
      refY="4.06"
      orient="auto-start-reverse"
    >
      <path
        d="M9.95 4.06 0 8.12 2.36 4.06 0 0 9.95 4.06z"
        fill="#000000"
        fill-opacity="1"
      ></path>
    </marker>
    <path
      d="M 321.04498084497055 427.6166001315121 L 261.7901026633498 506.218138683403"
      stroke-opacity="1"
      stroke-width="1.75"
      stroke="#000000"
      stroke-linecap="butt"
    ></path>
    <title>`aTUS`.side2</title>
  </g>
  <g
    transform="rotate(0, 292.14857360001355, 470.7623897623852)translate(292.14857360001355, 470.7623897623852)"
    string="aUTS"
  >
    <title>`aUTS`.text</title>
    <svg
      xmlns="http://www.w3.org/2000/svg"
      width="50.6782"
      height="19.16"
      role="img"
      focusable="false"
      viewBox="0.63228 -13.5078 50.045919999999995 13.929319999999999"
    >
      <path
        stroke="none"
        fill="#000000"
        stroke-width="0"
        d="M0.63228-3.00812Q0.63228-4.94328 2.08844-6.68684T5.3648-8.44956Q6.34196-8.44956 7.0892-7.51072 7.39576-8.08552 7.97056-8.08552 8.21964-8.08552 8.41124-7.93224T8.60284-7.54904Q8.60284-7.29996 7.89392-4.48344T7.16584-1.30288Q7.16584-0.82388 7.29996-0.6706T7.70232-0.49816Q7.87476-0.51732 8.08552-0.6706 8.48788-1.0538 8.87108-2.50996 8.98604-2.89316 9.06268-2.91232 9.100999999999999-2.93148 9.25428-2.93148H9.33092Q9.69496-2.93148 9.69496-2.75904 9.69496-2.64408 9.59916-2.24172T9.21596-1.20708 8.60284-0.24908Q8.35376 0 7.98972 0.15328 7.83644 0.1916 7.52988 0.1916 6.87844 0.1916 6.43776-0.0958T5.86296-0.68976L5.748-0.97716Q5.72884-0.99632 5.67136-0.958 5.63304-0.91968 5.59472-0.88136 4.46428 0.1916 3.29552 0.1916 2.24172 0.1916 1.437-0.5748T0.63228-3.00812ZM6.72516-6.28448Q6.72516-6.39944 6.62936-6.706T6.18868-7.3766 5.30732-7.7598Q4.63672-7.7598 4.0236-7.16584T3.0656-5.61388Q2.50996-4.10024 2.28004-2.47164 2.28004-2.41416 2.28004-2.26088T2.26088-2.03096Q2.26088-1.16876 2.60576-0.84304T3.42964-0.49816Q4.15772-0.49816 4.86664-1.13044T5.70968-2.1076Q5.748-2.18424 6.227-4.15772T6.72516-6.28448ZM12.18576-12.20492Q11.53432-12.20492 11.496-12.28156 11.47684-12.31988 11.47684-12.43484 11.47684-12.89468 11.6876-13.06712 11.72592-13.08628 12.01332-13.08628 12.79888-13.04796 14.61908-13.04796 15.27052-13.04796 15.82616-13.04796T16.68836-13.06712 17.07156-13.06712Q17.37812-13.06712 17.37812-12.87552 17.37812-12.8372 17.3398-12.60728 17.244-12.28156 17.1482-12.22408H17.10988Q17.07156-12.22408 17.01408-12.22408T16.87996-12.22408 16.70752-12.20492 16.53508-12.20492Q15.78784-12.18576 15.57708-12.14744T15.2322-11.93668Q15.21304-11.89836 14.69572-9.92488T13.66108-5.78632 13.08628-3.23804Q13.04796-2.9697999999999998 13.04796-2.6824 13.04796-1.64776 13.64192-1.0538T15.28968-0.45984Q16.5734-0.45984 17.85712-1.32204T19.7348-3.9278L20.71196-7.77896Q21.61248-11.45768 21.61248-11.61096 21.61248-12.12828 20.38624-12.20492 19.9264-12.20492 19.9264-12.41568 19.9264-12.454 19.96472-12.6456 20.04136-12.95216 20.07968-13.00964T20.27128-13.08628Q20.32876-13.08628 20.8844-13.06712T22.49384-13.0288Q23.471-13.0288 23.98832-13.04796T24.54396-13.06712Q24.83136-13.06712 24.83136-12.87552 24.83136-12.454 24.67808-12.30072 24.6206-12.20492 24.25656-12.20492 22.8962-12.12828 22.55132-11.43852 22.513-11.34272 21.59332-7.74064 20.80776-4.5026 20.63532-3.9278 20.00304-2.0118 18.43192-0.80472T15.17472 0.42152Q13.412 0.42152 12.3582-0.65144T11.28524-3.19972V-3.50628Q11.28524-3.85116 12.33904-8.06636 13.27788-11.91752 13.27788-12.03248 13.27788-12.1666 12.18576-12.20492ZM25.59776-8.37292Q25.23372-8.37292 25.23372-8.5262 25.23372-8.622 25.54028-9.59916T26.19172-11.53432L26.51744-12.47316Q26.61324-12.81804 26.76652-12.97132H35.7334 37.4578Q38.07092-12.97132 38.18588-12.95216T38.32-12.77972Q38.32-12.66476 37.99428-10.59548T37.63024-8.50704Q37.63024-8.37292 37.2662-8.37292 37.09376-8.37292 37.03628-8.37292T36.92132-8.46872L36.883-8.5262Q36.883-8.64116 36.99796-9.3884T37.11292-10.55716Q37.11292-11.22776 36.86384-11.57264T35.81004-12.05164Q35.71424-12.0708 34.69876-12.08996 33.8174-12.08996 33.58748-12.0708T33.2426-11.91752Q33.22344-11.89836 31.88224-6.57188T30.54104-1.1496Q30.54104-0.91968 32.22712-0.88136 32.84024-0.88136 33.01268-0.8622T33.18512-0.68976Q33.18512-0.59396 33.12764-0.42152 33.051-0.07664 32.9552-0.01916L32.91688 0Q32.8594 0 32.78276 0 32.68696 0 31.78644-0.01916T29.19984-0.03832Q26.7282-0.03832 26.0576 0H25.7702Q25.65524-0.11496 25.65524-0.17244T25.69356-0.51732Q25.7702-0.7664 25.88516-0.88136H26.42164 26.6324Q28.1652-0.88136 28.4526-1.0538 28.47176-1.07296 28.49092-1.07296 28.58672-1.13044 28.68252-1.45616T29.44892-4.46428Q29.77464-5.76716 29.9854-6.59104 31.3266-11.86004 31.3266-11.975 31.3266-12.0708 30.77096-12.0708H30.177Q28.89328-12.0708 28.49092-11.95584 27.62872-11.76424 27.14972-11.17028T26.11508-8.94772Q25.98096-8.5262 25.92348-8.44956T25.65524-8.37292H25.59776ZM44.22128-0.45984Q45.35172-0.45984 46.29056-1.45616T47.24856-3.77452Q47.24856-4.9816 46.25224-5.44144 44.22128-5.95876 43.64648-6.15036T42.84176-6.53356Q41.69216-7.33828 41.69216-8.85192 41.69216-10.02068 42.30528-10.97868T43.55068-12.41568Q44.10632-12.89468 44.89188-13.18208T46.11812-13.48864H46.32888 46.463Q48.30236-13.48864 49.12624-12.2624 49.1454-12.2624 49.37532-12.51148T49.87348-13.06712 50.25668-13.48864Q50.27584-13.48864 50.33332-13.48864T50.42912-13.5078Q50.6782-13.5078 50.6782-13.37368T50.14172-11.05532 49.5286-8.79444 49.22204-8.73696Q48.83884-8.73696 48.83884-8.9094 48.83884-9.02436 48.858-9.100999999999999 48.858-9.15848 48.877159999999996-9.46504T48.91548-9.9632Q48.91548-10.61464 48.74304-11.09364T48.39816-11.80256 47.91916-12.28156Q47.2294-12.68392 46.34804-12.68392 45.25592-12.68392 44.31708-11.80256T43.35908-9.7716Q43.35908-9.1968 43.64648-8.77528T44.43204-8.18132Q44.50868-8.143 45.77324-7.81728T47.05696-7.4724Q47.7084-7.26164 48.32152-6.55272T48.93464-4.63672Q48.93464-4.13856 48.78136-3.56376 48.68556-3.14224 48.43648-2.62492T47.74672-1.49448 46.48216-0.34488 44.68112 0.3832Q44.4512 0.42152 44.02968 0.42152 42.13284 0.42152 41.07904-0.63228L40.88744-0.84304 40.35096-0.24908Q39.91028 0.26824 39.81448 0.34488T39.5654 0.42152Q39.31632 0.42152 39.31632 0.26824 39.31632 0.21076 40.4276-4.23436 40.46592-4.34932 40.8108-4.34932H41.05988Q41.17484-4.23436 41.17484-4.13856 41.17484-4.10024 41.15568-3.96612T41.07904-3.56376 41.04072-2.93148Q41.07904-2.18424 41.3856-1.66692T42.20948-0.90052 43.205799999999996-0.55564 44.22128-0.45984Z"
        fill-opacity="1"
      ></path>
    </svg>
  </g>
  <g>
    <filter id="`aUTS`.mark-shadow" x="0" y="0" width="200%" height="200%">
      <feOffset result="offOut" in="SourceAlpha" dx="5" dy="5"></feOffset>
      <feGaussianBlur
        result="blurOut"
        in="offOut"
        stdDeviation="4"
      ></feGaussianBlur>
      <feBlend in="SourceGraphic" in2="blurOut" mode="normal"></feBlend>
      <feComponentTransfer>
        <feFuncA type="linear" slope="0.5"></feFuncA>
      </feComponentTransfer>
      <feMerge>
        <feMergeNode></feMergeNode>
        <feMergeNode in="SourceGraphic"></feMergeNode>
      </feMerge>
    </filter>
    <path
      stroke="#000000"
      fill="none"
      stroke-width="2"
      stroke-opacity="1"
      d="M 358.5487549588122 484.8595238231022 A 30 30 0 0 0 345.005798001499 508.96402096080067 M 353.06851469490533 476.49489965791406 A 40 40 0 0 0 335.0112388257133 508.634228812821"
    ></path>
    <title>`aUTS`.mark</title>
  </g>
  <g style="solid">
    <marker
      id="`aUTS`.side1-leftArrowhead"
      markerUnits="strokeWidth"
      markerWidth="9.95"
      markerHeight="8.12"
      viewBox="0 0 9.95 8.12"
      refX="2.36"
      refY="4.06"
      orient="auto-start-reverse"
    >
      <path
        d="M9.95 4.06 0 8.12 2.36 4.06 0 0 9.95 4.06z"
        fill="#000000"
        fill-opacity="1"
      ></path>
    </marker>
    <marker
      id="`aUTS`.side1-rightArrowhead"
      markerUnits="strokeWidth"
      markerWidth="9.95"
      markerHeight="8.12"
      viewBox="0 0 9.95 8.12"
      refX="2.36"
      refY="4.06"
      orient="auto-start-reverse"
    >
      <path
        d="M9.95 4.06 0 8.12 2.36 4.06 0 0 9.95 4.06z"
        fill="#000000"
        fill-opacity="1"
      ></path>
    </marker>
    <path
      d="M 321.04498084497055 427.6166001315121 L 374.98947648271496 509.9533974362144"
      stroke-opacity="1"
      stroke-width="1.75"
      stroke="#000000"
      stroke-linecap="butt"
    ></path>
    <title>`aUTS`.side1</title>
  </g>
  <g style="solid">
    <marker
      id="`aUTS`.side2-leftArrowhead"
      markerUnits="strokeWidth"
      markerWidth="9.95"
      markerHeight="8.12"
      viewBox="0 0 9.95 8.12"
      refX="2.36"
      refY="4.06"
      orient="auto-start-reverse"
    >
      <path
        d="M9.95 4.06 0 8.12 2.36 4.06 0 0 9.95 4.06z"
        fill="#000000"
        fill-opacity="1"
      ></path>
    </marker>
    <marker
      id="`aUTS`.side2-rightArrowhead"
      markerUnits="strokeWidth"
      markerWidth="9.95"
      markerHeight="8.12"
      viewBox="0 0 9.95 8.12"
      refX="2.36"
      refY="4.06"
      orient="auto-start-reverse"
    >
      <path
        d="M9.95 4.06 0 8.12 2.36 4.06 0 0 9.95 4.06z"
        fill="#000000"
        fill-opacity="1"
      ></path>
    </marker>
    <path
      d="M 374.98947648271496 509.9533974362144 L 261.7901026633498 506.218138683403"
      stroke-opacity="1"
      stroke-width="1.75"
      stroke="#000000"
      stroke-linecap="butt"
    ></path>
    <title>`aUTS`.side2</title>
  </g>
  <g
    transform="rotate(0, 295.7797502603649, 470.88219143252456)translate(295.7797502603649, 470.88219143252456)"
    string="aUST"
  >
    <title>`aUST`.text</title>
    <svg
      xmlns="http://www.w3.org/2000/svg"
      width="50.6782"
      height="19.16"
      role="img"
      focusable="false"
      viewBox="0.63228 -13.5078 50.045919999999995 13.929319999999999"
    >
      <path
        stroke="none"
        fill="#000000"
        stroke-width="0"
        d="M0.63228-3.00812Q0.63228-4.94328 2.08844-6.68684T5.3648-8.44956Q6.34196-8.44956 7.0892-7.51072 7.39576-8.08552 7.97056-8.08552 8.21964-8.08552 8.41124-7.93224T8.60284-7.54904Q8.60284-7.29996 7.89392-4.48344T7.16584-1.30288Q7.16584-0.82388 7.29996-0.6706T7.70232-0.49816Q7.87476-0.51732 8.08552-0.6706 8.48788-1.0538 8.87108-2.50996 8.98604-2.89316 9.06268-2.91232 9.100999999999999-2.93148 9.25428-2.93148H9.33092Q9.69496-2.93148 9.69496-2.75904 9.69496-2.64408 9.59916-2.24172T9.21596-1.20708 8.60284-0.24908Q8.35376 0 7.98972 0.15328 7.83644 0.1916 7.52988 0.1916 6.87844 0.1916 6.43776-0.0958T5.86296-0.68976L5.748-0.97716Q5.72884-0.99632 5.67136-0.958 5.63304-0.91968 5.59472-0.88136 4.46428 0.1916 3.29552 0.1916 2.24172 0.1916 1.437-0.5748T0.63228-3.00812ZM6.72516-6.28448Q6.72516-6.39944 6.62936-6.706T6.18868-7.3766 5.30732-7.7598Q4.63672-7.7598 4.0236-7.16584T3.0656-5.61388Q2.50996-4.10024 2.28004-2.47164 2.28004-2.41416 2.28004-2.26088T2.26088-2.03096Q2.26088-1.16876 2.60576-0.84304T3.42964-0.49816Q4.15772-0.49816 4.86664-1.13044T5.70968-2.1076Q5.748-2.18424 6.227-4.15772T6.72516-6.28448ZM12.18576-12.20492Q11.53432-12.20492 11.496-12.28156 11.47684-12.31988 11.47684-12.43484 11.47684-12.89468 11.6876-13.06712 11.72592-13.08628 12.01332-13.08628 12.79888-13.04796 14.61908-13.04796 15.27052-13.04796 15.82616-13.04796T16.68836-13.06712 17.07156-13.06712Q17.37812-13.06712 17.37812-12.87552 17.37812-12.8372 17.3398-12.60728 17.244-12.28156 17.1482-12.22408H17.10988Q17.07156-12.22408 17.01408-12.22408T16.87996-12.22408 16.70752-12.20492 16.53508-12.20492Q15.78784-12.18576 15.57708-12.14744T15.2322-11.93668Q15.21304-11.89836 14.69572-9.92488T13.66108-5.78632 13.08628-3.23804Q13.04796-2.9697999999999998 13.04796-2.6824 13.04796-1.64776 13.64192-1.0538T15.28968-0.45984Q16.5734-0.45984 17.85712-1.32204T19.7348-3.9278L20.71196-7.77896Q21.61248-11.45768 21.61248-11.61096 21.61248-12.12828 20.38624-12.20492 19.9264-12.20492 19.9264-12.41568 19.9264-12.454 19.96472-12.6456 20.04136-12.95216 20.07968-13.00964T20.27128-13.08628Q20.32876-13.08628 20.8844-13.06712T22.49384-13.0288Q23.471-13.0288 23.98832-13.04796T24.54396-13.06712Q24.83136-13.06712 24.83136-12.87552 24.83136-12.454 24.67808-12.30072 24.6206-12.20492 24.25656-12.20492 22.8962-12.12828 22.55132-11.43852 22.513-11.34272 21.59332-7.74064 20.80776-4.5026 20.63532-3.9278 20.00304-2.0118 18.43192-0.80472T15.17472 0.42152Q13.412 0.42152 12.3582-0.65144T11.28524-3.19972V-3.50628Q11.28524-3.85116 12.33904-8.06636 13.27788-11.91752 13.27788-12.03248 13.27788-12.1666 12.18576-12.20492ZM30.73264-0.45984Q31.86308-0.45984 32.80192-1.45616T33.75992-3.77452Q33.75992-4.9816 32.7636-5.44144 30.73264-5.95876 30.15784-6.15036T29.35312-6.53356Q28.20352-7.33828 28.20352-8.85192 28.20352-10.02068 28.81664-10.97868T30.06204-12.41568Q30.61768-12.89468 31.40324-13.18208T32.62948-13.48864H32.84024 32.97436Q34.813719999999996-13.48864 35.6376-12.2624 35.65676-12.2624 35.88668-12.51148T36.38484-13.06712 36.76804-13.48864Q36.7872-13.48864 36.84468-13.48864T36.94048-13.5078Q37.18956-13.5078 37.18956-13.37368T36.65308-11.05532 36.03996-8.79444 35.7334-8.73696Q35.3502-8.73696 35.3502-8.9094 35.3502-9.02436 35.36936-9.100999999999999 35.36936-9.15848 35.38852-9.46504T35.42684-9.9632Q35.42684-10.61464 35.2544-11.09364T34.90952-11.80256 34.43052-12.28156Q33.74076-12.68392 32.8594-12.68392 31.76728-12.68392 30.82844-11.80256T29.87044-9.7716Q29.87044-9.1968 30.15784-8.77528T30.9434-8.18132Q31.02004-8.143 32.2846-7.81728T33.56832-7.4724Q34.21976-7.26164 34.83288-6.55272T35.446-4.63672Q35.446-4.13856 35.29272-3.56376 35.19692-3.14224 34.94784-2.62492T34.25808-1.49448 32.99352-0.34488 31.19248 0.3832Q30.96256 0.42152 30.54104 0.42152 28.6442 0.42152 27.5904-0.63228L27.3988-0.84304 26.86232-0.24908Q26.42164 0.26824 26.32584 0.34488T26.07676 0.42152Q25.82768 0.42152 25.82768 0.26824 25.82768 0.21076 26.93896-4.23436 26.97728-4.34932 27.32216-4.34932H27.57124Q27.6862-4.23436 27.6862-4.13856 27.6862-4.10024 27.66704-3.96612T27.5904-3.56376 27.55208-2.93148Q27.5904-2.18424 27.89696-1.66692T28.72084-0.90052 29.71716-0.55564 30.73264-0.45984ZM37.95596-8.37292Q37.59192-8.37292 37.59192-8.5262 37.59192-8.622 37.89848-9.59916T38.54992-11.53432L38.87564-12.47316Q38.97144-12.81804 39.124719999999996-12.97132H48.0916 49.816Q50.42912-12.97132 50.54408-12.95216T50.6782-12.77972Q50.6782-12.66476 50.35248-10.59548T49.98844-8.50704Q49.98844-8.37292 49.6244-8.37292 49.45196-8.37292 49.39448-8.37292T49.27952-8.46872L49.2412-8.5262Q49.2412-8.64116 49.35616-9.3884T49.47112-10.55716Q49.47112-11.22776 49.22204-11.57264T48.16824-12.05164Q48.07244-12.0708 47.05696-12.08996 46.1756-12.08996 45.94568-12.0708T45.6008-11.91752Q45.58164-11.89836 44.24044-6.57188T42.89924-1.1496Q42.89924-0.91968 44.58532-0.88136 45.19844-0.88136 45.37088-0.8622T45.54332-0.68976Q45.54332-0.59396 45.48584-0.42152 45.4092-0.07664 45.3134-0.01916L45.27508 0Q45.2176 0 45.14096 0 45.04516 0 44.14464-0.01916T41.55804-0.03832Q39.0864-0.03832 38.4158 0H38.1284Q38.01344-0.11496 38.01344-0.17244T38.05176-0.51732Q38.1284-0.7664 38.24336-0.88136H38.77984 38.9906Q40.5234-0.88136 40.8108-1.0538 40.82996-1.07296 40.84912-1.07296 40.94492-1.13044 41.04072-1.45616T41.80712-4.46428Q42.13284-5.76716 42.3436-6.59104 43.6848-11.86004 43.6848-11.975 43.6848-12.0708 43.12916-12.0708H42.5352Q41.25148-12.0708 40.84912-11.95584 39.98692-11.76424 39.50792-11.17028T38.47328-8.94772Q38.33916-8.5262 38.28168-8.44956T38.01344-8.37292H37.95596Z"
        fill-opacity="1"
      ></path>
    </svg>
  </g>
  <g style="solid">
    <marker
      id="`aUST`.side1-leftArrowhead"
      markerUnits="strokeWidth"
      markerWidth="9.95"
      markerHeight="8.12"
      viewBox="0 0 9.95 8.12"
      refX="2.36"
      refY="4.06"
      orient="auto-start-reverse"
    >
      <path
        d="M9.95 4.06 0 8.12 2.36 4.06 0 0 9.95 4.06z"
        fill="#000000"
        fill-opacity="1"
      ></path>
    </marker>
    <marker
      id="`aUST`.side1-rightArrowhead"
      markerUnits="strokeWidth"
      markerWidth="9.95"
      markerHeight="8.12"
      viewBox="0 0 9.95 8.12"
      refX="2.36"
      refY="4.06"
      orient="auto-start-reverse"
    >
      <path
        d="M9.95 4.06 0 8.12 2.36 4.06 0 0 9.95 4.06z"
        fill="#000000"
        fill-opacity="1"
      ></path>
    </marker>
    <path
      d="M 321.04498084497055 427.6166001315121 L 261.7901026633498 506.218138683403"
      stroke-opacity="1"
      stroke-width="1.75"
      stroke="#000000"
      stroke-linecap="butt"
    ></path>
    <title>`aUST`.side1</title>
  </g>
  <g style="solid">
    <marker
      id="`aUST`.side2-leftArrowhead"
      markerUnits="strokeWidth"
      markerWidth="9.95"
      markerHeight="8.12"
      viewBox="0 0 9.95 8.12"
      refX="2.36"
      refY="4.06"
      orient="auto-start-reverse"
    >
      <path
        d="M9.95 4.06 0 8.12 2.36 4.06 0 0 9.95 4.06z"
        fill="#000000"
        fill-opacity="1"
      ></path>
    </marker>
    <marker
      id="`aUST`.side2-rightArrowhead"
      markerUnits="strokeWidth"
      markerWidth="9.95"
      markerHeight="8.12"
      viewBox="0 0 9.95 8.12"
      refX="2.36"
      refY="4.06"
      orient="auto-start-reverse"
    >
      <path
        d="M9.95 4.06 0 8.12 2.36 4.06 0 0 9.95 4.06z"
        fill="#000000"
        fill-opacity="1"
      ></path>
    </marker>
    <path
      d="M 261.7901026633498 506.218138683403 L 374.98947648271496 509.9533974362144"
      stroke-opacity="1"
      stroke-width="1.75"
      stroke="#000000"
      stroke-linecap="butt"
    ></path>
    <title>`aUST`.side2</title>
  </g>
  <g
    transform="rotate(0, 286.99667897189477, 504.7009779582708)translate(286.99667897189477, 504.7009779582708)"
    string="aYZX"
  >
    <title>`aYZX`.text</title>
    <svg
      xmlns="http://www.w3.org/2000/svg"
      width="54.93172"
      height="19.16"
      role="img"
      focusable="false"
      viewBox="0.63228 -13.08628 54.29944 13.27788"
    >
      <path
        stroke="none"
        fill="#000000"
        stroke-width="0"
        d="M0.63228-3.00812Q0.63228-4.94328 2.08844-6.68684T5.3648-8.44956Q6.34196-8.44956 7.0892-7.51072 7.39576-8.08552 7.97056-8.08552 8.21964-8.08552 8.41124-7.93224T8.60284-7.54904Q8.60284-7.29996 7.89392-4.48344T7.16584-1.30288Q7.16584-0.82388 7.29996-0.6706T7.70232-0.49816Q7.87476-0.51732 8.08552-0.6706 8.48788-1.0538 8.87108-2.50996 8.98604-2.89316 9.06268-2.91232 9.100999999999999-2.93148 9.25428-2.93148H9.33092Q9.69496-2.93148 9.69496-2.75904 9.69496-2.64408 9.59916-2.24172T9.21596-1.20708 8.60284-0.24908Q8.35376 0 7.98972 0.15328 7.83644 0.1916 7.52988 0.1916 6.87844 0.1916 6.43776-0.0958T5.86296-0.68976L5.748-0.97716Q5.72884-0.99632 5.67136-0.958 5.63304-0.91968 5.59472-0.88136 4.46428 0.1916 3.29552 0.1916 2.24172 0.1916 1.437-0.5748T0.63228-3.00812ZM6.72516-6.28448Q6.72516-6.39944 6.62936-6.706T6.18868-7.3766 5.30732-7.7598Q4.63672-7.7598 4.0236-7.16584T3.0656-5.61388Q2.50996-4.10024 2.28004-2.47164 2.28004-2.41416 2.28004-2.26088T2.26088-2.03096Q2.26088-1.16876 2.60576-0.84304T3.42964-0.49816Q4.15772-0.49816 4.86664-1.13044T5.70968-2.1076Q5.748-2.18424 6.227-4.15772T6.72516-6.28448ZM11.4002-12.20492Q11.17028-12.20492 11.07448-12.20492T10.88288-12.22408 10.74876-12.28156 10.71044-12.39652 10.76792-12.72224 10.94036-13.06712Q10.97868-13.08628 11.2086-13.08628 12.12828-13.0288 13.297039999999999-13.0288 15.65372-13.0288 15.9986-13.08628H16.1902Q16.30516-12.97132 16.30516-12.91384T16.26684-12.56896Q16.1902-12.31988 16.07524-12.20492H15.84532Q14.77236-12.20492 14.77236-11.95584 14.77236-11.86004 15.73036-9.13932T16.70752-6.38028L16.765-6.43776Q16.84164-6.5144 16.99492-6.68684T17.39728-7.14668 18.0104-7.8556 18.83428-8.83276Q20.597-10.88288 20.8844-11.24692T21.19096-11.84088Q21.19096-12.14744 20.57784-12.20492 20.25212-12.20492 20.25212-12.39652 20.25212-12.43484 20.29044-12.66476 20.34792-12.95216 20.38624-13.00964T20.65448-13.08628Q20.6928-13.08628 21.21012-13.06712T22.72376-13.0288Q23.24108-13.0288 23.79672-13.04796T24.429-13.06712Q24.75472-13.06712 24.75472-12.89468 24.75472-12.81804 24.69724-12.58812T24.60144-12.31988Q24.56312-12.20492 24.19908-12.20492 22.81956-12.10912 21.95736-11.24692 21.78492-11.07448 19.27496-8.12384L16.80332-5.2306799999999996 16.30516-3.23804Q15.78784-1.18792 15.78784-1.09212 15.78784-0.88136 17.09072-0.88136 17.39728-0.88136 17.49308-0.8622T17.60804-0.6706Q17.60804-0.63228 17.56972-0.44068 17.49308-0.11496 17.45476-0.07664T17.1482-0.01916Q17.0524-0.01916 16.34348-0.01916T14.58076-0.03832Q13.39284-0.03832 12.77972-0.03832T12.08996-0.01916Q11.74508-0.01916 11.74508-0.17244 11.74508-0.26824 11.80256-0.45984 11.82172-0.51732 11.84088-0.5748T11.86004-0.6706 11.879199999999999-0.74724 11.91752-0.80472 11.975-0.84304 12.0708-0.8622 12.18576-0.8622 12.3582-0.88136 12.60728-0.88136Q13.35452-0.90052 13.58444-0.958T13.92932-1.20708Q13.9868-1.30288 14.48496-3.27636L14.96396-5.24984 12.60728-11.93668Q12.58812-11.95584 12.56896-11.975T12.53064-12.01332 12.47316-12.05164 12.39652-12.08996 12.30072-12.12828 12.14744-12.14744 11.975-12.1666 11.72592-12.18576 11.4002-12.20492ZM25.866-0.15328Q25.866-0.44068 25.98096-0.6706 25.98096-0.68976 31.05836-6.39944T36.17408-12.1666L35.98248-12.20492Q35.77172-12.20492 34.56464-12.20492H34.33472 33.87488Q33.22344-12.20492 32.80192-12.1666T31.74812-11.95584 30.71348-11.45768 29.85128-10.49968 29.1232-8.98604Q29.10404-8.92856 29.08488-8.87108T29.04656-8.77528 29.0274-8.67948 29.00824-8.622L28.98908-8.58368Q28.9316-8.48788 28.62504-8.48788 28.29932-8.48788 28.24184-8.67948L28.85496-10.74876Q29.1232-11.61096 29.37228-12.47316 29.52556-13.00964 29.6022-13.04796 29.65968-13.08628 34.08564-13.08628H38.5116Q38.6074-12.99048 38.6074-12.933 38.6074-12.89468 38.49244-12.43484 28.37596-1.03464 28.3568-0.99632L28.29932-0.93884H30.00456Q31.82476-0.958 31.97804-0.97716 33.41504-1.1496 34.33472-1.916T35.84836-4.73252Q36.00164-5.21152 36.05912-5.30732T36.3082-5.40312H36.38484Q36.7872-5.40312 36.7872-5.19236 35.23524-0.0958 35.12028-0.03832 35.0628 0 30.50272 0H27.13056Q25.866 0 25.866-0.15328ZM39.41212 0H39.3738Q39.10556 0 39.10556-0.21076 39.10556-0.2874 39.16304-0.51732 39.23968-0.78556 39.29716-0.82388T39.6612-0.88136Q41.30896-0.93884 42.2478-1.87768 42.4394-2.06928 44.47036-4.29184T46.48216-6.55272Q44.39372-11.879199999999999 44.29792-11.975 44.12548-12.18576 43.09084-12.20492H42.55436Q42.4394-12.31988 42.4394-12.3582T42.47772-12.72224Q42.55436-12.97132 42.66932-13.08628H42.93756Q43.589-13.04796 45.25592-13.04796 45.8882-13.04796 46.42468-13.04796T47.28688-13.06712 47.67008-13.06712Q47.9958-13.06712 47.9958-12.85636 47.9958-12.8372 47.95748-12.60728 47.88084-12.31988 47.82336-12.2624T47.516799999999996-12.20492Q46.92284-12.14744 46.48216-11.879199999999999L47.95748-8.16216 48.97296-9.2926Q50.98476-11.45768 50.98476-11.6876 50.98476-12.03248 50.52492-12.1666 50.42912-12.1666 50.27584-12.20492 49.98844-12.20492 49.98844-12.41568 49.98844-12.454 50.02676-12.72224 50.1034-12.97132 50.21836-13.08628H50.44828Q50.46744-13.08628 50.92728-13.08628T51.96192-13.04796 52.74748-13.0288Q54.47188-13.0288 54.64432-13.08628H54.7976Q54.93172-12.95216 54.93172-12.87552 54.8934-12.39652 54.7018-12.20492H54.39524Q53.7438-12.18576 53.22648-12.03248T52.44092-11.70676 51.98108-11.36188L51.77032-11.18944Q51.77032-11.2086 49.95012-9.1968L48.2832-7.35744Q48.2832-7.33828 48.877159999999996-5.82464T50.12256-2.72072 50.83148-1.07296Q51.02308-0.90052 52.00024-0.88136 52.67084-0.88136 52.67084-0.70892 52.67084-0.6706 52.63252-0.44068 52.55588-0.13412 52.4984-0.07664T52.23016-0.01916Q52.17268-0.01916 51.597879999999996-0.01916T49.89264-0.03832Q48.72388-0.03832 48.11076-0.03832T47.44016-0.01916Q47.11444-0.01916 47.11444-0.1916 47.11444-0.21076 47.15276-0.479 47.19108-0.6706 47.2294-0.74724T47.3252-0.84304 47.49764-0.88136 47.8042-0.90052 48.30236-1.03464Q48.62808-1.18792 48.62808-1.22624 48.60892-1.22624 47.72756-3.46796L46.82704-5.72884Q43.22496-1.8202 43.12916-1.60944 43.05252-1.45616 43.05252-1.37952 43.05252-1.01548 43.60816-0.90052 43.62732-0.90052 43.72312-0.90052T43.83808-0.88136Q43.89556-0.88136 43.91472-0.88136T43.9722-0.8622 44.02968-0.80472 44.04884-0.6706Q44.04884-0.49816 44.01052-0.36404 43.95304-0.11496 43.89556-0.07664T43.60816-0.01916Q43.55068-0.01916 43.26328-0.01916T42.45856-0.03832 41.32812-0.03832Q39.83364-0.03832 39.41212 0Z"
        fill-opacity="1"
      ></path>
    </svg>
  </g>
  <g>
    <filter id="`aYZX`.mark-shadow" x="0" y="0" width="200%" height="200%">
      <feOffset result="offOut" in="SourceAlpha" dx="5" dy="5"></feOffset>
      <feGaussianBlur
        result="blurOut"
        in="offOut"
        stdDeviation="4"
      ></feGaussianBlur>
      <feBlend in="SourceGraphic" in2="blurOut" mode="normal"></feBlend>
      <feComponentTransfer>
        <feFuncA type="linear" slope="0.5"></feFuncA>
      </feComponentTransfer>
      <feMerge>
        <feMergeNode></feMergeNode>
        <feMergeNode in="SourceGraphic"></feMergeNode>
      </feMerge>
    </filter>
    <path
      stroke="#000000"
      fill="none"
      stroke-width="2"
      stroke-opacity="1"
      d="M 321.47894986364156 467.1698949741238 A 30 30 0 0 0 351.45818957150726 484.2808643306653 M 312.42789747929544 471.4217676804503 A 40 40 0 0 0 352.40021664474403 494.236393235161 M 303.3768450949493 475.67364038677675 A 50 50 0 0 0 353.34224371798075 504.19192213965675"
    ></path>
    <title>`aYZX`.mark</title>
  </g>
  <g style="solid">
    <marker
      id="`aYZX`.side1-leftArrowhead"
      markerUnits="strokeWidth"
      markerWidth="9.95"
      markerHeight="8.12"
      viewBox="0 0 9.95 8.12"
      refX="2.36"
      refY="4.06"
      orient="auto-start-reverse"
    >
      <path
        d="M9.95 4.06 0 8.12 2.36 4.06 0 0 9.95 4.06z"
        fill="#000000"
        fill-opacity="1"
      ></path>
    </marker>
    <marker
      id="`aYZX`.side1-rightArrowhead"
      markerUnits="strokeWidth"
      markerWidth="9.95"
      markerHeight="8.12"
      viewBox="0 0 9.95 8.12"
      refX="2.36"
      refY="4.06"
      orient="auto-start-reverse"
    >
      <path
        d="M9.95 4.06 0 8.12 2.36 4.06 0 0 9.95 4.06z"
        fill="#000000"
        fill-opacity="1"
      ></path>
    </marker>
    <path
      d="M 259.53851497775804 496.26737815351305 L 348.63210822593817 454.4142762870764"
      stroke-opacity="1"
      stroke-width="1.75"
      stroke="#000000"
      stroke-linecap="butt"
    ></path>
    <title>`aYZX`.side1</title>
  </g>
  <g style="solid">
    <marker
      id="`aYZX`.side2-leftArrowhead"
      markerUnits="strokeWidth"
      markerWidth="9.95"
      markerHeight="8.12"
      viewBox="0 0 9.95 8.12"
      refX="2.36"
      refY="4.06"
      orient="auto-start-reverse"
    >
      <path
        d="M9.95 4.06 0 8.12 2.36 4.06 0 0 9.95 4.06z"
        fill="#000000"
        fill-opacity="1"
      ></path>
    </marker>
    <marker
      id="`aYZX`.side2-rightArrowhead"
      markerUnits="strokeWidth"
      markerWidth="9.95"
      markerHeight="8.12"
      viewBox="0 0 9.95 8.12"
      refX="2.36"
      refY="4.06"
      orient="auto-start-reverse"
    >
      <path
        d="M9.95 4.06 0 8.12 2.36 4.06 0 0 9.95 4.06z"
        fill="#000000"
        fill-opacity="1"
      ></path>
    </marker>
    <path
      d="M 348.63210822593817 454.4142762870764 L 357.90490129417805 552.4109921341905"
      stroke-opacity="1"
      stroke-width="1.75"
      stroke="#000000"
      stroke-linecap="butt"
    ></path>
    <title>`aYZX`.side2</title>
  </g>
  <g
    transform="rotate(0, 300.80494627037933, 491.92700126473954)translate(300.80494627037933, 491.92700126473954)"
    string="aXYZ"
  >
    <title>`aXYZ`.text</title>
    <svg
      xmlns="http://www.w3.org/2000/svg"
      width="54.93172"
      height="19.16"
      role="img"
      focusable="false"
      viewBox="0.63228 -13.08628 54.29944 13.27788"
    >
      <path
        stroke="none"
        fill="#000000"
        stroke-width="0"
        d="M0.63228-3.00812Q0.63228-4.94328 2.08844-6.68684T5.3648-8.44956Q6.34196-8.44956 7.0892-7.51072 7.39576-8.08552 7.97056-8.08552 8.21964-8.08552 8.41124-7.93224T8.60284-7.54904Q8.60284-7.29996 7.89392-4.48344T7.16584-1.30288Q7.16584-0.82388 7.29996-0.6706T7.70232-0.49816Q7.87476-0.51732 8.08552-0.6706 8.48788-1.0538 8.87108-2.50996 8.98604-2.89316 9.06268-2.91232 9.100999999999999-2.93148 9.25428-2.93148H9.33092Q9.69496-2.93148 9.69496-2.75904 9.69496-2.64408 9.59916-2.24172T9.21596-1.20708 8.60284-0.24908Q8.35376 0 7.98972 0.15328 7.83644 0.1916 7.52988 0.1916 6.87844 0.1916 6.43776-0.0958T5.86296-0.68976L5.748-0.97716Q5.72884-0.99632 5.67136-0.958 5.63304-0.91968 5.59472-0.88136 4.46428 0.1916 3.29552 0.1916 2.24172 0.1916 1.437-0.5748T0.63228-3.00812ZM6.72516-6.28448Q6.72516-6.39944 6.62936-6.706T6.18868-7.3766 5.30732-7.7598Q4.63672-7.7598 4.0236-7.16584T3.0656-5.61388Q2.50996-4.10024 2.28004-2.47164 2.28004-2.41416 2.28004-2.26088T2.26088-2.03096Q2.26088-1.16876 2.60576-0.84304T3.42964-0.49816Q4.15772-0.49816 4.86664-1.13044T5.70968-2.1076Q5.748-2.18424 6.227-4.15772T6.72516-6.28448ZM10.94036 0H10.90204Q10.6338 0 10.6338-0.21076 10.6338-0.2874 10.69128-0.51732 10.76792-0.78556 10.8254-0.82388T11.18944-0.88136Q12.8372-0.93884 13.77604-1.87768 13.96764-2.06928 15.9986-4.29184T18.0104-6.55272Q15.92196-11.879199999999999 15.82616-11.975 15.65372-12.18576 14.61908-12.20492H14.0826Q13.96764-12.31988 13.96764-12.3582T14.00596-12.72224Q14.0826-12.97132 14.19756-13.08628H14.4658Q15.11724-13.04796 16.78416-13.04796 17.41644-13.04796 17.95292-13.04796T18.81512-13.06712 19.19832-13.06712Q19.52404-13.06712 19.52404-12.85636 19.52404-12.8372 19.48572-12.60728 19.40908-12.31988 19.3516-12.2624T19.04504-12.20492Q18.45108-12.14744 18.0104-11.879199999999999L19.48572-8.16216 20.5012-9.2926Q22.513-11.45768 22.513-11.6876 22.513-12.03248 22.05316-12.1666 21.95736-12.1666 21.80408-12.20492 21.51668-12.20492 21.51668-12.41568 21.51668-12.454 21.555-12.72224 21.63164-12.97132 21.7466-13.08628H21.97652Q21.99568-13.08628 22.45552-13.08628T23.49016-13.04796 24.27572-13.0288Q26.00012-13.0288 26.17256-13.08628H26.32584Q26.45996-12.95216 26.45996-12.87552 26.42164-12.39652 26.23004-12.20492H25.92348Q25.27204-12.18576 24.75472-12.03248T23.96916-11.70676 23.50932-11.36188L23.29856-11.18944Q23.29856-11.2086 21.47836-9.1968L19.81144-7.35744Q19.81144-7.33828 20.4054-5.82464T21.6508-2.72072 22.35972-1.07296Q22.55132-0.90052 23.52848-0.88136 24.19908-0.88136 24.19908-0.70892 24.19908-0.6706 24.16076-0.44068 24.08412-0.13412 24.02664-0.07664T23.758399999999998-0.01916Q23.70092-0.01916 23.12612-0.01916T21.42088-0.03832Q20.25212-0.03832 19.639-0.03832T18.9684-0.01916Q18.64268-0.01916 18.64268-0.1916 18.64268-0.21076 18.681-0.479 18.71932-0.6706 18.75764-0.74724T18.85344-0.84304 19.02588-0.88136 19.33244-0.90052 19.8306-1.03464Q20.15632-1.18792 20.15632-1.22624 20.13716-1.22624 19.2558-3.46796L18.35528-5.72884Q14.7532-1.8202 14.657399999999999-1.60944 14.58076-1.45616 14.58076-1.37952 14.58076-1.01548 15.1364-0.90052 15.15556-0.90052 15.25136-0.90052T15.36632-0.88136Q15.4238-0.88136 15.44296-0.88136T15.50044-0.8622 15.55792-0.80472 15.57708-0.6706Q15.57708-0.49816 15.53876-0.36404 15.48128-0.11496 15.4238-0.07664T15.1364-0.01916Q15.07892-0.01916 14.79152-0.01916T13.9868-0.03832 12.85636-0.03832Q11.36188-0.03832 10.94036 0ZM27.72452-12.20492Q27.4946-12.20492 27.3988-12.20492T27.2072-12.22408 27.07308-12.28156 27.03476-12.39652 27.09224-12.72224 27.26468-13.06712Q27.303-13.08628 27.53292-13.08628 28.4526-13.0288 29.62136-13.0288 31.97804-13.0288 32.32292-13.08628H32.51452Q32.62948-12.97132 32.62948-12.91384T32.59116-12.56896Q32.51452-12.31988 32.39956-12.20492H32.16964Q31.09668-12.20492 31.09668-11.95584 31.09668-11.86004 32.05468-9.13932T33.03184-6.38028L33.08932-6.43776Q33.16596-6.5144 33.31924-6.68684T33.7216-7.14668 34.33472-7.8556 35.1586-8.83276Q36.92132-10.88288 37.20872-11.24692T37.51528-11.84088Q37.51528-12.14744 36.90216-12.20492 36.57644-12.20492 36.57644-12.39652 36.57644-12.43484 36.61476-12.66476 36.67224-12.95216 36.71056-13.00964T36.9788-13.08628Q37.01712-13.08628 37.53444-13.06712T39.04808-13.0288Q39.5654-13.0288 40.12104-13.04796T40.75332-13.06712Q41.07904-13.06712 41.07904-12.89468 41.07904-12.81804 41.02156-12.58812T40.92576-12.31988Q40.88744-12.20492 40.5234-12.20492 39.14388-12.10912 38.28168-11.24692 38.10924-11.07448 35.59928-8.12384L33.12764-5.2306799999999996 32.62948-3.23804Q32.11216-1.18792 32.11216-1.09212 32.11216-0.88136 33.41504-0.88136 33.7216-0.88136 33.8174-0.8622T33.93236-0.6706Q33.93236-0.63228 33.89404-0.44068 33.8174-0.11496 33.77908-0.07664T33.47252-0.01916Q33.37672-0.01916 32.6678-0.01916T30.90508-0.03832Q29.71716-0.03832 29.10404-0.03832T28.41428-0.01916Q28.0694-0.01916 28.0694-0.17244 28.0694-0.26824 28.12688-0.45984 28.14604-0.51732 28.1652-0.5748T28.18436-0.6706 28.20352-0.74724 28.24184-0.80472 28.29932-0.84304 28.39512-0.8622 28.51008-0.8622 28.68252-0.88136 28.9316-0.88136Q29.67884-0.90052 29.90876-0.958T30.25364-1.20708Q30.31112-1.30288 30.80928-3.27636L31.28828-5.24984 28.9316-11.93668Q28.91244-11.95584 28.89328-11.975T28.85496-12.01332 28.79748-12.05164 28.72084-12.08996 28.62504-12.12828 28.47176-12.14744 28.29932-12.1666 28.05024-12.18576 27.72452-12.20492ZM42.19032-0.15328Q42.19032-0.44068 42.30528-0.6706 42.30528-0.68976 47.38268-6.39944T52.4984-12.1666L52.3068-12.20492Q52.09604-12.20492 50.88896-12.20492H50.65904 50.1992Q49.54776-12.20492 49.12624-12.1666T48.07244-11.95584 47.0378-11.45768 46.1756-10.49968 45.44752-8.98604Q45.42836-8.92856 45.4092-8.87108T45.37088-8.77528 45.35172-8.67948 45.33256-8.622L45.3134-8.58368Q45.25592-8.48788 44.94936-8.48788 44.62364-8.48788 44.566159999999996-8.67948L45.17928-10.74876Q45.44752-11.61096 45.6966-12.47316 45.84988-13.00964 45.92652-13.04796 45.984-13.08628 50.40996-13.08628H54.83592Q54.93172-12.99048 54.93172-12.933 54.93172-12.89468 54.81676-12.43484 44.70028-1.03464 44.68112-0.99632L44.62364-0.93884H46.32888Q48.14908-0.958 48.30236-0.97716 49.73936-1.1496 50.65904-1.916T52.17268-4.73252Q52.32596-5.21152 52.38344-5.30732T52.63252-5.40312H52.70916Q53.11152-5.40312 53.11152-5.19236 51.55956-0.0958 51.4446-0.03832 51.38712 0 46.82704 0H43.45488Q42.19032 0 42.19032-0.15328Z"
        fill-opacity="1"
      ></path>
    </svg>
  </g>
  <g>
    <filter id="`aXYZ`.mark-shadow" x="0" y="0" width="200%" height="200%">
      <feOffset result="offOut" in="SourceAlpha" dx="5" dy="5"></feOffset>
      <feGaussianBlur
        result="blurOut"
        in="offOut"
        stdDeviation="4"
      ></feGaussianBlur>
      <feBlend in="SourceGraphic" in2="blurOut" mode="normal"></feBlend>
      <feComponentTransfer>
        <feFuncA type="linear" slope="0.5"></feFuncA>
      </feComponentTransfer>
      <feMerge>
        <feMergeNode></feMergeNode>
        <feMergeNode in="SourceGraphic"></feMergeNode>
      </feMerge>
    </filter>
    <path
      stroke="#000000"
      fill="none"
      stroke-width="2"
      stroke-opacity="1"
      d="M 285.59330566409585 511.1384145453106 A 30 30 0 0 0 286.6916733400546 483.5117594664656 M 294.2782356165848 516.0954265182143 A 40 40 0 0 0 295.7427257244007 479.2598867601391"
    ></path>
    <title>`aXYZ`.mark</title>
  </g>
  <g style="solid">
    <marker
      id="`aXYZ`.side1-leftArrowhead"
      markerUnits="strokeWidth"
      markerWidth="9.95"
      markerHeight="8.12"
      viewBox="0 0 9.95 8.12"
      refX="2.36"
      refY="4.06"
      orient="auto-start-reverse"
    >
      <path
        d="M9.95 4.06 0 8.12 2.36 4.06 0 0 9.95 4.06z"
        fill="#000000"
        fill-opacity="1"
      ></path>
    </marker>
    <marker
      id="`aXYZ`.side1-rightArrowhead"
      markerUnits="strokeWidth"
      markerWidth="9.95"
      markerHeight="8.12"
      viewBox="0 0 9.95 8.12"
      refX="2.36"
      refY="4.06"
      orient="auto-start-reverse"
    >
      <path
        d="M9.95 4.06 0 8.12 2.36 4.06 0 0 9.95 4.06z"
        fill="#000000"
        fill-opacity="1"
      ></path>
    </marker>
    <path
      d="M 357.90490129417805 552.4109921341905 L 259.53851497775804 496.26737815351305"
      stroke-opacity="1"
      stroke-width="1.75"
      stroke="#000000"
      stroke-linecap="butt"
    ></path>
    <title>`aXYZ`.side1</title>
  </g>
  <g style="solid">
    <marker
      id="`aXYZ`.side2-leftArrowhead"
      markerUnits="strokeWidth"
      markerWidth="9.95"
      markerHeight="8.12"
      viewBox="0 0 9.95 8.12"
      refX="2.36"
      refY="4.06"
      orient="auto-start-reverse"
    >
      <path
        d="M9.95 4.06 0 8.12 2.36 4.06 0 0 9.95 4.06z"
        fill="#000000"
        fill-opacity="1"
      ></path>
    </marker>
    <marker
      id="`aXYZ`.side2-rightArrowhead"
      markerUnits="strokeWidth"
      markerWidth="9.95"
      markerHeight="8.12"
      viewBox="0 0 9.95 8.12"
      refX="2.36"
      refY="4.06"
      orient="auto-start-reverse"
    >
      <path
        d="M9.95 4.06 0 8.12 2.36 4.06 0 0 9.95 4.06z"
        fill="#000000"
        fill-opacity="1"
      ></path>
    </marker>
    <path
      d="M 259.53851497775804 496.26737815351305 L 348.63210822593817 454.4142762870764"
      stroke-opacity="1"
      stroke-width="1.75"
      stroke="#000000"
      stroke-linecap="butt"
    ></path>
    <title>`aXYZ`.side2</title>
  </g>
  <g
    transform="rotate(0, 290.9730687311221, 486.3153436257166)translate(290.9730687311221, 486.3153436257166)"
    string="aZXY"
  >
    <title>`aZXY`.text</title>
    <svg
      xmlns="http://www.w3.org/2000/svg"
      width="54.93172"
      height="19.16"
      role="img"
      focusable="false"
      viewBox="0.63228 -13.08628 54.29944 13.27788"
    >
      <path
        stroke="none"
        fill="#000000"
        stroke-width="0"
        d="M0.63228-3.00812Q0.63228-4.94328 2.08844-6.68684T5.3648-8.44956Q6.34196-8.44956 7.0892-7.51072 7.39576-8.08552 7.97056-8.08552 8.21964-8.08552 8.41124-7.93224T8.60284-7.54904Q8.60284-7.29996 7.89392-4.48344T7.16584-1.30288Q7.16584-0.82388 7.29996-0.6706T7.70232-0.49816Q7.87476-0.51732 8.08552-0.6706 8.48788-1.0538 8.87108-2.50996 8.98604-2.89316 9.06268-2.91232 9.100999999999999-2.93148 9.25428-2.93148H9.33092Q9.69496-2.93148 9.69496-2.75904 9.69496-2.64408 9.59916-2.24172T9.21596-1.20708 8.60284-0.24908Q8.35376 0 7.98972 0.15328 7.83644 0.1916 7.52988 0.1916 6.87844 0.1916 6.43776-0.0958T5.86296-0.68976L5.748-0.97716Q5.72884-0.99632 5.67136-0.958 5.63304-0.91968 5.59472-0.88136 4.46428 0.1916 3.29552 0.1916 2.24172 0.1916 1.437-0.5748T0.63228-3.00812ZM6.72516-6.28448Q6.72516-6.39944 6.62936-6.706T6.18868-7.3766 5.30732-7.7598Q4.63672-7.7598 4.0236-7.16584T3.0656-5.61388Q2.50996-4.10024 2.28004-2.47164 2.28004-2.41416 2.28004-2.26088T2.26088-2.03096Q2.26088-1.16876 2.60576-0.84304T3.42964-0.49816Q4.15772-0.49816 4.86664-1.13044T5.70968-2.1076Q5.748-2.18424 6.227-4.15772T6.72516-6.28448ZM11.24692-0.15328Q11.24692-0.44068 11.36188-0.6706 11.36188-0.68976 16.43928-6.39944T21.555-12.1666L21.3634-12.20492Q21.15264-12.20492 19.94556-12.20492H19.71564 19.2558Q18.60436-12.20492 18.18284-12.1666T17.12904-11.95584 16.0944-11.45768 15.2322-10.49968 14.50412-8.98604Q14.48496-8.92856 14.4658-8.87108T14.42748-8.77528 14.40832-8.67948 14.38916-8.622L14.37-8.58368Q14.31252-8.48788 14.00596-8.48788 13.68024-8.48788 13.62276-8.67948L14.23588-10.74876Q14.50412-11.61096 14.7532-12.47316 14.90648-13.00964 14.98312-13.04796 15.0406-13.08628 19.46656-13.08628H23.89252Q23.98832-12.99048 23.98832-12.933 23.98832-12.89468 23.87336-12.43484 13.75688-1.03464 13.73772-0.99632L13.68024-0.93884H15.38548Q17.20568-0.958 17.35896-0.97716 18.79596-1.1496 19.71564-1.916T21.22928-4.73252Q21.38256-5.21152 21.44004-5.30732T21.68912-5.40312H21.76576Q22.16812-5.40312 22.16812-5.19236 20.61616-0.0958 20.5012-0.03832 20.44372 0 15.88364 0H12.51148Q11.24692 0 11.24692-0.15328ZM24.79304 0H24.75472Q24.48648 0 24.48648-0.21076 24.48648-0.2874 24.54396-0.51732 24.6206-0.78556 24.67808-0.82388T25.04212-0.88136Q26.68988-0.93884 27.62872-1.87768 27.82032-2.06928 29.85128-4.29184T31.86308-6.55272Q29.77464-11.879199999999999 29.67884-11.975 29.5064-12.18576 28.47176-12.20492H27.93528Q27.82032-12.31988 27.82032-12.3582T27.85864-12.72224Q27.93528-12.97132 28.05024-13.08628H28.31848Q28.96992-13.04796 30.63684-13.04796 31.26912-13.04796 31.8056-13.04796T32.6678-13.06712 33.051-13.06712Q33.37672-13.06712 33.37672-12.85636 33.37672-12.8372 33.3384-12.60728 33.26176-12.31988 33.20428-12.2624T32.89772-12.20492Q32.30376-12.14744 31.86308-11.879199999999999L33.3384-8.16216 34.35388-9.2926Q36.36568-11.45768 36.36568-11.6876 36.36568-12.03248 35.90584-12.1666 35.81004-12.1666 35.65676-12.20492 35.36936-12.20492 35.36936-12.41568 35.36936-12.454 35.40768-12.72224 35.48432-12.97132 35.59928-13.08628H35.8292Q35.84836-13.08628 36.3082-13.08628T37.34284-13.04796 38.1284-13.0288Q39.8528-13.0288 40.02524-13.08628H40.17852Q40.31264-12.95216 40.31264-12.87552 40.27432-12.39652 40.08272-12.20492H39.77616Q39.124719999999996-12.18576 38.6074-12.03248T37.82184-11.70676 37.362-11.36188L37.15124-11.18944Q37.15124-11.2086 35.33104-9.1968L33.66412-7.35744Q33.66412-7.33828 34.25808-5.82464T35.50348-2.72072 36.2124-1.07296Q36.403999999999996-0.90052 37.38116-0.88136 38.05176-0.88136 38.05176-0.70892 38.05176-0.6706 38.01344-0.44068 37.9368-0.13412 37.87932-0.07664T37.61108-0.01916Q37.5536-0.01916 36.9788-0.01916T35.27356-0.03832Q34.1048-0.03832 33.49168-0.03832T32.82108-0.01916Q32.49536-0.01916 32.49536-0.1916 32.49536-0.21076 32.53368-0.479 32.572-0.6706 32.61032-0.74724T32.70612-0.84304 32.87856-0.88136 33.18512-0.90052 33.68328-1.03464Q34.009-1.18792 34.009-1.22624 33.98984-1.22624 33.10848-3.46796L32.20796-5.72884Q28.60588-1.8202 28.51008-1.60944 28.43344-1.45616 28.43344-1.37952 28.43344-1.01548 28.98908-0.90052 29.00824-0.90052 29.10404-0.90052T29.219-0.88136Q29.27648-0.88136 29.29564-0.88136T29.35312-0.8622 29.4106-0.80472 29.42976-0.6706Q29.42976-0.49816 29.39144-0.36404 29.33396-0.11496 29.27648-0.07664T28.98908-0.01916Q28.9316-0.01916 28.6442-0.01916T27.83948-0.03832 26.70904-0.03832Q25.21456-0.03832 24.79304 0ZM41.5772-12.20492Q41.34728-12.20492 41.25148-12.20492T41.05988-12.22408 40.92576-12.28156 40.88744-12.39652 40.94492-12.72224 41.11736-13.06712Q41.15568-13.08628 41.3856-13.08628 42.30528-13.0288 43.47404-13.0288 45.83072-13.0288 46.1756-13.08628H46.3672Q46.48216-12.97132 46.48216-12.91384T46.44384-12.56896Q46.3672-12.31988 46.25224-12.20492H46.02232Q44.94936-12.20492 44.94936-11.95584 44.94936-11.86004 45.90736-9.13932T46.88452-6.38028L46.942-6.43776Q47.01864-6.5144 47.17192-6.68684T47.57428-7.14668 48.1874-7.8556 49.01128-8.83276Q50.774-10.88288 51.0614-11.24692T51.36796-11.84088Q51.36796-12.14744 50.75484-12.20492 50.42912-12.20492 50.42912-12.39652 50.42912-12.43484 50.46744-12.66476 50.52492-12.95216 50.56324-13.00964T50.83148-13.08628Q50.8698-13.08628 51.38712-13.06712T52.90076-13.0288Q53.41808-13.0288 53.97372-13.04796T54.606-13.06712Q54.93172-13.06712 54.93172-12.89468 54.93172-12.81804 54.87424-12.58812T54.77844-12.31988Q54.74012-12.20492 54.37608-12.20492 52.99656-12.10912 52.13436-11.24692 51.96192-11.07448 49.45196-8.12384L46.98032-5.2306799999999996 46.48216-3.23804Q45.96484-1.18792 45.96484-1.09212 45.96484-0.88136 47.26772-0.88136 47.57428-0.88136 47.67008-0.8622T47.78504-0.6706Q47.78504-0.63228 47.74672-0.44068 47.67008-0.11496 47.63176-0.07664T47.3252-0.01916Q47.2294-0.01916 46.52048-0.01916T44.75776-0.03832Q43.56984-0.03832 42.95672-0.03832T42.26696-0.01916Q41.92208-0.01916 41.92208-0.17244 41.92208-0.26824 41.97956-0.45984 41.99872-0.51732 42.01788-0.5748T42.03704-0.6706 42.0562-0.74724 42.09452-0.80472 42.152-0.84304 42.2478-0.8622 42.36276-0.8622 42.5352-0.88136 42.78428-0.88136Q43.53152-0.90052 43.76144-0.958T44.10632-1.20708Q44.1638-1.30288 44.66196-3.27636L45.14096-5.24984 42.78428-11.93668Q42.76512-11.95584 42.74596-11.975T42.70764-12.01332 42.65016-12.05164 42.57352-12.08996 42.47772-12.12828 42.32444-12.14744 42.152-12.1666 41.90292-12.18576 41.5772-12.20492Z"
        fill-opacity="1"
      ></path>
    </svg>
  </g>
  <g>
    <filter id="`aZXY`.mark-shadow" x="0" y="0" width="200%" height="200%">
      <feOffset result="offOut" in="SourceAlpha" dx="5" dy="5"></feOffset>
      <feGaussianBlur
        result="blurOut"
        in="offOut"
        stdDeviation="4"
      ></feGaussianBlur>
      <feBlend in="SourceGraphic" in2="blurOut" mode="normal"></feBlend>
      <feComponentTransfer>
        <feFuncA type="linear" slope="0.5"></feFuncA>
      </feComponentTransfer>
      <feMerge>
        <feMergeNode></feMergeNode>
        <feMergeNode in="SourceGraphic"></feMergeNode>
      </feMerge>
    </filter>
    <path
      stroke="#000000"
      fill="none"
      stroke-width="2"
      stroke-opacity="1"
      d="M 355.07881994860895 522.5444040906016 A 30 30 0 0 0 331.85011060784024 537.539955742393"
    ></path>
    <title>`aZXY`.mark</title>
  </g>
  <g style="solid">
    <marker
      id="`aZXY`.side1-leftArrowhead"
      markerUnits="strokeWidth"
      markerWidth="9.95"
      markerHeight="8.12"
      viewBox="0 0 9.95 8.12"
      refX="2.36"
      refY="4.06"
      orient="auto-start-reverse"
    >
      <path
        d="M9.95 4.06 0 8.12 2.36 4.06 0 0 9.95 4.06z"
        fill="#000000"
        fill-opacity="1"
      ></path>
    </marker>
    <marker
      id="`aZXY`.side1-rightArrowhead"
      markerUnits="strokeWidth"
      markerWidth="9.95"
      markerHeight="8.12"
      viewBox="0 0 9.95 8.12"
      refX="2.36"
      refY="4.06"
      orient="auto-start-reverse"
    >
      <path
        d="M9.95 4.06 0 8.12 2.36 4.06 0 0 9.95 4.06z"
        fill="#000000"
        fill-opacity="1"
      ></path>
    </marker>
    <path
      d="M 348.63210822593817 454.4142762870764 L 357.90490129417805 552.4109921341905"
      stroke-opacity="1"
      stroke-width="1.75"
      stroke="#000000"
      stroke-linecap="butt"
    ></path>
    <title>`aZXY`.side1</title>
  </g>
  <g style="solid">
    <marker
      id="`aZXY`.side2-leftArrowhead"
      markerUnits="strokeWidth"
      markerWidth="9.95"
      markerHeight="8.12"
      viewBox="0 0 9.95 8.12"
      refX="2.36"
      refY="4.06"
      orient="auto-start-reverse"
    >
      <path
        d="M9.95 4.06 0 8.12 2.36 4.06 0 0 9.95 4.06z"
        fill="#000000"
        fill-opacity="1"
      ></path>
    </marker>
    <marker
      id="`aZXY`.side2-rightArrowhead"
      markerUnits="strokeWidth"
      markerWidth="9.95"
      markerHeight="8.12"
      viewBox="0 0 9.95 8.12"
      refX="2.36"
      refY="4.06"
      orient="auto-start-reverse"
    >
      <path
        d="M9.95 4.06 0 8.12 2.36 4.06 0 0 9.95 4.06z"
        fill="#000000"
        fill-opacity="1"
      ></path>
    </marker>
    <path
      d="M 357.90490129417805 552.4109921341905 L 259.53851497775804 496.26737815351305"
      stroke-opacity="1"
      stroke-width="1.75"
      stroke="#000000"
      stroke-linecap="butt"
    ></path>
    <title>`aZXY`.side2</title>
  </g>
</svg>
