<svg version="1.2" xmlns="http://www.w3.org/2000/svg" viewBox="0 0 800 700">
  <rect
    x="402.7703750503586"
    y="239.1175596062116"
    width="233.33333333333334"
    height="233.33333333333334"
    fill="#f2f5eb"
    fill-opacity="0.5"
    stroke="#000000"
    stroke-opacity="1"
    stroke-width="1"
    stroke-linecap="butt"
    rx="0"
    transform="rotate(0, 402.7703750503586, 239.1175596062116)"
  >
    <title>`Rm`.icon</title>
  </rect>
  <circle
    fill="#1a1ae6"
    fill-opacity="0.2"
    cx="519.473280630255"
    cy="356.02503246572707"
    stroke="#000000"
    stroke-opacity="1"
    stroke-width="1"
    stroke-linecap="butt"
    r="106.30914519641479"
  >
    <title>`B`.icon</title>
  </circle>
  <circle
    fill="#1a1ae6"
    fill-opacity="0.2"
    cx="528.6971482312424"
    cy="403.57991801853876"
    stroke="#000000"
    stroke-opacity="1"
    stroke-width="1.5"
    stroke-dasharray="7,5"
    stroke-linecap="butt"
    r="34.24833951472436"
  >
    <title>`V`.icon</title>
  </circle>
  <g
    transform="rotate(0, 538.234423717134, 396.3606946504218)translate(538.234423717134, 396.3606946504218)"
    string="V"
  >
    <title>`V`.text</title>
    <svg
      xmlns="http://www.w3.org/2000/svg"
      width="13.58054"
      height="17.66"
      role="img"
      focusable="false"
      viewBox="0.9183199999999999 -12.061779999999999 12.66222 12.450299999999999"
    >
      <path
        stroke="none"
        fill="#000000"
        stroke-width="0"
        d="M0.9183199999999999-11.443679999999999Q0.9183199999999999-11.832199999999998 1.1479-12.061779999999999H1.3421599999999998Q2.0838799999999997-12.008799999999999 3.1964599999999996-12.008799999999999 5.28034-12.008799999999999 5.651199999999999-12.061779999999999H5.8278Q5.9337599999999995-11.95582 5.9337599999999995-11.90284T5.89844-11.584959999999999Q5.81014-11.32006 5.7395-11.249419999999999H5.368639999999999Q4.980119999999999-11.214099999999998 4.838839999999999-11.214099999999998 4.3267-11.1258 4.27372-10.9492 4.27372-10.913879999999999 4.78586-6.516539999999999T5.315659999999999-2.0838799999999997L6.604839999999999-4.150099999999999Q7.894019999999999-6.21632 9.1832-8.31786T10.5077-10.490039999999999Q10.578339999999999-10.61366 10.578339999999999-10.75494 10.578339999999999-11.17878 9.8013-11.249419999999999 9.483419999999999-11.249419999999999 9.483419999999999-11.443679999999999 9.483419999999999-11.46134 9.51874-11.673259999999999 9.57172-11.920499999999999 9.624699999999999-11.99114T9.85428-12.061779999999999Q9.8896-12.061779999999999 10.066199999999998-12.061779999999999T10.66664-12.04412 11.79688-12.026459999999998Q13.015419999999999-12.026459999999998 13.3333-12.061779999999999H13.456919999999998Q13.58054-11.93816 13.58054-11.867519999999999 13.58054-11.5673 13.4216-11.302399999999999 13.368619999999998-11.249419999999999 13.121379999999998-11.249419999999999 12.891799999999998-11.23176 12.697539999999998-11.214099999999998T12.32668-11.1258 12.04412-11.00218 11.832199999999998-10.860899999999999 11.6556-10.737279999999998 11.51432-10.578339999999999 11.390699999999999-10.45472L7.98232-4.980119999999999Q4.80352 0.15894 4.697559999999999 0.28256 4.6445799999999995 0.31788 4.5739399999999995 0.37085999999999997L4.25606 0.38852H4.13244Q3.8145599999999997 0.38852 3.8145599999999997 0.26489999999999997 3.76158 0.15894 3.1258199999999996-5.386299999999999 2.4547399999999997-11.00218 2.43708-11.055159999999999 2.3487799999999996-11.249419999999999 1.3421599999999998-11.249419999999999H1.0419399999999999Q0.9183199999999999-11.33772 0.9183199999999999-11.443679999999999Z"
        fill-opacity="1"
      ></path>
    </svg>
  </g>
  <rect
    x="2.7703750503586235"
    y="239.1175596062116"
    width="233.33333333333334"
    height="233.33333333333334"
    fill="#f2f5eb"
    fill-opacity="0.5"
    stroke="#000000"
    stroke-opacity="1"
    stroke-width="1.5"
    stroke-linecap="butt"
    rx="0"
    transform="rotate(0, 2.7703750503586235, 239.1175596062116)"
  >
    <title>`Rn`.icon</title>
  </rect>
  <g
    transform="rotate(0, 205.248989383692, 250.2875596062116)translate(205.248989383692, 250.2875596062116)"
    string="\mathbb{R}^n"
  >
    <title>`Rn`.text</title>
    <svg
      xmlns="http://www.w3.org/2000/svg"
      width="21.709438"
      height="17.66"
      role="img"
      focusable="false"
      viewBox="0.28256 -12.81222404 20.292399599999996 12.82988404"
    >
      <path
        stroke="none"
        fill="#000000"
        stroke-width="0"
        d="M0.30022-11.743899999999998Q0.30022-11.867519999999999 0.49448-12.061779999999999H3.9028599999999996Q7.328899999999999-12.026459999999998 7.752739999999999-11.95582 8.141259999999999-11.885179999999998 8.49446-11.779219999999999T9.112559999999998-11.549639999999998 9.60704-11.28474 9.99556-11.00218 10.31344-10.719619999999999 10.543019999999999-10.45472 10.719619999999999-10.207479999999999 10.84324-9.9779 10.913879999999999-9.78364L10.966859999999999-9.677679999999999Q11.055159999999999-9.3598 11.055159999999999-8.777019999999998 11.055159999999999-7.894019999999999 10.825579999999999-7.399539999999999 10.207479999999999-6.14568 8.35318-5.75716L8.0353-5.66886Q8.15892-5.4746 8.35318-5.15672T9.13022-3.99116 10.207479999999999-2.4900599999999997 11.249419999999999-1.27152 12.114759999999999-0.6181Q12.450299999999999-0.5297999999999999 12.450299999999999-0.28256 12.450299999999999-0.12362 12.23838 0.01766H9.006599999999999Q8.88298-0.10596 7.134639999999999-2.80794L5.40396-5.4746H4.73288V-3.2317799999999997Q4.768199999999999-1.18322 4.78586-1.0419399999999999 4.838839999999999-0.7417199999999999 5.13906-0.6710799999999999 5.2097-0.65342 5.63354-0.6181 6.0750399999999996-0.6181 6.23398-0.49448 6.392919999999999-0.30022 6.23398-0.05298L6.110359999999999 0.01766H0.49448Q0.28256-0.08829999999999999 0.28256-0.28256 0.28256-0.6181 0.9712999999999999-0.6181 1.69536-0.6710799999999999 1.7836599999999998-0.9183199999999999 1.8719599999999998-1.0595999999999999 1.8719599999999998-6.02206T1.7836599999999998-11.161119999999999Q1.6777-11.390699999999999 0.9712999999999999-11.443679999999999 0.30022-11.443679999999999 0.30022-11.743899999999998ZM4.25606-0.6181Q4.20308-0.7417199999999999 4.18542-0.7947T4.150099999999999-1.3774799999999998 4.11478-2.87858 4.11478-5.95142V-10.966859999999999L4.18542-11.214099999999998 4.3090399999999995-11.443679999999999H2.3487799999999996Q2.40176-11.32006 2.4194199999999997-11.26708T2.4547399999999997-10.64898 2.4900599999999997-9.13022 2.4900599999999997-6.02206Q2.4900599999999997-2.3134599999999996 2.4724-1.57174T2.36644-0.65342Q2.3487799999999996-0.63576 2.3487799999999996-0.6181H4.25606ZM8.07062-8.75936Q8.07062-9.536399999999999 7.929339999999999-10.066199999999998T7.5055-10.860899999999999 7.063999999999999-11.196439999999999 6.657819999999999-11.355379999999998Q6.604839999999999-11.355379999999998 5.986739999999999-11.443679999999999 5.297999999999999-11.443679999999999 4.962459999999999-11.214099999999998 4.78586-11.09048 4.768199999999999-10.772599999999999T4.73288-8.49446V-6.110359999999999H5.01544Q5.774819999999999-6.110359999999999 6.6225-6.21632 7.43486-6.42824 7.752739999999999-6.922719999999999T8.07062-8.75936ZM8.68872-9.483419999999999T8.68872-8.75936 8.618079999999999-7.540819999999999 8.441479999999999-6.869739999999999 8.28254-6.55186 8.194239999999999-6.37526Q8.194239999999999-6.3576 8.2119-6.3576 8.28254-6.3576 8.777019999999998-6.534199999999999 10.47238-7.063999999999999 10.47238-8.7417 10.47238-10.45472 8.42382-11.1258L8.07062-11.249419999999999 8.141259999999999-11.055159999999999Q8.37084-10.79026 8.618079999999999-9.907259999999999 8.68872-9.483419999999999 8.68872-8.75936ZM8.194239999999999-4.291379999999999Q7.258259999999999-5.5982199999999995 7.2406-5.5982199999999995 7.134639999999999-5.5982199999999995 7.081659999999999-5.5629 6.78144-5.5629 6.534199999999999-5.509919999999999H6.110359999999999L9.289159999999999-0.6181H10.931539999999998L10.70196-0.8829999999999999Q9.765979999999999-1.9249399999999999 8.194239999999999-4.291379999999999ZM13.595498019999999-10.876952939999999Q13.607983639999999-10.951866659999999 13.632954879999998-11.076722859999999T13.782782319999999-11.55117642 14.032494719999999-12.13800056 14.44452018-12.5999685 15.0188587-12.81222404Q15.46834102-12.81222404 15.767995899999999-12.58748288T16.1425645-12.1629718 16.21747822-11.90077378Q16.21747822-11.87580254 16.22996384-11.87580254L16.36730566-12.013144359999998Q17.12892848-12.81222404 18.10280684-12.81222404 18.777030319999998-12.81222404 19.18905578-12.4751123T19.61356686-11.48874832 19.1391133-9.528505979999998 18.664659739999998-7.9428322399999995Q18.664659739999998-7.618206119999999 18.876915279999995-7.618206119999999 18.951829-7.618206119999999 18.98928586-7.63069174 19.351368839999996-7.69311984 19.6385381-8.105145299999998T20.075534799999996-9.103994899999998Q20.10050604-9.20387986 20.3252472-9.20387986 20.574959599999996-9.20387986 20.574959599999996-9.103994899999998 20.574959599999996-9.091509279999999 20.525017119999998-8.9167106 20.42513216-8.55462762 20.250333480000002-8.20503026T19.675994959999997-7.50583554 18.81448718-7.1687237999999995Q18.22766304-7.1687237999999995 17.96546502-7.50583554T17.703267-8.20503026Q17.703267-8.44225704 18.152749319999998-9.703304659999999T18.614717259999995-11.601118899999998Q18.614717259999995-12.33777048 18.065349979999997-12.33777048H18.00292188Q16.929158559999998-12.33777048 16.192506979999997-11.076722859999999L16.105107639999996-10.92689542 15.69308218-9.25382234Q15.281056719999999-7.618206119999999 15.218628619999999-7.49334992 15.05631556-7.15623818 14.681746959999998-7.15623818 14.519433899999997-7.15623818 14.419548939999999-7.231151899999999T14.282207119999999-7.38097934 14.257235879999998-7.50583554Q14.257235879999998-7.668148599999999 14.731689439999998-9.5409916T15.23111424-11.576147659999998Q15.24359986-11.638575759999998 15.24359986-11.863316919999997 15.24359986-12.3502561 14.943944979999998-12.3502561 14.469491419999999-12.3502561 14.157350919999999-11.1016941 14.082437199999998-10.8519817 14.082437199999998-10.83949608 14.057465959999998-10.76458236 13.845210419999999-10.76458236H13.67041174Q13.595498019999999-10.83949608 13.595498019999999-10.876952939999999Z"
        fill-opacity="1"
      ></path>
    </svg>
  </g>
  <circle
    fill="#1a1ae6"
    fill-opacity="0.2"
    cx="147.62903140630837"
    cy="379.4461859006257"
    stroke="#000000"
    stroke-opacity="1"
    stroke-width="1"
    stroke-linecap="butt"
    r="77.79154260292249"
  >
    <title>`A`.icon</title>
  </circle>
  <circle
    fill="#1a1ae6"
    fill-opacity="0.2"
    cx="152.30758662187193"
    cy="366.88393076831767"
    stroke="#000000"
    stroke-opacity="1"
    stroke-width="1.5"
    stroke-dasharray="7,5"
    stroke-linecap="butt"
    r="54.29005780341437"
  >
    <title>`U`.icon</title>
  </circle>
  <g
    transform="rotate(0, 125.97725982291747, 358.11900901720196)translate(125.97725982291747, 358.11900901720196)"
    string="f^{-1}(V)"
  >
    <title>`U`.text</title>
    <svg
      xmlns="http://www.w3.org/2000/svg"
      width="53.02984301966663"
      height="19.17"
      role="img"
      focusable="false"
      viewBox="0.9298439015786224 -13.81007543875121 50.49390510627039 19.16935756239527"
    >
      <path
        stroke="none"
        fill="#000000"
        stroke-width="0"
        d="M1.9949378252050445 3.871531881118264Q2.0287503307169943 3.871531881118264 2.0963753417408943 3.905344386630214T2.2823441220566187 3.956063144898139 2.485219155128318 3.972969397654114Q2.7050004409559927 3.972969397654114 2.890969221271717 3.7531881118264394T3.161469265367316 3.262906781903166Q3.330531792927066 2.806437957491842 3.7362818590704645 0.6762501102389982T4.513969485845313-3.3812505511949906 4.8859070464767616-5.32546961813211V-5.376188376400035H4.091313166945938Q3.2967192874151157-5.376188376400035 3.246000529147191-5.410000881911985 3.1783755181232913-5.46071964017991 3.1783755181232913-5.579063409471734L3.2967192874151157-6.0524384866390335Q3.330531792927066-6.136969750418908 3.4319693094629153-6.136969750418908T4.2265631889937385-6.153876003174883Q5.038063321280536-6.153876003174883 5.038063321280536-6.170782255930858 5.038063321280536-6.204594761442808 5.190219596084311-7.016094893729606T5.39309462915601-7.996657553576153Q6.018625981127083-10.78618925831202 7.861407531528353-10.78618925831202 8.486938883499427-10.75237675280007 8.892688949642825-10.414251697680571T9.298439015786224-9.518220301613898Q9.298439015786224-8.9095952023988 8.94340770791075-8.639095158303201T8.233345092159801-8.351688861451628Q7.489469970896904-8.351688861451628 7.489469970896904-9.061751477202575 7.489469970896904-9.382970279566099 7.675438751212629-9.619657818149749T8.081188817356027-9.974689126025222L8.233345092159801-10.059220389805096Q7.962845048064203-10.160657906340946 7.7261575094805535-10.160657906340946 7.523282476408854-10.160657906340946 7.33731369609313-9.991595378781197T7.083719904753505-9.518220301613898Q6.965376135461681-9.027938971690626 6.813219860657906-8.199532586647852T6.542719816562307-6.796313607901931 6.424376047270482-6.187688508686833Q6.424376047270482-6.153876003174883 7.354219948849105-6.153876003174883 8.115001322867977-6.153876003174883 8.233345092159801-6.136969750418908T8.419313872475527-6.035532233883059Q8.436220125231502-5.967907222859158 8.385501366963577-5.748125937031484T8.300970103183701-5.477625892935885Q8.267157597671751-5.39309462915601 8.148813828379927-5.39309462915601T7.2358761795572795-5.376188376400035H6.289126025222682L5.9002822118352585-3.3136255401710906Q5.08878207954846 0.8791251433106976 4.767563277184936 1.9273128141811446 4.311094452773613 3.3643442984390157 3.58412558426669 4.057500661433989 2.9585942322956167 4.598500749625187 2.3499691330805184 4.598500749625187 1.8089690448893199 4.598500749625187 1.3694064732339712 4.277281947261663T0.9298439015786224 3.3643442984390157Q0.9298439015786224 2.7388129464679425 1.2848752094540965 2.4514066496163682T1.9949378252050445 2.164000352764794Q2.7388129464679425 2.164000352764794 2.7388129464679425 2.874062968515742 2.7388129464679425 3.1952817708792662 2.552844166152218 3.4319693094629153T2.147094100008819 3.787000617338389L1.9949378252050445 3.871531881118264ZM11.75640529147191-8.68235825910574T11.75640529147191-8.837743628185907 11.92374338125055-9.076798042155392H18.868274107064117Q19.047564917541226-8.981176276567599 19.047564917541226-8.837743628185907T18.868274107064117-8.59868921421642H11.92374338125055Q11.75640529147191-8.68235825910574 11.75640529147191-8.837743628185907ZM22.59752296498809-12.758236017285473L22.442137595907926-12.698472413793102Q22.274799506129288-12.638708810300733 21.964028767968955-12.578945206808362T21.270770967457448-12.49527616191904H21.04366927418644V-13.045101314048857H21.270770967457448Q21.832548840285735-13.069006755445805 22.31065766822471-13.224392124525972T22.98001002733927-13.511257421289354 23.31468620689655-13.774217276655788Q23.338591648293498-13.81007543875121 23.45811885527824-13.81007543875121 23.56569334156451-13.81007543875121 23.661315107152305-13.738359114560366V-10.164495625716553L23.67326782785078-6.578679416174266Q23.7569368727401-6.495010371284946 23.81670047623247-6.471104929887997T24.103565772995854-6.4232940470941 24.84463445630126-6.399388605697151H25.15540519446159V-5.849563453567334H25.023925266778374Q24.772918132110412-5.885421615662756 23.12344267572096-5.885421615662756 21.497872660728458-5.885421615662756 21.2468655260605-5.849563453567334H21.103432877678806V-6.399388605697151H21.41420361583914Q21.677163471205574-6.399388605697151 21.86840700238116-6.399388605697151T22.167225019843016-6.411341326395625 22.358468551018607-6.447199488491049 22.4540903166064-6.471104929887997 22.525806640797246-6.530868533380368 22.59752296498809-6.578679416174266V-12.758236017285473ZM28.465057765235027-3.0938442543434164Q28.465057765235027-4.260375694505688 28.63412029279478-5.308563365376135T29.0229641061822-7.117532410265455 29.648495458153274-8.605282652791251 30.290933062880324-9.738001587441573 31.000995678631273-10.61712673075227 31.558902019578444-11.191939324455419 31.981558338477818-11.546970632330893H32.2013396243055 32.2689646353294Q32.50565217391304-11.546970632330893 32.50565217391304-11.394814357527117 32.50565217391304-11.344095599259193 32.21824587706147-11.039783049651644T31.525089514066494-10.143751653584971 30.69668312902372-8.689813916571126 29.986620513272776-6.356751036246583 29.6992142164212-3.0938442543434164 29.986620513272776 0.15215627480377458 30.67977687626775 2.502125407884293 31.50818326131052 3.956063144898139 32.21824587706147 4.852094540964812 32.50565217391304 5.207125848840286Q32.50565217391304 5.35928212364406 32.252058382573416 5.35928212364406H32.2013396243055 31.981558338477818L31.50818326131052 4.953532057500661Q29.918995502248876 3.5165005732427903 29.192026633741953 1.3694064732339712T28.465057765235027-3.0938442543434164ZM34.33152747155834-9.822532851221448Q34.33152747155834-10.194470411852896 34.55130875738601-10.414251697680571H34.73727753770173Q35.44734015345268-10.363532939412647 36.5124340770791-10.363532939412647 38.50737190228415-10.363532939412647 38.86240321015962-10.414251697680571H39.03146573771937Q39.13290325425522-10.312814181144722 39.13290325425522-10.262095422876797T39.09909074874327-9.957782873269247Q39.01455948496339-9.704189081929623 38.94693447393949-9.636564070905724H38.59190316606402Q38.21996560543257-9.602751565393774 38.08471558338477-9.602751565393774 37.5944342534615-9.518220301613898 37.543715495193574-9.349157774054149 37.543715495193574-9.315345268542199 38.03399682511685-5.105688332304436T38.541184407796095-0.8622188905547226L39.77534085898227-2.840250463003792Q41.00949731016844-4.818282035452862 42.243653761354615-6.830126113413881T43.511622718052735-8.9095952023988Q43.579247729076634-9.027938971690626 43.579247729076634-9.163188993738425 43.579247729076634-9.568939059881822 42.83537260781374-9.636564070905724 42.53106005820619-9.636564070905724 42.53106005820619-9.822532851221448 42.53106005820619-9.839439103977423 42.56487256371813-10.042314137049122 42.61559132198606-10.279001675632772 42.666310080253986-10.346626686656672T42.88609136608166-10.414251697680571Q42.91990387159361-10.414251697680571 43.08896639915336-10.414251697680571T43.66377899285651-10.397345444924596 44.74577916923891-10.380439192168621Q45.912310609401175-10.380439192168621 46.216623159008726-10.414251697680571H46.33496692830055Q46.45331069759237-10.295907928388747 46.45331069759237-10.228282917364847 46.45331069759237-9.940876620513272 46.3011544227886-9.687282829173649 46.25043566452067-9.636564070905724 46.01374812593703-9.636564070905724 45.79396684010935-9.619657818149749 45.60799805979363-9.602751565393774T45.25296675191815-9.518220301613898 44.98246670782255-9.399876532322073 44.779591674750854-9.264626510274274 44.6105291471911-9.14628274098245 44.4752791251433-8.994126466178676 44.35693535585148-8.87578269688685L41.094028573948314-3.634844342534615Q38.050903077872825 1.2848752094540965 37.94946556133697 1.403218978745921 37.89874680306905 1.437031484257871 37.831121792045145 1.4877502425257958L37.5268092424376 1.5046564952817707H37.408465473145775Q37.10415292353822 1.5046564952817707 37.10415292353822 1.3863127259899461 37.0534341652703 1.2848752094540965 36.4448090660552-4.023688155922039 35.80237146132816-9.399876532322073 35.78546520857218-9.450595290589998 35.700933944792304-9.636564070905724 34.73727753770173-9.636564070905724H34.449871240850165Q34.33152747155834-9.721095334685598 34.33152747155834-9.822532851221448ZM47.46768586295087-11.530064379574918L47.53531087397477-11.546970632330893Q47.619842137754645-11.546970632330893 47.70437340153452-11.546970632330893H47.907248434606224L48.38062351177352-11.141220566187494Q49.969811270835166-9.704189081929623 50.69678013934209-7.5570949819208035T51.42374900784901-3.0938442543434164Q51.42374900784901-1.9442190669371195 51.25468648028926-0.8791251433106976T50.86584266690184 0.9298439015786224 50.240311314930764 2.4175941441044184 49.597873710203714 3.55031307875474 48.904717347208745 4.4125319693094625 48.36371725901754 4.970438310256636 47.974873445630124 5.29165711262016Q47.9241546873622 5.342375870888085 47.907248434606224 5.35928212364406H47.70437340153452Q47.56912337948672 5.35928212364406 47.5184046212188 5.35928212364406T47.43387335743892 5.308563365376135 47.383154599171 5.156407090572361Q47.40006085192697 5.139500837816386 47.56912337948672 4.936625804744686 50.18959255666284 2.2147191110327187 50.18959255666284-3.0938442543434164T47.56912337948672-11.124314313431519Q47.40006085192697-11.327189346503218 47.383154599171-11.344095599259193 47.383154599171-11.479345621306994 47.46768586295087-11.530064379574918Z"
        fill-opacity="1"
      ></path>
    </svg>
  </g>
  <g
    transform="rotate(0, 162.59424661394917, 425.2919314858218)translate(162.59424661394917, 425.2919314858218)"
    string="A"
  >
    <title>`A`.text</title>
    <svg
      xmlns="http://www.w3.org/2000/svg"
      width="13.245"
      height="17.66"
      role="img"
      focusable="false"
      viewBox="0.6181 -12.644559999999998 12.203059999999999 12.644559999999998"
    >
      <path
        stroke="none"
        fill="#000000"
        stroke-width="0"
        d="M3.6732799999999997-1.30684Q3.6732799999999997-0.8829999999999999 4.48564-0.81236 4.80352-0.81236 4.80352-0.6181 4.80352-0.60044 4.768199999999999-0.38852 4.7152199999999995-0.14128 4.66224-0.07064T4.432659999999999 0Q4.39734 0 4.220739999999999 0T3.6203-0.01766 2.4900599999999997-0.03532Q1.2362-0.03532 0.8829999999999999 0H0.7417199999999999Q0.6181-0.12362 0.6181-0.19426 0.65342-0.6710799999999999 0.84768-0.81236H1.09492Q2.33112-0.8653399999999999 2.8962399999999997-1.69536 3.0021999999999998-1.8013199999999998 6.0927-7.081659999999999T9.23618-12.43264Q9.3598-12.644559999999998 9.66002-12.644559999999998H9.8013 10.101519999999999Q10.207479999999999-12.485619999999999 10.207479999999999-12.46796L10.70196-6.76378Q11.196439999999999-1.0595999999999999 11.23176-1.0066199999999998 11.32006-0.81236 12.37966-0.81236 12.821159999999999-0.81236 12.821159999999999-0.63576 12.821159999999999-0.60044 12.76818-0.38852 12.7152-0.12362 12.679879999999999-0.07064T12.43264 0Q12.37966 0 12.1854 0T11.496659999999999-0.01766 10.207479999999999-0.03532Q8.54744-0.03532 8.0353 0H7.823379999999999Q7.71742-0.10596 7.71742-0.15894T7.752739999999999-0.47681999999999997Q7.823379999999999-0.7063999999999999 7.8587-0.7593799999999999L7.929339999999999-0.81236H8.28254Q9.23618-0.8653399999999999 9.41278-1.11258L9.200859999999999-3.76158H4.99778L4.39734-2.7373Q3.6732799999999997-1.5187599999999999 3.6732799999999997-1.30684ZM9.112559999999998-4.5916Q9.112559999999998-4.78586 8.90064-7.346559999999999T8.6534-9.924919999999998L8.17658-9.16554Q7.894019999999999-8.68872 7.063999999999999-7.275919999999999L5.4746-4.5916 7.2935799999999995-4.5739399999999995Q9.112559999999998-4.5739399999999995 9.112559999999998-4.5916Z"
        fill-opacity="1"
      ></path>
    </svg>
  </g>
  <g
    transform="rotate(0, 560.6480173410081, 421.7895644669331)translate(560.6480173410081, 421.7895644669331)"
    string="B"
  >
    <title>`B`.text</title>
    <svg
      xmlns="http://www.w3.org/2000/svg"
      width="13.403939999999999"
      height="17.66"
      role="img"
      focusable="false"
      viewBox="0.6181 -12.061779999999999 12.732859999999999 12.061779999999999"
    >
      <path
        stroke="none"
        fill="#000000"
        stroke-width="0"
        d="M4.07946-11.249419999999999Q3.6026399999999996-11.249419999999999 3.51434-11.26708T3.4260399999999995-11.46134Q3.4260399999999995-11.93816 3.6203-12.04412 3.6379599999999996-12.061779999999999 5.916099999999999-12.061779999999999 10.490039999999999-12.061779999999999 10.737279999999998-12.026459999999998 11.84986-11.84986 12.591579999999999-11.23176T13.350959999999999-9.60704Q13.350959999999999-8.476799999999999 12.32668-7.57614T9.9779-6.3576L9.8013-6.30462Q10.931539999999998-6.14568 11.6556-5.49226T12.397319999999999-3.8675399999999995Q12.397319999999999-2.57836 11.1258-1.3774799999999998T7.999979999999999-0.01766Q7.876359999999999 0 4.27372 0 0.7417199999999999 0 0.6887399999999999-0.03532 0.6181-0.08829999999999999 0.6181-0.17659999999999998 0.6181-0.30022 0.65342-0.42384 0.7417199999999999-0.7593799999999999 0.83002-0.7947 0.9006599999999999-0.81236 1.09492-0.81236H1.20088Q1.6777-0.81236 2.26048-0.8653399999999999 2.50772-0.9183199999999999 2.5960199999999998-1.0772599999999999 2.6489999999999996-1.1479 3.8675399999999995-5.986739999999999T5.08608-11.09048Q5.08608-11.214099999999998 4.07946-11.249419999999999ZM11.46134-9.60704Q11.46134-10.13684 11.196439999999999-10.595999999999998T10.3311-11.196439999999999Q10.207479999999999-11.23176 8.70638-11.249419999999999 8.35318-11.249419999999999 7.964659999999999-11.249419999999999T7.346559999999999-11.23176H7.11698Q6.852079999999999-11.214099999999998 6.78144-11.055159999999999 6.7461199999999995-10.98452 6.21632-8.93596 6.21632-8.88298 6.198659999999999-8.83L5.651199999999999-6.604839999999999H7.081659999999999Q8.51212-6.604839999999999 8.724039999999999-6.64016 9.78364-6.8167599999999995 10.61366-7.664439999999999T11.46134-9.60704ZM10.5077-4.04414Q10.5077-4.82118 10.101519999999999-5.33332T9.04192-5.9337599999999995Q8.93596-5.95142 7.57614-5.95142 5.49226-5.95142 5.4746-5.9337599999999995 5.4746-5.89844 5.174379999999999-4.6445799999999995T4.556279999999999-2.1545199999999998L4.2383999999999995-0.9183199999999999Q4.2383999999999995-0.84768 4.45032-0.84768T5.88078-0.81236Q7.45252-0.81236 7.57614-0.83002 8.671059999999999-0.9536399999999999 9.589379999999998-1.8542999999999998T10.5077-4.04414Z"
        fill-opacity="1"
      ></path>
    </svg>
  </g>
  <g>
    <marker
      id="`f`.icon-leftArrowhead"
      markerUnits="strokeWidth"
      markerWidth="9.95"
      markerHeight="8.12"
      viewBox="0 0 9.95 8.12"
      refX="2.36"
      refY="4.06"
      orient="auto-start-reverse"
    >
      <path
        d="M9.95 4.06 0 8.12 2.36 4.06 0 0 9.95 4.06z"
        fill="#000000"
        fill-opacity="1"
      ></path>
    </marker>
    <marker
      id="`f`.icon-rightArrowhead"
      markerUnits="strokeWidth"
      markerWidth="9.95"
      markerHeight="8.12"
      viewBox="0 0 9.95 8.12"
      refX="2.36"
      refY="4.06"
      orient="auto-start-reverse"
    >
      <path
        d="M9.95 4.06 0 8.12 2.36 4.06 0 0 9.95 4.06z"
        fill="#000000"
        fill-opacity="1"
      ></path>
    </marker>
    <path
      d="M 256.103708383692 355.7842262728783 L 366.53037505035866 355.7842262728783"
      stroke-opacity="1"
      stroke-width="2"
      stroke="#000000"
      stroke-linecap="butt"
      marker-end="url(#`f`.icon-rightArrowhead)"
    ></path>
    <title>`f`.icon</title>
  </g>
  <g
    transform="rotate(0, 314.58358057112775, 327.53056423064737)translate(314.58358057112775, 327.53056423064737)"
    string="f"
  >
    <title>`f`.text</title>
    <svg
      xmlns="http://www.w3.org/2000/svg"
      width="9.713"
      height="17.66"
      role="img"
      focusable="false"
      viewBox="0.9712999999999999 -12.450299999999999 8.7417 16.0706"
    >
      <path
        stroke="none"
        fill="#000000"
        stroke-width="0"
        d="M2.0838799999999997 2.8609199999999997Q2.1191999999999998 2.8609199999999997 2.18984 2.8962399999999997T2.3840999999999997 2.94922 2.5960199999999998 2.9668799999999997Q2.8255999999999997 2.9668799999999997 3.0198599999999995 2.7373T3.3024199999999997 2.22516Q3.47902 1.7483399999999998 3.9028599999999996-0.47681999999999997T4.7152199999999995-4.7152199999999995 5.103739999999999-6.7461199999999995V-6.799099999999999H4.27372Q3.4436999999999998-6.799099999999999 3.39072-6.83442 3.32008-6.8873999999999995 3.32008-7.011019999999999L3.4436999999999998-7.5055Q3.47902-7.593799999999999 3.58498-7.593799999999999T4.415-7.611459999999999Q5.26268-7.611459999999999 5.26268-7.6291199999999995 5.26268-7.664439999999999 5.42162-8.51212T5.63354-9.536399999999999Q6.28696-12.450299999999999 8.2119-12.450299999999999 8.865319999999999-12.41498 9.289159999999999-12.061779999999999T9.713-11.1258Q9.713-10.490039999999999 9.342139999999999-10.207479999999999T8.60042-9.907259999999999Q7.823379999999999-9.907259999999999 7.823379999999999-10.64898 7.823379999999999-10.98452 8.01764-11.23176T8.441479999999999-11.60262L8.60042-11.690919999999998Q8.31786-11.79688 8.07062-11.79688 7.8587-11.79688 7.664439999999999-11.62028T7.399539999999999-11.1258Q7.275919999999999-10.61366 7.11698-9.74832T6.83442-8.28254 6.7108-7.64678Q6.7108-7.611459999999999 7.682099999999999-7.611459999999999 8.476799999999999-7.611459999999999 8.60042-7.593799999999999T8.79468-7.487839999999999Q8.812339999999999-7.417199999999999 8.75936-7.187619999999999T8.671059999999999-6.90506Q8.63574-6.8167599999999995 8.51212-6.8167599999999995T7.558479999999999-6.799099999999999H6.56952L6.16334-4.6445799999999995Q5.315659999999999-0.26489999999999997 4.980119999999999 0.83002 4.503299999999999 2.33112 3.7439199999999997 3.0551799999999996 3.0904999999999996 3.6203 2.4547399999999997 3.6203 1.8896199999999999 3.6203 1.4304599999999998 3.28476T0.9712999999999999 2.33112Q0.9712999999999999 1.6777 1.3421599999999998 1.3774799999999998T2.0838799999999997 1.0772599999999999Q2.8609199999999997 1.0772599999999999 2.8609199999999997 1.8189799999999998 2.8609199999999997 2.1545199999999998 2.66666 2.40176T2.24282 2.77262L2.0838799999999997 2.8609199999999997Z"
        fill-opacity="1"
      ></path>
    </svg>
  </g>
  <g
    transform="rotate(0, 603.513894383692, 250.2875596062116)translate(603.513894383692, 250.2875596062116)"
    string="\mathbb{R}^m"
  >
    <title>`Rm`.text</title>
    <svg
      xmlns="http://www.w3.org/2000/svg"
      width="25.179627999999997"
      height="17.66"
      role="img"
      focusable="false"
      viewBox="0.28256 -12.81222404 23.750916339999996 12.82988404"
    >
      <path
        stroke="none"
        fill="#000000"
        stroke-width="0"
        d="M0.30022-11.743899999999998Q0.30022-11.867519999999999 0.49448-12.061779999999999H3.9028599999999996Q7.328899999999999-12.026459999999998 7.752739999999999-11.95582 8.141259999999999-11.885179999999998 8.49446-11.779219999999999T9.112559999999998-11.549639999999998 9.60704-11.28474 9.99556-11.00218 10.31344-10.719619999999999 10.543019999999999-10.45472 10.719619999999999-10.207479999999999 10.84324-9.9779 10.913879999999999-9.78364L10.966859999999999-9.677679999999999Q11.055159999999999-9.3598 11.055159999999999-8.777019999999998 11.055159999999999-7.894019999999999 10.825579999999999-7.399539999999999 10.207479999999999-6.14568 8.35318-5.75716L8.0353-5.66886Q8.15892-5.4746 8.35318-5.15672T9.13022-3.99116 10.207479999999999-2.4900599999999997 11.249419999999999-1.27152 12.114759999999999-0.6181Q12.450299999999999-0.5297999999999999 12.450299999999999-0.28256 12.450299999999999-0.12362 12.23838 0.01766H9.006599999999999Q8.88298-0.10596 7.134639999999999-2.80794L5.40396-5.4746H4.73288V-3.2317799999999997Q4.768199999999999-1.18322 4.78586-1.0419399999999999 4.838839999999999-0.7417199999999999 5.13906-0.6710799999999999 5.2097-0.65342 5.63354-0.6181 6.0750399999999996-0.6181 6.23398-0.49448 6.392919999999999-0.30022 6.23398-0.05298L6.110359999999999 0.01766H0.49448Q0.28256-0.08829999999999999 0.28256-0.28256 0.28256-0.6181 0.9712999999999999-0.6181 1.69536-0.6710799999999999 1.7836599999999998-0.9183199999999999 1.8719599999999998-1.0595999999999999 1.8719599999999998-6.02206T1.7836599999999998-11.161119999999999Q1.6777-11.390699999999999 0.9712999999999999-11.443679999999999 0.30022-11.443679999999999 0.30022-11.743899999999998ZM4.25606-0.6181Q4.20308-0.7417199999999999 4.18542-0.7947T4.150099999999999-1.3774799999999998 4.11478-2.87858 4.11478-5.95142V-10.966859999999999L4.18542-11.214099999999998 4.3090399999999995-11.443679999999999H2.3487799999999996Q2.40176-11.32006 2.4194199999999997-11.26708T2.4547399999999997-10.64898 2.4900599999999997-9.13022 2.4900599999999997-6.02206Q2.4900599999999997-2.3134599999999996 2.4724-1.57174T2.36644-0.65342Q2.3487799999999996-0.63576 2.3487799999999996-0.6181H4.25606ZM8.07062-8.75936Q8.07062-9.536399999999999 7.929339999999999-10.066199999999998T7.5055-10.860899999999999 7.063999999999999-11.196439999999999 6.657819999999999-11.355379999999998Q6.604839999999999-11.355379999999998 5.986739999999999-11.443679999999999 5.297999999999999-11.443679999999999 4.962459999999999-11.214099999999998 4.78586-11.09048 4.768199999999999-10.772599999999999T4.73288-8.49446V-6.110359999999999H5.01544Q5.774819999999999-6.110359999999999 6.6225-6.21632 7.43486-6.42824 7.752739999999999-6.922719999999999T8.07062-8.75936ZM8.68872-9.483419999999999T8.68872-8.75936 8.618079999999999-7.540819999999999 8.441479999999999-6.869739999999999 8.28254-6.55186 8.194239999999999-6.37526Q8.194239999999999-6.3576 8.2119-6.3576 8.28254-6.3576 8.777019999999998-6.534199999999999 10.47238-7.063999999999999 10.47238-8.7417 10.47238-10.45472 8.42382-11.1258L8.07062-11.249419999999999 8.141259999999999-11.055159999999999Q8.37084-10.79026 8.618079999999999-9.907259999999999 8.68872-9.483419999999999 8.68872-8.75936ZM8.194239999999999-4.291379999999999Q7.258259999999999-5.5982199999999995 7.2406-5.5982199999999995 7.134639999999999-5.5982199999999995 7.081659999999999-5.5629 6.78144-5.5629 6.534199999999999-5.509919999999999H6.110359999999999L9.289159999999999-0.6181H10.931539999999998L10.70196-0.8829999999999999Q9.765979999999999-1.9249399999999999 8.194239999999999-4.291379999999999ZM13.595498019999999-10.876952939999999Q13.607983639999999-10.951866659999999 13.632954879999998-11.076722859999999T13.782782319999999-11.55117642 14.032494719999999-12.13800056 14.432034559999998-12.5999685 14.981401839999998-12.81222404 15.518283499999999-12.724824699999997 15.892852099999997-12.500083539999999 16.092622019999997-12.2253999 16.192506979999997-11.988173119999999L16.21747822-11.90077378Q16.21747822-11.87580254 16.22996384-11.87580254L16.36730566-12.013144359999998Q17.11644286-12.81222404 18.12777808-12.81222404 18.34003362-12.81222404 18.5148323-12.7872528T18.83945842-12.699853459999998 19.0766852-12.57499726 19.263969499999998-12.425169819999999 19.388825699999998-12.262856759999998 19.48871066-12.1005437 19.538653139999997-11.95071626 19.57611-11.838345679999998 19.60108124-11.750946339999999L19.700966199999996-11.87580254Q20.48756026-12.81222404 21.56132358-12.81222404 22.235547059999995-12.81222404 22.647572519999997-12.4751123T23.0720836-11.48874832Q23.0720836-10.8519817 22.59763004-9.516020359999999T22.123176479999998-7.917860999999999Q22.135662099999998-7.743062319999999 22.185604579999996-7.680634219999999T22.372888879999998-7.618206119999999Q22.72248624-7.618206119999999 23.02214112-7.992774719999999T23.509080299999997-9.016595559999999Q23.54653716-9.153937379999999 23.583994019999995-9.178908619999998T23.78376394-9.20387986Q24.033476339999996-9.20387986 24.033476339999996-9.103994899999998 24.033476339999996-9.091509279999999 23.983533859999998-8.9167106 23.883648899999997-8.55462762 23.70885022-8.20503026T23.134511699999997-7.50583554 22.273003919999997-7.1687237999999995Q21.686179779999996-7.1687237999999995 21.423981759999997-7.50583554T21.161783739999997-8.20503026Q21.161783739999997-8.44225704 21.61126606-9.703304659999999T22.073234-11.601118899999998Q22.073234-12.33777048 21.523866719999997-12.33777048H21.46143862Q20.387675299999998-12.33777048 19.651023719999998-11.076722859999999L19.563624379999997-10.92689542 19.151598919999998-9.25382234Q18.73957346-7.618206119999999 18.677145359999997-7.49334992 18.5148323-7.15623818 18.1402637-7.15623818 17.97795064-7.15623818 17.87806568-7.24363752T17.74072386-7.393464959999999 17.703267-7.518321159999999Q17.703267-7.655662979999999 18.12777808-9.30376482L18.5772604-11.126665339999999Q18.614717259999995-11.313949639999999 18.614717259999995-11.601118899999998 18.614717259999995-12.33777048 18.065349979999997-12.33777048H18.00292188Q16.929158559999998-12.33777048 16.192506979999997-11.076722859999999L16.105107639999996-10.92689542 15.69308218-9.25382234Q15.281056719999999-7.618206119999999 15.218628619999999-7.49334992 15.05631556-7.15623818 14.681746959999998-7.15623818 14.519433899999997-7.15623818 14.419548939999999-7.231151899999999T14.282207119999999-7.38097934 14.257235879999998-7.50583554Q14.257235879999998-7.668148599999999 14.731689439999998-9.55347722 15.218628619999999-11.4762627 15.218628619999999-11.563662039999999 15.25608548-11.750946339999999 15.25608548-11.90077378 15.25608548-12.3502561 14.943944979999998-12.3502561 14.669261339999998-12.3502561 14.481977039999999-12.000658739999999T14.19480778-11.23903592 14.044980339999999-10.7895536Q14.0200091-10.76458236 13.845210419999999-10.76458236H13.67041174Q13.595498019999999-10.83949608 13.595498019999999-10.876952939999999Z"
        fill-opacity="1"
      ></path>
    </svg>
  </g>
</svg>
