<svg version="1.2" xmlns="http://www.w3.org/2000/svg" viewBox="0 0 800 700">
  <circle
    fill="#000000"
    fill-opacity="1"
    cx="485.7235181620521"
    cy="296.3197044194135"
    stroke="#000000"
    stroke-opacity="1"
    stroke-width="0"
    stroke-linecap="butt"
    r="4"
  >
    <title>`P`.icon</title>
  </circle>
  <g
    transform="rotate(0, 492.7234972132241, 278.0745226209478)translate(492.7234972132241, 278.0745226209478)"
    string="P"
  >
    <title>`P`.text</title>
    <svg
      xmlns="http://www.w3.org/2000/svg"
      width="14.38916"
      height="19.16"
      role="img"
      focusable="false"
      viewBox="0.63228 -13.08628 13.75688 13.08628"
    >
      <path
        stroke="none"
        fill="#000000"
        stroke-width="0"
        d="M5.49892-12.03248Q5.49892-12.1666 4.4068-12.20492 3.94696-12.20492 3.81284-12.22408T3.67872-12.41568Q3.67872-12.43484 3.71704-12.62644 3.832-13.00964 3.88948-13.04796T7.60652-13.08628Q11.24692-13.06712 11.496-13.0288 12.72224-12.81804 13.54612-12.08996T14.38916-10.1548Q14.38916-8.67948 13.1246-7.45324 11.80256-6.15036 9.71412-5.80548 9.58-5.78632 7.70232-5.76716H5.88212L5.30732-3.48712Q4.73252-1.26456 4.73252-1.13044 4.73252-1.0538 4.75168-1.03464T4.8858-0.958 5.21152-0.91968 5.8438-0.88136H6.43776Q6.55272-0.70892 6.55272-0.6706 6.55272-0.36404 6.4186-0.0958 6.3228 0 6.11204 0 6.05456 0 5.40312-0.01916T3.48712-0.03832Q2.2992-0.03832 1.66692-0.03832T0.97716-0.01916Q0.63228-0.01916 0.63228-0.21076 0.63228-0.24908 0.68976-0.479 0.7664-0.78556 0.84304-0.82388T1.28372-0.88136Q1.80104-0.88136 2.43332-0.93884 2.70156-0.99632 2.79736-1.16876 2.85484-1.2454 4.17688-6.49524T5.49892-12.03248ZM12.3582-10.61464Q12.3582-10.86372 12.31988-11.017T12.14744-11.43852 11.66844-11.86004 10.7296-12.1666Q10.59548-12.18576 9.1968-12.20492 8.87108-12.20492 8.5262-12.20492T7.97056-12.18576 7.74064-12.18576Q7.49156-12.1666 7.39576-12.01332 7.35744-11.89836 7.03172-10.538T6.36112-7.89392 6.01624-6.59104Q6.01624-6.55272 7.5682-6.55272H7.79812 8.2388Q10.38472-6.55272 11.3044-7.51072 11.82172-8.02804 12.08996-9.02436T12.3582-10.61464Z"
        fill-opacity="1"
      ></path>
    </svg>
  </g>
  <g style="solid">
    <marker
      id="`KL`.icon-leftArrowhead"
      markerUnits="strokeWidth"
      markerWidth="9.95"
      markerHeight="8.12"
      viewBox="0 0 9.95 8.12"
      refX="2.36"
      refY="4.06"
      orient="auto-start-reverse"
    >
      <path
        d="M9.95 4.06 0 8.12 2.36 4.06 0 0 9.95 4.06z"
        fill="#000000"
        fill-opacity="1"
      ></path>
    </marker>
    <marker
      id="`KL`.icon-rightArrowhead"
      markerUnits="strokeWidth"
      markerWidth="9.95"
      markerHeight="8.12"
      viewBox="0 0 9.95 8.12"
      refX="2.36"
      refY="4.06"
      orient="auto-start-reverse"
    >
      <path
        d="M9.95 4.06 0 8.12 2.36 4.06 0 0 9.95 4.06z"
        fill="#000000"
        fill-opacity="1"
      ></path>
    </marker>
    <path
      d="M 381.10199679531104 593.0102622491395 L 606.2400808793736 277.2228930764652"
      stroke-opacity="1"
      stroke-width="1.75"
      stroke="#000000"
      stroke-linecap="butt"
    ></path>
    <title>`KL`.icon</title>
  </g>
  <circle
    fill="#000000"
    fill-opacity="1"
    cx="606.2400808793736"
    cy="277.2228930764652"
    stroke="#000000"
    stroke-opacity="1"
    stroke-width="0"
    stroke-linecap="butt"
    r="4"
  >
    <title>`L`.icon</title>
  </circle>
  <g
    transform="rotate(0, 586.1920533507591, 261.66596330773746)translate(586.1920533507591, 261.66596330773746)"
    string="L"
  >
    <title>`L`.text</title>
    <svg
      xmlns="http://www.w3.org/2000/svg"
      width="13.04796"
      height="19.16"
      role="img"
      focusable="false"
      viewBox="0.61312 -13.08628 11.7834 13.10544"
    >
      <path
        stroke="none"
        fill="#000000"
        stroke-width="0"
        d="M4.36848-12.20492Q3.71704-12.20492 3.67872-12.28156 3.65956-12.31988 3.65956-12.43484 3.65956-12.89468 3.87032-13.06712 3.90864-13.08628 4.15772-13.08628 5.19236-13.0288 6.59104-13.0288 9.2926-13.0288 9.69496-13.08628H9.92488Q10.03984-12.97132 10.03984-12.91384T10.00152-12.56896Q9.90572-12.28156 9.82908-12.20492H9.100999999999999Q7.77896-12.18576 7.54904-12.03248 7.41492-11.95584 7.2808-11.496T5.99708-6.43776Q5.69052-5.19236 5.34564-3.79368T4.82832-1.68608L4.65588-0.99632Q4.65588-0.91968 4.82832-0.91968T5.95876-0.88136H6.28448Q6.8976-0.88136 7.26164-0.90052T8.20048-1.03464 9.15848-1.37952 10.00152-2.03096 10.80624-3.08476Q11.1128-3.65956 11.38104-4.36848T11.70676-5.1732Q11.80256-5.2306799999999996 12.03248-5.2306799999999996H12.28156Q12.39652-5.05824 12.39652-5.01992T12.01332-3.88948 11.17028-1.59028 10.67212-0.17244Q10.6338-0.07664 10.59548-0.05748T10.28892 0 9.46504 0.01916Q9.25428 0.01916 8.00888 0.01916T5.63304 0H2.22256Q0.61312 0 0.61312-0.1916 0.61312-0.32572 0.65144-0.45984 0.74724-0.82388 0.84304-0.8622 0.91968-0.88136 1.13044-0.88136H1.2454Q1.76272-0.88136 2.395-0.93884 2.66324-0.99632 2.75904-1.16876 2.81652-1.2454 4.13856-6.49524T5.4606-12.03248Q5.4606-12.1666 4.36848-12.20492Z"
        fill-opacity="1"
      ></path>
    </svg>
  </g>
  <circle
    fill="#000000"
    fill-opacity="1"
    cx="381.10199679531104"
    cy="593.0102622491395"
    stroke="#000000"
    stroke-opacity="1"
    stroke-width="0"
    stroke-linecap="butt"
    r="4"
  >
    <title>`K`.icon</title>
  </circle>
  <circle
    fill="#000000"
    fill-opacity="1"
    cx="550.9802994776392"
    cy="347.57629626389223"
    stroke="#000000"
    stroke-opacity="1"
    stroke-width="0"
    stroke-linecap="butt"
    r="4"
  >
    <title>`m`.icon</title>
  </circle>
  <g
    transform="rotate(0, 357.0687533461458, 582.4733453792237)translate(357.0687533461458, 582.4733453792237)"
    string="K"
  >
    <title>`K`.text</title>
    <svg
      xmlns="http://www.w3.org/2000/svg"
      width="17.03324"
      height="19.16"
      role="img"
      focusable="false"
      viewBox="0.59396 -13.08628 16.43928 13.08628"
    >
      <path
        stroke="none"
        fill="#000000"
        stroke-width="0"
        d="M5.4606-12.03248Q5.4606-12.1666 4.36848-12.20492 3.9278-12.20492 3.79368-12.22408T3.65956-12.39652Q3.65956-12.43484 3.69788-12.66476 3.81284-13.04796 3.88948-13.06712 3.9278-13.08628 4.10024-13.08628H4.19604Q4.9816-13.04796 6.8018-13.04796 7.45324-13.04796 8.00888-13.04796T8.87108-13.06712 9.25428-13.06712Q9.58-13.06712 9.58-12.91384 9.58-12.81804 9.52252-12.6456 9.50336-12.60728 9.50336-12.53064T9.4842-12.41568 9.44588-12.33904 9.3884-12.28156 9.31176-12.24324 9.17764-12.22408 9.0052-12.20492 8.73696-12.20492Q7.97056-12.18576 7.7598-12.14744T7.41492-11.93668L5.86296-5.8438Q5.88212-5.8438 9.3884-8.60284T12.99048-11.43852Q13.25872-11.70676 13.25872-11.879199999999999 13.25872-12.1666 12.77972-12.20492 12.47316-12.20492 12.47316-12.41568 12.47316-12.454 12.53064-12.68392T12.62644-12.97132Q12.68392-13.06712 12.95216-13.06712 13.0288-13.06712 13.62276-13.04796T15.15556-13.0288Q15.59624-13.0288 16.07524-13.04796T16.65004-13.06712Q17.03324-13.06712 17.03324-12.87552 17.03324-12.454 16.87996-12.30072 16.82248-12.20492 16.51592-12.20492 15.07892-12.10912 13.91016-11.22776 13.6036-11.03616 12.56896-10.23144T10.65296-8.7178L9.75244-8.00888 9.92488-7.58736Q10.09732-7.16584 10.461359999999999-6.30364T11.13196-4.67504Q12.56896-1.28372 12.66476-1.16876 12.70308-1.13044 12.76056-1.09212 13.0288-0.90052 13.73772-0.88136H14.14008Q14.25504-0.72808 14.25504-0.70892T14.19756-0.36404Q14.12092-0.11496 14.00596 0H13.7952Q13.0288-0.05748 11.975-0.05748 9.63748-0.05748 9.35008 0H9.15848Q9.04352-0.11496 9.04352-0.17244T9.08184-0.51732Q9.15848-0.7664 9.1968-0.82388T9.40756-0.88136H9.46504Q10.42304-0.88136 10.42304-1.36036 10.42304-1.437 9.90572-2.70156T9.2926-4.13856L8.18132-6.78264 6.87844-5.76716 5.57556-4.75168 5.13488-2.9697999999999998Q4.6942-1.20708 4.6942-1.11128 4.6942-0.97716 4.84748-0.93884T5.80548-0.88136H6.39944Q6.5144-0.70892 6.5144-0.6706 6.5144-0.36404 6.38028-0.0958 6.28448 0 6.07372 0 6.01624 0 5.3648-0.01916T3.4488-0.03832Q2.26088-0.03832 1.6286-0.03832T0.93884-0.01916Q0.59396-0.01916 0.59396-0.21076 0.59396-0.24908 0.65144-0.479 0.72808-0.78556 0.80472-0.82388T1.2454-0.88136Q1.76272-0.88136 2.395-0.93884 2.66324-0.99632 2.75904-1.16876 2.81652-1.2454 4.13856-6.49524T5.4606-12.03248Z"
        fill-opacity="1"
      ></path>
    </svg>
  </g>
  <g
    transform="rotate(0, 552.5016596790952, 354.4089885355899)translate(552.5016596790952, 354.4089885355899)"
    string="m"
  >
    <title>`m`.text</title>
    <svg
      xmlns="http://www.w3.org/2000/svg"
      width="16.82248"
      height="19.16"
      role="img"
      focusable="false"
      viewBox="0.40236 -8.46872 16.01776 8.67948"
    >
      <path
        stroke="none"
        fill="#000000"
        stroke-width="0"
        d="M0.40236-5.49892Q0.42152-5.61388 0.45984-5.80548T0.68976-6.53356 1.07296-7.43408 1.68608-8.143 2.52912-8.46872 3.353-8.3346 3.9278-7.98972 4.23436-7.5682 4.38764-7.20416L4.42596-7.07004Q4.42596-7.03172 4.44512-7.03172L4.65588-7.24248Q5.80548-8.46872 7.35744-8.46872 7.68316-8.46872 7.9514-8.4304T8.44956-8.29628 8.8136-8.10468 9.100999999999999-7.87476 9.2926-7.62568 9.44588-7.3766 9.52252-7.14668 9.58-6.97424 9.61832-6.84012L9.7716-7.03172Q10.97868-8.46872 12.62644-8.46872 13.66108-8.46872 14.29336-7.9514T14.9448-6.43776Q14.9448-5.4606 14.21672-3.41048T13.48864-0.958Q13.5078-0.68976 13.58444-0.59396T13.87184-0.49816Q14.40832-0.49816 14.86816-1.07296T15.6154-2.64408Q15.67288-2.85484 15.73036-2.89316T16.03692-2.93148Q16.42012-2.93148 16.42012-2.7782 16.42012-2.75904 16.34348-2.4908 16.1902-1.93516 15.92196-1.39868T15.0406-0.32572 13.71856 0.1916Q12.81804 0.1916 12.41568-0.32572T12.01332-1.39868Q12.01332-1.76272 12.70308-3.69788T13.412-6.6102Q13.412-7.74064 12.56896-7.74064H12.47316Q10.8254-7.74064 9.69496-5.80548L9.56084-5.57556 8.92856-3.00812Q8.29628-0.49816 8.20048-0.30656 7.9514 0.21076 7.3766 0.21076 7.12752 0.21076 6.97424 0.07664T6.76348-0.15328 6.706-0.34488Q6.706-0.55564 7.35744-3.08476L8.0472-5.88212Q8.10468-6.16952 8.10468-6.6102 8.10468-7.74064 7.26164-7.74064H7.16584Q5.51808-7.74064 4.38764-5.80548L4.25352-5.57556 3.62124-3.00812Q2.98896-0.49816 2.89316-0.30656 2.64408 0.21076 2.06928 0.21076 1.8202 0.21076 1.66692 0.0958T1.45616-0.13412 1.41784-0.32572Q1.41784-0.5748 2.14592-3.46796 2.89316-6.4186 2.89316-6.55272 2.95064-6.84012 2.95064-7.07004 2.95064-7.7598 2.47164-7.7598 2.05012-7.7598 1.76272-7.22332T1.32204-6.05456 1.09212-5.3648Q1.0538-5.32648 0.78556-5.32648H0.51732Q0.40236-5.44144 0.40236-5.49892Z"
        fill-opacity="1"
      ></path>
    </svg>
  </g>
  <circle
    fill="#000000"
    fill-opacity="1"
    cx="408.2570418434953"
    cy="130.69581098351355"
    stroke="#000000"
    stroke-opacity="1"
    stroke-width="0"
    stroke-linecap="butt"
    r="4"
  >
    <title>`J`.icon</title>
  </circle>
  <g
    transform="rotate(0, 389.1288063319411, 128.93890761131897)translate(389.1288063319411, 128.93890761131897)"
    string="J"
  >
    <title>`J`.text</title>
    <svg
      xmlns="http://www.w3.org/2000/svg"
      width="12.12828"
      height="19.16"
      role="img"
      focusable="false"
      viewBox="1.09212 -13.08628 11.03616 13.5078"
    >
      <path
        stroke="none"
        fill="#000000"
        stroke-width="0"
        d="M8.56452-11.975Q8.56452-12.20492 6.78264-12.20492H6.30364Q6.18868-12.30072 6.18868-12.3582T6.227-12.72224Q6.30364-12.97132 6.4186-13.08628H6.74432Q7.52988-13.04796 9.54168-13.04796 10.36556-13.04796 10.88288-13.04796T11.5918-13.06712 11.86004-13.06712Q12.12828-13.06712 12.12828-12.87552 12.12828-12.8372 12.0708-12.60728 11.99416-12.30072 11.93668-12.2624T11.57264-12.20492Q10.57632-12.20492 10.4422-11.93668 10.36556-11.6876 9.25428-7.20416 8.0472-2.45248 8.02804-2.43332 7.60652-1.22624 6.38028-0.40236T3.7362 0.42152Q2.62492 0.42152 1.85852-0.15328T1.09212-1.68608Q1.09212-2.4908 1.5328-2.91232T2.52912-3.33384Q3.39132-3.33384 3.48712-2.4908 3.48712-1.87768 3.14224-1.5328T2.35668-1.07296Q2.2034-1.03464 2.2034-1.01548T2.33752-0.84304Q2.83568-0.2874 3.77452-0.2874 4.5026-0.2874 5.19236-0.90052T6.20784-2.4908Q6.28448-2.72072 7.41492-7.2808T8.56452-11.975Z"
        fill-opacity="1"
      ></path>
    </svg>
  </g>
  <g style="solid">
    <marker
      id="`JKL`.PQ-leftArrowhead"
      markerUnits="strokeWidth"
      markerWidth="9.95"
      markerHeight="8.12"
      viewBox="0 0 9.95 8.12"
      refX="2.36"
      refY="4.06"
      orient="auto-start-reverse"
    >
      <path
        d="M9.95 4.06 0 8.12 2.36 4.06 0 0 9.95 4.06z"
        fill="#000000"
        fill-opacity="1"
      ></path>
    </marker>
    <marker
      id="`JKL`.PQ-rightArrowhead"
      markerUnits="strokeWidth"
      markerWidth="9.95"
      markerHeight="8.12"
      viewBox="0 0 9.95 8.12"
      refX="2.36"
      refY="4.06"
      orient="auto-start-reverse"
    >
      <path
        d="M9.95 4.06 0 8.12 2.36 4.06 0 0 9.95 4.06z"
        fill="#000000"
        fill-opacity="1"
      ></path>
    </marker>
    <path
      d="M 408.2570418434953 130.69581098351355 L 381.10199679531104 593.0102622491395"
      stroke-opacity="1"
      stroke-width="1.75"
      stroke="#000000"
      stroke-linecap="butt"
    ></path>
    <title>`JKL`.PQ</title>
  </g>
  <g style="solid">
    <marker
      id="`JKL`.QR-leftArrowhead"
      markerUnits="strokeWidth"
      markerWidth="9.95"
      markerHeight="8.12"
      viewBox="0 0 9.95 8.12"
      refX="2.36"
      refY="4.06"
      orient="auto-start-reverse"
    >
      <path
        d="M9.95 4.06 0 8.12 2.36 4.06 0 0 9.95 4.06z"
        fill="#000000"
        fill-opacity="1"
      ></path>
    </marker>
    <marker
      id="`JKL`.QR-rightArrowhead"
      markerUnits="strokeWidth"
      markerWidth="9.95"
      markerHeight="8.12"
      viewBox="0 0 9.95 8.12"
      refX="2.36"
      refY="4.06"
      orient="auto-start-reverse"
    >
      <path
        d="M9.95 4.06 0 8.12 2.36 4.06 0 0 9.95 4.06z"
        fill="#000000"
        fill-opacity="1"
      ></path>
    </marker>
    <path
      d="M 381.10199679531104 593.0102622491395 L 606.2400808793736 277.2228930764652"
      stroke-opacity="1"
      stroke-width="1.75"
      stroke="#000000"
      stroke-linecap="butt"
    ></path>
    <title>`JKL`.QR</title>
  </g>
  <g style="solid">
    <marker
      id="`JKL`.RP-leftArrowhead"
      markerUnits="strokeWidth"
      markerWidth="9.95"
      markerHeight="8.12"
      viewBox="0 0 9.95 8.12"
      refX="2.36"
      refY="4.06"
      orient="auto-start-reverse"
    >
      <path
        d="M9.95 4.06 0 8.12 2.36 4.06 0 0 9.95 4.06z"
        fill="#000000"
        fill-opacity="1"
      ></path>
    </marker>
    <marker
      id="`JKL`.RP-rightArrowhead"
      markerUnits="strokeWidth"
      markerWidth="9.95"
      markerHeight="8.12"
      viewBox="0 0 9.95 8.12"
      refX="2.36"
      refY="4.06"
      orient="auto-start-reverse"
    >
      <path
        d="M9.95 4.06 0 8.12 2.36 4.06 0 0 9.95 4.06z"
        fill="#000000"
        fill-opacity="1"
      ></path>
    </marker>
    <path
      d="M 606.2400808793736 277.2228930764652 L 408.2570418434953 130.69581098351355"
      stroke-opacity="1"
      stroke-width="1.75"
      stroke="#000000"
      stroke-linecap="butt"
    ></path>
    <title>`JKL`.RP</title>
  </g>
  <circle
    fill="none"
    cx="485.7235181620521"
    cy="296.3197044194135"
    stroke="#8c90c1"
    stroke-opacity="0.6"
    stroke-width="1.75"
    stroke-linecap="butt"
    r="87.04473070922947"
  >
    <title>`JKL`.icon</title>
  </circle>
  <g>
    <filter id="`PML`.mark-shadow" x="0" y="0" width="200%" height="200%">
      <feOffset result="offOut" in="SourceAlpha" dx="5" dy="5"></feOffset>
      <feGaussianBlur
        result="blurOut"
        in="offOut"
        stdDeviation="4"
      ></feGaussianBlur>
      <feBlend in="SourceGraphic" in2="blurOut" mode="normal"></feBlend>
      <feComponentTransfer>
        <feFuncA type="linear" slope="0.5"></feFuncA>
      </feComponentTransfer>
      <feMerge>
        <feMergeNode></feMergeNode>
        <feMergeNode in="SourceGraphic"></feMergeNode>
      </feMerge>
    </filter>
    <path
      stroke="#000000"
      fill="none"
      stroke-width="2"
      stroke-opacity="1"
      d="M 535.251991869781 335.22233967566206 L 547.6059484580112 319.49403206780397 L 563.334255746654 331.8479881832786"
    ></path>
    <title>`PML`.mark</title>
  </g>
  <g style="solid">
    <marker
      id="`PML`.side1-leftArrowhead"
      markerUnits="strokeWidth"
      markerWidth="9.95"
      markerHeight="8.12"
      viewBox="0 0 9.95 8.12"
      refX="2.36"
      refY="4.06"
      orient="auto-start-reverse"
    >
      <path
        d="M9.95 4.06 0 8.12 2.36 4.06 0 0 9.95 4.06z"
        fill="#8c90c1"
        fill-opacity="0.4"
      ></path>
    </marker>
    <marker
      id="`PML`.side1-rightArrowhead"
      markerUnits="strokeWidth"
      markerWidth="9.95"
      markerHeight="8.12"
      viewBox="0 0 9.95 8.12"
      refX="2.36"
      refY="4.06"
      orient="auto-start-reverse"
    >
      <path
        d="M9.95 4.06 0 8.12 2.36 4.06 0 0 9.95 4.06z"
        fill="#8c90c1"
        fill-opacity="0.4"
      ></path>
    </marker>
    <path
      d="M 485.7235181620521 296.3197044194135 L 550.9802994776392 347.57629626389223"
      stroke-opacity="0.4"
      stroke-width="1.75"
      stroke="#8c90c1"
      stroke-linecap="butt"
    ></path>
    <title>`PML`.side1</title>
  </g>
  <g style="solid">
    <marker
      id="`PML`.side2-leftArrowhead"
      markerUnits="strokeWidth"
      markerWidth="9.95"
      markerHeight="8.12"
      viewBox="0 0 9.95 8.12"
      refX="2.36"
      refY="4.06"
      orient="auto-start-reverse"
    >
      <path
        d="M9.95 4.06 0 8.12 2.36 4.06 0 0 9.95 4.06z"
        fill="#8c90c1"
        fill-opacity="0.4"
      ></path>
    </marker>
    <marker
      id="`PML`.side2-rightArrowhead"
      markerUnits="strokeWidth"
      markerWidth="9.95"
      markerHeight="8.12"
      viewBox="0 0 9.95 8.12"
      refX="2.36"
      refY="4.06"
      orient="auto-start-reverse"
    >
      <path
        d="M9.95 4.06 0 8.12 2.36 4.06 0 0 9.95 4.06z"
        fill="#8c90c1"
        fill-opacity="0.4"
      ></path>
    </marker>
    <path
      d="M 550.9802994776392 347.57629626389223 L 606.2400808793736 277.2228930764652"
      stroke-opacity="0.4"
      stroke-width="1.75"
      stroke="#8c90c1"
      stroke-linecap="butt"
    ></path>
    <title>`PML`.side2</title>
  </g>
  <g style="solid">
    <marker
      id="`PLM`.PQ-leftArrowhead"
      markerUnits="strokeWidth"
      markerWidth="9.95"
      markerHeight="8.12"
      viewBox="0 0 9.95 8.12"
      refX="2.36"
      refY="4.06"
      orient="auto-start-reverse"
    >
      <path
        d="M9.95 4.06 0 8.12 2.36 4.06 0 0 9.95 4.06z"
        fill="#000000"
        fill-opacity="1"
      ></path>
    </marker>
    <marker
      id="`PLM`.PQ-rightArrowhead"
      markerUnits="strokeWidth"
      markerWidth="9.95"
      markerHeight="8.12"
      viewBox="0 0 9.95 8.12"
      refX="2.36"
      refY="4.06"
      orient="auto-start-reverse"
    >
      <path
        d="M9.95 4.06 0 8.12 2.36 4.06 0 0 9.95 4.06z"
        fill="#000000"
        fill-opacity="1"
      ></path>
    </marker>
    <path
      d="M 485.7235181620521 296.3197044194135 L 606.2400808793736 277.2228930764652"
      stroke-opacity="1"
      stroke-width="1.75"
      stroke="#000000"
      stroke-linecap="butt"
    ></path>
    <title>`PLM`.PQ</title>
  </g>
  <g style="solid">
    <marker
      id="`PLM`.QR-leftArrowhead"
      markerUnits="strokeWidth"
      markerWidth="9.95"
      markerHeight="8.12"
      viewBox="0 0 9.95 8.12"
      refX="2.36"
      refY="4.06"
      orient="auto-start-reverse"
    >
      <path
        d="M9.95 4.06 0 8.12 2.36 4.06 0 0 9.95 4.06z"
        fill="#000000"
        fill-opacity="1"
      ></path>
    </marker>
    <marker
      id="`PLM`.QR-rightArrowhead"
      markerUnits="strokeWidth"
      markerWidth="9.95"
      markerHeight="8.12"
      viewBox="0 0 9.95 8.12"
      refX="2.36"
      refY="4.06"
      orient="auto-start-reverse"
    >
      <path
        d="M9.95 4.06 0 8.12 2.36 4.06 0 0 9.95 4.06z"
        fill="#000000"
        fill-opacity="1"
      ></path>
    </marker>
    <path
      d="M 606.2400808793736 277.2228930764652 L 550.9802994776392 347.57629626389223"
      stroke-opacity="1"
      stroke-width="1.75"
      stroke="#000000"
      stroke-linecap="butt"
    ></path>
    <title>`PLM`.QR</title>
  </g>
  <g style="solid">
    <marker
      id="`PLM`.RP-leftArrowhead"
      markerUnits="strokeWidth"
      markerWidth="9.95"
      markerHeight="8.12"
      viewBox="0 0 9.95 8.12"
      refX="2.36"
      refY="4.06"
      orient="auto-start-reverse"
    >
      <path
        d="M9.95 4.06 0 8.12 2.36 4.06 0 0 9.95 4.06z"
        fill="#000000"
        fill-opacity="1"
      ></path>
    </marker>
    <marker
      id="`PLM`.RP-rightArrowhead"
      markerUnits="strokeWidth"
      markerWidth="9.95"
      markerHeight="8.12"
      viewBox="0 0 9.95 8.12"
      refX="2.36"
      refY="4.06"
      orient="auto-start-reverse"
    >
      <path
        d="M9.95 4.06 0 8.12 2.36 4.06 0 0 9.95 4.06z"
        fill="#000000"
        fill-opacity="1"
      ></path>
    </marker>
    <path
      d="M 550.9802994776392 347.57629626389223 L 485.7235181620521 296.3197044194135"
      stroke-opacity="1"
      stroke-width="1.75"
      stroke="#000000"
      stroke-linecap="butt"
    ></path>
    <title>`PLM`.RP</title>
  </g>
</svg>
