<svg version="1.2" xmlns="http://www.w3.org/2000/svg" viewBox="0 0 240 180">
  <rect
    x="0"
    y="0"
    width="240"
    height="180"
    fill="#e6ffe6"
    fill-opacity="1"
    stroke="none"
    rx="0"
    transform="rotate(0, 0, 0)"
  >
    <title>Global.box</title>
  </rect>
  <circle
    fill="#000000"
    fill-opacity="1"
    cx="214.09908424287624"
    cy="105.58104621181235"
    stroke="none"
    r="2.5"
  >
    <title>`a`.icon</title>
  </circle>
  <circle
    fill="#ffffff"
    fill-opacity="1"
    cx="107.6607544515231"
    cy="138.1919456606835"
    stroke="#000000"
    stroke-opacity="1"
    stroke-width="1"
    stroke-linecap="butt"
    r="2"
  >
    <title>`y`.icon</title>
  </circle>
  <g>
    <filter id="`e`.curveIJ-shadow" x="0" y="0" width="200%" height="200%">
      <feOffset result="offOut" in="SourceAlpha" dx="5" dy="5"></feOffset>
      <feGaussianBlur
        result="blurOut"
        in="offOut"
        stdDeviation="4"
      ></feGaussianBlur>
      <feBlend in="SourceGraphic" in2="blurOut" mode="normal"></feBlend>
      <feComponentTransfer>
        <feFuncA type="linear" slope="0.5"></feFuncA>
      </feComponentTransfer>
      <feMerge>
        <feMergeNode></feMergeNode>
        <feMergeNode in="SourceGraphic"></feMergeNode>
      </feMerge>
    </filter>
    <path
      stroke="#000000"
      fill="none"
      stroke-width="1.5"
      stroke-opacity="1"
      d="M 94.11908709747918 72.52542163452802 Q 166.40820270510466 127.11544247917978 214.09908424287624 105.58104621181235"
    ></path>
    <title>`e`.curveIJ</title>
  </g>
  <g>
    <filter id="`e`.curveJK-shadow" x="0" y="0" width="200%" height="200%">
      <feOffset result="offOut" in="SourceAlpha" dx="5" dy="5"></feOffset>
      <feGaussianBlur
        result="blurOut"
        in="offOut"
        stdDeviation="4"
      ></feGaussianBlur>
      <feBlend in="SourceGraphic" in2="blurOut" mode="normal"></feBlend>
      <feComponentTransfer>
        <feFuncA type="linear" slope="0.5"></feFuncA>
      </feComponentTransfer>
      <feMerge>
        <feMergeNode></feMergeNode>
        <feMergeNode in="SourceGraphic"></feMergeNode>
      </feMerge>
    </filter>
    <path
      stroke="#000000"
      fill="none"
      stroke-width="1.5"
      stroke-opacity="1"
      d="M 214.09908424287624 105.58104621181235 Q 160.3285537793438 82.54979427114506 172.42409765254624 14.113033287326274"
    ></path>
    <title>`e`.curveJK</title>
  </g>
  <g>
    <filter id="`e`.curveKI-shadow" x="0" y="0" width="200%" height="200%">
      <feOffset result="offOut" in="SourceAlpha" dx="5" dy="5"></feOffset>
      <feGaussianBlur
        result="blurOut"
        in="offOut"
        stdDeviation="4"
      ></feGaussianBlur>
      <feBlend in="SourceGraphic" in2="blurOut" mode="normal"></feBlend>
      <feComponentTransfer>
        <feFuncA type="linear" slope="0.5"></feFuncA>
      </feComponentTransfer>
      <feMerge>
        <feMergeNode></feMergeNode>
        <feMergeNode in="SourceGraphic"></feMergeNode>
      </feMerge>
    </filter>
    <path
      stroke="#000000"
      fill="none"
      stroke-width="1.5"
      stroke-opacity="1"
      d="M 172.42409765254624 14.113033287326274 Q 141.61135516753427 4.198282219733471 94.11908709747918 72.52542163452802"
    ></path>
    <title>`e`.curveKI</title>
  </g>
  <circle
    fill="#ffffff"
    fill-opacity="1"
    cx="160.25864418764118"
    cy="108.08433820117497"
    stroke="#000000"
    stroke-opacity="1"
    stroke-width="1"
    stroke-linecap="butt"
    r="2"
  >
    <title>`x`.icon</title>
  </circle>
  <g>
    <filter id="`t2`.curveIJ-shadow" x="0" y="0" width="200%" height="200%">
      <feOffset result="offOut" in="SourceAlpha" dx="5" dy="5"></feOffset>
      <feGaussianBlur
        result="blurOut"
        in="offOut"
        stdDeviation="4"
      ></feGaussianBlur>
      <feBlend in="SourceGraphic" in2="blurOut" mode="normal"></feBlend>
      <feComponentTransfer>
        <feFuncA type="linear" slope="0.5"></feFuncA>
      </feComponentTransfer>
      <feMerge>
        <feMergeNode></feMergeNode>
        <feMergeNode in="SourceGraphic"></feMergeNode>
      </feMerge>
    </filter>
    <path
      stroke="#000000"
      fill="none"
      stroke-width="1.5"
      stroke-opacity="1"
      d="M 214.09908424287624 105.58104621181235 Q 166.40820270510466 127.11544247917978 94.11908709747918 72.52542163452802"
    ></path>
    <title>`t2`.curveIJ</title>
  </g>
  <g>
    <filter id="`t2`.curveJK-shadow" x="0" y="0" width="200%" height="200%">
      <feOffset result="offOut" in="SourceAlpha" dx="5" dy="5"></feOffset>
      <feGaussianBlur
        result="blurOut"
        in="offOut"
        stdDeviation="4"
      ></feGaussianBlur>
      <feBlend in="SourceGraphic" in2="blurOut" mode="normal"></feBlend>
      <feComponentTransfer>
        <feFuncA type="linear" slope="0.5"></feFuncA>
      </feComponentTransfer>
      <feMerge>
        <feMergeNode></feMergeNode>
        <feMergeNode in="SourceGraphic"></feMergeNode>
      </feMerge>
    </filter>
    <path
      stroke="#000000"
      fill="none"
      stroke-width="1.5"
      stroke-opacity="1"
      d="M 94.11908709747918 72.52542163452802 Q 103.91760420153791 157.8385439974449 128.68872230553742 164.5652730133162"
    ></path>
    <title>`t2`.curveJK</title>
  </g>
  <g>
    <filter id="`t2`.curveKI-shadow" x="0" y="0" width="200%" height="200%">
      <feOffset result="offOut" in="SourceAlpha" dx="5" dy="5"></feOffset>
      <feGaussianBlur
        result="blurOut"
        in="offOut"
        stdDeviation="4"
      ></feGaussianBlur>
      <feBlend in="SourceGraphic" in2="blurOut" mode="normal"></feBlend>
      <feComponentTransfer>
        <feFuncA type="linear" slope="0.5"></feFuncA>
      </feComponentTransfer>
      <feMerge>
        <feMergeNode></feMergeNode>
        <feMergeNode in="SourceGraphic"></feMergeNode>
      </feMerge>
    </filter>
    <path
      stroke="#000000"
      fill="none"
      stroke-width="1.5"
      stroke-opacity="1"
      d="M 128.68872230553742 164.5652730133162 Q 204.50902369240973 157.5094872908614 214.09908424287624 105.58104621181235"
    ></path>
    <title>`t2`.curveKI</title>
  </g>
  <circle
    fill="#ffffff"
    fill-opacity="1"
    cx="137.44147377127348"
    cy="23.75875484033031"
    stroke="#000000"
    stroke-opacity="1"
    stroke-width="1"
    stroke-linecap="butt"
    r="2"
  >
    <title>`v`.icon</title>
  </circle>
  <circle
    fill="#ffffff"
    fill-opacity="1"
    cx="187.95146348330826"
    cy="146.29132345171283"
    stroke="#000000"
    stroke-opacity="1"
    stroke-width="1"
    stroke-linecap="butt"
    r="2"
  >
    <title>`z`.icon</title>
  </circle>
  <circle
    fill="#000000"
    fill-opacity="1"
    cx="94.11908709747918"
    cy="72.52542163452802"
    stroke="none"
    r="2.5"
  >
    <title>`b`.icon</title>
  </circle>
  <circle
    fill="#000000"
    fill-opacity="1"
    cx="128.68872230553742"
    cy="164.5652730133162"
    stroke="none"
    r="2.5"
  >
    <title>`c`.icon</title>
  </circle>
  <circle
    fill="#ffffff"
    fill-opacity="1"
    cx="176.7950723635275"
    cy="71.19841701035719"
    stroke="#000000"
    stroke-opacity="1"
    stroke-width="1"
    stroke-linecap="butt"
    r="2"
  >
    <title>`u`.icon</title>
  </circle>
  <circle
    fill="#000000"
    fill-opacity="1"
    cx="172.42409765254624"
    cy="14.113033287326274"
    stroke="none"
    r="2.5"
  >
    <title>`d`.icon</title>
  </circle>
  <g
    transform="rotate(0, 218.65693008835464, 103.17158474266488)translate(218.65693008835464, 103.17158474266488)"
    string="p_i"
  >
    <title>`a`.labelText</title>
    <svg
      xmlns="http://www.w3.org/2000/svg"
      width="9.6778"
      height="11.66"
      role="img"
      focusable="false"
      viewBox="-0.45474000000000003 -5.15372 9.19407324 7.41576"
    >
      <path
        stroke="none"
        fill="#000000"
        stroke-width="0"
        d="M0.26818000000000003-3.34642Q0.27984-3.3814 0.2915-3.4397T0.3498-3.6962200000000003 0.46640000000000004-4.05768 0.6413-4.4424600000000005 0.8745-4.79226 1.17766-5.04878 1.56244-5.15372Q2.43694-5.15372 2.6818-4.4074800000000005L2.7984-4.51242Q3.5213200000000002-5.15372 4.17428-5.15372 4.93218-5.15372 5.3636-4.6057T5.79502-3.27646Q5.79502-2.01718 4.90886-0.95612T2.90334 0.11660000000000001Q2.64682 0.11660000000000001 2.4486 0.04664 2.32034-0.01166 2.1804200000000002-0.12826T1.95888-0.32648L1.87726-0.41976Q1.8656000000000001-0.4081 1.62074 0.59466T1.37588 1.60908Q1.37588 1.67904 1.46916 1.6907T1.90058 1.72568H2.1920800000000003Q2.26204 1.8073000000000001 2.26204 1.8306200000000001T2.2270600000000003 2.0405Q2.1920800000000003 2.1804200000000002 2.1571000000000002 2.2154000000000003T2.00552 2.26204Q1.9822 2.26204 1.87726 2.26204T1.48082 2.25038 0.7579 2.23872Q-0.058300000000000005 2.23872-0.27984 2.26204H-0.37312Q-0.45474000000000003 2.1804200000000002-0.45474000000000003 2.1337800000000002-0.43142 1.8189600000000001-0.30316 1.72568H-0.06996Q0.32648 1.71402 0.38478 1.58576 0.41976 1.5158 1.0960400000000001-1.20098T1.8073000000000001-4.081Q1.8189600000000001-4.1393 1.8189600000000001-4.2442400000000005 1.8189600000000001-4.7223 1.52746-4.7223 1.27094-4.7223 1.0960400000000001-4.3958200000000005T0.82786-3.6845600000000003 0.68794-3.2648Q0.66462-3.24148 0.50138-3.24148H0.33814Q0.26818000000000003-3.31144 0.26818000000000003-3.34642ZM2.07548-1.18932Q2.332-0.30316 2.93832-0.30316 3.28812-0.30316 3.6146000000000003-0.57134T4.15096-1.24762Q4.3608400000000005-1.64406 4.57072-2.5069T4.79226-3.7895V-3.85946Q4.79226-4.7223 4.081-4.7223 3.95274-4.7223 3.82448-4.68732T3.5679600000000002-4.58238 3.33476-4.4308000000000005 3.13654-4.2559000000000005 2.96164-4.081 2.83338-3.91776 2.7401-3.80116L2.70512-3.75452Q2.70512-3.74286 2.67014-3.5912800000000002T2.54188-3.07824 2.37864-2.47192Q2.07548-1.23596 2.07548-1.18932ZM7.76658608-3.197172Q7.76658608-3.3950188800000003 7.92321486-3.54340404T8.28593414-3.70003282Q8.4343193-3.70003282 8.53324274-3.6011093800000005T8.6404098-3.35380078Q8.6404098-3.16419752 8.4755374-3.0075687400000004T8.11281812-2.8426963400000003Q7.989163820000001-2.8426963400000003 7.88199676-2.92513254T7.76658608-3.197172ZM6.4228760199999995-0.61691894Q6.4228760199999995-0.6828679 6.4970686-0.8724711599999999T6.69491548-1.29289578 7.057634759999999-1.7133204 7.55225196-1.8946800400000001Q7.87375314-1.8946800400000001 8.08808726-1.7050767800000002T8.310665-1.19397234Q8.310665-1.0538308 8.19525432-0.73232962T7.86550952 0.13325048 7.51927748 1.06477954Q7.4780593799999995 1.2461391800000001 7.4780593799999995 1.32857538 7.4780593799999995 1.53466588 7.61820092 1.53466588 7.6923935000000006 1.53466588 7.7748297 1.5099350200000001T7.964432960000001 1.39452434 8.1870107 1.10599764 8.3931012 0.61962406Q8.41783206 0.52070062 8.4343193 0.50421338T8.57446084 0.48772614000000003Q8.73933324 0.48772614000000003 8.73933324 0.57016234 8.73933324 0.6361113 8.66514066 0.8257145600000001T8.45905016 1.2461391800000001 8.08808726 1.6583201800000003 7.5769828200000005 1.83967982Q7.31318698 1.83967982 7.090609240000001 1.6665638T6.85978788 1.13897212Q6.85978788 0.99883058 6.90100598 0.8751762800000001T7.25548164-0.0645964Q7.5687392000000004-0.89720202 7.61820092-1.06207442T7.6759062600000005-1.3835756Q7.6759062600000005-1.5814224799999999 7.53576472-1.5814224799999999H7.51927748Q7.27196888-1.5814224799999999 7.065878380000001-1.30938302T6.75262082-0.61691894Q6.7443772-0.60867532 6.73613358-0.59218808T6.72788996-0.56745722 6.71140272-0.55096998 6.686671860000001-0.54272636 6.6536973800000005-0.54272636 6.58774842-0.54272636H6.47233774Q6.4228760199999995-0.59218808 6.4228760199999995-0.61691894Z"
        fill-opacity="1"
      ></path>
    </svg>
  </g>
  <g
    transform="rotate(0, 79.16468487763282, 68.19214903539388)translate(79.16468487763282, 68.19214903539388)"
    string="p_j"
  >
    <title>`b`.labelText</title>
    <svg
      xmlns="http://www.w3.org/2000/svg"
      width="10.216402987933344"
      height="12.16"
      role="img"
      focusable="false"
      viewBox="-0.45416586860754643 -5.404573836429803 10.014019689714614 8.57358023367171"
    >
      <path
        stroke="none"
        fill="#000000"
        stroke-width="0"
        d="M0.26784140969162995-3.599555640681862Q0.2794866883738747-3.6344914767285963 0.2911319670561195-3.69271787013982T0.3493583604673434-3.948914001149205 0.4658111472897912-4.309917640298793 0.6404903275234629-4.694211836812871 0.8733959011683585-5.043570197280214 1.1761731469067227-5.2997663282896 1.5604673434208005-5.404573836429803Q2.433863244589159-5.404573836429803 2.6784140969162995-4.659276000766137L2.7948668837387474-4.76408350890634Q3.5168741620379236-5.404573836429803 4.169009768243631-5.404573836429803 4.925952882589542-5.404573836429803 5.356828193832599-4.857245738364298T5.787703505075656-3.529683968588393Q5.787703505075656-2.2719938709059564 4.9026623252250525-1.2122735108216816T2.8996743918789503-0.14090787205516184Q2.643478260869565-0.14090787205516184 2.4455085232714038-0.21077954414863054 2.3174104577667114-0.2690059375598544 2.177667113579774-0.3854587243823022T1.956406818617123-0.5834284619804635L1.8748898678414097-0.6765906914384218Q1.863244589159165-0.6649454127561769 1.6186937368320244 0.3365485539168741T1.374142884504884 1.34968779927217Q1.374142884504884 1.4195594713656388 1.4673051139628424 1.4312047500478835T1.8981804252058991 1.466140586094618H2.1893123922620186Q2.2591840643554875 1.5476575368703314 2.2591840643554875 1.5709480942348208T2.224248228308753 1.7805631105152269Q2.1893123922620186 1.9203064547021642 2.154376556215284 1.9552422907488987T2.0029879333461023 2.001823405477878Q1.9796973759816126 2.001823405477878 1.8748898678414097 2.001823405477878T1.478950392645087 1.9901781267956329 0.7569431143459107 1.9785328481133881Q-0.0582263934112239 1.9785328481133881-0.2794866883738747 2.001823405477878H-0.37264891783183296Q-0.45416586860754643 1.9203064547021642-0.45416586860754643 1.8737253399731852-0.43087531124305684 1.559302815552576-0.3027772457383643 1.466140586094618H-0.06987167209346867Q0.3260678031028538 1.454495307412373 0.38429419651407776 1.3263972419076806 0.4192300325608121 1.256525569814212 1.0946561961310093-1.456824363148822T1.805018195747941-4.333208197663283Q1.8166634744301857-4.391434591074507 1.8166634744301857-4.49624209921471 1.8166634744301857-4.973698525186745 1.5255315073740663-4.973698525186745 1.269335376364681-4.973698525186745 1.0946561961310093-4.647630722083892T0.8268147864393793-3.9372687224669605 0.687071442252442-3.5180386899061484Q0.6637808848879525-3.494748132541659 0.5007469833365256-3.494748132541659H0.3377130817850986Q0.26784140969162995-3.5646198046351274 0.26784140969162995-3.599555640681862ZM2.0728596054395707-1.445179084466577Q2.329055736448956-0.5601379046159739 2.9346102279256847-0.5601379046159739 3.283968588393028-0.5601379046159739 3.610036391495882-0.8279793143076037T4.145719210879141-1.503405477877801Q4.355334227159548-1.8993449530741235 4.564949243439954-2.7610955755602373T4.786209538402605-4.042076230607163V-4.111947902700632Q4.786209538402605-4.973698525186745 4.075847538785673-4.973698525186745 3.9477494732809806-4.973698525186745 3.8196514077762878-4.938762689140011T3.5634552767669025-4.8339551809998085 3.3305497031220073-4.682566558130627 3.132579965523846-4.507887377896955 2.957900785290174-4.333208197663283 2.8298027197854814-4.170174296111856 2.7366404903275234-4.053721509289408L2.701704654280789-4.007140394560429Q2.701704654280789-3.9954951158781844 2.6667688182340545-3.844106493009002T2.538670752729362-3.3317142309902317 2.3756368511779353-2.726159739513503Q2.0728596054395707-1.4917601991955562 2.0728596054395707-1.445179084466577ZM8.687133346102279-3.4175632254357398Q8.687133346102279-3.6727927983144992 8.860030798697567-3.8127574027963993T9.21405891591649-3.9527220072782994Q9.35402352039839-3.9527220072782994 9.444588852710208-3.8703898869948286T9.559853821107067-3.6398599502011106Q9.559853821107067-3.4093300134073927 9.403422792568474-3.252898984868799T9.041161463321203-3.096467956330205Q8.892963646810955-3.096467956330205 8.79416510247079-3.1788000766136753T8.687133346102279-3.4175632254357398ZM8.613034437847155-1.6062565791993868Q8.613034437847155-1.8450197280214518 8.398970925110133-1.8450197280214518 8.217840260486495-1.8450197280214518 8.053176019919555-1.7462211836812869T7.765013598927408-1.490991610802528 7.567416510247079-1.186362765753687 7.427451905765179-0.9228999808465811L7.36981942156675-0.8076350124497221Q7.353352997510056-0.7994018004213752 7.238088029113197-0.7994018004213752H7.122823060716337Q7.073423788546256-0.8488010725914575 7.073423788546256-0.8652674966481517T7.106356636659643-0.9722992530166633Q7.279254089254931-1.3757266424056693 7.59211614633212-1.729754759624593T8.316638804826662-2.141415361041946Q8.324872016855007-2.141415361041946 8.382504501053438-2.141415361041946T8.481303045393602-2.149648573070293Q8.678900134073933-2.141415361041946 8.843564374640874-2.067316452786822 9.04939467534955-1.9520514843899635 9.156426431718062-1.8120868799080634T9.263458188086574-1.3757266424056693V-1.2439952499521163L8.860030798697567 0.39441394368894844Q8.440136985251867 2.0410563493583602 8.415437349166826 2.106922045585137 8.267239532656578 2.5185826470024897 7.839112507182532 2.8396779161080254T6.859360275809231 3.1690063972419074Q6.447699674391878 3.1690063972419074 6.299501857881631 2.996108944646619T6.143070829343037 2.6173811913426546Q6.143070829343037 2.3950844665772837 6.299501857881631 2.2386534380386895T6.678229611185596 2.073989197471749Q6.818194215667496 2.073989197471749 6.916992760007662 2.156321317755219T7.024024516376172 2.411550890633978Q7.024024516376172 2.707946523654472 6.760561731469068 2.864377552193066 6.80996100363915 2.872610764221413 6.875826699865925 2.872610764221413 7.155755908829725 2.872610764221413 7.386285845623443 2.6420808274276957T7.740313962842366 2.0986888335567895L7.830879295154185 1.7528939283662133Q7.921444627466002 1.3988658111472898 8.044942807891207 0.896639877418119T8.308405592798314-0.13251162612526335 8.530702317563685-1.046398161271787 8.621267649875502-1.5156912468875694Q8.621267649875502-1.5733237310859989 8.613034437847155-1.6062565791993868Z"
        fill-opacity="1"
      ></path>
    </svg>
  </g>
  <g
    transform="rotate(0, 120.17613894534418, 168.29063681309393)translate(120.17613894534418, 168.29063681309393)"
    string="p_k"
  >
    <title>`c`.labelText</title>
    <svg
      xmlns="http://www.w3.org/2000/svg"
      width="11.128304"
      height="11.66"
      role="img"
      focusable="false"
      viewBox="-0.45474000000000003 -5.15372 10.85104086 7.41576"
    >
      <path
        stroke="none"
        fill="#000000"
        stroke-width="0"
        d="M0.26818000000000003-3.34642Q0.27984-3.3814 0.2915-3.4397T0.3498-3.6962200000000003 0.46640000000000004-4.05768 0.6413-4.4424600000000005 0.8745-4.79226 1.17766-5.04878 1.56244-5.15372Q2.43694-5.15372 2.6818-4.4074800000000005L2.7984-4.51242Q3.5213200000000002-5.15372 4.17428-5.15372 4.93218-5.15372 5.3636-4.6057T5.79502-3.27646Q5.79502-2.01718 4.90886-0.95612T2.90334 0.11660000000000001Q2.64682 0.11660000000000001 2.4486 0.04664 2.32034-0.01166 2.1804200000000002-0.12826T1.95888-0.32648L1.87726-0.41976Q1.8656000000000001-0.4081 1.62074 0.59466T1.37588 1.60908Q1.37588 1.67904 1.46916 1.6907T1.90058 1.72568H2.1920800000000003Q2.26204 1.8073000000000001 2.26204 1.8306200000000001T2.2270600000000003 2.0405Q2.1920800000000003 2.1804200000000002 2.1571000000000002 2.2154000000000003T2.00552 2.26204Q1.9822 2.26204 1.87726 2.26204T1.48082 2.25038 0.7579 2.23872Q-0.058300000000000005 2.23872-0.27984 2.26204H-0.37312Q-0.45474000000000003 2.1804200000000002-0.45474000000000003 2.1337800000000002-0.43142 1.8189600000000001-0.30316 1.72568H-0.06996Q0.32648 1.71402 0.38478 1.58576 0.41976 1.5158 1.0960400000000001-1.20098T1.8073000000000001-4.081Q1.8189600000000001-4.1393 1.8189600000000001-4.2442400000000005 1.8189600000000001-4.7223 1.52746-4.7223 1.27094-4.7223 1.0960400000000001-4.3958200000000005T0.82786-3.6845600000000003 0.68794-3.2648Q0.66462-3.24148 0.50138-3.24148H0.33814Q0.26818000000000003-3.31144 0.26818000000000003-3.34642ZM2.07548-1.18932Q2.332-0.30316 2.93832-0.30316 3.28812-0.30316 3.6146000000000003-0.57134T4.15096-1.24762Q4.3608400000000005-1.64406 4.57072-2.5069T4.79226-3.7895V-3.85946Q4.79226-4.7223 4.081-4.7223 3.95274-4.7223 3.82448-4.68732T3.5679600000000002-4.58238 3.33476-4.4308000000000005 3.13654-4.2559000000000005 2.96164-4.081 2.83338-3.91776 2.7401-3.80116L2.70512-3.75452Q2.70512-3.74286 2.67014-3.5912800000000002T2.54188-3.07824 2.37864-2.47192Q2.07548-1.23596 2.07548-1.18932ZM7.24723802-3.5846221399999996Q7.24723802-3.6670583400000005 7.2802125-3.7742254T7.37913594-3.88139246Q7.38737956-3.88139246 7.972676580000001-3.92261056T8.57446084-3.9720722800000003Q8.673384279999999-3.9720722800000003 8.673384279999999-3.9061233200000003 8.673384279999999-3.8484179800000002 8.26120328-2.18320674 7.849022280000001-0.55096998 7.849022280000001-0.49326464000000003 8.00565106-0.57570084 8.08808726-0.64989342 8.28593414-0.79827858 8.65689704-1.1692414800000002T9.23395044-1.6721023000000002Q9.563695240000001-1.8946800400000001 9.860465560000002-1.8946800400000001 10.10777416-1.8946800400000001 10.2479157-1.7380512600000002T10.39630086-1.29289578Q10.39630086-1.08680528 10.33859552-0.94666374T10.18196674-0.74057324 10.008850720000002-0.64989342 9.860465560000002-0.62516256Q9.69559316-0.62516256 9.596669720000001-0.71584238T9.49774628-0.95490736Q9.49774628-1.16099786 9.6296442-1.29289578T9.89344004-1.4660118L10.02533796-1.49074266Q9.92641452-1.5896661 9.82749108-1.5896661H9.7945166Q9.53072076-1.56493524 9.275168540000001-1.3835756T8.673384279999999-0.8559839200000001 8.12930536-0.3531231Q8.1457926-0.34487948 8.25295966-0.32839224T8.45080654-0.27893052 8.66514066-0.21298156 8.8877184-0.09757088000000001 9.06907804 0.050814279999999996 9.20921958 0.2651484 9.2586813 0.53718786Q9.2586813 0.6773294000000001 9.2174632 0.8751762800000001T9.168001480000001 1.2049210799999999Q9.168001480000001 1.53466588 9.39057922 1.53466588 9.78627298 1.53466588 10.03358158 0.5536751 10.05006882 0.48772614000000003 10.19845398 0.48772614000000003H10.23142846Q10.36332638 0.48772614000000003 10.36332638 0.56191872 10.36332638 0.60313682 10.33859552 0.6773294000000001 10.0006071 1.83967982 9.36584836 1.83967982 8.99488546 1.83967982 8.7640641 1.6253457000000002T8.53324274 1.0070742000000001Q8.53324274 0.8586890400000001 8.5579736 0.75152198T8.58270446 0.5536751Q8.58270446 0.37231546000000004 8.46729378 0.24041754T8.17876708 0.050814279999999996 7.898484-0.03986554 7.75009884-0.0645964H7.7336116Q7.63468816 0.28163564 7.56049558 0.60313682T7.4450849 1.08126678 7.37089232 1.38628072 7.31318698 1.5841276000000002 7.25548164 1.6912946599999998 7.16480182 1.76548724Q7.057634759999999 1.83967982 6.933980460000001 1.83967982 6.793838920000001 1.83967982 6.71964634 1.75724362T6.6454537600000005 1.61710208Q6.6454537600000005 1.53466588 6.950467700000001 0.29812288000000003T7.55225196-2.13374502L7.857265900000001-3.3290699200000002Q7.86550952-3.43623698 7.799560560000001-3.4609678400000004T7.4780593799999995-3.50218594H7.43684128Q7.354405080000001-3.50218594 7.329674219999999-3.50218594T7.27196888-3.5269168000000004 7.24723802-3.5846221399999996Z"
        fill-opacity="1"
      ></path>
    </svg>
  </g>
  <g
    transform="rotate(0, 173.52980755745492, 0.10190935735727003)translate(173.52980755745492, 0.10190935735727003)"
    string="p_l"
  >
    <title>`d`.labelText</title>
    <svg
      xmlns="http://www.w3.org/2000/svg"
      width="9.289522"
      height="11.66"
      role="img"
      focusable="false"
      viewBox="-0.45474000000000003 -5.15372 8.89730292 7.41576"
    >
      <path
        stroke="none"
        fill="#000000"
        stroke-width="0"
        d="M0.26818000000000003-3.34642Q0.27984-3.3814 0.2915-3.4397T0.3498-3.6962200000000003 0.46640000000000004-4.05768 0.6413-4.4424600000000005 0.8745-4.79226 1.17766-5.04878 1.56244-5.15372Q2.43694-5.15372 2.6818-4.4074800000000005L2.7984-4.51242Q3.5213200000000002-5.15372 4.17428-5.15372 4.93218-5.15372 5.3636-4.6057T5.79502-3.27646Q5.79502-2.01718 4.90886-0.95612T2.90334 0.11660000000000001Q2.64682 0.11660000000000001 2.4486 0.04664 2.32034-0.01166 2.1804200000000002-0.12826T1.95888-0.32648L1.87726-0.41976Q1.8656000000000001-0.4081 1.62074 0.59466T1.37588 1.60908Q1.37588 1.67904 1.46916 1.6907T1.90058 1.72568H2.1920800000000003Q2.26204 1.8073000000000001 2.26204 1.8306200000000001T2.2270600000000003 2.0405Q2.1920800000000003 2.1804200000000002 2.1571000000000002 2.2154000000000003T2.00552 2.26204Q1.9822 2.26204 1.87726 2.26204T1.48082 2.25038 0.7579 2.23872Q-0.058300000000000005 2.23872-0.27984 2.26204H-0.37312Q-0.45474000000000003 2.1804200000000002-0.45474000000000003 2.1337800000000002-0.43142 1.8189600000000001-0.30316 1.72568H-0.06996Q0.32648 1.71402 0.38478 1.58576 0.41976 1.5158 1.0960400000000001-1.20098T1.8073000000000001-4.081Q1.8189600000000001-4.1393 1.8189600000000001-4.2442400000000005 1.8189600000000001-4.7223 1.52746-4.7223 1.27094-4.7223 1.0960400000000001-4.3958200000000005T0.82786-3.6845600000000003 0.68794-3.2648Q0.66462-3.24148 0.50138-3.24148H0.33814Q0.26818000000000003-3.31144 0.26818000000000003-3.34642ZM2.07548-1.18932Q2.332-0.30316 2.93832-0.30316 3.28812-0.30316 3.6146000000000003-0.57134T4.15096-1.24762Q4.3608400000000005-1.64406 4.57072-2.5069T4.79226-3.7895V-3.85946Q4.79226-4.7223 4.081-4.7223 3.95274-4.7223 3.82448-4.68732T3.5679600000000002-4.58238 3.33476-4.4308000000000005 3.13654-4.2559000000000005 2.96164-4.081 2.83338-3.91776 2.7401-3.80116L2.70512-3.75452Q2.70512-3.74286 2.67014-3.5912800000000002T2.54188-3.07824 2.37864-2.47192Q2.07548-1.23596 2.07548-1.18932ZM7.214263540000001 1.2626264200000001Q7.214263540000001 1.53466588 7.42035404 1.53466588 7.72536798 1.53466588 7.9397021 0.6690857800000001 7.989163820000001 0.50421338 8.0221383 0.49596976000000004 8.03862554 0.48772614000000003 8.1045745 0.48772614000000003H8.13754898Q8.21174156 0.48772614000000003 8.23647242 0.48772614000000003T8.27769052 0.50421338 8.29417776 0.56191872Q8.28593414 0.61138044 8.2694469 0.69381664T8.17876708 1.0070742000000001 8.01389468 1.39452434 7.75834246 1.69953828 7.37913594 1.83967982Q7.082365620000001 1.83967982 6.8268134 1.6583201800000003T6.56301756 1.0482923Q6.56301756 0.9493688600000001 6.57126118 0.90815076L7.10709648-1.2187032Q7.62644454-3.3208263000000002 7.62644454-3.3867752600000003 7.62644454-3.41150612 7.61820092-3.42799336T7.5852264400000005-3.4609678400000004 7.54400834-3.47745508 7.4780593799999995-3.4856987 7.41211042-3.49394232 7.337917839999999-3.50218594 7.25548164-3.50218594Q7.17304544-3.50218594 7.14831458-3.50218594T7.082365620000001-3.51042956 7.0329039-3.5351604200000004 7.02466028-3.5846221399999996Q7.02466028-3.6011093800000005 7.04114752-3.70003282 7.082365620000001-3.8566616 7.13182734-3.87314884T7.72536798-3.92261056Q7.849022280000001-3.93085418 8.00565106-3.9390978T8.25295966-3.9638286600000003 8.34363948-3.9720722800000003Q8.44256292-3.9720722800000003 8.44256292-3.9061233200000003 8.44256292-3.8154435 7.840778660000001-1.43303732T7.222507160000001 1.06477954Q7.222507160000001 1.08126678 7.222507160000001 1.1307285T7.214263540000001 1.2131647V1.2626264200000001Z"
        fill-opacity="1"
      ></path>
    </svg>
  </g>
  <g
    transform="rotate(0, 157.74298149694525, 70.60169245973235)translate(157.74298149694525, 70.60169245973235)"
    string="m_{il}"
  >
    <title>`u`.labelText</title>
    <svg
      xmlns="http://www.w3.org/2000/svg"
      width="16.507062"
      height="11.66"
      role="img"
      focusable="false"
      viewBox="0.24486 -5.15372 15.414251820000002 6.99339982"
    >
      <path
        stroke="none"
        fill="#000000"
        stroke-width="0"
        d="M0.24486-3.34642Q0.25652-3.41638 0.27984-3.5329800000000002T0.41976-3.97606 0.65296-4.52408 1.02608-4.9555 1.53912-5.15372 2.0405-5.0721 2.3903-4.86222 2.57686-4.6057 2.67014-4.3841600000000005L2.69346-4.3025400000000005Q2.69346-4.2792200000000005 2.70512-4.2792200000000005L2.83338-4.4074800000000005Q3.5329800000000002-5.15372 4.47744-5.15372 4.67566-5.15372 4.8389-5.1304T5.14206-5.04878 5.3636-4.93218 5.5385-4.79226 5.6551-4.64068 5.74838-4.4891 5.79502-4.3491800000000005 5.83-4.2442400000000005 5.85332-4.16262L5.9466-4.2792200000000005Q6.68118-5.15372 7.68394-5.15372 8.31358-5.15372 8.698360000000001-4.8389T9.0948-3.91776Q9.0948-3.3231 8.651720000000001-2.07548T8.20864-0.583Q8.2203-0.41976 8.26694-0.36146T8.441840000000001-0.30316Q8.768320000000001-0.30316 9.04816-0.65296T9.5029-1.60908Q9.53788-1.73734 9.57286-1.7606600000000001T9.75942-1.7839800000000001Q9.99262-1.7839800000000001 9.99262-1.6907 9.99262-1.67904 9.94598-1.5158 9.8527-1.17766 9.68946-0.85118T9.1531-0.19822 8.34856 0.11660000000000001Q7.80054 0.11660000000000001 7.55568-0.19822T7.3108200000000005-0.85118Q7.3108200000000005-1.0727200000000001 7.73058-2.25038T8.162-4.0227Q8.162-4.71064 7.64896-4.71064H7.59066Q6.5879-4.71064 5.89996-3.5329800000000002L5.81834-3.39306 5.43356-1.8306200000000001Q5.04878-0.30316 4.99048-0.18656 4.8389 0.12826 4.4891 0.12826 4.3375200000000005 0.12826 4.2442400000000005 0.04664T4.11598-0.09328 4.081-0.20988Q4.081-0.33814 4.47744-1.87726L4.8972-3.5796200000000002Q4.93218-3.75452 4.93218-4.0227 4.93218-4.71064 4.4191400000000005-4.71064H4.3608400000000005Q3.35808-4.71064 2.67014-3.5329800000000002L2.58852-3.39306 2.2037400000000003-1.8306200000000001Q1.8189600000000001-0.30316 1.7606600000000001-0.18656 1.60908 0.12826 1.25928 0.12826 1.1077000000000001 0.12826 1.01442 0.058300000000000005T0.8861600000000001-0.08162 0.86284-0.19822Q0.86284-0.3498 1.30592-2.1104600000000002 1.7606600000000001-3.9061 1.7606600000000001-3.98772 1.7956400000000001-4.16262 1.7956400000000001-4.3025400000000005 1.7956400000000001-4.7223 1.50414-4.7223 1.24762-4.7223 1.0727200000000001-4.3958200000000005T0.80454-3.6845600000000003 0.66462-3.2648Q0.6413-3.24148 0.47806-3.24148H0.31482Q0.24486-3.31144 0.24486-3.34642ZM12.13908608-3.197172Q12.13908608-3.3950188800000003 12.29571486-3.54340404T12.658434139999999-3.70003282Q12.8068193-3.70003282 12.905742739999999-3.6011093800000005T13.0129098-3.35380078Q13.0129098-3.16419752 12.8480374-3.0075687400000004T12.485318119999999-2.8426963400000003Q12.361663819999999-2.8426963400000003 12.254496760000002-2.92513254T12.13908608-3.197172ZM10.79537602-0.61691894Q10.79537602-0.6828679 10.869568600000001-0.8724711599999999T11.06741548-1.29289578 11.43013476-1.7133204 11.92475196-1.8946800400000001Q12.24625314-1.8946800400000001 12.46058726-1.7050767800000002T12.683165-1.19397234Q12.683165-1.0538308 12.56775432-0.73232962T12.238009519999999 0.13325048 11.89177748 1.06477954Q11.85055938 1.2461391800000001 11.85055938 1.32857538 11.85055938 1.53466588 11.990700920000002 1.53466588 12.064893499999998 1.53466588 12.1473297 1.5099350200000001T12.33693296 1.39452434 12.5595107 1.10599764 12.765601199999999 0.61962406Q12.79033206 0.52070062 12.8068193 0.50421338T12.946960840000001 0.48772614000000003Q13.11183324 0.48772614000000003 13.11183324 0.57016234 13.11183324 0.6361113 13.037640660000001 0.8257145600000001T12.83155016 1.2461391800000001 12.46058726 1.6583201800000003 11.94948282 1.83967982Q11.68568698 1.83967982 11.463109240000001 1.6665638T11.23228788 1.13897212Q11.23228788 0.99883058 11.27350598 0.8751762800000001T11.62798164-0.0645964Q11.941239199999998-0.89720202 11.990700920000002-1.06207442T12.04840626-1.3835756Q12.04840626-1.5814224799999999 11.90826472-1.5814224799999999H11.89177748Q11.64446888-1.5814224799999999 11.438378380000001-1.30938302T11.12512082-0.61691894Q11.1168772-0.60867532 11.10863358-0.59218808T11.10038996-0.56745722 11.08390272-0.55096998 11.059171860000001-0.54272636 11.026197380000001-0.54272636 10.96024842-0.54272636H10.844837740000001Q10.79537602-0.59218808 10.79537602-0.61691894ZM14.43081244 1.2626264200000001Q14.43081244 1.53466588 14.63690294 1.53466588 14.94191688 1.53466588 15.156251 0.6690857800000001 15.205712720000001 0.50421338 15.238687200000001 0.49596976000000004 15.255174440000001 0.48772614000000003 15.321123400000001 0.48772614000000003H15.35409788Q15.428290460000001 0.48772614000000003 15.45302132 0.48772614000000003T15.49423942 0.50421338 15.51072666 0.56191872Q15.502483040000001 0.61138044 15.485995800000001 0.69381664T15.395315980000001 1.0070742000000001 15.23044358 1.39452434 14.97489136 1.69953828 14.595684839999999 1.83967982Q14.298914519999999 1.83967982 14.0433623 1.6583201800000003T13.77956646 1.0482923Q13.77956646 0.9493688600000001 13.787810080000002 0.90815076L14.32364538-1.2187032Q14.842993439999999-3.3208263000000002 14.842993439999999-3.3867752600000003 14.842993439999999-3.41150612 14.83474982-3.42799336T14.80177534-3.4609678400000004 14.76055724-3.47745508 14.69460828-3.4856987 14.62865932-3.49394232 14.55446674-3.50218594 14.472030540000002-3.50218594Q14.38959434-3.50218594 14.36486348-3.50218594T14.298914519999999-3.51042956 14.2494528-3.5351604200000004 14.24120918-3.5846221399999996Q14.24120918-3.6011093800000005 14.25769642-3.70003282 14.298914519999999-3.8566616 14.34837624-3.87314884T14.94191688-3.92261056Q15.065571180000001-3.93085418 15.222199960000001-3.9390978T15.46950856-3.9638286600000003 15.56018838-3.9720722800000003Q15.659111820000001-3.9720722800000003 15.659111820000001-3.9061233200000003 15.659111820000001-3.8154435 15.057327560000001-1.43303732T14.439056059999999 1.06477954Q14.439056059999999 1.08126678 14.439056059999999 1.1307285T14.43081244 1.2131647V1.2626264200000001Z"
        fill-opacity="1"
      ></path>
    </svg>
  </g>
  <g
    transform="rotate(0, 122.58194445255722, 7.491186766327017)translate(122.58194445255722, 7.491186766327017)"
    string="m_{jl}"
  >
    <title>`v`.labelText</title>
    <svg
      xmlns="http://www.w3.org/2000/svg"
      width="17.037042712124112"
      height="12.16"
      role="img"
      focusable="false"
      viewBox="0.24455085232714038 -5.404573836429803 15.946415782417159 8.57358023367171"
    >
      <path
        stroke="none"
        fill="#000000"
        stroke-width="0"
        d="M0.24455085232714038-3.599555640681862Q0.25619613100938515-3.6694273127753303 0.2794866883738747-3.785880099597778T0.4192300325608121-4.22840068952308 0.6521356062057077-4.7757287875885845 1.0247845240375406-5.206604098831641 1.537176786056311-5.404573836429803 2.0379237693928367-5.323056885654089 2.38728212986018-5.113441869373683 2.573606588776096-4.857245738364298 2.6667688182340545-4.635985443401647L2.690059375598544-4.554468492625934Q2.690059375598544-4.531177935261444 2.701704654280789-4.531177935261444L2.8298027197854814-4.659276000766137Q3.5285194407201685-5.404573836429803 4.471787013981995-5.404573836429803 4.669756751580157-5.404573836429803 4.832790653131584-5.381283279065313T5.135567898869948-5.2997663282896 5.356828193832599-5.183313541467152 5.531507374066271-5.043570197280214 5.647960160888719-4.892181574411032 5.741122390346677-4.7407929515418505 5.787703505075656-4.601049607354913 5.82263934112239-4.49624209921471 5.8459298984868795-4.414725148438996L5.939092127944837-4.531177935261444Q6.672744684926259-5.404573836429803 7.67423865159931-5.404573836429803 8.303083700440528-5.404573836429803 8.687377896954606-5.090151312009193T9.083317372150928-4.170174296111856Q9.083317372150928-3.5762650833173724 8.640796782225626-2.3302202643171803T8.198276192300325-0.8396245929898486Q8.20992147098257-0.6765906914384218 8.25650258571155-0.6183642980271978T8.43118176594522-0.5601379046159739Q8.757249569048074-0.5601379046159739 9.03673625742195-0.9094962650833173T9.490902126029496-1.8644091170273893Q9.52583796207623-1.9925071825320817 9.560773798122964-2.015797739896571T9.74709825703888-2.039088297261061Q9.980003830683776-2.039088297261061 9.980003830683776-1.9459260678031027 9.980003830683776-1.934280789120858 9.933422715954798-1.771246887569431 9.84026048649684-1.4335338057843323 9.677226584945412-1.1074660026814784T9.141543765562153-0.4553303964757709 8.338019536487263-0.14090787205516184Q7.790691438421757-0.14090787205516184 7.546140586094618-0.4553303964757709T7.301589733767477-1.1074660026814784Q7.301589733767477-1.3287262976441294 7.720819766328289-2.504899444550852T8.151695077571347-4.274981804252059Q8.151695077571347-4.962053246504501 7.6393028155525755-4.962053246504501H7.581076422141352Q6.579582455468301-4.962053246504501 5.8925110132158585-3.785880099597778L5.8109940624401455-3.646136755410841 5.426699865926068-2.08566941199004Q5.042405669411989-0.5601379046159739 4.9841792760007655-0.44368511779352615 4.832790653131584-0.12926259337291707 4.48343229266424-0.12926259337291707 4.332043669795058-0.12926259337291707 4.2388814403371-0.21077954414863054T4.110783374832407-0.3505228883355679 4.075847538785673-0.4669756751580157Q4.075847538785673-0.5950737406627082 4.471787013981995-2.132250526719019L4.8910170465428076-3.8324612143267576Q4.925952882589542-4.007140394560429 4.925952882589542-4.274981804252059 4.925952882589542-4.962053246504501 4.413560620570772-4.962053246504501H4.355334227159548Q3.3538402604864967-4.962053246504501 2.6667688182340545-3.785880099597778L2.585251867458341-3.646136755410841 2.2009576709442635-2.08566941199004Q1.8166634744301857-0.5601379046159739 1.7584370810189618-0.44368511779352615 1.6070484581497797-0.12926259337291707 1.2576900976824363-0.12926259337291707 1.106301474813254-0.12926259337291707 1.0131392453552959-0.19913426546638577T0.8850411798506033-0.33887760965332314 0.8617506224861137-0.4553303964757709Q0.8617506224861137-0.6067190193449531 1.3042712124114153-2.3651561003639148 1.7584370810189618-4.158529017429611 1.7584370810189618-4.240045968205325 1.793372917065696-4.414725148438996 1.793372917065696-4.554468492625934 1.793372917065696-4.973698525186745 1.5022409500095766-4.973698525186745 1.2460448190001914-4.973698525186745 1.0713656387665198-4.647630722083892T0.8035242290748899-3.9372687224669605 0.6637808848879525-3.5180386899061484Q0.6404903275234629-3.494748132541659 0.47745642597203597-3.494748132541659H0.3144225244206091Q0.24455085232714038-3.5646198046351274 0.24455085232714038-3.599555640681862ZM13.054112851944073-3.4175632254357398Q13.054112851944073-3.6727927983144992 13.227010304539359-3.8127574027963993T13.581038421758285-3.9527220072782994Q13.721003026240185-3.9527220072782994 13.811568358552-3.8703898869948286T13.92683332694886-3.6398599502011106Q13.92683332694886-3.4093300134073927 13.770402298410266-3.252898984868799T13.408140969162996-3.096467956330205Q13.259943152652747-3.096467956330205 13.161144608312584-3.1788000766136753T13.054112851944073-3.4175632254357398ZM12.980013943688947-1.6062565791993868Q12.980013943688947-1.8450197280214518 12.765950430951923-1.8450197280214518 12.58481976632829-1.8450197280214518 12.420155525761347-1.7462211836812869T12.131993104769201-1.490991610802528 11.93439601608887-1.186362765753687 11.79443141160697-0.9228999808465811L11.736798927408541-0.8076350124497221Q11.720332503351848-0.7994018004213752 11.605067534954989-0.7994018004213752H11.48980256655813Q11.440403294388048-0.8488010725914575 11.440403294388048-0.8652674966481517T11.473336142501436-0.9722992530166633Q11.646233595096724-1.3757266424056693 11.959095652173913-1.729754759624593T12.683618310668454-2.141415361041946Q12.691851522696801-2.141415361041946 12.74948400689523-2.141415361041946T12.848282551235396-2.149648573070293Q13.045879639915723-2.141415361041946 13.210543880482666-2.067316452786822 13.416374181191342-1.9520514843899635 13.523405937559854-1.8120868799080634T13.630437693928366-1.3757266424056693V-1.2439952499521163L13.227010304539359 0.39441394368894844Q12.807116491093659 2.0410563493583602 12.782416855008616 2.106922045585137 12.634219038498372 2.5185826470024897 12.206092013024323 2.8396779161080254T11.226339781651024 3.1690063972419074Q10.81467918023367 3.1690063972419074 10.666481363723424 2.996108944646619T10.510050335184829 2.6173811913426546Q10.510050335184829 2.3950844665772837 10.666481363723424 2.2386534380386895T11.045209117027389 2.073989197471749Q11.185173721509289 2.073989197471749 11.283972265849455 2.156321317755219T11.391004022217965 2.411550890633978Q11.391004022217965 2.707946523654472 11.12754123731086 2.864377552193066 11.176940509480941 2.872610764221413 11.242806205707717 2.872610764221413 11.522735414671518 2.872610764221413 11.753265351465236 2.6420808274276957T12.107293468684158 2.0986888335567895L12.197858800995977 1.7528939283662133Q12.288424133307796 1.3988658111472898 12.411922313733001 0.896639877418119T12.675385098640108-0.13251162612526335 12.897681823405478-1.046398161271787 12.988247155717296-1.5156912468875694Q12.988247155717296-1.5733237310859989 12.980013943688947-1.6062565791993868ZM14.964218042520589 1.003671633786631Q14.964218042520589 1.2753676307220838 15.170048343229267 1.2753676307220838 15.474677188278106 1.2753676307220838 15.688740701015131 0.41088036774564257 15.738139973185213 0.2462161271787014 15.7710728212986 0.23798291515035433 15.787539245355294 0.22974970312200726 15.85340494158207 0.22974970312200726H15.886337789695459Q15.960436697950582 0.22974970312200726 15.985136334035625 0.22974970312200726T16.026302394177357 0.2462161271787014 16.04276881823405 0.30384861137713076Q16.034535606205708 0.35324788354721315 16.018069182149013 0.4355800038306838T15.927503849837194 0.7484420609078719 15.762839609270255 1.1354030262401837 15.507610036391494 1.440031871289025 15.128882283087531 1.5799964757709248Q14.832486650067036 1.5799964757709248 14.577257077188277 1.3988658111472898T14.313794292281173 0.7896081210496074Q14.313794292281173 0.6908095767094425 14.322027504309519 0.6496435165677074L14.857186286152077-1.474525186745834Q15.375878643937943-3.573994253974334 15.375878643937943-3.6398599502011106 15.375878643937943-3.664559586286152 15.367645431909594-3.681026010342846T15.334712583796206-3.713958858456234 15.29354652365447-3.7304252825129285 15.227680827427694-3.7386584945412755 15.16181513120092-3.7468917065696226 15.087716222945794-3.7551249185979696 15.005384102662324-3.7551249185979696Q14.923051982378855-3.7551249185979696 14.898352346293812-3.7551249185979696T14.832486650067036-3.7633581306263166 14.783087377896955-3.7880577667113573 14.774854165868605-3.83745703888144Q14.774854165868605-3.853923462938134 14.7913205899253-3.9527220072782994 14.832486650067036-4.1091530358168935 14.88188592223712-4.125619459873588T15.474677188278106-4.17501873204367Q15.598175368703313-4.183251944072016 15.754606397241906-4.191485156100364T16.001602758092318-4.2161847921854045 16.092168090404137-4.224418004213752Q16.1909666347443-4.224418004213752 16.1909666347443-4.158552307986975 16.1909666347443-4.067986975675158 15.589942156674965-1.6885886994828576T14.972451254548936 0.8060745451063014Q14.972451254548936 0.8225409691629955 14.972451254548936 0.8719402413330779T14.964218042520589 0.9542723616165484V1.003671633786631Z"
        fill-opacity="1"
      ></path>
    </svg>
  </g>
  <g
    transform="rotate(0, 148.8874952850777, 113.70586521593462)translate(148.8874952850777, 113.70586521593462)"
    string="m_{ij}"
  >
    <title>`x`.labelText</title>
    <svg
      xmlns="http://www.w3.org/2000/svg"
      width="17.424830492242865"
      height="12.16"
      role="img"
      focusable="false"
      viewBox="0.24455085232714038 -5.404573836429803 16.522740624401454 8.57358023367171"
    >
      <path
        stroke="none"
        fill="#000000"
        stroke-width="0"
        d="M0.24455085232714038-3.599555640681862Q0.25619613100938515-3.6694273127753303 0.2794866883738747-3.785880099597778T0.4192300325608121-4.22840068952308 0.6521356062057077-4.7757287875885845 1.0247845240375406-5.206604098831641 1.537176786056311-5.404573836429803 2.0379237693928367-5.323056885654089 2.38728212986018-5.113441869373683 2.573606588776096-4.857245738364298 2.6667688182340545-4.635985443401647L2.690059375598544-4.554468492625934Q2.690059375598544-4.531177935261444 2.701704654280789-4.531177935261444L2.8298027197854814-4.659276000766137Q3.5285194407201685-5.404573836429803 4.471787013981995-5.404573836429803 4.669756751580157-5.404573836429803 4.832790653131584-5.381283279065313T5.135567898869948-5.2997663282896 5.356828193832599-5.183313541467152 5.531507374066271-5.043570197280214 5.647960160888719-4.892181574411032 5.741122390346677-4.7407929515418505 5.787703505075656-4.601049607354913 5.82263934112239-4.49624209921471 5.8459298984868795-4.414725148438996L5.939092127944837-4.531177935261444Q6.672744684926259-5.404573836429803 7.67423865159931-5.404573836429803 8.303083700440528-5.404573836429803 8.687377896954606-5.090151312009193T9.083317372150928-4.170174296111856Q9.083317372150928-3.5762650833173724 8.640796782225626-2.3302202643171803T8.198276192300325-0.8396245929898486Q8.20992147098257-0.6765906914384218 8.25650258571155-0.6183642980271978T8.43118176594522-0.5601379046159739Q8.757249569048074-0.5601379046159739 9.03673625742195-0.9094962650833173T9.490902126029496-1.8644091170273893Q9.52583796207623-1.9925071825320817 9.560773798122964-2.015797739896571T9.74709825703888-2.039088297261061Q9.980003830683776-2.039088297261061 9.980003830683776-1.9459260678031027 9.980003830683776-1.934280789120858 9.933422715954798-1.771246887569431 9.84026048649684-1.4335338057843323 9.677226584945412-1.1074660026814784T9.141543765562153-0.4553303964757709 8.338019536487263-0.14090787205516184Q7.790691438421757-0.14090787205516184 7.546140586094618-0.4553303964757709T7.301589733767477-1.1074660026814784Q7.301589733767477-1.3287262976441294 7.720819766328289-2.504899444550852T8.151695077571347-4.274981804252059Q8.151695077571347-4.962053246504501 7.6393028155525755-4.962053246504501H7.581076422141352Q6.579582455468301-4.962053246504501 5.8925110132158585-3.785880099597778L5.8109940624401455-3.646136755410841 5.426699865926068-2.08566941199004Q5.042405669411989-0.5601379046159739 4.9841792760007655-0.44368511779352615 4.832790653131584-0.12926259337291707 4.48343229266424-0.12926259337291707 4.332043669795058-0.12926259337291707 4.2388814403371-0.21077954414863054T4.110783374832407-0.3505228883355679 4.075847538785673-0.4669756751580157Q4.075847538785673-0.5950737406627082 4.471787013981995-2.132250526719019L4.8910170465428076-3.8324612143267576Q4.925952882589542-4.007140394560429 4.925952882589542-4.274981804252059 4.925952882589542-4.962053246504501 4.413560620570772-4.962053246504501H4.355334227159548Q3.3538402604864967-4.962053246504501 2.6667688182340545-3.785880099597778L2.585251867458341-3.646136755410841 2.2009576709442635-2.08566941199004Q1.8166634744301857-0.5601379046159739 1.7584370810189618-0.44368511779352615 1.6070484581497797-0.12926259337291707 1.2576900976824363-0.12926259337291707 1.106301474813254-0.12926259337291707 1.0131392453552959-0.19913426546638577T0.8850411798506033-0.33887760965332314 0.8617506224861137-0.4553303964757709Q0.8617506224861137-0.6067190193449531 1.3042712124114153-2.3651561003639148 1.7584370810189618-4.158529017429611 1.7584370810189618-4.240045968205325 1.793372917065696-4.414725148438996 1.793372917065696-4.554468492625934 1.793372917065696-4.973698525186745 1.5022409500095766-4.973698525186745 1.2460448190001914-4.973698525186745 1.0713656387665198-4.647630722083892T0.8035242290748899-3.9372687224669605 0.6637808848879525-3.5180386899061484Q0.6404903275234629-3.494748132541659 0.47745642597203597-3.494748132541659H0.3144225244206091Q0.24455085232714038-3.5646198046351274 0.24455085232714038-3.599555640681862ZM12.123759892740853-3.4504960735491284Q12.123759892740853-3.6480931622294572 12.280190921279447-3.7962909787397052T12.642452250526716-3.9527220072782994Q12.790650067036966-3.9527220072782994 12.88944861137713-3.853923462938134T12.996480367745642-3.6069271020877225Q12.996480367745642-3.4175632254357398 12.831816127178701-3.2611321968971456T12.46955479793143-3.096467956330205Q12.346056617506223-3.096467956330205 12.239024861137713-3.1788000766136753T12.123759892740853-3.4504960735491284ZM10.781746332120283-0.8735007086764988Q10.781746332120283-0.9393664049032753 10.855845240375407-1.1287302815552576T11.053442329055736-1.5486240950009575 11.415703658303006-1.9685179084466575 11.90969638000383-2.149648573070293Q12.230791649109365-2.149648573070293 12.44485516184639-1.9602846964183105T12.667151886611759-1.4498255506607929Q12.667151886611759-1.3098609461788928 12.551886918214901-0.9887656770733575T12.222558437081016-0.1242784140969163 11.876763531890441 0.8060745451063014Q11.835597471748706 0.9872052097299366 11.835597471748706 1.0695373300134075 11.835597471748706 1.2753676307220838 11.975562076230608 1.2753676307220838 12.04966098448573 1.2753676307220838 12.131993104769201 1.2506679946370427T12.321356981421184 1.1354030262401837 12.543653706186554 0.8472406052480368 12.74948400689523 0.36148109557556024Q12.774183642980272 0.26268255123539547 12.790650067036966 0.2462161271787014T12.930614671518866 0.22974970312200726Q13.095278912085805 0.22974970312200726 13.095278912085805 0.31208182340547785 13.095278912085805 0.3779475196322543 13.021180003830684 0.5673113962842368T12.815349703122008 0.9872052097299366 12.44485516184639 1.3988658111472898 11.93439601608887 1.5799964757709248Q11.670933231181765 1.5799964757709248 11.448636506416396 1.4070990231756368T11.218106569622677 0.8801734533614249Q11.218106569622677 0.740208848879525 11.259272629764412 0.616710668454319T11.613300746983336-0.32187550277724575Q11.926162804060523-1.1534299176402987 11.975562076230608-1.3180941582072399T12.033194560429035-1.6391894273127752Q12.033194560429035-1.8367865159931047 11.893229955947136-1.8367865159931047H11.876763531890441Q11.62976717104003-1.8367865159931047 11.423936870331355-1.5650905190576516T11.111074813254165-0.8735007086764988Q11.102841601225817-0.8652674966481517 11.09460838919747-0.8488010725914575T11.086375177169124-0.8241014365064163 11.06990875311243-0.8076350124497221 11.045209117027389-0.7994018004213752 11.012276268914-0.7994018004213752 10.946410572687224-0.7994018004213752H10.831145604290366Q10.781746332120283-0.8488010725914575 10.781746332120283-0.8735007086764988ZM15.894571001723806-3.4175632254357398Q15.894571001723806-3.6727927983144992 16.067468454319094-3.8127574027963993T16.421496571538018-3.9527220072782994Q16.561461176019918-3.9527220072782994 16.652026508331737-3.8703898869948286T16.767291476728595-3.6398599502011106Q16.767291476728595-3.4093300134073927 16.61086044819-3.252898984868799T16.24859911894273-3.096467956330205Q16.100401302432484-3.096467956330205 16.001602758092318-3.1788000766136753T15.894571001723806-3.4175632254357398ZM15.820472093468682-1.6062565791993868Q15.820472093468682-1.8450197280214518 15.606408580731658-1.8450197280214518 15.425277916108024-1.8450197280214518 15.260613675541082-1.7462211836812869T14.972451254548936-1.490991610802528 14.774854165868605-1.186362765753687 14.634889561386705-0.9228999808465811L14.577257077188277-0.8076350124497221Q14.560790653131582-0.7994018004213752 14.445525684734724-0.7994018004213752H14.330260716337866Q14.280861444167781-0.8488010725914575 14.280861444167781-0.8652674966481517T14.313794292281173-0.9722992530166633Q14.48669174487646-1.3757266424056693 14.799553801953648-1.729754759624593T15.524076460448189-2.141415361041946Q15.532309672476536-2.141415361041946 15.589942156674965-2.141415361041946T15.688740701015131-2.149648573070293Q15.886337789695459-2.141415361041946 16.0510020302624-2.067316452786822 16.256832330971076-1.9520514843899635 16.36386408733959-1.8120868799080634T16.4708958437081-1.3757266424056693V-1.2439952499521163L16.067468454319094 0.39441394368894844Q15.647574640873394 2.0410563493583602 15.622875004788355 2.106922045585137 15.474677188278106 2.5185826470024897 15.04655016280406 2.8396779161080254T14.06679793143076 3.1690063972419074Q13.655137330013405 3.1690063972419074 13.50693951350316 2.996108944646619T13.350508484964566 2.6173811913426546Q13.350508484964566 2.3950844665772837 13.50693951350316 2.2386534380386895T13.885667266807124 2.073989197471749Q14.025631871289024 2.073989197471749 14.124430415629188 2.156321317755219T14.2314621719977 2.411550890633978Q14.2314621719977 2.707946523654472 13.967999387090593 2.864377552193066 14.017398659260678 2.872610764221413 14.083264355487454 2.872610764221413 14.363193564451255 2.872610764221413 14.593723501244973 2.6420808274276957T14.947751618463894 2.0986888335567895L15.038316950775712 1.7528939283662133Q15.128882283087531 1.3988658111472898 15.252380463512736 0.896639877418119T15.515843248419843-0.13251162612526335 15.738139973185213-1.046398161271787 15.828705305497031-1.5156912468875694Q15.828705305497031-1.5733237310859989 15.820472093468682-1.6062565791993868Z"
        fill-opacity="1"
      ></path>
    </svg>
  </g>
  <g
    transform="rotate(0, 87.35821916321933, 137.20395477055038)translate(87.35821916321933, 137.20395477055038)"
    string="m_{jk}"
  >
    <title>`y`.labelText</title>
    <svg
      xmlns="http://www.w3.org/2000/svg"
      width="18.873503160314115"
      height="12.16"
      role="img"
      focusable="false"
      viewBox="0.24455085232714038 -5.404573836429803 17.897687033135412 8.57358023367171"
    >
      <path
        stroke="none"
        fill="#000000"
        stroke-width="0"
        d="M0.24455085232714038-3.599555640681862Q0.25619613100938515-3.6694273127753303 0.2794866883738747-3.785880099597778T0.4192300325608121-4.22840068952308 0.6521356062057077-4.7757287875885845 1.0247845240375406-5.206604098831641 1.537176786056311-5.404573836429803 2.0379237693928367-5.323056885654089 2.38728212986018-5.113441869373683 2.573606588776096-4.857245738364298 2.6667688182340545-4.635985443401647L2.690059375598544-4.554468492625934Q2.690059375598544-4.531177935261444 2.701704654280789-4.531177935261444L2.8298027197854814-4.659276000766137Q3.5285194407201685-5.404573836429803 4.471787013981995-5.404573836429803 4.669756751580157-5.404573836429803 4.832790653131584-5.381283279065313T5.135567898869948-5.2997663282896 5.356828193832599-5.183313541467152 5.531507374066271-5.043570197280214 5.647960160888719-4.892181574411032 5.741122390346677-4.7407929515418505 5.787703505075656-4.601049607354913 5.82263934112239-4.49624209921471 5.8459298984868795-4.414725148438996L5.939092127944837-4.531177935261444Q6.672744684926259-5.404573836429803 7.67423865159931-5.404573836429803 8.303083700440528-5.404573836429803 8.687377896954606-5.090151312009193T9.083317372150928-4.170174296111856Q9.083317372150928-3.5762650833173724 8.640796782225626-2.3302202643171803T8.198276192300325-0.8396245929898486Q8.20992147098257-0.6765906914384218 8.25650258571155-0.6183642980271978T8.43118176594522-0.5601379046159739Q8.757249569048074-0.5601379046159739 9.03673625742195-0.9094962650833173T9.490902126029496-1.8644091170273893Q9.52583796207623-1.9925071825320817 9.560773798122964-2.015797739896571T9.74709825703888-2.039088297261061Q9.980003830683776-2.039088297261061 9.980003830683776-1.9459260678031027 9.980003830683776-1.934280789120858 9.933422715954798-1.771246887569431 9.84026048649684-1.4335338057843323 9.677226584945412-1.1074660026814784T9.141543765562153-0.4553303964757709 8.338019536487263-0.14090787205516184Q7.790691438421757-0.14090787205516184 7.546140586094618-0.4553303964757709T7.301589733767477-1.1074660026814784Q7.301589733767477-1.3287262976441294 7.720819766328289-2.504899444550852T8.151695077571347-4.274981804252059Q8.151695077571347-4.962053246504501 7.6393028155525755-4.962053246504501H7.581076422141352Q6.579582455468301-4.962053246504501 5.8925110132158585-3.785880099597778L5.8109940624401455-3.646136755410841 5.426699865926068-2.08566941199004Q5.042405669411989-0.5601379046159739 4.9841792760007655-0.44368511779352615 4.832790653131584-0.12926259337291707 4.48343229266424-0.12926259337291707 4.332043669795058-0.12926259337291707 4.2388814403371-0.21077954414863054T4.110783374832407-0.3505228883355679 4.075847538785673-0.4669756751580157Q4.075847538785673-0.5950737406627082 4.471787013981995-2.132250526719019L4.8910170465428076-3.8324612143267576Q4.925952882589542-4.007140394560429 4.925952882589542-4.274981804252059 4.925952882589542-4.962053246504501 4.413560620570772-4.962053246504501H4.355334227159548Q3.3538402604864967-4.962053246504501 2.6667688182340545-3.785880099597778L2.585251867458341-3.646136755410841 2.2009576709442635-2.08566941199004Q1.8166634744301857-0.5601379046159739 1.7584370810189618-0.44368511779352615 1.6070484581497797-0.12926259337291707 1.2576900976824363-0.12926259337291707 1.106301474813254-0.12926259337291707 1.0131392453552959-0.19913426546638577T0.8850411798506033-0.33887760965332314 0.8617506224861137-0.4553303964757709Q0.8617506224861137-0.6067190193449531 1.3042712124114153-2.3651561003639148 1.7584370810189618-4.158529017429611 1.7584370810189618-4.240045968205325 1.793372917065696-4.414725148438996 1.793372917065696-4.554468492625934 1.793372917065696-4.973698525186745 1.5022409500095766-4.973698525186745 1.2460448190001914-4.973698525186745 1.0713656387665198-4.647630722083892T0.8035242290748899-3.9372687224669605 0.6637808848879525-3.5180386899061484Q0.6404903275234629-3.494748132541659 0.47745642597203597-3.494748132541659H0.3144225244206091Q0.24455085232714038-3.5646198046351274 0.24455085232714038-3.599555640681862ZM13.054112851944073-3.4175632254357398Q13.054112851944073-3.6727927983144992 13.227010304539359-3.8127574027963993T13.581038421758285-3.9527220072782994Q13.721003026240185-3.9527220072782994 13.811568358552-3.8703898869948286T13.92683332694886-3.6398599502011106Q13.92683332694886-3.4093300134073927 13.770402298410266-3.252898984868799T13.408140969162996-3.096467956330205Q13.259943152652747-3.096467956330205 13.161144608312584-3.1788000766136753T13.054112851944073-3.4175632254357398ZM12.980013943688947-1.6062565791993868Q12.980013943688947-1.8450197280214518 12.765950430951923-1.8450197280214518 12.58481976632829-1.8450197280214518 12.420155525761347-1.7462211836812869T12.131993104769201-1.490991610802528 11.93439601608887-1.186362765753687 11.79443141160697-0.9228999808465811L11.736798927408541-0.8076350124497221Q11.720332503351848-0.7994018004213752 11.605067534954989-0.7994018004213752H11.48980256655813Q11.440403294388048-0.8488010725914575 11.440403294388048-0.8652674966481517T11.473336142501436-0.9722992530166633Q11.646233595096724-1.3757266424056693 11.959095652173913-1.729754759624593T12.683618310668454-2.141415361041946Q12.691851522696801-2.141415361041946 12.74948400689523-2.141415361041946T12.848282551235396-2.149648573070293Q13.045879639915723-2.141415361041946 13.210543880482666-2.067316452786822 13.416374181191342-1.9520514843899635 13.523405937559854-1.8120868799080634T13.630437693928366-1.3757266424056693V-1.2439952499521163L13.227010304539359 0.39441394368894844Q12.807116491093659 2.0410563493583602 12.782416855008616 2.106922045585137 12.634219038498372 2.5185826470024897 12.206092013024323 2.8396779161080254T11.226339781651024 3.1690063972419074Q10.81467918023367 3.1690063972419074 10.666481363723424 2.996108944646619T10.510050335184829 2.6173811913426546Q10.510050335184829 2.3950844665772837 10.666481363723424 2.2386534380386895T11.045209117027389 2.073989197471749Q11.185173721509289 2.073989197471749 11.283972265849455 2.156321317755219T11.391004022217965 2.411550890633978Q11.391004022217965 2.707946523654472 11.12754123731086 2.864377552193066 11.176940509480941 2.872610764221413 11.242806205707717 2.872610764221413 11.522735414671518 2.872610764221413 11.753265351465236 2.6420808274276957T12.107293468684158 2.0986888335567895L12.197858800995977 1.7528939283662133Q12.288424133307796 1.3988658111472898 12.411922313733001 0.896639877418119T12.675385098640108-0.13251162612526335 12.897681823405478-1.046398161271787 12.988247155717296-1.5156912468875694Q12.988247155717296-1.5733237310859989 12.980013943688947-1.6062565791993868ZM14.997150890633977-3.83745703888144Q14.997150890633977-3.9197891591649108 15.030083738747367-4.026820915533423T15.128882283087531-4.133852671901934Q15.137115495115877-4.133852671901934 15.72167354912852-4.17501873204367T16.322698027197852-4.224418004213752Q16.421496571538018-4.224418004213752 16.421496571538018-4.158552307986975 16.421496571538018-4.100919823788546 16.009835970120665-2.43781099406244 15.598175368703313-0.8076350124497221 15.598175368703313-0.7500025282512928 15.754606397241906-0.8323346485347635 15.836938517525377-0.906433556789887 16.034535606205708-1.054631373300134 16.405030147481327-1.4251259145757518T16.98135498946562-1.9273518483049223Q17.3106834705995-2.149648573070293 17.607079103619995-2.149648573070293 17.85407546447041-2.149648573070293 17.99404006895231-1.9932175445316989T18.142237885462553-1.5486240950009575Q18.142237885462553-1.3427937942922812 18.084605401264124-1.2028291898103811T17.92817437272553-0.9969988891017046 17.755276920130243-0.906433556789887 17.607079103619995-0.8817339207048457Q17.442414863053052-0.8817339207048457 17.34361631871289-0.9722992530166633T17.244817774372727-1.2110624018387282Q17.244817774372727-1.4168927025474047 17.376549166826276-1.5486240950009575T17.640011951733385-1.721521547596246L17.771743344186934-1.7462211836812869Q17.67294479984677-1.8450197280214518 17.57414625550661-1.8450197280214518H17.54121340739322Q17.277750622486113-1.8203200919364104 17.022521049607352-1.6391894273127752T16.421496571538018-1.1122638574985635 15.878104577667113-0.6100379237693928Q15.894571001723806-0.6018047117410457 16.001602758092318-0.5853382876843517T16.19919984677265-0.5359390155142693 16.41326335950967-0.4700733192874928 16.635560084275042-0.35480835089063395 16.816690748898676-0.2066105343803869 16.956655353380576 0.007452978356636659 17.00605462555066 0.2791489752920896Q17.00605462555066 0.41911357977398966 16.964888565408927 0.616710668454319T16.915489293238842 0.9460391495882015Q16.915489293238842 1.2753676307220838 17.137786018004213 1.2753676307220838 17.53298019536487 1.2753676307220838 17.779976556215285 0.2956153993487838 17.796442980271976 0.22974970312200726 17.944640796782224 0.22974970312200726H17.977573644895614Q18.109305037349166 0.22974970312200726 18.109305037349166 0.30384861137713076 18.109305037349166 0.3450146715188661 18.084605401264124 0.41911357977398966 17.747043708101895 1.5799964757709248 17.11308638191917 1.5799964757709248 16.742591840643552 1.5799964757709248 16.512061903849837 1.3659329630339014T16.281531967056118 0.7484420609078719Q16.281531967056118 0.6002442443976249 16.30623160314116 0.49321248802911316T16.3309312392262 0.2956153993487838Q16.3309312392262 0.11448473472514843 16.21566627082934-0.01724665772840452T15.927503849837194-0.2066105343803869 15.647574640873394-0.2971758666922045 15.499376824363148-0.32187550277724575H15.482910400306455Q15.384111855966289 0.023919402413330775 15.310012947711165 0.3450146715188661T15.194747979314306 0.8225409691629955 15.120649071059182 1.1271698142118367 15.063016586860755 1.3247669028921663 15.005384102662324 1.431798659260678 14.914818770350506 1.5058975675158015Q14.807787013981994 1.5799964757709248 14.684288833556788 1.5799964757709248 14.544324229074888 1.5799964757709248 14.470225320819766 1.4976643554874545T14.396126412564643 1.3576997510055544Q14.396126412564643 1.2753676307220838 14.700755257613482 0.040385826470024894T15.30177973568282-2.388411721892358L15.606408580731658-3.5822274660026814Q15.614641792760006-3.689259222371193 15.548776096533231-3.713958858456234T15.227680827427694-3.7551249185979696H15.18651476728596Q15.104182647002489-3.7551249185979696 15.079483010917448-3.7551249185979696T15.02185052671902-3.7798245546830107 14.997150890633977-3.83745703888144Z"
        fill-opacity="1"
      ></path>
    </svg>
  </g>
  <g
    transform="rotate(0, 186.0357402078615, 150.01793747682598)translate(186.0357402078615, 150.01793747682598)"
    string="m_{ki}"
  >
    <title>`z`.labelText</title>
    <svg
      xmlns="http://www.w3.org/2000/svg"
      width="18.345844000000003"
      height="11.66"
      role="img"
      focusable="false"
      viewBox="0.24486 -5.15372 17.161899260000002 6.99339982"
    >
      <path
        stroke="none"
        fill="#000000"
        stroke-width="0"
        d="M0.24486-3.34642Q0.25652-3.41638 0.27984-3.5329800000000002T0.41976-3.97606 0.65296-4.52408 1.02608-4.9555 1.53912-5.15372 2.0405-5.0721 2.3903-4.86222 2.57686-4.6057 2.67014-4.3841600000000005L2.69346-4.3025400000000005Q2.69346-4.2792200000000005 2.70512-4.2792200000000005L2.83338-4.4074800000000005Q3.5329800000000002-5.15372 4.47744-5.15372 4.67566-5.15372 4.8389-5.1304T5.14206-5.04878 5.3636-4.93218 5.5385-4.79226 5.6551-4.64068 5.74838-4.4891 5.79502-4.3491800000000005 5.83-4.2442400000000005 5.85332-4.16262L5.9466-4.2792200000000005Q6.68118-5.15372 7.68394-5.15372 8.31358-5.15372 8.698360000000001-4.8389T9.0948-3.91776Q9.0948-3.3231 8.651720000000001-2.07548T8.20864-0.583Q8.2203-0.41976 8.26694-0.36146T8.441840000000001-0.30316Q8.768320000000001-0.30316 9.04816-0.65296T9.5029-1.60908Q9.53788-1.73734 9.57286-1.7606600000000001T9.75942-1.7839800000000001Q9.99262-1.7839800000000001 9.99262-1.6907 9.99262-1.67904 9.94598-1.5158 9.8527-1.17766 9.68946-0.85118T9.1531-0.19822 8.34856 0.11660000000000001Q7.80054 0.11660000000000001 7.55568-0.19822T7.3108200000000005-0.85118Q7.3108200000000005-1.0727200000000001 7.73058-2.25038T8.162-4.0227Q8.162-4.71064 7.64896-4.71064H7.59066Q6.5879-4.71064 5.89996-3.5329800000000002L5.81834-3.39306 5.43356-1.8306200000000001Q5.04878-0.30316 4.99048-0.18656 4.8389 0.12826 4.4891 0.12826 4.3375200000000005 0.12826 4.2442400000000005 0.04664T4.11598-0.09328 4.081-0.20988Q4.081-0.33814 4.47744-1.87726L4.8972-3.5796200000000002Q4.93218-3.75452 4.93218-4.0227 4.93218-4.71064 4.4191400000000005-4.71064H4.3608400000000005Q3.35808-4.71064 2.67014-3.5329800000000002L2.58852-3.39306 2.2037400000000003-1.8306200000000001Q1.8189600000000001-0.30316 1.7606600000000001-0.18656 1.60908 0.12826 1.25928 0.12826 1.1077000000000001 0.12826 1.01442 0.058300000000000005T0.8861600000000001-0.08162 0.86284-0.19822Q0.86284-0.3498 1.30592-2.1104600000000002 1.7606600000000001-3.9061 1.7606600000000001-3.98772 1.7956400000000001-4.16262 1.7956400000000001-4.3025400000000005 1.7956400000000001-4.7223 1.50414-4.7223 1.24762-4.7223 1.0727200000000001-4.3958200000000005T0.80454-3.6845600000000003 0.66462-3.2648Q0.6413-3.24148 0.47806-3.24148H0.31482Q0.24486-3.31144 0.24486-3.34642ZM11.61973802-3.5846221399999996Q11.61973802-3.6670583400000005 11.6527125-3.7742254T11.75163594-3.88139246Q11.75987956-3.88139246 12.345176579999999-3.92261056T12.946960840000001-3.9720722800000003Q13.04588428-3.9720722800000003 13.04588428-3.9061233200000003 13.04588428-3.8484179800000002 12.63370328-2.18320674 12.221522279999999-0.55096998 12.221522279999999-0.49326464000000003 12.378151059999999-0.57570084 12.46058726-0.64989342 12.658434139999999-0.79827858 13.02939704-1.1692414800000002T13.60645044-1.6721023000000002Q13.93619524-1.8946800400000001 14.23296556-1.8946800400000001 14.48027416-1.8946800400000001 14.6204157-1.7380512600000002T14.76880086-1.29289578Q14.76880086-1.08680528 14.71109552-0.94666374T14.55446674-0.74057324 14.38135072-0.64989342 14.23296556-0.62516256Q14.068093160000002-0.62516256 13.96916972-0.71584238T13.87024628-0.95490736Q13.87024628-1.16099786 14.002144199999998-1.29289578T14.265940039999998-1.4660118L14.39783796-1.49074266Q14.298914519999999-1.5896661 14.19999108-1.5896661H14.1670166Q13.90322076-1.56493524 13.647668540000002-1.3835756T13.04588428-0.8559839200000001 12.501805359999999-0.3531231Q12.518292599999999-0.34487948 12.625459659999999-0.32839224T12.82330654-0.27893052 13.037640660000001-0.21298156 13.260218400000001-0.09757088000000001 13.441578040000001 0.050814279999999996 13.581719580000001 0.2651484 13.631181300000001 0.53718786Q13.631181300000001 0.6773294000000001 13.5899632 0.8751762800000001T13.54050148 1.2049210799999999Q13.54050148 1.53466588 13.76307922 1.53466588 14.158772980000002 1.53466588 14.406081579999999 0.5536751 14.422568819999999 0.48772614000000003 14.57095398 0.48772614000000003H14.60392846Q14.735826379999999 0.48772614000000003 14.735826379999999 0.56191872 14.735826379999999 0.60313682 14.71109552 0.6773294000000001 14.3731071 1.83967982 13.738348360000002 1.83967982 13.367385460000001 1.83967982 13.1365641 1.6253457000000002T12.905742739999999 1.0070742000000001Q12.905742739999999 0.8586890400000001 12.930473600000001 0.75152198T12.95520446 0.5536751Q12.95520446 0.37231546000000004 12.83979378 0.24041754T12.55126708 0.050814279999999996 12.270984000000002-0.03986554 12.12259884-0.0645964H12.1061116Q12.007188160000002 0.28163564 11.93299558 0.60313682T11.8175849 1.08126678 11.74339232 1.38628072 11.68568698 1.5841276000000002 11.62798164 1.6912946599999998 11.53730182 1.76548724Q11.43013476 1.83967982 11.306480460000001 1.83967982 11.166338920000001 1.83967982 11.09214634 1.75724362T11.017953760000001 1.61710208Q11.017953760000001 1.53466588 11.322967700000001 0.29812288000000003T11.92475196-2.13374502L12.2297659-3.3290699200000002Q12.238009519999999-3.43623698 12.17206056-3.4609678400000004T11.85055938-3.50218594H11.80934128Q11.726905080000002-3.50218594 11.70217422-3.50218594T11.64446888-3.5269168000000004 11.61973802-3.5846221399999996ZM16.4340121-3.197172Q16.4340121-3.3950188800000003 16.59064088-3.54340404T16.953360160000003-3.70003282Q17.10174532-3.70003282 17.20066876-3.6011093800000005T17.30783582-3.35380078Q17.30783582-3.16419752 17.14296342-3.0075687400000004T16.78024414-2.8426963400000003Q16.65658984-2.8426963400000003 16.54942278-2.92513254T16.4340121-3.197172ZM15.09030204-0.61691894Q15.09030204-0.6828679 15.164494620000001-0.8724711599999999T15.362341500000001-1.29289578 15.725060780000002-1.7133204 16.21967798-1.8946800400000001Q16.54117916-1.8946800400000001 16.755513280000002-1.7050767800000002T16.97809102-1.19397234Q16.97809102-1.0538308 16.86268034-0.73232962T16.53293554 0.13325048 16.1867035 1.06477954Q16.145485400000002 1.2461391800000001 16.145485400000002 1.32857538 16.145485400000002 1.53466588 16.28562694 1.53466588 16.35981952 1.53466588 16.442255720000002 1.5099350200000001T16.63185898 1.39452434 16.85443672 1.10599764 17.06052722 0.61962406Q17.08525808 0.52070062 17.10174532 0.50421338T17.24188686 0.48772614000000003Q17.40675926 0.48772614000000003 17.40675926 0.57016234 17.40675926 0.6361113 17.33256668 0.8257145600000001T17.12647618 1.2461391800000001 16.755513280000002 1.6583201800000003 16.24440884 1.83967982Q15.980613 1.83967982 15.75803526 1.6665638T15.5272139 1.13897212Q15.5272139 0.99883058 15.568432000000001 0.8751762800000001T15.922907660000002-0.0645964Q16.23616522-0.89720202 16.28562694-1.06207442T16.34333228-1.3835756Q16.34333228-1.5814224799999999 16.20319074-1.5814224799999999H16.1867035Q15.939394900000002-1.5814224799999999 15.7333044-1.30938302T15.42004684-0.61691894Q15.411803220000001-0.60867532 15.4035596-0.59218808T15.395315980000001-0.56745722 15.378828740000001-0.55096998 15.35409788-0.54272636 15.321123400000001-0.54272636 15.255174440000001-0.54272636H15.13976376Q15.09030204-0.59218808 15.09030204-0.61691894Z"
        fill-opacity="1"
      ></path>
    </svg>
  </g>
</svg>
