<svg version="1.2" xmlns="http://www.w3.org/2000/svg" viewBox="0 0 240 180">
  <rect
    x="0"
    y="0"
    width="240"
    height="180"
    fill="#e6ffe6"
    fill-opacity="1"
    stroke="none"
    rx="0"
    transform="rotate(0, 0, 0)"
  >
    <title>Global.box</title>
  </rect>
  <g>
    <filter id="e.curveKI-shadow" x="0" y="0" width="200%" height="200%">
      <feOffset result="offOut" in="SourceAlpha" dx="5" dy="5"></feOffset>
      <feGaussianBlur
        result="blurOut"
        in="offOut"
        stdDeviation="4"
      ></feGaussianBlur>
      <feBlend in="SourceGraphic" in2="blurOut" mode="normal"></feBlend>
      <feComponentTransfer>
        <feFuncA type="linear" slope="0.5"></feFuncA>
      </feComponentTransfer>
      <feMerge>
        <feMergeNode></feMergeNode>
        <feMergeNode in="SourceGraphic"></feMergeNode>
      </feMerge>
    </filter>
    <path
      stroke="#000000"
      fill="none"
      stroke-width="1.5"
      stroke-opacity="1"
      d="M 226.57924709414263 169.18707660461976 Q 194.90929112585604 153.7508343911739 165.5327724208302 58.347473025419674"
    ></path>
    <title>e.curveKI</title>
  </g>
  <g>
    <filter id="e.curveJK-shadow" x="0" y="0" width="200%" height="200%">
      <feOffset result="offOut" in="SourceAlpha" dx="5" dy="5"></feOffset>
      <feGaussianBlur
        result="blurOut"
        in="offOut"
        stdDeviation="4"
      ></feGaussianBlur>
      <feBlend in="SourceGraphic" in2="blurOut" mode="normal"></feBlend>
      <feComponentTransfer>
        <feFuncA type="linear" slope="0.5"></feFuncA>
      </feComponentTransfer>
      <feMerge>
        <feMergeNode></feMergeNode>
        <feMergeNode in="SourceGraphic"></feMergeNode>
      </feMerge>
    </filter>
    <path
      stroke="#000000"
      fill="none"
      stroke-width="1.5"
      stroke-opacity="1"
      d="M 69.31659971300537 125.4159621727965 Q 181.14964305406497 169.60949581531847 226.57924709414263 169.18707660461976"
    ></path>
    <title>e.curveJK</title>
  </g>
  <g>
    <filter id="e.curveIJ-shadow" x="0" y="0" width="200%" height="200%">
      <feOffset result="offOut" in="SourceAlpha" dx="5" dy="5"></feOffset>
      <feGaussianBlur
        result="blurOut"
        in="offOut"
        stdDeviation="4"
      ></feGaussianBlur>
      <feBlend in="SourceGraphic" in2="blurOut" mode="normal"></feBlend>
      <feComponentTransfer>
        <feFuncA type="linear" slope="0.5"></feFuncA>
      </feComponentTransfer>
      <feMerge>
        <feMergeNode></feMergeNode>
        <feMergeNode in="SourceGraphic"></feMergeNode>
      </feMerge>
    </filter>
    <path
      stroke="#000000"
      fill="none"
      stroke-width="1.5"
      stroke-opacity="1"
      d="M 165.5327724208302 58.347473025419674 Q 135.69460884366316 127.46556114827743 69.31659971300537 125.4159621727965"
    ></path>
    <title>e.curveIJ</title>
  </g>
  <g>
    <filter id="t2.curveKI-shadow" x="0" y="0" width="200%" height="200%">
      <feOffset result="offOut" in="SourceAlpha" dx="5" dy="5"></feOffset>
      <feGaussianBlur
        result="blurOut"
        in="offOut"
        stdDeviation="4"
      ></feGaussianBlur>
      <feBlend in="SourceGraphic" in2="blurOut" mode="normal"></feBlend>
      <feComponentTransfer>
        <feFuncA type="linear" slope="0.5"></feFuncA>
      </feComponentTransfer>
      <feMerge>
        <feMergeNode></feMergeNode>
        <feMergeNode in="SourceGraphic"></feMergeNode>
      </feMerge>
    </filter>
    <path
      stroke="#000000"
      fill="none"
      stroke-width="1.5"
      stroke-opacity="1"
      d="M 79.08346881814936 13.854081476506337 Q 98.67602502164195 37.99760921696428 69.31659971300537 125.4159621727965"
    ></path>
    <title>t2.curveKI</title>
  </g>
  <g>
    <filter id="t2.curveJK-shadow" x="0" y="0" width="200%" height="200%">
      <feOffset result="offOut" in="SourceAlpha" dx="5" dy="5"></feOffset>
      <feGaussianBlur
        result="blurOut"
        in="offOut"
        stdDeviation="4"
      ></feGaussianBlur>
      <feBlend in="SourceGraphic" in2="blurOut" mode="normal"></feBlend>
      <feComponentTransfer>
        <feFuncA type="linear" slope="0.5"></feFuncA>
      </feComponentTransfer>
      <feMerge>
        <feMergeNode></feMergeNode>
        <feMergeNode in="SourceGraphic"></feMergeNode>
      </feMerge>
    </filter>
    <path
      stroke="#000000"
      fill="none"
      stroke-width="1.5"
      stroke-opacity="1"
      d="M 165.5327724208302 58.347473025419674 Q 105.6076676777623 -0.24609154871691885 79.08346881814936 13.854081476506337"
    ></path>
    <title>t2.curveJK</title>
  </g>
  <g>
    <filter id="t2.curveIJ-shadow" x="0" y="0" width="200%" height="200%">
      <feOffset result="offOut" in="SourceAlpha" dx="5" dy="5"></feOffset>
      <feGaussianBlur
        result="blurOut"
        in="offOut"
        stdDeviation="4"
      ></feGaussianBlur>
      <feBlend in="SourceGraphic" in2="blurOut" mode="normal"></feBlend>
      <feComponentTransfer>
        <feFuncA type="linear" slope="0.5"></feFuncA>
      </feComponentTransfer>
      <feMerge>
        <feMergeNode></feMergeNode>
        <feMergeNode in="SourceGraphic"></feMergeNode>
      </feMerge>
    </filter>
    <path
      stroke="#000000"
      fill="none"
      stroke-width="1.5"
      stroke-opacity="1"
      d="M 69.31659971300537 125.4159621727965 Q 135.69460884366316 127.46556114827743 165.5327724208302 58.347473025419674"
    ></path>
    <title>t2.curveIJ</title>
  </g>
  <g
    transform="rotate(0, 89.26064917139793, 48.3025786142979)translate(89.26064917139793, 48.3025786142979)"
    string="m_{ki}"
    font-size="6"
  >
    <title>z.labelText</title>
    <svg
      style="vertical-align: -0.566ex"
      xmlns="http://www.w3.org/2000/svg"
      width="18.345844000000003"
      height="11.66"
      role="img"
      focusable="false"
      viewBox="0 -750 1573.4 1000"
    >
      <g
        stroke="currentColor"
        fill="#000000"
        stroke-width="0"
        transform="scale(1,-1)"
        fill-opacity="1"
      >
        <g data-mml-node="math">
          <g data-mml-node="mtable">
            <g data-mml-node="mtr">
              <g data-mml-node="mtd">
                <g data-mml-node="msub">
                  <g data-mml-node="mi">
                    <path
                      data-c="1D45A"
                      d="M21 287Q22 293 24 303T36 341T56 388T88 425T132 442T175 435T205 417T221 395T229 376L231 369Q231 367 232 367L243 378Q303 442 384 442Q401 442 415 440T441 433T460 423T475 411T485 398T493 385T497 373T500 364T502 357L510 367Q573 442 659 442Q713 442 746 415T780 336Q780 285 742 178T704 50Q705 36 709 31T724 26Q752 26 776 56T815 138Q818 149 821 151T837 153Q857 153 857 145Q857 144 853 130Q845 101 831 73T785 17T716 -10Q669 -10 648 17T627 73Q627 92 663 193T700 345Q700 404 656 404H651Q565 404 506 303L499 291L466 157Q433 26 428 16Q415 -11 385 -11Q372 -11 364 -4T353 8T350 18Q350 29 384 161L420 307Q423 322 423 345Q423 404 379 404H374Q288 404 229 303L222 291L189 157Q156 26 151 16Q138 -11 108 -11Q95 -11 87 -5T76 7T74 17Q74 30 112 181Q151 335 151 342Q154 357 154 369Q154 405 129 405Q107 405 92 377T69 316T57 280Q55 278 41 278H27Q21 284 21 287Z"
                      stroke="none"
                    ></path>
                  </g>
                  <g
                    data-mml-node="TeXAtom"
                    transform="translate(911,-150) scale(0.707)"
                    data-mjx-texclass="ORD"
                  >
                    <g data-mml-node="mi">
                      <path
                        data-c="1D458"
                        d="M121 647Q121 657 125 670T137 683Q138 683 209 688T282 694Q294 694 294 686Q294 679 244 477Q194 279 194 272Q213 282 223 291Q247 309 292 354T362 415Q402 442 438 442Q468 442 485 423T503 369Q503 344 496 327T477 302T456 291T438 288Q418 288 406 299T394 328Q394 353 410 369T442 390L458 393Q446 405 434 405H430Q398 402 367 380T294 316T228 255Q230 254 243 252T267 246T293 238T320 224T342 206T359 180T365 147Q365 130 360 106T354 66Q354 26 381 26Q429 26 459 145Q461 153 479 153H483Q499 153 499 144Q499 139 496 130Q455 -11 378 -11Q333 -11 305 15T277 90Q277 108 280 121T283 145Q283 167 269 183T234 206T200 217T182 220H180Q168 178 159 139T145 81T136 44T129 20T122 7T111 -2Q98 -11 83 -11Q66 -11 57 -1T48 16Q48 26 85 176T158 471L195 616Q196 629 188 632T149 637H144Q134 637 131 637T124 640T121 647Z"
                        stroke="none"
                      ></path>
                    </g>
                    <g data-mml-node="mi" transform="translate(521,0)">
                      <path
                        data-c="1D456"
                        d="M184 600Q184 624 203 642T247 661Q265 661 277 649T290 619Q290 596 270 577T226 557Q211 557 198 567T184 600ZM21 287Q21 295 30 318T54 369T98 420T158 442Q197 442 223 419T250 357Q250 340 236 301T196 196T154 83Q149 61 149 51Q149 26 166 26Q175 26 185 29T208 43T235 78T260 137Q263 149 265 151T282 153Q302 153 302 143Q302 135 293 112T268 61T223 11T161 -11Q129 -11 102 10T74 74Q74 91 79 106T122 220Q160 321 166 341T173 380Q173 404 156 404H154Q124 404 99 371T61 287Q60 286 59 284T58 281T56 279T53 278T49 278T41 278H27Q21 284 21 287Z"
                        stroke="none"
                      ></path>
                    </g>
                  </g>
                </g>
              </g>
            </g>
          </g>
        </g>
      </g>
    </svg>
  </g>
  <circle
    fill="#ffffff"
    fill-opacity="1"
    cx="86.43802964360965"
    cy="53.81631552080785"
    stroke="#000000"
    stroke-opacity="1"
    stroke-width="1"
    stroke-linecap="butt"
    r="2"
  >
    <title>z.icon</title>
  </circle>
  <g
    transform="rotate(0, 109.08889059476698, 0.7509307881362712)translate(109.08889059476698, 0.7509307881362712)"
    string="m_{jk}"
    font-size="6"
  >
    <title>y.labelText</title>
    <svg
      style="vertical-align: -0.616ex"
      xmlns="http://www.w3.org/2000/svg"
      width="18.873503160314115"
      height="12.16"
      role="img"
      focusable="false"
      viewBox="0 -772.1 1620.7 1044.2"
    >
      <g
        stroke="currentColor"
        fill="#000000"
        stroke-width="0"
        transform="scale(1,-1)"
        fill-opacity="1"
      >
        <g data-mml-node="math">
          <g data-mml-node="mtable">
            <g data-mml-node="mtr" transform="translate(0,22.1)">
              <g data-mml-node="mtd">
                <g data-mml-node="msub">
                  <g data-mml-node="mi">
                    <path
                      data-c="1D45A"
                      d="M21 287Q22 293 24 303T36 341T56 388T88 425T132 442T175 435T205 417T221 395T229 376L231 369Q231 367 232 367L243 378Q303 442 384 442Q401 442 415 440T441 433T460 423T475 411T485 398T493 385T497 373T500 364T502 357L510 367Q573 442 659 442Q713 442 746 415T780 336Q780 285 742 178T704 50Q705 36 709 31T724 26Q752 26 776 56T815 138Q818 149 821 151T837 153Q857 153 857 145Q857 144 853 130Q845 101 831 73T785 17T716 -10Q669 -10 648 17T627 73Q627 92 663 193T700 345Q700 404 656 404H651Q565 404 506 303L499 291L466 157Q433 26 428 16Q415 -11 385 -11Q372 -11 364 -4T353 8T350 18Q350 29 384 161L420 307Q423 322 423 345Q423 404 379 404H374Q288 404 229 303L222 291L189 157Q156 26 151 16Q138 -11 108 -11Q95 -11 87 -5T76 7T74 17Q74 30 112 181Q151 335 151 342Q154 357 154 369Q154 405 129 405Q107 405 92 377T69 316T57 280Q55 278 41 278H27Q21 284 21 287Z"
                      stroke="none"
                    ></path>
                  </g>
                  <g
                    data-mml-node="TeXAtom"
                    transform="translate(911,-150) scale(0.707)"
                    data-mjx-texclass="ORD"
                  >
                    <g data-mml-node="mi">
                      <path
                        data-c="1D457"
                        d="M297 596Q297 627 318 644T361 661Q378 661 389 651T403 623Q403 595 384 576T340 557Q322 557 310 567T297 596ZM288 376Q288 405 262 405Q240 405 220 393T185 362T161 325T144 293L137 279Q135 278 121 278H107Q101 284 101 286T105 299Q126 348 164 391T252 441Q253 441 260 441T272 442Q296 441 316 432Q341 418 354 401T367 348V332L318 133Q267 -67 264 -75Q246 -125 194 -164T75 -204Q25 -204 7 -183T-12 -137Q-12 -110 7 -91T53 -71Q70 -71 82 -81T95 -112Q95 -148 63 -167Q69 -168 77 -168Q111 -168 139 -140T182 -74L193 -32Q204 11 219 72T251 197T278 308T289 365Q289 372 288 376Z"
                        stroke="none"
                      ></path>
                    </g>
                    <g data-mml-node="mi" transform="translate(412,0)">
                      <path
                        data-c="1D458"
                        d="M121 647Q121 657 125 670T137 683Q138 683 209 688T282 694Q294 694 294 686Q294 679 244 477Q194 279 194 272Q213 282 223 291Q247 309 292 354T362 415Q402 442 438 442Q468 442 485 423T503 369Q503 344 496 327T477 302T456 291T438 288Q418 288 406 299T394 328Q394 353 410 369T442 390L458 393Q446 405 434 405H430Q398 402 367 380T294 316T228 255Q230 254 243 252T267 246T293 238T320 224T342 206T359 180T365 147Q365 130 360 106T354 66Q354 26 381 26Q429 26 459 145Q461 153 479 153H483Q499 153 499 144Q499 139 496 130Q455 -11 378 -11Q333 -11 305 15T277 90Q277 108 280 121T283 145Q283 167 269 183T234 206T200 217T182 220H180Q168 178 159 139T145 81T136 44T129 20T122 7T111 -2Q98 -11 83 -11Q66 -11 57 -1T48 16Q48 26 85 176T158 471L195 616Q196 629 188 632T149 637H144Q134 637 131 637T124 640T121 647Z"
                        stroke="none"
                      ></path>
                    </g>
                  </g>
                </g>
              </g>
            </g>
          </g>
        </g>
      </g>
    </svg>
  </g>
  <circle
    fill="#ffffff"
    fill-opacity="1"
    cx="113.95789414862604"
    cy="17.927342851123043"
    stroke="#000000"
    stroke-opacity="1"
    stroke-width="1"
    stroke-linecap="butt"
    r="2"
  >
    <title>y.icon</title>
  </circle>
  <g
    transform="rotate(0, 124.57188759492986, 113.53217649761181)translate(124.57188759492986, 113.53217649761181)"
    string="m_{ij}"
    font-size="6"
  >
    <title>x.labelText</title>
    <svg
      style="vertical-align: -0.616ex"
      xmlns="http://www.w3.org/2000/svg"
      width="17.424830492242865"
      height="12.16"
      role="img"
      focusable="false"
      viewBox="0 -772.1 1496.3 1044.2"
    >
      <g
        stroke="currentColor"
        fill="#000000"
        stroke-width="0"
        transform="scale(1,-1)"
        fill-opacity="1"
      >
        <g data-mml-node="math">
          <g data-mml-node="mtable">
            <g data-mml-node="mtr" transform="translate(0,22.1)">
              <g data-mml-node="mtd">
                <g data-mml-node="msub">
                  <g data-mml-node="mi">
                    <path
                      data-c="1D45A"
                      d="M21 287Q22 293 24 303T36 341T56 388T88 425T132 442T175 435T205 417T221 395T229 376L231 369Q231 367 232 367L243 378Q303 442 384 442Q401 442 415 440T441 433T460 423T475 411T485 398T493 385T497 373T500 364T502 357L510 367Q573 442 659 442Q713 442 746 415T780 336Q780 285 742 178T704 50Q705 36 709 31T724 26Q752 26 776 56T815 138Q818 149 821 151T837 153Q857 153 857 145Q857 144 853 130Q845 101 831 73T785 17T716 -10Q669 -10 648 17T627 73Q627 92 663 193T700 345Q700 404 656 404H651Q565 404 506 303L499 291L466 157Q433 26 428 16Q415 -11 385 -11Q372 -11 364 -4T353 8T350 18Q350 29 384 161L420 307Q423 322 423 345Q423 404 379 404H374Q288 404 229 303L222 291L189 157Q156 26 151 16Q138 -11 108 -11Q95 -11 87 -5T76 7T74 17Q74 30 112 181Q151 335 151 342Q154 357 154 369Q154 405 129 405Q107 405 92 377T69 316T57 280Q55 278 41 278H27Q21 284 21 287Z"
                      stroke="none"
                    ></path>
                  </g>
                  <g
                    data-mml-node="TeXAtom"
                    transform="translate(911,-150) scale(0.707)"
                    data-mjx-texclass="ORD"
                  >
                    <g data-mml-node="mi">
                      <path
                        data-c="1D456"
                        d="M184 600Q184 624 203 642T247 661Q265 661 277 649T290 619Q290 596 270 577T226 557Q211 557 198 567T184 600ZM21 287Q21 295 30 318T54 369T98 420T158 442Q197 442 223 419T250 357Q250 340 236 301T196 196T154 83Q149 61 149 51Q149 26 166 26Q175 26 185 29T208 43T235 78T260 137Q263 149 265 151T282 153Q302 153 302 143Q302 135 293 112T268 61T223 11T161 -11Q129 -11 102 10T74 74Q74 91 79 106T122 220Q160 321 166 341T173 380Q173 404 156 404H154Q124 404 99 371T61 287Q60 286 59 284T58 281T56 279T53 278T49 278T41 278H27Q21 284 21 287Z"
                        stroke="none"
                      ></path>
                    </g>
                    <g data-mml-node="mi" transform="translate(345,0)">
                      <path
                        data-c="1D457"
                        d="M297 596Q297 627 318 644T361 661Q378 661 389 651T403 623Q403 595 384 576T340 557Q322 557 310 567T297 596ZM288 376Q288 405 262 405Q240 405 220 393T185 362T161 325T144 293L137 279Q135 278 121 278H107Q101 284 101 286T105 299Q126 348 164 391T252 441Q253 441 260 441T272 442Q296 441 316 432Q341 418 354 401T367 348V332L318 133Q267 -67 264 -75Q246 -125 194 -164T75 -204Q25 -204 7 -183T-12 -137Q-12 -110 7 -91T53 -71Q70 -71 82 -81T95 -112Q95 -148 63 -167Q69 -168 77 -168Q111 -168 139 -140T182 -74L193 -32Q204 11 219 72T251 197T278 308T289 365Q289 372 288 376Z"
                        stroke="none"
                      ></path>
                    </g>
                  </g>
                </g>
              </g>
            </g>
          </g>
        </g>
      </g>
    </svg>
  </g>
  <circle
    fill="#ffffff"
    fill-opacity="1"
    cx="126.55964745529047"
    cy="109.67363937369277"
    stroke="#000000"
    stroke-opacity="1"
    stroke-width="1"
    stroke-linecap="butt"
    r="2"
  >
    <title>x.icon</title>
  </circle>
  <g
    transform="rotate(0, 176.72921262790018, 133.94308137023853)translate(176.72921262790018, 133.94308137023853)"
    string="m_{jl}"
    font-size="6"
  >
    <title>v.labelText</title>
    <svg
      style="vertical-align: -0.616ex"
      xmlns="http://www.w3.org/2000/svg"
      width="17.037042712124112"
      height="12.16"
      role="img"
      focusable="false"
      viewBox="0 -772.1 1463 1044.2"
    >
      <g
        stroke="currentColor"
        fill="#000000"
        stroke-width="0"
        transform="scale(1,-1)"
        fill-opacity="1"
      >
        <g data-mml-node="math">
          <g data-mml-node="mtable">
            <g data-mml-node="mtr" transform="translate(0,22.1)">
              <g data-mml-node="mtd">
                <g data-mml-node="msub">
                  <g data-mml-node="mi">
                    <path
                      data-c="1D45A"
                      d="M21 287Q22 293 24 303T36 341T56 388T88 425T132 442T175 435T205 417T221 395T229 376L231 369Q231 367 232 367L243 378Q303 442 384 442Q401 442 415 440T441 433T460 423T475 411T485 398T493 385T497 373T500 364T502 357L510 367Q573 442 659 442Q713 442 746 415T780 336Q780 285 742 178T704 50Q705 36 709 31T724 26Q752 26 776 56T815 138Q818 149 821 151T837 153Q857 153 857 145Q857 144 853 130Q845 101 831 73T785 17T716 -10Q669 -10 648 17T627 73Q627 92 663 193T700 345Q700 404 656 404H651Q565 404 506 303L499 291L466 157Q433 26 428 16Q415 -11 385 -11Q372 -11 364 -4T353 8T350 18Q350 29 384 161L420 307Q423 322 423 345Q423 404 379 404H374Q288 404 229 303L222 291L189 157Q156 26 151 16Q138 -11 108 -11Q95 -11 87 -5T76 7T74 17Q74 30 112 181Q151 335 151 342Q154 357 154 369Q154 405 129 405Q107 405 92 377T69 316T57 280Q55 278 41 278H27Q21 284 21 287Z"
                      stroke="none"
                    ></path>
                  </g>
                  <g
                    data-mml-node="TeXAtom"
                    transform="translate(911,-150) scale(0.707)"
                    data-mjx-texclass="ORD"
                  >
                    <g data-mml-node="mi">
                      <path
                        data-c="1D457"
                        d="M297 596Q297 627 318 644T361 661Q378 661 389 651T403 623Q403 595 384 576T340 557Q322 557 310 567T297 596ZM288 376Q288 405 262 405Q240 405 220 393T185 362T161 325T144 293L137 279Q135 278 121 278H107Q101 284 101 286T105 299Q126 348 164 391T252 441Q253 441 260 441T272 442Q296 441 316 432Q341 418 354 401T367 348V332L318 133Q267 -67 264 -75Q246 -125 194 -164T75 -204Q25 -204 7 -183T-12 -137Q-12 -110 7 -91T53 -71Q70 -71 82 -81T95 -112Q95 -148 63 -167Q69 -168 77 -168Q111 -168 139 -140T182 -74L193 -32Q204 11 219 72T251 197T278 308T289 365Q289 372 288 376Z"
                        stroke="none"
                      ></path>
                    </g>
                    <g data-mml-node="mi" transform="translate(412,0)">
                      <path
                        data-c="1D459"
                        d="M117 59Q117 26 142 26Q179 26 205 131Q211 151 215 152Q217 153 225 153H229Q238 153 241 153T246 151T248 144Q247 138 245 128T234 90T214 43T183 6T137 -11Q101 -11 70 11T38 85Q38 97 39 102L104 360Q167 615 167 623Q167 626 166 628T162 632T157 634T149 635T141 636T132 637T122 637Q112 637 109 637T101 638T95 641T94 647Q94 649 96 661Q101 680 107 682T179 688Q194 689 213 690T243 693T254 694Q266 694 266 686Q266 675 193 386T118 83Q118 81 118 75T117 65V59Z"
                        stroke="none"
                      ></path>
                    </g>
                  </g>
                </g>
              </g>
            </g>
          </g>
        </g>
      </g>
    </svg>
  </g>
  <circle
    fill="#ffffff"
    fill-opacity="1"
    cx="195.48265044167124"
    cy="133.7590546030968"
    stroke="#000000"
    stroke-opacity="1"
    stroke-width="1"
    stroke-linecap="butt"
    r="2"
  >
    <title>v.icon</title>
  </circle>
  <g
    transform="rotate(0, 153.296069217989, 164.24390572369637)translate(153.296069217989, 164.24390572369637)"
    string="m_{il}"
    font-size="6"
  >
    <title>u.labelText</title>
    <svg
      style="vertical-align: -0.566ex"
      xmlns="http://www.w3.org/2000/svg"
      width="16.507062"
      height="11.66"
      role="img"
      focusable="false"
      viewBox="0 -750 1415.7 1000"
    >
      <g
        stroke="currentColor"
        fill="#000000"
        stroke-width="0"
        transform="scale(1,-1)"
        fill-opacity="1"
      >
        <g data-mml-node="math">
          <g data-mml-node="mtable">
            <g data-mml-node="mtr">
              <g data-mml-node="mtd">
                <g data-mml-node="msub">
                  <g data-mml-node="mi">
                    <path
                      data-c="1D45A"
                      d="M21 287Q22 293 24 303T36 341T56 388T88 425T132 442T175 435T205 417T221 395T229 376L231 369Q231 367 232 367L243 378Q303 442 384 442Q401 442 415 440T441 433T460 423T475 411T485 398T493 385T497 373T500 364T502 357L510 367Q573 442 659 442Q713 442 746 415T780 336Q780 285 742 178T704 50Q705 36 709 31T724 26Q752 26 776 56T815 138Q818 149 821 151T837 153Q857 153 857 145Q857 144 853 130Q845 101 831 73T785 17T716 -10Q669 -10 648 17T627 73Q627 92 663 193T700 345Q700 404 656 404H651Q565 404 506 303L499 291L466 157Q433 26 428 16Q415 -11 385 -11Q372 -11 364 -4T353 8T350 18Q350 29 384 161L420 307Q423 322 423 345Q423 404 379 404H374Q288 404 229 303L222 291L189 157Q156 26 151 16Q138 -11 108 -11Q95 -11 87 -5T76 7T74 17Q74 30 112 181Q151 335 151 342Q154 357 154 369Q154 405 129 405Q107 405 92 377T69 316T57 280Q55 278 41 278H27Q21 284 21 287Z"
                      stroke="none"
                    ></path>
                  </g>
                  <g
                    data-mml-node="TeXAtom"
                    transform="translate(911,-150) scale(0.707)"
                    data-mjx-texclass="ORD"
                  >
                    <g data-mml-node="mi">
                      <path
                        data-c="1D456"
                        d="M184 600Q184 624 203 642T247 661Q265 661 277 649T290 619Q290 596 270 577T226 557Q211 557 198 567T184 600ZM21 287Q21 295 30 318T54 369T98 420T158 442Q197 442 223 419T250 357Q250 340 236 301T196 196T154 83Q149 61 149 51Q149 26 166 26Q175 26 185 29T208 43T235 78T260 137Q263 149 265 151T282 153Q302 153 302 143Q302 135 293 112T268 61T223 11T161 -11Q129 -11 102 10T74 74Q74 91 79 106T122 220Q160 321 166 341T173 380Q173 404 156 404H154Q124 404 99 371T61 287Q60 286 59 284T58 281T56 279T53 278T49 278T41 278H27Q21 284 21 287Z"
                        stroke="none"
                      ></path>
                    </g>
                    <g data-mml-node="mi" transform="translate(345,0)">
                      <path
                        data-c="1D459"
                        d="M117 59Q117 26 142 26Q179 26 205 131Q211 151 215 152Q217 153 225 153H229Q238 153 241 153T246 151T248 144Q247 138 245 128T234 90T214 43T183 6T137 -11Q101 -11 70 11T38 85Q38 97 39 102L104 360Q167 615 167 623Q167 626 166 628T162 632T157 634T149 635T141 636T132 637T122 637Q112 637 109 637T101 638T95 641T94 647Q94 649 96 661Q101 680 107 682T179 688Q194 689 213 690T243 693T254 694Q266 694 266 686Q266 675 193 386T118 83Q118 81 118 75T117 65V59Z"
                        stroke="none"
                      ></path>
                    </g>
                  </g>
                </g>
              </g>
            </g>
          </g>
        </g>
      </g>
    </svg>
  </g>
  <circle
    fill="#ffffff"
    fill-opacity="1"
    cx="164.54878322881947"
    cy="158.4555076020133"
    stroke="#000000"
    stroke-opacity="1"
    stroke-width="1"
    stroke-linecap="butt"
    r="2"
  >
    <title>u.icon</title>
  </circle>
  <g
    transform="rotate(0, 230.65766967776008, 168.24635135868377)translate(230.65766967776008, 168.24635135868377)"
    string="p_l"
    font-size="6"
  >
    <title>d.labelText</title>
    <svg
      style="vertical-align: -0.566ex"
      xmlns="http://www.w3.org/2000/svg"
      width="9.289522"
      height="11.66"
      role="img"
      focusable="false"
      viewBox="0 -750 796.7 1000"
    >
      <g
        stroke="currentColor"
        fill="#000000"
        stroke-width="0"
        transform="scale(1,-1)"
        fill-opacity="1"
      >
        <g data-mml-node="math">
          <g data-mml-node="mtable">
            <g data-mml-node="mtr">
              <g data-mml-node="mtd">
                <g data-mml-node="msub">
                  <g data-mml-node="mi">
                    <path
                      data-c="1D45D"
                      d="M23 287Q24 290 25 295T30 317T40 348T55 381T75 411T101 433T134 442Q209 442 230 378L240 387Q302 442 358 442Q423 442 460 395T497 281Q497 173 421 82T249 -10Q227 -10 210 -4Q199 1 187 11T168 28L161 36Q160 35 139 -51T118 -138Q118 -144 126 -145T163 -148H188Q194 -155 194 -157T191 -175Q188 -187 185 -190T172 -194Q170 -194 161 -194T127 -193T65 -192Q-5 -192 -24 -194H-32Q-39 -187 -39 -183Q-37 -156 -26 -148H-6Q28 -147 33 -136Q36 -130 94 103T155 350Q156 355 156 364Q156 405 131 405Q109 405 94 377T71 316T59 280Q57 278 43 278H29Q23 284 23 287ZM178 102Q200 26 252 26Q282 26 310 49T356 107Q374 141 392 215T411 325V331Q411 405 350 405Q339 405 328 402T306 393T286 380T269 365T254 350T243 336T235 326L232 322Q232 321 229 308T218 264T204 212Q178 106 178 102Z"
                      stroke="none"
                    ></path>
                  </g>
                  <g
                    data-mml-node="mi"
                    transform="translate(536,-150) scale(0.707)"
                  >
                    <path
                      data-c="1D459"
                      d="M117 59Q117 26 142 26Q179 26 205 131Q211 151 215 152Q217 153 225 153H229Q238 153 241 153T246 151T248 144Q247 138 245 128T234 90T214 43T183 6T137 -11Q101 -11 70 11T38 85Q38 97 39 102L104 360Q167 615 167 623Q167 626 166 628T162 632T157 634T149 635T141 636T132 637T122 637Q112 637 109 637T101 638T95 641T94 647Q94 649 96 661Q101 680 107 682T179 688Q194 689 213 690T243 693T254 694Q266 694 266 686Q266 675 193 386T118 83Q118 81 118 75T117 65V59Z"
                      stroke="none"
                    ></path>
                  </g>
                </g>
              </g>
            </g>
          </g>
        </g>
      </g>
    </svg>
  </g>
  <circle
    fill="#000000"
    fill-opacity="1"
    cx="226.57924709414263"
    cy="169.18707660461976"
    stroke="none"
    r="2.5"
  >
    <title>d.icon</title>
  </circle>
  <g
    transform="rotate(0, 66.2197638008034, 1.1892235792419665)translate(66.2197638008034, 1.1892235792419665)"
    string="p_k"
    font-size="6"
  >
    <title>c.labelText</title>
    <svg
      style="vertical-align: -0.566ex"
      xmlns="http://www.w3.org/2000/svg"
      width="11.128304"
      height="11.66"
      role="img"
      focusable="false"
      viewBox="0 -750 954.4 1000"
    >
      <g
        stroke="currentColor"
        fill="#000000"
        stroke-width="0"
        transform="scale(1,-1)"
        fill-opacity="1"
      >
        <g data-mml-node="math">
          <g data-mml-node="mtable">
            <g data-mml-node="mtr">
              <g data-mml-node="mtd">
                <g data-mml-node="msub">
                  <g data-mml-node="mi">
                    <path
                      data-c="1D45D"
                      d="M23 287Q24 290 25 295T30 317T40 348T55 381T75 411T101 433T134 442Q209 442 230 378L240 387Q302 442 358 442Q423 442 460 395T497 281Q497 173 421 82T249 -10Q227 -10 210 -4Q199 1 187 11T168 28L161 36Q160 35 139 -51T118 -138Q118 -144 126 -145T163 -148H188Q194 -155 194 -157T191 -175Q188 -187 185 -190T172 -194Q170 -194 161 -194T127 -193T65 -192Q-5 -192 -24 -194H-32Q-39 -187 -39 -183Q-37 -156 -26 -148H-6Q28 -147 33 -136Q36 -130 94 103T155 350Q156 355 156 364Q156 405 131 405Q109 405 94 377T71 316T59 280Q57 278 43 278H29Q23 284 23 287ZM178 102Q200 26 252 26Q282 26 310 49T356 107Q374 141 392 215T411 325V331Q411 405 350 405Q339 405 328 402T306 393T286 380T269 365T254 350T243 336T235 326L232 322Q232 321 229 308T218 264T204 212Q178 106 178 102Z"
                      stroke="none"
                    ></path>
                  </g>
                  <g
                    data-mml-node="mi"
                    transform="translate(536,-150) scale(0.707)"
                  >
                    <path
                      data-c="1D458"
                      d="M121 647Q121 657 125 670T137 683Q138 683 209 688T282 694Q294 694 294 686Q294 679 244 477Q194 279 194 272Q213 282 223 291Q247 309 292 354T362 415Q402 442 438 442Q468 442 485 423T503 369Q503 344 496 327T477 302T456 291T438 288Q418 288 406 299T394 328Q394 353 410 369T442 390L458 393Q446 405 434 405H430Q398 402 367 380T294 316T228 255Q230 254 243 252T267 246T293 238T320 224T342 206T359 180T365 147Q365 130 360 106T354 66Q354 26 381 26Q429 26 459 145Q461 153 479 153H483Q499 153 499 144Q499 139 496 130Q455 -11 378 -11Q333 -11 305 15T277 90Q277 108 280 121T283 145Q283 167 269 183T234 206T200 217T182 220H180Q168 178 159 139T145 81T136 44T129 20T122 7T111 -2Q98 -11 83 -11Q66 -11 57 -1T48 16Q48 26 85 176T158 471L195 616Q196 629 188 632T149 637H144Q134 637 131 637T124 640T121 647Z"
                      stroke="none"
                    ></path>
                  </g>
                </g>
              </g>
            </g>
          </g>
        </g>
      </g>
    </svg>
  </g>
  <circle
    fill="#000000"
    fill-opacity="1"
    cx="79.08346881814936"
    cy="13.854081476506337"
    stroke="none"
    r="2.5"
  >
    <title>c.icon</title>
  </circle>
  <g
    transform="rotate(0, 161.77736258006001, 42.35945573997256)translate(161.77736258006001, 42.35945573997256)"
    string="p_j"
    font-size="6"
  >
    <title>b.labelText</title>
    <svg
      style="vertical-align: -0.616ex"
      xmlns="http://www.w3.org/2000/svg"
      width="10.216402987933344"
      height="12.16"
      role="img"
      focusable="false"
      viewBox="0 -772.1 877.3 1044.2"
    >
      <g
        stroke="currentColor"
        fill="#000000"
        stroke-width="0"
        transform="scale(1,-1)"
        fill-opacity="1"
      >
        <g data-mml-node="math">
          <g data-mml-node="mtable">
            <g data-mml-node="mtr" transform="translate(0,22.1)">
              <g data-mml-node="mtd">
                <g data-mml-node="msub">
                  <g data-mml-node="mi">
                    <path
                      data-c="1D45D"
                      d="M23 287Q24 290 25 295T30 317T40 348T55 381T75 411T101 433T134 442Q209 442 230 378L240 387Q302 442 358 442Q423 442 460 395T497 281Q497 173 421 82T249 -10Q227 -10 210 -4Q199 1 187 11T168 28L161 36Q160 35 139 -51T118 -138Q118 -144 126 -145T163 -148H188Q194 -155 194 -157T191 -175Q188 -187 185 -190T172 -194Q170 -194 161 -194T127 -193T65 -192Q-5 -192 -24 -194H-32Q-39 -187 -39 -183Q-37 -156 -26 -148H-6Q28 -147 33 -136Q36 -130 94 103T155 350Q156 355 156 364Q156 405 131 405Q109 405 94 377T71 316T59 280Q57 278 43 278H29Q23 284 23 287ZM178 102Q200 26 252 26Q282 26 310 49T356 107Q374 141 392 215T411 325V331Q411 405 350 405Q339 405 328 402T306 393T286 380T269 365T254 350T243 336T235 326L232 322Q232 321 229 308T218 264T204 212Q178 106 178 102Z"
                      stroke="none"
                    ></path>
                  </g>
                  <g
                    data-mml-node="mi"
                    transform="translate(536,-150) scale(0.707)"
                  >
                    <path
                      data-c="1D457"
                      d="M297 596Q297 627 318 644T361 661Q378 661 389 651T403 623Q403 595 384 576T340 557Q322 557 310 567T297 596ZM288 376Q288 405 262 405Q240 405 220 393T185 362T161 325T144 293L137 279Q135 278 121 278H107Q101 284 101 286T105 299Q126 348 164 391T252 441Q253 441 260 441T272 442Q296 441 316 432Q341 418 354 401T367 348V332L318 133Q267 -67 264 -75Q246 -125 194 -164T75 -204Q25 -204 7 -183T-12 -137Q-12 -110 7 -91T53 -71Q70 -71 82 -81T95 -112Q95 -148 63 -167Q69 -168 77 -168Q111 -168 139 -140T182 -74L193 -32Q204 11 219 72T251 197T278 308T289 365Q289 372 288 376Z"
                      stroke="none"
                    ></path>
                  </g>
                </g>
              </g>
            </g>
          </g>
        </g>
      </g>
    </svg>
  </g>
  <circle
    fill="#000000"
    fill-opacity="1"
    cx="165.5327724208302"
    cy="58.347473025419674"
    stroke="none"
    r="2.5"
  >
    <title>b.icon</title>
  </circle>
  <g
    transform="rotate(0, 54.48312571193632, 119.25817654525822)translate(54.48312571193632, 119.25817654525822)"
    string="p_i"
    font-size="6"
  >
    <title>a.labelText</title>
    <svg
      style="vertical-align: -0.566ex"
      xmlns="http://www.w3.org/2000/svg"
      width="9.6778"
      height="11.66"
      role="img"
      focusable="false"
      viewBox="0 -750 830 1000"
    >
      <g
        stroke="currentColor"
        fill="#000000"
        stroke-width="0"
        transform="scale(1,-1)"
        fill-opacity="1"
      >
        <g data-mml-node="math">
          <g data-mml-node="mtable">
            <g data-mml-node="mtr">
              <g data-mml-node="mtd">
                <g data-mml-node="msub">
                  <g data-mml-node="mi">
                    <path
                      data-c="1D45D"
                      d="M23 287Q24 290 25 295T30 317T40 348T55 381T75 411T101 433T134 442Q209 442 230 378L240 387Q302 442 358 442Q423 442 460 395T497 281Q497 173 421 82T249 -10Q227 -10 210 -4Q199 1 187 11T168 28L161 36Q160 35 139 -51T118 -138Q118 -144 126 -145T163 -148H188Q194 -155 194 -157T191 -175Q188 -187 185 -190T172 -194Q170 -194 161 -194T127 -193T65 -192Q-5 -192 -24 -194H-32Q-39 -187 -39 -183Q-37 -156 -26 -148H-6Q28 -147 33 -136Q36 -130 94 103T155 350Q156 355 156 364Q156 405 131 405Q109 405 94 377T71 316T59 280Q57 278 43 278H29Q23 284 23 287ZM178 102Q200 26 252 26Q282 26 310 49T356 107Q374 141 392 215T411 325V331Q411 405 350 405Q339 405 328 402T306 393T286 380T269 365T254 350T243 336T235 326L232 322Q232 321 229 308T218 264T204 212Q178 106 178 102Z"
                      stroke="none"
                    ></path>
                  </g>
                  <g
                    data-mml-node="mi"
                    transform="translate(536,-150) scale(0.707)"
                  >
                    <path
                      data-c="1D456"
                      d="M184 600Q184 624 203 642T247 661Q265 661 277 649T290 619Q290 596 270 577T226 557Q211 557 198 567T184 600ZM21 287Q21 295 30 318T54 369T98 420T158 442Q197 442 223 419T250 357Q250 340 236 301T196 196T154 83Q149 61 149 51Q149 26 166 26Q175 26 185 29T208 43T235 78T260 137Q263 149 265 151T282 153Q302 153 302 143Q302 135 293 112T268 61T223 11T161 -11Q129 -11 102 10T74 74Q74 91 79 106T122 220Q160 321 166 341T173 380Q173 404 156 404H154Q124 404 99 371T61 287Q60 286 59 284T58 281T56 279T53 278T49 278T41 278H27Q21 284 21 287Z"
                      stroke="none"
                    ></path>
                  </g>
                </g>
              </g>
            </g>
          </g>
        </g>
      </g>
    </svg>
  </g>
  <circle
    fill="#000000"
    fill-opacity="1"
    cx="69.31659971300537"
    cy="125.4159621727965"
    stroke="none"
    r="2.5"
  >
    <title>a.icon</title>
  </circle>
</svg>
