<svg version="1.2" xmlns="http://www.w3.org/2000/svg" viewBox="0 0 800 700">
  <rect
    x="50"
    y="0"
    width="700"
    height="700"
    fill="#f3f4f9"
    fill-opacity="1"
    stroke="#8ea0c4"
    stroke-opacity="1"
    stroke-width="2"
    stroke-linecap="butt"
    rx="0"
    transform="rotate(0, 50, 0)"
  >
    <title>`P`.icon</title>
  </rect>
  <g>
    <marker
      id="`h`.icon-leftArrowhead"
      markerUnits="strokeWidth"
      markerWidth="6.47"
      markerHeight="5.28"
      viewBox="0 0 9.95 8.12"
      refX="2.36"
      refY="4.06"
      orient="auto-start-reverse"
    >
      <path
        d="M9.95 4.06 0 8.12 2.36 4.06 0 0 9.95 4.06z"
        fill="#8c90c1"
        fill-opacity="1"
      ></path>
    </marker>
    <marker
      id="`h`.icon-rightArrowhead"
      markerUnits="strokeWidth"
      markerWidth="6.47"
      markerHeight="5.28"
      viewBox="0 0 9.95 8.12"
      refX="2.36"
      refY="4.06"
      orient="auto-start-reverse"
    >
      <path
        d="M9.95 4.06 0 8.12 2.36 4.06 0 0 9.95 4.06z"
        fill="#8c90c1"
        fill-opacity="1"
      ></path>
    </marker>
    <path
      d="M 408.7134333798241 325.9923234784839 L 497.9697749684092 342.465557580731"
      stroke-opacity="1"
      stroke-width="1.75"
      stroke="#8c90c1"
      stroke-linecap="butt"
      marker-start="url(#`h`.icon-leftArrowhead)"
    ></path>
    <title>`h`.icon</title>
  </g>
  <circle
    fill="#000000"
    fill-opacity="1"
    cx="162.54404790109953"
    cy="151.25729481930279"
    stroke="#000000"
    stroke-opacity="1"
    stroke-width="0"
    stroke-linecap="butt"
    r="4"
  >
    <title>`s`.icon</title>
  </circle>
  <g
    transform="rotate(0, 145.44848777408023, 156.9142120802062)translate(145.44848777408023, 156.9142120802062)"
    color="[object Object]"
    string="s"
  >
    <title>`s`.text</title>
    <svg
      xmlns="http://www.w3.org/2000/svg"
      width="12.97254"
      height="27.66"
      role="img"
      focusable="false"
      viewBox="1.46598 -12.22572 10.12356 12.502320000000001"
    >
      <path
        stroke="none"
        fill="#000000"
        stroke-width="0"
        d="M3.62346-7.99374Q3.62346-8.87886 4.06602-9.791640000000001T5.61498-11.4789 8.298-12.22572Q10.01292-12.22572 10.7874-11.4789T11.58954-9.8193Q11.58954-8.93418 11.11932-8.51928T10.06824-8.07672Q9.70866-8.07672 9.4044-8.298T9.07248-9.01716Q9.07248-9.45972 9.32142-9.791640000000001T9.791640000000001-10.28952 10.15122-10.45548Q10.17888-10.45548 10.17888-10.48314 10.17888-10.56612 9.98526-10.73208T9.29376-11.036340000000001 8.21502-11.202300000000001Q6.88734-11.202300000000001 6.2788200000000005-10.48314T5.64264-9.01716Q5.64264-8.325660000000001 6.16818-8.04906T7.6894800000000005-7.5788400000000005 9.1278-7.16394Q10.95336-6.361800000000001 10.95336-4.50858 10.95336-3.7341 10.6491-2.95962T9.736320000000001-1.41066 7.99374-0.19362000000000001 5.3937 0.2766Q3.26388 0.2766 2.37876-0.52554T1.46598-2.4064200000000002Q1.46598-3.48516 2.04684-3.95538T3.26388-4.4256Q3.67878-4.4256 4.03836-4.17666T4.4256-3.3192Q4.4256-2.60004 3.92772-2.10216T3.07026-1.60428Q3.01494-1.5766200000000001 2.98728-1.5766200000000001T2.95962-1.5213Q2.98728-1.43832 3.1809000000000003-1.30002T4.03836-0.94044 5.55966-0.74682Q6.55542-0.74682 7.27458-1.05108T8.325660000000001-1.82556 8.79588-2.68302 8.93418-3.37452Q8.93418-4.149 8.35332-4.53624T7.02564-5.00646 5.3937-5.42136 4.09368-6.38946Q3.62346-7.08096 3.62346-7.99374Z"
        fill-opacity="1"
      ></path>
    </svg>
  </g>
  <g style="solid" thickness="1.75">
    <marker
      id="`a`.icon-leftArrowhead"
      markerUnits="strokeWidth"
      markerWidth="9.95"
      markerHeight="8.12"
      viewBox="0 0 9.95 8.12"
      refX="2.36"
      refY="4.06"
      orient="auto-start-reverse"
    >
      <path
        d="M9.95 4.06 0 8.12 2.36 4.06 0 0 9.95 4.06z"
        fill="#000000"
        fill-opacity="1"
      ></path>
    </marker>
    <marker
      id="`a`.icon-rightArrowhead"
      markerUnits="strokeWidth"
      markerWidth="9.95"
      markerHeight="8.12"
      viewBox="0 0 9.95 8.12"
      refX="2.36"
      refY="4.06"
      orient="auto-start-reverse"
    >
      <path
        d="M9.95 4.06 0 8.12 2.36 4.06 0 0 9.95 4.06z"
        fill="#000000"
        fill-opacity="1"
      ></path>
    </marker>
    <path
      d="M 471.6982398893624 484.8116868583179 L 524.2413100474558 200.11942830314413"
      stroke-opacity="1"
      stroke-width="1"
      stroke="#000000"
      stroke-linecap="butt"
    ></path>
    <title>`a`.icon</title>
  </g>
  <circle
    fill="#ffffff"
    fill-opacity="1"
    cx="497.9697749684092"
    cy="342.465557580731"
    stroke="#000000"
    stroke-opacity="1"
    stroke-width="1"
    stroke-linecap="butt"
    r="4"
  >
    <title>`m`.icon</title>
  </circle>
  <g
    transform="rotate(0, 504.96978587262606, 317.2864359986772)translate(504.96978587262606, 317.2864359986772)"
    string="m"
    color="[object Object]"
  >
    <title>`m`.text</title>
    <svg
      xmlns="http://www.w3.org/2000/svg"
      width="24.28548"
      height="27.66"
      role="img"
      focusable="false"
      viewBox="0.58086 -12.22572 23.12376 12.52998"
    >
      <path
        stroke="none"
        fill="#000000"
        stroke-width="0"
        d="M0.58086-7.93842Q0.6085200000000001-8.10438 0.66384-8.380980000000001T0.99576-9.43206 1.5489600000000001-10.73208 2.4340800000000002-11.7555 3.65112-12.22572 4.8405000000000005-12.0321 5.6703-11.53422 6.11286-10.9257 6.3341400000000005-10.40016L6.38946-10.20654Q6.38946-10.15122 6.41712-10.15122L6.72138-10.45548Q8.380980000000001-12.22572 10.62144-12.22572 11.091660000000001-12.22572 11.4789-12.1704T12.19806-11.97678 12.723600000000001-11.70018 13.1385-11.36826 13.4151-11.00868 13.63638-10.6491 13.747020000000001-10.31718 13.83-10.06824 13.88532-9.87462L14.1066-10.15122Q15.84918-12.22572 18.22794-12.22572 19.72158-12.22572 20.63436-11.4789T21.5748-9.29376Q21.5748-7.8831 20.52372-4.9234800000000005T19.472640000000002-1.383Q19.5003-0.99576 19.61094-0.85746T20.02584-0.71916Q20.80032-0.71916 21.46416-1.5489600000000001T22.5429-3.8170800000000003Q22.625880000000002-4.12134 22.70886-4.17666T23.15142-4.23198Q23.704620000000002-4.23198 23.704620000000002-4.0107 23.704620000000002-3.98304 23.593980000000002-3.5958 23.372700000000002-2.79366 22.98546-2.01918T21.7131-0.47022 19.804560000000002 0.2766Q18.50454 0.2766 17.92368-0.47022T17.34282-2.01918Q17.34282-2.54472 18.33858-5.33838T19.362000000000002-9.5427Q19.362000000000002-11.17464 18.14496-11.17464H18.00666Q15.6279-11.17464 13.99596-8.380980000000001L13.802340000000001-8.04906 12.88956-4.34262Q11.97678-0.71916 11.83848-0.44256 11.4789 0.30426000000000003 10.6491 0.30426000000000003 10.28952 0.30426000000000003 10.06824 0.11064T9.76398-0.22128 9.681000000000001-0.49788Q9.681000000000001-0.80214 10.62144-4.45326L11.6172-8.491620000000001Q11.70018-8.90652 11.70018-9.5427 11.70018-11.17464 10.48314-11.17464H10.34484Q7.96608-11.17464 6.3341400000000005-8.380980000000001L6.14052-8.04906 5.22774-4.34262Q4.31496-0.71916 4.17666-0.44256 3.8170800000000003 0.30426000000000003 2.98728 0.30426000000000003 2.6277 0.30426000000000003 2.4064200000000002 0.1383T2.10216-0.19362000000000001 2.04684-0.47022Q2.04684-0.8298 3.0979200000000002-5.00646 4.17666-9.2661 4.17666-9.45972 4.25964-9.87462 4.25964-10.20654 4.25964-11.202300000000001 3.56814-11.202300000000001 2.95962-11.202300000000001 2.54472-10.42782T1.9085400000000001-8.74056 1.5766200000000001-7.744800000000001Q1.5213-7.6894800000000005 1.13406-7.6894800000000005H0.74682Q0.58086-7.85544 0.58086-7.93842Z"
        fill-opacity="1"
      ></path>
    </svg>
  </g>
  <g style="solid" thickness="1.75">
    <marker
      id="`b`.icon-leftArrowhead"
      markerUnits="strokeWidth"
      markerWidth="9.95"
      markerHeight="8.12"
      viewBox="0 0 9.95 8.12"
      refX="2.36"
      refY="4.06"
      orient="auto-start-reverse"
    >
      <path
        d="M9.95 4.06 0 8.12 2.36 4.06 0 0 9.95 4.06z"
        fill="#000000"
        fill-opacity="1"
      ></path>
    </marker>
    <marker
      id="`b`.icon-rightArrowhead"
      markerUnits="strokeWidth"
      markerWidth="9.95"
      markerHeight="8.12"
      viewBox="0 0 9.95 8.12"
      refX="2.36"
      refY="4.06"
      orient="auto-start-reverse"
    >
      <path
        d="M9.95 4.06 0 8.12 2.36 4.06 0 0 9.95 4.06z"
        fill="#000000"
        fill-opacity="1"
      ></path>
    </marker>
    <path
      d="M 471.6982398893624 484.8116868583179 L 311.64899920605126 146.5998293397739"
      stroke-opacity="1"
      stroke-width="1"
      stroke="#000000"
      stroke-linecap="butt"
    ></path>
    <title>`b`.icon</title>
  </g>
  <circle
    fill="#000000"
    fill-opacity="1"
    cx="311.64899920605126"
    cy="146.5998293397739"
    stroke="#000000"
    stroke-opacity="1"
    stroke-width="0"
    stroke-linecap="butt"
    r="4"
  >
    <title>`r`.icon</title>
  </circle>
  <g
    transform="rotate(0, 317.4552981601899, 115.02998068782277)translate(317.4552981601899, 115.02998068782277)"
    color="[object Object]"
    string="r"
  >
    <title>`r`.text</title>
    <svg
      xmlns="http://www.w3.org/2000/svg"
      width="12.47466"
      height="27.66"
      role="img"
      focusable="false"
      viewBox="0.58086 -12.22572 11.312940000000001 12.52998"
    >
      <path
        stroke="none"
        fill="#000000"
        stroke-width="0"
        d="M0.58086-7.93842Q0.6085200000000001-8.0214 0.63618-8.1597T0.7744800000000001-8.76822 1.05108-9.625680000000001 1.46598-10.53846 2.01918-11.36826 2.73834-11.97678 3.65112-12.22572Q4.45326-12.22572 5.06178-11.8938T5.91924-11.28528 6.2235000000000005-10.73208Q6.2788200000000005-10.56612 6.3064800000000005-10.56612T6.52776-10.75974Q7.85544-12.19806 9.59802-12.19806H9.681000000000001Q11.00868-12.19806 11.67252-11.064 11.8938-10.53846 11.8938-10.04058 11.8938-9.21078 11.53422-8.7129T10.81506-8.07672 10.12356-7.96608Q9.57036-7.96608 9.23844-8.270340000000001T8.90652-9.07248Q8.90652-10.40016 10.45548-10.84272 9.846960000000001-11.202300000000001 9.45972-11.202300000000001 7.91076-11.202300000000001 6.61074-9.15546 6.3341400000000005-8.7129 6.1958400000000005-8.24268T5.2554-4.5639Q4.31496-0.6915 4.17666-0.44256 3.8170800000000003 0.30426000000000003 2.98728 0.30426000000000003 2.6277 0.30426000000000003 2.4064200000000002 0.1383T2.10216-0.19362000000000001 2.04684-0.47022Q2.04684-0.8298 3.1532400000000003-5.22774T4.25964-10.12356Q4.25964-11.202300000000001 3.54048-11.202300000000001 2.95962-11.202300000000001 2.54472-10.42782T1.88088-8.74056 1.5766200000000001-7.744800000000001Q1.5213-7.6894800000000005 1.13406-7.6894800000000005H0.74682Q0.58086-7.85544 0.58086-7.93842Z"
        fill-opacity="1"
      ></path>
    </svg>
  </g>
  <circle
    fill="#000000"
    fill-opacity="1"
    cx="471.6982398893624"
    cy="484.8116868583179"
    stroke="#000000"
    stroke-opacity="1"
    stroke-width="0"
    stroke-linecap="butt"
    r="4"
  >
    <title>`p`.icon</title>
  </circle>
  <circle
    fill="#000000"
    fill-opacity="1"
    cx="524.2413100474558"
    cy="200.11942830314413"
    stroke="#000000"
    stroke-opacity="1"
    stroke-width="0"
    stroke-linecap="butt"
    r="4"
  >
    <title>`q`.icon</title>
  </circle>
  <g
    transform="rotate(0, 517.1648788253472, 165.45942968267576)translate(517.1648788253472, 165.45942968267576)"
    color="[object Object]"
    string="q"
  >
    <title>`q`.text</title>
    <svg
      xmlns="http://www.w3.org/2000/svg"
      width="12.723600000000001"
      height="27.66"
      role="img"
      focusable="false"
      viewBox="0.91278 -12.22572 11.810820000000001 17.59176"
    >
      <path
        stroke="none"
        fill="#000000"
        stroke-width="0"
        d="M0.91278-4.34262Q0.91278-7.13628 3.01494-9.65334T7.744800000000001-12.19806Q9.4044-12.19806 10.28952-10.75974 10.31718-10.7874 10.42782-10.9257T10.73208-11.22996 11.17464-11.56188Q12.11508-12.22572 12.447000000000001-12.22572 12.557640000000001-12.22572 12.64062-12.14274T12.723600000000001-12.00444Q12.723600000000001-11.7555 10.81506-4.12134 8.8512 3.7341 8.8512 3.8447400000000003 8.8512 4.06602 10.0959 4.09368H10.7874Q10.95336 4.31496 10.95336 4.34262T10.87038 4.8405000000000005Q10.75974 5.20008 10.59378 5.36604H10.2342Q9.37674 5.31072 7.24692 5.31072 6.47244 5.31072 5.83626 5.31072T4.8128400000000005 5.31072 4.34262 5.33838Q3.95538 5.33838 3.95538 5.1171 3.95538 5.03412 4.0107 4.7022 4.12134 4.25964 4.20432 4.17666T4.75752 4.09368Q6.0852 4.09368 6.361800000000001 3.90006 6.58308 3.76176 7.13628 1.46598T7.7171400000000006-0.88512Q7.7171400000000006-0.91278 7.52352-0.80214 6.1958400000000005 0.2766 4.75752 0.2766 3.23622 0.2766 2.0745-0.8298T0.91278-4.34262ZM9.736320000000001-9.01716Q9.10014-11.202300000000001 7.6618200000000005-11.202300000000001 6.69372-11.202300000000001 5.8086-10.34484T4.4256-8.10438Q3.62346-5.91924 3.29154-3.56814 3.29154-3.48516 3.29154-3.26388T3.26388-2.93196Q3.26388-1.68726 3.76176-1.2170400000000001T4.9511400000000005-0.71916Q6.44478-0.71916 8.0214-2.71068L8.24268-3.01494 9.736320000000001-9.01716Z"
        fill-opacity="1"
      ></path>
    </svg>
  </g>
  <g
    transform="rotate(0, 708.897203016139, 10.415)translate(708.897203016139, 10.415)"
    string="E^2"
  >
    <title>`P`.text</title>
    <svg
      xmlns="http://www.w3.org/2000/svg"
      width="32.205593967722024"
      height="29.17"
      role="img"
      focusable="false"
      viewBox="0.797486550842226 -21.014079319163947 29.191686489108385 22.737679283887466"
    >
      <path
        stroke="none"
        fill="#000000"
        stroke-width="0"
        d="M12.65688332304436-3.755904400740806Q12.142375870888085-3.755904400740806 12.142375870888085-4.090334244642385 12.142375870888085-4.19323573507364 12.271002733927155-4.707743187229914T12.399629596966223-5.608131228503395Q12.399629596966223-6.405617779345621 11.859396772202134-6.5856953876003175T9.364035629244201-6.765772995855014H8.026316253637887Q8.000590881030073-6.714322250639386 7.125928212364406-3.2156715759767174T6.2512655436987385 0.38588058911720613Q6.2512655436987385 0.4887820795484611 6.53424464238469 0.4887820795484611T8.59227445100979 0.5402328247640885Q11.01045947614428 0.5402328247640885 11.782220654378692 0.4887820795484611T13.325743010847518 0.15435223564688244Q14.58628626863039-0.2572537260781374 15.40949819208043-1.286268630390687T17.235999647235207-4.656292442014287Q17.493253373313344-5.222250639386189 17.570429491136785-5.273701384601817 17.75050709939148-5.325152129817444 17.956310080253992-5.325152129817444 18.470817532410265-5.325152129817444 18.470817532410265-4.990722285915866 15.769653408589823 1.5435223564688245 15.641026545550755 1.672149219507893 15.563850427727314 1.7235999647235205 8.283569979716024 1.7235999647235205H3.4214745568392275Q0.797486550842226 1.7235999647235205 0.797486550842226 1.4406208660375694 0.797486550842226 1.389170120821942 0.8746626686656671 1.080465649528177 0.9775641590969222 0.6688596878031572 1.080465649528177 0.6174089425875298T1.672149219507893 0.5402328247640885Q2.366734279918864 0.5402328247640885 3.2156715759767174 0.4630567069406473 3.57582679248611 0.38588058911720613 3.7044536555251786 0.15435223564688244 3.755904400740806 0.02572537260781374 5.530955110679954-7.074477467148778T7.331731193226916-14.277581797336627Q7.331731193226916-14.457659405591322 7.228829702795661-14.457659405591322 7.023026721933151-14.534835523414763 5.865384954581533-14.58628626863039H5.0678984037393064Q4.913546168092425-14.740638504277273 4.913546168092425-14.7920892494929T4.964996913308052-15.229420583825734Q5.0678984037393064-15.666751918158567 5.222250639386189-15.769653408589823H19.474107064115Q19.6541846723697-15.666751918158567 19.6541846723697-15.486674309903872 19.6541846723697-15.358047446864802 19.31975482846812-12.605432577828733T18.959599611958726-9.77564159096922Q18.908148866743097-9.595563982714525 18.445092159802453-9.595563982714525H18.136387688508687Q17.956310080253992-9.724190845753593 17.956310080253992-9.929993826616103L18.033486198077433-10.52167739659582Q18.110662315900875-11.139086339183349 18.110662315900875-11.859396772202134 18.110662315900875-12.631157950436547 17.930584707646176-13.14566540259282T17.441802628097715-13.943151953435047 16.541414586824235-14.354757915160066 15.33232207425699-14.534835523414763 13.68589822735691-14.58628626863039H12.476805714789664Q10.212972925302054-14.560560896022578 10.084346062262986-14.509110150806949 9.981444571831732-14.457659405591322 9.929993826616103-14.277581797336627 9.90426845400829-14.200405679513185 9.132507275773877-11.113360966575536T8.335020724931653-7.974865508422259Q8.926704294911367-7.949140135814446 9.56983861010671-7.949140135814446H10.238698297909869Q11.936572890025575-7.949140135814446 12.579707205220918-8.335020724931653T13.737348972572537-10.418775906164564Q13.840250463003793-10.830381867889585 13.89170120821942-10.881832613105212T14.329032542552254-10.959008730928653Q14.457659405591322-10.959008730928653 14.534835523414763-10.959008730928653T14.663462386453832-10.933283358320839 14.714913131669459-10.907557985713026 14.766363876885087-10.80465649528177 14.843539994708529-10.701755004850515L13.994602698650674-7.306005820619102Q13.14566540259282-3.884531263779875 13.06848928476938-3.8330805185642474 12.99131316694594-3.755904400740806 12.65688332304436-3.755904400740806ZM23.805307972484346-16.703561610371285Q23.31423633477379-16.703561610371285 23.0232309198342-17.030942702178322T22.73222550489461-17.831207593262192Q22.73222550489461-19.122544122056617 23.696180941881998-20.068311720610282T26.096975615133612-21.014079319163947Q27.75206891260252-21.014079319163947 28.861527057059707-19.995560366875385T29.98917303995061-17.35832379398536Q29.98917303995061-16.576246741335215 29.62541627127613-15.866921042419966T28.75240002645736-14.630148028926714 27.297372951759414-13.284247984831113Q26.64261076814534-12.720424993385661 25.478589108386984-11.610966848928477L24.40550664079725-10.592447896639914 25.787782361760296-10.57426005820619Q28.643272995855014-10.57426005820619 28.825151380192253-10.665199250374814 28.952466249228326-10.70157492724226 29.26165950260164-12.283916870976277V-12.33848038627745H29.98917303995061V-12.283916870976277Q29.97098520151689-12.229353355675103 29.752731140312193-10.628823573507365T29.479913563806328-8.955542437604727V-8.900978922303555H22.73222550489461V-9.246547852544316-9.464801913749007Q22.73222550489461-9.592116782785078 22.84135253549696-9.737619490254872T23.386987688508686-10.374193835435223Q23.91443500308669-10.956204665314402 24.2963796101949-11.392712787723784 24.46007015609842-11.574591172061028 24.91476611694153-12.065662809771585T25.533152623688157-12.738612831819385 26.060599938266158-13.338811500132287 26.56985941441044-13.957198006878915 26.9881796983861-14.502833159890642 27.37012430549431-15.084843989769821 27.642941882000176-15.612291304347828 27.87938378163859-16.194302134227 28.006698650674664-16.73993728723873 28.061262165975833-17.340135955551634Q28.061262165975833-18.48596977687627 27.442875659229205-19.322610344827584T25.678655331157948-20.159250912778905Q25.078456662845046-20.159250912778905 24.623760702001942-19.850057659405593T23.98718635682159-19.24985899109269 23.805307972484346-18.904290060851928Q23.805307972484346-18.886102222418202 23.89624716465297-18.886102222418202 24.223628256460007-18.886102222418202 24.569197186700766-18.631472484346062T24.91476611694153-17.79483191639474Q24.91476611694153-17.340135955551634 24.623760702001942-17.030942702178322T23.805307972484346-16.703561610371285Z"
        fill-opacity="1"
      ></path>
    </svg>
  </g>
  <g
    transform="rotate(0, 453.7081411172519, 490.50177787289687)translate(453.7081411172519, 490.50177787289687)"
    color="[object Object]"
    string="p"
  >
    <title>`p`.text</title>
    <svg
      xmlns="http://www.w3.org/2000/svg"
      width="13.912980000000001"
      height="27.66"
      role="img"
      focusable="false"
      viewBox="-1.07874 -12.22572 14.82576 17.59176"
    >
      <path
        stroke="none"
        fill="#000000"
        stroke-width="0"
        d="M0.63618-7.93842Q0.66384-8.0214 0.6915-8.1597T0.8298-8.76822 1.1064-9.625680000000001 1.5213-10.53846 2.0745-11.36826 2.79366-11.97678 3.70644-12.22572Q5.78094-12.22572 6.361800000000001-10.45548L6.6384-10.70442Q8.35332-12.22572 9.902280000000001-12.22572 11.70018-12.22572 12.723600000000001-10.9257T13.747020000000001-7.772460000000001Q13.747020000000001-4.78518 11.64486-2.26812T6.88734 0.2766Q6.2788200000000005 0.2766 5.8086 0.11064 5.50434-0.02766 5.17242-0.30426000000000003T4.64688-0.7744800000000001L4.45326-0.99576Q4.4256-0.9681000000000001 3.8447400000000003 1.41066T3.26388 3.8170800000000003Q3.26388 3.98304 3.48516 4.0107T4.50858 4.09368H5.20008Q5.36604 4.2873 5.36604 4.34262T5.28306 4.8405000000000005Q5.20008 5.17242 5.1171 5.2554T4.75752 5.36604Q4.7022 5.36604 4.45326 5.36604T3.51282 5.33838 1.7979 5.31072Q-0.1383 5.31072-0.66384 5.36604H-0.88512Q-1.07874 5.17242-1.07874 5.06178-1.02342 4.31496-0.71916 4.09368H-0.16596Q0.7744800000000001 4.06602 0.91278 3.76176 0.99576 3.5958 2.60004-2.84898T4.2873-9.681000000000001Q4.31496-9.8193 4.31496-10.06824 4.31496-11.202300000000001 3.62346-11.202300000000001 3.01494-11.202300000000001 2.60004-10.42782T1.96386-8.74056 1.63194-7.744800000000001Q1.5766200000000001-7.6894800000000005 1.18938-7.6894800000000005H0.80214Q0.63618-7.85544 0.63618-7.93842ZM4.9234800000000005-2.82132Q5.532-0.71916 6.97032-0.71916 7.80012-0.71916 8.5746-1.35534T9.846960000000001-2.95962Q10.34484-3.90006 10.84272-5.9469T11.36826-8.9895V-9.15546Q11.36826-11.202300000000001 9.681000000000001-11.202300000000001 9.37674-11.202300000000001 9.07248-11.11932T8.46396-10.87038 7.91076-10.5108 7.44054-10.0959 7.02564-9.681000000000001 6.72138-9.29376 6.5001-9.01716L6.41712-8.90652Q6.41712-8.87886 6.3341400000000005-8.51928T6.02988-7.30224 5.64264-5.86392Q4.9234800000000005-2.93196 4.9234800000000005-2.82132Z"
        fill-opacity="1"
      ></path>
    </svg>
  </g>
  <g>
    <filter id="`t`.icon-shadow" x="0" y="0" width="200%" height="200%">
      <feOffset result="offOut" in="SourceAlpha" dx="5" dy="5"></feOffset>
      <feGaussianBlur
        result="blurOut"
        in="offOut"
        stdDeviation="4"
      ></feGaussianBlur>
      <feBlend in="SourceGraphic" in2="blurOut" mode="normal"></feBlend>
      <feComponentTransfer>
        <feFuncA type="linear" slope="0.5"></feFuncA>
      </feComponentTransfer>
      <feMerge>
        <feMergeNode></feMergeNode>
        <feMergeNode in="SourceGraphic"></feMergeNode>
      </feMerge>
    </filter>
    <path
      stroke="#5a2a28"
      fill="#1b1f8a"
      stroke-width="0"
      stroke-opacity="0.5"
      fill-opacity="0.2"
      d="M 471.6982398893624 484.8116868583179 L 162.54404790109953 151.25729481930279 L 311.64899920605126 146.5998293397739 Z "
    ></path>
    <title>`t`.icon</title>
  </g>
  <g>
    <marker
      id="`t`.PQ-leftArrowhead"
      markerUnits="strokeWidth"
      markerWidth="9.95"
      markerHeight="8.12"
      viewBox="0 0 9.95 8.12"
      refX="2.36"
      refY="4.06"
      orient="auto-start-reverse"
    >
      <path
        d="M9.95 4.06 0 8.12 2.36 4.06 0 0 9.95 4.06z"
        fill="#2f4321"
        fill-opacity="0.5"
      ></path>
    </marker>
    <marker
      id="`t`.PQ-rightArrowhead"
      markerUnits="strokeWidth"
      markerWidth="9.95"
      markerHeight="8.12"
      viewBox="0 0 9.95 8.12"
      refX="2.36"
      refY="4.06"
      orient="auto-start-reverse"
    >
      <path
        d="M9.95 4.06 0 8.12 2.36 4.06 0 0 9.95 4.06z"
        fill="#2f4321"
        fill-opacity="0.5"
      ></path>
    </marker>
    <path
      d="M 471.6982398893624 484.8116868583179 L 311.64899920605126 146.5998293397739"
      stroke-opacity="0.5"
      stroke-width="0"
      stroke="#2f4321"
      stroke-linecap="butt"
    ></path>
    <title>`t`.PQ</title>
  </g>
  <g>
    <marker
      id="`t`.QR-leftArrowhead"
      markerUnits="strokeWidth"
      markerWidth="9.95"
      markerHeight="8.12"
      viewBox="0 0 9.95 8.12"
      refX="2.36"
      refY="4.06"
      orient="auto-start-reverse"
    >
      <path
        d="M9.95 4.06 0 8.12 2.36 4.06 0 0 9.95 4.06z"
        fill="#2628ac"
        fill-opacity="0.5"
      ></path>
    </marker>
    <marker
      id="`t`.QR-rightArrowhead"
      markerUnits="strokeWidth"
      markerWidth="9.95"
      markerHeight="8.12"
      viewBox="0 0 9.95 8.12"
      refX="2.36"
      refY="4.06"
      orient="auto-start-reverse"
    >
      <path
        d="M9.95 4.06 0 8.12 2.36 4.06 0 0 9.95 4.06z"
        fill="#2628ac"
        fill-opacity="0.5"
      ></path>
    </marker>
    <path
      d="M 311.64899920605126 146.5998293397739 L 162.54404790109953 151.25729481930279"
      stroke-opacity="0.5"
      stroke-width="0"
      stroke="#2628ac"
      stroke-linecap="butt"
    ></path>
    <title>`t`.QR</title>
  </g>
  <g>
    <marker
      id="`t`.RP-leftArrowhead"
      markerUnits="strokeWidth"
      markerWidth="9.95"
      markerHeight="8.12"
      viewBox="0 0 9.95 8.12"
      refX="2.36"
      refY="4.06"
      orient="auto-start-reverse"
    >
      <path
        d="M9.95 4.06 0 8.12 2.36 4.06 0 0 9.95 4.06z"
        fill="#3557c6"
        fill-opacity="0.5"
      ></path>
    </marker>
    <marker
      id="`t`.RP-rightArrowhead"
      markerUnits="strokeWidth"
      markerWidth="9.95"
      markerHeight="8.12"
      viewBox="0 0 9.95 8.12"
      refX="2.36"
      refY="4.06"
      orient="auto-start-reverse"
    >
      <path
        d="M9.95 4.06 0 8.12 2.36 4.06 0 0 9.95 4.06z"
        fill="#3557c6"
        fill-opacity="0.5"
      ></path>
    </marker>
    <path
      d="M 162.54404790109953 151.25729481930279 L 471.6982398893624 484.8116868583179"
      stroke-opacity="0.5"
      stroke-width="0"
      stroke="#3557c6"
      stroke-linecap="butt"
    ></path>
    <title>`t`.RP</title>
  </g>
  <g>
    <filter id="`h`.mark-shadow" x="0" y="0" width="200%" height="200%">
      <feOffset result="offOut" in="SourceAlpha" dx="5" dy="5"></feOffset>
      <feGaussianBlur
        result="blurOut"
        in="offOut"
        stdDeviation="4"
      ></feGaussianBlur>
      <feBlend in="SourceGraphic" in2="blurOut" mode="normal"></feBlend>
      <feComponentTransfer>
        <feFuncA type="linear" slope="0.5"></feFuncA>
      </feComponentTransfer>
      <feMerge>
        <feMergeNode></feMergeNode>
        <feMergeNode in="SourceGraphic"></feMergeNode>
      </feMerge>
    </filter>
    <path
      stroke="#000000"
      fill="none"
      stroke-width="2"
      stroke-opacity="1"
      d="M 488.1358585716308 340.65060074894916 L 489.95081540341266 330.81668435217085 L 499.7847318547539 332.63164087964986"
    ></path>
    <title>`h`.mark</title>
  </g>
  <g>
    <marker
      id="`w`.icon-leftArrowhead"
      markerUnits="strokeWidth"
      markerWidth="6.47"
      markerHeight="5.28"
      viewBox="0 0 9.95 8.12"
      refX="2.36"
      refY="4.06"
      orient="auto-start-reverse"
    >
      <path
        d="M9.95 4.06 0 8.12 2.36 4.06 0 0 9.95 4.06z"
        fill="#8c90c1"
        fill-opacity="1"
      ></path>
    </marker>
    <marker
      id="`w`.icon-rightArrowhead"
      markerUnits="strokeWidth"
      markerWidth="6.47"
      markerHeight="5.28"
      viewBox="0 0 9.95 8.12"
      refX="2.36"
      refY="4.06"
      orient="auto-start-reverse"
    >
      <path
        d="M9.95 4.06 0 8.12 2.36 4.06 0 0 9.95 4.06z"
        fill="#8c90c1"
        fill-opacity="1"
      ></path>
    </marker>
    <path
      d="M 471.6982398893624 484.8116868583179 L 459.9552393807112 394.8115785438157"
      stroke-opacity="1"
      stroke-width="1.75"
      stroke="#8c90c1"
      stroke-linecap="butt"
      marker-end="url(#`w`.icon-rightArrowhead)"
    ></path>
    <title>`w`.icon</title>
  </g>
  <g>
    <filter id="`theta`.mark-shadow" x="0" y="0" width="200%" height="200%">
      <feOffset result="offOut" in="SourceAlpha" dx="5" dy="5"></feOffset>
      <feGaussianBlur
        result="blurOut"
        in="offOut"
        stdDeviation="4"
      ></feGaussianBlur>
      <feBlend in="SourceGraphic" in2="blurOut" mode="normal"></feBlend>
      <feComponentTransfer>
        <feFuncA type="linear" slope="0.5"></feFuncA>
      </feComponentTransfer>
      <feMerge>
        <feMergeNode></feMergeNode>
        <feMergeNode in="SourceGraphic"></feMergeNode>
      </feMerge>
    </filter>
    <path
      stroke="#8c90c1"
      fill="none"
      stroke-width="2"
      stroke-opacity="1"
      d="M 477.14311073647485 455.309935736017 A 30 30 0 0 0 458.8658909884082 457.69470373744554"
    ></path>
    <title>`theta`.mark</title>
  </g>
</svg>
