<svg version="1.2" xmlns="http://www.w3.org/2000/svg" viewBox="0 0 800 700">
  <g>
    <marker
      id="`e4`.shape-leftArrowhead"
      markerUnits="strokeWidth"
      markerWidth="9.95"
      markerHeight="8.12"
      viewBox="0 0 9.95 8.12"
      refX="2.36"
      refY="4.06"
      orient="auto-start-reverse"
    >
      <path
        d="M9.95 4.06 0 8.12 2.36 4.06 0 0 9.95 4.06z"
        fill="#8ed660"
        fill-opacity="0.5"
      ></path>
    </marker>
    <marker
      id="`e4`.shape-rightArrowhead"
      markerUnits="strokeWidth"
      markerWidth="9.95"
      markerHeight="8.12"
      viewBox="0 0 9.95 8.12"
      refX="2.36"
      refY="4.06"
      orient="auto-start-reverse"
    >
      <path
        d="M9.95 4.06 0 8.12 2.36 4.06 0 0 9.95 4.06z"
        fill="#8ed660"
        fill-opacity="0.5"
      ></path>
    </marker>
    <path
      d="M 75.19611731529375 251.1003604417173 L 275.19611731529375 251.1003604417173"
      stroke-opacity="0.5"
      stroke-width="10"
      stroke="#8ed660"
      stroke-linecap="butt"
    ></path>
    <title>`e4`.shape</title>
  </g>
  <rect
    x="-50"
    y="50"
    width="900"
    height="600"
    fill="none"
    stroke="#000000"
    stroke-opacity="1"
    stroke-width="0"
    stroke-linecap="butt"
    rx="0"
    transform="rotate(0, -50, 50)"
  >
    <title>global.box</title>
  </rect>
  <rect
    x="14.558973847317588"
    y="467.3450310228329"
    width="100"
    height="160"
    fill="none"
    stroke="#000000"
    stroke-opacity="1"
    stroke-width="2"
    stroke-linecap="butt"
    rx="0"
    transform="rotate(0, 14.558973847317588, 467.3450310228329)"
  >
    <title>`v5`.shape</title>
  </rect>
  <g
    transform="rotate(0, 55.86142384731759, 538.5150310228329)translate(55.86142384731759, 538.5150310228329)"
    string="v5"
  >
    <title>`v5`.text</title>
    <svg
      xmlns="http://www.w3.org/2000/svg"
      width="17.3951"
      height="17.66"
      role="img"
      focusable="false"
      viewBox="0.37085999999999997 -11.76156 16.123579999999997 12.150079999999999"
    >
      <path
        stroke="none"
        fill="#000000"
        stroke-width="0"
        d="M3.0551799999999996-6.7108Q3.0551799999999996-7.152299999999999 2.7196399999999996-7.152299999999999 2.2958-7.152299999999999 1.8366399999999998-6.64016T1.0772599999999999-5.06842Q1.0595999999999999-5.0507599999999995 1.0419399999999999-5.01544T1.0242799999999999-4.962459999999999 0.98896-4.92714 0.9359799999999999-4.909479999999999 0.8653399999999999-4.909479999999999 0.7240599999999999-4.909479999999999H0.47681999999999997Q0.37085999999999997-5.01544 0.37085999999999997-5.06842 0.37085999999999997-5.1920399999999995 0.5121399999999999-5.580559999999999T0.9359799999999999-6.49888 1.7130199999999998-7.399539999999999 2.8255999999999997-7.78806Q3.5673199999999996-7.78806 3.9734999999999996-7.3642199999999995T4.39734-6.37526Q4.39734-6.0750399999999996 4.34436-5.916099999999999 4.34436-5.81014 4.07946-5.13906T3.5319999999999996-3.5673199999999996 3.21412-1.99558Q3.21412-1.5187599999999999 3.3024199999999997-1.21854 3.5319999999999996-0.45915999999999996 4.415-0.45915999999999996 5.06842-0.45915999999999996 5.63354-1.0595999999999999T6.516539999999999-2.4547399999999997 7.02868-3.92052 7.2229399999999995-4.89182Q7.2229399999999995-5.297999999999999 7.081659999999999-5.5982199999999995T6.76378-6.057379999999999 6.445899999999999-6.37526 6.30462-6.76378Q6.30462-7.152299999999999 6.64016-7.487839999999999T7.3642199999999995-7.823379999999999Q7.6997599999999995-7.823379999999999 7.964659999999999-7.5055T8.247219999999999-6.4812199999999995Q8.247219999999999-6.0043999999999995 8.0353-5.01544T7.38188-2.80794 6.128019999999999-0.7063999999999999 4.25606 0.19426Q3.1258199999999996 0.19426 2.4547399999999997-0.38852 1.8013199999999998-0.9536399999999999 1.8013199999999998-2.06622 1.8013199999999998-2.61368 1.9425999999999999-3.1964599999999996T2.66666-5.26268Q3.0551799999999996-6.392919999999999 3.0551799999999996-6.7108ZM11.46134-2.77262Q11.46134-2.3487799999999996 11.17878-2.06622T10.490039999999999-1.7836599999999998H10.36642Q11.17878-0.38852 12.52094-0.38852 13.75714-0.38852 14.322259999999998-1.4481199999999999 14.657799999999998-2.0309 14.657799999999998-3.7085999999999997 14.657799999999998-5.5275799999999995 14.180979999999998-6.16334 13.72182-6.7461199999999995 13.156699999999999-6.7461199999999995H13.05074Q11.673259999999999-6.7461199999999995 10.966859999999999-5.54524 10.89622-5.42162 10.84324-5.40396T10.578339999999999-5.368639999999999Q10.27812-5.368639999999999 10.242799999999999-5.4746 10.207479999999999-5.54524 10.207479999999999-8.5651V-10.84324Q10.207479999999999-11.726239999999999 10.295779999999999-11.726239999999999 10.3311-11.76156 10.36642-11.76156 10.384079999999999-11.76156 10.737279999999998-11.62028T11.70858-11.33772 13.033079999999998-11.196439999999999Q14.28694-11.196439999999999 15.43484-11.690919999999998 15.57612-11.76156 15.664419999999998-11.76156 15.805699999999998-11.76156 15.805699999999998-11.443679999999999V-11.214099999999998Q14.357579999999999-9.50108 12.1854-9.50108 11.637939999999999-9.50108 11.196439999999999-9.60704L11.019839999999999-9.64236V-6.604839999999999Q11.355379999999998-6.852079999999999 11.549639999999998-6.993359999999999T12.1854-7.275919999999999 13.08606-7.417199999999999Q14.516519999999998-7.417199999999999 15.505479999999999-6.269299999999999T16.494439999999997-3.54966Q16.494439999999997-1.9249399999999999 15.364199999999999-0.77704T12.60924 0.38852Q11.17878 0.38852 10.31344-0.56512T9.448099999999998-2.7196399999999996Q9.448099999999998-3.14348 9.64236-3.39072T10.04854-3.7085999999999997 10.45472-3.7792399999999997Q10.89622-3.7792399999999997 11.17878-3.47902T11.46134-2.77262Z"
        fill-opacity="1"
      ></path>
    </svg>
  </g>
  <g>
    <marker
      id="`e3`.shape-leftArrowhead"
      markerUnits="strokeWidth"
      markerWidth="9.95"
      markerHeight="8.12"
      viewBox="0 0 9.95 8.12"
      refX="2.36"
      refY="4.06"
      orient="auto-start-reverse"
    >
      <path
        d="M9.95 4.06 0 8.12 2.36 4.06 0 0 9.95 4.06z"
        fill="#e09b9f"
        fill-opacity="0.5"
      ></path>
    </marker>
    <marker
      id="`e3`.shape-rightArrowhead"
      markerUnits="strokeWidth"
      markerWidth="9.95"
      markerHeight="8.12"
      viewBox="0 0 9.95 8.12"
      refX="2.36"
      refY="4.06"
      orient="auto-start-reverse"
    >
      <path
        d="M9.95 4.06 0 8.12 2.36 4.06 0 0 9.95 4.06z"
        fill="#e09b9f"
        fill-opacity="0.5"
      ></path>
    </marker>
    <path
      d="M -21.199995943354452 347.3464995339259 L 178.80000405664555 347.3464995339259"
      stroke-opacity="0.5"
      stroke-width="10"
      stroke="#e09b9f"
      stroke-linecap="butt"
    ></path>
    <title>`e3`.shape</title>
  </g>
  <rect
    x="239.4000037035579"
    y="331.3123744654802"
    width="100"
    height="160"
    fill="none"
    stroke="#000000"
    stroke-opacity="1"
    stroke-width="2"
    stroke-linecap="butt"
    rx="0"
    transform="rotate(0, 239.4000037035579, 331.3123744654802)"
  >
    <title>`v3`.shape</title>
  </rect>
  <g
    transform="rotate(0, 280.7024537035579, 402.48237446548023)translate(280.7024537035579, 402.48237446548023)"
    string="v3"
  >
    <title>`v3`.text</title>
    <svg
      xmlns="http://www.w3.org/2000/svg"
      width="17.3951"
      height="17.66"
      role="img"
      focusable="false"
      viewBox="0.37085999999999997 -11.743899999999998 16.26486 12.132419999999998"
    >
      <path
        stroke="none"
        fill="#000000"
        stroke-width="0"
        d="M3.0551799999999996-6.7108Q3.0551799999999996-7.152299999999999 2.7196399999999996-7.152299999999999 2.2958-7.152299999999999 1.8366399999999998-6.64016T1.0772599999999999-5.06842Q1.0595999999999999-5.0507599999999995 1.0419399999999999-5.01544T1.0242799999999999-4.962459999999999 0.98896-4.92714 0.9359799999999999-4.909479999999999 0.8653399999999999-4.909479999999999 0.7240599999999999-4.909479999999999H0.47681999999999997Q0.37085999999999997-5.01544 0.37085999999999997-5.06842 0.37085999999999997-5.1920399999999995 0.5121399999999999-5.580559999999999T0.9359799999999999-6.49888 1.7130199999999998-7.399539999999999 2.8255999999999997-7.78806Q3.5673199999999996-7.78806 3.9734999999999996-7.3642199999999995T4.39734-6.37526Q4.39734-6.0750399999999996 4.34436-5.916099999999999 4.34436-5.81014 4.07946-5.13906T3.5319999999999996-3.5673199999999996 3.21412-1.99558Q3.21412-1.5187599999999999 3.3024199999999997-1.21854 3.5319999999999996-0.45915999999999996 4.415-0.45915999999999996 5.06842-0.45915999999999996 5.63354-1.0595999999999999T6.516539999999999-2.4547399999999997 7.02868-3.92052 7.2229399999999995-4.89182Q7.2229399999999995-5.297999999999999 7.081659999999999-5.5982199999999995T6.76378-6.057379999999999 6.445899999999999-6.37526 6.30462-6.76378Q6.30462-7.152299999999999 6.64016-7.487839999999999T7.3642199999999995-7.823379999999999Q7.6997599999999995-7.823379999999999 7.964659999999999-7.5055T8.247219999999999-6.4812199999999995Q8.247219999999999-6.0043999999999995 8.0353-5.01544T7.38188-2.80794 6.128019999999999-0.7063999999999999 4.25606 0.19426Q3.1258199999999996 0.19426 2.4547399999999997-0.38852 1.8013199999999998-0.9536399999999999 1.8013199999999998-2.06622 1.8013199999999998-2.61368 1.9425999999999999-3.1964599999999996T2.66666-5.26268Q3.0551799999999996-6.392919999999999 3.0551799999999996-6.7108ZM10.80792-8.17658Q10.3311-8.17658 10.066199999999998-8.476799999999999T9.78364-9.253839999999999Q9.78364-10.22514 10.631319999999999-10.98452T12.679879999999999-11.743899999999998Q13.297979999999999-11.743899999999998 13.456919999999998-11.726239999999999 14.76376-11.51432 15.452499999999999-10.79026T16.1589-9.21852Q16.1589-8.300199999999998 15.558459999999998-7.43486T13.89842-6.180999999999999L13.845439999999998-6.14568Q13.845439999999998-6.128019999999999 14.00438-6.0927T14.516519999999998-5.9337599999999995 15.187599999999998-5.5629Q16.63572-4.626919999999999 16.63572-3.0904999999999996 16.63572-1.69536 15.540799999999999-0.65342T12.76818 0.38852Q11.355379999999998 0.38852 10.3311-0.37085999999999997T9.30682-2.2958Q9.30682-2.7902799999999996 9.624699999999999-3.0904999999999996T10.4194-3.4083799999999997Q10.913879999999999-3.4083799999999997 11.23176-3.0904999999999996T11.549639999999998-2.2958Q11.549639999999998-2.10154 11.496659999999999-1.9425999999999999T11.37304-1.66004 11.17878-1.4481199999999999 10.966859999999999-1.30684 10.79026-1.2362 10.64898-1.18322L10.578339999999999-1.16556Q11.479-0.37085999999999997 12.76818-0.37085999999999997 13.739479999999999-0.37085999999999997 14.23396-1.30684 14.53418-1.8896199999999999 14.53418-3.0904999999999996V-3.4436999999999998Q14.53418-5.1213999999999995 13.403939999999999-5.68652 13.13904-5.792479999999999 12.32668-5.81014L11.584959999999999-5.8278 11.531979999999999-5.863119999999999Q11.496659999999999-5.916099999999999 11.496659999999999-6.14568 11.496659999999999-6.463559999999999 11.637939999999999-6.463559999999999 12.13242-6.463559999999999 12.66222-6.55186 13.262659999999999-6.64016 13.75714-7.2935799999999995T14.251619999999999-9.2715V-9.41278Q14.251619999999999-10.4194 13.633519999999999-10.80792 13.245-11.055159999999999 12.8035-11.055159999999999 12.23838-11.055159999999999 11.76156-10.860899999999999T11.09048-10.45472 10.89622-10.242799999999999H10.9492Q11.00218-10.22514 11.09048-10.207479999999999T11.26708-10.11918 11.479-9.99556 11.6556-9.8013 11.79688-9.536399999999999 11.84986-9.1832Q11.84986-8.79468 11.60262-8.49446T10.80792-8.17658Z"
        fill-opacity="1"
      ></path>
    </svg>
  </g>
  <g>
    <marker
      id="`e1`.shape-leftArrowhead"
      markerUnits="strokeWidth"
      markerWidth="9.95"
      markerHeight="8.12"
      viewBox="0 0 9.95 8.12"
      refX="2.36"
      refY="4.06"
      orient="auto-start-reverse"
    >
      <path
        d="M9.95 4.06 0 8.12 2.36 4.06 0 0 9.95 4.06z"
        fill="#bc7a35"
        fill-opacity="0.5"
      ></path>
    </marker>
    <marker
      id="`e1`.shape-rightArrowhead"
      markerUnits="strokeWidth"
      markerWidth="9.95"
      markerHeight="8.12"
      viewBox="0 0 9.95 8.12"
      refX="2.36"
      refY="4.06"
      orient="auto-start-reverse"
    >
      <path
        d="M9.95 4.06 0 8.12 2.36 4.06 0 0 9.95 4.06z"
        fill="#bc7a35"
        fill-opacity="0.5"
      ></path>
    </marker>
    <path
      d="M 326.86671859521914 579.1251370879655 L 526.8667185952191 579.1251370879655"
      stroke-opacity="0.5"
      stroke-width="10"
      stroke="#bc7a35"
      stroke-linecap="butt"
    ></path>
    <title>`e1`.shape</title>
  </g>
  <g>
    <marker
      id="`e2`.shape-leftArrowhead"
      markerUnits="strokeWidth"
      markerWidth="9.95"
      markerHeight="8.12"
      viewBox="0 0 9.95 8.12"
      refX="2.36"
      refY="4.06"
      orient="auto-start-reverse"
    >
      <path
        d="M9.95 4.06 0 8.12 2.36 4.06 0 0 9.95 4.06z"
        fill="#87c274"
        fill-opacity="0.5"
      ></path>
    </marker>
    <marker
      id="`e2`.shape-rightArrowhead"
      markerUnits="strokeWidth"
      markerWidth="9.95"
      markerHeight="8.12"
      viewBox="0 0 9.95 8.12"
      refX="2.36"
      refY="4.06"
      orient="auto-start-reverse"
    >
      <path
        d="M9.95 4.06 0 8.12 2.36 4.06 0 0 9.95 4.06z"
        fill="#87c274"
        fill-opacity="0.5"
      ></path>
    </marker>
    <path
      d="M 118.6339346038701 68.56028176890385 L 218.6339346038701 68.56028176890385"
      stroke-opacity="0.5"
      stroke-width="10"
      stroke="#87c274"
      stroke-linecap="butt"
    ></path>
    <title>`e2`.shape</title>
  </g>
  <g>
    <marker
      id="`e5`.shape-leftArrowhead"
      markerUnits="strokeWidth"
      markerWidth="9.95"
      markerHeight="8.12"
      viewBox="0 0 9.95 8.12"
      refX="2.36"
      refY="4.06"
      orient="auto-start-reverse"
    >
      <path
        d="M9.95 4.06 0 8.12 2.36 4.06 0 0 9.95 4.06z"
        fill="#50912e"
        fill-opacity="0.5"
      ></path>
    </marker>
    <marker
      id="`e5`.shape-rightArrowhead"
      markerUnits="strokeWidth"
      markerWidth="9.95"
      markerHeight="8.12"
      viewBox="0 0 9.95 8.12"
      refX="2.36"
      refY="4.06"
      orient="auto-start-reverse"
    >
      <path
        d="M9.95 4.06 0 8.12 2.36 4.06 0 0 9.95 4.06z"
        fill="#50912e"
        fill-opacity="0.5"
      ></path>
    </marker>
    <path
      d="M 402.7649662240958 67.35496451634134 L 602.7649662240958 67.35496451634134"
      stroke-opacity="0.5"
      stroke-width="10"
      stroke="#50912e"
      stroke-linecap="butt"
    ></path>
    <title>`e5`.shape</title>
  </g>
  <rect
    x="158.60000482905545"
    y="293.23746690682407"
    width="100"
    height="160"
    fill="none"
    stroke="#000000"
    stroke-opacity="1"
    stroke-width="2"
    stroke-linecap="butt"
    rx="0"
    transform="rotate(0, 158.60000482905545, 293.23746690682407)"
  >
    <title>`v2`.shape</title>
  </rect>
  <g
    transform="rotate(0, 199.90245482905544, 364.4074669068241)translate(199.90245482905544, 364.4074669068241)"
    string="v2"
  >
    <title>`v2`.text</title>
    <svg
      xmlns="http://www.w3.org/2000/svg"
      width="17.3951"
      height="17.66"
      role="img"
      focusable="false"
      viewBox="0.37085999999999997 -11.76156 16.123579999999997 11.95582"
    >
      <path
        stroke="none"
        fill="#000000"
        stroke-width="0"
        d="M3.0551799999999996-6.7108Q3.0551799999999996-7.152299999999999 2.7196399999999996-7.152299999999999 2.2958-7.152299999999999 1.8366399999999998-6.64016T1.0772599999999999-5.06842Q1.0595999999999999-5.0507599999999995 1.0419399999999999-5.01544T1.0242799999999999-4.962459999999999 0.98896-4.92714 0.9359799999999999-4.909479999999999 0.8653399999999999-4.909479999999999 0.7240599999999999-4.909479999999999H0.47681999999999997Q0.37085999999999997-5.01544 0.37085999999999997-5.06842 0.37085999999999997-5.1920399999999995 0.5121399999999999-5.580559999999999T0.9359799999999999-6.49888 1.7130199999999998-7.399539999999999 2.8255999999999997-7.78806Q3.5673199999999996-7.78806 3.9734999999999996-7.3642199999999995T4.39734-6.37526Q4.39734-6.0750399999999996 4.34436-5.916099999999999 4.34436-5.81014 4.07946-5.13906T3.5319999999999996-3.5673199999999996 3.21412-1.99558Q3.21412-1.5187599999999999 3.3024199999999997-1.21854 3.5319999999999996-0.45915999999999996 4.415-0.45915999999999996 5.06842-0.45915999999999996 5.63354-1.0595999999999999T6.516539999999999-2.4547399999999997 7.02868-3.92052 7.2229399999999995-4.89182Q7.2229399999999995-5.297999999999999 7.081659999999999-5.5982199999999995T6.76378-6.057379999999999 6.445899999999999-6.37526 6.30462-6.76378Q6.30462-7.152299999999999 6.64016-7.487839999999999T7.3642199999999995-7.823379999999999Q7.6997599999999995-7.823379999999999 7.964659999999999-7.5055T8.247219999999999-6.4812199999999995Q8.247219999999999-6.0043999999999995 8.0353-5.01544T7.38188-2.80794 6.128019999999999-0.7063999999999999 4.25606 0.19426Q3.1258199999999996 0.19426 2.4547399999999997-0.38852 1.8013199999999998-0.9536399999999999 1.8013199999999998-2.06622 1.8013199999999998-2.61368 1.9425999999999999-3.1964599999999996T2.66666-5.26268Q3.0551799999999996-6.392919999999999 3.0551799999999996-6.7108ZM10.490039999999999-7.57614Q10.013219999999999-7.57614 9.730659999999999-7.894019999999999T9.448099999999998-8.671059999999999Q9.448099999999998-9.924919999999998 10.384079999999999-10.84324T12.7152-11.76156Q14.322259999999998-11.76156 15.399519999999999-10.772599999999999T16.494439999999997-8.2119Q16.494439999999997-7.45252 16.14124-6.76378T15.29356-5.5629 13.880759999999999-4.25606Q13.245-3.7085999999999997 12.114759999999999-2.63134L11.072819999999998-1.64238 12.41498-1.62472Q15.187599999999998-1.62472 15.364199999999999-1.7130199999999998 15.48782-1.7483399999999998 15.788039999999999-3.28476V-3.3377399999999997H16.494439999999997V-3.28476Q16.476779999999998-3.2317799999999997 16.26486-1.6777T15.999959999999998-0.05298V0H9.448099999999998V-0.33553999999999995-0.54746Q9.448099999999998-0.6710799999999999 9.55406-0.81236T10.08386-1.4304599999999998Q10.595999999999998-1.99558 10.966859999999999-2.4194199999999997 11.1258-2.5960199999999998 11.5673-3.07284T12.167739999999998-3.72626 12.679879999999999-4.3090399999999995 13.174359999999998-4.909479999999999 13.58054-5.439279999999999 13.9514-6.0043999999999995 14.216299999999999-6.516539999999999 14.445879999999999-7.081659999999999 14.5695-7.611459999999999 14.62248-8.194239999999999Q14.62248-9.30682 14.022039999999999-10.11918T12.309019999999999-10.931539999999998Q11.726239999999999-10.931539999999998 11.28474-10.631319999999999T10.66664-10.04854 10.490039999999999-9.713Q10.490039999999999-9.69534 10.578339999999999-9.69534 10.89622-9.69534 11.23176-9.448099999999998T11.5673-8.63574Q11.5673-8.194239999999999 11.28474-7.894019999999999T10.490039999999999-7.57614Z"
        fill-opacity="1"
      ></path>
    </svg>
  </g>
  <rect
    x="320.20000206151167"
    y="229.46476953448422"
    width="500"
    height="160"
    fill="none"
    stroke="#000000"
    stroke-opacity="1"
    stroke-width="2"
    stroke-linecap="butt"
    rx="0"
    transform="rotate(0, 320.20000206151167, 229.46476953448422)"
  >
    <title>`v1`.shape</title>
  </rect>
  <g
    transform="rotate(0, 561.5024520615117, 300.63476953448424)translate(561.5024520615117, 300.63476953448424)"
    string="v1"
  >
    <title>`v1`.text</title>
    <svg
      xmlns="http://www.w3.org/2000/svg"
      width="17.3951"
      height="17.66"
      role="img"
      focusable="false"
      viewBox="0.37085999999999997 -11.76156 15.735059999999997 11.95582"
    >
      <path
        stroke="none"
        fill="#000000"
        stroke-width="0"
        d="M3.0551799999999996-6.7108Q3.0551799999999996-7.152299999999999 2.7196399999999996-7.152299999999999 2.2958-7.152299999999999 1.8366399999999998-6.64016T1.0772599999999999-5.06842Q1.0595999999999999-5.0507599999999995 1.0419399999999999-5.01544T1.0242799999999999-4.962459999999999 0.98896-4.92714 0.9359799999999999-4.909479999999999 0.8653399999999999-4.909479999999999 0.7240599999999999-4.909479999999999H0.47681999999999997Q0.37085999999999997-5.01544 0.37085999999999997-5.06842 0.37085999999999997-5.1920399999999995 0.5121399999999999-5.580559999999999T0.9359799999999999-6.49888 1.7130199999999998-7.399539999999999 2.8255999999999997-7.78806Q3.5673199999999996-7.78806 3.9734999999999996-7.3642199999999995T4.39734-6.37526Q4.39734-6.0750399999999996 4.34436-5.916099999999999 4.34436-5.81014 4.07946-5.13906T3.5319999999999996-3.5673199999999996 3.21412-1.99558Q3.21412-1.5187599999999999 3.3024199999999997-1.21854 3.5319999999999996-0.45915999999999996 4.415-0.45915999999999996 5.06842-0.45915999999999996 5.63354-1.0595999999999999T6.516539999999999-2.4547399999999997 7.02868-3.92052 7.2229399999999995-4.89182Q7.2229399999999995-5.297999999999999 7.081659999999999-5.5982199999999995T6.76378-6.057379999999999 6.445899999999999-6.37526 6.30462-6.76378Q6.30462-7.152299999999999 6.64016-7.487839999999999T7.3642199999999995-7.823379999999999Q7.6997599999999995-7.823379999999999 7.964659999999999-7.5055T8.247219999999999-6.4812199999999995Q8.247219999999999-6.0043999999999995 8.0353-5.01544T7.38188-2.80794 6.128019999999999-0.7063999999999999 4.25606 0.19426Q3.1258199999999996 0.19426 2.4547399999999997-0.38852 1.8013199999999998-0.9536399999999999 1.8013199999999998-2.06622 1.8013199999999998-2.61368 1.9425999999999999-3.1964599999999996T2.66666-5.26268Q3.0551799999999996-6.392919999999999 3.0551799999999996-6.7108ZM12.32668-10.207479999999999L12.0971-10.11918Q11.84986-10.03088 11.390699999999999-9.94258T10.36642-9.818959999999999H10.03088V-10.631319999999999H10.36642Q11.196439999999999-10.66664 11.90284-10.89622T12.891799999999998-11.32006 13.38628-11.70858Q13.4216-11.76156 13.598199999999999-11.76156 13.75714-11.76156 13.89842-11.6556V-6.37526L13.91608-1.0772599999999999Q14.039699999999998-0.9536399999999999 14.127999999999998-0.9183199999999999T14.551839999999999-0.84768 15.646759999999999-0.81236H16.105919999999998V0H15.91166Q15.540799999999999-0.05298 13.10372-0.05298 10.70196-0.05298 10.3311 0H10.11918V-0.81236H10.578339999999999Q10.966859999999999-0.81236 11.249419999999999-0.81236T11.690919999999998-0.83002 11.973479999999999-0.8829999999999999 12.114759999999999-0.9183199999999999 12.220719999999998-1.0066199999999998 12.32668-1.0772599999999999V-10.207479999999999Z"
        fill-opacity="1"
      ></path>
    </svg>
  </g>
  <rect
    x="342.497232567561"
    y="398.4741617575133"
    width="100"
    height="160"
    fill="none"
    stroke="#000000"
    stroke-opacity="1"
    stroke-width="2"
    stroke-linecap="butt"
    rx="0"
    transform="rotate(0, 342.497232567561, 398.4741617575133)"
  >
    <title>`v4`.shape</title>
  </rect>
  <g
    transform="rotate(0, 383.79968256756104, 469.6441617575133)translate(383.79968256756104, 469.6441617575133)"
    string="v4"
  >
    <title>`v4`.text</title>
    <svg
      xmlns="http://www.w3.org/2000/svg"
      width="17.3951"
      height="17.66"
      role="img"
      focusable="false"
      viewBox="0.37085999999999997 -11.95582 16.512099999999997 12.150079999999999"
    >
      <path
        stroke="none"
        fill="#000000"
        stroke-width="0"
        d="M3.0551799999999996-6.7108Q3.0551799999999996-7.152299999999999 2.7196399999999996-7.152299999999999 2.2958-7.152299999999999 1.8366399999999998-6.64016T1.0772599999999999-5.06842Q1.0595999999999999-5.0507599999999995 1.0419399999999999-5.01544T1.0242799999999999-4.962459999999999 0.98896-4.92714 0.9359799999999999-4.909479999999999 0.8653399999999999-4.909479999999999 0.7240599999999999-4.909479999999999H0.47681999999999997Q0.37085999999999997-5.01544 0.37085999999999997-5.06842 0.37085999999999997-5.1920399999999995 0.5121399999999999-5.580559999999999T0.9359799999999999-6.49888 1.7130199999999998-7.399539999999999 2.8255999999999997-7.78806Q3.5673199999999996-7.78806 3.9734999999999996-7.3642199999999995T4.39734-6.37526Q4.39734-6.0750399999999996 4.34436-5.916099999999999 4.34436-5.81014 4.07946-5.13906T3.5319999999999996-3.5673199999999996 3.21412-1.99558Q3.21412-1.5187599999999999 3.3024199999999997-1.21854 3.5319999999999996-0.45915999999999996 4.415-0.45915999999999996 5.06842-0.45915999999999996 5.63354-1.0595999999999999T6.516539999999999-2.4547399999999997 7.02868-3.92052 7.2229399999999995-4.89182Q7.2229399999999995-5.297999999999999 7.081659999999999-5.5982199999999995T6.76378-6.057379999999999 6.445899999999999-6.37526 6.30462-6.76378Q6.30462-7.152299999999999 6.64016-7.487839999999999T7.3642199999999995-7.823379999999999Q7.6997599999999995-7.823379999999999 7.964659999999999-7.5055T8.247219999999999-6.4812199999999995Q8.247219999999999-6.0043999999999995 8.0353-5.01544T7.38188-2.80794 6.128019999999999-0.7063999999999999 4.25606 0.19426Q3.1258199999999996 0.19426 2.4547399999999997-0.38852 1.8013199999999998-0.9536399999999999 1.8013199999999998-2.06622 1.8013199999999998-2.61368 1.9425999999999999-3.1964599999999996T2.66666-5.26268Q3.0551799999999996-6.392919999999999 3.0551799999999996-6.7108ZM16.72402 0Q16.406139999999997-0.05298 14.445879999999999-0.05298 12.397319999999999-0.05298 12.079439999999998 0H11.920499999999999V-0.81236H12.46796Q12.821159999999999-0.81236 12.94478-0.81236T13.245-0.84768 13.492239999999999-0.9359799999999999 13.61586-1.0772599999999999Q13.633519999999999-1.11258 13.633519999999999-2.0309V-2.9139H9.059579999999999V-3.72626L11.726239999999999-7.805719999999999Q14.42822-11.90284 14.463539999999998-11.920499999999999 14.498859999999999-11.95582 14.834399999999999-11.95582H15.15228L15.258239999999999-11.84986V-3.72626H16.882959999999997V-2.9139H15.258239999999999V-2.0132399999999997Q15.258239999999999-1.28918 15.258239999999999-1.16556T15.364199999999999-0.9536399999999999Q15.505479999999999-0.83002 16.37082-0.81236H16.882959999999997V0H16.72402ZM13.739479999999999-3.72626V-9.624699999999999L9.871939999999999-3.7439199999999997 11.79688-3.72626H13.739479999999999Z"
        fill-opacity="1"
      ></path>
    </svg>
  </g>
  <g
    transform="rotate(0, 418.3369385952191, 570.2951370879655)translate(418.3369385952191, 570.2951370879655)"
    string="e1"
  >
    <title>`e1`.text</title>
    <svg
      xmlns="http://www.w3.org/2000/svg"
      width="17.059559999999998"
      height="17.66"
      role="img"
      focusable="false"
      viewBox="0.6887399999999999 -11.76156 15.08164 11.95582"
    >
      <path
        stroke="none"
        fill="#000000"
        stroke-width="0"
        d="M0.6887399999999999-2.9668799999999997Q0.6887399999999999-3.9734999999999996 1.0242799999999999-4.80352T1.8896199999999999-6.180999999999999 3.07284-7.09932 4.3090399999999995-7.64678 5.42162-7.805719999999999H5.4746Q6.269299999999999-7.805719999999999 6.852079999999999-7.417199999999999T7.43486-6.269299999999999Q7.43486-4.6799 5.4746-4.18542 4.60926-3.95584 3.10816-3.9381799999999996 2.4547399999999997-3.9381799999999996 2.43708-3.9028599999999996 2.43708-3.8675399999999995 2.33112-3.28476T2.2075-2.26048Q2.2075-1.4304599999999998 2.57836-0.9536399999999999T3.69094-0.45915999999999996 5.33332-0.7947 6.95804-1.96026Q7.11698-2.13686 7.16996-2.13686 7.2406-2.13686 7.399539999999999-1.97792T7.57614-1.7306799999999998 7.417199999999999-1.4481199999999999 6.8873999999999995-0.9712999999999999 6.0750399999999996-0.42384 4.962459999999999 0.01766 3.6203 0.19426Q2.22516 0.19426 1.4657799999999999-0.7417199999999999T0.6887399999999999-2.9668799999999997ZM6.587179999999999-6.23398Q6.4812199999999995-7.152299999999999 5.386299999999999-7.152299999999999 4.80352-7.152299999999999 4.3090399999999995-6.90506T3.51434-6.30462 3.0021999999999998-5.580559999999999 2.7196399999999996-4.9448 2.63134-4.60926Q2.63134-4.5916 2.98454-4.5916 4.980119999999999-4.5916 5.774819999999999-5.01544T6.587179999999999-6.23398ZM11.99114-10.207479999999999L11.76156-10.11918Q11.51432-10.03088 11.055159999999999-9.94258T10.03088-9.818959999999999H9.69534V-10.631319999999999H10.03088Q10.860899999999999-10.66664 11.5673-10.89622T12.556259999999998-11.32006 13.05074-11.70858Q13.08606-11.76156 13.262659999999999-11.76156 13.4216-11.76156 13.56288-11.6556V-6.37526L13.58054-1.0772599999999999Q13.704159999999998-0.9536399999999999 13.792459999999998-0.9183199999999999T14.216299999999999-0.84768 15.311219999999999-0.81236H15.77038V0H15.57612Q15.205259999999999-0.05298 12.76818-0.05298 10.36642-0.05298 9.99556 0H9.78364V-0.81236H10.242799999999999Q10.631319999999999-0.81236 10.913879999999999-0.81236T11.355379999999998-0.83002 11.637939999999999-0.8829999999999999 11.779219999999999-0.9183199999999999 11.885179999999998-1.0066199999999998 11.99114-1.0772599999999999V-10.207479999999999Z"
        fill-opacity="1"
      ></path>
    </svg>
  </g>
  <g
    transform="rotate(0, 160.10415460387011, 59.73028176890385)translate(160.10415460387011, 59.73028176890385)"
    string="e2"
  >
    <title>`e2`.text</title>
    <svg
      xmlns="http://www.w3.org/2000/svg"
      width="17.059559999999998"
      height="17.66"
      role="img"
      focusable="false"
      viewBox="0.6887399999999999 -11.76156 15.47016 11.95582"
    >
      <path
        stroke="none"
        fill="#000000"
        stroke-width="0"
        d="M0.6887399999999999-2.9668799999999997Q0.6887399999999999-3.9734999999999996 1.0242799999999999-4.80352T1.8896199999999999-6.180999999999999 3.07284-7.09932 4.3090399999999995-7.64678 5.42162-7.805719999999999H5.4746Q6.269299999999999-7.805719999999999 6.852079999999999-7.417199999999999T7.43486-6.269299999999999Q7.43486-4.6799 5.4746-4.18542 4.60926-3.95584 3.10816-3.9381799999999996 2.4547399999999997-3.9381799999999996 2.43708-3.9028599999999996 2.43708-3.8675399999999995 2.33112-3.28476T2.2075-2.26048Q2.2075-1.4304599999999998 2.57836-0.9536399999999999T3.69094-0.45915999999999996 5.33332-0.7947 6.95804-1.96026Q7.11698-2.13686 7.16996-2.13686 7.2406-2.13686 7.399539999999999-1.97792T7.57614-1.7306799999999998 7.417199999999999-1.4481199999999999 6.8873999999999995-0.9712999999999999 6.0750399999999996-0.42384 4.962459999999999 0.01766 3.6203 0.19426Q2.22516 0.19426 1.4657799999999999-0.7417199999999999T0.6887399999999999-2.9668799999999997ZM6.587179999999999-6.23398Q6.4812199999999995-7.152299999999999 5.386299999999999-7.152299999999999 4.80352-7.152299999999999 4.3090399999999995-6.90506T3.51434-6.30462 3.0021999999999998-5.580559999999999 2.7196399999999996-4.9448 2.63134-4.60926Q2.63134-4.5916 2.98454-4.5916 4.980119999999999-4.5916 5.774819999999999-5.01544T6.587179999999999-6.23398ZM10.154499999999999-7.57614Q9.677679999999999-7.57614 9.395119999999999-7.894019999999999T9.112559999999998-8.671059999999999Q9.112559999999998-9.924919999999998 10.04854-10.84324T12.37966-11.76156Q13.986719999999998-11.76156 15.063979999999999-10.772599999999999T16.1589-8.2119Q16.1589-7.45252 15.805699999999998-6.76378T14.95802-5.5629 13.545219999999999-4.25606Q12.90946-3.7085999999999997 11.779219999999999-2.63134L10.737279999999998-1.64238 12.079439999999998-1.62472Q14.852059999999998-1.62472 15.028659999999999-1.7130199999999998 15.15228-1.7483399999999998 15.452499999999999-3.28476V-3.3377399999999997H16.1589V-3.28476Q16.14124-3.2317799999999997 15.929319999999999-1.6777T15.664419999999998-0.05298V0H9.112559999999998V-0.33553999999999995-0.54746Q9.112559999999998-0.6710799999999999 9.21852-0.81236T9.74832-1.4304599999999998Q10.260459999999998-1.99558 10.631319999999999-2.4194199999999997 10.79026-2.5960199999999998 11.23176-3.07284T11.832199999999998-3.72626 12.344339999999999-4.3090399999999995 12.838819999999998-4.909479999999999 13.245-5.439279999999999 13.61586-6.0043999999999995 13.880759999999999-6.516539999999999 14.110339999999999-7.081659999999999 14.23396-7.611459999999999 14.28694-8.194239999999999Q14.28694-9.30682 13.686499999999999-10.11918T11.973479999999999-10.931539999999998Q11.390699999999999-10.931539999999998 10.9492-10.631319999999999T10.3311-10.04854 10.154499999999999-9.713Q10.154499999999999-9.69534 10.242799999999999-9.69534 10.56068-9.69534 10.89622-9.448099999999998T11.23176-8.63574Q11.23176-8.194239999999999 10.9492-7.894019999999999T10.154499999999999-7.57614Z"
        fill-opacity="1"
      ></path>
    </svg>
  </g>
  <g
    transform="rotate(0, 70.27022405664555, 338.5164995339259)translate(70.27022405664555, 338.5164995339259)"
    string="e3"
  >
    <title>`e3`.text</title>
    <svg
      xmlns="http://www.w3.org/2000/svg"
      width="17.059559999999998"
      height="17.66"
      role="img"
      focusable="false"
      viewBox="0.6887399999999999 -11.743899999999998 15.611439999999998 12.132419999999998"
    >
      <path
        stroke="none"
        fill="#000000"
        stroke-width="0"
        d="M0.6887399999999999-2.9668799999999997Q0.6887399999999999-3.9734999999999996 1.0242799999999999-4.80352T1.8896199999999999-6.180999999999999 3.07284-7.09932 4.3090399999999995-7.64678 5.42162-7.805719999999999H5.4746Q6.269299999999999-7.805719999999999 6.852079999999999-7.417199999999999T7.43486-6.269299999999999Q7.43486-4.6799 5.4746-4.18542 4.60926-3.95584 3.10816-3.9381799999999996 2.4547399999999997-3.9381799999999996 2.43708-3.9028599999999996 2.43708-3.8675399999999995 2.33112-3.28476T2.2075-2.26048Q2.2075-1.4304599999999998 2.57836-0.9536399999999999T3.69094-0.45915999999999996 5.33332-0.7947 6.95804-1.96026Q7.11698-2.13686 7.16996-2.13686 7.2406-2.13686 7.399539999999999-1.97792T7.57614-1.7306799999999998 7.417199999999999-1.4481199999999999 6.8873999999999995-0.9712999999999999 6.0750399999999996-0.42384 4.962459999999999 0.01766 3.6203 0.19426Q2.22516 0.19426 1.4657799999999999-0.7417199999999999T0.6887399999999999-2.9668799999999997ZM6.587179999999999-6.23398Q6.4812199999999995-7.152299999999999 5.386299999999999-7.152299999999999 4.80352-7.152299999999999 4.3090399999999995-6.90506T3.51434-6.30462 3.0021999999999998-5.580559999999999 2.7196399999999996-4.9448 2.63134-4.60926Q2.63134-4.5916 2.98454-4.5916 4.980119999999999-4.5916 5.774819999999999-5.01544T6.587179999999999-6.23398ZM10.47238-8.17658Q9.99556-8.17658 9.730659999999999-8.476799999999999T9.448099999999998-9.253839999999999Q9.448099999999998-10.22514 10.295779999999999-10.98452T12.344339999999999-11.743899999999998Q12.962439999999999-11.743899999999998 13.121379999999998-11.726239999999999 14.42822-11.51432 15.116959999999999-10.79026T15.82336-9.21852Q15.82336-8.300199999999998 15.222919999999998-7.43486T13.56288-6.180999999999999L13.509899999999998-6.14568Q13.509899999999998-6.128019999999999 13.66884-6.0927T14.180979999999998-5.9337599999999995 14.852059999999998-5.5629Q16.300179999999997-4.626919999999999 16.300179999999997-3.0904999999999996 16.300179999999997-1.69536 15.205259999999999-0.65342T12.43264 0.38852Q11.019839999999999 0.38852 9.99556-0.37085999999999997T8.97128-2.2958Q8.97128-2.7902799999999996 9.289159999999999-3.0904999999999996T10.08386-3.4083799999999997Q10.578339999999999-3.4083799999999997 10.89622-3.0904999999999996T11.214099999999998-2.2958Q11.214099999999998-2.10154 11.161119999999999-1.9425999999999999T11.0375-1.66004 10.84324-1.4481199999999999 10.631319999999999-1.30684 10.45472-1.2362 10.31344-1.18322L10.242799999999999-1.16556Q11.14346-0.37085999999999997 12.43264-0.37085999999999997 13.403939999999999-0.37085999999999997 13.89842-1.30684 14.19864-1.8896199999999999 14.19864-3.0904999999999996V-3.4436999999999998Q14.19864-5.1213999999999995 13.068399999999999-5.68652 12.8035-5.792479999999999 11.99114-5.81014L11.249419999999999-5.8278 11.196439999999999-5.863119999999999Q11.161119999999999-5.916099999999999 11.161119999999999-6.14568 11.161119999999999-6.463559999999999 11.302399999999999-6.463559999999999 11.79688-6.463559999999999 12.32668-6.55186 12.927119999999999-6.64016 13.4216-7.2935799999999995T13.91608-9.2715V-9.41278Q13.91608-10.4194 13.297979999999999-10.80792 12.90946-11.055159999999999 12.46796-11.055159999999999 11.90284-11.055159999999999 11.42602-10.860899999999999T10.75494-10.45472 10.56068-10.242799999999999H10.61366Q10.66664-10.22514 10.75494-10.207479999999999T10.931539999999998-10.11918 11.14346-9.99556 11.32006-9.8013 11.46134-9.536399999999999 11.51432-9.1832Q11.51432-8.79468 11.26708-8.49446T10.47238-8.17658Z"
        fill-opacity="1"
      ></path>
    </svg>
  </g>
  <g
    transform="rotate(0, 166.66633731529376, 242.2703604417173)translate(166.66633731529376, 242.2703604417173)"
    string="e4"
  >
    <title>`e4`.text</title>
    <svg
      xmlns="http://www.w3.org/2000/svg"
      width="17.059559999999998"
      height="17.66"
      role="img"
      focusable="false"
      viewBox="0.6887399999999999 -11.95582 15.85868 12.150079999999999"
    >
      <path
        stroke="none"
        fill="#000000"
        stroke-width="0"
        d="M0.6887399999999999-2.9668799999999997Q0.6887399999999999-3.9734999999999996 1.0242799999999999-4.80352T1.8896199999999999-6.180999999999999 3.07284-7.09932 4.3090399999999995-7.64678 5.42162-7.805719999999999H5.4746Q6.269299999999999-7.805719999999999 6.852079999999999-7.417199999999999T7.43486-6.269299999999999Q7.43486-4.6799 5.4746-4.18542 4.60926-3.95584 3.10816-3.9381799999999996 2.4547399999999997-3.9381799999999996 2.43708-3.9028599999999996 2.43708-3.8675399999999995 2.33112-3.28476T2.2075-2.26048Q2.2075-1.4304599999999998 2.57836-0.9536399999999999T3.69094-0.45915999999999996 5.33332-0.7947 6.95804-1.96026Q7.11698-2.13686 7.16996-2.13686 7.2406-2.13686 7.399539999999999-1.97792T7.57614-1.7306799999999998 7.417199999999999-1.4481199999999999 6.8873999999999995-0.9712999999999999 6.0750399999999996-0.42384 4.962459999999999 0.01766 3.6203 0.19426Q2.22516 0.19426 1.4657799999999999-0.7417199999999999T0.6887399999999999-2.9668799999999997ZM6.587179999999999-6.23398Q6.4812199999999995-7.152299999999999 5.386299999999999-7.152299999999999 4.80352-7.152299999999999 4.3090399999999995-6.90506T3.51434-6.30462 3.0021999999999998-5.580559999999999 2.7196399999999996-4.9448 2.63134-4.60926Q2.63134-4.5916 2.98454-4.5916 4.980119999999999-4.5916 5.774819999999999-5.01544T6.587179999999999-6.23398ZM16.388479999999998 0Q16.0706-0.05298 14.110339999999999-0.05298 12.061779999999999-0.05298 11.743899999999998 0H11.584959999999999V-0.81236H12.13242Q12.485619999999999-0.81236 12.60924-0.81236T12.90946-0.84768 13.156699999999999-0.9359799999999999 13.28032-1.0772599999999999Q13.297979999999999-1.11258 13.297979999999999-2.0309V-2.9139H8.724039999999999V-3.72626L11.390699999999999-7.805719999999999Q14.09268-11.90284 14.127999999999998-11.920499999999999 14.163319999999999-11.95582 14.498859999999999-11.95582H14.81674L14.922699999999999-11.84986V-3.72626H16.54742V-2.9139H14.922699999999999V-2.0132399999999997Q14.922699999999999-1.28918 14.922699999999999-1.16556T15.028659999999999-0.9536399999999999Q15.169939999999999-0.83002 16.03528-0.81236H16.54742V0H16.388479999999998ZM13.403939999999999-3.72626V-9.624699999999999L9.536399999999999-3.7439199999999997 11.46134-3.72626H13.403939999999999Z"
        fill-opacity="1"
      ></path>
    </svg>
  </g>
  <g
    transform="rotate(0, 494.2351862240958, 58.52496451634134)translate(494.2351862240958, 58.52496451634134)"
    string="e5"
  >
    <title>`e5`.text</title>
    <svg
      xmlns="http://www.w3.org/2000/svg"
      width="17.059559999999998"
      height="17.66"
      role="img"
      focusable="false"
      viewBox="0.6887399999999999 -11.76156 15.47016 12.150079999999999"
    >
      <path
        stroke="none"
        fill="#000000"
        stroke-width="0"
        d="M0.6887399999999999-2.9668799999999997Q0.6887399999999999-3.9734999999999996 1.0242799999999999-4.80352T1.8896199999999999-6.180999999999999 3.07284-7.09932 4.3090399999999995-7.64678 5.42162-7.805719999999999H5.4746Q6.269299999999999-7.805719999999999 6.852079999999999-7.417199999999999T7.43486-6.269299999999999Q7.43486-4.6799 5.4746-4.18542 4.60926-3.95584 3.10816-3.9381799999999996 2.4547399999999997-3.9381799999999996 2.43708-3.9028599999999996 2.43708-3.8675399999999995 2.33112-3.28476T2.2075-2.26048Q2.2075-1.4304599999999998 2.57836-0.9536399999999999T3.69094-0.45915999999999996 5.33332-0.7947 6.95804-1.96026Q7.11698-2.13686 7.16996-2.13686 7.2406-2.13686 7.399539999999999-1.97792T7.57614-1.7306799999999998 7.417199999999999-1.4481199999999999 6.8873999999999995-0.9712999999999999 6.0750399999999996-0.42384 4.962459999999999 0.01766 3.6203 0.19426Q2.22516 0.19426 1.4657799999999999-0.7417199999999999T0.6887399999999999-2.9668799999999997ZM6.587179999999999-6.23398Q6.4812199999999995-7.152299999999999 5.386299999999999-7.152299999999999 4.80352-7.152299999999999 4.3090399999999995-6.90506T3.51434-6.30462 3.0021999999999998-5.580559999999999 2.7196399999999996-4.9448 2.63134-4.60926Q2.63134-4.5916 2.98454-4.5916 4.980119999999999-4.5916 5.774819999999999-5.01544T6.587179999999999-6.23398ZM11.1258-2.77262Q11.1258-2.3487799999999996 10.84324-2.06622T10.154499999999999-1.7836599999999998H10.03088Q10.84324-0.38852 12.1854-0.38852 13.4216-0.38852 13.986719999999998-1.4481199999999999 14.322259999999998-2.0309 14.322259999999998-3.7085999999999997 14.322259999999998-5.5275799999999995 13.845439999999998-6.16334 13.38628-6.7461199999999995 12.821159999999999-6.7461199999999995H12.7152Q11.33772-6.7461199999999995 10.631319999999999-5.54524 10.56068-5.42162 10.5077-5.40396T10.242799999999999-5.368639999999999Q9.94258-5.368639999999999 9.907259999999999-5.4746 9.871939999999999-5.54524 9.871939999999999-8.5651V-10.84324Q9.871939999999999-11.726239999999999 9.960239999999999-11.726239999999999 9.99556-11.76156 10.03088-11.76156 10.04854-11.76156 10.401739999999998-11.62028T11.37304-11.33772 12.697539999999998-11.196439999999999Q13.9514-11.196439999999999 15.0993-11.690919999999998 15.24058-11.76156 15.328879999999998-11.76156 15.470159999999998-11.76156 15.470159999999998-11.443679999999999V-11.214099999999998Q14.022039999999999-9.50108 11.84986-9.50108 11.302399999999999-9.50108 10.860899999999999-9.60704L10.684299999999999-9.64236V-6.604839999999999Q11.019839999999999-6.852079999999999 11.214099999999998-6.993359999999999T11.84986-7.275919999999999 12.75052-7.417199999999999Q14.180979999999998-7.417199999999999 15.169939999999999-6.269299999999999T16.1589-3.54966Q16.1589-1.9249399999999999 15.028659999999999-0.77704T12.2737 0.38852Q10.84324 0.38852 9.9779-0.56512T9.112559999999998-2.7196399999999996Q9.112559999999998-3.14348 9.30682-3.39072T9.713-3.7085999999999997 10.11918-3.7792399999999997Q10.56068-3.7792399999999997 10.84324-3.47902T11.1258-2.77262Z"
        fill-opacity="1"
      ></path>
    </svg>
  </g>
</svg>
