<svg version="1.2" xmlns="http://www.w3.org/2000/svg" viewBox="0 0 800 700">
  <circle
    fill="#81a985"
    fill-opacity="0.5"
    cx="462.59900149564066"
    cy="315.963994075796"
    stroke="none"
    r="310.97203565347326"
  >
    <title>`A`.icon</title>
  </circle>
  <circle
    fill="#6d9eac"
    fill-opacity="0.5"
    cx="435.7015425808733"
    cy="515.2763822797622"
    stroke="none"
    r="102.5880689974971"
  >
    <title>`C`.icon</title>
  </circle>
  <g
    transform="rotate(0, 424.0507425808733, 499.9463822797622)translate(424.0507425808733, 499.9463822797622)"
    string="C"
  >
    <title>`C`.text</title>
    <svg
      style="vertical-align: -0.566ex"
      xmlns="http://www.w3.org/2000/svg"
      width="23.3016"
      height="30.66"
      role="img"
      focusable="false"
      viewBox="1.533 -21.6153 21.7686 22.289820000000002"
    >
      <path
        stroke="none"
        fill="#000000"
        stroke-width="0"
        d="M1.533-7.72632Q1.533-11.25222 3.58722-14.50218T8.76876-19.65306 15.0234-21.58464Q17.782799999999998-21.58464 19.40778-20.02098 19.68372-19.71438 19.86768-19.49976T20.11296-19.19316L20.14362-19.10118Q20.2356-19.10118 20.97144-19.89834 21.18606-20.0823 21.43134-20.32758T21.9219-20.81814 22.2285-21.1554L22.6884-21.6153H22.87236Q23.3016-21.6153 23.3016-21.40068 23.3016-21.27804 22.32048-17.20026 21.21672-12.93852 21.21672-12.90786 21.1554-12.75456 21.06342-12.7239T20.51154-12.66258H20.02098Q19.83702-12.84654 19.83702-12.93852 19.83702-12.96918 19.86768-13.15314T19.929-13.76634 19.95966-14.74746Q19.95966-16.92432 18.97854-18.5493T15.6366-20.20494Q14.83944-20.20494 13.91964-19.99032T11.71212-19.25448 9.16734-17.53752 6.9291599999999995-14.68614Q5.94804-12.93852 5.3655-10.60836T4.78296-6.80652Q4.78296-3.31128 7.11312-1.77828 8.5848-0.73584 10.731-0.73584 13.52106-0.73584 15.69792-2.82072T18.57996-7.3584Q18.7026-7.7569799999999995 18.76392-7.8183T19.25448-7.87962Q19.86768-7.87962 19.86768-7.60368 19.86768-7.45038 19.83702-7.32774 18.94788-4.04712 16.03518-1.6863T9.78054 0.67452Q6.31596 0.67452 3.92448-1.62498T1.533-7.72632Z"
        fill-opacity="1"
      ></path>
    </svg>
  </g>
  <circle
    fill="#3bd67a"
    fill-opacity="0.5"
    cx="301.5906008816483"
    cy="283.1851195146605"
    stroke="none"
    r="139.23060271603487"
  >
    <title>`B`.icon</title>
  </circle>
  <g
    transform="rotate(0, 289.9551308816483, 267.85511951466054)translate(289.9551308816483, 267.85511951466054)"
    string="B"
  >
    <title>`B`.text</title>
    <svg
      style="vertical-align: -0.566ex"
      xmlns="http://www.w3.org/2000/svg"
      width="23.27094"
      height="30.66"
      role="img"
      focusable="false"
      viewBox="1.0731 -20.94078 22.10586 20.94078"
    >
      <path
        stroke="none"
        fill="#000000"
        stroke-width="0"
        d="M7.08246-19.53042Q6.25464-19.53042 6.1013399999999995-19.56108T5.94804-19.89834Q5.94804-20.72616 6.2853-20.91012 6.31596-20.94078 10.2711-20.94078 18.21204-20.94078 18.64128-20.879459999999998 20.57286-20.57286 21.86058-19.49976T23.17896-16.67904Q23.17896-14.7168 21.40068-13.15314T17.3229-11.0376L17.0163-10.94562Q18.97854-10.66968 20.2356-9.53526T21.52332-6.7145399999999995Q21.52332-4.47636 19.3158-2.39148T13.88898-0.03066Q13.67436 0 7.41972 0 1.28772 0 1.19574-0.06132 1.0731-0.1533 1.0731-0.3066 1.0731-0.52122 1.13442-0.73584 1.28772-1.3183799999999999 1.44102-1.3797 1.56366-1.41036 1.90092-1.41036H2.08488Q2.9127-1.41036 3.92448-1.50234 4.35372-1.59432 4.50702-1.87026 4.599-1.9929 6.7145399999999995-10.39374T8.83008-19.25448Q8.83008-19.4691 7.08246-19.53042ZM19.89834-16.67904Q19.89834-17.59884 19.43844-18.396T17.9361-19.43844Q17.72148-19.49976 15.11538-19.53042 14.50218-19.53042 13.82766-19.53042T12.75456-19.49976H12.35598Q11.89608-19.4691 11.77344-19.19316 11.71212-19.07052 10.79232-15.513959999999999 10.79232-15.42198 10.76166-15.33L9.8112-11.46684H12.29466Q14.77812-11.46684 15.14604-11.52816 16.98564-11.83476 18.42666-13.30644T19.89834-16.67904ZM18.2427-7.02114Q18.2427-8.37018 17.53752-9.25932T15.69792-10.30176Q15.513959999999999-10.332419999999999 13.15314-10.332419999999999 9.53526-10.332419999999999 9.5046-10.30176 9.5046-10.24044 8.98338-8.06358T7.91028-3.74052L7.3584-1.59432Q7.3584-1.47168 7.72632-1.47168T10.20978-1.41036Q12.93852-1.41036 13.15314-1.44102 15.05406-1.65564 16.64838-3.2193T18.2427-7.02114Z"
        fill-opacity="1"
      ></path>
    </svg>
  </g>
  <circle
    fill="#88469c"
    fill-opacity="0.5"
    cx="439.8627516701767"
    cy="459.12597660013887"
    stroke="none"
    r="30.734948834653153"
  >
    <title>`F`.icon</title>
  </circle>
  <g
    transform="rotate(0, 428.3805816701767, 443.7959766001389)translate(428.3805816701767, 443.7959766001389)"
    string="F"
  >
    <title>`F`.text</title>
    <svg
      style="vertical-align: -0.566ex"
      xmlns="http://www.w3.org/2000/svg"
      width="22.96434"
      height="30.66"
      role="img"
      focusable="false"
      viewBox="0.95046 -20.8488 22.01388 20.8488"
    >
      <path
        stroke="none"
        fill="#000000"
        stroke-width="0"
        d="M1.47168-0.03066Q0.95046-0.03066 0.95046-0.33726 0.95046-0.39858 1.04244-0.7665 1.16508-1.25706 1.28772-1.3183799999999999T1.9929-1.41036Q2.82072-1.41036 3.8325-1.50234 4.26174-1.59432 4.41504-1.87026 4.47636-2.02356 6.5919-10.48572T8.7381-19.07052Q8.7381-19.28514 8.61546-19.28514 8.37018-19.37712 6.99048-19.43844H6.04002Q5.85606-19.6224 5.85606-19.68372T5.91738-20.20494Q6.04002-20.72616 6.22398-20.8488H22.74972Q22.96434-20.72616 22.96434-20.51154 22.96434-20.35824 22.56576-17.07762T22.13652-13.70502Q22.0752-13.4904 21.52332-13.4904H21.1554Q20.94078-13.643699999999999 20.94078-13.88898 20.94078-13.91964 21.03276-14.62482T21.12474-16.2498Q21.12474-17.1696 20.91012-17.75214T20.32758-18.7026 19.19316-19.19316 17.6295-19.40778 15.42198-19.43844H14.7168Q12.202679999999999-19.40778 12.04938-19.34646 11.89608-19.28514 11.83476-19.10118 11.8041-19.07052 10.79232-15.084719999999999L9.8112-11.12958H11.4975Q11.58948-11.12958 12.202679999999999-11.12958T13.06116-11.16024 13.73568-11.25222 14.47152-11.46684 14.99274-11.83476Q15.39132-12.202679999999999 15.66726-12.84654T16.06584-14.01162 16.21914-14.5635Q16.31112-14.7168 16.80168-14.7168H17.1696Q17.38422-14.5635 17.38422-14.4102 17.38422-14.31822 16.43376-10.39374T15.39132-6.34662Q15.33-6.132 14.77812-6.132H14.4102Q14.19558-6.31596 14.19558-6.49992 14.19558-6.5919 14.34888-7.17444T14.50218-8.40084Q14.50218-9.28998 13.88898-9.5046T11.16024-9.71922H9.47394L8.49282-5.8254Q7.5117-2.02356 7.5117-1.8396 7.5117-1.41036 10.24044-1.41036H11.00694Q11.1909-1.2264 11.1909-1.19574T11.12958-0.58254Q11.00694-0.18396 10.82298 0H10.30176Q9.0447-0.06132 5.6721-0.06132 3.6792-0.06132 2.6367599999999998-0.06132T1.47168-0.03066Z"
        fill-opacity="1"
      ></path>
    </svg>
  </g>
  <circle
    fill="#cfb479"
    fill-opacity="0.5"
    cx="389.0172962275798"
    cy="298.44662717209707"
    stroke="none"
    r="45.23958770739774"
  >
    <title>`D`.icon</title>
  </circle>
  <g
    transform="rotate(0, 376.3240562275798, 283.1166271720971)translate(376.3240562275798, 283.1166271720971)"
    string="D"
  >
    <title>`D`.text</title>
    <svg
      style="vertical-align: -0.566ex"
      xmlns="http://www.w3.org/2000/svg"
      width="25.38648"
      height="30.66"
      role="img"
      focusable="false"
      viewBox="1.01178 -20.94078 23.608199999999997 23.1483"
    >
      <path
        stroke="none"
        fill="#000000"
        stroke-width="0"
        d="M8.79942-19.25448Q8.79942-19.4691 7.0518-19.53042 6.34662-19.53042 6.132-19.56108T5.91738-19.83702Q5.91738-20.0823 6.04002-20.450219999999998T6.25464-20.91012Q6.31596-20.94078 12.35598-20.94078 17.4762-20.91012 18.0894-20.91012T19.3158-20.72616Q21.52332-20.20494 23.05632-18.30402T24.619979999999998-13.21446Q24.619979999999998-8.4315 21.33936-4.62966T13.61304-0.09198L13.1838-0.03066 7.23576 0H3.8325 2.20752Q1.47168 0 1.25706-0.06132T1.01178-0.33726Q1.01178-0.39858 1.10376-0.7665 1.2264-1.25706 1.34904-1.3183799999999999T2.05422-1.41036Q2.88204-1.41036 3.89382-1.50234 4.32306-1.59432 4.47636-1.87026 4.56834-1.9929 6.68388-10.39374T8.79942-19.25448ZM21.55398-14.37954Q21.55398-15.54462 21.21672-16.46442T20.41956-17.90544 19.28514-18.79458 18.0894-19.28514 17.0163-19.49976Q16.95498-19.49976 16.58706-19.49976T15.69792-19.49976 14.68614-19.53042H13.36776Q12.01872-19.53042 11.83476-19.22382 11.77344-19.10118 9.59658-10.39374T7.41972-1.59432Q7.41972-1.47168 7.7569799999999995-1.47168T10.1178-1.44102Q10.2711-1.44102 10.70034-1.44102T11.43618-1.41036Q15.299339999999999-1.41036 17.81346-3.92448 18.91722-5.02824 19.6224-6.49992T20.94078-10.39374 21.55398-14.37954Z"
        fill-opacity="1"
      ></path>
    </svg>
  </g>
  <circle
    fill="#c6525e"
    fill-opacity="0.5"
    cx="216.547171493811"
    cy="260.12871070910126"
    stroke="none"
    r="35.01155086026994"
  >
    <title>`E`.icon</title>
  </circle>
  <g
    transform="rotate(0, 204.835051493811, 244.79871070910124)translate(204.835051493811, 244.79871070910124)"
    string="E"
  >
    <title>`E`.text</title>
    <svg
      style="vertical-align: -0.566ex"
      xmlns="http://www.w3.org/2000/svg"
      width="23.42424"
      height="30.66"
      role="img"
      focusable="false"
      viewBox="0.95046 -20.8488 22.47378 20.8488"
    >
      <path
        stroke="none"
        fill="#000000"
        stroke-width="0"
        d="M15.084719999999999-6.53058Q14.47152-6.53058 14.47152-6.9291599999999995 14.47152-7.0518 14.62482-7.665T14.77812-8.7381Q14.77812-9.68856 14.13426-9.90318T11.16024-10.1178H9.56592Q9.53526-10.05648 8.49282-5.88672T7.45038-1.59432Q7.45038-1.47168 7.78764-1.47168T10.24044-1.41036Q13.12248-1.41036 14.04228-1.47168T15.88188-1.87026Q17.38422-2.36082 18.36534-3.58722T20.5422-7.60368Q20.8488-8.2782 20.94078-8.33952 21.1554-8.40084 21.40068-8.40084 22.01388-8.40084 22.01388-8.00226 18.79458-0.21462 18.64128-0.06132 18.5493 0 9.87252 0H4.07778Q0.95046 0 0.95046-0.33726 0.95046-0.39858 1.04244-0.7665 1.16508-1.25706 1.28772-1.3183799999999999T1.9929-1.41036Q2.82072-1.41036 3.8325-1.50234 4.26174-1.59432 4.41504-1.87026 4.47636-2.02356 6.5919-10.48572T8.7381-19.07052Q8.7381-19.28514 8.61546-19.28514 8.37018-19.37712 6.99048-19.43844H6.04002Q5.85606-19.6224 5.85606-19.68372T5.91738-20.20494Q6.04002-20.72616 6.22398-20.8488H23.20962Q23.42424-20.72616 23.42424-20.51154 23.42424-20.35824 23.02566-17.07762T22.59642-13.70502Q22.5351-13.4904 21.98322-13.4904H21.6153Q21.40068-13.643699999999999 21.40068-13.88898L21.49266-14.59416Q21.58464-15.33 21.58464-16.18848 21.58464-17.10828 21.37002-17.72148T20.78748-18.67194 19.71438-19.1625 18.27336-19.37712 16.31112-19.43844H14.8701Q12.17202-19.40778 12.01872-19.34646 11.89608-19.28514 11.83476-19.07052 11.8041-18.97854 10.8843-15.299339999999999T9.93384-11.55882Q10.63902-11.52816 11.40552-11.52816H12.202679999999999Q14.22624-11.52816 14.99274-11.988059999999999T16.37244-14.47152Q16.49508-14.96208 16.5564-15.0234T17.07762-15.11538Q17.23092-15.11538 17.3229-15.11538T17.4762-15.084719999999999 17.53752-15.05406 17.59884-14.93142 17.69082-14.80878L16.67904-10.76166Q15.66726-6.68388 15.57528-6.62256 15.4833-6.53058 15.084719999999999-6.53058Z"
        fill-opacity="1"
      ></path>
    </svg>
  </g>
  <g
    transform="rotate(0, 451.10150149564066, 300.633994075796)translate(451.10150149564066, 300.633994075796)"
    string="A"
  >
    <title>`A`.text</title>
    <svg
      style="vertical-align: -0.566ex"
      xmlns="http://www.w3.org/2000/svg"
      width="22.995"
      height="30.66"
      role="img"
      focusable="false"
      viewBox="1.0731 -21.95256 21.18606 39.49008"
    >
      <path
        stroke="none"
        fill="#000000"
        stroke-width="0"
        d="M6.37728-2.26884Q6.37728-1.533 7.78764-1.41036 8.33952-1.41036 8.33952-1.0731 8.33952-1.04244 8.2782-0.67452 8.18622-0.24528 8.09424-0.12264T7.69566 0Q7.63434 0 7.32774 0T6.2853-0.03066 4.32306-0.06132Q2.1462-0.06132 1.533 0H1.28772Q1.0731-0.21462 1.0731-0.33726 1.13442-1.16508 1.47168-1.41036H1.90092Q4.04712-1.50234 5.02824-2.94336 5.2122-3.12732 10.5777-12.29466T16.03518-21.58464Q16.2498-21.95256 16.77102-21.95256H17.0163 17.53752Q17.72148-21.67662 17.72148-21.64596L18.57996-11.74278Q19.43844-1.8396 19.49976-1.74762 19.65306-1.41036 21.49266-1.41036 22.25916-1.41036 22.25916-1.10376 22.25916-1.04244 22.16718-0.67452 22.0752-0.21462 22.01388-0.12264T21.58464 0Q21.49266 0 21.1554 0T19.95966-0.03066 17.72148-0.06132Q14.83944-0.06132 13.9503 0H13.58238Q13.39842-0.18396 13.39842-0.27594T13.45974-0.82782Q13.58238-1.2264 13.643699999999999-1.3183799999999999L13.76634-1.41036H14.37954Q16.03518-1.50234 16.34178-1.93158L15.97386-6.53058H8.676779999999999L7.63434-4.7523Q6.37728-2.6367599999999998 6.37728-2.26884ZM15.82056-7.9716Q15.82056-8.30886 15.45264-12.75456T15.0234-17.23092L14.19558-15.91254Q13.70502-15.084719999999999 12.264-12.63192L9.5046-7.9716 12.66258-7.94094Q15.82056-7.94094 15.82056-7.9716Z"
        fill-opacity="1"
      ></path>
    </svg>
  </g>
  <circle
    fill="#6b7348"
    fill-opacity="0.5"
    cx="381.2286003400352"
    cy="541.2905109193177"
    stroke="none"
    r="31.362872925924457"
  >
    <title>`G`.icon</title>
  </circle>
  <g
    transform="rotate(0, 369.1792203400352, 525.9605109193177)translate(369.1792203400352, 525.9605109193177)"
    string="G"
  >
    <title>`G`.text</title>
    <svg
      style="vertical-align: -0.566ex"
      xmlns="http://www.w3.org/2000/svg"
      width="24.09876"
      height="30.66"
      role="img"
      focusable="false"
      viewBox="1.533 -21.6153 21.7686 22.289820000000002"
    >
      <path
        stroke="none"
        fill="#000000"
        stroke-width="0"
        d="M1.533-7.72632Q1.533-11.25222 3.58722-14.50218T8.76876-19.65306 15.0234-21.58464Q17.782799999999998-21.58464 19.40778-20.02098 19.68372-19.71438 19.86768-19.49976T20.11296-19.19316L20.14362-19.10118Q20.2356-19.10118 20.97144-19.89834 21.18606-20.0823 21.43134-20.32758T21.9219-20.81814 22.2285-21.1554L22.6884-21.6153H22.87236Q23.3016-21.6153 23.3016-21.40068 23.3016-21.27804 22.32048-17.20026 21.21672-12.93852 21.21672-12.90786 21.1554-12.75456 21.06342-12.7239T20.51154-12.66258H20.02098Q19.83702-12.84654 19.83702-12.93852 19.83702-12.96918 19.86768-13.15314T19.929-13.76634 19.95966-14.74746Q19.95966-16.92432 18.97854-18.5493T15.6366-20.20494Q15.084719999999999-20.20494 14.44086-20.11296T12.81588-19.71438 10.94562-18.8559 9.01404-17.38422 7.23576-15.20736 5.79474-12.08004 4.84428-7.9716Q4.78296-7.41972 4.78296-6.77586 4.78296-5.30418 5.2122-4.16976T6.31596-2.42214 7.84896-1.3797 9.44328-0.85848 10.82298-0.73584Q12.47862-0.73584 13.858319999999999-1.44102T15.75924-3.24996Q15.85122-3.49524 16.21914-4.93626T16.58706-6.56124Q16.58706-6.80652 16.18848-6.86784T14.34888-6.95982H13.21446Q13.0305-7.14378 13.0305-7.2051T13.09182-7.78764Q13.21446-8.18622 13.39842-8.37018H13.91964Q15.14604-8.30886 18.21204-8.30886 19.43844-8.30886 20.20494-8.30886T21.308699999999998-8.33952 21.67662-8.33952Q22.10586-8.33952 22.10586-8.06358 22.10586-8.00226 22.04454-7.63434 21.89124-7.0518 21.73794-6.99048 21.64596-6.95982 21.27804-6.95982 20.664839999999998-6.95982 20.02098-6.86784 19.80636-6.77586 19.71438-6.5919T19.28514-5.02824Q19.0092-4.01646 18.82524-3.31128 18.05874-0.18396 17.96676-0.09198 17.90544-0.03066 17.81346-0.03066 17.50686-0.03066 16.95498-0.64386T16.2498-1.59432Q16.2498-1.62498 16.18848-1.59432T16.00452-1.44102Q13.73568 0.67452 9.87252 0.67452 6.16266 0.67452 3.86316-1.6863T1.533-7.72632Z"
        fill-opacity="1"
      ></path>
    </svg>
  </g>
</svg>
