<svg version="1.2" xmlns="http://www.w3.org/2000/svg" viewBox="0 0 800 700">
  <g
    transform="rotate(0, 115.26887832098708, 0.07260239353604447)translate(115.26887832098708, 0.07260239353604447)"
  >
    <svg
      xmlns="http://www.w3.org/2000/svg"
      xmlns:xlink="http://www.w3.org/1999/xlink"
      viewBox="0 0 874.58 820.84"
      width="611.0863316732061"
      height="630.9821657276826"
    >
      <defs>
        <linearGradient
          id="linear-gradient"
          x1="214.17"
          y1="30.72"
          x2="996.08"
          y2="1361.33"
          gradientUnits="userSpaceOnUse"
        >
          <stop offset="0.14" stop-color="#dbdbdb" stop-opacity="0"></stop>
          <stop offset="0.88"></stop>
        </linearGradient>
      </defs>
      <title>shadow</title>
      <g id="Layer_2" data-name="Layer 2">
        <g id="Layer_1-2" data-name="Layer 1">
          <ellipse
            cx="437.29"
            cy="410.42"
            rx="437.29"
            ry="410.42"
            opacity="0.3"
            fill="url(#linear-gradient)"
          ></ellipse>
        </g>
      </g>
    </svg>
  </g>
  <g
    transform="rotate(0, 119.53227133266063, 2.3464119997619832)translate(119.53227133266063, 2.3464119997619832)"
  >
    <svg
      xmlns="http://www.w3.org/2000/svg"
      xmlns:xlink="http://www.w3.org/1999/xlink"
      viewBox="0 0 829.57 829.57"
      width="568.4524015564708"
      height="568.4524015564708"
    >
      <defs>
        <radialGradient
          id="radial-gradient"
          cx="388.77"
          cy="378.93"
          fx="227.19844299493337"
          fy="199.3018850052363"
          r="571.68"
          gradientUnits="userSpaceOnUse"
        >
          <stop offset="0.14" stop-color="#dbdbdb"></stop>
          <stop offset="0.29" stop-color="#bdbdbd"></stop>
          <stop offset="0.6" stop-color="#707070"></stop>
          <stop offset="0.72" stop-color="#525252"></stop>
          <stop offset="0.76" stop-color="#656565"></stop>
          <stop offset="0.84" stop-color="#959595"></stop>
          <stop offset="0.96" stop-color="#e2e2e2"></stop>
          <stop offset="1" stop-color="#fff"></stop>
        </radialGradient>
      </defs>
      <title>shading</title>
      <g id="Layer_2" data-name="Layer 2">
        <g id="Layer_1-2" data-name="Layer 1">
          <circle
            cx="414.78"
            cy="414.78"
            r="414.78"
            fill="url(#radial-gradient)"
          ></circle>
        </g>
      </g>
    </svg>
  </g>
  <circle
    fill="#cac87e"
    fill-opacity="0.5"
    cx="403.75847211089604"
    cy="286.5726127779974"
    stroke="none"
    r="284.2262007782354"
  >
    <title>`A`.shape</title>
  </circle>
  <g
    transform="rotate(0, 469.91584457453143, 273.9790768369255)translate(469.91584457453143, 273.9790768369255)"
  >
    <svg
      xmlns="http://www.w3.org/2000/svg"
      xmlns:xlink="http://www.w3.org/1999/xlink"
      viewBox="0 0 874.58 820.84"
      width="205.70785358771084"
      height="212.405318588241"
    >
      <defs>
        <linearGradient
          id="linear-gradient"
          x1="214.17"
          y1="30.72"
          x2="996.08"
          y2="1361.33"
          gradientUnits="userSpaceOnUse"
        >
          <stop offset="0.14" stop-color="#dbdbdb" stop-opacity="0"></stop>
          <stop offset="0.88"></stop>
        </linearGradient>
      </defs>
      <title>shadow</title>
      <g id="Layer_2" data-name="Layer 2">
        <g id="Layer_1-2" data-name="Layer 1">
          <ellipse
            cx="437.29"
            cy="410.42"
            rx="437.29"
            ry="410.42"
            opacity="0.3"
            fill="url(#linear-gradient)"
          ></ellipse>
        </g>
      </g>
    </svg>
  </g>
  <g
    transform="rotate(0, 471.3510156460736, 274.7445014084147)translate(471.3510156460736, 274.7445014084147)"
  >
    <svg
      xmlns="http://www.w3.org/2000/svg"
      xmlns:xlink="http://www.w3.org/1999/xlink"
      viewBox="0 0 829.57 829.57"
      width="191.35614287228915"
      height="191.35614287228915"
    >
      <defs>
        <radialGradient
          id="radial-gradient"
          cx="388.77"
          cy="378.93"
          fx="227.19844299493337"
          fy="199.3018850052363"
          r="571.68"
          gradientUnits="userSpaceOnUse"
        >
          <stop offset="0.14" stop-color="#dbdbdb"></stop>
          <stop offset="0.29" stop-color="#bdbdbd"></stop>
          <stop offset="0.6" stop-color="#707070"></stop>
          <stop offset="0.72" stop-color="#525252"></stop>
          <stop offset="0.76" stop-color="#656565"></stop>
          <stop offset="0.84" stop-color="#959595"></stop>
          <stop offset="0.96" stop-color="#e2e2e2"></stop>
          <stop offset="1" stop-color="#fff"></stop>
        </radialGradient>
      </defs>
      <title>shading</title>
      <g id="Layer_2" data-name="Layer 2">
        <g id="Layer_1-2" data-name="Layer 1">
          <circle
            cx="414.78"
            cy="414.78"
            r="414.78"
            fill="url(#radial-gradient)"
          ></circle>
        </g>
      </g>
    </svg>
  </g>
  <g
    transform="rotate(0, 346.9167313506632, 229.725639079393)translate(346.9167313506632, 229.725639079393)"
    string="A"
  >
    <title>`A`.text</title>
    <svg
      xmlns="http://www.w3.org/2000/svg"
      width="113.69048031129417"
      height="113.69048031129417"
      role="img"
      focusable="false"
      viewBox="0.6181 -12.644559999999998 12.203059999999999 12.644559999999998"
    >
      <path
        stroke="none"
        fill="#ffffff"
        stroke-width="0"
        d="M3.6732799999999997-1.30684Q3.6732799999999997-0.8829999999999999 4.48564-0.81236 4.80352-0.81236 4.80352-0.6181 4.80352-0.60044 4.768199999999999-0.38852 4.7152199999999995-0.14128 4.66224-0.07064T4.432659999999999 0Q4.39734 0 4.220739999999999 0T3.6203-0.01766 2.4900599999999997-0.03532Q1.2362-0.03532 0.8829999999999999 0H0.7417199999999999Q0.6181-0.12362 0.6181-0.19426 0.65342-0.6710799999999999 0.84768-0.81236H1.09492Q2.33112-0.8653399999999999 2.8962399999999997-1.69536 3.0021999999999998-1.8013199999999998 6.0927-7.081659999999999T9.23618-12.43264Q9.3598-12.644559999999998 9.66002-12.644559999999998H9.8013 10.101519999999999Q10.207479999999999-12.485619999999999 10.207479999999999-12.46796L10.70196-6.76378Q11.196439999999999-1.0595999999999999 11.23176-1.0066199999999998 11.32006-0.81236 12.37966-0.81236 12.821159999999999-0.81236 12.821159999999999-0.63576 12.821159999999999-0.60044 12.76818-0.38852 12.7152-0.12362 12.679879999999999-0.07064T12.43264 0Q12.37966 0 12.1854 0T11.496659999999999-0.01766 10.207479999999999-0.03532Q8.54744-0.03532 8.0353 0H7.823379999999999Q7.71742-0.10596 7.71742-0.15894T7.752739999999999-0.47681999999999997Q7.823379999999999-0.7063999999999999 7.8587-0.7593799999999999L7.929339999999999-0.81236H8.28254Q9.23618-0.8653399999999999 9.41278-1.11258L9.200859999999999-3.76158H4.99778L4.39734-2.7373Q3.6732799999999997-1.5187599999999999 3.6732799999999997-1.30684ZM9.112559999999998-4.5916Q9.112559999999998-4.78586 8.90064-7.346559999999999T8.6534-9.924919999999998L8.17658-9.16554Q7.894019999999999-8.68872 7.063999999999999-7.275919999999999L5.4746-4.5916 7.2935799999999995-4.5739399999999995Q9.112559999999998-4.5739399999999995 9.112559999999998-4.5916Z"
        fill-opacity="1"
      ></path>
    </svg>
  </g>
  <circle
    fill="#4951bb"
    fill-opacity="0.5"
    cx="567.0290870822182"
    cy="370.4225728445593"
    stroke="none"
    r="95.67807143614458"
  >
    <title>`C`.shape</title>
  </circle>
  <g
    transform="rotate(0, 479.74646514794796, 340.80085621674857)translate(479.74646514794796, 340.80085621674857)"
  >
    <svg
      xmlns="http://www.w3.org/2000/svg"
      xmlns:xlink="http://www.w3.org/1999/xlink"
      viewBox="0 0 874.58 820.84"
      width="48.698794029470804"
      height="50.28433616066289"
    >
      <defs>
        <linearGradient
          id="linear-gradient"
          x1="214.17"
          y1="30.72"
          x2="996.08"
          y2="1361.33"
          gradientUnits="userSpaceOnUse"
        >
          <stop offset="0.14" stop-color="#dbdbdb" stop-opacity="0"></stop>
          <stop offset="0.88"></stop>
        </linearGradient>
      </defs>
      <title>shadow</title>
      <g id="Layer_2" data-name="Layer 2">
        <g id="Layer_1-2" data-name="Layer 1">
          <ellipse
            cx="437.29"
            cy="410.42"
            rx="437.29"
            ry="410.42"
            opacity="0.3"
            fill="url(#linear-gradient)"
          ></ellipse>
        </g>
      </g>
    </svg>
  </g>
  <g
    transform="rotate(0, 480.08622417606057, 340.9820610317419)translate(480.08622417606057, 340.9820610317419)"
  >
    <svg
      xmlns="http://www.w3.org/2000/svg"
      xmlns:xlink="http://www.w3.org/1999/xlink"
      viewBox="0 0 829.57 829.57"
      width="45.30120374834494"
      height="45.30120374834494"
    >
      <defs>
        <radialGradient
          id="radial-gradient"
          cx="388.77"
          cy="378.93"
          fx="227.19844299493337"
          fy="199.3018850052363"
          r="571.68"
          gradientUnits="userSpaceOnUse"
        >
          <stop offset="0.14" stop-color="#dbdbdb"></stop>
          <stop offset="0.29" stop-color="#bdbdbd"></stop>
          <stop offset="0.6" stop-color="#707070"></stop>
          <stop offset="0.72" stop-color="#525252"></stop>
          <stop offset="0.76" stop-color="#656565"></stop>
          <stop offset="0.84" stop-color="#959595"></stop>
          <stop offset="0.96" stop-color="#e2e2e2"></stop>
          <stop offset="1" stop-color="#fff"></stop>
        </radialGradient>
      </defs>
      <title>shading</title>
      <g id="Layer_2" data-name="Layer 2">
        <g id="Layer_1-2" data-name="Layer 1">
          <circle
            cx="414.78"
            cy="414.78"
            r="414.78"
            fill="url(#radial-gradient)"
          ></circle>
        </g>
      </g>
    </svg>
  </g>
  <g
    transform="rotate(0, 547.8931088757449, 351.28708502234394)translate(547.8931088757449, 351.28708502234394)"
    string="C"
  >
    <title>`C`.text</title>
    <svg
      xmlns="http://www.w3.org/2000/svg"
      width="38.27122857445783"
      height="38.27122857445783"
      role="img"
      focusable="false"
      viewBox="0.8829999999999999 -12.450299999999999 12.5386 12.838819999999998"
    >
      <path
        stroke="none"
        fill="#ffffff"
        stroke-width="0"
        d="M0.8829999999999999-4.45032Q0.8829999999999999-6.4812199999999995 2.06622-8.35318T5.0507599999999995-11.32006 8.6534-12.43264Q10.242799999999999-12.43264 11.17878-11.531979999999999 11.33772-11.355379999999998 11.443679999999999-11.23176T11.584959999999999-11.055159999999999L11.60262-11.00218Q11.6556-11.00218 12.079439999999998-11.46134 12.203059999999999-11.5673 12.344339999999999-11.70858T12.6269-11.99114 12.8035-12.1854L13.068399999999999-12.450299999999999H13.174359999999998Q13.4216-12.450299999999999 13.4216-12.32668 13.4216-12.256039999999999 12.85648-9.907259999999999 12.220719999999998-7.45252 12.220719999999998-7.43486 12.1854-7.346559999999999 12.13242-7.328899999999999T11.81454-7.2935799999999995H11.531979999999999Q11.42602-7.399539999999999 11.42602-7.45252 11.42602-7.470179999999999 11.443679999999999-7.57614T11.479-7.929339999999999 11.496659999999999-8.49446Q11.496659999999999-9.74832 10.931539999999998-10.684299999999999T9.006599999999999-11.637939999999999Q8.54744-11.637939999999999 8.01764-11.51432T6.7461199999999995-11.09048 5.28034-10.101519999999999 3.99116-8.45914Q3.4260399999999995-7.45252 3.0904999999999996-6.110359999999999T2.7549599999999996-3.92052Q2.7549599999999996-1.9072799999999999 4.097119999999999-1.0242799999999999 4.9448-0.42384 6.180999999999999-0.42384 7.78806-0.42384 9.04192-1.62472T10.70196-4.2383999999999995Q10.772599999999999-4.46798 10.80792-4.503299999999999T11.09048-4.53862Q11.443679999999999-4.53862 11.443679999999999-4.37968 11.443679999999999-4.291379999999999 11.42602-4.220739999999999 10.913879999999999-2.33112 9.23618-0.9712999999999999T5.63354 0.38852Q3.6379599999999996 0.38852 2.26048-0.9359799999999999T0.8829999999999999-4.45032Z"
        fill-opacity="1"
      ></path>
    </svg>
  </g>
  <circle
    fill="#a85f3b"
    fill-opacity="0.5"
    cx="502.73682605023305"
    cy="363.6326629059144"
    stroke="none"
    r="22.65060187417247"
  >
    <title>`F`.shape</title>
  </circle>
  <g
    transform="rotate(0, 498.2049994881881, 359.1046175394679)translate(498.2049994881881, 359.1046175394679)"
    string="F"
  >
    <title>`F`.text</title>
    <svg
      xmlns="http://www.w3.org/2000/svg"
      width="9.060240749668989"
      height="9.060240749668989"
      role="img"
      focusable="false"
      viewBox="0.54746 -12.008799999999999 12.679879999999999 12.008799999999999"
    >
      <path
        stroke="none"
        fill="#ffffff"
        stroke-width="0"
        d="M0.84768-0.01766Q0.54746-0.01766 0.54746-0.19426 0.54746-0.22957999999999998 0.60044-0.44149999999999995 0.6710799999999999-0.7240599999999999 0.7417199999999999-0.7593799999999999T1.1479-0.81236Q1.62472-0.81236 2.2075-0.8653399999999999 2.4547399999999997-0.9183199999999999 2.54304-1.0772599999999999 2.57836-1.16556 3.7968999999999995-6.039719999999999T5.033099999999999-10.98452Q5.033099999999999-11.108139999999999 4.962459999999999-11.108139999999999 4.82118-11.161119999999999 4.026479999999999-11.196439999999999H3.47902Q3.3730599999999997-11.302399999999999 3.3730599999999997-11.33772T3.4083799999999997-11.637939999999999Q3.47902-11.93816 3.58498-12.008799999999999H13.10372Q13.227339999999998-11.93816 13.227339999999998-11.81454 13.227339999999998-11.726239999999999 12.99776-9.83662T12.75052-7.894019999999999Q12.7152-7.7703999999999995 12.397319999999999-7.7703999999999995H12.1854Q12.061779999999999-7.8587 12.061779999999999-7.999979999999999 12.061779999999999-8.01764 12.114759999999999-8.42382T12.167739999999998-9.3598Q12.167739999999998-9.8896 12.04412-10.22514T11.70858-10.772599999999999 11.055159999999999-11.055159999999999 10.154499999999999-11.17878 8.88298-11.196439999999999H8.476799999999999Q7.02868-11.17878 6.940379999999999-11.14346 6.852079999999999-11.108139999999999 6.8167599999999995-11.00218 6.799099999999999-10.98452 6.21632-8.68872L5.651199999999999-6.4105799999999995H6.6225Q6.675479999999999-6.4105799999999995 7.02868-6.4105799999999995T7.52316-6.42824 7.91168-6.4812199999999995 8.335519999999999-6.604839999999999 8.63574-6.8167599999999995Q8.865319999999999-7.02868 9.02426-7.399539999999999T9.253839999999999-8.07062 9.342139999999999-8.388499999999999Q9.395119999999999-8.476799999999999 9.677679999999999-8.476799999999999H9.8896Q10.013219999999999-8.388499999999999 10.013219999999999-8.300199999999998 10.013219999999999-8.247219999999999 9.46576-5.986739999999999T8.865319999999999-3.65562Q8.83-3.5319999999999996 8.51212-3.5319999999999996H8.300199999999998Q8.17658-3.6379599999999996 8.17658-3.7439199999999997 8.17658-3.7968999999999995 8.26488-4.13244T8.35318-4.838839999999999Q8.35318-5.35098 7.999979999999999-5.4746T6.42824-5.5982199999999995H5.4569399999999995L4.89182-3.3554Q4.3267-1.16556 4.3267-1.0595999999999999 4.3267-0.81236 5.89844-0.81236H6.3399399999999995Q6.445899999999999-0.7063999999999999 6.445899999999999-0.6887399999999999T6.4105799999999995-0.33553999999999995Q6.3399399999999995-0.10596 6.23398 0H5.9337599999999995Q5.2097-0.03532 3.2670999999999997-0.03532 2.1191999999999998-0.03532 1.5187599999999999-0.03532T0.84768-0.01766Z"
        fill-opacity="1"
      ></path>
    </svg>
  </g>
  <g
    transform="rotate(0, 236.1920764510915, 347.8529031470949)translate(236.1920764510915, 347.8529031470949)"
  >
    <svg
      xmlns="http://www.w3.org/2000/svg"
      xmlns:xlink="http://www.w3.org/1999/xlink"
      viewBox="0 0 874.58 820.84"
      width="220.66117396195366"
      height="227.84549125373823"
    >
      <defs>
        <linearGradient
          id="linear-gradient"
          x1="214.17"
          y1="30.72"
          x2="996.08"
          y2="1361.33"
          gradientUnits="userSpaceOnUse"
        >
          <stop offset="0.14" stop-color="#dbdbdb" stop-opacity="0"></stop>
          <stop offset="0.88"></stop>
        </linearGradient>
      </defs>
      <title>shadow</title>
      <g id="Layer_2" data-name="Layer 2">
        <g id="Layer_1-2" data-name="Layer 1">
          <ellipse
            cx="437.29"
            cy="410.42"
            rx="437.29"
            ry="410.42"
            opacity="0.3"
            fill="url(#linear-gradient)"
          ></ellipse>
        </g>
      </g>
    </svg>
  </g>
  <g
    transform="rotate(0, 237.73157301361675, 348.6739679804417)translate(237.73157301361675, 348.6739679804417)"
  >
    <svg
      xmlns="http://www.w3.org/2000/svg"
      xmlns:xlink="http://www.w3.org/1999/xlink"
      viewBox="0 0 829.57 829.57"
      width="205.26620833670108"
      height="205.26620833670108"
    >
      <defs>
        <radialGradient
          id="radial-gradient"
          cx="388.77"
          cy="378.93"
          fx="227.19844299493337"
          fy="199.3018850052363"
          r="571.68"
          gradientUnits="userSpaceOnUse"
        >
          <stop offset="0.14" stop-color="#dbdbdb"></stop>
          <stop offset="0.29" stop-color="#bdbdbd"></stop>
          <stop offset="0.6" stop-color="#707070"></stop>
          <stop offset="0.72" stop-color="#525252"></stop>
          <stop offset="0.76" stop-color="#656565"></stop>
          <stop offset="0.84" stop-color="#959595"></stop>
          <stop offset="0.96" stop-color="#e2e2e2"></stop>
          <stop offset="1" stop-color="#fff"></stop>
        </radialGradient>
      </defs>
      <title>shading</title>
      <g id="Layer_2" data-name="Layer 2">
        <g id="Layer_1-2" data-name="Layer 1">
          <circle
            cx="414.78"
            cy="414.78"
            r="414.78"
            fill="url(#radial-gradient)"
          ></circle>
        </g>
      </g>
    </svg>
  </g>
  <circle
    fill="#ce62d8"
    fill-opacity="0.5"
    cx="340.3646771819673"
    cy="451.30707214879226"
    stroke="none"
    r="102.63310416835054"
  >
    <title>`B`.shape</title>
  </circle>
  <g
    transform="rotate(0, 319.83603148264854, 430.7835746333817)translate(319.83603148264854, 430.7835746333817)"
    string="B"
  >
    <title>`B`.text</title>
    <svg
      xmlns="http://www.w3.org/2000/svg"
      width="41.05324166734022"
      height="41.05324166734022"
      role="img"
      focusable="false"
      viewBox="0.6181 -12.061779999999999 12.732859999999999 12.061779999999999"
    >
      <path
        stroke="none"
        fill="#ffffff"
        stroke-width="0"
        d="M4.07946-11.249419999999999Q3.6026399999999996-11.249419999999999 3.51434-11.26708T3.4260399999999995-11.46134Q3.4260399999999995-11.93816 3.6203-12.04412 3.6379599999999996-12.061779999999999 5.916099999999999-12.061779999999999 10.490039999999999-12.061779999999999 10.737279999999998-12.026459999999998 11.84986-11.84986 12.591579999999999-11.23176T13.350959999999999-9.60704Q13.350959999999999-8.476799999999999 12.32668-7.57614T9.9779-6.3576L9.8013-6.30462Q10.931539999999998-6.14568 11.6556-5.49226T12.397319999999999-3.8675399999999995Q12.397319999999999-2.57836 11.1258-1.3774799999999998T7.999979999999999-0.01766Q7.876359999999999 0 4.27372 0 0.7417199999999999 0 0.6887399999999999-0.03532 0.6181-0.08829999999999999 0.6181-0.17659999999999998 0.6181-0.30022 0.65342-0.42384 0.7417199999999999-0.7593799999999999 0.83002-0.7947 0.9006599999999999-0.81236 1.09492-0.81236H1.20088Q1.6777-0.81236 2.26048-0.8653399999999999 2.50772-0.9183199999999999 2.5960199999999998-1.0772599999999999 2.6489999999999996-1.1479 3.8675399999999995-5.986739999999999T5.08608-11.09048Q5.08608-11.214099999999998 4.07946-11.249419999999999ZM11.46134-9.60704Q11.46134-10.13684 11.196439999999999-10.595999999999998T10.3311-11.196439999999999Q10.207479999999999-11.23176 8.70638-11.249419999999999 8.35318-11.249419999999999 7.964659999999999-11.249419999999999T7.346559999999999-11.23176H7.11698Q6.852079999999999-11.214099999999998 6.78144-11.055159999999999 6.7461199999999995-10.98452 6.21632-8.93596 6.21632-8.88298 6.198659999999999-8.83L5.651199999999999-6.604839999999999H7.081659999999999Q8.51212-6.604839999999999 8.724039999999999-6.64016 9.78364-6.8167599999999995 10.61366-7.664439999999999T11.46134-9.60704ZM10.5077-4.04414Q10.5077-4.82118 10.101519999999999-5.33332T9.04192-5.9337599999999995Q8.93596-5.95142 7.57614-5.95142 5.49226-5.95142 5.4746-5.9337599999999995 5.4746-5.89844 5.174379999999999-4.6445799999999995T4.556279999999999-2.1545199999999998L4.2383999999999995-0.9183199999999999Q4.2383999999999995-0.84768 4.45032-0.84768T5.88078-0.81236Q7.45252-0.81236 7.57614-0.83002 8.671059999999999-0.9536399999999999 9.589379999999998-1.8542999999999998T10.5077-4.04414Z"
        fill-opacity="1"
      ></path>
    </svg>
  </g>
  <g
    transform="rotate(0, 355.4712676181145, 367.59017175205366)translate(355.4712676181145, 367.59017175205366)"
  >
    <svg
      xmlns="http://www.w3.org/2000/svg"
      xmlns:xlink="http://www.w3.org/1999/xlink"
      viewBox="0 0 874.58 820.84"
      width="57.79892011749958"
      height="59.680745423650734"
    >
      <defs>
        <linearGradient
          id="linear-gradient"
          x1="214.17"
          y1="30.72"
          x2="996.08"
          y2="1361.33"
          gradientUnits="userSpaceOnUse"
        >
          <stop offset="0.14" stop-color="#dbdbdb" stop-opacity="0"></stop>
          <stop offset="0.88"></stop>
        </linearGradient>
      </defs>
      <title>shadow</title>
      <g id="Layer_2" data-name="Layer 2">
        <g id="Layer_1-2" data-name="Layer 1">
          <ellipse
            cx="437.29"
            cy="410.42"
            rx="437.29"
            ry="410.42"
            opacity="0.3"
            fill="url(#linear-gradient)"
          ></ellipse>
        </g>
      </g>
    </svg>
  </g>
  <g
    transform="rotate(0, 355.874515898004, 367.80523750132807)translate(355.874515898004, 367.80523750132807)"
  >
    <svg
      xmlns="http://www.w3.org/2000/svg"
      xmlns:xlink="http://www.w3.org/1999/xlink"
      viewBox="0 0 829.57 829.57"
      width="53.76643731860426"
      height="53.76643731860426"
    >
      <defs>
        <radialGradient
          id="radial-gradient"
          cx="388.77"
          cy="378.93"
          fx="227.19844299493337"
          fy="199.3018850052363"
          r="571.68"
          gradientUnits="userSpaceOnUse"
        >
          <stop offset="0.14" stop-color="#dbdbdb"></stop>
          <stop offset="0.29" stop-color="#bdbdbd"></stop>
          <stop offset="0.6" stop-color="#707070"></stop>
          <stop offset="0.72" stop-color="#525252"></stop>
          <stop offset="0.76" stop-color="#656565"></stop>
          <stop offset="0.84" stop-color="#959595"></stop>
          <stop offset="0.96" stop-color="#e2e2e2"></stop>
          <stop offset="1" stop-color="#fff"></stop>
        </radialGradient>
      </defs>
      <title>shading</title>
      <g id="Layer_2" data-name="Layer 2">
        <g id="Layer_1-2" data-name="Layer 1">
          <circle
            cx="414.78"
            cy="414.78"
            r="414.78"
            fill="url(#radial-gradient)"
          ></circle>
        </g>
      </g>
    </svg>
  </g>
  <circle
    fill="#60a543"
    fill-opacity="0.5"
    cx="382.75773455730615"
    cy="394.6884561606302"
    stroke="none"
    r="26.88321865930213"
  >
    <title>`D`.shape</title>
  </circle>
  <g
    transform="rotate(0, 377.38429358239654, 389.3106203093302)translate(377.38429358239654, 389.3106203093302)"
    string="D"
  >
    <title>`D`.text</title>
    <svg
      xmlns="http://www.w3.org/2000/svg"
      width="10.753287463720852"
      height="10.753287463720852"
      role="img"
      focusable="false"
      viewBox="0.58278 -12.061779999999999 13.598199999999999 12.061779999999999"
    >
      <path
        stroke="none"
        fill="#ffffff"
        stroke-width="0"
        d="M5.06842-11.09048Q5.06842-11.214099999999998 4.0618-11.249419999999999 3.65562-11.249419999999999 3.5319999999999996-11.26708T3.4083799999999997-11.42602Q3.4083799999999997-11.5673 3.47902-11.779219999999999T3.6026399999999996-12.04412Q3.6379599999999996-12.061779999999999 7.11698-12.061779999999999 10.066199999999998-12.04412 10.4194-12.04412T11.1258-11.93816Q12.397319999999999-11.637939999999999 13.28032-10.543019999999999T14.180979999999998-7.611459999999999Q14.180979999999998-4.8565 12.29136-2.66666T7.84104-0.05298L7.593799999999999-0.01766 4.1677599999999995 0H2.2075 1.27152Q0.84768 0 0.7240599999999999-0.03532T0.58278-0.19426Q0.58278-0.22957999999999998 0.63576-0.44149999999999995 0.7063999999999999-0.7240599999999999 0.77704-0.7593799999999999T1.18322-0.81236Q1.66004-0.81236 2.24282-0.8653399999999999 2.4900599999999997-0.9183199999999999 2.57836-1.0772599999999999 2.63134-1.1479 3.8498799999999997-5.986739999999999T5.06842-11.09048ZM12.41498-8.28254Q12.41498-8.953619999999999 12.220719999999998-9.483419999999999T11.76156-10.31344 11.108139999999999-10.825579999999999 10.4194-11.108139999999999 9.8013-11.23176Q9.765979999999999-11.23176 9.55406-11.23176T9.04192-11.23176 8.45914-11.249419999999999H7.6997599999999995Q6.922719999999999-11.249419999999999 6.8167599999999995-11.072819999999998 6.78144-11.00218 5.5275799999999995-5.986739999999999T4.27372-0.9183199999999999Q4.27372-0.84768 4.46798-0.84768T5.8278-0.83002Q5.916099999999999-0.83002 6.16334-0.83002T6.587179999999999-0.81236Q8.812339999999999-0.81236 10.260459999999998-2.26048 10.89622-2.8962399999999997 11.302399999999999-3.7439199999999997T12.061779999999999-5.986739999999999 12.41498-8.28254Z"
        fill-opacity="1"
      ></path>
    </svg>
  </g>
  <g
    transform="rotate(0, 257.9251221922003, 384.6032899617228)translate(257.9251221922003, 384.6032899617228)"
  >
    <svg
      xmlns="http://www.w3.org/2000/svg"
      xmlns:xlink="http://www.w3.org/1999/xlink"
      viewBox="0 0 874.58 820.84"
      width="43.45427370664855"
      height="44.869064013376644"
    >
      <defs>
        <linearGradient
          id="linear-gradient"
          x1="214.17"
          y1="30.72"
          x2="996.08"
          y2="1361.33"
          gradientUnits="userSpaceOnUse"
        >
          <stop offset="0.14" stop-color="#dbdbdb" stop-opacity="0"></stop>
          <stop offset="0.88"></stop>
        </linearGradient>
      </defs>
      <title>shadow</title>
      <g id="Layer_2" data-name="Layer 2">
        <g id="Layer_1-2" data-name="Layer 1">
          <ellipse
            cx="437.29"
            cy="410.42"
            rx="437.29"
            ry="410.42"
            opacity="0.3"
            fill="url(#linear-gradient)"
          ></ellipse>
        </g>
      </g>
    </svg>
  </g>
  <g
    transform="rotate(0, 258.22829154364206, 384.7649802824917)translate(258.22829154364206, 384.7649802824917)"
  >
    <svg
      xmlns="http://www.w3.org/2000/svg"
      xmlns:xlink="http://www.w3.org/1999/xlink"
      viewBox="0 0 829.57 829.57"
      width="40.42258019223121"
      height="40.42258019223121"
    >
      <defs>
        <radialGradient
          id="radial-gradient"
          cx="388.77"
          cy="378.93"
          fx="227.19844299493337"
          fy="199.3018850052363"
          r="571.68"
          gradientUnits="userSpaceOnUse"
        >
          <stop offset="0.14" stop-color="#dbdbdb"></stop>
          <stop offset="0.29" stop-color="#bdbdbd"></stop>
          <stop offset="0.6" stop-color="#707070"></stop>
          <stop offset="0.72" stop-color="#525252"></stop>
          <stop offset="0.76" stop-color="#656565"></stop>
          <stop offset="0.84" stop-color="#959595"></stop>
          <stop offset="0.96" stop-color="#e2e2e2"></stop>
          <stop offset="1" stop-color="#fff"></stop>
        </radialGradient>
      </defs>
      <title>shading</title>
      <g id="Layer_2" data-name="Layer 2">
        <g id="Layer_1-2" data-name="Layer 1">
          <circle
            cx="414.78"
            cy="414.78"
            r="414.78"
            fill="url(#radial-gradient)"
          ></circle>
        </g>
      </g>
    </svg>
  </g>
  <circle
    fill="#5de47e"
    fill-opacity="0.5"
    cx="278.43958163975765"
    cy="404.9762703786073"
    stroke="none"
    r="20.211290096115604"
  >
    <title>`E`.shape</title>
  </circle>
  <g
    transform="rotate(0, 274.39519075870766, 400.9337149837635)translate(274.39519075870766, 400.9337149837635)"
    string="E"
  >
    <title>`E`.text</title>
    <svg
      xmlns="http://www.w3.org/2000/svg"
      width="8.084516038446242"
      height="8.084516038446242"
      role="img"
      focusable="false"
      viewBox="0.54746 -12.008799999999999 12.94478 12.008799999999999"
    >
      <path
        stroke="none"
        fill="#ffffff"
        stroke-width="0"
        d="M8.68872-3.76158Q8.335519999999999-3.76158 8.335519999999999-3.99116 8.335519999999999-4.0618 8.42382-4.415T8.51212-5.033099999999999Q8.51212-5.580559999999999 8.141259999999999-5.704179999999999T6.42824-5.8278H5.509919999999999Q5.49226-5.792479999999999 4.89182-3.39072T4.291379999999999-0.9183199999999999Q4.291379999999999-0.84768 4.48564-0.84768T5.89844-0.81236Q7.558479999999999-0.81236 8.08828-0.84768T9.147879999999999-1.0772599999999999Q10.013219999999999-1.3598199999999998 10.578339999999999-2.06622T11.832199999999998-4.37968Q12.008799999999999-4.768199999999999 12.061779999999999-4.80352 12.1854-4.838839999999999 12.32668-4.838839999999999 12.679879999999999-4.838839999999999 12.679879999999999-4.60926 10.825579999999999-0.12362 10.737279999999998-0.03532 10.684299999999999 0 5.68652 0H2.3487799999999996Q0.54746 0 0.54746-0.19426 0.54746-0.22957999999999998 0.60044-0.44149999999999995 0.6710799999999999-0.7240599999999999 0.7417199999999999-0.7593799999999999T1.1479-0.81236Q1.62472-0.81236 2.2075-0.8653399999999999 2.4547399999999997-0.9183199999999999 2.54304-1.0772599999999999 2.57836-1.16556 3.7968999999999995-6.039719999999999T5.033099999999999-10.98452Q5.033099999999999-11.108139999999999 4.962459999999999-11.108139999999999 4.82118-11.161119999999999 4.026479999999999-11.196439999999999H3.47902Q3.3730599999999997-11.302399999999999 3.3730599999999997-11.33772T3.4083799999999997-11.637939999999999Q3.47902-11.93816 3.58498-12.008799999999999H13.368619999999998Q13.492239999999999-11.93816 13.492239999999999-11.81454 13.492239999999999-11.726239999999999 13.262659999999999-9.83662T13.015419999999999-7.894019999999999Q12.980099999999998-7.7703999999999995 12.66222-7.7703999999999995H12.450299999999999Q12.32668-7.8587 12.32668-7.999979999999999L12.37966-8.40616Q12.43264-8.83 12.43264-9.32448 12.43264-9.85428 12.309019999999999-10.207479999999999T11.973479999999999-10.75494 11.355379999999998-11.0375 10.52536-11.161119999999999 9.395119999999999-11.196439999999999H8.5651Q7.011019999999999-11.17878 6.922719999999999-11.14346 6.852079999999999-11.108139999999999 6.8167599999999995-10.98452 6.799099999999999-10.931539999999998 6.269299999999999-8.812339999999999T5.721839999999999-6.657819999999999Q6.128019999999999-6.64016 6.56952-6.64016H7.02868Q8.194239999999999-6.64016 8.63574-6.90506T9.430439999999999-8.335519999999999Q9.50108-8.618079999999999 9.536399999999999-8.6534T9.83662-8.70638Q9.924919999999998-8.70638 9.9779-8.70638T10.066199999999998-8.68872 10.101519999999999-8.671059999999999 10.13684-8.60042 10.18982-8.529779999999999L9.60704-6.198659999999999Q9.02426-3.8498799999999997 8.97128-3.8145599999999997 8.918299999999999-3.76158 8.68872-3.76158Z"
        fill-opacity="1"
      ></path>
    </svg>
  </g>
  <g
    transform="rotate(0, 500.9712889626137, 300.621622655908)translate(500.9712889626137, 300.621622655908)"
  >
    <svg
      xmlns="http://www.w3.org/2000/svg"
      xmlns:xlink="http://www.w3.org/1999/xlink"
      viewBox="0 0 874.58 820.84"
      width="46.543714033553705"
      height="48.059090769529874"
    >
      <defs>
        <linearGradient
          id="linear-gradient"
          x1="214.17"
          y1="30.72"
          x2="996.08"
          y2="1361.33"
          gradientUnits="userSpaceOnUse"
        >
          <stop offset="0.14" stop-color="#dbdbdb" stop-opacity="0"></stop>
          <stop offset="0.88"></stop>
        </linearGradient>
      </defs>
      <title>shadow</title>
      <g id="Layer_2" data-name="Layer 2">
        <g id="Layer_1-2" data-name="Layer 1">
          <ellipse
            cx="437.29"
            cy="410.42"
            rx="437.29"
            ry="410.42"
            opacity="0.3"
            fill="url(#linear-gradient)"
          ></ellipse>
        </g>
      </g>
    </svg>
  </g>
  <g
    transform="rotate(0, 501.2960125488943, 300.79480856859107)translate(501.2960125488943, 300.79480856859107)"
  >
    <svg
      xmlns="http://www.w3.org/2000/svg"
      xmlns:xlink="http://www.w3.org/1999/xlink"
      viewBox="0 0 829.57 829.57"
      width="43.29647817074763"
      height="43.29647817074763"
    >
      <defs>
        <radialGradient
          id="radial-gradient"
          cx="388.77"
          cy="378.93"
          fx="227.19844299493337"
          fy="199.3018850052363"
          r="571.68"
          gradientUnits="userSpaceOnUse"
        >
          <stop offset="0.14" stop-color="#dbdbdb"></stop>
          <stop offset="0.29" stop-color="#bdbdbd"></stop>
          <stop offset="0.6" stop-color="#707070"></stop>
          <stop offset="0.72" stop-color="#525252"></stop>
          <stop offset="0.76" stop-color="#656565"></stop>
          <stop offset="0.84" stop-color="#959595"></stop>
          <stop offset="0.96" stop-color="#e2e2e2"></stop>
          <stop offset="1" stop-color="#fff"></stop>
        </radialGradient>
      </defs>
      <title>shading</title>
      <g id="Layer_2" data-name="Layer 2">
        <g id="Layer_1-2" data-name="Layer 1">
          <circle
            cx="414.78"
            cy="414.78"
            r="414.78"
            fill="url(#radial-gradient)"
          ></circle>
        </g>
      </g>
    </svg>
  </g>
  <circle
    fill="#422b9b"
    fill-opacity="0.5"
    cx="522.9442516342681"
    cy="322.44304765396487"
    stroke="none"
    r="21.648239085373817"
  >
    <title>`G`.shape</title>
  </circle>
  <g
    transform="rotate(0, 518.6162370416126, 318.1115616644824)translate(518.6162370416126, 318.1115616644824)"
    string="G"
  >
    <title>`G`.text</title>
    <svg
      xmlns="http://www.w3.org/2000/svg"
      width="8.659295634149528"
      height="8.659295634149528"
      role="img"
      focusable="false"
      viewBox="0.8829999999999999 -12.450299999999999 12.5386 12.838819999999998"
    >
      <path
        stroke="none"
        fill="#ffffff"
        stroke-width="0"
        d="M0.8829999999999999-4.45032Q0.8829999999999999-6.4812199999999995 2.06622-8.35318T5.0507599999999995-11.32006 8.6534-12.43264Q10.242799999999999-12.43264 11.17878-11.531979999999999 11.33772-11.355379999999998 11.443679999999999-11.23176T11.584959999999999-11.055159999999999L11.60262-11.00218Q11.6556-11.00218 12.079439999999998-11.46134 12.203059999999999-11.5673 12.344339999999999-11.70858T12.6269-11.99114 12.8035-12.1854L13.068399999999999-12.450299999999999H13.174359999999998Q13.4216-12.450299999999999 13.4216-12.32668 13.4216-12.256039999999999 12.85648-9.907259999999999 12.220719999999998-7.45252 12.220719999999998-7.43486 12.1854-7.346559999999999 12.13242-7.328899999999999T11.81454-7.2935799999999995H11.531979999999999Q11.42602-7.399539999999999 11.42602-7.45252 11.42602-7.470179999999999 11.443679999999999-7.57614T11.479-7.929339999999999 11.496659999999999-8.49446Q11.496659999999999-9.74832 10.931539999999998-10.684299999999999T9.006599999999999-11.637939999999999Q8.68872-11.637939999999999 8.31786-11.584959999999999T7.38188-11.355379999999998 6.30462-10.860899999999999 5.1920399999999995-10.013219999999999 4.1677599999999995-8.75936 3.3377399999999997-6.95804 2.7902799999999996-4.5916Q2.7549599999999996-4.27372 2.7549599999999996-3.9028599999999996 2.7549599999999996-3.0551799999999996 3.0021999999999998-2.40176T3.6379599999999996-1.3951399999999998 4.52096-0.7947 5.439279999999999-0.49448 6.23398-0.42384Q7.187619999999999-0.42384 7.98232-0.83002T9.07724-1.8719599999999998Q9.13022-2.0132399999999997 9.342139999999999-2.84326T9.55406-3.7792399999999997Q9.55406-3.92052 9.32448-3.95584T8.26488-4.00882H7.611459999999999Q7.5055-4.11478 7.5055-4.150099999999999T7.540819999999999-4.48564Q7.611459999999999-4.7152199999999995 7.71742-4.82118H8.01764Q8.724039999999999-4.78586 10.490039999999999-4.78586 11.196439999999999-4.78586 11.637939999999999-4.78586T12.2737-4.80352 12.485619999999999-4.80352Q12.732859999999999-4.80352 12.732859999999999-4.6445799999999995 12.732859999999999-4.60926 12.697539999999998-4.39734 12.60924-4.0618 12.52094-4.026479999999999 12.46796-4.00882 12.256039999999999-4.00882 11.90284-4.00882 11.531979999999999-3.95584 11.408359999999998-3.9028599999999996 11.355379999999998-3.7968999999999995T11.108139999999999-2.8962399999999997Q10.9492-2.3134599999999996 10.84324-1.9072799999999999 10.401739999999998-0.10596 10.348759999999999-0.05298 10.31344-0.01766 10.260459999999998-0.01766 10.08386-0.01766 9.765979999999999-0.37085999999999997T9.3598-0.9183199999999999Q9.3598-0.9359799999999999 9.32448-0.9183199999999999T9.21852-0.83002Q7.91168 0.38852 5.68652 0.38852 3.54966 0.38852 2.22516-0.9712999999999999T0.8829999999999999-4.45032Z"
        fill-opacity="1"
      ></path>
    </svg>
  </g>
</svg>
