<svg version="1.2" xmlns="http://www.w3.org/2000/svg" viewBox="0 0 800 700">
  <rect
    x="0"
    y="0"
    width="800"
    height="700"
    fill="none"
    stroke="#cccccc"
    stroke-opacity="1"
    stroke-width="2"
    stroke-linecap="butt"
    rx="0"
    transform="rotate(0, 0, 0)"
  >
    <title>Global.box</title>
  </rect>
  <circle
    fill="none"
    cx="387.0683126588686"
    cy="288.77286541763"
    stroke="none"
    r="18"
  >
    <title>`A`.bounds</title>
  </circle>
  <circle
    fill="none"
    cx="299.90979222571497"
    cy="517.0943076934658"
    stroke="none"
    r="18"
  >
    <title>`E`.bounds</title>
  </circle>
  <circle
    fill="none"
    cx="432.7780241772774"
    cy="402.27824864071994"
    stroke="none"
    r="18"
  >
    <title>`C`.bounds</title>
  </circle>
  <circle
    fill="none"
    cx="352.69056283841536"
    cy="480.4229601375962"
    stroke="none"
    r="18"
  >
    <title>`D`.bounds</title>
  </circle>
  <circle
    fill="none"
    cx="340.378655986035"
    cy="390.3042873235308"
    stroke="none"
    r="18"
  >
    <title>`B`.bounds</title>
  </circle>
  <g>
    <marker
      id="5:3:arrow-endArrowId"
      markerUnits="strokeWidth"
      markerWidth="4.98"
      markerHeight="4.06"
      viewBox="0 0 9.95 8.12"
      refX="2.36"
      refY="4.06"
      orient="auto-start-reverse"
    >
      <path
        d="M9.95 4.06 0 8.12 2.36 4.06 0 0 9.95 4.06z"
        fill="#000000"
        fill-opacity="1"
      ></path>
    </marker>
    <path
      d="M 305.3830014493133 499.94659845559556 L 330.28970663706014 421.9132324385655"
      stroke-opacity="1"
      stroke-width="4"
      stroke="#000000"
      stroke-linecap="butt"
      marker-end="url(#5:3:arrow-endArrowId)"
    ></path>
    <title>5:3:arrow</title>
  </g>
  <circle
    fill="none"
    cx="425.95709916151316"
    cy="541.9063365039794"
    stroke="none"
    r="18"
  >
    <title>`G`.bounds</title>
  </circle>
  <g>
    <marker
      id="5:5:arrow-endArrowId"
      markerUnits="strokeWidth"
      markerWidth="4.98"
      markerHeight="4.06"
      viewBox="0 0 9.95 8.12"
      refX="2.36"
      refY="4.06"
      orient="auto-start-reverse"
    >
      <path
        d="M9.95 4.06 0 8.12 2.36 4.06 0 0 9.95 4.06z"
        fill="#000000"
        fill-opacity="1"
      ></path>
    </marker>
    <path
      d="M 426.8353637623724 523.9277769138132 L 431.15908971004404 435.4187279031785"
      stroke-opacity="1"
      stroke-width="4"
      stroke="#000000"
      stroke-linecap="butt"
      marker-end="url(#5:5:arrow-endArrowId)"
    ></path>
    <title>5:5:arrow</title>
  </g>
  <g>
    <marker
      id="5:2:arrow-endArrowId"
      markerUnits="strokeWidth"
      markerWidth="4.98"
      markerHeight="4.06"
      viewBox="0 0 9.95 8.12"
      refX="2.36"
      refY="4.06"
      orient="auto-start-reverse"
    >
      <path
        d="M9.95 4.06 0 8.12 2.36 4.06 0 0 9.95 4.06z"
        fill="#000000"
        fill-opacity="1"
      ></path>
    </marker>
    <path
      d="M 350.25405752722816 462.58862890188186 L 344.8699476689005 423.1789062216127"
      stroke-opacity="1"
      stroke-width="4"
      stroke="#000000"
      stroke-linecap="butt"
      marker-end="url(#5:2:arrow-endArrowId)"
    ></path>
    <title>5:2:arrow</title>
  </g>
  <circle
    fill="none"
    cx="468.7384911257869"
    cy="490.16334125020586"
    stroke="none"
    r="18"
  >
    <title>`F`.bounds</title>
  </circle>
  <g>
    <marker
      id="5:1:arrow-endArrowId"
      markerUnits="strokeWidth"
      markerWidth="4.98"
      markerHeight="4.06"
      viewBox="0 0 9.95 8.12"
      refX="2.36"
      refY="4.06"
      orient="auto-start-reverse"
    >
      <path
        d="M9.95 4.06 0 8.12 2.36 4.06 0 0 9.95 4.06z"
        fill="#000000"
        fill-opacity="1"
      ></path>
    </marker>
    <path
      d="M 426.0540085088561 385.58131597828447 L 399.46291533774627 319.5508791094766"
      stroke-opacity="1"
      stroke-width="4"
      stroke="#000000"
      stroke-linecap="butt"
      marker-end="url(#5:1:arrow-endArrowId)"
    ></path>
    <title>5:1:arrow</title>
  </g>
  <g>
    <marker
      id="5:0:arrow-endArrowId"
      markerUnits="strokeWidth"
      markerWidth="4.98"
      markerHeight="4.06"
      viewBox="0 0 9.95 8.12"
      refX="2.36"
      refY="4.06"
      orient="auto-start-reverse"
    >
      <path
        d="M9.95 4.06 0 8.12 2.36 4.06 0 0 9.95 4.06z"
        fill="#000000"
        fill-opacity="1"
      ></path>
    </marker>
    <path
      d="M 347.89898903320125 373.95055585715676 L 373.20583150774013 318.91824498810695"
      stroke-opacity="1"
      stroke-width="4"
      stroke="#000000"
      stroke-linecap="butt"
      marker-end="url(#5:0:arrow-endArrowId)"
    ></path>
    <title>5:0:arrow</title>
  </g>
  <g>
    <marker
      id="5:4:arrow-endArrowId"
      markerUnits="strokeWidth"
      markerWidth="4.98"
      markerHeight="4.06"
      viewBox="0 0 9.95 8.12"
      refX="2.36"
      refY="4.06"
      orient="auto-start-reverse"
    >
      <path
        d="M9.95 4.06 0 8.12 2.36 4.06 0 0 9.95 4.06z"
        fill="#000000"
        fill-opacity="1"
      ></path>
    </marker>
    <path
      d="M 461.92188690657076 473.5039943639204 L 445.3432985600925 432.9869795473155"
      stroke-opacity="1"
      stroke-width="4"
      stroke="#000000"
      stroke-linecap="butt"
      marker-end="url(#5:4:arrow-endArrowId)"
    ></path>
    <title>5:4:arrow</title>
  </g>
  <g
    transform="rotate(0, 377.4458126588686, 275.94286541763)translate(377.4458126588686, 275.94286541763)"
    string="A"
  >
    <title>`A`.icon</title>
    <svg
      xmlns="http://www.w3.org/2000/svg"
      width="19.244999999999997"
      height="25.66"
      role="img"
      focusable="false"
      viewBox="0.8981 -18.37256 17.73106 18.37256"
    >
      <path
        stroke="none"
        fill="#000000"
        stroke-width="0"
        d="M5.33728-1.8988399999999999Q5.33728-1.283 6.51764-1.1803599999999999 6.97952-1.1803599999999999 6.97952-0.8981 6.97952-0.87244 6.9281999999999995-0.56452 6.85122-0.20528 6.77424-0.10264T6.440659999999999 0Q6.38934 0 6.13274 0T5.2603-0.02566 3.61806-0.05132Q1.7962-0.05132 1.283 0H1.07772Q0.8981-0.17962 0.8981-0.28226 0.9494199999999999-0.97508 1.2316799999999999-1.1803599999999999H1.59092Q3.38712-1.25734 4.20824-2.4633599999999998 4.3622-2.61732 8.8527-10.28966T13.42018-18.06464Q13.5998-18.37256 14.036019999999999-18.37256H14.241299999999999 14.67752Q14.831479999999999-18.14162 14.831479999999999-18.115959999999998L15.549959999999999-9.827779999999999Q16.26844-1.5395999999999999 16.31976-1.46262 16.448059999999998-1.1803599999999999 17.987659999999998-1.1803599999999999 18.62916-1.1803599999999999 18.62916-0.9237599999999999 18.62916-0.87244 18.55218-0.56452 18.475199999999997-0.17962 18.42388-0.10264T18.06464 0Q17.987659999999998 0 17.7054 0T16.70466-0.02566 14.831479999999999-0.05132Q12.41944-0.05132 11.6753 0H11.367379999999999Q11.21342-0.15395999999999999 11.21342-0.23093999999999998T11.26474-0.69282Q11.367379999999999-1.0264 11.4187-1.10338L11.521339999999999-1.1803599999999999H12.03454Q13.42018-1.25734 13.676779999999999-1.61658L13.36886-5.46558H7.26178L6.38934-3.9772999999999996Q5.33728-2.20676 5.33728-1.8988399999999999ZM13.240559999999999-6.6716Q13.240559999999999-6.95386 12.93264-10.67456T12.5734-14.420919999999999L11.88058-13.31754Q11.47002-12.62472 10.264-10.571919999999999L7.954599999999999-6.6716 10.597579999999999-6.6459399999999995Q13.240559999999999-6.6459399999999995 13.240559999999999-6.6716Z"
        fill-opacity="1"
      ></path>
    </svg>
  </g>
  <g
    transform="rotate(0, 330.640685986035, 377.4742873235308)translate(330.640685986035, 377.4742873235308)"
    string="B"
  >
    <title>`B`.icon</title>
    <svg
      xmlns="http://www.w3.org/2000/svg"
      width="19.475939999999998"
      height="25.66"
      role="img"
      focusable="false"
      viewBox="0.8981 -17.525779999999997 18.50086 17.525779999999997"
    >
      <path
        stroke="none"
        fill="#000000"
        stroke-width="0"
        d="M5.92746-16.34542Q5.23464-16.34542 5.106339999999999-16.37108T4.97804-16.65334Q4.97804-17.346159999999998 5.2603-17.50012 5.285959999999999-17.525779999999997 8.5961-17.525779999999997 15.24204-17.525779999999997 15.60128-17.47446 17.217859999999998-17.217859999999998 18.295579999999998-16.31976T19.39896-13.95904Q19.39896-12.316799999999999 17.91068-11.00814T14.4979-9.237599999999999L14.241299999999999-9.16062Q15.88354-8.92968 16.9356-7.9802599999999995T18.01332-5.61954Q18.01332-3.7463599999999997 16.1658-2.00148T11.62398-0.02566Q11.44436 0 6.20972 0 1.07772 0 1.00074-0.05132 0.8981-0.1283 0.8981-0.2566 0.8981-0.43622 0.9494199999999999-0.6158399999999999 1.07772-1.10338 1.2060199999999999-1.1546999999999998 1.30866-1.1803599999999999 1.59092-1.1803599999999999H1.74488Q2.4377-1.1803599999999999 3.28448-1.25734 3.6437199999999996-1.33432 3.77202-1.5652599999999999 3.8489999999999998-1.6679 5.61954-8.698739999999999T7.390079999999999-16.11448Q7.390079999999999-16.2941 5.92746-16.34542ZM16.65334-13.95904Q16.65334-14.72884 16.26844-15.395999999999999T15.011099999999999-16.26844Q14.831479999999999-16.31976 12.65038-16.34542 12.137179999999999-16.34542 11.572659999999999-16.34542T10.67456-16.31976H10.34098Q9.95608-16.2941 9.853439999999999-16.06316 9.80212-15.960519999999999 9.03232-12.98396 9.03232-12.906979999999999 9.00666-12.83L8.2112-9.59684H10.28966Q12.36812-9.59684 12.676039999999999-9.648159999999999 14.215639999999999-9.90476 15.42166-11.13644T16.65334-13.95904ZM15.2677-5.8761399999999995Q15.2677-7.005179999999999 14.67752-7.74932T13.13792-8.62176Q12.98396-8.64742 11.00814-8.64742 7.9802599999999995-8.64742 7.954599999999999-8.62176 7.954599999999999-8.57044 7.51838-6.74858T6.620279999999999-3.1305199999999997L6.158399999999999-1.33432Q6.158399999999999-1.2316799999999999 6.46632-1.2316799999999999T8.54478-1.1803599999999999Q10.82852-1.1803599999999999 11.00814-1.2060199999999999 12.59906-1.38564 13.93338-2.6942999999999997T15.2677-5.8761399999999995Z"
        fill-opacity="1"
      ></path>
    </svg>
  </g>
  <g
    transform="rotate(0, 423.0272241772774, 389.44824864071995)translate(423.0272241772774, 389.44824864071995)"
    string="C"
  >
    <title>`C`.icon</title>
    <svg
      xmlns="http://www.w3.org/2000/svg"
      width="19.5016"
      height="25.66"
      role="img"
      focusable="false"
      viewBox="1.283 -18.0903 18.2186 18.65482"
    >
      <path
        stroke="none"
        fill="#000000"
        stroke-width="0"
        d="M1.283-6.46632Q1.283-9.41722 3.00222-12.137179999999999T7.33876-16.448059999999998 12.5734-18.06464Q14.8828-18.06464 16.24278-16.755979999999997 16.47372-16.49938 16.627679999999998-16.31976T16.83296-16.06316L16.85862-15.98618Q16.9356-15.98618 17.55144-16.65334 17.73106-16.807299999999998 17.936339999999998-17.01258T18.346899999999998-17.42314 18.6035-17.7054L18.9884-18.0903H19.14236Q19.5016-18.0903 19.5016-17.91068 19.5016-17.80804 18.68048-14.395259999999999 17.756719999999998-10.82852 17.756719999999998-10.802859999999999 17.7054-10.67456 17.62842-10.6489T17.166539999999998-10.597579999999999H16.755979999999997Q16.60202-10.75154 16.60202-10.82852 16.60202-10.85418 16.627679999999998-11.00814T16.679-11.521339999999999 16.70466-12.342459999999999Q16.70466-14.16432 15.88354-15.524299999999998T13.086599999999999-16.90994Q12.41944-16.90994 11.64964-16.73032T9.80212-16.11448 7.672339999999999-14.67752 5.79916-12.291139999999999Q4.97804-10.82852 4.4905-8.878359999999999T4.00296-5.69652Q4.00296-2.77128 5.953119999999999-1.4882799999999998 7.1848-0.6158399999999999 8.981-0.6158399999999999 11.31606-0.6158399999999999 13.13792-2.3607199999999997T15.549959999999999-6.158399999999999Q15.6526-6.49198 15.70392-6.5432999999999995T16.11448-6.59462Q16.627679999999998-6.59462 16.627679999999998-6.36368 16.627679999999998-6.23538 16.60202-6.13274 15.85788-3.38712 13.42018-1.4113T8.18554 0.56452Q5.285959999999999 0.56452 3.28448-1.35998T1.283-6.46632Z"
        fill-opacity="1"
      ></path>
    </svg>
  </g>
  <g
    transform="rotate(0, 342.06732283841535, 467.5929601375962)translate(342.06732283841535, 467.5929601375962)"
    string="D"
  >
    <title>`D`.icon</title>
    <svg
      xmlns="http://www.w3.org/2000/svg"
      width="21.24648"
      height="25.66"
      role="img"
      focusable="false"
      viewBox="0.84678 -17.525779999999997 19.7582 17.525779999999997"
    >
      <path
        stroke="none"
        fill="#000000"
        stroke-width="0"
        d="M7.36442-16.11448Q7.36442-16.2941 5.9018-16.34542 5.31162-16.34542 5.132-16.37108T4.95238-16.60202Q4.95238-16.807299999999998 5.05502-17.11522T5.23464-17.50012Q5.285959999999999-17.525779999999997 10.34098-17.525779999999997 14.626199999999999-17.50012 15.139399999999998-17.50012T16.1658-17.346159999999998Q18.01332-16.90994 19.296319999999998-15.31902T20.604979999999998-11.05946Q20.604979999999998-7.0565 17.85936-3.87466T11.39304-0.07697999999999999L11.0338-0.02566 6.055759999999999 0H3.2075 1.8475199999999998Q1.2316799999999999 0 1.05206-0.05132T0.84678-0.28226Q0.84678-0.33358 0.9237599999999999-0.6415 1.0264-1.05206 1.12904-1.10338T1.71922-1.1803599999999999Q2.4120399999999997-1.1803599999999999 3.25882-1.25734 3.61806-1.33432 3.7463599999999997-1.5652599999999999 3.82334-1.6679 5.5938799999999995-8.698739999999999T7.36442-16.11448ZM18.03898-12.03454Q18.03898-13.00962 17.756719999999998-13.77942T17.08956-14.985439999999999 16.14014-15.729579999999999 15.139399999999998-16.14014 14.241299999999999-16.31976Q14.189979999999998-16.31976 13.88206-16.31976T13.13792-16.31976 12.291139999999999-16.34542H11.187759999999999Q10.05872-16.34542 9.90476-16.08882 9.853439999999999-15.98618 8.03158-8.698739999999999T6.20972-1.33432Q6.20972-1.2316799999999999 6.49198-1.2316799999999999T8.4678-1.2060199999999999Q8.5961-1.2060199999999999 8.95534-1.2060199999999999T9.57118-1.1803599999999999Q12.80434-1.1803599999999999 14.90846-3.28448 15.83222-4.20824 16.4224-5.43992T17.525779999999997-8.698739999999999 18.03898-12.03454Z"
        fill-opacity="1"
      ></path>
    </svg>
  </g>
  <g
    transform="rotate(0, 290.10767222571496, 504.2643076934658)translate(290.10767222571496, 504.2643076934658)"
    string="E"
  >
    <title>`E`.icon</title>
    <svg
      xmlns="http://www.w3.org/2000/svg"
      width="19.60424"
      height="25.66"
      role="img"
      focusable="false"
      viewBox="0.79546 -17.4488 18.808780000000002 17.4488"
    >
      <path
        stroke="none"
        fill="#000000"
        stroke-width="0"
        d="M12.62472-5.46558Q12.111519999999999-5.46558 12.111519999999999-5.79916 12.111519999999999-5.9018 12.23982-6.415T12.36812-7.3130999999999995Q12.36812-8.108559999999999 11.82926-8.288179999999999T9.34024-8.4678H8.00592Q7.9802599999999995-8.41648 7.107819999999999-4.9267199999999995T6.23538-1.33432Q6.23538-1.2316799999999999 6.51764-1.2316799999999999T8.57044-1.1803599999999999Q10.982479999999999-1.1803599999999999 11.752279999999999-1.2316799999999999T13.291879999999999-1.5652599999999999Q14.54922-1.97582 15.370339999999999-3.00222T17.1922-6.36368Q17.4488-6.9281999999999995 17.525779999999997-6.97952 17.7054-7.0308399999999995 17.91068-7.0308399999999995 18.42388-7.0308399999999995 18.42388-6.69726 15.729579999999999-0.17962 15.60128-0.05132 15.524299999999998 0 8.26252 0H3.4127799999999997Q0.79546 0 0.79546-0.28226 0.79546-0.33358 0.87244-0.6415 0.97508-1.05206 1.07772-1.10338T1.6679-1.1803599999999999Q2.3607199999999997-1.1803599999999999 3.2075-1.25734 3.56674-1.33432 3.6950399999999997-1.5652599999999999 3.7463599999999997-1.69356 5.5169-8.77572T7.3130999999999995-15.960519999999999Q7.3130999999999995-16.14014 7.210459999999999-16.14014 7.005179999999999-16.217119999999998 5.85048-16.26844H5.05502Q4.90106-16.4224 4.90106-16.47372T4.95238-16.90994Q5.05502-17.346159999999998 5.2089799999999995-17.4488H19.424619999999997Q19.60424-17.346159999999998 19.60424-17.166539999999998 19.60424-17.03824 19.27066-14.29262T18.91142-11.47002Q18.8601-11.2904 18.39822-11.2904H18.0903Q17.91068-11.4187 17.91068-11.62398L17.987659999999998-12.21416Q18.06464-12.83 18.06464-13.54848 18.06464-14.31828 17.88502-14.831479999999999T17.397479999999998-15.62694 16.49938-16.037499999999998 15.29336-16.217119999999998 13.651119999999999-16.26844H12.4451Q10.187019999999999-16.24278 10.05872-16.19146 9.95608-16.14014 9.90476-15.960519999999999 9.8791-15.88354 9.1093-12.80434T8.313839999999999-9.67382Q8.90402-9.648159999999999 9.54552-9.648159999999999H10.212679999999999Q11.906239999999999-9.648159999999999 12.54774-10.033059999999999T13.70244-12.111519999999999Q13.805079999999998-12.522079999999999 13.856399999999999-12.5734T14.29262-12.65038Q14.420919999999999-12.65038 14.4979-12.65038T14.626199999999999-12.62472 14.67752-12.59906 14.72884-12.496419999999999 14.805819999999999-12.39378L13.95904-9.00666Q13.11226-5.5938799999999995 13.03528-5.54256 12.9583-5.46558 12.62472-5.46558Z"
        fill-opacity="1"
      ></path>
    </svg>
  </g>
  <g
    transform="rotate(0, 459.1288211257869, 477.3333412502059)translate(459.1288211257869, 477.3333412502059)"
    string="F"
  >
    <title>`F`.icon</title>
    <svg
      xmlns="http://www.w3.org/2000/svg"
      width="19.21934"
      height="25.66"
      role="img"
      focusable="false"
      viewBox="0.79546 -17.4488 18.42388 17.4488"
    >
      <path
        stroke="none"
        fill="#000000"
        stroke-width="0"
        d="M1.2316799999999999-0.02566Q0.79546-0.02566 0.79546-0.28226 0.79546-0.33358 0.87244-0.6415 0.97508-1.05206 1.07772-1.10338T1.6679-1.1803599999999999Q2.3607199999999997-1.1803599999999999 3.2075-1.25734 3.56674-1.33432 3.6950399999999997-1.5652599999999999 3.7463599999999997-1.69356 5.5169-8.77572T7.3130999999999995-15.960519999999999Q7.3130999999999995-16.14014 7.210459999999999-16.14014 7.005179999999999-16.217119999999998 5.85048-16.26844H5.05502Q4.90106-16.4224 4.90106-16.47372T4.95238-16.90994Q5.05502-17.346159999999998 5.2089799999999995-17.4488H19.03972Q19.21934-17.346159999999998 19.21934-17.166539999999998 19.21934-17.03824 18.885759999999998-14.29262T18.526519999999998-11.47002Q18.475199999999997-11.2904 18.01332-11.2904H17.7054Q17.525779999999997-11.4187 17.525779999999997-11.62398 17.525779999999997-11.64964 17.60276-12.23982T17.67974-13.5998Q17.67974-14.3696 17.50012-14.85714T17.01258-15.6526 16.06316-16.06316 14.7545-16.24278 12.906979999999999-16.26844H12.316799999999999Q10.212679999999999-16.24278 10.08438-16.19146 9.95608-16.14014 9.90476-15.98618 9.8791-15.960519999999999 9.03232-12.62472L8.2112-9.31458H9.622499999999999Q9.69948-9.31458 10.212679999999999-9.31458T10.93116-9.34024 11.49568-9.41722 12.111519999999999-9.59684 12.54774-9.90476Q12.881319999999999-10.212679999999999 13.11226-10.75154T13.445839999999999-11.726619999999999 13.57414-12.1885Q13.651119999999999-12.316799999999999 14.061679999999999-12.316799999999999H14.3696Q14.54922-12.1885 14.54922-12.0602 14.54922-11.98322 13.75376-8.698739999999999T12.881319999999999-5.31162Q12.83-5.132 12.36812-5.132H12.0602Q11.88058-5.285959999999999 11.88058-5.43992 11.88058-5.5169 12.00888-6.00444T12.137179999999999-7.0308399999999995Q12.137179999999999-7.774979999999999 11.62398-7.954599999999999T9.34024-8.13422H7.92894L7.107819999999999-4.8754Q6.2867-1.69356 6.2867-1.5395999999999999 6.2867-1.1803599999999999 8.57044-1.1803599999999999H9.21194Q9.3659-1.0264 9.3659-1.00074T9.31458-0.48754Q9.21194-0.15395999999999999 9.057979999999999 0H8.62176Q7.569699999999999-0.05132 4.7471-0.05132 3.0791999999999997-0.05132 2.20676-0.05132T1.2316799999999999-0.02566Z"
        fill-opacity="1"
      ></path>
    </svg>
  </g>
  <g
    transform="rotate(0, 415.87271916151315, 529.0763365039794)translate(415.87271916151315, 529.0763365039794)"
    string="G"
  >
    <title>`G`.icon</title>
    <svg
      xmlns="http://www.w3.org/2000/svg"
      width="20.16876"
      height="25.66"
      role="img"
      focusable="false"
      viewBox="1.283 -18.0903 18.2186 18.65482"
    >
      <path
        stroke="none"
        fill="#000000"
        stroke-width="0"
        d="M1.283-6.46632Q1.283-9.41722 3.00222-12.137179999999999T7.33876-16.448059999999998 12.5734-18.06464Q14.8828-18.06464 16.24278-16.755979999999997 16.47372-16.49938 16.627679999999998-16.31976T16.83296-16.06316L16.85862-15.98618Q16.9356-15.98618 17.55144-16.65334 17.73106-16.807299999999998 17.936339999999998-17.01258T18.346899999999998-17.42314 18.6035-17.7054L18.9884-18.0903H19.14236Q19.5016-18.0903 19.5016-17.91068 19.5016-17.80804 18.68048-14.395259999999999 17.756719999999998-10.82852 17.756719999999998-10.802859999999999 17.7054-10.67456 17.62842-10.6489T17.166539999999998-10.597579999999999H16.755979999999997Q16.60202-10.75154 16.60202-10.82852 16.60202-10.85418 16.627679999999998-11.00814T16.679-11.521339999999999 16.70466-12.342459999999999Q16.70466-14.16432 15.88354-15.524299999999998T13.086599999999999-16.90994Q12.62472-16.90994 12.08586-16.83296T10.72588-16.49938 9.16062-15.780899999999999 7.54404-14.54922 6.055759999999999-12.72736 4.84974-10.11004 4.054279999999999-6.6716Q4.00296-6.20972 4.00296-5.670859999999999 4.00296-4.4391799999999995 4.3622-3.48976T5.285959999999999-2.0271399999999997 6.56896-1.1546999999999998 7.90328-0.71848 9.057979999999999-0.6158399999999999Q10.44362-0.6158399999999999 11.59832-1.2060199999999999T13.18924-2.71996Q13.266219999999999-2.92524 13.57414-4.13126T13.88206-5.4912399999999995Q13.88206-5.69652 13.54848-5.74784T12.00888-5.82482H11.05946Q10.9055-5.9787799999999995 10.9055-6.0301T10.956819999999999-6.51764Q11.05946-6.85122 11.21342-7.005179999999999H11.64964Q12.676039999999999-6.95386 15.24204-6.95386 16.26844-6.95386 16.90994-6.95386T17.8337-6.97952 18.14162-6.97952Q18.50086-6.97952 18.50086-6.74858 18.50086-6.69726 18.44954-6.38934 18.32124-5.9018 18.19294-5.85048 18.115959999999998-5.82482 17.80804-5.82482 17.29484-5.82482 16.755979999999997-5.74784 16.576359999999998-5.670859999999999 16.49938-5.5169T16.14014-4.20824Q15.909199999999998-3.3614599999999997 15.755239999999999-2.77128 15.11374-0.15395999999999999 15.03676-0.07697999999999999 14.985439999999999-0.02566 14.90846-0.02566 14.65186-0.02566 14.189979999999998-0.53886T13.5998-1.33432Q13.5998-1.35998 13.54848-1.33432T13.39452-1.2060199999999999Q11.49568 0.56452 8.26252 0.56452 5.15766 0.56452 3.23316-1.4113T1.283-6.46632Z"
        fill-opacity="1"
      ></path>
    </svg>
  </g>
</svg>
