<svg version="1.2" xmlns="http://www.w3.org/2000/svg" viewBox="0 0 800 700">
  <rect
    x="225"
    y="175"
    width="350"
    height="350"
    fill="none"
    stroke="none"
    rx="0"
    transform="rotate(0, 225, 175)"
  >
    <title>`V`.background</title>
  </rect>
  <g startArrowheadSize="1" endArrowheadSize="1">
    <filter id="6:0:perpMark-shadow" x="0" y="0" width="200%" height="200%">
      <feOffset result="offOut" in="SourceAlpha" dx="5" dy="5"></feOffset>
      <feGaussianBlur
        result="blurOut"
        in="offOut"
        stdDeviation="4"
      ></feGaussianBlur>
      <feBlend in="SourceGraphic" in2="blurOut" mode="normal"></feBlend>
      <feComponentTransfer>
        <feFuncA type="linear" slope="0.5"></feFuncA>
      </feComponentTransfer>
      <feMerge>
        <feMergeNode></feMergeNode>
        <feMergeNode in="SourceGraphic"></feMergeNode>
      </feMerge>
    </filter>
    <path
      stroke="#000000"
      fill="#ffffff"
      stroke-width="1"
      stroke-opacity="1"
      fill-opacity="1"
      d="M 400 350 L 397.52611642407646 369.8464042777487 L 417.372530426809 372.3202235636163 L 419.84641400273256 352.4738192858676 Z "
    ></path>
    <title>6:0:perpMark</title>
  </g>
  <g>
    <marker
      id="`u`.arrow-endArrowId"
      markerUnits="strokeWidth"
      markerWidth="6.97"
      markerHeight="5.68"
      viewBox="0 0 9.95 8.12"
      refX="2.36"
      refY="4.06"
      orient="auto-start-reverse"
    >
      <path
        d="M9.95 4.06 0 8.12 2.36 4.06 0 0 9.95 4.06z"
        fill="#1a1ae6"
        fill-opacity="1"
      ></path>
    </marker>
    <path
      d="M 400 350 L 394.76416605980904 392.0037863218341"
      stroke-opacity="1"
      stroke-width="3"
      stroke="#1a1ae6"
      stroke-dasharray="4 1 2"
      stroke-linecap="butt"
      marker-end="url(#`u`.arrow-endArrowId)"
    ></path>
    <title>`u`.arrow</title>
  </g>
  <g style="solid">
    <marker
      id="`V`.xAxis-startArrowId"
      markerUnits="strokeWidth"
      markerWidth="13.93"
      markerHeight="11.37"
      viewBox="0 0 9.95 8.12"
      refX="2.36"
      refY="4.06"
      orient="auto-start-reverse"
    >
      <path
        d="M9.95 4.06 0 8.12 2.36 4.06 0 0 9.95 4.06z"
        fill="#999999"
        fill-opacity="1"
      ></path>
    </marker>
    <marker
      id="`V`.xAxis-endArrowId"
      markerUnits="strokeWidth"
      markerWidth="13.93"
      markerHeight="11.37"
      viewBox="0 0 9.95 8.12"
      refX="2.36"
      refY="4.06"
      orient="auto-start-reverse"
    >
      <path
        d="M9.95 4.06 0 8.12 2.36 4.06 0 0 9.95 4.06z"
        fill="#999999"
        fill-opacity="1"
      ></path>
    </marker>
    <path
      d="M 235.626 350 L 564.374 350"
      stroke-opacity="1"
      stroke-width="1"
      stroke="#999999"
      stroke-linecap="butt"
      marker-start="url(#`V`.xAxis-startArrowId)"
      marker-end="url(#`V`.xAxis-endArrowId)"
    ></path>
    <title>`V`.xAxis</title>
  </g>
  <g style="solid">
    <marker
      id="`V`.yAxis-startArrowId"
      markerUnits="strokeWidth"
      markerWidth="13.93"
      markerHeight="11.37"
      viewBox="0 0 9.95 8.12"
      refX="2.36"
      refY="4.06"
      orient="auto-start-reverse"
    >
      <path
        d="M9.95 4.06 0 8.12 2.36 4.06 0 0 9.95 4.06z"
        fill="#999999"
        fill-opacity="1"
      ></path>
    </marker>
    <marker
      id="`V`.yAxis-endArrowId"
      markerUnits="strokeWidth"
      markerWidth="13.93"
      markerHeight="11.37"
      viewBox="0 0 9.95 8.12"
      refX="2.36"
      refY="4.06"
      orient="auto-start-reverse"
    >
      <path
        d="M9.95 4.06 0 8.12 2.36 4.06 0 0 9.95 4.06z"
        fill="#999999"
        fill-opacity="1"
      ></path>
    </marker>
    <path
      d="M 400 514.374 L 400 185.626"
      stroke-opacity="1"
      stroke-width="1"
      stroke="#999999"
      stroke-linecap="butt"
      marker-start="url(#`V`.yAxis-startArrowId)"
      marker-end="url(#`V`.yAxis-endArrowId)"
    ></path>
    <title>`V`.yAxis</title>
  </g>
  <g
    transform="rotate(0, 367.69119922793686, 390.1016351895857)translate(367.69119922793686, 390.1016351895857)"
    string="u"
  >
    <title>`u`.text</title>
    <svg
      xmlns="http://www.w3.org/2000/svg"
      width="10.101519999999999"
      height="17.66"
      role="img"
      focusable="false"
      viewBox="0.37085999999999997 -7.805719999999999 9.359799999999998 7.999979999999999"
    >
      <path
        stroke="none"
        fill="#1a1ae6"
        stroke-width="0"
        d="M0.37085999999999997-5.06842Q0.37085999999999997-5.2097 0.5297999999999999-5.61588T0.9712999999999999-6.534199999999999 1.7483399999999998-7.417199999999999 2.7902799999999996-7.805719999999999Q3.6026399999999996-7.805719999999999 4.00882-7.3642199999999995T4.415-6.322279999999999Q4.415-6.0043999999999995 3.8145599999999997-4.34436T3.21412-1.8542999999999998Q3.21412-1.09492 3.4613599999999995-0.7947T4.20308-0.47681999999999997 5.13906-0.77704 5.792479999999999-1.3774799999999998L5.986739999999999-1.6777Q6.02206-1.7483399999999998 6.657819999999999-4.362019999999999 7.187619999999999-6.4812199999999995 7.2935799999999995-6.83442T7.540819999999999-7.346559999999999Q7.84104-7.611459999999999 8.17658-7.611459999999999 8.476799999999999-7.611459999999999 8.618079999999999-7.43486T8.75936-7.09932L7.417199999999999-1.4834399999999999Q7.399539999999999-1.3951399999999998 7.399539999999999-1.20088 7.399539999999999-0.7593799999999999 7.52316-0.6181T7.894019999999999-0.45915999999999996Q8.28254-0.5121399999999999 8.51212-1.0066199999999998T9.04192-2.5606999999999998Q9.07724-2.70198 9.395119999999999-2.70198 9.730659999999999-2.70198 9.730659999999999-2.54304 9.713-2.4547399999999997 9.69534-2.2958T9.536399999999999-1.7306799999999998 9.23618-0.9712999999999999 8.79468-0.30022 8.15892 0.14128Q8.01764 0.17659999999999998 7.735079999999999 0.17659999999999998 6.56952 0.17659999999999998 6.128019999999999-0.81236 6.0927-0.7947 5.9337599999999995-0.63576T5.61588-0.37085999999999997 5.22736-0.10596 4.7152199999999995 0.10596 4.11478 0.19426Q3.3377399999999997 0.19426 2.7373-0.12362 1.8189799999999998-0.6710799999999999 1.8189799999999998-1.99558 1.8189799999999998-3.0021999999999998 2.43708-4.626919999999999T3.0551799999999996-6.69314Q3.0551799999999996-6.7108 3.0551799999999996-6.728459999999999 3.0551799999999996-6.8873999999999995 3.0551799999999996-6.940379999999999T2.98454-7.063999999999999 2.7902799999999996-7.134639999999999H2.7196399999999996Q2.3134599999999996-7.134639999999999 1.97792-6.799099999999999T1.4481199999999999-6.0750399999999996 1.1479-5.33332 1.0066199999999998-4.9448Q0.9712999999999999-4.909479999999999 0.7240599999999999-4.909479999999999H0.47681999999999997Q0.37085999999999997-5.01544 0.37085999999999997-5.06842Z"
        fill-opacity="1"
      ></path>
    </svg>
  </g>
  <g>
    <marker
      id="`v`.arrow-endArrowId"
      markerUnits="strokeWidth"
      markerWidth="6.97"
      markerHeight="5.68"
      viewBox="0 0 9.95 8.12"
      refX="2.36"
      refY="4.06"
      orient="auto-start-reverse"
    >
      <path
        d="M9.95 4.06 0 8.12 2.36 4.06 0 0 9.95 4.06z"
        fill="#1a1ae6"
        fill-opacity="1"
      ></path>
    </marker>
    <path
      d="M 400 350 L 498.6164520631635 362.2923607753069"
      stroke-opacity="1"
      stroke-width="3"
      stroke="#1a1ae6"
      stroke-dasharray="4 1 2"
      stroke-linecap="butt"
      marker-end="url(#`v`.arrow-endArrowId)"
    ></path>
    <title>`v`.arrow</title>
  </g>
  <g
    transform="rotate(0, 529.3177870995036, 344.74788280916437)translate(529.3177870995036, 344.74788280916437)"
    string="v"
  >
    <title>`v`.text</title>
    <svg
      xmlns="http://www.w3.org/2000/svg"
      width="8.5651"
      height="17.66"
      role="img"
      focusable="false"
      viewBox="0.37085999999999997 -7.823379999999999 7.876359999999998 8.01764"
    >
      <path
        stroke="none"
        fill="#1a1ae6"
        stroke-width="0"
        d="M3.0551799999999996-6.7108Q3.0551799999999996-7.152299999999999 2.7196399999999996-7.152299999999999 2.2958-7.152299999999999 1.8366399999999998-6.64016T1.0772599999999999-5.06842Q1.0595999999999999-5.0507599999999995 1.0419399999999999-5.01544T1.0242799999999999-4.962459999999999 0.98896-4.92714 0.9359799999999999-4.909479999999999 0.8653399999999999-4.909479999999999 0.7240599999999999-4.909479999999999H0.47681999999999997Q0.37085999999999997-5.01544 0.37085999999999997-5.06842 0.37085999999999997-5.1920399999999995 0.5121399999999999-5.580559999999999T0.9359799999999999-6.49888 1.7130199999999998-7.399539999999999 2.8255999999999997-7.78806Q3.5673199999999996-7.78806 3.9734999999999996-7.3642199999999995T4.39734-6.37526Q4.39734-6.0750399999999996 4.34436-5.916099999999999 4.34436-5.81014 4.07946-5.13906T3.5319999999999996-3.5673199999999996 3.21412-1.99558Q3.21412-1.5187599999999999 3.3024199999999997-1.21854 3.5319999999999996-0.45915999999999996 4.415-0.45915999999999996 5.06842-0.45915999999999996 5.63354-1.0595999999999999T6.516539999999999-2.4547399999999997 7.02868-3.92052 7.2229399999999995-4.89182Q7.2229399999999995-5.297999999999999 7.081659999999999-5.5982199999999995T6.76378-6.057379999999999 6.445899999999999-6.37526 6.30462-6.76378Q6.30462-7.152299999999999 6.64016-7.487839999999999T7.3642199999999995-7.823379999999999Q7.6997599999999995-7.823379999999999 7.964659999999999-7.5055T8.247219999999999-6.4812199999999995Q8.247219999999999-6.0043999999999995 8.0353-5.01544T7.38188-2.80794 6.128019999999999-0.7063999999999999 4.25606 0.19426Q3.1258199999999996 0.19426 2.4547399999999997-0.38852 1.8013199999999998-0.9536399999999999 1.8013199999999998-2.06622 1.8013199999999998-2.61368 1.9425999999999999-3.1964599999999996T2.66666-5.26268Q3.0551799999999996-6.392919999999999 3.0551799999999996-6.7108Z"
        fill-opacity="1"
      ></path>
    </svg>
  </g>
  <g
    transform="rotate(0, 218.20973, 166.17)translate(218.20973, 166.17)"
    string="V"
  >
    <title>`V`.text</title>
    <svg
      xmlns="http://www.w3.org/2000/svg"
      width="13.58054"
      height="17.66"
      role="img"
      focusable="false"
      viewBox="0.9183199999999999 -12.061779999999999 12.66222 12.450299999999999"
    >
      <path
        stroke="none"
        fill="#999999"
        stroke-width="0"
        d="M0.9183199999999999-11.443679999999999Q0.9183199999999999-11.832199999999998 1.1479-12.061779999999999H1.3421599999999998Q2.0838799999999997-12.008799999999999 3.1964599999999996-12.008799999999999 5.28034-12.008799999999999 5.651199999999999-12.061779999999999H5.8278Q5.9337599999999995-11.95582 5.9337599999999995-11.90284T5.89844-11.584959999999999Q5.81014-11.32006 5.7395-11.249419999999999H5.368639999999999Q4.980119999999999-11.214099999999998 4.838839999999999-11.214099999999998 4.3267-11.1258 4.27372-10.9492 4.27372-10.913879999999999 4.78586-6.516539999999999T5.315659999999999-2.0838799999999997L6.604839999999999-4.150099999999999Q7.894019999999999-6.21632 9.1832-8.31786T10.5077-10.490039999999999Q10.578339999999999-10.61366 10.578339999999999-10.75494 10.578339999999999-11.17878 9.8013-11.249419999999999 9.483419999999999-11.249419999999999 9.483419999999999-11.443679999999999 9.483419999999999-11.46134 9.51874-11.673259999999999 9.57172-11.920499999999999 9.624699999999999-11.99114T9.85428-12.061779999999999Q9.8896-12.061779999999999 10.066199999999998-12.061779999999999T10.66664-12.04412 11.79688-12.026459999999998Q13.015419999999999-12.026459999999998 13.3333-12.061779999999999H13.456919999999998Q13.58054-11.93816 13.58054-11.867519999999999 13.58054-11.5673 13.4216-11.302399999999999 13.368619999999998-11.249419999999999 13.121379999999998-11.249419999999999 12.891799999999998-11.23176 12.697539999999998-11.214099999999998T12.32668-11.1258 12.04412-11.00218 11.832199999999998-10.860899999999999 11.6556-10.737279999999998 11.51432-10.578339999999999 11.390699999999999-10.45472L7.98232-4.980119999999999Q4.80352 0.15894 4.697559999999999 0.28256 4.6445799999999995 0.31788 4.5739399999999995 0.37085999999999997L4.25606 0.38852H4.13244Q3.8145599999999997 0.38852 3.8145599999999997 0.26489999999999997 3.76158 0.15894 3.1258199999999996-5.386299999999999 2.4547399999999997-11.00218 2.43708-11.055159999999999 2.3487799999999996-11.249419999999999 1.3421599999999998-11.249419999999999H1.0419399999999999Q0.9183199999999999-11.33772 0.9183199999999999-11.443679999999999Z"
        fill-opacity="1"
      ></path>
    </svg>
  </g>
</svg>
