<svg version="1.2" xmlns="http://www.w3.org/2000/svg" viewBox="0 0 240 180">
  <rect
    x="0"
    y="0"
    width="240"
    height="180"
    fill="none"
    stroke="#000000"
    stroke-opacity="0.2"
    stroke-width="1"
    stroke-linecap="butt"
    rx="0"
    transform="rotate(0, 0, 0)"
  >
    <title>Global.box</title>
  </rect>
  <g>
    <marker
      id="`c`.icon-leftArrowhead"
      markerUnits="strokeWidth"
      markerWidth="4.98"
      markerHeight="4.06"
      viewBox="0 0 9.95 8.12"
      refX="2.36"
      refY="4.06"
      orient="auto-start-reverse"
    >
      <path
        d="M9.95 4.06 0 8.12 2.36 4.06 0 0 9.95 4.06z"
        fill="#000000"
        fill-opacity="1"
      ></path>
    </marker>
    <marker
      id="`c`.icon-rightArrowhead"
      markerUnits="strokeWidth"
      markerWidth="4.98"
      markerHeight="4.06"
      viewBox="0 0 9.95 8.12"
      refX="2.36"
      refY="4.06"
      orient="auto-start-reverse"
    >
      <path
        d="M9.95 4.06 0 8.12 2.36 4.06 0 0 9.95 4.06z"
        fill="#000000"
        fill-opacity="1"
      ></path>
    </marker>
    <path
      d="M 120 90 L 66.61484589405322 100.10674620147994"
      stroke-opacity="1"
      stroke-width="1.5"
      stroke="#000000"
      stroke-linecap="round"
      marker-end="url(#`c`.icon-rightArrowhead)"
    ></path>
    <title>`c`.icon</title>
  </g>
  <g
    transform="rotate(0, 54.5013052631215, 96.90362150926063)translate(54.5013052631215, 96.90362150926063)"
    string="c"
    font-family="Linux Libertine"
  >
    <title>`c`.labelText</title>
    <svg
      xmlns="http://www.w3.org/2000/svg"
      width="4.39928"
      height="10.16"
      role="img"
      focusable="false"
      viewBox="0.34544 -4.4907200000000005 4.0132 4.602480000000001"
    >
      <path
        stroke="none"
        fill="#000000"
        stroke-width="0"
        d="M0.34544-1.6154400000000002Q0.34544-2.72288 1.2192-3.6068000000000002T3.10896-4.4907200000000005Q3.6779200000000003-4.4907200000000005 4.00304-4.24688T4.33832-3.6068000000000002Q4.33832-3.31216 4.1452800000000005-3.10896T3.6576000000000004-2.8956000000000004Q3.46456-2.8956000000000004 3.3528000000000002-2.9972000000000003T3.2410400000000004-3.302 3.3528000000000002-3.64744 3.5763200000000004-3.8608000000000002 3.71856-3.9217600000000004H3.72872Q3.72872-3.9420800000000003 3.6677600000000004-3.98272T3.4544-4.064 3.10896-4.10464Q2.80416-4.10464 2.52984-3.9624 2.3164800000000003-3.87096 2.09296-3.64744 1.64592-3.2004 1.44272-2.3876T1.22936-1.2090400000000001Q1.22936-0.74168 1.4935200000000002-0.508 1.7170400000000001-0.26416 2.0828-0.26416H2.12344Q3.2613600000000003-0.26416 4.00304-1.12776 4.09448-1.22936 4.124960000000001-1.22936 4.1656-1.22936 4.25704-1.13792T4.35864-0.99568 4.2672-0.84328 3.97256-0.5588000000000001 3.5153600000000003-0.254 2.86512 0 2.05232 0.11176000000000001Q1.2903200000000001 0.11176000000000001 0.82296-0.37592000000000003T0.34544-1.6154400000000002Z"
        fill-opacity="1"
      ></path>
    </svg>
  </g>
  <g>
    <marker
      id="`b`.icon-leftArrowhead"
      markerUnits="strokeWidth"
      markerWidth="4.98"
      markerHeight="4.06"
      viewBox="0 0 9.95 8.12"
      refX="2.36"
      refY="4.06"
      orient="auto-start-reverse"
    >
      <path
        d="M9.95 4.06 0 8.12 2.36 4.06 0 0 9.95 4.06z"
        fill="#000000"
        fill-opacity="1"
      ></path>
    </marker>
    <marker
      id="`b`.icon-rightArrowhead"
      markerUnits="strokeWidth"
      markerWidth="4.98"
      markerHeight="4.06"
      viewBox="0 0 9.95 8.12"
      refX="2.36"
      refY="4.06"
      orient="auto-start-reverse"
    >
      <path
        d="M9.95 4.06 0 8.12 2.36 4.06 0 0 9.95 4.06z"
        fill="#000000"
        fill-opacity="1"
      ></path>
    </marker>
    <path
      d="M 120 90 L 113.40152671314839 158.08116047317094"
      stroke-opacity="1"
      stroke-width="1.5"
      stroke="#000000"
      stroke-linecap="round"
      marker-end="url(#`b`.icon-rightArrowhead)"
    ></path>
    <title>`b`.icon</title>
  </g>
  <g stroke-width="1">
    <filter id="`v`.icon-shadow" x="0" y="0" width="200%" height="200%">
      <feOffset result="offOut" in="SourceAlpha" dx="5" dy="5"></feOffset>
      <feGaussianBlur
        result="blurOut"
        in="offOut"
        stdDeviation="4"
      ></feGaussianBlur>
      <feBlend in="SourceGraphic" in2="blurOut" mode="normal"></feBlend>
      <feComponentTransfer>
        <feFuncA type="linear" slope="0.5"></feFuncA>
      </feComponentTransfer>
      <feMerge>
        <feMergeNode></feMergeNode>
        <feMergeNode in="SourceGraphic"></feMergeNode>
      </feMerge>
    </filter>
    <path
      stroke="none"
      fill="#cc008a"
      fill-opacity="0.2"
      d="M 120 90 L 112.81403258848977 164.14275685147686 L 53.4451660144002 175.38232479471165 L 60.63113342591043 101.23956794323479 Z "
    ></path>
    <title>`v`.icon</title>
  </g>
  <g>
    <marker
      id="`a`.icon-leftArrowhead"
      markerUnits="strokeWidth"
      markerWidth="4.98"
      markerHeight="4.06"
      viewBox="0 0 9.95 8.12"
      refX="2.36"
      refY="4.06"
      orient="auto-start-reverse"
    >
      <path
        d="M9.95 4.06 0 8.12 2.36 4.06 0 0 9.95 4.06z"
        fill="#000000"
        fill-opacity="1"
      ></path>
    </marker>
    <marker
      id="`a`.icon-rightArrowhead"
      markerUnits="strokeWidth"
      markerWidth="4.98"
      markerHeight="4.06"
      viewBox="0 0 9.95 8.12"
      refX="2.36"
      refY="4.06"
      orient="auto-start-reverse"
    >
      <path
        d="M9.95 4.06 0 8.12 2.36 4.06 0 0 9.95 4.06z"
        fill="#000000"
        fill-opacity="1"
      ></path>
    </marker>
    <path
      d="M 120 90 L 181.6923904801861 29.58319645497508"
      stroke-opacity="1"
      stroke-width="1.5"
      stroke="#000000"
      stroke-linecap="round"
      marker-end="url(#`a`.icon-rightArrowhead)"
    ></path>
    <title>`a`.icon</title>
  </g>
  <g stroke-width="1">
    <filter id="`u`.icon-shadow" x="0" y="0" width="200%" height="200%">
      <feOffset result="offOut" in="SourceAlpha" dx="5" dy="5"></feOffset>
      <feGaussianBlur
        result="blurOut"
        in="offOut"
        stdDeviation="4"
      ></feGaussianBlur>
      <feBlend in="SourceGraphic" in2="blurOut" mode="normal"></feBlend>
      <feComponentTransfer>
        <feFuncA type="linear" slope="0.5"></feFuncA>
      </feComponentTransfer>
      <feMerge>
        <feMergeNode></feMergeNode>
        <feMergeNode in="SourceGraphic"></feMergeNode>
      </feMerge>
    </filter>
    <path
      stroke="none"
      fill="#70cc00"
      fill-opacity="0.2"
      d="M 120 90 L 186.0434179950264 25.322133258412222 L 178.8574505835162 99.46489010988908 L 112.81403258848977 164.14275685147686 Z "
    ></path>
    <title>`u`.icon</title>
  </g>
  <g
    transform="rotate(0, 110.2488380099742, 163.04410040783918)translate(110.2488380099742, 163.04410040783918)"
    string="b"
    font-family="Linux Libertine"
  >
    <title>`b`.labelText</title>
    <svg
      xmlns="http://www.w3.org/2000/svg"
      width="4.35864"
      height="10.16"
      role="img"
      focusable="false"
      viewBox="0.40640000000000004 -7.05104 3.8811200000000006 7.162800000000001"
    >
      <path
        stroke="none"
        fill="#000000"
        stroke-width="0"
        d="M0.74168-6.57352Q0.74168-6.675120000000001 0.78232-6.807200000000001T0.90424-6.93928Q0.9144000000000001-6.93928 1.63576-6.990080000000001T2.37744-7.05104Q2.4993600000000002-7.05104 2.4993600000000002-6.9596T2.1539200000000003-5.5067200000000005Q2.0726400000000003-5.1612800000000005 1.9812-4.795520000000001T1.8288000000000002-4.24688L1.7881600000000002-4.05384Q1.7881600000000002-4.02336 1.84912-4.08432 2.34696-4.4907200000000005 2.87528-4.4907200000000005 3.5052000000000003-4.4907200000000005 3.89128-4.02336T4.287520000000001-2.8448Q4.287520000000001-1.7170400000000001 3.4848800000000004-0.80264T1.7576800000000001 0.11176000000000001Q1.2496800000000001 0.11176000000000001 0.8331200000000001-0.27432T0.40640000000000004-1.524V-1.6154400000000002Q0.40640000000000004-1.8288000000000002 0.48768-2.20472T0.9855200000000001-4.20624Q1.4935200000000002-6.20776 1.4935200000000002-6.329680000000001T1.10744-6.471920000000001Q1.05664-6.471920000000001 1.02616-6.471920000000001H0.97536Q0.8737600000000001-6.471920000000001 0.84328-6.471920000000001T0.7721600000000001-6.502400000000001 0.74168-6.57352ZM3.4137600000000003-3.302V-3.36296Q3.4137600000000003-4.114800000000001 2.794-4.114800000000001 2.62128-4.114800000000001 2.4384-4.03352T2.10312-3.8201600000000004 1.8389600000000002-3.5763200000000004 1.65608-3.3528000000000002L1.59512-3.27152 1.38176-2.3977600000000003Q1.1582400000000002-1.524 1.1582400000000002-1.1582400000000002 1.1582400000000002-0.67056 1.40208-0.42672000000000004 1.56464-0.26416 1.80848-0.26416 2.1437600000000003-0.26416 2.4892000000000003-0.58928 2.7432000000000003-0.82296 2.8956000000000004-1.1582400000000002T3.2308800000000004-2.2250400000000004Q3.4137600000000003-2.95656 3.4137600000000003-3.302Z"
        fill-opacity="1"
      ></path>
    </svg>
  </g>
  <g
    transform="rotate(0, 186.21391542960663, 17.44340568166136)translate(186.21391542960663, 17.44340568166136)"
    string="a"
    font-family="Linux Libertine"
  >
    <title>`a`.labelText</title>
    <svg
      xmlns="http://www.w3.org/2000/svg"
      width="5.37464"
      height="10.16"
      role="img"
      focusable="false"
      viewBox="0.33528 -4.4805600000000005 4.805680000000001 4.582160000000001"
    >
      <path
        stroke="none"
        fill="#000000"
        stroke-width="0"
        d="M0.33528-1.59512Q0.33528-2.62128 1.10744-3.54584T2.8448-4.4805600000000005Q3.36296-4.4805600000000005 3.7592000000000003-3.98272 3.9217600000000004-4.287520000000001 4.22656-4.287520000000001 4.35864-4.287520000000001 4.460240000000001-4.20624T4.56184-4.00304Q4.56184-3.87096 4.18592-2.37744T3.79984-0.69088Q3.79984-0.43688000000000005 3.87096-0.3556T4.08432-0.26416Q4.17576-0.27432 4.287520000000001-0.3556 4.50088-0.5588000000000001 4.70408-1.3309600000000001 4.76504-1.5341600000000002 4.805680000000001-1.5443200000000001 4.8260000000000005-1.55448 4.90728-1.55448H4.94792Q5.140960000000001-1.55448 5.140960000000001-1.4630400000000001 5.140960000000001-1.40208 5.09016-1.18872T4.88696-0.6400800000000001 4.56184-0.13208Q4.42976 0 4.23672 0.08128 4.1554400000000005 0.10160000000000001 3.9928800000000004 0.10160000000000001 3.64744 0.10160000000000001 3.4137600000000003-0.050800000000000005T3.10896-0.36576000000000003L3.048-0.5181600000000001Q3.03784-0.52832 3.0073600000000003-0.508 2.9870400000000004-0.48768 2.96672-0.46736000000000005 2.36728 0.10160000000000001 1.7475200000000002 0.10160000000000001 1.18872 0.10160000000000001 0.762-0.3048T0.33528-1.59512ZM3.5661600000000004-3.3324800000000003Q3.5661600000000004-3.39344 3.5153600000000003-3.556T3.28168-3.9116000000000004 2.8143200000000004-4.114800000000001Q2.45872-4.114800000000001 2.1336-3.79984T1.6256000000000002-2.97688Q1.3309600000000001-2.17424 1.2090400000000001-1.31064 1.2090400000000001-1.2801600000000002 1.2090400000000001-1.1988800000000002T1.1988800000000002-1.0769600000000001Q1.1988800000000002-0.6197600000000001 1.38176-0.44704000000000005T1.81864-0.26416Q2.20472-0.26416 2.5806400000000003-0.5994400000000001T3.02768-1.1176000000000001Q3.048-1.1582400000000002 3.302-2.20472T3.5661600000000004-3.3324800000000003Z"
        fill-opacity="1"
      ></path>
    </svg>
  </g>
  <g>
    <marker
      id="`u`.marker-leftArrowhead"
      markerUnits="strokeWidth"
      markerWidth="4.98"
      markerHeight="4.06"
      viewBox="0 0 9.95 8.12"
      refX="2.36"
      refY="4.06"
      orient="auto-start-reverse"
    >
      <path
        d="M9.95 4.06 0 8.12 2.36 4.06 0 0 9.95 4.06z"
        fill="#70cc00"
        fill-opacity="1"
      ></path>
    </marker>
    <filter id="`u`.marker-shadow" x="0" y="0" width="200%" height="200%">
      <feOffset result="offOut" in="SourceAlpha" dx="5" dy="5"></feOffset>
      <feGaussianBlur
        result="blurOut"
        in="offOut"
        stdDeviation="4"
      ></feGaussianBlur>
      <feBlend in="SourceGraphic" in2="blurOut" mode="normal"></feBlend>
      <feComponentTransfer>
        <feFuncA type="linear" slope="0.5"></feFuncA>
      </feComponentTransfer>
      <feMerge>
        <feMergeNode></feMergeNode>
        <feMergeNode in="SourceGraphic"></feMergeNode>
      </feMerge>
    </filter>
    <path
      stroke="#70cc00"
      fill="none"
      stroke-width="1.125"
      stroke-opacity="1"
      d="M 157.81720967132475 78.83043213885391 A 17.978896689165452 17.978896689165452 0 0 0 141.04024091219145 110.63445797103518"
      marker-start="url(#`u`.marker-leftArrowhead)"
    ></path>
    <title>`u`.marker</title>
  </g>
  <g
    transform="rotate(0, 138.9161732917581, 89.65244505494455)translate(138.9161732917581, 89.65244505494455)"
    string="a \wedge b"
    font-family="Linux Libertine"
  >
    <title>`u`.labelText</title>
    <svg
      xmlns="http://www.w3.org/2000/svg"
      width="21.025104000000002"
      height="10.16"
      role="img"
      focusable="false"
      viewBox="0.33528 -7.05104 20.618704 7.27456"
    >
      <path
        stroke="none"
        fill="#70cc00"
        stroke-width="0"
        d="M0.33528-1.59512Q0.33528-2.62128 1.10744-3.54584T2.8448-4.4805600000000005Q3.36296-4.4805600000000005 3.7592000000000003-3.98272 3.9217600000000004-4.287520000000001 4.22656-4.287520000000001 4.35864-4.287520000000001 4.460240000000001-4.20624T4.56184-4.00304Q4.56184-3.87096 4.18592-2.37744T3.79984-0.69088Q3.79984-0.43688000000000005 3.87096-0.3556T4.08432-0.26416Q4.17576-0.27432 4.287520000000001-0.3556 4.50088-0.5588000000000001 4.70408-1.3309600000000001 4.76504-1.5341600000000002 4.805680000000001-1.5443200000000001 4.8260000000000005-1.55448 4.90728-1.55448H4.94792Q5.140960000000001-1.55448 5.140960000000001-1.4630400000000001 5.140960000000001-1.40208 5.09016-1.18872T4.88696-0.6400800000000001 4.56184-0.13208Q4.42976 0 4.23672 0.08128 4.1554400000000005 0.10160000000000001 3.9928800000000004 0.10160000000000001 3.64744 0.10160000000000001 3.4137600000000003-0.050800000000000005T3.10896-0.36576000000000003L3.048-0.5181600000000001Q3.03784-0.52832 3.0073600000000003-0.508 2.9870400000000004-0.48768 2.96672-0.46736000000000005 2.36728 0.10160000000000001 1.7475200000000002 0.10160000000000001 1.18872 0.10160000000000001 0.762-0.3048T0.33528-1.59512ZM3.5661600000000004-3.3324800000000003Q3.5661600000000004-3.39344 3.5153600000000003-3.556T3.28168-3.9116000000000004 2.8143200000000004-4.114800000000001Q2.45872-4.114800000000001 2.1336-3.79984T1.6256000000000002-2.97688Q1.3309600000000001-2.17424 1.2090400000000001-1.31064 1.2090400000000001-1.2801600000000002 1.2090400000000001-1.1988800000000002T1.1988800000000002-1.0769600000000001Q1.1988800000000002-0.6197600000000001 1.38176-0.44704000000000005T1.81864-0.26416Q2.20472-0.26416 2.5806400000000003-0.5994400000000001T3.02768-1.1176000000000001Q3.048-1.1582400000000002 3.302-2.20472T3.5661600000000004-3.3324800000000003ZM10.863072-6.004560000000001Q10.934192000000001-6.07568 11.015472-6.07568 11.127232000000001-6.07568 11.167872000000001-6.004560000000001 11.178032000000002-5.994400000000001 11.838432000000001-4.5212T13.169392000000002-1.5341600000000002 13.839952000000002 0.04064Q13.819632000000002 0.22352000000000002 13.636752000000001 0.22352000000000002 13.606272 0.22352000000000002 13.585952 0.21336000000000002T13.535152000000002 0.20320000000000002 13.494512000000002 0.17272 13.474192000000002 0.13208 13.443712000000001 0.09144000000000001 13.423392000000002 0.04064L11.015472-5.36448 8.607552000000002 0.04064Q8.516112000000001 0.20320000000000002 8.444992000000001 0.21336000000000002 8.424672000000001 0.22352000000000002 8.394192 0.22352000000000002 8.211312000000001 0.22352000000000002 8.190992000000001 0.04064 8.190992000000001-0.02032 8.851392-1.524T10.182352000000002-4.51104 10.863072-6.004560000000001ZM17.408144000000004-6.57352Q17.408144000000004-6.675120000000001 17.448784000000003-6.807200000000001T17.570704000000003-6.93928Q17.580864000000002-6.93928 18.302224000000002-6.990080000000001T19.043904-7.05104Q19.165824-7.05104 19.165824-6.9596T18.820384-5.5067200000000005Q18.739104-5.1612800000000005 18.647664000000002-4.795520000000001T18.495264000000002-4.24688L18.454624000000003-4.05384Q18.454624000000003-4.02336 18.515584-4.08432 19.013424-4.4907200000000005 19.541744-4.4907200000000005 20.171664000000003-4.4907200000000005 20.557744000000003-4.02336T20.953984000000002-2.8448Q20.953984000000002-1.7170400000000001 20.151344-0.80264T18.424144000000002 0.11176000000000001Q17.916144000000003 0.11176000000000001 17.499584000000002-0.27432T17.072864000000003-1.524V-1.6154400000000002Q17.072864000000003-1.8288000000000002 17.154144000000002-2.20472T17.651984000000002-4.20624Q18.159984-6.20776 18.159984-6.329680000000001T17.773904-6.471920000000001Q17.723104000000003-6.471920000000001 17.692624000000002-6.471920000000001H17.641824000000003Q17.540224000000002-6.471920000000001 17.509744-6.471920000000001T17.438624-6.502400000000001 17.408144000000004-6.57352ZM20.080224-3.302V-3.36296Q20.080224-4.114800000000001 19.460464-4.114800000000001 19.287744000000004-4.114800000000001 19.104864000000003-4.03352T18.769584000000002-3.8201600000000004 18.505424-3.5763200000000004 18.322544-3.3528000000000002L18.261584000000003-3.27152 18.048224-2.3977600000000003Q17.824704-1.524 17.824704-1.1582400000000002 17.824704-0.67056 18.068544000000003-0.42672000000000004 18.231104000000002-0.26416 18.474944-0.26416 18.810224-0.26416 19.155664-0.58928 19.409664000000003-0.82296 19.562064000000003-1.1582400000000002T19.897344000000004-2.2250400000000004Q20.080224-2.95656 20.080224-3.302Z"
        fill-opacity="1"
      ></path>
    </svg>
  </g>
  <g>
    <marker
      id="`v`.marker-leftArrowhead"
      markerUnits="strokeWidth"
      markerWidth="4.98"
      markerHeight="4.06"
      viewBox="0 0 9.95 8.12"
      refX="2.36"
      refY="4.06"
      orient="auto-start-reverse"
    >
      <path
        d="M9.95 4.06 0 8.12 2.36 4.06 0 0 9.95 4.06z"
        fill="#cc008a"
        fill-opacity="1"
      ></path>
    </marker>
    <filter id="`v`.marker-shadow" x="0" y="0" width="200%" height="200%">
      <feOffset result="offOut" in="SourceAlpha" dx="5" dy="5"></feOffset>
      <feGaussianBlur
        result="blurOut"
        in="offOut"
        stdDeviation="4"
      ></feGaussianBlur>
      <feBlend in="SourceGraphic" in2="blurOut" mode="normal"></feBlend>
      <feComponentTransfer>
        <feFuncA type="linear" slope="0.5"></feFuncA>
      </feComponentTransfer>
      <feMerge>
        <feMergeNode></feMergeNode>
        <feMergeNode in="SourceGraphic"></feMergeNode>
      </feMerge>
    </filter>
    <path
      stroke="#cc008a"
      fill="none"
      stroke-width="1.125"
      stroke-opacity="1"
      d="M 100.61126927010764 149.4330964351924 A 21.752886641296303 21.752886641296303 0 0 0 72.83389674429256 115.94922835951925"
      marker-start="url(#`v`.marker-leftArrowhead)"
    ></path>
    <title>`v`.marker</title>
  </g>
  <g
    transform="rotate(0, 76.6977110072001, 127.61116239735581)translate(76.6977110072001, 127.61116239735581)"
    string="b \wedge c"
    font-family="Linux Libertine"
  >
    <title>`v`.labelText</title>
    <svg
      xmlns="http://www.w3.org/2000/svg"
      width="20.049744"
      height="10.16"
      role="img"
      focusable="false"
      viewBox="0.40640000000000004 -7.05104 19.602704 7.27456"
    >
      <path
        stroke="none"
        fill="#cc008a"
        stroke-width="0"
        d="M0.74168-6.57352Q0.74168-6.675120000000001 0.78232-6.807200000000001T0.90424-6.93928Q0.9144000000000001-6.93928 1.63576-6.990080000000001T2.37744-7.05104Q2.4993600000000002-7.05104 2.4993600000000002-6.9596T2.1539200000000003-5.5067200000000005Q2.0726400000000003-5.1612800000000005 1.9812-4.795520000000001T1.8288000000000002-4.24688L1.7881600000000002-4.05384Q1.7881600000000002-4.02336 1.84912-4.08432 2.34696-4.4907200000000005 2.87528-4.4907200000000005 3.5052000000000003-4.4907200000000005 3.89128-4.02336T4.287520000000001-2.8448Q4.287520000000001-1.7170400000000001 3.4848800000000004-0.80264T1.7576800000000001 0.11176000000000001Q1.2496800000000001 0.11176000000000001 0.8331200000000001-0.27432T0.40640000000000004-1.524V-1.6154400000000002Q0.40640000000000004-1.8288000000000002 0.48768-2.20472T0.9855200000000001-4.20624Q1.4935200000000002-6.20776 1.4935200000000002-6.329680000000001T1.10744-6.471920000000001Q1.05664-6.471920000000001 1.02616-6.471920000000001H0.97536Q0.8737600000000001-6.471920000000001 0.84328-6.471920000000001T0.7721600000000001-6.502400000000001 0.74168-6.57352ZM3.4137600000000003-3.302V-3.36296Q3.4137600000000003-4.114800000000001 2.794-4.114800000000001 2.62128-4.114800000000001 2.4384-4.03352T2.10312-3.8201600000000004 1.8389600000000002-3.5763200000000004 1.65608-3.3528000000000002L1.59512-3.27152 1.38176-2.3977600000000003Q1.1582400000000002-1.524 1.1582400000000002-1.1582400000000002 1.1582400000000002-0.67056 1.40208-0.42672000000000004 1.56464-0.26416 1.80848-0.26416 2.1437600000000003-0.26416 2.4892000000000003-0.58928 2.7432000000000003-0.82296 2.8956000000000004-1.1582400000000002T3.2308800000000004-2.2250400000000004Q3.4137600000000003-2.95656 3.4137600000000003-3.302ZM9.847072-6.004560000000001Q9.918192000000001-6.07568 9.999472-6.07568 10.111232000000001-6.07568 10.151872000000001-6.004560000000001 10.162032000000002-5.994400000000001 10.822432000000001-4.5212T12.153392000000002-1.5341600000000002 12.823952000000002 0.04064Q12.803632000000002 0.22352000000000002 12.620752000000001 0.22352000000000002 12.590272 0.22352000000000002 12.569952 0.21336000000000002T12.519152000000002 0.20320000000000002 12.478512000000002 0.17272 12.458192 0.13208 12.427712000000001 0.09144000000000001 12.407392000000002 0.04064L9.999472-5.36448 7.591552000000001 0.04064Q7.500112000000001 0.20320000000000002 7.428992000000001 0.21336000000000002 7.408672000000001 0.22352000000000002 7.378192000000001 0.22352000000000002 7.195312000000001 0.22352000000000002 7.1749920000000005 0.04064 7.1749920000000005-0.02032 7.835392000000001-1.524T9.166352000000002-4.51104 9.847072-6.004560000000001ZM15.995904000000001-1.6154400000000002Q15.995904000000001-2.72288 16.869664-3.6068000000000002T18.759424000000003-4.4907200000000005Q19.328384000000003-4.4907200000000005 19.653504-4.24688T19.988784000000003-3.6068000000000002Q19.988784000000003-3.31216 19.795744000000003-3.10896T19.308064-2.8956000000000004Q19.115024000000002-2.8956000000000004 19.003264-2.9972000000000003T18.891504-3.302 19.003264-3.64744 19.226784000000002-3.8608000000000002 19.369024000000003-3.9217600000000004H19.379184000000002Q19.379184000000002-3.9420800000000003 19.318224-3.98272T19.104864000000003-4.064 18.759424000000003-4.10464Q18.454624000000003-4.10464 18.180304000000003-3.9624 17.966944-3.87096 17.743424-3.64744 17.296384000000003-3.2004 17.093184-2.3876T16.879824000000003-1.2090400000000001Q16.879824000000003-0.74168 17.143984000000003-0.508 17.367504-0.26416 17.733264000000002-0.26416H17.773904Q18.911824000000003-0.26416 19.653504-1.12776 19.744944000000004-1.22936 19.775424-1.22936 19.816064-1.22936 19.907504000000003-1.13792T20.009104-0.99568 19.917664000000002-0.84328 19.623024-0.5588000000000001 19.165824-0.254 18.515584 0 17.702784 0.11176000000000001Q16.940784 0.11176000000000001 16.473424-0.37592000000000003T15.995904000000001-1.6154400000000002Z"
        fill-opacity="1"
      ></path>
    </svg>
  </g>
</svg>
