<svg version="1.2" xmlns="http://www.w3.org/2000/svg" viewBox="0 0 800 700">
  <g>
    <marker
      id="`O`.bond2-leftArrowhead"
      markerUnits="strokeWidth"
      markerWidth="9.95"
      markerHeight="8.12"
      viewBox="0 0 9.95 8.12"
      refX="2.36"
      refY="4.06"
      orient="auto-start-reverse"
    >
      <path
        d="M9.95 4.06 0 8.12 2.36 4.06 0 0 9.95 4.06z"
        fill="#000000"
        fill-opacity="255"
      ></path>
    </marker>
    <marker
      id="`O`.bond2-rightArrowhead"
      markerUnits="strokeWidth"
      markerWidth="9.95"
      markerHeight="8.12"
      viewBox="0 0 9.95 8.12"
      refX="2.36"
      refY="4.06"
      orient="auto-start-reverse"
    >
      <path
        d="M9.95 4.06 0 8.12 2.36 4.06 0 0 9.95 4.06z"
        fill="#000000"
        fill-opacity="255"
      ></path>
    </marker>
    <path
      d="M 389.3028048864737 456.7189347962349 L 477.01628627411424 504.7433860905349"
      stroke-opacity="255"
      stroke-width="1"
      stroke="#000000"
      stroke-linecap="butt"
    ></path>
    <title>`O`.bond2</title>
  </g>
  <circle
    fill="#ffffff"
    fill-opacity="1"
    cx="477.01628627411424"
    cy="504.7433860905349"
    stroke="none"
    r="15"
  >
    <title>`H1`.icon</title>
  </circle>
  <g
    transform="rotate(0, 470.39378627411423, 495.9133860905349)translate(470.39378627411423, 495.9133860905349)"
    string="\text{H}"
  >
    <title>`H1`.symbol_string</title>
    <svg
      xmlns="http://www.w3.org/2000/svg"
      width="13.245"
      height="17.66"
      role="img"
      focusable="false"
      viewBox="0.44149999999999995 -12.061779999999999 12.344339999999999 12.061779999999999"
    >
      <path
        stroke="none"
        fill="#000000"
        stroke-width="0"
        d="M2.26048-10.98452Q2.13686-11.108139999999999 2.06622-11.14346T1.7836599999999998-11.196439999999999 1.0242799999999999-11.249419999999999H0.44149999999999995V-12.061779999999999H0.63576Q1.0066199999999998-12.008799999999999 3.1788-12.008799999999999 5.5629-12.008799999999999 5.721839999999999-12.061779999999999H5.916099999999999V-11.249419999999999H5.33332Q4.626919999999999-11.23176 4.432659999999999-11.196439999999999T4.11478-10.98452L4.097119999999999-8.83V-6.675479999999999H9.13022V-10.98452Q9.006599999999999-11.108139999999999 8.93596-11.14346T8.6534-11.196439999999999 7.894019999999999-11.249419999999999H7.31124V-12.061779999999999H7.5055Q7.876359999999999-12.008799999999999 10.04854-12.008799999999999 12.43264-12.008799999999999 12.591579999999999-12.061779999999999H12.785839999999999V-11.249419999999999H12.203059999999999Q11.496659999999999-11.23176 11.302399999999999-11.196439999999999T10.98452-10.98452V-1.0772599999999999Q11.09048-0.9006599999999999 11.28474-0.8653399999999999T12.203059999999999-0.81236H12.785839999999999V0H12.591579999999999Q12.220719999999998-0.05298 10.04854-0.05298 7.664439999999999-0.05298 7.5055 0H7.31124V-0.81236H7.894019999999999Q8.63574-0.83002 8.79468-0.8653399999999999T9.13022-1.0772599999999999V-5.863119999999999H4.097119999999999V-3.47902L4.11478-1.0772599999999999Q4.220739999999999-0.9006599999999999 4.415-0.8653399999999999T5.33332-0.81236H5.916099999999999V0H5.721839999999999Q5.35098-0.05298 3.1788-0.05298 0.7947-0.05298 0.63576 0H0.44149999999999995V-0.81236H1.0242799999999999Q1.7659999999999998-0.83002 1.9249399999999999-0.8653399999999999T2.26048-1.0772599999999999V-10.98452Z"
        fill-opacity="1"
      ></path>
    </svg>
  </g>
  <g>
    <marker
      id="`O`.bond1-leftArrowhead"
      markerUnits="strokeWidth"
      markerWidth="9.95"
      markerHeight="8.12"
      viewBox="0 0 9.95 8.12"
      refX="2.36"
      refY="4.06"
      orient="auto-start-reverse"
    >
      <path
        d="M9.95 4.06 0 8.12 2.36 4.06 0 0 9.95 4.06z"
        fill="#000000"
        fill-opacity="255"
      ></path>
    </marker>
    <marker
      id="`O`.bond1-rightArrowhead"
      markerUnits="strokeWidth"
      markerWidth="9.95"
      markerHeight="8.12"
      viewBox="0 0 9.95 8.12"
      refX="2.36"
      refY="4.06"
      orient="auto-start-reverse"
    >
      <path
        d="M9.95 4.06 0 8.12 2.36 4.06 0 0 9.95 4.06z"
        fill="#000000"
        fill-opacity="255"
      ></path>
    </marker>
    <path
      d="M 389.3028048864737 456.7189347962349 L 413.82395900606554 359.77198378888164"
      stroke-opacity="255"
      stroke-width="1"
      stroke="#000000"
      stroke-linecap="butt"
    ></path>
    <title>`O`.bond1</title>
  </g>
  <circle
    fill="#ffffff"
    fill-opacity="1"
    cx="413.82395900606554"
    cy="359.77198378888164"
    stroke="none"
    r="15"
  >
    <title>`H2`.icon</title>
  </circle>
  <g
    transform="rotate(0, 407.20145900606553, 350.94198378888166)translate(407.20145900606553, 350.94198378888166)"
    string="\text{H}"
  >
    <title>`H2`.symbol_string</title>
    <svg
      xmlns="http://www.w3.org/2000/svg"
      width="13.245"
      height="17.66"
      role="img"
      focusable="false"
      viewBox="0.44149999999999995 -12.061779999999999 12.344339999999999 12.061779999999999"
    >
      <path
        stroke="none"
        fill="#000000"
        stroke-width="0"
        d="M2.26048-10.98452Q2.13686-11.108139999999999 2.06622-11.14346T1.7836599999999998-11.196439999999999 1.0242799999999999-11.249419999999999H0.44149999999999995V-12.061779999999999H0.63576Q1.0066199999999998-12.008799999999999 3.1788-12.008799999999999 5.5629-12.008799999999999 5.721839999999999-12.061779999999999H5.916099999999999V-11.249419999999999H5.33332Q4.626919999999999-11.23176 4.432659999999999-11.196439999999999T4.11478-10.98452L4.097119999999999-8.83V-6.675479999999999H9.13022V-10.98452Q9.006599999999999-11.108139999999999 8.93596-11.14346T8.6534-11.196439999999999 7.894019999999999-11.249419999999999H7.31124V-12.061779999999999H7.5055Q7.876359999999999-12.008799999999999 10.04854-12.008799999999999 12.43264-12.008799999999999 12.591579999999999-12.061779999999999H12.785839999999999V-11.249419999999999H12.203059999999999Q11.496659999999999-11.23176 11.302399999999999-11.196439999999999T10.98452-10.98452V-1.0772599999999999Q11.09048-0.9006599999999999 11.28474-0.8653399999999999T12.203059999999999-0.81236H12.785839999999999V0H12.591579999999999Q12.220719999999998-0.05298 10.04854-0.05298 7.664439999999999-0.05298 7.5055 0H7.31124V-0.81236H7.894019999999999Q8.63574-0.83002 8.79468-0.8653399999999999T9.13022-1.0772599999999999V-5.863119999999999H4.097119999999999V-3.47902L4.11478-1.0772599999999999Q4.220739999999999-0.9006599999999999 4.415-0.8653399999999999T5.33332-0.81236H5.916099999999999V0H5.721839999999999Q5.35098-0.05298 3.1788-0.05298 0.7947-0.05298 0.63576 0H0.44149999999999995V-0.81236H1.0242799999999999Q1.7659999999999998-0.83002 1.9249399999999999-0.8653399999999999T2.26048-1.0772599999999999V-10.98452Z"
        fill-opacity="1"
      ></path>
    </svg>
  </g>
  <circle
    fill="#ffffff"
    fill-opacity="1"
    cx="389.3028048864737"
    cy="456.7189347962349"
    stroke="none"
    r="15"
  >
    <title>`O`.icon</title>
  </circle>
  <g
    transform="rotate(0, 382.43306488647374, 447.88893479623493)translate(382.43306488647374, 447.88893479623493)"
    string="\text{O}"
  >
    <title>`O`.symbol_string</title>
    <svg
      xmlns="http://www.w3.org/2000/svg"
      width="13.739479999999999"
      height="17.66"
      role="img"
      focusable="false"
      viewBox="0.98896 -12.450299999999999 11.76156 12.838819999999998"
    >
      <path
        stroke="none"
        fill="#000000"
        stroke-width="0"
        d="M0.98896-6.0043999999999995Q0.98896-7.470179999999999 1.5187599999999999-8.724039999999999T2.8962399999999997-10.772599999999999 4.768199999999999-12.008799999999999 6.852079999999999-12.450299999999999Q9.200859999999999-12.450299999999999 10.966859999999999-10.61366T12.75052-6.02206Q12.75052-4.5916 12.23838-3.3730599999999997T10.89622-1.3244999999999998 9.006599999999999-0.07064 6.852079999999999 0.38852 4.7152199999999995-0.05298 2.8255999999999997-1.30684 1.5010999999999999-3.3377399999999997 0.98896-6.0043999999999995ZM8.247219999999999-11.42602Q7.52316-11.743899999999998 6.852079999999999-11.743899999999998 6.3576-11.743899999999998 5.845459999999999-11.549639999999998T4.75054-10.9492 3.76158-9.69534 3.1611399999999996-7.752739999999999Q3.07284-7.258259999999999 3.07284-6.251639999999999 3.07284-2.54304 4.89182-1.0772599999999999 5.774819999999999-0.35319999999999996 6.799099999999999-0.35319999999999996H6.869739999999999 6.90506Q8.37084-0.35319999999999996 9.483419999999999-1.7483399999999998 10.64898-3.32008 10.64898-6.251639999999999 10.64898-7.258259999999999 10.56068-7.752739999999999 10.18982-10.45472 8.247219999999999-11.42602Z"
        fill-opacity="1"
      ></path>
    </svg>
  </g>
</svg>
