<svg version="1.2" xmlns="http://www.w3.org/2000/svg" viewBox="0 0 800 700">
  <g>
    <path
      d="M 175.0559383067236 624.4665286729803 L 245.23021468370877 553.2234635455131"
      stroke-opacity="1"
      stroke-width="1"
      stroke="#000000"
      stroke-linecap="butt"
    ></path>
    <title>`SBond_H8_O4`.symbol</title>
  </g>
  <circle
    fill="#ffffff"
    fill-opacity="1"
    cx="175.0559383067236"
    cy="624.4665286729803"
    stroke="none"
    r="10"
  >
    <title>`H8`.background</title>
  </circle>
  <g
    transform="rotate(0, 167.2148983067236, 615.6365286729803)translate(167.2148983067236, 615.6365286729803)"
    string="H"
  >
    <title>`H8`.symbol</title>
    <svg
      xmlns="http://www.w3.org/2000/svg"
      width="15.68208"
      height="17.66"
      role="img"
      focusable="false"
      viewBox="0.54746 -12.061779999999999 15.13462 12.061779999999999"
    >
      <path
        stroke="none"
        fill="#000000"
        stroke-width="0"
        d="M4.026479999999999-11.249419999999999Q3.4260399999999995-11.249419999999999 3.39072-11.32006 3.3730599999999997-11.355379999999998 3.3730599999999997-11.46134 3.3730599999999997-11.885179999999998 3.5673199999999996-12.04412 3.6026399999999996-12.061779999999999 3.8675399999999995-12.061779999999999 4.5916-12.026459999999998 6.269299999999999-12.026459999999998 6.869739999999999-12.026459999999998 7.38188-12.026459999999998T8.17658-12.04412 8.529779999999999-12.04412Q8.812339999999999-12.04412 8.812339999999999-11.867519999999999 8.812339999999999-11.832199999999998 8.777019999999998-11.62028 8.68872-11.32006 8.60042-11.26708H8.5651Q8.529779999999999-11.26708 8.476799999999999-11.26708T8.35318-11.26708 8.194239999999999-11.249419999999999 8.0353-11.249419999999999Q7.346559999999999-11.23176 7.152299999999999-11.196439999999999T6.83442-11.00218Q6.78144-10.931539999999998 6.269299999999999-8.83 6.14568-8.37084 6.0043999999999995-7.805719999999999T5.792479999999999-6.9757L5.721839999999999-6.7108Q5.721839999999999-6.675479999999999 8.28254-6.675479999999999H10.84324L10.860899999999999-6.728459999999999Q10.860899999999999-6.78144 11.408359999999998-8.90064 11.90284-10.931539999999998 11.90284-11.072819999999998T10.89622-11.249419999999999Q10.490039999999999-11.249419999999999 10.36642-11.28474T10.242799999999999-11.443679999999999Q10.242799999999999-11.479 10.27812-11.6556 10.348759999999999-11.95582 10.384079999999999-11.99114T10.66664-12.04412Q10.75494-12.04412 11.408359999999998-12.026459999999998T13.068399999999999-12.008799999999999Q14.163319999999999-12.008799999999999 14.746099999999998-12.026459999999998T15.38186-12.04412Q15.68208-12.04412 15.68208-11.867519999999999 15.68208-11.390699999999999 15.470159999999998-11.26708H15.43484Q15.399519999999999-11.26708 15.34654-11.26708T15.222919999999998-11.26708 15.063979999999999-11.249419999999999 14.90504-11.249419999999999Q14.216299999999999-11.23176 14.022039999999999-11.196439999999999T13.704159999999998-11.00218Q13.651179999999998-10.913879999999999 12.43264-6.0043999999999995T11.196439999999999-1.0242799999999999Q11.196439999999999-0.9006599999999999 11.26708-0.9006599999999999 11.408359999999998-0.84768 12.220719999999998-0.81236H12.76818Q12.874139999999999-0.6710799999999999 12.874139999999999-0.65342T12.821159999999999-0.33553999999999995Q12.75052-0.10596 12.644559999999998 0H12.37966Q11.726239999999999-0.03532 10.013219999999999-0.03532 9.41278-0.03532 8.90064-0.03532T8.08828-0.03532 7.71742-0.01766Q7.417199999999999-0.01766 7.417199999999999-0.17659999999999998 7.417199999999999-0.26489999999999997 7.470179999999999-0.42384 7.558479999999999-0.7593799999999999 7.64678-0.7947 7.71742-0.81236 7.91168-0.81236H8.01764Q8.49446-0.81236 9.07724-0.8653399999999999 9.1832-0.8829999999999999 9.21852-0.8829999999999999T9.32448-0.9712999999999999 9.430439999999999-1.13024 9.536399999999999-1.4481199999999999 9.66002-1.9425999999999999 9.85428-2.70198Q9.9779-3.1964599999999996 10.04854-3.4966799999999996 10.631319999999999-5.8278 10.631319999999999-5.845459999999999T8.07062-5.863119999999999H5.509919999999999L4.92714-3.47902Q4.3267-1.11258 4.3267-1.0242799999999999 4.3267-0.9006599999999999 4.46798-0.8653399999999999T5.35098-0.81236H5.89844Q6.0043999999999995-0.6710799999999999 6.0043999999999995-0.65342T5.95142-0.33553999999999995Q5.88078-0.10596 5.774819999999999 0H5.509919999999999Q4.8565-0.03532 3.14348-0.03532 2.54304-0.03532 2.0309-0.03532T1.21854-0.03532 0.84768-0.01766Q0.54746-0.01766 0.54746-0.17659999999999998 0.54746-0.21192 0.60044-0.42384 0.6887399999999999-0.7593799999999999 0.77704-0.7947 0.84768-0.81236 1.0419399999999999-0.81236H1.1479Q1.62472-0.81236 2.2075-0.8653399999999999 2.4547399999999997-0.9183199999999999 2.54304-1.0772599999999999 2.5960199999999998-1.1479 3.8145599999999997-5.986739999999999T5.033099999999999-11.09048Q5.033099999999999-11.214099999999998 4.026479999999999-11.249419999999999Z"
        fill-opacity="1"
      ></path>
    </svg>
  </g>
  <g>
    <path
      d="M 205.18876871905877 255.90767758036782 L 378.658635201837 355.447679887141"
      stroke-opacity="1"
      stroke-width="5"
      stroke="#000000"
      stroke-dasharray="7,5"
      stroke-linecap="butt"
    ></path>
    <title>`WBond_O1_H3`.symbol</title>
  </g>
  <g>
    <path
      d="M 218.53591776082794 355.01294246772636 L 205.18876871905877 255.90767758036782"
      stroke-opacity="1"
      stroke-width="1"
      stroke="#000000"
      stroke-linecap="butt"
    ></path>
    <title>`SBond_H2_O1`.symbol</title>
  </g>
  <g>
    <path
      d="M 297.48715467602904 217.42364341308848 L 205.18876871905877 255.90767758036782"
      stroke-opacity="1"
      stroke-width="1"
      stroke="#000000"
      stroke-linecap="butt"
    ></path>
    <title>`SBond_H1_O1`.symbol</title>
  </g>
  <circle
    fill="#ffffff"
    fill-opacity="1"
    cx="205.18876871905877"
    cy="255.90767758036782"
    stroke="none"
    r="10"
  >
    <title>`O1`.background</title>
  </circle>
  <g
    transform="rotate(0, 198.45147871905877, 247.0776775803678)translate(198.45147871905877, 247.0776775803678)"
    string="O"
  >
    <title>`O1`.symbol</title>
    <svg
      xmlns="http://www.w3.org/2000/svg"
      width="13.47458"
      height="17.66"
      role="img"
      focusable="false"
      viewBox="0.8829999999999999 -12.43264 12.1854 12.821159999999999"
    >
      <path
        stroke="none"
        fill="#000000"
        stroke-width="0"
        d="M13.068399999999999-7.682099999999999Q13.068399999999999-5.651199999999999 11.93816-3.76158T9.02426-0.7417199999999999 5.368639999999999 0.38852Q3.65562 0.38852 2.43708-0.6181T0.9006599999999999-3.54966Q0.8829999999999999-3.69094 0.8829999999999999-4.3090399999999995 0.8829999999999999-6.110359999999999 1.7306799999999998-7.735079999999999T4.00882-10.61366Q6.198659999999999-12.43264 8.40616-12.43264 9.07724-12.43264 9.253839999999999-12.41498 10.966859999999999-12.167739999999998 12.008799999999999-10.89622T13.068399999999999-7.682099999999999ZM11.249419999999999-8.40616Q11.249419999999999-9.9779 10.437059999999999-10.860899999999999T8.40616-11.743899999999998Q6.993359999999999-11.743899999999998 5.68652-10.684299999999999 4.27372-9.57172 3.5319999999999996-7.558479999999999T2.77262-3.8145599999999997Q2.77262-2.22516 3.5319999999999996-1.28918T5.54524-0.33553999999999995Q7.134639999999999-0.33553999999999995 8.5651-1.7306799999999998T10.737279999999998-5.5275799999999995Q11.249419999999999-7.205279999999999 11.249419999999999-8.40616Z"
        fill-opacity="1"
      ></path>
    </svg>
  </g>
  <g>
    <path
      d="M 439.0069453489907 501.6735907517589 L 465.3935842337322 405.217690097243"
      stroke-opacity="1"
      stroke-width="1"
      stroke="#000000"
      stroke-linecap="butt"
    ></path>
    <title>`SBond_H4_O2`.symbol</title>
  </g>
  <g>
    <path
      d="M 378.658635201837 355.447679887141 L 465.3935842337322 405.217690097243"
      stroke-opacity="1"
      stroke-width="1"
      stroke="#000000"
      stroke-linecap="butt"
    ></path>
    <title>`SBond_H3_O2`.symbol</title>
  </g>
  <circle
    fill="#ffffff"
    fill-opacity="1"
    cx="465.3935842337322"
    cy="405.217690097243"
    stroke="none"
    r="10"
  >
    <title>`O2`.background</title>
  </circle>
  <g
    transform="rotate(0, 458.65629423373224, 396.387690097243)translate(458.65629423373224, 396.387690097243)"
    string="O"
  >
    <title>`O2`.symbol</title>
    <svg
      xmlns="http://www.w3.org/2000/svg"
      width="13.47458"
      height="17.66"
      role="img"
      focusable="false"
      viewBox="0.8829999999999999 -12.43264 12.1854 12.821159999999999"
    >
      <path
        stroke="none"
        fill="#000000"
        stroke-width="0"
        d="M13.068399999999999-7.682099999999999Q13.068399999999999-5.651199999999999 11.93816-3.76158T9.02426-0.7417199999999999 5.368639999999999 0.38852Q3.65562 0.38852 2.43708-0.6181T0.9006599999999999-3.54966Q0.8829999999999999-3.69094 0.8829999999999999-4.3090399999999995 0.8829999999999999-6.110359999999999 1.7306799999999998-7.735079999999999T4.00882-10.61366Q6.198659999999999-12.43264 8.40616-12.43264 9.07724-12.43264 9.253839999999999-12.41498 10.966859999999999-12.167739999999998 12.008799999999999-10.89622T13.068399999999999-7.682099999999999ZM11.249419999999999-8.40616Q11.249419999999999-9.9779 10.437059999999999-10.860899999999999T8.40616-11.743899999999998Q6.993359999999999-11.743899999999998 5.68652-10.684299999999999 4.27372-9.57172 3.5319999999999996-7.558479999999999T2.77262-3.8145599999999997Q2.77262-2.22516 3.5319999999999996-1.28918T5.54524-0.33553999999999995Q7.134639999999999-0.33553999999999995 8.5651-1.7306799999999998T10.737279999999998-5.5275799999999995Q11.249419999999999-7.205279999999999 11.249419999999999-8.40616Z"
        fill-opacity="1"
      ></path>
    </svg>
  </g>
  <g>
    <path
      d="M 331.7518952201342 603.3631606261966 L 245.23021468370877 553.2234635455131"
      stroke-opacity="1"
      stroke-width="1"
      stroke="#000000"
      stroke-linecap="butt"
    ></path>
    <title>`SBond_H7_O4`.symbol</title>
  </g>
  <g>
    <path
      d="M 218.53591776082794 355.01294246772636 L 245.23021468370877 553.2234635455131"
      stroke-opacity="1"
      stroke-width="5"
      stroke="#000000"
      stroke-dasharray="7,5"
      stroke-linecap="butt"
    ></path>
    <title>`WBond_H2_O4`.symbol</title>
  </g>
  <circle
    fill="#ffffff"
    fill-opacity="1"
    cx="245.23021468370877"
    cy="553.2234635455131"
    stroke="none"
    r="10"
  >
    <title>`O4`.background</title>
  </circle>
  <g
    transform="rotate(0, 238.49292468370876, 544.3934635455131)translate(238.49292468370876, 544.3934635455131)"
    string="O"
  >
    <title>`O4`.symbol</title>
    <svg
      xmlns="http://www.w3.org/2000/svg"
      width="13.47458"
      height="17.66"
      role="img"
      focusable="false"
      viewBox="0.8829999999999999 -12.43264 12.1854 12.821159999999999"
    >
      <path
        stroke="none"
        fill="#000000"
        stroke-width="0"
        d="M13.068399999999999-7.682099999999999Q13.068399999999999-5.651199999999999 11.93816-3.76158T9.02426-0.7417199999999999 5.368639999999999 0.38852Q3.65562 0.38852 2.43708-0.6181T0.9006599999999999-3.54966Q0.8829999999999999-3.69094 0.8829999999999999-4.3090399999999995 0.8829999999999999-6.110359999999999 1.7306799999999998-7.735079999999999T4.00882-10.61366Q6.198659999999999-12.43264 8.40616-12.43264 9.07724-12.43264 9.253839999999999-12.41498 10.966859999999999-12.167739999999998 12.008799999999999-10.89622T13.068399999999999-7.682099999999999ZM11.249419999999999-8.40616Q11.249419999999999-9.9779 10.437059999999999-10.860899999999999T8.40616-11.743899999999998Q6.993359999999999-11.743899999999998 5.68652-10.684299999999999 4.27372-9.57172 3.5319999999999996-7.558479999999999T2.77262-3.8145599999999997Q2.77262-2.22516 3.5319999999999996-1.28918T5.54524-0.33553999999999995Q7.134639999999999-0.33553999999999995 8.5651-1.7306799999999998T10.737279999999998-5.5275799999999995Q11.249419999999999-7.205279999999999 11.249419999999999-8.40616Z"
        fill-opacity="1"
      ></path>
    </svg>
  </g>
  <circle
    fill="#ffffff"
    fill-opacity="1"
    cx="378.658635201837"
    cy="355.447679887141"
    stroke="none"
    r="10"
  >
    <title>`H3`.background</title>
  </circle>
  <g
    transform="rotate(0, 370.817595201837, 346.61767988714104)translate(370.817595201837, 346.61767988714104)"
    string="H"
  >
    <title>`H3`.symbol</title>
    <svg
      xmlns="http://www.w3.org/2000/svg"
      width="15.68208"
      height="17.66"
      role="img"
      focusable="false"
      viewBox="0.54746 -12.061779999999999 15.13462 12.061779999999999"
    >
      <path
        stroke="none"
        fill="#000000"
        stroke-width="0"
        d="M4.026479999999999-11.249419999999999Q3.4260399999999995-11.249419999999999 3.39072-11.32006 3.3730599999999997-11.355379999999998 3.3730599999999997-11.46134 3.3730599999999997-11.885179999999998 3.5673199999999996-12.04412 3.6026399999999996-12.061779999999999 3.8675399999999995-12.061779999999999 4.5916-12.026459999999998 6.269299999999999-12.026459999999998 6.869739999999999-12.026459999999998 7.38188-12.026459999999998T8.17658-12.04412 8.529779999999999-12.04412Q8.812339999999999-12.04412 8.812339999999999-11.867519999999999 8.812339999999999-11.832199999999998 8.777019999999998-11.62028 8.68872-11.32006 8.60042-11.26708H8.5651Q8.529779999999999-11.26708 8.476799999999999-11.26708T8.35318-11.26708 8.194239999999999-11.249419999999999 8.0353-11.249419999999999Q7.346559999999999-11.23176 7.152299999999999-11.196439999999999T6.83442-11.00218Q6.78144-10.931539999999998 6.269299999999999-8.83 6.14568-8.37084 6.0043999999999995-7.805719999999999T5.792479999999999-6.9757L5.721839999999999-6.7108Q5.721839999999999-6.675479999999999 8.28254-6.675479999999999H10.84324L10.860899999999999-6.728459999999999Q10.860899999999999-6.78144 11.408359999999998-8.90064 11.90284-10.931539999999998 11.90284-11.072819999999998T10.89622-11.249419999999999Q10.490039999999999-11.249419999999999 10.36642-11.28474T10.242799999999999-11.443679999999999Q10.242799999999999-11.479 10.27812-11.6556 10.348759999999999-11.95582 10.384079999999999-11.99114T10.66664-12.04412Q10.75494-12.04412 11.408359999999998-12.026459999999998T13.068399999999999-12.008799999999999Q14.163319999999999-12.008799999999999 14.746099999999998-12.026459999999998T15.38186-12.04412Q15.68208-12.04412 15.68208-11.867519999999999 15.68208-11.390699999999999 15.470159999999998-11.26708H15.43484Q15.399519999999999-11.26708 15.34654-11.26708T15.222919999999998-11.26708 15.063979999999999-11.249419999999999 14.90504-11.249419999999999Q14.216299999999999-11.23176 14.022039999999999-11.196439999999999T13.704159999999998-11.00218Q13.651179999999998-10.913879999999999 12.43264-6.0043999999999995T11.196439999999999-1.0242799999999999Q11.196439999999999-0.9006599999999999 11.26708-0.9006599999999999 11.408359999999998-0.84768 12.220719999999998-0.81236H12.76818Q12.874139999999999-0.6710799999999999 12.874139999999999-0.65342T12.821159999999999-0.33553999999999995Q12.75052-0.10596 12.644559999999998 0H12.37966Q11.726239999999999-0.03532 10.013219999999999-0.03532 9.41278-0.03532 8.90064-0.03532T8.08828-0.03532 7.71742-0.01766Q7.417199999999999-0.01766 7.417199999999999-0.17659999999999998 7.417199999999999-0.26489999999999997 7.470179999999999-0.42384 7.558479999999999-0.7593799999999999 7.64678-0.7947 7.71742-0.81236 7.91168-0.81236H8.01764Q8.49446-0.81236 9.07724-0.8653399999999999 9.1832-0.8829999999999999 9.21852-0.8829999999999999T9.32448-0.9712999999999999 9.430439999999999-1.13024 9.536399999999999-1.4481199999999999 9.66002-1.9425999999999999 9.85428-2.70198Q9.9779-3.1964599999999996 10.04854-3.4966799999999996 10.631319999999999-5.8278 10.631319999999999-5.845459999999999T8.07062-5.863119999999999H5.509919999999999L4.92714-3.47902Q4.3267-1.11258 4.3267-1.0242799999999999 4.3267-0.9006599999999999 4.46798-0.8653399999999999T5.35098-0.81236H5.89844Q6.0043999999999995-0.6710799999999999 6.0043999999999995-0.65342T5.95142-0.33553999999999995Q5.88078-0.10596 5.774819999999999 0H5.509919999999999Q4.8565-0.03532 3.14348-0.03532 2.54304-0.03532 2.0309-0.03532T1.21854-0.03532 0.84768-0.01766Q0.54746-0.01766 0.54746-0.17659999999999998 0.54746-0.21192 0.60044-0.42384 0.6887399999999999-0.7593799999999999 0.77704-0.7947 0.84768-0.81236 1.0419399999999999-0.81236H1.1479Q1.62472-0.81236 2.2075-0.8653399999999999 2.4547399999999997-0.9183199999999999 2.54304-1.0772599999999999 2.5960199999999998-1.1479 3.8145599999999997-5.986739999999999T5.033099999999999-11.09048Q5.033099999999999-11.214099999999998 4.026479999999999-11.249419999999999Z"
        fill-opacity="1"
      ></path>
    </svg>
  </g>
  <circle
    fill="#ffffff"
    fill-opacity="1"
    cx="218.53591776082794"
    cy="355.01294246772636"
    stroke="none"
    r="10"
  >
    <title>`H2`.background</title>
  </circle>
  <g
    transform="rotate(0, 210.69487776082795, 346.1829424677264)translate(210.69487776082795, 346.1829424677264)"
    string="H"
  >
    <title>`H2`.symbol</title>
    <svg
      xmlns="http://www.w3.org/2000/svg"
      width="15.68208"
      height="17.66"
      role="img"
      focusable="false"
      viewBox="0.54746 -12.061779999999999 15.13462 12.061779999999999"
    >
      <path
        stroke="none"
        fill="#000000"
        stroke-width="0"
        d="M4.026479999999999-11.249419999999999Q3.4260399999999995-11.249419999999999 3.39072-11.32006 3.3730599999999997-11.355379999999998 3.3730599999999997-11.46134 3.3730599999999997-11.885179999999998 3.5673199999999996-12.04412 3.6026399999999996-12.061779999999999 3.8675399999999995-12.061779999999999 4.5916-12.026459999999998 6.269299999999999-12.026459999999998 6.869739999999999-12.026459999999998 7.38188-12.026459999999998T8.17658-12.04412 8.529779999999999-12.04412Q8.812339999999999-12.04412 8.812339999999999-11.867519999999999 8.812339999999999-11.832199999999998 8.777019999999998-11.62028 8.68872-11.32006 8.60042-11.26708H8.5651Q8.529779999999999-11.26708 8.476799999999999-11.26708T8.35318-11.26708 8.194239999999999-11.249419999999999 8.0353-11.249419999999999Q7.346559999999999-11.23176 7.152299999999999-11.196439999999999T6.83442-11.00218Q6.78144-10.931539999999998 6.269299999999999-8.83 6.14568-8.37084 6.0043999999999995-7.805719999999999T5.792479999999999-6.9757L5.721839999999999-6.7108Q5.721839999999999-6.675479999999999 8.28254-6.675479999999999H10.84324L10.860899999999999-6.728459999999999Q10.860899999999999-6.78144 11.408359999999998-8.90064 11.90284-10.931539999999998 11.90284-11.072819999999998T10.89622-11.249419999999999Q10.490039999999999-11.249419999999999 10.36642-11.28474T10.242799999999999-11.443679999999999Q10.242799999999999-11.479 10.27812-11.6556 10.348759999999999-11.95582 10.384079999999999-11.99114T10.66664-12.04412Q10.75494-12.04412 11.408359999999998-12.026459999999998T13.068399999999999-12.008799999999999Q14.163319999999999-12.008799999999999 14.746099999999998-12.026459999999998T15.38186-12.04412Q15.68208-12.04412 15.68208-11.867519999999999 15.68208-11.390699999999999 15.470159999999998-11.26708H15.43484Q15.399519999999999-11.26708 15.34654-11.26708T15.222919999999998-11.26708 15.063979999999999-11.249419999999999 14.90504-11.249419999999999Q14.216299999999999-11.23176 14.022039999999999-11.196439999999999T13.704159999999998-11.00218Q13.651179999999998-10.913879999999999 12.43264-6.0043999999999995T11.196439999999999-1.0242799999999999Q11.196439999999999-0.9006599999999999 11.26708-0.9006599999999999 11.408359999999998-0.84768 12.220719999999998-0.81236H12.76818Q12.874139999999999-0.6710799999999999 12.874139999999999-0.65342T12.821159999999999-0.33553999999999995Q12.75052-0.10596 12.644559999999998 0H12.37966Q11.726239999999999-0.03532 10.013219999999999-0.03532 9.41278-0.03532 8.90064-0.03532T8.08828-0.03532 7.71742-0.01766Q7.417199999999999-0.01766 7.417199999999999-0.17659999999999998 7.417199999999999-0.26489999999999997 7.470179999999999-0.42384 7.558479999999999-0.7593799999999999 7.64678-0.7947 7.71742-0.81236 7.91168-0.81236H8.01764Q8.49446-0.81236 9.07724-0.8653399999999999 9.1832-0.8829999999999999 9.21852-0.8829999999999999T9.32448-0.9712999999999999 9.430439999999999-1.13024 9.536399999999999-1.4481199999999999 9.66002-1.9425999999999999 9.85428-2.70198Q9.9779-3.1964599999999996 10.04854-3.4966799999999996 10.631319999999999-5.8278 10.631319999999999-5.845459999999999T8.07062-5.863119999999999H5.509919999999999L4.92714-3.47902Q4.3267-1.11258 4.3267-1.0242799999999999 4.3267-0.9006599999999999 4.46798-0.8653399999999999T5.35098-0.81236H5.89844Q6.0043999999999995-0.6710799999999999 6.0043999999999995-0.65342T5.95142-0.33553999999999995Q5.88078-0.10596 5.774819999999999 0H5.509919999999999Q4.8565-0.03532 3.14348-0.03532 2.54304-0.03532 2.0309-0.03532T1.21854-0.03532 0.84768-0.01766Q0.54746-0.01766 0.54746-0.17659999999999998 0.54746-0.21192 0.60044-0.42384 0.6887399999999999-0.7593799999999999 0.77704-0.7947 0.84768-0.81236 1.0419399999999999-0.81236H1.1479Q1.62472-0.81236 2.2075-0.8653399999999999 2.4547399999999997-0.9183199999999999 2.54304-1.0772599999999999 2.5960199999999998-1.1479 3.8145599999999997-5.986739999999999T5.033099999999999-11.09048Q5.033099999999999-11.214099999999998 4.026479999999999-11.249419999999999Z"
        fill-opacity="1"
      ></path>
    </svg>
  </g>
  <circle
    fill="#ffffff"
    fill-opacity="1"
    cx="439.0069453489907"
    cy="501.6735907517589"
    stroke="none"
    r="10"
  >
    <title>`H4`.background</title>
  </circle>
  <g
    transform="rotate(0, 431.1659053489907, 492.84359075175894)translate(431.1659053489907, 492.84359075175894)"
    string="H"
  >
    <title>`H4`.symbol</title>
    <svg
      xmlns="http://www.w3.org/2000/svg"
      width="15.68208"
      height="17.66"
      role="img"
      focusable="false"
      viewBox="0.54746 -12.061779999999999 15.13462 12.061779999999999"
    >
      <path
        stroke="none"
        fill="#000000"
        stroke-width="0"
        d="M4.026479999999999-11.249419999999999Q3.4260399999999995-11.249419999999999 3.39072-11.32006 3.3730599999999997-11.355379999999998 3.3730599999999997-11.46134 3.3730599999999997-11.885179999999998 3.5673199999999996-12.04412 3.6026399999999996-12.061779999999999 3.8675399999999995-12.061779999999999 4.5916-12.026459999999998 6.269299999999999-12.026459999999998 6.869739999999999-12.026459999999998 7.38188-12.026459999999998T8.17658-12.04412 8.529779999999999-12.04412Q8.812339999999999-12.04412 8.812339999999999-11.867519999999999 8.812339999999999-11.832199999999998 8.777019999999998-11.62028 8.68872-11.32006 8.60042-11.26708H8.5651Q8.529779999999999-11.26708 8.476799999999999-11.26708T8.35318-11.26708 8.194239999999999-11.249419999999999 8.0353-11.249419999999999Q7.346559999999999-11.23176 7.152299999999999-11.196439999999999T6.83442-11.00218Q6.78144-10.931539999999998 6.269299999999999-8.83 6.14568-8.37084 6.0043999999999995-7.805719999999999T5.792479999999999-6.9757L5.721839999999999-6.7108Q5.721839999999999-6.675479999999999 8.28254-6.675479999999999H10.84324L10.860899999999999-6.728459999999999Q10.860899999999999-6.78144 11.408359999999998-8.90064 11.90284-10.931539999999998 11.90284-11.072819999999998T10.89622-11.249419999999999Q10.490039999999999-11.249419999999999 10.36642-11.28474T10.242799999999999-11.443679999999999Q10.242799999999999-11.479 10.27812-11.6556 10.348759999999999-11.95582 10.384079999999999-11.99114T10.66664-12.04412Q10.75494-12.04412 11.408359999999998-12.026459999999998T13.068399999999999-12.008799999999999Q14.163319999999999-12.008799999999999 14.746099999999998-12.026459999999998T15.38186-12.04412Q15.68208-12.04412 15.68208-11.867519999999999 15.68208-11.390699999999999 15.470159999999998-11.26708H15.43484Q15.399519999999999-11.26708 15.34654-11.26708T15.222919999999998-11.26708 15.063979999999999-11.249419999999999 14.90504-11.249419999999999Q14.216299999999999-11.23176 14.022039999999999-11.196439999999999T13.704159999999998-11.00218Q13.651179999999998-10.913879999999999 12.43264-6.0043999999999995T11.196439999999999-1.0242799999999999Q11.196439999999999-0.9006599999999999 11.26708-0.9006599999999999 11.408359999999998-0.84768 12.220719999999998-0.81236H12.76818Q12.874139999999999-0.6710799999999999 12.874139999999999-0.65342T12.821159999999999-0.33553999999999995Q12.75052-0.10596 12.644559999999998 0H12.37966Q11.726239999999999-0.03532 10.013219999999999-0.03532 9.41278-0.03532 8.90064-0.03532T8.08828-0.03532 7.71742-0.01766Q7.417199999999999-0.01766 7.417199999999999-0.17659999999999998 7.417199999999999-0.26489999999999997 7.470179999999999-0.42384 7.558479999999999-0.7593799999999999 7.64678-0.7947 7.71742-0.81236 7.91168-0.81236H8.01764Q8.49446-0.81236 9.07724-0.8653399999999999 9.1832-0.8829999999999999 9.21852-0.8829999999999999T9.32448-0.9712999999999999 9.430439999999999-1.13024 9.536399999999999-1.4481199999999999 9.66002-1.9425999999999999 9.85428-2.70198Q9.9779-3.1964599999999996 10.04854-3.4966799999999996 10.631319999999999-5.8278 10.631319999999999-5.845459999999999T8.07062-5.863119999999999H5.509919999999999L4.92714-3.47902Q4.3267-1.11258 4.3267-1.0242799999999999 4.3267-0.9006599999999999 4.46798-0.8653399999999999T5.35098-0.81236H5.89844Q6.0043999999999995-0.6710799999999999 6.0043999999999995-0.65342T5.95142-0.33553999999999995Q5.88078-0.10596 5.774819999999999 0H5.509919999999999Q4.8565-0.03532 3.14348-0.03532 2.54304-0.03532 2.0309-0.03532T1.21854-0.03532 0.84768-0.01766Q0.54746-0.01766 0.54746-0.17659999999999998 0.54746-0.21192 0.60044-0.42384 0.6887399999999999-0.7593799999999999 0.77704-0.7947 0.84768-0.81236 1.0419399999999999-0.81236H1.1479Q1.62472-0.81236 2.2075-0.8653399999999999 2.4547399999999997-0.9183199999999999 2.54304-1.0772599999999999 2.5960199999999998-1.1479 3.8145599999999997-5.986739999999999T5.033099999999999-11.09048Q5.033099999999999-11.214099999999998 4.026479999999999-11.249419999999999Z"
        fill-opacity="1"
      ></path>
    </svg>
  </g>
  <g>
    <path
      d="M 385.1542132528332 165.04512209832808 L 482.0838571421277 140.45560402170292"
      stroke-opacity="1"
      stroke-width="1"
      stroke="#000000"
      stroke-linecap="butt"
    ></path>
    <title>`SBond_H6_O3`.symbol</title>
  </g>
  <circle
    fill="#ffffff"
    fill-opacity="1"
    cx="385.1542132528332"
    cy="165.04512209832808"
    stroke="none"
    r="10"
  >
    <title>`H6`.background</title>
  </circle>
  <g
    transform="rotate(0, 377.31317325283317, 156.21512209832807)translate(377.31317325283317, 156.21512209832807)"
    string="H"
  >
    <title>`H6`.symbol</title>
    <svg
      xmlns="http://www.w3.org/2000/svg"
      width="15.68208"
      height="17.66"
      role="img"
      focusable="false"
      viewBox="0.54746 -12.061779999999999 15.13462 12.061779999999999"
    >
      <path
        stroke="none"
        fill="#000000"
        stroke-width="0"
        d="M4.026479999999999-11.249419999999999Q3.4260399999999995-11.249419999999999 3.39072-11.32006 3.3730599999999997-11.355379999999998 3.3730599999999997-11.46134 3.3730599999999997-11.885179999999998 3.5673199999999996-12.04412 3.6026399999999996-12.061779999999999 3.8675399999999995-12.061779999999999 4.5916-12.026459999999998 6.269299999999999-12.026459999999998 6.869739999999999-12.026459999999998 7.38188-12.026459999999998T8.17658-12.04412 8.529779999999999-12.04412Q8.812339999999999-12.04412 8.812339999999999-11.867519999999999 8.812339999999999-11.832199999999998 8.777019999999998-11.62028 8.68872-11.32006 8.60042-11.26708H8.5651Q8.529779999999999-11.26708 8.476799999999999-11.26708T8.35318-11.26708 8.194239999999999-11.249419999999999 8.0353-11.249419999999999Q7.346559999999999-11.23176 7.152299999999999-11.196439999999999T6.83442-11.00218Q6.78144-10.931539999999998 6.269299999999999-8.83 6.14568-8.37084 6.0043999999999995-7.805719999999999T5.792479999999999-6.9757L5.721839999999999-6.7108Q5.721839999999999-6.675479999999999 8.28254-6.675479999999999H10.84324L10.860899999999999-6.728459999999999Q10.860899999999999-6.78144 11.408359999999998-8.90064 11.90284-10.931539999999998 11.90284-11.072819999999998T10.89622-11.249419999999999Q10.490039999999999-11.249419999999999 10.36642-11.28474T10.242799999999999-11.443679999999999Q10.242799999999999-11.479 10.27812-11.6556 10.348759999999999-11.95582 10.384079999999999-11.99114T10.66664-12.04412Q10.75494-12.04412 11.408359999999998-12.026459999999998T13.068399999999999-12.008799999999999Q14.163319999999999-12.008799999999999 14.746099999999998-12.026459999999998T15.38186-12.04412Q15.68208-12.04412 15.68208-11.867519999999999 15.68208-11.390699999999999 15.470159999999998-11.26708H15.43484Q15.399519999999999-11.26708 15.34654-11.26708T15.222919999999998-11.26708 15.063979999999999-11.249419999999999 14.90504-11.249419999999999Q14.216299999999999-11.23176 14.022039999999999-11.196439999999999T13.704159999999998-11.00218Q13.651179999999998-10.913879999999999 12.43264-6.0043999999999995T11.196439999999999-1.0242799999999999Q11.196439999999999-0.9006599999999999 11.26708-0.9006599999999999 11.408359999999998-0.84768 12.220719999999998-0.81236H12.76818Q12.874139999999999-0.6710799999999999 12.874139999999999-0.65342T12.821159999999999-0.33553999999999995Q12.75052-0.10596 12.644559999999998 0H12.37966Q11.726239999999999-0.03532 10.013219999999999-0.03532 9.41278-0.03532 8.90064-0.03532T8.08828-0.03532 7.71742-0.01766Q7.417199999999999-0.01766 7.417199999999999-0.17659999999999998 7.417199999999999-0.26489999999999997 7.470179999999999-0.42384 7.558479999999999-0.7593799999999999 7.64678-0.7947 7.71742-0.81236 7.91168-0.81236H8.01764Q8.49446-0.81236 9.07724-0.8653399999999999 9.1832-0.8829999999999999 9.21852-0.8829999999999999T9.32448-0.9712999999999999 9.430439999999999-1.13024 9.536399999999999-1.4481199999999999 9.66002-1.9425999999999999 9.85428-2.70198Q9.9779-3.1964599999999996 10.04854-3.4966799999999996 10.631319999999999-5.8278 10.631319999999999-5.845459999999999T8.07062-5.863119999999999H5.509919999999999L4.92714-3.47902Q4.3267-1.11258 4.3267-1.0242799999999999 4.3267-0.9006599999999999 4.46798-0.8653399999999999T5.35098-0.81236H5.89844Q6.0043999999999995-0.6710799999999999 6.0043999999999995-0.65342T5.95142-0.33553999999999995Q5.88078-0.10596 5.774819999999999 0H5.509919999999999Q4.8565-0.03532 3.14348-0.03532 2.54304-0.03532 2.0309-0.03532T1.21854-0.03532 0.84768-0.01766Q0.54746-0.01766 0.54746-0.17659999999999998 0.54746-0.21192 0.60044-0.42384 0.6887399999999999-0.7593799999999999 0.77704-0.7947 0.84768-0.81236 1.0419399999999999-0.81236H1.1479Q1.62472-0.81236 2.2075-0.8653399999999999 2.4547399999999997-0.9183199999999999 2.54304-1.0772599999999999 2.5960199999999998-1.1479 3.8145599999999997-5.986739999999999T5.033099999999999-11.09048Q5.033099999999999-11.214099999999998 4.026479999999999-11.249419999999999Z"
        fill-opacity="1"
      ></path>
    </svg>
  </g>
  <g>
    <path
      d="M 297.48715467602904 217.42364341308848 L 482.0838571421277 140.45560402170292"
      stroke-opacity="1"
      stroke-width="5"
      stroke="#000000"
      stroke-dasharray="7,5"
      stroke-linecap="butt"
    ></path>
    <title>`WBond_H1_O3`.symbol</title>
  </g>
  <g>
    <path
      d="M 579.0135349495928 115.86607179946986 L 482.0838571421277 140.45560402170292"
      stroke-opacity="1"
      stroke-width="1"
      stroke="#000000"
      stroke-linecap="butt"
    ></path>
    <title>`SBond_H5_O3`.symbol</title>
  </g>
  <circle
    fill="#ffffff"
    fill-opacity="1"
    cx="482.0838571421277"
    cy="140.45560402170292"
    stroke="none"
    r="10"
  >
    <title>`O3`.background</title>
  </circle>
  <g
    transform="rotate(0, 475.34656714212775, 131.6256040217029)translate(475.34656714212775, 131.6256040217029)"
    string="O"
  >
    <title>`O3`.symbol</title>
    <svg
      xmlns="http://www.w3.org/2000/svg"
      width="13.47458"
      height="17.66"
      role="img"
      focusable="false"
      viewBox="0.8829999999999999 -12.43264 12.1854 12.821159999999999"
    >
      <path
        stroke="none"
        fill="#000000"
        stroke-width="0"
        d="M13.068399999999999-7.682099999999999Q13.068399999999999-5.651199999999999 11.93816-3.76158T9.02426-0.7417199999999999 5.368639999999999 0.38852Q3.65562 0.38852 2.43708-0.6181T0.9006599999999999-3.54966Q0.8829999999999999-3.69094 0.8829999999999999-4.3090399999999995 0.8829999999999999-6.110359999999999 1.7306799999999998-7.735079999999999T4.00882-10.61366Q6.198659999999999-12.43264 8.40616-12.43264 9.07724-12.43264 9.253839999999999-12.41498 10.966859999999999-12.167739999999998 12.008799999999999-10.89622T13.068399999999999-7.682099999999999ZM11.249419999999999-8.40616Q11.249419999999999-9.9779 10.437059999999999-10.860899999999999T8.40616-11.743899999999998Q6.993359999999999-11.743899999999998 5.68652-10.684299999999999 4.27372-9.57172 3.5319999999999996-7.558479999999999T2.77262-3.8145599999999997Q2.77262-2.22516 3.5319999999999996-1.28918T5.54524-0.33553999999999995Q7.134639999999999-0.33553999999999995 8.5651-1.7306799999999998T10.737279999999998-5.5275799999999995Q11.249419999999999-7.205279999999999 11.249419999999999-8.40616Z"
        fill-opacity="1"
      ></path>
    </svg>
  </g>
  <circle
    fill="#ffffff"
    fill-opacity="1"
    cx="331.7518952201342"
    cy="603.3631606261966"
    stroke="none"
    r="10"
  >
    <title>`H7`.background</title>
  </circle>
  <g
    transform="rotate(0, 323.9108552201342, 594.5331606261966)translate(323.9108552201342, 594.5331606261966)"
    string="H"
  >
    <title>`H7`.symbol</title>
    <svg
      xmlns="http://www.w3.org/2000/svg"
      width="15.68208"
      height="17.66"
      role="img"
      focusable="false"
      viewBox="0.54746 -12.061779999999999 15.13462 12.061779999999999"
    >
      <path
        stroke="none"
        fill="#000000"
        stroke-width="0"
        d="M4.026479999999999-11.249419999999999Q3.4260399999999995-11.249419999999999 3.39072-11.32006 3.3730599999999997-11.355379999999998 3.3730599999999997-11.46134 3.3730599999999997-11.885179999999998 3.5673199999999996-12.04412 3.6026399999999996-12.061779999999999 3.8675399999999995-12.061779999999999 4.5916-12.026459999999998 6.269299999999999-12.026459999999998 6.869739999999999-12.026459999999998 7.38188-12.026459999999998T8.17658-12.04412 8.529779999999999-12.04412Q8.812339999999999-12.04412 8.812339999999999-11.867519999999999 8.812339999999999-11.832199999999998 8.777019999999998-11.62028 8.68872-11.32006 8.60042-11.26708H8.5651Q8.529779999999999-11.26708 8.476799999999999-11.26708T8.35318-11.26708 8.194239999999999-11.249419999999999 8.0353-11.249419999999999Q7.346559999999999-11.23176 7.152299999999999-11.196439999999999T6.83442-11.00218Q6.78144-10.931539999999998 6.269299999999999-8.83 6.14568-8.37084 6.0043999999999995-7.805719999999999T5.792479999999999-6.9757L5.721839999999999-6.7108Q5.721839999999999-6.675479999999999 8.28254-6.675479999999999H10.84324L10.860899999999999-6.728459999999999Q10.860899999999999-6.78144 11.408359999999998-8.90064 11.90284-10.931539999999998 11.90284-11.072819999999998T10.89622-11.249419999999999Q10.490039999999999-11.249419999999999 10.36642-11.28474T10.242799999999999-11.443679999999999Q10.242799999999999-11.479 10.27812-11.6556 10.348759999999999-11.95582 10.384079999999999-11.99114T10.66664-12.04412Q10.75494-12.04412 11.408359999999998-12.026459999999998T13.068399999999999-12.008799999999999Q14.163319999999999-12.008799999999999 14.746099999999998-12.026459999999998T15.38186-12.04412Q15.68208-12.04412 15.68208-11.867519999999999 15.68208-11.390699999999999 15.470159999999998-11.26708H15.43484Q15.399519999999999-11.26708 15.34654-11.26708T15.222919999999998-11.26708 15.063979999999999-11.249419999999999 14.90504-11.249419999999999Q14.216299999999999-11.23176 14.022039999999999-11.196439999999999T13.704159999999998-11.00218Q13.651179999999998-10.913879999999999 12.43264-6.0043999999999995T11.196439999999999-1.0242799999999999Q11.196439999999999-0.9006599999999999 11.26708-0.9006599999999999 11.408359999999998-0.84768 12.220719999999998-0.81236H12.76818Q12.874139999999999-0.6710799999999999 12.874139999999999-0.65342T12.821159999999999-0.33553999999999995Q12.75052-0.10596 12.644559999999998 0H12.37966Q11.726239999999999-0.03532 10.013219999999999-0.03532 9.41278-0.03532 8.90064-0.03532T8.08828-0.03532 7.71742-0.01766Q7.417199999999999-0.01766 7.417199999999999-0.17659999999999998 7.417199999999999-0.26489999999999997 7.470179999999999-0.42384 7.558479999999999-0.7593799999999999 7.64678-0.7947 7.71742-0.81236 7.91168-0.81236H8.01764Q8.49446-0.81236 9.07724-0.8653399999999999 9.1832-0.8829999999999999 9.21852-0.8829999999999999T9.32448-0.9712999999999999 9.430439999999999-1.13024 9.536399999999999-1.4481199999999999 9.66002-1.9425999999999999 9.85428-2.70198Q9.9779-3.1964599999999996 10.04854-3.4966799999999996 10.631319999999999-5.8278 10.631319999999999-5.845459999999999T8.07062-5.863119999999999H5.509919999999999L4.92714-3.47902Q4.3267-1.11258 4.3267-1.0242799999999999 4.3267-0.9006599999999999 4.46798-0.8653399999999999T5.35098-0.81236H5.89844Q6.0043999999999995-0.6710799999999999 6.0043999999999995-0.65342T5.95142-0.33553999999999995Q5.88078-0.10596 5.774819999999999 0H5.509919999999999Q4.8565-0.03532 3.14348-0.03532 2.54304-0.03532 2.0309-0.03532T1.21854-0.03532 0.84768-0.01766Q0.54746-0.01766 0.54746-0.17659999999999998 0.54746-0.21192 0.60044-0.42384 0.6887399999999999-0.7593799999999999 0.77704-0.7947 0.84768-0.81236 1.0419399999999999-0.81236H1.1479Q1.62472-0.81236 2.2075-0.8653399999999999 2.4547399999999997-0.9183199999999999 2.54304-1.0772599999999999 2.5960199999999998-1.1479 3.8145599999999997-5.986739999999999T5.033099999999999-11.09048Q5.033099999999999-11.214099999999998 4.026479999999999-11.249419999999999Z"
        fill-opacity="1"
      ></path>
    </svg>
  </g>
  <circle
    fill="#ffffff"
    fill-opacity="1"
    cx="579.0135349495928"
    cy="115.86607179946986"
    stroke="none"
    r="10"
  >
    <title>`H5`.background</title>
  </circle>
  <g
    transform="rotate(0, 571.1724949495928, 107.03607179946987)translate(571.1724949495928, 107.03607179946987)"
    string="H"
  >
    <title>`H5`.symbol</title>
    <svg
      xmlns="http://www.w3.org/2000/svg"
      width="15.68208"
      height="17.66"
      role="img"
      focusable="false"
      viewBox="0.54746 -12.061779999999999 15.13462 12.061779999999999"
    >
      <path
        stroke="none"
        fill="#000000"
        stroke-width="0"
        d="M4.026479999999999-11.249419999999999Q3.4260399999999995-11.249419999999999 3.39072-11.32006 3.3730599999999997-11.355379999999998 3.3730599999999997-11.46134 3.3730599999999997-11.885179999999998 3.5673199999999996-12.04412 3.6026399999999996-12.061779999999999 3.8675399999999995-12.061779999999999 4.5916-12.026459999999998 6.269299999999999-12.026459999999998 6.869739999999999-12.026459999999998 7.38188-12.026459999999998T8.17658-12.04412 8.529779999999999-12.04412Q8.812339999999999-12.04412 8.812339999999999-11.867519999999999 8.812339999999999-11.832199999999998 8.777019999999998-11.62028 8.68872-11.32006 8.60042-11.26708H8.5651Q8.529779999999999-11.26708 8.476799999999999-11.26708T8.35318-11.26708 8.194239999999999-11.249419999999999 8.0353-11.249419999999999Q7.346559999999999-11.23176 7.152299999999999-11.196439999999999T6.83442-11.00218Q6.78144-10.931539999999998 6.269299999999999-8.83 6.14568-8.37084 6.0043999999999995-7.805719999999999T5.792479999999999-6.9757L5.721839999999999-6.7108Q5.721839999999999-6.675479999999999 8.28254-6.675479999999999H10.84324L10.860899999999999-6.728459999999999Q10.860899999999999-6.78144 11.408359999999998-8.90064 11.90284-10.931539999999998 11.90284-11.072819999999998T10.89622-11.249419999999999Q10.490039999999999-11.249419999999999 10.36642-11.28474T10.242799999999999-11.443679999999999Q10.242799999999999-11.479 10.27812-11.6556 10.348759999999999-11.95582 10.384079999999999-11.99114T10.66664-12.04412Q10.75494-12.04412 11.408359999999998-12.026459999999998T13.068399999999999-12.008799999999999Q14.163319999999999-12.008799999999999 14.746099999999998-12.026459999999998T15.38186-12.04412Q15.68208-12.04412 15.68208-11.867519999999999 15.68208-11.390699999999999 15.470159999999998-11.26708H15.43484Q15.399519999999999-11.26708 15.34654-11.26708T15.222919999999998-11.26708 15.063979999999999-11.249419999999999 14.90504-11.249419999999999Q14.216299999999999-11.23176 14.022039999999999-11.196439999999999T13.704159999999998-11.00218Q13.651179999999998-10.913879999999999 12.43264-6.0043999999999995T11.196439999999999-1.0242799999999999Q11.196439999999999-0.9006599999999999 11.26708-0.9006599999999999 11.408359999999998-0.84768 12.220719999999998-0.81236H12.76818Q12.874139999999999-0.6710799999999999 12.874139999999999-0.65342T12.821159999999999-0.33553999999999995Q12.75052-0.10596 12.644559999999998 0H12.37966Q11.726239999999999-0.03532 10.013219999999999-0.03532 9.41278-0.03532 8.90064-0.03532T8.08828-0.03532 7.71742-0.01766Q7.417199999999999-0.01766 7.417199999999999-0.17659999999999998 7.417199999999999-0.26489999999999997 7.470179999999999-0.42384 7.558479999999999-0.7593799999999999 7.64678-0.7947 7.71742-0.81236 7.91168-0.81236H8.01764Q8.49446-0.81236 9.07724-0.8653399999999999 9.1832-0.8829999999999999 9.21852-0.8829999999999999T9.32448-0.9712999999999999 9.430439999999999-1.13024 9.536399999999999-1.4481199999999999 9.66002-1.9425999999999999 9.85428-2.70198Q9.9779-3.1964599999999996 10.04854-3.4966799999999996 10.631319999999999-5.8278 10.631319999999999-5.845459999999999T8.07062-5.863119999999999H5.509919999999999L4.92714-3.47902Q4.3267-1.11258 4.3267-1.0242799999999999 4.3267-0.9006599999999999 4.46798-0.8653399999999999T5.35098-0.81236H5.89844Q6.0043999999999995-0.6710799999999999 6.0043999999999995-0.65342T5.95142-0.33553999999999995Q5.88078-0.10596 5.774819999999999 0H5.509919999999999Q4.8565-0.03532 3.14348-0.03532 2.54304-0.03532 2.0309-0.03532T1.21854-0.03532 0.84768-0.01766Q0.54746-0.01766 0.54746-0.17659999999999998 0.54746-0.21192 0.60044-0.42384 0.6887399999999999-0.7593799999999999 0.77704-0.7947 0.84768-0.81236 1.0419399999999999-0.81236H1.1479Q1.62472-0.81236 2.2075-0.8653399999999999 2.4547399999999997-0.9183199999999999 2.54304-1.0772599999999999 2.5960199999999998-1.1479 3.8145599999999997-5.986739999999999T5.033099999999999-11.09048Q5.033099999999999-11.214099999999998 4.026479999999999-11.249419999999999Z"
        fill-opacity="1"
      ></path>
    </svg>
  </g>
  <circle
    fill="#ffffff"
    fill-opacity="1"
    cx="297.48715467602904"
    cy="217.42364341308848"
    stroke="none"
    r="10"
  >
    <title>`H1`.background</title>
  </circle>
  <g
    transform="rotate(0, 289.646114676029, 208.59364341308847)translate(289.646114676029, 208.59364341308847)"
    string="H"
  >
    <title>`H1`.symbol</title>
    <svg
      xmlns="http://www.w3.org/2000/svg"
      width="15.68208"
      height="17.66"
      role="img"
      focusable="false"
      viewBox="0.54746 -12.061779999999999 15.13462 12.061779999999999"
    >
      <path
        stroke="none"
        fill="#000000"
        stroke-width="0"
        d="M4.026479999999999-11.249419999999999Q3.4260399999999995-11.249419999999999 3.39072-11.32006 3.3730599999999997-11.355379999999998 3.3730599999999997-11.46134 3.3730599999999997-11.885179999999998 3.5673199999999996-12.04412 3.6026399999999996-12.061779999999999 3.8675399999999995-12.061779999999999 4.5916-12.026459999999998 6.269299999999999-12.026459999999998 6.869739999999999-12.026459999999998 7.38188-12.026459999999998T8.17658-12.04412 8.529779999999999-12.04412Q8.812339999999999-12.04412 8.812339999999999-11.867519999999999 8.812339999999999-11.832199999999998 8.777019999999998-11.62028 8.68872-11.32006 8.60042-11.26708H8.5651Q8.529779999999999-11.26708 8.476799999999999-11.26708T8.35318-11.26708 8.194239999999999-11.249419999999999 8.0353-11.249419999999999Q7.346559999999999-11.23176 7.152299999999999-11.196439999999999T6.83442-11.00218Q6.78144-10.931539999999998 6.269299999999999-8.83 6.14568-8.37084 6.0043999999999995-7.805719999999999T5.792479999999999-6.9757L5.721839999999999-6.7108Q5.721839999999999-6.675479999999999 8.28254-6.675479999999999H10.84324L10.860899999999999-6.728459999999999Q10.860899999999999-6.78144 11.408359999999998-8.90064 11.90284-10.931539999999998 11.90284-11.072819999999998T10.89622-11.249419999999999Q10.490039999999999-11.249419999999999 10.36642-11.28474T10.242799999999999-11.443679999999999Q10.242799999999999-11.479 10.27812-11.6556 10.348759999999999-11.95582 10.384079999999999-11.99114T10.66664-12.04412Q10.75494-12.04412 11.408359999999998-12.026459999999998T13.068399999999999-12.008799999999999Q14.163319999999999-12.008799999999999 14.746099999999998-12.026459999999998T15.38186-12.04412Q15.68208-12.04412 15.68208-11.867519999999999 15.68208-11.390699999999999 15.470159999999998-11.26708H15.43484Q15.399519999999999-11.26708 15.34654-11.26708T15.222919999999998-11.26708 15.063979999999999-11.249419999999999 14.90504-11.249419999999999Q14.216299999999999-11.23176 14.022039999999999-11.196439999999999T13.704159999999998-11.00218Q13.651179999999998-10.913879999999999 12.43264-6.0043999999999995T11.196439999999999-1.0242799999999999Q11.196439999999999-0.9006599999999999 11.26708-0.9006599999999999 11.408359999999998-0.84768 12.220719999999998-0.81236H12.76818Q12.874139999999999-0.6710799999999999 12.874139999999999-0.65342T12.821159999999999-0.33553999999999995Q12.75052-0.10596 12.644559999999998 0H12.37966Q11.726239999999999-0.03532 10.013219999999999-0.03532 9.41278-0.03532 8.90064-0.03532T8.08828-0.03532 7.71742-0.01766Q7.417199999999999-0.01766 7.417199999999999-0.17659999999999998 7.417199999999999-0.26489999999999997 7.470179999999999-0.42384 7.558479999999999-0.7593799999999999 7.64678-0.7947 7.71742-0.81236 7.91168-0.81236H8.01764Q8.49446-0.81236 9.07724-0.8653399999999999 9.1832-0.8829999999999999 9.21852-0.8829999999999999T9.32448-0.9712999999999999 9.430439999999999-1.13024 9.536399999999999-1.4481199999999999 9.66002-1.9425999999999999 9.85428-2.70198Q9.9779-3.1964599999999996 10.04854-3.4966799999999996 10.631319999999999-5.8278 10.631319999999999-5.845459999999999T8.07062-5.863119999999999H5.509919999999999L4.92714-3.47902Q4.3267-1.11258 4.3267-1.0242799999999999 4.3267-0.9006599999999999 4.46798-0.8653399999999999T5.35098-0.81236H5.89844Q6.0043999999999995-0.6710799999999999 6.0043999999999995-0.65342T5.95142-0.33553999999999995Q5.88078-0.10596 5.774819999999999 0H5.509919999999999Q4.8565-0.03532 3.14348-0.03532 2.54304-0.03532 2.0309-0.03532T1.21854-0.03532 0.84768-0.01766Q0.54746-0.01766 0.54746-0.17659999999999998 0.54746-0.21192 0.60044-0.42384 0.6887399999999999-0.7593799999999999 0.77704-0.7947 0.84768-0.81236 1.0419399999999999-0.81236H1.1479Q1.62472-0.81236 2.2075-0.8653399999999999 2.4547399999999997-0.9183199999999999 2.54304-1.0772599999999999 2.5960199999999998-1.1479 3.8145599999999997-5.986739999999999T5.033099999999999-11.09048Q5.033099999999999-11.214099999999998 4.026479999999999-11.249419999999999Z"
        fill-opacity="1"
      ></path>
    </svg>
  </g>
</svg>
