<svg version="1.2" xmlns="http://www.w3.org/2000/svg" viewBox="0 0 320 240">
  <rect
    x="0"
    y="0"
    width="320"
    height="240"
    fill="none"
    stroke="none"
    rx="0"
    transform="rotate(0, 0, 0)"
  >
    <title>Global.box</title>
  </rect>
  <polygon
    fill="#e6e6e6"
    fill-opacity="1"
    stroke="#808080"
    stroke-opacity="1"
    stroke-width="2"
    stroke-linecap="butt"
    transform="scale(1)"
    points="320.69428411234264,240.3204471879946,150.83849563837663,199.07026542450254,28.38417405882859,224.51118864147708,8.435255176245079,40.30105451814326,155.6937413893922,41.40877428676467,320.6942841100698,-0.2666506943913589"
  >
    <title>Global.domain</title>
  </polygon>
  <g
    transform="rotate(0, 134.18431339959247, 28.21457798788269)translate(134.18431339959247, 28.21457798788269)"
  >
    <!--?xml version="1.0" encoding="utf-8"?-->
    <!-- Generator: Adobe Illustrator 26.3.1, SVG Export Plug-In . SVG Version: 6.00 Build 0)  -->
    <svg
      version="1.1"
      id="Layer_1"
      xmlns="http://www.w3.org/2000/svg"
      xmlns:xlink="http://www.w3.org/1999/xlink"
      x="0px"
      y="0px"
      viewBox="0 0 221.7 221.7"
      style="enable-background: new 0 0 221.7 221.7"
      xml:space="preserve"
      width="184.75997067367024"
      height="184.75997067367024"
    >
      <style type="text/css">
        .st0 {
          opacity: 0.6;
          fill: url(#SVGID_1_);
          enable-background: new;
        }
      </style>
      <radialGradient
        id="SVGID_1_"
        cx="75.4328"
        cy="151.0149"
        r="157.9341"
        gradientTransform="matrix(1 0 0 -1 0 222)"
        gradientUnits="userSpaceOnUse"
      >
        <stop offset="0" style="stop-color: #ffffff"></stop>
        <stop offset="0.7844" style="stop-color: #5f5f5f"></stop>
        <stop offset="1" style="stop-color: #7f7f7f"></stop>
      </radialGradient>
      <circle class="st0" cx="110.9" cy="110.9" r="110.9"></circle>
    </svg>
  </g>
  <circle
    fill="#33cc33"
    fill-opacity="0.15"
    cx="226.5642987364276"
    cy="120.59456332471781"
    stroke="none"
    r="92.37998533683512"
  >
    <title>`x0`.ball</title>
  </circle>
  <circle
    fill="none"
    cx="226.5642987364276"
    cy="120.59456332471781"
    stroke="#668066"
    stroke-opacity="1"
    stroke-width="1.5"
    stroke-linecap="butt"
    r="92.37998533683512"
  >
    <title>`x0`.sphere</title>
  </circle>
  <g>
    <marker
      id="9:0:walkLine-leftArrowhead"
      markerUnits="strokeWidth"
      markerWidth="9.95"
      markerHeight="8.12"
      viewBox="0 0 9.95 8.12"
      refX="2.36"
      refY="4.06"
      orient="auto-start-reverse"
    >
      <path
        d="M9.95 4.06 0 8.12 2.36 4.06 0 0 9.95 4.06z"
        fill="#0000b3"
        fill-opacity="1"
      ></path>
    </marker>
    <marker
      id="9:0:walkLine-rightArrowhead"
      markerUnits="strokeWidth"
      markerWidth="9.95"
      markerHeight="8.12"
      viewBox="0 0 9.95 8.12"
      refX="2.36"
      refY="4.06"
      orient="auto-start-reverse"
    >
      <path
        d="M9.95 4.06 0 8.12 2.36 4.06 0 0 9.95 4.06z"
        fill="#0000b3"
        fill-opacity="1"
      ></path>
    </marker>
    <path
      d="M 226.5642987364276 120.59456332471781 L 136.66703220963691 101.5229491292579"
      stroke-opacity="1"
      stroke-width="2"
      stroke="#0000b3"
      stroke-linecap="butt"
    ></path>
    <title>9:0:walkLine</title>
  </g>
  <g
    transform="rotate(0, 78.16143785575835, 43.01735477537933)translate(78.16143785575835, 43.01735477537933)"
  >
    <!--?xml version="1.0" encoding="utf-8"?-->
    <!-- Generator: Adobe Illustrator 26.3.1, SVG Export Plug-In . SVG Version: 6.00 Build 0)  -->
    <svg
      version="1.1"
      id="Layer_1"
      xmlns="http://www.w3.org/2000/svg"
      xmlns:xlink="http://www.w3.org/1999/xlink"
      x="0px"
      y="0px"
      viewBox="0 0 221.7 221.7"
      style="enable-background: new 0 0 221.7 221.7"
      xml:space="preserve"
      width="117.01118870775713"
      height="117.01118870775713"
    >
      <style type="text/css">
        .st0 {
          opacity: 0.6;
          fill: url(#SVGID_1_);
          enable-background: new;
        }
      </style>
      <radialGradient
        id="SVGID_1_"
        cx="75.4328"
        cy="151.0149"
        r="157.9341"
        gradientTransform="matrix(1 0 0 -1 0 222)"
        gradientUnits="userSpaceOnUse"
      >
        <stop offset="0" style="stop-color: #ffffff"></stop>
        <stop offset="0.7844" style="stop-color: #5f5f5f"></stop>
        <stop offset="1" style="stop-color: #7f7f7f"></stop>
      </radialGradient>
      <circle class="st0" cx="110.9" cy="110.9" r="110.9"></circle>
    </svg>
  </g>
  <circle
    fill="#33cc33"
    fill-opacity="0.15"
    cx="136.66703220963691"
    cy="101.5229491292579"
    stroke="none"
    r="58.505594353878564"
  >
    <title>`x1`.ball</title>
  </circle>
  <circle
    fill="none"
    cx="136.66703220963691"
    cy="101.5229491292579"
    stroke="#668066"
    stroke-opacity="1"
    stroke-width="1.5"
    stroke-linecap="butt"
    r="58.505594353878564"
  >
    <title>`x1`.sphere</title>
  </circle>
  <g>
    <marker
      id="9:1:walkLine-leftArrowhead"
      markerUnits="strokeWidth"
      markerWidth="9.95"
      markerHeight="8.12"
      viewBox="0 0 9.95 8.12"
      refX="2.36"
      refY="4.06"
      orient="auto-start-reverse"
    >
      <path
        d="M9.95 4.06 0 8.12 2.36 4.06 0 0 9.95 4.06z"
        fill="#0000b3"
        fill-opacity="1"
      ></path>
    </marker>
    <marker
      id="9:1:walkLine-rightArrowhead"
      markerUnits="strokeWidth"
      markerWidth="9.95"
      markerHeight="8.12"
      viewBox="0 0 9.95 8.12"
      refX="2.36"
      refY="4.06"
      orient="auto-start-reverse"
    >
      <path
        d="M9.95 4.06 0 8.12 2.36 4.06 0 0 9.95 4.06z"
        fill="#0000b3"
        fill-opacity="1"
      ></path>
    </marker>
    <path
      d="M 136.66703220963691 101.5229491292579 L 145.55795517017884 162.4151812343786"
      stroke-opacity="1"
      stroke-width="2"
      stroke="#0000b3"
      stroke-linecap="butt"
    ></path>
    <title>9:1:walkLine</title>
  </g>
  <g
    transform="rotate(0, 110.27446620922152, 127.13169227342127)translate(110.27446620922152, 127.13169227342127)"
  >
    <!--?xml version="1.0" encoding="utf-8"?-->
    <!-- Generator: Adobe Illustrator 26.3.1, SVG Export Plug-In . SVG Version: 6.00 Build 0)  -->
    <svg
      version="1.1"
      id="Layer_1"
      xmlns="http://www.w3.org/2000/svg"
      xmlns:xlink="http://www.w3.org/1999/xlink"
      x="0px"
      y="0px"
      viewBox="0 0 221.7 221.7"
      style="enable-background: new 0 0 221.7 221.7"
      xml:space="preserve"
      width="70.56697792191467"
      height="70.56697792191467"
    >
      <style type="text/css">
        .st0 {
          opacity: 0.6;
          fill: url(#SVGID_1_);
          enable-background: new;
        }
      </style>
      <radialGradient
        id="SVGID_1_"
        cx="75.4328"
        cy="151.0149"
        r="157.9341"
        gradientTransform="matrix(1 0 0 -1 0 222)"
        gradientUnits="userSpaceOnUse"
      >
        <stop offset="0" style="stop-color: #ffffff"></stop>
        <stop offset="0.7844" style="stop-color: #5f5f5f"></stop>
        <stop offset="1" style="stop-color: #7f7f7f"></stop>
      </radialGradient>
      <circle class="st0" cx="110.9" cy="110.9" r="110.9"></circle>
    </svg>
  </g>
  <circle
    fill="#33cc33"
    fill-opacity="0.15"
    cx="145.55795517017884"
    cy="162.4151812343786"
    stroke="none"
    r="35.283488960957335"
  >
    <title>`x2`.ball</title>
  </circle>
  <circle
    fill="none"
    cx="145.55795517017884"
    cy="162.4151812343786"
    stroke="#668066"
    stroke-opacity="1"
    stroke-width="1.5"
    stroke-linecap="butt"
    r="35.283488960957335"
  >
    <title>`x2`.sphere</title>
  </circle>
  <g>
    <marker
      id="9:2:walkLine-leftArrowhead"
      markerUnits="strokeWidth"
      markerWidth="9.95"
      markerHeight="8.12"
      viewBox="0 0 9.95 8.12"
      refX="2.36"
      refY="4.06"
      orient="auto-start-reverse"
    >
      <path
        d="M9.95 4.06 0 8.12 2.36 4.06 0 0 9.95 4.06z"
        fill="#0000b3"
        fill-opacity="1"
      ></path>
    </marker>
    <marker
      id="9:2:walkLine-rightArrowhead"
      markerUnits="strokeWidth"
      markerWidth="9.95"
      markerHeight="8.12"
      viewBox="0 0 9.95 8.12"
      refX="2.36"
      refY="4.06"
      orient="auto-start-reverse"
    >
      <path
        d="M9.95 4.06 0 8.12 2.36 4.06 0 0 9.95 4.06z"
        fill="#0000b3"
        fill-opacity="1"
      ></path>
    </marker>
    <path
      d="M 145.55795517017884 162.4151812343786 L 174.25732330788176 182.97378115578294"
      stroke-opacity="1"
      stroke-width="2"
      stroke="#0000b3"
      stroke-linecap="butt"
    ></path>
    <title>9:2:walkLine</title>
  </g>
  <g
    transform="rotate(0, 154.83877806668104, 163.55523591458223)translate(154.83877806668104, 163.55523591458223)"
  >
    <!--?xml version="1.0" encoding="utf-8"?-->
    <!-- Generator: Adobe Illustrator 26.3.1, SVG Export Plug-In . SVG Version: 6.00 Build 0)  -->
    <svg
      version="1.1"
      id="Layer_1"
      xmlns="http://www.w3.org/2000/svg"
      xmlns:xlink="http://www.w3.org/1999/xlink"
      x="0px"
      y="0px"
      viewBox="0 0 221.7 221.7"
      style="enable-background: new 0 0 221.7 221.7"
      xml:space="preserve"
      width="38.83709048240143"
      height="38.83709048240143"
    >
      <style type="text/css">
        .st0 {
          opacity: 0.6;
          fill: url(#SVGID_1_);
          enable-background: new;
        }
      </style>
      <radialGradient
        id="SVGID_1_"
        cx="75.4328"
        cy="151.0149"
        r="157.9341"
        gradientTransform="matrix(1 0 0 -1 0 222)"
        gradientUnits="userSpaceOnUse"
      >
        <stop offset="0" style="stop-color: #ffffff"></stop>
        <stop offset="0.7844" style="stop-color: #5f5f5f"></stop>
        <stop offset="1" style="stop-color: #7f7f7f"></stop>
      </radialGradient>
      <circle class="st0" cx="110.9" cy="110.9" r="110.9"></circle>
    </svg>
  </g>
  <circle
    fill="#33cc33"
    fill-opacity="0.15"
    cx="174.25732330788176"
    cy="182.97378115578294"
    stroke="none"
    r="19.418545241200714"
  >
    <title>`x3`.ball</title>
  </circle>
  <circle
    fill="#000000"
    fill-opacity="1"
    cx="174.25732330788176"
    cy="182.97378115578294"
    stroke="none"
    r="2.5"
  >
    <title>`x3`.dot</title>
  </circle>
  <g
    transform="rotate(0, 29.77341645725313, 189.12856905121004)translate(29.77341645725313, 189.12856905121004)"
    string="\Omega"
  >
    <title>`U`.labelText</title>
    <svg
      style="font-size: 12"
      xmlns="http://www.w3.org/2000/svg"
      width="12.75052"
      height="17.66"
      role="img"
      focusable="false"
      viewBox="0 -750 722 1000"
    >
      <g
        stroke="none"
        fill="#808080"
        stroke-width="0"
        transform="scale(1,-1)"
        fill-opacity="1"
      >
        <g data-mml-node="math">
          <g data-mml-node="mtable">
            <g data-mml-node="mtr">
              <g data-mml-node="mtd">
                <g data-mml-node="mi">
                  <path
                    data-c="3A9"
                    d="M55 454Q55 503 75 546T127 617T197 665T272 695T337 704H352Q396 704 404 703Q527 687 596 615T666 454Q666 392 635 330T559 200T499 83V80H543Q589 81 600 83T617 93Q622 102 629 135T636 172L637 177H677V175L660 89Q645 3 644 2V0H552H488Q461 0 456 3T451 20Q451 89 499 235T548 455Q548 512 530 555T483 622T424 656T361 668Q332 668 303 658T243 626T193 560T174 456Q174 380 222 233T270 20Q270 7 263 0H77V2Q76 3 61 89L44 175V177H84L85 172Q85 171 88 155T96 119T104 93Q109 86 120 84T178 80H222V83Q206 132 162 199T87 329T55 454Z"
                  ></path>
                </g>
              </g>
            </g>
          </g>
        </g>
      </g>
    </svg>
  </g>
  <g
    transform="rotate(0, 124.71069427412242, 78.91368762317262)translate(124.71069427412242, 78.91368762317262)"
    string="x1"
  >
    <title>`x1`.labelText</title>
    <svg
      style="font-size: 12"
      xmlns="http://www.w3.org/2000/svg"
      width="18.93152"
      height="17.66"
      role="img"
      focusable="false"
      viewBox="0 -750 1072 1000"
    >
      <g
        stroke="none"
        fill="#000000"
        stroke-width="0"
        transform="scale(1,-1)"
        fill-opacity="1"
      >
        <g data-mml-node="math">
          <g data-mml-node="mtable">
            <g data-mml-node="mtr">
              <g data-mml-node="mtd">
                <g data-mml-node="mi">
                  <path
                    data-c="1D465"
                    d="M52 289Q59 331 106 386T222 442Q257 442 286 424T329 379Q371 442 430 442Q467 442 494 420T522 361Q522 332 508 314T481 292T458 288Q439 288 427 299T415 328Q415 374 465 391Q454 404 425 404Q412 404 406 402Q368 386 350 336Q290 115 290 78Q290 50 306 38T341 26Q378 26 414 59T463 140Q466 150 469 151T485 153H489Q504 153 504 145Q504 144 502 134Q486 77 440 33T333 -11Q263 -11 227 52Q186 -10 133 -10H127Q78 -10 57 16T35 71Q35 103 54 123T99 143Q142 143 142 101Q142 81 130 66T107 46T94 41L91 40Q91 39 97 36T113 29T132 26Q168 26 194 71Q203 87 217 139T245 247T261 313Q266 340 266 352Q266 380 251 392T217 404Q177 404 142 372T93 290Q91 281 88 280T72 278H58Q52 284 52 289Z"
                  ></path>
                </g>
                <g data-mml-node="mn" transform="translate(572,0)">
                  <path
                    data-c="31"
                    d="M213 578L200 573Q186 568 160 563T102 556H83V602H102Q149 604 189 617T245 641T273 663Q275 666 285 666Q294 666 302 660V361L303 61Q310 54 315 52T339 48T401 46H427V0H416Q395 3 257 3Q121 3 100 0H88V46H114Q136 46 152 46T177 47T193 50T201 52T207 57T213 61V578Z"
                  ></path>
                </g>
              </g>
            </g>
          </g>
        </g>
      </g>
    </svg>
  </g>
  <circle
    fill="#000000"
    fill-opacity="1"
    cx="136.66703220963691"
    cy="101.5229491292579"
    stroke="none"
    r="2.5"
  >
    <title>`x1`.dot</title>
  </circle>
  <g
    transform="rotate(0, 133.4115505136278, 166.8818568377982)translate(133.4115505136278, 166.8818568377982)"
    string="x2"
  >
    <title>`x2`.labelText</title>
    <svg
      style="font-size: 12"
      xmlns="http://www.w3.org/2000/svg"
      width="18.93152"
      height="17.66"
      role="img"
      focusable="false"
      viewBox="0 -750 1072 1000"
    >
      <g
        stroke="none"
        fill="#000000"
        stroke-width="0"
        transform="scale(1,-1)"
        fill-opacity="1"
      >
        <g data-mml-node="math">
          <g data-mml-node="mtable">
            <g data-mml-node="mtr">
              <g data-mml-node="mtd">
                <g data-mml-node="mi">
                  <path
                    data-c="1D465"
                    d="M52 289Q59 331 106 386T222 442Q257 442 286 424T329 379Q371 442 430 442Q467 442 494 420T522 361Q522 332 508 314T481 292T458 288Q439 288 427 299T415 328Q415 374 465 391Q454 404 425 404Q412 404 406 402Q368 386 350 336Q290 115 290 78Q290 50 306 38T341 26Q378 26 414 59T463 140Q466 150 469 151T485 153H489Q504 153 504 145Q504 144 502 134Q486 77 440 33T333 -11Q263 -11 227 52Q186 -10 133 -10H127Q78 -10 57 16T35 71Q35 103 54 123T99 143Q142 143 142 101Q142 81 130 66T107 46T94 41L91 40Q91 39 97 36T113 29T132 26Q168 26 194 71Q203 87 217 139T245 247T261 313Q266 340 266 352Q266 380 251 392T217 404Q177 404 142 372T93 290Q91 281 88 280T72 278H58Q52 284 52 289Z"
                  ></path>
                </g>
                <g data-mml-node="mn" transform="translate(572,0)">
                  <path
                    data-c="32"
                    d="M109 429Q82 429 66 447T50 491Q50 562 103 614T235 666Q326 666 387 610T449 465Q449 422 429 383T381 315T301 241Q265 210 201 149L142 93L218 92Q375 92 385 97Q392 99 409 186V189H449V186Q448 183 436 95T421 3V0H50V19V31Q50 38 56 46T86 81Q115 113 136 137Q145 147 170 174T204 211T233 244T261 278T284 308T305 340T320 369T333 401T340 431T343 464Q343 527 309 573T212 619Q179 619 154 602T119 569T109 550Q109 549 114 549Q132 549 151 535T170 489Q170 464 154 447T109 429Z"
                  ></path>
                </g>
              </g>
            </g>
          </g>
        </g>
      </g>
    </svg>
  </g>
  <circle
    fill="#000000"
    fill-opacity="1"
    cx="145.55795517017884"
    cy="162.4151812343786"
    stroke="none"
    r="2.5"
  >
    <title>`x2`.dot</title>
  </circle>
  <g
    transform="rotate(0, 203.12434482127026, 113.63763445402417)translate(203.12434482127026, 113.63763445402417)"
    string="x0"
  >
    <title>`x0`.labelText</title>
    <svg
      style="font-size: 12"
      xmlns="http://www.w3.org/2000/svg"
      width="18.93152"
      height="17.66"
      role="img"
      focusable="false"
      viewBox="0 -750 1072 1000"
    >
      <g
        stroke="none"
        fill="#000000"
        stroke-width="0"
        transform="scale(1,-1)"
        fill-opacity="1"
      >
        <g data-mml-node="math">
          <g data-mml-node="mtable">
            <g data-mml-node="mtr">
              <g data-mml-node="mtd">
                <g data-mml-node="mi">
                  <path
                    data-c="1D465"
                    d="M52 289Q59 331 106 386T222 442Q257 442 286 424T329 379Q371 442 430 442Q467 442 494 420T522 361Q522 332 508 314T481 292T458 288Q439 288 427 299T415 328Q415 374 465 391Q454 404 425 404Q412 404 406 402Q368 386 350 336Q290 115 290 78Q290 50 306 38T341 26Q378 26 414 59T463 140Q466 150 469 151T485 153H489Q504 153 504 145Q504 144 502 134Q486 77 440 33T333 -11Q263 -11 227 52Q186 -10 133 -10H127Q78 -10 57 16T35 71Q35 103 54 123T99 143Q142 143 142 101Q142 81 130 66T107 46T94 41L91 40Q91 39 97 36T113 29T132 26Q168 26 194 71Q203 87 217 139T245 247T261 313Q266 340 266 352Q266 380 251 392T217 404Q177 404 142 372T93 290Q91 281 88 280T72 278H58Q52 284 52 289Z"
                  ></path>
                </g>
                <g data-mml-node="mn" transform="translate(572,0)">
                  <path
                    data-c="30"
                    d="M96 585Q152 666 249 666Q297 666 345 640T423 548Q460 465 460 320Q460 165 417 83Q397 41 362 16T301 -15T250 -22Q224 -22 198 -16T137 16T82 83Q39 165 39 320Q39 494 96 585ZM321 597Q291 629 250 629Q208 629 178 597Q153 571 145 525T137 333Q137 175 145 125T181 46Q209 16 250 16Q290 16 318 46Q347 76 354 130T362 333Q362 478 354 524T321 597Z"
                  ></path>
                </g>
              </g>
            </g>
          </g>
        </g>
      </g>
    </svg>
  </g>
  <circle
    fill="#000000"
    fill-opacity="1"
    cx="226.5642987364276"
    cy="120.59456332471781"
    stroke="none"
    r="2.5"
  >
    <title>`x0`.dot</title>
  </circle>
  <circle
    fill="none"
    cx="174.25732330788176"
    cy="182.97378115578294"
    stroke="#668066"
    stroke-opacity="1"
    stroke-width="1.5"
    stroke-linecap="butt"
    r="19.418545241200714"
  >
    <title>`x3`.sphere</title>
  </circle>
  <g>
    <marker
      id="9:3:walkLine-leftArrowhead"
      markerUnits="strokeWidth"
      markerWidth="9.95"
      markerHeight="8.12"
      viewBox="0 0 9.95 8.12"
      refX="2.36"
      refY="4.06"
      orient="auto-start-reverse"
    >
      <path
        d="M9.95 4.06 0 8.12 2.36 4.06 0 0 9.95 4.06z"
        fill="#0000b3"
        fill-opacity="1"
      ></path>
    </marker>
    <marker
      id="9:3:walkLine-rightArrowhead"
      markerUnits="strokeWidth"
      markerWidth="9.95"
      markerHeight="8.12"
      viewBox="0 0 9.95 8.12"
      refX="2.36"
      refY="4.06"
      orient="auto-start-reverse"
    >
      <path
        d="M9.95 4.06 0 8.12 2.36 4.06 0 0 9.95 4.06z"
        fill="#0000b3"
        fill-opacity="1"
      ></path>
    </marker>
    <path
      d="M 174.25732330788176 182.97378115578294 L 189.06445016641504 195.55106725140902"
      stroke-opacity="1"
      stroke-width="2"
      stroke="#0000b3"
      stroke-linecap="butt"
    ></path>
    <title>9:3:walkLine</title>
  </g>
  <g
    transform="rotate(0, 178.37353608492725, 184.86015316992123)translate(178.37353608492725, 184.86015316992123)"
  >
    <!--?xml version="1.0" encoding="utf-8"?-->
    <!-- Generator: Adobe Illustrator 26.3.1, SVG Export Plug-In . SVG Version: 6.00 Build 0)  -->
    <svg
      version="1.1"
      id="Layer_1"
      xmlns="http://www.w3.org/2000/svg"
      xmlns:xlink="http://www.w3.org/1999/xlink"
      x="0px"
      y="0px"
      viewBox="0 0 221.7 221.7"
      style="enable-background: new 0 0 221.7 221.7"
      xml:space="preserve"
      width="21.38182816297557"
      height="21.38182816297557"
    >
      <style type="text/css">
        .st0 {
          opacity: 0.6;
          fill: url(#SVGID_1_);
          enable-background: new;
        }
      </style>
      <radialGradient
        id="SVGID_1_"
        cx="75.4328"
        cy="151.0149"
        r="157.9341"
        gradientTransform="matrix(1 0 0 -1 0 222)"
        gradientUnits="userSpaceOnUse"
      >
        <stop offset="0" style="stop-color: #ffffff"></stop>
        <stop offset="0.7844" style="stop-color: #5f5f5f"></stop>
        <stop offset="1" style="stop-color: #7f7f7f"></stop>
      </radialGradient>
      <circle class="st0" cx="110.9" cy="110.9" r="110.9"></circle>
    </svg>
  </g>
  <circle
    fill="#33cc33"
    fill-opacity="0.15"
    cx="189.06445016641504"
    cy="195.55106725140902"
    stroke="none"
    r="10.690914081487785"
  >
    <title>`x4`.ball</title>
  </circle>
  <circle
    fill="none"
    cx="189.06445016641504"
    cy="195.55106725140902"
    stroke="#668066"
    stroke-opacity="1"
    stroke-width="1.5"
    stroke-linecap="butt"
    r="10.690914081487785"
  >
    <title>`x4`.sphere</title>
  </circle>
  <g
    transform="rotate(0, 188.34669037917098, 171.81212686200638)translate(188.34669037917098, 171.81212686200638)"
    string="x_k"
  >
    <title>`x4`.labelText</title>
    <svg
      style="font-size: 12"
      xmlns="http://www.w3.org/2000/svg"
      width="18.073244"
      height="17.66"
      role="img"
      focusable="false"
      viewBox="0 -750 1023.4 1000"
    >
      <g
        stroke="none"
        fill="#000000"
        stroke-width="0"
        transform="scale(1,-1)"
        fill-opacity="1"
      >
        <g data-mml-node="math">
          <g data-mml-node="mtable">
            <g data-mml-node="mtr">
              <g data-mml-node="mtd">
                <g data-mml-node="msub">
                  <g data-mml-node="mi">
                    <path
                      data-c="1D465"
                      d="M52 289Q59 331 106 386T222 442Q257 442 286 424T329 379Q371 442 430 442Q467 442 494 420T522 361Q522 332 508 314T481 292T458 288Q439 288 427 299T415 328Q415 374 465 391Q454 404 425 404Q412 404 406 402Q368 386 350 336Q290 115 290 78Q290 50 306 38T341 26Q378 26 414 59T463 140Q466 150 469 151T485 153H489Q504 153 504 145Q504 144 502 134Q486 77 440 33T333 -11Q263 -11 227 52Q186 -10 133 -10H127Q78 -10 57 16T35 71Q35 103 54 123T99 143Q142 143 142 101Q142 81 130 66T107 46T94 41L91 40Q91 39 97 36T113 29T132 26Q168 26 194 71Q203 87 217 139T245 247T261 313Q266 340 266 352Q266 380 251 392T217 404Q177 404 142 372T93 290Q91 281 88 280T72 278H58Q52 284 52 289Z"
                    ></path>
                  </g>
                  <g
                    data-mml-node="mi"
                    transform="translate(605,-150) scale(0.707)"
                  >
                    <path
                      data-c="1D458"
                      d="M121 647Q121 657 125 670T137 683Q138 683 209 688T282 694Q294 694 294 686Q294 679 244 477Q194 279 194 272Q213 282 223 291Q247 309 292 354T362 415Q402 442 438 442Q468 442 485 423T503 369Q503 344 496 327T477 302T456 291T438 288Q418 288 406 299T394 328Q394 353 410 369T442 390L458 393Q446 405 434 405H430Q398 402 367 380T294 316T228 255Q230 254 243 252T267 246T293 238T320 224T342 206T359 180T365 147Q365 130 360 106T354 66Q354 26 381 26Q429 26 459 145Q461 153 479 153H483Q499 153 499 144Q499 139 496 130Q455 -11 378 -11Q333 -11 305 15T277 90Q277 108 280 121T283 145Q283 167 269 183T234 206T200 217T182 220H180Q168 178 159 139T145 81T136 44T129 20T122 7T111 -2Q98 -11 83 -11Q66 -11 57 -1T48 16Q48 26 85 176T158 471L195 616Q196 629 188 632T149 637H144Q134 637 131 637T124 640T121 647Z"
                    ></path>
                  </g>
                </g>
              </g>
            </g>
          </g>
        </g>
      </g>
    </svg>
  </g>
  <circle
    fill="#000000"
    fill-opacity="1"
    cx="189.06445016641504"
    cy="195.55106725140902"
    stroke="none"
    r="2.5"
  >
    <title>`x4`.dot</title>
  </circle>
  <g
    transform="rotate(0, 154.14490048909886, 160.82761438398555)translate(154.14490048909886, 160.82761438398555)"
    string="\ldots"
  >
    <title>`x3`.labelText</title>
    <svg
      style="font-size: 12"
      xmlns="http://www.w3.org/2000/svg"
      width="20.697519999999997"
      height="17.66"
      role="img"
      focusable="false"
      viewBox="0 -750 1172 1000"
    >
      <g
        stroke="none"
        fill="#000000"
        stroke-width="0"
        transform="scale(1,-1)"
        fill-opacity="1"
      >
        <g data-mml-node="math">
          <g data-mml-node="mtable">
            <g data-mml-node="mtr">
              <g data-mml-node="mtd">
                <g data-mml-node="mo">
                  <path
                    data-c="2026"
                    d="M78 60Q78 84 95 102T138 120Q162 120 180 104T199 61Q199 36 182 18T139 0T96 17T78 60ZM525 60Q525 84 542 102T585 120Q609 120 627 104T646 61Q646 36 629 18T586 0T543 17T525 60ZM972 60Q972 84 989 102T1032 120Q1056 120 1074 104T1093 61Q1093 36 1076 18T1033 0T990 17T972 60Z"
                  ></path>
                </g>
              </g>
            </g>
          </g>
        </g>
      </g>
    </svg>
  </g>
</svg>
