<svg version="1.2" xmlns="http://www.w3.org/2000/svg" viewBox="0 0 320 240">
  <rect
    x="0"
    y="0"
    width="320"
    height="240"
    fill="none"
    stroke="none"
    rx="0"
    transform="rotate(0, 0, 0)"
  >
    <title>Global.box</title>
  </rect>
  <polygon
    fill="#e6e6e6"
    fill-opacity="1"
    stroke="#808080"
    stroke-opacity="1"
    stroke-width="2"
    stroke-linecap="butt"
    transform="scale(1)"
    points="281.71706560296457,212.18660424408662,166.54997119522193,190.62896731763647,26.214509688525936,240.67351150168804,21.670371293784683,-0.5357423170328559,167.05366594787728,51.06872554543904,279.37993040365575,11.18533695641328"
  >
    <title>Global.domain</title>
  </polygon>
  <g
    transform="rotate(0, 252.9488115237717, 65.78982829284723)translate(252.9488115237717, 65.78982829284723)"
    string="\Omega"
  >
    <title>`U`.labelText</title>
    <svg
      xmlns="http://www.w3.org/2000/svg"
      width="12.75052"
      height="17.66"
      role="img"
      focusable="false"
      viewBox="0.77704 -12.43264 11.17878 12.43264"
    >
      <path
        stroke="none"
        fill="#808080"
        stroke-width="0"
        d="M0.9712999999999999-8.01764Q0.9712999999999999-8.88298 1.3244999999999998-9.64236T2.24282-10.89622 3.47902-11.743899999999998 4.80352-12.2737 5.95142-12.43264H6.21632Q6.993359999999999-12.43264 7.134639999999999-12.41498 9.30682-12.13242 10.52536-10.860899999999999T11.76156-8.01764Q11.76156-6.922719999999999 11.214099999999998-5.8278T9.871939999999999-3.5319999999999996 8.812339999999999-1.4657799999999999V-1.4127999999999998H9.589379999999998Q10.401739999999998-1.4304599999999998 10.595999999999998-1.4657799999999999T10.89622-1.64238Q10.98452-1.8013199999999998 11.108139999999999-2.3840999999999997T11.23176-3.0375199999999998L11.249419999999999-3.1258199999999996H11.95582V-3.0904999999999996L11.6556-1.57174Q11.390699999999999-0.05298 11.37304-0.03532V0H9.74832 8.618079999999999Q8.141259999999999 0 8.052959999999999-0.05298T7.964659999999999-0.35319999999999996Q7.964659999999999-1.57174 8.812339999999999-4.150099999999999T9.677679999999999-8.0353Q9.677679999999999-9.04192 9.3598-9.8013T8.529779999999999-10.98452 7.487839999999999-11.584959999999999 6.37526-11.79688Q5.863119999999999-11.79688 5.35098-11.62028T4.291379999999999-11.055159999999999 3.4083799999999997-9.8896 3.07284-8.052959999999999Q3.07284-6.7108 3.92052-4.11478T4.768199999999999-0.35319999999999996Q4.768199999999999-0.12362 4.6445799999999995 0H1.3598199999999998V-0.03532Q1.3421599999999998-0.05298 1.0772599999999999-1.57174L0.77704-3.0904999999999996V-3.1258199999999996H1.4834399999999999L1.5010999999999999-3.0375199999999998Q1.5010999999999999-3.0198599999999995 1.55408-2.7373T1.69536-2.10154 1.8366399999999998-1.64238Q1.9249399999999999-1.5187599999999999 2.1191999999999998-1.4834399999999999T3.14348-1.4127999999999998H3.92052V-1.4657799999999999Q3.6379599999999996-2.33112 2.8609199999999997-3.51434T1.53642-5.81014 0.9712999999999999-8.01764Z"
        fill-opacity="1"
      ></path>
    </svg>
  </g>
  <g
    transform="rotate(0, 25.720999914234127, 37.43770648331673)translate(25.720999914234127, 37.43770648331673)"
  >
    <!--?xml version="1.0" encoding="utf-8"?-->
    <!-- Generator: Adobe Illustrator 26.3.1, SVG Export Plug-In . SVG Version: 6.00 Build 0)  -->
    <svg
      version="1.1"
      id="Layer_1"
      xmlns="http://www.w3.org/2000/svg"
      xmlns:xlink="http://www.w3.org/1999/xlink"
      x="0px"
      y="0px"
      viewBox="0 0 221.7 221.7"
      style="enable-background: new 0 0 221.7 221.7"
      xml:space="preserve"
      width="166.69133080532472"
      height="166.69133080532472"
    >
      <style type="text/css">
        .st0 {
          opacity: 0.6;
          fill: url(#SVGID_1_);
          enable-background: new;
        }
      </style>
      <radialGradient
        id="SVGID_1_"
        cx="75.4328"
        cy="151.0149"
        r="157.9341"
        gradientTransform="matrix(1 0 0 -1 0 222)"
        gradientUnits="userSpaceOnUse"
      >
        <stop offset="0" style="stop-color: #ffffff"></stop>
        <stop offset="0.7844" style="stop-color: #5f5f5f"></stop>
        <stop offset="1" style="stop-color: #7f7f7f"></stop>
      </radialGradient>
      <circle class="st0" cx="110.9" cy="110.9" r="110.9"></circle>
    </svg>
  </g>
  <circle
    fill="#33cc33"
    fill-opacity="0.15"
    cx="109.06666531689649"
    cy="120.7833718859791"
    stroke="none"
    r="83.34566540266236"
  >
    <title>`x0`.ball</title>
  </circle>
  <circle
    fill="none"
    cx="109.06666531689649"
    cy="120.7833718859791"
    stroke="#668066"
    stroke-opacity="1"
    stroke-width="1.5"
    stroke-linecap="butt"
    r="83.34566540266236"
  >
    <title>`x0`.sphere</title>
  </circle>
  <g>
    <marker
      id="9:0:walkLine-leftArrowhead"
      markerUnits="strokeWidth"
      markerWidth="9.95"
      markerHeight="8.12"
      viewBox="0 0 9.95 8.12"
      refX="2.36"
      refY="4.06"
      orient="auto-start-reverse"
    >
      <path
        d="M9.95 4.06 0 8.12 2.36 4.06 0 0 9.95 4.06z"
        fill="#0000b3"
        fill-opacity="1"
      ></path>
    </marker>
    <marker
      id="9:0:walkLine-rightArrowhead"
      markerUnits="strokeWidth"
      markerWidth="9.95"
      markerHeight="8.12"
      viewBox="0 0 9.95 8.12"
      refX="2.36"
      refY="4.06"
      orient="auto-start-reverse"
    >
      <path
        d="M9.95 4.06 0 8.12 2.36 4.06 0 0 9.95 4.06z"
        fill="#0000b3"
        fill-opacity="1"
      ></path>
    </marker>
    <path
      d="M 109.06666531689649 120.7833718859791 L 193.13977821573278 138.67561476036045"
      stroke-opacity="1"
      stroke-width="2"
      stroke="#0000b3"
      stroke-linecap="butt"
    ></path>
    <title>9:0:walkLine</title>
  </g>
  <g
    transform="rotate(0, 138.93110676476024, 84.46694330938791)translate(138.93110676476024, 84.46694330938791)"
  >
    <!--?xml version="1.0" encoding="utf-8"?-->
    <!-- Generator: Adobe Illustrator 26.3.1, SVG Export Plug-In . SVG Version: 6.00 Build 0)  -->
    <svg
      version="1.1"
      id="Layer_1"
      xmlns="http://www.w3.org/2000/svg"
      xmlns:xlink="http://www.w3.org/1999/xlink"
      x="0px"
      y="0px"
      viewBox="0 0 221.7 221.7"
      style="enable-background: new 0 0 221.7 221.7"
      xml:space="preserve"
      width="108.41734290194508"
      height="108.41734290194508"
    >
      <style type="text/css">
        .st0 {
          opacity: 0.6;
          fill: url(#SVGID_1_);
          enable-background: new;
        }
      </style>
      <radialGradient
        id="SVGID_1_"
        cx="75.4328"
        cy="151.0149"
        r="157.9341"
        gradientTransform="matrix(1 0 0 -1 0 222)"
        gradientUnits="userSpaceOnUse"
      >
        <stop offset="0" style="stop-color: #ffffff"></stop>
        <stop offset="0.7844" style="stop-color: #5f5f5f"></stop>
        <stop offset="1" style="stop-color: #7f7f7f"></stop>
      </radialGradient>
      <circle class="st0" cx="110.9" cy="110.9" r="110.9"></circle>
    </svg>
  </g>
  <circle
    fill="#33cc33"
    fill-opacity="0.15"
    cx="193.13977821573278"
    cy="138.67561476036045"
    stroke="none"
    r="54.20867145097254"
  >
    <title>`x1`.ball</title>
  </circle>
  <circle
    fill="none"
    cx="193.13977821573278"
    cy="138.67561476036045"
    stroke="#668066"
    stroke-opacity="1"
    stroke-width="1.5"
    stroke-linecap="butt"
    r="54.20867145097254"
  >
    <title>`x1`.sphere</title>
  </circle>
  <g
    transform="rotate(0, 192.90665107921367, 157.76696057754592)translate(192.90665107921367, 157.76696057754592)"
  >
    <!--?xml version="1.0" encoding="utf-8"?-->
    <!-- Generator: Adobe Illustrator 26.3.1, SVG Export Plug-In . SVG Version: 6.00 Build 0)  -->
    <svg
      version="1.1"
      id="Layer_1"
      xmlns="http://www.w3.org/2000/svg"
      xmlns:xlink="http://www.w3.org/1999/xlink"
      x="0px"
      y="0px"
      viewBox="0 0 221.7 221.7"
      style="enable-background: new 0 0 221.7 221.7"
      xml:space="preserve"
      width="39.35695241669141"
      height="39.35695241669141"
    >
      <style type="text/css">
        .st0 {
          opacity: 0.6;
          fill: url(#SVGID_1_);
          enable-background: new;
        }
      </style>
      <radialGradient
        id="SVGID_1_"
        cx="75.4328"
        cy="151.0149"
        r="157.9341"
        gradientTransform="matrix(1 0 0 -1 0 222)"
        gradientUnits="userSpaceOnUse"
      >
        <stop offset="0" style="stop-color: #ffffff"></stop>
        <stop offset="0.7844" style="stop-color: #5f5f5f"></stop>
        <stop offset="1" style="stop-color: #7f7f7f"></stop>
      </radialGradient>
      <circle class="st0" cx="110.9" cy="110.9" r="110.9"></circle>
    </svg>
  </g>
  <circle
    fill="#ffffff"
    fill-opacity="0.4"
    cx="212.58512728755937"
    cy="177.44543678589162"
    stroke="none"
    r="19.678476208345707"
  >
    <title>`y10`.ball</title>
  </circle>
  <circle
    fill="none"
    cx="212.58512728755937"
    cy="177.44543678589162"
    stroke="#ffffff"
    stroke-opacity="1"
    stroke-width="1.5"
    stroke-linecap="butt"
    r="19.678476208345707"
  >
    <title>`y10`.sphere</title>
  </circle>
  <g>
    <marker
      id="9:5:walkLine-leftArrowhead"
      markerUnits="strokeWidth"
      markerWidth="9.95"
      markerHeight="8.12"
      viewBox="0 0 9.95 8.12"
      refX="2.36"
      refY="4.06"
      orient="auto-start-reverse"
    >
      <path
        d="M9.95 4.06 0 8.12 2.36 4.06 0 0 9.95 4.06z"
        fill="#0000b3"
        fill-opacity="1"
      ></path>
    </marker>
    <marker
      id="9:5:walkLine-rightArrowhead"
      markerUnits="strokeWidth"
      markerWidth="9.95"
      markerHeight="8.12"
      viewBox="0 0 9.95 8.12"
      refX="2.36"
      refY="4.06"
      orient="auto-start-reverse"
    >
      <path
        d="M9.95 4.06 0 8.12 2.36 4.06 0 0 9.95 4.06z"
        fill="#0000b3"
        fill-opacity="1"
      ></path>
    </marker>
    <path
      d="M 212.58512728755937 177.44543678589162 L 235.9091470793922 180.3999967304276"
      stroke-opacity="1"
      stroke-width="2"
      stroke="#0000b3"
      stroke-linecap="butt"
    ></path>
    <title>9:5:walkLine</title>
  </g>
  <g
    transform="rotate(0, 214.8434017562463, 159.3342514072817)translate(214.8434017562463, 159.3342514072817)"
  >
    <!--?xml version="1.0" encoding="utf-8"?-->
    <!-- Generator: Adobe Illustrator 26.3.1, SVG Export Plug-In . SVG Version: 6.00 Build 0)  -->
    <svg
      version="1.1"
      id="Layer_1"
      xmlns="http://www.w3.org/2000/svg"
      xmlns:xlink="http://www.w3.org/1999/xlink"
      x="0px"
      y="0px"
      viewBox="0 0 221.7 221.7"
      style="enable-background: new 0 0 221.7 221.7"
      xml:space="preserve"
      width="42.131490646291816"
      height="42.131490646291816"
    >
      <style type="text/css">
        .st0 {
          opacity: 0.6;
          fill: url(#SVGID_1_);
          enable-background: new;
        }
      </style>
      <radialGradient
        id="SVGID_1_"
        cx="75.4328"
        cy="151.0149"
        r="157.9341"
        gradientTransform="matrix(1 0 0 -1 0 222)"
        gradientUnits="userSpaceOnUse"
      >
        <stop offset="0" style="stop-color: #ffffff"></stop>
        <stop offset="0.7844" style="stop-color: #5f5f5f"></stop>
        <stop offset="1" style="stop-color: #7f7f7f"></stop>
      </radialGradient>
      <circle class="st0" cx="110.9" cy="110.9" r="110.9"></circle>
    </svg>
  </g>
  <circle
    fill="#ffffff"
    fill-opacity="0.4"
    cx="235.9091470793922"
    cy="180.3999967304276"
    stroke="none"
    r="21.065745323145908"
  >
    <title>`y11`.ball</title>
  </circle>
  <circle
    fill="none"
    cx="235.9091470793922"
    cy="180.3999967304276"
    stroke="#ffffff"
    stroke-opacity="1"
    stroke-width="1.5"
    stroke-linecap="butt"
    r="21.065745323145908"
  >
    <title>`y11`.sphere</title>
  </circle>
  <g>
    <marker
      id="9:6:walkLine-leftArrowhead"
      markerUnits="strokeWidth"
      markerWidth="9.95"
      markerHeight="8.12"
      viewBox="0 0 9.95 8.12"
      refX="2.36"
      refY="4.06"
      orient="auto-start-reverse"
    >
      <path
        d="M9.95 4.06 0 8.12 2.36 4.06 0 0 9.95 4.06z"
        fill="#0000b3"
        fill-opacity="1"
      ></path>
    </marker>
    <marker
      id="9:6:walkLine-rightArrowhead"
      markerUnits="strokeWidth"
      markerWidth="9.95"
      markerHeight="8.12"
      viewBox="0 0 9.95 8.12"
      refX="2.36"
      refY="4.06"
      orient="auto-start-reverse"
    >
      <path
        d="M9.95 4.06 0 8.12 2.36 4.06 0 0 9.95 4.06z"
        fill="#0000b3"
        fill-opacity="1"
      ></path>
    </marker>
    <path
      d="M 235.9091470793922 180.3999967304276 L 260.88365113075906 179.87008724601606"
      stroke-opacity="1"
      stroke-width="2"
      stroke="#0000b3"
      stroke-linecap="butt"
    ></path>
    <title>9:6:walkLine</title>
  </g>
  <g
    transform="rotate(0, 242.17737860494404, 161.16381472020103)translate(242.17737860494404, 161.16381472020103)"
  >
    <!--?xml version="1.0" encoding="utf-8"?-->
    <!-- Generator: Adobe Illustrator 26.3.1, SVG Export Plug-In . SVG Version: 6.00 Build 0)  -->
    <svg
      version="1.1"
      id="Layer_1"
      xmlns="http://www.w3.org/2000/svg"
      xmlns:xlink="http://www.w3.org/1999/xlink"
      x="0px"
      y="0px"
      viewBox="0 0 221.7 221.7"
      style="enable-background: new 0 0 221.7 221.7"
      xml:space="preserve"
      width="37.412545051630026"
      height="37.412545051630026"
    >
      <style type="text/css">
        .st0 {
          opacity: 0.6;
          fill: url(#SVGID_1_);
          enable-background: new;
        }
      </style>
      <radialGradient
        id="SVGID_1_"
        cx="75.4328"
        cy="151.0149"
        r="157.9341"
        gradientTransform="matrix(1 0 0 -1 0 222)"
        gradientUnits="userSpaceOnUse"
      >
        <stop offset="0" style="stop-color: #ffffff"></stop>
        <stop offset="0.7844" style="stop-color: #5f5f5f"></stop>
        <stop offset="1" style="stop-color: #7f7f7f"></stop>
      </radialGradient>
      <circle class="st0" cx="110.9" cy="110.9" r="110.9"></circle>
    </svg>
  </g>
  <circle
    fill="#ffffff"
    fill-opacity="0.4"
    cx="260.88365113075906"
    cy="179.87008724601606"
    stroke="none"
    r="18.706272525815013"
  >
    <title>`y12`.ball</title>
  </circle>
  <circle
    fill="none"
    cx="260.88365113075906"
    cy="179.87008724601606"
    stroke="#ffffff"
    stroke-opacity="1"
    stroke-width="1.5"
    stroke-linecap="butt"
    r="18.706272525815013"
  >
    <title>`y12`.sphere</title>
  </circle>
  <g>
    <marker
      id="9:1:walkLine-leftArrowhead"
      markerUnits="strokeWidth"
      markerWidth="9.95"
      markerHeight="8.12"
      viewBox="0 0 9.95 8.12"
      refX="2.36"
      refY="4.06"
      orient="auto-start-reverse"
    >
      <path
        d="M9.95 4.06 0 8.12 2.36 4.06 0 0 9.95 4.06z"
        fill="#0000b3"
        fill-opacity="1"
      ></path>
    </marker>
    <marker
      id="9:1:walkLine-rightArrowhead"
      markerUnits="strokeWidth"
      markerWidth="9.95"
      markerHeight="8.12"
      viewBox="0 0 9.95 8.12"
      refX="2.36"
      refY="4.06"
      orient="auto-start-reverse"
    >
      <path
        d="M9.95 4.06 0 8.12 2.36 4.06 0 0 9.95 4.06z"
        fill="#0000b3"
        fill-opacity="1"
      ></path>
    </marker>
    <path
      d="M 193.13977821573278 138.67561476036045 L 177.46573773507495 83.88415794992551"
      stroke-opacity="1"
      stroke-width="2"
      stroke="#0000b3"
      stroke-linecap="butt"
    ></path>
    <title>9:1:walkLine</title>
  </g>
  <g
    transform="rotate(0, 144.78807672252316, 51.206496937373714)translate(144.78807672252316, 51.206496937373714)"
  >
    <!--?xml version="1.0" encoding="utf-8"?-->
    <!-- Generator: Adobe Illustrator 26.3.1, SVG Export Plug-In . SVG Version: 6.00 Build 0)  -->
    <svg
      version="1.1"
      id="Layer_1"
      xmlns="http://www.w3.org/2000/svg"
      xmlns:xlink="http://www.w3.org/1999/xlink"
      x="0px"
      y="0px"
      viewBox="0 0 221.7 221.7"
      style="enable-background: new 0 0 221.7 221.7"
      xml:space="preserve"
      width="65.35532202510359"
      height="65.35532202510359"
    >
      <style type="text/css">
        .st0 {
          opacity: 0.6;
          fill: url(#SVGID_1_);
          enable-background: new;
        }
      </style>
      <radialGradient
        id="SVGID_1_"
        cx="75.4328"
        cy="151.0149"
        r="157.9341"
        gradientTransform="matrix(1 0 0 -1 0 222)"
        gradientUnits="userSpaceOnUse"
      >
        <stop offset="0" style="stop-color: #ffffff"></stop>
        <stop offset="0.7844" style="stop-color: #5f5f5f"></stop>
        <stop offset="1" style="stop-color: #7f7f7f"></stop>
      </radialGradient>
      <circle class="st0" cx="110.9" cy="110.9" r="110.9"></circle>
    </svg>
  </g>
  <circle
    fill="#33cc33"
    fill-opacity="0.15"
    cx="177.46573773507495"
    cy="83.88415794992551"
    stroke="none"
    r="32.677661012551795"
  >
    <title>`x2`.ball</title>
  </circle>
  <circle
    fill="none"
    cx="177.46573773507495"
    cy="83.88415794992551"
    stroke="#668066"
    stroke-opacity="1"
    stroke-width="1.5"
    stroke-linecap="butt"
    r="32.677661012551795"
  >
    <title>`x2`.sphere</title>
  </circle>
  <g>
    <marker
      id="9:2:walkLine-leftArrowhead"
      markerUnits="strokeWidth"
      markerWidth="9.95"
      markerHeight="8.12"
      viewBox="0 0 9.95 8.12"
      refX="2.36"
      refY="4.06"
      orient="auto-start-reverse"
    >
      <path
        d="M9.95 4.06 0 8.12 2.36 4.06 0 0 9.95 4.06z"
        fill="#0000b3"
        fill-opacity="1"
      ></path>
    </marker>
    <marker
      id="9:2:walkLine-rightArrowhead"
      markerUnits="strokeWidth"
      markerWidth="9.95"
      markerHeight="8.12"
      viewBox="0 0 9.95 8.12"
      refX="2.36"
      refY="4.06"
      orient="auto-start-reverse"
    >
      <path
        d="M9.95 4.06 0 8.12 2.36 4.06 0 0 9.95 4.06z"
        fill="#0000b3"
        fill-opacity="1"
      ></path>
    </marker>
    <path
      d="M 177.46573773507495 83.88415794992551 L 150.07407528025809 66.0239173870104"
      stroke-opacity="1"
      stroke-width="2"
      stroke="#0000b3"
      stroke-linecap="butt"
    ></path>
    <title>9:2:walkLine</title>
  </g>
  <g
    transform="rotate(0, 132.05061317613382, 48.00045528288613)translate(132.05061317613382, 48.00045528288613)"
  >
    <!--?xml version="1.0" encoding="utf-8"?-->
    <!-- Generator: Adobe Illustrator 26.3.1, SVG Export Plug-In . SVG Version: 6.00 Build 0)  -->
    <svg
      version="1.1"
      id="Layer_1"
      xmlns="http://www.w3.org/2000/svg"
      xmlns:xlink="http://www.w3.org/1999/xlink"
      x="0px"
      y="0px"
      viewBox="0 0 221.7 221.7"
      style="enable-background: new 0 0 221.7 221.7"
      xml:space="preserve"
      width="36.04692420824854"
      height="36.04692420824854"
    >
      <style type="text/css">
        .st0 {
          opacity: 0.6;
          fill: url(#SVGID_1_);
          enable-background: new;
        }
      </style>
      <radialGradient
        id="SVGID_1_"
        cx="75.4328"
        cy="151.0149"
        r="157.9341"
        gradientTransform="matrix(1 0 0 -1 0 222)"
        gradientUnits="userSpaceOnUse"
      >
        <stop offset="0" style="stop-color: #ffffff"></stop>
        <stop offset="0.7844" style="stop-color: #5f5f5f"></stop>
        <stop offset="1" style="stop-color: #7f7f7f"></stop>
      </radialGradient>
      <circle class="st0" cx="110.9" cy="110.9" r="110.9"></circle>
    </svg>
  </g>
  <circle
    fill="#33cc33"
    fill-opacity="0.15"
    cx="150.07407528025809"
    cy="66.0239173870104"
    stroke="none"
    r="18.02346210412427"
  >
    <title>`x3`.ball</title>
  </circle>
  <circle
    fill="#000000"
    fill-opacity="1"
    cx="150.07407528025809"
    cy="66.0239173870104"
    stroke="none"
    r="2.5"
  >
    <title>`x3`.dot</title>
  </circle>
  <g
    transform="rotate(0, 125.24990732860795, 106.18719739570713)translate(125.24990732860795, 106.18719739570713)"
  >
    <!--?xml version="1.0" encoding="utf-8"?-->
    <!-- Generator: Adobe Illustrator 26.3.1, SVG Export Plug-In . SVG Version: 6.00 Build 0)  -->
    <svg
      version="1.1"
      id="Layer_1"
      xmlns="http://www.w3.org/2000/svg"
      xmlns:xlink="http://www.w3.org/1999/xlink"
      x="0px"
      y="0px"
      viewBox="0 0 221.7 221.7"
      style="enable-background: new 0 0 221.7 221.7"
      xml:space="preserve"
      width="82.69179429420525"
      height="82.69179429420525"
    >
      <style type="text/css">
        .st0 {
          opacity: 0.6;
          fill: url(#SVGID_1_);
          enable-background: new;
        }
      </style>
      <radialGradient
        id="SVGID_1_"
        cx="75.4328"
        cy="151.0149"
        r="157.9341"
        gradientTransform="matrix(1 0 0 -1 0 222)"
        gradientUnits="userSpaceOnUse"
      >
        <stop offset="0" style="stop-color: #ffffff"></stop>
        <stop offset="0.7844" style="stop-color: #5f5f5f"></stop>
        <stop offset="1" style="stop-color: #7f7f7f"></stop>
      </radialGradient>
      <circle class="st0" cx="110.9" cy="110.9" r="110.9"></circle>
    </svg>
  </g>
  <circle
    fill="#ffffff"
    fill-opacity="0.4"
    cx="166.59580447571057"
    cy="147.53309454280975"
    stroke="none"
    r="41.345897147102626"
  >
    <title>`y00`.ball</title>
  </circle>
  <circle
    fill="none"
    cx="166.59580447571057"
    cy="147.53309454280975"
    stroke="#ffffff"
    stroke-opacity="1"
    stroke-width="1.5"
    stroke-linecap="butt"
    r="41.345897147102626"
  >
    <title>`y00`.sphere</title>
  </circle>
  <g>
    <marker
      id="9:3:walkLine-leftArrowhead"
      markerUnits="strokeWidth"
      markerWidth="9.95"
      markerHeight="8.12"
      viewBox="0 0 9.95 8.12"
      refX="2.36"
      refY="4.06"
      orient="auto-start-reverse"
    >
      <path
        d="M9.95 4.06 0 8.12 2.36 4.06 0 0 9.95 4.06z"
        fill="#0000b3"
        fill-opacity="1"
      ></path>
    </marker>
    <marker
      id="9:3:walkLine-rightArrowhead"
      markerUnits="strokeWidth"
      markerWidth="9.95"
      markerHeight="8.12"
      viewBox="0 0 9.95 8.12"
      refX="2.36"
      refY="4.06"
      orient="auto-start-reverse"
    >
      <path
        d="M9.95 4.06 0 8.12 2.36 4.06 0 0 9.95 4.06z"
        fill="#0000b3"
        fill-opacity="1"
      ></path>
    </marker>
    <path
      d="M 166.59580447571057 147.53309454280975 L 166.7347180564865 93.9539671908042"
      stroke-opacity="1"
      stroke-width="2"
      stroke="#0000b3"
      stroke-linecap="butt"
    ></path>
    <title>9:3:walkLine</title>
  </g>
  <g
    transform="rotate(0, 125.59829038130253, 52.817539515620226)translate(125.59829038130253, 52.817539515620226)"
  >
    <!--?xml version="1.0" encoding="utf-8"?-->
    <!-- Generator: Adobe Illustrator 26.3.1, SVG Export Plug-In . SVG Version: 6.00 Build 0)  -->
    <svg
      version="1.1"
      id="Layer_1"
      xmlns="http://www.w3.org/2000/svg"
      xmlns:xlink="http://www.w3.org/1999/xlink"
      x="0px"
      y="0px"
      viewBox="0 0 221.7 221.7"
      style="enable-background: new 0 0 221.7 221.7"
      xml:space="preserve"
      width="82.27285535036796"
      height="82.27285535036796"
    >
      <style type="text/css">
        .st0 {
          opacity: 0.6;
          fill: url(#SVGID_1_);
          enable-background: new;
        }
      </style>
      <radialGradient
        id="SVGID_1_"
        cx="75.4328"
        cy="151.0149"
        r="157.9341"
        gradientTransform="matrix(1 0 0 -1 0 222)"
        gradientUnits="userSpaceOnUse"
      >
        <stop offset="0" style="stop-color: #ffffff"></stop>
        <stop offset="0.7844" style="stop-color: #5f5f5f"></stop>
        <stop offset="1" style="stop-color: #7f7f7f"></stop>
      </radialGradient>
      <circle class="st0" cx="110.9" cy="110.9" r="110.9"></circle>
    </svg>
  </g>
  <circle
    fill="#ffffff"
    fill-opacity="0.4"
    cx="166.7347180564865"
    cy="93.9539671908042"
    stroke="none"
    r="41.13642767518398"
  >
    <title>`y01`.ball</title>
  </circle>
  <circle
    fill="none"
    cx="166.7347180564865"
    cy="93.9539671908042"
    stroke="#ffffff"
    stroke-opacity="1"
    stroke-width="1.5"
    stroke-linecap="butt"
    r="41.13642767518398"
  >
    <title>`y01`.sphere</title>
  </circle>
  <g>
    <marker
      id="9:4:walkLine-leftArrowhead"
      markerUnits="strokeWidth"
      markerWidth="9.95"
      markerHeight="8.12"
      viewBox="0 0 9.95 8.12"
      refX="2.36"
      refY="4.06"
      orient="auto-start-reverse"
    >
      <path
        d="M9.95 4.06 0 8.12 2.36 4.06 0 0 9.95 4.06z"
        fill="#0000b3"
        fill-opacity="1"
      ></path>
    </marker>
    <marker
      id="9:4:walkLine-rightArrowhead"
      markerUnits="strokeWidth"
      markerWidth="9.95"
      markerHeight="8.12"
      viewBox="0 0 9.95 8.12"
      refX="2.36"
      refY="4.06"
      orient="auto-start-reverse"
    >
      <path
        d="M9.95 4.06 0 8.12 2.36 4.06 0 0 9.95 4.06z"
        fill="#0000b3"
        fill-opacity="1"
      ></path>
    </marker>
    <path
      d="M 166.7347180564865 93.9539671908042 L 201.0971870809548 71.39335754747387"
      stroke-opacity="1"
      stroke-width="2"
      stroke="#0000b3"
      stroke-linecap="butt"
    ></path>
    <title>9:4:walkLine</title>
  </g>
  <g
    transform="rotate(0, 172.3030673988524, 42.599237865371464)translate(172.3030673988524, 42.599237865371464)"
  >
    <!--?xml version="1.0" encoding="utf-8"?-->
    <!-- Generator: Adobe Illustrator 26.3.1, SVG Export Plug-In . SVG Version: 6.00 Build 0)  -->
    <svg
      version="1.1"
      id="Layer_1"
      xmlns="http://www.w3.org/2000/svg"
      xmlns:xlink="http://www.w3.org/1999/xlink"
      x="0px"
      y="0px"
      viewBox="0 0 221.7 221.7"
      style="enable-background: new 0 0 221.7 221.7"
      xml:space="preserve"
      width="57.58823936420482"
      height="57.58823936420482"
    >
      <style type="text/css">
        .st0 {
          opacity: 0.6;
          fill: url(#SVGID_1_);
          enable-background: new;
        }
      </style>
      <radialGradient
        id="SVGID_1_"
        cx="75.4328"
        cy="151.0149"
        r="157.9341"
        gradientTransform="matrix(1 0 0 -1 0 222)"
        gradientUnits="userSpaceOnUse"
      >
        <stop offset="0" style="stop-color: #ffffff"></stop>
        <stop offset="0.7844" style="stop-color: #5f5f5f"></stop>
        <stop offset="1" style="stop-color: #7f7f7f"></stop>
      </radialGradient>
      <circle class="st0" cx="110.9" cy="110.9" r="110.9"></circle>
    </svg>
  </g>
  <circle
    fill="#ffffff"
    fill-opacity="0.4"
    cx="201.0971870809548"
    cy="71.39335754747387"
    stroke="none"
    r="28.79411968210241"
  >
    <title>`y02`.ball</title>
  </circle>
  <circle
    fill="none"
    cx="201.0971870809548"
    cy="71.39335754747387"
    stroke="#ffffff"
    stroke-opacity="1"
    stroke-width="1.5"
    stroke-linecap="butt"
    r="28.79411968210241"
  >
    <title>`y02`.sphere</title>
  </circle>
  <circle
    fill="#ffffff"
    fill-opacity="1"
    cx="201.0971870809548"
    cy="71.39335754747387"
    stroke="none"
    r="2.5"
  >
    <title>`y02`.dot</title>
  </circle>
  <g
    transform="rotate(0, 176.3747970065348, 111.57143717585315)translate(176.3747970065348, 111.57143717585315)"
    paint-order="stroke"
    string="x_1"
    stroke-linejoin="round"
  >
    <title>`x1`.labelText</title>
    <svg
      xmlns="http://www.w3.org/2000/svg"
      width="22.811875999999998"
      height="22.66"
      role="img"
      focusable="false"
      viewBox="-1.8819 -10.305719999999999 20.39755974 15.454719999999998"
    >
      <path
        stroke="#ffffff"
        fill="#000000"
        stroke-width="2.5"
        d="M0.9183199999999999-5.103739999999999Q1.0419399999999999-5.845459999999999 1.8719599999999998-6.8167599999999995T3.92052-7.805719999999999Q4.53862-7.805719999999999 5.0507599999999995-7.487839999999999T5.81014-6.69314Q6.55186-7.805719999999999 7.593799999999999-7.805719999999999 8.247219999999999-7.805719999999999 8.724039999999999-7.417199999999999T9.21852-6.37526Q9.21852-5.863119999999999 8.97128-5.54524T8.49446-5.15672 8.08828-5.08608Q7.752739999999999-5.08608 7.540819999999999-5.28034T7.328899999999999-5.792479999999999Q7.328899999999999-6.604839999999999 8.2119-6.90506 8.01764-7.134639999999999 7.5055-7.134639999999999 7.275919999999999-7.134639999999999 7.16996-7.09932 6.49888-6.8167599999999995 6.180999999999999-5.9337599999999995 5.1213999999999995-2.0309 5.1213999999999995-1.3774799999999998 5.1213999999999995-0.8829999999999999 5.40396-0.6710799999999999T6.02206-0.45915999999999996Q6.675479999999999-0.45915999999999996 7.31124-1.0419399999999999T8.17658-2.4724Q8.22956-2.6489999999999996 8.28254-2.66666T8.5651-2.70198H8.63574Q8.90064-2.70198 8.90064-2.5606999999999998 8.90064-2.54304 8.865319999999999-2.36644 8.582759999999999-1.3598199999999998 7.7703999999999995-0.58278T5.88078 0.19426Q4.6445799999999995 0.19426 4.00882-0.9183199999999999 3.28476 0.17659999999999998 2.3487799999999996 0.17659999999999998H2.24282Q1.3774799999999998 0.17659999999999998 1.0066199999999998-0.28256T0.6181-1.25386Q0.6181-1.8189799999999998 0.9536399999999999-2.17218T1.7483399999999998-2.5253799999999997Q2.50772-2.5253799999999997 2.50772-1.7836599999999998 2.50772-1.4304599999999998 2.2958-1.16556T1.8896199999999999-0.81236 1.66004-0.7240599999999999L1.60706-0.7063999999999999Q1.60706-0.6887399999999999 1.7130199999999998-0.63576T1.99558-0.5121399999999999 2.33112-0.45915999999999996Q2.9668799999999997-0.45915999999999996 3.4260399999999995-1.25386 3.58498-1.53642 3.8322199999999995-2.4547399999999997T4.3267-4.362019999999999 4.60926-5.5275799999999995Q4.697559999999999-6.0043999999999995 4.697559999999999-6.21632 4.697559999999999-6.7108 4.432659999999999-6.922719999999999T3.8322199999999995-7.134639999999999Q3.1258199999999996-7.134639999999999 2.50772-6.56952T1.64238-5.1213999999999995Q1.60706-4.962459999999999 1.55408-4.9448T1.27152-4.909479999999999H1.0242799999999999Q0.9183199999999999-5.01544 0.9183199999999999-5.103739999999999ZM13.343737059999999-4.56768836L13.181423999999998-4.505260259999999Q13.006625319999998-4.442832159999999 12.6819992-4.38040406T11.95783324-4.29300472H11.720606459999999V-4.867343239999999H11.95783324Q12.544657379999999-4.89231448 13.04408218-5.054627539999999T13.7432769-5.35428242 14.092874259999999-5.628966059999999Q14.117845499999998-5.66642292 14.2427017-5.66642292 14.355072279999998-5.66642292 14.454957239999999-5.5915092V-1.85830882L14.467442859999998 1.8873771799999999Q14.554842199999998 1.9747765199999998 14.6172703 1.99974776T14.916925179999998 2.04969024 15.691033619999997 2.0746614799999996H16.01565974V2.6489999999999996H15.878317919999999Q15.6161199 2.6115431399999998 13.893104339999999 2.6115431399999998 12.19506002 2.6115431399999998 11.932862 2.6489999999999996H11.783034559999999V2.0746614799999996H12.107660679999999Q12.38234432 2.0746614799999996 12.58211424 2.0746614799999996T12.89425474 2.06217586 13.094024659999999 2.024719 13.193909619999998 1.99974776 13.268823339999999 1.9373196599999998 13.343737059999999 1.8873771799999999V-4.56768836Z"
        fill-opacity="1"
        stroke-opacity="1"
        stroke-linecap="butt"
      ></path>
    </svg>
  </g>
  <circle
    fill="#000000"
    fill-opacity="1"
    cx="193.13977821573278"
    cy="138.67561476036045"
    stroke="none"
    r="2.5"
  >
    <title>`x1`.dot</title>
  </circle>
  <g
    transform="rotate(0, 175.6696283997789, 88.318646736832)translate(175.6696283997789, 88.318646736832)"
    paint-order="stroke"
    string="\ldots"
    stroke-linejoin="round"
  >
    <title>`x2`.labelText</title>
    <svg
      xmlns="http://www.w3.org/2000/svg"
      width="25.697519999999997"
      height="22.66"
      role="img"
      focusable="false"
      viewBox="-1.1225200000000002 -4.619199999999999 22.9249 7.119199999999999"
    >
      <path
        stroke="#ffffff"
        fill="#000000"
        stroke-width="2.5"
        d="M1.3774799999999998-1.0595999999999999Q1.3774799999999998-1.4834399999999999 1.6777-1.8013199999999998T2.43708-2.1191999999999998Q2.8609199999999997-2.1191999999999998 3.1788-1.8366399999999998T3.51434-1.0772599999999999Q3.51434-0.63576 3.21412-0.31788T2.4547399999999997 0 1.69536-0.30022 1.3774799999999998-1.0595999999999999ZM9.2715-1.0595999999999999Q9.2715-1.4834399999999999 9.57172-1.8013199999999998T10.3311-2.1191999999999998Q10.75494-2.1191999999999998 11.072819999999998-1.8366399999999998T11.408359999999998-1.0772599999999999Q11.408359999999998-0.63576 11.108139999999999-0.31788T10.348759999999999 0 9.589379999999998-0.30022 9.2715-1.0595999999999999ZM17.165519999999997-1.0595999999999999Q17.165519999999997-1.4834399999999999 17.46574-1.8013199999999998T18.225119999999997-2.1191999999999998Q18.64896-2.1191999999999998 18.966839999999998-1.8366399999999998T19.30238-1.0772599999999999Q19.30238-0.63576 19.00216-0.31788T18.24278 0 17.4834-0.30022 17.165519999999997-1.0595999999999999Z"
        fill-opacity="1"
        stroke-opacity="1"
        stroke-linecap="butt"
      ></path>
    </svg>
  </g>
  <circle
    fill="#000000"
    fill-opacity="1"
    cx="177.46573773507495"
    cy="83.88415794992551"
    stroke="none"
    r="2.5"
  >
    <title>`x2`.dot</title>
  </circle>
  <circle
    fill="#ffffff"
    fill-opacity="1"
    cx="212.58512728755937"
    cy="177.44543678589162"
    stroke="none"
    r="2.5"
  >
    <title>`y10`.dot</title>
  </circle>
  <g
    transform="rotate(0, 98.1028229931014, 93.24223218990342)translate(98.1028229931014, 93.24223218990342)"
    paint-order="stroke"
    string="x_0"
    stroke-linejoin="round"
  >
    <title>`x0`.labelText</title>
    <svg
      xmlns="http://www.w3.org/2000/svg"
      width="22.811875999999998"
      height="22.66"
      role="img"
      focusable="false"
      viewBox="-1.8819 -10.305719999999999 20.8095852 15.72940364"
    >
      <path
        stroke="#ffffff"
        fill="#000000"
        stroke-width="2.5"
        d="M0.9183199999999999-5.103739999999999Q1.0419399999999999-5.845459999999999 1.8719599999999998-6.8167599999999995T3.92052-7.805719999999999Q4.53862-7.805719999999999 5.0507599999999995-7.487839999999999T5.81014-6.69314Q6.55186-7.805719999999999 7.593799999999999-7.805719999999999 8.247219999999999-7.805719999999999 8.724039999999999-7.417199999999999T9.21852-6.37526Q9.21852-5.863119999999999 8.97128-5.54524T8.49446-5.15672 8.08828-5.08608Q7.752739999999999-5.08608 7.540819999999999-5.28034T7.328899999999999-5.792479999999999Q7.328899999999999-6.604839999999999 8.2119-6.90506 8.01764-7.134639999999999 7.5055-7.134639999999999 7.275919999999999-7.134639999999999 7.16996-7.09932 6.49888-6.8167599999999995 6.180999999999999-5.9337599999999995 5.1213999999999995-2.0309 5.1213999999999995-1.3774799999999998 5.1213999999999995-0.8829999999999999 5.40396-0.6710799999999999T6.02206-0.45915999999999996Q6.675479999999999-0.45915999999999996 7.31124-1.0419399999999999T8.17658-2.4724Q8.22956-2.6489999999999996 8.28254-2.66666T8.5651-2.70198H8.63574Q8.90064-2.70198 8.90064-2.5606999999999998 8.90064-2.54304 8.865319999999999-2.36644 8.582759999999999-1.3598199999999998 7.7703999999999995-0.58278T5.88078 0.19426Q4.6445799999999995 0.19426 4.00882-0.9183199999999999 3.28476 0.17659999999999998 2.3487799999999996 0.17659999999999998H2.24282Q1.3774799999999998 0.17659999999999998 1.0066199999999998-0.28256T0.6181-1.25386Q0.6181-1.8189799999999998 0.9536399999999999-2.17218T1.7483399999999998-2.5253799999999997Q2.50772-2.5253799999999997 2.50772-1.7836599999999998 2.50772-1.4304599999999998 2.2958-1.16556T1.8896199999999999-0.81236 1.66004-0.7240599999999999L1.60706-0.7063999999999999Q1.60706-0.6887399999999999 1.7130199999999998-0.63576T1.99558-0.5121399999999999 2.33112-0.45915999999999996Q2.9668799999999997-0.45915999999999996 3.4260399999999995-1.25386 3.58498-1.53642 3.8322199999999995-2.4547399999999997T4.3267-4.362019999999999 4.60926-5.5275799999999995Q4.697559999999999-6.0043999999999995 4.697559999999999-6.21632 4.697559999999999-6.7108 4.432659999999999-6.922719999999999T3.8322199999999995-7.134639999999999Q3.1258199999999996-7.134639999999999 2.50772-6.56952T1.64238-5.1213999999999995Q1.60706-4.962459999999999 1.55408-4.9448T1.27152-4.909479999999999H1.0242799999999999Q0.9183199999999999-5.01544 0.9183199999999999-5.103739999999999ZM11.882919519999998-4.6550877Q12.58211424-5.66642292 13.793219379999998-5.66642292 14.392529139999999-5.66642292 14.991838899999998-5.3417968T15.96571726-4.19311976Q16.4276852-3.1568132999999996 16.4276852-1.3463983999999998 16.4276852 0.5888726999999999 15.890803539999999 1.61269354 15.641091139999999 2.13708958 15.204094439999999 2.4492300799999995T14.44247162 2.8362842999999995 13.805705 2.9236836399999997Q13.48107888 2.9236836399999997 13.156452759999999 2.84876992T12.39482994 2.4492300799999995 11.70812084 1.61269354Q11.171239179999999 0.5888726999999999 11.171239179999999-1.3463983999999998 11.171239179999999-3.51889628 11.882919519999998-4.6550877ZM14.69218402-4.804915139999999Q14.317615419999997-5.2044549799999995 13.805705-5.2044549799999995 13.28130896-5.2044549799999995 12.906740359999999-4.804915139999999 12.59459986-4.48028902 12.494714899999998-3.9059505T12.39482994-1.5087114599999998Q12.39482994 0.46401649999999994 12.494714899999998 1.0882975T12.94419722 2.0746614799999996Q13.29379458 2.4492300799999995 13.805705 2.4492300799999995 14.305129799999998 2.4492300799999995 14.654727159999998 2.0746614799999996 15.016810139999999 1.70009288 15.10420948 1.0258694T15.204094439999999-1.5087114599999998Q15.204094439999999-3.31912636 15.10420948-3.8934648799999994T14.69218402-4.804915139999999Z"
        fill-opacity="1"
        stroke-opacity="1"
        stroke-linecap="butt"
      ></path>
    </svg>
  </g>
  <circle
    fill="#000000"
    fill-opacity="1"
    cx="109.06666531689649"
    cy="120.7833718859791"
    stroke="none"
    r="2.5"
  >
    <title>`x0`.dot</title>
  </circle>
  <circle
    fill="#ffffff"
    fill-opacity="1"
    cx="260.88365113075906"
    cy="179.87008724601606"
    stroke="none"
    r="2.5"
  >
    <title>`y12`.dot</title>
  </circle>
  <circle
    fill="#ffffff"
    fill-opacity="1"
    cx="166.7347180564865"
    cy="93.9539671908042"
    stroke="none"
    r="2.5"
  >
    <title>`y01`.dot</title>
  </circle>
  <g
    transform="rotate(0, 171.02007740727325, 140.05996079158888)translate(171.02007740727325, 140.05996079158888)"
    paint-order="stroke"
    string="y_0"
    stroke-linejoin="round"
  >
    <title>`y00`.labelText</title>
    <svg
      xmlns="http://www.w3.org/2000/svg"
      width="21.363756"
      height="22.66"
      role="img"
      focusable="false"
      viewBox="-2.12914 -10.305719999999999 19.6087052 16.42602"
    >
      <path
        stroke="#ffffff"
        fill="#000000"
        stroke-width="2.5"
        d="M0.37085999999999997-5.06842Q0.37085999999999997-5.315659999999999 0.63576-5.916099999999999T1.4834399999999999-7.16996 2.7902799999999996-7.805719999999999Q3.51434-7.805719999999999 3.95584-7.399539999999999T4.415-6.269299999999999Q4.37968-5.9337599999999995 4.362019999999999-5.89844 4.362019999999999-5.845459999999999 4.07946-5.08608T3.4966799999999996-3.3730599999999997 3.21412-1.8542999999999998Q3.21412-1.09492 3.4613599999999995-0.7947T4.20308-0.47681999999999997Q4.60926-0.47681999999999997 4.962459999999999-0.6710799999999999T5.509919999999999-1.0772599999999999 5.986739999999999-1.66004Q5.986739999999999-1.6777 6.0750399999999996-2.0132399999999997T6.322279999999999-3.0551799999999996 6.657819999999999-4.362019999999999Q7.328899999999999-7.011019999999999 7.399539999999999-7.134639999999999 7.6291199999999995-7.611459999999999 8.15892-7.611459999999999 8.388499999999999-7.611459999999999 8.529779999999999-7.487839999999999T8.724039999999999-7.275919999999999 8.75936-7.11698Q8.75936-6.8873999999999995 7.894019999999999-3.4083799999999997T6.90506 0.40618Q6.4105799999999995 1.8719599999999998 5.1920399999999995 2.7373T2.7549599999999996 3.6203Q1.96026 3.6203 1.3598199999999998 3.2317799999999997T0.7593799999999999 2.06622Q0.7593799999999999 1.6777 0.8829999999999999 1.4127999999999998T1.21854 1.0242799999999999 1.57174 0.84768 1.8719599999999998 0.7947Q2.6489999999999996 0.7947 2.6489999999999996 1.53642 2.6489999999999996 1.8896199999999999 2.43708 2.1545199999999998T2.0309 2.50772 1.8013199999999998 2.5960199999999998L1.7483399999999998 2.61368Q1.7836599999999998 2.70198 2.0838799999999997 2.8255999999999997T2.6843199999999996 2.94922H2.8255999999999997Q3.1258199999999996 2.94922 3.28476 2.9139 3.8675399999999995 2.7549599999999996 4.362019999999999 2.24282T5.1213999999999995 1.1479 5.5275799999999995 0.15894 5.66886-0.37085999999999997L5.5629-0.30022Q5.4569399999999995-0.22957999999999998 5.22736-0.10596T4.768199999999999 0.10596Q4.415 0.19426 4.07946 0.19426 3.2670999999999997 0.19426 2.6489999999999996-0.19426T1.8366399999999998-1.4481199999999999Q1.8189799999999998-1.57174 1.8189799999999998-1.99558 1.8189799999999998-3.0021999999999998 2.43708-4.626919999999999T3.0551799999999996-6.69314Q3.0551799999999996-6.7108 3.0551799999999996-6.728459999999999 3.0551799999999996-6.8873999999999995 3.0551799999999996-6.940379999999999T2.98454-7.063999999999999 2.7902799999999996-7.134639999999999H2.7196399999999996Q2.3134599999999996-7.134639999999999 1.97792-6.799099999999999T1.4481199999999999-6.0750399999999996 1.1479-5.33332 1.0066199999999998-4.9448Q0.9712999999999999-4.909479999999999 0.7240599999999999-4.909479999999999H0.47681999999999997Q0.37085999999999997-5.01544 0.37085999999999997-5.06842ZM10.434799519999999-4.6550877Q11.13399424-5.66642292 12.345099379999999-5.66642292 12.94440914-5.66642292 13.543718899999998-5.3417968T14.517597259999999-4.19311976Q14.9795652-3.1568132999999996 14.9795652-1.3463983999999998 14.9795652 0.5888726999999999 14.442683539999997 1.61269354 14.19297114 2.13708958 13.75597444 2.4492300799999995T12.99435162 2.8362842999999995 12.357584999999998 2.9236836399999997Q12.03295888 2.9236836399999997 11.70833276 2.84876992T10.94670994 2.4492300799999995 10.26000084 1.61269354Q9.72311918 0.5888726999999999 9.72311918-1.3463983999999998 9.72311918-3.51889628 10.434799519999999-4.6550877ZM13.24406402-4.804915139999999Q12.869495419999998-5.2044549799999995 12.357584999999998-5.2044549799999995 11.83318896-5.2044549799999995 11.45862036-4.804915139999999 11.14647986-4.48028902 11.046594899999999-3.9059505T10.94670994-1.5087114599999998Q10.94670994 0.46401649999999994 11.046594899999999 1.0882975T11.496077219999998 2.0746614799999996Q11.845674579999999 2.4492300799999995 12.357584999999998 2.4492300799999995 12.857009799999998 2.4492300799999995 13.206607159999999 2.0746614799999996 13.568690139999998 1.70009288 13.656089479999999 1.0258694T13.75597444-1.5087114599999998Q13.75597444-3.31912636 13.656089479999999-3.8934648799999994T13.24406402-4.804915139999999Z"
        fill-opacity="1"
        stroke-opacity="1"
        stroke-linecap="butt"
      ></path>
    </svg>
  </g>
  <circle
    fill="#ffffff"
    fill-opacity="1"
    cx="166.59580447571057"
    cy="147.53309454280975"
    stroke="none"
    r="2.5"
  >
    <title>`y00`.dot</title>
  </circle>
  <circle
    fill="#ffffff"
    fill-opacity="1"
    cx="235.9091470793922"
    cy="180.3999967304276"
    stroke="none"
    r="2.5"
  >
    <title>`y11`.dot</title>
  </circle>
  <g
    transform="rotate(0, 196.2378694260686, 145.42913414451573)translate(196.2378694260686, 145.42913414451573)"
    paint-order="stroke"
    string="y_1"
    stroke-linejoin="round"
  >
    <title>`y10`.labelText</title>
    <svg
      xmlns="http://www.w3.org/2000/svg"
      width="21.363756"
      height="22.66"
      role="img"
      focusable="false"
      viewBox="-2.12914 -10.305719999999999 19.19667974 16.42602"
    >
      <path
        stroke="#ffffff"
        fill="#000000"
        stroke-width="2.5"
        d="M0.37085999999999997-5.06842Q0.37085999999999997-5.315659999999999 0.63576-5.916099999999999T1.4834399999999999-7.16996 2.7902799999999996-7.805719999999999Q3.51434-7.805719999999999 3.95584-7.399539999999999T4.415-6.269299999999999Q4.37968-5.9337599999999995 4.362019999999999-5.89844 4.362019999999999-5.845459999999999 4.07946-5.08608T3.4966799999999996-3.3730599999999997 3.21412-1.8542999999999998Q3.21412-1.09492 3.4613599999999995-0.7947T4.20308-0.47681999999999997Q4.60926-0.47681999999999997 4.962459999999999-0.6710799999999999T5.509919999999999-1.0772599999999999 5.986739999999999-1.66004Q5.986739999999999-1.6777 6.0750399999999996-2.0132399999999997T6.322279999999999-3.0551799999999996 6.657819999999999-4.362019999999999Q7.328899999999999-7.011019999999999 7.399539999999999-7.134639999999999 7.6291199999999995-7.611459999999999 8.15892-7.611459999999999 8.388499999999999-7.611459999999999 8.529779999999999-7.487839999999999T8.724039999999999-7.275919999999999 8.75936-7.11698Q8.75936-6.8873999999999995 7.894019999999999-3.4083799999999997T6.90506 0.40618Q6.4105799999999995 1.8719599999999998 5.1920399999999995 2.7373T2.7549599999999996 3.6203Q1.96026 3.6203 1.3598199999999998 3.2317799999999997T0.7593799999999999 2.06622Q0.7593799999999999 1.6777 0.8829999999999999 1.4127999999999998T1.21854 1.0242799999999999 1.57174 0.84768 1.8719599999999998 0.7947Q2.6489999999999996 0.7947 2.6489999999999996 1.53642 2.6489999999999996 1.8896199999999999 2.43708 2.1545199999999998T2.0309 2.50772 1.8013199999999998 2.5960199999999998L1.7483399999999998 2.61368Q1.7836599999999998 2.70198 2.0838799999999997 2.8255999999999997T2.6843199999999996 2.94922H2.8255999999999997Q3.1258199999999996 2.94922 3.28476 2.9139 3.8675399999999995 2.7549599999999996 4.362019999999999 2.24282T5.1213999999999995 1.1479 5.5275799999999995 0.15894 5.66886-0.37085999999999997L5.5629-0.30022Q5.4569399999999995-0.22957999999999998 5.22736-0.10596T4.768199999999999 0.10596Q4.415 0.19426 4.07946 0.19426 3.2670999999999997 0.19426 2.6489999999999996-0.19426T1.8366399999999998-1.4481199999999999Q1.8189799999999998-1.57174 1.8189799999999998-1.99558 1.8189799999999998-3.0021999999999998 2.43708-4.626919999999999T3.0551799999999996-6.69314Q3.0551799999999996-6.7108 3.0551799999999996-6.728459999999999 3.0551799999999996-6.8873999999999995 3.0551799999999996-6.940379999999999T2.98454-7.063999999999999 2.7902799999999996-7.134639999999999H2.7196399999999996Q2.3134599999999996-7.134639999999999 1.97792-6.799099999999999T1.4481199999999999-6.0750399999999996 1.1479-5.33332 1.0066199999999998-4.9448Q0.9712999999999999-4.909479999999999 0.7240599999999999-4.909479999999999H0.47681999999999997Q0.37085999999999997-5.01544 0.37085999999999997-5.06842ZM11.89561706-4.56768836L11.733303999999999-4.505260259999999Q11.558505319999998-4.442832159999999 11.233879199999999-4.38040406T10.50971324-4.29300472H10.27248646V-4.867343239999999H10.50971324Q11.09653738-4.89231448 11.59596218-5.054627539999999T12.2951569-5.35428242 12.64475426-5.628966059999999Q12.669725499999998-5.66642292 12.794581699999998-5.66642292 12.906952279999999-5.66642292 13.00683724-5.5915092V-1.85830882L13.019322859999999 1.8873771799999999Q13.106722199999998 1.9747765199999998 13.1691503 1.99974776T13.468805179999999 2.04969024 14.242913619999998 2.0746614799999996H14.567539739999999V2.6489999999999996H14.430197919999998Q14.167999899999998 2.6115431399999998 12.444984339999998 2.6115431399999998 10.74694002 2.6115431399999998 10.484742 2.6489999999999996H10.33491456V2.0746614799999996H10.65954068Q10.93422432 2.0746614799999996 11.13399424 2.0746614799999996T11.44613474 2.06217586 11.64590466 2.024719 11.745789619999998 1.99974776 11.82070334 1.9373196599999998 11.89561706 1.8873771799999999V-4.56768836Z"
        fill-opacity="1"
        stroke-opacity="1"
        stroke-linecap="butt"
      ></path>
    </svg>
  </g>
  <circle
    fill="none"
    cx="150.07407528025809"
    cy="66.0239173870104"
    stroke="#668066"
    stroke-opacity="1"
    stroke-width="1.5"
    stroke-linecap="butt"
    r="18.02346210412427"
  >
    <title>`x3`.sphere</title>
  </circle>
  <g
    transform="rotate(0, 148.03872718002881, 72.68600040665558)translate(148.03872718002881, 72.68600040665558)"
    paint-order="stroke"
    string="x_k"
    stroke-linejoin="round"
  >
    <title>`x3`.labelText</title>
    <svg
      xmlns="http://www.w3.org/2000/svg"
      width="23.073244"
      height="22.66"
      role="img"
      focusable="false"
      viewBox="-1.8819 -10.305719999999999 21.34646686 15.592061819999998"
    >
      <path
        stroke="#ffffff"
        fill="#000000"
        stroke-width="2.5"
        d="M0.9183199999999999-5.103739999999999Q1.0419399999999999-5.845459999999999 1.8719599999999998-6.8167599999999995T3.92052-7.805719999999999Q4.53862-7.805719999999999 5.0507599999999995-7.487839999999999T5.81014-6.69314Q6.55186-7.805719999999999 7.593799999999999-7.805719999999999 8.247219999999999-7.805719999999999 8.724039999999999-7.417199999999999T9.21852-6.37526Q9.21852-5.863119999999999 8.97128-5.54524T8.49446-5.15672 8.08828-5.08608Q7.752739999999999-5.08608 7.540819999999999-5.28034T7.328899999999999-5.792479999999999Q7.328899999999999-6.604839999999999 8.2119-6.90506 8.01764-7.134639999999999 7.5055-7.134639999999999 7.275919999999999-7.134639999999999 7.16996-7.09932 6.49888-6.8167599999999995 6.180999999999999-5.9337599999999995 5.1213999999999995-2.0309 5.1213999999999995-1.3774799999999998 5.1213999999999995-0.8829999999999999 5.40396-0.6710799999999999T6.02206-0.45915999999999996Q6.675479999999999-0.45915999999999996 7.31124-1.0419399999999999T8.17658-2.4724Q8.22956-2.6489999999999996 8.28254-2.66666T8.5651-2.70198H8.63574Q8.90064-2.70198 8.90064-2.5606999999999998 8.90064-2.54304 8.865319999999999-2.36644 8.582759999999999-1.3598199999999998 7.7703999999999995-0.58278T5.88078 0.19426Q4.6445799999999995 0.19426 4.00882-0.9183199999999999 3.28476 0.17659999999999998 2.3487799999999996 0.17659999999999998H2.24282Q1.3774799999999998 0.17659999999999998 1.0066199999999998-0.28256T0.6181-1.25386Q0.6181-1.8189799999999998 0.9536399999999999-2.17218T1.7483399999999998-2.5253799999999997Q2.50772-2.5253799999999997 2.50772-1.7836599999999998 2.50772-1.4304599999999998 2.2958-1.16556T1.8896199999999999-0.81236 1.66004-0.7240599999999999L1.60706-0.7063999999999999Q1.60706-0.6887399999999999 1.7130199999999998-0.63576T1.99558-0.5121399999999999 2.33112-0.45915999999999996Q2.9668799999999997-0.45915999999999996 3.4260399999999995-1.25386 3.58498-1.53642 3.8322199999999995-2.4547399999999997T4.3267-4.362019999999999 4.60926-5.5275799999999995Q4.697559999999999-6.0043999999999995 4.697559999999999-6.21632 4.697559999999999-6.7108 4.432659999999999-6.922719999999999T3.8322199999999995-7.134639999999999Q3.1258199999999996-7.134639999999999 2.50772-6.56952T1.64238-5.1213999999999995Q1.60706-4.962459999999999 1.55408-4.9448T1.27152-4.909479999999999H1.0242799999999999Q0.9183199999999999-5.01544 0.9183199999999999-5.103739999999999ZM12.19506002-5.429196139999999Q12.19506002-5.55405234 12.245002499999998-5.7163654T12.39482994-5.878678459999999Q12.407315559999999-5.878678459999999 13.29379458-5.94110656T14.205244839999999-6.01602028Q14.355072279999998-6.01602028 14.355072279999998-5.9161353199999995 14.355072279999998-5.828735979999999 13.73079128-3.3066407399999997 13.106510279999998-0.8344879799999999 13.106510279999998-0.74708864 13.343737059999999-0.8719448399999999 13.468593259999999-0.9843154199999999 13.768248139999999-1.2090565799999997 14.330101039999999-1.77090948T15.204094439999999-2.5325322999999997Q15.70351924-2.86964404 16.15300156-2.86964404 16.52757016-2.86964404 16.739825699999997-2.63241726T16.964566859999998-1.9581937799999998Q16.964566859999998-1.6460532799999998 16.87716752-1.4337977399999997T16.63994074-1.12165724 16.37774272-0.9843154199999999 16.15300156-0.9468585599999999Q15.903289159999998-0.9468585599999999 15.753461719999999-1.08420038T15.603634279999998-1.4462833599999998Q15.603634279999998-1.7584238599999997 15.8034042-1.9581937799999998T16.20294404-2.2203918L16.40271396-2.2578486599999996Q16.252886519999997-2.4076760999999998 16.103059079999998-2.4076760999999998H16.0531166Q15.653576759999998-2.37021924 15.26652254-2.0955356T14.355072279999998-1.29645592 13.531021359999999-0.5348331Q13.5559926-0.52234748 13.71830566-0.49737623999999997T14.017960539999999-0.42246251999999995 14.342586659999998-0.32257755999999993 14.6796984-0.14777888 14.954382039999999 0.07696228 15.166637579999998 0.40158839999999996 15.241551299999998 0.8136138599999999Q15.241551299999998 1.0258694 15.1791232 1.32552428T15.10420948 1.8249490799999997Q15.10420948 2.3243738799999996 15.441321219999999 2.3243738799999996 16.04063098 2.3243738799999996 16.41519958 0.8385851 16.44017082 0.73870014 16.66491198 0.73870014H16.714854459999998Q16.91462438 0.73870014 16.91462438 0.85107072 16.91462438 0.9134988199999998 16.87716752 1.0258694 16.365257099999997 2.7863418199999996 15.403864359999998 2.7863418199999996 14.84201146 2.7863418199999996 14.4924141 2.4617157T14.14281674 1.5252942Q14.14281674 1.30055304 14.1802736 1.13823998T14.217730459999999 0.8385851Q14.217730459999999 0.56390146 14.042931779999998 0.36413154T13.605935079999998 0.07696228 13.181423999999998-0.060379539999999995 12.95668284-0.09783639999999999H12.931711599999998Q12.781884159999999 0.42655963999999996 12.669513579999998 0.9134988199999998T12.494714899999998 1.63766478 12.38234432 2.09963272 12.294944979999999 2.3992876 12.20754564 2.5616006599999994 12.070203819999998 2.6739712399999997Q11.907890759999997 2.7863418199999996 11.720606459999999 2.7863418199999996 11.50835092 2.7863418199999996 11.39598034 2.6614856199999997T11.28360976 2.4492300799999995Q11.28360976 2.3243738799999996 11.7455777 0.45153087999999997T12.657027959999999-3.23172702L13.1189959-5.04214192Q13.13148152-5.2044549799999995 13.03159656-5.24191184T12.544657379999999-5.304339939999999H12.482229279999999Q12.35737308-5.304339939999999 12.319916219999998-5.304339939999999T12.232516879999999-5.3417968 12.19506002-5.429196139999999Z"
        fill-opacity="1"
        stroke-opacity="1"
        stroke-linecap="butt"
      ></path>
    </svg>
  </g>
</svg>
