<svg version="1.2" xmlns="http://www.w3.org/2000/svg" viewBox="0 0 320 240">
  <rect
    x="0"
    y="0"
    width="320"
    height="240"
    fill="none"
    stroke="none"
    rx="0"
    transform="rotate(0, 0, 0)"
  >
    <title>Global.box</title>
  </rect>
  <polygon
    fill="#e6e6e6"
    fill-opacity="1"
    stroke="#808080"
    stroke-opacity="1"
    stroke-width="2"
    stroke-linecap="butt"
    transform="scale(1)"
    points="280.42807409654677,225.4685881445015,145.26691903914045,239.34440123719304,31.07781978636328,239.9934581403572,0.30243973481051967,14.881606358458214,135.1251115726512,11.559244293087673,320.02913358622357,0.02389077325784683"
  >
    <title>Global.domain</title>
  </polygon>
  <g
    transform="rotate(0, 18.53071773133425, 14.010245289892183)translate(18.53071773133425, 14.010245289892183)"
  >
    <!--?xml version="1.0" encoding="utf-8"?-->
    <!-- Generator: Adobe Illustrator 26.3.1, SVG Export Plug-In . SVG Version: 6.00 Build 0)  -->
    <svg
      version="1.1"
      id="Layer_1"
      xmlns="http://www.w3.org/2000/svg"
      xmlns:xlink="http://www.w3.org/1999/xlink"
      x="0px"
      y="0px"
      viewBox="0 0 221.7 221.7"
      style="enable-background: new 0 0 221.7 221.7"
      xml:space="preserve"
      width="223.6670287716691"
      height="223.6670287716691"
    >
      <style type="text/css">
        .st0 {
          opacity: 0.6;
          fill: url(#SVGID_1_);
          enable-background: new;
        }
      </style>
      <radialGradient
        id="SVGID_1_"
        cx="75.4328"
        cy="151.0149"
        r="157.9341"
        gradientTransform="matrix(1 0 0 -1 0 222)"
        gradientUnits="userSpaceOnUse"
      >
        <stop offset="0" style="stop-color: #ffffff"></stop>
        <stop offset="0.7844" style="stop-color: #5f5f5f"></stop>
        <stop offset="1" style="stop-color: #7f7f7f"></stop>
      </radialGradient>
      <circle class="st0" cx="110.9" cy="110.9" r="110.9"></circle>
    </svg>
  </g>
  <circle
    fill="#33cc33"
    fill-opacity="0.15"
    cx="130.3642321171688"
    cy="125.84375967572673"
    stroke="none"
    r="111.83351438583455"
  >
    <title>`x0`.ball</title>
  </circle>
  <circle
    fill="#ffffff"
    fill-opacity="1"
    cx="166.073112296378"
    cy="133.46858514065977"
    stroke="#000000"
    stroke-opacity="1"
    stroke-width="1"
    stroke-linecap="butt"
    r="2"
  >
    <title>`y0`.dot</title>
  </circle>
  <circle
    fill="none"
    cx="130.3642321171688"
    cy="125.84375967572673"
    stroke="#668066"
    stroke-opacity="1"
    stroke-width="1.5"
    stroke-linecap="butt"
    r="111.83351438583455"
  >
    <title>`x0`.sphere</title>
  </circle>
  <g>
    <marker
      id="9:0:walkLine-leftArrowhead"
      markerUnits="strokeWidth"
      markerWidth="9.95"
      markerHeight="8.12"
      viewBox="0 0 9.95 8.12"
      refX="2.36"
      refY="4.06"
      orient="auto-start-reverse"
    >
      <path
        d="M9.95 4.06 0 8.12 2.36 4.06 0 0 9.95 4.06z"
        fill="#0000b3"
        fill-opacity="1"
      ></path>
    </marker>
    <marker
      id="9:0:walkLine-rightArrowhead"
      markerUnits="strokeWidth"
      markerWidth="9.95"
      markerHeight="8.12"
      viewBox="0 0 9.95 8.12"
      refX="2.36"
      refY="4.06"
      orient="auto-start-reverse"
    >
      <path
        d="M9.95 4.06 0 8.12 2.36 4.06 0 0 9.95 4.06z"
        fill="#0000b3"
        fill-opacity="1"
      ></path>
    </marker>
    <path
      d="M 130.3642321171688 125.84375967572673 L 238.6259535908615 97.8057533187762"
      stroke-opacity="1"
      stroke-width="2"
      stroke="#0000b3"
      stroke-linecap="butt"
    ></path>
    <title>9:0:walkLine</title>
  </g>
  <g
    transform="rotate(0, 177.11741909948122, 36.29721882739591)translate(177.11741909948122, 36.29721882739591)"
  >
    <!--?xml version="1.0" encoding="utf-8"?-->
    <!-- Generator: Adobe Illustrator 26.3.1, SVG Export Plug-In . SVG Version: 6.00 Build 0)  -->
    <svg
      version="1.1"
      id="Layer_1"
      xmlns="http://www.w3.org/2000/svg"
      xmlns:xlink="http://www.w3.org/1999/xlink"
      x="0px"
      y="0px"
      viewBox="0 0 221.7 221.7"
      style="enable-background: new 0 0 221.7 221.7"
      xml:space="preserve"
      width="123.01706898276058"
      height="123.01706898276058"
    >
      <style type="text/css">
        .st0 {
          opacity: 0.6;
          fill: url(#SVGID_1_);
          enable-background: new;
        }
      </style>
      <radialGradient
        id="SVGID_1_"
        cx="75.4328"
        cy="151.0149"
        r="157.9341"
        gradientTransform="matrix(1 0 0 -1 0 222)"
        gradientUnits="userSpaceOnUse"
      >
        <stop offset="0" style="stop-color: #ffffff"></stop>
        <stop offset="0.7844" style="stop-color: #5f5f5f"></stop>
        <stop offset="1" style="stop-color: #7f7f7f"></stop>
      </radialGradient>
      <circle class="st0" cx="110.9" cy="110.9" r="110.9"></circle>
    </svg>
  </g>
  <circle
    fill="#33cc33"
    fill-opacity="0.15"
    cx="238.6259535908615"
    cy="97.8057533187762"
    stroke="none"
    r="61.50853449138029"
  >
    <title>`x1`.ball</title>
  </circle>
  <circle
    fill="none"
    cx="238.6259535908615"
    cy="97.8057533187762"
    stroke="#668066"
    stroke-opacity="1"
    stroke-width="1.5"
    stroke-linecap="butt"
    r="61.50853449138029"
  >
    <title>`x1`.sphere</title>
  </circle>
  <g>
    <marker
      id="9:1:walkLine-leftArrowhead"
      markerUnits="strokeWidth"
      markerWidth="9.95"
      markerHeight="8.12"
      viewBox="0 0 9.95 8.12"
      refX="2.36"
      refY="4.06"
      orient="auto-start-reverse"
    >
      <path
        d="M9.95 4.06 0 8.12 2.36 4.06 0 0 9.95 4.06z"
        fill="#0000b3"
        fill-opacity="1"
      ></path>
    </marker>
    <marker
      id="9:1:walkLine-rightArrowhead"
      markerUnits="strokeWidth"
      markerWidth="9.95"
      markerHeight="8.12"
      viewBox="0 0 9.95 8.12"
      refX="2.36"
      refY="4.06"
      orient="auto-start-reverse"
    >
      <path
        d="M9.95 4.06 0 8.12 2.36 4.06 0 0 9.95 4.06z"
        fill="#0000b3"
        fill-opacity="1"
      ></path>
    </marker>
    <path
      d="M 238.6259535908615 97.8057533187762 L 258.28847130723153 39.524619124283305"
      stroke-opacity="1"
      stroke-width="2"
      stroke="#0000b3"
      stroke-linecap="butt"
    ></path>
    <title>9:1:walkLine</title>
  </g>
  <g
    transform="rotate(0, 224.45864345455192, 5.694791271603684)translate(224.45864345455192, 5.694791271603684)"
  >
    <!--?xml version="1.0" encoding="utf-8"?-->
    <!-- Generator: Adobe Illustrator 26.3.1, SVG Export Plug-In . SVG Version: 6.00 Build 0)  -->
    <svg
      version="1.1"
      id="Layer_1"
      xmlns="http://www.w3.org/2000/svg"
      xmlns:xlink="http://www.w3.org/1999/xlink"
      x="0px"
      y="0px"
      viewBox="0 0 221.7 221.7"
      style="enable-background: new 0 0 221.7 221.7"
      xml:space="preserve"
      width="67.65965570535924"
      height="67.65965570535924"
    >
      <style type="text/css">
        .st0 {
          opacity: 0.6;
          fill: url(#SVGID_1_);
          enable-background: new;
        }
      </style>
      <radialGradient
        id="SVGID_1_"
        cx="75.4328"
        cy="151.0149"
        r="157.9341"
        gradientTransform="matrix(1 0 0 -1 0 222)"
        gradientUnits="userSpaceOnUse"
      >
        <stop offset="0" style="stop-color: #ffffff"></stop>
        <stop offset="0.7844" style="stop-color: #5f5f5f"></stop>
        <stop offset="1" style="stop-color: #7f7f7f"></stop>
      </radialGradient>
      <circle class="st0" cx="110.9" cy="110.9" r="110.9"></circle>
    </svg>
  </g>
  <circle
    fill="#33cc33"
    fill-opacity="0.15"
    cx="258.28847130723153"
    cy="39.524619124283305"
    stroke="none"
    r="33.82982785267962"
  >
    <title>`x2`.ball</title>
  </circle>
  <circle
    fill="none"
    cx="258.28847130723153"
    cy="39.524619124283305"
    stroke="#668066"
    stroke-opacity="1"
    stroke-width="1.5"
    stroke-linecap="butt"
    r="33.82982785267962"
  >
    <title>`x2`.sphere</title>
  </circle>
  <g>
    <marker
      id="9:2:walkLine-leftArrowhead"
      markerUnits="strokeWidth"
      markerWidth="9.95"
      markerHeight="8.12"
      viewBox="0 0 9.95 8.12"
      refX="2.36"
      refY="4.06"
      orient="auto-start-reverse"
    >
      <path
        d="M9.95 4.06 0 8.12 2.36 4.06 0 0 9.95 4.06z"
        fill="#0000b3"
        fill-opacity="1"
      ></path>
    </marker>
    <marker
      id="9:2:walkLine-rightArrowhead"
      markerUnits="strokeWidth"
      markerWidth="9.95"
      markerHeight="8.12"
      viewBox="0 0 9.95 8.12"
      refX="2.36"
      refY="4.06"
      orient="auto-start-reverse"
    >
      <path
        d="M9.95 4.06 0 8.12 2.36 4.06 0 0 9.95 4.06z"
        fill="#0000b3"
        fill-opacity="1"
      ></path>
    </marker>
    <path
      d="M 258.28847130723153 39.524619124283305 L 290.7484346414366 49.054103659542264"
      stroke-opacity="1"
      stroke-width="2"
      stroke="#0000b3"
      stroke-linecap="butt"
    ></path>
    <title>9:2:walkLine</title>
  </g>
  <g
    transform="rotate(0, 272.14193177891525, 30.447600797020932)translate(272.14193177891525, 30.447600797020932)"
  >
    <!--?xml version="1.0" encoding="utf-8"?-->
    <!-- Generator: Adobe Illustrator 26.3.1, SVG Export Plug-In . SVG Version: 6.00 Build 0)  -->
    <svg
      version="1.1"
      id="Layer_1"
      xmlns="http://www.w3.org/2000/svg"
      xmlns:xlink="http://www.w3.org/1999/xlink"
      x="0px"
      y="0px"
      viewBox="0 0 221.7 221.7"
      style="enable-background: new 0 0 221.7 221.7"
      xml:space="preserve"
      width="37.21300572504266"
      height="37.21300572504266"
    >
      <style type="text/css">
        .st0 {
          opacity: 0.6;
          fill: url(#SVGID_1_);
          enable-background: new;
        }
      </style>
      <radialGradient
        id="SVGID_1_"
        cx="75.4328"
        cy="151.0149"
        r="157.9341"
        gradientTransform="matrix(1 0 0 -1 0 222)"
        gradientUnits="userSpaceOnUse"
      >
        <stop offset="0" style="stop-color: #ffffff"></stop>
        <stop offset="0.7844" style="stop-color: #5f5f5f"></stop>
        <stop offset="1" style="stop-color: #7f7f7f"></stop>
      </radialGradient>
      <circle class="st0" cx="110.9" cy="110.9" r="110.9"></circle>
    </svg>
  </g>
  <circle
    fill="#33cc33"
    fill-opacity="0.15"
    cx="290.7484346414366"
    cy="49.054103659542264"
    stroke="none"
    r="18.60650286252133"
  >
    <title>`x3`.ball</title>
  </circle>
  <circle
    fill="#000000"
    fill-opacity="1"
    cx="290.7484346414366"
    cy="49.054103659542264"
    stroke="none"
    r="2.5"
  >
    <title>`x3`.dot</title>
  </circle>
  <g
    transform="rotate(0, 301.60827714865337, 1.9680810058823663)translate(301.60827714865337, 1.9680810058823663)"
    string="\Omega"
  >
    <title>`U`.labelText</title>
    <svg
      xmlns="http://www.w3.org/2000/svg"
      width="12.75052"
      height="17.66"
      role="img"
      focusable="false"
      viewBox="0.77704 -12.43264 11.17878 21.05072"
    >
      <path
        stroke="none"
        fill="#808080"
        stroke-width="0"
        d="M0.9712999999999999-8.01764Q0.9712999999999999-8.88298 1.3244999999999998-9.64236T2.24282-10.89622 3.47902-11.743899999999998 4.80352-12.2737 5.95142-12.43264H6.21632Q6.993359999999999-12.43264 7.134639999999999-12.41498 9.30682-12.13242 10.52536-10.860899999999999T11.76156-8.01764Q11.76156-6.922719999999999 11.214099999999998-5.8278T9.871939999999999-3.5319999999999996 8.812339999999999-1.4657799999999999V-1.4127999999999998H9.589379999999998Q10.401739999999998-1.4304599999999998 10.595999999999998-1.4657799999999999T10.89622-1.64238Q10.98452-1.8013199999999998 11.108139999999999-2.3840999999999997T11.23176-3.0375199999999998L11.249419999999999-3.1258199999999996H11.95582V-3.0904999999999996L11.6556-1.57174Q11.390699999999999-0.05298 11.37304-0.03532V0H9.74832 8.618079999999999Q8.141259999999999 0 8.052959999999999-0.05298T7.964659999999999-0.35319999999999996Q7.964659999999999-1.57174 8.812339999999999-4.150099999999999T9.677679999999999-8.0353Q9.677679999999999-9.04192 9.3598-9.8013T8.529779999999999-10.98452 7.487839999999999-11.584959999999999 6.37526-11.79688Q5.863119999999999-11.79688 5.35098-11.62028T4.291379999999999-11.055159999999999 3.4083799999999997-9.8896 3.07284-8.052959999999999Q3.07284-6.7108 3.92052-4.11478T4.768199999999999-0.35319999999999996Q4.768199999999999-0.12362 4.6445799999999995 0H1.3598199999999998V-0.03532Q1.3421599999999998-0.05298 1.0772599999999999-1.57174L0.77704-3.0904999999999996V-3.1258199999999996H1.4834399999999999L1.5010999999999999-3.0375199999999998Q1.5010999999999999-3.0198599999999995 1.55408-2.7373T1.69536-2.10154 1.8366399999999998-1.64238Q1.9249399999999999-1.5187599999999999 2.1191999999999998-1.4834399999999999T3.14348-1.4127999999999998H3.92052V-1.4657799999999999Q3.6379599999999996-2.33112 2.8609199999999997-3.51434T1.53642-5.81014 0.9712999999999999-8.01764Z"
        fill-opacity="1"
      ></path>
    </svg>
  </g>
  <g
    transform="rotate(0, 229.3129011976917, 75.64580826527849)translate(229.3129011976917, 75.64580826527849)"
    string="x1"
  >
    <title>`x1`.labelText</title>
    <svg
      xmlns="http://www.w3.org/2000/svg"
      width="18.93152"
      height="17.66"
      role="img"
      focusable="false"
      viewBox="0.6181 -11.76156 17.02424 11.95582"
    >
      <path
        stroke="none"
        fill="#000000"
        stroke-width="0"
        d="M0.9183199999999999-5.103739999999999Q1.0419399999999999-5.845459999999999 1.8719599999999998-6.8167599999999995T3.92052-7.805719999999999Q4.53862-7.805719999999999 5.0507599999999995-7.487839999999999T5.81014-6.69314Q6.55186-7.805719999999999 7.593799999999999-7.805719999999999 8.247219999999999-7.805719999999999 8.724039999999999-7.417199999999999T9.21852-6.37526Q9.21852-5.863119999999999 8.97128-5.54524T8.49446-5.15672 8.08828-5.08608Q7.752739999999999-5.08608 7.540819999999999-5.28034T7.328899999999999-5.792479999999999Q7.328899999999999-6.604839999999999 8.2119-6.90506 8.01764-7.134639999999999 7.5055-7.134639999999999 7.275919999999999-7.134639999999999 7.16996-7.09932 6.49888-6.8167599999999995 6.180999999999999-5.9337599999999995 5.1213999999999995-2.0309 5.1213999999999995-1.3774799999999998 5.1213999999999995-0.8829999999999999 5.40396-0.6710799999999999T6.02206-0.45915999999999996Q6.675479999999999-0.45915999999999996 7.31124-1.0419399999999999T8.17658-2.4724Q8.22956-2.6489999999999996 8.28254-2.66666T8.5651-2.70198H8.63574Q8.90064-2.70198 8.90064-2.5606999999999998 8.90064-2.54304 8.865319999999999-2.36644 8.582759999999999-1.3598199999999998 7.7703999999999995-0.58278T5.88078 0.19426Q4.6445799999999995 0.19426 4.00882-0.9183199999999999 3.28476 0.17659999999999998 2.3487799999999996 0.17659999999999998H2.24282Q1.3774799999999998 0.17659999999999998 1.0066199999999998-0.28256T0.6181-1.25386Q0.6181-1.8189799999999998 0.9536399999999999-2.17218T1.7483399999999998-2.5253799999999997Q2.50772-2.5253799999999997 2.50772-1.7836599999999998 2.50772-1.4304599999999998 2.2958-1.16556T1.8896199999999999-0.81236 1.66004-0.7240599999999999L1.60706-0.7063999999999999Q1.60706-0.6887399999999999 1.7130199999999998-0.63576T1.99558-0.5121399999999999 2.33112-0.45915999999999996Q2.9668799999999997-0.45915999999999996 3.4260399999999995-1.25386 3.58498-1.53642 3.8322199999999995-2.4547399999999997T4.3267-4.362019999999999 4.60926-5.5275799999999995Q4.697559999999999-6.0043999999999995 4.697559999999999-6.21632 4.697559999999999-6.7108 4.432659999999999-6.922719999999999T3.8322199999999995-7.134639999999999Q3.1258199999999996-7.134639999999999 2.50772-6.56952T1.64238-5.1213999999999995Q1.60706-4.962459999999999 1.55408-4.9448T1.27152-4.909479999999999H1.0242799999999999Q0.9183199999999999-5.01544 0.9183199999999999-5.103739999999999ZM13.8631-10.207479999999999L13.633519999999999-10.11918Q13.38628-10.03088 12.927119999999999-9.94258T11.90284-9.818959999999999H11.5673V-10.631319999999999H11.90284Q12.732859999999999-10.66664 13.439259999999999-10.89622T14.42822-11.32006 14.922699999999999-11.70858Q14.95802-11.76156 15.134619999999998-11.76156 15.29356-11.76156 15.43484-11.6556V-6.37526L15.452499999999999-1.0772599999999999Q15.57612-0.9536399999999999 15.664419999999998-0.9183199999999999T16.08826-0.84768 17.18318-0.81236H17.642339999999997V0H17.448079999999997Q17.077219999999997-0.05298 14.640139999999999-0.05298 12.23838-0.05298 11.867519999999999 0H11.6556V-0.81236H12.114759999999999Q12.503279999999998-0.81236 12.785839999999999-0.81236T13.227339999999998-0.83002 13.509899999999998-0.8829999999999999 13.651179999999998-0.9183199999999999 13.75714-1.0066199999999998 13.8631-1.0772599999999999V-10.207479999999999Z"
        fill-opacity="1"
      ></path>
    </svg>
  </g>
  <circle
    fill="#000000"
    fill-opacity="1"
    cx="238.6259535908615"
    cy="97.8057533187762"
    stroke="none"
    r="2.5"
  >
    <title>`x1`.dot</title>
  </circle>
  <g
    transform="rotate(0, 248.0827437901655, 44.02456676036135)translate(248.0827437901655, 44.02456676036135)"
    string="\ldots"
  >
    <title>`x2`.labelText</title>
    <svg
      xmlns="http://www.w3.org/2000/svg"
      width="20.697519999999997"
      height="17.66"
      role="img"
      focusable="false"
      viewBox="1.3774799999999998 -2.1191999999999998 17.9249 2.1191999999999998"
    >
      <path
        stroke="none"
        fill="#000000"
        stroke-width="0"
        d="M1.3774799999999998-1.0595999999999999Q1.3774799999999998-1.4834399999999999 1.6777-1.8013199999999998T2.43708-2.1191999999999998Q2.8609199999999997-2.1191999999999998 3.1788-1.8366399999999998T3.51434-1.0772599999999999Q3.51434-0.63576 3.21412-0.31788T2.4547399999999997 0 1.69536-0.30022 1.3774799999999998-1.0595999999999999ZM9.2715-1.0595999999999999Q9.2715-1.4834399999999999 9.57172-1.8013199999999998T10.3311-2.1191999999999998Q10.75494-2.1191999999999998 11.072819999999998-1.8366399999999998T11.408359999999998-1.0772599999999999Q11.408359999999998-0.63576 11.108139999999999-0.31788T10.348759999999999 0 9.589379999999998-0.30022 9.2715-1.0595999999999999ZM17.165519999999997-1.0595999999999999Q17.165519999999997-1.4834399999999999 17.46574-1.8013199999999998T18.225119999999997-2.1191999999999998Q18.64896-2.1191999999999998 18.966839999999998-1.8366399999999998T19.30238-1.0772599999999999Q19.30238-0.63576 19.00216-0.31788T18.24278 0 17.4834-0.30022 17.165519999999997-1.0595999999999999Z"
        fill-opacity="1"
      ></path>
    </svg>
  </g>
  <circle
    fill="#000000"
    fill-opacity="1"
    cx="258.28847130723153"
    cy="39.524619124283305"
    stroke="none"
    r="2.5"
  >
    <title>`x2`.dot</title>
  </circle>
  <circle
    fill="#ffffff"
    fill-opacity="1"
    cx="288.8797265009258"
    cy="59.472147253415294"
    stroke="#000000"
    stroke-opacity="1"
    stroke-width="1"
    stroke-linecap="butt"
    r="2"
  >
    <title>`y3`.dot</title>
  </circle>
  <g
    transform="rotate(0, 157.1906307861366, 137.96861524303085)translate(157.1906307861366, 137.96861524303085)"
    string="y0"
  >
    <title>`y0`.labelText</title>
    <svg
      xmlns="http://www.w3.org/2000/svg"
      width="17.4834"
      height="17.66"
      role="img"
      focusable="false"
      viewBox="0.37085999999999997 -11.76156 16.406139999999997 15.38186"
    >
      <path
        stroke="none"
        fill="#000000"
        stroke-width="0"
        d="M0.37085999999999997-5.06842Q0.37085999999999997-5.315659999999999 0.63576-5.916099999999999T1.4834399999999999-7.16996 2.7902799999999996-7.805719999999999Q3.51434-7.805719999999999 3.95584-7.399539999999999T4.415-6.269299999999999Q4.37968-5.9337599999999995 4.362019999999999-5.89844 4.362019999999999-5.845459999999999 4.07946-5.08608T3.4966799999999996-3.3730599999999997 3.21412-1.8542999999999998Q3.21412-1.09492 3.4613599999999995-0.7947T4.20308-0.47681999999999997Q4.60926-0.47681999999999997 4.962459999999999-0.6710799999999999T5.509919999999999-1.0772599999999999 5.986739999999999-1.66004Q5.986739999999999-1.6777 6.0750399999999996-2.0132399999999997T6.322279999999999-3.0551799999999996 6.657819999999999-4.362019999999999Q7.328899999999999-7.011019999999999 7.399539999999999-7.134639999999999 7.6291199999999995-7.611459999999999 8.15892-7.611459999999999 8.388499999999999-7.611459999999999 8.529779999999999-7.487839999999999T8.724039999999999-7.275919999999999 8.75936-7.11698Q8.75936-6.8873999999999995 7.894019999999999-3.4083799999999997T6.90506 0.40618Q6.4105799999999995 1.8719599999999998 5.1920399999999995 2.7373T2.7549599999999996 3.6203Q1.96026 3.6203 1.3598199999999998 3.2317799999999997T0.7593799999999999 2.06622Q0.7593799999999999 1.6777 0.8829999999999999 1.4127999999999998T1.21854 1.0242799999999999 1.57174 0.84768 1.8719599999999998 0.7947Q2.6489999999999996 0.7947 2.6489999999999996 1.53642 2.6489999999999996 1.8896199999999999 2.43708 2.1545199999999998T2.0309 2.50772 1.8013199999999998 2.5960199999999998L1.7483399999999998 2.61368Q1.7836599999999998 2.70198 2.0838799999999997 2.8255999999999997T2.6843199999999996 2.94922H2.8255999999999997Q3.1258199999999996 2.94922 3.28476 2.9139 3.8675399999999995 2.7549599999999996 4.362019999999999 2.24282T5.1213999999999995 1.1479 5.5275799999999995 0.15894 5.66886-0.37085999999999997L5.5629-0.30022Q5.4569399999999995-0.22957999999999998 5.22736-0.10596T4.768199999999999 0.10596Q4.415 0.19426 4.07946 0.19426 3.2670999999999997 0.19426 2.6489999999999996-0.19426T1.8366399999999998-1.4481199999999999Q1.8189799999999998-1.57174 1.8189799999999998-1.99558 1.8189799999999998-3.0021999999999998 2.43708-4.626919999999999T3.0551799999999996-6.69314Q3.0551799999999996-6.7108 3.0551799999999996-6.728459999999999 3.0551799999999996-6.8873999999999995 3.0551799999999996-6.940379999999999T2.98454-7.063999999999999 2.7902799999999996-7.134639999999999H2.7196399999999996Q2.3134599999999996-7.134639999999999 1.97792-6.799099999999999T1.4481199999999999-6.0750399999999996 1.1479-5.33332 1.0066199999999998-4.9448Q0.9712999999999999-4.909479999999999 0.7240599999999999-4.909479999999999H0.47681999999999997Q0.37085999999999997-5.01544 0.37085999999999997-5.06842ZM10.348759999999999-10.3311Q11.33772-11.76156 13.05074-11.76156 13.89842-11.76156 14.746099999999998-11.302399999999999T16.12358-9.677679999999999Q16.776999999999997-8.2119 16.776999999999997-5.651199999999999 16.776999999999997-2.9139 16.017619999999997-1.4657799999999999 15.664419999999998-0.7240599999999999 15.04632-0.28256T13.969059999999999 0.26489999999999997 13.068399999999999 0.38852Q12.60924 0.38852 12.150079999999999 0.28256T11.072819999999998-0.28256 10.101519999999999-1.4657799999999999Q9.342139999999999-2.9139 9.342139999999999-5.651199999999999 9.342139999999999-8.724039999999999 10.348759999999999-10.3311ZM14.322259999999998-10.543019999999999Q13.792459999999998-11.108139999999999 13.068399999999999-11.108139999999999 12.32668-11.108139999999999 11.79688-10.543019999999999 11.355379999999998-10.08386 11.214099999999998-9.2715T11.072819999999998-5.88078Q11.072819999999998-3.0904999999999996 11.214099999999998-2.2075T11.84986-0.81236Q12.344339999999999-0.28256 13.068399999999999-0.28256 13.774799999999999-0.28256 14.269279999999998-0.81236 14.781419999999999-1.3421599999999998 14.90504-2.2958T15.04632-5.88078Q15.04632-8.441479999999999 14.90504-9.253839999999999T14.322259999999998-10.543019999999999Z"
        fill-opacity="1"
      ></path>
    </svg>
  </g>
  <g
    transform="rotate(0, 121.93166227166715, 103.68376999234702)translate(121.93166227166715, 103.68376999234702)"
    string="x0"
  >
    <title>`x0`.labelText</title>
    <svg
      xmlns="http://www.w3.org/2000/svg"
      width="18.93152"
      height="17.66"
      role="img"
      focusable="false"
      viewBox="0.6181 -11.76156 17.60702 12.150079999999999"
    >
      <path
        stroke="none"
        fill="#000000"
        stroke-width="0"
        d="M0.9183199999999999-5.103739999999999Q1.0419399999999999-5.845459999999999 1.8719599999999998-6.8167599999999995T3.92052-7.805719999999999Q4.53862-7.805719999999999 5.0507599999999995-7.487839999999999T5.81014-6.69314Q6.55186-7.805719999999999 7.593799999999999-7.805719999999999 8.247219999999999-7.805719999999999 8.724039999999999-7.417199999999999T9.21852-6.37526Q9.21852-5.863119999999999 8.97128-5.54524T8.49446-5.15672 8.08828-5.08608Q7.752739999999999-5.08608 7.540819999999999-5.28034T7.328899999999999-5.792479999999999Q7.328899999999999-6.604839999999999 8.2119-6.90506 8.01764-7.134639999999999 7.5055-7.134639999999999 7.275919999999999-7.134639999999999 7.16996-7.09932 6.49888-6.8167599999999995 6.180999999999999-5.9337599999999995 5.1213999999999995-2.0309 5.1213999999999995-1.3774799999999998 5.1213999999999995-0.8829999999999999 5.40396-0.6710799999999999T6.02206-0.45915999999999996Q6.675479999999999-0.45915999999999996 7.31124-1.0419399999999999T8.17658-2.4724Q8.22956-2.6489999999999996 8.28254-2.66666T8.5651-2.70198H8.63574Q8.90064-2.70198 8.90064-2.5606999999999998 8.90064-2.54304 8.865319999999999-2.36644 8.582759999999999-1.3598199999999998 7.7703999999999995-0.58278T5.88078 0.19426Q4.6445799999999995 0.19426 4.00882-0.9183199999999999 3.28476 0.17659999999999998 2.3487799999999996 0.17659999999999998H2.24282Q1.3774799999999998 0.17659999999999998 1.0066199999999998-0.28256T0.6181-1.25386Q0.6181-1.8189799999999998 0.9536399999999999-2.17218T1.7483399999999998-2.5253799999999997Q2.50772-2.5253799999999997 2.50772-1.7836599999999998 2.50772-1.4304599999999998 2.2958-1.16556T1.8896199999999999-0.81236 1.66004-0.7240599999999999L1.60706-0.7063999999999999Q1.60706-0.6887399999999999 1.7130199999999998-0.63576T1.99558-0.5121399999999999 2.33112-0.45915999999999996Q2.9668799999999997-0.45915999999999996 3.4260399999999995-1.25386 3.58498-1.53642 3.8322199999999995-2.4547399999999997T4.3267-4.362019999999999 4.60926-5.5275799999999995Q4.697559999999999-6.0043999999999995 4.697559999999999-6.21632 4.697559999999999-6.7108 4.432659999999999-6.922719999999999T3.8322199999999995-7.134639999999999Q3.1258199999999996-7.134639999999999 2.50772-6.56952T1.64238-5.1213999999999995Q1.60706-4.962459999999999 1.55408-4.9448T1.27152-4.909479999999999H1.0242799999999999Q0.9183199999999999-5.01544 0.9183199999999999-5.103739999999999ZM11.79688-10.3311Q12.785839999999999-11.76156 14.498859999999999-11.76156 15.34654-11.76156 16.194219999999998-11.302399999999999T17.5717-9.677679999999999Q18.225119999999997-8.2119 18.225119999999997-5.651199999999999 18.225119999999997-2.9139 17.46574-1.4657799999999999 17.11254-0.7240599999999999 16.494439999999997-0.28256T15.417179999999998 0.26489999999999997 14.516519999999998 0.38852Q14.05736 0.38852 13.598199999999999 0.28256T12.52094-0.28256 11.549639999999998-1.4657799999999999Q10.79026-2.9139 10.79026-5.651199999999999 10.79026-8.724039999999999 11.79688-10.3311ZM15.77038-10.543019999999999Q15.24058-11.108139999999999 14.516519999999998-11.108139999999999 13.774799999999999-11.108139999999999 13.245-10.543019999999999 12.8035-10.08386 12.66222-9.2715T12.52094-5.88078Q12.52094-3.0904999999999996 12.66222-2.2075T13.297979999999999-0.81236Q13.792459999999998-0.28256 14.516519999999998-0.28256 15.222919999999998-0.28256 15.7174-0.81236 16.22954-1.3421599999999998 16.35316-2.2958T16.494439999999997-5.88078Q16.494439999999997-8.441479999999999 16.35316-9.253839999999999T15.77038-10.543019999999999Z"
        fill-opacity="1"
      ></path>
    </svg>
  </g>
  <circle
    fill="#000000"
    fill-opacity="1"
    cx="130.3642321171688"
    cy="125.84375967572673"
    stroke="none"
    r="2.5"
  >
    <title>`x0`.dot</title>
  </circle>
  <circle
    fill="#ffffff"
    fill-opacity="1"
    cx="252.96413411277064"
    cy="17.81141483523939"
    stroke="#000000"
    stroke-opacity="1"
    stroke-width="1"
    stroke-linecap="butt"
    r="2"
  >
    <title>`y2`.dot</title>
  </circle>
  <g
    transform="rotate(0, 223.9703593692432, 137.93671510812962)translate(223.9703593692432, 137.93671510812962)"
    string="y1"
  >
    <title>`y1`.labelText</title>
    <svg
      xmlns="http://www.w3.org/2000/svg"
      width="17.4834"
      height="17.66"
      role="img"
      focusable="false"
      viewBox="0.37085999999999997 -11.76156 15.823359999999997 15.38186"
    >
      <path
        stroke="none"
        fill="#000000"
        stroke-width="0"
        d="M0.37085999999999997-5.06842Q0.37085999999999997-5.315659999999999 0.63576-5.916099999999999T1.4834399999999999-7.16996 2.7902799999999996-7.805719999999999Q3.51434-7.805719999999999 3.95584-7.399539999999999T4.415-6.269299999999999Q4.37968-5.9337599999999995 4.362019999999999-5.89844 4.362019999999999-5.845459999999999 4.07946-5.08608T3.4966799999999996-3.3730599999999997 3.21412-1.8542999999999998Q3.21412-1.09492 3.4613599999999995-0.7947T4.20308-0.47681999999999997Q4.60926-0.47681999999999997 4.962459999999999-0.6710799999999999T5.509919999999999-1.0772599999999999 5.986739999999999-1.66004Q5.986739999999999-1.6777 6.0750399999999996-2.0132399999999997T6.322279999999999-3.0551799999999996 6.657819999999999-4.362019999999999Q7.328899999999999-7.011019999999999 7.399539999999999-7.134639999999999 7.6291199999999995-7.611459999999999 8.15892-7.611459999999999 8.388499999999999-7.611459999999999 8.529779999999999-7.487839999999999T8.724039999999999-7.275919999999999 8.75936-7.11698Q8.75936-6.8873999999999995 7.894019999999999-3.4083799999999997T6.90506 0.40618Q6.4105799999999995 1.8719599999999998 5.1920399999999995 2.7373T2.7549599999999996 3.6203Q1.96026 3.6203 1.3598199999999998 3.2317799999999997T0.7593799999999999 2.06622Q0.7593799999999999 1.6777 0.8829999999999999 1.4127999999999998T1.21854 1.0242799999999999 1.57174 0.84768 1.8719599999999998 0.7947Q2.6489999999999996 0.7947 2.6489999999999996 1.53642 2.6489999999999996 1.8896199999999999 2.43708 2.1545199999999998T2.0309 2.50772 1.8013199999999998 2.5960199999999998L1.7483399999999998 2.61368Q1.7836599999999998 2.70198 2.0838799999999997 2.8255999999999997T2.6843199999999996 2.94922H2.8255999999999997Q3.1258199999999996 2.94922 3.28476 2.9139 3.8675399999999995 2.7549599999999996 4.362019999999999 2.24282T5.1213999999999995 1.1479 5.5275799999999995 0.15894 5.66886-0.37085999999999997L5.5629-0.30022Q5.4569399999999995-0.22957999999999998 5.22736-0.10596T4.768199999999999 0.10596Q4.415 0.19426 4.07946 0.19426 3.2670999999999997 0.19426 2.6489999999999996-0.19426T1.8366399999999998-1.4481199999999999Q1.8189799999999998-1.57174 1.8189799999999998-1.99558 1.8189799999999998-3.0021999999999998 2.43708-4.626919999999999T3.0551799999999996-6.69314Q3.0551799999999996-6.7108 3.0551799999999996-6.728459999999999 3.0551799999999996-6.8873999999999995 3.0551799999999996-6.940379999999999T2.98454-7.063999999999999 2.7902799999999996-7.134639999999999H2.7196399999999996Q2.3134599999999996-7.134639999999999 1.97792-6.799099999999999T1.4481199999999999-6.0750399999999996 1.1479-5.33332 1.0066199999999998-4.9448Q0.9712999999999999-4.909479999999999 0.7240599999999999-4.909479999999999H0.47681999999999997Q0.37085999999999997-5.01544 0.37085999999999997-5.06842ZM12.41498-10.207479999999999L12.1854-10.11918Q11.93816-10.03088 11.479-9.94258T10.45472-9.818959999999999H10.11918V-10.631319999999999H10.45472Q11.28474-10.66664 11.99114-10.89622T12.980099999999998-11.32006 13.47458-11.70858Q13.509899999999998-11.76156 13.686499999999999-11.76156 13.845439999999998-11.76156 13.986719999999998-11.6556V-6.37526L14.00438-1.0772599999999999Q14.127999999999998-0.9536399999999999 14.216299999999999-0.9183199999999999T14.640139999999999-0.84768 15.735059999999999-0.81236H16.194219999999998V0H15.999959999999998Q15.6291-0.05298 13.19202-0.05298 10.79026-0.05298 10.4194 0H10.207479999999999V-0.81236H10.66664Q11.055159999999999-0.81236 11.33772-0.81236T11.779219999999999-0.83002 12.061779999999999-0.8829999999999999 12.203059999999999-0.9183199999999999 12.309019999999999-1.0066199999999998 12.41498-1.0772599999999999V-10.207479999999999Z"
        fill-opacity="1"
      ></path>
    </svg>
  </g>
  <circle
    fill="#ffffff"
    fill-opacity="1"
    cx="245.95378903496166"
    cy="146.46358790736465"
    stroke="#000000"
    stroke-opacity="1"
    stroke-width="1"
    stroke-linecap="butt"
    r="2"
  >
    <title>`y1`.dot</title>
  </circle>
  <circle
    fill="none"
    cx="290.7484346414366"
    cy="49.054103659542264"
    stroke="#668066"
    stroke-opacity="1"
    stroke-width="1.5"
    stroke-linecap="butt"
    r="18.60650286252133"
  >
    <title>`x3`.sphere</title>
  </circle>
  <g
    transform="rotate(0, 281.9714469903765, 53.55414597855868)translate(281.9714469903765, 53.55414597855868)"
    string="x_k"
  >
    <title>`x3`.labelText</title>
    <svg
      xmlns="http://www.w3.org/2000/svg"
      width="18.073244"
      height="17.66"
      role="img"
      focusable="false"
      viewBox="0.6181 -7.805719999999999 16.34646686 10.592061819999998"
    >
      <path
        stroke="none"
        fill="#000000"
        stroke-width="0"
        d="M0.9183199999999999-5.103739999999999Q1.0419399999999999-5.845459999999999 1.8719599999999998-6.8167599999999995T3.92052-7.805719999999999Q4.53862-7.805719999999999 5.0507599999999995-7.487839999999999T5.81014-6.69314Q6.55186-7.805719999999999 7.593799999999999-7.805719999999999 8.247219999999999-7.805719999999999 8.724039999999999-7.417199999999999T9.21852-6.37526Q9.21852-5.863119999999999 8.97128-5.54524T8.49446-5.15672 8.08828-5.08608Q7.752739999999999-5.08608 7.540819999999999-5.28034T7.328899999999999-5.792479999999999Q7.328899999999999-6.604839999999999 8.2119-6.90506 8.01764-7.134639999999999 7.5055-7.134639999999999 7.275919999999999-7.134639999999999 7.16996-7.09932 6.49888-6.8167599999999995 6.180999999999999-5.9337599999999995 5.1213999999999995-2.0309 5.1213999999999995-1.3774799999999998 5.1213999999999995-0.8829999999999999 5.40396-0.6710799999999999T6.02206-0.45915999999999996Q6.675479999999999-0.45915999999999996 7.31124-1.0419399999999999T8.17658-2.4724Q8.22956-2.6489999999999996 8.28254-2.66666T8.5651-2.70198H8.63574Q8.90064-2.70198 8.90064-2.5606999999999998 8.90064-2.54304 8.865319999999999-2.36644 8.582759999999999-1.3598199999999998 7.7703999999999995-0.58278T5.88078 0.19426Q4.6445799999999995 0.19426 4.00882-0.9183199999999999 3.28476 0.17659999999999998 2.3487799999999996 0.17659999999999998H2.24282Q1.3774799999999998 0.17659999999999998 1.0066199999999998-0.28256T0.6181-1.25386Q0.6181-1.8189799999999998 0.9536399999999999-2.17218T1.7483399999999998-2.5253799999999997Q2.50772-2.5253799999999997 2.50772-1.7836599999999998 2.50772-1.4304599999999998 2.2958-1.16556T1.8896199999999999-0.81236 1.66004-0.7240599999999999L1.60706-0.7063999999999999Q1.60706-0.6887399999999999 1.7130199999999998-0.63576T1.99558-0.5121399999999999 2.33112-0.45915999999999996Q2.9668799999999997-0.45915999999999996 3.4260399999999995-1.25386 3.58498-1.53642 3.8322199999999995-2.4547399999999997T4.3267-4.362019999999999 4.60926-5.5275799999999995Q4.697559999999999-6.0043999999999995 4.697559999999999-6.21632 4.697559999999999-6.7108 4.432659999999999-6.922719999999999T3.8322199999999995-7.134639999999999Q3.1258199999999996-7.134639999999999 2.50772-6.56952T1.64238-5.1213999999999995Q1.60706-4.962459999999999 1.55408-4.9448T1.27152-4.909479999999999H1.0242799999999999Q0.9183199999999999-5.01544 0.9183199999999999-5.103739999999999ZM12.19506002-5.429196139999999Q12.19506002-5.55405234 12.245002499999998-5.7163654T12.39482994-5.878678459999999Q12.407315559999999-5.878678459999999 13.29379458-5.94110656T14.205244839999999-6.01602028Q14.355072279999998-6.01602028 14.355072279999998-5.9161353199999995 14.355072279999998-5.828735979999999 13.73079128-3.3066407399999997 13.106510279999998-0.8344879799999999 13.106510279999998-0.74708864 13.343737059999999-0.8719448399999999 13.468593259999999-0.9843154199999999 13.768248139999999-1.2090565799999997 14.330101039999999-1.77090948T15.204094439999999-2.5325322999999997Q15.70351924-2.86964404 16.15300156-2.86964404 16.52757016-2.86964404 16.739825699999997-2.63241726T16.964566859999998-1.9581937799999998Q16.964566859999998-1.6460532799999998 16.87716752-1.4337977399999997T16.63994074-1.12165724 16.37774272-0.9843154199999999 16.15300156-0.9468585599999999Q15.903289159999998-0.9468585599999999 15.753461719999999-1.08420038T15.603634279999998-1.4462833599999998Q15.603634279999998-1.7584238599999997 15.8034042-1.9581937799999998T16.20294404-2.2203918L16.40271396-2.2578486599999996Q16.252886519999997-2.4076760999999998 16.103059079999998-2.4076760999999998H16.0531166Q15.653576759999998-2.37021924 15.26652254-2.0955356T14.355072279999998-1.29645592 13.531021359999999-0.5348331Q13.5559926-0.52234748 13.71830566-0.49737623999999997T14.017960539999999-0.42246251999999995 14.342586659999998-0.32257755999999993 14.6796984-0.14777888 14.954382039999999 0.07696228 15.166637579999998 0.40158839999999996 15.241551299999998 0.8136138599999999Q15.241551299999998 1.0258694 15.1791232 1.32552428T15.10420948 1.8249490799999997Q15.10420948 2.3243738799999996 15.441321219999999 2.3243738799999996 16.04063098 2.3243738799999996 16.41519958 0.8385851 16.44017082 0.73870014 16.66491198 0.73870014H16.714854459999998Q16.91462438 0.73870014 16.91462438 0.85107072 16.91462438 0.9134988199999998 16.87716752 1.0258694 16.365257099999997 2.7863418199999996 15.403864359999998 2.7863418199999996 14.84201146 2.7863418199999996 14.4924141 2.4617157T14.14281674 1.5252942Q14.14281674 1.30055304 14.1802736 1.13823998T14.217730459999999 0.8385851Q14.217730459999999 0.56390146 14.042931779999998 0.36413154T13.605935079999998 0.07696228 13.181423999999998-0.060379539999999995 12.95668284-0.09783639999999999H12.931711599999998Q12.781884159999999 0.42655963999999996 12.669513579999998 0.9134988199999998T12.494714899999998 1.63766478 12.38234432 2.09963272 12.294944979999999 2.3992876 12.20754564 2.5616006599999994 12.070203819999998 2.6739712399999997Q11.907890759999997 2.7863418199999996 11.720606459999999 2.7863418199999996 11.50835092 2.7863418199999996 11.39598034 2.6614856199999997T11.28360976 2.4492300799999995Q11.28360976 2.3243738799999996 11.7455777 0.45153087999999997T12.657027959999999-3.23172702L13.1189959-5.04214192Q13.13148152-5.2044549799999995 13.03159656-5.24191184T12.544657379999999-5.304339939999999H12.482229279999999Q12.35737308-5.304339939999999 12.319916219999998-5.304339939999999T12.232516879999999-5.3417968 12.19506002-5.429196139999999Z"
        fill-opacity="1"
      ></path>
    </svg>
  </g>
</svg>
