<svg
  version="1.2"
  xmlns="http://www.w3.org/2000/svg"
  viewBox="0 0 1200 900"
  penrose="0"
>
  <penrose>
    <croppedViewBox>0 -5.536712736701588 1200 905.5367127367016</croppedViewBox>
  </penrose>
  <rect
    x="0"
    y="0"
    width="1200"
    height="900"
    fill="none"
    stroke="none"
    rx="0"
    transform="rotate(0, 600, 450)"
  >
    <title>Global.box</title>
  </rect>
  <ellipse
    fill="#c6949e"
    fill-opacity="0.5"
    cx="824.9999156520782"
    cy="450.9469542394712"
    stroke="#000000"
    stroke-opacity="1"
    stroke-width="1.5"
    rx="40"
    ry="110"
  >
    <title>`Z1`.icon</title>
  </ellipse>
  <circle
    fill="#93b11c"
    fill-opacity="0.5"
    cx="824.9999163281825"
    cy="420.6566936291715"
    stroke="#000000"
    stroke-opacity="1"
    stroke-width="1.5"
    r="3"
  >
    <title>`Z1_x`.icon</title>
  </circle>
  <circle
    fill="#6759cd"
    fill-opacity="0.5"
    cx="824.9999165383009"
    cy="486.772797527382"
    stroke="#000000"
    stroke-opacity="1"
    stroke-width="1.5"
    r="3"
  >
    <title>`Z1_y`.icon</title>
  </circle>
  <g>
    <marker
      id="non-surjection-not-epimorphism__registry-CedarEagle308-`fg2_ax`.icon-endArrowId"
      markerUnits="strokeWidth"
      markerWidth="12"
      markerHeight="12"
      viewBox="0 0 8 8"
      refX="2.5"
      refY="4"
      orient="auto-start-reverse"
    >
      <path
        d="M0,0 A30,30,0,0,0,8,4 A30,30,0,0,0,0,8 L2.5,4 z"
        fill="#4e42db"
        fill-opacity="1"
      />
    </marker>
    <line
      x1="225.00074888142746"
      y1="424.77664453737856"
      x2="813.6621492098135"
      y2="682.353892477592"
      stroke="#4e42db"
      stroke-opacity="1"
      stroke-width="1.5"
      marker-end="url(#non-surjection-not-epimorphism__registry-CedarEagle308-`fg2_ax`.icon-endArrowId)"
    />
    <title>`fg2_ax`.icon</title>
  </g>
  <ellipse
    fill="#8d914e"
    fill-opacity="0.5"
    cx="225.00024736593588"
    cy="455.428256047022"
    stroke="#000000"
    stroke-opacity="1"
    stroke-width="1.5"
    rx="40"
    ry="110"
  >
    <title>`A`.icon</title>
  </ellipse>
  <circle
    fill="#e38fa7"
    fill-opacity="0.5"
    cx="225.0002459908871"
    cy="490.21638984279224"
    stroke="#000000"
    stroke-opacity="1"
    stroke-width="1.5"
    r="3"
  >
    <title>`A_b`.icon</title>
  </circle>
  <g>
    <marker
      id="non-surjection-not-epimorphism__registry-CedarEagle308-`fg1_ax`.icon-endArrowId"
      markerUnits="strokeWidth"
      markerWidth="12"
      markerHeight="12"
      viewBox="0 0 8 8"
      refX="2.5"
      refY="4"
      orient="auto-start-reverse"
    >
      <path
        d="M0,0 A30,30,0,0,0,8,4 A30,30,0,0,0,0,8 L2.5,4 z"
        fill="#21a3bb"
        fill-opacity="1"
      />
    </marker>
    <line
      x1="225.00049700317203"
      y1="423.4244850019147"
      x2="812.6249163254728"
      y2="423.424485001723"
      stroke="#21a3bb"
      stroke-opacity="1"
      stroke-width="1.5"
      marker-end="url(#non-surjection-not-epimorphism__registry-CedarEagle308-`fg1_ax`.icon-endArrowId)"
    />
    <title>`fg1_ax`.icon</title>
  </g>
  <ellipse
    fill="#d31fca"
    fill-opacity="0.5"
    cx="524.9999983029862"
    cy="194.70828726329844"
    stroke="#000000"
    stroke-opacity="1"
    stroke-width="1.5"
    rx="40"
    ry="170"
  >
    <title>`B`.icon</title>
  </ellipse>
  <circle
    fill="#bb1c63"
    fill-opacity="0.5"
    cx="524.9999984325542"
    cy="194.70828770065086"
    stroke="#000000"
    stroke-opacity="1"
    stroke-width="1.5"
    r="3"
  >
    <title>`B_2`.icon</title>
  </circle>
  <ellipse
    fill="#93e078"
    fill-opacity="0.5"
    cx="824.9998317988361"
    cy="721.0633428222021"
    stroke="#000000"
    stroke-opacity="1"
    stroke-width="1.5"
    rx="40"
    ry="110"
  >
    <title>`Z2`.icon</title>
  </ellipse>
  <circle
    fill="#597e56"
    fill-opacity="0.5"
    cx="824.9998321782032"
    cy="754.8137728592105"
    stroke="#000000"
    stroke-opacity="1"
    stroke-width="1.5"
    r="3"
  >
    <title>`Z2_y`.icon</title>
  </circle>
  <g>
    <marker
      id="non-surjection-not-epimorphism__registry-CedarEagle308-`fg2_by`.icon-endArrowId"
      markerUnits="strokeWidth"
      markerWidth="12"
      markerHeight="12"
      viewBox="0 0 8 8"
      refX="2.5"
      refY="4"
      orient="auto-start-reverse"
    >
      <path
        d="M0,0 A30,30,0,0,0,8,4 A30,30,0,0,0,0,8 L2.5,4 z"
        fill="#4e42db"
        fill-opacity="1"
      />
    </marker>
    <line
      x1="225.00024500789175"
      y1="490.2163922469775"
      x2="813.6769701621292"
      y2="749.8204343299108"
      stroke="#4e42db"
      stroke-opacity="1"
      stroke-width="1.5"
      marker-end="url(#non-surjection-not-epimorphism__registry-CedarEagle308-`fg2_by`.icon-endArrowId)"
    />
    <title>`fg2_by`.icon</title>
  </g>
  <circle
    fill="#cd6230"
    fill-opacity="0.5"
    cx="824.9995801324518"
    cy="687.3140615187716"
    stroke="#000000"
    stroke-opacity="1"
    stroke-width="1.5"
    r="3"
  >
    <title>`Z2_x`.icon</title>
  </circle>
  <circle
    fill="#75dfc8"
    fill-opacity="0.5"
    cx="524.9999981887308"
    cy="262.20828725949275"
    stroke="#000000"
    stroke-opacity="1"
    stroke-width="1.5"
    r="3"
  >
    <title>`B_3`.icon</title>
  </circle>
  <circle
    fill="#766868"
    fill-opacity="0.5"
    cx="524.9999982927326"
    cy="127.20828867027762"
    stroke="#000000"
    stroke-opacity="1"
    stroke-width="1.5"
    r="3"
  >
    <title>`B_1`.icon</title>
  </circle>
  <circle
    fill="#b33865"
    fill-opacity="0.5"
    cx="225.0004975820732"
    cy="423.40847652982137"
    stroke="#000000"
    stroke-opacity="1"
    stroke-width="1.5"
    r="3"
  >
    <title>`A_a`.icon</title>
  </circle>
  <g>
    <marker
      id="non-surjection-not-epimorphism__registry-CedarEagle308-`fg1_by`.icon-endArrowId"
      markerUnits="strokeWidth"
      markerWidth="12"
      markerHeight="12"
      viewBox="0 0 8 8"
      refX="2.5"
      refY="4"
      orient="auto-start-reverse"
    >
      <path
        d="M0,0 A30,30,0,0,0,8,4 A30,30,0,0,0,0,8 L2.5,4 z"
        fill="#21a3bb"
        fill-opacity="1"
      />
    </marker>
    <line
      x1="225.00024500789175"
      y1="490.2163922469775"
      x2="812.6251216184479"
      y2="486.84382029202214"
      stroke="#21a3bb"
      stroke-opacity="1"
      stroke-width="1.5"
      marker-end="url(#non-surjection-not-epimorphism__registry-CedarEagle308-`fg1_by`.icon-endArrowId)"
    />
    <title>`fg1_by`.icon</title>
  </g>
  <g
    transform="rotate(0, 225.00024736593588, 325.428256047022)translate(213.75024736593588, 314.688256047022)"
  >
    <title>`A`.text</title>
    <svg
      style="font-size: 30px"
      xmlns="http://www.w3.org/2000/svg"
      width="22.5"
      height="21.48"
      role="img"
      focusable="false"
      viewBox="0 -716 750 716"
    >
      <g
        stroke="none"
        fill="#000000"
        stroke-width="0"
        transform="scale(1,-1)"
        fill-opacity="1"
      >
        <g data-mml-node="math">
          <g data-mml-node="mi">
            <path
              data-c="1D434"
              d="M208 74Q208 50 254 46Q272 46 272 35Q272 34 270 22Q267 8 264 4T251 0Q249 0 239 0T205 1T141 2Q70 2 50 0H42Q35 7 35 11Q37 38 48 46H62Q132 49 164 96Q170 102 345 401T523 704Q530 716 547 716H555H572Q578 707 578 706L606 383Q634 60 636 57Q641 46 701 46Q726 46 726 36Q726 34 723 22Q720 7 718 4T704 0Q701 0 690 0T651 1T578 2Q484 2 455 0H443Q437 6 437 9T439 27Q443 40 445 43L449 46H469Q523 49 533 63L521 213H283L249 155Q208 86 208 74ZM516 260Q516 271 504 416T490 562L463 519Q447 492 400 412L310 260L413 259Q516 259 516 260Z"
            />
          </g>
        </g>
      </g>
    </svg>
  </g>
  <g
    transform="rotate(0, 524.9999983029862, 4.708287263298416)translate(513.6149983029862, -5.536712736701585)"
  >
    <title>`B`.text</title>
    <svg
      style="font-size: 30px"
      xmlns="http://www.w3.org/2000/svg"
      width="22.77"
      height="20.490000000000002"
      role="img"
      focusable="false"
      viewBox="0 -683 759 683"
    >
      <g
        stroke="none"
        fill="#000000"
        stroke-width="0"
        transform="scale(1,-1)"
        fill-opacity="1"
      >
        <g data-mml-node="math">
          <g data-mml-node="mi">
            <path
              data-c="1D435"
              d="M231 637Q204 637 199 638T194 649Q194 676 205 682Q206 683 335 683Q594 683 608 681Q671 671 713 636T756 544Q756 480 698 429T565 360L555 357Q619 348 660 311T702 219Q702 146 630 78T453 1Q446 0 242 0Q42 0 39 2Q35 5 35 10Q35 17 37 24Q42 43 47 45Q51 46 62 46H68Q95 46 128 49Q142 52 147 61Q150 65 219 339T288 628Q288 635 231 637ZM649 544Q649 574 634 600T585 634Q578 636 493 637Q473 637 451 637T416 636H403Q388 635 384 626Q382 622 352 506Q352 503 351 500L320 374H401Q482 374 494 376Q554 386 601 434T649 544ZM595 229Q595 273 572 302T512 336Q506 337 429 337Q311 337 310 336Q310 334 293 263T258 122L240 52Q240 48 252 48T333 46Q422 46 429 47Q491 54 543 105T595 229Z"
            />
          </g>
        </g>
      </g>
    </svg>
  </g>
  <g
    transform="rotate(0, 227.0004975820732, 400.40847652982137)translate(219.0654975820732, 393.6434765298214)"
  >
    <title>`A_a`.text</title>
    <svg
      style="font-size: 30px"
      xmlns="http://www.w3.org/2000/svg"
      width="15.870000000000001"
      height="13.530000000000001"
      role="img"
      focusable="false"
      viewBox="0 -441 529 451"
    >
      <g
        stroke="none"
        fill="#000000"
        stroke-width="0"
        transform="scale(1,-1)"
        fill-opacity="1"
      >
        <g data-mml-node="math">
          <g data-mml-node="mi">
            <path
              data-c="1D44E"
              d="M33 157Q33 258 109 349T280 441Q331 441 370 392Q386 422 416 422Q429 422 439 414T449 394Q449 381 412 234T374 68Q374 43 381 35T402 26Q411 27 422 35Q443 55 463 131Q469 151 473 152Q475 153 483 153H487Q506 153 506 144Q506 138 501 117T481 63T449 13Q436 0 417 -8Q409 -10 393 -10Q359 -10 336 5T306 36L300 51Q299 52 296 50Q294 48 292 46Q233 -10 172 -10Q117 -10 75 30T33 157ZM351 328Q351 334 346 350T323 385T277 405Q242 405 210 374T160 293Q131 214 119 129Q119 126 119 118T118 106Q118 61 136 44T179 26Q217 26 254 59T298 110Q300 114 325 217T351 328Z"
            />
          </g>
        </g>
      </g>
    </svg>
  </g>
  <g
    transform="rotate(0, 227.0002459908871, 467.21638984279224)translate(220.5652459908871, 456.64138984279225)"
  >
    <title>`A_b`.text</title>
    <svg
      style="font-size: 30px"
      xmlns="http://www.w3.org/2000/svg"
      width="12.87"
      height="21.15"
      role="img"
      focusable="false"
      viewBox="0 -694 429 705"
    >
      <g
        stroke="none"
        fill="#000000"
        stroke-width="0"
        transform="scale(1,-1)"
        fill-opacity="1"
      >
        <g data-mml-node="math">
          <g data-mml-node="mi">
            <path
              data-c="1D44F"
              d="M73 647Q73 657 77 670T89 683Q90 683 161 688T234 694Q246 694 246 685T212 542Q204 508 195 472T180 418L176 399Q176 396 182 402Q231 442 283 442Q345 442 383 396T422 280Q422 169 343 79T173 -11Q123 -11 82 27T40 150V159Q40 180 48 217T97 414Q147 611 147 623T109 637Q104 637 101 637H96Q86 637 83 637T76 640T73 647ZM336 325V331Q336 405 275 405Q258 405 240 397T207 376T181 352T163 330L157 322L136 236Q114 150 114 114Q114 66 138 42Q154 26 178 26Q211 26 245 58Q270 81 285 114T318 219Q336 291 336 325Z"
            />
          </g>
        </g>
      </g>
    </svg>
  </g>
  <g
    transform="rotate(0, 375.0001228344611, 225.06827165516017)translate(366.7501228344611, 211.41827165516017)"
  >
    <title>`f`.text</title>
    <svg
      style="font-size: 30px"
      xmlns="http://www.w3.org/2000/svg"
      width="16.5"
      height="27.3"
      role="img"
      focusable="false"
      viewBox="0 -705 550 910"
    >
      <g
        stroke="none"
        fill="#4b7e92"
        stroke-width="0"
        transform="scale(1,-1)"
        fill-opacity="1"
      >
        <g data-mml-node="math">
          <g data-mml-node="mi">
            <path
              data-c="1D453"
              d="M118 -162Q120 -162 124 -164T135 -167T147 -168Q160 -168 171 -155T187 -126Q197 -99 221 27T267 267T289 382V385H242Q195 385 192 387Q188 390 188 397L195 425Q197 430 203 430T250 431Q298 431 298 432Q298 434 307 482T319 540Q356 705 465 705Q502 703 526 683T550 630Q550 594 529 578T487 561Q443 561 443 603Q443 622 454 636T478 657L487 662Q471 668 457 668Q445 668 434 658T419 630Q412 601 403 552T387 469T380 433Q380 431 435 431Q480 431 487 430T498 424Q499 420 496 407T491 391Q489 386 482 386T428 385H372L349 263Q301 15 282 -47Q255 -132 212 -173Q175 -205 139 -205Q107 -205 81 -186T55 -132Q55 -95 76 -78T118 -61Q162 -61 162 -103Q162 -122 151 -136T127 -157L118 -162Z"
            />
          </g>
        </g>
      </g>
    </svg>
  </g>
  <g>
    <marker
      id="non-surjection-not-epimorphism__registry-CedarEagle308-`f_a1`.icon-endArrowId"
      markerUnits="strokeWidth"
      markerWidth="12"
      markerHeight="12"
      viewBox="0 0 8 8"
      refX="2.5"
      refY="4"
      orient="auto-start-reverse"
    >
      <path
        d="M0,0 A30,30,0,0,0,8,4 A30,30,0,0,0,0,8 L2.5,4 z"
        fill="#4b7e92"
        fill-opacity="1"
      />
    </marker>
    <line
      x1="225.00049689205628"
      y1="423.40847590076754"
      x2="516.1939676466777"
      y2="135.90279496693302"
      stroke="#4b7e92"
      stroke-opacity="1"
      stroke-width="1.5"
      marker-end="url(#non-surjection-not-epimorphism__registry-CedarEagle308-`f_a1`.icon-endArrowId)"
    />
    <title>`f_a1`.icon</title>
  </g>
  <g>
    <marker
      id="non-surjection-not-epimorphism__registry-CedarEagle308-`f_b2`.icon-endArrowId"
      markerUnits="strokeWidth"
      markerWidth="12"
      markerHeight="12"
      viewBox="0 0 8 8"
      refX="2.5"
      refY="4"
      orient="auto-start-reverse"
    >
      <path
        d="M0,0 A30,30,0,0,0,8,4 A30,30,0,0,0,0,8 L2.5,4 z"
        fill="#4b7e92"
        fill-opacity="1"
      />
    </marker>
    <line
      x1="225.00024500789175"
      y1="490.2163922469775"
      x2="516.1838025661418"
      y2="203.39248727903183"
      stroke="#4b7e92"
      stroke-opacity="1"
      stroke-width="1.5"
      marker-end="url(#non-surjection-not-epimorphism__registry-CedarEagle308-`f_b2`.icon-endArrowId)"
    />
    <title>`f_b2`.icon</title>
  </g>
  <g
    transform="rotate(0, 674.9999569775323, 222.8276207513848)translate(661.2959569775323, 213.1226207513848)"
  >
    <title>`g1`.text</title>
    <svg
      style="font-size: 30px"
      xmlns="http://www.w3.org/2000/svg"
      width="27.407999999999998"
      height="19.41"
      role="img"
      focusable="false"
      viewBox="0 -442 913.6 647"
    >
      <g
        stroke="none"
        fill="#d3888b"
        stroke-width="0"
        transform="scale(1,-1)"
        fill-opacity="1"
      >
        <g data-mml-node="math">
          <g data-mml-node="msub">
            <g data-mml-node="mi">
              <path
                data-c="1D454"
                d="M311 43Q296 30 267 15T206 0Q143 0 105 45T66 160Q66 265 143 353T314 442Q361 442 401 394L404 398Q406 401 409 404T418 412T431 419T447 422Q461 422 470 413T480 394Q480 379 423 152T363 -80Q345 -134 286 -169T151 -205Q10 -205 10 -137Q10 -111 28 -91T74 -71Q89 -71 102 -80T116 -111Q116 -121 114 -130T107 -144T99 -154T92 -162L90 -164H91Q101 -167 151 -167Q189 -167 211 -155Q234 -144 254 -122T282 -75Q288 -56 298 -13Q311 35 311 43ZM384 328L380 339Q377 350 375 354T369 368T359 382T346 393T328 402T306 405Q262 405 221 352Q191 313 171 233T151 117Q151 38 213 38Q269 38 323 108L331 118L384 328Z"
              />
            </g>
            <g data-mml-node="mn" transform="translate(510,-150) scale(0.707)">
              <path
                data-c="31"
                d="M213 578L200 573Q186 568 160 563T102 556H83V602H102Q149 604 189 617T245 641T273 663Q275 666 285 666Q294 666 302 660V361L303 61Q310 54 315 52T339 48T401 46H427V0H416Q395 3 257 3Q121 3 100 0H88V46H114Q136 46 152 46T177 47T193 50T201 52T207 57T213 61V578Z"
              />
            </g>
          </g>
        </g>
      </g>
    </svg>
  </g>
  <g
    transform="rotate(0, 674.9999150509112, 357.88581504275027)translate(661.2959150509113, 348.1808150427503)"
  >
    <title>`g2`.text</title>
    <svg
      style="font-size: 30px"
      xmlns="http://www.w3.org/2000/svg"
      width="27.407999999999998"
      height="19.41"
      role="img"
      focusable="false"
      viewBox="0 -442 913.6 647"
    >
      <g
        stroke="none"
        fill="#316544"
        stroke-width="0"
        transform="scale(1,-1)"
        fill-opacity="1"
      >
        <g data-mml-node="math">
          <g data-mml-node="msub">
            <g data-mml-node="mi">
              <path
                data-c="1D454"
                d="M311 43Q296 30 267 15T206 0Q143 0 105 45T66 160Q66 265 143 353T314 442Q361 442 401 394L404 398Q406 401 409 404T418 412T431 419T447 422Q461 422 470 413T480 394Q480 379 423 152T363 -80Q345 -134 286 -169T151 -205Q10 -205 10 -137Q10 -111 28 -91T74 -71Q89 -71 102 -80T116 -111Q116 -121 114 -130T107 -144T99 -154T92 -162L90 -164H91Q101 -167 151 -167Q189 -167 211 -155Q234 -144 254 -122T282 -75Q288 -56 298 -13Q311 35 311 43ZM384 328L380 339Q377 350 375 354T369 368T359 382T346 393T328 402T306 405Q262 405 221 352Q191 313 171 233T151 117Q151 38 213 38Q269 38 323 108L331 118L384 328Z"
              />
            </g>
            <g data-mml-node="mn" transform="translate(510,-150) scale(0.707)">
              <path
                data-c="32"
                d="M109 429Q82 429 66 447T50 491Q50 562 103 614T235 666Q326 666 387 610T449 465Q449 422 429 383T381 315T301 241Q265 210 201 149L142 93L218 92Q375 92 385 97Q392 99 409 186V189H449V186Q448 183 436 95T421 3V0H50V19V31Q50 38 56 46T86 81Q115 113 136 137Q145 147 170 174T204 211T233 244T261 278T284 308T305 340T320 369T333 401T340 431T343 464Q343 527 309 573T212 619Q179 619 154 602T119 569T109 550Q109 549 114 549Q132 549 151 535T170 489Q170 464 154 447T109 429Z"
              />
            </g>
          </g>
        </g>
      </g>
    </svg>
  </g>
  <g
    transform="rotate(0, 826.9999163281825, 397.6566936291715)translate(818.4199163281825, 390.8616936291715)"
  >
    <title>`Z1_x`.text</title>
    <svg
      style="font-size: 30px"
      xmlns="http://www.w3.org/2000/svg"
      width="17.16"
      height="13.59"
      role="img"
      focusable="false"
      viewBox="0 -442 572 453"
    >
      <g
        stroke="none"
        fill="#000000"
        stroke-width="0"
        transform="scale(1,-1)"
        fill-opacity="1"
      >
        <g data-mml-node="math">
          <g data-mml-node="mi">
            <path
              data-c="1D465"
              d="M52 289Q59 331 106 386T222 442Q257 442 286 424T329 379Q371 442 430 442Q467 442 494 420T522 361Q522 332 508 314T481 292T458 288Q439 288 427 299T415 328Q415 374 465 391Q454 404 425 404Q412 404 406 402Q368 386 350 336Q290 115 290 78Q290 50 306 38T341 26Q378 26 414 59T463 140Q466 150 469 151T485 153H489Q504 153 504 145Q504 144 502 134Q486 77 440 33T333 -11Q263 -11 227 52Q186 -10 133 -10H127Q78 -10 57 16T35 71Q35 103 54 123T99 143Q142 143 142 101Q142 81 130 66T107 46T94 41L91 40Q91 39 97 36T113 29T132 26Q168 26 194 71Q203 87 217 139T245 247T261 313Q266 340 266 352Q266 380 251 392T217 404Q177 404 142 372T93 290Q91 281 88 280T72 278H58Q52 284 52 289Z"
            />
          </g>
        </g>
      </g>
    </svg>
  </g>
  <g
    transform="rotate(0, 525.000081509007, 383.1876051432466)translate(488.880081509007, 369.53760514324665)"
  >
    <title>`fg1`.text</title>
    <svg
      style="font-size: 30px"
      xmlns="http://www.w3.org/2000/svg"
      width="72.24"
      height="27.3"
      role="img"
      focusable="false"
      viewBox="0 -705 2408 910"
    >
      <g
        stroke="none"
        fill="#21a3bb"
        stroke-width="0"
        transform="scale(1,-1)"
        fill-opacity="1"
      >
        <g data-mml-node="math">
          <g data-mml-node="msub">
            <g data-mml-node="mi">
              <path
                data-c="1D454"
                d="M311 43Q296 30 267 15T206 0Q143 0 105 45T66 160Q66 265 143 353T314 442Q361 442 401 394L404 398Q406 401 409 404T418 412T431 419T447 422Q461 422 470 413T480 394Q480 379 423 152T363 -80Q345 -134 286 -169T151 -205Q10 -205 10 -137Q10 -111 28 -91T74 -71Q89 -71 102 -80T116 -111Q116 -121 114 -130T107 -144T99 -154T92 -162L90 -164H91Q101 -167 151 -167Q189 -167 211 -155Q234 -144 254 -122T282 -75Q288 -56 298 -13Q311 35 311 43ZM384 328L380 339Q377 350 375 354T369 368T359 382T346 393T328 402T306 405Q262 405 221 352Q191 313 171 233T151 117Q151 38 213 38Q269 38 323 108L331 118L384 328Z"
              />
            </g>
            <g data-mml-node="mn" transform="translate(510,-150) scale(0.707)">
              <path
                data-c="31"
                d="M213 578L200 573Q186 568 160 563T102 556H83V602H102Q149 604 189 617T245 641T273 663Q275 666 285 666Q294 666 302 660V361L303 61Q310 54 315 52T339 48T401 46H427V0H416Q395 3 257 3Q121 3 100 0H88V46H114Q136 46 152 46T177 47T193 50T201 52T207 57T213 61V578Z"
              />
            </g>
          </g>
          <g data-mml-node="mo" transform="translate(1135.8,0)">
            <path
              data-c="2218"
              d="M55 251Q55 328 112 386T249 444T386 388T444 249Q444 171 388 113T250 55Q170 55 113 112T55 251ZM245 403Q188 403 142 361T96 250Q96 183 141 140T250 96Q284 96 313 109T354 135T375 160Q403 197 403 250Q403 313 360 358T245 403Z"
            />
          </g>
          <g data-mml-node="mi" transform="translate(1858,0)">
            <path
              data-c="1D453"
              d="M118 -162Q120 -162 124 -164T135 -167T147 -168Q160 -168 171 -155T187 -126Q197 -99 221 27T267 267T289 382V385H242Q195 385 192 387Q188 390 188 397L195 425Q197 430 203 430T250 431Q298 431 298 432Q298 434 307 482T319 540Q356 705 465 705Q502 703 526 683T550 630Q550 594 529 578T487 561Q443 561 443 603Q443 622 454 636T478 657L487 662Q471 668 457 668Q445 668 434 658T419 630Q412 601 403 552T387 469T380 433Q380 431 435 431Q480 431 487 430T498 424Q499 420 496 407T491 391Q489 386 482 386T428 385H372L349 263Q301 15 282 -47Q255 -132 212 -173Q175 -205 139 -205Q107 -205 81 -186T55 -132Q55 -95 76 -78T118 -61Q162 -61 162 -103Q162 -122 151 -136T127 -157L118 -162Z"
            />
          </g>
        </g>
      </g>
    </svg>
  </g>
  <g
    transform="rotate(0, 826.9995801324518, 664.3140615187716)translate(818.4195801324518, 657.5190615187717)"
  >
    <title>`Z2_x`.text</title>
    <svg
      style="font-size: 30px"
      xmlns="http://www.w3.org/2000/svg"
      width="17.16"
      height="13.59"
      role="img"
      focusable="false"
      viewBox="0 -442 572 453"
    >
      <g
        stroke="none"
        fill="#000000"
        stroke-width="0"
        transform="scale(1,-1)"
        fill-opacity="1"
      >
        <g data-mml-node="math">
          <g data-mml-node="mi">
            <path
              data-c="1D465"
              d="M52 289Q59 331 106 386T222 442Q257 442 286 424T329 379Q371 442 430 442Q467 442 494 420T522 361Q522 332 508 314T481 292T458 288Q439 288 427 299T415 328Q415 374 465 391Q454 404 425 404Q412 404 406 402Q368 386 350 336Q290 115 290 78Q290 50 306 38T341 26Q378 26 414 59T463 140Q466 150 469 151T485 153H489Q504 153 504 145Q504 144 502 134Q486 77 440 33T333 -11Q263 -11 227 52Q186 -10 133 -10H127Q78 -10 57 16T35 71Q35 103 54 123T99 143Q142 143 142 101Q142 81 130 66T107 46T94 41L91 40Q91 39 97 36T113 29T132 26Q168 26 194 71Q203 87 217 139T245 247T261 313Q266 340 266 352Q266 380 251 392T217 404Q177 404 142 372T93 290Q91 281 88 280T72 278H58Q52 284 52 289Z"
            />
          </g>
        </g>
      </g>
    </svg>
  </g>
  <g
    transform="rotate(0, 826.9999165383009, 463.772797527382)translate(819.6499165383009, 454.067797527382)"
  >
    <title>`Z1_y`.text</title>
    <svg
      style="font-size: 30px"
      xmlns="http://www.w3.org/2000/svg"
      width="14.7"
      height="19.41"
      role="img"
      focusable="false"
      viewBox="0 -442 490 647"
    >
      <g
        stroke="none"
        fill="#000000"
        stroke-width="0"
        transform="scale(1,-1)"
        fill-opacity="1"
      >
        <g data-mml-node="math">
          <g data-mml-node="mi">
            <path
              data-c="1D466"
              d="M21 287Q21 301 36 335T84 406T158 442Q199 442 224 419T250 355Q248 336 247 334Q247 331 231 288T198 191T182 105Q182 62 196 45T238 27Q261 27 281 38T312 61T339 94Q339 95 344 114T358 173T377 247Q415 397 419 404Q432 431 462 431Q475 431 483 424T494 412T496 403Q496 390 447 193T391 -23Q363 -106 294 -155T156 -205Q111 -205 77 -183T43 -117Q43 -95 50 -80T69 -58T89 -48T106 -45Q150 -45 150 -87Q150 -107 138 -122T115 -142T102 -147L99 -148Q101 -153 118 -160T152 -167H160Q177 -167 186 -165Q219 -156 247 -127T290 -65T313 -9T321 21L315 17Q309 13 296 6T270 -6Q250 -11 231 -11Q185 -11 150 11T104 82Q103 89 103 113Q103 170 138 262T173 379Q173 380 173 381Q173 390 173 393T169 400T158 404H154Q131 404 112 385T82 344T65 302T57 280Q55 278 41 278H27Q21 284 21 287Z"
            />
          </g>
        </g>
      </g>
    </svg>
  </g>
  <g
    transform="rotate(0, 525.0000395823861, 518.2457994346121)translate(488.8800395823861, 504.5957994346121)"
  >
    <title>`fg2`.text</title>
    <svg
      style="font-size: 30px"
      xmlns="http://www.w3.org/2000/svg"
      width="72.24"
      height="27.3"
      role="img"
      focusable="false"
      viewBox="0 -705 2408 910"
    >
      <g
        stroke="none"
        fill="#4e42db"
        stroke-width="0"
        transform="scale(1,-1)"
        fill-opacity="1"
      >
        <g data-mml-node="math">
          <g data-mml-node="msub">
            <g data-mml-node="mi">
              <path
                data-c="1D454"
                d="M311 43Q296 30 267 15T206 0Q143 0 105 45T66 160Q66 265 143 353T314 442Q361 442 401 394L404 398Q406 401 409 404T418 412T431 419T447 422Q461 422 470 413T480 394Q480 379 423 152T363 -80Q345 -134 286 -169T151 -205Q10 -205 10 -137Q10 -111 28 -91T74 -71Q89 -71 102 -80T116 -111Q116 -121 114 -130T107 -144T99 -154T92 -162L90 -164H91Q101 -167 151 -167Q189 -167 211 -155Q234 -144 254 -122T282 -75Q288 -56 298 -13Q311 35 311 43ZM384 328L380 339Q377 350 375 354T369 368T359 382T346 393T328 402T306 405Q262 405 221 352Q191 313 171 233T151 117Q151 38 213 38Q269 38 323 108L331 118L384 328Z"
              />
            </g>
            <g data-mml-node="mn" transform="translate(510,-150) scale(0.707)">
              <path
                data-c="32"
                d="M109 429Q82 429 66 447T50 491Q50 562 103 614T235 666Q326 666 387 610T449 465Q449 422 429 383T381 315T301 241Q265 210 201 149L142 93L218 92Q375 92 385 97Q392 99 409 186V189H449V186Q448 183 436 95T421 3V0H50V19V31Q50 38 56 46T86 81Q115 113 136 137Q145 147 170 174T204 211T233 244T261 278T284 308T305 340T320 369T333 401T340 431T343 464Q343 527 309 573T212 619Q179 619 154 602T119 569T109 550Q109 549 114 549Q132 549 151 535T170 489Q170 464 154 447T109 429Z"
              />
            </g>
          </g>
          <g data-mml-node="mo" transform="translate(1135.8,0)">
            <path
              data-c="2218"
              d="M55 251Q55 328 112 386T249 444T386 388T444 249Q444 171 388 113T250 55Q170 55 113 112T55 251ZM245 403Q188 403 142 361T96 250Q96 183 141 140T250 96Q284 96 313 109T354 135T375 160Q403 197 403 250Q403 313 360 358T245 403Z"
            />
          </g>
          <g data-mml-node="mi" transform="translate(1858,0)">
            <path
              data-c="1D453"
              d="M118 -162Q120 -162 124 -164T135 -167T147 -168Q160 -168 171 -155T187 -126Q197 -99 221 27T267 267T289 382V385H242Q195 385 192 387Q188 390 188 397L195 425Q197 430 203 430T250 431Q298 431 298 432Q298 434 307 482T319 540Q356 705 465 705Q502 703 526 683T550 630Q550 594 529 578T487 561Q443 561 443 603Q443 622 454 636T478 657L487 662Q471 668 457 668Q445 668 434 658T419 630Q412 601 403 552T387 469T380 433Q380 431 435 431Q480 431 487 430T498 424Q499 420 496 407T491 391Q489 386 482 386T428 385H372L349 263Q301 15 282 -47Q255 -132 212 -173Q175 -205 139 -205Q107 -205 81 -186T55 -132Q55 -95 76 -78T118 -61Q162 -61 162 -103Q162 -122 151 -136T127 -157L118 -162Z"
            />
          </g>
        </g>
      </g>
    </svg>
  </g>
  <g
    transform="rotate(0, 826.9998321782032, 731.8137728592105)translate(819.6498321782032, 722.1087728592105)"
  >
    <title>`Z2_y`.text</title>
    <svg
      style="font-size: 30px"
      xmlns="http://www.w3.org/2000/svg"
      width="14.7"
      height="19.41"
      role="img"
      focusable="false"
      viewBox="0 -442 490 647"
    >
      <g
        stroke="none"
        fill="#000000"
        stroke-width="0"
        transform="scale(1,-1)"
        fill-opacity="1"
      >
        <g data-mml-node="math">
          <g data-mml-node="mi">
            <path
              data-c="1D466"
              d="M21 287Q21 301 36 335T84 406T158 442Q199 442 224 419T250 355Q248 336 247 334Q247 331 231 288T198 191T182 105Q182 62 196 45T238 27Q261 27 281 38T312 61T339 94Q339 95 344 114T358 173T377 247Q415 397 419 404Q432 431 462 431Q475 431 483 424T494 412T496 403Q496 390 447 193T391 -23Q363 -106 294 -155T156 -205Q111 -205 77 -183T43 -117Q43 -95 50 -80T69 -58T89 -48T106 -45Q150 -45 150 -87Q150 -107 138 -122T115 -142T102 -147L99 -148Q101 -153 118 -160T152 -167H160Q177 -167 186 -165Q219 -156 247 -127T290 -65T313 -9T321 21L315 17Q309 13 296 6T270 -6Q250 -11 231 -11Q185 -11 150 11T104 82Q103 89 103 113Q103 170 138 262T173 379Q173 380 173 381Q173 390 173 393T169 400T158 404H154Q131 404 112 385T82 344T65 302T57 280Q55 278 41 278H27Q21 284 21 287Z"
            />
          </g>
        </g>
      </g>
    </svg>
  </g>
  <g
    transform="rotate(0, 526.9999982927326, 104.20828867027762)translate(519.4999982927326, 94.21828867027763)"
  >
    <title>`B_1`.text</title>
    <svg
      style="font-size: 30px"
      xmlns="http://www.w3.org/2000/svg"
      width="15"
      height="19.98"
      role="img"
      focusable="false"
      viewBox="0 -666 500 666"
    >
      <g
        stroke="none"
        fill="#000000"
        stroke-width="0"
        transform="scale(1,-1)"
        fill-opacity="1"
      >
        <g data-mml-node="math">
          <g data-mml-node="mn">
            <path
              data-c="31"
              d="M213 578L200 573Q186 568 160 563T102 556H83V602H102Q149 604 189 617T245 641T273 663Q275 666 285 666Q294 666 302 660V361L303 61Q310 54 315 52T339 48T401 46H427V0H416Q395 3 257 3Q121 3 100 0H88V46H114Q136 46 152 46T177 47T193 50T201 52T207 57T213 61V578Z"
            />
          </g>
        </g>
      </g>
    </svg>
  </g>
  <g
    transform="rotate(0, 526.9999984325542, 171.70828770065089)translate(519.4999984325542, 161.71828770065088)"
  >
    <title>`B_2`.text</title>
    <svg
      style="font-size: 30px"
      xmlns="http://www.w3.org/2000/svg"
      width="15"
      height="19.98"
      role="img"
      focusable="false"
      viewBox="0 -666 500 666"
    >
      <g
        stroke="none"
        fill="#000000"
        stroke-width="0"
        transform="scale(1,-1)"
        fill-opacity="1"
      >
        <g data-mml-node="math">
          <g data-mml-node="mn">
            <path
              data-c="32"
              d="M109 429Q82 429 66 447T50 491Q50 562 103 614T235 666Q326 666 387 610T449 465Q449 422 429 383T381 315T301 241Q265 210 201 149L142 93L218 92Q375 92 385 97Q392 99 409 186V189H449V186Q448 183 436 95T421 3V0H50V19V31Q50 38 56 46T86 81Q115 113 136 137Q145 147 170 174T204 211T233 244T261 278T284 308T305 340T320 369T333 401T340 431T343 464Q343 527 309 573T212 619Q179 619 154 602T119 569T109 550Q109 549 114 549Q132 549 151 535T170 489Q170 464 154 447T109 429Z"
            />
          </g>
        </g>
      </g>
    </svg>
  </g>
  <g
    transform="rotate(0, 526.9999981887308, 239.20828725949275)translate(519.4999981887308, 228.90328725949274)"
  >
    <title>`B_3`.text</title>
    <svg
      style="font-size: 30px"
      xmlns="http://www.w3.org/2000/svg"
      width="15"
      height="20.610000000000003"
      role="img"
      focusable="false"
      viewBox="0 -665 500 687"
    >
      <g
        stroke="none"
        fill="#000000"
        stroke-width="0"
        transform="scale(1,-1)"
        fill-opacity="1"
      >
        <g data-mml-node="math">
          <g data-mml-node="mn">
            <path
              data-c="33"
              d="M127 463Q100 463 85 480T69 524Q69 579 117 622T233 665Q268 665 277 664Q351 652 390 611T430 522Q430 470 396 421T302 350L299 348Q299 347 308 345T337 336T375 315Q457 262 457 175Q457 96 395 37T238 -22Q158 -22 100 21T42 130Q42 158 60 175T105 193Q133 193 151 175T169 130Q169 119 166 110T159 94T148 82T136 74T126 70T118 67L114 66Q165 21 238 21Q293 21 321 74Q338 107 338 175V195Q338 290 274 322Q259 328 213 329L171 330L168 332Q166 335 166 348Q166 366 174 366Q202 366 232 371Q266 376 294 413T322 525V533Q322 590 287 612Q265 626 240 626Q208 626 181 615T143 592T132 580H135Q138 579 143 578T153 573T165 566T175 555T183 540T186 520Q186 498 172 481T127 463Z"
            />
          </g>
        </g>
      </g>
    </svg>
  </g>
  <g
    transform="rotate(0, 824.9999156520782, 320.9469542394712)translate(814.1549156520782, 310.7019542394712)"
  >
    <title>`Z1`.text</title>
    <svg
      style="font-size: 30px"
      xmlns="http://www.w3.org/2000/svg"
      width="21.689999999999998"
      height="20.490000000000002"
      role="img"
      focusable="false"
      viewBox="0 -683 723 683"
    >
      <g
        stroke="none"
        fill="#000000"
        stroke-width="0"
        transform="scale(1,-1)"
        fill-opacity="1"
      >
        <g data-mml-node="math">
          <g data-mml-node="mi">
            <path
              data-c="1D44D"
              d="M58 8Q58 23 64 35Q64 36 329 334T596 635L586 637Q575 637 512 637H500H476Q442 637 420 635T365 624T311 598T266 548T228 469Q227 466 226 463T224 458T223 453T222 450L221 448Q218 443 202 443Q185 443 182 453L214 561Q228 606 241 651Q249 679 253 681Q256 683 487 683H718Q723 678 723 675Q723 673 717 649Q189 54 188 52L185 49H274Q369 50 377 51Q452 60 500 100T579 247Q587 272 590 277T603 282H607Q628 282 628 271Q547 5 541 2Q538 0 300 0H124Q58 0 58 8Z"
            />
          </g>
        </g>
      </g>
    </svg>
  </g>
  <g
    transform="rotate(0, 824.9998317988361, 591.0633428222021)translate(814.1548317988361, 580.8183428222021)"
  >
    <title>`Z2`.text</title>
    <svg
      style="font-size: 30px"
      xmlns="http://www.w3.org/2000/svg"
      width="21.689999999999998"
      height="20.490000000000002"
      role="img"
      focusable="false"
      viewBox="0 -683 723 683"
    >
      <g
        stroke="none"
        fill="#000000"
        stroke-width="0"
        transform="scale(1,-1)"
        fill-opacity="1"
      >
        <g data-mml-node="math">
          <g data-mml-node="mi">
            <path
              data-c="1D44D"
              d="M58 8Q58 23 64 35Q64 36 329 334T596 635L586 637Q575 637 512 637H500H476Q442 637 420 635T365 624T311 598T266 548T228 469Q227 466 226 463T224 458T223 453T222 450L221 448Q218 443 202 443Q185 443 182 453L214 561Q228 606 241 651Q249 679 253 681Q256 683 487 683H718Q723 678 723 675Q723 673 717 649Q189 54 188 52L185 49H274Q369 50 377 51Q452 60 500 100T579 247Q587 272 590 277T603 282H607Q628 282 628 271Q547 5 541 2Q538 0 300 0H124Q58 0 58 8Z"
            />
          </g>
        </g>
      </g>
    </svg>
  </g>
  <g>
    <marker
      id="non-surjection-not-epimorphism__registry-CedarEagle308-`g1_3x`.icon-endArrowId"
      markerUnits="strokeWidth"
      markerWidth="12"
      markerHeight="12"
      viewBox="0 0 8 8"
      refX="2.5"
      refY="4"
      orient="auto-start-reverse"
    >
      <path
        d="M0,0 A30,30,0,0,0,8,4 A30,30,0,0,0,0,8 L2.5,4 z"
        fill="#d3888b"
        fill-opacity="1"
      />
    </marker>
    <line
      x1="524.9999985375464"
      y1="262.2082869827194"
      x2="814.0573904877986"
      y2="414.8772705498219"
      stroke="#d3888b"
      stroke-opacity="1"
      stroke-width="1.5"
      marker-end="url(#non-surjection-not-epimorphism__registry-CedarEagle308-`g1_3x`.icon-endArrowId)"
    />
    <title>`g1_3x`.icon</title>
  </g>
  <g>
    <marker
      id="non-surjection-not-epimorphism__registry-CedarEagle308-`g2_3y`.icon-endArrowId"
      markerUnits="strokeWidth"
      markerWidth="12"
      markerHeight="12"
      viewBox="0 0 8 8"
      refX="2.5"
      refY="4"
      orient="auto-start-reverse"
    >
      <path
        d="M0,0 A30,30,0,0,0,8,4 A30,30,0,0,0,0,8 L2.5,4 z"
        fill="#316544"
        fill-opacity="1"
      />
    </marker>
    <line
      x1="524.9999985375459"
      y1="262.2082869827178"
      x2="818.5630938909795"
      y2="744.2445219928566"
      stroke="#316544"
      stroke-opacity="1"
      stroke-width="1.5"
      marker-end="url(#non-surjection-not-epimorphism__registry-CedarEagle308-`g2_3y`.icon-endArrowId)"
    />
    <title>`g2_3y`.icon</title>
  </g>
  <g>
    <marker
      id="non-surjection-not-epimorphism__registry-CedarEagle308-`g2_1x`.icon-endArrowId"
      markerUnits="strokeWidth"
      markerWidth="12"
      markerHeight="12"
      viewBox="0 0 8 8"
      refX="2.5"
      refY="4"
      orient="auto-start-reverse"
    >
      <path
        d="M0,0 A30,30,0,0,0,8,4 A30,30,0,0,0,0,8 L2.5,4 z"
        fill="#316544"
        fill-opacity="1"
      />
    </marker>
    <line
      x1="524.9999979273563"
      y1="127.20828775284821"
      x2="819.1567043964292"
      y2="676.405281874067"
      stroke="#316544"
      stroke-opacity="1"
      stroke-width="1.5"
      marker-end="url(#non-surjection-not-epimorphism__registry-CedarEagle308-`g2_1x`.icon-endArrowId)"
    />
    <title>`g2_1x`.icon</title>
  </g>
  <g>
    <marker
      id="non-surjection-not-epimorphism__registry-CedarEagle308-`g2_2y`.icon-endArrowId"
      markerUnits="strokeWidth"
      markerWidth="12"
      markerHeight="12"
      viewBox="0 0 8 8"
      refX="2.5"
      refY="4"
      orient="auto-start-reverse"
    >
      <path
        d="M0,0 A30,30,0,0,0,8,4 A30,30,0,0,0,0,8 L2.5,4 z"
        fill="#316544"
        fill-opacity="1"
      />
    </marker>
    <line
      x1="524.9999989256587"
      y1="194.70828859691719"
      x2="819.1569504475839"
      y2="743.9049966270861"
      stroke="#316544"
      stroke-opacity="1"
      stroke-width="1.5"
      marker-end="url(#non-surjection-not-epimorphism__registry-CedarEagle308-`g2_2y`.icon-endArrowId)"
    />
    <title>`g2_2y`.icon</title>
  </g>
  <g>
    <marker
      id="non-surjection-not-epimorphism__registry-CedarEagle308-`g1_1x`.icon-endArrowId"
      markerUnits="strokeWidth"
      markerWidth="12"
      markerHeight="12"
      viewBox="0 0 8 8"
      refX="2.5"
      refY="4"
      orient="auto-start-reverse"
    >
      <path
        d="M0,0 A30,30,0,0,0,8,4 A30,30,0,0,0,0,8 L2.5,4 z"
        fill="#d3888b"
        fill-opacity="1"
      />
    </marker>
    <line
      x1="524.999997927359"
      y1="127.2082877528407"
      x2="816.1534080619981"
      y2="412.00337579033965"
      stroke="#d3888b"
      stroke-opacity="1"
      stroke-width="1.5"
      marker-end="url(#non-surjection-not-epimorphism__registry-CedarEagle308-`g1_1x`.icon-endArrowId)"
    />
    <title>`g1_1x`.icon</title>
  </g>
  <g>
    <marker
      id="non-surjection-not-epimorphism__registry-CedarEagle308-`g1_2y`.icon-endArrowId"
      markerUnits="strokeWidth"
      markerWidth="12"
      markerHeight="12"
      viewBox="0 0 8 8"
      refX="2.5"
      refY="4"
      orient="auto-start-reverse"
    >
      <path
        d="M0,0 A30,30,0,0,0,8,4 A30,30,0,0,0,0,8 L2.5,4 z"
        fill="#d3888b"
        fill-opacity="1"
      />
    </marker>
    <line
      x1="524.9999989256587"
      y1="194.70828859691716"
      x2="816.1329859787398"
      y2="478.14040798199574"
      stroke="#d3888b"
      stroke-opacity="1"
      stroke-width="1.5"
      marker-end="url(#non-surjection-not-epimorphism__registry-CedarEagle308-`g1_2y`.icon-endArrowId)"
    />
    <title>`g1_2y`.icon</title>
  </g>
</svg>
